<?xml version="1.0" encoding="UTF-8" standalone="no"?>
<!DOCTYPE svg PUBLIC "-//W3C//DTD SVG 1.1//EN"
 "http://www.w3.org/Graphics/SVG/1.1/DTD/svg11.dtd">
<!-- Generated by graphviz version 2.44.0 (0)
 -->
<!-- Pages: 1 -->
<svg width="1636pt" height="172pt"
 viewBox="0.00 0.00 1635.68 171.54" xmlns="http://www.w3.org/2000/svg" xmlns:xlink="http://www.w3.org/1999/xlink">
<g id="graph0" class="graph" transform="scale(1 1) rotate(0) translate(4 167.54)">
<polygon fill="white" stroke="transparent" points="-4,4 -4,-167.54 1631.68,-167.54 1631.68,4 -4,4"/>
<!-- &#45;1 -->
<g id="node1" class="node">
<title>&#45;1</title>
<polygon fill="lightgray" stroke="black" points="733.32,-163.54 707.32,-163.54 707.32,-145.54 733.32,-145.54 733.32,-163.54"/>
<text text-anchor="middle" x="720.32" y="-152.34" font-family="Times-Roman" font-size="9.00">&#45;1</text>
</g>
<!-- 0 -->
<g id="node5" class="node">
<title>0</title>
<ellipse fill="lightblue" stroke="black" cx="784.32" cy="-16.26" rx="16.03" ry="16.03"/>
<text text-anchor="middle" x="784.32" y="-14.06" font-family="Times-Roman" font-size="9.00">0</text>
</g>
<!-- &#45;1&#45;&gt;0 -->
<g id="edge121" class="edge">
<title>&#45;1&#45;&gt;0</title>
<path fill="none" stroke="green" stroke-width="0.19" d="M707.27,-153.3C649.52,-151.82 422.51,-141.34 486.32,-68.53 526.51,-22.67 700.66,-52.35 758.32,-32.53 759.57,-32.1 760.83,-31.6 762.09,-31.06"/>
<polygon fill="green" stroke="green" stroke-width="0.19" points="764.06,-33.98 771.32,-26.26 760.83,-27.77 764.06,-33.98"/>
</g>
<!-- 1 -->
<g id="node6" class="node">
<title>1</title>
<ellipse fill="lightblue" stroke="black" cx="988.32" cy="-16.26" rx="16.03" ry="16.03"/>
<text text-anchor="middle" x="988.32" y="-14.06" font-family="Times-Roman" font-size="9.00">1</text>
</g>
<!-- &#45;1&#45;&gt;1 -->
<g id="edge122" class="edge">
<title>&#45;1&#45;&gt;1</title>
<path fill="none" stroke="green" stroke-width="0.31" d="M733.48,-149.33C738.4,-147.91 744.07,-146.45 749.32,-145.54 801.36,-136.47 1187.41,-148.28 1223.32,-109.54 1285.67,-42.27 1089.07,-23.32 1015.2,-18.64"/>
<polygon fill="green" stroke="green" stroke-width="0.31" points="1015.03,-15.13 1004.84,-18.03 1014.62,-22.11 1015.03,-15.13"/>
</g>
<!-- 2 -->
<g id="node7" class="node">
<title>2</title>
<ellipse fill="lightblue" stroke="black" cx="835.32" cy="-16.26" rx="16.03" ry="16.03"/>
<text text-anchor="middle" x="835.32" y="-14.06" font-family="Times-Roman" font-size="9.00">2</text>
</g>
<!-- &#45;1&#45;&gt;2 -->
<g id="edge123" class="edge">
<title>&#45;1&#45;&gt;2</title>
<path fill="none" stroke="green" stroke-width="0.11" d="M707.15,-153.09C650.99,-150.75 437.1,-137.24 498.32,-68.53 544.6,-16.58 743.35,-54.61 809.32,-32.53 810.58,-32.11 811.84,-31.62 813.09,-31.08"/>
<polygon fill="green" stroke="green" stroke-width="0.11" points="815.06,-34.01 822.34,-26.31 811.85,-27.79 815.06,-34.01"/>
</g>
<!-- 3 -->
<g id="node8" class="node">
<title>3</title>
<ellipse fill="lightblue" stroke="black" cx="682.32" cy="-16.26" rx="16.03" ry="16.03"/>
<text text-anchor="middle" x="682.32" y="-14.06" font-family="Times-Roman" font-size="9.00">3</text>
</g>
<!-- &#45;1&#45;&gt;3 -->
<g id="edge124" class="edge">
<title>&#45;1&#45;&gt;3</title>
<path fill="none" stroke="red" stroke-width="0.4" d="M707.19,-153.61C623.29,-153.96 164.44,-153.8 123.32,-109.54 110.91,-96.18 110.87,-81.84 123.32,-68.53 163.85,-25.16 599.6,-50.02 656.32,-32.53 657.59,-32.14 658.86,-31.67 660.12,-31.16"/>
<polygon fill="red" stroke="red" stroke-width="0.4" points="662.06,-34.1 669.38,-26.44 658.88,-27.86 662.06,-34.1"/>
</g>
<!-- 4 -->
<g id="node9" class="node">
<title>4</title>
<ellipse fill="lightblue" stroke="black" cx="886.32" cy="-16.26" rx="16.03" ry="16.03"/>
<text text-anchor="middle" x="886.32" y="-14.06" font-family="Times-Roman" font-size="9.00">4</text>
</g>
<!-- &#45;1&#45;&gt;4 -->
<g id="edge125" class="edge">
<title>&#45;1&#45;&gt;4</title>
<path fill="none" stroke="red" stroke-width="0.25" d="M733.49,-149.4C738.42,-147.99 744.08,-146.52 749.32,-145.54 827.92,-130.86 1053.69,-168.84 1107.32,-109.54 1119.55,-96.02 1118.98,-82.54 1107.32,-68.53 1050.94,-0.79 994.9,-63.3 912.32,-32.53 911.08,-32.06 909.83,-31.54 908.58,-30.98"/>
<polygon fill="red" stroke="red" stroke-width="0.25" points="909.85,-27.69 899.37,-26.12 906.58,-33.88 909.85,-27.69"/>
</g>
<!-- 5 -->
<g id="node10" class="node">
<title>5</title>
<ellipse fill="lightblue" stroke="black" cx="631.32" cy="-16.26" rx="16.03" ry="16.03"/>
<text text-anchor="middle" x="631.32" y="-14.06" font-family="Times-Roman" font-size="9.00">5</text>
</g>
<!-- &#45;1&#45;&gt;5 -->
<g id="edge126" class="edge">
<title>&#45;1&#45;&gt;5</title>
<path fill="none" stroke="red" stroke-width="0.18" d="M707.25,-153.23C612.54,-150.96 34.2,-136.01 9.32,-109.54 -3.16,-96.26 -3.03,-81.93 9.32,-68.53 50.21,-24.13 491.17,-18.18 604.76,-17.39"/>
<polygon fill="red" stroke="red" stroke-width="0.18" points="605.01,-20.88 614.99,-17.32 604.97,-13.88 605.01,-20.88"/>
</g>
<!-- 6 -->
<g id="node11" class="node">
<title>6</title>
<ellipse fill="lightblue" stroke="black" cx="733.32" cy="-16.26" rx="16.03" ry="16.03"/>
<text text-anchor="middle" x="733.32" y="-14.06" font-family="Times-Roman" font-size="9.00">6</text>
</g>
<!-- &#45;1&#45;&gt;6 -->
<g id="edge127" class="edge">
<title>&#45;1&#45;&gt;6</title>
<path fill="none" stroke="red" stroke-width="0.4" d="M707.05,-153.26C636.25,-151.65 305.1,-142.4 275.32,-109.54 263.08,-96.03 262.98,-81.94 275.32,-68.53 340.55,2.36 615.49,-61.64 707.32,-32.53 708.58,-32.13 709.85,-31.66 711.11,-31.13"/>
<polygon fill="red" stroke="red" stroke-width="0.4" points="713.06,-34.07 720.37,-26.4 709.87,-27.84 713.06,-34.07"/>
</g>
<!-- 7 -->
<g id="node12" class="node">
<title>7</title>
<ellipse fill="lightblue" stroke="black" cx="937.32" cy="-16.26" rx="16.03" ry="16.03"/>
<text text-anchor="middle" x="937.32" y="-14.06" font-family="Times-Roman" font-size="9.00">7</text>
</g>
<!-- &#45;1&#45;&gt;7 -->
<g id="edge128" class="edge">
<title>&#45;1&#45;&gt;7</title>
<path fill="none" stroke="green" stroke-width="0.47" d="M733.48,-149.34C738.4,-147.92 744.07,-146.46 749.32,-145.54 799.38,-136.74 1170.83,-146.86 1205.32,-109.54 1217.69,-96.15 1217.22,-82.33 1205.32,-68.53 1169.82,-27.35 1014.59,-50.62 963.32,-32.53 962.07,-32.09 960.81,-31.58 959.56,-31.03"/>
<polygon fill="green" stroke="green" stroke-width="0.47" points="960.82,-27.74 950.34,-26.22 957.58,-33.95 960.82,-27.74"/>
</g>
<!-- 96 -->
<g id="node13" class="node">
<title>96</title>
<ellipse fill="white" stroke="black" cx="1175.32" cy="-89.03" rx="20.51" ry="20.51"/>
<text text-anchor="middle" x="1175.32" y="-86.83" font-family="Times-Roman" font-size="9.00">96</text>
</g>
<!-- &#45;1&#45;&gt;96 -->
<g id="edge9" class="edge">
<title>&#45;1&#45;&gt;96</title>
<path fill="none" stroke="green" stroke-width="0.31" d="M733.49,-149.38C738.41,-147.96 744.08,-146.5 749.32,-145.54 921,-114.21 973.61,-161.13 1140.32,-109.54 1143.35,-108.6 1146.4,-107.38 1149.38,-106.01"/>
<polygon fill="green" stroke="green" stroke-width="0.31" points="1151.26,-108.98 1158.52,-101.26 1148.03,-102.77 1151.26,-108.98"/>
</g>
<!-- 97 -->
<g id="node14" class="node">
<title>97</title>
<ellipse fill="white" stroke="black" cx="587.32" cy="-89.03" rx="20.51" ry="20.51"/>
<text text-anchor="middle" x="587.32" y="-86.83" font-family="Times-Roman" font-size="9.00">97</text>
</g>
<!-- &#45;1&#45;&gt;97 -->
<g id="edge10" class="edge">
<title>&#45;1&#45;&gt;97</title>
<path fill="none" stroke="green" stroke-width="0.11" d="M707.14,-148.89C687.03,-141.6 647.7,-126.53 616.32,-109.54 614.99,-108.82 613.64,-108.05 612.29,-107.25"/>
<polygon fill="green" stroke="green" stroke-width="0.11" points="613.87,-104.11 603.54,-101.74 610.13,-110.03 613.87,-104.11"/>
</g>
<!-- 88 -->
<g id="node15" class="node">
<title>88</title>
<ellipse fill="white" stroke="black" cx="646.32" cy="-89.03" rx="20.51" ry="20.51"/>
<text text-anchor="middle" x="646.32" y="-86.83" font-family="Times-Roman" font-size="9.00">88</text>
</g>
<!-- &#45;1&#45;&gt;88 -->
<g id="edge1" class="edge">
<title>&#45;1&#45;&gt;88</title>
<path fill="none" stroke="green" stroke-width="0.15" d="M710.95,-145.5C700.55,-136.57 683.37,-121.83 669.34,-109.79"/>
<polygon fill="green" stroke="green" stroke-width="0.15" points="671.39,-106.93 661.52,-103.08 666.83,-112.24 671.39,-106.93"/>
</g>
<!-- 89 -->
<g id="node16" class="node">
<title>89</title>
<ellipse fill="white" stroke="black" cx="705.32" cy="-89.03" rx="20.51" ry="20.51"/>
<text text-anchor="middle" x="705.32" y="-86.83" font-family="Times-Roman" font-size="9.00">89</text>
</g>
<!-- &#45;1&#45;&gt;89 -->
<g id="edge2" class="edge">
<title>&#45;1&#45;&gt;89</title>
<path fill="none" stroke="red" stroke-width="0.25" d="M718.42,-145.5C716.83,-138.76 714.46,-128.71 712.17,-119.01"/>
<polygon fill="red" stroke="red" stroke-width="0.25" points="715.55,-118.11 709.84,-109.18 708.74,-119.72 715.55,-118.11"/>
</g>
<!-- 90 -->
<g id="node17" class="node">
<title>90</title>
<ellipse fill="white" stroke="black" cx="764.32" cy="-89.03" rx="20.51" ry="20.51"/>
<text text-anchor="middle" x="764.32" y="-86.83" font-family="Times-Roman" font-size="9.00">90</text>
</g>
<!-- &#45;1&#45;&gt;90 -->
<g id="edge3" class="edge">
<title>&#45;1&#45;&gt;90</title>
<path fill="none" stroke="green" stroke-width="0.24" d="M725.89,-145.5C731.26,-137.75 739.65,-125.64 747.23,-114.71"/>
<polygon fill="green" stroke="green" stroke-width="0.24" points="750.23,-116.51 753.05,-106.3 744.48,-112.53 750.23,-116.51"/>
</g>
<!-- 91 -->
<g id="node18" class="node">
<title>91</title>
<ellipse fill="white" stroke="black" cx="823.32" cy="-89.03" rx="20.51" ry="20.51"/>
<text text-anchor="middle" x="823.32" y="-86.83" font-family="Times-Roman" font-size="9.00">91</text>
</g>
<!-- &#45;1&#45;&gt;91 -->
<g id="edge4" class="edge">
<title>&#45;1&#45;&gt;91</title>
<path fill="none" stroke="green" stroke-width="0.1" d="M733.55,-145.97C748.46,-137.37 773.36,-122.81 794.32,-109.54 795.6,-108.73 796.91,-107.89 798.23,-107.04"/>
<polygon fill="green" stroke="green" stroke-width="0.1" points="800.45,-109.76 806.86,-101.33 796.59,-103.92 800.45,-109.76"/>
</g>
<!-- 92 -->
<g id="node19" class="node">
<title>92</title>
<ellipse fill="white" stroke="black" cx="882.32" cy="-89.03" rx="20.51" ry="20.51"/>
<text text-anchor="middle" x="882.32" y="-86.83" font-family="Times-Roman" font-size="9.00">92</text>
</g>
<!-- &#45;1&#45;&gt;92 -->
<g id="edge5" class="edge">
<title>&#45;1&#45;&gt;92</title>
<path fill="none" stroke="red" stroke-width="0.45" d="M733.49,-149.68C762.59,-141.08 831.48,-120.24 853.32,-109.54 854.68,-108.87 856.06,-108.15 857.42,-107.39"/>
<polygon fill="red" stroke="red" stroke-width="0.45" points="859.53,-110.2 866.23,-101.99 855.87,-104.23 859.53,-110.2"/>
</g>
<!-- 93 -->
<g id="node20" class="node">
<title>93</title>
<ellipse fill="white" stroke="black" cx="941.32" cy="-89.03" rx="20.51" ry="20.51"/>
<text text-anchor="middle" x="941.32" y="-86.83" font-family="Times-Roman" font-size="9.00">93</text>
</g>
<!-- &#45;1&#45;&gt;93 -->
<g id="edge6" class="edge">
<title>&#45;1&#45;&gt;93</title>
<path fill="none" stroke="red" stroke-width="0.11" d="M733.56,-149.73C738.5,-148.35 744.15,-146.82 749.32,-145.54 821.33,-127.67 844.12,-138.75 912.32,-109.54 913.72,-108.94 915.11,-108.28 916.5,-107.56"/>
<polygon fill="red" stroke="red" stroke-width="0.11" points="918.55,-110.41 925.37,-102.3 914.99,-104.39 918.55,-110.41"/>
</g>
<!-- 94 -->
<g id="node21" class="node">
<title>94</title>
<ellipse fill="white" stroke="black" cx="528.32" cy="-89.03" rx="20.51" ry="20.51"/>
<text text-anchor="middle" x="528.32" y="-86.83" font-family="Times-Roman" font-size="9.00">94</text>
</g>
<!-- &#45;1&#45;&gt;94 -->
<g id="edge7" class="edge">
<title>&#45;1&#45;&gt;94</title>
<path fill="none" stroke="green" stroke-width="0.42" d="M707.14,-151.5C678.76,-146.77 610.13,-133.62 557.32,-109.54 555.94,-108.91 554.55,-108.22 553.17,-107.48"/>
<polygon fill="green" stroke="green" stroke-width="0.42" points="554.71,-104.32 544.33,-102.16 551.1,-110.31 554.71,-104.32"/>
</g>
<!-- 95 -->
<g id="node22" class="node">
<title>95</title>
<ellipse fill="white" stroke="black" cx="1077.32" cy="-89.03" rx="20.51" ry="20.51"/>
<text text-anchor="middle" x="1077.32" y="-86.83" font-family="Times-Roman" font-size="9.00">95</text>
</g>
<!-- &#45;1&#45;&gt;95 -->
<g id="edge8" class="edge">
<title>&#45;1&#45;&gt;95</title>
<path fill="none" stroke="red" stroke-width="0.36" d="M733.53,-149.57C738.46,-148.18 744.12,-146.68 749.32,-145.54 846.98,-124.22 872.83,-126.59 971.32,-109.54 996.87,-105.12 1025.82,-99.77 1047.01,-95.79"/>
<polygon fill="red" stroke="red" stroke-width="0.36" points="1047.84,-99.19 1057.02,-93.9 1046.55,-92.31 1047.84,-99.19"/>
</g>
<!-- &#45;2 -->
<g id="node2" class="node">
<title>&#45;2</title>
<polygon fill="lightgray" stroke="black" points="784.32,-163.54 758.32,-163.54 758.32,-145.54 784.32,-145.54 784.32,-163.54"/>
<text text-anchor="middle" x="771.32" y="-152.34" font-family="Times-Roman" font-size="9.00">&#45;2</text>
</g>
<!-- &#45;2&#45;&gt;0 -->
<g id="edge129" class="edge">
<title>&#45;2&#45;&gt;0</title>
<path fill="none" stroke="red" stroke-width="0.47" d="M758.12,-149.53C753.2,-148.13 747.53,-146.64 742.32,-145.54 688.69,-134.23 534.14,-151.03 498.32,-109.54 486.41,-95.74 486.35,-82.27 498.32,-68.53 536.63,-24.54 703.22,-51.66 758.32,-32.53 759.57,-32.09 760.83,-31.59 762.08,-31.05"/>
<polygon fill="red" stroke="red" stroke-width="0.47" points="764.06,-33.97 771.32,-26.24 760.83,-27.76 764.06,-33.97"/>
</g>
<!-- &#45;2&#45;&gt;1 -->
<g id="edge130" class="edge">
<title>&#45;2&#45;&gt;1</title>
<path fill="none" stroke="green" stroke-width="0.13" d="M784.6,-150.23C791.62,-148.59 800.39,-146.72 808.32,-145.54 856.07,-138.42 1208.63,-145.06 1241.32,-109.54 1308.16,-36.91 1092.7,-21.32 1015.09,-18.08"/>
<polygon fill="green" stroke="green" stroke-width="0.13" points="1014.81,-14.57 1004.69,-17.69 1014.55,-21.56 1014.81,-14.57"/>
</g>
<!-- &#45;2&#45;&gt;2 -->
<g id="edge131" class="edge">
<title>&#45;2&#45;&gt;2</title>
<path fill="none" stroke="red" stroke-width="0.36" d="M784.42,-150.69C828.82,-141.01 970.94,-110.01 971.32,-109.54 982.74,-95.33 982.02,-83.28 971.32,-68.53 941.13,-26.88 908.22,-53.67 861.32,-32.53 860.14,-31.99 858.94,-31.42 857.75,-30.82"/>
<polygon fill="red" stroke="red" stroke-width="0.36" points="859.24,-27.65 848.79,-25.91 855.88,-33.79 859.24,-27.65"/>
</g>
<!-- &#45;2&#45;&gt;3 -->
<g id="edge132" class="edge">
<title>&#45;2&#45;&gt;3</title>
<path fill="none" stroke="red" stroke-width="0.14" d="M758.17,-149.29C753.25,-147.87 747.58,-146.42 742.32,-145.54 678.53,-134.88 205.62,-156.67 161.32,-109.54 148.84,-96.26 148.91,-81.88 161.32,-68.53 198.87,-28.14 603.67,-48.91 656.32,-32.53 657.59,-32.13 658.85,-31.67 660.11,-31.15"/>
<polygon fill="red" stroke="red" stroke-width="0.14" points="662.06,-34.09 669.38,-26.43 658.88,-27.85 662.06,-34.09"/>
</g>
<!-- &#45;2&#45;&gt;4 -->
<g id="edge133" class="edge">
<title>&#45;2&#45;&gt;4</title>
<path fill="none" stroke="green" stroke-width="0.34" d="M784.61,-150.25C791.62,-148.62 800.39,-146.75 808.32,-145.54 852.1,-138.85 1175.45,-142.24 1205.32,-109.54 1217.61,-96.08 1217.4,-82.18 1205.32,-68.53 1161.85,-19.39 974.45,-53.57 912.32,-32.53 911.07,-32.1 909.8,-31.61 908.55,-31.07"/>
<polygon fill="green" stroke="green" stroke-width="0.34" points="909.8,-27.78 899.31,-26.29 906.58,-33.99 909.8,-27.78"/>
</g>
<!-- &#45;2&#45;&gt;5 -->
<g id="edge134" class="edge">
<title>&#45;2&#45;&gt;5</title>
<path fill="none" stroke="green" stroke-width="0.12" d="M758.17,-149.26C753.25,-147.83 747.58,-146.39 742.32,-145.54 665.99,-133.18 100.57,-165.61 47.32,-109.54 34.77,-96.32 35.01,-81.97 47.32,-68.53 85.41,-26.94 495.29,-18.94 604.64,-17.54"/>
<polygon fill="green" stroke="green" stroke-width="0.12" points="604.86,-21.04 614.81,-17.42 604.77,-14.04 604.86,-21.04"/>
</g>
<!-- &#45;2&#45;&gt;6 -->
<g id="edge135" class="edge">
<title>&#45;2&#45;&gt;6</title>
<path fill="none" stroke="red" stroke-width="0.3" d="M758.16,-149.35C753.23,-147.93 747.57,-146.47 742.32,-145.54 695.23,-137.14 345.7,-144.75 313.32,-109.54 300.98,-96.12 301.03,-81.99 313.32,-68.53 372.59,-3.59 623.62,-59.43 707.32,-32.53 708.58,-32.12 709.85,-31.65 711.11,-31.12"/>
<polygon fill="red" stroke="red" stroke-width="0.3" points="713.06,-34.05 720.36,-26.38 709.86,-27.82 713.06,-34.05"/>
</g>
<!-- &#45;2&#45;&gt;7 -->
<g id="edge136" class="edge">
<title>&#45;2&#45;&gt;7</title>
<path fill="none" stroke="green" stroke-width="0.26" d="M784.6,-150.24C791.62,-148.61 800.39,-146.74 808.32,-145.54 854.09,-138.63 1192.04,-143.65 1223.32,-109.54 1235.64,-96.1 1235.29,-82.27 1223.32,-68.53 1185.01,-24.54 1018.42,-51.66 963.32,-32.53 962.07,-32.09 960.81,-31.59 959.56,-31.05"/>
<polygon fill="green" stroke="green" stroke-width="0.26" points="960.81,-27.76 950.33,-26.24 957.58,-33.97 960.81,-27.76"/>
</g>
<!-- &#45;2&#45;&gt;96 -->
<g id="edge19" class="edge">
<title>&#45;2&#45;&gt;96</title>
<path fill="none" stroke="red" stroke-width="0.11" d="M784.61,-150.31C791.63,-148.7 800.41,-146.82 808.32,-145.54 954.83,-121.82 998.89,-154.57 1140.32,-109.54 1143.34,-108.58 1146.39,-107.34 1149.37,-105.96"/>
<polygon fill="red" stroke="red" stroke-width="0.11" points="1151.25,-108.93 1158.5,-101.2 1148.01,-102.72 1151.25,-108.93"/>
</g>
<!-- &#45;2&#45;&gt;97 -->
<g id="edge20" class="edge">
<title>&#45;2&#45;&gt;97</title>
<path fill="none" stroke="red" stroke-width="0.42" d="M758.17,-149.86C721.33,-139.57 619.64,-111.08 616.32,-109.54 614.94,-108.9 613.56,-108.2 612.18,-107.46"/>
<polygon fill="red" stroke="red" stroke-width="0.42" points="613.72,-104.3 603.35,-102.12 610.1,-110.29 613.72,-104.3"/>
</g>
<!-- &#45;2&#45;&gt;88 -->
<g id="edge11" class="edge">
<title>&#45;2&#45;&gt;88</title>
<path fill="none" stroke="red" stroke-width="0.28" d="M758.26,-148.35C739.48,-140.7 703.95,-125.59 675.32,-109.54 674,-108.8 672.66,-108.01 671.31,-107.21"/>
<polygon fill="red" stroke="red" stroke-width="0.28" points="672.91,-104.07 662.59,-101.65 669.14,-109.97 672.91,-104.07"/>
</g>
<!-- &#45;2&#45;&gt;89 -->
<g id="edge12" class="edge">
<title>&#45;2&#45;&gt;89</title>
<path fill="none" stroke="green" stroke-width="0.18" d="M762.96,-145.5C753.94,-136.82 739.22,-122.65 726.91,-110.8"/>
<polygon fill="green" stroke="green" stroke-width="0.18" points="729.26,-108.21 719.63,-103.8 724.41,-113.26 729.26,-108.21"/>
</g>
<!-- &#45;2&#45;&gt;90 -->
<g id="edge13" class="edge">
<title>&#45;2&#45;&gt;90</title>
<path fill="none" stroke="red" stroke-width="0.15" d="M770.43,-145.5C769.7,-138.88 768.62,-129.07 767.57,-119.53"/>
<polygon fill="red" stroke="red" stroke-width="0.15" points="771.04,-119.01 766.46,-109.45 764.08,-119.78 771.04,-119.01"/>
</g>
<!-- &#45;2&#45;&gt;91 -->
<g id="edge14" class="edge">
<title>&#45;2&#45;&gt;91</title>
<path fill="none" stroke="red" stroke-width="0.15" d="M777.91,-145.5C784.5,-137.44 794.98,-124.65 804.2,-113.38"/>
<polygon fill="red" stroke="red" stroke-width="0.15" points="807,-115.49 810.63,-105.54 801.58,-111.06 807,-115.49"/>
</g>
<!-- &#45;2&#45;&gt;92 -->
<g id="edge15" class="edge">
<title>&#45;2&#45;&gt;92</title>
<path fill="none" stroke="green" stroke-width="0.38" d="M784.33,-147.07C800.68,-138.81 829.52,-123.88 853.32,-109.54 854.62,-108.76 855.94,-107.94 857.27,-107.11"/>
<polygon fill="green" stroke="green" stroke-width="0.38" points="859.47,-109.85 865.94,-101.46 855.65,-103.98 859.47,-109.85"/>
</g>
<!-- &#45;2&#45;&gt;93 -->
<g id="edge16" class="edge">
<title>&#45;2&#45;&gt;93</title>
<path fill="none" stroke="red" stroke-width="0.21" d="M784.63,-150.75C810.22,-145.08 867.7,-130.95 912.32,-109.54 913.69,-108.88 915.07,-108.17 916.44,-107.41"/>
<polygon fill="red" stroke="red" stroke-width="0.21" points="918.54,-110.23 925.25,-102.04 914.89,-104.26 918.54,-110.23"/>
</g>
<!-- &#45;2&#45;&gt;94 -->
<g id="edge17" class="edge">
<title>&#45;2&#45;&gt;94</title>
<path fill="none" stroke="green" stroke-width="0.17" d="M758.09,-149.66C753.16,-148.27 747.51,-146.76 742.32,-145.54 660.78,-126.39 634.73,-141.55 557.32,-109.54 555.92,-108.96 554.51,-108.31 553.12,-107.6"/>
<polygon fill="green" stroke="green" stroke-width="0.17" points="554.63,-104.43 544.23,-102.38 551.09,-110.47 554.63,-104.43"/>
</g>
<!-- &#45;2&#45;&gt;95 -->
<g id="edge18" class="edge">
<title>&#45;2&#45;&gt;95</title>
<path fill="none" stroke="green" stroke-width="0.34" d="M784.66,-150.55C791.69,-149 800.46,-147.11 808.32,-145.54 895.17,-128.18 917.91,-128.99 1004.32,-109.54 1018.76,-106.29 1034.65,-102.11 1047.91,-98.46"/>
<polygon fill="green" stroke="green" stroke-width="0.34" points="1049.21,-101.73 1057.9,-95.67 1047.33,-94.99 1049.21,-101.73"/>
</g>
<!-- &#45;3 -->
<g id="node3" class="node">
<title>&#45;3</title>
<polygon fill="lightgray" stroke="black" points="843.32,-163.54 817.32,-163.54 817.32,-145.54 843.32,-145.54 843.32,-163.54"/>
<text text-anchor="middle" x="830.32" y="-152.34" font-family="Times-Roman" font-size="9.00">&#45;3</text>
</g>
<!-- &#45;3&#45;&gt;0 -->
<g id="edge137" class="edge">
<title>&#45;3&#45;&gt;0</title>
<path fill="none" stroke="green" stroke-width="0.35" d="M843.49,-151.44C875.49,-146.04 955.82,-130.61 971.32,-109.54 982.12,-94.86 982.72,-82.75 971.32,-68.53 925.48,-11.3 878.54,-59.41 810.32,-32.53 809.09,-32.04 807.85,-31.5 806.61,-30.93"/>
<polygon fill="green" stroke="green" stroke-width="0.35" points="807.88,-27.64 797.41,-26.02 804.58,-33.81 807.88,-27.64"/>
</g>
<!-- &#45;3&#45;&gt;1 -->
<g id="edge138" class="edge">
<title>&#45;3&#45;&gt;1</title>
<path fill="none" stroke="red" stroke-width="0.16" d="M843.41,-151.44C855.34,-149.6 873.47,-147 889.32,-145.54 929.7,-141.81 1590.36,-138.91 1618.32,-109.54 1630.89,-96.34 1630.68,-81.93 1618.32,-68.53 1576.84,-23.53 1129.3,-18.03 1014.85,-17.36"/>
<polygon fill="red" stroke="red" stroke-width="0.16" points="1014.57,-13.86 1004.55,-17.3 1014.53,-20.85 1014.57,-13.86"/>
</g>
<!-- &#45;3&#45;&gt;2 -->
<g id="edge139" class="edge">
<title>&#45;3&#45;&gt;2</title>
<path fill="none" stroke="green" stroke-width="0.49" d="M843.43,-151.68C855.38,-150 873.52,-147.51 889.32,-145.54 959.45,-136.79 1158.26,-162.27 1205.32,-109.54 1217.46,-95.94 1217.52,-82.07 1205.32,-68.53 1153.88,-11.42 934.34,-56.53 861.32,-32.53 860.06,-32.11 858.8,-31.63 857.54,-31.1"/>
<polygon fill="green" stroke="green" stroke-width="0.49" points="858.79,-27.81 848.29,-26.34 855.58,-34.03 858.79,-27.81"/>
</g>
<!-- &#45;3&#45;&gt;3 -->
<g id="edge140" class="edge">
<title>&#45;3&#45;&gt;3</title>
<path fill="none" stroke="red" stroke-width="0.13" d="M817.02,-150.34C810,-148.73 801.23,-146.85 793.32,-145.54 725.56,-134.27 531.98,-160.86 486.32,-109.54 474.21,-95.92 474.84,-82.69 486.32,-68.53 534.95,-8.53 584.31,-60.44 656.32,-32.53 657.56,-32.05 658.8,-31.51 660.04,-30.94"/>
<polygon fill="red" stroke="red" stroke-width="0.13" points="662.06,-33.83 669.24,-26.05 658.77,-27.65 662.06,-33.83"/>
</g>
<!-- &#45;3&#45;&gt;4 -->
<g id="edge141" class="edge">
<title>&#45;3&#45;&gt;4</title>
<path fill="none" stroke="green" stroke-width="0.41" d="M843.42,-151.54C855.36,-149.78 873.49,-147.23 889.32,-145.54 940.63,-140.07 1317.28,-147.41 1352.32,-109.54 1364.7,-96.16 1364.67,-81.93 1352.32,-68.53 1285.84,3.62 1005.86,-62.1 912.32,-32.53 911.06,-32.13 909.79,-31.66 908.53,-31.14"/>
<polygon fill="green" stroke="green" stroke-width="0.41" points="909.77,-27.84 899.27,-26.4 906.58,-34.07 909.77,-27.84"/>
</g>
<!-- &#45;3&#45;&gt;5 -->
<g id="edge142" class="edge">
<title>&#45;3&#45;&gt;5</title>
<path fill="none" stroke="green" stroke-width="0.46" d="M817.02,-150.33C810.01,-148.72 801.23,-146.84 793.32,-145.54 722.92,-133.99 521.85,-162.74 474.32,-109.54 462.18,-95.95 463.62,-83.28 474.32,-68.53 504.23,-27.3 568.22,-18.6 604.59,-17.14"/>
<polygon fill="green" stroke="green" stroke-width="0.46" points="605.02,-20.63 614.93,-16.89 604.85,-13.64 605.02,-20.63"/>
</g>
<!-- &#45;3&#45;&gt;6 -->
<g id="edge143" class="edge">
<title>&#45;3&#45;&gt;6</title>
<path fill="none" stroke="red" stroke-width="0.14" d="M817.02,-150.35C810,-148.75 801.23,-146.87 793.32,-145.54 728.2,-134.55 542.1,-158.99 498.32,-109.54 486.24,-95.89 486.58,-82.47 498.32,-68.53 559.05,3.56 618.8,-64.91 707.32,-32.53 708.57,-32.07 709.82,-31.56 711.06,-31"/>
<polygon fill="red" stroke="red" stroke-width="0.14" points="713.06,-33.9 720.28,-26.15 709.8,-27.71 713.06,-33.9"/>
</g>
<!-- &#45;3&#45;&gt;7 -->
<g id="edge144" class="edge">
<title>&#45;3&#45;&gt;7</title>
<path fill="none" stroke="red" stroke-width="0.19" d="M843.41,-151.47C855.34,-149.66 873.48,-147.07 889.32,-145.54 957.45,-138.94 1457.35,-159.33 1504.32,-109.54 1516.83,-96.28 1516.77,-81.84 1504.32,-68.53 1463.16,-24.54 1020.9,-50.25 963.32,-32.53 962.05,-32.14 960.78,-31.68 959.52,-31.16"/>
<polygon fill="red" stroke="red" stroke-width="0.19" points="960.76,-27.86 950.26,-26.45 957.59,-34.1 960.76,-27.86"/>
</g>
<!-- &#45;3&#45;&gt;96 -->
<g id="edge29" class="edge">
<title>&#45;3&#45;&gt;96</title>
<path fill="none" stroke="red" stroke-width="0.41" d="M843.69,-151.71C902.21,-143.69 1133.12,-111.96 1140.32,-109.54 1143.32,-108.53 1146.36,-107.26 1149.34,-105.86"/>
<polygon fill="red" stroke="red" stroke-width="0.41" points="1151.23,-108.82 1158.46,-101.07 1147.98,-102.62 1151.23,-108.82"/>
</g>
<!-- &#45;3&#45;&gt;97 -->
<g id="edge30" class="edge">
<title>&#45;3&#45;&gt;97</title>
<path fill="none" stroke="green" stroke-width="0.19" d="M817.32,-150.69C810.23,-149.14 801.3,-147.21 793.32,-145.54 714.75,-129.06 690.37,-140.53 616.32,-109.54 614.92,-108.95 613.52,-108.3 612.13,-107.59"/>
<polygon fill="green" stroke="green" stroke-width="0.19" points="613.64,-104.42 603.25,-102.36 610.09,-110.45 613.64,-104.42"/>
</g>
<!-- &#45;3&#45;&gt;88 -->
<g id="edge21" class="edge">
<title>&#45;3&#45;&gt;88</title>
<path fill="none" stroke="green" stroke-width="0.16" d="M816.94,-150.32C784.26,-142.36 701.2,-121.55 675.32,-109.54 673.94,-108.9 672.56,-108.2 671.18,-107.46"/>
<polygon fill="green" stroke="green" stroke-width="0.16" points="672.72,-104.3 662.35,-102.12 669.1,-110.29 672.72,-104.3"/>
</g>
<!-- &#45;3&#45;&gt;89 -->
<g id="edge22" class="edge">
<title>&#45;3&#45;&gt;89</title>
<path fill="none" stroke="red" stroke-width="0.2" d="M817.26,-148.35C798.48,-140.7 762.95,-125.59 734.32,-109.54 733,-108.8 731.66,-108.01 730.31,-107.21"/>
<polygon fill="red" stroke="red" stroke-width="0.2" points="731.91,-104.07 721.59,-101.65 728.14,-109.97 731.91,-104.07"/>
</g>
<!-- &#45;3&#45;&gt;90 -->
<g id="edge23" class="edge">
<title>&#45;3&#45;&gt;90</title>
<path fill="none" stroke="red" stroke-width="0.18" d="M821.96,-145.5C812.94,-136.82 798.22,-122.65 785.91,-110.8"/>
<polygon fill="red" stroke="red" stroke-width="0.18" points="788.26,-108.21 778.63,-103.8 783.41,-113.26 788.26,-108.21"/>
</g>
<!-- &#45;3&#45;&gt;91 -->
<g id="edge24" class="edge">
<title>&#45;3&#45;&gt;91</title>
<path fill="none" stroke="green" stroke-width="0.22" d="M829.43,-145.5C828.7,-138.88 827.62,-129.07 826.57,-119.53"/>
<polygon fill="green" stroke="green" stroke-width="0.22" points="830.04,-119.01 825.46,-109.45 823.08,-119.78 830.04,-119.01"/>
</g>
<!-- &#45;3&#45;&gt;92 -->
<g id="edge25" class="edge">
<title>&#45;3&#45;&gt;92</title>
<path fill="none" stroke="green" stroke-width="0.5" d="M836.91,-145.5C843.5,-137.44 853.98,-124.65 863.2,-113.38"/>
<polygon fill="green" stroke="green" stroke-width="0.5" points="866,-115.49 869.63,-105.54 860.58,-111.06 866,-115.49"/>
</g>
<!-- &#45;3&#45;&gt;93 -->
<g id="edge26" class="edge">
<title>&#45;3&#45;&gt;93</title>
<path fill="none" stroke="green" stroke-width="0.65" d="M843.33,-147.07C859.68,-138.81 888.52,-123.88 912.32,-109.54 913.62,-108.76 914.94,-107.94 916.27,-107.11"/>
<polygon fill="green" stroke="green" stroke-width="0.65" points="918.47,-109.85 924.94,-101.46 914.65,-103.98 918.47,-109.85"/>
</g>
<!-- &#45;3&#45;&gt;94 -->
<g id="edge27" class="edge">
<title>&#45;3&#45;&gt;94</title>
<path fill="none" stroke="green" stroke-width="0.26" d="M817,-150.45C809.98,-148.88 801.21,-146.99 793.32,-145.54 688.97,-126.32 656.18,-148.08 557.32,-109.54 555.91,-108.99 554.49,-108.36 553.09,-107.67"/>
<polygon fill="green" stroke="green" stroke-width="0.26" points="554.59,-104.49 544.18,-102.51 551.08,-110.55 554.59,-104.49"/>
</g>
<!-- &#45;3&#45;&gt;95 -->
<g id="edge28" class="edge">
<title>&#45;3&#45;&gt;95</title>
<path fill="none" stroke="red" stroke-width="0.11" d="M843.36,-151.37C883.53,-144.59 1004.89,-123.48 1042.32,-109.54 1045.29,-108.43 1048.31,-107.1 1051.27,-105.67"/>
<polygon fill="red" stroke="red" stroke-width="0.11" points="1053.18,-108.61 1060.37,-100.84 1049.9,-102.43 1053.18,-108.61"/>
</g>
<!-- &#45;4 -->
<g id="node4" class="node">
<title>&#45;4</title>
<polygon fill="lightgray" stroke="black" points="924.32,-163.54 898.32,-163.54 898.32,-145.54 924.32,-145.54 924.32,-163.54"/>
<text text-anchor="middle" x="911.32" y="-152.34" font-family="Times-Roman" font-size="9.00">&#45;4</text>
</g>
<!-- &#45;4&#45;&gt;0 -->
<g id="edge145" class="edge">
<title>&#45;4&#45;&gt;0</title>
<path fill="none" stroke="red" stroke-width="0.14" d="M924.61,-152.96C987.42,-150.09 1252.45,-136.46 1276.32,-109.54 1288.41,-95.9 1288.7,-81.9 1276.32,-68.53 1241.04,-30.42 859.87,-48.07 810.32,-32.53 809.06,-32.13 807.79,-31.66 806.53,-31.14"/>
<polygon fill="red" stroke="red" stroke-width="0.14" points="807.77,-27.85 797.27,-26.42 804.58,-34.08 807.77,-27.85"/>
</g>
<!-- &#45;4&#45;&gt;1 -->
<g id="edge146" class="edge">
<title>&#45;4&#45;&gt;1</title>
<path fill="none" stroke="green" stroke-width="0.35" d="M924.58,-153.22C1019.41,-150.89 1591.68,-135.77 1616.32,-109.54 1628.8,-96.25 1628.67,-81.93 1616.32,-68.53 1575.02,-23.72 1129.82,-18.08 1015.14,-17.37"/>
<polygon fill="green" stroke="green" stroke-width="0.35" points="1014.83,-13.86 1004.81,-17.31 1014.79,-20.86 1014.83,-13.86"/>
</g>
<!-- &#45;4&#45;&gt;2 -->
<g id="edge147" class="edge">
<title>&#45;4&#45;&gt;2</title>
<path fill="none" stroke="red" stroke-width="0.17" d="M924.39,-153.46C1001.34,-152.84 1393.17,-147.81 1428.32,-109.54 1440.65,-96.11 1440.79,-81.82 1428.32,-68.53 1385.12,-22.5 921.68,-51.01 861.32,-32.53 860.05,-32.14 858.78,-31.68 857.52,-31.16"/>
<polygon fill="red" stroke="red" stroke-width="0.17" points="858.76,-27.87 848.26,-26.45 855.59,-34.11 858.76,-27.87"/>
</g>
<!-- &#45;4&#45;&gt;3 -->
<g id="edge148" class="edge">
<title>&#45;4&#45;&gt;3</title>
<path fill="none" stroke="green" stroke-width="0.44" d="M898.21,-151.63C886.27,-149.93 868.13,-147.41 852.32,-145.54 813.06,-140.88 524.83,-138.88 498.32,-109.54 486.1,-96.01 486.95,-82.78 498.32,-68.53 543.24,-12.23 589.37,-59.07 656.32,-32.53 657.55,-32.04 658.79,-31.5 660.03,-30.92"/>
<polygon fill="green" stroke="green" stroke-width="0.44" points="662.06,-33.81 669.23,-26 658.76,-27.63 662.06,-33.81"/>
</g>
<!-- &#45;4&#45;&gt;4 -->
<g id="edge149" class="edge">
<title>&#45;4&#45;&gt;4</title>
<path fill="none" stroke="red" stroke-width="0.49" d="M924.55,-153.72C1014.48,-154.85 1533.83,-159.19 1580.32,-109.54 1592.78,-96.23 1592.86,-81.76 1580.32,-68.53 1529.2,-14.57 983.5,-53.95 912.32,-32.53 911.05,-32.15 909.78,-31.69 908.52,-31.18"/>
<polygon fill="red" stroke="red" stroke-width="0.49" points="909.75,-27.88 899.25,-26.48 906.59,-34.12 909.75,-27.88"/>
</g>
<!-- &#45;4&#45;&gt;5 -->
<g id="edge150" class="edge">
<title>&#45;4&#45;&gt;5</title>
<path fill="none" stroke="red" stroke-width="0.48" d="M898.22,-151.62C886.27,-149.91 868.13,-147.39 852.32,-145.54 811.73,-140.79 513.76,-139.81 486.32,-109.54 474.08,-96.03 475.8,-83.41 486.32,-68.53 513.17,-30.56 570.59,-20.53 604.57,-17.99"/>
<polygon fill="red" stroke="red" stroke-width="0.48" points="604.92,-21.48 614.7,-17.4 604.52,-14.49 604.92,-21.48"/>
</g>
<!-- &#45;4&#45;&gt;6 -->
<g id="edge151" class="edge">
<title>&#45;4&#45;&gt;6</title>
<path fill="none" stroke="green" stroke-width="0.53" d="M924.49,-153.92C991.39,-155.45 1287.28,-157.37 1205.32,-68.53 1137.9,4.56 854.14,-62.45 759.32,-32.53 758.06,-32.13 756.79,-31.66 755.53,-31.14"/>
<polygon fill="green" stroke="green" stroke-width="0.53" points="756.77,-27.84 746.27,-26.41 753.58,-34.07 756.77,-27.84"/>
</g>
<!-- &#45;4&#45;&gt;7 -->
<g id="edge152" class="edge">
<title>&#45;4&#45;&gt;7</title>
<path fill="none" stroke="green" stroke-width="0.3" d="M924.54,-153.2C1017.84,-150.75 1574.35,-135.09 1598.32,-109.54 1610.79,-96.24 1610.84,-81.78 1598.32,-68.53 1549.79,-17.16 1030.96,-52.99 963.32,-32.53 962.05,-32.14 960.78,-31.69 959.52,-31.17"/>
<polygon fill="green" stroke="green" stroke-width="0.3" points="960.75,-27.88 950.25,-26.47 957.59,-34.12 960.75,-27.88"/>
</g>
<!-- &#45;4&#45;&gt;96 -->
<g id="edge39" class="edge">
<title>&#45;4&#45;&gt;96</title>
<path fill="none" stroke="red" stroke-width="0.19" d="M924.36,-152.49C959.96,-149.34 1061.38,-138.28 1140.32,-109.54 1143.3,-108.46 1146.32,-107.14 1149.28,-105.71"/>
<polygon fill="red" stroke="red" stroke-width="0.19" points="1151.19,-108.66 1158.39,-100.89 1147.92,-102.47 1151.19,-108.66"/>
</g>
<!-- &#45;4&#45;&gt;97 -->
<g id="edge40" class="edge">
<title>&#45;4&#45;&gt;97</title>
<path fill="none" stroke="red" stroke-width="0.4" d="M898.18,-151.74C842.68,-144.14 629.75,-114.75 616.32,-109.54 614.91,-108.99 613.49,-108.36 612.09,-107.68"/>
<polygon fill="red" stroke="red" stroke-width="0.4" points="613.59,-104.5 603.18,-102.53 610.08,-110.56 613.59,-104.5"/>
</g>
<!-- &#45;4&#45;&gt;88 -->
<g id="edge31" class="edge">
<title>&#45;4&#45;&gt;88</title>
<path fill="none" stroke="red" stroke-width="0.11" d="M898.29,-151.82C855.06,-146.01 716.79,-126.5 675.32,-109.54 673.92,-108.96 672.51,-108.32 671.12,-107.61"/>
<polygon fill="red" stroke="red" stroke-width="0.11" points="672.62,-104.44 662.22,-102.41 669.09,-110.48 672.62,-104.44"/>
</g>
<!-- &#45;4&#45;&gt;89 -->
<g id="edge32" class="edge">
<title>&#45;4&#45;&gt;89</title>
<path fill="none" stroke="red" stroke-width="0.21" d="M897.93,-151.83C867.68,-147.64 792.2,-135.24 734.32,-109.54 732.93,-108.92 731.54,-108.24 730.16,-107.51"/>
<polygon fill="red" stroke="red" stroke-width="0.21" points="731.68,-104.35 721.3,-102.22 728.09,-110.36 731.68,-104.35"/>
</g>
<!-- &#45;4&#45;&gt;90 -->
<g id="edge33" class="edge">
<title>&#45;4&#45;&gt;90</title>
<path fill="none" stroke="green" stroke-width="0.6" d="M898.15,-149.74C875.89,-143.09 829.69,-128.22 793.32,-109.54 791.97,-108.85 790.61,-108.1 789.25,-107.32"/>
<polygon fill="green" stroke="green" stroke-width="0.6" points="790.81,-104.18 780.47,-101.87 787.12,-110.12 790.81,-104.18"/>
</g>
<!-- &#45;4&#45;&gt;91 -->
<g id="edge34" class="edge">
<title>&#45;4&#45;&gt;91</title>
<path fill="none" stroke="red" stroke-width="0.22" d="M900.18,-145.5C887.18,-136.12 865.3,-120.33 848.2,-107.99"/>
<polygon fill="red" stroke="red" stroke-width="0.22" points="849.92,-104.91 839.76,-101.9 845.83,-110.59 849.92,-104.91"/>
</g>
<!-- &#45;4&#45;&gt;92 -->
<g id="edge35" class="edge">
<title>&#45;4&#45;&gt;92</title>
<path fill="none" stroke="green" stroke-width="0.36" d="M907.65,-145.5C904.36,-138.29 899.34,-127.3 894.63,-117"/>
<polygon fill="green" stroke="green" stroke-width="0.36" points="897.8,-115.5 890.46,-107.86 891.43,-118.41 897.8,-115.5"/>
</g>
<!-- &#45;4&#45;&gt;93 -->
<g id="edge36" class="edge">
<title>&#45;4&#45;&gt;93</title>
<path fill="none" stroke="green" stroke-width="0.1" d="M915.12,-145.5C918.52,-138.29 923.72,-127.3 928.58,-117"/>
<polygon fill="green" stroke="green" stroke-width="0.1" points="931.79,-118.39 932.9,-107.86 925.47,-115.4 931.79,-118.39"/>
</g>
<!-- &#45;4&#45;&gt;94 -->
<g id="edge37" class="edge">
<title>&#45;4&#45;&gt;94</title>
<path fill="none" stroke="green" stroke-width="0.19" d="M898.2,-151.71C886.25,-150.05 868.11,-147.57 852.32,-145.54 721.32,-128.67 681.09,-155.67 557.32,-109.54 555.9,-109.01 554.48,-108.4 553.07,-107.72"/>
<polygon fill="green" stroke="green" stroke-width="0.19" points="554.56,-104.54 544.15,-102.61 551.08,-110.62 554.56,-104.54"/>
</g>
<!-- &#45;4&#45;&gt;95 -->
<g id="edge38" class="edge">
<title>&#45;4&#45;&gt;95</title>
<path fill="none" stroke="green" stroke-width="0.2" d="M924.64,-149.95C948.66,-143.28 1000.63,-127.97 1042.32,-109.54 1045.22,-108.26 1048.19,-106.82 1051.12,-105.31"/>
<polygon fill="green" stroke="green" stroke-width="0.2" points="1053.07,-108.24 1060.2,-100.4 1049.74,-102.08 1053.07,-108.24"/>
</g>
<!-- 96&#45;&gt;0 -->
<g id="edge105" class="edge">
<title>96&#45;&gt;0</title>
<path fill="none" stroke="red" stroke-width="0.64" d="M1156.18,-81.66C1142.66,-77.38 1124.05,-71.92 1107.32,-68.53 977,-42.11 936.29,-75.08 810.32,-32.53 809.07,-32.1 807.8,-31.61 806.55,-31.08"/>
<polygon fill="red" stroke="red" stroke-width="0.64" points="807.8,-27.78 797.31,-26.29 804.58,-34 807.8,-27.78"/>
</g>
<!-- 96&#45;&gt;1 -->
<g id="edge106" class="edge">
<title>96&#45;&gt;1</title>
<path fill="none" stroke="red" stroke-width="0.48" d="M1158.2,-77.67C1152.61,-74.51 1146.3,-71.17 1140.32,-68.53 1097.04,-49.36 1044.23,-33.05 1013.62,-24.25"/>
<polygon fill="red" stroke="red" stroke-width="0.48" points="1014.35,-20.82 1003.77,-21.46 1012.44,-27.55 1014.35,-20.82"/>
</g>
<!-- 96&#45;&gt;2 -->
<g id="edge107" class="edge">
<title>96&#45;&gt;2</title>
<path fill="none" stroke="green" stroke-width="0.3" d="M1155.86,-81.7C1142.35,-77.49 1123.89,-72.1 1107.32,-68.53 999.3,-45.24 965.56,-69.18 861.32,-32.53 860.07,-32.09 858.81,-31.59 857.56,-31.04"/>
<polygon fill="green" stroke="green" stroke-width="0.3" points="858.82,-27.75 848.33,-26.22 855.58,-33.95 858.82,-27.75"/>
</g>
<!-- 96&#45;&gt;3 -->
<g id="edge108" class="edge">
<title>96&#45;&gt;3</title>
<path fill="none" stroke="green" stroke-width="0.22" d="M1156.21,-81.5C1142.71,-77.14 1124.1,-71.66 1107.32,-68.53 932.29,-35.83 877.86,-86.91 708.32,-32.53 707.06,-32.12 705.79,-31.65 704.54,-31.12"/>
<polygon fill="green" stroke="green" stroke-width="0.22" points="705.78,-27.83 695.28,-26.38 702.58,-34.06 705.78,-27.83"/>
</g>
<!-- 96&#45;&gt;4 -->
<g id="edge109" class="edge">
<title>96&#45;&gt;4</title>
<path fill="none" stroke="red" stroke-width="0.19" d="M1158.44,-77.05C1152.86,-73.86 1146.5,-70.66 1140.32,-68.53 1043.35,-35.04 1008.91,-67.1 912.32,-32.53 911.07,-32.08 909.82,-31.57 908.57,-31.02"/>
<polygon fill="red" stroke="red" stroke-width="0.19" points="909.83,-27.73 899.35,-26.19 906.58,-33.93 909.83,-27.73"/>
</g>
<!-- 96&#45;&gt;5 -->
<g id="edge110" class="edge">
<title>96&#45;&gt;5</title>
<path fill="none" stroke="red" stroke-width="0.22" d="M1156.22,-81.44C1142.72,-77.06 1124.12,-71.58 1107.32,-68.53 909.91,-32.69 848.68,-92.84 657.32,-32.53 656.06,-32.13 654.79,-31.66 653.53,-31.14"/>
<polygon fill="red" stroke="red" stroke-width="0.22" points="654.77,-27.84 644.27,-26.41 651.58,-34.07 654.77,-27.84"/>
</g>
<!-- 96&#45;&gt;6 -->
<g id="edge111" class="edge">
<title>96&#45;&gt;6</title>
<path fill="none" stroke="red" stroke-width="0.33" d="M1156.2,-81.57C1142.69,-77.24 1124.08,-71.77 1107.32,-68.53 954.66,-38.97 907.07,-80.99 759.32,-32.53 758.06,-32.11 756.8,-31.63 755.54,-31.1"/>
<polygon fill="red" stroke="red" stroke-width="0.33" points="756.79,-27.81 746.29,-26.34 753.58,-34.03 756.79,-27.81"/>
</g>
<!-- 96&#45;&gt;7 -->
<g id="edge112" class="edge">
<title>96&#45;&gt;7</title>
<path fill="none" stroke="red" stroke-width="0.11" d="M1158.38,-77.21C1152.8,-74.03 1146.45,-70.8 1140.32,-68.53 1065.04,-40.66 1038.29,-61.24 963.32,-32.53 962.08,-32.05 960.84,-31.52 959.59,-30.95"/>
<polygon fill="red" stroke="red" stroke-width="0.11" points="960.86,-27.67 950.39,-26.07 957.58,-33.85 960.86,-27.67"/>
</g>
<!-- 97&#45;&gt;0 -->
<g id="edge113" class="edge">
<title>97&#45;&gt;0</title>
<path fill="none" stroke="red" stroke-width="0.18" d="M603.31,-75.86C607.39,-73.15 611.89,-70.51 616.32,-68.53 675.76,-41.97 698.09,-57.25 758.32,-32.53 759.55,-32.02 760.78,-31.47 762.02,-30.88"/>
<polygon fill="red" stroke="red" stroke-width="0.18" points="764.06,-33.76 771.2,-25.94 760.74,-27.6 764.06,-33.76"/>
</g>
<!-- 97&#45;&gt;1 -->
<g id="edge114" class="edge">
<title>97&#45;&gt;1</title>
<path fill="none" stroke="green" stroke-width="0.29" d="M602.82,-75.6C606.99,-72.83 611.64,-70.22 616.32,-68.53 761.67,-15.82 815.43,-80.76 962.32,-32.53 963.58,-32.11 964.84,-31.63 966.1,-31.1"/>
<polygon fill="green" stroke="green" stroke-width="0.29" points="968.06,-34.03 975.35,-26.34 964.85,-27.81 968.06,-34.03"/>
</g>
<!-- 97&#45;&gt;2 -->
<g id="edge115" class="edge">
<title>97&#45;&gt;2</title>
<path fill="none" stroke="green" stroke-width="0.19" d="M603.22,-75.66C607.31,-72.96 611.83,-70.36 616.32,-68.53 697.08,-35.49 727.58,-63.07 809.32,-32.53 810.56,-32.06 811.81,-31.54 813.06,-30.98"/>
<polygon fill="green" stroke="green" stroke-width="0.19" points="815.06,-33.88 822.27,-26.11 811.79,-27.69 815.06,-33.88"/>
</g>
<!-- 97&#45;&gt;3 -->
<g id="edge116" class="edge">
<title>97&#45;&gt;3</title>
<path fill="none" stroke="green" stroke-width="0.24" d="M603.44,-76.03C619.3,-64.21 643.63,-46.09 661.07,-33.09"/>
<polygon fill="green" stroke="green" stroke-width="0.24" points="663.56,-35.61 669.48,-26.83 659.37,-29.99 663.56,-35.61"/>
</g>
<!-- 97&#45;&gt;4 -->
<g id="edge117" class="edge">
<title>97&#45;&gt;4</title>
<path fill="none" stroke="green" stroke-width="0.17" d="M603.18,-75.54C607.26,-72.84 611.79,-70.28 616.32,-68.53 718.55,-28.96 756.93,-68.95 860.32,-32.53 861.57,-32.09 862.83,-31.58 864.08,-31.04"/>
<polygon fill="green" stroke="green" stroke-width="0.17" points="866.06,-33.95 873.31,-26.22 862.82,-27.74 866.06,-33.95"/>
</g>
<!-- 97&#45;&gt;5 -->
<g id="edge118" class="edge">
<title>97&#45;&gt;5</title>
<path fill="none" stroke="red" stroke-width="0.16" d="M597.75,-71.26C603.72,-61.65 611.29,-49.48 617.73,-39.13"/>
<polygon fill="red" stroke="red" stroke-width="0.16" points="620.72,-40.95 623.03,-30.61 614.77,-37.25 620.72,-40.95"/>
</g>
<!-- 97&#45;&gt;6 -->
<g id="edge119" class="edge">
<title>97&#45;&gt;6</title>
<path fill="none" stroke="red" stroke-width="0.26" d="M603.5,-76.26C607.58,-73.54 612.03,-70.79 616.32,-68.53 654.81,-48.27 668.23,-51.59 707.32,-32.53 708.49,-31.96 709.67,-31.36 710.85,-30.74"/>
<polygon fill="red" stroke="red" stroke-width="0.26" points="712.75,-33.68 719.77,-25.75 709.34,-27.57 712.75,-33.68"/>
</g>
<!-- 97&#45;&gt;7 -->
<g id="edge120" class="edge">
<title>97&#45;&gt;7</title>
<path fill="none" stroke="red" stroke-width="0.14" d="M603.15,-75.45C607.23,-72.76 611.77,-70.22 616.32,-68.53 740.09,-22.4 786.2,-74.85 911.32,-32.53 912.58,-32.1 913.84,-31.61 915.09,-31.07"/>
<polygon fill="red" stroke="red" stroke-width="0.14" points="917.06,-34 924.33,-26.29 913.84,-27.78 917.06,-34"/>
</g>
<!-- 88&#45;&gt;0 -->
<g id="edge41" class="edge">
<title>88&#45;&gt;0</title>
<path fill="none" stroke="green" stroke-width="0.48" d="M662.56,-76.36C666.63,-73.64 671.06,-70.86 675.32,-68.53 710.59,-49.23 722.47,-50.74 758.32,-32.53 759.48,-31.94 760.65,-31.32 761.83,-30.69"/>
<polygon fill="green" stroke="green" stroke-width="0.48" points="763.75,-33.63 770.73,-25.66 760.3,-27.53 763.75,-33.63"/>
</g>
<!-- 88&#45;&gt;1 -->
<g id="edge42" class="edge">
<title>88&#45;&gt;1</title>
<path fill="none" stroke="red" stroke-width="0.52" d="M662.15,-75.47C666.24,-72.77 670.78,-70.23 675.32,-68.53 795.71,-23.43 840.61,-73.92 962.32,-32.53 963.58,-32.1 964.84,-31.61 966.09,-31.07"/>
<polygon fill="red" stroke="red" stroke-width="0.52" points="968.06,-33.99 975.33,-26.28 964.84,-27.78 968.06,-33.99"/>
</g>
<!-- 88&#45;&gt;2 -->
<g id="edge43" class="edge">
<title>88&#45;&gt;2</title>
<path fill="none" stroke="green" stroke-width="0.22" d="M662.33,-75.9C666.41,-73.2 670.9,-70.54 675.32,-68.53 731.44,-42.97 752.44,-56.35 809.32,-32.53 810.54,-32.02 811.78,-31.46 813.01,-30.86"/>
<polygon fill="green" stroke="green" stroke-width="0.22" points="815.05,-33.74 822.18,-25.9 811.72,-27.58 815.05,-33.74"/>
</g>
<!-- 88&#45;&gt;3 -->
<g id="edge44" class="edge">
<title>88&#45;&gt;3</title>
<path fill="none" stroke="green" stroke-width="0.18" d="M655.22,-70.54C659.84,-61.45 665.55,-50.23 670.54,-40.43"/>
<polygon fill="green" stroke="green" stroke-width="0.18" points="673.8,-41.74 675.21,-31.24 667.56,-38.57 673.8,-41.74"/>
</g>
<!-- 88&#45;&gt;4 -->
<g id="edge45" class="edge">
<title>88&#45;&gt;4</title>
<path fill="none" stroke="red" stroke-width="0.21" d="M662.23,-75.68C666.32,-72.98 670.84,-70.38 675.32,-68.53 752.73,-36.51 781.97,-62.15 860.32,-32.53 861.56,-32.06 862.81,-31.53 864.05,-30.97"/>
<polygon fill="red" stroke="red" stroke-width="0.21" points="866.06,-33.86 873.26,-26.09 862.78,-27.68 866.06,-33.86"/>
</g>
<!-- 88&#45;&gt;5 -->
<g id="edge46" class="edge">
<title>88&#45;&gt;5</title>
<path fill="none" stroke="red" stroke-width="0.26" d="M642.22,-68.69C640.5,-60.55 638.46,-50.96 636.62,-42.29"/>
<polygon fill="red" stroke="red" stroke-width="0.26" points="640.01,-41.37 634.51,-32.32 633.16,-42.82 640.01,-41.37"/>
</g>
<!-- 88&#45;&gt;6 -->
<g id="edge47" class="edge">
<title>88&#45;&gt;6</title>
<path fill="none" stroke="red" stroke-width="0.36" d="M661.87,-75.38C676.14,-63.77 697.37,-46.51 712.98,-33.81"/>
<polygon fill="red" stroke="red" stroke-width="0.36" points="715.44,-36.32 720.99,-27.29 711.03,-30.89 715.44,-36.32"/>
</g>
<!-- 88&#45;&gt;7 -->
<g id="edge48" class="edge">
<title>88&#45;&gt;7</title>
<path fill="none" stroke="red" stroke-width="0.2" d="M662.18,-75.55C666.27,-72.86 670.8,-70.29 675.32,-68.53 774.18,-29.99 811.33,-68.02 911.32,-32.53 912.57,-32.08 913.83,-31.58 915.07,-31.03"/>
<polygon fill="red" stroke="red" stroke-width="0.2" points="917.06,-33.94 924.3,-26.21 913.82,-27.74 917.06,-33.94"/>
</g>
<!-- 89&#45;&gt;0 -->
<g id="edge49" class="edge">
<title>89&#45;&gt;0</title>
<path fill="none" stroke="red" stroke-width="0.41" d="M720.18,-74.72C732.88,-63.34 751.25,-46.89 765.07,-34.5"/>
<polygon fill="red" stroke="red" stroke-width="0.41" points="767.5,-37.03 772.61,-27.75 762.83,-31.82 767.5,-37.03"/>
</g>
<!-- 89&#45;&gt;1 -->
<g id="edge50" class="edge">
<title>89&#45;&gt;1</title>
<path fill="none" stroke="green" stroke-width="0.25" d="M721.19,-75.57C725.28,-72.87 729.8,-70.3 734.32,-68.53 829.8,-31.01 865.73,-67.1 962.32,-32.53 963.57,-32.08 964.82,-31.57 966.07,-31.02"/>
<polygon fill="green" stroke="green" stroke-width="0.25" points="968.06,-33.93 975.3,-26.19 964.81,-27.73 968.06,-33.93"/>
</g>
<!-- 89&#45;&gt;2 -->
<g id="edge51" class="edge">
<title>89&#45;&gt;2</title>
<path fill="none" stroke="red" stroke-width="0.12" d="M721.62,-76.47C725.7,-73.75 730.11,-70.94 734.32,-68.53 766.41,-50.16 776.68,-49.9 809.32,-32.53 810.46,-31.92 811.63,-31.28 812.8,-30.64"/>
<polygon fill="red" stroke="red" stroke-width="0.12" points="814.74,-33.56 821.68,-25.56 811.26,-27.49 814.74,-33.56"/>
</g>
<!-- 89&#45;&gt;3 -->
<g id="edge52" class="edge">
<title>89&#45;&gt;3</title>
<path fill="none" stroke="green" stroke-width="0.25" d="M699.16,-69.07C696.41,-60.62 693.14,-50.57 690.22,-41.57"/>
<polygon fill="green" stroke="green" stroke-width="0.25" points="693.53,-40.44 687.12,-32.02 686.88,-42.61 693.53,-40.44"/>
</g>
<!-- 89&#45;&gt;4 -->
<g id="edge53" class="edge">
<title>89&#45;&gt;4</title>
<path fill="none" stroke="red" stroke-width="0.23" d="M721.35,-75.95C725.44,-73.25 729.92,-70.57 734.32,-68.53 787.13,-43.97 806.78,-55.45 860.32,-32.53 861.54,-32.01 862.77,-31.44 864,-30.84"/>
<polygon fill="red" stroke="red" stroke-width="0.23" points="866.05,-33.71 873.16,-25.85 862.71,-27.56 866.05,-33.71"/>
</g>
<!-- 89&#45;&gt;5 -->
<g id="edge54" class="edge">
<title>89&#45;&gt;5</title>
<path fill="none" stroke="red" stroke-width="0.17" d="M690.7,-74.05C679.12,-62.98 662.85,-47.42 650.27,-35.39"/>
<polygon fill="red" stroke="red" stroke-width="0.17" points="652.64,-32.81 642.99,-28.43 647.8,-37.87 652.64,-32.81"/>
</g>
<!-- 89&#45;&gt;6 -->
<g id="edge55" class="edge">
<title>89&#45;&gt;6</title>
<path fill="none" stroke="red" stroke-width="0.37" d="M712.53,-69.81C715.96,-61.15 720.1,-50.67 723.78,-41.37"/>
<polygon fill="red" stroke="red" stroke-width="0.37" points="727.12,-42.45 727.54,-31.86 720.61,-39.87 727.12,-42.45"/>
</g>
<!-- 89&#45;&gt;7 -->
<g id="edge56" class="edge">
<title>89&#45;&gt;7</title>
<path fill="none" stroke="red" stroke-width="0.15" d="M721.25,-75.71C725.33,-73.01 729.84,-70.4 734.32,-68.53 808.37,-37.53 836.35,-61.24 911.32,-32.53 912.56,-32.05 913.8,-31.52 915.05,-30.95"/>
<polygon fill="red" stroke="red" stroke-width="0.15" points="917.06,-33.85 924.25,-26.07 913.78,-27.67 917.06,-33.85"/>
</g>
<!-- 90&#45;&gt;0 -->
<g id="edge57" class="edge">
<title>90&#45;&gt;0</title>
<path fill="none" stroke="green" stroke-width="0.25" d="M769.68,-69.07C772.04,-60.71 774.85,-50.78 777.37,-41.87"/>
<polygon fill="green" stroke="green" stroke-width="0.25" points="780.8,-42.59 780.15,-32.02 774.06,-40.69 780.8,-42.59"/>
</g>
<!-- 90&#45;&gt;1 -->
<g id="edge58" class="edge">
<title>90&#45;&gt;1</title>
<path fill="none" stroke="green" stroke-width="0.12" d="M780.26,-75.74C784.34,-73.04 788.85,-70.42 793.32,-68.53 864.03,-38.55 890.73,-60.32 962.32,-32.53 963.56,-32.05 964.8,-31.51 966.04,-30.94"/>
<polygon fill="green" stroke="green" stroke-width="0.12" points="968.06,-33.83 975.24,-26.04 964.77,-27.65 968.06,-33.83"/>
</g>
<!-- 90&#45;&gt;2 -->
<g id="edge59" class="edge">
<title>90&#45;&gt;2</title>
<path fill="none" stroke="red" stroke-width="0.29" d="M778.35,-74.05C789.35,-63.08 804.77,-47.71 816.79,-35.73"/>
<polygon fill="red" stroke="red" stroke-width="0.29" points="819.51,-37.96 824.12,-28.43 814.57,-33.01 819.51,-37.96"/>
</g>
<!-- 90&#45;&gt;3 -->
<g id="edge60" class="edge">
<title>90&#45;&gt;3</title>
<path fill="none" stroke="red" stroke-width="0.13" d="M749.28,-75.05C736.06,-63.64 716.73,-46.96 702.23,-34.45"/>
<polygon fill="red" stroke="red" stroke-width="0.13" points="704.19,-31.52 694.33,-27.63 699.62,-36.82 704.19,-31.52"/>
</g>
<!-- 90&#45;&gt;4 -->
<g id="edge61" class="edge">
<title>90&#45;&gt;4</title>
<path fill="none" stroke="red" stroke-width="0.24" d="M780.7,-76.61C784.77,-73.88 789.16,-71.03 793.32,-68.53 822.27,-51.07 830.85,-49.09 860.32,-32.53 861.45,-31.89 862.6,-31.24 863.77,-30.57"/>
<polygon fill="red" stroke="red" stroke-width="0.24" points="865.72,-33.49 872.61,-25.44 862.21,-27.43 865.72,-33.49"/>
</g>
<!-- 90&#45;&gt;5 -->
<g id="edge62" class="edge">
<title>90&#45;&gt;5</title>
<path fill="none" stroke="green" stroke-width="0.21" d="M748.05,-76.42C743.97,-73.7 739.55,-70.91 735.32,-68.53 702.04,-49.81 691.16,-50.21 657.32,-32.53 656.17,-31.93 655,-31.3 653.83,-30.66"/>
<polygon fill="green" stroke="green" stroke-width="0.21" points="655.36,-27.5 644.94,-25.6 651.9,-33.59 655.36,-27.5"/>
</g>
<!-- 90&#45;&gt;6 -->
<g id="edge63" class="edge">
<title>90&#45;&gt;6</title>
<path fill="none" stroke="red" stroke-width="0.35" d="M756.34,-69.81C752.45,-60.93 747.73,-50.16 743.58,-40.68"/>
<polygon fill="red" stroke="red" stroke-width="0.35" points="746.73,-39.16 739.52,-31.41 740.32,-41.97 746.73,-39.16"/>
</g>
<!-- 90&#45;&gt;7 -->
<g id="edge64" class="edge">
<title>90&#45;&gt;7</title>
<path fill="none" stroke="green" stroke-width="0.26" d="M780.38,-76.01C784.46,-73.3 788.94,-70.61 793.32,-68.53 842.83,-44.97 861.11,-54.56 911.32,-32.53 912.53,-31.99 913.76,-31.42 914.99,-30.81"/>
<polygon fill="green" stroke="green" stroke-width="0.26" points="917.05,-33.67 924.14,-25.81 913.69,-27.53 917.05,-33.67"/>
</g>
<!-- 91&#45;&gt;0 -->
<g id="edge65" class="edge">
<title>91&#45;&gt;0</title>
<path fill="none" stroke="green" stroke-width="0.21" d="M813.68,-70.54C808.55,-61.23 802.19,-49.69 796.7,-39.73"/>
<polygon fill="green" stroke="green" stroke-width="0.21" points="799.66,-37.85 791.77,-30.79 793.53,-41.23 799.66,-37.85"/>
</g>
<!-- 91&#45;&gt;1 -->
<g id="edge66" class="edge">
<title>91&#45;&gt;1</title>
<path fill="none" stroke="red" stroke-width="0.16" d="M839.41,-76.07C843.49,-73.36 847.96,-70.66 852.32,-68.53 898.55,-45.96 915.43,-53.67 962.32,-32.53 963.5,-31.99 964.7,-31.42 965.89,-30.82"/>
<polygon fill="red" stroke="red" stroke-width="0.16" points="967.77,-33.79 974.85,-25.91 964.4,-27.65 967.77,-33.79"/>
</g>
<!-- 91&#45;&gt;2 -->
<g id="edge67" class="edge">
<title>91&#45;&gt;2</title>
<path fill="none" stroke="red" stroke-width="0.16" d="M826.6,-68.69C827.96,-60.66 829.56,-51.24 831.01,-42.66"/>
<polygon fill="red" stroke="red" stroke-width="0.16" points="834.47,-43.22 832.69,-32.77 827.57,-42.05 834.47,-43.22"/>
</g>
<!-- 91&#45;&gt;3 -->
<g id="edge68" class="edge">
<title>91&#45;&gt;3</title>
<path fill="none" stroke="red" stroke-width="0.37" d="M807.11,-76.32C803.03,-73.6 798.59,-70.83 794.32,-68.53 757.84,-48.87 745.38,-51.06 708.32,-32.53 707.16,-31.95 705.98,-31.34 704.8,-30.71"/>
<polygon fill="red" stroke="red" stroke-width="0.37" points="706.32,-27.55 695.89,-25.69 702.89,-33.65 706.32,-27.55"/>
</g>
<!-- 91&#45;&gt;4 -->
<g id="edge69" class="edge">
<title>91&#45;&gt;4</title>
<path fill="none" stroke="green" stroke-width="0.14" d="M836.68,-73.02C846.1,-62.45 858.8,-48.18 868.99,-36.73"/>
<polygon fill="green" stroke="green" stroke-width="0.14" points="871.86,-38.78 875.89,-28.98 866.63,-34.12 871.86,-38.78"/>
</g>
<!-- 91&#45;&gt;5 -->
<g id="edge70" class="edge">
<title>91&#45;&gt;5</title>
<path fill="none" stroke="red" stroke-width="0.15" d="M807.32,-75.89C803.23,-73.18 798.74,-70.53 794.32,-68.53 736.95,-42.6 715.46,-56.69 657.32,-32.53 656.1,-32.02 654.86,-31.46 653.63,-30.87"/>
<polygon fill="red" stroke="red" stroke-width="0.15" points="654.91,-27.59 644.45,-25.91 651.59,-33.75 654.91,-27.59"/>
</g>
<!-- 91&#45;&gt;6 -->
<g id="edge71" class="edge">
<title>91&#45;&gt;6</title>
<path fill="none" stroke="green" stroke-width="0.24" d="M807.64,-75.71C792.63,-63.9 769.91,-46.04 753.55,-33.17"/>
<polygon fill="green" stroke="green" stroke-width="0.24" points="755.66,-30.38 745.64,-26.95 751.34,-35.88 755.66,-30.38"/>
</g>
<!-- 91&#45;&gt;7 -->
<g id="edge72" class="edge">
<title>91&#45;&gt;7</title>
<path fill="none" stroke="green" stroke-width="0.21" d="M839.79,-76.75C843.86,-74.02 848.23,-71.14 852.32,-68.53 863.9,-61.14 894.02,-43.08 915.1,-30.5"/>
<polygon fill="green" stroke="green" stroke-width="0.21" points="916.98,-33.45 923.77,-25.32 913.39,-27.44 916.98,-33.45"/>
</g>
<!-- 92&#45;&gt;0 -->
<g id="edge73" class="edge">
<title>92&#45;&gt;0</title>
<path fill="none" stroke="green" stroke-width="0.55" d="M866.14,-76.35C849.51,-64.34 823.54,-45.58 805.33,-32.43"/>
<polygon fill="green" stroke="green" stroke-width="0.55" points="807.24,-29.5 797.09,-26.48 803.15,-35.18 807.24,-29.5"/>
</g>
<!-- 92&#45;&gt;1 -->
<g id="edge74" class="edge">
<title>92&#45;&gt;1</title>
<path fill="none" stroke="green" stroke-width="0.12" d="M898.87,-76.88C902.94,-74.14 907.29,-71.23 911.32,-68.53 930.06,-55.98 951.42,-41.77 966.87,-31.5"/>
<polygon fill="green" stroke="green" stroke-width="0.12" points="968.84,-34.4 975.23,-25.95 964.96,-28.57 968.84,-34.4"/>
</g>
<!-- 92&#45;&gt;2 -->
<g id="edge75" class="edge">
<title>92&#45;&gt;2</title>
<path fill="none" stroke="red" stroke-width="0.64" d="M871.42,-71.62C864.96,-61.89 856.7,-49.45 849.71,-38.92"/>
<polygon fill="red" stroke="red" stroke-width="0.64" points="852.42,-36.68 843.97,-30.28 846.59,-40.55 852.42,-36.68"/>
</g>
<!-- 92&#45;&gt;3 -->
<g id="edge76" class="edge">
<title>92&#45;&gt;3</title>
<path fill="none" stroke="green" stroke-width="0.29" d="M866.34,-75.84C862.25,-73.14 857.76,-70.5 853.32,-68.53 792.63,-41.59 769.81,-57.59 708.32,-32.53 707.09,-32.03 705.86,-31.48 704.62,-30.89"/>
<polygon fill="green" stroke="green" stroke-width="0.29" points="705.9,-27.61 695.44,-25.95 702.59,-33.77 705.9,-27.61"/>
</g>
<!-- 92&#45;&gt;4 -->
<g id="edge77" class="edge">
<title>92&#45;&gt;4</title>
<path fill="none" stroke="green" stroke-width="0.2" d="M883.44,-68.32C883.88,-60.38 884.41,-51.13 884.88,-42.69"/>
<polygon fill="green" stroke="green" stroke-width="0.2" points="888.38,-42.79 885.45,-32.61 881.39,-42.4 888.38,-42.79"/>
</g>
<!-- 92&#45;&gt;5 -->
<g id="edge78" class="edge">
<title>92&#45;&gt;5</title>
<path fill="none" stroke="red" stroke-width="0.35" d="M866.42,-75.65C862.33,-72.95 857.82,-70.36 853.32,-68.53 771.3,-35.11 740.33,-63.42 657.32,-32.53 656.08,-32.06 654.83,-31.54 653.58,-30.98"/>
<polygon fill="red" stroke="red" stroke-width="0.35" points="654.85,-27.69 644.37,-26.12 651.58,-33.88 654.85,-27.69"/>
</g>
<!-- 92&#45;&gt;6 -->
<g id="edge79" class="edge">
<title>92&#45;&gt;6</title>
<path fill="none" stroke="green" stroke-width="0.33" d="M866.16,-76.22C862.08,-73.51 857.63,-70.76 853.32,-68.53 813.62,-47.91 799.64,-51.92 759.32,-32.53 758.15,-31.97 756.97,-31.37 755.78,-30.75"/>
<polygon fill="green" stroke="green" stroke-width="0.33" points="757.29,-27.59 746.85,-25.78 753.88,-33.7 757.29,-27.59"/>
</g>
<!-- 92&#45;&gt;7 -->
<g id="edge80" class="edge">
<title>92&#45;&gt;7</title>
<path fill="none" stroke="red" stroke-width="0.26" d="M894.53,-72.33C902.42,-62.17 912.77,-48.85 921.32,-37.85"/>
<polygon fill="red" stroke="red" stroke-width="0.26" points="924.33,-39.68 927.71,-29.64 918.81,-35.38 924.33,-39.68"/>
</g>
<!-- 93&#45;&gt;0 -->
<g id="edge81" class="edge">
<title>93&#45;&gt;0</title>
<path fill="none" stroke="red" stroke-width="0.24" d="M925.2,-76.14C921.12,-73.43 916.66,-70.71 912.32,-68.53 869.37,-46.94 853.92,-52.79 810.32,-32.53 809.15,-31.98 807.96,-31.4 806.76,-30.79"/>
<polygon fill="red" stroke="red" stroke-width="0.24" points="808.26,-27.62 797.82,-25.85 804.88,-33.75 808.26,-27.62"/>
</g>
<!-- 93&#45;&gt;1 -->
<g id="edge82" class="edge">
<title>93&#45;&gt;1</title>
<path fill="none" stroke="green" stroke-width="0.26" d="M952.22,-71.62C958.68,-61.89 966.94,-49.45 973.94,-38.92"/>
<polygon fill="green" stroke="green" stroke-width="0.26" points="977.06,-40.55 979.67,-30.28 971.22,-36.68 977.06,-40.55"/>
</g>
<!-- 93&#45;&gt;2 -->
<g id="edge83" class="edge">
<title>93&#45;&gt;2</title>
<path fill="none" stroke="green" stroke-width="0.13" d="M924.77,-76.88C920.7,-74.14 916.35,-71.23 912.32,-68.53 893.58,-55.98 872.23,-41.77 856.77,-31.5"/>
<polygon fill="green" stroke="green" stroke-width="0.13" points="858.68,-28.57 848.41,-25.95 854.81,-34.4 858.68,-28.57"/>
</g>
<!-- 93&#45;&gt;3 -->
<g id="edge84" class="edge">
<title>93&#45;&gt;3</title>
<path fill="none" stroke="red" stroke-width="0.3" d="M925.43,-75.63C921.34,-72.93 916.82,-70.34 912.32,-68.53 826.94,-34.09 794.72,-64.34 708.32,-32.53 707.08,-32.07 705.83,-31.55 704.58,-30.99"/>
<polygon fill="red" stroke="red" stroke-width="0.3" points="705.84,-27.7 695.36,-26.14 702.58,-33.9 705.84,-27.7"/>
</g>
<!-- 93&#45;&gt;4 -->
<g id="edge85" class="edge">
<title>93&#45;&gt;4</title>
<path fill="none" stroke="red" stroke-width="0.56" d="M929.11,-72.33C921.22,-62.17 910.87,-48.85 902.32,-37.85"/>
<polygon fill="red" stroke="red" stroke-width="0.56" points="904.84,-35.38 895.94,-29.64 899.31,-39.68 904.84,-35.38"/>
</g>
<!-- 93&#45;&gt;5 -->
<g id="edge86" class="edge">
<title>93&#45;&gt;5</title>
<path fill="none" stroke="red" stroke-width="0.17" d="M925.47,-75.52C921.38,-72.82 916.85,-70.26 912.32,-68.53 805.45,-27.55 765.39,-70.22 657.32,-32.53 656.07,-32.09 654.81,-31.59 653.56,-31.05"/>
<polygon fill="red" stroke="red" stroke-width="0.17" points="654.81,-27.75 644.33,-26.24 651.58,-33.96 654.81,-27.75"/>
</g>
<!-- 93&#45;&gt;6 -->
<g id="edge87" class="edge">
<title>93&#45;&gt;6</title>
<path fill="none" stroke="red" stroke-width="0.33" d="M925.36,-75.8C921.27,-73.1 916.77,-70.47 912.32,-68.53 848.3,-40.58 824.17,-58.5 759.32,-32.53 758.09,-32.03 756.85,-31.49 755.61,-30.91"/>
<polygon fill="red" stroke="red" stroke-width="0.33" points="756.89,-27.62 746.42,-25.98 753.58,-33.79 756.89,-27.62"/>
</g>
<!-- 93&#45;&gt;7 -->
<g id="edge88" class="edge">
<title>93&#45;&gt;7</title>
<path fill="none" stroke="red" stroke-width="0.32" d="M940.21,-68.32C939.76,-60.38 939.23,-51.13 938.76,-42.69"/>
<polygon fill="red" stroke="red" stroke-width="0.32" points="942.25,-42.4 938.19,-32.61 935.26,-42.79 942.25,-42.4"/>
</g>
<!-- 94&#45;&gt;0 -->
<g id="edge89" class="edge">
<title>94&#45;&gt;0</title>
<path fill="none" stroke="red" stroke-width="0.21" d="M544.21,-75.63C548.3,-72.94 552.82,-70.35 557.32,-68.53 641.44,-34.47 673.19,-63.99 758.32,-32.53 759.56,-32.07 760.81,-31.55 762.06,-30.99"/>
<polygon fill="red" stroke="red" stroke-width="0.21" points="764.06,-33.89 771.28,-26.13 760.8,-27.7 764.06,-33.89"/>
</g>
<!-- 94&#45;&gt;1 -->
<g id="edge90" class="edge">
<title>94&#45;&gt;1</title>
<path fill="none" stroke="green" stroke-width="0.45" d="M543.8,-75.55C547.97,-72.79 552.63,-70.19 557.32,-68.53 727.66,-8.2 790.21,-87.61 962.32,-32.53 963.58,-32.12 964.85,-31.65 966.11,-31.12"/>
<polygon fill="green" stroke="green" stroke-width="0.45" points="968.06,-34.06 975.36,-26.38 964.87,-27.83 968.06,-34.06"/>
</g>
<!-- 94&#45;&gt;2 -->
<g id="edge91" class="edge">
<title>94&#45;&gt;2</title>
<path fill="none" stroke="green" stroke-width="0.2" d="M544.17,-75.52C548.26,-72.83 552.79,-70.27 557.32,-68.53 662.92,-27.93 702.52,-69.87 809.32,-32.53 810.57,-32.09 811.83,-31.59 813.08,-31.04"/>
<polygon fill="green" stroke="green" stroke-width="0.2" points="815.06,-33.96 822.31,-26.23 811.83,-27.75 815.06,-33.96"/>
</g>
<!-- 94&#45;&gt;3 -->
<g id="edge92" class="edge">
<title>94&#45;&gt;3</title>
<path fill="none" stroke="green" stroke-width="0.13" d="M544.46,-76.17C548.54,-73.46 552.99,-70.73 557.32,-68.53 599.05,-47.3 613.96,-52.46 656.32,-32.53 657.49,-31.98 658.68,-31.39 659.87,-30.78"/>
<polygon fill="green" stroke="green" stroke-width="0.13" points="661.76,-33.73 668.81,-25.82 658.37,-27.61 661.76,-33.73"/>
</g>
<!-- 94&#45;&gt;4 -->
<g id="edge93" class="edge">
<title>94&#45;&gt;4</title>
<path fill="none" stroke="red" stroke-width="0.18" d="M544.14,-75.44C548.23,-72.75 552.77,-70.22 557.32,-68.53 684.47,-21.37 731.79,-75.77 860.32,-32.53 861.58,-32.1 862.84,-31.62 864.09,-31.08"/>
<polygon fill="red" stroke="red" stroke-width="0.18" points="866.06,-34 873.33,-26.3 862.84,-27.78 866.06,-34"/>
</g>
<!-- 94&#45;&gt;5 -->
<g id="edge94" class="edge">
<title>94&#45;&gt;5</title>
<path fill="none" stroke="green" stroke-width="0.26" d="M544.87,-76.66C562.54,-64.52 590.61,-45.23 609.95,-31.95"/>
<polygon fill="green" stroke="green" stroke-width="0.26" points="612.14,-34.69 618.4,-26.14 608.18,-28.92 612.14,-34.69"/>
</g>
<!-- 94&#45;&gt;6 -->
<g id="edge95" class="edge">
<title>94&#45;&gt;6</title>
<path fill="none" stroke="red" stroke-width="0.49" d="M544.29,-75.82C548.38,-73.12 552.88,-70.48 557.32,-68.53 620.09,-40.96 643.73,-58.16 707.32,-32.53 708.55,-32.03 709.79,-31.48 711.03,-30.9"/>
<polygon fill="red" stroke="red" stroke-width="0.49" points="713.06,-33.78 720.21,-25.97 709.75,-27.62 713.06,-33.78"/>
</g>
<!-- 94&#45;&gt;7 -->
<g id="edge96" class="edge">
<title>94&#45;&gt;7</title>
<path fill="none" stroke="green" stroke-width="0.21" d="M543.82,-75.59C547.98,-72.83 552.64,-70.22 557.32,-68.53 706.05,-14.79 761.01,-81.69 911.32,-32.53 912.58,-32.12 913.84,-31.64 915.1,-31.11"/>
<polygon fill="green" stroke="green" stroke-width="0.21" points="917.06,-34.03 924.35,-26.35 913.86,-27.81 917.06,-34.03"/>
</g>
<!-- 95&#45;&gt;0 -->
<g id="edge97" class="edge">
<title>95&#45;&gt;0</title>
<path fill="none" stroke="red" stroke-width="0.27" d="M1060.44,-77.04C1054.87,-73.85 1048.5,-70.65 1042.32,-68.53 943.65,-34.6 908.61,-67.56 810.32,-32.53 809.07,-32.08 807.82,-31.58 806.57,-31.03"/>
<polygon fill="red" stroke="red" stroke-width="0.27" points="807.83,-27.73 797.34,-26.2 804.58,-33.94 807.83,-27.73"/>
</g>
<!-- 95&#45;&gt;1 -->
<g id="edge98" class="edge">
<title>95&#45;&gt;1</title>
<path fill="none" stroke="green" stroke-width="0.11" d="M1061.41,-75.38C1046.73,-63.71 1024.85,-46.31 1008.85,-33.59"/>
<polygon fill="green" stroke="green" stroke-width="0.11" points="1010.66,-30.56 1000.66,-27.07 1006.31,-36.04 1010.66,-30.56"/>
</g>
<!-- 95&#45;&gt;2 -->
<g id="edge99" class="edge">
<title>95&#45;&gt;2</title>
<path fill="none" stroke="red" stroke-width="0.18" d="M1060.39,-77.2C1054.81,-74.01 1048.46,-70.78 1042.32,-68.53 965.34,-40.22 937.98,-61.7 861.32,-32.53 860.08,-32.06 858.83,-31.53 857.59,-30.96"/>
<polygon fill="red" stroke="red" stroke-width="0.18" points="858.86,-27.67 848.39,-26.08 855.58,-33.86 858.86,-27.67"/>
</g>
<!-- 95&#45;&gt;3 -->
<g id="edge100" class="edge">
<title>95&#45;&gt;3</title>
<path fill="none" stroke="red" stroke-width="0.19" d="M1057.05,-84.02C1035.75,-79.86 1001.25,-73.33 971.32,-68.53 854.83,-49.85 819.8,-71.14 708.32,-32.53 707.07,-32.09 705.81,-31.6 704.56,-31.05"/>
<polygon fill="red" stroke="red" stroke-width="0.19" points="705.81,-27.76 695.32,-26.25 702.58,-33.97 705.81,-27.76"/>
</g>
<!-- 95&#45;&gt;4 -->
<g id="edge101" class="edge">
<title>95&#45;&gt;4</title>
<path fill="none" stroke="red" stroke-width="0.31" d="M1060.28,-77.47C1054.7,-74.3 1048.37,-71.01 1042.32,-68.53 986.85,-45.77 967.53,-55.9 912.32,-32.53 911.1,-32.01 909.87,-31.45 908.64,-30.85"/>
<polygon fill="red" stroke="red" stroke-width="0.31" points="909.93,-27.57 899.47,-25.88 906.59,-33.72 909.93,-27.57"/>
</g>
<!-- 95&#45;&gt;5 -->
<g id="edge102" class="edge">
<title>95&#45;&gt;5</title>
<path fill="none" stroke="red" stroke-width="0.29" d="M1057.07,-83.88C1035.79,-79.62 1001.3,-73 971.32,-68.53 832.39,-47.8 790.55,-77.05 657.32,-32.53 656.06,-32.11 654.8,-31.62 653.55,-31.09"/>
<polygon fill="red" stroke="red" stroke-width="0.29" points="654.79,-27.79 644.3,-26.31 651.58,-34.01 654.79,-27.79"/>
</g>
<!-- 95&#45;&gt;6 -->
<g id="edge103" class="edge">
<title>95&#45;&gt;6</title>
<path fill="none" stroke="green" stroke-width="0.16" d="M1057.01,-84.21C1035.69,-80.22 1001.17,-73.81 971.32,-68.53 877.21,-51.88 849.11,-65.26 759.32,-32.53 758.08,-32.07 756.82,-31.56 755.58,-31"/>
<polygon fill="green" stroke="green" stroke-width="0.16" points="756.84,-27.71 746.36,-26.16 753.58,-33.91 756.84,-27.71"/>
</g>
<!-- 95&#45;&gt;7 -->
<g id="edge104" class="edge">
<title>95&#45;&gt;7</title>
<path fill="none" stroke="green" stroke-width="0.24" d="M1059.66,-77.83C1054.16,-74.75 1048.03,-71.41 1042.32,-68.53 1007.89,-51.12 997.56,-50.32 963.32,-32.53 962.17,-31.93 961,-31.31 959.82,-30.66"/>
<polygon fill="green" stroke="green" stroke-width="0.24" points="961.36,-27.51 950.94,-25.61 957.9,-33.6 961.36,-27.51"/>
</g>
</g>
</svg>
