<?xml version="1.0" encoding="UTF-8" standalone="no"?>
<!DOCTYPE svg PUBLIC "-//W3C//DTD SVG 1.1//EN"
 "http://www.w3.org/Graphics/SVG/1.1/DTD/svg11.dtd">
<!-- Generated by graphviz version 2.44.0 (0)
 -->
<!-- Pages: 1 -->
<svg width="1388pt" height="172pt"
 viewBox="0.00 0.00 1387.51 171.54" xmlns="http://www.w3.org/2000/svg" xmlns:xlink="http://www.w3.org/1999/xlink">
<g id="graph0" class="graph" transform="scale(1 1) rotate(0) translate(4 167.54)">
<polygon fill="white" stroke="transparent" points="-4,4 -4,-167.54 1383.51,-167.54 1383.51,4 -4,4"/>
<!-- &#45;1 -->
<g id="node1" class="node">
<title>&#45;1</title>
<polygon fill="lightgray" stroke="black" points="581.23,-163.54 555.23,-163.54 555.23,-145.54 581.23,-145.54 581.23,-163.54"/>
<text text-anchor="middle" x="568.23" y="-152.34" font-family="Times-Roman" font-size="9.00">&#45;1</text>
</g>
<!-- 0 -->
<g id="node5" class="node">
<title>0</title>
<ellipse fill="lightblue" stroke="black" cx="616.23" cy="-16.26" rx="16.03" ry="16.03"/>
<text text-anchor="middle" x="616.23" y="-14.06" font-family="Times-Roman" font-size="9.00">0</text>
</g>
<!-- &#45;1&#45;&gt;0 -->
<g id="edge101" class="edge">
<title>&#45;1&#45;&gt;0</title>
<path fill="none" stroke="green" stroke-width="0.35" d="M555.15,-153.33C497.25,-151.98 269.61,-142 333.23,-68.53 369.82,-26.26 528.54,-48.13 582.23,-32.53 585.69,-31.52 589.25,-30.23 592.71,-28.83"/>
<polygon fill="green" stroke="green" stroke-width="0.35" points="594.28,-31.96 602,-24.71 591.44,-25.56 594.28,-31.96"/>
</g>
<!-- 1 -->
<g id="node6" class="node">
<title>1</title>
<ellipse fill="lightblue" stroke="black" cx="787.23" cy="-16.26" rx="16.03" ry="16.03"/>
<text text-anchor="middle" x="787.23" y="-14.06" font-family="Times-Roman" font-size="9.00">1</text>
</g>
<!-- &#45;1&#45;&gt;1 -->
<g id="edge102" class="edge">
<title>&#45;1&#45;&gt;1</title>
<path fill="none" stroke="green" stroke-width="0.27" d="M581.39,-149.34C586.31,-147.92 591.98,-146.46 597.23,-145.54 647.28,-136.74 1018.73,-146.86 1053.23,-109.54 1123.73,-33.25 893.89,-20.03 813.76,-17.74"/>
<polygon fill="green" stroke="green" stroke-width="0.27" points="813.58,-14.24 803.49,-17.49 813.4,-21.24 813.58,-14.24"/>
</g>
<!-- 2 -->
<g id="node7" class="node">
<title>2</title>
<ellipse fill="lightblue" stroke="black" cx="732.23" cy="-16.26" rx="16.03" ry="16.03"/>
<text text-anchor="middle" x="732.23" y="-14.06" font-family="Times-Roman" font-size="9.00">2</text>
</g>
<!-- &#45;1&#45;&gt;2 -->
<g id="edge103" class="edge">
<title>&#45;1&#45;&gt;2</title>
<path fill="none" stroke="red" stroke-width="0.22" d="M581.4,-149.4C586.32,-147.99 591.99,-146.52 597.23,-145.54 675.82,-130.86 901.59,-168.84 955.23,-109.54 967.45,-96.02 966.87,-82.55 955.23,-68.53 899.47,-1.41 844.85,-60.6 762.23,-32.53 759.81,-31.7 757.34,-30.72 754.91,-29.65"/>
<polygon fill="red" stroke="red" stroke-width="0.22" points="756.43,-26.49 745.91,-25.27 753.37,-32.79 756.43,-26.49"/>
</g>
<!-- 3 -->
<g id="node8" class="node">
<title>3</title>
<ellipse fill="lightblue" stroke="black" cx="557.23" cy="-16.26" rx="16.03" ry="16.03"/>
<text text-anchor="middle" x="557.23" y="-14.06" font-family="Times-Roman" font-size="9.00">3</text>
</g>
<!-- &#45;1&#45;&gt;3 -->
<g id="edge104" class="edge">
<title>&#45;1&#45;&gt;3</title>
<path fill="none" stroke="red" stroke-width="0.41" d="M554.96,-153.26C484.15,-151.65 153,-142.4 123.23,-109.54 110.99,-96.03 110.92,-81.98 123.23,-68.53 184.07,-2.02 440.6,-57.42 527.23,-32.53 529.68,-31.82 532.18,-30.91 534.62,-29.89"/>
<polygon fill="red" stroke="red" stroke-width="0.41" points="536.14,-33.04 543.64,-25.56 533.11,-26.73 536.14,-33.04"/>
</g>
<!-- 4 -->
<g id="node9" class="node">
<title>4</title>
<ellipse fill="lightblue" stroke="black" cx="502.23" cy="-16.26" rx="16.03" ry="16.03"/>
<text text-anchor="middle" x="502.23" y="-14.06" font-family="Times-Roman" font-size="9.00">4</text>
</g>
<!-- &#45;1&#45;&gt;4 -->
<g id="edge105" class="edge">
<title>&#45;1&#45;&gt;4</title>
<path fill="none" stroke="red" stroke-width="0.43" d="M555.16,-153.54C474.59,-153.44 47.51,-150.96 9.23,-109.54 -3.15,-96.15 -2.98,-82.07 9.23,-68.53 40.71,-33.6 377.83,-20.94 475.72,-17.99"/>
<polygon fill="red" stroke="red" stroke-width="0.43" points="476.05,-21.48 485.94,-17.69 475.84,-14.49 476.05,-21.48"/>
</g>
<!-- 5 -->
<g id="node10" class="node">
<title>5</title>
<ellipse fill="lightblue" stroke="black" cx="675.23" cy="-16.26" rx="16.03" ry="16.03"/>
<text text-anchor="middle" x="675.23" y="-14.06" font-family="Times-Roman" font-size="9.00">5</text>
</g>
<!-- &#45;1&#45;&gt;5 -->
<g id="edge106" class="edge">
<title>&#45;1&#45;&gt;5</title>
<path fill="none" stroke="red" stroke-width="0.78" d="M555.07,-153.1C498.95,-150.8 285.22,-137.43 346.23,-68.53 390.01,-19.08 577.61,-50.25 641.23,-32.53 644.7,-31.56 648.27,-30.29 651.73,-28.9"/>
<polygon fill="red" stroke="red" stroke-width="0.78" points="653.29,-32.03 661.02,-24.79 650.46,-25.63 653.29,-32.03"/>
</g>
<!-- 64 -->
<g id="node11" class="node">
<title>64</title>
<ellipse fill="white" stroke="black" cx="553.23" cy="-89.03" rx="20.51" ry="20.51"/>
<text text-anchor="middle" x="553.23" y="-86.83" font-family="Times-Roman" font-size="9.00">64</text>
</g>
<!-- &#45;1&#45;&gt;64 -->
<g id="edge9" class="edge">
<title>&#45;1&#45;&gt;64</title>
<path fill="none" stroke="green" stroke-width="0.53" d="M566.33,-145.5C564.74,-138.76 562.36,-128.71 560.07,-119.01"/>
<polygon fill="green" stroke="green" stroke-width="0.53" points="563.46,-118.11 557.75,-109.18 556.64,-119.72 563.46,-118.11"/>
</g>
<!-- 65 -->
<g id="node12" class="node">
<title>65</title>
<ellipse fill="white" stroke="black" cx="612.23" cy="-89.03" rx="20.51" ry="20.51"/>
<text text-anchor="middle" x="612.23" y="-86.83" font-family="Times-Roman" font-size="9.00">65</text>
</g>
<!-- &#45;1&#45;&gt;65 -->
<g id="edge10" class="edge">
<title>&#45;1&#45;&gt;65</title>
<path fill="none" stroke="red" stroke-width="0.34" d="M573.8,-145.5C579.16,-137.75 587.56,-125.64 595.13,-114.71"/>
<polygon fill="red" stroke="red" stroke-width="0.34" points="598.14,-116.51 600.96,-106.3 592.39,-112.53 598.14,-116.51"/>
</g>
<!-- 56 -->
<g id="node13" class="node">
<title>56</title>
<ellipse fill="white" stroke="black" cx="494.23" cy="-89.03" rx="20.51" ry="20.51"/>
<text text-anchor="middle" x="494.23" y="-86.83" font-family="Times-Roman" font-size="9.00">56</text>
</g>
<!-- &#45;1&#45;&gt;56 -->
<g id="edge1" class="edge">
<title>&#45;1&#45;&gt;56</title>
<path fill="none" stroke="red" stroke-width="0.15" d="M558.85,-145.5C548.45,-136.57 531.28,-121.83 517.25,-109.79"/>
<polygon fill="red" stroke="red" stroke-width="0.15" points="519.29,-106.93 509.43,-103.08 514.73,-112.24 519.29,-106.93"/>
</g>
<!-- 57 -->
<g id="node14" class="node">
<title>57</title>
<ellipse fill="white" stroke="black" cx="671.23" cy="-89.03" rx="20.51" ry="20.51"/>
<text text-anchor="middle" x="671.23" y="-86.83" font-family="Times-Roman" font-size="9.00">57</text>
</g>
<!-- &#45;1&#45;&gt;57 -->
<g id="edge2" class="edge">
<title>&#45;1&#45;&gt;57</title>
<path fill="none" stroke="red" stroke-width="0.41" d="M581.46,-145.97C596.37,-137.37 621.26,-122.81 642.23,-109.54 643.51,-108.73 644.82,-107.89 646.13,-107.04"/>
<polygon fill="red" stroke="red" stroke-width="0.41" points="648.35,-109.76 654.77,-101.33 644.5,-103.92 648.35,-109.76"/>
</g>
<!-- 58 -->
<g id="node15" class="node">
<title>58</title>
<ellipse fill="white" stroke="black" cx="789.23" cy="-89.03" rx="20.51" ry="20.51"/>
<text text-anchor="middle" x="789.23" y="-86.83" font-family="Times-Roman" font-size="9.00">58</text>
</g>
<!-- &#45;1&#45;&gt;58 -->
<g id="edge3" class="edge">
<title>&#45;1&#45;&gt;58</title>
<path fill="none" stroke="green" stroke-width="0.28" d="M581.47,-149.73C586.4,-148.35 592.06,-146.82 597.23,-145.54 669.23,-127.67 692.03,-138.75 760.23,-109.54 761.62,-108.94 763.02,-108.28 764.41,-107.56"/>
<polygon fill="green" stroke="green" stroke-width="0.28" points="766.46,-110.41 773.28,-102.3 762.89,-104.39 766.46,-110.41"/>
</g>
<!-- 59 -->
<g id="node16" class="node">
<title>59</title>
<ellipse fill="white" stroke="black" cx="925.23" cy="-89.03" rx="20.51" ry="20.51"/>
<text text-anchor="middle" x="925.23" y="-86.83" font-family="Times-Roman" font-size="9.00">59</text>
</g>
<!-- &#45;1&#45;&gt;59 -->
<g id="edge4" class="edge">
<title>&#45;1&#45;&gt;59</title>
<path fill="none" stroke="green" stroke-width="0.39" d="M581.43,-149.57C586.36,-148.18 592.02,-146.68 597.23,-145.54 694.88,-124.22 720.74,-126.59 819.23,-109.54 844.78,-105.12 873.73,-99.77 894.91,-95.79"/>
<polygon fill="green" stroke="green" stroke-width="0.39" points="895.75,-99.19 904.93,-93.9 894.45,-92.31 895.75,-99.19"/>
</g>
<!-- 60 -->
<g id="node17" class="node">
<title>60</title>
<ellipse fill="white" stroke="black" cx="730.23" cy="-89.03" rx="20.51" ry="20.51"/>
<text text-anchor="middle" x="730.23" y="-86.83" font-family="Times-Roman" font-size="9.00">60</text>
</g>
<!-- &#45;1&#45;&gt;60 -->
<g id="edge5" class="edge">
<title>&#45;1&#45;&gt;60</title>
<path fill="none" stroke="red" stroke-width="0.43" d="M581.4,-149.68C610.5,-141.08 679.39,-120.24 701.23,-109.54 702.59,-108.87 703.96,-108.15 705.33,-107.39"/>
<polygon fill="red" stroke="red" stroke-width="0.43" points="707.44,-110.2 714.13,-101.99 703.78,-104.23 707.44,-110.2"/>
</g>
<!-- 61 -->
<g id="node18" class="node">
<title>61</title>
<ellipse fill="white" stroke="black" cx="1023.23" cy="-89.03" rx="20.51" ry="20.51"/>
<text text-anchor="middle" x="1023.23" y="-86.83" font-family="Times-Roman" font-size="9.00">61</text>
</g>
<!-- &#45;1&#45;&gt;61 -->
<g id="edge6" class="edge">
<title>&#45;1&#45;&gt;61</title>
<path fill="none" stroke="red" stroke-width="0.16" d="M581.39,-149.38C586.32,-147.96 591.99,-146.5 597.23,-145.54 768.9,-114.21 821.52,-161.13 988.23,-109.54 991.25,-108.6 994.31,-107.38 997.29,-106.01"/>
<polygon fill="red" stroke="red" stroke-width="0.16" points="999.17,-108.98 1006.42,-101.26 995.94,-102.77 999.17,-108.98"/>
</g>
<!-- 62 -->
<g id="node19" class="node">
<title>62</title>
<ellipse fill="white" stroke="black" cx="376.23" cy="-89.03" rx="20.51" ry="20.51"/>
<text text-anchor="middle" x="376.23" y="-86.83" font-family="Times-Roman" font-size="9.00">62</text>
</g>
<!-- &#45;1&#45;&gt;62 -->
<g id="edge7" class="edge">
<title>&#45;1&#45;&gt;62</title>
<path fill="none" stroke="green" stroke-width="0.65" d="M555.05,-151.5C526.66,-146.77 458.03,-133.62 405.23,-109.54 403.85,-108.91 402.46,-108.22 401.08,-107.48"/>
<polygon fill="green" stroke="green" stroke-width="0.65" points="402.61,-104.32 392.24,-102.16 399,-110.31 402.61,-104.32"/>
</g>
<!-- 63 -->
<g id="node20" class="node">
<title>63</title>
<ellipse fill="white" stroke="black" cx="435.23" cy="-89.03" rx="20.51" ry="20.51"/>
<text text-anchor="middle" x="435.23" y="-86.83" font-family="Times-Roman" font-size="9.00">63</text>
</g>
<!-- &#45;1&#45;&gt;63 -->
<g id="edge8" class="edge">
<title>&#45;1&#45;&gt;63</title>
<path fill="none" stroke="green" stroke-width="0.37" d="M555.05,-148.89C534.93,-141.6 495.61,-126.53 464.23,-109.54 462.89,-108.82 461.54,-108.05 460.19,-107.25"/>
<polygon fill="green" stroke="green" stroke-width="0.37" points="461.77,-104.11 451.45,-101.74 458.04,-110.03 461.77,-104.11"/>
</g>
<!-- &#45;2 -->
<g id="node2" class="node">
<title>&#45;2</title>
<polygon fill="lightgray" stroke="black" points="632.23,-163.54 606.23,-163.54 606.23,-145.54 632.23,-145.54 632.23,-163.54"/>
<text text-anchor="middle" x="619.23" y="-152.34" font-family="Times-Roman" font-size="9.00">&#45;2</text>
</g>
<!-- &#45;2&#45;&gt;0 -->
<g id="edge107" class="edge">
<title>&#45;2&#45;&gt;0</title>
<path fill="none" stroke="red" stroke-width="0.24" d="M606.03,-149.53C601.1,-148.13 595.44,-146.64 590.23,-145.54 536.6,-134.23 382.04,-151.03 346.23,-109.54 334.32,-95.74 334.35,-82.35 346.23,-68.53 380.8,-28.28 531.34,-47.53 582.23,-32.53 585.68,-31.51 589.24,-30.21 592.7,-28.8"/>
<polygon fill="red" stroke="red" stroke-width="0.24" points="594.27,-31.94 602,-24.69 591.43,-25.54 594.27,-31.94"/>
</g>
<!-- &#45;2&#45;&gt;1 -->
<g id="edge108" class="edge">
<title>&#45;2&#45;&gt;1</title>
<path fill="none" stroke="green" stroke-width="0.21" d="M632.51,-150.24C639.52,-148.61 648.3,-146.74 656.23,-145.54 701.99,-138.63 1039.95,-143.65 1071.23,-109.54 1146.17,-27.81 897.61,-18.24 813.83,-17.3"/>
<polygon fill="green" stroke="green" stroke-width="0.21" points="813.61,-13.8 803.58,-17.22 813.56,-20.8 813.61,-13.8"/>
</g>
<!-- &#45;2&#45;&gt;2 -->
<g id="edge109" class="edge">
<title>&#45;2&#45;&gt;2</title>
<path fill="none" stroke="green" stroke-width="0.68" d="M632.51,-150.25C639.53,-148.62 648.3,-146.75 656.23,-145.54 700.01,-138.85 1023.36,-142.24 1053.23,-109.54 1065.52,-96.08 1065.3,-82.18 1053.23,-68.53 1010.07,-19.71 824.54,-51.59 762.23,-32.53 759.78,-31.78 757.3,-30.84 754.86,-29.8"/>
<polygon fill="green" stroke="green" stroke-width="0.68" points="756.37,-26.65 745.85,-25.46 753.33,-32.95 756.37,-26.65"/>
</g>
<!-- &#45;2&#45;&gt;3 -->
<g id="edge110" class="edge">
<title>&#45;2&#45;&gt;3</title>
<path fill="none" stroke="red" stroke-width="0.28" d="M606.06,-149.35C601.14,-147.93 595.47,-146.47 590.23,-145.54 543.14,-137.14 193.61,-144.75 161.23,-109.54 148.89,-96.12 148.99,-82.03 161.23,-68.53 216.11,-7.98 448.78,-55.45 527.23,-32.53 529.68,-31.81 532.17,-30.89 534.62,-29.86"/>
<polygon fill="red" stroke="red" stroke-width="0.28" points="536.13,-33.02 543.63,-25.53 533.1,-26.71 536.13,-33.02"/>
</g>
<!-- &#45;2&#45;&gt;4 -->
<g id="edge111" class="edge">
<title>&#45;2&#45;&gt;4</title>
<path fill="none" stroke="green" stroke-width="0.13" d="M606.07,-149.3C601.15,-147.88 595.48,-146.43 590.23,-145.54 530.61,-135.45 88.54,-153.69 47.23,-109.54 34.77,-96.23 35.08,-82.12 47.23,-68.53 75.95,-36.38 382.72,-21.9 475.68,-18.23"/>
<polygon fill="green" stroke="green" stroke-width="0.13" points="476.06,-21.72 485.92,-17.84 475.79,-14.73 476.06,-21.72"/>
</g>
<!-- &#45;2&#45;&gt;5 -->
<g id="edge112" class="edge">
<title>&#45;2&#45;&gt;5</title>
<path fill="none" stroke="red" stroke-width="0.51" d="M632.32,-150.69C676.73,-141.01 818.85,-110.01 819.23,-109.54 830.65,-95.33 829.96,-83.26 819.23,-68.53 788.43,-26.28 755.82,-51.83 707.23,-32.53 704.44,-31.42 701.55,-30.18 698.7,-28.9"/>
<polygon fill="red" stroke="red" stroke-width="0.51" points="699.92,-25.6 689.38,-24.52 696.94,-31.94 699.92,-25.6"/>
</g>
<!-- &#45;2&#45;&gt;64 -->
<g id="edge19" class="edge">
<title>&#45;2&#45;&gt;64</title>
<path fill="none" stroke="green" stroke-width="0.38" d="M610.87,-145.5C601.85,-136.82 587.12,-122.65 574.81,-110.8"/>
<polygon fill="green" stroke="green" stroke-width="0.38" points="577.17,-108.21 567.53,-103.8 572.31,-113.26 577.17,-108.21"/>
</g>
<!-- &#45;2&#45;&gt;65 -->
<g id="edge20" class="edge">
<title>&#45;2&#45;&gt;65</title>
<path fill="none" stroke="green" stroke-width="0.41" d="M618.34,-145.5C617.61,-138.88 616.53,-129.07 615.48,-119.53"/>
<polygon fill="green" stroke="green" stroke-width="0.41" points="618.94,-119.01 614.37,-109.45 611.98,-119.78 618.94,-119.01"/>
</g>
<!-- &#45;2&#45;&gt;56 -->
<g id="edge11" class="edge">
<title>&#45;2&#45;&gt;56</title>
<path fill="none" stroke="green" stroke-width="0.33" d="M606.17,-148.35C587.38,-140.7 551.85,-125.59 523.23,-109.54 521.9,-108.8 520.56,-108.01 519.22,-107.21"/>
<polygon fill="green" stroke="green" stroke-width="0.33" points="520.81,-104.07 510.5,-101.65 517.05,-109.97 520.81,-104.07"/>
</g>
<!-- &#45;2&#45;&gt;57 -->
<g id="edge12" class="edge">
<title>&#45;2&#45;&gt;57</title>
<path fill="none" stroke="green" stroke-width="0.33" d="M625.81,-145.5C632.41,-137.44 642.88,-124.65 652.11,-113.38"/>
<polygon fill="green" stroke="green" stroke-width="0.33" points="654.91,-115.49 658.53,-105.54 649.49,-111.06 654.91,-115.49"/>
</g>
<!-- &#45;2&#45;&gt;58 -->
<g id="edge13" class="edge">
<title>&#45;2&#45;&gt;58</title>
<path fill="none" stroke="red" stroke-width="0.48" d="M632.53,-150.75C658.12,-145.08 715.6,-130.95 760.23,-109.54 761.59,-108.88 762.97,-108.17 764.34,-107.41"/>
<polygon fill="red" stroke="red" stroke-width="0.48" points="766.44,-110.23 773.16,-102.04 762.8,-104.26 766.44,-110.23"/>
</g>
<!-- &#45;2&#45;&gt;59 -->
<g id="edge14" class="edge">
<title>&#45;2&#45;&gt;59</title>
<path fill="none" stroke="green" stroke-width="0.32" d="M632.56,-150.55C639.59,-149 648.36,-147.11 656.23,-145.54 743.08,-128.18 765.82,-128.99 852.23,-109.54 866.67,-106.29 882.56,-102.11 895.82,-98.46"/>
<polygon fill="green" stroke="green" stroke-width="0.32" points="897.12,-101.73 905.81,-95.67 895.24,-94.99 897.12,-101.73"/>
</g>
<!-- &#45;2&#45;&gt;60 -->
<g id="edge15" class="edge">
<title>&#45;2&#45;&gt;60</title>
<path fill="none" stroke="green" stroke-width="0.33" d="M632.23,-147.07C648.59,-138.81 677.43,-123.88 701.23,-109.54 702.53,-108.76 703.85,-107.94 705.18,-107.11"/>
<polygon fill="green" stroke="green" stroke-width="0.33" points="707.38,-109.85 713.85,-101.46 703.56,-103.98 707.38,-109.85"/>
</g>
<!-- &#45;2&#45;&gt;61 -->
<g id="edge16" class="edge">
<title>&#45;2&#45;&gt;61</title>
<path fill="none" stroke="red" stroke-width="0.45" d="M632.52,-150.31C639.54,-148.7 648.31,-146.82 656.23,-145.54 802.74,-121.82 846.8,-154.57 988.23,-109.54 991.24,-108.58 994.3,-107.34 997.27,-105.96"/>
<polygon fill="red" stroke="red" stroke-width="0.45" points="999.16,-108.93 1006.4,-101.2 995.92,-102.72 999.16,-108.93"/>
</g>
<!-- &#45;2&#45;&gt;62 -->
<g id="edge17" class="edge">
<title>&#45;2&#45;&gt;62</title>
<path fill="none" stroke="green" stroke-width="0.46" d="M606,-149.66C601.07,-148.27 595.41,-146.76 590.23,-145.54 508.68,-126.39 482.63,-141.55 405.23,-109.54 403.83,-108.96 402.42,-108.31 401.03,-107.6"/>
<polygon fill="green" stroke="green" stroke-width="0.46" points="402.54,-104.43 392.14,-102.38 398.99,-110.47 402.54,-104.43"/>
</g>
<!-- &#45;2&#45;&gt;63 -->
<g id="edge18" class="edge">
<title>&#45;2&#45;&gt;63</title>
<path fill="none" stroke="green" stroke-width="0.41" d="M606.07,-149.86C569.24,-139.57 467.55,-111.08 464.23,-109.54 462.85,-108.9 461.47,-108.2 460.09,-107.46"/>
<polygon fill="green" stroke="green" stroke-width="0.41" points="461.63,-104.3 451.26,-102.12 458,-110.29 461.63,-104.3"/>
</g>
<!-- &#45;3 -->
<g id="node3" class="node">
<title>&#45;3</title>
<polygon fill="lightgray" stroke="black" points="691.23,-163.54 665.23,-163.54 665.23,-145.54 691.23,-145.54 691.23,-163.54"/>
<text text-anchor="middle" x="678.23" y="-152.34" font-family="Times-Roman" font-size="9.00">&#45;3</text>
</g>
<!-- &#45;3&#45;&gt;0 -->
<g id="edge113" class="edge">
<title>&#45;3&#45;&gt;0</title>
<path fill="none" stroke="green" stroke-width="0.59" d="M691.4,-151.44C723.39,-146.04 803.73,-130.61 819.23,-109.54 830.03,-94.86 830.69,-82.69 819.23,-68.53 770.91,-8.83 723.22,-56.39 650.23,-32.53 646.8,-31.41 643.26,-30.05 639.81,-28.62"/>
<polygon fill="green" stroke="green" stroke-width="0.59" points="641.08,-25.35 630.52,-24.49 638.24,-31.75 641.08,-25.35"/>
</g>
<!-- &#45;3&#45;&gt;1 -->
<g id="edge114" class="edge">
<title>&#45;3&#45;&gt;1</title>
<path fill="none" stroke="green" stroke-width="0.87" d="M691.32,-151.49C703.25,-149.68 721.39,-147.11 737.23,-145.54 801.15,-139.22 1270.24,-156.35 1314.23,-109.54 1326.71,-96.25 1326.48,-82.03 1314.23,-68.53 1280.25,-31.09 915.52,-20.14 813.57,-17.8"/>
<polygon fill="green" stroke="green" stroke-width="0.87" points="813.57,-14.3 803.5,-17.58 813.42,-21.3 813.57,-14.3"/>
</g>
<!-- &#45;3&#45;&gt;2 -->
<g id="edge115" class="edge">
<title>&#45;3&#45;&gt;2</title>
<path fill="none" stroke="green" stroke-width="0.17" d="M691.32,-151.54C703.26,-149.78 721.4,-147.23 737.23,-145.54 788.54,-140.07 1165.18,-147.41 1200.23,-109.54 1212.61,-96.16 1212.58,-81.93 1200.23,-68.53 1167.14,-32.61 809.21,-45.85 762.23,-32.53 759.86,-31.85 757.45,-30.99 755.09,-30.01"/>
<polygon fill="green" stroke="green" stroke-width="0.17" points="756.34,-26.73 745.81,-25.58 753.32,-33.05 756.34,-26.73"/>
</g>
<!-- &#45;3&#45;&gt;3 -->
<g id="edge116" class="edge">
<title>&#45;3&#45;&gt;3</title>
<path fill="none" stroke="green" stroke-width="0.11" d="M664.93,-150.35C657.91,-148.75 649.13,-146.87 641.23,-145.54 576.11,-134.55 390.01,-158.99 346.23,-109.54 334.14,-95.89 334.66,-82.62 346.23,-68.53 398.26,-5.12 449.73,-59.38 527.23,-32.53 529.64,-31.69 532.11,-30.69 534.54,-29.62"/>
<polygon fill="green" stroke="green" stroke-width="0.11" points="536.08,-32.76 543.53,-25.23 533.01,-26.47 536.08,-32.76"/>
</g>
<!-- &#45;3&#45;&gt;4 -->
<g id="edge117" class="edge">
<title>&#45;3&#45;&gt;4</title>
<path fill="none" stroke="red" stroke-width="0.58" d="M664.93,-150.34C657.91,-148.73 649.14,-146.85 641.23,-145.54 573.25,-134.24 379.04,-161.02 333.23,-109.54 321.11,-95.92 322.37,-83.17 333.23,-68.53 366.14,-24.15 436.46,-16.85 475.22,-16.41"/>
<polygon fill="red" stroke="red" stroke-width="0.58" points="475.69,-19.91 485.7,-16.46 475.72,-12.92 475.69,-19.91"/>
</g>
<!-- &#45;3&#45;&gt;5 -->
<g id="edge118" class="edge">
<title>&#45;3&#45;&gt;5</title>
<path fill="none" stroke="green" stroke-width="0.51" stroke-dasharray="1,5" d="M691.34,-151.68C703.29,-150 721.43,-147.51 737.23,-145.54 807.36,-136.79 1006.16,-162.27 1053.23,-109.54 1065.36,-95.94 1065.43,-82.07 1053.23,-68.53 1001.47,-11.11 781.64,-53.47 707.23,-32.53 704.34,-31.71 701.39,-30.66 698.51,-29.48"/>
<polygon fill="green" stroke="green" stroke-width="0.51" points="699.71,-26.18 689.16,-25.18 696.78,-32.54 699.71,-26.18"/>
</g>
<!-- &#45;3&#45;&gt;64 -->
<g id="edge29" class="edge">
<title>&#45;3&#45;&gt;64</title>
<path fill="none" stroke="green" stroke-width="0.33" d="M665.17,-148.35C646.38,-140.7 610.85,-125.59 582.23,-109.54 580.9,-108.8 579.56,-108.01 578.22,-107.21"/>
<polygon fill="green" stroke="green" stroke-width="0.33" points="579.81,-104.07 569.5,-101.65 576.05,-109.97 579.81,-104.07"/>
</g>
<!-- &#45;3&#45;&gt;65 -->
<g id="edge30" class="edge">
<title>&#45;3&#45;&gt;65</title>
<path fill="none" stroke="green" stroke-width="0.26" d="M669.87,-145.5C660.85,-136.82 646.12,-122.65 633.81,-110.8"/>
<polygon fill="green" stroke="green" stroke-width="0.26" points="636.17,-108.21 626.53,-103.8 631.31,-113.26 636.17,-108.21"/>
</g>
<!-- &#45;3&#45;&gt;56 -->
<g id="edge21" class="edge">
<title>&#45;3&#45;&gt;56</title>
<path fill="none" stroke="red" stroke-width="0.27" d="M664.84,-150.32C632.17,-142.36 549.11,-121.55 523.23,-109.54 521.85,-108.9 520.47,-108.2 519.09,-107.46"/>
<polygon fill="red" stroke="red" stroke-width="0.27" points="520.63,-104.3 510.26,-102.12 517,-110.29 520.63,-104.3"/>
</g>
<!-- &#45;3&#45;&gt;57 -->
<g id="edge22" class="edge">
<title>&#45;3&#45;&gt;57</title>
<path fill="none" stroke="red" stroke-width="1" stroke-dasharray="1,5" d="M677.34,-145.5C676.61,-138.88 675.53,-129.07 674.48,-119.53"/>
<polygon fill="red" stroke="red" stroke-width="1" points="677.94,-119.01 673.37,-109.45 670.98,-119.78 677.94,-119.01"/>
</g>
<!-- &#45;3&#45;&gt;58 -->
<g id="edge23" class="edge">
<title>&#45;3&#45;&gt;58</title>
<path fill="none" stroke="red" stroke-width="0.14" d="M691.23,-147.07C707.59,-138.81 736.43,-123.88 760.23,-109.54 761.53,-108.76 762.85,-107.94 764.18,-107.11"/>
<polygon fill="red" stroke="red" stroke-width="0.14" points="766.38,-109.85 772.85,-101.46 762.56,-103.98 766.38,-109.85"/>
</g>
<!-- &#45;3&#45;&gt;59 -->
<g id="edge24" class="edge">
<title>&#45;3&#45;&gt;59</title>
<path fill="none" stroke="red" stroke-width="0.25" d="M691.27,-151.37C731.43,-144.59 852.8,-123.48 890.23,-109.54 893.2,-108.43 896.21,-107.1 899.17,-105.67"/>
<polygon fill="red" stroke="red" stroke-width="0.25" points="901.08,-108.61 908.28,-100.84 897.81,-102.43 901.08,-108.61"/>
</g>
<!-- &#45;3&#45;&gt;60 -->
<g id="edge25" class="edge">
<title>&#45;3&#45;&gt;60</title>
<path fill="none" stroke="red" stroke-width="0.23" d="M684.81,-145.5C691.41,-137.44 701.88,-124.65 711.11,-113.38"/>
<polygon fill="red" stroke="red" stroke-width="0.23" points="713.91,-115.49 717.53,-105.54 708.49,-111.06 713.91,-115.49"/>
</g>
<!-- &#45;3&#45;&gt;61 -->
<g id="edge26" class="edge">
<title>&#45;3&#45;&gt;61</title>
<path fill="none" stroke="green" stroke-width="0.36" d="M691.6,-151.71C750.11,-143.69 981.03,-111.96 988.23,-109.54 991.23,-108.53 994.27,-107.26 997.24,-105.86"/>
<polygon fill="green" stroke="green" stroke-width="0.36" points="999.13,-108.82 1006.36,-101.07 995.88,-102.62 999.13,-108.82"/>
</g>
<!-- &#45;3&#45;&gt;62 -->
<g id="edge27" class="edge">
<title>&#45;3&#45;&gt;62</title>
<path fill="none" stroke="red" stroke-width="0.16" d="M664.91,-150.45C657.88,-148.88 649.11,-146.99 641.23,-145.54 536.88,-126.32 504.08,-148.08 405.23,-109.54 403.81,-108.99 402.4,-108.36 401,-107.67"/>
<polygon fill="red" stroke="red" stroke-width="0.16" points="402.5,-104.49 392.09,-102.51 398.99,-110.55 402.5,-104.49"/>
</g>
<!-- &#45;3&#45;&gt;63 -->
<g id="edge28" class="edge">
<title>&#45;3&#45;&gt;63</title>
<path fill="none" stroke="green" stroke-width="0.27" d="M665.22,-150.69C658.13,-149.14 649.2,-147.21 641.23,-145.54 562.66,-129.06 538.28,-140.53 464.23,-109.54 462.83,-108.95 461.43,-108.3 460.03,-107.59"/>
<polygon fill="green" stroke="green" stroke-width="0.27" points="461.54,-104.42 451.15,-102.36 457.99,-110.45 461.54,-104.42"/>
</g>
<!-- &#45;4 -->
<g id="node4" class="node">
<title>&#45;4</title>
<polygon fill="lightgray" stroke="black" points="772.23,-163.54 746.23,-163.54 746.23,-145.54 772.23,-145.54 772.23,-163.54"/>
<text text-anchor="middle" x="759.23" y="-152.34" font-family="Times-Roman" font-size="9.00">&#45;4</text>
</g>
<!-- &#45;4&#45;&gt;0 -->
<g id="edge119" class="edge">
<title>&#45;4&#45;&gt;0</title>
<path fill="none" stroke="green" stroke-width="0.36" d="M772.52,-152.96C835.33,-150.09 1100.35,-136.46 1124.23,-109.54 1136.32,-95.9 1136.62,-81.89 1124.23,-68.53 1088.32,-29.79 701.42,-45.54 650.23,-32.53 646.73,-31.64 643.15,-30.42 639.69,-29.04"/>
<polygon fill="green" stroke="green" stroke-width="0.36" points="640.95,-25.78 630.39,-24.94 638.13,-32.18 640.95,-25.78"/>
</g>
<!-- &#45;4&#45;&gt;1 -->
<g id="edge120" class="edge">
<title>&#45;4&#45;&gt;1</title>
<path fill="none" stroke="green" stroke-width="0.6" d="M772.39,-153.64C857.51,-154.14 1328.07,-154.84 1370.23,-109.54 1382.64,-96.2 1382.54,-81.97 1370.23,-68.53 1332.2,-27.01 923.02,-18.96 813.86,-17.54"/>
<polygon fill="green" stroke="green" stroke-width="0.6" points="813.75,-14.04 803.7,-17.42 813.66,-21.04 813.75,-14.04"/>
</g>
<!-- &#45;4&#45;&gt;2 -->
<g id="edge121" class="edge">
<title>&#45;4&#45;&gt;2</title>
<path fill="none" stroke="green" stroke-width="0.28" d="M772.27,-153.61C855.6,-153.9 1311.4,-153.51 1352.23,-109.54 1364.63,-96.18 1364.72,-81.8 1352.23,-68.53 1307.22,-20.69 825.6,-49.78 762.23,-32.53 759.85,-31.88 757.44,-31.03 755.07,-30.06"/>
<polygon fill="green" stroke="green" stroke-width="0.28" points="756.32,-26.78 745.79,-25.65 753.32,-33.11 756.32,-26.78"/>
</g>
<!-- &#45;4&#45;&gt;3 -->
<g id="edge122" class="edge">
<title>&#45;4&#45;&gt;3</title>
<path fill="none" stroke="green" stroke-width="0.25" d="M772.4,-153.91C839.32,-155.42 1135.31,-157.26 1053.23,-68.53 1018.26,-30.73 641.12,-45.26 591.23,-32.53 587.74,-31.64 584.15,-30.41 580.69,-29.04"/>
<polygon fill="green" stroke="green" stroke-width="0.25" points="581.95,-25.77 571.39,-24.94 579.13,-32.17 581.95,-25.77"/>
</g>
<!-- &#45;4&#45;&gt;4 -->
<g id="edge123" class="edge">
<title>&#45;4&#45;&gt;4</title>
<path fill="none" stroke="red" stroke-width="0.2" d="M746.12,-151.63C734.17,-149.93 716.03,-147.41 700.23,-145.54 660.97,-140.88 372.73,-138.88 346.23,-109.54 334.01,-96.01 335.54,-83.29 346.23,-68.53 375.92,-27.51 439.51,-18.73 475.66,-17.2"/>
<polygon fill="red" stroke="red" stroke-width="0.2" points="476.03,-20.69 485.94,-16.93 475.85,-13.7 476.03,-20.69"/>
</g>
<!-- &#45;4&#45;&gt;5 -->
<g id="edge124" class="edge">
<title>&#45;4&#45;&gt;5</title>
<path fill="none" stroke="green" stroke-width="0.38" d="M772.3,-153.46C849.25,-152.84 1241.07,-147.81 1276.23,-109.54 1288.56,-96.11 1288.7,-81.82 1276.23,-68.53 1232.87,-22.34 768.54,-48.45 707.23,-32.53 704.32,-31.77 701.36,-30.75 698.48,-29.59"/>
<polygon fill="green" stroke="green" stroke-width="0.38" points="699.67,-26.29 689.12,-25.31 696.76,-32.66 699.67,-26.29"/>
</g>
<!-- &#45;4&#45;&gt;64 -->
<g id="edge39" class="edge">
<title>&#45;4&#45;&gt;64</title>
<path fill="none" stroke="red" stroke-width="0.27" d="M745.83,-151.83C715.58,-147.64 640.11,-135.24 582.23,-109.54 580.84,-108.92 579.45,-108.24 578.06,-107.51"/>
<polygon fill="red" stroke="red" stroke-width="0.27" points="579.59,-104.35 569.21,-102.22 576,-110.36 579.59,-104.35"/>
</g>
<!-- &#45;4&#45;&gt;65 -->
<g id="edge40" class="edge">
<title>&#45;4&#45;&gt;65</title>
<path fill="none" stroke="green" stroke-width="0.22" d="M746.06,-149.74C723.79,-143.09 677.6,-128.22 641.23,-109.54 639.88,-108.85 638.52,-108.1 637.16,-107.32"/>
<polygon fill="green" stroke="green" stroke-width="0.22" points="638.72,-104.18 628.38,-101.87 635.02,-110.12 638.72,-104.18"/>
</g>
<!-- &#45;4&#45;&gt;56 -->
<g id="edge31" class="edge">
<title>&#45;4&#45;&gt;56</title>
<path fill="none" stroke="green" stroke-width="0.33" d="M746.2,-151.82C702.97,-146.01 564.7,-126.5 523.23,-109.54 521.82,-108.96 520.42,-108.32 519.02,-107.61"/>
<polygon fill="green" stroke="green" stroke-width="0.33" points="520.53,-104.44 510.13,-102.41 516.99,-110.48 520.53,-104.44"/>
</g>
<!-- &#45;4&#45;&gt;57 -->
<g id="edge32" class="edge">
<title>&#45;4&#45;&gt;57</title>
<path fill="none" stroke="red" stroke-width="0.17" d="M748.08,-145.5C735.08,-136.12 713.2,-120.33 696.1,-107.99"/>
<polygon fill="red" stroke="red" stroke-width="0.17" points="697.83,-104.91 687.67,-101.9 693.73,-110.59 697.83,-104.91"/>
</g>
<!-- &#45;4&#45;&gt;58 -->
<g id="edge33" class="edge">
<title>&#45;4&#45;&gt;58</title>
<path fill="none" stroke="green" stroke-width="0.55" d="M763.03,-145.5C766.43,-138.29 771.62,-127.3 776.49,-117"/>
<polygon fill="green" stroke="green" stroke-width="0.55" points="779.7,-118.39 780.81,-107.86 773.37,-115.4 779.7,-118.39"/>
</g>
<!-- &#45;4&#45;&gt;59 -->
<g id="edge34" class="edge">
<title>&#45;4&#45;&gt;59</title>
<path fill="none" stroke="green" stroke-width="0.34" d="M772.55,-149.95C796.57,-143.28 848.53,-127.97 890.23,-109.54 893.12,-108.26 896.1,-106.82 899.03,-105.31"/>
<polygon fill="green" stroke="green" stroke-width="0.34" points="900.97,-108.24 908.1,-100.4 897.64,-102.08 900.97,-108.24"/>
</g>
<!-- &#45;4&#45;&gt;60 -->
<g id="edge35" class="edge">
<title>&#45;4&#45;&gt;60</title>
<path fill="none" stroke="green" stroke-width="0.66" d="M755.55,-145.5C752.26,-138.29 747.24,-127.3 742.54,-117"/>
<polygon fill="green" stroke="green" stroke-width="0.66" points="745.7,-115.5 738.37,-107.86 739.34,-118.41 745.7,-115.5"/>
</g>
<!-- &#45;4&#45;&gt;61 -->
<g id="edge36" class="edge">
<title>&#45;4&#45;&gt;61</title>
<path fill="none" stroke="green" stroke-width="0.73" d="M772.27,-152.49C807.87,-149.34 909.29,-138.28 988.23,-109.54 991.2,-108.46 994.23,-107.14 997.19,-105.71"/>
<polygon fill="green" stroke="green" stroke-width="0.73" points="999.1,-108.66 1006.3,-100.89 995.82,-102.47 999.1,-108.66"/>
</g>
<!-- &#45;4&#45;&gt;62 -->
<g id="edge37" class="edge">
<title>&#45;4&#45;&gt;62</title>
<path fill="none" stroke="red" stroke-width="0.42" d="M746.11,-151.71C734.16,-150.05 716.02,-147.57 700.23,-145.54 569.23,-128.67 528.99,-155.67 405.23,-109.54 403.81,-109.01 402.39,-108.4 400.98,-107.72"/>
<polygon fill="red" stroke="red" stroke-width="0.42" points="402.47,-104.54 392.05,-102.61 398.99,-110.62 402.47,-104.54"/>
</g>
<!-- &#45;4&#45;&gt;63 -->
<g id="edge38" class="edge">
<title>&#45;4&#45;&gt;63</title>
<path fill="none" stroke="red" stroke-width="0.65" d="M746.08,-151.74C690.59,-144.14 477.65,-114.75 464.23,-109.54 462.81,-108.99 461.4,-108.36 460,-107.68"/>
<polygon fill="red" stroke="red" stroke-width="0.65" points="461.49,-104.5 451.08,-102.53 457.99,-110.56 461.49,-104.5"/>
</g>
<!-- 64&#45;&gt;0 -->
<g id="edge89" class="edge">
<title>64&#45;&gt;0</title>
<path fill="none" stroke="red" stroke-width="0.15" d="M566.59,-73.02C576,-62.45 588.7,-48.18 598.9,-36.73"/>
<polygon fill="red" stroke="red" stroke-width="0.15" points="601.76,-38.78 605.8,-28.98 596.53,-34.12 601.76,-38.78"/>
</g>
<!-- 64&#45;&gt;1 -->
<g id="edge90" class="edge">
<title>64&#45;&gt;1</title>
<path fill="none" stroke="green" stroke-width="0.22" d="M569.15,-75.72C573.24,-73.02 577.75,-70.41 582.23,-68.53 655.44,-37.79 682.28,-58.77 757.23,-32.53 759.64,-31.68 762.1,-30.68 764.53,-29.6"/>
<polygon fill="green" stroke="green" stroke-width="0.22" points="766.08,-32.74 773.53,-25.21 763.01,-26.45 766.08,-32.74"/>
</g>
<!-- 64&#45;&gt;2 -->
<g id="edge91" class="edge">
<title>64&#45;&gt;2</title>
<path fill="none" stroke="red" stroke-width="0.16" d="M569.29,-76.01C573.37,-73.3 577.84,-70.61 582.23,-68.53 631.74,-44.97 649.12,-52.38 700.23,-32.53 703.02,-31.44 705.92,-30.21 708.77,-28.94"/>
<polygon fill="red" stroke="red" stroke-width="0.16" points="710.52,-31.98 718.09,-24.56 707.55,-25.64 710.52,-31.98"/>
</g>
<!-- 64&#45;&gt;3 -->
<g id="edge92" class="edge">
<title>64&#45;&gt;3</title>
<path fill="none" stroke="green" stroke-width="0.19" d="M554.34,-68.32C554.79,-60.38 555.31,-51.13 555.79,-42.69"/>
<polygon fill="green" stroke="green" stroke-width="0.19" points="559.29,-42.79 556.36,-32.61 552.3,-42.4 559.29,-42.79"/>
</g>
<!-- 64&#45;&gt;4 -->
<g id="edge93" class="edge">
<title>64&#45;&gt;4</title>
<path fill="none" stroke="red" stroke-width="0.35" d="M541.65,-71.97C534.49,-62.03 525.21,-49.16 517.46,-38.39"/>
<polygon fill="red" stroke="red" stroke-width="0.35" points="520.06,-36.03 511.38,-29.96 514.38,-40.12 520.06,-36.03"/>
</g>
<!-- 64&#45;&gt;5 -->
<g id="edge94" class="edge">
<title>64&#45;&gt;5</title>
<path fill="none" stroke="red" stroke-width="0.16" d="M569.63,-76.64C573.7,-73.91 578.08,-71.06 582.23,-68.53 605.54,-54.3 633.03,-39.37 652.04,-29.31"/>
<polygon fill="red" stroke="red" stroke-width="0.16" points="653.92,-32.28 661.14,-24.53 650.66,-26.08 653.92,-32.28"/>
</g>
<!-- 65&#45;&gt;0 -->
<g id="edge95" class="edge">
<title>65&#45;&gt;0</title>
<path fill="none" stroke="red" stroke-width="0.11" d="M613.34,-68.32C613.79,-60.38 614.31,-51.13 614.79,-42.69"/>
<polygon fill="red" stroke="red" stroke-width="0.11" points="618.29,-42.79 615.36,-32.61 611.3,-42.4 618.29,-42.79"/>
</g>
<!-- 65&#45;&gt;1 -->
<g id="edge96" class="edge">
<title>65&#45;&gt;1</title>
<path fill="none" stroke="green" stroke-width="0.18" d="M628.29,-76.02C632.37,-73.31 636.85,-70.62 641.23,-68.53 689.92,-45.22 707.21,-52.84 757.23,-32.53 759.6,-31.56 762.03,-30.49 764.44,-29.36"/>
<polygon fill="green" stroke="green" stroke-width="0.18" points="766.01,-32.49 773.42,-24.91 762.9,-26.21 766.01,-32.49"/>
</g>
<!-- 65&#45;&gt;2 -->
<g id="edge97" class="edge">
<title>65&#45;&gt;2</title>
<path fill="none" stroke="green" stroke-width="0.63" d="M628.64,-76.66C632.71,-73.94 637.1,-71.07 641.23,-68.53 663.96,-54.51 690.67,-39.65 709.24,-29.55"/>
<polygon fill="green" stroke="green" stroke-width="0.63" points="711.02,-32.57 718.15,-24.74 707.69,-26.42 711.02,-32.57"/>
</g>
<!-- 65&#45;&gt;3 -->
<g id="edge98" class="edge">
<title>65&#45;&gt;3</title>
<path fill="none" stroke="green" stroke-width="0.13" d="M600.02,-72.33C592.13,-62.17 581.78,-48.85 573.23,-37.85"/>
<polygon fill="green" stroke="green" stroke-width="0.13" points="575.74,-35.38 566.84,-29.64 570.22,-39.68 575.74,-35.38"/>
</g>
<!-- 65&#45;&gt;4 -->
<g id="edge99" class="edge">
<title>65&#45;&gt;4</title>
<path fill="none" stroke="green" stroke-width="0.11" d="M595.72,-76.81C591.65,-74.08 587.29,-71.18 583.23,-68.53 563.54,-55.68 540.91,-41.4 524.59,-31.18"/>
<polygon fill="green" stroke="green" stroke-width="0.11" points="526.11,-28 515.77,-25.68 522.4,-33.94 526.11,-28"/>
</g>
<!-- 65&#45;&gt;5 -->
<g id="edge100" class="edge">
<title>65&#45;&gt;5</title>
<path fill="none" stroke="red" stroke-width="0.13" d="M625.59,-73.02C635,-62.45 647.7,-48.18 657.9,-36.73"/>
<polygon fill="red" stroke="red" stroke-width="0.13" points="660.76,-38.78 664.8,-28.98 655.53,-34.12 660.76,-38.78"/>
</g>
<!-- 56&#45;&gt;0 -->
<g id="edge41" class="edge">
<title>56&#45;&gt;0</title>
<path fill="none" stroke="green" stroke-width="0.32" d="M510.63,-76.64C514.7,-73.91 519.08,-71.06 523.23,-68.53 546.54,-54.3 574.03,-39.37 593.04,-29.31"/>
<polygon fill="green" stroke="green" stroke-width="0.32" points="594.92,-32.28 602.14,-24.53 591.66,-26.08 594.92,-32.28"/>
</g>
<!-- 56&#45;&gt;1 -->
<g id="edge42" class="edge">
<title>56&#45;&gt;1</title>
<path fill="none" stroke="red" stroke-width="0.24" d="M510.09,-75.56C514.18,-72.86 518.71,-70.29 523.23,-68.53 621.24,-30.24 657.07,-64.79 757.23,-32.53 759.66,-31.74 762.14,-30.78 764.57,-29.73"/>
<polygon fill="red" stroke="red" stroke-width="0.24" points="766.11,-32.87 773.58,-25.36 763.05,-26.57 766.11,-32.87"/>
</g>
<!-- 56&#45;&gt;2 -->
<g id="edge43" class="edge">
<title>56&#45;&gt;2</title>
<path fill="none" stroke="green" stroke-width="0.43" d="M510.15,-75.71C514.24,-73.01 518.75,-70.4 523.23,-68.53 597.28,-37.53 624.1,-58 700.23,-32.53 703.07,-31.57 705.99,-30.43 708.86,-29.21"/>
<polygon fill="green" stroke="green" stroke-width="0.43" points="710.6,-32.25 718.2,-24.87 707.66,-25.91 710.6,-32.25"/>
</g>
<!-- 56&#45;&gt;3 -->
<g id="edge44" class="edge">
<title>56&#45;&gt;3</title>
<path fill="none" stroke="red" stroke-width="0.35" d="M507.59,-73.02C517,-62.45 529.7,-48.18 539.9,-36.73"/>
<polygon fill="red" stroke="red" stroke-width="0.35" points="542.76,-38.78 546.8,-28.98 537.53,-34.12 542.76,-38.78"/>
</g>
<!-- 56&#45;&gt;4 -->
<g id="edge45" class="edge">
<title>56&#45;&gt;4</title>
<path fill="none" stroke="green" stroke-width="0.26" d="M496.46,-68.32C497.35,-60.38 498.4,-51.13 499.35,-42.69"/>
<polygon fill="green" stroke="green" stroke-width="0.26" points="502.85,-42.94 500.49,-32.61 495.89,-42.15 502.85,-42.94"/>
</g>
<!-- 56&#45;&gt;5 -->
<g id="edge46" class="edge">
<title>56&#45;&gt;5</title>
<path fill="none" stroke="red" stroke-width="0.68" d="M510.29,-76.01C514.37,-73.3 518.84,-70.61 523.23,-68.53 572.74,-44.97 589.89,-51.79 641.23,-32.53 644.6,-31.26 648.11,-29.82 651.55,-28.35"/>
<polygon fill="red" stroke="red" stroke-width="0.68" points="653.13,-31.48 660.83,-24.21 650.28,-25.08 653.13,-31.48"/>
</g>
<!-- 57&#45;&gt;0 -->
<g id="edge47" class="edge">
<title>57&#45;&gt;0</title>
<path fill="none" stroke="green" stroke-width="0.13" d="M659.02,-72.33C651.13,-62.17 640.78,-48.85 632.23,-37.85"/>
<polygon fill="green" stroke="green" stroke-width="0.13" points="634.74,-35.38 625.84,-29.64 629.22,-39.68 634.74,-35.38"/>
</g>
<!-- 57&#45;&gt;1 -->
<g id="edge48" class="edge">
<title>57&#45;&gt;1</title>
<path fill="none" stroke="red" stroke-width="0.17" d="M687.68,-76.72C691.75,-73.99 696.12,-71.11 700.23,-68.53 721.75,-54.96 746.83,-40.3 764.52,-30.15"/>
<polygon fill="red" stroke="red" stroke-width="0.17" points="766.57,-33.01 773.51,-25.01 763.09,-26.93 766.57,-33.01"/>
</g>
<!-- 57&#45;&gt;2 -->
<g id="edge49" class="edge">
<title>57&#45;&gt;2</title>
<path fill="none" stroke="red" stroke-width="0.38" d="M684.16,-73.02C693.17,-62.58 705.27,-48.53 715.08,-37.15"/>
<polygon fill="red" stroke="red" stroke-width="0.38" points="717.86,-39.29 721.74,-29.43 712.56,-34.72 717.86,-39.29"/>
</g>
<!-- 57&#45;&gt;3 -->
<g id="edge50" class="edge">
<title>57&#45;&gt;3</title>
<path fill="none" stroke="green" stroke-width="0.22" d="M654.76,-76.75C650.69,-74.02 646.32,-71.14 642.23,-68.53 621.26,-55.16 596.93,-40.58 579.68,-30.4"/>
<polygon fill="green" stroke="green" stroke-width="0.22" points="581.29,-27.28 570.9,-25.23 577.74,-33.32 581.29,-27.28"/>
</g>
<!-- 57&#45;&gt;4 -->
<g id="edge51" class="edge">
<title>57&#45;&gt;4</title>
<path fill="none" stroke="red" stroke-width="0.42" d="M655.14,-76.07C651.06,-73.36 646.59,-70.66 642.23,-68.53 596,-45.96 579.74,-52.25 532.23,-32.53 529.87,-31.55 527.44,-30.46 525.03,-29.32"/>
<polygon fill="red" stroke="red" stroke-width="0.42" points="526.57,-26.18 516.06,-24.86 523.46,-32.45 526.57,-26.18"/>
</g>
<!-- 57&#45;&gt;5 -->
<g id="edge52" class="edge">
<title>57&#45;&gt;5</title>
<path fill="none" stroke="green" stroke-width="0.38" d="M672.34,-68.32C672.79,-60.38 673.31,-51.13 673.79,-42.69"/>
<polygon fill="green" stroke="green" stroke-width="0.38" points="677.29,-42.79 674.36,-32.61 670.3,-42.4 677.29,-42.79"/>
</g>
<!-- 58&#45;&gt;0 -->
<g id="edge53" class="edge">
<title>58&#45;&gt;0</title>
<path fill="none" stroke="green" stroke-width="0.37" d="M773.14,-76.07C769.06,-73.36 764.59,-70.66 760.23,-68.53 714,-45.96 698.2,-51.09 650.23,-32.53 646.87,-31.23 643.36,-29.77 639.93,-28.29"/>
<polygon fill="green" stroke="green" stroke-width="0.37" points="641.2,-25.02 630.64,-24.14 638.35,-31.41 641.2,-25.02"/>
</g>
<!-- 58&#45;&gt;1 -->
<g id="edge54" class="edge">
<title>58&#45;&gt;1</title>
<path fill="none" stroke="red" stroke-width="0.1" d="M788.67,-68.32C788.45,-60.38 788.18,-51.13 787.95,-42.69"/>
<polygon fill="red" stroke="red" stroke-width="0.1" points="791.44,-42.51 787.66,-32.61 784.44,-42.71 791.44,-42.51"/>
</g>
<!-- 58&#45;&gt;2 -->
<g id="edge55" class="edge">
<title>58&#45;&gt;2</title>
<path fill="none" stroke="red" stroke-width="0.2" d="M776.58,-72.33C768.32,-62.07 757.46,-48.59 748.55,-37.53"/>
<polygon fill="red" stroke="red" stroke-width="0.2" points="751.19,-35.23 742.19,-29.64 745.74,-39.62 751.19,-35.23"/>
</g>
<!-- 58&#45;&gt;3 -->
<g id="edge56" class="edge">
<title>58&#45;&gt;3</title>
<path fill="none" stroke="green" stroke-width="0.25" d="M773.29,-75.74C769.2,-73.04 764.7,-70.42 760.23,-68.53 689.52,-38.55 664.22,-56.39 591.23,-32.53 587.8,-31.41 584.26,-30.05 580.81,-28.62"/>
<polygon fill="green" stroke="green" stroke-width="0.25" points="582.08,-25.35 571.52,-24.49 579.24,-31.75 582.08,-25.35"/>
</g>
<!-- 58&#45;&gt;4 -->
<g id="edge57" class="edge">
<title>58&#45;&gt;4</title>
<path fill="none" stroke="red" stroke-width="0.18" d="M773.36,-75.57C769.27,-72.87 764.74,-70.3 760.23,-68.53 664.74,-31.01 629.81,-64.18 532.23,-32.53 529.8,-31.74 527.32,-30.77 524.88,-29.72"/>
<polygon fill="red" stroke="red" stroke-width="0.18" points="526.4,-26.56 515.88,-25.35 523.35,-32.86 526.4,-26.56"/>
</g>
<!-- 58&#45;&gt;5 -->
<g id="edge58" class="edge">
<title>58&#45;&gt;5</title>
<path fill="none" stroke="green" stroke-width="0.16" d="M772.76,-76.75C768.69,-74.02 764.32,-71.14 760.23,-68.53 739.26,-55.16 714.93,-40.58 697.68,-30.4"/>
<polygon fill="green" stroke="green" stroke-width="0.16" points="699.29,-27.28 688.9,-25.23 695.74,-33.32 699.29,-27.28"/>
</g>
<!-- 59&#45;&gt;0 -->
<g id="edge59" class="edge">
<title>59&#45;&gt;0</title>
<path fill="none" stroke="green" stroke-width="0.25" stroke-dasharray="1,5" d="M908.35,-77.02C902.78,-73.83 896.42,-70.64 890.23,-68.53 788.14,-33.71 753.72,-62.9 650.23,-32.53 646.77,-31.51 643.21,-30.22 639.75,-28.81"/>
<polygon fill="green" stroke="green" stroke-width="0.25" points="641.02,-25.54 630.46,-24.7 638.18,-31.94 641.02,-25.54"/>
</g>
<!-- 59&#45;&gt;1 -->
<g id="edge60" class="edge">
<title>59&#45;&gt;1</title>
<path fill="none" stroke="red" stroke-width="0.32" d="M907.51,-77.95C902,-74.87 895.89,-71.51 890.23,-68.53 863.23,-54.29 831.76,-38.79 810.78,-28.6"/>
<polygon fill="red" stroke="red" stroke-width="0.32" points="812.19,-25.39 801.66,-24.19 809.14,-31.69 812.19,-25.39"/>
</g>
<!-- 59&#45;&gt;2 -->
<g id="edge61" class="edge">
<title>59&#45;&gt;2</title>
<path fill="none" stroke="red" stroke-width="0.38" d="M908.18,-77.48C902.6,-74.31 896.27,-71.02 890.23,-68.53 835.6,-45.99 817.27,-54.03 762.23,-32.53 759.85,-31.6 757.4,-30.54 754.99,-29.42"/>
<polygon fill="red" stroke="red" stroke-width="0.38" points="756.52,-26.28 746.01,-24.99 753.42,-32.56 756.52,-26.28"/>
</g>
<!-- 59&#45;&gt;3 -->
<g id="edge62" class="edge">
<title>59&#45;&gt;3</title>
<path fill="none" stroke="red" stroke-width="0.23" d="M904.93,-84.14C883.62,-80.09 849.11,-73.63 819.23,-68.53 718.1,-51.24 689.55,-61.79 591.23,-32.53 587.77,-31.5 584.21,-30.2 580.76,-28.79"/>
<polygon fill="red" stroke="red" stroke-width="0.23" points="582.02,-25.52 571.46,-24.67 579.19,-31.92 582.02,-25.52"/>
</g>
<!-- 59&#45;&gt;4 -->
<g id="edge63" class="edge">
<title>59&#45;&gt;4</title>
<path fill="none" stroke="green" stroke-width="0.37" d="M904.96,-83.95C883.67,-79.74 849.18,-73.16 819.23,-68.53 692.18,-48.89 655.13,-70.24 532.23,-32.53 529.78,-31.78 527.3,-30.84 524.86,-29.8"/>
<polygon fill="green" stroke="green" stroke-width="0.37" points="526.37,-26.64 515.85,-25.45 523.33,-32.95 526.37,-26.64"/>
</g>
<!-- 59&#45;&gt;5 -->
<g id="edge64" class="edge">
<title>59&#45;&gt;5</title>
<path fill="none" stroke="red" stroke-width="0.59" d="M908.29,-77.19C902.72,-74.01 896.37,-70.78 890.23,-68.53 812.4,-40 785.92,-58.57 707.23,-32.53 704.38,-31.58 701.45,-30.45 698.59,-29.22"/>
<polygon fill="red" stroke="red" stroke-width="0.59" points="699.79,-25.92 689.25,-24.89 696.84,-32.27 699.79,-25.92"/>
</g>
<!-- 60&#45;&gt;0 -->
<g id="edge65" class="edge">
<title>60&#45;&gt;0</title>
<path fill="none" stroke="green" stroke-width="0.16" d="M713.76,-76.75C709.69,-74.02 705.32,-71.14 701.23,-68.53 680.26,-55.16 655.93,-40.58 638.68,-30.4"/>
<polygon fill="green" stroke="green" stroke-width="0.16" points="640.29,-27.28 629.9,-25.23 636.74,-33.32 640.29,-27.28"/>
</g>
<!-- 60&#45;&gt;1 -->
<g id="edge66" class="edge">
<title>60&#45;&gt;1</title>
<path fill="none" stroke="red" stroke-width="0.1" d="M742.88,-72.33C751.14,-62.07 762,-48.59 770.91,-37.53"/>
<polygon fill="red" stroke="red" stroke-width="0.1" points="773.71,-39.62 777.26,-29.64 768.26,-35.23 773.71,-39.62"/>
</g>
<!-- 60&#45;&gt;2 -->
<g id="edge67" class="edge">
<title>60&#45;&gt;2</title>
<path fill="none" stroke="green" stroke-width="0.27" d="M730.78,-68.32C731.01,-60.38 731.27,-51.13 731.51,-42.69"/>
<polygon fill="green" stroke="green" stroke-width="0.27" points="735.01,-42.71 731.79,-32.61 728.01,-42.51 735.01,-42.71"/>
</g>
<!-- 60&#45;&gt;3 -->
<g id="edge68" class="edge">
<title>60&#45;&gt;3</title>
<path fill="none" stroke="green" stroke-width="0.48" d="M714.14,-76.07C710.06,-73.36 705.59,-70.66 701.23,-68.53 655,-45.96 639.2,-51.09 591.23,-32.53 587.87,-31.23 584.36,-29.77 580.93,-28.29"/>
<polygon fill="green" stroke="green" stroke-width="0.48" points="582.2,-25.02 571.64,-24.14 579.35,-31.41 582.2,-25.02"/>
</g>
<!-- 60&#45;&gt;4 -->
<g id="edge69" class="edge">
<title>60&#45;&gt;4</title>
<path fill="none" stroke="green" stroke-width="0.44" d="M714.29,-75.74C710.2,-73.04 705.7,-70.42 701.23,-68.53 630.52,-38.55 604.62,-58.16 532.23,-32.53 529.82,-31.67 527.35,-30.67 524.93,-29.58"/>
<polygon fill="green" stroke="green" stroke-width="0.44" points="526.45,-26.43 515.93,-25.19 523.38,-32.72 526.45,-26.43"/>
</g>
<!-- 60&#45;&gt;5 -->
<g id="edge70" class="edge">
<title>60&#45;&gt;5</title>
<path fill="none" stroke="red" stroke-width="0.34" d="M718.02,-72.33C710.13,-62.17 699.78,-48.85 691.23,-37.85"/>
<polygon fill="red" stroke="red" stroke-width="0.34" points="693.74,-35.38 684.84,-29.64 688.22,-39.68 693.74,-35.38"/>
</g>
<!-- 61&#45;&gt;0 -->
<g id="edge71" class="edge">
<title>61&#45;&gt;0</title>
<path fill="none" stroke="red" stroke-width="0.11" d="M1004.09,-81.64C990.57,-77.35 971.96,-71.89 955.23,-68.53 821.41,-41.62 781.79,-68.9 650.23,-32.53 646.75,-31.57 643.18,-30.3 639.72,-28.91"/>
<polygon fill="red" stroke="red" stroke-width="0.11" points="640.99,-25.64 630.43,-24.8 638.16,-32.05 640.99,-25.64"/>
</g>
<!-- 61&#45;&gt;1 -->
<g id="edge72" class="edge">
<title>61&#45;&gt;1</title>
<path fill="none" stroke="green" stroke-width="0.52" d="M1006.22,-77.39C1000.63,-74.22 994.3,-70.95 988.23,-68.53 927.68,-44.41 852.28,-28.77 813.29,-21.68"/>
<polygon fill="green" stroke="green" stroke-width="0.52" points="813.76,-18.2 803.3,-19.9 812.54,-25.1 813.76,-18.2"/>
</g>
<!-- 61&#45;&gt;2 -->
<g id="edge73" class="edge">
<title>61&#45;&gt;2</title>
<path fill="none" stroke="red" stroke-width="0.13" d="M1006.34,-77.05C1000.77,-73.86 994.41,-70.67 988.23,-68.53 892.11,-35.26 858.96,-63.97 762.23,-32.53 759.8,-31.74 757.32,-30.77 754.88,-29.71"/>
<polygon fill="red" stroke="red" stroke-width="0.13" points="756.4,-26.56 745.88,-25.35 753.35,-32.86 756.4,-26.56"/>
</g>
<!-- 61&#45;&gt;3 -->
<g id="edge74" class="edge">
<title>61&#45;&gt;3</title>
<path fill="none" stroke="green" stroke-width="0.28" d="M1004.11,-81.54C990.6,-77.21 971.99,-71.73 955.23,-68.53 795.55,-37.99 748.32,-74.36 591.23,-32.53 587.75,-31.6 584.17,-30.35 580.71,-28.97"/>
<polygon fill="green" stroke="green" stroke-width="0.28" points="581.97,-25.7 571.41,-24.87 579.14,-32.11 581.97,-25.7"/>
</g>
<!-- 61&#45;&gt;4 -->
<g id="edge75" class="edge">
<title>61&#45;&gt;4</title>
<path fill="none" stroke="red" stroke-width="0.65" d="M1004.12,-81.47C990.62,-77.1 972.02,-71.62 955.23,-68.53 769.67,-34.35 713.67,-84.27 532.23,-32.53 529.86,-31.85 527.45,-30.98 525.09,-30.01"/>
<polygon fill="red" stroke="red" stroke-width="0.65" points="526.34,-26.72 515.81,-25.57 523.33,-33.04 526.34,-26.72"/>
</g>
<!-- 61&#45;&gt;5 -->
<g id="edge76" class="edge">
<title>61&#45;&gt;5</title>
<path fill="none" stroke="green" stroke-width="0.36" d="M1003.76,-81.69C990.26,-77.48 971.8,-72.09 955.23,-68.53 846.34,-45.12 813.81,-64.87 707.23,-32.53 704.36,-31.66 701.42,-30.56 698.54,-29.36"/>
<polygon fill="green" stroke="green" stroke-width="0.36" points="699.74,-26.06 689.2,-25.05 696.81,-32.42 699.74,-26.06"/>
</g>
<!-- 62&#45;&gt;0 -->
<g id="edge77" class="edge">
<title>62&#45;&gt;0</title>
<path fill="none" stroke="red" stroke-width="0.33" d="M392.15,-75.71C396.24,-73.01 400.75,-70.4 405.23,-68.53 479.28,-37.53 505.81,-57.12 582.23,-32.53 585.66,-31.42 589.2,-30.08 592.65,-28.65"/>
<polygon fill="red" stroke="red" stroke-width="0.33" points="594.22,-31.78 601.94,-24.52 591.38,-25.38 594.22,-31.78"/>
</g>
<!-- 62&#45;&gt;1 -->
<g id="edge78" class="edge">
<title>62&#45;&gt;1</title>
<path fill="none" stroke="green" stroke-width="0.75" d="M391.72,-75.59C395.89,-72.83 400.55,-70.22 405.23,-68.53 553.11,-15.04 606.37,-76.94 757.23,-32.53 759.68,-31.8 762.17,-30.88 764.61,-29.85"/>
<polygon fill="green" stroke="green" stroke-width="0.75" points="766.13,-33.01 773.63,-25.52 763.1,-26.7 766.13,-33.01"/>
</g>
<!-- 62&#45;&gt;2 -->
<g id="edge79" class="edge">
<title>62&#45;&gt;2</title>
<path fill="none" stroke="red" stroke-width="0.23" d="M392.05,-75.45C396.14,-72.76 400.68,-70.22 405.23,-68.53 528.99,-22.4 573.41,-69.44 700.23,-32.53 703.11,-31.69 706.05,-30.62 708.93,-29.43"/>
<polygon fill="red" stroke="red" stroke-width="0.23" points="710.66,-32.49 718.28,-25.12 707.73,-26.13 710.66,-32.49"/>
</g>
<!-- 62&#45;&gt;3 -->
<g id="edge80" class="edge">
<title>62&#45;&gt;3</title>
<path fill="none" stroke="green" stroke-width="0.26" d="M392.27,-75.98C396.35,-73.27 400.83,-70.59 405.23,-68.53 456.39,-44.47 474.7,-53.43 527.23,-32.53 529.6,-31.58 532.04,-30.51 534.45,-29.39"/>
<polygon fill="green" stroke="green" stroke-width="0.26" points="536.02,-32.52 543.43,-24.95 532.92,-26.25 536.02,-32.52"/>
</g>
<!-- 62&#45;&gt;4 -->
<g id="edge81" class="edge">
<title>62&#45;&gt;4</title>
<path fill="none" stroke="green" stroke-width="0.28" d="M392.59,-76.58C396.67,-73.86 401.06,-71.02 405.23,-68.53 429.81,-53.82 458.98,-38.7 478.87,-28.73"/>
<polygon fill="green" stroke="green" stroke-width="0.28" points="480.44,-31.86 487.83,-24.27 477.32,-25.59 480.44,-31.86"/>
</g>
<!-- 62&#45;&gt;5 -->
<g id="edge82" class="edge">
<title>62&#45;&gt;5</title>
<path fill="none" stroke="red" stroke-width="0.18" d="M392.09,-75.55C396.18,-72.86 400.7,-70.29 405.23,-68.53 504.08,-29.99 539.45,-62.53 641.23,-32.53 644.68,-31.51 648.24,-30.21 651.7,-28.8"/>
<polygon fill="red" stroke="red" stroke-width="0.18" points="653.27,-31.94 661,-24.69 650.43,-25.54 653.27,-31.94"/>
</g>
<!-- 63&#45;&gt;0 -->
<g id="edge83" class="edge">
<title>63&#45;&gt;0</title>
<path fill="none" stroke="red" stroke-width="0.34" d="M451.29,-76.01C455.37,-73.3 459.84,-70.61 464.23,-68.53 513.74,-44.97 530.89,-51.79 582.23,-32.53 585.6,-31.26 589.11,-29.82 592.55,-28.35"/>
<polygon fill="red" stroke="red" stroke-width="0.34" points="594.13,-31.48 601.83,-24.21 591.28,-25.08 594.13,-31.48"/>
</g>
<!-- 63&#45;&gt;1 -->
<g id="edge84" class="edge">
<title>63&#45;&gt;1</title>
<path fill="none" stroke="green" stroke-width="0.33" d="M451.05,-75.46C455.14,-72.77 459.68,-70.22 464.23,-68.53 587.15,-22.65 631.75,-70.85 757.23,-32.53 759.67,-31.78 762.16,-30.84 764.6,-29.8"/>
<polygon fill="green" stroke="green" stroke-width="0.33" points="766.12,-32.95 773.61,-25.46 763.08,-26.65 766.12,-32.95"/>
</g>
<!-- 63&#45;&gt;2 -->
<g id="edge85" class="edge">
<title>63&#45;&gt;2</title>
<path fill="none" stroke="green" stroke-width="0.17" d="M451.09,-75.55C455.18,-72.86 459.7,-70.29 464.23,-68.53 563.08,-29.99 598.81,-63.7 700.23,-32.53 703.1,-31.65 706.03,-30.55 708.91,-29.34"/>
<polygon fill="green" stroke="green" stroke-width="0.17" points="710.64,-32.4 718.25,-25.03 707.71,-26.04 710.64,-32.4"/>
</g>
<!-- 63&#45;&gt;3 -->
<g id="edge86" class="edge">
<title>63&#45;&gt;3</title>
<path fill="none" stroke="green" stroke-width="0.12" d="M451.63,-76.64C455.7,-73.91 460.08,-71.06 464.23,-68.53 487.54,-54.3 515.03,-39.37 534.04,-29.31"/>
<polygon fill="green" stroke="green" stroke-width="0.12" points="535.92,-32.28 543.14,-24.53 532.66,-26.08 535.92,-32.28"/>
</g>
<!-- 63&#45;&gt;4 -->
<g id="edge87" class="edge">
<title>63&#45;&gt;4</title>
<path fill="none" stroke="green" stroke-width="0.72" d="M449.11,-73.37C459.32,-62.58 473.3,-47.82 484.35,-36.15"/>
<polygon fill="green" stroke="green" stroke-width="0.72" points="487.11,-38.32 491.45,-28.65 482.03,-33.5 487.11,-38.32"/>
</g>
<!-- 63&#45;&gt;5 -->
<g id="edge88" class="edge">
<title>63&#45;&gt;5</title>
<path fill="none" stroke="green" stroke-width="0.21" d="M451.15,-75.71C455.24,-73.01 459.75,-70.4 464.23,-68.53 538.28,-37.53 564.81,-57.12 641.23,-32.53 644.66,-31.42 648.2,-30.08 651.65,-28.65"/>
<polygon fill="green" stroke="green" stroke-width="0.21" points="653.22,-31.78 660.94,-24.52 650.38,-25.38 653.22,-31.78"/>
</g>
</g>
</svg>
