<?xml version="1.0" encoding="UTF-8" standalone="no"?>
<!DOCTYPE svg PUBLIC "-//W3C//DTD SVG 1.1//EN"
 "http://www.w3.org/Graphics/SVG/1.1/DTD/svg11.dtd">
<!-- Generated by graphviz version 2.44.0 (0)
 -->
<!-- Pages: 1 -->
<svg width="1669pt" height="180pt"
 viewBox="0.00 0.00 1669.49 180.02" xmlns="http://www.w3.org/2000/svg" xmlns:xlink="http://www.w3.org/1999/xlink">
<g id="graph0" class="graph" transform="scale(1 1) rotate(0) translate(4 176.02)">
<polygon fill="white" stroke="transparent" points="-4,4 -4,-176.02 1665.49,-176.02 1665.49,4 -4,4"/>
<!-- &#45;1 -->
<g id="node1" class="node">
<title>&#45;1</title>
<polygon fill="lightgray" stroke="black" points="929.29,-172.02 903.29,-172.02 903.29,-154.02 929.29,-154.02 929.29,-172.02"/>
<text text-anchor="middle" x="916.29" y="-160.82" font-family="Times-Roman" font-size="9.00">&#45;1</text>
</g>
<!-- 0 -->
<g id="node5" class="node">
<title>0</title>
<ellipse fill="lightblue" stroke="black" cx="926.29" cy="-16.26" rx="16.03" ry="16.03"/>
<text text-anchor="middle" x="926.29" y="-14.06" font-family="Times-Roman" font-size="9.00">0</text>
</g>
<!-- &#45;1&#45;&gt;0 -->
<g id="edge109" class="edge">
<title>&#45;1&#45;&gt;0</title>
<path fill="none" stroke="red" stroke-width="0.28" d="M929.57,-160.58C986.64,-154.29 1208.63,-129.2 1218.29,-118.02 1232.68,-101.39 1232.74,-85.11 1218.29,-68.53 1179.98,-24.54 1014.16,-49.28 958.29,-32.53 955.42,-31.67 952.48,-30.58 949.6,-29.38"/>
<polygon fill="red" stroke="red" stroke-width="0.28" points="950.8,-26.08 940.25,-25.07 947.87,-32.44 950.8,-26.08"/>
</g>
<!-- 1 -->
<g id="node6" class="node">
<title>1</title>
<ellipse fill="lightblue" stroke="black" cx="824.29" cy="-16.26" rx="16.03" ry="16.03"/>
<text text-anchor="middle" x="824.29" y="-14.06" font-family="Times-Roman" font-size="9.00">1</text>
</g>
<!-- &#45;1&#45;&gt;1 -->
<g id="edge110" class="edge">
<title>&#45;1&#45;&gt;1</title>
<path fill="none" stroke="green" stroke-width="0.33" d="M902.93,-159.49C893.99,-157.83 881.96,-155.68 871.29,-154.02 811.26,-144.71 640.32,-163.72 600.29,-118.02 585.8,-101.48 586.2,-85.42 600.29,-68.53 657.6,0.14 714.44,-63.65 798.29,-32.53 799.53,-32.07 800.78,-31.55 802.03,-30.99"/>
<polygon fill="green" stroke="green" stroke-width="0.33" points="804.03,-33.89 811.24,-26.13 800.77,-27.7 804.03,-33.89"/>
</g>
<!-- 2 -->
<g id="node7" class="node">
<title>2</title>
<ellipse fill="lightblue" stroke="black" cx="1042.29" cy="-16.26" rx="16.03" ry="16.03"/>
<text text-anchor="middle" x="1042.29" y="-14.06" font-family="Times-Roman" font-size="9.00">2</text>
</g>
<!-- &#45;1&#45;&gt;2 -->
<g id="edge111" class="edge">
<title>&#45;1&#45;&gt;2</title>
<path fill="none" stroke="green" stroke-width="0.46" d="M929.53,-160.55C945.04,-158.85 971.51,-156.04 994.29,-154.02 1048.12,-149.27 1442.52,-157.62 1479.29,-118.02 1494.26,-101.9 1494.15,-84.75 1479.29,-68.53 1417.36,-0.93 1155.63,-60.42 1068.29,-32.53 1067.03,-32.12 1065.76,-31.65 1064.5,-31.13"/>
<polygon fill="green" stroke="green" stroke-width="0.46" points="1065.75,-27.83 1055.25,-26.39 1062.55,-34.06 1065.75,-27.83"/>
</g>
<!-- 3 -->
<g id="node8" class="node">
<title>3</title>
<ellipse fill="lightblue" stroke="black" cx="722.29" cy="-16.26" rx="16.03" ry="16.03"/>
<text text-anchor="middle" x="722.29" y="-14.06" font-family="Times-Roman" font-size="9.00">3</text>
</g>
<!-- &#45;1&#45;&gt;3 -->
<g id="edge112" class="edge">
<title>&#45;1&#45;&gt;3</title>
<path fill="none" stroke="green" stroke-width="0.15" d="M902.93,-159.45C894,-157.77 881.97,-155.61 871.29,-154.02 805.1,-144.16 616.7,-168.1 572.29,-118.02 557.7,-101.57 559.5,-86.42 572.29,-68.53 600.31,-29.34 660.15,-19.77 695.19,-17.64"/>
<polygon fill="green" stroke="green" stroke-width="0.15" points="695.79,-21.12 705.62,-17.19 695.48,-14.13 695.79,-21.12"/>
</g>
<!-- 4 -->
<g id="node9" class="node">
<title>4</title>
<ellipse fill="lightblue" stroke="black" cx="1093.29" cy="-16.26" rx="16.03" ry="16.03"/>
<text text-anchor="middle" x="1093.29" y="-14.06" font-family="Times-Roman" font-size="9.00">4</text>
</g>
<!-- &#45;1&#45;&gt;4 -->
<g id="edge113" class="edge">
<title>&#45;1&#45;&gt;4</title>
<path fill="none" stroke="green" stroke-width="0.16" d="M929.53,-160.54C945.04,-158.83 971.51,-156.01 994.29,-154.02 1050.22,-149.16 1460.03,-159.11 1498.29,-118.02 1513.28,-101.92 1512.84,-85.03 1498.29,-68.53 1473.15,-40 1205.58,-23.28 1119.68,-18.61"/>
<polygon fill="green" stroke="green" stroke-width="0.16" points="1119.64,-15.11 1109.46,-18.07 1119.26,-22.1 1119.64,-15.11"/>
</g>
<!-- 5 -->
<g id="node10" class="node">
<title>5</title>
<ellipse fill="lightblue" stroke="black" cx="773.29" cy="-16.26" rx="16.03" ry="16.03"/>
<text text-anchor="middle" x="773.29" y="-14.06" font-family="Times-Roman" font-size="9.00">5</text>
</g>
<!-- &#45;1&#45;&gt;5 -->
<g id="edge114" class="edge">
<title>&#45;1&#45;&gt;5</title>
<path fill="none" stroke="red" stroke-width="0.37" d="M902.93,-159.47C893.99,-157.8 881.96,-155.65 871.29,-154.02 808.18,-144.43 628.51,-165.91 586.29,-118.02 571.74,-101.52 572.54,-85.7 586.29,-68.53 632.13,-11.3 679.08,-59.41 747.29,-32.53 748.52,-32.04 749.77,-31.5 751.01,-30.93"/>
<polygon fill="red" stroke="red" stroke-width="0.37" points="753.03,-33.81 760.2,-26.02 749.73,-27.64 753.03,-33.81"/>
</g>
<!-- 6 -->
<g id="node11" class="node">
<title>6</title>
<ellipse fill="lightblue" stroke="black" cx="983.29" cy="-16.26" rx="16.03" ry="16.03"/>
<text text-anchor="middle" x="983.29" y="-14.06" font-family="Times-Roman" font-size="9.00">6</text>
</g>
<!-- &#45;1&#45;&gt;6 -->
<g id="edge115" class="edge">
<title>&#45;1&#45;&gt;6</title>
<path fill="none" stroke="red" stroke-width="0.19" d="M929.54,-160.64C945.06,-159.03 971.54,-156.3 994.29,-154.02 1035.5,-149.91 1337.46,-148.69 1365.29,-118.02 1380.08,-101.73 1380.03,-84.86 1365.29,-68.53 1313.22,-10.79 1092.37,-52.7 1017.29,-32.53 1013.81,-31.59 1010.24,-30.34 1006.77,-28.96"/>
<polygon fill="red" stroke="red" stroke-width="0.19" points="1008.04,-25.69 997.48,-24.85 1005.21,-32.09 1008.04,-25.69"/>
</g>
<!-- 7 -->
<g id="node12" class="node">
<title>7</title>
<ellipse fill="lightblue" stroke="black" cx="875.29" cy="-16.26" rx="16.03" ry="16.03"/>
<text text-anchor="middle" x="875.29" y="-14.06" font-family="Times-Roman" font-size="9.00">7</text>
</g>
<!-- &#45;1&#45;&gt;7 -->
<g id="edge116" class="edge">
<title>&#45;1&#45;&gt;7</title>
<path fill="none" stroke="green" stroke-width="0.64" d="M902.92,-159.52C893.98,-157.87 881.95,-155.72 871.29,-154.02 814.34,-144.98 652.14,-161.54 614.29,-118.02 599.86,-101.42 599.96,-85.22 614.29,-68.53 648.7,-28.44 799.51,-50.22 849.29,-32.53 850.54,-32.08 851.8,-31.58 853.05,-31.03"/>
<polygon fill="green" stroke="green" stroke-width="0.64" points="855.03,-33.94 862.27,-26.2 851.79,-27.74 855.03,-33.94"/>
</g>
<!-- 358 -->
<g id="node13" class="node">
<title>358</title>
<ellipse fill="white" stroke="black" cx="916.29" cy="-93.28" rx="25" ry="25"/>
<text text-anchor="middle" x="916.29" y="-91.08" font-family="Times-Roman" font-size="9.00">358</text>
</g>
<!-- &#45;1&#45;&gt;358 -->
<g id="edge1" class="edge">
<title>&#45;1&#45;&gt;358</title>
<path fill="none" stroke="green" stroke-width="0.45" d="M916.29,-153.99C916.29,-147.55 916.29,-138.05 916.29,-128.52"/>
<polygon fill="green" stroke="green" stroke-width="0.45" points="919.79,-128.3 916.29,-118.3 912.79,-128.3 919.79,-128.3"/>
</g>
<!-- 359 -->
<g id="node14" class="node">
<title>359</title>
<ellipse fill="white" stroke="black" cx="983.29" cy="-93.28" rx="25" ry="25"/>
<text text-anchor="middle" x="983.29" y="-91.08" font-family="Times-Roman" font-size="9.00">359</text>
</g>
<!-- &#45;1&#45;&gt;359 -->
<g id="edge2" class="edge">
<title>&#45;1&#45;&gt;359</title>
<path fill="none" stroke="red" stroke-width="0.11" d="M924.24,-153.99C932.8,-145.34 946.82,-131.15 959.06,-118.78"/>
<polygon fill="red" stroke="red" stroke-width="0.11" points="961.84,-120.95 966.38,-111.38 956.86,-116.02 961.84,-120.95"/>
</g>
<!-- 360 -->
<g id="node15" class="node">
<title>360</title>
<ellipse fill="white" stroke="black" cx="1050.29" cy="-93.28" rx="25" ry="25"/>
<text text-anchor="middle" x="1050.29" y="-91.08" font-family="Times-Roman" font-size="9.00">360</text>
</g>
<!-- &#45;1&#45;&gt;360 -->
<g id="edge3" class="edge">
<title>&#45;1&#45;&gt;360</title>
<path fill="none" stroke="red" stroke-width="0.12" d="M929.47,-157.32C949.17,-150.05 987.2,-135.15 1017.29,-118.02 1019.04,-117.03 1020.81,-115.96 1022.57,-114.85"/>
<polygon fill="red" stroke="red" stroke-width="0.12" points="1024.85,-117.53 1031.21,-109.05 1020.95,-111.72 1024.85,-117.53"/>
</g>
<!-- 361 -->
<g id="node16" class="node">
<title>361</title>
<ellipse fill="white" stroke="black" cx="1117.29" cy="-93.28" rx="25" ry="25"/>
<text text-anchor="middle" x="1117.29" y="-91.08" font-family="Times-Roman" font-size="9.00">361</text>
</g>
<!-- &#45;1&#45;&gt;361 -->
<g id="edge4" class="edge">
<title>&#45;1&#45;&gt;361</title>
<path fill="none" stroke="green" stroke-width="0.28" d="M929.5,-160.25C958.6,-155.99 1030.01,-143.58 1084.29,-118.02 1086.11,-117.17 1087.94,-116.21 1089.74,-115.18"/>
<polygon fill="green" stroke="green" stroke-width="0.28" points="1091.94,-117.93 1098.49,-109.6 1088.18,-112.02 1091.94,-117.93"/>
</g>
<!-- 362 -->
<g id="node17" class="node">
<title>362</title>
<ellipse fill="white" stroke="black" cx="1184.29" cy="-93.28" rx="25" ry="25"/>
<text text-anchor="middle" x="1184.29" y="-91.08" font-family="Times-Roman" font-size="9.00">362</text>
</g>
<!-- &#45;1&#45;&gt;362 -->
<g id="edge5" class="edge">
<title>&#45;1&#45;&gt;362</title>
<path fill="none" stroke="green" stroke-width="0.29" d="M929.59,-160.31C973.04,-154.59 1110.37,-135.54 1151.29,-118.02 1153.14,-117.23 1154.99,-116.32 1156.81,-115.33"/>
<polygon fill="green" stroke="green" stroke-width="0.29" points="1158.96,-118.11 1165.6,-109.86 1155.27,-112.17 1158.96,-118.11"/>
</g>
<!-- 363 -->
<g id="node18" class="node">
<title>363</title>
<ellipse fill="white" stroke="black" cx="648.29" cy="-93.28" rx="25" ry="25"/>
<text text-anchor="middle" x="648.29" y="-91.08" font-family="Times-Roman" font-size="9.00">363</text>
</g>
<!-- &#45;1&#45;&gt;363 -->
<g id="edge6" class="edge">
<title>&#45;1&#45;&gt;363</title>
<path fill="none" stroke="green" stroke-width="0.12" d="M902.98,-159.61C854.01,-150.73 686.5,-120.25 681.29,-118.02 679.44,-117.23 677.6,-116.32 675.77,-115.33"/>
<polygon fill="green" stroke="green" stroke-width="0.12" points="677.32,-112.17 666.98,-109.86 673.62,-118.11 677.32,-112.17"/>
</g>
<!-- 364 -->
<g id="node19" class="node">
<title>364</title>
<ellipse fill="white" stroke="black" cx="715.29" cy="-93.28" rx="25" ry="25"/>
<text text-anchor="middle" x="715.29" y="-91.08" font-family="Times-Roman" font-size="9.00">364</text>
</g>
<!-- &#45;1&#45;&gt;364 -->
<g id="edge7" class="edge">
<title>&#45;1&#45;&gt;364</title>
<path fill="none" stroke="green" stroke-width="0.19" d="M903.29,-159.27C868.94,-151.88 776.53,-131.32 748.29,-118.02 746.47,-117.17 744.65,-116.21 742.84,-115.18"/>
<polygon fill="green" stroke="green" stroke-width="0.19" points="744.41,-112.02 734.09,-109.6 740.65,-117.93 744.41,-112.02"/>
</g>
<!-- 366 -->
<g id="node20" class="node">
<title>366</title>
<ellipse fill="white" stroke="black" cx="782.29" cy="-93.28" rx="25" ry="25"/>
<text text-anchor="middle" x="782.29" y="-91.08" font-family="Times-Roman" font-size="9.00">366</text>
</g>
<!-- &#45;1&#45;&gt;366 -->
<g id="edge8" class="edge">
<title>&#45;1&#45;&gt;366</title>
<path fill="none" stroke="red" stroke-width="0.68" d="M903.11,-157.32C883.41,-150.05 845.38,-135.15 815.29,-118.02 813.54,-117.03 811.78,-115.96 810.01,-114.85"/>
<polygon fill="red" stroke="red" stroke-width="0.68" points="811.63,-111.72 801.38,-109.05 807.73,-117.53 811.63,-111.72"/>
</g>
<!-- 367 -->
<g id="node21" class="node">
<title>367</title>
<ellipse fill="white" stroke="black" cx="849.29" cy="-93.28" rx="25" ry="25"/>
<text text-anchor="middle" x="849.29" y="-91.08" font-family="Times-Roman" font-size="9.00">367</text>
</g>
<!-- &#45;1&#45;&gt;367 -->
<g id="edge9" class="edge">
<title>&#45;1&#45;&gt;367</title>
<path fill="none" stroke="red" stroke-width="0.75" d="M908.34,-153.99C899.79,-145.34 885.76,-131.15 873.53,-118.78"/>
<polygon fill="red" stroke="red" stroke-width="0.75" points="875.72,-116.02 866.2,-111.38 870.75,-120.95 875.72,-116.02"/>
</g>
<!-- &#45;2 -->
<g id="node2" class="node">
<title>&#45;2</title>
<polygon fill="lightgray" stroke="black" points="1029.29,-172.02 1003.29,-172.02 1003.29,-154.02 1029.29,-154.02 1029.29,-172.02"/>
<text text-anchor="middle" x="1016.29" y="-160.82" font-family="Times-Roman" font-size="9.00">&#45;2</text>
</g>
<!-- &#45;2&#45;&gt;0 -->
<g id="edge117" class="edge">
<title>&#45;2&#45;&gt;0</title>
<path fill="none" stroke="green" stroke-width="0.52" d="M1029.35,-161.95C1093.05,-161.18 1365.07,-152.99 1289.29,-68.53 1239.88,-13.45 1029.47,-52.74 958.29,-32.53 955.41,-31.71 952.46,-30.65 949.58,-29.47"/>
<polygon fill="green" stroke="green" stroke-width="0.52" points="950.77,-26.16 940.23,-25.17 947.85,-32.52 950.77,-26.16"/>
</g>
<!-- &#45;2&#45;&gt;2 -->
<g id="edge118" class="edge">
<title>&#45;2&#45;&gt;2</title>
<path fill="none" stroke="red" stroke-width="0.43" d="M1029.54,-162.13C1115.22,-162.68 1588.85,-163.61 1631.29,-118.02 1646.28,-101.92 1646.34,-84.57 1631.29,-68.53 1588.41,-22.81 1128.22,-50.89 1068.29,-32.53 1067.03,-32.14 1065.75,-31.68 1064.49,-31.16"/>
<polygon fill="red" stroke="red" stroke-width="0.43" points="1065.73,-27.87 1055.23,-26.45 1062.56,-34.1 1065.73,-27.87"/>
</g>
<!-- &#45;2&#45;&gt;3 -->
<g id="edge119" class="edge">
<title>&#45;2&#45;&gt;3</title>
<path fill="none" stroke="red" stroke-width="0.23" d="M1002.95,-160.64C931.9,-153.29 601.16,-118.99 600.29,-118.02 585.58,-101.67 588.12,-86.85 600.29,-68.53 621.49,-36.63 666.81,-24.54 695.85,-19.98"/>
<polygon fill="red" stroke="red" stroke-width="0.23" points="696.67,-23.4 706.1,-18.58 695.72,-16.47 696.67,-23.4"/>
</g>
<!-- &#45;2&#45;&gt;4 -->
<g id="edge120" class="edge">
<title>&#45;2&#45;&gt;4</title>
<path fill="none" stroke="red" stroke-width="0.59" d="M1029.38,-162.16C1116.17,-162.91 1606.4,-165.07 1650.29,-118.02 1665.3,-101.94 1665.12,-84.78 1650.29,-68.53 1614.14,-28.9 1225.54,-19.49 1119.75,-17.66"/>
<polygon fill="red" stroke="red" stroke-width="0.59" points="1119.67,-14.15 1109.61,-17.49 1119.55,-21.15 1119.67,-14.15"/>
</g>
<!-- &#45;2&#45;&gt;5 -->
<g id="edge121" class="edge">
<title>&#45;2&#45;&gt;5</title>
<path fill="none" stroke="red" stroke-width="0.3" d="M1002.98,-160.63C933.53,-153.33 615.96,-119.89 614.29,-118.02 599.61,-101.64 600.92,-86 614.29,-68.53 651.51,-19.9 690.83,-56.24 747.29,-32.53 748.51,-32.01 749.75,-31.45 750.98,-30.86"/>
<polygon fill="red" stroke="red" stroke-width="0.3" points="753.02,-33.73 760.15,-25.89 749.69,-27.58 753.02,-33.73"/>
</g>
<!-- &#45;2&#45;&gt;6 -->
<g id="edge122" class="edge">
<title>&#45;2&#45;&gt;6</title>
<path fill="none" stroke="green" stroke-width="0.31" d="M1029.4,-161.99C1108.36,-161.65 1518.51,-157.94 1555.29,-118.02 1570.2,-101.85 1570.32,-84.59 1555.29,-68.53 1514.37,-24.77 1075.42,-47.02 1017.29,-32.53 1013.8,-31.66 1010.21,-30.44 1006.74,-29.07"/>
<polygon fill="green" stroke="green" stroke-width="0.31" points="1008.01,-25.81 997.45,-24.97 1005.18,-32.21 1008.01,-25.81"/>
</g>
<!-- &#45;2&#45;&gt;7 -->
<g id="edge123" class="edge">
<title>&#45;2&#45;&gt;7</title>
<path fill="none" stroke="red" stroke-width="0.14" d="M1029.44,-161.24C1070.4,-158.48 1194.31,-147.79 1218.29,-118.02 1232.09,-100.89 1232.94,-84.94 1218.29,-68.53 1171.07,-15.64 968.55,-54.96 901.29,-32.53 900.04,-32.11 898.77,-31.62 897.52,-31.09"/>
<polygon fill="red" stroke="red" stroke-width="0.14" points="898.77,-27.79 888.27,-26.31 895.55,-34.01 898.77,-27.79"/>
</g>
<!-- &#45;2&#45;&gt;358 -->
<g id="edge10" class="edge">
<title>&#45;2&#45;&gt;358</title>
<path fill="none" stroke="red" stroke-width="0.14" d="M1003.34,-153.75C989.76,-145.03 967.87,-130.8 949.29,-118.02 947.68,-116.91 946.03,-115.77 944.36,-114.6"/>
<polygon fill="red" stroke="red" stroke-width="0.14" points="946.27,-111.66 936.09,-108.73 942.22,-117.37 946.27,-111.66"/>
</g>
<!-- &#45;2&#45;&gt;359 -->
<g id="edge11" class="edge">
<title>&#45;2&#45;&gt;359</title>
<path fill="none" stroke="red" stroke-width="0.28" d="M1012.38,-153.99C1008.86,-146.78 1003.48,-135.72 998.29,-125.07"/>
<polygon fill="red" stroke="red" stroke-width="0.28" points="1001.36,-123.38 993.84,-115.93 995.07,-126.45 1001.36,-123.38"/>
</g>
<!-- &#45;2&#45;&gt;360 -->
<g id="edge12" class="edge">
<title>&#45;2&#45;&gt;360</title>
<path fill="none" stroke="red" stroke-width="0.2" d="M1020.33,-153.99C1023.97,-146.72 1029.58,-135.55 1034.96,-124.83"/>
<polygon fill="red" stroke="red" stroke-width="0.2" points="1038.22,-126.14 1039.57,-115.63 1031.96,-123 1038.22,-126.14"/>
</g>
<!-- &#45;2&#45;&gt;361 -->
<g id="edge13" class="edge">
<title>&#45;2&#45;&gt;361</title>
<path fill="none" stroke="green" stroke-width="0.35" d="M1029.2,-153.94C1042.97,-145.25 1065.36,-130.95 1084.29,-118.02 1085.91,-116.92 1087.56,-115.78 1089.23,-114.61"/>
<polygon fill="green" stroke="green" stroke-width="0.35" points="1091.37,-117.39 1097.51,-108.75 1087.33,-111.67 1091.37,-117.39"/>
</g>
<!-- &#45;2&#45;&gt;362 -->
<g id="edge14" class="edge">
<title>&#45;2&#45;&gt;362</title>
<path fill="none" stroke="green" stroke-width="0.4" d="M1029.47,-159.16C1054.25,-153.48 1109.08,-139.44 1151.29,-118.02 1153.09,-117.11 1154.89,-116.11 1156.68,-115.05"/>
<polygon fill="green" stroke="green" stroke-width="0.4" points="1158.91,-117.77 1165.39,-109.39 1155.09,-111.91 1158.91,-117.77"/>
</g>
<!-- &#45;2&#45;&gt;363 -->
<g id="edge15" class="edge">
<title>&#45;2&#45;&gt;363</title>
<path fill="none" stroke="green" stroke-width="0.42" d="M1002.94,-160.66C944.37,-154.63 711.76,-130.1 681.29,-118.02 679.42,-117.28 677.56,-116.41 675.72,-115.45"/>
<polygon fill="green" stroke="green" stroke-width="0.42" points="677.25,-112.28 666.9,-110.06 673.6,-118.26 677.25,-112.28"/>
</g>
<!-- &#45;2&#45;&gt;364 -->
<g id="edge16" class="edge">
<title>&#45;2&#45;&gt;364</title>
<path fill="none" stroke="red" stroke-width="0.4" d="M1003.14,-160.67C955.99,-155.7 795.65,-137.67 748.29,-118.02 746.43,-117.25 744.58,-116.36 742.75,-115.38"/>
<polygon fill="red" stroke="red" stroke-width="0.4" points="744.29,-112.22 733.94,-109.94 740.61,-118.17 744.29,-112.22"/>
</g>
<!-- &#45;2&#45;&gt;366 -->
<g id="edge17" class="edge">
<title>&#45;2&#45;&gt;366</title>
<path fill="none" stroke="green" stroke-width="0.62" d="M1003.02,-160.99C969.96,-158.03 881.84,-147.72 815.29,-118.02 813.45,-117.2 811.62,-116.27 809.8,-115.26"/>
<polygon fill="green" stroke="green" stroke-width="0.62" points="811.36,-112.11 801.03,-109.75 807.63,-118.03 811.36,-112.11"/>
</g>
<!-- &#45;2&#45;&gt;367 -->
<g id="edge18" class="edge">
<title>&#45;2&#45;&gt;367</title>
<path fill="none" stroke="green" stroke-width="0.39" d="M1003.21,-159.15C978.62,-153.43 924.2,-139.34 882.29,-118.02 880.5,-117.11 878.7,-116.11 876.91,-115.05"/>
<polygon fill="green" stroke="green" stroke-width="0.39" points="878.49,-111.9 868.2,-109.38 874.67,-117.77 878.49,-111.9"/>
</g>
<!-- &#45;3 -->
<g id="node3" class="node">
<title>&#45;3</title>
<polygon fill="lightgray" stroke="black" points="795.29,-172.02 769.29,-172.02 769.29,-154.02 795.29,-154.02 795.29,-172.02"/>
<text text-anchor="middle" x="782.29" y="-160.82" font-family="Times-Roman" font-size="9.00">&#45;3</text>
</g>
<!-- &#45;3&#45;&gt;0 -->
<g id="edge124" class="edge">
<title>&#45;3&#45;&gt;0</title>
<path fill="none" stroke="green" stroke-width="0.22" d="M769.09,-160.9C730.87,-157.33 621.45,-144.91 600.29,-118.02 586.69,-100.74 585.69,-84.98 600.29,-68.53 644.85,-18.3 836.66,-53.98 900.29,-32.53 901.55,-32.1 902.81,-31.61 904.06,-31.08"/>
<polygon fill="green" stroke="green" stroke-width="0.22" points="906.03,-34 913.3,-26.3 902.81,-27.78 906.03,-34"/>
</g>
<!-- &#45;3&#45;&gt;1 -->
<g id="edge125" class="edge">
<title>&#45;3&#45;&gt;1</title>
<path fill="none" stroke="green" stroke-width="0.42" d="M768.91,-161.85C694.4,-160.76 332.8,-153.63 300.29,-118.02 285.46,-101.78 285.31,-84.63 300.29,-68.53 338.08,-27.91 745.32,-49 798.29,-32.53 799.56,-32.13 800.83,-31.67 802.09,-31.15"/>
<polygon fill="green" stroke="green" stroke-width="0.42" points="804.03,-34.09 811.35,-26.43 800.85,-27.85 804.03,-34.09"/>
</g>
<!-- &#45;3&#45;&gt;2 -->
<g id="edge126" class="edge">
<title>&#45;3&#45;&gt;2</title>
<path fill="none" stroke="green" stroke-width="0.19" d="M795.64,-159.35C804.57,-157.63 816.6,-155.46 827.29,-154.02 870.53,-148.2 1188.89,-150.26 1218.29,-118.02 1233.12,-101.77 1231.91,-85.8 1218.29,-68.53 1175.84,-14.69 1131.88,-58.16 1068.29,-32.53 1067.06,-32.03 1065.82,-31.48 1064.59,-30.9"/>
<polygon fill="green" stroke="green" stroke-width="0.19" points="1065.87,-27.62 1055.4,-25.97 1062.56,-33.78 1065.87,-27.62"/>
</g>
<!-- &#45;3&#45;&gt;3 -->
<g id="edge127" class="edge">
<title>&#45;3&#45;&gt;3</title>
<path fill="none" stroke="green" stroke-width="0.4" d="M769.09,-161.78C669.43,-159.88 38.42,-146.75 11.29,-118.02 -3.81,-102.03 -3.69,-84.63 11.29,-68.53 58.76,-17.52 572.93,-16.58 695.96,-17.1"/>
<polygon fill="green" stroke="green" stroke-width="0.4" points="695.99,-20.6 706.01,-17.15 696.02,-13.6 695.99,-20.6"/>
</g>
<!-- &#45;3&#45;&gt;4 -->
<g id="edge128" class="edge">
<title>&#45;3&#45;&gt;4</title>
<path fill="none" stroke="green" stroke-width="0.1" d="M795.63,-159.33C804.56,-157.61 816.59,-155.44 827.29,-154.02 872.63,-148.02 1206.4,-151.75 1237.29,-118.02 1252.15,-101.8 1249.97,-86.5 1237.29,-68.53 1210.65,-30.76 1153.62,-20.66 1119.87,-18.05"/>
<polygon fill="green" stroke="green" stroke-width="0.1" points="1119.99,-14.55 1109.8,-17.45 1119.57,-21.54 1119.99,-14.55"/>
</g>
<!-- &#45;3&#45;&gt;5 -->
<g id="edge129" class="edge">
<title>&#45;3&#45;&gt;5</title>
<path fill="none" stroke="green" stroke-width="0.32" d="M769.01,-162.19C679.89,-163.2 170.88,-166.76 125.29,-118.02 110.27,-101.96 110.19,-84.53 125.29,-68.53 172.81,-18.18 681.04,-52.61 747.29,-32.53 748.56,-32.14 749.83,-31.68 751.09,-31.17"/>
<polygon fill="green" stroke="green" stroke-width="0.32" points="753.03,-34.12 760.36,-26.47 749.86,-27.87 753.03,-34.12"/>
</g>
<!-- &#45;3&#45;&gt;6 -->
<g id="edge130" class="edge">
<title>&#45;3&#45;&gt;6</title>
<path fill="none" stroke="red" stroke-width="0.12" d="M769.07,-160.61C732.86,-156.44 633.5,-142.91 614.29,-118.02 600.85,-100.61 599.59,-84.89 614.29,-68.53 664.64,-12.51 878.82,-53.03 951.29,-32.53 954.18,-31.71 957.13,-30.65 960.01,-29.47"/>
<polygon fill="red" stroke="red" stroke-width="0.12" points="961.73,-32.53 969.36,-25.17 958.81,-26.17 961.73,-32.53"/>
</g>
<!-- &#45;3&#45;&gt;7 -->
<g id="edge131" class="edge">
<title>&#45;3&#45;&gt;7</title>
<path fill="none" stroke="green" stroke-width="0.22" d="M769.11,-161.28C710.28,-157.8 473.61,-142.38 452.29,-118.02 437.8,-101.47 437.46,-84.77 452.29,-68.53 512.04,-3.12 764.95,-59.6 849.29,-32.53 850.55,-32.12 851.82,-31.65 853.08,-31.12"/>
<polygon fill="green" stroke="green" stroke-width="0.22" points="855.03,-34.05 862.33,-26.38 851.84,-27.83 855.03,-34.05"/>
</g>
<!-- &#45;3&#45;&gt;358 -->
<g id="edge19" class="edge">
<title>&#45;3&#45;&gt;358</title>
<path fill="none" stroke="green" stroke-width="0.58" d="M795.47,-157.32C815.17,-150.05 853.2,-135.15 883.29,-118.02 885.04,-117.03 886.81,-115.96 888.57,-114.85"/>
<polygon fill="green" stroke="green" stroke-width="0.58" points="890.85,-117.53 897.21,-109.05 886.95,-111.72 890.85,-117.53"/>
</g>
<!-- &#45;3&#45;&gt;359 -->
<g id="edge20" class="edge">
<title>&#45;3&#45;&gt;359</title>
<path fill="none" stroke="green" stroke-width="0.26" d="M795.3,-159.27C829.64,-151.88 922.06,-131.32 950.29,-118.02 952.11,-117.17 953.94,-116.21 955.74,-115.18"/>
<polygon fill="green" stroke="green" stroke-width="0.26" points="957.94,-117.93 964.49,-109.6 954.18,-112.02 957.94,-117.93"/>
</g>
<!-- &#45;3&#45;&gt;360 -->
<g id="edge21" class="edge">
<title>&#45;3&#45;&gt;360</title>
<path fill="none" stroke="green" stroke-width="0.37" d="M795.61,-159.61C844.57,-150.73 1012.08,-120.25 1017.29,-118.02 1019.14,-117.23 1020.99,-116.32 1022.81,-115.33"/>
<polygon fill="green" stroke="green" stroke-width="0.37" points="1024.96,-118.11 1031.6,-109.86 1021.27,-112.17 1024.96,-118.11"/>
</g>
<!-- &#45;3&#45;&gt;361 -->
<g id="edge22" class="edge">
<title>&#45;3&#45;&gt;361</title>
<path fill="none" stroke="green" stroke-width="0.54" stroke-dasharray="1,5" d="M795.66,-159.52C804.6,-157.87 816.63,-155.72 827.29,-154.02 941.2,-135.93 977.25,-160.96 1084.29,-118.02 1086.16,-117.28 1088.02,-116.4 1089.85,-115.43"/>
<polygon fill="green" stroke="green" stroke-width="0.54" points="1091.98,-118.23 1098.67,-110.03 1088.32,-112.27 1091.98,-118.23"/>
</g>
<!-- &#45;3&#45;&gt;362 -->
<g id="edge23" class="edge">
<title>&#45;3&#45;&gt;362</title>
<path fill="none" stroke="red" stroke-width="0.43" d="M795.64,-159.41C804.58,-157.73 816.61,-155.57 827.29,-154.02 970.69,-133.33 1016.07,-170.04 1151.29,-118.02 1153.17,-117.3 1155.04,-116.45 1156.88,-115.5"/>
<polygon fill="red" stroke="red" stroke-width="0.43" points="1158.98,-118.31 1165.72,-110.13 1155.35,-112.33 1158.98,-118.31"/>
</g>
<!-- &#45;3&#45;&gt;363 -->
<g id="edge24" class="edge">
<title>&#45;3&#45;&gt;363</title>
<path fill="none" stroke="green" stroke-width="0.33" d="M769.11,-157.32C749.41,-150.05 711.38,-135.15 681.29,-118.02 679.54,-117.03 677.78,-115.96 676.01,-114.85"/>
<polygon fill="green" stroke="green" stroke-width="0.33" points="677.63,-111.72 667.38,-109.05 673.73,-117.53 677.63,-111.72"/>
</g>
<!-- &#45;3&#45;&gt;364 -->
<g id="edge25" class="edge">
<title>&#45;3&#45;&gt;364</title>
<path fill="none" stroke="red" stroke-width="0.1" d="M774.34,-153.99C765.79,-145.34 751.76,-131.15 739.53,-118.78"/>
<polygon fill="red" stroke="red" stroke-width="0.1" points="741.72,-116.02 732.2,-111.38 736.75,-120.95 741.72,-116.02"/>
</g>
<!-- &#45;3&#45;&gt;366 -->
<g id="edge26" class="edge">
<title>&#45;3&#45;&gt;366</title>
<path fill="none" stroke="red" stroke-width="0.42" d="M782.29,-153.99C782.29,-147.55 782.29,-138.05 782.29,-128.52"/>
<polygon fill="red" stroke="red" stroke-width="0.42" points="785.79,-128.3 782.29,-118.3 778.79,-128.3 785.79,-128.3"/>
</g>
<!-- &#45;3&#45;&gt;367 -->
<g id="edge27" class="edge">
<title>&#45;3&#45;&gt;367</title>
<path fill="none" stroke="green" stroke-width="0.27" d="M790.24,-153.99C798.8,-145.34 812.82,-131.15 825.06,-118.78"/>
<polygon fill="green" stroke="green" stroke-width="0.27" points="827.84,-120.95 832.38,-111.38 822.86,-116.02 827.84,-120.95"/>
</g>
<!-- &#45;4 -->
<g id="node4" class="node">
<title>&#45;4</title>
<polygon fill="lightgray" stroke="black" points="862.29,-172.02 836.29,-172.02 836.29,-154.02 862.29,-154.02 862.29,-172.02"/>
<text text-anchor="middle" x="849.29" y="-160.82" font-family="Times-Roman" font-size="9.00">&#45;4</text>
</g>
<!-- &#45;4&#45;&gt;0 -->
<g id="edge132" class="edge">
<title>&#45;4&#45;&gt;0</title>
<path fill="none" stroke="red" stroke-width="0.25" d="M836.1,-159.67C786.8,-150.86 616.11,-120.21 614.29,-118.02 600.24,-101.1 599.74,-85.03 614.29,-68.53 656.66,-20.49 839.65,-53.16 900.29,-32.53 901.55,-32.1 902.81,-31.61 904.06,-31.07"/>
<polygon fill="red" stroke="red" stroke-width="0.25" points="906.03,-33.99 913.3,-26.28 902.81,-27.77 906.03,-33.99"/>
</g>
<!-- &#45;4&#45;&gt;1 -->
<g id="edge133" class="edge">
<title>&#45;4&#45;&gt;1</title>
<path fill="none" stroke="green" stroke-width="0.44" d="M835.96,-159.28C827.03,-157.54 815,-155.37 804.29,-154.02 750.23,-147.25 352.37,-157.94 315.29,-118.02 300.32,-101.91 300.33,-84.65 315.29,-68.53 351.9,-29.08 746.92,-48.57 798.29,-32.53 799.56,-32.13 800.83,-31.67 802.09,-31.15"/>
<polygon fill="green" stroke="green" stroke-width="0.44" points="804.03,-34.08 811.35,-26.42 800.85,-27.85 804.03,-34.08"/>
</g>
<!-- &#45;4&#45;&gt;2 -->
<g id="edge134" class="edge">
<title>&#45;4&#45;&gt;2</title>
<path fill="none" stroke="green" stroke-width="0.49" d="M862.64,-159.39C871.57,-157.7 883.61,-155.53 894.29,-154.02 970.18,-143.31 1186,-174.98 1237.29,-118.02 1252.01,-101.68 1251.13,-85.63 1237.29,-68.53 1188.98,-8.83 1139.88,-60.32 1068.29,-32.53 1067.06,-32.05 1065.81,-31.51 1064.57,-30.94"/>
<polygon fill="green" stroke="green" stroke-width="0.49" points="1065.84,-27.65 1055.37,-26.04 1062.55,-33.83 1065.84,-27.65"/>
</g>
<!-- &#45;4&#45;&gt;3 -->
<g id="edge135" class="edge">
<title>&#45;4&#45;&gt;3</title>
<path fill="none" stroke="red" stroke-width="0.19" d="M835.97,-159.19C827.05,-157.41 815.02,-155.23 804.29,-154.02 762.56,-149.34 78.27,-148.42 49.29,-118.02 34.11,-102.1 34.34,-84.66 49.29,-68.53 93.95,-20.34 576.78,-17.24 695.86,-17.21"/>
<polygon fill="red" stroke="red" stroke-width="0.19" points="695.93,-20.71 705.93,-17.21 695.93,-13.71 695.93,-20.71"/>
</g>
<!-- &#45;4&#45;&gt;4 -->
<g id="edge136" class="edge">
<title>&#45;4&#45;&gt;4</title>
<path fill="none" stroke="green" stroke-width="0.42" d="M862.64,-159.37C871.57,-157.67 883.6,-155.5 894.29,-154.02 934.33,-148.48 1229.16,-147.99 1256.29,-118.02 1271.06,-101.72 1269.31,-86.26 1256.29,-68.53 1224.82,-25.64 1157.48,-17.68 1119.95,-16.76"/>
<polygon fill="green" stroke="green" stroke-width="0.42" points="1119.8,-13.26 1109.77,-16.67 1119.73,-20.26 1119.8,-13.26"/>
</g>
<!-- &#45;4&#45;&gt;5 -->
<g id="edge137" class="edge">
<title>&#45;4&#45;&gt;5</title>
<path fill="none" stroke="red" stroke-width="0.52" d="M835.96,-159.28C827.03,-157.53 815,-155.36 804.29,-154.02 748.58,-147.1 338.55,-159.11 300.29,-118.02 285.3,-101.92 285.37,-84.69 300.29,-68.53 367.87,4.71 652.25,-62.51 747.29,-32.53 748.56,-32.13 749.82,-31.66 751.08,-31.14"/>
<polygon fill="red" stroke="red" stroke-width="0.52" points="753.03,-34.07 760.34,-26.41 749.84,-27.84 753.03,-34.07"/>
</g>
<!-- &#45;4&#45;&gt;6 -->
<g id="edge138" class="edge">
<title>&#45;4&#45;&gt;6</title>
<path fill="none" stroke="red" stroke-width="0.18" d="M862.64,-159.41C871.58,-157.73 883.61,-155.57 894.29,-154.02 965.99,-143.68 1169.98,-172 1218.29,-118.02 1232.96,-101.63 1232.41,-85.4 1218.29,-68.53 1160.05,1.07 1104,-59.31 1017.29,-32.53 1013.85,-31.46 1010.3,-30.14 1006.84,-28.72"/>
<polygon fill="red" stroke="red" stroke-width="0.18" points="1008.11,-25.45 997.55,-24.6 1005.27,-31.85 1008.11,-25.45"/>
</g>
<!-- &#45;4&#45;&gt;7 -->
<g id="edge139" class="edge">
<title>&#45;4&#45;&gt;7</title>
<path fill="none" stroke="red" stroke-width="0.37" d="M835.94,-159.4C827.01,-157.71 814.98,-155.54 804.29,-154.02 729.73,-143.43 517.64,-174.04 467.29,-118.02 452.59,-101.66 452.48,-84.8 467.29,-68.53 524.69,-5.47 768.15,-58.73 849.29,-32.53 850.55,-32.12 851.82,-31.64 853.08,-31.12"/>
<polygon fill="red" stroke="red" stroke-width="0.37" points="855.03,-34.05 862.33,-26.37 851.83,-27.82 855.03,-34.05"/>
</g>
<!-- &#45;4&#45;&gt;358 -->
<g id="edge28" class="edge">
<title>&#45;4&#45;&gt;358</title>
<path fill="none" stroke="red" stroke-width="0.51" d="M857.24,-153.99C865.8,-145.34 879.82,-131.15 892.06,-118.78"/>
<polygon fill="red" stroke="red" stroke-width="0.51" points="894.84,-120.95 899.38,-111.38 889.86,-116.02 894.84,-120.95"/>
</g>
<!-- &#45;4&#45;&gt;359 -->
<g id="edge29" class="edge">
<title>&#45;4&#45;&gt;359</title>
<path fill="none" stroke="red" stroke-width="0.51" d="M862.47,-157.32C882.17,-150.05 920.2,-135.15 950.29,-118.02 952.04,-117.03 953.81,-115.96 955.57,-114.85"/>
<polygon fill="red" stroke="red" stroke-width="0.51" points="957.85,-117.53 964.21,-109.05 953.95,-111.72 957.85,-117.53"/>
</g>
<!-- &#45;4&#45;&gt;360 -->
<g id="edge30" class="edge">
<title>&#45;4&#45;&gt;360</title>
<path fill="none" stroke="red" stroke-width="0.63" d="M862.3,-159.27C896.64,-151.88 989.06,-131.32 1017.29,-118.02 1019.11,-117.17 1020.94,-116.21 1022.74,-115.18"/>
<polygon fill="red" stroke="red" stroke-width="0.63" points="1024.94,-117.93 1031.49,-109.6 1021.18,-112.02 1024.94,-117.93"/>
</g>
<!-- &#45;4&#45;&gt;361 -->
<g id="edge31" class="edge">
<title>&#45;4&#45;&gt;361</title>
<path fill="none" stroke="red" stroke-width="0.23" d="M862.61,-159.61C911.57,-150.73 1079.08,-120.25 1084.29,-118.02 1086.14,-117.23 1087.99,-116.32 1089.81,-115.33"/>
<polygon fill="red" stroke="red" stroke-width="0.23" points="1091.96,-118.11 1098.6,-109.86 1088.27,-112.17 1091.96,-118.11"/>
</g>
<!-- &#45;4&#45;&gt;362 -->
<g id="edge32" class="edge">
<title>&#45;4&#45;&gt;362</title>
<path fill="none" stroke="red" stroke-width="0.17" d="M862.66,-159.52C871.6,-157.87 883.63,-155.72 894.29,-154.02 1008.2,-135.93 1044.25,-160.96 1151.29,-118.02 1153.16,-117.28 1155.02,-116.4 1156.85,-115.43"/>
<polygon fill="red" stroke="red" stroke-width="0.17" points="1158.98,-118.23 1165.67,-110.03 1155.32,-112.27 1158.98,-118.23"/>
</g>
<!-- &#45;4&#45;&gt;363 -->
<g id="edge33" class="edge">
<title>&#45;4&#45;&gt;363</title>
<path fill="none" stroke="red" stroke-width="0.18" d="M836.29,-159.27C801.94,-151.88 709.53,-131.32 681.29,-118.02 679.47,-117.17 677.65,-116.21 675.84,-115.18"/>
<polygon fill="red" stroke="red" stroke-width="0.18" points="677.41,-112.02 667.09,-109.6 673.65,-117.93 677.41,-112.02"/>
</g>
<!-- &#45;4&#45;&gt;364 -->
<g id="edge34" class="edge">
<title>&#45;4&#45;&gt;364</title>
<path fill="none" stroke="red" stroke-width="0.26" d="M836.11,-157.32C816.41,-150.05 778.38,-135.15 748.29,-118.02 746.54,-117.03 744.78,-115.96 743.01,-114.85"/>
<polygon fill="red" stroke="red" stroke-width="0.26" points="744.63,-111.72 734.38,-109.05 740.73,-117.53 744.63,-111.72"/>
</g>
<!-- &#45;4&#45;&gt;366 -->
<g id="edge35" class="edge">
<title>&#45;4&#45;&gt;366</title>
<path fill="none" stroke="green" stroke-width="0.49" d="M841.34,-153.99C832.79,-145.34 818.76,-131.15 806.53,-118.78"/>
<polygon fill="green" stroke="green" stroke-width="0.49" points="808.72,-116.02 799.2,-111.38 803.75,-120.95 808.72,-116.02"/>
</g>
<!-- &#45;4&#45;&gt;367 -->
<g id="edge36" class="edge">
<title>&#45;4&#45;&gt;367</title>
<path fill="none" stroke="green" stroke-width="0.34" d="M849.29,-153.99C849.29,-147.55 849.29,-138.05 849.29,-128.52"/>
<polygon fill="green" stroke="green" stroke-width="0.34" points="852.79,-128.3 849.29,-118.3 845.79,-128.3 852.79,-128.3"/>
</g>
<!-- 358&#45;&gt;0 -->
<g id="edge37" class="edge">
<title>358&#45;&gt;0</title>
<path fill="none" stroke="red" stroke-width="0.34" d="M919.46,-68.54C920.55,-60.33 921.78,-51.1 922.89,-42.76"/>
<polygon fill="red" stroke="red" stroke-width="0.34" points="926.37,-43.18 924.22,-32.81 919.43,-42.26 926.37,-43.18"/>
</g>
<!-- 358&#45;&gt;1 -->
<g id="edge38" class="edge">
<title>358&#45;&gt;1</title>
<path fill="none" stroke="green" stroke-width="0.28" d="M897.23,-76.73C881.86,-64.21 860.31,-46.63 844.62,-33.83"/>
<polygon fill="green" stroke="green" stroke-width="0.28" points="846.54,-30.89 836.58,-27.28 842.12,-36.31 846.54,-30.89"/>
</g>
<!-- 358&#45;&gt;2 -->
<g id="edge39" class="edge">
<title>358&#45;&gt;2</title>
<path fill="none" stroke="green" stroke-width="0.1" d="M935.92,-77.57C940.26,-74.48 944.88,-71.32 949.29,-68.53 972.38,-53.93 999.9,-39.06 1018.98,-29.12"/>
<polygon fill="green" stroke="green" stroke-width="0.1" points="1020.84,-32.09 1028.13,-24.4 1017.63,-25.87 1020.84,-32.09"/>
</g>
<!-- 358&#45;&gt;3 -->
<g id="edge40" class="edge">
<title>358&#45;&gt;3</title>
<path fill="none" stroke="green" stroke-width="0.12" d="M897.48,-76.97C893.02,-73.85 888.14,-70.82 883.29,-68.53 827.17,-41.95 805.59,-56.46 748.29,-32.53 747.07,-32.02 745.83,-31.46 744.6,-30.86"/>
<polygon fill="green" stroke="green" stroke-width="0.12" points="745.89,-27.58 735.43,-25.9 742.56,-33.74 745.89,-27.58"/>
</g>
<!-- 358&#45;&gt;4 -->
<g id="edge41" class="edge">
<title>358&#45;&gt;4</title>
<path fill="none" stroke="red" stroke-width="0.63" d="M935.16,-77.1C939.62,-73.97 944.48,-70.91 949.29,-68.53 998.42,-44.19 1017.08,-54.56 1067.29,-32.53 1068.51,-31.99 1069.73,-31.42 1070.96,-30.81"/>
<polygon fill="red" stroke="red" stroke-width="0.63" points="1073.02,-33.67 1080.11,-25.81 1069.66,-27.53 1073.02,-33.67"/>
</g>
<!-- 358&#45;&gt;5 -->
<g id="edge42" class="edge">
<title>358&#45;&gt;5</title>
<path fill="none" stroke="red" stroke-width="0.42" d="M897.22,-77.48C892.77,-74.33 887.96,-71.17 883.29,-68.53 847.93,-48.54 835.54,-50.84 799.29,-32.53 798.14,-31.94 796.96,-31.33 795.78,-30.7"/>
<polygon fill="red" stroke="red" stroke-width="0.42" points="797.3,-27.54 786.88,-25.67 793.86,-33.63 797.3,-27.54"/>
</g>
<!-- 358&#45;&gt;6 -->
<g id="edge43" class="edge">
<title>358&#45;&gt;6</title>
<path fill="none" stroke="green" stroke-width="0.11" d="M932.51,-74.12C942.61,-62.81 955.59,-48.28 965.9,-36.74"/>
<polygon fill="green" stroke="green" stroke-width="0.11" points="968.8,-38.74 972.86,-28.95 963.58,-34.07 968.8,-38.74"/>
</g>
<!-- 358&#45;&gt;7 -->
<g id="edge44" class="edge">
<title>358&#45;&gt;7</title>
<path fill="none" stroke="red" stroke-width="0.16" d="M904.65,-70.98C899.34,-61.26 893.05,-49.75 887.65,-39.88"/>
<polygon fill="red" stroke="red" stroke-width="0.16" points="890.69,-38.13 882.82,-31.03 884.54,-41.49 890.69,-38.13"/>
</g>
<!-- 359&#45;&gt;0 -->
<g id="edge45" class="edge">
<title>359&#45;&gt;0</title>
<path fill="none" stroke="red" stroke-width="0.66" d="M968.61,-72.96C960.49,-62.27 950.4,-48.98 942.1,-38.07"/>
<polygon fill="red" stroke="red" stroke-width="0.66" points="944.75,-35.76 935.91,-29.92 939.17,-40 944.75,-35.76"/>
</g>
<!-- 359&#45;&gt;1 -->
<g id="edge46" class="edge">
<title>359&#45;&gt;1</title>
<path fill="none" stroke="red" stroke-width="0.35" d="M964.33,-77.27C959.88,-74.13 955.04,-71.03 950.29,-68.53 908.5,-46.52 893.07,-52.57 850.29,-32.53 849.12,-31.98 847.93,-31.39 846.74,-30.78"/>
<polygon fill="red" stroke="red" stroke-width="0.35" points="848.24,-27.61 837.8,-25.83 844.85,-33.74 848.24,-27.61"/>
</g>
<!-- 359&#45;&gt;2 -->
<g id="edge47" class="edge">
<title>359&#45;&gt;2</title>
<path fill="none" stroke="green" stroke-width="0.38" d="M998.18,-73.35C1006.78,-62.42 1017.59,-48.67 1026.35,-37.53"/>
<polygon fill="green" stroke="green" stroke-width="0.38" points="1029.16,-39.62 1032.59,-29.6 1023.66,-35.29 1029.16,-39.62"/>
</g>
<!-- 359&#45;&gt;3 -->
<g id="edge48" class="edge">
<title>359&#45;&gt;3</title>
<path fill="none" stroke="red" stroke-width="0.23" d="M964.62,-76.66C960.15,-73.56 955.23,-70.62 950.29,-68.53 866.3,-33.01 833.84,-64.11 748.29,-32.53 747.05,-32.07 745.8,-31.55 744.55,-30.99"/>
<polygon fill="red" stroke="red" stroke-width="0.23" points="745.81,-27.7 735.34,-26.14 742.55,-33.89 745.81,-27.7"/>
</g>
<!-- 359&#45;&gt;4 -->
<g id="edge49" class="edge">
<title>359&#45;&gt;4</title>
<path fill="none" stroke="green" stroke-width="0.45" d="M1003.1,-77.84C1007.43,-74.74 1012,-71.5 1016.29,-68.53 1034.83,-55.69 1056.21,-41.51 1071.72,-31.32"/>
<polygon fill="green" stroke="green" stroke-width="0.45" points="1073.67,-34.23 1080.11,-25.83 1069.83,-28.38 1073.67,-34.23"/>
</g>
<!-- 359&#45;&gt;5 -->
<g id="edge50" class="edge">
<title>359&#45;&gt;5</title>
<path fill="none" stroke="red" stroke-width="0.18" d="M964.53,-76.87C960.06,-73.76 955.17,-70.76 950.29,-68.53 887.55,-39.83 863.3,-58.27 799.29,-32.53 798.06,-32.03 796.82,-31.49 795.59,-30.9"/>
<polygon fill="red" stroke="red" stroke-width="0.18" points="796.86,-27.62 786.4,-25.98 793.56,-33.79 796.86,-27.62"/>
</g>
<!-- 359&#45;&gt;6 -->
<g id="edge51" class="edge">
<title>359&#45;&gt;6</title>
<path fill="none" stroke="green" stroke-width="0.25" d="M983.29,-68.13C983.29,-60.03 983.29,-50.97 983.29,-42.77"/>
<polygon fill="green" stroke="green" stroke-width="0.25" points="986.79,-42.64 983.29,-32.64 979.79,-42.64 986.79,-42.64"/>
</g>
<!-- 359&#45;&gt;7 -->
<g id="edge52" class="edge">
<title>359&#45;&gt;7</title>
<path fill="none" stroke="red" stroke-width="0.34" d="M963.45,-77.88C959.13,-74.78 954.57,-71.53 950.29,-68.53 932.43,-56 911.98,-42.05 896.95,-31.87"/>
<polygon fill="red" stroke="red" stroke-width="0.34" points="898.61,-28.76 888.36,-26.06 894.69,-34.56 898.61,-28.76"/>
</g>
<!-- 360&#45;&gt;0 -->
<g id="edge53" class="edge">
<title>360&#45;&gt;0</title>
<path fill="none" stroke="green" stroke-width="0.23" d="M1030.64,-77.6C1026.31,-74.51 1021.69,-71.34 1017.29,-68.53 994.78,-54.15 968.04,-39.34 949.4,-29.36"/>
<polygon fill="green" stroke="green" stroke-width="0.23" points="950.92,-26.21 940.45,-24.61 947.64,-32.39 950.92,-26.21"/>
</g>
<!-- 360&#45;&gt;1 -->
<g id="edge54" class="edge">
<title>360&#45;&gt;1</title>
<path fill="none" stroke="red" stroke-width="0.39" d="M1031.56,-76.79C1027.09,-73.68 1022.19,-70.7 1017.29,-68.53 947.9,-37.7 921.04,-60.1 850.29,-32.53 849.06,-32.05 847.81,-31.51 846.57,-30.94"/>
<polygon fill="red" stroke="red" stroke-width="0.39" points="847.85,-27.65 837.37,-26.04 844.55,-33.83 847.85,-27.65"/>
</g>
<!-- 360&#45;&gt;2 -->
<g id="edge55" class="edge">
<title>360&#45;&gt;2</title>
<path fill="none" stroke="green" stroke-width="0.23" d="M1047.76,-68.54C1046.89,-60.33 1045.9,-51.1 1045.01,-42.76"/>
<polygon fill="green" stroke="green" stroke-width="0.23" points="1048.49,-42.38 1043.95,-32.81 1041.53,-43.12 1048.49,-42.38"/>
</g>
<!-- 360&#45;&gt;3 -->
<g id="edge56" class="edge">
<title>360&#45;&gt;3</title>
<path fill="none" stroke="red" stroke-width="0.24" d="M1031.68,-76.5C1027.21,-73.41 1022.28,-70.51 1017.29,-68.53 905.2,-23.96 862.33,-71.84 748.29,-32.53 747.04,-32.1 745.78,-31.6 744.53,-31.06"/>
<polygon fill="red" stroke="red" stroke-width="0.24" points="745.78,-27.76 735.29,-26.26 742.55,-33.97 745.78,-27.76"/>
</g>
<!-- 360&#45;&gt;4 -->
<g id="edge57" class="edge">
<title>360&#45;&gt;4</title>
<path fill="none" stroke="red" stroke-width="0.15" d="M1062.27,-71.38C1067.92,-61.53 1074.67,-49.75 1080.43,-39.71"/>
<polygon fill="red" stroke="red" stroke-width="0.15" points="1083.64,-41.14 1085.57,-30.73 1077.57,-37.66 1083.64,-41.14"/>
</g>
<!-- 360&#45;&gt;5 -->
<g id="edge58" class="edge">
<title>360&#45;&gt;5</title>
<path fill="none" stroke="green" stroke-width="0.45" d="M1031.64,-76.62C1027.17,-73.51 1022.25,-70.58 1017.29,-68.53 926.6,-30.85 891.63,-65.95 799.29,-32.53 798.05,-32.08 796.79,-31.57 795.54,-31.01"/>
<polygon fill="green" stroke="green" stroke-width="0.45" points="796.8,-27.72 786.32,-26.17 793.55,-33.92 796.8,-27.72"/>
</g>
<!-- 360&#45;&gt;6 -->
<g id="edge59" class="edge">
<title>360&#45;&gt;6</title>
<path fill="none" stroke="red" stroke-width="0.14" d="M1034.07,-74.12C1023.98,-62.81 1010.99,-48.28 1000.68,-36.74"/>
<polygon fill="red" stroke="red" stroke-width="0.14" points="1003,-34.07 993.73,-28.95 997.78,-38.74 1003,-34.07"/>
</g>
<!-- 360&#45;&gt;7 -->
<g id="edge60" class="edge">
<title>360&#45;&gt;7</title>
<path fill="none" stroke="red" stroke-width="0.16" d="M1031.41,-77.11C1026.95,-73.98 1022.09,-70.92 1017.29,-68.53 968.98,-44.45 950.67,-54.34 901.29,-32.53 900.08,-31.99 898.85,-31.41 897.63,-30.8"/>
<polygon fill="red" stroke="red" stroke-width="0.16" points="898.93,-27.53 888.48,-25.79 895.57,-33.67 898.93,-27.53"/>
</g>
<!-- 361&#45;&gt;0 -->
<g id="edge61" class="edge">
<title>361&#45;&gt;0</title>
<path fill="none" stroke="green" stroke-width="0.91" d="M1098.45,-77.03C1093.99,-73.91 1089.12,-70.87 1084.29,-68.53 1031.88,-43.14 1012.76,-53.14 958.29,-32.53 955.49,-31.47 952.59,-30.25 949.73,-28.99"/>
<polygon fill="green" stroke="green" stroke-width="0.91" points="950.95,-25.69 940.41,-24.62 947.98,-32.03 950.95,-25.69"/>
</g>
<!-- 361&#45;&gt;1 -->
<g id="edge62" class="edge">
<title>361&#45;&gt;1</title>
<path fill="none" stroke="red" stroke-width="0.12" d="M1098.65,-76.58C1094.18,-73.48 1089.26,-70.56 1084.29,-68.53 986.9,-28.7 949.43,-67.79 850.29,-32.53 849.04,-32.08 847.79,-31.58 846.54,-31.03"/>
<polygon fill="red" stroke="red" stroke-width="0.12" points="847.8,-27.73 837.31,-26.2 844.55,-33.94 847.8,-27.73"/>
</g>
<!-- 361&#45;&gt;2 -->
<g id="edge63" class="edge">
<title>361&#45;&gt;2</title>
<path fill="none" stroke="green" stroke-width="0.11" d="M1100.27,-75.25C1088.5,-63.48 1072.85,-47.83 1060.77,-35.75"/>
<polygon fill="green" stroke="green" stroke-width="0.11" points="1062.98,-33 1053.43,-28.4 1058.03,-37.95 1062.98,-33"/>
</g>
<!-- 361&#45;&gt;3 -->
<g id="edge64" class="edge">
<title>361&#45;&gt;3</title>
<path fill="none" stroke="green" stroke-width="0.22" d="M1098.72,-76.41C1094.25,-73.31 1089.3,-70.44 1084.29,-68.53 944.01,-14.88 890.91,-79.6 748.29,-32.53 747.03,-32.11 745.77,-31.63 744.51,-31.1"/>
<polygon fill="green" stroke="green" stroke-width="0.22" points="745.76,-27.8 735.27,-26.33 742.55,-34.02 745.76,-27.8"/>
</g>
<!-- 361&#45;&gt;4 -->
<g id="edge65" class="edge">
<title>361&#45;&gt;4</title>
<path fill="none" stroke="green" stroke-width="0.41" d="M1109.96,-69.36C1107.19,-60.69 1104.02,-50.79 1101.19,-41.96"/>
<polygon fill="green" stroke="green" stroke-width="0.41" points="1104.46,-40.69 1098.08,-32.23 1097.79,-42.82 1104.46,-40.69"/>
</g>
<!-- 361&#45;&gt;5 -->
<g id="edge66" class="edge">
<title>361&#45;&gt;5</title>
<path fill="none" stroke="red" stroke-width="0.12" d="M1098.69,-76.48C1094.22,-73.38 1089.28,-70.49 1084.29,-68.53 965.48,-21.8 920.15,-73.69 799.29,-32.53 798.04,-32.1 796.78,-31.61 795.52,-31.07"/>
<polygon fill="red" stroke="red" stroke-width="0.12" points="796.77,-27.77 786.29,-26.28 793.55,-33.99 796.77,-27.77"/>
</g>
<!-- 361&#45;&gt;6 -->
<g id="edge67" class="edge">
<title>361&#45;&gt;6</title>
<path fill="none" stroke="red" stroke-width="0.12" d="M1097.74,-77.45C1093.39,-74.37 1088.75,-71.24 1084.29,-68.53 1058.77,-52.99 1027.97,-37.84 1007.14,-28.09"/>
<polygon fill="red" stroke="red" stroke-width="0.12" points="1008.6,-24.91 998.06,-23.88 1005.66,-31.26 1008.6,-24.91"/>
</g>
<!-- 361&#45;&gt;7 -->
<g id="edge68" class="edge">
<title>361&#45;&gt;7</title>
<path fill="none" stroke="red" stroke-width="0.16" d="M1098.59,-76.73C1094.12,-73.62 1089.21,-70.66 1084.29,-68.53 1008.24,-35.56 978.8,-61.92 901.29,-32.53 900.05,-32.06 898.81,-31.53 897.56,-30.96"/>
<polygon fill="red" stroke="red" stroke-width="0.16" points="898.83,-27.68 888.35,-26.09 895.55,-33.86 898.83,-27.68"/>
</g>
<!-- 362&#45;&gt;0 -->
<g id="edge69" class="edge">
<title>362&#45;&gt;0</title>
<path fill="none" stroke="green" stroke-width="0.47" d="M1165.61,-76.69C1161.14,-73.59 1156.22,-70.64 1151.29,-68.53 1071.06,-34.22 1041.26,-59.54 958.29,-32.53 955.44,-31.6 952.51,-30.47 949.64,-29.25"/>
<polygon fill="green" stroke="green" stroke-width="0.47" points="950.85,-25.95 940.3,-24.92 947.9,-32.3 950.85,-25.95"/>
</g>
<!-- 362&#45;&gt;1 -->
<g id="edge70" class="edge">
<title>362&#45;&gt;1</title>
<path fill="none" stroke="red" stroke-width="0.2" d="M1165.7,-76.45C1161.23,-73.36 1156.29,-70.47 1151.29,-68.53 1025.75,-19.63 977.97,-75.54 850.29,-32.53 849.04,-32.1 847.77,-31.62 846.52,-31.08"/>
<polygon fill="red" stroke="red" stroke-width="0.2" points="847.77,-27.78 837.28,-26.3 844.55,-34 847.77,-27.78"/>
</g>
<!-- 362&#45;&gt;2 -->
<g id="edge71" class="edge">
<title>362&#45;&gt;2</title>
<path fill="none" stroke="green" stroke-width="0.62" d="M1165.21,-77.49C1160.76,-74.35 1155.96,-71.18 1151.29,-68.53 1116.33,-48.67 1104.14,-50.74 1068.29,-32.53 1067.14,-31.94 1065.96,-31.32 1064.78,-30.69"/>
<polygon fill="green" stroke="green" stroke-width="0.62" points="1066.31,-27.53 1055.88,-25.66 1062.87,-33.63 1066.31,-27.53"/>
</g>
<!-- 362&#45;&gt;3 -->
<g id="edge72" class="edge">
<title>362&#45;&gt;3</title>
<path fill="none" stroke="green" stroke-width="0.27" d="M1165.75,-76.34C1161.27,-73.25 1156.32,-70.4 1151.29,-68.53 982.77,-5.78 919.55,-87.38 748.29,-32.53 747.03,-32.12 745.76,-31.65 744.51,-31.12"/>
<polygon fill="green" stroke="green" stroke-width="0.27" points="745.75,-27.83 735.25,-26.38 742.55,-34.06 745.75,-27.83"/>
</g>
<!-- 362&#45;&gt;4 -->
<g id="edge73" class="edge">
<title>362&#45;&gt;4</title>
<path fill="none" stroke="red" stroke-width="0.17" d="M1165.44,-76.73C1150.24,-64.21 1128.92,-46.63 1113.4,-33.83"/>
<polygon fill="red" stroke="red" stroke-width="0.17" points="1115.39,-30.94 1105.45,-27.28 1110.94,-36.34 1115.39,-30.94"/>
</g>
<!-- 362&#45;&gt;5 -->
<g id="edge74" class="edge">
<title>362&#45;&gt;5</title>
<path fill="none" stroke="green" stroke-width="0.25" d="M1165.73,-76.39C1161.25,-73.3 1156.31,-70.43 1151.29,-68.53 1004.27,-12.71 948.75,-81.46 799.29,-32.53 798.03,-32.11 796.77,-31.63 795.51,-31.1"/>
<polygon fill="green" stroke="green" stroke-width="0.25" points="796.76,-27.81 786.26,-26.35 793.55,-34.03 796.76,-27.81"/>
</g>
<!-- 362&#45;&gt;6 -->
<g id="edge75" class="edge">
<title>362&#45;&gt;6</title>
<path fill="none" stroke="green" stroke-width="0.27" d="M1165.48,-76.97C1161.02,-73.85 1156.14,-70.83 1151.29,-68.53 1095.58,-42.09 1075.38,-53.22 1017.29,-32.53 1013.9,-31.32 1010.37,-29.91 1006.93,-28.45"/>
<polygon fill="green" stroke="green" stroke-width="0.27" points="1008.2,-25.19 997.64,-24.32 1005.36,-31.58 1008.2,-25.19"/>
</g>
<!-- 362&#45;&gt;7 -->
<g id="edge76" class="edge">
<title>362&#45;&gt;7</title>
<path fill="none" stroke="green" stroke-width="0.22" d="M1165.67,-76.54C1161.2,-73.44 1156.27,-70.53 1151.29,-68.53 1047.19,-26.53 1007.24,-69.64 901.29,-32.53 900.04,-32.09 898.78,-31.59 897.53,-31.04"/>
<polygon fill="green" stroke="green" stroke-width="0.22" points="898.79,-27.75 888.3,-26.23 895.55,-33.96 898.79,-27.75"/>
</g>
<!-- 363&#45;&gt;0 -->
<g id="edge77" class="edge">
<title>363&#45;&gt;0</title>
<path fill="none" stroke="red" stroke-width="0.23" d="M666.94,-76.61C671.42,-73.51 676.34,-70.58 681.29,-68.53 772.4,-30.72 807.53,-66.06 900.29,-32.53 901.54,-32.08 902.79,-31.57 904.04,-31.01"/>
<polygon fill="red" stroke="red" stroke-width="0.23" points="906.03,-33.92 913.26,-26.17 902.78,-27.72 906.03,-33.92"/>
</g>
<!-- 363&#45;&gt;1 -->
<g id="edge78" class="edge">
<title>363&#45;&gt;1</title>
<path fill="none" stroke="green" stroke-width="0.28" d="M667.17,-77.1C671.63,-73.98 676.49,-70.91 681.29,-68.53 730.01,-44.32 748.5,-54.45 798.29,-32.53 799.5,-31.99 800.73,-31.42 801.96,-30.81"/>
<polygon fill="green" stroke="green" stroke-width="0.28" points="804.02,-33.67 811.11,-25.8 800.66,-27.53 804.02,-33.67"/>
</g>
<!-- 363&#45;&gt;2 -->
<g id="edge79" class="edge">
<title>363&#45;&gt;2</title>
<path fill="none" stroke="green" stroke-width="0.11" d="M666.87,-76.42C671.34,-73.32 676.28,-70.45 681.29,-68.53 817.78,-16.1 867.22,-70.93 1008.29,-32.53 1011.77,-31.58 1015.34,-30.32 1018.8,-28.94"/>
<polygon fill="green" stroke="green" stroke-width="0.11" points="1020.37,-32.07 1028.1,-24.83 1017.54,-25.67 1020.37,-32.07"/>
</g>
<!-- 363&#45;&gt;3 -->
<g id="edge80" class="edge">
<title>363&#45;&gt;3</title>
<path fill="none" stroke="green" stroke-width="0.12" d="M665.45,-74.88C676.94,-63.23 692.05,-47.92 703.81,-36"/>
<polygon fill="green" stroke="green" stroke-width="0.12" points="706.44,-38.31 710.97,-28.74 701.46,-33.4 706.44,-38.31"/>
</g>
<!-- 363&#45;&gt;4 -->
<g id="edge81" class="edge">
<title>363&#45;&gt;4</title>
<path fill="none" stroke="red" stroke-width="0.38" d="M666.84,-76.35C671.32,-73.27 676.27,-70.41 681.29,-68.53 842.64,-8.09 903.31,-85.4 1067.29,-32.53 1068.55,-32.12 1069.82,-31.64 1071.08,-31.12"/>
<polygon fill="red" stroke="red" stroke-width="0.38" points="1073.03,-34.05 1080.33,-26.37 1069.83,-27.82 1073.03,-34.05"/>
</g>
<!-- 363&#45;&gt;5 -->
<g id="edge82" class="edge">
<title>363&#45;&gt;5</title>
<path fill="none" stroke="red" stroke-width="0.3" d="M667.91,-77.55C672.25,-74.47 676.87,-71.31 681.29,-68.53 709.57,-50.73 718.21,-48.99 747.29,-32.53 748.42,-31.89 749.57,-31.23 750.73,-30.56"/>
<polygon fill="red" stroke="red" stroke-width="0.3" points="752.69,-33.48 759.58,-25.42 749.17,-27.42 752.69,-33.48"/>
</g>
<!-- 363&#45;&gt;6 -->
<g id="edge83" class="edge">
<title>363&#45;&gt;6</title>
<path fill="none" stroke="red" stroke-width="0.17" d="M666.9,-76.5C671.37,-73.41 676.31,-70.51 681.29,-68.53 793.8,-23.83 835.24,-67.01 951.29,-32.53 954.17,-31.67 957.11,-30.59 959.99,-29.4"/>
<polygon fill="red" stroke="red" stroke-width="0.17" points="961.72,-32.45 969.33,-25.09 958.79,-26.1 961.72,-32.45"/>
</g>
<!-- 363&#45;&gt;7 -->
<g id="edge84" class="edge">
<title>363&#45;&gt;7</title>
<path fill="none" stroke="red" stroke-width="0.52" d="M667.02,-76.79C671.49,-73.68 676.39,-70.7 681.29,-68.53 751.1,-37.57 778.12,-60.21 849.29,-32.53 850.53,-32.05 851.77,-31.51 853.01,-30.94"/>
<polygon fill="red" stroke="red" stroke-width="0.52" points="855.03,-33.83 862.21,-26.04 851.74,-27.65 855.03,-33.83"/>
</g>
<!-- 364&#45;&gt;0 -->
<g id="edge85" class="edge">
<title>364&#45;&gt;0</title>
<path fill="none" stroke="green" stroke-width="0.29" d="M734.06,-76.87C738.52,-73.75 743.41,-70.75 748.29,-68.53 811.45,-39.7 835.86,-58.39 900.29,-32.53 901.52,-32.03 902.76,-31.49 904,-30.91"/>
<polygon fill="green" stroke="green" stroke-width="0.29" points="906.03,-33.79 913.19,-25.98 902.72,-27.62 906.03,-33.79"/>
</g>
<!-- 364&#45;&gt;1 -->
<g id="edge86" class="edge">
<title>364&#45;&gt;1</title>
<path fill="none" stroke="red" stroke-width="0.19" d="M735.12,-77.86C739.44,-74.76 744.01,-71.51 748.29,-68.53 766.35,-55.94 787.08,-41.99 802.32,-31.83"/>
<polygon fill="red" stroke="red" stroke-width="0.19" points="804.64,-34.49 811.03,-26.03 800.76,-28.66 804.64,-34.49"/>
</g>
<!-- 364&#45;&gt;2 -->
<g id="edge87" class="edge">
<title>364&#45;&gt;2</title>
<path fill="none" stroke="green" stroke-width="0.62" d="M733.91,-76.52C738.38,-73.42 743.31,-70.52 748.29,-68.53 856.6,-25.18 896.17,-64.74 1008.29,-32.53 1011.75,-31.53 1015.32,-30.25 1018.78,-28.85"/>
<polygon fill="green" stroke="green" stroke-width="0.62" points="1020.35,-31.98 1028.07,-24.73 1017.51,-25.58 1020.35,-31.98"/>
</g>
<!-- 364&#45;&gt;3 -->
<g id="edge88" class="edge">
<title>364&#45;&gt;3</title>
<path fill="none" stroke="red" stroke-width="0.36" d="M717.51,-68.54C718.26,-60.42 719.12,-51.31 719.89,-43.04"/>
<polygon fill="red" stroke="red" stroke-width="0.36" points="723.4,-43.09 720.84,-32.81 716.43,-42.44 723.4,-43.09"/>
</g>
<!-- 364&#45;&gt;4 -->
<g id="edge89" class="edge">
<title>364&#45;&gt;4</title>
<path fill="none" stroke="green" stroke-width="0.37" d="M733.87,-76.43C738.34,-73.33 743.29,-70.46 748.29,-68.53 881.41,-17.19 931.93,-77.63 1067.29,-32.53 1068.55,-32.11 1069.81,-31.62 1071.07,-31.09"/>
<polygon fill="green" stroke="green" stroke-width="0.37" points="1073.03,-34.01 1080.31,-26.32 1069.82,-27.79 1073.03,-34.01"/>
</g>
<!-- 364&#45;&gt;5 -->
<g id="edge90" class="edge">
<title>364&#45;&gt;5</title>
<path fill="none" stroke="red" stroke-width="0.32" d="M730.23,-72.96C738.49,-62.27 748.76,-48.98 757.2,-38.07"/>
<polygon fill="red" stroke="red" stroke-width="0.32" points="760.16,-39.97 763.51,-29.92 754.62,-35.69 760.16,-39.97"/>
</g>
<!-- 364&#45;&gt;6 -->
<g id="edge91" class="edge">
<title>364&#45;&gt;6</title>
<path fill="none" stroke="red" stroke-width="0.23" d="M733.96,-76.66C738.43,-73.56 743.35,-70.61 748.29,-68.53 832.7,-32.87 864.04,-60.5 951.29,-32.53 954.15,-31.61 957.08,-30.49 959.95,-29.28"/>
<polygon fill="red" stroke="red" stroke-width="0.23" points="961.69,-32.33 969.29,-24.95 958.75,-25.98 961.69,-32.33"/>
</g>
<!-- 364&#45;&gt;7 -->
<g id="edge92" class="edge">
<title>364&#45;&gt;7</title>
<path fill="none" stroke="red" stroke-width="0.16" d="M734.25,-77.26C738.7,-74.12 743.54,-71.02 748.29,-68.53 790.49,-46.39 806.11,-52.68 849.29,-32.53 850.47,-31.98 851.66,-31.39 852.85,-30.79"/>
<polygon fill="red" stroke="red" stroke-width="0.16" points="854.73,-33.74 861.79,-25.84 851.34,-27.62 854.73,-33.74"/>
</g>
<!-- 366&#45;&gt;0 -->
<g id="edge93" class="edge">
<title>366&#45;&gt;0</title>
<path fill="none" stroke="green" stroke-width="0.48" d="M801.36,-77.46C805.81,-74.32 810.62,-71.16 815.29,-68.53 851.05,-48.42 863.64,-50.95 900.29,-32.53 901.45,-31.95 902.63,-31.33 903.81,-30.7"/>
<polygon fill="green" stroke="green" stroke-width="0.48" points="905.72,-33.64 912.71,-25.68 902.28,-27.54 905.72,-33.64"/>
</g>
<!-- 366&#45;&gt;1 -->
<g id="edge94" class="edge">
<title>366&#45;&gt;1</title>
<path fill="none" stroke="red" stroke-width="0.41" d="M793.99,-71.38C799.51,-61.53 806.1,-49.75 811.73,-39.71"/>
<polygon fill="red" stroke="red" stroke-width="0.41" points="814.92,-41.16 816.75,-30.73 808.81,-37.74 814.92,-41.16"/>
</g>
<!-- 366&#45;&gt;2 -->
<g id="edge95" class="edge">
<title>366&#45;&gt;2</title>
<path fill="none" stroke="green" stroke-width="0.31" d="M800.98,-76.69C805.45,-73.59 810.36,-70.64 815.29,-68.53 895.52,-34.22 925.01,-58.58 1008.29,-32.53 1011.73,-31.45 1015.28,-30.12 1018.73,-28.7"/>
<polygon fill="green" stroke="green" stroke-width="0.31" points="1020.3,-31.83 1028.03,-24.58 1017.47,-25.43 1020.3,-31.83"/>
</g>
<!-- 366&#45;&gt;3 -->
<g id="edge96" class="edge">
<title>366&#45;&gt;3</title>
<path fill="none" stroke="red" stroke-width="0.42" d="M767.15,-73.35C758.41,-62.42 747.42,-48.67 738.5,-37.53"/>
<polygon fill="red" stroke="red" stroke-width="0.42" points="741.14,-35.22 732.16,-29.6 735.67,-39.59 741.14,-35.22"/>
</g>
<!-- 366&#45;&gt;4 -->
<g id="edge97" class="edge">
<title>366&#45;&gt;4</title>
<path fill="none" stroke="green" stroke-width="0.18" d="M800.91,-76.54C805.39,-73.44 810.32,-70.53 815.29,-68.53 920.24,-26.26 960.5,-69.87 1067.29,-32.53 1068.54,-32.09 1069.8,-31.59 1071.05,-31.04"/>
<polygon fill="green" stroke="green" stroke-width="0.18" points="1073.03,-33.96 1080.28,-26.23 1069.8,-27.75 1073.03,-33.96"/>
</g>
<!-- 366&#45;&gt;5 -->
<g id="edge98" class="edge">
<title>366&#45;&gt;5</title>
<path fill="none" stroke="red" stroke-width="0.3" d="M779.44,-68.54C778.46,-60.33 777.35,-51.1 776.35,-42.76"/>
<polygon fill="red" stroke="red" stroke-width="0.3" points="779.82,-42.32 775.16,-32.81 772.87,-43.15 779.82,-42.32"/>
</g>
<!-- 366&#45;&gt;6 -->
<g id="edge99" class="edge">
<title>366&#45;&gt;6</title>
<path fill="none" stroke="green" stroke-width="0.54" d="M801.1,-76.96C805.56,-73.84 810.44,-70.82 815.29,-68.53 871.83,-41.82 892.6,-54.08 951.29,-32.53 954.11,-31.49 957.01,-30.3 959.87,-29.04"/>
<polygon fill="green" stroke="green" stroke-width="0.54" points="961.62,-32.09 969.2,-24.68 958.66,-25.75 961.62,-32.09"/>
</g>
<!-- 366&#45;&gt;7 -->
<g id="edge100" class="edge">
<title>366&#45;&gt;7</title>
<path fill="none" stroke="red" stroke-width="0.22" d="M801.11,-77.1C816.7,-64.53 838.8,-46.7 854.82,-33.77"/>
<polygon fill="red" stroke="red" stroke-width="0.22" points="857.43,-36.16 863.02,-27.16 853.04,-30.72 857.43,-36.16"/>
</g>
<!-- 367&#45;&gt;0 -->
<g id="edge101" class="edge">
<title>367&#45;&gt;0</title>
<path fill="none" stroke="green" stroke-width="0.47" d="M866.76,-75.25C878.96,-63.37 895.23,-47.53 907.67,-35.4"/>
<polygon fill="green" stroke="green" stroke-width="0.47" points="910.13,-37.89 914.86,-28.4 905.25,-32.88 910.13,-37.89"/>
</g>
<!-- 367&#45;&gt;1 -->
<g id="edge102" class="edge">
<title>367&#45;&gt;1</title>
<path fill="none" stroke="green" stroke-width="0.3" d="M841.66,-69.36C838.77,-60.69 835.46,-50.79 832.52,-41.96"/>
<polygon fill="green" stroke="green" stroke-width="0.3" points="835.76,-40.61 829.28,-32.23 829.12,-42.82 835.76,-40.61"/>
</g>
<!-- 367&#45;&gt;2 -->
<g id="edge103" class="edge">
<title>367&#45;&gt;2</title>
<path fill="none" stroke="red" stroke-width="0.67" d="M868.13,-77.03C872.59,-73.91 877.46,-70.87 882.29,-68.53 934.71,-43.14 953.58,-52.5 1008.29,-32.53 1011.68,-31.29 1015.2,-29.87 1018.64,-28.4"/>
<polygon fill="red" stroke="red" stroke-width="0.67" points="1020.21,-31.53 1027.92,-24.27 1017.36,-25.14 1020.21,-31.53"/>
</g>
<!-- 367&#45;&gt;3 -->
<g id="edge104" class="edge">
<title>367&#45;&gt;3</title>
<path fill="none" stroke="green" stroke-width="0.15" d="M829.7,-77.51C825.36,-74.43 820.73,-71.28 816.29,-68.53 787.23,-50.5 778.16,-49.19 748.29,-32.53 747.16,-31.9 746,-31.24 744.84,-30.58"/>
<polygon fill="green" stroke="green" stroke-width="0.15" points="746.4,-27.44 735.99,-25.46 742.89,-33.5 746.4,-27.44"/>
</g>
<!-- 367&#45;&gt;4 -->
<g id="edge105" class="edge">
<title>367&#45;&gt;4</title>
<path fill="none" stroke="green" stroke-width="0.14" d="M867.99,-76.72C872.46,-73.61 877.37,-70.66 882.29,-68.53 959.18,-35.29 988.94,-62.15 1067.29,-32.53 1068.53,-32.06 1069.78,-31.53 1071.02,-30.97"/>
<polygon fill="green" stroke="green" stroke-width="0.14" points="1073.03,-33.86 1080.23,-26.09 1069.76,-27.68 1073.03,-33.86"/>
</g>
<!-- 367&#45;&gt;5 -->
<g id="edge106" class="edge">
<title>367&#45;&gt;5</title>
<path fill="none" stroke="red" stroke-width="0.16" d="M832.05,-75.25C820.12,-63.48 804.26,-47.83 792.02,-35.75"/>
<polygon fill="red" stroke="red" stroke-width="0.16" points="794.16,-32.94 784.58,-28.4 789.24,-37.92 794.16,-32.94"/>
</g>
<!-- 367&#45;&gt;6 -->
<g id="edge107" class="edge">
<title>367&#45;&gt;6</title>
<path fill="none" stroke="green" stroke-width="0.25" d="M868.85,-77.45C873.19,-74.37 877.83,-71.24 882.29,-68.53 896.23,-60.04 934.55,-41.01 959.77,-28.68"/>
<polygon fill="green" stroke="green" stroke-width="0.25" points="961.59,-31.69 969.04,-24.16 958.52,-25.4 961.59,-31.69"/>
</g>
<!-- 367&#45;&gt;7 -->
<g id="edge108" class="edge">
<title>367&#45;&gt;7</title>
<path fill="none" stroke="red" stroke-width="0.54" d="M857.09,-69.77C860.18,-60.86 863.73,-50.61 866.88,-41.54"/>
<polygon fill="red" stroke="red" stroke-width="0.54" points="870.24,-42.53 870.21,-31.94 863.62,-40.24 870.24,-42.53"/>
</g>
</g>
</svg>
