<?xml version="1.0" encoding="UTF-8" standalone="no"?>
<!DOCTYPE svg PUBLIC "-//W3C//DTD SVG 1.1//EN"
 "http://www.w3.org/Graphics/SVG/1.1/DTD/svg11.dtd">
<!-- Generated by graphviz version 2.44.0 (0)
 -->
<!-- Pages: 1 -->
<svg width="1988pt" height="180pt"
 viewBox="0.00 0.00 1987.59 180.02" xmlns="http://www.w3.org/2000/svg" xmlns:xlink="http://www.w3.org/1999/xlink">
<g id="graph0" class="graph" transform="scale(1 1) rotate(0) translate(4 176.02)">
<polygon fill="white" stroke="transparent" points="-4,4 -4,-176.02 1983.59,-176.02 1983.59,4 -4,4"/>
<!-- &#45;1 -->
<g id="node1" class="node">
<title>&#45;1</title>
<polygon fill="lightgray" stroke="black" points="1151.28,-172.02 1125.28,-172.02 1125.28,-154.02 1151.28,-154.02 1151.28,-172.02"/>
<text text-anchor="middle" x="1138.28" y="-160.82" font-family="Times-Roman" font-size="9.00">&#45;1</text>
</g>
<!-- 0 -->
<g id="node7" class="node">
<title>0</title>
<ellipse fill="lightblue" stroke="black" cx="1140.28" cy="-16.26" rx="16.03" ry="16.03"/>
<text text-anchor="middle" x="1140.28" y="-14.06" font-family="Times-Roman" font-size="9.00">0</text>
</g>
<!-- &#45;1&#45;&gt;0 -->
<g id="edge119" class="edge">
<title>&#45;1&#45;&gt;0</title>
<path fill="none" stroke="red" stroke-width="0.17" d="M1151.52,-158.55C1158.29,-156.91 1166.67,-155.09 1174.28,-154.02 1240.86,-144.7 1732.18,-166.96 1778.28,-118.02 1793.37,-102.01 1793.37,-84.53 1778.28,-68.53 1731.71,-19.12 1233.55,-51.23 1168.28,-32.53 1166.36,-31.98 1164.43,-31.28 1162.53,-30.49"/>
<polygon fill="red" stroke="red" stroke-width="0.17" points="1163.95,-27.29 1153.43,-25.98 1160.84,-33.56 1163.95,-27.29"/>
</g>
<!-- 1 -->
<g id="node8" class="node">
<title>1</title>
<ellipse fill="lightblue" stroke="black" cx="783.28" cy="-16.26" rx="16.03" ry="16.03"/>
<text text-anchor="middle" x="783.28" y="-14.06" font-family="Times-Roman" font-size="9.00">1</text>
</g>
<!-- &#45;1&#45;&gt;1 -->
<g id="edge120" class="edge">
<title>&#45;1&#45;&gt;1</title>
<path fill="none" stroke="red" stroke-width="0.57" d="M1125.14,-160.39C1111.82,-158.75 1090.62,-156.16 1072.28,-154.02 1000.54,-145.68 797.44,-171.85 749.28,-118.02 728.74,-95.07 749.42,-59.23 766.31,-37.06"/>
<polygon fill="red" stroke="red" stroke-width="0.57" points="769.23,-39.01 772.73,-29.01 763.76,-34.65 769.23,-39.01"/>
</g>
<!-- 2 -->
<g id="node9" class="node">
<title>2</title>
<ellipse fill="lightblue" stroke="black" cx="1193.28" cy="-16.26" rx="16.03" ry="16.03"/>
<text text-anchor="middle" x="1193.28" y="-14.06" font-family="Times-Roman" font-size="9.00">2</text>
</g>
<!-- &#45;1&#45;&gt;2 -->
<g id="edge121" class="edge">
<title>&#45;1&#45;&gt;2</title>
<path fill="none" stroke="red" stroke-width="0.29" d="M1151.52,-158.51C1158.28,-156.87 1166.66,-155.04 1174.28,-154.02 1215.96,-148.44 1901.26,-148.46 1930.28,-118.02 1945.46,-102.1 1945.29,-84.61 1930.28,-68.53 1880.97,-15.67 1346.94,-16.15 1220.16,-17.02"/>
<polygon fill="red" stroke="red" stroke-width="0.29" points="1219.79,-13.52 1209.82,-17.1 1219.85,-20.52 1219.79,-13.52"/>
</g>
<!-- 3 -->
<g id="node10" class="node">
<title>3</title>
<ellipse fill="lightblue" stroke="black" cx="960.28" cy="-16.26" rx="16.03" ry="16.03"/>
<text text-anchor="middle" x="960.28" y="-14.06" font-family="Times-Roman" font-size="9.00">3</text>
</g>
<!-- &#45;1&#45;&gt;3 -->
<g id="edge122" class="edge">
<title>&#45;1&#45;&gt;3</title>
<path fill="none" stroke="red" stroke-width="0.26" d="M1151.56,-158.79C1158.33,-157.21 1166.72,-155.37 1174.28,-154.02 1233.22,-143.52 1401.87,-163.1 1441.28,-118.02 1455.76,-101.46 1456.13,-84.76 1441.28,-68.53 1410.86,-35.28 1081.89,-38.92 1037.28,-32.53 1020.13,-30.07 1001.02,-26.29 986.13,-23.1"/>
<polygon fill="red" stroke="red" stroke-width="0.26" points="986.64,-19.63 976.12,-20.92 985.14,-26.47 986.64,-19.63"/>
</g>
<!-- 4 -->
<g id="node11" class="node">
<title>4</title>
<ellipse fill="lightblue" stroke="black" cx="1062.28" cy="-16.26" rx="16.03" ry="16.03"/>
<text text-anchor="middle" x="1062.28" y="-14.06" font-family="Times-Roman" font-size="9.00">4</text>
</g>
<!-- &#45;1&#45;&gt;4 -->
<g id="edge123" class="edge">
<title>&#45;1&#45;&gt;4</title>
<path fill="none" stroke="red" stroke-width="0.11" d="M1151.56,-158.76C1158.33,-157.18 1166.71,-155.34 1174.28,-154.02 1237.39,-143.06 1417.91,-166.06 1460.28,-118.02 1474.83,-101.53 1475.01,-84.87 1460.28,-68.53 1408.68,-11.26 1190.94,-47.25 1115.28,-32.53 1105.96,-30.71 1095.9,-28.01 1087.08,-25.39"/>
<polygon fill="red" stroke="red" stroke-width="0.11" points="1088,-22.01 1077.41,-22.39 1085.93,-28.69 1088,-22.01"/>
</g>
<!-- 5 -->
<g id="node12" class="node">
<title>5</title>
<ellipse fill="lightblue" stroke="black" cx="875.28" cy="-16.26" rx="16.03" ry="16.03"/>
<text text-anchor="middle" x="875.28" y="-14.06" font-family="Times-Roman" font-size="9.00">5</text>
</g>
<!-- &#45;1&#45;&gt;5 -->
<g id="edge124" class="edge">
<title>&#45;1&#45;&gt;5</title>
<path fill="none" stroke="green" stroke-width="0.31" stroke-dasharray="1,5" d="M1125.27,-160.11C1075.79,-152.76 901.66,-126.41 893.28,-118.02 873.76,-98.49 871.31,-65.55 872.39,-42.67"/>
<polygon fill="green" stroke="green" stroke-width="0.31" points="875.89,-42.88 873.12,-32.65 868.9,-42.37 875.89,-42.88"/>
</g>
<!-- 320 -->
<g id="node13" class="node">
<title>320</title>
<ellipse fill="white" stroke="black" cx="1061.28" cy="-93.28" rx="25" ry="25"/>
<text text-anchor="middle" x="1061.28" y="-91.08" font-family="Times-Roman" font-size="9.00">320</text>
</g>
<!-- &#45;1&#45;&gt;320 -->
<g id="edge5" class="edge">
<title>&#45;1&#45;&gt;320</title>
<path fill="none" stroke="green" stroke-width="0.45" d="M1129.14,-153.99C1118.86,-144.94 1101.69,-129.83 1087.19,-117.08"/>
<polygon fill="green" stroke="green" stroke-width="0.45" points="1089.3,-114.26 1079.48,-110.29 1084.67,-119.52 1089.3,-114.26"/>
</g>
<!-- 321 -->
<g id="node14" class="node">
<title>321</title>
<ellipse fill="white" stroke="black" cx="1234.28" cy="-93.28" rx="25" ry="25"/>
<text text-anchor="middle" x="1234.28" y="-91.08" font-family="Times-Roman" font-size="9.00">321</text>
</g>
<!-- &#45;1&#45;&gt;321 -->
<g id="edge6" class="edge">
<title>&#45;1&#45;&gt;321</title>
<path fill="none" stroke="red" stroke-width="0.1" d="M1149.93,-153.96C1162.6,-145.18 1183.43,-130.68 1201.28,-118.02 1202.88,-116.89 1204.52,-115.73 1206.17,-114.55"/>
<polygon fill="red" stroke="red" stroke-width="0.1" points="1208.33,-117.31 1214.42,-108.64 1204.25,-111.62 1208.33,-117.31"/>
</g>
<!-- 322 -->
<g id="node15" class="node">
<title>322</title>
<ellipse fill="white" stroke="black" cx="1340.28" cy="-93.28" rx="25" ry="25"/>
<text text-anchor="middle" x="1340.28" y="-91.08" font-family="Times-Roman" font-size="9.00">322</text>
</g>
<!-- &#45;1&#45;&gt;322 -->
<g id="edge7" class="edge">
<title>&#45;1&#45;&gt;322</title>
<path fill="none" stroke="green" stroke-width="0.19" d="M1151.33,-159.01C1184.9,-151.17 1273.54,-129.93 1301.28,-118.02 1304.69,-116.56 1308.15,-114.84 1311.53,-113.01"/>
<polygon fill="green" stroke="green" stroke-width="0.19" points="1313.32,-116.02 1320.22,-107.98 1309.81,-109.96 1313.32,-116.02"/>
</g>
<!-- 323 -->
<g id="node16" class="node">
<title>323</title>
<ellipse fill="white" stroke="black" cx="534.28" cy="-93.28" rx="25" ry="25"/>
<text text-anchor="middle" x="534.28" y="-91.08" font-family="Times-Roman" font-size="9.00">323</text>
</g>
<!-- &#45;1&#45;&gt;323 -->
<g id="edge8" class="edge">
<title>&#45;1&#45;&gt;323</title>
<path fill="none" stroke="red" stroke-width="0.65" stroke-dasharray="1,5" d="M1125.15,-160.24C1111.85,-158.48 1090.66,-155.79 1072.28,-154.02 960.29,-143.25 673.06,-156.34 567.28,-118.02 565.39,-117.34 563.51,-116.51 561.66,-115.58"/>
<polygon fill="red" stroke="red" stroke-width="0.65" points="563.18,-112.41 552.8,-110.28 559.58,-118.42 563.18,-112.41"/>
</g>
<!-- 324 -->
<g id="node17" class="node">
<title>324</title>
<ellipse fill="white" stroke="black" cx="783.28" cy="-93.28" rx="25" ry="25"/>
<text text-anchor="middle" x="783.28" y="-91.08" font-family="Times-Roman" font-size="9.00">324</text>
</g>
<!-- &#45;1&#45;&gt;324 -->
<g id="edge9" class="edge">
<title>&#45;1&#45;&gt;324</title>
<path fill="none" stroke="red" stroke-width="0.19" d="M1125.15,-160.2C1077.28,-153.51 912.16,-130.07 860.28,-118.02 845.73,-114.65 829.92,-109.96 816.43,-105.63"/>
<polygon fill="red" stroke="red" stroke-width="0.19" points="817.23,-102.21 806.63,-102.43 815.05,-108.86 817.23,-102.21"/>
</g>
<!-- 325 -->
<g id="node18" class="node">
<title>325</title>
<ellipse fill="white" stroke="black" cx="601.28" cy="-93.28" rx="25" ry="25"/>
<text text-anchor="middle" x="601.28" y="-91.08" font-family="Times-Roman" font-size="9.00">325</text>
</g>
<!-- &#45;1&#45;&gt;325 -->
<g id="edge10" class="edge">
<title>&#45;1&#45;&gt;325</title>
<path fill="none" stroke="green" stroke-width="0.14" d="M1125.14,-160.35C1111.83,-158.68 1090.63,-156.06 1072.28,-154.02 914.22,-136.46 873.47,-142.14 716.28,-118.02 688.84,-113.82 658.06,-107.37 635.26,-102.25"/>
<polygon fill="green" stroke="green" stroke-width="0.14" points="635.91,-98.81 625.38,-100.01 634.36,-105.63 635.91,-98.81"/>
</g>
<!-- 316 -->
<g id="node19" class="node">
<title>316</title>
<ellipse fill="white" stroke="black" cx="1167.28" cy="-93.28" rx="25" ry="25"/>
<text text-anchor="middle" x="1167.28" y="-91.08" font-family="Times-Roman" font-size="9.00">316</text>
</g>
<!-- &#45;1&#45;&gt;316 -->
<g id="edge1" class="edge">
<title>&#45;1&#45;&gt;316</title>
<path fill="none" stroke="green" stroke-width="0.29" d="M1141.72,-153.99C1144.75,-146.9 1149.37,-136.11 1153.86,-125.63"/>
<polygon fill="green" stroke="green" stroke-width="0.29" points="1157.17,-126.79 1157.89,-116.22 1150.73,-124.03 1157.17,-126.79"/>
</g>
<!-- 317 -->
<g id="node20" class="node">
<title>317</title>
<ellipse fill="white" stroke="black" cx="1407.28" cy="-93.28" rx="25" ry="25"/>
<text text-anchor="middle" x="1407.28" y="-91.08" font-family="Times-Roman" font-size="9.00">317</text>
</g>
<!-- &#45;1&#45;&gt;317 -->
<g id="edge2" class="edge">
<title>&#45;1&#45;&gt;317</title>
<path fill="none" stroke="green" stroke-width="0.14" d="M1151.59,-158.93C1158.37,-157.39 1166.75,-155.54 1174.28,-154.02 1262.83,-136.22 1291.13,-153.27 1374.28,-118.02 1376.13,-117.24 1377.98,-116.33 1379.8,-115.35"/>
<polygon fill="green" stroke="green" stroke-width="0.14" points="1381.95,-118.13 1388.6,-109.88 1378.26,-112.18 1381.95,-118.13"/>
</g>
<!-- 318 -->
<g id="node21" class="node">
<title>318</title>
<ellipse fill="white" stroke="black" cx="927.28" cy="-93.28" rx="25" ry="25"/>
<text text-anchor="middle" x="927.28" y="-91.08" font-family="Times-Roman" font-size="9.00">318</text>
</g>
<!-- &#45;1&#45;&gt;318 -->
<g id="edge3" class="edge">
<title>&#45;1&#45;&gt;318</title>
<path fill="none" stroke="red" stroke-width="0.1" d="M1125.2,-160.52C1094.97,-156.69 1018.36,-144.88 960.28,-118.02 958.45,-117.18 956.63,-116.23 954.82,-115.21"/>
<polygon fill="red" stroke="red" stroke-width="0.1" points="956.38,-112.05 946.06,-109.65 952.63,-117.96 956.38,-112.05"/>
</g>
<!-- 319 -->
<g id="node22" class="node">
<title>319</title>
<ellipse fill="white" stroke="black" cx="994.28" cy="-93.28" rx="25" ry="25"/>
<text text-anchor="middle" x="994.28" y="-91.08" font-family="Times-Roman" font-size="9.00">319</text>
</g>
<!-- &#45;1&#45;&gt;319 -->
<g id="edge4" class="edge">
<title>&#45;1&#45;&gt;319</title>
<path fill="none" stroke="green" stroke-width="0.75" d="M1125.17,-158C1103.91,-151.21 1060.92,-136.43 1027.28,-118.02 1025.51,-117.06 1023.73,-116.01 1021.96,-114.92"/>
<polygon fill="green" stroke="green" stroke-width="0.75" points="1023.57,-111.78 1013.3,-109.17 1019.7,-117.62 1023.57,-111.78"/>
</g>
<!-- &#45;2 -->
<g id="node2" class="node">
<title>&#45;2</title>
<polygon fill="lightgray" stroke="black" points="894.28,-172.02 868.28,-172.02 868.28,-154.02 894.28,-154.02 894.28,-172.02"/>
<text text-anchor="middle" x="881.28" y="-160.82" font-family="Times-Roman" font-size="9.00">&#45;2</text>
</g>
<!-- &#45;2&#45;&gt;0 -->
<g id="edge125" class="edge">
<title>&#45;2&#45;&gt;0</title>
<path fill="none" stroke="green" stroke-width="0.39" d="M879.52,-153.97C876.12,-136 870.79,-92.31 893.28,-68.53 953.53,-4.81 1001.93,-52.68 1087.28,-32.53 1096.52,-30.34 1106.56,-27.56 1115.39,-24.97"/>
<polygon fill="green" stroke="green" stroke-width="0.39" points="1116.5,-28.29 1125.08,-22.07 1114.49,-21.59 1116.5,-28.29"/>
</g>
<!-- &#45;2&#45;&gt;1 -->
<g id="edge126" class="edge">
<title>&#45;2&#45;&gt;1</title>
<path fill="none" stroke="red" stroke-width="0.34" d="M868.06,-161.35C769.62,-156.35 154.71,-124.85 148.28,-118.02 133.2,-102.01 133.36,-84.7 148.28,-68.53 190.14,-23.15 642.1,-17.93 756.89,-17.34"/>
<polygon fill="red" stroke="red" stroke-width="0.34" points="756.94,-20.84 766.92,-17.29 756.9,-13.84 756.94,-20.84"/>
</g>
<!-- &#45;2&#45;&gt;2 -->
<g id="edge127" class="edge">
<title>&#45;2&#45;&gt;2</title>
<path fill="none" stroke="green" stroke-width="0.21" d="M894.46,-160.92C913.11,-159.36 948.3,-156.43 978.28,-154.02 1029.71,-149.9 1406.24,-155.9 1441.28,-118.02 1456.22,-101.88 1455.17,-85.58 1441.28,-68.53 1413.57,-34.5 1278.26,-22.37 1220.02,-18.68"/>
<polygon fill="green" stroke="green" stroke-width="0.21" points="1219.96,-15.17 1209.77,-18.06 1219.55,-22.15 1219.96,-15.17"/>
</g>
<!-- &#45;2&#45;&gt;3 -->
<g id="edge128" class="edge">
<title>&#45;2&#45;&gt;3</title>
<path fill="none" stroke="red" stroke-width="0.57" d="M868.19,-161.58C802.57,-159.25 511.46,-147.27 485.28,-118.02 470.61,-101.63 470.41,-84.74 485.28,-68.53 516.56,-34.41 854.65,-40.26 900.28,-32.53 911.73,-30.59 924.19,-27.57 934.78,-24.73"/>
<polygon fill="red" stroke="red" stroke-width="0.57" points="935.94,-28.04 944.64,-21.99 934.07,-21.29 935.94,-28.04"/>
</g>
<!-- &#45;2&#45;&gt;4 -->
<g id="edge129" class="edge">
<title>&#45;2&#45;&gt;4</title>
<path fill="none" stroke="green" stroke-width="0.14" d="M868.27,-161.53C804.31,-158.96 525.36,-146.17 500.28,-118.02 485.64,-101.6 485.31,-84.65 500.28,-68.53 537.05,-28.93 931.73,-39.79 985.28,-32.53 1002.45,-30.2 1021.56,-26.42 1036.44,-23.2"/>
<polygon fill="green" stroke="green" stroke-width="0.14" points="1037.44,-26.57 1046.45,-20.99 1035.93,-19.73 1037.44,-26.57"/>
</g>
<!-- &#45;2&#45;&gt;5 -->
<g id="edge130" class="edge">
<title>&#45;2&#45;&gt;5</title>
<path fill="none" stroke="green" stroke-width="0.3" d="M868.02,-161.34C770.62,-156.26 169.57,-124.71 163.28,-118.02 148.21,-102 148.16,-84.51 163.28,-68.53 212.6,-16.38 737.2,-42.53 808.28,-32.53 822.22,-30.56 837.54,-27.17 850,-24.08"/>
<polygon fill="green" stroke="green" stroke-width="0.3" points="850.9,-27.46 859.71,-21.59 849.16,-20.68 850.9,-27.46"/>
</g>
<!-- &#45;2&#45;&gt;320 -->
<g id="edge15" class="edge">
<title>&#45;2&#45;&gt;320</title>
<path fill="none" stroke="green" stroke-width="0.17" d="M894.4,-159.63C920.78,-154.48 981.67,-140.96 1028.28,-118.02 1030.08,-117.14 1031.9,-116.15 1033.69,-115.1"/>
<polygon fill="green" stroke="green" stroke-width="0.17" points="1035.91,-117.84 1042.42,-109.47 1032.12,-111.95 1035.91,-117.84"/>
</g>
<!-- &#45;2&#45;&gt;321 -->
<g id="edge16" class="edge">
<title>&#45;2&#45;&gt;321</title>
<path fill="none" stroke="green" stroke-width="0.66" d="M894.36,-161.07C947.06,-157.1 1143.74,-141.02 1201.28,-118.02 1203.15,-117.28 1205.01,-116.4 1206.84,-115.44"/>
<polygon fill="green" stroke="green" stroke-width="0.66" points="1208.97,-118.24 1215.67,-110.04 1205.31,-112.27 1208.97,-118.24"/>
</g>
<!-- &#45;2&#45;&gt;322 -->
<g id="edge17" class="edge">
<title>&#45;2&#45;&gt;322</title>
<path fill="none" stroke="red" stroke-width="0.16" d="M894.44,-160.89C953.49,-155.77 1194.3,-134.25 1268.28,-118.02 1281.34,-115.16 1295.37,-110.83 1307.54,-106.65"/>
<polygon fill="red" stroke="red" stroke-width="0.16" points="1309.01,-109.84 1317.27,-103.21 1306.68,-103.24 1309.01,-109.84"/>
</g>
<!-- &#45;2&#45;&gt;323 -->
<g id="edge18" class="edge">
<title>&#45;2&#45;&gt;323</title>
<path fill="none" stroke="green" stroke-width="0.13" d="M868.15,-162.39C823.94,-163.17 677.12,-162.09 567.28,-118.02 565.41,-117.28 563.55,-116.4 561.72,-115.43"/>
<polygon fill="green" stroke="green" stroke-width="0.13" points="563.25,-112.27 552.9,-110.03 559.59,-118.23 563.25,-112.27"/>
</g>
<!-- &#45;2&#45;&gt;324 -->
<g id="edge19" class="edge">
<title>&#45;2&#45;&gt;324</title>
<path fill="none" stroke="green" stroke-width="0.29" d="M869.65,-153.99C855.5,-144.2 831.09,-127.33 811.82,-114.01"/>
<polygon fill="green" stroke="green" stroke-width="0.29" points="813.61,-110.99 803.39,-108.18 809.63,-116.74 813.61,-110.99"/>
</g>
<!-- &#45;2&#45;&gt;325 -->
<g id="edge20" class="edge">
<title>&#45;2&#45;&gt;325</title>
<path fill="none" stroke="red" stroke-width="0.41" d="M868.03,-161.3C830.9,-158.92 723.16,-149.58 640.28,-118.02 636.82,-116.71 633.32,-115.08 629.91,-113.29"/>
<polygon fill="red" stroke="red" stroke-width="0.41" points="631.62,-110.24 621.2,-108.33 628.15,-116.32 631.62,-110.24"/>
</g>
<!-- &#45;2&#45;&gt;316 -->
<g id="edge11" class="edge">
<title>&#45;2&#45;&gt;316</title>
<path fill="none" stroke="red" stroke-width="0.56" d="M894.43,-159.87C928.12,-154.22 1020.15,-138.07 1095.28,-118.02 1108.2,-114.58 1122.2,-110.13 1134.39,-106.01"/>
<polygon fill="red" stroke="red" stroke-width="0.56" points="1135.82,-109.22 1144.14,-102.67 1133.54,-102.6 1135.82,-109.22"/>
</g>
<!-- &#45;2&#45;&gt;317 -->
<g id="edge12" class="edge">
<title>&#45;2&#45;&gt;317</title>
<path fill="none" stroke="red" stroke-width="0.37" d="M894.38,-160.95C971.44,-154.63 1362.67,-122.35 1374.28,-118.02 1376.17,-117.32 1378.04,-116.48 1379.88,-115.54"/>
<polygon fill="red" stroke="red" stroke-width="0.37" points="1381.97,-118.37 1388.73,-110.21 1378.36,-112.37 1381.97,-118.37"/>
</g>
<!-- &#45;2&#45;&gt;318 -->
<g id="edge13" class="edge">
<title>&#45;2&#45;&gt;318</title>
<path fill="none" stroke="red" stroke-width="0.56" d="M886.74,-153.99C892.01,-146.22 900.31,-134 908.03,-122.63"/>
<polygon fill="red" stroke="red" stroke-width="0.56" points="911.04,-124.43 913.76,-114.19 905.25,-120.49 911.04,-124.43"/>
</g>
<!-- &#45;2&#45;&gt;319 -->
<g id="edge14" class="edge">
<title>&#45;2&#45;&gt;319</title>
<path fill="none" stroke="red" stroke-width="0.44" d="M894.3,-155.48C910.37,-147.27 938.36,-132.5 961.28,-118.02 962.94,-116.98 964.62,-115.88 966.31,-114.75"/>
<polygon fill="red" stroke="red" stroke-width="0.44" points="968.42,-117.55 974.65,-108.99 964.44,-111.79 968.42,-117.55"/>
</g>
<!-- &#45;3 -->
<g id="node3" class="node">
<title>&#45;3</title>
<polygon fill="lightgray" stroke="black" points="1013.28,-172.02 987.28,-172.02 987.28,-154.02 1013.28,-154.02 1013.28,-172.02"/>
<text text-anchor="middle" x="1000.28" y="-160.82" font-family="Times-Roman" font-size="9.00">&#45;3</text>
</g>
<!-- &#45;3&#45;&gt;0 -->
<g id="edge131" class="edge">
<title>&#45;3&#45;&gt;0</title>
<path fill="none" stroke="red" stroke-width="0.3" d="M1013.54,-157.67C1018.16,-156.31 1023.41,-154.92 1028.28,-154.02 1073.58,-145.66 1410.15,-151.98 1441.28,-118.02 1456.14,-101.81 1455.78,-85.07 1441.28,-68.53 1400.94,-22.52 1226.46,-51.49 1168.28,-32.53 1166.38,-31.91 1164.47,-31.16 1162.58,-30.34"/>
<polygon fill="red" stroke="red" stroke-width="0.3" points="1164,-27.14 1153.5,-25.77 1160.86,-33.39 1164,-27.14"/>
</g>
<!-- &#45;3&#45;&gt;1 -->
<g id="edge132" class="edge">
<title>&#45;3&#45;&gt;1</title>
<path fill="none" stroke="green" stroke-width="0.54" d="M987.1,-160.91C968.45,-159.34 933.26,-156.4 903.28,-154.02 850.85,-149.86 467.03,-156.6 431.28,-118.02 416.33,-101.89 416.89,-85.17 431.28,-68.53 473.55,-19.66 681.91,-16.43 756.59,-16.88"/>
<polygon fill="green" stroke="green" stroke-width="0.54" points="756.96,-20.38 766.99,-16.97 757.02,-13.38 756.96,-20.38"/>
</g>
<!-- &#45;3&#45;&gt;2 -->
<g id="edge133" class="edge">
<title>&#45;3&#45;&gt;2</title>
<path fill="none" stroke="red" stroke-width="0.25" stroke-dasharray="1,5" d="M1013.54,-157.66C1018.16,-156.3 1023.41,-154.91 1028.28,-154.02 1075.66,-145.37 1427.67,-153.47 1460.28,-118.02 1531.57,-40.55 1300.53,-22.27 1219.96,-18.29"/>
<polygon fill="red" stroke="red" stroke-width="0.25" points="1219.78,-14.78 1209.63,-17.82 1219.46,-21.77 1219.78,-14.78"/>
</g>
<!-- &#45;3&#45;&gt;3 -->
<g id="edge134" class="edge">
<title>&#45;3&#45;&gt;3</title>
<path fill="none" stroke="green" stroke-width="0.49" d="M987.22,-160.94C908.68,-154.38 502.41,-120.35 500.28,-118.02 485.42,-101.8 485.44,-84.76 500.28,-68.53 530.39,-35.59 856.29,-40.05 900.28,-32.53 911.72,-30.57 924.19,-27.55 934.78,-24.71"/>
<polygon fill="green" stroke="green" stroke-width="0.49" points="935.93,-28.02 944.64,-21.97 934.06,-21.27 935.93,-28.02"/>
</g>
<!-- &#45;3&#45;&gt;4 -->
<g id="edge135" class="edge">
<title>&#45;3&#45;&gt;4</title>
<path fill="none" stroke="red" stroke-width="0.25" d="M1013.3,-157.93C1017.99,-156.55 1023.34,-155.1 1028.28,-154.02 1080.98,-142.59 1233.09,-158.89 1268.28,-118.02 1282.64,-101.35 1281.94,-85.77 1268.28,-68.53 1224.91,-13.77 1182.86,-50.2 1115.28,-32.53 1106.22,-30.16 1096.36,-27.37 1087.62,-24.84"/>
<polygon fill="red" stroke="red" stroke-width="0.25" points="1088.57,-21.47 1077.99,-22.01 1086.6,-28.19 1088.57,-21.47"/>
</g>
<!-- &#45;3&#45;&gt;5 -->
<g id="edge136" class="edge">
<title>&#45;3&#45;&gt;5</title>
<path fill="none" stroke="red" stroke-width="0.13" d="M987.06,-160.93C906.63,-154.23 486.38,-119.22 485.28,-118.02 314.86,67.57 141.85,-145.21 808.28,-32.53 822.16,-30.18 837.47,-26.76 849.95,-23.74"/>
<polygon fill="red" stroke="red" stroke-width="0.13" points="850.81,-27.14 859.68,-21.34 849.13,-20.34 850.81,-27.14"/>
</g>
<!-- &#45;3&#45;&gt;320 -->
<g id="edge25" class="edge">
<title>&#45;3&#45;&gt;320</title>
<path fill="none" stroke="red" stroke-width="0.38" d="M1007.52,-153.99C1015.08,-145.59 1027.33,-131.98 1038.23,-119.88"/>
<polygon fill="red" stroke="red" stroke-width="0.38" points="1041.05,-121.98 1045.14,-112.21 1035.84,-117.3 1041.05,-121.98"/>
</g>
<!-- &#45;3&#45;&gt;321 -->
<g id="edge26" class="edge">
<title>&#45;3&#45;&gt;321</title>
<path fill="none" stroke="green" stroke-width="0.2" d="M1013.33,-158.08C1018.02,-156.72 1023.37,-155.23 1028.28,-154.02 1104.53,-135.22 1129.39,-149.65 1201.28,-118.02 1203.12,-117.21 1204.96,-116.29 1206.78,-115.29"/>
<polygon fill="green" stroke="green" stroke-width="0.2" points="1208.95,-118.06 1215.56,-109.78 1205.23,-112.13 1208.95,-118.06"/>
</g>
<!-- &#45;3&#45;&gt;322 -->
<g id="edge27" class="edge">
<title>&#45;3&#45;&gt;322</title>
<path fill="none" stroke="red" stroke-width="0.1" d="M1013.29,-157.88C1017.97,-156.5 1023.33,-155.05 1028.28,-154.02 1148.11,-129.15 1185.86,-158.73 1301.28,-118.02 1304.77,-116.79 1308.29,-115.22 1311.71,-113.47"/>
<polygon fill="red" stroke="red" stroke-width="0.1" points="1313.45,-116.5 1320.44,-108.54 1310.01,-110.41 1313.45,-116.5"/>
</g>
<!-- &#45;3&#45;&gt;323 -->
<g id="edge28" class="edge">
<title>&#45;3&#45;&gt;323</title>
<path fill="none" stroke="red" stroke-width="0.35" d="M987.06,-160.88C916.58,-154.72 587.46,-125.68 567.28,-118.02 565.4,-117.31 563.53,-116.46 561.69,-115.52"/>
<polygon fill="red" stroke="red" stroke-width="0.35" points="563.21,-112.35 552.84,-110.17 559.59,-118.34 563.21,-112.35"/>
</g>
<!-- &#45;3&#45;&gt;324 -->
<g id="edge29" class="edge">
<title>&#45;3&#45;&gt;324</title>
<path fill="none" stroke="green" stroke-width="0.21" d="M987.03,-157.89C953.61,-147.45 865.09,-119.82 816.45,-104.63"/>
<polygon fill="green" stroke="green" stroke-width="0.21" points="817.3,-101.23 806.71,-101.59 815.21,-107.91 817.3,-101.23"/>
</g>
<!-- &#45;3&#45;&gt;325 -->
<g id="edge30" class="edge">
<title>&#45;3&#45;&gt;325</title>
<path fill="none" stroke="red" stroke-width="0.55" stroke-dasharray="1,5" d="M987.19,-160.76C926.47,-154.83 673.74,-129.65 640.28,-118.02 636.78,-116.81 633.26,-115.24 629.84,-113.5"/>
<polygon fill="red" stroke="red" stroke-width="0.55" points="631.54,-110.44 621.11,-108.58 628.1,-116.54 631.54,-110.44"/>
</g>
<!-- &#45;3&#45;&gt;316 -->
<g id="edge21" class="edge">
<title>&#45;3&#45;&gt;316</title>
<path fill="none" stroke="green" stroke-width="0.33" d="M1013.38,-156.71C1039.43,-146.14 1098.37,-122.23 1135.28,-107.26"/>
<polygon fill="green" stroke="green" stroke-width="0.33" points="1136.66,-110.47 1144.61,-103.47 1134.03,-103.99 1136.66,-110.47"/>
</g>
<!-- &#45;3&#45;&gt;317 -->
<g id="edge22" class="edge">
<title>&#45;3&#45;&gt;317</title>
<path fill="none" stroke="green" stroke-width="0.4" d="M1013.55,-157.72C1018.17,-156.36 1023.42,-154.96 1028.28,-154.02 1180.08,-124.68 1229.79,-173.03 1374.28,-118.02 1376.16,-117.31 1378.03,-116.46 1379.87,-115.51"/>
<polygon fill="green" stroke="green" stroke-width="0.4" points="1381.97,-118.33 1388.71,-110.16 1378.35,-112.34 1381.97,-118.33"/>
</g>
<!-- &#45;3&#45;&gt;318 -->
<g id="edge23" class="edge">
<title>&#45;3&#45;&gt;318</title>
<path fill="none" stroke="green" stroke-width="0.64" d="M991.62,-153.99C982.08,-145.14 966.31,-130.5 952.77,-117.93"/>
<polygon fill="green" stroke="green" stroke-width="0.64" points="954.83,-115.07 945.12,-110.83 950.06,-120.2 954.83,-115.07"/>
</g>
<!-- &#45;3&#45;&gt;319 -->
<g id="edge24" class="edge">
<title>&#45;3&#45;&gt;319</title>
<path fill="none" stroke="green" stroke-width="0.2" d="M999.57,-153.99C998.99,-147.43 998.13,-137.7 997.26,-127.98"/>
<polygon fill="green" stroke="green" stroke-width="0.2" points="1000.75,-127.65 996.38,-118 993.78,-128.27 1000.75,-127.65"/>
</g>
<!-- &#45;4 -->
<g id="node4" class="node">
<title>&#45;4</title>
<polygon fill="lightgray" stroke="black" points="705.28,-172.02 679.28,-172.02 679.28,-154.02 705.28,-154.02 705.28,-172.02"/>
<text text-anchor="middle" x="692.28" y="-160.82" font-family="Times-Roman" font-size="9.00">&#45;4</text>
</g>
<!-- &#45;4&#45;&gt;0 -->
<g id="edge137" class="edge">
<title>&#45;4&#45;&gt;0</title>
<path fill="none" stroke="green" stroke-width="0.24" d="M679.22,-161.08C639.72,-157.94 522.87,-146.38 500.28,-118.02 486.57,-100.82 485.21,-84.55 500.28,-68.53 545.05,-20.93 1022.89,-43.64 1087.28,-32.53 1096.64,-30.91 1106.7,-28.26 1115.52,-25.61"/>
<polygon fill="green" stroke="green" stroke-width="0.24" points="1116.69,-28.91 1125.18,-22.57 1114.59,-22.23 1116.69,-28.91"/>
</g>
<!-- &#45;4&#45;&gt;1 -->
<g id="edge138" class="edge">
<title>&#45;4&#45;&gt;1</title>
<path fill="none" stroke="green" stroke-width="0.18" d="M679.11,-162.23C588.41,-163.48 58.68,-168.59 11.28,-118.02 -3.77,-101.98 -3.75,-84.59 11.28,-68.53 63.23,-13.02 627.1,-15.6 756.79,-16.93"/>
<polygon fill="green" stroke="green" stroke-width="0.18" points="756.96,-20.44 767,-17.05 757.04,-13.44 756.96,-20.44"/>
</g>
<!-- &#45;4&#45;&gt;2 -->
<g id="edge139" class="edge">
<title>&#45;4&#45;&gt;2</title>
<path fill="none" stroke="green" stroke-width="0.29" d="M694.46,-154C700.02,-135.27 716.64,-88.76 749.28,-68.53 828.15,-19.65 1076.44,-59.3 1165.28,-32.53 1167.19,-31.95 1169.11,-31.24 1171.01,-30.43"/>
<polygon fill="green" stroke="green" stroke-width="0.29" points="1172.72,-33.49 1180.1,-25.9 1169.59,-27.23 1172.72,-33.49"/>
</g>
<!-- &#45;4&#45;&gt;3 -->
<g id="edge140" class="edge">
<title>&#45;4&#45;&gt;3</title>
<path fill="none" stroke="green" stroke-width="0.11" d="M679.08,-161.51C635.45,-159.51 497.09,-150.67 470.28,-118.02 456.32,-101.02 455.39,-84.72 470.28,-68.53 502.74,-33.24 853,-40.46 900.28,-32.53 911.73,-30.61 924.2,-27.59 934.78,-24.74"/>
<polygon fill="green" stroke="green" stroke-width="0.11" points="935.94,-28.05 944.64,-22 934.07,-21.31 935.94,-28.05"/>
</g>
<!-- &#45;4&#45;&gt;4 -->
<g id="edge141" class="edge">
<title>&#45;4&#45;&gt;4</title>
<path fill="none" stroke="red" stroke-width="0.22" d="M678.98,-161.5C614.9,-158.83 340.03,-145.83 315.28,-118.02 300.65,-101.59 300.15,-84.49 315.28,-68.53 366.56,-14.42 911.31,-41.8 985.28,-32.53 1002.47,-30.37 1021.58,-26.59 1036.46,-23.33"/>
<polygon fill="red" stroke="red" stroke-width="0.22" points="1037.47,-26.69 1046.46,-21.08 1035.94,-19.86 1037.47,-26.69"/>
</g>
<!-- &#45;4&#45;&gt;5 -->
<g id="edge142" class="edge">
<title>&#45;4&#45;&gt;5</title>
<path fill="none" stroke="red" stroke-width="0.21" d="M679,-162.17C590.99,-163.03 93.81,-165.71 49.28,-118.02 34.26,-101.95 34.1,-84.45 49.28,-68.53 78.41,-37.98 766.45,-38.24 808.28,-32.53 822.22,-30.62 837.54,-27.23 850.01,-24.13"/>
<polygon fill="red" stroke="red" stroke-width="0.21" points="850.91,-27.51 859.72,-21.63 849.16,-20.73 850.91,-27.51"/>
</g>
<!-- &#45;4&#45;&gt;320 -->
<g id="edge35" class="edge">
<title>&#45;4&#45;&gt;320</title>
<path fill="none" stroke="red" stroke-width="0.3" d="M705.64,-161.15C760.41,-157.43 967.7,-142.01 1028.28,-118.02 1030.15,-117.28 1032.01,-116.41 1033.85,-115.45"/>
<polygon fill="red" stroke="red" stroke-width="0.3" points="1035.97,-118.26 1042.68,-110.06 1032.32,-112.29 1035.97,-118.26"/>
</g>
<!-- &#45;4&#45;&gt;321 -->
<g id="edge36" class="edge">
<title>&#45;4&#45;&gt;321</title>
<path fill="none" stroke="green" stroke-width="0.46" d="M705.48,-161.3C780.71,-157.14 1153.46,-135.75 1201.28,-118.02 1203.17,-117.33 1205.04,-116.49 1206.88,-115.55"/>
<polygon fill="green" stroke="green" stroke-width="0.46" points="1208.97,-118.38 1215.74,-110.22 1205.37,-112.38 1208.97,-118.38"/>
</g>
<!-- &#45;4&#45;&gt;323 -->
<g id="edge37" class="edge">
<title>&#45;4&#45;&gt;323</title>
<path fill="none" stroke="red" stroke-width="0.41" d="M679,-158.7C655.59,-152.54 605.83,-138.15 567.28,-118.02 565.5,-117.09 563.7,-116.08 561.92,-115"/>
<polygon fill="red" stroke="red" stroke-width="0.41" points="563.51,-111.86 553.23,-109.31 559.67,-117.71 563.51,-111.86"/>
</g>
<!-- &#45;4&#45;&gt;324 -->
<g id="edge38" class="edge">
<title>&#45;4&#45;&gt;324</title>
<path fill="none" stroke="red" stroke-width="0.31" stroke-dasharray="1,5" d="M703.08,-153.99C715.94,-144.41 737.92,-128.04 755.62,-114.87"/>
<polygon fill="red" stroke="red" stroke-width="0.31" points="757.98,-117.48 763.91,-108.7 753.8,-111.86 757.98,-117.48"/>
</g>
<!-- &#45;4&#45;&gt;325 -->
<g id="edge39" class="edge">
<title>&#45;4&#45;&gt;325</title>
<path fill="none" stroke="red" stroke-width="0.1" d="M681.48,-153.99C668.62,-144.41 646.64,-128.04 628.94,-114.87"/>
<polygon fill="red" stroke="red" stroke-width="0.1" points="630.76,-111.86 620.65,-108.7 626.58,-117.48 630.76,-111.86"/>
</g>
<!-- &#45;4&#45;&gt;316 -->
<g id="edge31" class="edge">
<title>&#45;4&#45;&gt;316</title>
<path fill="none" stroke="green" stroke-width="0.25" d="M705.31,-161.59C755.95,-159.71 944.31,-150.78 1095.28,-118.02 1108.34,-115.19 1122.37,-110.87 1134.55,-106.68"/>
<polygon fill="green" stroke="green" stroke-width="0.25" points="1136.02,-109.87 1144.28,-103.23 1133.68,-103.28 1136.02,-109.87"/>
</g>
<!-- &#45;4&#45;&gt;317 -->
<g id="edge32" class="edge">
<title>&#45;4&#45;&gt;317</title>
<path fill="none" stroke="red" stroke-width="0.19" d="M705.5,-161.38C797.69,-156.86 1341.57,-129.74 1374.28,-118.02 1376.17,-117.35 1378.05,-116.52 1379.9,-115.6"/>
<polygon fill="red" stroke="red" stroke-width="0.19" points="1381.98,-118.44 1388.77,-110.3 1378.39,-112.43 1381.98,-118.44"/>
</g>
<!-- &#45;4&#45;&gt;318 -->
<g id="edge33" class="edge">
<title>&#45;4&#45;&gt;318</title>
<path fill="none" stroke="green" stroke-width="0.31" d="M705.59,-158.19C741.45,-147.85 840.95,-119.16 893.6,-103.98"/>
<polygon fill="green" stroke="green" stroke-width="0.31" points="894.84,-107.27 903.48,-101.14 892.9,-100.54 894.84,-107.27"/>
</g>
<!-- &#45;4&#45;&gt;319 -->
<g id="edge34" class="edge">
<title>&#45;4&#45;&gt;319</title>
<path fill="none" stroke="red" stroke-width="0.17" d="M705.46,-161.97C745.53,-161.38 868.82,-156.35 961.28,-118.02 963.14,-117.25 964.99,-116.36 966.82,-115.38"/>
<polygon fill="red" stroke="red" stroke-width="0.17" points="968.96,-118.17 975.63,-109.94 965.28,-112.22 968.96,-118.17"/>
</g>
<!-- &#45;5 -->
<g id="node5" class="node">
<title>&#45;5</title>
<polygon fill="lightgray" stroke="black" points="1063.28,-172.02 1037.28,-172.02 1037.28,-154.02 1063.28,-154.02 1063.28,-172.02"/>
<text text-anchor="middle" x="1050.28" y="-160.82" font-family="Times-Roman" font-size="9.00">&#45;5</text>
</g>
<!-- &#45;5&#45;&gt;0 -->
<g id="edge143" class="edge">
<title>&#45;5&#45;&gt;0</title>
<path fill="none" stroke="green" stroke-width="0.89" d="M1063.4,-160.19C1076.7,-158.38 1097.89,-155.67 1116.28,-154.02 1185.45,-147.84 1692.61,-168.53 1740.28,-118.02 1755.38,-102.03 1755.34,-84.56 1740.28,-68.53 1696.69,-22.1 1229.46,-50.19 1168.28,-32.53 1166.36,-31.97 1164.43,-31.28 1162.53,-30.48"/>
<polygon fill="green" stroke="green" stroke-width="0.89" points="1163.95,-27.28 1153.44,-25.97 1160.84,-33.55 1163.95,-27.28"/>
</g>
<!-- &#45;5&#45;&gt;1 -->
<g id="edge144" class="edge">
<title>&#45;5&#45;&gt;1</title>
<path fill="none" stroke="red" stroke-width="0.65" d="M1037.03,-157.61C1032.41,-156.24 1027.16,-154.87 1022.28,-154.02 961.28,-143.46 508.62,-163.19 466.28,-118.02 380.8,-26.83 666.49,-17.81 756.8,-17.21"/>
<polygon fill="red" stroke="red" stroke-width="0.65" points="756.82,-20.71 766.81,-17.17 756.79,-13.71 756.82,-20.71"/>
</g>
<!-- &#45;5&#45;&gt;2 -->
<g id="edge145" class="edge">
<title>&#45;5&#45;&gt;2</title>
<path fill="none" stroke="green" stroke-width="0.56" d="M1063.4,-160.14C1076.7,-158.3 1097.88,-155.56 1116.28,-154.02 1159.29,-150.43 1862.48,-149.24 1892.28,-118.02 1907.47,-102.11 1907.26,-84.64 1892.28,-68.53 1845.74,-18.45 1342.23,-16.79 1219.93,-17.13"/>
<polygon fill="green" stroke="green" stroke-width="0.56" points="1219.6,-13.63 1209.62,-17.17 1219.63,-20.63 1219.6,-13.63"/>
</g>
<!-- &#45;5&#45;&gt;3 -->
<g id="edge146" class="edge">
<title>&#45;5&#45;&gt;3</title>
<path fill="none" stroke="red" stroke-width="0.2" d="M1037.27,-157.88C1032.59,-156.5 1027.23,-155.05 1022.28,-154.02 962.37,-141.59 789.62,-164.04 749.28,-118.02 734.78,-101.48 735.65,-85.79 749.28,-68.53 792.04,-14.38 833.29,-49.03 900.28,-32.53 911.55,-29.75 923.99,-26.6 934.61,-23.88"/>
<polygon fill="red" stroke="red" stroke-width="0.2" points="935.69,-27.22 944.51,-21.35 933.95,-20.44 935.69,-27.22"/>
</g>
<!-- &#45;5&#45;&gt;4 -->
<g id="edge147" class="edge">
<title>&#45;5&#45;&gt;4</title>
<path fill="none" stroke="red" stroke-width="0.29" d="M1063.42,-160.39C1076.74,-158.75 1097.94,-156.15 1116.28,-154.02 1188.46,-145.65 1392.81,-172.16 1441.28,-118.02 1455.95,-101.63 1455.96,-84.91 1441.28,-68.53 1392.65,-14.23 1186.78,-46.66 1115.28,-32.53 1105.96,-30.68 1095.91,-27.98 1087.09,-25.35"/>
<polygon fill="red" stroke="red" stroke-width="0.29" points="1088.01,-21.98 1077.42,-22.37 1085.94,-28.66 1088.01,-21.98"/>
</g>
<!-- &#45;5&#45;&gt;5 -->
<g id="edge148" class="edge">
<title>&#45;5&#45;&gt;5</title>
<path fill="none" stroke="green" stroke-width="0.14" d="M1037.02,-157.62C1032.41,-156.25 1027.16,-154.88 1022.28,-154.02 965.02,-143.98 539.95,-160.52 500.28,-118.02 416.78,-28.57 501.42,-85.26 808.28,-32.53 822.15,-30.14 837.46,-26.72 849.95,-23.71"/>
<polygon fill="green" stroke="green" stroke-width="0.14" points="850.8,-27.11 859.67,-21.32 849.13,-20.31 850.8,-27.11"/>
</g>
<!-- &#45;5&#45;&gt;320 -->
<g id="edge44" class="edge">
<title>&#45;5&#45;&gt;320</title>
<path fill="none" stroke="red" stroke-width="0.32" d="M1051.58,-153.99C1052.65,-147.43 1054.23,-137.7 1055.81,-127.98"/>
<polygon fill="red" stroke="red" stroke-width="0.32" points="1059.28,-128.43 1057.43,-118 1052.37,-127.31 1059.28,-128.43"/>
</g>
<!-- &#45;5&#45;&gt;321 -->
<g id="edge45" class="edge">
<title>&#45;5&#45;&gt;321</title>
<path fill="none" stroke="green" stroke-width="0.27" d="M1063.35,-159.77C1090.22,-154.81 1153.17,-141.48 1201.28,-118.02 1203.09,-117.14 1204.9,-116.16 1206.7,-115.12"/>
<polygon fill="green" stroke="green" stroke-width="0.27" points="1208.91,-117.86 1215.43,-109.5 1205.13,-111.97 1208.91,-117.86"/>
</g>
<!-- &#45;5&#45;&gt;322 -->
<g id="edge46" class="edge">
<title>&#45;5&#45;&gt;322</title>
<path fill="none" stroke="green" stroke-width="0.27" d="M1063.47,-160.37C1108.62,-154.61 1256.57,-134.87 1301.28,-118.02 1304.75,-116.72 1308.25,-115.1 1311.66,-113.32"/>
<polygon fill="green" stroke="green" stroke-width="0.27" points="1313.41,-116.35 1320.37,-108.36 1309.95,-110.26 1313.41,-116.35"/>
</g>
<!-- &#45;5&#45;&gt;323 -->
<g id="edge47" class="edge">
<title>&#45;5&#45;&gt;323</title>
<path fill="none" stroke="red" stroke-width="0.28" d="M1037.02,-157.65C1032.4,-156.28 1027.16,-154.9 1022.28,-154.02 822.65,-117.98 757.74,-187.85 567.28,-118.02 565.39,-117.33 563.51,-116.5 561.67,-115.57"/>
<polygon fill="red" stroke="red" stroke-width="0.28" points="563.19,-112.4 552.81,-110.25 559.58,-118.4 563.19,-112.4"/>
</g>
<!-- &#45;5&#45;&gt;324 -->
<g id="edge48" class="edge">
<title>&#45;5&#45;&gt;324</title>
<path fill="none" stroke="red" stroke-width="0.25" d="M1037.22,-158.12C1032.52,-156.76 1027.18,-155.27 1022.28,-154.02 950.79,-135.89 931.58,-136.91 860.28,-118.02 845.84,-114.2 830.05,-109.43 816.55,-105.18"/>
<polygon fill="red" stroke="red" stroke-width="0.25" points="817.32,-101.75 806.73,-102.05 815.19,-108.42 817.32,-101.75"/>
</g>
<!-- &#45;5&#45;&gt;325 -->
<g id="edge49" class="edge">
<title>&#45;5&#45;&gt;325</title>
<path fill="none" stroke="red" stroke-width="0.22" d="M1037.01,-157.69C1032.39,-156.33 1027.15,-154.94 1022.28,-154.02 854.7,-122.47 802.13,-171.74 640.28,-118.02 636.76,-116.86 633.23,-115.32 629.8,-113.6"/>
<polygon fill="red" stroke="red" stroke-width="0.22" points="631.5,-110.54 621.07,-108.7 628.08,-116.64 631.5,-110.54"/>
</g>
<!-- &#45;5&#45;&gt;316 -->
<g id="edge40" class="edge">
<title>&#45;5&#45;&gt;316</title>
<path fill="none" stroke="red" stroke-width="0.39" d="M1063.7,-154.25C1081.51,-143.94 1113.45,-125.45 1137.17,-111.71"/>
<polygon fill="red" stroke="red" stroke-width="0.39" points="1139.23,-114.56 1146.13,-106.52 1135.72,-108.51 1139.23,-114.56"/>
</g>
<!-- &#45;5&#45;&gt;317 -->
<g id="edge41" class="edge">
<title>&#45;5&#45;&gt;317</title>
<path fill="none" stroke="red" stroke-width="0.22" d="M1063.51,-160.41C1122.53,-153.18 1359.52,-123.91 1374.28,-118.02 1376.15,-117.28 1378.01,-116.41 1379.84,-115.44"/>
<polygon fill="red" stroke="red" stroke-width="0.22" points="1381.97,-118.25 1388.67,-110.04 1378.31,-112.28 1381.97,-118.25"/>
</g>
<!-- &#45;5&#45;&gt;318 -->
<g id="edge42" class="edge">
<title>&#45;5&#45;&gt;318</title>
<path fill="none" stroke="red" stroke-width="0.37" d="M1037.1,-156.42C1019.24,-148.65 986.55,-133.74 960.28,-118.02 958.6,-117.02 956.89,-115.95 955.19,-114.85"/>
<polygon fill="red" stroke="red" stroke-width="0.37" points="957.04,-111.88 946.81,-109.15 953.11,-117.67 957.04,-111.88"/>
</g>
<!-- &#45;5&#45;&gt;319 -->
<g id="edge43" class="edge">
<title>&#45;5&#45;&gt;319</title>
<path fill="none" stroke="green" stroke-width="0.14" d="M1043.64,-153.99C1036.86,-145.78 1025.96,-132.61 1016.14,-120.72"/>
<polygon fill="green" stroke="green" stroke-width="0.14" points="1018.63,-118.24 1009.56,-112.77 1013.24,-122.7 1018.63,-118.24"/>
</g>
<!-- &#45;6 -->
<g id="node6" class="node">
<title>&#45;6</title>
<polygon fill="lightgray" stroke="black" points="1209.28,-172.02 1183.28,-172.02 1183.28,-154.02 1209.28,-154.02 1209.28,-172.02"/>
<text text-anchor="middle" x="1196.28" y="-160.82" font-family="Times-Roman" font-size="9.00">&#45;6</text>
</g>
<!-- &#45;6&#45;&gt;0 -->
<g id="edge149" class="edge">
<title>&#45;6&#45;&gt;0</title>
<path fill="none" stroke="red" stroke-width="0.22" d="M1209.5,-162.11C1293.95,-162.49 1755.88,-162.57 1797.28,-118.02 1812.26,-101.91 1812.38,-84.52 1797.28,-68.53 1749.22,-17.63 1235.59,-51.75 1168.28,-32.53 1166.36,-31.98 1164.43,-31.28 1162.53,-30.49"/>
<polygon fill="red" stroke="red" stroke-width="0.22" points="1163.95,-27.29 1153.43,-25.99 1160.84,-33.56 1163.95,-27.29"/>
</g>
<!-- &#45;6&#45;&gt;1 -->
<g id="edge150" class="edge">
<title>&#45;6&#45;&gt;1</title>
<path fill="none" stroke="green" stroke-width="0.57" d="M1182.86,-154.32C1169.46,-146.27 1148.71,-132.77 1133.28,-118.02 1113.23,-98.86 1119.2,-82.57 1095.28,-68.53 1000.38,-12.8 958.46,-52.77 850.28,-32.53 836.45,-29.94 821.13,-26.49 808.64,-23.53"/>
<polygon fill="green" stroke="green" stroke-width="0.57" points="809.45,-20.13 798.91,-21.19 807.81,-26.93 809.45,-20.13"/>
</g>
<!-- &#45;6&#45;&gt;2 -->
<g id="edge151" class="edge">
<title>&#45;6&#45;&gt;2</title>
<path fill="none" stroke="green" stroke-width="0.53" d="M1209.5,-161.78C1309.28,-159.89 1941.11,-146.78 1968.28,-118.02 1983.39,-102.03 1983.31,-84.59 1968.28,-68.53 1916.12,-12.81 1350.07,-15.55 1219.87,-16.93"/>
<polygon fill="green" stroke="green" stroke-width="0.53" points="1219.58,-13.43 1209.62,-17.04 1219.66,-20.43 1219.58,-13.43"/>
</g>
<!-- &#45;6&#45;&gt;3 -->
<g id="edge152" class="edge">
<title>&#45;6&#45;&gt;3</title>
<path fill="none" stroke="red" stroke-width="0.25" d="M1209.5,-161.96C1258.35,-161.43 1427.47,-156.76 1460.28,-118.02 1474.5,-101.24 1475.16,-84.73 1460.28,-68.53 1428.37,-33.79 1083.99,-39.12 1037.28,-32.53 1020.12,-30.1 1001.02,-26.32 986.13,-23.13"/>
<polygon fill="red" stroke="red" stroke-width="0.25" points="986.64,-19.66 976.12,-20.94 985.14,-26.5 986.64,-19.66"/>
</g>
<!-- &#45;6&#45;&gt;4 -->
<g id="edge153" class="edge">
<title>&#45;6&#45;&gt;4</title>
<path fill="none" stroke="red" stroke-width="0.2" d="M1209.39,-162.05C1274.63,-161.76 1558.14,-155.57 1479.28,-68.53 1424.71,-8.29 1195.11,-47.84 1115.28,-32.53 1105.95,-30.74 1095.9,-28.04 1087.08,-25.41"/>
<polygon fill="red" stroke="red" stroke-width="0.2" points="1088,-22.04 1077.41,-22.42 1085.92,-28.72 1088,-22.04"/>
</g>
<!-- &#45;6&#45;&gt;5 -->
<g id="edge154" class="edge">
<title>&#45;6&#45;&gt;5</title>
<path fill="none" stroke="green" stroke-width="0.21" d="M1209.51,-161.78C1256.08,-160.6 1411.2,-153.99 1441.28,-118.02 1455.39,-101.15 1456.27,-84.62 1441.28,-68.53 1402.86,-27.28 990.92,-41.51 935.28,-32.53 923.82,-30.68 911.35,-27.67 900.76,-24.81"/>
<polygon fill="green" stroke="green" stroke-width="0.21" points="901.48,-21.38 890.91,-22.06 899.6,-28.12 901.48,-21.38"/>
</g>
<!-- &#45;6&#45;&gt;320 -->
<g id="edge54" class="edge">
<title>&#45;6&#45;&gt;320</title>
<path fill="none" stroke="green" stroke-width="0.38" d="M1183,-156.52C1164.25,-148.63 1129.1,-133.34 1100.28,-118.02 1097.18,-116.38 1093.98,-114.58 1090.81,-112.75"/>
<polygon fill="green" stroke="green" stroke-width="0.38" points="1092.45,-109.66 1082.07,-107.55 1088.87,-115.67 1092.45,-109.66"/>
</g>
<!-- &#45;6&#45;&gt;321 -->
<g id="edge55" class="edge">
<title>&#45;6&#45;&gt;321</title>
<path fill="none" stroke="red" stroke-width="0.1" d="M1200.79,-153.99C1204.94,-146.59 1211.35,-135.16 1217.46,-124.26"/>
<polygon fill="red" stroke="red" stroke-width="0.1" points="1220.62,-125.78 1222.46,-115.34 1214.52,-122.35 1220.62,-125.78"/>
</g>
<!-- &#45;6&#45;&gt;322 -->
<g id="edge56" class="edge">
<title>&#45;6&#45;&gt;322</title>
<path fill="none" stroke="green" stroke-width="0.49" d="M1209.5,-157.22C1229.69,-149.72 1269.24,-134.38 1301.28,-118.02 1304.58,-116.34 1307.98,-114.48 1311.32,-112.56"/>
<polygon fill="green" stroke="green" stroke-width="0.49" points="1313.15,-115.55 1319.96,-107.44 1309.58,-109.53 1313.15,-115.55"/>
</g>
<!-- &#45;6&#45;&gt;323 -->
<g id="edge57" class="edge">
<title>&#45;6&#45;&gt;323</title>
<path fill="none" stroke="green" stroke-width="0.4" d="M1183.04,-158.56C1176.27,-156.92 1167.89,-155.09 1160.28,-154.02 1029.54,-135.65 691.64,-162.33 567.28,-118.02 565.38,-117.35 563.5,-116.53 561.65,-115.61"/>
<polygon fill="green" stroke="green" stroke-width="0.4" points="563.17,-112.43 552.79,-110.32 559.58,-118.45 563.17,-112.43"/>
</g>
<!-- &#45;6&#45;&gt;324 -->
<g id="edge58" class="edge">
<title>&#45;6&#45;&gt;324</title>
<path fill="none" stroke="red" stroke-width="0.15" d="M1183,-158.79C1176.23,-157.21 1167.84,-155.37 1160.28,-154.02 1042.4,-133.02 1011.23,-138.68 893.28,-118.02 867.65,-113.54 838.91,-107.29 817.23,-102.33"/>
<polygon fill="red" stroke="red" stroke-width="0.15" points="817.74,-98.85 807.21,-100.01 816.16,-105.67 817.74,-98.85"/>
</g>
<!-- &#45;6&#45;&gt;325 -->
<g id="edge59" class="edge">
<title>&#45;6&#45;&gt;325</title>
<path fill="none" stroke="red" stroke-width="0.4" d="M1183.02,-158.64C1176.26,-157.03 1167.87,-155.2 1160.28,-154.02 979.06,-126.08 931.26,-140.56 749.28,-118.02 710.12,-113.17 665.43,-105.74 635.5,-100.48"/>
<polygon fill="red" stroke="red" stroke-width="0.4" points="636.02,-97.02 625.56,-98.72 634.8,-103.91 636.02,-97.02"/>
</g>
<!-- &#45;6&#45;&gt;316 -->
<g id="edge50" class="edge">
<title>&#45;6&#45;&gt;316</title>
<path fill="none" stroke="green" stroke-width="0.27" d="M1192.84,-153.99C1189.81,-146.9 1185.19,-136.11 1180.7,-125.63"/>
<polygon fill="green" stroke="green" stroke-width="0.27" points="1183.83,-124.03 1176.67,-116.22 1177.39,-126.79 1183.83,-124.03"/>
</g>
<!-- &#45;6&#45;&gt;317 -->
<g id="edge51" class="edge">
<title>&#45;6&#45;&gt;317</title>
<path fill="none" stroke="green" stroke-width="0.22" d="M1209.36,-160.52C1239.59,-156.69 1316.2,-144.88 1374.28,-118.02 1376.11,-117.18 1377.93,-116.23 1379.74,-115.21"/>
<polygon fill="green" stroke="green" stroke-width="0.22" points="1381.93,-117.96 1388.5,-109.65 1378.18,-112.05 1381.93,-117.96"/>
</g>
<!-- &#45;6&#45;&gt;318 -->
<g id="edge52" class="edge">
<title>&#45;6&#45;&gt;318</title>
<path fill="none" stroke="red" stroke-width="0.7" d="M1182.97,-158.93C1176.19,-157.39 1167.81,-155.54 1160.28,-154.02 1071.73,-136.22 1043.43,-153.27 960.28,-118.02 958.43,-117.24 956.58,-116.33 954.76,-115.35"/>
<polygon fill="red" stroke="red" stroke-width="0.7" points="956.3,-112.18 945.96,-109.88 952.61,-118.13 956.3,-112.18"/>
</g>
<!-- &#45;6&#45;&gt;319 -->
<g id="edge53" class="edge">
<title>&#45;6&#45;&gt;319</title>
<path fill="none" stroke="green" stroke-width="0.16" d="M1183.27,-158.93C1146.18,-150.07 1041.69,-124.79 1027.28,-118.02 1025.46,-117.17 1023.63,-116.21 1021.83,-115.18"/>
<polygon fill="green" stroke="green" stroke-width="0.16" points="1023.39,-112.03 1013.08,-109.6 1019.63,-117.93 1023.39,-112.03"/>
</g>
<!-- 320&#45;&gt;0 -->
<g id="edge83" class="edge">
<title>320&#45;&gt;0</title>
<path fill="none" stroke="red" stroke-width="0.31" d="M1078.81,-75.63C1091.46,-63.62 1108.52,-47.42 1121.45,-35.14"/>
<polygon fill="red" stroke="red" stroke-width="0.31" points="1124.06,-37.49 1128.9,-28.07 1119.24,-32.42 1124.06,-37.49"/>
</g>
<!-- 320&#45;&gt;1 -->
<g id="edge84" class="edge">
<title>320&#45;&gt;1</title>
<path fill="none" stroke="green" stroke-width="0.22" d="M1042.57,-76.75C1038.1,-73.64 1033.2,-70.67 1028.28,-68.53 954.31,-36.23 929.19,-49.49 850.28,-32.53 836.52,-29.57 821.21,-26.1 808.71,-23.21"/>
<polygon fill="green" stroke="green" stroke-width="0.22" points="809.49,-19.8 798.96,-20.95 807.91,-26.62 809.49,-19.8"/>
</g>
<!-- 320&#45;&gt;2 -->
<g id="edge85" class="edge">
<title>320&#45;&gt;2</title>
<path fill="none" stroke="red" stroke-width="0.29" d="M1082.49,-80.22C1106.66,-66.49 1146,-44.13 1170.72,-30.09"/>
<polygon fill="red" stroke="red" stroke-width="0.29" points="1172.45,-33.13 1179.41,-25.14 1168.99,-27.04 1172.45,-33.13"/>
</g>
<!-- 320&#45;&gt;3 -->
<g id="edge86" class="edge">
<title>320&#45;&gt;3</title>
<path fill="none" stroke="red" stroke-width="0.3" d="M1041.81,-77.81C1024.37,-64.86 998.87,-45.92 981.05,-32.69"/>
<polygon fill="red" stroke="red" stroke-width="0.3" points="983.1,-29.85 972.98,-26.7 978.92,-35.47 983.1,-29.85"/>
</g>
<!-- 320&#45;&gt;4 -->
<g id="edge87" class="edge">
<title>320&#45;&gt;4</title>
<path fill="none" stroke="red" stroke-width="0.53" d="M1061.6,-68.13C1061.71,-60.03 1061.83,-50.97 1061.94,-42.77"/>
<polygon fill="red" stroke="red" stroke-width="0.53" points="1065.44,-42.68 1062.07,-32.64 1058.44,-42.59 1065.44,-42.68"/>
</g>
<!-- 320&#45;&gt;5 -->
<g id="edge88" class="edge">
<title>320&#45;&gt;5</title>
<path fill="none" stroke="green" stroke-width="0.33" d="M1042.36,-77.19C1037.9,-74.06 1033.05,-70.97 1028.28,-68.53 985.91,-46.81 932.36,-31.34 901.15,-23.38"/>
<polygon fill="green" stroke="green" stroke-width="0.33" points="901.65,-19.9 891.1,-20.89 899.96,-26.7 901.65,-19.9"/>
</g>
<!-- 321&#45;&gt;0 -->
<g id="edge89" class="edge">
<title>321&#45;&gt;0</title>
<path fill="none" stroke="green" stroke-width="0.22" d="M1215.26,-77.1C1199.36,-64.41 1176.75,-46.36 1160.52,-33.41"/>
<polygon fill="green" stroke="green" stroke-width="0.22" points="1162.68,-30.66 1152.68,-27.16 1158.32,-36.13 1162.68,-30.66"/>
</g>
<!-- 321&#45;&gt;1 -->
<g id="edge90" class="edge">
<title>321&#45;&gt;1</title>
<path fill="none" stroke="red" stroke-width="0.21" d="M1215.72,-76.39C1211.24,-73.3 1206.29,-70.43 1201.28,-68.53 1054.68,-12.84 1005.02,-57.99 850.28,-32.53 836.39,-30.24 821.08,-26.82 808.6,-23.8"/>
<polygon fill="red" stroke="red" stroke-width="0.21" points="809.43,-20.4 798.88,-21.38 807.74,-27.19 809.43,-20.4"/>
</g>
<!-- 321&#45;&gt;2 -->
<g id="edge91" class="edge">
<title>321&#45;&gt;2</title>
<path fill="none" stroke="red" stroke-width="0.31" d="M1222.64,-70.98C1217.33,-61.26 1211.04,-49.75 1205.64,-39.88"/>
<polygon fill="red" stroke="red" stroke-width="0.31" points="1208.67,-38.13 1200.81,-31.03 1202.53,-41.49 1208.67,-38.13"/>
</g>
<!-- 321&#45;&gt;3 -->
<g id="edge92" class="edge">
<title>321&#45;&gt;3</title>
<path fill="none" stroke="red" stroke-width="0.59" d="M1215.55,-76.78C1211.09,-73.67 1206.19,-70.7 1201.28,-68.53 1191.36,-64.14 1045.88,-34.53 985.87,-22.41"/>
<polygon fill="red" stroke="red" stroke-width="0.59" points="986.53,-18.97 976.04,-20.43 985.15,-25.84 986.53,-18.97"/>
</g>
<!-- 321&#45;&gt;4 -->
<g id="edge93" class="edge">
<title>321&#45;&gt;4</title>
<path fill="none" stroke="green" stroke-width="0.18" d="M1215.3,-77.3C1210.85,-74.16 1206.02,-71.04 1201.28,-68.53 1163.45,-48.42 1116.01,-32.78 1087.48,-24.3"/>
<polygon fill="green" stroke="green" stroke-width="0.18" points="1088.45,-20.94 1077.87,-21.51 1086.5,-27.66 1088.45,-20.94"/>
</g>
<!-- 321&#45;&gt;5 -->
<g id="edge94" class="edge">
<title>321&#45;&gt;5</title>
<path fill="none" stroke="red" stroke-width="0.17" d="M1215.67,-76.51C1211.2,-73.41 1206.26,-70.51 1201.28,-68.53 1090.45,-24.37 1052.39,-55.27 935.28,-32.53 923.88,-30.31 911.43,-27.25 900.83,-24.45"/>
<polygon fill="red" stroke="red" stroke-width="0.17" points="901.53,-21.01 890.96,-21.78 899.7,-27.77 901.53,-21.01"/>
</g>
<!-- 322&#45;&gt;0 -->
<g id="edge95" class="edge">
<title>322&#45;&gt;0</title>
<path fill="none" stroke="red" stroke-width="0.12" d="M1320.22,-78.57C1314.3,-74.95 1307.69,-71.28 1301.28,-68.53 1245.01,-44.36 1225.11,-55.34 1168.28,-32.53 1166.62,-31.86 1164.93,-31.12 1163.25,-30.33"/>
<polygon fill="red" stroke="red" stroke-width="0.12" points="1164.42,-27 1153.92,-25.54 1161.22,-33.22 1164.42,-27"/>
</g>
<!-- 322&#45;&gt;1 -->
<g id="edge96" class="edge">
<title>322&#45;&gt;1</title>
<path fill="none" stroke="green" stroke-width="0.17" d="M1317.63,-83.3C1303.63,-78.13 1285.17,-71.99 1268.28,-68.53 1085.62,-31.07 1034.51,-61.3 850.28,-32.53 836.37,-30.35 821.06,-26.94 808.58,-23.9"/>
<polygon fill="green" stroke="green" stroke-width="0.17" points="809.42,-20.5 798.87,-21.46 807.71,-27.29 809.42,-20.5"/>
</g>
<!-- 322&#45;&gt;2 -->
<g id="edge97" class="edge">
<title>322&#45;&gt;2</title>
<path fill="none" stroke="red" stroke-width="0.2" d="M1319.46,-79.05C1313.65,-75.51 1307.28,-71.77 1301.28,-68.53 1272.93,-53.22 1239.25,-37.63 1217.13,-27.72"/>
<polygon fill="red" stroke="red" stroke-width="0.2" points="1218.4,-24.46 1207.84,-23.6 1215.56,-30.86 1218.4,-24.46"/>
</g>
<!-- 322&#45;&gt;3 -->
<g id="edge98" class="edge">
<title>322&#45;&gt;3</title>
<path fill="none" stroke="green" stroke-width="0.42" d="M1317.21,-83.59C1303.22,-78.6 1284.91,-72.54 1268.28,-68.53 1167.27,-44.17 1139.6,-50.63 1037.28,-32.53 1020.22,-29.51 1001.11,-25.72 986.2,-22.68"/>
<polygon fill="green" stroke="green" stroke-width="0.42" points="986.67,-19.2 976.17,-20.61 985.26,-26.06 986.67,-19.2"/>
</g>
<!-- 322&#45;&gt;4 -->
<g id="edge99" class="edge">
<title>322&#45;&gt;4</title>
<path fill="none" stroke="red" stroke-width="0.29" d="M1320.34,-78.27C1314.43,-74.64 1307.79,-71.04 1301.28,-68.53 1222.75,-38.15 1197.15,-52.2 1115.28,-32.53 1106.05,-30.31 1096.01,-27.52 1087.18,-24.93"/>
<polygon fill="red" stroke="red" stroke-width="0.29" points="1088.07,-21.55 1077.49,-22.04 1086.07,-28.25 1088.07,-21.55"/>
</g>
<!-- 322&#45;&gt;5 -->
<g id="edge100" class="edge">
<title>322&#45;&gt;5</title>
<path fill="none" stroke="green" stroke-width="0.72" d="M1317.28,-83.31C1303.31,-78.21 1285,-72.15 1268.28,-68.53 1122.79,-37.04 1081.78,-58.94 935.28,-32.53 923.86,-30.47 911.39,-27.43 900.8,-24.6"/>
<polygon fill="green" stroke="green" stroke-width="0.72" points="901.51,-21.17 890.94,-21.89 899.65,-27.92 901.51,-21.17"/>
</g>
<!-- 323&#45;&gt;0 -->
<g id="edge101" class="edge">
<title>323&#45;&gt;0</title>
<path fill="none" stroke="green" stroke-width="0.41" d="M552.8,-76.27C557.28,-73.18 562.23,-70.35 567.28,-68.53 785.18,10.14 859.14,-72.81 1087.28,-32.53 1096.63,-30.88 1106.69,-28.21 1115.51,-25.57"/>
<polygon fill="green" stroke="green" stroke-width="0.41" points="1116.68,-28.87 1125.17,-22.54 1114.58,-22.19 1116.68,-28.87"/>
</g>
<!-- 323&#45;&gt;1 -->
<g id="edge102" class="edge">
<title>323&#45;&gt;1</title>
<path fill="none" stroke="red" stroke-width="0.31" d="M553.04,-76.87C557.51,-73.75 562.4,-70.76 567.28,-68.53 631.81,-39.06 715.2,-25.46 756.98,-20.15"/>
<polygon fill="red" stroke="red" stroke-width="0.31" points="757.63,-23.6 767.14,-18.92 756.79,-16.65 757.63,-23.6"/>
</g>
<!-- 323&#45;&gt;2 -->
<g id="edge103" class="edge">
<title>323&#45;&gt;2</title>
<path fill="none" stroke="green" stroke-width="0.58" d="M552.79,-76.23C557.26,-73.15 562.23,-70.33 567.28,-68.53 818.12,20.76 909.36,-106.01 1165.28,-32.53 1167.2,-31.98 1169.13,-31.28 1171.03,-30.49"/>
<polygon fill="green" stroke="green" stroke-width="0.58" points="1172.72,-33.56 1180.13,-25.98 1169.61,-27.28 1172.72,-33.56"/>
</g>
<!-- 323&#45;&gt;3 -->
<g id="edge104" class="edge">
<title>323&#45;&gt;3</title>
<path fill="none" stroke="green" stroke-width="0.37" d="M552.85,-76.41C557.33,-73.32 562.27,-70.45 567.28,-68.53 706.3,-15.29 753.78,-58.94 900.28,-32.53 911.7,-30.47 924.17,-27.43 934.76,-24.6"/>
<polygon fill="green" stroke="green" stroke-width="0.37" points="935.91,-27.92 944.62,-21.89 934.05,-21.17 935.91,-27.92"/>
</g>
<!-- 323&#45;&gt;4 -->
<g id="edge105" class="edge">
<title>323&#45;&gt;4</title>
<path fill="none" stroke="green" stroke-width="0.11" d="M552.82,-76.33C557.3,-73.24 562.25,-70.39 567.28,-68.53 742.13,-3.74 800.66,-58.69 985.28,-32.53 1002.44,-30.1 1021.54,-26.31 1036.43,-23.12"/>
<polygon fill="green" stroke="green" stroke-width="0.11" points="1037.42,-26.49 1046.44,-20.93 1035.92,-19.65 1037.42,-26.49"/>
</g>
<!-- 323&#45;&gt;5 -->
<g id="edge106" class="edge">
<title>323&#45;&gt;5</title>
<path fill="none" stroke="green" stroke-width="0.49" d="M552.91,-76.56C557.38,-73.46 562.31,-70.55 567.28,-68.53 667.61,-27.75 701.85,-52.57 808.28,-32.53 822.11,-29.92 837.42,-26.48 849.91,-23.52"/>
<polygon fill="green" stroke="green" stroke-width="0.49" points="850.74,-26.92 859.65,-21.18 849.11,-20.11 850.74,-26.92"/>
</g>
<!-- 324&#45;&gt;0 -->
<g id="edge107" class="edge">
<title>324&#45;&gt;0</title>
<path fill="none" stroke="red" stroke-width="0.54" d="M803.13,-78.03C809.04,-74.4 815.71,-70.86 822.28,-68.53 934.3,-28.78 970.98,-57.04 1087.28,-32.53 1096.57,-30.57 1106.62,-27.84 1115.44,-25.22"/>
<polygon fill="red" stroke="red" stroke-width="0.54" points="1116.58,-28.54 1125.12,-22.27 1114.53,-21.84 1116.58,-28.54"/>
</g>
<!-- 324&#45;&gt;1 -->
<g id="edge108" class="edge">
<title>324&#45;&gt;1</title>
<path fill="none" stroke="green" stroke-width="0.42" d="M783.28,-68.13C783.28,-60.03 783.28,-50.97 783.28,-42.77"/>
<polygon fill="green" stroke="green" stroke-width="0.42" points="786.78,-42.64 783.28,-32.64 779.78,-42.64 786.78,-42.64"/>
</g>
<!-- 324&#45;&gt;2 -->
<g id="edge109" class="edge">
<title>324&#45;&gt;2</title>
<path fill="none" stroke="green" stroke-width="0.32" d="M807.2,-86.52C829.41,-81.33 863.44,-73.71 893.28,-68.53 1013.42,-47.64 1049.35,-70.35 1165.28,-32.53 1167.17,-31.91 1169.09,-31.16 1170.98,-30.34"/>
<polygon fill="green" stroke="green" stroke-width="0.32" points="1172.7,-33.39 1180.06,-25.77 1169.55,-27.14 1172.7,-33.39"/>
</g>
<!-- 324&#45;&gt;3 -->
<g id="edge110" class="edge">
<title>324&#45;&gt;3</title>
<path fill="none" stroke="green" stroke-width="0.21" d="M803.51,-78.95C809.43,-75.33 816,-71.57 822.28,-68.53 860.42,-50.04 907.05,-34 935.17,-24.99"/>
<polygon fill="green" stroke="green" stroke-width="0.21" points="936.5,-28.23 944.98,-21.89 934.39,-21.56 936.5,-28.23"/>
</g>
<!-- 324&#45;&gt;4 -->
<g id="edge111" class="edge">
<title>324&#45;&gt;4</title>
<path fill="none" stroke="red" stroke-width="0.11" d="M803.25,-78.35C809.16,-74.72 815.8,-71.11 822.28,-68.53 832.29,-64.54 976.42,-34.83 1036.4,-22.55"/>
<polygon fill="red" stroke="red" stroke-width="0.11" points="1037.14,-25.97 1046.24,-20.54 1035.74,-19.11 1037.14,-25.97"/>
</g>
<!-- 324&#45;&gt;5 -->
<g id="edge112" class="edge">
<title>324&#45;&gt;5</title>
<path fill="none" stroke="red" stroke-width="0.7" d="M802.34,-76.73C817.71,-64.21 839.26,-46.63 854.96,-33.83"/>
<polygon fill="red" stroke="red" stroke-width="0.7" points="857.45,-36.31 862.99,-27.28 853.03,-30.89 857.45,-36.31"/>
</g>
<!-- 325&#45;&gt;0 -->
<g id="edge113" class="edge">
<title>325&#45;&gt;0</title>
<path fill="none" stroke="red" stroke-width="0.19" d="M624.2,-83.81C639.35,-78.56 659.75,-72.16 678.28,-68.53 857.36,-33.44 907.88,-65.93 1087.28,-32.53 1096.62,-30.79 1106.67,-28.11 1115.49,-25.47"/>
<polygon fill="red" stroke="red" stroke-width="0.19" points="1116.65,-28.78 1125.16,-22.46 1114.57,-22.09 1116.65,-28.78"/>
</g>
<!-- 325&#45;&gt;1 -->
<g id="edge114" class="edge">
<title>325&#45;&gt;1</title>
<path fill="none" stroke="green" stroke-width="0.54" d="M621.49,-78.9C627.41,-75.28 633.98,-71.53 640.28,-68.53 680.13,-49.49 729.02,-33.43 758.09,-24.59"/>
<polygon fill="green" stroke="green" stroke-width="0.54" points="759.27,-27.89 767.84,-21.67 757.26,-21.19 759.27,-27.89"/>
</g>
<!-- 325&#45;&gt;2 -->
<g id="edge115" class="edge">
<title>325&#45;&gt;2</title>
<path fill="none" stroke="green" stroke-width="0.19" d="M624.19,-83.72C639.32,-78.44 659.72,-72.03 678.28,-68.53 891.55,-28.29 957.09,-93.85 1165.28,-32.53 1167.19,-31.96 1169.12,-31.26 1171.02,-30.46"/>
<polygon fill="green" stroke="green" stroke-width="0.19" points="1172.72,-33.52 1180.11,-25.94 1169.6,-27.26 1172.72,-33.52"/>
</g>
<!-- 325&#45;&gt;3 -->
<g id="edge116" class="edge">
<title>325&#45;&gt;3</title>
<path fill="none" stroke="green" stroke-width="0.4" d="M621.13,-78.04C627.05,-74.41 633.71,-70.87 640.28,-68.53 750.17,-29.37 785.8,-54.94 900.28,-32.53 911.67,-30.3 924.13,-27.23 934.73,-24.43"/>
<polygon fill="green" stroke="green" stroke-width="0.4" points="935.86,-27.75 944.6,-21.76 934.03,-21 935.86,-27.75"/>
</g>
<!-- 325&#45;&gt;4 -->
<g id="edge117" class="edge">
<title>325&#45;&gt;4</title>
<path fill="none" stroke="red" stroke-width="0.6" d="M624.24,-83.99C639.4,-78.82 659.8,-72.43 678.28,-68.53 812.7,-40.16 849.57,-53.9 985.28,-32.53 1002.4,-29.83 1021.5,-26.05 1036.4,-22.92"/>
<polygon fill="red" stroke="red" stroke-width="0.6" points="1037.37,-26.3 1046.42,-20.79 1035.91,-19.45 1037.37,-26.3"/>
</g>
<!-- 325&#45;&gt;5 -->
<g id="edge118" class="edge">
<title>325&#45;&gt;5</title>
<path fill="none" stroke="green" stroke-width="0.39" d="M621.25,-78.35C627.17,-74.72 633.8,-71.11 640.28,-68.53 711.22,-40.27 733.72,-49.01 808.28,-32.53 822.02,-29.49 837.33,-26.01 849.83,-23.14"/>
<polygon fill="green" stroke="green" stroke-width="0.39" points="850.63,-26.55 859.59,-20.9 849.06,-19.73 850.63,-26.55"/>
</g>
<!-- 316&#45;&gt;0 -->
<g id="edge60" class="edge">
<title>316&#45;&gt;0</title>
<path fill="none" stroke="red" stroke-width="0.33" d="M1159.18,-69.77C1155.97,-60.86 1152.28,-50.61 1149.02,-41.54"/>
<polygon fill="red" stroke="red" stroke-width="0.33" points="1152.24,-40.16 1145.56,-31.94 1145.65,-42.53 1152.24,-40.16"/>
</g>
<!-- 316&#45;&gt;1 -->
<g id="edge61" class="edge">
<title>316&#45;&gt;1</title>
<path fill="none" stroke="green" stroke-width="0.26" d="M1147.44,-78C1141.53,-74.37 1134.86,-70.84 1128.28,-68.53 1010.74,-27.23 972.93,-54.39 850.28,-32.53 836.42,-30.06 821.11,-26.62 808.63,-23.64"/>
<polygon fill="green" stroke="green" stroke-width="0.26" points="809.44,-20.23 798.9,-21.27 807.78,-27.03 809.44,-20.23"/>
</g>
<!-- 316&#45;&gt;2 -->
<g id="edge62" class="edge">
<title>316&#45;&gt;2</title>
<path fill="none" stroke="red" stroke-width="0.22" d="M1175.08,-69.77C1178.17,-60.86 1181.72,-50.61 1184.87,-41.54"/>
<polygon fill="red" stroke="red" stroke-width="0.22" points="1188.23,-42.53 1188.19,-31.94 1181.61,-40.24 1188.23,-42.53"/>
</g>
<!-- 316&#45;&gt;3 -->
<g id="edge63" class="edge">
<title>316&#45;&gt;3</title>
<path fill="none" stroke="red" stroke-width="0.44" d="M1147.16,-78.7C1141.24,-75.08 1134.65,-71.38 1128.28,-68.53 1079.82,-46.8 1019.55,-30.91 985.96,-22.97"/>
<polygon fill="red" stroke="red" stroke-width="0.44" points="986.57,-19.52 976.04,-20.67 984.99,-26.34 986.57,-19.52"/>
</g>
<!-- 316&#45;&gt;4 -->
<g id="edge64" class="edge">
<title>316&#45;&gt;4</title>
<path fill="none" stroke="red" stroke-width="0.34" d="M1147.53,-78.17C1129.27,-65.12 1102.22,-45.8 1083.5,-32.43"/>
<polygon fill="red" stroke="red" stroke-width="0.34" points="1085.48,-29.54 1075.31,-26.57 1081.41,-35.23 1085.48,-29.54"/>
</g>
<!-- 316&#45;&gt;5 -->
<g id="edge65" class="edge">
<title>316&#45;&gt;5</title>
<path fill="none" stroke="red" stroke-width="0.56" d="M1147.35,-78.24C1141.44,-74.61 1134.79,-71.02 1128.28,-68.53 1046.79,-37.32 1020.5,-51.29 935.28,-32.53 923.94,-30.03 911.49,-26.92 900.89,-24.17"/>
<polygon fill="red" stroke="red" stroke-width="0.56" points="901.57,-20.73 891,-21.56 899.78,-27.49 901.57,-20.73"/>
</g>
<!-- 317&#45;&gt;0 -->
<g id="edge66" class="edge">
<title>317&#45;&gt;0</title>
<path fill="none" stroke="red" stroke-width="0.28" d="M1388.61,-76.65C1384.14,-73.55 1379.22,-70.61 1374.28,-68.53 1288.62,-32.47 1256.02,-63.18 1168.28,-32.53 1166.59,-31.94 1164.88,-31.25 1163.19,-30.51"/>
<polygon fill="red" stroke="red" stroke-width="0.28" points="1164.33,-27.17 1153.82,-25.8 1161.19,-33.42 1164.33,-27.17"/>
</g>
<!-- 317&#45;&gt;2 -->
<g id="edge67" class="edge">
<title>317&#45;&gt;2</title>
<path fill="none" stroke="red" stroke-width="0.79" d="M1388.44,-77.02C1383.98,-73.9 1379.11,-70.86 1374.28,-68.53 1322.17,-43.36 1255.5,-28.48 1219.37,-21.69"/>
<polygon fill="red" stroke="red" stroke-width="0.79" points="1219.66,-18.19 1209.2,-19.85 1218.41,-25.08 1219.66,-18.19"/>
</g>
<!-- 317&#45;&gt;3 -->
<g id="edge68" class="edge">
<title>317&#45;&gt;3</title>
<path fill="none" stroke="red" stroke-width="0.11" d="M1388.71,-76.4C1384.23,-73.31 1379.29,-70.44 1374.28,-68.53 1233.58,-14.74 1186.19,-55.19 1037.28,-32.53 1020.15,-29.92 1001.04,-26.14 986.15,-22.99"/>
<polygon fill="red" stroke="red" stroke-width="0.11" points="986.65,-19.52 976.13,-20.84 985.17,-26.36 986.65,-19.52"/>
</g>
<!-- 317&#45;&gt;4 -->
<g id="edge69" class="edge">
<title>317&#45;&gt;4</title>
<path fill="none" stroke="green" stroke-width="0.19" d="M1388.66,-76.52C1384.19,-73.42 1379.26,-70.52 1374.28,-68.53 1266.39,-25.32 1228.96,-56.67 1115.28,-32.53 1105.99,-30.55 1095.94,-27.82 1087.12,-25.21"/>
<polygon fill="green" stroke="green" stroke-width="0.19" points="1088.03,-21.83 1077.44,-22.25 1085.98,-28.52 1088.03,-21.83"/>
</g>
<!-- 317&#45;&gt;5 -->
<g id="edge70" class="edge">
<title>317&#45;&gt;5</title>
<path fill="none" stroke="red" stroke-width="0.58" d="M1388.74,-76.31C1384.27,-73.23 1379.31,-70.38 1374.28,-68.53 1190.57,-0.88 1128.37,-64.77 935.28,-32.53 923.83,-30.61 911.36,-27.6 900.77,-24.75"/>
<polygon fill="red" stroke="red" stroke-width="0.58" points="901.49,-21.32 890.92,-22.01 899.61,-28.06 901.49,-21.32"/>
</g>
<!-- 318&#45;&gt;0 -->
<g id="edge71" class="edge">
<title>318&#45;&gt;0</title>
<path fill="none" stroke="red" stroke-width="0.73" d="M946.12,-77.02C950.58,-73.9 955.45,-70.86 960.28,-68.53 1013.11,-43.01 1030.87,-48.64 1087.28,-32.53 1096.28,-29.96 1106.13,-27.12 1114.88,-24.6"/>
<polygon fill="red" stroke="red" stroke-width="0.73" points="1115.88,-27.96 1124.51,-21.82 1113.94,-21.23 1115.88,-27.96"/>
</g>
<!-- 318&#45;&gt;1 -->
<g id="edge72" class="edge">
<title>318&#45;&gt;1</title>
<path fill="none" stroke="green" stroke-width="0.9" d="M905.72,-81.05C879.05,-67.15 833.83,-43.59 806.44,-29.33"/>
<polygon fill="green" stroke="green" stroke-width="0.9" points="808.04,-26.21 797.55,-24.7 804.81,-32.42 808.04,-26.21"/>
</g>
<!-- 318&#45;&gt;2 -->
<g id="edge73" class="edge">
<title>318&#45;&gt;2</title>
<path fill="none" stroke="green" stroke-width="0.16" d="M945.95,-76.65C950.42,-73.55 955.34,-70.61 960.28,-68.53 1045.53,-32.6 1077.96,-63.07 1165.28,-32.53 1166.97,-31.94 1168.68,-31.25 1170.37,-30.51"/>
<polygon fill="green" stroke="green" stroke-width="0.16" points="1172.37,-33.42 1179.73,-25.8 1169.23,-27.16 1172.37,-33.42"/>
</g>
<!-- 318&#45;&gt;3 -->
<g id="edge74" class="edge">
<title>318&#45;&gt;3</title>
<path fill="none" stroke="red" stroke-width="0.15" d="M937,-70.18C941.07,-60.94 945.79,-50.19 949.92,-40.81"/>
<polygon fill="red" stroke="red" stroke-width="0.15" points="953.13,-42.2 953.96,-31.64 946.73,-39.38 953.13,-42.2"/>
</g>
<!-- 318&#45;&gt;4 -->
<g id="edge75" class="edge">
<title>318&#45;&gt;4</title>
<path fill="none" stroke="green" stroke-width="0.24" d="M946.83,-77.44C951.17,-74.36 955.81,-71.23 960.28,-68.53 986.18,-52.83 1017.5,-37.61 1038.54,-27.89"/>
<polygon fill="green" stroke="green" stroke-width="0.24" points="1040.06,-31.04 1047.71,-23.7 1037.16,-24.67 1040.06,-31.04"/>
</g>
<!-- 318&#45;&gt;5 -->
<g id="edge76" class="edge">
<title>318&#45;&gt;5</title>
<path fill="none" stroke="green" stroke-width="0.33" d="M913.62,-72.57C906.38,-62.12 897.47,-49.28 890.07,-38.6"/>
<polygon fill="green" stroke="green" stroke-width="0.33" points="892.85,-36.46 884.27,-30.24 887.1,-40.45 892.85,-36.46"/>
</g>
<!-- 319&#45;&gt;0 -->
<g id="edge77" class="edge">
<title>319&#45;&gt;0</title>
<path fill="none" stroke="red" stroke-width="0.21" d="M1013.4,-77.55C1017.84,-74.4 1022.64,-71.21 1027.28,-68.53 1056.51,-51.6 1092.33,-36.18 1115.69,-26.77"/>
<polygon fill="red" stroke="red" stroke-width="0.21" points="1117.18,-29.94 1125.19,-23 1114.6,-23.43 1117.18,-29.94"/>
</g>
<!-- 319&#45;&gt;1 -->
<g id="edge78" class="edge">
<title>319&#45;&gt;1</title>
<path fill="none" stroke="red" stroke-width="0.13" d="M975.44,-77.04C970.97,-73.92 966.11,-70.87 961.28,-68.53 934.15,-55.35 851.19,-33.96 808.8,-23.46"/>
<polygon fill="red" stroke="red" stroke-width="0.13" points="809.5,-20.03 798.95,-21.04 807.83,-26.83 809.5,-20.03"/>
</g>
<!-- 319&#45;&gt;2 -->
<g id="edge79" class="edge">
<title>319&#45;&gt;2</title>
<path fill="none" stroke="green" stroke-width="0.2" d="M1013.08,-76.95C1017.54,-73.83 1022.43,-70.81 1027.28,-68.53 1084.64,-41.56 1106.35,-55.87 1165.28,-32.53 1166.94,-31.87 1168.63,-31.13 1170.32,-30.35"/>
<polygon fill="green" stroke="green" stroke-width="0.2" points="1172.35,-33.24 1179.65,-25.56 1169.15,-27.01 1172.35,-33.24"/>
</g>
<!-- 319&#45;&gt;3 -->
<g id="edge80" class="edge">
<title>319&#45;&gt;3</title>
<path fill="none" stroke="green" stroke-width="0.15" d="M984.26,-70.18C980.08,-60.94 975.2,-50.19 970.95,-40.81"/>
<polygon fill="green" stroke="green" stroke-width="0.15" points="974.11,-39.3 966.8,-31.64 967.74,-42.19 974.11,-39.3"/>
</g>
<!-- 319&#45;&gt;4 -->
<g id="edge81" class="edge">
<title>319&#45;&gt;4</title>
<path fill="none" stroke="red" stroke-width="0.2" d="M1010.74,-74.12C1021.09,-62.7 1034.42,-48 1044.93,-36.4"/>
<polygon fill="red" stroke="red" stroke-width="0.2" points="1047.56,-38.71 1051.69,-28.95 1042.38,-34.01 1047.56,-38.71"/>
</g>
<!-- 319&#45;&gt;5 -->
<g id="edge82" class="edge">
<title>319&#45;&gt;5</title>
<path fill="none" stroke="red" stroke-width="0.43" d="M974.58,-77.68C970.25,-74.59 965.65,-71.39 961.28,-68.53 940.31,-54.77 915.66,-40.24 898.14,-30.17"/>
<polygon fill="red" stroke="red" stroke-width="0.43" points="899.63,-26.99 889.21,-25.07 896.16,-33.07 899.63,-26.99"/>
</g>
</g>
</svg>
