<?xml version="1.0" encoding="utf-8" standalone="no"?>
<!DOCTYPE svg PUBLIC "-//W3C//DTD SVG 1.1//EN"
  "http://www.w3.org/Graphics/SVG/1.1/DTD/svg11.dtd">
<svg xmlns:xlink="http://www.w3.org/1999/xlink" width="528.650112pt" height="325.986375pt" viewBox="0 0 528.650112 325.986375" xmlns="http://www.w3.org/2000/svg" version="1.1">
 <metadata>
  <rdf:RDF xmlns:dc="http://purl.org/dc/elements/1.1/" xmlns:cc="http://creativecommons.org/ns#" xmlns:rdf="http://www.w3.org/1999/02/22-rdf-syntax-ns#">
   <cc:Work>
    <dc:type rdf:resource="http://purl.org/dc/dcmitype/StillImage"/>
    <dc:date>2023-06-10T06:57:03.624792</dc:date>
    <dc:format>image/svg+xml</dc:format>
    <dc:creator>
     <cc:Agent>
      <dc:title>Matplotlib v3.6.3, https://matplotlib.org/</dc:title>
     </cc:Agent>
    </dc:creator>
   </cc:Work>
  </rdf:RDF>
 </metadata>
 <defs>
  <style type="text/css">*{stroke-linejoin: round; stroke-linecap: butt}</style>
 </defs>
 <g id="figure_1">
  <g id="patch_1">
   <path d="M 0 325.986375 
L 528.650112 325.986375 
L 528.650112 0 
L 0 0 
z
" style="fill: #ffffff"/>
  </g>
  <g id="axes_1">
   <g id="patch_2">
    <path d="M 52.160938 288.430125 
L 409.280938 288.430125 
L 409.280938 22.318125 
L 52.160938 22.318125 
z
" style="fill: #ffffff"/>
   </g>
   <g id="matplotlib.axis_1">
    <g id="xtick_1">
     <g id="line2d_1">
      <path d="M 68.393665 288.430125 
L 68.393665 22.318125 
" clip-path="url(#p908e5b3d8d)" style="fill: none; stroke: #b0b0b0; stroke-width: 0.8; stroke-linecap: square"/>
     </g>
     <g id="line2d_2">
      <defs>
       <path id="mc6fa008b9f" d="M 0 0 
L 0 3.5 
" style="stroke: #000000; stroke-width: 0.8"/>
      </defs>
      <g>
       <use xlink:href="#mc6fa008b9f" x="68.393665" y="288.430125" style="stroke: #000000; stroke-width: 0.8"/>
      </g>
     </g>
     <g id="text_1">
      <!-- 0 -->
      <g transform="translate(65.212415 303.028562) scale(0.1 -0.1)">
       <defs>
        <path id="DejaVuSans-30" d="M 2034 4250 
Q 1547 4250 1301 3770 
Q 1056 3291 1056 2328 
Q 1056 1369 1301 889 
Q 1547 409 2034 409 
Q 2525 409 2770 889 
Q 3016 1369 3016 2328 
Q 3016 3291 2770 3770 
Q 2525 4250 2034 4250 
z
M 2034 4750 
Q 2819 4750 3233 4129 
Q 3647 3509 3647 2328 
Q 3647 1150 3233 529 
Q 2819 -91 2034 -91 
Q 1250 -91 836 529 
Q 422 1150 422 2328 
Q 422 3509 836 4129 
Q 1250 4750 2034 4750 
z
" transform="scale(0.015625)"/>
       </defs>
       <use xlink:href="#DejaVuSans-30"/>
      </g>
     </g>
    </g>
    <g id="xtick_2">
     <g id="line2d_3">
      <path d="M 110.016042 288.430125 
L 110.016042 22.318125 
" clip-path="url(#p908e5b3d8d)" style="fill: none; stroke: #b0b0b0; stroke-width: 0.8; stroke-linecap: square"/>
     </g>
     <g id="line2d_4">
      <g>
       <use xlink:href="#mc6fa008b9f" x="110.016042" y="288.430125" style="stroke: #000000; stroke-width: 0.8"/>
      </g>
     </g>
     <g id="text_2">
      <!-- 5 -->
      <g transform="translate(106.834792 303.028562) scale(0.1 -0.1)">
       <defs>
        <path id="DejaVuSans-35" d="M 691 4666 
L 3169 4666 
L 3169 4134 
L 1269 4134 
L 1269 2991 
Q 1406 3038 1543 3061 
Q 1681 3084 1819 3084 
Q 2600 3084 3056 2656 
Q 3513 2228 3513 1497 
Q 3513 744 3044 326 
Q 2575 -91 1722 -91 
Q 1428 -91 1123 -41 
Q 819 9 494 109 
L 494 744 
Q 775 591 1075 516 
Q 1375 441 1709 441 
Q 2250 441 2565 725 
Q 2881 1009 2881 1497 
Q 2881 1984 2565 2268 
Q 2250 2553 1709 2553 
Q 1456 2553 1204 2497 
Q 953 2441 691 2322 
L 691 4666 
z
" transform="scale(0.015625)"/>
       </defs>
       <use xlink:href="#DejaVuSans-35"/>
      </g>
     </g>
    </g>
    <g id="xtick_3">
     <g id="line2d_5">
      <path d="M 151.63842 288.430125 
L 151.63842 22.318125 
" clip-path="url(#p908e5b3d8d)" style="fill: none; stroke: #b0b0b0; stroke-width: 0.8; stroke-linecap: square"/>
     </g>
     <g id="line2d_6">
      <g>
       <use xlink:href="#mc6fa008b9f" x="151.63842" y="288.430125" style="stroke: #000000; stroke-width: 0.8"/>
      </g>
     </g>
     <g id="text_3">
      <!-- 10 -->
      <g transform="translate(145.27592 303.028562) scale(0.1 -0.1)">
       <defs>
        <path id="DejaVuSans-31" d="M 794 531 
L 1825 531 
L 1825 4091 
L 703 3866 
L 703 4441 
L 1819 4666 
L 2450 4666 
L 2450 531 
L 3481 531 
L 3481 0 
L 794 0 
L 794 531 
z
" transform="scale(0.015625)"/>
       </defs>
       <use xlink:href="#DejaVuSans-31"/>
       <use xlink:href="#DejaVuSans-30" x="63.623047"/>
      </g>
     </g>
    </g>
    <g id="xtick_4">
     <g id="line2d_7">
      <path d="M 193.260798 288.430125 
L 193.260798 22.318125 
" clip-path="url(#p908e5b3d8d)" style="fill: none; stroke: #b0b0b0; stroke-width: 0.8; stroke-linecap: square"/>
     </g>
     <g id="line2d_8">
      <g>
       <use xlink:href="#mc6fa008b9f" x="193.260798" y="288.430125" style="stroke: #000000; stroke-width: 0.8"/>
      </g>
     </g>
     <g id="text_4">
      <!-- 15 -->
      <g transform="translate(186.898298 303.028562) scale(0.1 -0.1)">
       <use xlink:href="#DejaVuSans-31"/>
       <use xlink:href="#DejaVuSans-35" x="63.623047"/>
      </g>
     </g>
    </g>
    <g id="xtick_5">
     <g id="line2d_9">
      <path d="M 234.883175 288.430125 
L 234.883175 22.318125 
" clip-path="url(#p908e5b3d8d)" style="fill: none; stroke: #b0b0b0; stroke-width: 0.8; stroke-linecap: square"/>
     </g>
     <g id="line2d_10">
      <g>
       <use xlink:href="#mc6fa008b9f" x="234.883175" y="288.430125" style="stroke: #000000; stroke-width: 0.8"/>
      </g>
     </g>
     <g id="text_5">
      <!-- 20 -->
      <g transform="translate(228.520675 303.028562) scale(0.1 -0.1)">
       <defs>
        <path id="DejaVuSans-32" d="M 1228 531 
L 3431 531 
L 3431 0 
L 469 0 
L 469 531 
Q 828 903 1448 1529 
Q 2069 2156 2228 2338 
Q 2531 2678 2651 2914 
Q 2772 3150 2772 3378 
Q 2772 3750 2511 3984 
Q 2250 4219 1831 4219 
Q 1534 4219 1204 4116 
Q 875 4013 500 3803 
L 500 4441 
Q 881 4594 1212 4672 
Q 1544 4750 1819 4750 
Q 2544 4750 2975 4387 
Q 3406 4025 3406 3419 
Q 3406 3131 3298 2873 
Q 3191 2616 2906 2266 
Q 2828 2175 2409 1742 
Q 1991 1309 1228 531 
z
" transform="scale(0.015625)"/>
       </defs>
       <use xlink:href="#DejaVuSans-32"/>
       <use xlink:href="#DejaVuSans-30" x="63.623047"/>
      </g>
     </g>
    </g>
    <g id="xtick_6">
     <g id="line2d_11">
      <path d="M 276.505553 288.430125 
L 276.505553 22.318125 
" clip-path="url(#p908e5b3d8d)" style="fill: none; stroke: #b0b0b0; stroke-width: 0.8; stroke-linecap: square"/>
     </g>
     <g id="line2d_12">
      <g>
       <use xlink:href="#mc6fa008b9f" x="276.505553" y="288.430125" style="stroke: #000000; stroke-width: 0.8"/>
      </g>
     </g>
     <g id="text_6">
      <!-- 25 -->
      <g transform="translate(270.143053 303.028562) scale(0.1 -0.1)">
       <use xlink:href="#DejaVuSans-32"/>
       <use xlink:href="#DejaVuSans-35" x="63.623047"/>
      </g>
     </g>
    </g>
    <g id="xtick_7">
     <g id="line2d_13">
      <path d="M 318.127931 288.430125 
L 318.127931 22.318125 
" clip-path="url(#p908e5b3d8d)" style="fill: none; stroke: #b0b0b0; stroke-width: 0.8; stroke-linecap: square"/>
     </g>
     <g id="line2d_14">
      <g>
       <use xlink:href="#mc6fa008b9f" x="318.127931" y="288.430125" style="stroke: #000000; stroke-width: 0.8"/>
      </g>
     </g>
     <g id="text_7">
      <!-- 30 -->
      <g transform="translate(311.765431 303.028562) scale(0.1 -0.1)">
       <defs>
        <path id="DejaVuSans-33" d="M 2597 2516 
Q 3050 2419 3304 2112 
Q 3559 1806 3559 1356 
Q 3559 666 3084 287 
Q 2609 -91 1734 -91 
Q 1441 -91 1130 -33 
Q 819 25 488 141 
L 488 750 
Q 750 597 1062 519 
Q 1375 441 1716 441 
Q 2309 441 2620 675 
Q 2931 909 2931 1356 
Q 2931 1769 2642 2001 
Q 2353 2234 1838 2234 
L 1294 2234 
L 1294 2753 
L 1863 2753 
Q 2328 2753 2575 2939 
Q 2822 3125 2822 3475 
Q 2822 3834 2567 4026 
Q 2313 4219 1838 4219 
Q 1578 4219 1281 4162 
Q 984 4106 628 3988 
L 628 4550 
Q 988 4650 1302 4700 
Q 1616 4750 1894 4750 
Q 2613 4750 3031 4423 
Q 3450 4097 3450 3541 
Q 3450 3153 3228 2886 
Q 3006 2619 2597 2516 
z
" transform="scale(0.015625)"/>
       </defs>
       <use xlink:href="#DejaVuSans-33"/>
       <use xlink:href="#DejaVuSans-30" x="63.623047"/>
      </g>
     </g>
    </g>
    <g id="xtick_8">
     <g id="line2d_15">
      <path d="M 359.750308 288.430125 
L 359.750308 22.318125 
" clip-path="url(#p908e5b3d8d)" style="fill: none; stroke: #b0b0b0; stroke-width: 0.8; stroke-linecap: square"/>
     </g>
     <g id="line2d_16">
      <g>
       <use xlink:href="#mc6fa008b9f" x="359.750308" y="288.430125" style="stroke: #000000; stroke-width: 0.8"/>
      </g>
     </g>
     <g id="text_8">
      <!-- 35 -->
      <g transform="translate(353.387808 303.028562) scale(0.1 -0.1)">
       <use xlink:href="#DejaVuSans-33"/>
       <use xlink:href="#DejaVuSans-35" x="63.623047"/>
      </g>
     </g>
    </g>
    <g id="xtick_9">
     <g id="line2d_17">
      <path d="M 401.372686 288.430125 
L 401.372686 22.318125 
" clip-path="url(#p908e5b3d8d)" style="fill: none; stroke: #b0b0b0; stroke-width: 0.8; stroke-linecap: square"/>
     </g>
     <g id="line2d_18">
      <g>
       <use xlink:href="#mc6fa008b9f" x="401.372686" y="288.430125" style="stroke: #000000; stroke-width: 0.8"/>
      </g>
     </g>
     <g id="text_9">
      <!-- 40 -->
      <g transform="translate(395.010186 303.028562) scale(0.1 -0.1)">
       <defs>
        <path id="DejaVuSans-34" d="M 2419 4116 
L 825 1625 
L 2419 1625 
L 2419 4116 
z
M 2253 4666 
L 3047 4666 
L 3047 1625 
L 3713 1625 
L 3713 1100 
L 3047 1100 
L 3047 0 
L 2419 0 
L 2419 1100 
L 313 1100 
L 313 1709 
L 2253 4666 
z
" transform="scale(0.015625)"/>
       </defs>
       <use xlink:href="#DejaVuSans-34"/>
       <use xlink:href="#DejaVuSans-30" x="63.623047"/>
      </g>
     </g>
    </g>
    <g id="text_10">
     <!-- Generations -->
     <g transform="translate(200.223281 316.706687) scale(0.1 -0.1)">
      <defs>
       <path id="DejaVuSans-47" d="M 3809 666 
L 3809 1919 
L 2778 1919 
L 2778 2438 
L 4434 2438 
L 4434 434 
Q 4069 175 3628 42 
Q 3188 -91 2688 -91 
Q 1594 -91 976 548 
Q 359 1188 359 2328 
Q 359 3472 976 4111 
Q 1594 4750 2688 4750 
Q 3144 4750 3555 4637 
Q 3966 4525 4313 4306 
L 4313 3634 
Q 3963 3931 3569 4081 
Q 3175 4231 2741 4231 
Q 1884 4231 1454 3753 
Q 1025 3275 1025 2328 
Q 1025 1384 1454 906 
Q 1884 428 2741 428 
Q 3075 428 3337 486 
Q 3600 544 3809 666 
z
" transform="scale(0.015625)"/>
       <path id="DejaVuSans-65" d="M 3597 1894 
L 3597 1613 
L 953 1613 
Q 991 1019 1311 708 
Q 1631 397 2203 397 
Q 2534 397 2845 478 
Q 3156 559 3463 722 
L 3463 178 
Q 3153 47 2828 -22 
Q 2503 -91 2169 -91 
Q 1331 -91 842 396 
Q 353 884 353 1716 
Q 353 2575 817 3079 
Q 1281 3584 2069 3584 
Q 2775 3584 3186 3129 
Q 3597 2675 3597 1894 
z
M 3022 2063 
Q 3016 2534 2758 2815 
Q 2500 3097 2075 3097 
Q 1594 3097 1305 2825 
Q 1016 2553 972 2059 
L 3022 2063 
z
" transform="scale(0.015625)"/>
       <path id="DejaVuSans-6e" d="M 3513 2113 
L 3513 0 
L 2938 0 
L 2938 2094 
Q 2938 2591 2744 2837 
Q 2550 3084 2163 3084 
Q 1697 3084 1428 2787 
Q 1159 2491 1159 1978 
L 1159 0 
L 581 0 
L 581 3500 
L 1159 3500 
L 1159 2956 
Q 1366 3272 1645 3428 
Q 1925 3584 2291 3584 
Q 2894 3584 3203 3211 
Q 3513 2838 3513 2113 
z
" transform="scale(0.015625)"/>
       <path id="DejaVuSans-72" d="M 2631 2963 
Q 2534 3019 2420 3045 
Q 2306 3072 2169 3072 
Q 1681 3072 1420 2755 
Q 1159 2438 1159 1844 
L 1159 0 
L 581 0 
L 581 3500 
L 1159 3500 
L 1159 2956 
Q 1341 3275 1631 3429 
Q 1922 3584 2338 3584 
Q 2397 3584 2469 3576 
Q 2541 3569 2628 3553 
L 2631 2963 
z
" transform="scale(0.015625)"/>
       <path id="DejaVuSans-61" d="M 2194 1759 
Q 1497 1759 1228 1600 
Q 959 1441 959 1056 
Q 959 750 1161 570 
Q 1363 391 1709 391 
Q 2188 391 2477 730 
Q 2766 1069 2766 1631 
L 2766 1759 
L 2194 1759 
z
M 3341 1997 
L 3341 0 
L 2766 0 
L 2766 531 
Q 2569 213 2275 61 
Q 1981 -91 1556 -91 
Q 1019 -91 701 211 
Q 384 513 384 1019 
Q 384 1609 779 1909 
Q 1175 2209 1959 2209 
L 2766 2209 
L 2766 2266 
Q 2766 2663 2505 2880 
Q 2244 3097 1772 3097 
Q 1472 3097 1187 3025 
Q 903 2953 641 2809 
L 641 3341 
Q 956 3463 1253 3523 
Q 1550 3584 1831 3584 
Q 2591 3584 2966 3190 
Q 3341 2797 3341 1997 
z
" transform="scale(0.015625)"/>
       <path id="DejaVuSans-74" d="M 1172 4494 
L 1172 3500 
L 2356 3500 
L 2356 3053 
L 1172 3053 
L 1172 1153 
Q 1172 725 1289 603 
Q 1406 481 1766 481 
L 2356 481 
L 2356 0 
L 1766 0 
Q 1100 0 847 248 
Q 594 497 594 1153 
L 594 3053 
L 172 3053 
L 172 3500 
L 594 3500 
L 594 4494 
L 1172 4494 
z
" transform="scale(0.015625)"/>
       <path id="DejaVuSans-69" d="M 603 3500 
L 1178 3500 
L 1178 0 
L 603 0 
L 603 3500 
z
M 603 4863 
L 1178 4863 
L 1178 4134 
L 603 4134 
L 603 4863 
z
" transform="scale(0.015625)"/>
       <path id="DejaVuSans-6f" d="M 1959 3097 
Q 1497 3097 1228 2736 
Q 959 2375 959 1747 
Q 959 1119 1226 758 
Q 1494 397 1959 397 
Q 2419 397 2687 759 
Q 2956 1122 2956 1747 
Q 2956 2369 2687 2733 
Q 2419 3097 1959 3097 
z
M 1959 3584 
Q 2709 3584 3137 3096 
Q 3566 2609 3566 1747 
Q 3566 888 3137 398 
Q 2709 -91 1959 -91 
Q 1206 -91 779 398 
Q 353 888 353 1747 
Q 353 2609 779 3096 
Q 1206 3584 1959 3584 
z
" transform="scale(0.015625)"/>
       <path id="DejaVuSans-73" d="M 2834 3397 
L 2834 2853 
Q 2591 2978 2328 3040 
Q 2066 3103 1784 3103 
Q 1356 3103 1142 2972 
Q 928 2841 928 2578 
Q 928 2378 1081 2264 
Q 1234 2150 1697 2047 
L 1894 2003 
Q 2506 1872 2764 1633 
Q 3022 1394 3022 966 
Q 3022 478 2636 193 
Q 2250 -91 1575 -91 
Q 1294 -91 989 -36 
Q 684 19 347 128 
L 347 722 
Q 666 556 975 473 
Q 1284 391 1588 391 
Q 1994 391 2212 530 
Q 2431 669 2431 922 
Q 2431 1156 2273 1281 
Q 2116 1406 1581 1522 
L 1381 1569 
Q 847 1681 609 1914 
Q 372 2147 372 2553 
Q 372 3047 722 3315 
Q 1072 3584 1716 3584 
Q 2034 3584 2315 3537 
Q 2597 3491 2834 3397 
z
" transform="scale(0.015625)"/>
      </defs>
      <use xlink:href="#DejaVuSans-47"/>
      <use xlink:href="#DejaVuSans-65" x="77.490234"/>
      <use xlink:href="#DejaVuSans-6e" x="139.013672"/>
      <use xlink:href="#DejaVuSans-65" x="202.392578"/>
      <use xlink:href="#DejaVuSans-72" x="263.916016"/>
      <use xlink:href="#DejaVuSans-61" x="305.029297"/>
      <use xlink:href="#DejaVuSans-74" x="366.308594"/>
      <use xlink:href="#DejaVuSans-69" x="405.517578"/>
      <use xlink:href="#DejaVuSans-6f" x="433.300781"/>
      <use xlink:href="#DejaVuSans-6e" x="494.482422"/>
      <use xlink:href="#DejaVuSans-73" x="557.861328"/>
     </g>
    </g>
   </g>
   <g id="matplotlib.axis_2">
    <g id="ytick_1">
     <g id="line2d_19">
      <path d="M 52.160938 261.558623 
L 409.280938 261.558623 
" clip-path="url(#p908e5b3d8d)" style="fill: none; stroke: #b0b0b0; stroke-width: 0.8; stroke-linecap: square"/>
     </g>
     <g id="line2d_20">
      <defs>
       <path id="m979a92be23" d="M 0 0 
L -3.5 0 
" style="stroke: #000000; stroke-width: 0.8"/>
      </defs>
      <g>
       <use xlink:href="#m979a92be23" x="52.160938" y="261.558623" style="stroke: #000000; stroke-width: 0.8"/>
      </g>
     </g>
     <g id="text_11">
      <!-- −0.3 -->
      <g transform="translate(20.878125 265.357842) scale(0.1 -0.1)">
       <defs>
        <path id="DejaVuSans-2212" d="M 678 2272 
L 4684 2272 
L 4684 1741 
L 678 1741 
L 678 2272 
z
" transform="scale(0.015625)"/>
        <path id="DejaVuSans-2e" d="M 684 794 
L 1344 794 
L 1344 0 
L 684 0 
L 684 794 
z
" transform="scale(0.015625)"/>
       </defs>
       <use xlink:href="#DejaVuSans-2212"/>
       <use xlink:href="#DejaVuSans-30" x="83.789062"/>
       <use xlink:href="#DejaVuSans-2e" x="147.412109"/>
       <use xlink:href="#DejaVuSans-33" x="179.199219"/>
      </g>
     </g>
    </g>
    <g id="ytick_2">
     <g id="line2d_21">
      <path d="M 52.160938 228.167235 
L 409.280938 228.167235 
" clip-path="url(#p908e5b3d8d)" style="fill: none; stroke: #b0b0b0; stroke-width: 0.8; stroke-linecap: square"/>
     </g>
     <g id="line2d_22">
      <g>
       <use xlink:href="#m979a92be23" x="52.160938" y="228.167235" style="stroke: #000000; stroke-width: 0.8"/>
      </g>
     </g>
     <g id="text_12">
      <!-- −0.2 -->
      <g transform="translate(20.878125 231.966453) scale(0.1 -0.1)">
       <use xlink:href="#DejaVuSans-2212"/>
       <use xlink:href="#DejaVuSans-30" x="83.789062"/>
       <use xlink:href="#DejaVuSans-2e" x="147.412109"/>
       <use xlink:href="#DejaVuSans-32" x="179.199219"/>
      </g>
     </g>
    </g>
    <g id="ytick_3">
     <g id="line2d_23">
      <path d="M 52.160938 194.775846 
L 409.280938 194.775846 
" clip-path="url(#p908e5b3d8d)" style="fill: none; stroke: #b0b0b0; stroke-width: 0.8; stroke-linecap: square"/>
     </g>
     <g id="line2d_24">
      <g>
       <use xlink:href="#m979a92be23" x="52.160938" y="194.775846" style="stroke: #000000; stroke-width: 0.8"/>
      </g>
     </g>
     <g id="text_13">
      <!-- −0.1 -->
      <g transform="translate(20.878125 198.575065) scale(0.1 -0.1)">
       <use xlink:href="#DejaVuSans-2212"/>
       <use xlink:href="#DejaVuSans-30" x="83.789062"/>
       <use xlink:href="#DejaVuSans-2e" x="147.412109"/>
       <use xlink:href="#DejaVuSans-31" x="179.199219"/>
      </g>
     </g>
    </g>
    <g id="ytick_4">
     <g id="line2d_25">
      <path d="M 52.160938 161.384457 
L 409.280938 161.384457 
" clip-path="url(#p908e5b3d8d)" style="fill: none; stroke: #b0b0b0; stroke-width: 0.8; stroke-linecap: square"/>
     </g>
     <g id="line2d_26">
      <g>
       <use xlink:href="#m979a92be23" x="52.160938" y="161.384457" style="stroke: #000000; stroke-width: 0.8"/>
      </g>
     </g>
     <g id="text_14">
      <!-- 0.0 -->
      <g transform="translate(29.257812 165.183676) scale(0.1 -0.1)">
       <use xlink:href="#DejaVuSans-30"/>
       <use xlink:href="#DejaVuSans-2e" x="63.623047"/>
       <use xlink:href="#DejaVuSans-30" x="95.410156"/>
      </g>
     </g>
    </g>
    <g id="ytick_5">
     <g id="line2d_27">
      <path d="M 52.160938 127.993069 
L 409.280938 127.993069 
" clip-path="url(#p908e5b3d8d)" style="fill: none; stroke: #b0b0b0; stroke-width: 0.8; stroke-linecap: square"/>
     </g>
     <g id="line2d_28">
      <g>
       <use xlink:href="#m979a92be23" x="52.160938" y="127.993069" style="stroke: #000000; stroke-width: 0.8"/>
      </g>
     </g>
     <g id="text_15">
      <!-- 0.1 -->
      <g transform="translate(29.257812 131.792287) scale(0.1 -0.1)">
       <use xlink:href="#DejaVuSans-30"/>
       <use xlink:href="#DejaVuSans-2e" x="63.623047"/>
       <use xlink:href="#DejaVuSans-31" x="95.410156"/>
      </g>
     </g>
    </g>
    <g id="ytick_6">
     <g id="line2d_29">
      <path d="M 52.160938 94.60168 
L 409.280938 94.60168 
" clip-path="url(#p908e5b3d8d)" style="fill: none; stroke: #b0b0b0; stroke-width: 0.8; stroke-linecap: square"/>
     </g>
     <g id="line2d_30">
      <g>
       <use xlink:href="#m979a92be23" x="52.160938" y="94.60168" style="stroke: #000000; stroke-width: 0.8"/>
      </g>
     </g>
     <g id="text_16">
      <!-- 0.2 -->
      <g transform="translate(29.257812 98.400899) scale(0.1 -0.1)">
       <use xlink:href="#DejaVuSans-30"/>
       <use xlink:href="#DejaVuSans-2e" x="63.623047"/>
       <use xlink:href="#DejaVuSans-32" x="95.410156"/>
      </g>
     </g>
    </g>
    <g id="ytick_7">
     <g id="line2d_31">
      <path d="M 52.160938 61.210291 
L 409.280938 61.210291 
" clip-path="url(#p908e5b3d8d)" style="fill: none; stroke: #b0b0b0; stroke-width: 0.8; stroke-linecap: square"/>
     </g>
     <g id="line2d_32">
      <g>
       <use xlink:href="#m979a92be23" x="52.160938" y="61.210291" style="stroke: #000000; stroke-width: 0.8"/>
      </g>
     </g>
     <g id="text_17">
      <!-- 0.3 -->
      <g transform="translate(29.257812 65.00951) scale(0.1 -0.1)">
       <use xlink:href="#DejaVuSans-30"/>
       <use xlink:href="#DejaVuSans-2e" x="63.623047"/>
       <use xlink:href="#DejaVuSans-33" x="95.410156"/>
      </g>
     </g>
    </g>
    <g id="ytick_8">
     <g id="line2d_33">
      <path d="M 52.160938 27.818903 
L 409.280938 27.818903 
" clip-path="url(#p908e5b3d8d)" style="fill: none; stroke: #b0b0b0; stroke-width: 0.8; stroke-linecap: square"/>
     </g>
     <g id="line2d_34">
      <g>
       <use xlink:href="#m979a92be23" x="52.160938" y="27.818903" style="stroke: #000000; stroke-width: 0.8"/>
      </g>
     </g>
     <g id="text_18">
      <!-- 0.4 -->
      <g transform="translate(29.257812 31.618121) scale(0.1 -0.1)">
       <use xlink:href="#DejaVuSans-30"/>
       <use xlink:href="#DejaVuSans-2e" x="63.623047"/>
       <use xlink:href="#DejaVuSans-34" x="95.410156"/>
      </g>
     </g>
    </g>
    <g id="text_19">
     <!-- Outputs -->
     <g transform="translate(14.798437 175.346781) rotate(-90) scale(0.1 -0.1)">
      <defs>
       <path id="DejaVuSans-4f" d="M 2522 4238 
Q 1834 4238 1429 3725 
Q 1025 3213 1025 2328 
Q 1025 1447 1429 934 
Q 1834 422 2522 422 
Q 3209 422 3611 934 
Q 4013 1447 4013 2328 
Q 4013 3213 3611 3725 
Q 3209 4238 2522 4238 
z
M 2522 4750 
Q 3503 4750 4090 4092 
Q 4678 3434 4678 2328 
Q 4678 1225 4090 567 
Q 3503 -91 2522 -91 
Q 1538 -91 948 565 
Q 359 1222 359 2328 
Q 359 3434 948 4092 
Q 1538 4750 2522 4750 
z
" transform="scale(0.015625)"/>
       <path id="DejaVuSans-75" d="M 544 1381 
L 544 3500 
L 1119 3500 
L 1119 1403 
Q 1119 906 1312 657 
Q 1506 409 1894 409 
Q 2359 409 2629 706 
Q 2900 1003 2900 1516 
L 2900 3500 
L 3475 3500 
L 3475 0 
L 2900 0 
L 2900 538 
Q 2691 219 2414 64 
Q 2138 -91 1772 -91 
Q 1169 -91 856 284 
Q 544 659 544 1381 
z
M 1991 3584 
L 1991 3584 
z
" transform="scale(0.015625)"/>
       <path id="DejaVuSans-70" d="M 1159 525 
L 1159 -1331 
L 581 -1331 
L 581 3500 
L 1159 3500 
L 1159 2969 
Q 1341 3281 1617 3432 
Q 1894 3584 2278 3584 
Q 2916 3584 3314 3078 
Q 3713 2572 3713 1747 
Q 3713 922 3314 415 
Q 2916 -91 2278 -91 
Q 1894 -91 1617 61 
Q 1341 213 1159 525 
z
M 3116 1747 
Q 3116 2381 2855 2742 
Q 2594 3103 2138 3103 
Q 1681 3103 1420 2742 
Q 1159 2381 1159 1747 
Q 1159 1113 1420 752 
Q 1681 391 2138 391 
Q 2594 391 2855 752 
Q 3116 1113 3116 1747 
z
" transform="scale(0.015625)"/>
      </defs>
      <use xlink:href="#DejaVuSans-4f"/>
      <use xlink:href="#DejaVuSans-75" x="78.710938"/>
      <use xlink:href="#DejaVuSans-74" x="142.089844"/>
      <use xlink:href="#DejaVuSans-70" x="181.298828"/>
      <use xlink:href="#DejaVuSans-75" x="244.775391"/>
      <use xlink:href="#DejaVuSans-74" x="308.154297"/>
      <use xlink:href="#DejaVuSans-73" x="347.363281"/>
     </g>
    </g>
   </g>
   <g id="line2d_35">
    <path d="M 68.393665 208.369605 
L 76.71814 207.680181 
L 85.042616 275.996534 
L 93.367091 249.599377 
L 101.691567 189.041488 
L 110.016042 207.194628 
L 118.340518 207.1925 
L 126.664993 269.818758 
L 134.989469 255.928676 
L 143.313944 227.717946 
L 151.63842 219.389001 
L 159.962896 276.334125 
L 168.287371 233.081058 
L 176.611847 230.660596 
L 184.936322 240.735553 
L 193.260798 221.648916 
L 201.585273 236.244643 
L 209.909749 217.330512 
L 218.234224 230.232725 
L 226.5587 218.532464 
L 234.883175 193.274396 
L 243.207651 187.967586 
L 251.532126 128.889671 
L 259.856602 189.439035 
L 268.181077 158.772889 
L 276.505553 164.078648 
L 284.830028 138.245005 
L 293.154504 117.418642 
L 301.478979 112.786796 
L 309.803455 121.906156 
L 318.127931 148.640392 
L 326.452406 133.237574 
L 334.776882 181.279038 
L 343.101357 126.511326 
L 351.425833 173.038951 
L 359.750308 154.485404 
L 368.074784 204.597303 
L 376.399259 154.472021 
L 384.723735 189.554357 
L 393.04821 69.404946 
" clip-path="url(#p908e5b3d8d)" style="fill: none; stroke: #1f77b4; stroke-width: 1.5; stroke-linecap: square"/>
   </g>
   <g id="line2d_36">
    <path d="M 68.393665 132.771165 
L 76.71814 190.562586 
L 85.042616 141.538751 
L 93.367091 177.813136 
L 101.691567 208.070076 
L 110.016042 167.625796 
L 118.340518 198.766792 
L 126.664993 221.742852 
L 134.989469 190.595538 
L 143.313944 191.933381 
L 151.63842 197.48958 
L 159.962896 191.099955 
L 168.287371 200.116359 
L 176.611847 195.608756 
L 184.936322 225.769604 
L 193.260798 195.544877 
L 201.585273 219.982716 
L 209.909749 206.38473 
L 218.234224 197.321767 
L 226.5587 189.25211 
L 234.883175 191.39816 
L 243.207651 228.052274 
L 251.532126 129.539074 
L 259.856602 172.733512 
L 268.181077 122.002833 
L 276.505553 245.685455 
L 284.830028 175.868823 
L 293.154504 102.334065 
L 301.478979 152.047755 
L 309.803455 192.063562 
L 318.127931 143.997549 
L 326.452406 136.621586 
L 334.776882 116.748401 
L 343.101357 156.998526 
L 351.425833 72.69142 
L 359.750308 205.698521 
L 368.074784 178.246543 
L 376.399259 193.822815 
L 384.723735 140.521235 
L 393.04821 175.103807 
" clip-path="url(#p908e5b3d8d)" style="fill: none; stroke: #ff7f0e; stroke-width: 1.5; stroke-linecap: square"/>
   </g>
   <g id="line2d_37">
    <path d="M 68.393665 133.442244 
L 76.71814 118.752957 
L 85.042616 134.4535 
L 93.367091 157.202872 
L 101.691567 156.040911 
L 110.016042 154.127539 
L 118.340518 160.823461 
L 126.664993 160.632442 
L 134.989469 136.312686 
L 143.313944 154.464992 
L 151.63842 129.340641 
L 159.962896 164.948593 
L 168.287371 110.014276 
L 176.611847 157.751671 
L 184.936322 122.861422 
L 193.260798 150.659987 
L 201.585273 131.807833 
L 209.909749 118.222018 
L 218.234224 100.948339 
L 226.5587 141.195064 
L 234.883175 98.188554 
L 243.207651 106.055958 
L 251.532126 148.499553 
L 259.856602 151.571045 
L 268.181077 115.699606 
L 276.505553 108.8636 
L 284.830028 96.020214 
L 293.154504 211.814418 
L 301.478979 109.750942 
L 309.803455 151.389212 
L 318.127931 108.062187 
L 326.452406 124.712442 
L 334.776882 191.603059 
L 343.101357 177.947696 
L 351.425833 172.284908 
L 359.750308 166.572203 
L 368.074784 191.196085 
L 376.399259 162.685479 
L 384.723735 128.753915 
L 393.04821 202.845368 
" clip-path="url(#p908e5b3d8d)" style="fill: none; stroke: #2ca02c; stroke-width: 1.5; stroke-linecap: square"/>
   </g>
   <g id="line2d_38">
    <path d="M 68.393665 130.482949 
L 76.71814 142.126402 
L 85.042616 170.016115 
L 93.367091 235.57453 
L 101.691567 190.531692 
L 110.016042 174.383669 
L 118.340518 181.119346 
L 126.664993 190.367803 
L 134.989469 203.991206 
L 143.313944 210.814424 
L 151.63842 178.803241 
L 159.962896 185.416177 
L 168.287371 163.416985 
L 176.611847 179.922525 
L 184.936322 156.704172 
L 193.260798 170.906647 
L 201.585273 161.668256 
L 209.909749 175.14007 
L 218.234224 164.149436 
L 226.5587 174.323384 
L 234.883175 184.297687 
L 243.207651 150.104176 
L 251.532126 148.355899 
L 259.856602 167.878164 
L 268.181077 159.849434 
L 276.505553 150.040908 
L 284.830028 189.181556 
L 293.154504 167.242509 
L 301.478979 161.813703 
L 309.803455 135.132094 
L 318.127931 146.25051 
L 326.452406 142.295322 
L 334.776882 126.825472 
L 343.101357 221.66342 
L 351.425833 160.822458 
L 359.750308 79.767657 
L 368.074784 54.853718 
L 376.399259 101.728015 
L 384.723735 85.912641 
L 393.04821 39.32278 
" clip-path="url(#p908e5b3d8d)" style="fill: none; stroke: #d62728; stroke-width: 1.5; stroke-linecap: square"/>
   </g>
   <g id="line2d_39">
    <path d="M 68.393665 114.190802 
L 76.71814 106.305367 
L 85.042616 97.200749 
L 93.367091 130.981191 
L 101.691567 156.973877 
L 110.016042 145.924587 
L 118.340518 182.904452 
L 126.664993 117.105499 
L 134.989469 175.725585 
L 143.313944 133.821496 
L 151.63842 125.250606 
L 159.962896 142.391475 
L 168.287371 146.850827 
L 176.611847 167.263799 
L 184.936322 131.218575 
L 193.260798 140.872109 
L 201.585273 122.154617 
L 209.909749 115.820735 
L 218.234224 150.393978 
L 226.5587 130.558415 
L 234.883175 116.343034 
L 243.207651 142.352695 
L 251.532126 121.380469 
L 259.856602 108.213239 
L 268.181077 120.475081 
L 276.505553 87.975391 
L 284.830028 144.624956 
L 293.154504 75.880379 
L 301.478979 144.282939 
L 309.803455 109.880579 
L 318.127931 136.628266 
L 326.452406 64.37296 
L 334.776882 51.287433 
L 343.101357 156.305375 
L 351.425833 80.269616 
L 359.750308 77.624512 
L 368.074784 136.522844 
L 376.399259 137.456467 
L 384.723735 115.483387 
L 393.04821 104.136346 
" clip-path="url(#p908e5b3d8d)" style="fill: none; stroke: #9467bd; stroke-width: 1.5; stroke-linecap: square"/>
   </g>
   <g id="line2d_40">
    <path d="M 68.393665 164.715541 
L 76.71814 133.483958 
L 85.042616 164.177229 
L 93.367091 175.042393 
L 101.691567 140.905206 
L 110.016042 141.182534 
L 118.340518 160.281615 
L 126.664993 166.516111 
L 134.989469 185.927301 
L 143.313944 168.54767 
L 151.63842 171.059973 
L 159.962896 164.802723 
L 168.287371 170.796364 
L 176.611847 151.901344 
L 184.936322 130.545561 
L 193.260798 151.822529 
L 201.585273 145.756961 
L 209.909749 150.903252 
L 218.234224 138.182895 
L 226.5587 145.656473 
L 234.883175 115.426767 
L 243.207651 120.571402 
L 251.532126 106.454339 
L 259.856602 109.959776 
L 268.181077 52.64581 
L 276.505553 102.279716 
L 284.830028 55.017262 
L 293.154504 111.450191 
L 301.478979 112.718725 
L 309.803455 103.361622 
L 318.127931 116.351322 
L 326.452406 116.338285 
L 334.776882 107.290293 
L 343.101357 121.136337 
L 351.425833 72.80785 
L 359.750308 100.117154 
L 368.074784 99.402724 
L 376.399259 117.582775 
L 384.723735 124.544964 
L 393.04821 104.399972 
" clip-path="url(#p908e5b3d8d)" style="fill: none; stroke: #8c564b; stroke-width: 1.5; stroke-linecap: square"/>
   </g>
   <g id="line2d_41">
    <path d="M 68.393665 217.841834 
L 76.71814 196.730628 
L 85.042616 209.225373 
L 93.367091 185.342512 
L 101.691567 189.736624 
L 110.016042 162.547217 
L 118.340518 169.104847 
L 126.664993 169.120664 
L 134.989469 189.663291 
L 143.313944 170.184023 
L 151.63842 193.684917 
L 159.962896 193.129674 
L 168.287371 172.839345 
L 176.611847 192.360896 
L 184.936322 171.042628 
L 193.260798 182.837389 
L 201.585273 204.343929 
L 209.909749 248.607055 
L 218.234224 203.429801 
L 226.5587 208.626662 
L 234.883175 183.793516 
L 243.207651 151.368717 
L 251.532126 139.79273 
L 259.856602 109.617065 
L 268.181077 92.893 
L 276.505553 94.017374 
L 284.830028 83.600097 
L 293.154504 130.662276 
L 301.478979 119.209535 
L 309.803455 91.349743 
L 318.127931 115.929581 
L 326.452406 126.312892 
L 334.776882 34.414125 
L 343.101357 139.421336 
L 351.425833 145.048254 
L 359.750308 54.554991 
L 368.074784 70.472847 
L 376.399259 104.380313 
L 384.723735 71.880432 
L 393.04821 96.236496 
" clip-path="url(#p908e5b3d8d)" style="fill: none; stroke: #e377c2; stroke-width: 1.5; stroke-linecap: square"/>
   </g>
   <g id="line2d_42">
    <path d="M 68.393665 152.174953 
L 76.71814 168.355652 
L 85.042616 154.063096 
L 93.367091 186.701659 
L 101.691567 169.752833 
L 110.016042 196.487063 
L 118.340518 163.045547 
L 126.664993 182.855795 
L 134.989469 208.442921 
L 143.313944 193.097483 
L 151.63842 193.91231 
L 159.962896 189.566991 
L 168.287371 175.636874 
L 176.611847 167.482853 
L 184.936322 171.97563 
L 193.260798 180.489412 
L 201.585273 159.635661 
L 209.909749 174.731916 
L 218.234224 183.883284 
L 226.5587 152.598071 
L 234.883175 181.814072 
L 243.207651 171.518782 
L 251.532126 200.15262 
L 259.856602 168.159827 
L 268.181077 142.402001 
L 276.505553 158.650102 
L 284.830028 198.011635 
L 293.154504 183.233084 
L 301.478979 177.437494 
L 309.803455 176.891256 
L 318.127931 161.856444 
L 326.452406 130.71577 
L 334.776882 167.385272 
L 343.101357 187.397778 
L 351.425833 192.575847 
L 359.750308 157.180118 
L 368.074784 131.188949 
L 376.399259 172.140523 
L 384.723735 111.231635 
L 393.04821 212.463927 
" clip-path="url(#p908e5b3d8d)" style="fill: none; stroke: #7f7f7f; stroke-width: 1.5; stroke-linecap: square"/>
   </g>
   <g id="patch_3">
    <path d="M 52.160938 288.430125 
L 52.160938 22.318125 
" style="fill: none; stroke: #000000; stroke-width: 0.8; stroke-linejoin: miter; stroke-linecap: square"/>
   </g>
   <g id="patch_4">
    <path d="M 409.280938 288.430125 
L 409.280938 22.318125 
" style="fill: none; stroke: #000000; stroke-width: 0.8; stroke-linejoin: miter; stroke-linecap: square"/>
   </g>
   <g id="patch_5">
    <path d="M 52.160938 288.430125 
L 409.280938 288.430125 
" style="fill: none; stroke: #000000; stroke-width: 0.8; stroke-linejoin: miter; stroke-linecap: square"/>
   </g>
   <g id="patch_6">
    <path d="M 52.160938 22.318125 
L 409.280938 22.318125 
" style="fill: none; stroke: #000000; stroke-width: 0.8; stroke-linejoin: miter; stroke-linecap: square"/>
   </g>
   <g id="text_20">
    <!-- Outputs across generations -->
    <g transform="translate(147.952813 16.318125) scale(0.12 -0.12)">
     <defs>
      <path id="DejaVuSans-20" transform="scale(0.015625)"/>
      <path id="DejaVuSans-63" d="M 3122 3366 
L 3122 2828 
Q 2878 2963 2633 3030 
Q 2388 3097 2138 3097 
Q 1578 3097 1268 2742 
Q 959 2388 959 1747 
Q 959 1106 1268 751 
Q 1578 397 2138 397 
Q 2388 397 2633 464 
Q 2878 531 3122 666 
L 3122 134 
Q 2881 22 2623 -34 
Q 2366 -91 2075 -91 
Q 1284 -91 818 406 
Q 353 903 353 1747 
Q 353 2603 823 3093 
Q 1294 3584 2113 3584 
Q 2378 3584 2631 3529 
Q 2884 3475 3122 3366 
z
" transform="scale(0.015625)"/>
      <path id="DejaVuSans-67" d="M 2906 1791 
Q 2906 2416 2648 2759 
Q 2391 3103 1925 3103 
Q 1463 3103 1205 2759 
Q 947 2416 947 1791 
Q 947 1169 1205 825 
Q 1463 481 1925 481 
Q 2391 481 2648 825 
Q 2906 1169 2906 1791 
z
M 3481 434 
Q 3481 -459 3084 -895 
Q 2688 -1331 1869 -1331 
Q 1566 -1331 1297 -1286 
Q 1028 -1241 775 -1147 
L 775 -588 
Q 1028 -725 1275 -790 
Q 1522 -856 1778 -856 
Q 2344 -856 2625 -561 
Q 2906 -266 2906 331 
L 2906 616 
Q 2728 306 2450 153 
Q 2172 0 1784 0 
Q 1141 0 747 490 
Q 353 981 353 1791 
Q 353 2603 747 3093 
Q 1141 3584 1784 3584 
Q 2172 3584 2450 3431 
Q 2728 3278 2906 2969 
L 2906 3500 
L 3481 3500 
L 3481 434 
z
" transform="scale(0.015625)"/>
     </defs>
     <use xlink:href="#DejaVuSans-4f"/>
     <use xlink:href="#DejaVuSans-75" x="78.710938"/>
     <use xlink:href="#DejaVuSans-74" x="142.089844"/>
     <use xlink:href="#DejaVuSans-70" x="181.298828"/>
     <use xlink:href="#DejaVuSans-75" x="244.775391"/>
     <use xlink:href="#DejaVuSans-74" x="308.154297"/>
     <use xlink:href="#DejaVuSans-73" x="347.363281"/>
     <use xlink:href="#DejaVuSans-20" x="399.462891"/>
     <use xlink:href="#DejaVuSans-61" x="431.25"/>
     <use xlink:href="#DejaVuSans-63" x="492.529297"/>
     <use xlink:href="#DejaVuSans-72" x="547.509766"/>
     <use xlink:href="#DejaVuSans-6f" x="586.373047"/>
     <use xlink:href="#DejaVuSans-73" x="647.554688"/>
     <use xlink:href="#DejaVuSans-73" x="699.654297"/>
     <use xlink:href="#DejaVuSans-20" x="751.753906"/>
     <use xlink:href="#DejaVuSans-67" x="783.541016"/>
     <use xlink:href="#DejaVuSans-65" x="847.017578"/>
     <use xlink:href="#DejaVuSans-6e" x="908.541016"/>
     <use xlink:href="#DejaVuSans-65" x="971.919922"/>
     <use xlink:href="#DejaVuSans-72" x="1033.443359"/>
     <use xlink:href="#DejaVuSans-61" x="1074.556641"/>
     <use xlink:href="#DejaVuSans-74" x="1135.835938"/>
     <use xlink:href="#DejaVuSans-69" x="1175.044922"/>
     <use xlink:href="#DejaVuSans-6f" x="1202.828125"/>
     <use xlink:href="#DejaVuSans-6e" x="1264.009766"/>
     <use xlink:href="#DejaVuSans-73" x="1327.388672"/>
    </g>
   </g>
   <g id="legend_1">
    <g id="patch_7">
     <path d="M 425.565738 142.743125 
L 519.450113 142.743125 
Q 521.450113 142.743125 521.450113 140.743125 
L 521.450113 24.318125 
Q 521.450113 22.318125 519.450113 22.318125 
L 425.565738 22.318125 
Q 423.565738 22.318125 423.565738 24.318125 
L 423.565738 140.743125 
Q 423.565738 142.743125 425.565738 142.743125 
z
" style="fill: #ffffff; opacity: 0.8; stroke: #cccccc; stroke-linejoin: miter"/>
    </g>
    <g id="line2d_43">
     <path d="M 427.565738 30.416562 
L 437.565738 30.416562 
L 447.565738 30.416562 
" style="fill: none; stroke: #1f77b4; stroke-width: 1.5; stroke-linecap: square"/>
    </g>
    <g id="text_21">
     <!-- output 0 (-) -->
     <g transform="translate(455.565738 33.916562) scale(0.1 -0.1)">
      <defs>
       <path id="DejaVuSans-28" d="M 1984 4856 
Q 1566 4138 1362 3434 
Q 1159 2731 1159 2009 
Q 1159 1288 1364 580 
Q 1569 -128 1984 -844 
L 1484 -844 
Q 1016 -109 783 600 
Q 550 1309 550 2009 
Q 550 2706 781 3412 
Q 1013 4119 1484 4856 
L 1984 4856 
z
" transform="scale(0.015625)"/>
       <path id="DejaVuSans-2d" d="M 313 2009 
L 1997 2009 
L 1997 1497 
L 313 1497 
L 313 2009 
z
" transform="scale(0.015625)"/>
       <path id="DejaVuSans-29" d="M 513 4856 
L 1013 4856 
Q 1481 4119 1714 3412 
Q 1947 2706 1947 2009 
Q 1947 1309 1714 600 
Q 1481 -109 1013 -844 
L 513 -844 
Q 928 -128 1133 580 
Q 1338 1288 1338 2009 
Q 1338 2731 1133 3434 
Q 928 4138 513 4856 
z
" transform="scale(0.015625)"/>
      </defs>
      <use xlink:href="#DejaVuSans-6f"/>
      <use xlink:href="#DejaVuSans-75" x="61.181641"/>
      <use xlink:href="#DejaVuSans-74" x="124.560547"/>
      <use xlink:href="#DejaVuSans-70" x="163.769531"/>
      <use xlink:href="#DejaVuSans-75" x="227.246094"/>
      <use xlink:href="#DejaVuSans-74" x="290.625"/>
      <use xlink:href="#DejaVuSans-20" x="329.833984"/>
      <use xlink:href="#DejaVuSans-30" x="361.621094"/>
      <use xlink:href="#DejaVuSans-20" x="425.244141"/>
      <use xlink:href="#DejaVuSans-28" x="457.03125"/>
      <use xlink:href="#DejaVuSans-2d" x="496.044922"/>
      <use xlink:href="#DejaVuSans-29" x="532.128906"/>
     </g>
    </g>
    <g id="line2d_44">
     <path d="M 427.565738 45.094688 
L 437.565738 45.094688 
L 447.565738 45.094688 
" style="fill: none; stroke: #ff7f0e; stroke-width: 1.5; stroke-linecap: square"/>
    </g>
    <g id="text_22">
     <!-- output 1 (+) -->
     <g transform="translate(455.565738 48.594688) scale(0.1 -0.1)">
      <defs>
       <path id="DejaVuSans-2b" d="M 2944 4013 
L 2944 2272 
L 4684 2272 
L 4684 1741 
L 2944 1741 
L 2944 0 
L 2419 0 
L 2419 1741 
L 678 1741 
L 678 2272 
L 2419 2272 
L 2419 4013 
L 2944 4013 
z
" transform="scale(0.015625)"/>
      </defs>
      <use xlink:href="#DejaVuSans-6f"/>
      <use xlink:href="#DejaVuSans-75" x="61.181641"/>
      <use xlink:href="#DejaVuSans-74" x="124.560547"/>
      <use xlink:href="#DejaVuSans-70" x="163.769531"/>
      <use xlink:href="#DejaVuSans-75" x="227.246094"/>
      <use xlink:href="#DejaVuSans-74" x="290.625"/>
      <use xlink:href="#DejaVuSans-20" x="329.833984"/>
      <use xlink:href="#DejaVuSans-31" x="361.621094"/>
      <use xlink:href="#DejaVuSans-20" x="425.244141"/>
      <use xlink:href="#DejaVuSans-28" x="457.03125"/>
      <use xlink:href="#DejaVuSans-2b" x="496.044922"/>
      <use xlink:href="#DejaVuSans-29" x="579.833984"/>
     </g>
    </g>
    <g id="line2d_45">
     <path d="M 427.565738 59.772812 
L 437.565738 59.772812 
L 447.565738 59.772812 
" style="fill: none; stroke: #2ca02c; stroke-width: 1.5; stroke-linecap: square"/>
    </g>
    <g id="text_23">
     <!-- output 2 (-) -->
     <g transform="translate(455.565738 63.272812) scale(0.1 -0.1)">
      <use xlink:href="#DejaVuSans-6f"/>
      <use xlink:href="#DejaVuSans-75" x="61.181641"/>
      <use xlink:href="#DejaVuSans-74" x="124.560547"/>
      <use xlink:href="#DejaVuSans-70" x="163.769531"/>
      <use xlink:href="#DejaVuSans-75" x="227.246094"/>
      <use xlink:href="#DejaVuSans-74" x="290.625"/>
      <use xlink:href="#DejaVuSans-20" x="329.833984"/>
      <use xlink:href="#DejaVuSans-32" x="361.621094"/>
      <use xlink:href="#DejaVuSans-20" x="425.244141"/>
      <use xlink:href="#DejaVuSans-28" x="457.03125"/>
      <use xlink:href="#DejaVuSans-2d" x="496.044922"/>
      <use xlink:href="#DejaVuSans-29" x="532.128906"/>
     </g>
    </g>
    <g id="line2d_46">
     <path d="M 427.565738 74.450938 
L 437.565738 74.450938 
L 447.565738 74.450938 
" style="fill: none; stroke: #d62728; stroke-width: 1.5; stroke-linecap: square"/>
    </g>
    <g id="text_24">
     <!-- output 3 (+) -->
     <g transform="translate(455.565738 77.950938) scale(0.1 -0.1)">
      <use xlink:href="#DejaVuSans-6f"/>
      <use xlink:href="#DejaVuSans-75" x="61.181641"/>
      <use xlink:href="#DejaVuSans-74" x="124.560547"/>
      <use xlink:href="#DejaVuSans-70" x="163.769531"/>
      <use xlink:href="#DejaVuSans-75" x="227.246094"/>
      <use xlink:href="#DejaVuSans-74" x="290.625"/>
      <use xlink:href="#DejaVuSans-20" x="329.833984"/>
      <use xlink:href="#DejaVuSans-33" x="361.621094"/>
      <use xlink:href="#DejaVuSans-20" x="425.244141"/>
      <use xlink:href="#DejaVuSans-28" x="457.03125"/>
      <use xlink:href="#DejaVuSans-2b" x="496.044922"/>
      <use xlink:href="#DejaVuSans-29" x="579.833984"/>
     </g>
    </g>
    <g id="line2d_47">
     <path d="M 427.565738 89.129063 
L 437.565738 89.129063 
L 447.565738 89.129063 
" style="fill: none; stroke: #9467bd; stroke-width: 1.5; stroke-linecap: square"/>
    </g>
    <g id="text_25">
     <!-- output 4 (-) -->
     <g transform="translate(455.565738 92.629063) scale(0.1 -0.1)">
      <use xlink:href="#DejaVuSans-6f"/>
      <use xlink:href="#DejaVuSans-75" x="61.181641"/>
      <use xlink:href="#DejaVuSans-74" x="124.560547"/>
      <use xlink:href="#DejaVuSans-70" x="163.769531"/>
      <use xlink:href="#DejaVuSans-75" x="227.246094"/>
      <use xlink:href="#DejaVuSans-74" x="290.625"/>
      <use xlink:href="#DejaVuSans-20" x="329.833984"/>
      <use xlink:href="#DejaVuSans-34" x="361.621094"/>
      <use xlink:href="#DejaVuSans-20" x="425.244141"/>
      <use xlink:href="#DejaVuSans-28" x="457.03125"/>
      <use xlink:href="#DejaVuSans-2d" x="496.044922"/>
      <use xlink:href="#DejaVuSans-29" x="532.128906"/>
     </g>
    </g>
    <g id="line2d_48">
     <path d="M 427.565738 103.807187 
L 437.565738 103.807187 
L 447.565738 103.807187 
" style="fill: none; stroke: #8c564b; stroke-width: 1.5; stroke-linecap: square"/>
    </g>
    <g id="text_26">
     <!-- output 5 (+) -->
     <g transform="translate(455.565738 107.307187) scale(0.1 -0.1)">
      <use xlink:href="#DejaVuSans-6f"/>
      <use xlink:href="#DejaVuSans-75" x="61.181641"/>
      <use xlink:href="#DejaVuSans-74" x="124.560547"/>
      <use xlink:href="#DejaVuSans-70" x="163.769531"/>
      <use xlink:href="#DejaVuSans-75" x="227.246094"/>
      <use xlink:href="#DejaVuSans-74" x="290.625"/>
      <use xlink:href="#DejaVuSans-20" x="329.833984"/>
      <use xlink:href="#DejaVuSans-35" x="361.621094"/>
      <use xlink:href="#DejaVuSans-20" x="425.244141"/>
      <use xlink:href="#DejaVuSans-28" x="457.03125"/>
      <use xlink:href="#DejaVuSans-2b" x="496.044922"/>
      <use xlink:href="#DejaVuSans-29" x="579.833984"/>
     </g>
    </g>
    <g id="line2d_49">
     <path d="M 427.565738 118.485312 
L 437.565738 118.485312 
L 447.565738 118.485312 
" style="fill: none; stroke: #e377c2; stroke-width: 1.5; stroke-linecap: square"/>
    </g>
    <g id="text_27">
     <!-- output 6 (-) -->
     <g transform="translate(455.565738 121.985312) scale(0.1 -0.1)">
      <defs>
       <path id="DejaVuSans-36" d="M 2113 2584 
Q 1688 2584 1439 2293 
Q 1191 2003 1191 1497 
Q 1191 994 1439 701 
Q 1688 409 2113 409 
Q 2538 409 2786 701 
Q 3034 994 3034 1497 
Q 3034 2003 2786 2293 
Q 2538 2584 2113 2584 
z
M 3366 4563 
L 3366 3988 
Q 3128 4100 2886 4159 
Q 2644 4219 2406 4219 
Q 1781 4219 1451 3797 
Q 1122 3375 1075 2522 
Q 1259 2794 1537 2939 
Q 1816 3084 2150 3084 
Q 2853 3084 3261 2657 
Q 3669 2231 3669 1497 
Q 3669 778 3244 343 
Q 2819 -91 2113 -91 
Q 1303 -91 875 529 
Q 447 1150 447 2328 
Q 447 3434 972 4092 
Q 1497 4750 2381 4750 
Q 2619 4750 2861 4703 
Q 3103 4656 3366 4563 
z
" transform="scale(0.015625)"/>
      </defs>
      <use xlink:href="#DejaVuSans-6f"/>
      <use xlink:href="#DejaVuSans-75" x="61.181641"/>
      <use xlink:href="#DejaVuSans-74" x="124.560547"/>
      <use xlink:href="#DejaVuSans-70" x="163.769531"/>
      <use xlink:href="#DejaVuSans-75" x="227.246094"/>
      <use xlink:href="#DejaVuSans-74" x="290.625"/>
      <use xlink:href="#DejaVuSans-20" x="329.833984"/>
      <use xlink:href="#DejaVuSans-36" x="361.621094"/>
      <use xlink:href="#DejaVuSans-20" x="425.244141"/>
      <use xlink:href="#DejaVuSans-28" x="457.03125"/>
      <use xlink:href="#DejaVuSans-2d" x="496.044922"/>
      <use xlink:href="#DejaVuSans-29" x="532.128906"/>
     </g>
    </g>
    <g id="line2d_50">
     <path d="M 427.565738 133.163437 
L 437.565738 133.163437 
L 447.565738 133.163437 
" style="fill: none; stroke: #7f7f7f; stroke-width: 1.5; stroke-linecap: square"/>
    </g>
    <g id="text_28">
     <!-- output 7 (+) -->
     <g transform="translate(455.565738 136.663437) scale(0.1 -0.1)">
      <defs>
       <path id="DejaVuSans-37" d="M 525 4666 
L 3525 4666 
L 3525 4397 
L 1831 0 
L 1172 0 
L 2766 4134 
L 525 4134 
L 525 4666 
z
" transform="scale(0.015625)"/>
      </defs>
      <use xlink:href="#DejaVuSans-6f"/>
      <use xlink:href="#DejaVuSans-75" x="61.181641"/>
      <use xlink:href="#DejaVuSans-74" x="124.560547"/>
      <use xlink:href="#DejaVuSans-70" x="163.769531"/>
      <use xlink:href="#DejaVuSans-75" x="227.246094"/>
      <use xlink:href="#DejaVuSans-74" x="290.625"/>
      <use xlink:href="#DejaVuSans-20" x="329.833984"/>
      <use xlink:href="#DejaVuSans-37" x="361.621094"/>
      <use xlink:href="#DejaVuSans-20" x="425.244141"/>
      <use xlink:href="#DejaVuSans-28" x="457.03125"/>
      <use xlink:href="#DejaVuSans-2b" x="496.044922"/>
      <use xlink:href="#DejaVuSans-29" x="579.833984"/>
     </g>
    </g>
   </g>
  </g>
 </g>
 <defs>
  <clipPath id="p908e5b3d8d">
   <rect x="52.160938" y="22.318125" width="357.12" height="266.112"/>
  </clipPath>
 </defs>
</svg>
