<?xml version="1.0" encoding="UTF-8" standalone="no"?>
<!DOCTYPE svg PUBLIC "-//W3C//DTD SVG 1.1//EN"
 "http://www.w3.org/Graphics/SVG/1.1/DTD/svg11.dtd">
<!-- Generated by graphviz version 2.44.0 (0)
 -->
<!-- Pages: 1 -->
<svg width="1723pt" height="266pt"
 viewBox="0.00 0.00 1723.40 265.52" xmlns="http://www.w3.org/2000/svg" xmlns:xlink="http://www.w3.org/1999/xlink">
<g id="graph0" class="graph" transform="scale(1 1) rotate(0) translate(4 261.52)">
<polygon fill="white" stroke="transparent" points="-4,4 -4,-261.52 1719.4,-261.52 1719.4,4 -4,4"/>
<!-- &#45;1 -->
<g id="node1" class="node">
<title>&#45;1</title>
<polygon fill="lightgray" stroke="black" points="636.14,-257.52 610.14,-257.52 610.14,-239.52 636.14,-239.52 636.14,-257.52"/>
<text text-anchor="middle" x="623.14" y="-246.32" font-family="Times-Roman" font-size="9.00">&#45;1</text>
</g>
<!-- 0 -->
<g id="node7" class="node">
<title>0</title>
<ellipse fill="lightblue" stroke="black" cx="922.14" cy="-93.28" rx="16.03" ry="16.03"/>
<text text-anchor="middle" x="922.14" y="-91.08" font-family="Times-Roman" font-size="9.00">0</text>
</g>
<!-- &#45;1&#45;&gt;0 -->
<g id="edge121" class="edge">
<title>&#45;1&#45;&gt;0</title>
<path fill="none" stroke="green" stroke-width="0.2" d="M636.37,-240.74C682.94,-216.87 839.65,-136.55 899.05,-106.11"/>
<polygon fill="green" stroke="green" stroke-width="0.2" points="900.73,-109.18 908.03,-101.51 897.53,-102.95 900.73,-109.18"/>
</g>
<!-- 1 -->
<g id="node8" class="node">
<title>1</title>
<ellipse fill="lightblue" stroke="black" cx="762.14" cy="-93.28" rx="16.03" ry="16.03"/>
<text text-anchor="middle" x="762.14" y="-91.08" font-family="Times-Roman" font-size="9.00">1</text>
</g>
<!-- &#45;1&#45;&gt;1 -->
<g id="edge122" class="edge">
<title>&#45;1&#45;&gt;1</title>
<path fill="none" stroke="green" stroke-width="0.37" d="M610.01,-245.23C599.94,-243.51 585.69,-241.19 573.14,-239.52 498.04,-229.53 284.8,-259.85 234.14,-203.52 219.43,-187.17 219.31,-170.27 234.14,-154.02 263.7,-121.63 583.68,-123.83 627.14,-118.02 665.46,-112.91 709.5,-104.72 736.58,-99.42"/>
<polygon fill="green" stroke="green" stroke-width="0.37" points="737.28,-102.85 746.41,-97.48 735.92,-95.99 737.28,-102.85"/>
</g>
<!-- 2 -->
<g id="node9" class="node">
<title>2</title>
<ellipse fill="lightblue" stroke="black" cx="497.14" cy="-93.28" rx="16.03" ry="16.03"/>
<text text-anchor="middle" x="497.14" y="-91.08" font-family="Times-Roman" font-size="9.00">2</text>
</g>
<!-- &#45;1&#45;&gt;2 -->
<g id="edge123" class="edge">
<title>&#45;1&#45;&gt;2</title>
<path fill="none" stroke="green" stroke-width="0.12" d="M610.03,-245.08C599.97,-243.28 585.72,-240.93 573.14,-239.52 510.95,-232.57 53.95,-249.16 11.14,-203.52 -3.91,-187.48 -3.44,-170.5 11.14,-154.02 41.88,-119.27 373.7,-100.34 470.67,-95.52"/>
<polygon fill="green" stroke="green" stroke-width="0.12" points="470.99,-99.01 480.81,-95.02 470.65,-92.02 470.99,-99.01"/>
</g>
<!-- 3 -->
<g id="node10" class="node">
<title>3</title>
<ellipse fill="lightblue" stroke="black" cx="1031.14" cy="-93.28" rx="16.03" ry="16.03"/>
<text text-anchor="middle" x="1031.14" y="-91.08" font-family="Times-Roman" font-size="9.00">3</text>
</g>
<!-- &#45;1&#45;&gt;3 -->
<g id="edge124" class="edge">
<title>&#45;1&#45;&gt;3</title>
<path fill="none" stroke="red" stroke-width="0.44" d="M636.39,-244.09C643.15,-242.46 651.54,-240.64 659.14,-239.52 713.92,-231.49 1118.43,-244.06 1156.14,-203.52 1171.12,-187.41 1167.87,-172.63 1156.14,-154.02 1153.21,-149.37 1090.72,-120.9 1055.23,-104.99"/>
<polygon fill="red" stroke="red" stroke-width="0.44" points="1056.56,-101.76 1046.01,-100.87 1053.71,-108.15 1056.56,-101.76"/>
</g>
<!-- 4 -->
<g id="node11" class="node">
<title>4</title>
<ellipse fill="lightblue" stroke="black" cx="872.14" cy="-16.26" rx="16.03" ry="16.03"/>
<text text-anchor="middle" x="872.14" y="-14.06" font-family="Times-Roman" font-size="9.00">4</text>
</g>
<!-- &#45;1&#45;&gt;4 -->
<g id="edge125" class="edge">
<title>&#45;1&#45;&gt;4</title>
<path fill="none" stroke="red" stroke-width="0.28" d="M610.03,-245.08C599.97,-243.29 585.72,-240.93 573.14,-239.52 511.95,-232.65 62.24,-248.45 20.14,-203.52 5.1,-187.47 13.43,-174.98 20.14,-154.02 34.37,-109.57 40.35,-91.23 81.14,-68.53 149.2,-30.65 715.54,-19.67 845.59,-17.64"/>
<polygon fill="red" stroke="red" stroke-width="0.28" points="845.88,-21.14 855.83,-17.49 845.78,-14.14 845.88,-21.14"/>
</g>
<!-- 5 -->
<g id="node12" class="node">
<title>5</title>
<ellipse fill="lightblue" stroke="black" cx="602.14" cy="-93.28" rx="16.03" ry="16.03"/>
<text text-anchor="middle" x="602.14" y="-91.08" font-family="Times-Roman" font-size="9.00">5</text>
</g>
<!-- &#45;1&#45;&gt;5 -->
<g id="edge126" class="edge">
<title>&#45;1&#45;&gt;5</title>
<path fill="none" stroke="red" stroke-width="0.84" d="M610.02,-245.16C599.95,-243.41 585.7,-241.08 573.14,-239.52 527.75,-233.91 194.03,-237.24 163.14,-203.52 148.28,-187.3 148.38,-170.34 163.14,-154.02 216.93,-94.57 443.47,-133.5 522.14,-118.02 541.03,-114.31 561.87,-108.05 577.54,-102.89"/>
<polygon fill="red" stroke="red" stroke-width="0.84" points="578.66,-106.21 587.02,-99.7 576.42,-99.57 578.66,-106.21"/>
</g>
<!-- 136 -->
<g id="node13" class="node">
<title>136</title>
<ellipse fill="white" stroke="black" cx="268.14" cy="-178.77" rx="25" ry="25"/>
<text text-anchor="middle" x="268.14" y="-176.57" font-family="Times-Roman" font-size="9.00">136</text>
</g>
<!-- &#45;1&#45;&gt;136 -->
<g id="edge1" class="edge">
<title>&#45;1&#45;&gt;136</title>
<path fill="none" stroke="red" stroke-width="0.27" d="M610,-245.32C599.92,-243.65 585.67,-241.35 573.14,-239.52 452.48,-221.89 414.49,-248.49 301.14,-203.52 299.27,-202.78 297.41,-201.91 295.57,-200.95"/>
<polygon fill="red" stroke="red" stroke-width="0.27" points="297.1,-197.78 286.75,-195.55 293.45,-203.75 297.1,-197.78"/>
</g>
<!-- 137 -->
<g id="node14" class="node">
<title>137</title>
<ellipse fill="white" stroke="black" cx="441.14" cy="-178.77" rx="25" ry="25"/>
<text text-anchor="middle" x="441.14" y="-176.57" font-family="Times-Roman" font-size="9.00">137</text>
</g>
<!-- &#45;1&#45;&gt;137 -->
<g id="edge2" class="edge">
<title>&#45;1&#45;&gt;137</title>
<path fill="none" stroke="green" stroke-width="0.51" d="M609.84,-245.16C583.1,-240.08 521.37,-226.66 474.14,-203.52 472.33,-202.64 470.52,-201.65 468.72,-200.61"/>
<polygon fill="green" stroke="green" stroke-width="0.51" points="470.3,-197.46 460,-194.99 466.51,-203.34 470.3,-197.46"/>
</g>
<!-- 138 -->
<g id="node15" class="node">
<title>138</title>
<ellipse fill="white" stroke="black" cx="872.14" cy="-178.77" rx="25" ry="25"/>
<text text-anchor="middle" x="872.14" y="-176.57" font-family="Times-Roman" font-size="9.00">138</text>
</g>
<!-- &#45;1&#45;&gt;138 -->
<g id="edge3" class="edge">
<title>&#45;1&#45;&gt;138</title>
<path fill="none" stroke="green" stroke-width="0.58" d="M636.18,-243.97C673.67,-233.77 782.65,-204.12 838.41,-188.95"/>
<polygon fill="green" stroke="green" stroke-width="0.58" points="839.45,-192.3 848.18,-186.29 837.61,-185.54 839.45,-192.3"/>
</g>
<!-- 139 -->
<g id="node16" class="node">
<title>139</title>
<ellipse fill="white" stroke="black" cx="1295.14" cy="-178.77" rx="25" ry="25"/>
<text text-anchor="middle" x="1295.14" y="-176.57" font-family="Times-Roman" font-size="9.00">139</text>
</g>
<!-- &#45;1&#45;&gt;139 -->
<g id="edge4" class="edge">
<title>&#45;1&#45;&gt;139</title>
<path fill="none" stroke="green" stroke-width="0.24" d="M636.38,-244.05C643.14,-242.41 651.53,-240.59 659.14,-239.52 792.08,-220.9 1135.66,-248.51 1262.14,-203.52 1264.03,-202.85 1265.92,-202.03 1267.77,-201.11"/>
<polygon fill="green" stroke="green" stroke-width="0.24" points="1269.84,-203.95 1276.63,-195.82 1266.25,-197.93 1269.84,-203.95"/>
</g>
<!-- 140 -->
<g id="node17" class="node">
<title>140</title>
<ellipse fill="white" stroke="black" cx="1016.14" cy="-178.77" rx="25" ry="25"/>
<text text-anchor="middle" x="1016.14" y="-176.57" font-family="Times-Roman" font-size="9.00">140</text>
</g>
<!-- &#45;1&#45;&gt;140 -->
<g id="edge5" class="edge">
<title>&#45;1&#45;&gt;140</title>
<path fill="none" stroke="green" stroke-width="0.36" d="M636.41,-244.22C643.18,-242.63 651.56,-240.79 659.14,-239.52 799.43,-216.06 842.57,-249.59 977.14,-203.52 980.65,-202.32 984.17,-200.77 987.59,-199.03"/>
<polygon fill="green" stroke="green" stroke-width="0.36" points="989.33,-202.07 996.32,-194.11 985.89,-195.97 989.33,-202.07"/>
</g>
<!-- 141 -->
<g id="node18" class="node">
<title>141</title>
<ellipse fill="white" stroke="black" cx="1122.14" cy="-178.77" rx="25" ry="25"/>
<text text-anchor="middle" x="1122.14" y="-176.57" font-family="Times-Roman" font-size="9.00">141</text>
</g>
<!-- &#45;1&#45;&gt;141 -->
<g id="edge6" class="edge">
<title>&#45;1&#45;&gt;141</title>
<path fill="none" stroke="green" stroke-width="0.31" d="M636.4,-244.15C643.16,-242.54 651.55,-240.71 659.14,-239.52 831.55,-212.54 879.29,-239.08 1050.14,-203.52 1063.23,-200.8 1077.26,-196.5 1089.43,-192.3"/>
<polygon fill="green" stroke="green" stroke-width="0.31" points="1090.91,-195.49 1099.16,-188.84 1088.56,-188.89 1090.91,-195.49"/>
</g>
<!-- 142 -->
<g id="node19" class="node">
<title>142</title>
<ellipse fill="white" stroke="black" cx="1228.14" cy="-178.77" rx="25" ry="25"/>
<text text-anchor="middle" x="1228.14" y="-176.57" font-family="Times-Roman" font-size="9.00">142</text>
</g>
<!-- &#45;1&#45;&gt;142 -->
<g id="edge7" class="edge">
<title>&#45;1&#45;&gt;142</title>
<path fill="none" stroke="green" stroke-width="0.18" d="M636.39,-244.08C643.15,-242.45 651.54,-240.62 659.14,-239.52 892.82,-205.82 964.11,-274.96 1189.14,-203.52 1192.67,-202.4 1196.21,-200.9 1199.65,-199.19"/>
<polygon fill="green" stroke="green" stroke-width="0.18" points="1201.36,-202.24 1208.39,-194.31 1197.95,-196.13 1201.36,-202.24"/>
</g>
<!-- 143 -->
<g id="node20" class="node">
<title>143</title>
<ellipse fill="white" stroke="black" cx="335.14" cy="-178.77" rx="25" ry="25"/>
<text text-anchor="middle" x="335.14" y="-176.57" font-family="Times-Roman" font-size="9.00">143</text>
</g>
<!-- &#45;1&#45;&gt;143 -->
<g id="edge8" class="edge">
<title>&#45;1&#45;&gt;143</title>
<path fill="none" stroke="red" stroke-width="0.15" d="M610.08,-245.35C560.41,-237.08 385.41,-207.78 374.14,-203.52 370.67,-202.21 367.17,-200.59 363.76,-198.81"/>
<polygon fill="red" stroke="red" stroke-width="0.15" points="365.47,-195.76 355.05,-193.85 362.01,-201.84 365.47,-195.76"/>
</g>
<!-- 144 -->
<g id="node21" class="node">
<title>144</title>
<ellipse fill="white" stroke="black" cx="508.14" cy="-178.77" rx="25" ry="25"/>
<text text-anchor="middle" x="508.14" y="-176.57" font-family="Times-Roman" font-size="9.00">144</text>
</g>
<!-- &#45;1&#45;&gt;144 -->
<g id="edge9" class="edge">
<title>&#45;1&#45;&gt;144</title>
<path fill="none" stroke="green" stroke-width="0.4" d="M609.91,-239.98C594.7,-231.29 569.03,-216.52 547.14,-203.52 544.12,-201.73 540.97,-199.84 537.84,-197.95"/>
<polygon fill="green" stroke="green" stroke-width="0.4" points="539.5,-194.87 529.14,-192.68 535.87,-200.85 539.5,-194.87"/>
</g>
<!-- 145 -->
<g id="node22" class="node">
<title>145</title>
<ellipse fill="white" stroke="black" cx="652.14" cy="-178.77" rx="25" ry="25"/>
<text text-anchor="middle" x="652.14" y="-176.57" font-family="Times-Roman" font-size="9.00">145</text>
</g>
<!-- &#45;1&#45;&gt;145 -->
<g id="edge10" class="edge">
<title>&#45;1&#45;&gt;145</title>
<path fill="none" stroke="green" stroke-width="0.52" stroke-dasharray="1,5" d="M626.58,-239.48C629.61,-232.4 634.23,-221.6 638.72,-211.13"/>
<polygon fill="green" stroke="green" stroke-width="0.52" points="642.03,-212.29 642.75,-201.72 635.59,-209.53 642.03,-212.29"/>
</g>
<!-- &#45;2 -->
<g id="node2" class="node">
<title>&#45;2</title>
<polygon fill="lightgray" stroke="black" points="1082.14,-257.52 1056.14,-257.52 1056.14,-239.52 1082.14,-239.52 1082.14,-257.52"/>
<text text-anchor="middle" x="1069.14" y="-246.32" font-family="Times-Roman" font-size="9.00">&#45;2</text>
</g>
<!-- &#45;2&#45;&gt;0 -->
<g id="edge127" class="edge">
<title>&#45;2&#45;&gt;0</title>
<path fill="none" stroke="red" stroke-width="0.13" d="M1082.27,-247.6C1166.17,-247.94 1625.02,-247.78 1666.14,-203.52 1681.11,-187.4 1681.27,-170 1666.14,-154.02 1615.64,-100.7 1078.58,-130.09 1006.14,-118.02 986.03,-114.68 963.86,-108.29 947.34,-102.98"/>
<polygon fill="red" stroke="red" stroke-width="0.13" points="947.98,-99.5 937.39,-99.69 945.79,-106.15 947.98,-99.5"/>
</g>
<!-- &#45;2&#45;&gt;1 -->
<g id="edge128" class="edge">
<title>&#45;2&#45;&gt;1</title>
<path fill="none" stroke="green" stroke-width="0.14" d="M1082.41,-247.25C1153.21,-245.64 1484.36,-236.39 1514.14,-203.52 1528.91,-187.22 1529.24,-170.03 1514.14,-154.02 1467.02,-104.07 965.35,-125.99 897.14,-118.02 858.74,-113.54 814.72,-105.19 787.67,-99.68"/>
<polygon fill="green" stroke="green" stroke-width="0.14" points="788.35,-96.24 777.85,-97.65 786.93,-103.1 788.35,-96.24"/>
</g>
<!-- &#45;2&#45;&gt;2 -->
<g id="edge129" class="edge">
<title>&#45;2&#45;&gt;2</title>
<path fill="none" stroke="red" stroke-width="0.47" d="M1055.93,-241.4C1038.68,-233.27 1007.66,-218.23 982.14,-203.52 947.21,-183.4 944.1,-167.59 906.14,-154.02 767.62,-104.54 721.34,-147.07 577.14,-118.02 558.27,-114.22 537.43,-107.97 521.75,-102.83"/>
<polygon fill="red" stroke="red" stroke-width="0.47" points="522.86,-99.51 512.27,-99.66 520.64,-106.15 522.86,-99.51"/>
</g>
<!-- &#45;2&#45;&gt;3 -->
<g id="edge130" class="edge">
<title>&#45;2&#45;&gt;3</title>
<path fill="none" stroke="red" stroke-width="0.25" d="M1082.25,-247.66C1169.17,-248.42 1660.18,-250.64 1704.14,-203.52 1719.15,-187.44 1719.16,-170.1 1704.14,-154.02 1663.61,-110.66 1230.09,-125 1171.14,-118.02 1131.16,-113.29 1085.21,-104.93 1057.18,-99.5"/>
<polygon fill="red" stroke="red" stroke-width="0.25" points="1057.51,-96 1047.02,-97.51 1056.16,-102.87 1057.51,-96"/>
</g>
<!-- &#45;2&#45;&gt;4 -->
<g id="edge131" class="edge">
<title>&#45;2&#45;&gt;4</title>
<path fill="none" stroke="red" stroke-width="0.24" d="M1082.15,-247.27C1153.06,-245.78 1490.81,-236.95 1521.14,-203.52 1544.7,-177.55 1506.35,-74.6 1499.14,-68.53 1452.61,-29.32 1012.04,-19.53 898.65,-17.65"/>
<polygon fill="red" stroke="red" stroke-width="0.24" points="898.49,-14.14 888.44,-17.49 898.38,-21.14 898.49,-14.14"/>
</g>
<!-- &#45;2&#45;&gt;5 -->
<g id="edge132" class="edge">
<title>&#45;2&#45;&gt;5</title>
<path fill="none" stroke="green" stroke-width="0.44" stroke-dasharray="1,5" d="M1082.16,-247.43C1130.27,-246.77 1296.86,-241.72 1329.14,-203.52 1343.34,-186.72 1344.22,-170.05 1329.14,-154.02 1283.98,-106.03 802.58,-125.75 737.14,-118.02 698.75,-113.5 654.72,-105.15 627.67,-99.66"/>
<polygon fill="green" stroke="green" stroke-width="0.44" points="628.35,-96.22 617.85,-97.64 626.94,-103.08 628.35,-96.22"/>
</g>
<!-- &#45;2&#45;&gt;136 -->
<g id="edge11" class="edge">
<title>&#45;2&#45;&gt;136</title>
<path fill="none" stroke="green" stroke-width="0.13" d="M1056.14,-246.41C1036.61,-244.77 998.53,-241.66 966.14,-239.52 818.47,-229.79 440.71,-252.73 301.14,-203.52 299.24,-202.85 297.36,-202.04 295.51,-201.12"/>
<polygon fill="green" stroke="green" stroke-width="0.13" points="297.02,-197.95 286.64,-195.84 293.44,-203.96 297.02,-197.95"/>
</g>
<!-- &#45;2&#45;&gt;137 -->
<g id="edge12" class="edge">
<title>&#45;2&#45;&gt;137</title>
<path fill="none" stroke="green" stroke-width="0.22" d="M1056.13,-246.49C1036.6,-244.95 998.51,-241.96 966.14,-239.52 856.82,-231.28 577.18,-240.95 474.14,-203.52 472.25,-202.84 470.37,-202.01 468.52,-201.08"/>
<polygon fill="green" stroke="green" stroke-width="0.22" points="470.04,-197.91 459.66,-195.77 466.44,-203.91 470.04,-197.91"/>
</g>
<!-- &#45;2&#45;&gt;138 -->
<g id="edge13" class="edge">
<title>&#45;2&#45;&gt;138</title>
<path fill="none" stroke="red" stroke-width="0.4" d="M1056.03,-245.14C1028.42,-239.87 962.6,-225.84 911.14,-203.52 907.74,-202.05 904.28,-200.32 900.9,-198.48"/>
<polygon fill="red" stroke="red" stroke-width="0.4" points="902.62,-195.43 892.21,-193.45 899.11,-201.49 902.62,-195.43"/>
</g>
<!-- &#45;2&#45;&gt;139 -->
<g id="edge14" class="edge">
<title>&#45;2&#45;&gt;139</title>
<path fill="none" stroke="red" stroke-width="0.35" d="M1082.35,-246.34C1114.45,-243.07 1198.55,-232.22 1262.14,-203.52 1263.97,-202.69 1265.81,-201.76 1267.62,-200.74"/>
<polygon fill="red" stroke="red" stroke-width="0.35" points="1269.8,-203.51 1276.39,-195.21 1266.06,-197.59 1269.8,-203.51"/>
</g>
<!-- &#45;2&#45;&gt;140 -->
<g id="edge15" class="edge">
<title>&#45;2&#45;&gt;140</title>
<path fill="none" stroke="red" stroke-width="0.21" d="M1062.85,-239.48C1056.52,-231.4 1046.41,-218.47 1037.21,-206.71"/>
<polygon fill="red" stroke="red" stroke-width="0.21" points="1039.96,-204.55 1031.05,-198.83 1034.45,-208.86 1039.96,-204.55"/>
</g>
<!-- &#45;2&#45;&gt;141 -->
<g id="edge16" class="edge">
<title>&#45;2&#45;&gt;141</title>
<path fill="none" stroke="red" stroke-width="0.63" d="M1075.43,-239.48C1081.75,-231.4 1091.87,-218.47 1101.07,-206.71"/>
<polygon fill="red" stroke="red" stroke-width="0.63" points="1103.83,-208.86 1107.23,-198.83 1098.31,-204.55 1103.83,-208.86"/>
</g>
<!-- &#45;2&#45;&gt;142 -->
<g id="edge17" class="edge">
<title>&#45;2&#45;&gt;142</title>
<path fill="none" stroke="red" stroke-width="0.19" d="M1082.45,-243.58C1104.96,-236.71 1151.76,-221.54 1189.14,-203.52 1192.48,-201.91 1195.9,-200.1 1199.26,-198.21"/>
<polygon fill="red" stroke="red" stroke-width="0.19" points="1201.07,-201.2 1207.92,-193.12 1197.52,-195.17 1201.07,-201.2"/>
</g>
<!-- &#45;2&#45;&gt;143 -->
<g id="edge18" class="edge">
<title>&#45;2&#45;&gt;143</title>
<path fill="none" stroke="green" stroke-width="0.73" d="M1056.14,-246.46C1036.6,-244.87 998.52,-241.82 966.14,-239.52 717.81,-221.88 651.55,-250.9 407.14,-203.52 393.91,-200.96 379.76,-196.65 367.52,-192.4"/>
<polygon fill="green" stroke="green" stroke-width="0.73" points="368.36,-188.98 357.77,-188.88 365.99,-195.57 368.36,-188.98"/>
</g>
<!-- &#45;2&#45;&gt;144 -->
<g id="edge19" class="edge">
<title>&#45;2&#45;&gt;144</title>
<path fill="none" stroke="red" stroke-width="0.13" d="M1056.06,-246.45C991.47,-241.13 706.17,-217.27 618.14,-203.52 592.43,-199.51 563.69,-193.24 542.04,-188.15"/>
<polygon fill="red" stroke="red" stroke-width="0.13" points="542.56,-184.68 532.02,-185.76 540.94,-191.49 542.56,-184.68"/>
</g>
<!-- &#45;2&#45;&gt;145 -->
<g id="edge20" class="edge">
<title>&#45;2&#45;&gt;145</title>
<path fill="none" stroke="green" stroke-width="0.51" d="M1055.74,-245.34C998.47,-236.04 773.28,-199.45 686.5,-185.36"/>
<polygon fill="green" stroke="green" stroke-width="0.51" points="687.05,-181.9 676.62,-183.75 685.93,-188.81 687.05,-181.9"/>
</g>
<!-- &#45;3 -->
<g id="node3" class="node">
<title>&#45;3</title>
<polygon fill="lightgray" stroke="black" points="957.14,-257.52 931.14,-257.52 931.14,-239.52 957.14,-239.52 957.14,-257.52"/>
<text text-anchor="middle" x="944.14" y="-246.32" font-family="Times-Roman" font-size="9.00">&#45;3</text>
</g>
<!-- &#45;3&#45;&gt;0 -->
<g id="edge133" class="edge">
<title>&#45;3&#45;&gt;0</title>
<path fill="none" stroke="green" stroke-width="0.24" d="M957.54,-246.48C1032.07,-240.63 1392.47,-211.97 1400.14,-203.52 1414.93,-187.24 1414.97,-170.27 1400.14,-154.02 1370.5,-121.56 1049.36,-126.04 1006.14,-118.02 986.09,-114.31 963.92,-107.94 947.39,-102.73"/>
<polygon fill="green" stroke="green" stroke-width="0.24" points="948.01,-99.26 937.42,-99.52 945.86,-105.92 948.01,-99.26"/>
</g>
<!-- &#45;3&#45;&gt;1 -->
<g id="edge134" class="edge">
<title>&#45;3&#45;&gt;1</title>
<path fill="none" stroke="green" stroke-width="0.44" d="M957.35,-246.5C1023.55,-241.34 1316.43,-217.77 1329.14,-203.52 1343.79,-187.11 1344.03,-170.21 1329.14,-154.02 1296.53,-118.58 944.91,-124.2 897.14,-118.02 858.8,-113.07 814.76,-104.84 787.69,-99.49"/>
<polygon fill="green" stroke="green" stroke-width="0.44" points="788.36,-96.05 777.86,-97.52 786.98,-102.91 788.36,-96.05"/>
</g>
<!-- &#45;3&#45;&gt;2 -->
<g id="edge135" class="edge">
<title>&#45;3&#45;&gt;2</title>
<path fill="none" stroke="green" stroke-width="0.2" d="M931.1,-246.43C912.63,-244.88 877.81,-241.97 848.14,-239.52 799.14,-235.48 440.46,-239.67 407.14,-203.52 392.23,-187.35 396.74,-173.41 407.14,-154.02 420.84,-128.49 450.79,-112.01 472.39,-102.96"/>
<polygon fill="green" stroke="green" stroke-width="0.2" points="473.89,-106.13 481.92,-99.21 471.33,-99.61 473.89,-106.13"/>
</g>
<!-- &#45;3&#45;&gt;3 -->
<g id="edge136" class="edge">
<title>&#45;3&#45;&gt;3</title>
<path fill="none" stroke="green" stroke-width="0.52" d="M957.14,-246.49C976.68,-244.93 1014.77,-241.93 1047.14,-239.52 1103.24,-235.34 1513.8,-244.69 1552.14,-203.52 1651.11,-97.25 1671.36,-183.99 1171.14,-118.02 1131.22,-112.76 1085.26,-104.55 1057.21,-99.29"/>
<polygon fill="green" stroke="green" stroke-width="0.52" points="1057.51,-95.79 1047.04,-97.37 1056.21,-102.66 1057.51,-95.79"/>
</g>
<!-- &#45;3&#45;&gt;4 -->
<g id="edge137" class="edge">
<title>&#45;3&#45;&gt;4</title>
<path fill="none" stroke="green" stroke-width="0.29" d="M957.15,-246.51C1041.18,-239.95 1503.84,-203.85 1504.14,-203.52 1519.07,-187.37 1508.06,-175.67 1504.14,-154.02 1496.91,-114.1 1504.46,-93.05 1472.14,-68.53 1425.94,-33.48 1009.1,-20.68 898.81,-17.88"/>
<polygon fill="green" stroke="green" stroke-width="0.29" points="898.64,-14.38 888.56,-17.63 898.47,-21.38 898.64,-14.38"/>
</g>
<!-- &#45;3&#45;&gt;5 -->
<g id="edge138" class="edge">
<title>&#45;3&#45;&gt;5</title>
<path fill="none" stroke="green" stroke-width="0.36" d="M931.01,-242.27C910.91,-234.18 871.35,-218.09 838.14,-203.52 759.67,-169.09 667.84,-125.67 625.59,-105.51"/>
<polygon fill="green" stroke="green" stroke-width="0.36" points="626.95,-102.28 616.42,-101.13 623.93,-108.6 626.95,-102.28"/>
</g>
<!-- &#45;3&#45;&gt;136 -->
<g id="edge21" class="edge">
<title>&#45;3&#45;&gt;136</title>
<path fill="none" stroke="green" stroke-width="0.32" d="M931.1,-246.36C912.64,-244.74 877.83,-241.74 848.14,-239.52 726.66,-230.46 415.79,-244.69 301.14,-203.52 299.25,-202.84 297.37,-202.02 295.52,-201.09"/>
<polygon fill="green" stroke="green" stroke-width="0.32" points="297.03,-197.92 286.65,-195.8 293.44,-203.93 297.03,-197.92"/>
</g>
<!-- &#45;3&#45;&gt;137 -->
<g id="edge22" class="edge">
<title>&#45;3&#45;&gt;137</title>
<path fill="none" stroke="red" stroke-width="0.61" d="M930.92,-246.38C855.76,-239.88 485.17,-207.66 474.14,-203.52 472.26,-202.82 470.38,-201.97 468.54,-201.03"/>
<polygon fill="red" stroke="red" stroke-width="0.61" points="470.06,-197.86 459.69,-195.69 466.45,-203.86 470.06,-197.86"/>
</g>
<!-- &#45;3&#45;&gt;138 -->
<g id="edge23" class="edge">
<title>&#45;3&#45;&gt;138</title>
<path fill="none" stroke="green" stroke-width="0.43" d="M935.6,-239.48C926.19,-230.64 910.64,-216 897.28,-203.43"/>
<polygon fill="green" stroke="green" stroke-width="0.43" points="899.41,-200.63 889.73,-196.33 894.62,-205.73 899.41,-200.63"/>
</g>
<!-- &#45;3&#45;&gt;139 -->
<g id="edge24" class="edge">
<title>&#45;3&#45;&gt;139</title>
<path fill="none" stroke="green" stroke-width="0.2" d="M957.14,-246.56C1009.51,-242.57 1204.96,-226.4 1262.14,-203.52 1264.01,-202.77 1265.87,-201.9 1267.7,-200.93"/>
<polygon fill="green" stroke="green" stroke-width="0.2" points="1269.82,-203.74 1276.52,-195.53 1266.17,-197.77 1269.82,-203.74"/>
</g>
<!-- &#45;3&#45;&gt;140 -->
<g id="edge25" class="edge">
<title>&#45;3&#45;&gt;140</title>
<path fill="none" stroke="red" stroke-width="0.13" d="M952.68,-239.48C962.09,-230.64 977.64,-216 991,-203.43"/>
<polygon fill="red" stroke="red" stroke-width="0.13" points="993.66,-205.73 998.55,-196.33 988.87,-200.63 993.66,-205.73"/>
</g>
<!-- &#45;3&#45;&gt;141 -->
<g id="edge26" class="edge">
<title>&#45;3&#45;&gt;141</title>
<path fill="none" stroke="green" stroke-width="0.35" d="M957.17,-244.51C982.25,-238.48 1038.67,-223.74 1083.14,-203.52 1086.51,-201.99 1089.96,-200.22 1093.33,-198.36"/>
<polygon fill="green" stroke="green" stroke-width="0.35" points="1095.13,-201.36 1102,-193.3 1091.6,-195.32 1095.13,-201.36"/>
</g>
<!-- &#45;3&#45;&gt;142 -->
<g id="edge27" class="edge">
<title>&#45;3&#45;&gt;142</title>
<path fill="none" stroke="red" stroke-width="0.43" d="M957.34,-246.85C994.83,-244.6 1104.68,-235.54 1189.14,-203.52 1192.6,-202.21 1196.11,-200.58 1199.51,-198.8"/>
<polygon fill="red" stroke="red" stroke-width="0.43" points="1201.27,-201.83 1208.22,-193.84 1197.8,-195.75 1201.27,-201.83"/>
</g>
<!-- &#45;3&#45;&gt;143 -->
<g id="edge28" class="edge">
<title>&#45;3&#45;&gt;143</title>
<path fill="none" stroke="red" stroke-width="0.46" d="M931.1,-246.4C912.63,-244.83 877.81,-241.89 848.14,-239.52 742.84,-231.14 474.7,-235.89 374.14,-203.52 370.61,-202.39 367.07,-200.87 363.64,-199.16"/>
<polygon fill="red" stroke="red" stroke-width="0.46" points="365.34,-196.1 354.9,-194.27 361.92,-202.21 365.34,-196.1"/>
</g>
<!-- &#45;3&#45;&gt;144 -->
<g id="edge29" class="edge">
<title>&#45;3&#45;&gt;144</title>
<path fill="none" stroke="red" stroke-width="0.65" d="M931.04,-246.13C886.82,-241.34 739.09,-224.71 618.14,-203.52 592.51,-199.03 563.77,-192.78 542.09,-187.82"/>
<polygon fill="red" stroke="red" stroke-width="0.65" points="542.6,-184.35 532.07,-185.51 541.02,-191.17 542.6,-184.35"/>
</g>
<!-- &#45;3&#45;&gt;145 -->
<g id="edge30" class="edge">
<title>&#45;3&#45;&gt;145</title>
<path fill="none" stroke="red" stroke-width="0.53" d="M930.83,-244.43C887.71,-234.43 750.89,-202.69 686.4,-187.72"/>
<polygon fill="red" stroke="red" stroke-width="0.53" points="686.86,-184.24 676.33,-185.39 685.28,-191.06 686.86,-184.24"/>
</g>
<!-- &#45;4 -->
<g id="node4" class="node">
<title>&#45;4</title>
<polygon fill="lightgray" stroke="black" points="839.14,-257.52 813.14,-257.52 813.14,-239.52 839.14,-239.52 839.14,-257.52"/>
<text text-anchor="middle" x="826.14" y="-246.32" font-family="Times-Roman" font-size="9.00">&#45;4</text>
</g>
<!-- &#45;4&#45;&gt;0 -->
<g id="edge139" class="edge">
<title>&#45;4&#45;&gt;0</title>
<path fill="none" stroke="green" stroke-width="0.5" d="M839.3,-246.4C918.49,-239.65 1328.07,-204.69 1329.14,-203.52 1413.15,-111.84 1331.5,-181.7 1006.14,-118.02 986.13,-114.11 963.95,-107.75 947.41,-102.6"/>
<polygon fill="green" stroke="green" stroke-width="0.5" points="948.03,-99.12 937.44,-99.42 945.91,-105.79 948.03,-99.12"/>
</g>
<!-- &#45;4&#45;&gt;1 -->
<g id="edge140" class="edge">
<title>&#45;4&#45;&gt;1</title>
<path fill="none" stroke="red" stroke-width="0.19" d="M822.7,-239.28C813.25,-216.65 786.62,-152.89 772.02,-117.93"/>
<polygon fill="red" stroke="red" stroke-width="0.19" points="775.16,-116.37 768.07,-108.49 768.7,-119.06 775.16,-116.37"/>
</g>
<!-- &#45;4&#45;&gt;2 -->
<g id="edge141" class="edge">
<title>&#45;4&#45;&gt;2</title>
<path fill="none" stroke="red" stroke-width="0.57" d="M813.07,-246.67C726.5,-241.03 239.25,-209.03 234.14,-203.52 162.65,-126.52 391.07,-102.08 470.75,-96"/>
<polygon fill="red" stroke="red" stroke-width="0.57" points="471.24,-99.47 480.96,-95.26 470.73,-92.49 471.24,-99.47"/>
</g>
<!-- &#45;4&#45;&gt;3 -->
<g id="edge142" class="edge">
<title>&#45;4&#45;&gt;3</title>
<path fill="none" stroke="red" stroke-width="0.26" d="M839.18,-246.38C857.64,-244.77 892.46,-241.79 922.14,-239.52 979.44,-235.14 1398.94,-245.55 1438.14,-203.52 1590.82,-39.82 1624.39,-187 1171.14,-118.02 1131.33,-111.97 1085.34,-103.97 1057.25,-98.98"/>
<polygon fill="red" stroke="red" stroke-width="0.26" points="1057.53,-95.47 1047.07,-97.16 1056.3,-102.36 1057.53,-95.47"/>
</g>
<!-- &#45;4&#45;&gt;4 -->
<g id="edge143" class="edge">
<title>&#45;4&#45;&gt;4</title>
<path fill="none" stroke="green" stroke-width="0.19" d="M839.18,-246.36C857.64,-244.73 892.45,-241.72 922.14,-239.52 983.66,-234.96 1433.96,-248.53 1476.14,-203.52 1647.09,-21.1 1035.38,-15.85 898.68,-16.91"/>
<polygon fill="green" stroke="green" stroke-width="0.19" points="898.61,-13.41 888.64,-17 898.68,-20.41 898.61,-13.41"/>
</g>
<!-- &#45;4&#45;&gt;5 -->
<g id="edge144" class="edge">
<title>&#45;4&#45;&gt;5</title>
<path fill="none" stroke="red" stroke-width="0.32" d="M813.07,-246.66C771.76,-243.66 645.11,-232.25 618.14,-203.52 597.22,-181.24 596.15,-144.35 598.32,-119.68"/>
<polygon fill="red" stroke="red" stroke-width="0.32" points="601.81,-119.95 599.44,-109.62 594.86,-119.17 601.81,-119.95"/>
</g>
<!-- &#45;4&#45;&gt;136 -->
<g id="edge31" class="edge">
<title>&#45;4&#45;&gt;136</title>
<path fill="none" stroke="green" stroke-width="0.25" d="M813.06,-246.62C734.33,-241.2 325.94,-212.68 301.14,-203.52 299.25,-202.83 297.38,-201.99 295.53,-201.05"/>
<polygon fill="green" stroke="green" stroke-width="0.25" points="297.05,-197.88 286.68,-195.73 293.44,-203.88 297.05,-197.88"/>
</g>
<!-- &#45;4&#45;&gt;137 -->
<g id="edge32" class="edge">
<title>&#45;4&#45;&gt;137</title>
<path fill="none" stroke="green" stroke-width="0.13" d="M812.91,-246.74C756.73,-243.31 537.92,-228.56 474.14,-203.52 472.27,-202.79 470.4,-201.92 468.57,-200.96"/>
<polygon fill="green" stroke="green" stroke-width="0.13" points="470.09,-197.8 459.73,-195.58 466.45,-203.77 470.09,-197.8"/>
</g>
<!-- &#45;4&#45;&gt;138 -->
<g id="edge33" class="edge">
<title>&#45;4&#45;&gt;138</title>
<path fill="none" stroke="red" stroke-width="0.39" d="M831.6,-239.48C836.87,-231.72 845.17,-219.5 852.89,-208.12"/>
<polygon fill="red" stroke="red" stroke-width="0.39" points="855.9,-209.92 858.62,-199.68 850.11,-205.99 855.9,-209.92"/>
</g>
<!-- &#45;4&#45;&gt;139 -->
<g id="edge34" class="edge">
<title>&#45;4&#45;&gt;139</title>
<path fill="none" stroke="green" stroke-width="0.21" d="M839.45,-246.37C910.41,-240.23 1241.82,-211.22 1262.14,-203.52 1264.02,-202.81 1265.89,-201.96 1267.73,-201.02"/>
<polygon fill="green" stroke="green" stroke-width="0.21" points="1269.83,-203.84 1276.58,-195.67 1266.21,-197.85 1269.83,-203.84"/>
</g>
<!-- &#45;4&#45;&gt;140 -->
<g id="edge35" class="edge">
<title>&#45;4&#45;&gt;140</title>
<path fill="none" stroke="green" stroke-width="0.49" d="M839.48,-244.88C866.31,-239.29 928.42,-225 977.14,-203.52 980.53,-202.03 983.98,-200.29 987.36,-198.44"/>
<polygon fill="green" stroke="green" stroke-width="0.49" points="989.15,-201.45 996.04,-193.4 985.64,-195.39 989.15,-201.45"/>
</g>
<!-- &#45;4&#45;&gt;141 -->
<g id="edge36" class="edge">
<title>&#45;4&#45;&gt;141</title>
<path fill="none" stroke="red" stroke-width="0.12" d="M839.33,-245.93C885.17,-240.29 1037.25,-220.7 1083.14,-203.52 1086.61,-202.22 1090.11,-200.61 1093.52,-198.83"/>
<polygon fill="red" stroke="red" stroke-width="0.12" points="1095.28,-201.86 1102.24,-193.87 1091.81,-195.78 1095.28,-201.86"/>
</g>
<!-- &#45;4&#45;&gt;142 -->
<g id="edge37" class="edge">
<title>&#45;4&#45;&gt;142</title>
<path fill="none" stroke="green" stroke-width="0.42" d="M839.33,-246.26C900.56,-240.34 1155.4,-215.22 1189.14,-203.52 1192.64,-202.31 1196.16,-200.74 1199.58,-199"/>
<polygon fill="green" stroke="green" stroke-width="0.42" points="1201.32,-202.04 1208.31,-194.08 1197.88,-195.94 1201.32,-202.04"/>
</g>
<!-- &#45;4&#45;&gt;143 -->
<g id="edge38" class="edge">
<title>&#45;4&#45;&gt;143</title>
<path fill="none" stroke="green" stroke-width="0.13" d="M813.09,-246.6C743.42,-241.64 416.86,-217.78 374.14,-203.52 370.62,-202.35 367.09,-200.81 363.67,-199.08"/>
<polygon fill="green" stroke="green" stroke-width="0.13" points="365.37,-196.02 354.93,-194.18 361.94,-202.13 365.37,-196.02"/>
</g>
<!-- &#45;4&#45;&gt;144 -->
<g id="edge39" class="edge">
<title>&#45;4&#45;&gt;144</title>
<path fill="none" stroke="green" stroke-width="0.15" d="M812.9,-247.24C772.02,-246.01 644.73,-239.33 547.14,-203.52 543.66,-202.25 540.15,-200.64 536.74,-198.88"/>
<polygon fill="green" stroke="green" stroke-width="0.15" points="538.45,-195.82 528.02,-193.93 534.99,-201.91 538.45,-195.82"/>
</g>
<!-- &#45;4&#45;&gt;145 -->
<g id="edge40" class="edge">
<title>&#45;4&#45;&gt;145</title>
<path fill="none" stroke="green" stroke-width="0.52" d="M813.06,-242.43C786.07,-231.92 723.5,-207.56 684.82,-192.5"/>
<polygon fill="green" stroke="green" stroke-width="0.52" points="685.65,-189.06 675.06,-188.7 683.11,-195.59 685.65,-189.06"/>
</g>
<!-- &#45;5 -->
<g id="node5" class="node">
<title>&#45;5</title>
<polygon fill="lightgray" stroke="black" points="564.14,-257.52 538.14,-257.52 538.14,-239.52 564.14,-239.52 564.14,-257.52"/>
<text text-anchor="middle" x="551.14" y="-246.32" font-family="Times-Roman" font-size="9.00">&#45;5</text>
</g>
<!-- &#45;5&#45;&gt;0 -->
<g id="edge145" class="edge">
<title>&#45;5&#45;&gt;0</title>
<path fill="none" stroke="red" stroke-width="0.35" d="M554.41,-239.44C562.33,-220.99 584.38,-175.74 618.14,-154.02 629.95,-146.43 824.69,-111.48 896.13,-98.85"/>
<polygon fill="red" stroke="red" stroke-width="0.35" points="896.88,-102.27 906.12,-97.09 895.66,-95.38 896.88,-102.27"/>
</g>
<!-- &#45;5&#45;&gt;1 -->
<g id="edge146" class="edge">
<title>&#45;5&#45;&gt;1</title>
<path fill="none" stroke="green" stroke-width="0.64" d="M537.88,-246.78C478.69,-243.33 240.6,-228.01 219.14,-203.52 204.64,-186.98 204.28,-170.25 219.14,-154.02 249.87,-120.46 582.02,-123.97 627.14,-118.02 665.46,-112.97 709.51,-104.77 736.58,-99.45"/>
<polygon fill="green" stroke="green" stroke-width="0.64" points="737.29,-102.88 746.41,-97.5 735.92,-96.01 737.29,-102.88"/>
</g>
<!-- &#45;5&#45;&gt;2 -->
<g id="edge147" class="edge">
<title>&#45;5&#45;&gt;2</title>
<path fill="none" stroke="green" stroke-width="0.23" d="M537.78,-247.15C469.43,-245.14 160.91,-234.37 133.14,-203.52 36.34,-96 372.44,-92.52 470.85,-93.74"/>
<polygon fill="green" stroke="green" stroke-width="0.23" points="470.82,-97.24 480.88,-93.89 470.93,-90.24 470.82,-97.24"/>
</g>
<!-- &#45;5&#45;&gt;3 -->
<g id="edge148" class="edge">
<title>&#45;5&#45;&gt;3</title>
<path fill="none" stroke="green" stroke-width="0.16" d="M564.28,-245.27C574.35,-243.58 588.6,-241.26 601.14,-239.52 736.34,-220.74 781.39,-258.91 906.14,-203.52 951.82,-183.24 992.96,-140.31 1014.76,-114.72"/>
<polygon fill="green" stroke="green" stroke-width="0.16" points="1017.68,-116.69 1021.39,-106.77 1012.3,-112.21 1017.68,-116.69"/>
</g>
<!-- &#45;5&#45;&gt;4 -->
<g id="edge149" class="edge">
<title>&#45;5&#45;&gt;4</title>
<path fill="none" stroke="red" stroke-width="0.29" d="M538.11,-247.41C473.79,-246.66 190.25,-241.26 112.14,-203.52 48.72,-172.88 -19.13,-119.82 29.14,-68.53 57.82,-38.05 705.88,-21.16 845.7,-17.86"/>
<polygon fill="red" stroke="red" stroke-width="0.29" points="846.01,-21.36 855.92,-17.63 845.84,-14.36 846.01,-21.36"/>
</g>
<!-- &#45;5&#45;&gt;5 -->
<g id="edge150" class="edge">
<title>&#45;5&#45;&gt;5</title>
<path fill="none" stroke="red" stroke-width="0.5" d="M537.82,-247.1C471.05,-244.85 174.81,-233.26 148.14,-203.52 133.45,-187.14 133.35,-170.31 148.14,-154.02 204.28,-92.22 440.18,-133.98 522.14,-118.02 541.04,-114.35 561.87,-108.09 577.54,-102.92"/>
<polygon fill="red" stroke="red" stroke-width="0.5" points="578.67,-106.23 587.02,-99.72 576.43,-99.6 578.67,-106.23"/>
</g>
<!-- &#45;5&#45;&gt;136 -->
<g id="edge41" class="edge">
<title>&#45;5&#45;&gt;136</title>
<path fill="none" stroke="green" stroke-width="0.27" stroke-dasharray="1,5" d="M538.08,-247.25C500.01,-246.05 386.42,-239.48 301.14,-203.52 299.29,-202.74 297.44,-201.84 295.61,-200.85"/>
<polygon fill="green" stroke="green" stroke-width="0.27" points="297.15,-197.69 286.81,-195.39 293.46,-203.64 297.15,-197.69"/>
</g>
<!-- &#45;5&#45;&gt;137 -->
<g id="edge42" class="edge">
<title>&#45;5&#45;&gt;137</title>
<path fill="none" stroke="red" stroke-width="0.53" d="M538.09,-240.61C522.57,-232.26 496.03,-217.6 474.14,-203.52 472.49,-202.46 470.81,-201.35 469.13,-200.22"/>
<polygon fill="red" stroke="red" stroke-width="0.53" points="471.01,-197.26 460.8,-194.43 467.02,-203.01 471.01,-197.26"/>
</g>
<!-- &#45;5&#45;&gt;138 -->
<g id="edge43" class="edge">
<title>&#45;5&#45;&gt;138</title>
<path fill="none" stroke="red" stroke-width="0.18" d="M564.52,-244.7C611.25,-234.84 768.06,-201.74 837.99,-186.98"/>
<polygon fill="red" stroke="red" stroke-width="0.18" points="838.98,-190.35 848.04,-184.86 837.54,-183.5 838.98,-190.35"/>
</g>
<!-- &#45;5&#45;&gt;139 -->
<g id="edge44" class="edge">
<title>&#45;5&#45;&gt;139</title>
<path fill="none" stroke="red" stroke-width="0.12" stroke-dasharray="1,5" d="M564.25,-245.04C574.31,-243.23 588.55,-240.87 601.14,-239.52 747.41,-223.88 1123.41,-252.46 1262.14,-203.52 1264.04,-202.85 1265.92,-202.04 1267.77,-201.12"/>
<polygon fill="red" stroke="red" stroke-width="0.12" points="1269.84,-203.96 1276.64,-195.84 1266.26,-197.95 1269.84,-203.96"/>
</g>
<!-- &#45;5&#45;&gt;140 -->
<g id="edge45" class="edge">
<title>&#45;5&#45;&gt;140</title>
<path fill="none" stroke="red" stroke-width="0.12" d="M564.27,-245.19C574.33,-243.46 588.58,-241.13 601.14,-239.52 767.66,-218.25 817.85,-256.52 977.14,-203.52 980.66,-202.35 984.19,-200.82 987.61,-199.09"/>
<polygon fill="red" stroke="red" stroke-width="0.12" points="989.34,-202.13 996.35,-194.19 985.92,-196.03 989.34,-202.13"/>
</g>
<!-- &#45;5&#45;&gt;141 -->
<g id="edge46" class="edge">
<title>&#45;5&#45;&gt;141</title>
<path fill="none" stroke="red" stroke-width="0.35" d="M564.26,-245.13C574.32,-243.37 588.57,-241.03 601.14,-239.52 799.91,-215.69 853.91,-243.16 1050.14,-203.52 1063.34,-200.85 1077.5,-196.52 1089.73,-192.29"/>
<polygon fill="red" stroke="red" stroke-width="0.35" points="1091.26,-195.46 1099.49,-188.79 1088.9,-188.87 1091.26,-195.46"/>
</g>
<!-- &#45;5&#45;&gt;142 -->
<g id="edge47" class="edge">
<title>&#45;5&#45;&gt;142</title>
<path fill="none" stroke="green" stroke-width="0.21" d="M564.25,-245.08C574.31,-243.29 588.56,-240.93 601.14,-239.52 846.78,-211.97 913.48,-250.62 1156.14,-203.52 1169.36,-200.96 1183.52,-196.65 1195.75,-192.4"/>
<polygon fill="green" stroke="green" stroke-width="0.21" points="1197.29,-195.56 1205.51,-188.88 1194.92,-188.98 1197.29,-195.56"/>
</g>
<!-- &#45;5&#45;&gt;143 -->
<g id="edge48" class="edge">
<title>&#45;5&#45;&gt;143</title>
<path fill="none" stroke="red" stroke-width="0.22" d="M537.83,-245.63C507.74,-241.05 432.58,-227.91 374.14,-203.52 370.72,-202.09 367.25,-200.4 363.86,-198.57"/>
<polygon fill="red" stroke="red" stroke-width="0.22" points="365.58,-195.53 355.16,-193.56 362.08,-201.59 365.58,-195.53"/>
</g>
<!-- &#45;5&#45;&gt;144 -->
<g id="edge49" class="edge">
<title>&#45;5&#45;&gt;144</title>
<path fill="none" stroke="red" stroke-width="0.37" d="M546.04,-239.48C541.19,-231.85 533.61,-219.91 526.5,-208.7"/>
<polygon fill="red" stroke="red" stroke-width="0.37" points="529.27,-206.54 520.96,-199.97 523.36,-210.29 529.27,-206.54"/>
</g>
<!-- &#45;5&#45;&gt;145 -->
<g id="edge50" class="edge">
<title>&#45;5&#45;&gt;145</title>
<path fill="none" stroke="red" stroke-width="0.26" d="M563.12,-239.48C577.87,-229.59 603.41,-212.46 623.36,-199.08"/>
<polygon fill="red" stroke="red" stroke-width="0.26" points="625.44,-201.9 631.8,-193.42 621.54,-196.08 625.44,-201.9"/>
</g>
<!-- &#45;6 -->
<g id="node6" class="node">
<title>&#45;6</title>
<polygon fill="lightgray" stroke="black" points="694.14,-257.52 668.14,-257.52 668.14,-239.52 694.14,-239.52 694.14,-257.52"/>
<text text-anchor="middle" x="681.14" y="-246.32" font-family="Times-Roman" font-size="9.00">&#45;6</text>
</g>
<!-- &#45;6&#45;&gt;0 -->
<g id="edge151" class="edge">
<title>&#45;6&#45;&gt;0</title>
<path fill="none" stroke="red" stroke-width="0.22" d="M694.23,-246.45C758.49,-241.11 1038.01,-217.18 1050.14,-203.52 1064.74,-187.07 1061.96,-172.58 1050.14,-154.02 1038.38,-135.56 980.77,-113.79 946.98,-102.31"/>
<polygon fill="red" stroke="red" stroke-width="0.22" points="947.93,-98.93 937.33,-99.09 945.71,-105.57 947.93,-98.93"/>
</g>
<!-- &#45;6&#45;&gt;1 -->
<g id="edge152" class="edge">
<title>&#45;6&#45;&gt;1</title>
<path fill="none" stroke="red" stroke-width="0.27" d="M685.49,-239.28C697.57,-216.44 731.79,-151.7 750.15,-116.96"/>
<polygon fill="red" stroke="red" stroke-width="0.27" points="753.3,-118.5 754.88,-108.02 747.11,-115.22 753.3,-118.5"/>
</g>
<!-- &#45;6&#45;&gt;2 -->
<g id="edge153" class="edge">
<title>&#45;6&#45;&gt;2</title>
<path fill="none" stroke="red" stroke-width="0.57" d="M667.9,-244.05C661.13,-242.41 652.75,-240.59 645.14,-239.52 579.44,-230.3 94.61,-251.83 49.14,-203.52 34.06,-187.5 34.65,-170.58 49.14,-154.02 77.14,-122.04 378.72,-101.39 470.68,-95.81"/>
<polygon fill="red" stroke="red" stroke-width="0.57" points="471.04,-99.29 480.82,-95.2 470.63,-92.3 471.04,-99.29"/>
</g>
<!-- &#45;6&#45;&gt;3 -->
<g id="edge154" class="edge">
<title>&#45;6&#45;&gt;3</title>
<path fill="none" stroke="red" stroke-width="0.26" d="M694.35,-246.66C786.33,-240.62 1327.73,-205.03 1329.14,-203.52 1344.16,-187.45 1343.08,-171.04 1329.14,-154.02 1320.41,-143.37 1127.71,-110.35 1056.92,-98.54"/>
<polygon fill="red" stroke="red" stroke-width="0.26" points="1057.46,-95.08 1047.03,-96.89 1056.32,-101.98 1057.46,-95.08"/>
</g>
<!-- &#45;6&#45;&gt;4 -->
<g id="edge155" class="edge">
<title>&#45;6&#45;&gt;4</title>
<path fill="none" stroke="red" stroke-width="0.32" d="M667.9,-244.05C661.13,-242.41 652.75,-240.58 645.14,-239.52 577.79,-230.12 80.79,-253 34.14,-203.52 19.05,-187.52 21.08,-171.73 34.14,-154.02 133.32,-19.61 713.72,-16 845.52,-16.94"/>
<polygon fill="red" stroke="red" stroke-width="0.32" points="845.85,-20.45 855.88,-17.03 845.91,-13.45 845.85,-20.45"/>
</g>
<!-- &#45;6&#45;&gt;5 -->
<g id="edge156" class="edge">
<title>&#45;6&#45;&gt;5</title>
<path fill="none" stroke="red" stroke-width="0.33" d="M667.88,-244.14C661.12,-242.52 652.73,-240.69 645.14,-239.52 599.83,-232.53 265.11,-237.32 234.14,-203.52 79.75,-35.02 22.68,-222.64 522.14,-118.02 540.8,-114.12 561.42,-107.95 577.05,-102.88"/>
<polygon fill="red" stroke="red" stroke-width="0.33" points="578.6,-106.05 586.99,-99.58 576.4,-99.41 578.6,-106.05"/>
</g>
<!-- &#45;6&#45;&gt;136 -->
<g id="edge51" class="edge">
<title>&#45;6&#45;&gt;136</title>
<path fill="none" stroke="green" stroke-width="0.25" stroke-dasharray="1,5" d="M667.87,-244.19C661.11,-242.59 652.72,-240.76 645.14,-239.52 493.42,-214.81 444.79,-258.25 301.14,-203.52 299.26,-202.81 297.39,-201.95 295.55,-201.01"/>
<polygon fill="green" stroke="green" stroke-width="0.25" points="297.07,-197.84 286.71,-195.65 293.45,-203.83 297.07,-197.84"/>
</g>
<!-- &#45;6&#45;&gt;137 -->
<g id="edge52" class="edge">
<title>&#45;6&#45;&gt;137</title>
<path fill="none" stroke="green" stroke-width="0.14" d="M667.81,-244.52C661.03,-243.01 652.65,-241.15 645.14,-239.52 569.23,-223.1 545.19,-234.88 474.14,-203.52 472.3,-202.71 470.46,-201.78 468.64,-200.78"/>
<polygon fill="green" stroke="green" stroke-width="0.14" points="470.19,-197.62 459.86,-195.27 466.47,-203.55 470.19,-197.62"/>
</g>
<!-- &#45;6&#45;&gt;138 -->
<g id="edge53" class="edge">
<title>&#45;6&#45;&gt;138</title>
<path fill="none" stroke="red" stroke-width="0.46" d="M694.27,-242.87C723.84,-232.38 796.41,-206.63 839.16,-191.47"/>
<polygon fill="red" stroke="red" stroke-width="0.46" points="840.58,-194.68 848.83,-188.04 838.24,-188.08 840.58,-194.68"/>
</g>
<!-- &#45;6&#45;&gt;139 -->
<g id="edge54" class="edge">
<title>&#45;6&#45;&gt;139</title>
<path fill="none" stroke="red" stroke-width="0.1" d="M694.3,-246.62C779.37,-240.81 1248.31,-208.56 1262.14,-203.52 1264.03,-202.83 1265.91,-202 1267.75,-201.07"/>
<polygon fill="red" stroke="red" stroke-width="0.1" points="1269.84,-203.9 1276.61,-195.76 1266.24,-197.9 1269.84,-203.9"/>
</g>
<!-- &#45;6&#45;&gt;140 -->
<g id="edge55" class="edge">
<title>&#45;6&#45;&gt;140</title>
<path fill="none" stroke="green" stroke-width="0.3" d="M694.21,-246.28C744.24,-241.4 923.52,-222.93 977.14,-203.52 980.62,-202.26 984.14,-200.67 987.55,-198.91"/>
<polygon fill="green" stroke="green" stroke-width="0.3" points="989.3,-201.94 996.27,-193.96 985.85,-195.85 989.3,-201.94"/>
</g>
<!-- &#45;6&#45;&gt;141 -->
<g id="edge56" class="edge">
<title>&#45;6&#45;&gt;141</title>
<path fill="none" stroke="red" stroke-width="0.41" d="M694.42,-246.41C759.78,-240.92 1045.5,-216.33 1083.14,-203.52 1086.65,-202.33 1090.18,-200.78 1093.6,-199.04"/>
<polygon fill="red" stroke="red" stroke-width="0.41" points="1095.33,-202.08 1102.33,-194.13 1091.9,-195.98 1095.33,-202.08"/>
</g>
<!-- &#45;6&#45;&gt;142 -->
<g id="edge57" class="edge">
<title>&#45;6&#45;&gt;142</title>
<path fill="none" stroke="red" stroke-width="0.19" d="M694.28,-246.55C771.62,-240.84 1164.88,-211.47 1189.14,-203.52 1192.66,-202.37 1196.2,-200.84 1199.62,-199.12"/>
<polygon fill="red" stroke="red" stroke-width="0.19" points="1201.35,-202.17 1208.36,-194.23 1197.93,-196.06 1201.35,-202.17"/>
</g>
<!-- &#45;6&#45;&gt;143 -->
<g id="edge58" class="edge">
<title>&#45;6&#45;&gt;143</title>
<path fill="none" stroke="red" stroke-width="0.3" d="M667.86,-244.28C661.09,-242.7 652.7,-240.86 645.14,-239.52 525.5,-218.32 488.71,-243.99 374.14,-203.52 370.64,-202.29 367.13,-200.71 363.71,-198.96"/>
<polygon fill="red" stroke="red" stroke-width="0.3" points="365.41,-195.9 354.98,-194.03 361.97,-202 365.41,-195.9"/>
</g>
<!-- &#45;6&#45;&gt;144 -->
<g id="edge59" class="edge">
<title>&#45;6&#45;&gt;144</title>
<path fill="none" stroke="green" stroke-width="0.29" d="M667.82,-244.24C643.3,-237.96 589.61,-223.11 547.14,-203.52 543.77,-201.97 540.34,-200.19 536.97,-198.32"/>
<polygon fill="green" stroke="green" stroke-width="0.29" points="538.7,-195.28 528.3,-193.26 535.17,-201.33 538.7,-195.28"/>
</g>
<!-- &#45;6&#45;&gt;145 -->
<g id="edge60" class="edge">
<title>&#45;6&#45;&gt;145</title>
<path fill="none" stroke="red" stroke-width="0.29" d="M677.7,-239.48C674.67,-232.4 670.04,-221.6 665.56,-211.13"/>
<polygon fill="red" stroke="red" stroke-width="0.29" points="668.69,-209.53 661.53,-201.72 662.25,-212.29 668.69,-209.53"/>
</g>
<!-- 136&#45;&gt;0 -->
<g id="edge61" class="edge">
<title>136&#45;&gt;0</title>
<path fill="none" stroke="red" stroke-width="0.38" d="M286.66,-161.78C291.14,-158.7 296.1,-155.86 301.14,-154.02 402.91,-117.01 679.68,-131.42 787.14,-118.02 825.5,-113.24 869.53,-104.97 896.59,-99.56"/>
<polygon fill="red" stroke="red" stroke-width="0.38" points="897.31,-102.98 906.42,-97.57 895.93,-96.12 897.31,-102.98"/>
</g>
<!-- 136&#45;&gt;1 -->
<g id="edge62" class="edge">
<title>136&#45;&gt;1</title>
<path fill="none" stroke="green" stroke-width="0.2" d="M286.71,-161.91C291.19,-158.82 296.13,-155.95 301.14,-154.02 437.21,-101.73 482.84,-138.66 627.14,-118.02 665.41,-112.55 709.46,-104.46 736.56,-99.28"/>
<polygon fill="green" stroke="green" stroke-width="0.2" points="737.24,-102.71 746.4,-97.38 735.91,-95.84 737.24,-102.71"/>
</g>
<!-- 136&#45;&gt;2 -->
<g id="edge63" class="edge">
<title>136&#45;&gt;2</title>
<path fill="none" stroke="green" stroke-width="0.13" d="M287.01,-162.59C291.47,-159.47 296.33,-156.41 301.14,-154.02 358.83,-125.45 432.91,-107.42 471.38,-99.3"/>
<polygon fill="green" stroke="green" stroke-width="0.13" points="472.15,-102.71 481.24,-97.27 470.74,-95.86 472.15,-102.71"/>
</g>
<!-- 136&#45;&gt;3 -->
<g id="edge64" class="edge">
<title>136&#45;&gt;3</title>
<path fill="none" stroke="green" stroke-width="0.11" d="M286.64,-161.71C291.12,-158.63 296.08,-155.81 301.14,-154.02 436.7,-106.11 805.33,-141.73 947.14,-118.02 967.25,-114.66 989.42,-108.28 1005.93,-102.97"/>
<polygon fill="green" stroke="green" stroke-width="0.11" points="1007.49,-106.14 1015.89,-99.69 1005.3,-99.5 1007.49,-106.14"/>
</g>
<!-- 136&#45;&gt;4 -->
<g id="edge65" class="edge">
<title>136&#45;&gt;4</title>
<path fill="none" stroke="red" stroke-width="0.13" d="M281.57,-157.5C299.83,-131.85 335.06,-88.59 377.14,-68.53 461.27,-28.42 755.18,-19.5 845.52,-17.69"/>
<polygon fill="red" stroke="red" stroke-width="0.13" points="845.8,-21.19 855.73,-17.5 845.67,-14.19 845.8,-21.19"/>
</g>
<!-- 136&#45;&gt;5 -->
<g id="edge66" class="edge">
<title>136&#45;&gt;5</title>
<path fill="none" stroke="red" stroke-width="0.57" d="M286.79,-162.11C291.26,-159 296.18,-156.08 301.14,-154.02 393.08,-115.95 425.13,-140.23 522.14,-118.02 540.73,-113.77 561.35,-107.61 577,-102.63"/>
<polygon fill="red" stroke="red" stroke-width="0.57" points="578.52,-105.82 586.96,-99.41 576.36,-99.16 578.52,-105.82"/>
</g>
<!-- 137&#45;&gt;0 -->
<g id="edge67" class="edge">
<title>137&#45;&gt;0</title>
<path fill="none" stroke="green" stroke-width="0.18" d="M459.72,-161.93C464.2,-158.84 469.14,-155.96 474.14,-154.02 604.73,-103.5 648.57,-138.16 787.14,-118.02 825.39,-112.46 869.45,-104.4 896.55,-99.25"/>
<polygon fill="green" stroke="green" stroke-width="0.18" points="897.23,-102.68 906.39,-97.36 895.91,-95.8 897.23,-102.68"/>
</g>
<!-- 137&#45;&gt;1 -->
<g id="edge68" class="edge">
<title>137&#45;&gt;1</title>
<path fill="none" stroke="green" stroke-width="0.43" d="M459.86,-162.26C464.32,-159.15 469.23,-156.18 474.14,-154.02 498.22,-143.44 670.08,-111.19 736.26,-99.01"/>
<polygon fill="green" stroke="green" stroke-width="0.43" points="737.08,-102.41 746.28,-97.17 735.81,-95.53 737.08,-102.41"/>
</g>
<!-- 137&#45;&gt;2 -->
<g id="edge69" class="edge">
<title>137&#45;&gt;2</title>
<path fill="none" stroke="red" stroke-width="0.12" d="M454.7,-157.56C463.13,-144.98 473.98,-128.8 482.6,-115.95"/>
<polygon fill="red" stroke="red" stroke-width="0.12" points="485.75,-117.54 488.42,-107.28 479.94,-113.64 485.75,-117.54"/>
</g>
<!-- 137&#45;&gt;3 -->
<g id="edge70" class="edge">
<title>137&#45;&gt;3</title>
<path fill="none" stroke="red" stroke-width="0.34" d="M459.67,-161.79C464.14,-158.7 469.1,-155.86 474.14,-154.02 672.2,-81.75 739.56,-154.89 947.14,-118.02 967.21,-114.46 989.39,-108.08 1005.91,-102.83"/>
<polygon fill="red" stroke="red" stroke-width="0.34" points="1007.45,-106.01 1015.87,-99.59 1005.28,-99.36 1007.45,-106.01"/>
</g>
<!-- 137&#45;&gt;4 -->
<g id="edge71" class="edge">
<title>137&#45;&gt;4</title>
<path fill="none" stroke="green" stroke-width="0.67" d="M440.78,-153.76C441.81,-128.53 447.64,-89.62 472.14,-68.53 528.26,-20.21 764.78,-16.74 845.22,-16.99"/>
<polygon fill="green" stroke="green" stroke-width="0.67" points="845.49,-20.49 855.5,-17.05 845.52,-13.49 845.49,-20.49"/>
</g>
<!-- 137&#45;&gt;5 -->
<g id="edge72" class="edge">
<title>137&#45;&gt;5</title>
<path fill="none" stroke="red" stroke-width="0.71" d="M460.63,-162.84C464.97,-159.76 469.63,-156.67 474.14,-154.02 508.69,-133.77 551.25,-115.04 577.54,-104.13"/>
<polygon fill="red" stroke="red" stroke-width="0.71" points="579.17,-107.25 587.1,-100.22 576.51,-100.77 579.17,-107.25"/>
</g>
<!-- 138&#45;&gt;0 -->
<g id="edge73" class="edge">
<title>138&#45;&gt;0</title>
<path fill="none" stroke="green" stroke-width="0.19" d="M884.5,-157.13C891.87,-144.82 901.24,-129.18 908.78,-116.58"/>
<polygon fill="green" stroke="green" stroke-width="0.19" points="912,-118.02 914.13,-107.64 905.99,-114.43 912,-118.02"/>
</g>
<!-- 138&#45;&gt;1 -->
<g id="edge74" class="edge">
<title>138&#45;&gt;1</title>
<path fill="none" stroke="red" stroke-width="0.28" d="M852.73,-163.04C833.17,-148.19 803.09,-125.36 783.03,-110.13"/>
<polygon fill="red" stroke="red" stroke-width="0.28" points="784.92,-107.18 774.84,-103.92 780.69,-112.75 784.92,-107.18"/>
</g>
<!-- 138&#45;&gt;2 -->
<g id="edge75" class="edge">
<title>138&#45;&gt;2</title>
<path fill="none" stroke="green" stroke-width="0.34" d="M847.89,-173.61C797.26,-164.77 676.77,-142.85 577.14,-118.02 558.64,-113.41 538.01,-107.27 522.34,-102.38"/>
<polygon fill="green" stroke="green" stroke-width="0.34" points="522.95,-98.91 512.36,-99.23 520.85,-105.58 522.95,-98.91"/>
</g>
<!-- 138&#45;&gt;3 -->
<g id="edge76" class="edge">
<title>138&#45;&gt;3</title>
<path fill="none" stroke="red" stroke-width="0.12" d="M893.91,-166.34C923.84,-150.62 977.46,-122.47 1008.06,-106.4"/>
<polygon fill="red" stroke="red" stroke-width="0.12" points="1009.9,-109.38 1017.13,-101.63 1006.65,-103.18 1009.9,-109.38"/>
</g>
<!-- 138&#45;&gt;4 -->
<g id="edge77" class="edge">
<title>138&#45;&gt;4</title>
<path fill="none" stroke="red" stroke-width="0.49" d="M872.14,-153.74C872.14,-123.99 872.14,-73.52 872.14,-43"/>
<polygon fill="red" stroke="red" stroke-width="0.49" points="875.64,-42.73 872.14,-32.73 868.64,-42.73 875.64,-42.73"/>
</g>
<!-- 138&#45;&gt;5 -->
<g id="edge78" class="edge">
<title>138&#45;&gt;5</title>
<path fill="none" stroke="green" stroke-width="0.53" d="M852.1,-164.02C846.18,-160.4 839.56,-156.74 833.14,-154.02 761.91,-123.91 671.73,-105.94 628.11,-98.42"/>
<polygon fill="green" stroke="green" stroke-width="0.53" points="628.51,-94.94 618.07,-96.73 627.35,-101.84 628.51,-94.94"/>
</g>
<!-- 139&#45;&gt;0 -->
<g id="edge79" class="edge">
<title>139&#45;&gt;0</title>
<path fill="none" stroke="red" stroke-width="0.56" d="M1276.52,-162.03C1272.05,-158.93 1267.12,-156.02 1262.14,-154.02 1155.51,-111.22 1118.57,-141.71 1006.14,-118.02 986.19,-113.82 964.01,-107.48 947.45,-102.4"/>
<polygon fill="red" stroke="red" stroke-width="0.56" points="948.05,-98.92 937.46,-99.29 945.97,-105.61 948.05,-98.92"/>
</g>
<!-- 139&#45;&gt;1 -->
<g id="edge80" class="edge">
<title>139&#45;&gt;1</title>
<path fill="none" stroke="green" stroke-width="0.47" d="M1276.58,-161.87C1272.11,-158.78 1267.16,-155.92 1262.14,-154.02 1109.64,-96.44 1058.64,-140.16 897.14,-118.02 858.84,-112.77 814.79,-104.63 787.71,-99.37"/>
<polygon fill="green" stroke="green" stroke-width="0.47" points="788.36,-95.93 777.87,-97.44 787.01,-102.8 788.36,-95.93"/>
</g>
<!-- 139&#45;&gt;2 -->
<g id="edge81" class="edge">
<title>139&#45;&gt;2</title>
<path fill="none" stroke="green" stroke-width="0.25" d="M1276.64,-161.7C1272.16,-158.62 1267.2,-155.8 1262.14,-154.02 1118.34,-103.46 727.36,-143.89 577.14,-118.02 558.17,-114.76 537.33,-108.48 521.68,-103.2"/>
<polygon fill="green" stroke="green" stroke-width="0.25" points="522.82,-99.89 512.22,-99.92 520.52,-106.5 522.82,-99.89"/>
</g>
<!-- 139&#45;&gt;3 -->
<g id="edge82" class="edge">
<title>139&#45;&gt;3</title>
<path fill="none" stroke="green" stroke-width="0.23" d="M1276.34,-162.44C1271.88,-159.32 1267,-156.3 1262.14,-154.02 1192.12,-121.19 1101.39,-104.47 1057.38,-97.82"/>
<polygon fill="green" stroke="green" stroke-width="0.23" points="1057.64,-94.33 1047.24,-96.35 1056.63,-101.25 1057.64,-94.33"/>
</g>
<!-- 139&#45;&gt;4 -->
<g id="edge83" class="edge">
<title>139&#45;&gt;4</title>
<path fill="none" stroke="red" stroke-width="0.49" stroke-dasharray="1,5" d="M1289.93,-154.36C1282.96,-128.87 1267.98,-89.02 1239.14,-68.53 1184.28,-29.53 973.89,-20.03 898.89,-17.87"/>
<polygon fill="red" stroke="red" stroke-width="0.49" points="898.54,-14.36 888.45,-17.59 898.35,-21.35 898.54,-14.36"/>
</g>
<!-- 139&#45;&gt;5 -->
<g id="edge84" class="edge">
<title>139&#45;&gt;5</title>
<path fill="none" stroke="green" stroke-width="0.38" d="M1276.62,-161.76C1272.14,-158.68 1267.19,-155.84 1262.14,-154.02 1152.13,-114.35 853.22,-132.17 737.14,-118.02 698.77,-113.35 654.74,-105.04 627.68,-99.6"/>
<polygon fill="green" stroke="green" stroke-width="0.38" points="628.35,-96.16 617.85,-97.6 626.95,-103.02 628.35,-96.16"/>
</g>
<!-- 520 -->
<g id="node23" class="node">
<title>520</title>
<ellipse fill="white" stroke="black" cx="1205.14" cy="-93.28" rx="25" ry="25"/>
<text text-anchor="middle" x="1205.14" y="-91.08" font-family="Times-Roman" font-size="9.00">520</text>
</g>
<!-- 139&#45;&gt;520 -->
<g id="edge157" class="edge">
<title>139&#45;&gt;520</title>
<path fill="none" stroke="green" stroke-width="0.33" d="M1277.36,-161.28C1263.92,-148.81 1245.3,-131.53 1230.33,-117.65"/>
<polygon fill="green" stroke="green" stroke-width="0.33" points="1232.59,-114.97 1222.88,-110.74 1227.83,-120.1 1232.59,-114.97"/>
</g>
<!-- 140&#45;&gt;0 -->
<g id="edge85" class="edge">
<title>140&#45;&gt;0</title>
<path fill="none" stroke="green" stroke-width="0.44" d="M998.02,-161.67C981.79,-147.26 958.05,-126.18 941.47,-111.44"/>
<polygon fill="green" stroke="green" stroke-width="0.44" points="943.76,-108.8 933.96,-104.78 939.11,-114.03 943.76,-108.8"/>
</g>
<!-- 140&#45;&gt;1 -->
<g id="edge86" class="edge">
<title>140&#45;&gt;1</title>
<path fill="none" stroke="red" stroke-width="0.5" d="M992.7,-170.07C944.77,-154.31 835.96,-118.54 786.92,-102.42"/>
<polygon fill="red" stroke="red" stroke-width="0.5" points="788,-99.09 777.41,-99.3 785.82,-105.74 788,-99.09"/>
</g>
<!-- 140&#45;&gt;2 -->
<g id="edge87" class="edge">
<title>140&#45;&gt;2</title>
<path fill="none" stroke="green" stroke-width="0.17" d="M993.2,-169.38C978.05,-164.16 957.65,-157.76 939.14,-154.02 780.65,-122.04 735.79,-149.17 577.14,-118.02 558.25,-114.32 537.41,-108.06 521.74,-102.9"/>
<polygon fill="green" stroke="green" stroke-width="0.17" points="522.86,-99.58 512.26,-99.7 520.62,-106.21 522.86,-99.58"/>
</g>
<!-- 140&#45;&gt;3 -->
<g id="edge88" class="edge">
<title>140&#45;&gt;3</title>
<path fill="none" stroke="green" stroke-width="0.51" d="M1020.4,-154.07C1022.35,-143.18 1024.67,-130.27 1026.66,-119.23"/>
<polygon fill="green" stroke="green" stroke-width="0.51" points="1030.11,-119.81 1028.43,-109.35 1023.22,-118.57 1030.11,-119.81"/>
</g>
<!-- 140&#45;&gt;4 -->
<g id="edge89" class="edge">
<title>140&#45;&gt;4</title>
<path fill="none" stroke="red" stroke-width="0.37" d="M1005.71,-155.85C993.81,-132.39 972.68,-95.01 947.14,-68.53 932,-52.83 911.33,-39.13 895.52,-29.85"/>
<polygon fill="red" stroke="red" stroke-width="0.37" points="896.82,-26.57 886.4,-24.67 893.37,-32.65 896.82,-26.57"/>
</g>
<!-- 140&#45;&gt;5 -->
<g id="edge90" class="edge">
<title>140&#45;&gt;5</title>
<path fill="none" stroke="green" stroke-width="0.8" d="M992.76,-169.74C977.6,-164.73 957.36,-158.43 939.14,-154.02 935.31,-153.1 706.65,-112.72 628.21,-98.88"/>
<polygon fill="green" stroke="green" stroke-width="0.8" points="628.64,-95.4 618.18,-97.11 627.42,-102.29 628.64,-95.4"/>
</g>
<!-- 141&#45;&gt;0 -->
<g id="edge91" class="edge">
<title>141&#45;&gt;0</title>
<path fill="none" stroke="red" stroke-width="0.52" d="M1101.91,-164.44C1095.99,-160.82 1089.42,-157.07 1083.14,-154.02 1036.86,-131.6 979.85,-112.27 947.58,-102.04"/>
<polygon fill="red" stroke="red" stroke-width="0.52" points="948.23,-98.58 937.64,-98.93 946.14,-105.26 948.23,-98.58"/>
</g>
<!-- 141&#45;&gt;1 -->
<g id="edge92" class="edge">
<title>141&#45;&gt;1</title>
<path fill="none" stroke="green" stroke-width="0.45" d="M1099,-169.39C1084.98,-164.5 1066.67,-158.45 1050.14,-154.02 954.78,-128.5 839.21,-107.45 788.33,-98.68"/>
<polygon fill="green" stroke="green" stroke-width="0.45" points="788.66,-95.18 778.21,-96.95 787.48,-102.08 788.66,-95.18"/>
</g>
<!-- 141&#45;&gt;2 -->
<g id="edge93" class="edge">
<title>141&#45;&gt;2</title>
<path fill="none" stroke="green" stroke-width="0.43" d="M1099.5,-168.73C1085.5,-163.54 1067.05,-157.4 1050.14,-154.02 843.4,-112.7 784.48,-156.24 577.14,-118.02 558.21,-114.53 537.37,-108.27 521.71,-103.05"/>
<polygon fill="green" stroke="green" stroke-width="0.43" points="522.84,-99.73 512.24,-99.81 520.57,-106.36 522.84,-99.73"/>
</g>
<!-- 141&#45;&gt;3 -->
<g id="edge94" class="edge">
<title>141&#45;&gt;3</title>
<path fill="none" stroke="green" stroke-width="0.31" d="M1104.16,-161.28C1088.63,-147.03 1066.26,-126.5 1050.38,-111.93"/>
<polygon fill="green" stroke="green" stroke-width="0.31" points="1052.47,-109.1 1042.73,-104.91 1047.74,-114.25 1052.47,-109.1"/>
</g>
<!-- 141&#45;&gt;4 -->
<g id="edge95" class="edge">
<title>141&#45;&gt;4</title>
<path fill="none" stroke="green" stroke-width="0.5" d="M1114.26,-155.01C1104.49,-130.1 1085.43,-90.77 1056.14,-68.53 1008.67,-32.47 937.14,-21.78 898.75,-18.6"/>
<polygon fill="green" stroke="green" stroke-width="0.5" points="898.63,-15.09 888.4,-17.87 898.13,-22.07 898.63,-15.09"/>
</g>
<!-- 141&#45;&gt;5 -->
<g id="edge96" class="edge">
<title>141&#45;&gt;5</title>
<path fill="none" stroke="green" stroke-width="0.43" d="M1099.13,-168.85C1085.16,-163.77 1066.85,-157.7 1050.14,-154.02 913.38,-123.94 875.71,-138.16 737.14,-118.02 698.89,-112.46 654.82,-104.4 627.73,-99.25"/>
<polygon fill="green" stroke="green" stroke-width="0.43" points="628.37,-95.8 617.89,-97.36 627.05,-102.68 628.37,-95.8"/>
</g>
<!-- 142&#45;&gt;0 -->
<g id="edge97" class="edge">
<title>142&#45;&gt;0</title>
<path fill="none" stroke="red" stroke-width="0.13" d="M1204.94,-169.58C1190.91,-164.76 1172.6,-158.71 1156.14,-154.02 1090.19,-135.27 1072.47,-135.35 1006.14,-118.02 986.41,-112.87 964.22,-106.58 947.6,-101.76"/>
<polygon fill="red" stroke="red" stroke-width="0.13" points="948.15,-98.27 937.57,-98.84 946.19,-105 948.15,-98.27"/>
</g>
<!-- 142&#45;&gt;1 -->
<g id="edge98" class="edge">
<title>142&#45;&gt;1</title>
<path fill="none" stroke="red" stroke-width="0.43" d="M1205.1,-168.99C1191.11,-163.96 1172.81,-157.9 1156.14,-154.02 1042.94,-127.72 1011.94,-136.1 897.14,-118.02 859.16,-112.05 815.35,-104.16 788.2,-99.15"/>
<polygon fill="red" stroke="red" stroke-width="0.43" points="788.79,-95.7 778.32,-97.32 787.51,-102.58 788.79,-95.7"/>
</g>
<!-- 142&#45;&gt;2 -->
<g id="edge99" class="edge">
<title>142&#45;&gt;2</title>
<path fill="none" stroke="red" stroke-width="0.4" d="M1205.51,-168.65C1191.53,-163.43 1173.07,-157.29 1156.14,-154.02 902.97,-105.24 831.02,-163 577.14,-118.02 558.18,-114.67 537.35,-108.39 521.7,-103.14"/>
<polygon fill="red" stroke="red" stroke-width="0.4" points="522.82,-99.83 512.23,-99.87 520.54,-106.44 522.82,-99.83"/>
</g>
<!-- 142&#45;&gt;3 -->
<g id="edge100" class="edge">
<title>142&#45;&gt;3</title>
<path fill="none" stroke="red" stroke-width="0.34" d="M1207.9,-164.47C1201.98,-160.85 1195.41,-157.09 1189.14,-154.02 1143.92,-131.94 1088.33,-112.62 1056.59,-102.28"/>
<polygon fill="red" stroke="red" stroke-width="0.34" points="1057.38,-98.85 1046.79,-99.12 1055.24,-105.52 1057.38,-98.85"/>
</g>
<!-- 142&#45;&gt;4 -->
<g id="edge101" class="edge">
<title>142&#45;&gt;4</title>
<path fill="none" stroke="green" stroke-width="0.23" d="M1211,-160.13C1186.33,-135.8 1138.36,-92.24 1089.14,-68.53 1024.82,-37.53 940.54,-24.59 898.45,-19.78"/>
<polygon fill="green" stroke="green" stroke-width="0.23" points="898.77,-16.29 888.46,-18.7 898.02,-23.25 898.77,-16.29"/>
</g>
<!-- 142&#45;&gt;5 -->
<g id="edge102" class="edge">
<title>142&#45;&gt;5</title>
<path fill="none" stroke="red" stroke-width="0.85" d="M1205.49,-168.79C1191.49,-163.62 1173.03,-157.49 1156.14,-154.02 973.04,-116.5 922.47,-142.24 737.14,-118.02 698.81,-113.02 654.77,-104.8 627.7,-99.47"/>
<polygon fill="red" stroke="red" stroke-width="0.85" points="628.36,-96.03 617.87,-97.51 626.99,-102.89 628.36,-96.03"/>
</g>
<!-- 143&#45;&gt;0 -->
<g id="edge103" class="edge">
<title>143&#45;&gt;0</title>
<path fill="none" stroke="red" stroke-width="0.25" d="M358.12,-168.73C372.09,-163.6 390.39,-157.53 407.14,-154.02 573.18,-119.24 619.02,-140.74 787.14,-118.02 825.45,-112.85 869.49,-104.68 896.57,-99.4"/>
<polygon fill="red" stroke="red" stroke-width="0.25" points="897.27,-102.83 906.41,-97.46 895.92,-95.96 897.27,-102.83"/>
</g>
<!-- 143&#45;&gt;1 -->
<g id="edge104" class="edge">
<title>143&#45;&gt;1</title>
<path fill="none" stroke="green" stroke-width="0.25" d="M358.22,-169.14C372.21,-164.16 390.52,-158.1 407.14,-154.02 503.37,-130.43 529.46,-134.61 627.14,-118.02 665.04,-111.59 708.87,-103.82 736.05,-98.96"/>
<polygon fill="green" stroke="green" stroke-width="0.25" points="736.71,-102.4 745.94,-97.19 735.48,-95.51 736.71,-102.4"/>
</g>
<!-- 143&#45;&gt;2 -->
<g id="edge105" class="edge">
<title>143&#45;&gt;2</title>
<path fill="none" stroke="green" stroke-width="0.11" d="M355.98,-164.58C361.79,-161.04 368.15,-157.29 374.14,-154.02 407.99,-135.55 448.4,-116.46 473.42,-104.98"/>
<polygon fill="green" stroke="green" stroke-width="0.11" points="474.88,-108.17 482.52,-100.83 471.97,-101.8 474.88,-108.17"/>
</g>
<!-- 143&#45;&gt;3 -->
<g id="edge106" class="edge">
<title>143&#45;&gt;3</title>
<path fill="none" stroke="green" stroke-width="0.25" d="M357.77,-168.68C371.76,-163.47 390.22,-157.32 407.14,-154.02 643.23,-107.99 710.12,-158.97 947.14,-118.02 967.23,-114.55 989.4,-108.17 1005.92,-102.9"/>
<polygon fill="green" stroke="green" stroke-width="0.25" points="1007.47,-106.07 1015.88,-99.63 1005.29,-99.42 1007.47,-106.07"/>
</g>
<!-- 143&#45;&gt;4 -->
<g id="edge107" class="edge">
<title>143&#45;&gt;4</title>
<path fill="none" stroke="green" stroke-width="0.24" stroke-dasharray="1,5" d="M348.28,-157.6C366.15,-132.06 400.69,-88.92 442.14,-68.53 513.96,-33.19 763.81,-21.17 845.83,-18.13"/>
<polygon fill="green" stroke="green" stroke-width="0.24" points="845.96,-21.62 855.83,-17.77 845.71,-14.63 845.96,-21.62"/>
</g>
<!-- 143&#45;&gt;5 -->
<g id="edge108" class="edge">
<title>143&#45;&gt;5</title>
<path fill="none" stroke="red" stroke-width="0.53" d="M358.45,-169.95C372.52,-165.25 390.83,-159.21 407.14,-154.02 467.79,-134.73 539.41,-113.07 576.69,-101.88"/>
<polygon fill="red" stroke="red" stroke-width="0.53" points="578.11,-105.11 586.68,-98.89 576.1,-98.41 578.11,-105.11"/>
</g>
<!-- 144&#45;&gt;0 -->
<g id="edge109" class="edge">
<title>144&#45;&gt;0</title>
<path fill="none" stroke="green" stroke-width="0.39" d="M531.52,-169.74C546.68,-164.73 566.92,-158.43 585.14,-154.02 588.97,-153.1 817.63,-112.72 896.06,-98.88"/>
<polygon fill="green" stroke="green" stroke-width="0.39" points="896.86,-102.29 906.1,-97.11 895.64,-95.4 896.86,-102.29"/>
</g>
<!-- 144&#45;&gt;1 -->
<g id="edge110" class="edge">
<title>144&#45;&gt;1</title>
<path fill="none" stroke="red" stroke-width="0.57" stroke-dasharray="1,5" d="M531.58,-170.07C579.51,-154.31 688.31,-118.54 737.36,-102.42"/>
<polygon fill="red" stroke="red" stroke-width="0.57" points="738.46,-105.74 746.87,-99.3 736.28,-99.09 738.46,-105.74"/>
</g>
<!-- 144&#45;&gt;2 -->
<g id="edge111" class="edge">
<title>144&#45;&gt;2</title>
<path fill="none" stroke="green" stroke-width="0.32" d="M505.02,-154.07C503.61,-143.37 501.94,-130.7 500.5,-119.79"/>
<polygon fill="green" stroke="green" stroke-width="0.32" points="503.93,-119.06 499.16,-109.6 496.99,-119.97 503.93,-119.06"/>
</g>
<!-- 144&#45;&gt;3 -->
<g id="edge112" class="edge">
<title>144&#45;&gt;3</title>
<path fill="none" stroke="red" stroke-width="0.26" d="M532.04,-171.86C554.23,-166.56 588.25,-158.87 618.14,-154.02 763.34,-130.47 802.75,-146.13 947.14,-118.02 967.15,-114.13 989.33,-107.77 1005.87,-102.61"/>
<polygon fill="red" stroke="red" stroke-width="0.26" points="1007.38,-105.8 1015.84,-99.43 1005.25,-99.13 1007.38,-105.8"/>
</g>
<!-- 144&#45;&gt;4 -->
<g id="edge113" class="edge">
<title>144&#45;&gt;4</title>
<path fill="none" stroke="green" stroke-width="0.22" d="M516.07,-154.9C526.13,-129.5 546.01,-89.36 577.14,-68.53 621.14,-39.08 781.92,-24.04 845.76,-19.12"/>
<polygon fill="green" stroke="green" stroke-width="0.22" points="846.11,-22.6 855.82,-18.37 845.59,-15.62 846.11,-22.6"/>
</g>
<!-- 144&#45;&gt;5 -->
<g id="edge114" class="edge">
<title>144&#45;&gt;5</title>
<path fill="none" stroke="red" stroke-width="0.52" d="M526.26,-161.67C542.49,-147.26 566.22,-126.18 582.81,-111.44"/>
<polygon fill="red" stroke="red" stroke-width="0.52" points="585.17,-114.03 590.32,-104.78 580.52,-108.8 585.17,-114.03"/>
</g>
<!-- 145&#45;&gt;0 -->
<g id="edge115" class="edge">
<title>145&#45;&gt;0</title>
<path fill="none" stroke="red" stroke-width="0.12" d="M672.18,-164.02C678.1,-160.4 684.71,-156.74 691.14,-154.02 762.36,-123.91 852.55,-105.94 896.17,-98.42"/>
<polygon fill="red" stroke="red" stroke-width="0.12" points="896.93,-101.84 906.21,-96.73 895.77,-94.94 896.93,-101.84"/>
</g>
<!-- 145&#45;&gt;1 -->
<g id="edge116" class="edge">
<title>145&#45;&gt;1</title>
<path fill="none" stroke="red" stroke-width="0.29" d="M671.55,-163.04C691.11,-148.19 721.18,-125.36 741.25,-110.13"/>
<polygon fill="red" stroke="red" stroke-width="0.29" points="743.59,-112.75 749.44,-103.92 739.35,-107.18 743.59,-112.75"/>
</g>
<!-- 145&#45;&gt;2 -->
<g id="edge117" class="edge">
<title>145&#45;&gt;2</title>
<path fill="none" stroke="green" stroke-width="0.29" d="M630.59,-166.16C601.46,-150.47 549.77,-122.63 519.99,-106.59"/>
<polygon fill="green" stroke="green" stroke-width="0.29" points="521.61,-103.48 511.15,-101.82 518.29,-109.65 521.61,-103.48"/>
</g>
<!-- 145&#45;&gt;3 -->
<g id="edge118" class="edge">
<title>145&#45;&gt;3</title>
<path fill="none" stroke="green" stroke-width="0.55" stroke-dasharray="1,5" d="M676.37,-173.51C726.94,-164.47 847.34,-142.2 947.14,-118.02 966.95,-113.22 989.14,-106.91 1005.73,-102"/>
<polygon fill="green" stroke="green" stroke-width="0.55" points="1007.17,-105.22 1015.75,-99.01 1005.17,-98.52 1007.17,-105.22"/>
</g>
<!-- 145&#45;&gt;4 -->
<g id="edge119" class="edge">
<title>145&#45;&gt;4</title>
<path fill="none" stroke="red" stroke-width="0.62" d="M663.85,-156.42C678.21,-132.07 704.67,-92.52 737.14,-68.53 770.58,-43.83 817.34,-29.62 846.13,-22.67"/>
<polygon fill="red" stroke="red" stroke-width="0.62" points="847.26,-26 856.22,-20.36 845.69,-19.18 847.26,-26"/>
</g>
<!-- 145&#45;&gt;5 -->
<g id="edge120" class="edge">
<title>145&#45;&gt;5</title>
<path fill="none" stroke="red" stroke-width="0.25" d="M639.78,-157.13C632.41,-144.82 623.04,-129.18 615.5,-116.58"/>
<polygon fill="red" stroke="red" stroke-width="0.25" points="618.29,-114.43 610.14,-107.64 612.28,-118.02 618.29,-114.43"/>
</g>
<!-- 520&#45;&gt;4 -->
<g id="edge158" class="edge">
<title>520&#45;&gt;4</title>
<path fill="none" stroke="red" stroke-width="0.11" d="M1183.25,-81.26C1173.6,-76.77 1162.01,-71.86 1151.14,-68.53 1060.57,-40.71 948.56,-25.75 898.48,-20.03"/>
<polygon fill="red" stroke="red" stroke-width="0.11" points="898.82,-16.55 888.5,-18.92 898.05,-23.51 898.82,-16.55"/>
</g>
</g>
</svg>
