<?xml version="1.0" encoding="UTF-8" standalone="no"?>
<!DOCTYPE svg PUBLIC "-//W3C//DTD SVG 1.1//EN"
 "http://www.w3.org/Graphics/SVG/1.1/DTD/svg11.dtd">
<!-- Generated by graphviz version 2.44.0 (0)
 -->
<!-- Pages: 1 -->
<svg width="865pt" height="180pt"
 viewBox="0.00 0.00 865.27 180.02" xmlns="http://www.w3.org/2000/svg" xmlns:xlink="http://www.w3.org/1999/xlink">
<g id="graph0" class="graph" transform="scale(1 1) rotate(0) translate(4 176.02)">
<polygon fill="white" stroke="transparent" points="-4,4 -4,-176.02 861.27,-176.02 861.27,4 -4,4"/>
<!-- &#45;1 -->
<g id="node1" class="node">
<title>&#45;1</title>
<polygon fill="lightgray" stroke="black" points="457.69,-172.02 431.69,-172.02 431.69,-154.02 457.69,-154.02 457.69,-172.02"/>
<text text-anchor="middle" x="444.69" y="-160.82" font-family="Times-Roman" font-size="9.00">&#45;1</text>
</g>
<!-- 0 -->
<g id="node3" class="node">
<title>0</title>
<ellipse fill="lightblue" stroke="black" cx="309.69" cy="-16.26" rx="16.03" ry="16.03"/>
<text text-anchor="middle" x="309.69" y="-14.06" font-family="Times-Roman" font-size="9.00">0</text>
</g>
<!-- &#45;1&#45;&gt;0 -->
<g id="edge81" class="edge">
<title>&#45;1&#45;&gt;0</title>
<path fill="none" stroke="red" stroke-width="0.56" d="M431.37,-160.63C361.92,-153.33 44.36,-119.89 42.69,-118.02 28,-101.64 28.33,-85.19 42.69,-68.53 78.04,-27.51 232.63,-50.56 283.69,-32.53 284.94,-32.09 286.19,-31.58 287.44,-31.03"/>
<polygon fill="red" stroke="red" stroke-width="0.56" points="289.43,-33.95 296.67,-26.21 286.19,-27.74 289.43,-33.95"/>
</g>
<!-- 1 -->
<g id="node4" class="node">
<title>1</title>
<ellipse fill="lightblue" stroke="black" cx="360.69" cy="-16.26" rx="16.03" ry="16.03"/>
<text text-anchor="middle" x="360.69" y="-14.06" font-family="Times-Roman" font-size="9.00">1</text>
</g>
<!-- &#45;1&#45;&gt;1 -->
<g id="edge82" class="edge">
<title>&#45;1&#45;&gt;1</title>
<path fill="none" stroke="red" stroke-width="0.27" d="M457.98,-161.9C521.52,-160.9 788.25,-151.75 713.69,-68.53 664.9,-14.08 456.08,-55.54 386.69,-32.53 385.43,-32.11 384.17,-31.63 382.91,-31.09"/>
<polygon fill="red" stroke="red" stroke-width="0.27" points="384.16,-27.8 373.67,-26.32 380.95,-34.02 384.16,-27.8"/>
</g>
<!-- 2 -->
<g id="node5" class="node">
<title>2</title>
<ellipse fill="lightblue" stroke="black" cx="462.69" cy="-16.26" rx="16.03" ry="16.03"/>
<text text-anchor="middle" x="462.69" y="-14.06" font-family="Times-Roman" font-size="9.00">2</text>
</g>
<!-- &#45;1&#45;&gt;2 -->
<g id="edge83" class="edge">
<title>&#45;1&#45;&gt;2</title>
<path fill="none" stroke="green" stroke-width="0.1" d="M458.02,-161.5C522.27,-158.85 797.86,-145.9 822.69,-118.02 837.32,-101.59 837.39,-84.89 822.69,-68.53 772.81,-12.98 559.57,-55.95 488.69,-32.53 487.43,-32.11 486.17,-31.63 484.91,-31.1"/>
<polygon fill="green" stroke="green" stroke-width="0.1" points="486.16,-27.8 475.66,-26.33 482.95,-34.02 486.16,-27.8"/>
</g>
<!-- 3 -->
<g id="node6" class="node">
<title>3</title>
<ellipse fill="lightblue" stroke="black" cx="411.69" cy="-16.26" rx="16.03" ry="16.03"/>
<text text-anchor="middle" x="411.69" y="-14.06" font-family="Times-Roman" font-size="9.00">3</text>
</g>
<!-- &#45;1&#45;&gt;3 -->
<g id="edge84" class="edge">
<title>&#45;1&#45;&gt;3</title>
<path fill="none" stroke="green" stroke-width="0.1" d="M457.72,-162.27C525.34,-163.14 829.9,-161.99 746.69,-68.53 700.72,-16.89 503.23,-54.5 437.69,-32.53 436.43,-32.11 435.17,-31.62 433.91,-31.08"/>
<polygon fill="green" stroke="green" stroke-width="0.1" points="435.16,-27.79 424.67,-26.31 431.95,-34.01 435.16,-27.79"/>
</g>
<!-- 4 -->
<g id="node7" class="node">
<title>4</title>
<ellipse fill="lightblue" stroke="black" cx="513.69" cy="-16.26" rx="16.03" ry="16.03"/>
<text text-anchor="middle" x="513.69" y="-14.06" font-family="Times-Roman" font-size="9.00">4</text>
</g>
<!-- &#45;1&#45;&gt;4 -->
<g id="edge85" class="edge">
<title>&#45;1&#45;&gt;4</title>
<path fill="none" stroke="green" stroke-width="0.54" d="M457.81,-161.59C523.59,-159.26 815.44,-147.34 841.69,-118.02 927.89,-21.74 632.47,-16.28 540.3,-16.86"/>
<polygon fill="green" stroke="green" stroke-width="0.54" points="540.07,-13.36 530.1,-16.95 540.13,-20.36 540.07,-13.36"/>
</g>
<!-- 5 -->
<g id="node8" class="node">
<title>5</title>
<ellipse fill="lightblue" stroke="black" cx="258.69" cy="-16.26" rx="16.03" ry="16.03"/>
<text text-anchor="middle" x="258.69" y="-14.06" font-family="Times-Roman" font-size="9.00">5</text>
</g>
<!-- &#45;1&#45;&gt;5 -->
<g id="edge86" class="edge">
<title>&#45;1&#45;&gt;5</title>
<path fill="none" stroke="red" stroke-width="0.25" d="M431.35,-160.64C360.3,-153.29 29.55,-118.99 28.69,-118.02 13.97,-101.67 14.93,-85.69 28.69,-68.53 54,-36.96 177.52,-23.57 232.36,-19.11"/>
<polygon fill="red" stroke="red" stroke-width="0.25" points="232.67,-22.6 242.37,-18.34 232.13,-15.62 232.67,-22.6"/>
</g>
<!-- 396 -->
<g id="node9" class="node">
<title>396</title>
<ellipse fill="white" stroke="black" cx="545.69" cy="-93.28" rx="25" ry="25"/>
<text text-anchor="middle" x="545.69" y="-91.08" font-family="Times-Roman" font-size="9.00">396</text>
</g>
<!-- &#45;1&#45;&gt;396 -->
<g id="edge1" class="edge">
<title>&#45;1&#45;&gt;396</title>
<path fill="none" stroke="green" stroke-width="0.43" d="M457.59,-153.94C471.37,-145.25 493.76,-130.95 512.69,-118.02 514.3,-116.92 515.96,-115.78 517.62,-114.61"/>
<polygon fill="green" stroke="green" stroke-width="0.43" points="519.77,-117.39 525.91,-108.75 515.72,-111.67 519.77,-117.39"/>
</g>
<!-- 397 -->
<g id="node10" class="node">
<title>397</title>
<ellipse fill="white" stroke="black" cx="612.69" cy="-93.28" rx="25" ry="25"/>
<text text-anchor="middle" x="612.69" y="-91.08" font-family="Times-Roman" font-size="9.00">397</text>
</g>
<!-- &#45;1&#45;&gt;397 -->
<g id="edge2" class="edge">
<title>&#45;1&#45;&gt;397</title>
<path fill="none" stroke="green" stroke-width="0.27" d="M457.87,-159.16C482.64,-153.48 537.48,-139.44 579.69,-118.02 581.48,-117.11 583.28,-116.11 585.07,-115.05"/>
<polygon fill="green" stroke="green" stroke-width="0.27" points="587.31,-117.77 593.78,-109.39 583.49,-111.91 587.31,-117.77"/>
</g>
<!-- 398 -->
<g id="node11" class="node">
<title>398</title>
<ellipse fill="white" stroke="black" cx="679.69" cy="-93.28" rx="25" ry="25"/>
<text text-anchor="middle" x="679.69" y="-91.08" font-family="Times-Roman" font-size="9.00">398</text>
</g>
<!-- &#45;1&#45;&gt;398 -->
<g id="edge3" class="edge">
<title>&#45;1&#45;&gt;398</title>
<path fill="none" stroke="red" stroke-width="0.13" d="M458.03,-161C491.24,-158.07 579.81,-147.82 646.69,-118.02 648.52,-117.21 650.36,-116.27 652.18,-115.27"/>
<polygon fill="red" stroke="red" stroke-width="0.13" points="654.35,-118.04 660.95,-109.75 650.62,-112.11 654.35,-118.04"/>
</g>
<!-- 399 -->
<g id="node12" class="node">
<title>399</title>
<ellipse fill="white" stroke="black" cx="76.69" cy="-93.28" rx="25" ry="25"/>
<text text-anchor="middle" x="76.69" y="-91.08" font-family="Times-Roman" font-size="9.00">399</text>
</g>
<!-- &#45;1&#45;&gt;399 -->
<g id="edge4" class="edge">
<title>&#45;1&#45;&gt;399</title>
<path fill="none" stroke="red" stroke-width="0.32" d="M431.33,-160.66C372.76,-154.63 140.16,-130.1 109.69,-118.02 107.82,-117.28 105.95,-116.41 104.12,-115.45"/>
<polygon fill="red" stroke="red" stroke-width="0.32" points="105.65,-112.28 95.29,-110.06 102,-118.26 105.65,-112.28"/>
</g>
<!-- 400 -->
<g id="node13" class="node">
<title>400</title>
<ellipse fill="white" stroke="black" cx="143.69" cy="-93.28" rx="25" ry="25"/>
<text text-anchor="middle" x="143.69" y="-91.08" font-family="Times-Roman" font-size="9.00">400</text>
</g>
<!-- &#45;1&#45;&gt;400 -->
<g id="edge5" class="edge">
<title>&#45;1&#45;&gt;400</title>
<path fill="none" stroke="green" stroke-width="0.11" d="M431.54,-160.67C384.38,-155.7 224.05,-137.67 176.69,-118.02 174.83,-117.25 172.98,-116.36 171.15,-115.38"/>
<polygon fill="green" stroke="green" stroke-width="0.11" points="172.69,-112.22 162.34,-109.94 169.01,-118.17 172.69,-112.22"/>
</g>
<!-- 401 -->
<g id="node14" class="node">
<title>401</title>
<ellipse fill="white" stroke="black" cx="210.69" cy="-93.28" rx="25" ry="25"/>
<text text-anchor="middle" x="210.69" y="-91.08" font-family="Times-Roman" font-size="9.00">401</text>
</g>
<!-- &#45;1&#45;&gt;401 -->
<g id="edge6" class="edge">
<title>&#45;1&#45;&gt;401</title>
<path fill="none" stroke="green" stroke-width="0.72" d="M431.41,-160.99C398.36,-158.03 310.24,-147.72 243.69,-118.02 241.85,-117.2 240.01,-116.27 238.2,-115.26"/>
<polygon fill="green" stroke="green" stroke-width="0.72" points="239.75,-112.11 229.42,-109.75 236.02,-118.03 239.75,-112.11"/>
</g>
<!-- 402 -->
<g id="node15" class="node">
<title>402</title>
<ellipse fill="white" stroke="black" cx="277.69" cy="-93.28" rx="25" ry="25"/>
<text text-anchor="middle" x="277.69" y="-91.08" font-family="Times-Roman" font-size="9.00">402</text>
</g>
<!-- &#45;1&#45;&gt;402 -->
<g id="edge7" class="edge">
<title>&#45;1&#45;&gt;402</title>
<path fill="none" stroke="green" stroke-width="0.17" d="M431.61,-159.15C407.01,-153.43 352.59,-139.34 310.69,-118.02 308.89,-117.11 307.09,-116.11 305.3,-115.05"/>
<polygon fill="green" stroke="green" stroke-width="0.17" points="306.89,-111.9 296.6,-109.38 303.07,-117.77 306.89,-111.9"/>
</g>
<!-- 403 -->
<g id="node16" class="node">
<title>403</title>
<ellipse fill="white" stroke="black" cx="344.69" cy="-93.28" rx="25" ry="25"/>
<text text-anchor="middle" x="344.69" y="-91.08" font-family="Times-Roman" font-size="9.00">403</text>
</g>
<!-- &#45;1&#45;&gt;403 -->
<g id="edge8" class="edge">
<title>&#45;1&#45;&gt;403</title>
<path fill="none" stroke="green" stroke-width="0.29" d="M431.73,-153.75C418.16,-145.03 396.26,-130.8 377.69,-118.02 376.07,-116.91 374.42,-115.77 372.76,-114.6"/>
<polygon fill="green" stroke="green" stroke-width="0.29" points="374.66,-111.66 364.48,-108.73 370.61,-117.37 374.66,-111.66"/>
</g>
<!-- 404 -->
<g id="node17" class="node">
<title>404</title>
<ellipse fill="white" stroke="black" cx="411.69" cy="-93.28" rx="25" ry="25"/>
<text text-anchor="middle" x="411.69" y="-91.08" font-family="Times-Roman" font-size="9.00">404</text>
</g>
<!-- &#45;1&#45;&gt;404 -->
<g id="edge9" class="edge">
<title>&#45;1&#45;&gt;404</title>
<path fill="none" stroke="green" stroke-width="0.41" d="M440.77,-153.99C437.26,-146.78 431.87,-135.72 426.69,-125.07"/>
<polygon fill="green" stroke="green" stroke-width="0.41" points="429.76,-123.38 422.23,-115.93 423.47,-126.45 429.76,-123.38"/>
</g>
<!-- 405 -->
<g id="node18" class="node">
<title>405</title>
<ellipse fill="white" stroke="black" cx="478.69" cy="-93.28" rx="25" ry="25"/>
<text text-anchor="middle" x="478.69" y="-91.08" font-family="Times-Roman" font-size="9.00">405</text>
</g>
<!-- &#45;1&#45;&gt;405 -->
<g id="edge10" class="edge">
<title>&#45;1&#45;&gt;405</title>
<path fill="none" stroke="green" stroke-width="0.19" d="M448.72,-153.99C452.37,-146.72 457.97,-135.55 463.35,-124.83"/>
<polygon fill="green" stroke="green" stroke-width="0.19" points="466.61,-126.14 467.97,-115.63 460.35,-123 466.61,-126.14"/>
</g>
<!-- &#45;2 -->
<g id="node2" class="node">
<title>&#45;2</title>
<polygon fill="lightgray" stroke="black" points="357.69,-172.02 331.69,-172.02 331.69,-154.02 357.69,-154.02 357.69,-172.02"/>
<text text-anchor="middle" x="344.69" y="-160.82" font-family="Times-Roman" font-size="9.00">&#45;2</text>
</g>
<!-- &#45;2&#45;&gt;0 -->
<g id="edge87" class="edge">
<title>&#45;2&#45;&gt;0</title>
<path fill="none" stroke="green" stroke-width="0.34" d="M331.42,-162.38C276.2,-163.58 65.59,-164.94 24.69,-118.02 10.23,-101.44 10.24,-85.12 24.69,-68.53 62.84,-24.7 228.8,-51.6 283.69,-32.53 284.94,-32.09 286.2,-31.59 287.45,-31.05"/>
<polygon fill="green" stroke="green" stroke-width="0.34" points="289.43,-33.97 296.68,-26.24 286.19,-27.76 289.43,-33.97"/>
</g>
<!-- &#45;2&#45;&gt;1 -->
<g id="edge88" class="edge">
<title>&#45;2&#45;&gt;1</title>
<path fill="none" stroke="green" stroke-width="0.18" d="M331.66,-162.28C264.1,-163.2 -40.21,-162.27 42.69,-68.53 86,-19.55 272.77,-53.51 334.69,-32.53 335.94,-32.1 337.2,-31.61 338.46,-31.07"/>
<polygon fill="green" stroke="green" stroke-width="0.18" points="340.43,-33.99 347.7,-26.29 337.21,-27.78 340.43,-33.99"/>
</g>
<!-- &#45;2&#45;&gt;2 -->
<g id="edge89" class="edge">
<title>&#45;2&#45;&gt;2</title>
<path fill="none" stroke="red" stroke-width="0.18" d="M358.02,-160.68C423.43,-154.04 707.62,-124.85 713.69,-118.02 728.29,-101.57 727.96,-85.27 713.69,-68.53 680.83,-30 536.34,-49.64 488.69,-32.53 487.44,-32.08 486.19,-31.57 484.94,-31.02"/>
<polygon fill="red" stroke="red" stroke-width="0.18" points="486.2,-27.73 475.71,-26.19 482.95,-33.93 486.2,-27.73"/>
</g>
<!-- &#45;2&#45;&gt;4 -->
<g id="edge90" class="edge">
<title>&#45;2&#45;&gt;4</title>
<path fill="none" stroke="red" stroke-width="0.33" d="M357.92,-160.64C425.55,-153.57 729.48,-121.62 732.69,-118.02 747.34,-101.62 746.36,-85.76 732.69,-68.53 708.9,-38.53 593.1,-24.41 540.18,-19.45"/>
<polygon fill="red" stroke="red" stroke-width="0.33" points="540.16,-15.93 529.89,-18.52 539.54,-22.9 540.16,-15.93"/>
</g>
<!-- &#45;2&#45;&gt;5 -->
<g id="edge91" class="edge">
<title>&#45;2&#45;&gt;5</title>
<path fill="none" stroke="green" stroke-width="0.22" d="M331.35,-161.29C271.8,-157.87 32.28,-142.65 10.69,-118.02 -3.82,-101.48 -3.21,-85.58 10.69,-68.53 38.4,-34.5 173.7,-22.37 231.94,-18.68"/>
<polygon fill="green" stroke="green" stroke-width="0.22" points="232.42,-22.15 242.19,-18.06 232,-15.17 232.42,-22.15"/>
</g>
<!-- &#45;2&#45;&gt;396 -->
<g id="edge11" class="edge">
<title>&#45;2&#45;&gt;396</title>
<path fill="none" stroke="red" stroke-width="0.33" d="M357.89,-160.25C387,-155.99 458.4,-143.58 512.69,-118.02 514.51,-117.17 516.33,-116.21 518.14,-115.18"/>
<polygon fill="red" stroke="red" stroke-width="0.33" points="520.33,-117.93 526.88,-109.6 516.57,-112.02 520.33,-117.93"/>
</g>
<!-- &#45;2&#45;&gt;397 -->
<g id="edge12" class="edge">
<title>&#45;2&#45;&gt;397</title>
<path fill="none" stroke="red" stroke-width="0.2" d="M357.99,-160.31C401.43,-154.59 538.76,-135.54 579.69,-118.02 581.54,-117.23 583.38,-116.32 585.2,-115.33"/>
<polygon fill="red" stroke="red" stroke-width="0.2" points="587.36,-118.11 594,-109.86 583.66,-112.17 587.36,-118.11"/>
</g>
<!-- &#45;2&#45;&gt;398 -->
<g id="edge13" class="edge">
<title>&#45;2&#45;&gt;398</title>
<path fill="none" stroke="red" stroke-width="0.54" d="M357.81,-160.49C412.34,-154.04 619.42,-129.05 646.69,-118.02 648.55,-117.27 650.41,-116.39 652.24,-115.42"/>
<polygon fill="red" stroke="red" stroke-width="0.54" points="654.37,-118.22 661.06,-110.01 650.71,-112.25 654.37,-118.22"/>
</g>
<!-- &#45;2&#45;&gt;399 -->
<g id="edge14" class="edge">
<title>&#45;2&#45;&gt;399</title>
<path fill="none" stroke="red" stroke-width="0.26" d="M331.64,-161.56C295.09,-159.85 189.25,-152.08 109.69,-118.02 107.84,-117.23 105.99,-116.32 104.17,-115.33"/>
<polygon fill="red" stroke="red" stroke-width="0.26" points="105.71,-112.17 95.37,-109.86 102.01,-118.11 105.71,-112.17"/>
</g>
<!-- &#45;2&#45;&gt;400 -->
<g id="edge15" class="edge">
<title>&#45;2&#45;&gt;400</title>
<path fill="none" stroke="green" stroke-width="0.33" d="M331.48,-160.25C302.38,-155.99 230.97,-143.58 176.69,-118.02 174.87,-117.17 173.04,-116.21 171.24,-115.18"/>
<polygon fill="green" stroke="green" stroke-width="0.33" points="172.8,-112.02 162.49,-109.6 169.04,-117.93 172.8,-112.02"/>
</g>
<!-- &#45;2&#45;&gt;401 -->
<g id="edge16" class="edge">
<title>&#45;2&#45;&gt;401</title>
<path fill="none" stroke="red" stroke-width="0.35" d="M331.51,-157.32C311.81,-150.05 273.78,-135.15 243.69,-118.02 241.94,-117.03 240.17,-115.96 238.41,-114.85"/>
<polygon fill="red" stroke="red" stroke-width="0.35" points="240.03,-111.72 229.77,-109.05 236.13,-117.53 240.03,-111.72"/>
</g>
<!-- &#45;2&#45;&gt;402 -->
<g id="edge17" class="edge">
<title>&#45;2&#45;&gt;402</title>
<path fill="none" stroke="green" stroke-width="0.71" d="M336.74,-153.99C328.18,-145.34 314.16,-131.15 301.92,-118.78"/>
<polygon fill="green" stroke="green" stroke-width="0.71" points="304.12,-116.02 294.6,-111.38 299.14,-120.95 304.12,-116.02"/>
</g>
<!-- &#45;2&#45;&gt;403 -->
<g id="edge18" class="edge">
<title>&#45;2&#45;&gt;403</title>
<path fill="none" stroke="red" stroke-width="0.26" d="M344.69,-153.99C344.69,-147.55 344.69,-138.05 344.69,-128.52"/>
<polygon fill="red" stroke="red" stroke-width="0.26" points="348.19,-128.3 344.69,-118.3 341.19,-128.3 348.19,-128.3"/>
</g>
<!-- &#45;2&#45;&gt;404 -->
<g id="edge19" class="edge">
<title>&#45;2&#45;&gt;404</title>
<path fill="none" stroke="green" stroke-width="0.25" d="M352.64,-153.99C361.19,-145.34 375.22,-131.15 387.45,-118.78"/>
<polygon fill="green" stroke="green" stroke-width="0.25" points="390.23,-120.95 394.78,-111.38 385.26,-116.02 390.23,-120.95"/>
</g>
<!-- &#45;2&#45;&gt;405 -->
<g id="edge20" class="edge">
<title>&#45;2&#45;&gt;405</title>
<path fill="none" stroke="green" stroke-width="0.34" d="M357.87,-157.32C377.57,-150.05 415.6,-135.15 445.69,-118.02 447.44,-117.03 449.2,-115.96 450.97,-114.85"/>
<polygon fill="green" stroke="green" stroke-width="0.34" points="453.25,-117.53 459.6,-109.05 449.35,-111.72 453.25,-117.53"/>
</g>
<!-- 396&#45;&gt;0 -->
<g id="edge21" class="edge">
<title>396&#45;&gt;0</title>
<path fill="none" stroke="red" stroke-width="0.1" d="M526.98,-76.75C522.51,-73.64 517.6,-70.68 512.69,-68.53 439.13,-36.36 410.65,-61.24 335.69,-32.53 334.45,-32.05 333.2,-31.52 331.96,-30.95"/>
<polygon fill="red" stroke="red" stroke-width="0.1" points="333.23,-27.67 322.76,-26.07 329.95,-33.85 333.23,-27.67"/>
</g>
<!-- 396&#45;&gt;1 -->
<g id="edge22" class="edge">
<title>396&#45;&gt;1</title>
<path fill="none" stroke="green" stroke-width="0.37" d="M526.85,-77.03C522.38,-73.91 517.51,-70.87 512.69,-68.53 460.27,-43.14 440.23,-55.45 386.69,-32.53 385.47,-32.01 384.24,-31.44 383.01,-30.84"/>
<polygon fill="green" stroke="green" stroke-width="0.37" points="384.3,-27.56 373.84,-25.85 380.96,-33.71 384.3,-27.56"/>
</g>
<!-- 396&#45;&gt;2 -->
<g id="edge23" class="edge">
<title>396&#45;&gt;2</title>
<path fill="none" stroke="red" stroke-width="0.18" d="M527.68,-76C514.13,-63.75 495.59,-47 481.78,-34.52"/>
<polygon fill="red" stroke="red" stroke-width="0.18" points="484.04,-31.84 474.27,-27.74 479.35,-37.04 484.04,-31.84"/>
</g>
<!-- 396&#45;&gt;3 -->
<g id="edge24" class="edge">
<title>396&#45;&gt;3</title>
<path fill="none" stroke="red" stroke-width="0.5" d="M526.18,-77.38C521.83,-74.3 517.18,-71.19 512.69,-68.53 480.89,-49.65 470.32,-49.9 437.69,-32.53 436.54,-31.92 435.38,-31.28 434.21,-30.64"/>
<polygon fill="red" stroke="red" stroke-width="0.5" points="435.75,-27.49 425.33,-25.56 432.27,-33.56 435.75,-27.49"/>
</g>
<!-- 396&#45;&gt;4 -->
<g id="edge25" class="edge">
<title>396&#45;&gt;4</title>
<path fill="none" stroke="green" stroke-width="0.43" d="M536.26,-70.18C532.36,-61.03 527.83,-50.42 523.86,-41.1"/>
<polygon fill="green" stroke="green" stroke-width="0.43" points="526.96,-39.46 519.82,-31.64 520.52,-42.21 526.96,-39.46"/>
</g>
<!-- 396&#45;&gt;5 -->
<g id="edge26" class="edge">
<title>396&#45;&gt;5</title>
<path fill="none" stroke="red" stroke-width="0.61" d="M527.04,-76.59C522.57,-73.49 517.65,-70.57 512.69,-68.53 417.81,-29.5 381.27,-67.1 284.69,-32.53 283.44,-32.08 282.18,-31.57 280.94,-31.02"/>
<polygon fill="red" stroke="red" stroke-width="0.61" points="282.19,-27.73 271.71,-26.19 278.95,-33.93 282.19,-27.73"/>
</g>
<!-- 397&#45;&gt;0 -->
<g id="edge27" class="edge">
<title>397&#45;&gt;0</title>
<path fill="none" stroke="red" stroke-width="0.34" d="M594.06,-76.55C589.59,-73.45 584.66,-70.54 579.69,-68.53 478.1,-27.34 439.08,-68.95 335.69,-32.53 334.44,-32.09 333.18,-31.58 331.93,-31.04"/>
<polygon fill="red" stroke="red" stroke-width="0.34" points="333.19,-27.74 322.7,-26.22 329.95,-33.95 333.19,-27.74"/>
</g>
<!-- 397&#45;&gt;1 -->
<g id="edge28" class="edge">
<title>397&#45;&gt;1</title>
<path fill="none" stroke="green" stroke-width="0.38" d="M594,-76.69C589.53,-73.59 584.62,-70.64 579.69,-68.53 499.46,-34.22 468.42,-63.07 386.69,-32.53 385.45,-32.06 384.2,-31.54 382.95,-30.98"/>
<polygon fill="green" stroke="green" stroke-width="0.38" points="384.22,-27.69 373.74,-26.11 380.95,-33.88 384.22,-27.69"/>
</g>
<!-- 397&#45;&gt;2 -->
<g id="edge29" class="edge">
<title>397&#45;&gt;2</title>
<path fill="none" stroke="green" stroke-width="0.17" d="M593.67,-77.38C589.21,-74.24 584.39,-71.1 579.69,-68.53 541.52,-47.66 527.78,-51.59 488.69,-32.53 487.52,-31.96 486.34,-31.36 485.15,-30.74"/>
<polygon fill="green" stroke="green" stroke-width="0.17" points="486.67,-27.57 476.23,-25.75 483.25,-33.68 486.67,-27.57"/>
</g>
<!-- 397&#45;&gt;3 -->
<g id="edge30" class="edge">
<title>397&#45;&gt;3</title>
<path fill="none" stroke="red" stroke-width="0.32" d="M593.9,-76.92C589.43,-73.81 584.55,-70.79 579.69,-68.53 520.67,-41.03 497.92,-57.25 437.69,-32.53 436.46,-32.02 435.22,-31.47 433.99,-30.88"/>
<polygon fill="red" stroke="red" stroke-width="0.32" points="435.27,-27.6 424.81,-25.94 431.95,-33.76 435.27,-27.6"/>
</g>
<!-- 397&#45;&gt;4 -->
<g id="edge31" class="edge">
<title>397&#45;&gt;4</title>
<path fill="none" stroke="green" stroke-width="0.1" d="M593.13,-77.46C576.24,-64.66 551.89,-46.21 534.62,-33.12"/>
<polygon fill="green" stroke="green" stroke-width="0.1" points="536.38,-30.07 526.3,-26.82 532.16,-35.65 536.38,-30.07"/>
</g>
<!-- 397&#45;&gt;5 -->
<g id="edge32" class="edge">
<title>397&#45;&gt;5</title>
<path fill="none" stroke="green" stroke-width="0.47" d="M594.1,-76.46C589.62,-73.37 584.68,-70.48 579.69,-68.53 456.67,-20.44 409.81,-74.85 284.69,-32.53 283.43,-32.1 282.17,-31.61 280.92,-31.07"/>
<polygon fill="green" stroke="green" stroke-width="0.47" points="282.17,-27.78 271.68,-26.29 278.95,-34 282.17,-27.78"/>
</g>
<!-- 398&#45;&gt;0 -->
<g id="edge33" class="edge">
<title>398&#45;&gt;0</title>
<path fill="none" stroke="red" stroke-width="0.66" d="M661.1,-76.44C656.63,-73.34 651.69,-70.46 646.69,-68.53 516.93,-18.27 467.63,-76.7 335.69,-32.53 334.43,-32.11 333.17,-31.62 331.91,-31.08"/>
<polygon fill="red" stroke="red" stroke-width="0.66" points="333.16,-27.79 322.67,-26.31 329.95,-34.01 333.16,-27.79"/>
</g>
<!-- 398&#45;&gt;1 -->
<g id="edge34" class="edge">
<title>398&#45;&gt;1</title>
<path fill="none" stroke="green" stroke-width="0.42" d="M661.07,-76.52C656.6,-73.42 651.67,-70.52 646.69,-68.53 538.38,-25.18 496.89,-70.79 386.69,-32.53 385.44,-32.09 384.18,-31.59 382.93,-31.05"/>
<polygon fill="green" stroke="green" stroke-width="0.42" points="384.18,-27.76 373.69,-26.24 380.95,-33.97 384.18,-27.76"/>
</g>
<!-- 398&#45;&gt;2 -->
<g id="edge35" class="edge">
<title>398&#45;&gt;2</title>
<path fill="none" stroke="red" stroke-width="0.23" stroke-dasharray="1,5" d="M660.94,-76.84C656.47,-73.72 651.58,-70.73 646.69,-68.53 581.04,-38.9 555.64,-59.07 488.69,-32.53 487.46,-32.04 486.21,-31.5 484.97,-30.92"/>
<polygon fill="red" stroke="red" stroke-width="0.23" points="486.25,-27.63 475.78,-26 482.95,-33.81 486.25,-27.63"/>
</g>
<!-- 398&#45;&gt;3 -->
<g id="edge36" class="edge">
<title>398&#45;&gt;3</title>
<path fill="none" stroke="red" stroke-width="0.22" d="M661.02,-76.64C656.55,-73.54 651.63,-70.6 646.69,-68.53 559.77,-32.07 526.21,-64.91 437.69,-32.53 436.44,-32.07 435.19,-31.56 433.94,-31"/>
<polygon fill="red" stroke="red" stroke-width="0.22" points="435.21,-27.71 424.73,-26.15 431.95,-33.9 435.21,-27.71"/>
</g>
<!-- 398&#45;&gt;4 -->
<g id="edge37" class="edge">
<title>398&#45;&gt;4</title>
<path fill="none" stroke="red" stroke-width="0.7" d="M660.68,-77.35C656.23,-74.21 651.41,-71.08 646.69,-68.53 610.79,-49.11 565.94,-33.43 538.58,-24.74"/>
<polygon fill="red" stroke="red" stroke-width="0.7" points="539.59,-21.39 529,-21.75 537.51,-28.07 539.59,-21.39"/>
</g>
<!-- 398&#45;&gt;5 -->
<g id="edge38" class="edge">
<title>398&#45;&gt;5</title>
<path fill="none" stroke="red" stroke-width="0.11" d="M661.13,-76.38C656.65,-73.29 651.7,-70.42 646.69,-68.53 495.45,-11.35 438.41,-82.62 284.69,-32.53 283.43,-32.12 282.16,-31.64 280.91,-31.11"/>
<polygon fill="red" stroke="red" stroke-width="0.11" points="282.15,-27.81 271.66,-26.35 278.95,-34.04 282.15,-27.81"/>
</g>
<!-- 399&#45;&gt;0 -->
<g id="edge39" class="edge">
<title>399&#45;&gt;0</title>
<path fill="none" stroke="green" stroke-width="0.35" d="M95.4,-76.76C99.87,-73.65 104.78,-70.68 109.69,-68.53 181.99,-36.77 209.99,-60.89 283.69,-32.53 284.92,-32.05 286.17,-31.52 287.41,-30.95"/>
<polygon fill="green" stroke="green" stroke-width="0.35" points="289.43,-33.84 296.61,-26.06 286.14,-27.66 289.43,-33.84"/>
</g>
<!-- 399&#45;&gt;1 -->
<g id="edge40" class="edge">
<title>399&#45;&gt;1</title>
<path fill="none" stroke="red" stroke-width="0.18" d="M95.33,-76.6C99.8,-73.5 104.73,-70.57 109.69,-68.53 203.31,-29.91 239.37,-66.75 334.69,-32.53 335.93,-32.08 337.19,-31.57 338.44,-31.02"/>
<polygon fill="red" stroke="red" stroke-width="0.18" points="340.43,-33.93 347.66,-26.19 337.18,-27.73 340.43,-33.93"/>
</g>
<!-- 399&#45;&gt;2 -->
<g id="edge41" class="edge">
<title>399&#45;&gt;2</title>
<path fill="none" stroke="green" stroke-width="0.17" d="M95.26,-76.42C99.74,-73.32 104.68,-70.45 109.69,-68.53 246.18,-16.1 297.91,-78.55 436.69,-32.53 437.94,-32.11 439.21,-31.63 440.46,-31.09"/>
<polygon fill="green" stroke="green" stroke-width="0.17" points="442.43,-34.02 449.71,-26.32 439.22,-27.8 442.43,-34.02"/>
</g>
<!-- 399&#45;&gt;3 -->
<g id="edge42" class="edge">
<title>399&#45;&gt;3</title>
<path fill="none" stroke="green" stroke-width="0.34" d="M95.29,-76.49C99.76,-73.4 104.7,-70.5 109.69,-68.53 224.72,-23.02 268.67,-72.65 385.69,-32.53 386.94,-32.1 388.2,-31.6 389.45,-31.06"/>
<polygon fill="green" stroke="green" stroke-width="0.34" points="391.43,-33.98 398.69,-26.27 388.2,-27.77 391.43,-33.98"/>
</g>
<!-- 399&#45;&gt;4 -->
<g id="edge43" class="edge">
<title>399&#45;&gt;4</title>
<path fill="none" stroke="red" stroke-width="0.27" d="M95.24,-76.36C99.72,-73.27 104.67,-70.41 109.69,-68.53 267.67,-9.18 327.12,-84.47 487.69,-32.53 488.95,-32.12 490.21,-31.64 491.47,-31.12"/>
<polygon fill="red" stroke="red" stroke-width="0.27" points="493.42,-34.05 500.72,-26.36 490.23,-27.82 493.42,-34.05"/>
</g>
<!-- 399&#45;&gt;5 -->
<g id="edge44" class="edge">
<title>399&#45;&gt;5</title>
<path fill="none" stroke="green" stroke-width="0.18" d="M95.62,-77.22C100.08,-74.09 104.92,-70.99 109.69,-68.53 150.76,-47.27 202.57,-31.73 233.02,-23.63"/>
<polygon fill="green" stroke="green" stroke-width="0.18" points="234.05,-26.98 242.85,-21.08 232.29,-20.2 234.05,-26.98"/>
</g>
<!-- 400&#45;&gt;0 -->
<g id="edge45" class="edge">
<title>400&#45;&gt;0</title>
<path fill="none" stroke="green" stroke-width="0.33" d="M162.61,-77.2C167.07,-74.06 171.91,-70.98 176.69,-68.53 221.33,-45.62 238.03,-53.34 283.69,-32.53 284.87,-31.99 286.06,-31.41 287.25,-30.81"/>
<polygon fill="green" stroke="green" stroke-width="0.33" points="289.13,-33.77 296.21,-25.89 285.76,-27.64 289.13,-33.77"/>
</g>
<!-- 400&#45;&gt;1 -->
<g id="edge46" class="edge">
<title>400&#45;&gt;1</title>
<path fill="none" stroke="green" stroke-width="0.46" d="M162.44,-76.84C166.9,-73.72 171.8,-70.73 176.69,-68.53 242.33,-38.9 267.73,-59.07 334.69,-32.53 335.92,-32.04 337.16,-31.5 338.4,-30.92"/>
<polygon fill="green" stroke="green" stroke-width="0.46" points="340.42,-33.81 347.59,-26 337.12,-27.63 340.42,-33.81"/>
</g>
<!-- 400&#45;&gt;2 -->
<g id="edge47" class="edge">
<title>400&#45;&gt;2</title>
<path fill="none" stroke="green" stroke-width="0.31" d="M162.3,-76.52C166.77,-73.42 171.71,-70.52 176.69,-68.53 284.99,-25.18 326.48,-70.79 436.69,-32.53 437.94,-32.09 439.2,-31.59 440.45,-31.05"/>
<polygon fill="green" stroke="green" stroke-width="0.31" points="442.43,-33.97 449.68,-26.24 439.19,-27.76 442.43,-33.97"/>
</g>
<!-- 400&#45;&gt;3 -->
<g id="edge48" class="edge">
<title>400&#45;&gt;3</title>
<path fill="none" stroke="green" stroke-width="0.32" stroke-dasharray="1,5" d="M162.35,-76.64C166.82,-73.54 171.74,-70.6 176.69,-68.53 263.61,-32.07 297.17,-64.91 385.69,-32.53 386.93,-32.07 388.18,-31.56 389.43,-31"/>
<polygon fill="green" stroke="green" stroke-width="0.32" points="391.43,-33.9 398.65,-26.15 388.17,-27.71 391.43,-33.9"/>
</g>
<!-- 400&#45;&gt;4 -->
<g id="edge49" class="edge">
<title>400&#45;&gt;4</title>
<path fill="none" stroke="green" stroke-width="0.3" d="M162.27,-76.44C166.74,-73.34 171.68,-70.46 176.69,-68.53 306.44,-18.27 355.74,-76.7 487.69,-32.53 488.94,-32.11 490.21,-31.62 491.46,-31.08"/>
<polygon fill="green" stroke="green" stroke-width="0.3" points="493.43,-34.01 500.7,-26.31 490.21,-27.79 493.43,-34.01"/>
</g>
<!-- 400&#45;&gt;5 -->
<g id="edge50" class="edge">
<title>400&#45;&gt;5</title>
<path fill="none" stroke="red" stroke-width="0.12" d="M163.43,-77.75C167.76,-74.65 172.35,-71.44 176.69,-68.53 196.5,-55.23 219.58,-40.9 236.2,-30.78"/>
<polygon fill="red" stroke="red" stroke-width="0.12" points="238.43,-33.52 245.17,-25.35 234.8,-27.53 238.43,-33.52"/>
</g>
<!-- 401&#45;&gt;0 -->
<g id="edge51" class="edge">
<title>401&#45;&gt;0</title>
<path fill="none" stroke="green" stroke-width="0.53" d="M230.25,-77.46C247.14,-64.66 271.48,-46.21 288.76,-33.12"/>
<polygon fill="green" stroke="green" stroke-width="0.53" points="291.22,-35.65 297.07,-26.82 286.99,-30.07 291.22,-35.65"/>
</g>
<!-- 401&#45;&gt;1 -->
<g id="edge52" class="edge">
<title>401&#45;&gt;1</title>
<path fill="none" stroke="red" stroke-width="0.25" d="M229.71,-77.38C234.16,-74.24 238.98,-71.1 243.69,-68.53 281.85,-47.66 295.59,-51.59 334.69,-32.53 335.85,-31.96 337.03,-31.36 338.22,-30.74"/>
<polygon fill="red" stroke="red" stroke-width="0.25" points="340.12,-33.68 347.14,-25.75 336.7,-27.57 340.12,-33.68"/>
</g>
<!-- 401&#45;&gt;2 -->
<g id="edge53" class="edge">
<title>401&#45;&gt;2</title>
<path fill="none" stroke="red" stroke-width="0.2" d="M229.37,-76.69C233.84,-73.59 238.75,-70.64 243.69,-68.53 323.92,-34.22 354.95,-63.07 436.69,-32.53 437.93,-32.06 439.18,-31.54 440.42,-30.98"/>
<polygon fill="red" stroke="red" stroke-width="0.2" points="442.43,-33.88 449.63,-26.11 439.16,-27.69 442.43,-33.88"/>
</g>
<!-- 401&#45;&gt;3 -->
<g id="edge54" class="edge">
<title>401&#45;&gt;3</title>
<path fill="none" stroke="red" stroke-width="0.59" d="M229.48,-76.92C233.94,-73.81 238.82,-70.79 243.69,-68.53 302.7,-41.03 325.46,-57.25 385.69,-32.53 386.91,-32.02 388.15,-31.47 389.38,-30.88"/>
<polygon fill="red" stroke="red" stroke-width="0.59" points="391.42,-33.76 398.56,-25.94 388.1,-27.6 391.42,-33.76"/>
</g>
<!-- 401&#45;&gt;4 -->
<g id="edge55" class="edge">
<title>401&#45;&gt;4</title>
<path fill="none" stroke="red" stroke-width="0.3" d="M229.31,-76.55C233.79,-73.45 238.72,-70.54 243.69,-68.53 345.28,-27.34 384.29,-68.95 487.69,-32.53 488.94,-32.09 490.19,-31.58 491.44,-31.04"/>
<polygon fill="red" stroke="red" stroke-width="0.3" points="493.43,-33.95 500.67,-26.22 490.19,-27.74 493.43,-33.95"/>
</g>
<!-- 401&#45;&gt;5 -->
<g id="edge56" class="edge">
<title>401&#45;&gt;5</title>
<path fill="none" stroke="red" stroke-width="0.4" d="M223.8,-71.78C230.33,-61.58 238.22,-49.25 244.84,-38.9"/>
<polygon fill="red" stroke="red" stroke-width="0.4" points="247.83,-40.73 250.27,-30.42 241.93,-36.95 247.83,-40.73"/>
</g>
<!-- 402&#45;&gt;0 -->
<g id="edge57" class="edge">
<title>402&#45;&gt;0</title>
<path fill="none" stroke="green" stroke-width="0.52" d="M287.11,-70.18C291.01,-61.03 295.54,-50.42 299.52,-41.1"/>
<polygon fill="green" stroke="green" stroke-width="0.52" points="302.85,-42.21 303.55,-31.64 296.41,-39.46 302.85,-42.21"/>
</g>
<!-- 402&#45;&gt;1 -->
<g id="edge58" class="edge">
<title>402&#45;&gt;1</title>
<path fill="none" stroke="green" stroke-width="0.19" d="M295.7,-76C309.25,-63.75 327.78,-47 341.59,-34.52"/>
<polygon fill="green" stroke="green" stroke-width="0.19" points="344.03,-37.04 349.1,-27.74 339.33,-31.84 344.03,-37.04"/>
</g>
<!-- 402&#45;&gt;2 -->
<g id="edge59" class="edge">
<title>402&#45;&gt;2</title>
<path fill="none" stroke="red" stroke-width="0.62" d="M296.53,-77.03C300.99,-73.91 305.86,-70.87 310.69,-68.53 363.1,-43.14 383.15,-55.45 436.69,-32.53 437.9,-32.01 439.14,-31.44 440.37,-30.84"/>
<polygon fill="red" stroke="red" stroke-width="0.62" points="442.42,-33.71 449.53,-25.85 439.07,-27.56 442.42,-33.71"/>
</g>
<!-- 402&#45;&gt;3 -->
<g id="edge60" class="edge">
<title>402&#45;&gt;3</title>
<path fill="none" stroke="green" stroke-width="0.31" d="M297.2,-77.38C301.54,-74.3 306.2,-71.19 310.69,-68.53 342.48,-49.65 353.05,-49.9 385.69,-32.53 386.83,-31.92 388,-31.28 389.17,-30.64"/>
<polygon fill="green" stroke="green" stroke-width="0.31" points="391.1,-33.56 398.04,-25.56 387.63,-27.49 391.1,-33.56"/>
</g>
<!-- 402&#45;&gt;4 -->
<g id="edge61" class="edge">
<title>402&#45;&gt;4</title>
<path fill="none" stroke="green" stroke-width="0.3" d="M296.4,-76.75C300.87,-73.64 305.77,-70.68 310.69,-68.53 384.24,-36.36 412.72,-61.24 487.69,-32.53 488.92,-32.05 490.17,-31.52 491.41,-30.95"/>
<polygon fill="green" stroke="green" stroke-width="0.3" points="493.43,-33.85 500.62,-26.07 490.14,-27.67 493.43,-33.85"/>
</g>
<!-- 402&#45;&gt;5 -->
<g id="edge62" class="edge">
<title>402&#45;&gt;5</title>
<path fill="none" stroke="red" stroke-width="0.7" d="M271.78,-68.95C269.64,-60.51 267.22,-50.95 265.05,-42.37"/>
<polygon fill="red" stroke="red" stroke-width="0.7" points="268.4,-41.35 262.55,-32.52 261.61,-43.07 268.4,-41.35"/>
</g>
<!-- 403&#45;&gt;0 -->
<g id="edge63" class="edge">
<title>403&#45;&gt;0</title>
<path fill="none" stroke="red" stroke-width="0.94" d="M334.56,-70.58C330.19,-61.2 325.06,-50.21 320.6,-40.65"/>
<polygon fill="red" stroke="red" stroke-width="0.94" points="323.65,-38.92 316.25,-31.34 317.31,-41.88 323.65,-38.92"/>
</g>
<!-- 403&#45;&gt;1 -->
<g id="edge64" class="edge">
<title>403&#45;&gt;1</title>
<path fill="none" stroke="green" stroke-width="0.11" d="M349.66,-68.95C351.46,-60.51 353.5,-50.95 355.33,-42.37"/>
<polygon fill="green" stroke="green" stroke-width="0.11" points="358.77,-43.03 357.43,-32.52 351.92,-41.57 358.77,-43.03"/>
</g>
<!-- 403&#45;&gt;2 -->
<g id="edge65" class="edge">
<title>403&#45;&gt;2</title>
<path fill="none" stroke="red" stroke-width="0.35" d="M364.4,-77.69C368.73,-74.6 373.33,-71.4 377.69,-68.53 389.15,-60.96 419.3,-42.94 440.41,-30.42"/>
<polygon fill="red" stroke="red" stroke-width="0.35" points="442.28,-33.38 449.1,-25.27 438.72,-27.36 442.28,-33.38"/>
</g>
<!-- 403&#45;&gt;3 -->
<g id="edge66" class="edge">
<title>403&#45;&gt;3</title>
<path fill="none" stroke="green" stroke-width="0.13" d="M360.91,-74.12C371,-62.81 383.98,-48.28 394.29,-36.74"/>
<polygon fill="green" stroke="green" stroke-width="0.13" points="397.2,-38.74 401.25,-28.95 391.98,-34.07 397.2,-38.74"/>
</g>
<!-- 403&#45;&gt;4 -->
<g id="edge67" class="edge">
<title>403&#45;&gt;4</title>
<path fill="none" stroke="green" stroke-width="0.27" d="M363.59,-77.17C368.05,-74.04 372.9,-70.96 377.69,-68.53 423.55,-45.23 440.79,-53.67 487.69,-32.53 488.87,-31.99 490.06,-31.42 491.26,-30.82"/>
<polygon fill="green" stroke="green" stroke-width="0.27" points="493.13,-33.79 500.22,-25.91 489.77,-27.65 493.13,-33.79"/>
</g>
<!-- 403&#45;&gt;5 -->
<g id="edge68" class="edge">
<title>403&#45;&gt;5</title>
<path fill="none" stroke="green" stroke-width="0.3" d="M326.45,-76.37C312.35,-64.07 292.87,-47.08 278.41,-34.47"/>
<polygon fill="green" stroke="green" stroke-width="0.3" points="280.4,-31.56 270.56,-27.62 275.8,-36.83 280.4,-31.56"/>
</g>
<!-- 404&#45;&gt;0 -->
<g id="edge69" class="edge">
<title>404&#45;&gt;0</title>
<path fill="none" stroke="green" stroke-width="0.48" d="M392.02,-77.81C374.41,-64.86 348.66,-45.92 330.66,-32.69"/>
<polygon fill="green" stroke="green" stroke-width="0.48" points="332.64,-29.8 322.51,-26.7 328.5,-35.44 332.64,-29.8"/>
</g>
<!-- 404&#45;&gt;1 -->
<g id="edge70" class="edge">
<title>404&#45;&gt;1</title>
<path fill="none" stroke="red" stroke-width="0.22" d="M398.02,-72.17C390.92,-61.73 382.25,-48.98 375.05,-38.39"/>
<polygon fill="red" stroke="red" stroke-width="0.22" points="377.93,-36.4 369.42,-30.1 372.14,-40.34 377.93,-36.4"/>
</g>
<!-- 404&#45;&gt;2 -->
<g id="edge71" class="edge">
<title>404&#45;&gt;2</title>
<path fill="none" stroke="green" stroke-width="0.29" d="M425.35,-72.17C432.45,-61.73 441.13,-48.98 448.32,-38.39"/>
<polygon fill="green" stroke="green" stroke-width="0.29" points="451.23,-40.34 453.96,-30.1 445.44,-36.4 451.23,-40.34"/>
</g>
<!-- 404&#45;&gt;3 -->
<g id="edge72" class="edge">
<title>404&#45;&gt;3</title>
<path fill="none" stroke="red" stroke-width="0.29" d="M411.69,-68.13C411.69,-60.03 411.69,-50.97 411.69,-42.77"/>
<polygon fill="red" stroke="red" stroke-width="0.29" points="415.19,-42.64 411.69,-32.64 408.19,-42.64 415.19,-42.64"/>
</g>
<!-- 404&#45;&gt;4 -->
<g id="edge73" class="edge">
<title>404&#45;&gt;4</title>
<path fill="none" stroke="green" stroke-width="0.45" d="M431.35,-77.81C448.96,-64.86 474.72,-45.92 492.71,-32.69"/>
<polygon fill="green" stroke="green" stroke-width="0.45" points="494.88,-35.44 500.86,-26.7 490.73,-29.8 494.88,-35.44"/>
</g>
<!-- 404&#45;&gt;5 -->
<g id="edge74" class="edge">
<title>404&#45;&gt;5</title>
<path fill="none" stroke="red" stroke-width="0.3" d="M392.69,-77.34C388.23,-74.2 383.41,-71.07 378.69,-68.53 339.32,-47.28 325,-51.92 284.69,-32.53 283.52,-31.97 282.33,-31.37 281.15,-30.75"/>
<polygon fill="red" stroke="red" stroke-width="0.3" points="282.66,-27.59 272.22,-25.78 279.25,-33.7 282.66,-27.59"/>
</g>
<!-- 405&#45;&gt;0 -->
<g id="edge75" class="edge">
<title>405&#45;&gt;0</title>
<path fill="none" stroke="green" stroke-width="0.25" d="M459.78,-77.17C455.32,-74.04 450.47,-70.96 445.69,-68.53 399.83,-45.23 382.58,-53.67 335.69,-32.53 334.51,-31.99 333.31,-31.42 332.11,-30.82"/>
<polygon fill="green" stroke="green" stroke-width="0.25" points="333.61,-27.65 323.16,-25.91 330.24,-33.79 333.61,-27.65"/>
</g>
<!-- 405&#45;&gt;1 -->
<g id="edge76" class="edge">
<title>405&#45;&gt;1</title>
<path fill="none" stroke="green" stroke-width="0.12" d="M458.98,-77.69C454.64,-74.6 450.05,-71.4 445.69,-68.53 434.22,-60.96 404.08,-42.94 382.96,-30.42"/>
<polygon fill="green" stroke="green" stroke-width="0.12" points="384.66,-27.36 374.27,-25.27 381.09,-33.38 384.66,-27.36"/>
</g>
<!-- 405&#45;&gt;2 -->
<g id="edge77" class="edge">
<title>405&#45;&gt;2</title>
<path fill="none" stroke="green" stroke-width="0.11" d="M473.71,-68.95C471.91,-60.51 469.87,-50.95 468.04,-42.37"/>
<polygon fill="green" stroke="green" stroke-width="0.11" points="471.45,-41.57 465.94,-32.52 464.6,-43.03 471.45,-41.57"/>
</g>
<!-- 405&#45;&gt;3 -->
<g id="edge78" class="edge">
<title>405&#45;&gt;3</title>
<path fill="none" stroke="red" stroke-width="0.48" d="M462.47,-74.12C452.37,-62.81 439.39,-48.28 429.08,-36.74"/>
<polygon fill="red" stroke="red" stroke-width="0.48" points="431.4,-34.07 422.12,-28.95 426.17,-38.74 431.4,-34.07"/>
</g>
<!-- 405&#45;&gt;4 -->
<g id="edge79" class="edge">
<title>405&#45;&gt;4</title>
<path fill="none" stroke="green" stroke-width="0.23" d="M488.81,-70.58C493.19,-61.2 498.31,-50.21 502.77,-40.65"/>
<polygon fill="green" stroke="green" stroke-width="0.23" points="506.06,-41.88 507.12,-31.34 499.72,-38.92 506.06,-41.88"/>
</g>
<!-- 405&#45;&gt;5 -->
<g id="edge80" class="edge">
<title>405&#45;&gt;5</title>
<path fill="none" stroke="green" stroke-width="0.2" d="M459.94,-76.82C455.48,-73.71 450.58,-70.72 445.69,-68.53 378.79,-38.5 352.9,-59.41 284.69,-32.53 283.45,-32.04 282.21,-31.5 280.97,-30.93"/>
<polygon fill="green" stroke="green" stroke-width="0.2" points="282.25,-27.64 271.78,-26.02 278.95,-33.81 282.25,-27.64"/>
</g>
</g>
</svg>
