<?xml version="1.0" encoding="UTF-8" standalone="no"?>
<!DOCTYPE svg PUBLIC "-//W3C//DTD SVG 1.1//EN"
 "http://www.w3.org/Graphics/SVG/1.1/DTD/svg11.dtd">
<!-- Generated by graphviz version 2.44.0 (0)
 -->
<!-- Pages: 1 -->
<svg width="1986pt" height="180pt"
 viewBox="0.00 0.00 1985.60 180.02" xmlns="http://www.w3.org/2000/svg" xmlns:xlink="http://www.w3.org/1999/xlink">
<g id="graph0" class="graph" transform="scale(1 1) rotate(0) translate(4 176.02)">
<polygon fill="white" stroke="transparent" points="-4,4 -4,-176.02 1981.6,-176.02 1981.6,4 -4,4"/>
<!-- &#45;1 -->
<g id="node1" class="node">
<title>&#45;1</title>
<polygon fill="lightgray" stroke="black" points="886.28,-172.02 860.28,-172.02 860.28,-154.02 886.28,-154.02 886.28,-172.02"/>
<text text-anchor="middle" x="873.28" y="-160.82" font-family="Times-Roman" font-size="9.00">&#45;1</text>
</g>
<!-- 0 -->
<g id="node7" class="node">
<title>0</title>
<ellipse fill="lightblue" stroke="black" cx="673.28" cy="-16.26" rx="16.03" ry="16.03"/>
<text text-anchor="middle" x="673.28" y="-14.06" font-family="Times-Roman" font-size="9.00">0</text>
</g>
<!-- &#45;1&#45;&gt;0 -->
<g id="edge121" class="edge">
<title>&#45;1&#45;&gt;0</title>
<path fill="none" stroke="red" stroke-width="0.42" d="M859.97,-156.46C857.14,-155.48 854.15,-154.6 851.28,-154.02 767.96,-137.31 145.94,-179.51 87.28,-118.02 72.09,-102.11 72.42,-84.75 87.28,-68.53 125.55,-26.76 537.68,-18.88 646.86,-17.53"/>
<polygon fill="red" stroke="red" stroke-width="0.42" points="647.06,-21.02 657.01,-17.41 646.97,-14.03 647.06,-21.02"/>
</g>
<!-- 1 -->
<g id="node8" class="node">
<title>1</title>
<ellipse fill="lightblue" stroke="black" cx="1189.28" cy="-16.26" rx="16.03" ry="16.03"/>
<text text-anchor="middle" x="1189.28" y="-14.06" font-family="Times-Roman" font-size="9.00">1</text>
</g>
<!-- &#45;1&#45;&gt;1 -->
<g id="edge122" class="edge">
<title>&#45;1&#45;&gt;1</title>
<path fill="none" stroke="green" stroke-width="0.21" d="M886.6,-156.52C889.43,-155.54 892.42,-154.64 895.28,-154.02 948.33,-142.65 1345.35,-157.78 1382.28,-118.02 1397.25,-101.91 1395.69,-85.97 1382.28,-68.53 1361.99,-42.14 1263.53,-26.49 1215.6,-20.32"/>
<polygon fill="green" stroke="green" stroke-width="0.21" points="1215.74,-16.81 1205.38,-19.05 1214.87,-23.76 1215.74,-16.81"/>
</g>
<!-- 2 -->
<g id="node9" class="node">
<title>2</title>
<ellipse fill="lightblue" stroke="black" cx="940.28" cy="-16.26" rx="16.03" ry="16.03"/>
<text text-anchor="middle" x="940.28" y="-14.06" font-family="Times-Roman" font-size="9.00">2</text>
</g>
<!-- &#45;1&#45;&gt;2 -->
<g id="edge123" class="edge">
<title>&#45;1&#45;&gt;2</title>
<path fill="none" stroke="red" stroke-width="0.16" d="M886.74,-157.03C889.56,-156.01 892.51,-154.97 895.28,-154.02 945.17,-137.01 977.17,-160.58 1008.28,-118.02 1021.26,-100.26 1018.09,-88.22 1008.28,-68.53 999.1,-50.12 979.82,-36.58 964.12,-28.05"/>
<polygon fill="red" stroke="red" stroke-width="0.16" points="965.43,-24.79 954.93,-23.39 962.27,-31.04 965.43,-24.79"/>
</g>
<!-- 3 -->
<g id="node10" class="node">
<title>3</title>
<ellipse fill="lightblue" stroke="black" cx="848.28" cy="-16.26" rx="16.03" ry="16.03"/>
<text text-anchor="middle" x="848.28" y="-14.06" font-family="Times-Roman" font-size="9.00">3</text>
</g>
<!-- &#45;1&#45;&gt;3 -->
<g id="edge124" class="edge">
<title>&#45;1&#45;&gt;3</title>
<path fill="none" stroke="green" stroke-width="0.2" d="M859.93,-156.61C857.11,-155.62 854.13,-154.7 851.28,-154.02 783.13,-137.95 584.87,-170.28 538.28,-118.02 523.64,-101.6 523.8,-85.09 538.28,-68.53 577.84,-23.3 747.93,-46.87 806.28,-32.53 812.02,-31.11 818.07,-29.19 823.73,-27.18"/>
<polygon fill="green" stroke="green" stroke-width="0.2" points="825.22,-30.36 833.36,-23.57 822.77,-23.81 825.22,-30.36"/>
</g>
<!-- 4 -->
<g id="node11" class="node">
<title>4</title>
<ellipse fill="lightblue" stroke="black" cx="781.28" cy="-16.26" rx="16.03" ry="16.03"/>
<text text-anchor="middle" x="781.28" y="-14.06" font-family="Times-Roman" font-size="9.00">4</text>
</g>
<!-- &#45;1&#45;&gt;4 -->
<g id="edge125" class="edge">
<title>&#45;1&#45;&gt;4</title>
<path fill="none" stroke="red" stroke-width="0.25" d="M859.96,-156.48C857.14,-155.51 854.14,-154.62 851.28,-154.02 784.57,-140.24 286.01,-167.58 239.28,-118.02 224.19,-102.02 224.34,-84.68 239.28,-68.53 274.01,-30.97 647.55,-39.16 698.28,-32.53 717.58,-30 739.21,-25.99 755.55,-22.71"/>
<polygon fill="red" stroke="red" stroke-width="0.25" points="756.35,-26.12 765.44,-20.68 754.95,-19.26 756.35,-26.12"/>
</g>
<!-- 5 -->
<g id="node12" class="node">
<title>5</title>
<ellipse fill="lightblue" stroke="black" cx="1104.28" cy="-16.26" rx="16.03" ry="16.03"/>
<text text-anchor="middle" x="1104.28" y="-14.06" font-family="Times-Roman" font-size="9.00">5</text>
</g>
<!-- &#45;1&#45;&gt;5 -->
<g id="edge126" class="edge">
<title>&#45;1&#45;&gt;5</title>
<path fill="none" stroke="green" stroke-width="0.13" d="M886.6,-156.52C889.43,-155.55 892.42,-154.64 895.28,-154.02 946.26,-143.01 1327.84,-156.29 1363.28,-118.02 1378.23,-101.88 1377.38,-85.41 1363.28,-68.53 1334.47,-34.04 1208.19,-42.07 1164.28,-32.53 1152.94,-30.06 1140.48,-26.96 1129.88,-24.2"/>
<polygon fill="green" stroke="green" stroke-width="0.13" points="1130.56,-20.76 1120,-21.58 1128.77,-27.52 1130.56,-20.76"/>
</g>
<!-- 136 -->
<g id="node13" class="node">
<title>136</title>
<ellipse fill="white" stroke="black" cx="1329.28" cy="-93.28" rx="25" ry="25"/>
<text text-anchor="middle" x="1329.28" y="-91.08" font-family="Times-Roman" font-size="9.00">136</text>
</g>
<!-- &#45;1&#45;&gt;136 -->
<g id="edge1" class="edge">
<title>&#45;1&#45;&gt;136</title>
<path fill="none" stroke="green" stroke-width="0.3" d="M886.61,-156.56C889.43,-155.57 892.42,-154.66 895.28,-154.02 1067.32,-115.58 1122.89,-173.3 1290.28,-118.02 1293.8,-116.86 1297.33,-115.33 1300.76,-113.61"/>
<polygon fill="green" stroke="green" stroke-width="0.3" points="1302.49,-116.65 1309.49,-108.71 1299.06,-110.55 1302.49,-116.65"/>
</g>
<!-- 137 -->
<g id="node14" class="node">
<title>137</title>
<ellipse fill="white" stroke="black" cx="639.28" cy="-93.28" rx="25" ry="25"/>
<text text-anchor="middle" x="639.28" y="-91.08" font-family="Times-Roman" font-size="9.00">137</text>
</g>
<!-- &#45;1&#45;&gt;137 -->
<g id="edge2" class="edge">
<title>&#45;1&#45;&gt;137</title>
<path fill="none" stroke="green" stroke-width="0.36" d="M859.89,-156.79C857.07,-155.79 854.1,-154.82 851.28,-154.02 773.15,-132.1 746.67,-150.46 672.28,-118.02 670.43,-117.22 668.59,-116.3 666.77,-115.3"/>
<polygon fill="green" stroke="green" stroke-width="0.36" points="668.32,-112.14 657.99,-109.81 664.61,-118.08 668.32,-112.14"/>
</g>
<!-- 138 -->
<g id="node15" class="node">
<title>138</title>
<ellipse fill="white" stroke="black" cx="706.28" cy="-93.28" rx="25" ry="25"/>
<text text-anchor="middle" x="706.28" y="-91.08" font-family="Times-Roman" font-size="9.00">138</text>
</g>
<!-- &#45;1&#45;&gt;138 -->
<g id="edge3" class="edge">
<title>&#45;1&#45;&gt;138</title>
<path fill="none" stroke="red" stroke-width="0.27" d="M860.28,-157.2C857.33,-156.14 854.2,-155.02 851.28,-154.02 801.81,-137.09 785.96,-141.58 739.28,-118.02 737.48,-117.12 735.68,-116.12 733.89,-115.06"/>
<polygon fill="red" stroke="red" stroke-width="0.27" points="735.47,-111.91 725.18,-109.4 731.66,-117.78 735.47,-111.91"/>
</g>
<!-- 139 -->
<g id="node16" class="node">
<title>139</title>
<ellipse fill="white" stroke="black" cx="773.28" cy="-93.28" rx="25" ry="25"/>
<text text-anchor="middle" x="773.28" y="-91.08" font-family="Times-Roman" font-size="9.00">139</text>
</g>
<!-- &#45;1&#45;&gt;139 -->
<g id="edge4" class="edge">
<title>&#45;1&#45;&gt;139</title>
<path fill="none" stroke="red" stroke-width="0.26" d="M860.33,-153.75C846.75,-145.03 824.85,-130.8 806.28,-118.02 804.67,-116.91 803.01,-115.77 801.35,-114.6"/>
<polygon fill="red" stroke="red" stroke-width="0.26" points="803.26,-111.66 793.08,-108.73 799.21,-117.37 803.26,-111.66"/>
</g>
<!-- 140 -->
<g id="node17" class="node">
<title>140</title>
<ellipse fill="white" stroke="black" cx="840.28" cy="-93.28" rx="25" ry="25"/>
<text text-anchor="middle" x="840.28" y="-91.08" font-family="Times-Roman" font-size="9.00">140</text>
</g>
<!-- &#45;1&#45;&gt;140 -->
<g id="edge5" class="edge">
<title>&#45;1&#45;&gt;140</title>
<path fill="none" stroke="red" stroke-width="0.16" d="M869.36,-153.99C865.85,-146.78 860.47,-135.72 855.28,-125.07"/>
<polygon fill="red" stroke="red" stroke-width="0.16" points="858.35,-123.38 850.82,-115.93 852.06,-126.45 858.35,-123.38"/>
</g>
<!-- 141 -->
<g id="node18" class="node">
<title>141</title>
<ellipse fill="white" stroke="black" cx="907.28" cy="-93.28" rx="25" ry="25"/>
<text text-anchor="middle" x="907.28" y="-91.08" font-family="Times-Roman" font-size="9.00">141</text>
</g>
<!-- &#45;1&#45;&gt;141 -->
<g id="edge6" class="edge">
<title>&#45;1&#45;&gt;141</title>
<path fill="none" stroke="green" stroke-width="0.13" d="M877.31,-153.99C880.96,-146.72 886.56,-135.55 891.94,-124.83"/>
<polygon fill="green" stroke="green" stroke-width="0.13" points="895.2,-126.14 896.56,-115.63 888.95,-123 895.2,-126.14"/>
</g>
<!-- 142 -->
<g id="node19" class="node">
<title>142</title>
<ellipse fill="white" stroke="black" cx="974.28" cy="-93.28" rx="25" ry="25"/>
<text text-anchor="middle" x="974.28" y="-91.08" font-family="Times-Roman" font-size="9.00">142</text>
</g>
<!-- &#45;1&#45;&gt;142 -->
<g id="edge7" class="edge">
<title>&#45;1&#45;&gt;142</title>
<path fill="none" stroke="green" stroke-width="0.29" d="M886.19,-153.94C899.96,-145.25 922.35,-130.95 941.28,-118.02 942.9,-116.92 944.55,-115.78 946.22,-114.61"/>
<polygon fill="green" stroke="green" stroke-width="0.29" points="948.36,-117.39 954.5,-108.75 944.31,-111.67 948.36,-117.39"/>
</g>
<!-- 143 -->
<g id="node20" class="node">
<title>143</title>
<ellipse fill="white" stroke="black" cx="572.28" cy="-93.28" rx="25" ry="25"/>
<text text-anchor="middle" x="572.28" y="-91.08" font-family="Times-Roman" font-size="9.00">143</text>
</g>
<!-- &#45;1&#45;&gt;143 -->
<g id="edge8" class="edge">
<title>&#45;1&#45;&gt;143</title>
<path fill="none" stroke="green" stroke-width="0.21" stroke-dasharray="1,5" d="M859.92,-156.68C857.1,-155.69 854.12,-154.74 851.28,-154.02 744.14,-127 707.71,-159.48 605.28,-118.02 603.41,-117.27 601.56,-116.39 599.73,-115.42"/>
<polygon fill="green" stroke="green" stroke-width="0.21" points="601.26,-112.25 590.91,-110 597.6,-118.22 601.26,-112.25"/>
</g>
<!-- 144 -->
<g id="node21" class="node">
<title>144</title>
<ellipse fill="white" stroke="black" cx="1156.28" cy="-93.28" rx="25" ry="25"/>
<text text-anchor="middle" x="1156.28" y="-91.08" font-family="Times-Roman" font-size="9.00">144</text>
</g>
<!-- &#45;1&#45;&gt;144 -->
<g id="edge9" class="edge">
<title>&#45;1&#45;&gt;144</title>
<path fill="none" stroke="red" stroke-width="0.67" d="M886.65,-156.71C889.47,-155.72 892.45,-154.76 895.28,-154.02 992.01,-128.83 1023.52,-152.66 1117.28,-118.02 1120.76,-116.74 1124.26,-115.13 1127.67,-113.36"/>
<polygon fill="red" stroke="red" stroke-width="0.67" points="1129.42,-116.39 1136.39,-108.41 1125.97,-110.31 1129.42,-116.39"/>
</g>
<!-- 145 -->
<g id="node22" class="node">
<title>145</title>
<ellipse fill="white" stroke="black" cx="1223.28" cy="-93.28" rx="25" ry="25"/>
<text text-anchor="middle" x="1223.28" y="-91.08" font-family="Times-Roman" font-size="9.00">145</text>
</g>
<!-- &#45;1&#45;&gt;145 -->
<g id="edge10" class="edge">
<title>&#45;1&#45;&gt;145</title>
<path fill="none" stroke="green" stroke-width="0.37" d="M886.63,-156.62C889.45,-155.64 892.43,-154.71 895.28,-154.02 1023.73,-123.26 1067.26,-166.11 1190.28,-118.02 1192.15,-117.29 1194.02,-116.43 1195.85,-115.47"/>
<polygon fill="green" stroke="green" stroke-width="0.37" points="1197.97,-118.28 1204.69,-110.09 1194.33,-112.3 1197.97,-118.28"/>
</g>
<!-- &#45;2 -->
<g id="node2" class="node">
<title>&#45;2</title>
<polygon fill="lightgray" stroke="black" points="842.28,-172.02 816.28,-172.02 816.28,-154.02 842.28,-154.02 842.28,-172.02"/>
<text text-anchor="middle" x="829.28" y="-160.82" font-family="Times-Roman" font-size="9.00">&#45;2</text>
</g>
<!-- &#45;2&#45;&gt;0 -->
<g id="edge127" class="edge">
<title>&#45;2&#45;&gt;0</title>
<path fill="none" stroke="green" stroke-width="0.4" d="M815.84,-156.63C812.74,-155.59 809.43,-154.63 806.28,-154.02 723.61,-138.03 107.39,-178.96 49.28,-118.02 34.1,-102.1 34.37,-84.71 49.28,-68.53 90.31,-23.99 532.68,-18.15 646.63,-17.38"/>
<polygon fill="green" stroke="green" stroke-width="0.4" points="646.92,-20.88 656.9,-17.32 646.88,-13.88 646.92,-20.88"/>
</g>
<!-- &#45;2&#45;&gt;1 -->
<g id="edge128" class="edge">
<title>&#45;2&#45;&gt;1</title>
<path fill="none" stroke="red" stroke-width="0.42" d="M842.59,-156.48C845.42,-155.5 848.41,-154.61 851.28,-154.02 923.12,-139.34 1459.86,-171.27 1510.28,-118.02 1597.3,-26.12 1307.01,-17.61 1215.82,-17.16"/>
<polygon fill="red" stroke="red" stroke-width="0.42" points="1215.73,-13.66 1205.72,-17.14 1215.71,-20.66 1215.73,-13.66"/>
</g>
<!-- &#45;2&#45;&gt;2 -->
<g id="edge129" class="edge">
<title>&#45;2&#45;&gt;2</title>
<path fill="none" stroke="red" stroke-width="0.12" d="M816.28,-156.99C813.05,-155.88 809.57,-154.81 806.28,-154.02 747.83,-140.08 577.84,-163.25 538.28,-118.02 523.8,-101.47 523.58,-84.89 538.28,-68.53 588.31,-12.83 799.43,-44.86 873.28,-32.53 887.16,-30.21 902.48,-26.79 914.96,-23.77"/>
<polygon fill="red" stroke="red" stroke-width="0.12" points="915.81,-27.16 924.68,-21.36 914.13,-20.37 915.81,-27.16"/>
</g>
<!-- &#45;2&#45;&gt;3 -->
<g id="edge130" class="edge">
<title>&#45;2&#45;&gt;3</title>
<path fill="none" stroke="red" stroke-width="0.58" d="M815.81,-156.74C812.72,-155.69 809.42,-154.71 806.28,-154.02 724.06,-136.07 485.89,-180.3 429.28,-118.02 414.48,-101.75 414.48,-84.81 429.28,-68.53 485.89,-6.25 724.18,-51.05 806.28,-32.53 812.05,-31.23 818.11,-29.34 823.77,-27.35"/>
<polygon fill="red" stroke="red" stroke-width="0.58" points="825.27,-30.52 833.39,-23.72 822.8,-23.97 825.27,-30.52"/>
</g>
<!-- &#45;2&#45;&gt;4 -->
<g id="edge131" class="edge">
<title>&#45;2&#45;&gt;4</title>
<path fill="none" stroke="green" stroke-width="0.22" d="M815.83,-156.65C812.74,-155.61 809.43,-154.65 806.28,-154.02 740.24,-140.84 247.46,-167.04 201.28,-118.02 186.19,-102.01 186.3,-84.63 201.28,-68.53 238.99,-27.99 643.36,-39.54 698.28,-32.53 717.59,-30.06 739.22,-26.04 755.56,-22.75"/>
<polygon fill="green" stroke="green" stroke-width="0.22" points="756.36,-26.15 765.45,-20.71 754.95,-19.3 756.36,-26.15"/>
</g>
<!-- &#45;2&#45;&gt;5 -->
<g id="edge132" class="edge">
<title>&#45;2&#45;&gt;5</title>
<path fill="none" stroke="red" stroke-width="0.66" d="M842.61,-156.55C845.43,-155.57 848.42,-154.66 851.28,-154.02 895.49,-144.2 1226.7,-151.43 1257.28,-118.02 1272.13,-101.8 1270.13,-86.38 1257.28,-68.53 1249.61,-57.86 1171.01,-35.3 1129.57,-24"/>
<polygon fill="red" stroke="red" stroke-width="0.66" points="1130.46,-20.62 1119.89,-21.39 1128.63,-27.38 1130.46,-20.62"/>
</g>
<!-- &#45;2&#45;&gt;136 -->
<g id="edge11" class="edge">
<title>&#45;2&#45;&gt;136</title>
<path fill="none" stroke="red" stroke-width="0.23" d="M842.61,-156.54C845.43,-155.56 848.42,-154.65 851.28,-154.02 1042.53,-112.2 1104.11,-178.56 1290.28,-118.02 1293.8,-116.88 1297.34,-115.36 1300.77,-113.64"/>
<polygon fill="red" stroke="red" stroke-width="0.23" points="1302.49,-116.69 1309.51,-108.75 1299.07,-110.58 1302.49,-116.69"/>
</g>
<!-- &#45;2&#45;&gt;137 -->
<g id="edge12" class="edge">
<title>&#45;2&#45;&gt;137</title>
<path fill="none" stroke="green" stroke-width="0.15" d="M816.2,-157.29C812.97,-156.17 809.51,-155.02 806.28,-154.02 747.34,-135.88 727.99,-144.47 672.28,-118.02 670.46,-117.16 668.64,-116.2 666.84,-115.16"/>
<polygon fill="green" stroke="green" stroke-width="0.15" points="668.4,-112.01 658.09,-109.58 664.64,-117.91 668.4,-112.01"/>
</g>
<!-- &#45;2&#45;&gt;138 -->
<g id="edge13" class="edge">
<title>&#45;2&#45;&gt;138</title>
<path fill="none" stroke="green" stroke-width="0.21" d="M816.1,-156.42C798.23,-148.65 765.55,-133.74 739.28,-118.02 737.6,-117.02 735.89,-115.95 734.19,-114.85"/>
<polygon fill="green" stroke="green" stroke-width="0.21" points="736.04,-111.88 725.8,-109.15 732.11,-117.67 736.04,-111.88"/>
</g>
<!-- &#45;2&#45;&gt;139 -->
<g id="edge14" class="edge">
<title>&#45;2&#45;&gt;139</title>
<path fill="none" stroke="green" stroke-width="0.32" d="M822.64,-153.99C815.86,-145.78 804.96,-132.61 795.13,-120.72"/>
<polygon fill="green" stroke="green" stroke-width="0.32" points="797.63,-118.24 788.56,-112.77 792.24,-122.7 797.63,-118.24"/>
</g>
<!-- &#45;2&#45;&gt;140 -->
<g id="edge15" class="edge">
<title>&#45;2&#45;&gt;140</title>
<path fill="none" stroke="green" stroke-width="0.2" d="M830.58,-153.99C831.65,-147.43 833.23,-137.7 834.81,-127.98"/>
<polygon fill="green" stroke="green" stroke-width="0.2" points="838.28,-128.43 836.43,-118 831.37,-127.31 838.28,-128.43"/>
</g>
<!-- &#45;2&#45;&gt;141 -->
<g id="edge16" class="edge">
<title>&#45;2&#45;&gt;141</title>
<path fill="none" stroke="green" stroke-width="0.55" d="M838.53,-153.99C848.95,-144.94 866.34,-129.83 881.03,-117.08"/>
<polygon fill="green" stroke="green" stroke-width="0.55" points="883.59,-119.49 888.85,-110.29 879,-114.2 883.59,-119.49"/>
</g>
<!-- &#45;2&#45;&gt;142 -->
<g id="edge17" class="edge">
<title>&#45;2&#45;&gt;142</title>
<path fill="none" stroke="green" stroke-width="0.85" d="M842.52,-157.03C870.17,-146.59 932.2,-122.97 941.28,-118.02 943.05,-117.06 944.83,-116.02 946.6,-114.93"/>
<polygon fill="green" stroke="green" stroke-width="0.85" points="948.86,-117.62 955.26,-109.18 945,-111.79 948.86,-117.62"/>
</g>
<!-- &#45;2&#45;&gt;143 -->
<g id="edge18" class="edge">
<title>&#45;2&#45;&gt;143</title>
<path fill="none" stroke="green" stroke-width="0.3" d="M816.25,-157.09C813.02,-155.98 809.55,-154.88 806.28,-154.02 718.48,-131.05 688.85,-153.41 605.28,-118.02 603.43,-117.24 601.58,-116.34 599.75,-115.35"/>
<polygon fill="green" stroke="green" stroke-width="0.3" points="601.3,-112.19 590.95,-109.89 597.6,-118.13 601.3,-112.19"/>
</g>
<!-- &#45;2&#45;&gt;144 -->
<g id="edge19" class="edge">
<title>&#45;2&#45;&gt;144</title>
<path fill="none" stroke="green" stroke-width="0.35" d="M842.63,-156.65C845.45,-155.66 848.44,-154.72 851.28,-154.02 967.11,-125.48 1004.84,-157.89 1117.28,-118.02 1120.77,-116.79 1124.29,-115.21 1127.71,-113.46"/>
<polygon fill="green" stroke="green" stroke-width="0.35" points="1129.45,-116.49 1136.43,-108.52 1126,-110.4 1129.45,-116.49"/>
</g>
<!-- &#45;2&#45;&gt;145 -->
<g id="edge20" class="edge">
<title>&#45;2&#45;&gt;145</title>
<path fill="none" stroke="green" stroke-width="0.27" d="M842.62,-156.59C845.44,-155.61 848.43,-154.68 851.28,-154.02 998.9,-119.88 1048.74,-172.08 1190.28,-118.02 1192.16,-117.31 1194.03,-116.45 1195.87,-115.51"/>
<polygon fill="green" stroke="green" stroke-width="0.27" points="1197.97,-118.32 1204.71,-110.15 1194.34,-112.34 1197.97,-118.32"/>
</g>
<!-- &#45;3 -->
<g id="node3" class="node">
<title>&#45;3</title>
<polygon fill="lightgray" stroke="black" points="797.28,-172.02 771.28,-172.02 771.28,-154.02 797.28,-154.02 797.28,-172.02"/>
<text text-anchor="middle" x="784.28" y="-160.82" font-family="Times-Roman" font-size="9.00">&#45;3</text>
</g>
<!-- &#45;3&#45;&gt;0 -->
<g id="edge133" class="edge">
<title>&#45;3&#45;&gt;0</title>
<path fill="none" stroke="red" stroke-width="0.29" d="M771.04,-161.78C671.13,-159.89 38.48,-146.82 11.28,-118.02 -3.83,-102.03 -3.66,-84.67 11.28,-68.53 55.09,-21.2 528.16,-17.44 646.54,-17.25"/>
<polygon fill="red" stroke="red" stroke-width="0.29" points="646.87,-20.75 656.87,-17.24 646.86,-13.75 646.87,-20.75"/>
</g>
<!-- &#45;3&#45;&gt;1 -->
<g id="edge134" class="edge">
<title>&#45;3&#45;&gt;1</title>
<path fill="none" stroke="red" stroke-width="0.43" d="M797.73,-156.67C800.82,-155.63 804.13,-154.66 807.28,-154.02 867.96,-141.74 1320.94,-163.19 1363.28,-118.02 1378.32,-101.97 1376.45,-86.14 1363.28,-68.53 1345.46,-44.7 1259.18,-28.12 1215.19,-21.07"/>
<polygon fill="red" stroke="red" stroke-width="0.43" points="1215.65,-17.6 1205.23,-19.52 1214.57,-24.52 1215.65,-17.6"/>
</g>
<!-- &#45;3&#45;&gt;2 -->
<g id="edge135" class="edge">
<title>&#45;3&#45;&gt;2</title>
<path fill="none" stroke="red" stroke-width="0.58" d="M771.25,-161.93C723.14,-161.27 556.56,-156.23 524.28,-118.02 510.08,-101.22 509.54,-84.86 524.28,-68.53 576.51,-10.64 796.35,-45.21 873.28,-32.53 887.17,-30.24 902.48,-26.82 914.96,-23.79"/>
<polygon fill="red" stroke="red" stroke-width="0.58" points="915.82,-27.19 924.68,-21.38 914.13,-20.39 915.82,-27.19"/>
</g>
<!-- &#45;3&#45;&gt;3 -->
<g id="edge136" class="edge">
<title>&#45;3&#45;&gt;3</title>
<path fill="none" stroke="green" stroke-width="0.46" d="M771.23,-161.48C708.33,-158.72 438.55,-145.35 414.28,-118.02 399.67,-101.58 399.45,-84.78 414.28,-68.53 473.24,-3.9 720.91,-51.62 806.28,-32.53 812.05,-31.24 818.11,-29.36 823.78,-27.36"/>
<polygon fill="green" stroke="green" stroke-width="0.46" points="825.27,-30.54 833.4,-23.73 822.8,-23.99 825.27,-30.54"/>
</g>
<!-- &#45;3&#45;&gt;4 -->
<g id="edge137" class="edge">
<title>&#45;3&#45;&gt;4</title>
<path fill="none" stroke="green" stroke-width="0.39" d="M771.18,-162.14C685.42,-162.75 206.2,-164.09 163.28,-118.02 148.28,-101.93 148.25,-84.6 163.28,-68.53 203.97,-25.01 639.16,-39.93 698.28,-32.53 717.6,-30.11 739.23,-26.09 755.56,-22.78"/>
<polygon fill="green" stroke="green" stroke-width="0.39" points="756.37,-26.19 765.45,-20.73 754.95,-19.33 756.37,-26.19"/>
</g>
<!-- &#45;3&#45;&gt;5 -->
<g id="edge138" class="edge">
<title>&#45;3&#45;&gt;5</title>
<path fill="none" stroke="green" stroke-width="0.17" d="M797.31,-157.09C800.53,-155.98 804.01,-154.88 807.28,-154.02 895.08,-131.05 928.35,-161.01 1008.28,-118.02 1043.56,-99.05 1073.42,-62.38 1090.07,-38.9"/>
<polygon fill="green" stroke="green" stroke-width="0.17" points="1092.99,-40.83 1095.79,-30.61 1087.23,-36.86 1092.99,-40.83"/>
</g>
<!-- &#45;3&#45;&gt;136 -->
<g id="edge21" class="edge">
<title>&#45;3&#45;&gt;136</title>
<path fill="none" stroke="red" stroke-width="0.31" d="M797.74,-156.7C800.83,-155.66 804.13,-154.69 807.28,-154.02 1003.62,-112.73 1060.61,-157.73 1257.28,-118.02 1270.48,-115.36 1284.64,-111.03 1296.87,-106.79"/>
<polygon fill="red" stroke="red" stroke-width="0.31" points="1298.4,-109.96 1306.63,-103.29 1296.04,-103.37 1298.4,-109.96"/>
</g>
<!-- &#45;3&#45;&gt;137 -->
<g id="edge22" class="edge">
<title>&#45;3&#45;&gt;137</title>
<path fill="none" stroke="green" stroke-width="0.67" d="M771.04,-158.02C749.59,-151.26 706.21,-136.52 672.28,-118.02 670.51,-117.06 668.73,-116.02 666.96,-114.93"/>
<polygon fill="green" stroke="green" stroke-width="0.67" points="668.56,-111.79 658.29,-109.18 664.69,-117.62 668.56,-111.79"/>
</g>
<!-- &#45;3&#45;&gt;138 -->
<g id="edge23" class="edge">
<title>&#45;3&#45;&gt;138</title>
<path fill="none" stroke="green" stroke-width="0.24" d="M775.03,-153.99C764.61,-144.94 747.21,-129.83 732.53,-117.08"/>
<polygon fill="green" stroke="green" stroke-width="0.24" points="734.56,-114.2 724.71,-110.29 729.97,-119.49 734.56,-114.2"/>
</g>
<!-- &#45;3&#45;&gt;139 -->
<g id="edge24" class="edge">
<title>&#45;3&#45;&gt;139</title>
<path fill="none" stroke="green" stroke-width="0.4" d="M782.97,-153.99C781.91,-147.43 780.33,-137.7 778.75,-127.98"/>
<polygon fill="green" stroke="green" stroke-width="0.4" points="782.19,-127.31 777.13,-118 775.28,-128.43 782.19,-127.31"/>
</g>
<!-- &#45;3&#45;&gt;140 -->
<g id="edge25" class="edge">
<title>&#45;3&#45;&gt;140</title>
<path fill="none" stroke="red" stroke-width="0.42" d="M790.92,-153.99C797.7,-145.78 808.59,-132.61 818.42,-120.72"/>
<polygon fill="red" stroke="red" stroke-width="0.42" points="821.32,-122.7 825,-112.77 815.93,-118.24 821.32,-122.7"/>
</g>
<!-- &#45;3&#45;&gt;141 -->
<g id="edge26" class="edge">
<title>&#45;3&#45;&gt;141</title>
<path fill="none" stroke="red" stroke-width="0.8" d="M797.46,-156.42C815.32,-148.65 848.01,-133.74 874.28,-118.02 875.96,-117.02 877.66,-115.95 879.37,-114.85"/>
<polygon fill="red" stroke="red" stroke-width="0.8" points="881.45,-117.67 887.75,-109.15 877.51,-111.88 881.45,-117.67"/>
</g>
<!-- &#45;3&#45;&gt;142 -->
<g id="edge27" class="edge">
<title>&#45;3&#45;&gt;142</title>
<path fill="none" stroke="red" stroke-width="0.18" d="M797.36,-157.29C800.59,-156.17 804.05,-155.02 807.28,-154.02 866.22,-135.88 885.57,-144.47 941.28,-118.02 943.1,-117.16 944.92,-116.2 946.72,-115.16"/>
<polygon fill="red" stroke="red" stroke-width="0.18" points="948.92,-117.91 955.47,-109.58 945.15,-112.01 948.92,-117.91"/>
</g>
<!-- &#45;3&#45;&gt;143 -->
<g id="edge28" class="edge">
<title>&#45;3&#45;&gt;143</title>
<path fill="none" stroke="red" stroke-width="0.31" d="M771.13,-160.54C740.72,-156.73 663.68,-144.98 605.28,-118.02 603.45,-117.18 601.62,-116.23 599.82,-115.21"/>
<polygon fill="red" stroke="red" stroke-width="0.31" points="601.38,-112.05 591.06,-109.65 597.63,-117.97 601.38,-112.05"/>
</g>
<!-- &#45;3&#45;&gt;144 -->
<g id="edge29" class="edge">
<title>&#45;3&#45;&gt;144</title>
<path fill="none" stroke="red" stroke-width="0.21" d="M797.76,-156.78C800.85,-155.74 804.15,-154.74 807.28,-154.02 942.48,-123.06 986.12,-163.14 1117.28,-118.02 1120.78,-116.82 1124.31,-115.26 1127.73,-113.52"/>
<polygon fill="red" stroke="red" stroke-width="0.21" points="1129.46,-116.56 1136.46,-108.6 1126.03,-110.46 1129.46,-116.56"/>
</g>
<!-- &#45;3&#45;&gt;145 -->
<g id="edge30" class="edge">
<title>&#45;3&#45;&gt;145</title>
<path fill="none" stroke="green" stroke-width="0.11" d="M797.74,-156.73C800.84,-155.69 804.14,-154.71 807.28,-154.02 974.34,-117.68 1030.19,-178.05 1190.28,-118.02 1192.16,-117.32 1194.04,-116.47 1195.88,-115.53"/>
<polygon fill="green" stroke="green" stroke-width="0.11" points="1197.97,-118.36 1204.73,-110.19 1194.36,-112.36 1197.97,-118.36"/>
</g>
<!-- &#45;4 -->
<g id="node4" class="node">
<title>&#45;4</title>
<polygon fill="lightgray" stroke="black" points="930.28,-172.02 904.28,-172.02 904.28,-154.02 930.28,-154.02 930.28,-172.02"/>
<text text-anchor="middle" x="917.28" y="-160.82" font-family="Times-Roman" font-size="9.00">&#45;4</text>
</g>
<!-- &#45;4&#45;&gt;0 -->
<g id="edge139" class="edge">
<title>&#45;4&#45;&gt;0</title>
<path fill="none" stroke="red" stroke-width="0.32" d="M903.94,-156.57C901.12,-155.59 898.13,-154.67 895.28,-154.02 814.49,-135.73 579.95,-179.36 524.28,-118.02 509.49,-101.73 511.5,-86.43 524.28,-68.53 552.09,-29.54 611.54,-19.9 646.35,-17.71"/>
<polygon fill="red" stroke="red" stroke-width="0.32" points="646.89,-21.18 656.72,-17.23 646.57,-14.19 646.89,-21.18"/>
</g>
<!-- &#45;4&#45;&gt;1 -->
<g id="edge140" class="edge">
<title>&#45;4&#45;&gt;1</title>
<path fill="none" stroke="green" stroke-width="0.71" d="M930.48,-160.22C944.35,-158.4 966.81,-155.62 986.28,-154.02 1027.97,-150.61 1709.42,-148.3 1738.28,-118.02 1753.46,-102.1 1753.09,-84.79 1738.28,-68.53 1702.71,-29.48 1320.47,-19.66 1215.7,-17.69"/>
<polygon fill="green" stroke="green" stroke-width="0.71" points="1215.71,-14.19 1205.65,-17.51 1215.58,-21.19 1215.71,-14.19"/>
</g>
<!-- &#45;4&#45;&gt;2 -->
<g id="edge141" class="edge">
<title>&#45;4&#45;&gt;2</title>
<path fill="none" stroke="green" stroke-width="0.21" d="M930.5,-160.41C944.38,-158.74 966.85,-156.08 986.28,-154.02 1028.13,-149.6 1334.97,-149.16 1363.28,-118.02 1378.08,-101.75 1377.87,-84.99 1363.28,-68.53 1359.95,-64.77 1058.52,-30.57 966.59,-20.22"/>
<polygon fill="green" stroke="green" stroke-width="0.21" points="966.79,-16.72 956.46,-19.08 966,-23.67 966.79,-16.72"/>
</g>
<!-- &#45;4&#45;&gt;3 -->
<g id="edge142" class="edge">
<title>&#45;4&#45;&gt;3</title>
<path fill="none" stroke="red" stroke-width="0.57" d="M930.41,-160.09C951.19,-156.26 991.03,-145.53 1008.28,-118.02 1019.97,-99.39 1021.25,-86.3 1008.28,-68.53 1000.16,-57.4 916.89,-34.78 873.8,-23.69"/>
<polygon fill="red" stroke="red" stroke-width="0.57" points="874.59,-20.27 864.03,-21.19 872.86,-27.06 874.59,-20.27"/>
</g>
<!-- &#45;4&#45;&gt;4 -->
<g id="edge143" class="edge">
<title>&#45;4&#45;&gt;4</title>
<path fill="none" stroke="red" stroke-width="0.32" d="M903.94,-156.58C901.12,-155.59 898.13,-154.68 895.28,-154.02 817.55,-136.26 591.76,-177.17 538.28,-118.02 523.52,-101.71 524.42,-85.61 538.28,-68.53 541.73,-64.27 692.94,-34.45 755.06,-22.35"/>
<polygon fill="red" stroke="red" stroke-width="0.32" points="756.08,-25.71 765.23,-20.37 754.75,-18.84 756.08,-25.71"/>
</g>
<!-- &#45;4&#45;&gt;5 -->
<g id="edge144" class="edge">
<title>&#45;4&#45;&gt;5</title>
<path fill="none" stroke="red" stroke-width="0.25" d="M930.48,-160.27C944.36,-158.48 966.82,-155.74 986.28,-154.02 1052.81,-148.18 1540.49,-166.64 1586.28,-118.02 1601.36,-102.01 1601.16,-84.73 1586.28,-68.53 1554.45,-33.87 1210.68,-40.35 1164.28,-32.53 1152.83,-30.6 1140.37,-27.58 1129.78,-24.73"/>
<polygon fill="red" stroke="red" stroke-width="0.25" points="1130.49,-21.3 1119.92,-21.99 1128.62,-28.04 1130.49,-21.3"/>
</g>
<!-- &#45;4&#45;&gt;136 -->
<g id="edge31" class="edge">
<title>&#45;4&#45;&gt;136</title>
<path fill="none" stroke="green" stroke-width="0.17" d="M930.47,-160.49C996.5,-152.79 1288.09,-118.78 1290.28,-118.02 1293.78,-116.82 1297.31,-115.26 1300.73,-113.52"/>
<polygon fill="green" stroke="green" stroke-width="0.17" points="1302.46,-116.55 1309.46,-108.6 1299.03,-110.46 1302.46,-116.55"/>
</g>
<!-- &#45;4&#45;&gt;137 -->
<g id="edge32" class="edge">
<title>&#45;4&#45;&gt;137</title>
<path fill="none" stroke="red" stroke-width="0.33" d="M903.91,-156.71C901.09,-155.72 898.11,-154.76 895.28,-154.02 798.12,-128.76 765.06,-156.37 672.28,-118.02 670.42,-117.26 668.57,-116.36 666.74,-115.39"/>
<polygon fill="red" stroke="red" stroke-width="0.33" points="668.28,-112.22 657.93,-109.95 664.6,-118.18 668.28,-112.22"/>
</g>
<!-- &#45;4&#45;&gt;138 -->
<g id="edge33" class="edge">
<title>&#45;4&#45;&gt;138</title>
<path fill="none" stroke="red" stroke-width="0.29" d="M903.87,-156.85C901.05,-155.85 898.08,-154.85 895.28,-154.02 827.05,-133.83 804.1,-147.38 739.28,-118.02 737.45,-117.19 735.61,-116.25 733.8,-115.24"/>
<polygon fill="red" stroke="red" stroke-width="0.29" points="735.36,-112.08 725.03,-109.71 731.62,-118 735.36,-112.08"/>
</g>
<!-- &#45;4&#45;&gt;139 -->
<g id="edge34" class="edge">
<title>&#45;4&#45;&gt;139</title>
<path fill="none" stroke="red" stroke-width="0.37" d="M904.15,-157.03C876.76,-146.58 815.28,-122.95 806.28,-118.02 804.51,-117.06 802.73,-116.01 800.96,-114.92"/>
<polygon fill="red" stroke="red" stroke-width="0.37" points="802.57,-111.78 792.3,-109.17 798.7,-117.62 802.57,-111.78"/>
</g>
<!-- &#45;4&#45;&gt;140 -->
<g id="edge35" class="edge">
<title>&#45;4&#45;&gt;140</title>
<path fill="none" stroke="green" stroke-width="0.31" d="M908.14,-153.99C897.86,-144.94 880.69,-129.83 866.19,-117.08"/>
<polygon fill="green" stroke="green" stroke-width="0.31" points="868.3,-114.26 858.48,-110.29 863.67,-119.52 868.3,-114.26"/>
</g>
<!-- &#45;4&#45;&gt;141 -->
<g id="edge36" class="edge">
<title>&#45;4&#45;&gt;141</title>
<path fill="none" stroke="red" stroke-width="0.67" d="M916.09,-153.99C915.13,-147.43 913.69,-137.7 912.25,-127.98"/>
<polygon fill="red" stroke="red" stroke-width="0.67" points="915.7,-127.38 910.78,-118 908.78,-128.4 915.7,-127.38"/>
</g>
<!-- &#45;4&#45;&gt;142 -->
<g id="edge37" class="edge">
<title>&#45;4&#45;&gt;142</title>
<path fill="none" stroke="green" stroke-width="1.2" d="M924.04,-153.99C930.94,-145.78 942.03,-132.61 952.03,-120.72"/>
<polygon fill="green" stroke="green" stroke-width="1.2" points="954.96,-122.67 958.72,-112.77 949.61,-118.16 954.96,-122.67"/>
</g>
<!-- &#45;4&#45;&gt;143 -->
<g id="edge38" class="edge">
<title>&#45;4&#45;&gt;143</title>
<path fill="none" stroke="green" stroke-width="0.74" d="M903.93,-156.63C901.11,-155.64 898.12,-154.71 895.28,-154.02 769.01,-123.64 726.2,-165.43 605.28,-118.02 603.41,-117.29 601.54,-116.42 599.71,-115.47"/>
<polygon fill="green" stroke="green" stroke-width="0.74" points="601.23,-112.3 590.87,-110.08 597.59,-118.28 601.23,-112.3"/>
</g>
<!-- &#45;4&#45;&gt;144 -->
<g id="edge39" class="edge">
<title>&#45;4&#45;&gt;144</title>
<path fill="none" stroke="green" stroke-width="0.22" d="M930.35,-160.66C962.93,-156.94 1049.97,-145.04 1117.28,-118.02 1120.72,-116.64 1124.2,-114.98 1127.6,-113.17"/>
<polygon fill="green" stroke="green" stroke-width="0.22" points="1129.37,-116.19 1136.3,-108.18 1125.88,-110.12 1129.37,-116.19"/>
</g>
<!-- &#45;4&#45;&gt;145 -->
<g id="edge40" class="edge">
<title>&#45;4&#45;&gt;145</title>
<path fill="none" stroke="green" stroke-width="0.37" d="M930.51,-160.26C981.8,-153.36 1165.88,-128.11 1190.28,-118.02 1192.14,-117.26 1193.99,-116.36 1195.82,-115.39"/>
<polygon fill="green" stroke="green" stroke-width="0.37" points="1197.96,-118.18 1204.63,-109.95 1194.28,-112.22 1197.96,-118.18"/>
</g>
<!-- &#45;5 -->
<g id="node5" class="node">
<title>&#45;5</title>
<polygon fill="lightgray" stroke="black" points="1134.28,-172.02 1108.28,-172.02 1108.28,-154.02 1134.28,-154.02 1134.28,-172.02"/>
<text text-anchor="middle" x="1121.28" y="-160.82" font-family="Times-Roman" font-size="9.00">&#45;5</text>
</g>
<!-- &#45;5&#45;&gt;0 -->
<g id="edge145" class="edge">
<title>&#45;5&#45;&gt;0</title>
<path fill="none" stroke="green" stroke-width="0.28" d="M1108.02,-160.8C1090.31,-159.17 1057.94,-156.25 1030.28,-154.02 975.64,-149.62 575.6,-158.17 538.28,-118.02 523.3,-101.91 525.79,-86.63 538.28,-68.53 562.6,-33.27 614.59,-22.24 646.48,-18.8"/>
<polygon fill="green" stroke="green" stroke-width="0.28" points="647.2,-22.25 656.85,-17.88 646.58,-15.28 647.2,-22.25"/>
</g>
<!-- &#45;5&#45;&gt;1 -->
<g id="edge146" class="edge">
<title>&#45;5&#45;&gt;1</title>
<path fill="none" stroke="red" stroke-width="0.23" d="M1134.39,-161.85C1239.08,-160.4 1936.35,-149.55 1966.28,-118.02 1981.42,-102.07 1981.31,-84.59 1966.28,-68.53 1913.98,-12.67 1346.47,-15.52 1215.94,-16.92"/>
<polygon fill="red" stroke="red" stroke-width="0.23" points="1215.62,-13.42 1205.66,-17.04 1215.7,-20.42 1215.62,-13.42"/>
</g>
<!-- &#45;5&#45;&gt;2 -->
<g id="edge147" class="edge">
<title>&#45;5&#45;&gt;2</title>
<path fill="none" stroke="green" stroke-width="0.26" d="M1134.37,-162.03C1215.08,-161.94 1642.92,-159.51 1681.28,-118.02 1696.21,-101.87 1696.36,-84.54 1681.28,-68.53 1635.33,-19.75 1146.05,-38.19 1079.28,-32.53 1039.98,-29.2 994.59,-23.95 966.66,-20.56"/>
<polygon fill="green" stroke="green" stroke-width="0.26" points="966.87,-17.05 956.52,-19.31 966.02,-24 966.87,-17.05"/>
</g>
<!-- &#45;5&#45;&gt;3 -->
<g id="edge148" class="edge">
<title>&#45;5&#45;&gt;3</title>
<path fill="none" stroke="red" stroke-width="0.16" d="M1134.54,-161.28C1193.73,-157.83 1431.82,-142.51 1453.28,-118.02 1467.78,-101.48 1468.31,-84.59 1453.28,-68.53 1412.35,-24.77 974.56,-41.21 915.28,-32.53 901.35,-30.49 886.04,-27.09 873.56,-24.01"/>
<polygon fill="red" stroke="red" stroke-width="0.16" points="874.41,-20.61 863.85,-21.54 872.68,-27.4 874.41,-20.61"/>
</g>
<!-- &#45;5&#45;&gt;4 -->
<g id="edge149" class="edge">
<title>&#45;5&#45;&gt;4</title>
<path fill="none" stroke="red" stroke-width="0.37" d="M1134.35,-161.94C1182.65,-161.31 1349.87,-156.36 1382.28,-118.02 1396.48,-101.23 1397.33,-84.57 1382.28,-68.53 1339.71,-23.12 884.2,-45.28 823.28,-32.53 817.49,-31.31 811.42,-29.47 805.76,-27.48"/>
<polygon fill="red" stroke="red" stroke-width="0.37" points="806.73,-24.1 796.14,-23.84 804.25,-30.65 806.73,-24.1"/>
</g>
<!-- &#45;5&#45;&gt;5 -->
<g id="edge150" class="edge">
<title>&#45;5&#45;&gt;5</title>
<path fill="none" stroke="red" stroke-width="0.17" d="M1134.44,-161.78C1233.84,-159.87 1863.22,-146.67 1890.28,-118.02 1905.38,-102.03 1905.44,-84.46 1890.28,-68.53 1834.6,-10.02 1244.15,-44.54 1164.28,-32.53 1152.8,-30.8 1140.33,-27.81 1129.74,-24.94"/>
<polygon fill="red" stroke="red" stroke-width="0.17" points="1130.47,-21.51 1119.89,-22.15 1128.56,-28.24 1130.47,-21.51"/>
</g>
<!-- &#45;5&#45;&gt;136 -->
<g id="edge41" class="edge">
<title>&#45;5&#45;&gt;136</title>
<path fill="none" stroke="red" stroke-width="0.18" d="M1134.42,-159.95C1163.42,-155.1 1234.73,-141.57 1290.28,-118.02 1293.69,-116.58 1297.16,-114.87 1300.55,-113.04"/>
<polygon fill="red" stroke="red" stroke-width="0.18" points="1302.33,-116.05 1309.23,-108.02 1298.83,-109.99 1302.33,-116.05"/>
</g>
<!-- &#45;5&#45;&gt;137 -->
<g id="edge42" class="edge">
<title>&#45;5&#45;&gt;137</title>
<path fill="none" stroke="green" stroke-width="0.25" d="M1108.18,-160.84C1035.31,-154.21 682.79,-121.99 672.28,-118.02 670.4,-117.31 668.52,-116.47 666.68,-115.52"/>
<polygon fill="green" stroke="green" stroke-width="0.25" points="668.21,-112.35 657.84,-110.18 664.59,-118.35 668.21,-112.35"/>
</g>
<!-- &#45;5&#45;&gt;138 -->
<g id="edge43" class="edge">
<title>&#45;5&#45;&gt;138</title>
<path fill="none" stroke="red" stroke-width="0.59" d="M1108.22,-160.91C1045.24,-155.51 774.46,-131.64 739.28,-118.02 737.4,-117.3 735.54,-116.44 733.7,-115.49"/>
<polygon fill="red" stroke="red" stroke-width="0.59" points="735.22,-112.32 724.86,-110.12 731.59,-118.3 735.22,-112.32"/>
</g>
<!-- &#45;5&#45;&gt;139 -->
<g id="edge44" class="edge">
<title>&#45;5&#45;&gt;139</title>
<path fill="none" stroke="red" stroke-width="0.25" d="M1107.97,-160.55C1051.69,-154.25 834.79,-129.45 806.28,-118.02 804.41,-117.28 802.55,-116.4 800.72,-115.43"/>
<polygon fill="red" stroke="red" stroke-width="0.25" points="802.25,-112.27 791.9,-110.03 798.59,-118.24 802.25,-112.27"/>
</g>
<!-- &#45;5&#45;&gt;140 -->
<g id="edge45" class="edge">
<title>&#45;5&#45;&gt;140</title>
<path fill="none" stroke="red" stroke-width="0.1" d="M1108.19,-160.48C1063.43,-155.09 916.78,-136.4 873.28,-118.02 871.43,-117.24 869.58,-116.34 867.75,-115.35"/>
<polygon fill="red" stroke="red" stroke-width="0.1" points="869.29,-112.19 858.95,-109.89 865.6,-118.14 869.29,-112.19"/>
</g>
<!-- &#45;5&#45;&gt;141 -->
<g id="edge46" class="edge">
<title>&#45;5&#45;&gt;141</title>
<path fill="none" stroke="green" stroke-width="0.4" d="M1107.98,-160.57C1077.23,-156.82 999.33,-145.19 940.28,-118.02 938.45,-117.18 936.62,-116.24 934.81,-115.22"/>
<polygon fill="green" stroke="green" stroke-width="0.4" points="936.37,-112.06 926.05,-109.66 932.63,-117.97 936.37,-112.06"/>
</g>
<!-- &#45;5&#45;&gt;142 -->
<g id="edge47" class="edge">
<title>&#45;5&#45;&gt;142</title>
<path fill="none" stroke="green" stroke-width="0.39" d="M1108.23,-156.01C1085.44,-145.51 1037.74,-123.53 1005.86,-108.83"/>
<polygon fill="green" stroke="green" stroke-width="0.39" points="1007.06,-105.53 996.52,-104.52 1004.13,-111.89 1007.06,-105.53"/>
</g>
<!-- &#45;5&#45;&gt;143 -->
<g id="edge48" class="edge">
<title>&#45;5&#45;&gt;143</title>
<path fill="none" stroke="green" stroke-width="0.3" d="M1108.02,-160.85C1090.3,-159.27 1057.93,-156.41 1030.28,-154.02 935.85,-145.87 694.18,-150.89 605.28,-118.02 603.39,-117.33 601.52,-116.49 599.67,-115.55"/>
<polygon fill="green" stroke="green" stroke-width="0.3" points="601.19,-112.38 590.82,-110.23 597.58,-118.38 601.19,-112.38"/>
</g>
<!-- &#45;5&#45;&gt;144 -->
<g id="edge49" class="edge">
<title>&#45;5&#45;&gt;144</title>
<path fill="none" stroke="green" stroke-width="0.38" d="M1125.43,-153.99C1129.18,-146.72 1134.96,-135.55 1140.49,-124.83"/>
<polygon fill="green" stroke="green" stroke-width="0.38" points="1143.77,-126.12 1145.25,-115.63 1137.55,-122.91 1143.77,-126.12"/>
</g>
<!-- &#45;5&#45;&gt;145 -->
<g id="edge50" class="edge">
<title>&#45;5&#45;&gt;145</title>
<path fill="none" stroke="green" stroke-width="0.41" d="M1134.39,-153.97C1148.38,-145.3 1171.11,-131.02 1190.28,-118.02 1191.9,-116.93 1193.56,-115.79 1195.22,-114.63"/>
<polygon fill="green" stroke="green" stroke-width="0.41" points="1197.36,-117.4 1203.51,-108.77 1193.33,-111.68 1197.36,-117.4"/>
</g>
<!-- &#45;6 -->
<g id="node6" class="node">
<title>&#45;6</title>
<polygon fill="lightgray" stroke="black" points="1021.28,-172.02 995.28,-172.02 995.28,-154.02 1021.28,-154.02 1021.28,-172.02"/>
<text text-anchor="middle" x="1008.28" y="-160.82" font-family="Times-Roman" font-size="9.00">&#45;6</text>
</g>
<!-- &#45;6&#45;&gt;0 -->
<g id="edge151" class="edge">
<title>&#45;6&#45;&gt;0</title>
<path fill="none" stroke="red" stroke-width="0.75" d="M995.07,-160.26C981.2,-158.47 958.74,-155.71 939.28,-154.02 870.09,-148.02 362.95,-168.53 315.28,-118.02 300.18,-102.03 300.87,-85.15 315.28,-68.53 358.4,-18.79 571.07,-16.14 646.6,-16.81"/>
<polygon fill="red" stroke="red" stroke-width="0.75" points="646.68,-20.31 656.72,-16.92 646.76,-13.31 646.68,-20.31"/>
</g>
<!-- &#45;6&#45;&gt;1 -->
<g id="edge152" class="edge">
<title>&#45;6&#45;&gt;1</title>
<path fill="none" stroke="green" stroke-width="0.3" d="M1021.53,-160.74C1039.24,-159.06 1071.6,-156.07 1099.28,-154.02 1165.99,-149.09 1654.41,-166.72 1700.28,-118.02 1715.36,-102.01 1715.04,-84.84 1700.28,-68.53 1667.49,-32.28 1315.95,-20.52 1215.78,-17.89"/>
<polygon fill="green" stroke="green" stroke-width="0.3" points="1215.69,-14.38 1205.6,-17.63 1215.51,-21.38 1215.69,-14.38"/>
</g>
<!-- &#45;6&#45;&gt;2 -->
<g id="edge153" class="edge">
<title>&#45;6&#45;&gt;2</title>
<path fill="none" stroke="red" stroke-width="0.15" d="M1021.53,-160.76C1039.24,-159.09 1071.6,-156.13 1099.28,-154.02 1161.78,-149.28 1619.39,-163.74 1662.28,-118.02 1677.33,-101.98 1677.35,-84.55 1662.28,-68.53 1617.82,-21.24 1143.94,-38.07 1079.28,-32.53 1039.99,-29.16 994.6,-23.92 966.66,-20.54"/>
<polygon fill="red" stroke="red" stroke-width="0.15" points="966.87,-17.04 956.52,-19.3 966.02,-23.99 966.87,-17.04"/>
</g>
<!-- &#45;6&#45;&gt;3 -->
<g id="edge154" class="edge">
<title>&#45;6&#45;&gt;3</title>
<path fill="none" stroke="red" stroke-width="0.29" d="M1021.38,-160.79C1092.65,-154.07 1430.72,-121.98 1434.28,-118.02 1449.01,-101.69 1449.29,-84.61 1434.28,-68.53 1394.84,-26.26 972.46,-40.97 915.28,-32.53 901.36,-30.47 886.04,-27.07 873.57,-24"/>
<polygon fill="red" stroke="red" stroke-width="0.29" points="874.41,-20.6 863.85,-21.53 872.68,-27.38 874.41,-20.6"/>
</g>
<!-- &#45;6&#45;&gt;4 -->
<g id="edge155" class="edge">
<title>&#45;6&#45;&gt;4</title>
<path fill="none" stroke="green" stroke-width="0.39" d="M1021.28,-160.89C1083.88,-155.4 1351.66,-131.17 1363.28,-118.02 1377.85,-101.54 1378.31,-84.59 1363.28,-68.53 1322.2,-24.61 882.12,-44.92 823.28,-32.53 817.49,-31.31 811.42,-29.46 805.76,-27.47"/>
<polygon fill="green" stroke="green" stroke-width="0.39" points="806.73,-24.09 796.14,-23.83 804.26,-30.64 806.73,-24.09"/>
</g>
<!-- &#45;6&#45;&gt;5 -->
<g id="edge156" class="edge">
<title>&#45;6&#45;&gt;5</title>
<path fill="none" stroke="green" stroke-width="0.2" d="M1021.53,-160.75C1039.24,-159.07 1071.6,-156.1 1099.28,-154.02 1163.89,-149.19 1636.9,-165.23 1681.28,-118.02 1696.35,-102 1696.28,-84.61 1681.28,-68.53 1642,-26.42 1221.13,-41.66 1164.28,-32.53 1152.82,-30.69 1140.35,-27.68 1129.76,-24.82"/>
<polygon fill="green" stroke="green" stroke-width="0.2" points="1130.48,-21.39 1119.91,-22.06 1128.59,-28.13 1130.48,-21.39"/>
</g>
<!-- &#45;6&#45;&gt;136 -->
<g id="edge51" class="edge">
<title>&#45;6&#45;&gt;136</title>
<path fill="none" stroke="red" stroke-width="0.74" d="M1021.39,-160.67C1069.95,-155.53 1239.44,-136.63 1290.28,-118.02 1293.76,-116.75 1297.27,-115.15 1300.68,-113.38"/>
<polygon fill="red" stroke="red" stroke-width="0.74" points="1302.43,-116.42 1309.4,-108.44 1298.98,-110.33 1302.43,-116.42"/>
</g>
<!-- &#45;6&#45;&gt;137 -->
<g id="edge52" class="edge">
<title>&#45;6&#45;&gt;137</title>
<path fill="none" stroke="green" stroke-width="0.16" d="M994.97,-160.47C934.46,-153.36 687.63,-124.1 672.28,-118.02 670.41,-117.28 668.55,-116.41 666.71,-115.45"/>
<polygon fill="green" stroke="green" stroke-width="0.16" points="668.24,-112.29 657.88,-110.06 664.59,-118.26 668.24,-112.29"/>
</g>
<!-- &#45;6&#45;&gt;138 -->
<g id="edge53" class="edge">
<title>&#45;6&#45;&gt;138</title>
<path fill="none" stroke="red" stroke-width="0.15" d="M995.24,-160.25C944.7,-153.32 763.32,-127.99 739.28,-118.02 737.42,-117.25 735.57,-116.36 733.74,-115.38"/>
<polygon fill="red" stroke="red" stroke-width="0.15" points="735.28,-112.22 724.93,-109.94 731.6,-118.17 735.28,-112.22"/>
</g>
<!-- &#45;6&#45;&gt;139 -->
<g id="edge54" class="edge">
<title>&#45;6&#45;&gt;139</title>
<path fill="none" stroke="red" stroke-width="0.42" d="M995.23,-159.9C956.21,-153.43 840.95,-133.47 806.28,-118.02 804.44,-117.21 802.6,-116.27 800.79,-115.27"/>
<polygon fill="red" stroke="red" stroke-width="0.42" points="802.34,-112.11 792.01,-109.75 798.62,-118.04 802.34,-112.11"/>
</g>
<!-- &#45;6&#45;&gt;140 -->
<g id="edge55" class="edge">
<title>&#45;6&#45;&gt;140</title>
<path fill="none" stroke="green" stroke-width="0.16" d="M995.1,-159.16C970.32,-153.48 915.49,-139.44 873.28,-118.02 871.48,-117.11 869.68,-116.11 867.89,-115.05"/>
<polygon fill="green" stroke="green" stroke-width="0.16" points="869.48,-111.91 859.18,-109.39 865.66,-117.77 869.48,-111.91"/>
</g>
<!-- &#45;6&#45;&gt;141 -->
<g id="edge56" class="edge">
<title>&#45;6&#45;&gt;141</title>
<path fill="none" stroke="green" stroke-width="0.43" d="M995.37,-153.94C981.6,-145.25 959.21,-130.95 940.28,-118.02 938.66,-116.92 937.01,-115.78 935.34,-114.61"/>
<polygon fill="green" stroke="green" stroke-width="0.43" points="937.24,-111.67 927.06,-108.75 933.2,-117.39 937.24,-111.67"/>
</g>
<!-- &#45;6&#45;&gt;142 -->
<g id="edge57" class="edge">
<title>&#45;6&#45;&gt;142</title>
<path fill="none" stroke="green" stroke-width="0.39" d="M1004.25,-153.99C1000.6,-146.72 994.99,-135.55 989.61,-124.83"/>
<polygon fill="green" stroke="green" stroke-width="0.39" points="992.61,-123 985,-115.63 986.35,-126.14 992.61,-123"/>
</g>
<!-- &#45;6&#45;&gt;143 -->
<g id="edge58" class="edge">
<title>&#45;6&#45;&gt;143</title>
<path fill="none" stroke="red" stroke-width="0.49" stroke-dasharray="1,5" d="M995.05,-160.46C981.17,-158.82 958.69,-156.2 939.28,-154.02 790.9,-137.43 744.72,-171.4 605.28,-118.02 603.4,-117.31 601.53,-116.45 599.69,-115.5"/>
<polygon fill="red" stroke="red" stroke-width="0.49" points="601.22,-112.33 590.85,-110.14 597.59,-118.32 601.22,-112.33"/>
</g>
<!-- &#45;6&#45;&gt;144 -->
<g id="edge59" class="edge">
<title>&#45;6&#45;&gt;144</title>
<path fill="none" stroke="green" stroke-width="0.63" d="M1021.33,-157.54C1042.09,-150.23 1083.72,-134.87 1117.28,-118.02 1120.59,-116.36 1123.99,-114.51 1127.34,-112.6"/>
<polygon fill="green" stroke="green" stroke-width="0.63" points="1129.17,-115.59 1135.99,-107.49 1125.6,-109.57 1129.17,-115.59"/>
</g>
<!-- &#45;6&#45;&gt;145 -->
<g id="edge60" class="edge">
<title>&#45;6&#45;&gt;145</title>
<path fill="none" stroke="red" stroke-width="0.42" d="M1021.65,-160.58C1052.57,-156.87 1130.9,-145.29 1190.28,-118.02 1192.11,-117.18 1193.94,-116.24 1195.75,-115.22"/>
<polygon fill="red" stroke="red" stroke-width="0.42" points="1197.93,-117.98 1204.51,-109.67 1194.19,-112.06 1197.93,-117.98"/>
</g>
<!-- 136&#45;&gt;0 -->
<g id="edge61" class="edge">
<title>136&#45;&gt;0</title>
<path fill="none" stroke="red" stroke-width="0.1" d="M1306.64,-83.21C1292.65,-78.01 1274.19,-71.87 1257.28,-68.53 1038.28,-25.23 977.73,-60.76 756.28,-32.53 736.97,-30.06 715.34,-26.05 699,-22.75"/>
<polygon fill="red" stroke="red" stroke-width="0.1" points="699.61,-19.3 689.11,-20.71 698.2,-26.16 699.61,-19.3"/>
</g>
<!-- 136&#45;&gt;1 -->
<g id="edge62" class="edge">
<title>136&#45;&gt;1</title>
<path fill="none" stroke="green" stroke-width="0.12" d="M1308.4,-79.16C1302.59,-75.61 1296.23,-71.85 1290.28,-68.53 1264.3,-54.05 1233.76,-38.79 1213.12,-28.72"/>
<polygon fill="green" stroke="green" stroke-width="0.12" points="1214.37,-25.43 1203.85,-24.22 1211.32,-31.73 1214.37,-25.43"/>
</g>
<!-- 136&#45;&gt;2 -->
<g id="edge63" class="edge">
<title>136&#45;&gt;2</title>
<path fill="none" stroke="red" stroke-width="0.15" d="M1306.2,-83.63C1292.21,-78.65 1273.9,-72.59 1257.28,-68.53 1151.13,-42.61 1021.7,-26.33 966.87,-20.12"/>
<polygon fill="red" stroke="red" stroke-width="0.15" points="966.95,-16.61 956.63,-18.98 966.18,-23.57 966.95,-16.61"/>
</g>
<!-- 136&#45;&gt;3 -->
<g id="edge64" class="edge">
<title>136&#45;&gt;3</title>
<path fill="none" stroke="green" stroke-width="0.22" d="M1306.28,-83.29C1292.31,-78.19 1274.01,-72.12 1257.28,-68.53 1107.85,-36.41 1066.06,-57.55 915.28,-32.53 901.4,-30.22 886.08,-26.8 873.6,-23.78"/>
<polygon fill="green" stroke="green" stroke-width="0.22" points="874.43,-20.38 863.88,-21.37 872.74,-27.17 874.43,-20.38"/>
</g>
<!-- 136&#45;&gt;4 -->
<g id="edge65" class="edge">
<title>136&#45;&gt;4</title>
<path fill="none" stroke="green" stroke-width="0.46" d="M1306.63,-83.28C1292.63,-78.1 1274.18,-71.96 1257.28,-68.53 1067.61,-29.94 1012.35,-73.95 823.28,-32.53 817.5,-31.26 811.44,-29.4 805.77,-27.4"/>
<polygon fill="green" stroke="green" stroke-width="0.46" points="806.75,-24.03 796.15,-23.77 804.27,-30.57 806.75,-24.03"/>
</g>
<!-- 136&#45;&gt;5 -->
<g id="edge66" class="edge">
<title>136&#45;&gt;5</title>
<path fill="none" stroke="green" stroke-width="0.71" d="M1309.21,-78.59C1303.29,-74.97 1296.68,-71.29 1290.28,-68.53 1275.41,-62.1 1176.88,-36.13 1129.56,-23.81"/>
<polygon fill="green" stroke="green" stroke-width="0.71" points="1130.32,-20.39 1119.76,-21.27 1128.56,-27.17 1130.32,-20.39"/>
</g>
<!-- 137&#45;&gt;0 -->
<g id="edge67" class="edge">
<title>137&#45;&gt;0</title>
<path fill="none" stroke="green" stroke-width="0.67" d="M649.3,-70.18C653.48,-60.94 658.35,-50.19 662.61,-40.81"/>
<polygon fill="green" stroke="green" stroke-width="0.67" points="665.82,-42.19 666.76,-31.64 659.45,-39.3 665.82,-42.19"/>
</g>
<!-- 137&#45;&gt;1 -->
<g id="edge68" class="edge">
<title>137&#45;&gt;1</title>
<path fill="none" stroke="green" stroke-width="0.31" d="M657.81,-76.3C662.29,-73.22 667.24,-70.37 672.28,-68.53 863.58,1.57 928.27,-65.76 1129.28,-32.53 1140.73,-30.63 1153.2,-27.62 1163.79,-24.77"/>
<polygon fill="green" stroke="green" stroke-width="0.31" points="1164.95,-28.08 1173.64,-22.02 1163.07,-21.34 1164.95,-28.08"/>
</g>
<!-- 137&#45;&gt;2 -->
<g id="edge69" class="edge">
<title>137&#45;&gt;2</title>
<path fill="none" stroke="green" stroke-width="0.24" d="M657.95,-76.67C662.42,-73.56 667.34,-70.62 672.28,-68.53 755.85,-33.14 784.34,-50.61 873.28,-32.53 887.07,-29.72 902.38,-26.26 914.88,-23.34"/>
<polygon fill="green" stroke="green" stroke-width="0.24" points="915.69,-26.75 924.62,-21.05 914.08,-19.94 915.69,-26.75"/>
</g>
<!-- 137&#45;&gt;3 -->
<g id="edge70" class="edge">
<title>137&#45;&gt;3</title>
<path fill="none" stroke="red" stroke-width="0.31" d="M658.09,-76.97C662.56,-73.85 667.43,-70.83 672.28,-68.53 727.99,-42.09 747.47,-51.08 806.28,-32.53 811.92,-30.75 817.93,-28.67 823.58,-26.64"/>
<polygon fill="red" stroke="red" stroke-width="0.31" points="825.05,-29.83 833.22,-23.09 822.63,-23.26 825.05,-29.83"/>
</g>
<!-- 137&#45;&gt;4 -->
<g id="edge71" class="edge">
<title>137&#45;&gt;4</title>
<path fill="none" stroke="red" stroke-width="0.21" d="M658.77,-77.35C663.12,-74.28 667.78,-71.18 672.28,-68.53 700.26,-52.07 734.38,-36.72 756.91,-27.19"/>
<polygon fill="red" stroke="red" stroke-width="0.21" points="758.5,-30.32 766.38,-23.24 755.81,-23.86 758.5,-30.32"/>
</g>
<!-- 137&#45;&gt;5 -->
<g id="edge72" class="edge">
<title>137&#45;&gt;5</title>
<path fill="none" stroke="red" stroke-width="0.55" d="M657.87,-76.45C662.34,-73.35 667.28,-70.47 672.28,-68.53 681.82,-64.81 985.4,-30.58 1077.83,-20.22"/>
<polygon fill="red" stroke="red" stroke-width="0.55" points="1078.48,-23.67 1088.02,-19.08 1077.7,-16.71 1078.48,-23.67"/>
</g>
<!-- 138&#45;&gt;0 -->
<g id="edge73" class="edge">
<title>138&#45;&gt;0</title>
<path fill="none" stroke="red" stroke-width="0.19" d="M696.56,-70.18C692.49,-60.94 687.76,-50.19 683.64,-40.81"/>
<polygon fill="red" stroke="red" stroke-width="0.19" points="686.83,-39.38 679.6,-31.64 680.43,-42.2 686.83,-39.38"/>
</g>
<!-- 138&#45;&gt;1 -->
<g id="edge74" class="edge">
<title>138&#45;&gt;1</title>
<path fill="none" stroke="red" stroke-width="0.2" d="M724.83,-76.35C729.3,-73.26 734.25,-70.41 739.28,-68.53 902.32,-7.55 957.74,-62.08 1129.28,-32.53 1140.72,-30.56 1153.19,-27.53 1163.78,-24.69"/>
<polygon fill="red" stroke="red" stroke-width="0.2" points="1164.93,-28.01 1173.63,-21.96 1163.06,-21.26 1164.93,-28.01"/>
</g>
<!-- 138&#45;&gt;2 -->
<g id="edge75" class="edge">
<title>138&#45;&gt;2</title>
<path fill="none" stroke="green" stroke-width="0.18" d="M725.07,-76.93C729.53,-73.81 734.42,-70.8 739.28,-68.53 755.24,-61.08 864.14,-35.09 914.65,-23.24"/>
<polygon fill="green" stroke="green" stroke-width="0.18" points="915.55,-26.62 924.48,-20.93 913.95,-19.8 915.55,-26.62"/>
</g>
<!-- 138&#45;&gt;3 -->
<g id="edge76" class="edge">
<title>138&#45;&gt;3</title>
<path fill="none" stroke="green" stroke-width="0.18" d="M725.77,-77.35C730.12,-74.28 734.78,-71.18 739.28,-68.53 767.26,-52.07 801.38,-36.72 823.91,-27.19"/>
<polygon fill="green" stroke="green" stroke-width="0.18" points="825.5,-30.32 833.38,-23.24 822.81,-23.86 825.5,-30.32"/>
</g>
<!-- 138&#45;&gt;4 -->
<g id="edge77" class="edge">
<title>138&#45;&gt;4</title>
<path fill="none" stroke="green" stroke-width="0.72" d="M723.3,-75.25C735.07,-63.48 750.72,-47.83 762.8,-35.75"/>
<polygon fill="green" stroke="green" stroke-width="0.72" points="765.54,-37.95 770.14,-28.4 760.59,-33 765.54,-37.95"/>
</g>
<!-- 138&#45;&gt;5 -->
<g id="edge78" class="edge">
<title>138&#45;&gt;5</title>
<path fill="none" stroke="green" stroke-width="0.17" d="M724.9,-76.53C729.37,-73.43 734.3,-70.53 739.28,-68.53 770.69,-55.92 999.44,-29.14 1077.93,-20.22"/>
<polygon fill="green" stroke="green" stroke-width="0.17" points="1078.43,-23.69 1087.97,-19.09 1077.64,-16.73 1078.43,-23.69"/>
</g>
<!-- 139&#45;&gt;0 -->
<g id="edge79" class="edge">
<title>139&#45;&gt;0</title>
<path fill="none" stroke="green" stroke-width="0.17" d="M753.52,-77.46C736.46,-64.66 711.87,-46.21 694.42,-33.12"/>
<polygon fill="green" stroke="green" stroke-width="0.17" points="696.12,-30.02 686.02,-26.82 691.92,-35.62 696.12,-30.02"/>
</g>
<!-- 139&#45;&gt;1 -->
<g id="edge80" class="edge">
<title>139&#45;&gt;1</title>
<path fill="none" stroke="red" stroke-width="0.16" d="M791.86,-76.42C796.33,-73.33 801.27,-70.45 806.28,-68.53 941.08,-16.64 987.17,-58.39 1129.28,-32.53 1140.7,-30.45 1153.16,-27.41 1163.76,-24.58"/>
<polygon fill="red" stroke="red" stroke-width="0.16" points="1164.9,-27.9 1173.62,-21.88 1163.05,-21.15 1164.9,-27.9"/>
</g>
<!-- 139&#45;&gt;2 -->
<g id="edge81" class="edge">
<title>139&#45;&gt;2</title>
<path fill="none" stroke="green" stroke-width="0.33" d="M792.28,-77.34C796.73,-74.2 801.56,-71.07 806.28,-68.53 842.44,-49.03 887.62,-33.38 915.2,-24.71"/>
<polygon fill="green" stroke="green" stroke-width="0.33" points="916.32,-28.02 924.85,-21.73 914.26,-21.33 916.32,-28.02"/>
</g>
<!-- 139&#45;&gt;3 -->
<g id="edge82" class="edge">
<title>139&#45;&gt;3</title>
<path fill="none" stroke="red" stroke-width="0.21" d="M790.3,-75.25C802.07,-63.48 817.72,-47.83 829.8,-35.75"/>
<polygon fill="red" stroke="red" stroke-width="0.21" points="832.54,-37.95 837.14,-28.4 827.59,-33 832.54,-37.95"/>
</g>
<!-- 139&#45;&gt;4 -->
<g id="edge83" class="edge">
<title>139&#45;&gt;4</title>
<path fill="none" stroke="red" stroke-width="0.13" d="M775.81,-68.54C776.69,-60.33 777.67,-51.1 778.56,-42.76"/>
<polygon fill="red" stroke="red" stroke-width="0.13" points="782.04,-43.12 779.62,-32.81 775.08,-42.38 782.04,-43.12"/>
</g>
<!-- 139&#45;&gt;5 -->
<g id="edge84" class="edge">
<title>139&#45;&gt;5</title>
<path fill="none" stroke="red" stroke-width="0.57" d="M791.94,-76.64C796.41,-73.54 801.33,-70.6 806.28,-68.53 855.59,-47.85 1015.13,-27.62 1078.24,-20.22"/>
<polygon fill="red" stroke="red" stroke-width="0.57" points="1078.65,-23.69 1088.18,-19.06 1077.84,-16.74 1078.65,-23.69"/>
</g>
<!-- 140&#45;&gt;0 -->
<g id="edge85" class="edge">
<title>140&#45;&gt;0</title>
<path fill="none" stroke="green" stroke-width="0.62" d="M821.28,-77.34C816.83,-74.2 812,-71.07 807.28,-68.53 771.12,-49.03 725.93,-33.38 698.36,-24.71"/>
<polygon fill="green" stroke="green" stroke-width="0.62" points="699.3,-21.33 688.71,-21.73 697.24,-28.02 699.3,-21.33"/>
</g>
<!-- 140&#45;&gt;1 -->
<g id="edge86" class="edge">
<title>140&#45;&gt;1</title>
<path fill="none" stroke="red" stroke-width="0.13" d="M858.9,-76.53C863.37,-73.43 868.3,-70.53 873.28,-68.53 979.91,-25.72 1016.55,-54.72 1129.28,-32.53 1140.67,-30.28 1153.13,-27.22 1163.73,-24.42"/>
<polygon fill="red" stroke="red" stroke-width="0.13" points="1164.85,-27.74 1173.59,-21.75 1163.03,-20.98 1164.85,-27.74"/>
</g>
<!-- 140&#45;&gt;2 -->
<g id="edge87" class="edge">
<title>140&#45;&gt;2</title>
<path fill="none" stroke="red" stroke-width="0.37" d="M860.04,-77.46C877.1,-64.66 901.69,-46.21 919.14,-33.12"/>
<polygon fill="red" stroke="red" stroke-width="0.37" points="921.64,-35.62 927.54,-26.82 917.44,-30.02 921.64,-35.62"/>
</g>
<!-- 140&#45;&gt;3 -->
<g id="edge88" class="edge">
<title>140&#45;&gt;3</title>
<path fill="none" stroke="green" stroke-width="0.18" d="M842.81,-68.54C843.69,-60.33 844.67,-51.1 845.56,-42.76"/>
<polygon fill="green" stroke="green" stroke-width="0.18" points="849.04,-43.12 846.62,-32.81 842.08,-42.38 849.04,-43.12"/>
</g>
<!-- 140&#45;&gt;4 -->
<g id="edge89" class="edge">
<title>140&#45;&gt;4</title>
<path fill="none" stroke="red" stroke-width="0.22" d="M825.39,-73.35C816.79,-62.42 805.98,-48.67 797.22,-37.53"/>
<polygon fill="red" stroke="red" stroke-width="0.22" points="799.91,-35.29 790.98,-29.6 794.41,-39.62 799.91,-35.29"/>
</g>
<!-- 140&#45;&gt;5 -->
<g id="edge90" class="edge">
<title>140&#45;&gt;5</title>
<path fill="none" stroke="red" stroke-width="0.24" d="M859.02,-76.82C863.49,-73.7 868.38,-70.72 873.28,-68.53 943.27,-37.18 1034.02,-24.29 1078.03,-19.61"/>
<polygon fill="red" stroke="red" stroke-width="0.24" points="1078.58,-23.07 1088.18,-18.59 1077.88,-16.11 1078.58,-23.07"/>
</g>
<!-- 141&#45;&gt;0 -->
<g id="edge91" class="edge">
<title>141&#45;&gt;0</title>
<path fill="none" stroke="green" stroke-width="0.29" d="M888.49,-76.93C884.02,-73.81 879.14,-70.8 874.28,-68.53 843.02,-53.93 745.98,-32.47 699.12,-22.6"/>
<polygon fill="green" stroke="green" stroke-width="0.29" points="699.64,-19.13 689.14,-20.51 698.21,-25.98 699.64,-19.13"/>
</g>
<!-- 141&#45;&gt;1 -->
<g id="edge92" class="edge">
<title>141&#45;&gt;1</title>
<path fill="none" stroke="green" stroke-width="0.11" d="M925.97,-76.71C930.44,-73.6 935.35,-70.65 940.28,-68.53 1018.84,-34.75 1045.8,-51.08 1129.28,-32.53 1140.61,-30.01 1153.06,-26.9 1163.67,-24.14"/>
<polygon fill="green" stroke="green" stroke-width="0.11" points="1164.77,-27.47 1173.55,-21.54 1162.99,-20.7 1164.77,-27.47"/>
</g>
<!-- 141&#45;&gt;2 -->
<g id="edge93" class="edge">
<title>141&#45;&gt;2</title>
<path fill="none" stroke="red" stroke-width="0.34" d="M917,-70.18C921.07,-60.94 925.79,-50.19 929.92,-40.81"/>
<polygon fill="red" stroke="red" stroke-width="0.34" points="933.13,-42.2 933.96,-31.64 926.72,-39.38 933.13,-42.2"/>
</g>
<!-- 141&#45;&gt;3 -->
<g id="edge94" class="edge">
<title>141&#45;&gt;3</title>
<path fill="none" stroke="green" stroke-width="0.23" d="M892.39,-73.35C883.79,-62.42 872.98,-48.67 864.22,-37.53"/>
<polygon fill="green" stroke="green" stroke-width="0.23" points="866.91,-35.29 857.98,-29.6 861.41,-39.62 866.91,-35.29"/>
</g>
<!-- 141&#45;&gt;4 -->
<g id="edge95" class="edge">
<title>141&#45;&gt;4</title>
<path fill="none" stroke="red" stroke-width="0.13" d="M887.65,-77.57C883.31,-74.48 878.69,-71.32 874.28,-68.53 851.19,-53.93 823.67,-39.06 804.59,-29.12"/>
<polygon fill="red" stroke="red" stroke-width="0.13" points="805.94,-25.87 795.45,-24.4 802.73,-32.09 805.94,-25.87"/>
</g>
<!-- 141&#45;&gt;5 -->
<g id="edge96" class="edge">
<title>141&#45;&gt;5</title>
<path fill="none" stroke="green" stroke-width="0.16" d="M926.16,-77.12C930.62,-73.99 935.48,-70.92 940.28,-68.53 986.51,-45.43 1045.28,-30.11 1078.44,-22.63"/>
<polygon fill="green" stroke="green" stroke-width="0.16" points="1079.24,-26.04 1088.26,-20.47 1077.74,-19.2 1079.24,-26.04"/>
</g>
<!-- 142&#45;&gt;0 -->
<g id="edge97" class="edge">
<title>142&#45;&gt;0</title>
<path fill="none" stroke="green" stroke-width="0.11" d="M955.59,-76.71C951.12,-73.6 946.21,-70.65 941.28,-68.53 935.68,-66.12 765.5,-34.38 699.29,-22.08"/>
<polygon fill="green" stroke="green" stroke-width="0.11" points="699.71,-18.6 689.24,-20.22 698.43,-25.49 699.71,-18.6"/>
</g>
<!-- 142&#45;&gt;1 -->
<g id="edge98" class="edge">
<title>142&#45;&gt;1</title>
<path fill="none" stroke="green" stroke-width="0.32" d="M997.7,-84.11C1038.53,-69.86 1122.4,-40.6 1164.3,-25.98"/>
<polygon fill="green" stroke="green" stroke-width="0.32" points="1165.71,-29.19 1174,-22.59 1163.41,-22.58 1165.71,-29.19"/>
</g>
<!-- 142&#45;&gt;2 -->
<g id="edge99" class="edge">
<title>142&#45;&gt;2</title>
<path fill="none" stroke="red" stroke-width="0.19" d="M964.26,-70.18C960.07,-60.94 955.2,-50.19 950.95,-40.81"/>
<polygon fill="red" stroke="red" stroke-width="0.19" points="954.11,-39.3 946.79,-31.64 947.73,-42.19 954.11,-39.3"/>
</g>
<!-- 142&#45;&gt;3 -->
<g id="edge100" class="edge">
<title>142&#45;&gt;3</title>
<path fill="none" stroke="red" stroke-width="0.12" d="M954.65,-77.57C950.31,-74.48 945.69,-71.32 941.28,-68.53 918.19,-53.93 890.67,-39.06 871.59,-29.12"/>
<polygon fill="red" stroke="red" stroke-width="0.12" points="872.94,-25.87 862.45,-24.4 869.73,-32.09 872.94,-25.87"/>
</g>
<!-- 142&#45;&gt;4 -->
<g id="edge101" class="edge">
<title>142&#45;&gt;4</title>
<path fill="none" stroke="green" stroke-width="0.21" d="M955.41,-77.1C950.95,-73.97 946.09,-70.91 941.28,-68.53 892.15,-44.19 875.29,-49.9 823.28,-32.53 817.67,-30.65 811.67,-28.54 806.02,-26.5"/>
<polygon fill="green" stroke="green" stroke-width="0.21" points="806.97,-23.12 796.38,-22.97 804.56,-29.69 806.97,-23.12"/>
</g>
<!-- 142&#45;&gt;5 -->
<g id="edge102" class="edge">
<title>142&#45;&gt;5</title>
<path fill="none" stroke="green" stroke-width="0.44" d="M995.46,-80.06C1019.08,-66.42 1057.17,-44.44 1081.45,-30.44"/>
<polygon fill="green" stroke="green" stroke-width="0.44" points="1083.41,-33.35 1090.32,-25.32 1079.91,-27.28 1083.41,-33.35"/>
</g>
<!-- 143&#45;&gt;0 -->
<g id="edge103" class="edge">
<title>143&#45;&gt;0</title>
<path fill="none" stroke="red" stroke-width="0.17" d="M591.75,-77.81C609.19,-64.86 634.69,-45.92 652.51,-32.69"/>
<polygon fill="red" stroke="red" stroke-width="0.17" points="654.64,-35.47 660.58,-26.7 650.46,-29.85 654.64,-35.47"/>
</g>
<!-- 143&#45;&gt;1 -->
<g id="edge104" class="edge">
<title>143&#45;&gt;1</title>
<path fill="none" stroke="red" stroke-width="0.42" d="M590.8,-76.26C595.27,-73.18 600.23,-70.35 605.28,-68.53 715.07,-28.92 1014.03,-50.99 1129.28,-32.53 1140.74,-30.69 1153.21,-27.69 1163.8,-24.83"/>
<polygon fill="red" stroke="red" stroke-width="0.42" points="1164.97,-28.14 1173.65,-22.07 1163.08,-21.4 1164.97,-28.14"/>
</g>
<!-- 143&#45;&gt;2 -->
<g id="edge105" class="edge">
<title>143&#45;&gt;2</title>
<path fill="none" stroke="red" stroke-width="0.15" d="M590.89,-76.5C595.36,-73.41 600.29,-70.51 605.28,-68.53 716.95,-24.1 755.01,-53.9 873.28,-32.53 887.13,-30.02 902.44,-26.59 914.93,-23.61"/>
<polygon fill="red" stroke="red" stroke-width="0.15" points="915.77,-27.01 924.66,-21.24 914.11,-20.2 915.77,-27.01"/>
</g>
<!-- 143&#45;&gt;3 -->
<g id="edge106" class="edge">
<title>143&#45;&gt;3</title>
<path fill="none" stroke="green" stroke-width="0.23" d="M590.95,-76.67C595.42,-73.56 600.34,-70.62 605.28,-68.53 688.85,-33.14 718.64,-56.11 806.28,-32.53 811.99,-30.99 818.03,-29.01 823.69,-27"/>
<polygon fill="green" stroke="green" stroke-width="0.23" points="825.17,-30.18 833.32,-23.41 822.72,-23.62 825.17,-30.18"/>
</g>
<!-- 143&#45;&gt;4 -->
<g id="edge107" class="edge">
<title>143&#45;&gt;4</title>
<path fill="none" stroke="green" stroke-width="0.1" d="M591.13,-77.05C595.59,-73.93 600.46,-70.88 605.28,-68.53 655.57,-44.01 719.8,-28.99 755.1,-21.98"/>
<polygon fill="green" stroke="green" stroke-width="0.1" points="755.92,-25.39 765.08,-20.07 754.59,-18.52 755.92,-25.39"/>
</g>
<!-- 143&#45;&gt;5 -->
<g id="edge108" class="edge">
<title>143&#45;&gt;5</title>
<path fill="none" stroke="red" stroke-width="0.61" d="M590.84,-76.38C595.31,-73.29 600.26,-70.43 605.28,-68.53 755.67,-11.62 805.36,-49.3 965.28,-32.53 1004.5,-28.41 1049.91,-23.37 1077.87,-20.24"/>
<polygon fill="red" stroke="red" stroke-width="0.61" points="1078.47,-23.69 1088.02,-19.1 1077.69,-16.74 1078.47,-23.69"/>
</g>
<!-- 144&#45;&gt;0 -->
<g id="edge109" class="edge">
<title>144&#45;&gt;0</title>
<path fill="none" stroke="red" stroke-width="0.11" d="M1131.94,-88.24C1102.63,-83.41 1051.89,-75.14 1008.28,-68.53 896.42,-51.56 867.94,-50.76 756.28,-32.53 737.06,-29.39 715.43,-25.4 699.07,-22.28"/>
<polygon fill="red" stroke="red" stroke-width="0.11" points="699.64,-18.83 689.16,-20.38 698.32,-25.7 699.64,-18.83"/>
</g>
<!-- 144&#45;&gt;1 -->
<g id="edge110" class="edge">
<title>144&#45;&gt;1</title>
<path fill="none" stroke="green" stroke-width="0.22" d="M1166,-70.18C1170.07,-60.94 1174.79,-50.19 1178.92,-40.81"/>
<polygon fill="green" stroke="green" stroke-width="0.22" points="1182.13,-42.2 1182.96,-31.64 1175.72,-39.38 1182.13,-42.2"/>
</g>
<!-- 144&#45;&gt;2 -->
<g id="edge111" class="edge">
<title>144&#45;&gt;2</title>
<path fill="none" stroke="green" stroke-width="0.31" d="M1133.16,-84.25C1092.14,-70 1006.98,-40.43 964.91,-25.82"/>
<polygon fill="green" stroke="green" stroke-width="0.31" points="966.02,-22.5 955.42,-22.52 963.72,-29.11 966.02,-22.5"/>
</g>
<!-- 144&#45;&gt;3 -->
<g id="edge112" class="edge">
<title>144&#45;&gt;3</title>
<path fill="none" stroke="red" stroke-width="0.44" d="M1132.83,-84.49C1117.65,-79.59 1097.41,-73.3 1079.28,-68.53 1007.12,-49.51 988.1,-48.81 915.28,-32.53 901.54,-29.46 886.24,-25.97 873.73,-23.11"/>
<polygon fill="red" stroke="red" stroke-width="0.44" points="874.5,-19.7 863.97,-20.88 872.94,-26.52 874.5,-19.7"/>
</g>
<!-- 144&#45;&gt;4 -->
<g id="edge113" class="edge">
<title>144&#45;&gt;4</title>
<path fill="none" stroke="red" stroke-width="0.29" stroke-dasharray="1,5" d="M1131.77,-88.44C1065.23,-77.93 882.26,-48.41 823.28,-32.53 817.57,-30.99 811.53,-29.01 805.87,-27"/>
<polygon fill="red" stroke="red" stroke-width="0.29" points="806.83,-23.62 796.24,-23.41 804.39,-30.18 806.83,-23.62"/>
</g>
<!-- 144&#45;&gt;5 -->
<g id="edge114" class="edge">
<title>144&#45;&gt;5</title>
<path fill="none" stroke="green" stroke-width="0.12" d="M1142.62,-72.57C1135.38,-62.12 1126.47,-49.28 1119.07,-38.6"/>
<polygon fill="green" stroke="green" stroke-width="0.12" points="1121.85,-36.46 1113.27,-30.24 1116.09,-40.45 1121.85,-36.46"/>
</g>
<!-- 145&#45;&gt;0 -->
<g id="edge115" class="edge">
<title>145&#45;&gt;0</title>
<path fill="none" stroke="red" stroke-width="0.28" d="M1204.74,-76.32C1200.27,-73.23 1195.31,-70.38 1190.28,-68.53 1008.68,-1.56 948.14,-58.06 756.28,-32.53 736.98,-29.96 715.35,-25.94 699.01,-22.68"/>
<polygon fill="red" stroke="red" stroke-width="0.28" points="699.61,-19.23 689.12,-20.66 698.22,-26.09 699.61,-19.23"/>
</g>
<!-- 145&#45;&gt;1 -->
<g id="edge116" class="edge">
<title>145&#45;&gt;1</title>
<path fill="none" stroke="red" stroke-width="0.16" d="M1213.26,-70.18C1209.07,-60.94 1204.2,-50.19 1199.95,-40.81"/>
<polygon fill="red" stroke="red" stroke-width="0.16" points="1203.11,-39.3 1195.79,-31.64 1196.73,-42.19 1203.11,-39.3"/>
</g>
<!-- 145&#45;&gt;2 -->
<g id="edge117" class="edge">
<title>145&#45;&gt;2</title>
<path fill="none" stroke="green" stroke-width="0.11" d="M1204.56,-76.76C1200.1,-73.65 1195.19,-70.68 1190.28,-68.53 1113.45,-34.86 1013.53,-22.95 966.69,-19.03"/>
<polygon fill="green" stroke="green" stroke-width="0.11" points="966.73,-15.53 956.49,-18.24 966.18,-22.5 966.73,-15.53"/>
</g>
<!-- 145&#45;&gt;3 -->
<g id="edge118" class="edge">
<title>145&#45;&gt;3</title>
<path fill="none" stroke="green" stroke-width="0.11" d="M1204.68,-76.49C1200.2,-73.4 1195.27,-70.5 1190.28,-68.53 1075.67,-23.15 1036.62,-54.24 915.28,-32.53 901.43,-30.05 886.11,-26.61 873.63,-23.63"/>
<polygon fill="green" stroke="green" stroke-width="0.11" points="874.44,-20.22 863.9,-21.26 872.79,-27.03 874.44,-20.22"/>
</g>
<!-- 145&#45;&gt;4 -->
<g id="edge119" class="edge">
<title>145&#45;&gt;4</title>
<path fill="none" stroke="red" stroke-width="0.5" d="M1204.72,-76.37C1200.25,-73.28 1195.3,-70.42 1190.28,-68.53 1036.94,-10.67 983.11,-68.8 823.28,-32.53 817.51,-31.22 811.45,-29.33 805.79,-27.33"/>
<polygon fill="red" stroke="red" stroke-width="0.5" points="806.76,-23.96 796.17,-23.71 804.29,-30.51 806.76,-23.96"/>
</g>
<!-- 145&#45;&gt;5 -->
<g id="edge120" class="edge">
<title>145&#45;&gt;5</title>
<path fill="none" stroke="red" stroke-width="0.31" d="M1203.58,-77.68C1199.25,-74.59 1194.65,-71.39 1190.28,-68.53 1169.31,-54.77 1144.66,-40.24 1127.14,-30.17"/>
<polygon fill="red" stroke="red" stroke-width="0.31" points="1128.63,-26.99 1118.21,-25.07 1125.16,-33.07 1128.63,-26.99"/>
</g>
</g>
</svg>
