<?xml version="1.0" encoding="UTF-8" standalone="no"?>
<!DOCTYPE svg PUBLIC "-//W3C//DTD SVG 1.1//EN"
 "http://www.w3.org/Graphics/SVG/1.1/DTD/svg11.dtd">
<!-- Generated by graphviz version 2.43.0 (0)
 -->
<!-- Title: %3 Pages: 1 -->
<svg width="1072pt" height="180pt"
 viewBox="0.00 0.00 1072.06 180.02" xmlns="http://www.w3.org/2000/svg" xmlns:xlink="http://www.w3.org/1999/xlink">
<g id="graph0" class="graph" transform="scale(1 1) rotate(0) translate(4 176.02)">
<title>%3</title>
<polygon fill="white" stroke="transparent" points="-4,4 -4,-176.02 1068.06,-176.02 1068.06,4 -4,4"/>
<!-- &#45;1 -->
<g id="node1" class="node">
<title>&#45;1</title>
<polygon fill="lightgray" stroke="black" points="567.02,-172.02 541.02,-172.02 541.02,-154.02 567.02,-154.02 567.02,-172.02"/>
<text text-anchor="middle" x="554.02" y="-160.82" font-family="Times,serif" font-size="9.00">&#45;1</text>
</g>
<!-- 0 -->
<g id="node3" class="node">
<title>0</title>
<ellipse fill="lightblue" stroke="black" cx="441.02" cy="-16.26" rx="16.03" ry="16.03"/>
<text text-anchor="middle" x="441.02" y="-14.06" font-family="Times,serif" font-size="9.00">0</text>
</g>
<!-- &#45;1&#45;&gt;0 -->
<g id="edge80" class="edge">
<title>&#45;1&#45;&gt;0</title>
<path fill="none" stroke="red" stroke-width="0.44" d="M540.94,-158.41C534.91,-156.86 527.64,-155.15 521.02,-154.02 441.1,-140.44 212.43,-178.11 158.02,-118.02 143.25,-101.72 143.58,-85.13 158.02,-68.53 195.86,-25.01 360.55,-51.49 415.02,-32.53 416.27,-32.09 417.53,-31.59 418.78,-31.05"/>
<polygon fill="red" stroke="red" stroke-width="0.44" points="420.76,-33.96 428.01,-26.24 417.52,-27.75 420.76,-33.96"/>
</g>
<!-- 1 -->
<g id="node4" class="node">
<title>1</title>
<ellipse fill="lightblue" stroke="black" cx="543.02" cy="-16.26" rx="16.03" ry="16.03"/>
<text text-anchor="middle" x="543.02" y="-14.06" font-family="Times,serif" font-size="9.00">1</text>
</g>
<!-- &#45;1&#45;&gt;1 -->
<g id="edge81" class="edge">
<title>&#45;1&#45;&gt;1</title>
<path fill="none" stroke="green" stroke-width="0.14" d="M567.24,-161.39C628.55,-158.3 883.09,-144 906.02,-118.02 920.58,-101.53 920.72,-84.89 906.02,-68.53 855.67,-12.51 640.54,-56.12 569.02,-32.53 567.76,-32.11 566.49,-31.63 565.24,-31.1"/>
<polygon fill="green" stroke="green" stroke-width="0.14" points="566.48,-27.8 555.99,-26.33 563.28,-34.02 566.48,-27.8"/>
</g>
<!-- 2 -->
<g id="node5" class="node">
<title>2</title>
<ellipse fill="lightblue" stroke="black" cx="390.02" cy="-16.26" rx="16.03" ry="16.03"/>
<text text-anchor="middle" x="390.02" y="-14.06" font-family="Times,serif" font-size="9.00">2</text>
</g>
<!-- &#45;1&#45;&gt;2 -->
<g id="edge82" class="edge">
<title>&#45;1&#45;&gt;2</title>
<path fill="none" stroke="red" stroke-width="0.22" d="M540.94,-158.4C534.91,-156.85 527.64,-155.14 521.02,-154.02 479.41,-147.04 171.4,-149.24 143.02,-118.02 128.22,-101.75 129.13,-85.59 143.02,-68.53 170.61,-34.62 305.37,-22.42 363.38,-18.69"/>
<polygon fill="red" stroke="red" stroke-width="0.22" points="363.82,-22.17 373.59,-18.07 363.4,-15.19 363.82,-22.17"/>
</g>
<!-- 3 -->
<g id="node6" class="node">
<title>3</title>
<ellipse fill="lightblue" stroke="black" cx="492.02" cy="-16.26" rx="16.03" ry="16.03"/>
<text text-anchor="middle" x="492.02" y="-14.06" font-family="Times,serif" font-size="9.00">3</text>
</g>
<!-- &#45;1&#45;&gt;3 -->
<g id="edge83" class="edge">
<title>&#45;1&#45;&gt;3</title>
<path fill="none" stroke="green" stroke-width="0.16" d="M567.26,-161.32C609.11,-158.79 737.21,-148.63 762.02,-118.02 775.87,-100.93 776.39,-85.18 762.02,-68.53 726.2,-27.04 569.71,-50.74 518.02,-32.53 516.77,-32.09 515.51,-31.58 514.26,-31.04"/>
<polygon fill="green" stroke="green" stroke-width="0.16" points="515.52,-27.74 505.03,-26.22 512.28,-33.95 515.52,-27.74"/>
</g>
<!-- 4 -->
<g id="node7" class="node">
<title>4</title>
<ellipse fill="lightblue" stroke="black" cx="594.02" cy="-16.26" rx="16.03" ry="16.03"/>
<text text-anchor="middle" x="594.02" y="-14.06" font-family="Times,serif" font-size="9.00">4</text>
</g>
<!-- &#45;1&#45;&gt;4 -->
<g id="edge84" class="edge">
<title>&#45;1&#45;&gt;4</title>
<path fill="none" stroke="red" stroke-width="0.2" d="M567.08,-161.68C635.32,-159.76 948.84,-149.28 977.02,-118.02 991.75,-101.68 991.77,-84.84 977.02,-68.53 923.54,-9.38 695.81,-57.28 620.02,-32.53 618.76,-32.12 617.49,-31.64 616.24,-31.11"/>
<polygon fill="red" stroke="red" stroke-width="0.2" points="617.48,-27.81 606.99,-26.35 614.28,-34.04 617.48,-27.81"/>
</g>
<!-- 5 -->
<g id="node8" class="node">
<title>5</title>
<ellipse fill="lightblue" stroke="black" cx="645.02" cy="-16.26" rx="16.03" ry="16.03"/>
<text text-anchor="middle" x="645.02" y="-14.06" font-family="Times,serif" font-size="9.00">5</text>
</g>
<!-- &#45;1&#45;&gt;5 -->
<g id="edge85" class="edge">
<title>&#45;1&#45;&gt;5</title>
<path fill="none" stroke="green" stroke-width="0.84" d="M567.37,-161.9C643.37,-161.03 1019.24,-154.9 1053.02,-118.02 1067.87,-101.8 1067.57,-85.02 1053.02,-68.53 1027.65,-39.78 757.58,-23.18 671.33,-18.58"/>
<polygon fill="green" stroke="green" stroke-width="0.84" points="671.48,-15.09 661.31,-18.06 671.11,-22.08 671.48,-15.09"/>
</g>
<!-- 496 -->
<g id="node9" class="node">
<title>496</title>
<ellipse fill="white" stroke="black" cx="661.02" cy="-93.28" rx="25" ry="25"/>
<text text-anchor="middle" x="661.02" y="-91.08" font-family="Times,serif" font-size="9.00">496</text>
</g>
<!-- &#45;1&#45;&gt;496 -->
<g id="edge1" class="edge">
<title>&#45;1&#45;&gt;496</title>
<path fill="none" stroke="green" stroke-width="0.27" d="M567.06,-154.73C582.01,-146.26 607.14,-131.71 628.02,-118.02 629.65,-116.95 631.33,-115.83 633,-114.69"/>
<polygon fill="green" stroke="green" stroke-width="0.27" points="635.13,-117.47 641.32,-108.88 631.12,-111.74 635.13,-117.47"/>
</g>
<!-- 497 -->
<g id="node10" class="node">
<title>497</title>
<ellipse fill="white" stroke="black" cx="728.02" cy="-93.28" rx="25" ry="25"/>
<text text-anchor="middle" x="728.02" y="-91.08" font-family="Times,serif" font-size="9.00">497</text>
</g>
<!-- &#45;1&#45;&gt;497 -->
<g id="edge2" class="edge">
<title>&#45;1&#45;&gt;497</title>
<path fill="none" stroke="red" stroke-width="0.33" d="M567.39,-159.36C593.08,-153.92 650.74,-140.14 695.02,-118.02 696.82,-117.13 698.62,-116.13 700.42,-115.08"/>
<polygon fill="red" stroke="red" stroke-width="0.33" points="702.64,-117.81 709.13,-109.43 698.84,-111.93 702.64,-117.81"/>
</g>
<!-- 498 -->
<g id="node11" class="node">
<title>498</title>
<ellipse fill="white" stroke="black" cx="872.02" cy="-93.28" rx="25" ry="25"/>
<text text-anchor="middle" x="872.02" y="-91.08" font-family="Times,serif" font-size="9.00">498</text>
</g>
<!-- &#45;1&#45;&gt;498 -->
<g id="edge3" class="edge">
<title>&#45;1&#45;&gt;498</title>
<path fill="none" stroke="red" stroke-width="0.53" d="M567.26,-161.75C608.13,-160.51 735.42,-153.84 833.02,-118.02 836.5,-116.75 840,-115.15 843.42,-113.38"/>
<polygon fill="red" stroke="red" stroke-width="0.53" points="845.17,-116.41 852.13,-108.43 841.71,-110.32 845.17,-116.41"/>
</g>
<!-- 499 -->
<g id="node12" class="node">
<title>499</title>
<ellipse fill="white" stroke="black" cx="259.02" cy="-93.28" rx="25" ry="25"/>
<text text-anchor="middle" x="259.02" y="-91.08" font-family="Times,serif" font-size="9.00">499</text>
</g>
<!-- &#45;1&#45;&gt;499 -->
<g id="edge4" class="edge">
<title>&#45;1&#45;&gt;499</title>
<path fill="none" stroke="green" stroke-width="0.28" d="M540.9,-158.58C534.87,-157.07 527.61,-155.34 521.02,-154.02 419.98,-133.87 387.31,-157.18 292.02,-118.02 290.16,-117.26 288.3,-116.37 286.47,-115.4"/>
<polygon fill="green" stroke="green" stroke-width="0.28" points="288.01,-112.23 277.66,-109.96 284.34,-118.19 288.01,-112.23"/>
</g>
<!-- 500 -->
<g id="node13" class="node">
<title>500</title>
<ellipse fill="white" stroke="black" cx="326.02" cy="-93.28" rx="25" ry="25"/>
<text text-anchor="middle" x="326.02" y="-91.08" font-family="Times,serif" font-size="9.00">500</text>
</g>
<!-- &#45;1&#45;&gt;500 -->
<g id="edge5" class="edge">
<title>&#45;1&#45;&gt;500</title>
<path fill="none" stroke="red" stroke-width="0.42" d="M540.86,-158.77C534.82,-157.3 527.56,-155.55 521.02,-154.02 449.17,-137.34 426.33,-148.18 359.02,-118.02 357.18,-117.2 355.34,-116.27 353.53,-115.26"/>
<polygon fill="red" stroke="red" stroke-width="0.42" points="355.08,-112.1 344.76,-109.73 351.36,-118.02 355.08,-112.1"/>
</g>
<!-- 501 -->
<g id="node14" class="node">
<title>501</title>
<ellipse fill="white" stroke="black" cx="393.02" cy="-93.28" rx="25" ry="25"/>
<text text-anchor="middle" x="393.02" y="-91.08" font-family="Times,serif" font-size="9.00">501</text>
</g>
<!-- &#45;1&#45;&gt;501 -->
<g id="edge6" class="edge">
<title>&#45;1&#45;&gt;501</title>
<path fill="none" stroke="green" stroke-width="0.47" d="M540.79,-158.85C516.97,-152.84 465.67,-138.54 426.02,-118.02 424.23,-117.1 422.43,-116.09 420.65,-115.02"/>
<polygon fill="green" stroke="green" stroke-width="0.47" points="422.24,-111.87 411.95,-109.33 418.41,-117.73 422.24,-111.87"/>
</g>
<!-- 502 -->
<g id="node15" class="node">
<title>502</title>
<ellipse fill="white" stroke="black" cx="527.02" cy="-93.28" rx="25" ry="25"/>
<text text-anchor="middle" x="527.02" y="-91.08" font-family="Times,serif" font-size="9.00">502</text>
</g>
<!-- &#45;1&#45;&gt;502 -->
<g id="edge7" class="edge">
<title>&#45;1&#45;&gt;502</title>
<path fill="none" stroke="green" stroke-width="0.16" d="M550.81,-153.99C548.01,-146.96 543.75,-136.27 539.61,-125.87"/>
<polygon fill="green" stroke="green" stroke-width="0.16" points="542.83,-124.51 535.88,-116.51 536.33,-127.1 542.83,-124.51"/>
</g>
<!-- 503 -->
<g id="node16" class="node">
<title>503</title>
<ellipse fill="white" stroke="black" cx="460.02" cy="-93.28" rx="25" ry="25"/>
<text text-anchor="middle" x="460.02" y="-91.08" font-family="Times,serif" font-size="9.00">503</text>
</g>
<!-- &#45;1&#45;&gt;503 -->
<g id="edge8" class="edge">
<title>&#45;1&#45;&gt;503</title>
<path fill="none" stroke="green" stroke-width="0.47" d="M542.86,-153.99C529.49,-144.35 506.58,-127.84 488.24,-114.62"/>
<polygon fill="green" stroke="green" stroke-width="0.47" points="489.82,-111.44 479.66,-108.44 485.73,-117.12 489.82,-111.44"/>
</g>
<!-- 504 -->
<g id="node17" class="node">
<title>504</title>
<ellipse fill="white" stroke="black" cx="594.02" cy="-93.28" rx="25" ry="25"/>
<text text-anchor="middle" x="594.02" y="-91.08" font-family="Times,serif" font-size="9.00">504</text>
</g>
<!-- &#45;1&#45;&gt;504 -->
<g id="edge9" class="edge">
<title>&#45;1&#45;&gt;504</title>
<path fill="none" stroke="red" stroke-width="0.45" d="M558.76,-153.99C563.2,-146.46 570.12,-134.76 576.65,-123.69"/>
<polygon fill="red" stroke="red" stroke-width="0.45" points="579.68,-125.44 581.75,-115.05 573.65,-121.88 579.68,-125.44"/>
</g>
<!-- 505 -->
<g id="node18" class="node">
<title>505</title>
<ellipse fill="white" stroke="black" cx="192.02" cy="-93.28" rx="25" ry="25"/>
<text text-anchor="middle" x="192.02" y="-91.08" font-family="Times,serif" font-size="9.00">505</text>
</g>
<!-- &#45;1&#45;&gt;505 -->
<g id="edge10" class="edge">
<title>&#45;1&#45;&gt;505</title>
<path fill="none" stroke="green" stroke-width="0.3" d="M540.92,-158.48C534.9,-156.94 527.63,-155.22 521.02,-154.02 390.62,-130.37 348.46,-166.25 225.02,-118.02 223.14,-117.29 221.28,-116.43 219.44,-115.47"/>
<polygon fill="green" stroke="green" stroke-width="0.3" points="220.97,-112.3 210.61,-110.09 217.33,-118.28 220.97,-112.3"/>
</g>
<!-- &#45;2 -->
<g id="node2" class="node">
<title>&#45;2</title>
<polygon fill="lightgray" stroke="black" points="512.02,-172.02 486.02,-172.02 486.02,-154.02 512.02,-154.02 512.02,-172.02"/>
<text text-anchor="middle" x="499.02" y="-160.82" font-family="Times,serif" font-size="9.00">&#45;2</text>
</g>
<!-- &#45;2&#45;&gt;0 -->
<g id="edge86" class="edge">
<title>&#45;2&#45;&gt;0</title>
<path fill="none" stroke="green" stroke-width="0.2" d="M485.85,-161.64C418.48,-159.55 114.37,-148.45 87.02,-118.02 72.31,-101.66 72.33,-84.91 87.02,-68.53 135.96,-13.92 345.41,-55.6 415.02,-32.53 416.27,-32.11 417.54,-31.63 418.79,-31.09"/>
<polygon fill="green" stroke="green" stroke-width="0.2" points="420.76,-34.02 428.04,-26.32 417.55,-27.8 420.76,-34.02"/>
</g>
<!-- &#45;2&#45;&gt;1 -->
<g id="edge87" class="edge">
<title>&#45;2&#45;&gt;1</title>
<path fill="none" stroke="red" stroke-width="0.44" d="M512.13,-158.58C518.16,-157.07 525.43,-155.34 532.02,-154.02 582.75,-143.92 728.38,-157.33 762.02,-118.02 776.32,-101.31 776.07,-85.45 762.02,-68.53 706.26,-1.41 650.75,-63.07 569.02,-32.53 567.78,-32.06 566.53,-31.54 565.28,-30.98"/>
<polygon fill="red" stroke="red" stroke-width="0.44" points="566.55,-27.69 556.07,-26.11 563.28,-33.88 566.55,-27.69"/>
</g>
<!-- &#45;2&#45;&gt;2 -->
<g id="edge88" class="edge">
<title>&#45;2&#45;&gt;2</title>
<path fill="none" stroke="red" stroke-width="0.13" d="M485.96,-161.87C411.63,-160.87 44.01,-154.13 11.02,-118.02 -3.82,-101.79 -3.46,-85.09 11.02,-68.53 34.28,-41.91 281.06,-24.1 363.43,-18.87"/>
<polygon fill="red" stroke="red" stroke-width="0.13" points="363.73,-22.36 373.49,-18.24 363.29,-15.37 363.73,-22.36"/>
</g>
<!-- &#45;2&#45;&gt;3 -->
<g id="edge89" class="edge">
<title>&#45;2&#45;&gt;3</title>
<path fill="none" stroke="green" stroke-width="0.17" d="M485.8,-161.33C425.71,-158.05 180.14,-143.18 158.02,-118.02 143.49,-101.5 143.39,-84.96 158.02,-68.53 203.83,-17.05 400.68,-54.44 466.02,-32.53 467.27,-32.11 468.53,-31.62 469.79,-31.08"/>
<polygon fill="green" stroke="green" stroke-width="0.17" points="471.76,-34.01 479.03,-26.3 468.54,-27.79 471.76,-34.01"/>
</g>
<!-- &#45;2&#45;&gt;4 -->
<g id="edge90" class="edge">
<title>&#45;2&#45;&gt;4</title>
<path fill="none" stroke="green" stroke-width="0.38" d="M512.1,-158.4C518.12,-156.85 525.39,-155.14 532.02,-154.02 573.18,-147.09 877.95,-148.93 906.02,-118.02 920.81,-101.74 920.57,-85.03 906.02,-68.53 863.64,-20.49 680.66,-53.16 620.02,-32.53 618.76,-32.1 617.5,-31.61 616.25,-31.07"/>
<polygon fill="green" stroke="green" stroke-width="0.38" points="617.5,-27.77 607.01,-26.28 614.28,-33.99 617.5,-27.77"/>
</g>
<!-- &#45;2&#45;&gt;5 -->
<g id="edge91" class="edge">
<title>&#45;2&#45;&gt;5</title>
<path fill="none" stroke="red" stroke-width="0.34" d="M512.09,-158.39C518.12,-156.83 525.39,-155.13 532.02,-154.02 575.27,-146.84 895.46,-150.41 925.02,-118.02 999.34,-36.58 755.14,-20.9 671.85,-17.94"/>
<polygon fill="red" stroke="red" stroke-width="0.34" points="671.75,-14.43 661.65,-17.61 671.53,-21.43 671.75,-14.43"/>
</g>
<!-- &#45;2&#45;&gt;496 -->
<g id="edge11" class="edge">
<title>&#45;2&#45;&gt;496</title>
<path fill="none" stroke="red" stroke-width="0.62" d="M512.35,-158.87C536.36,-152.89 588.06,-138.64 628.02,-118.02 629.8,-117.1 631.6,-116.09 633.39,-115.02"/>
<polygon fill="red" stroke="red" stroke-width="0.62" points="635.63,-117.74 642.09,-109.34 631.8,-111.88 635.63,-117.74"/>
</g>
<!-- &#45;2&#45;&gt;497 -->
<g id="edge12" class="edge">
<title>&#45;2&#45;&gt;497</title>
<path fill="none" stroke="green" stroke-width="0.3" d="M512.17,-158.77C518.21,-157.29 525.47,-155.54 532.02,-154.02 604.29,-137.28 627.29,-148.32 695.02,-118.02 696.85,-117.2 698.69,-116.27 700.5,-115.26"/>
<polygon fill="green" stroke="green" stroke-width="0.3" points="702.68,-118.03 709.28,-109.74 698.95,-112.1 702.68,-118.03"/>
</g>
<!-- &#45;2&#45;&gt;498 -->
<g id="edge13" class="edge">
<title>&#45;2&#45;&gt;498</title>
<path fill="none" stroke="green" stroke-width="0.4" d="M512.12,-158.52C518.15,-157 525.41,-155.27 532.02,-154.02 647.94,-132.1 679.82,-143.49 795.02,-118.02 809.6,-114.8 825.42,-110.13 838.9,-105.79"/>
<polygon fill="green" stroke="green" stroke-width="0.4" points="840.29,-109.01 848.69,-102.56 838.1,-102.37 840.29,-109.01"/>
</g>
<!-- &#45;2&#45;&gt;499 -->
<g id="edge14" class="edge">
<title>&#45;2&#45;&gt;499</title>
<path fill="none" stroke="red" stroke-width="0.19" d="M485.84,-161.11C452.2,-158.38 360.89,-148.5 292.02,-118.02 290.18,-117.21 288.34,-116.28 286.52,-115.28"/>
<polygon fill="red" stroke="red" stroke-width="0.19" points="288.07,-112.12 277.74,-109.77 284.35,-118.05 288.07,-112.12"/>
</g>
<!-- &#45;2&#45;&gt;500 -->
<g id="edge15" class="edge">
<title>&#45;2&#45;&gt;500</title>
<path fill="none" stroke="green" stroke-width="0.24" d="M485.74,-159.34C460.23,-153.87 402.99,-140.04 359.02,-118.02 357.22,-117.12 355.41,-116.13 353.62,-115.07"/>
<polygon fill="green" stroke="green" stroke-width="0.24" points="355.2,-111.93 344.9,-109.43 351.39,-117.8 355.2,-111.93"/>
</g>
<!-- &#45;2&#45;&gt;501 -->
<g id="edge16" class="edge">
<title>&#45;2&#45;&gt;501</title>
<path fill="none" stroke="green" stroke-width="0.68" d="M485.9,-154.55C471.13,-146.04 446.52,-131.55 426.02,-118.02 424.38,-116.95 422.71,-115.82 421.04,-114.68"/>
<polygon fill="green" stroke="green" stroke-width="0.68" points="422.93,-111.73 412.73,-108.86 418.91,-117.46 422.93,-111.73"/>
</g>
<!-- &#45;2&#45;&gt;502 -->
<g id="edge17" class="edge">
<title>&#45;2&#45;&gt;502</title>
<path fill="none" stroke="red" stroke-width="0.14" d="M502.34,-153.99C505.24,-146.96 509.66,-136.27 513.96,-125.87"/>
<polygon fill="red" stroke="red" stroke-width="0.14" points="517.24,-127.09 517.83,-116.51 510.77,-124.42 517.24,-127.09"/>
</g>
<!-- &#45;2&#45;&gt;503 -->
<g id="edge18" class="edge">
<title>&#45;2&#45;&gt;503</title>
<path fill="none" stroke="red" stroke-width="0.98" d="M494.39,-153.99C490.1,-146.54 483.45,-134.99 477.14,-124.02"/>
<polygon fill="red" stroke="red" stroke-width="0.98" points="480,-121.97 471.98,-115.05 473.93,-125.46 480,-121.97"/>
</g>
<!-- &#45;2&#45;&gt;504 -->
<g id="edge19" class="edge">
<title>&#45;2&#45;&gt;504</title>
<path fill="none" stroke="red" stroke-width="0.43" d="M510.46,-153.94C522.91,-145.13 543.41,-130.61 561.02,-118.02 562.61,-116.89 564.25,-115.71 565.9,-114.53"/>
<polygon fill="red" stroke="red" stroke-width="0.43" points="568.06,-117.29 574.14,-108.61 563.97,-111.6 568.06,-117.29"/>
</g>
<!-- &#45;2&#45;&gt;505 -->
<g id="edge20" class="edge">
<title>&#45;2&#45;&gt;505</title>
<path fill="none" stroke="green" stroke-width="0.12" d="M485.88,-162.03C445.38,-161.6 319.43,-157 225.02,-118.02 223.16,-117.26 221.3,-116.37 219.48,-115.39"/>
<polygon fill="green" stroke="green" stroke-width="0.12" points="221.01,-112.22 210.66,-109.95 217.34,-118.18 221.01,-112.22"/>
</g>
<!-- 496&#45;&gt;0 -->
<g id="edge21" class="edge">
<title>496&#45;&gt;0</title>
<path fill="none" stroke="green" stroke-width="0.18" d="M642.27,-76.82C637.81,-73.71 632.91,-70.72 628.02,-68.53 561.12,-38.5 535.23,-59.41 467.02,-32.53 465.78,-32.04 464.54,-31.5 463.3,-30.93"/>
<polygon fill="green" stroke="green" stroke-width="0.18" points="464.58,-27.64 454.11,-26.02 461.28,-33.81 464.58,-27.64"/>
</g>
<!-- 496&#45;&gt;1 -->
<g id="edge22" class="edge">
<title>496&#45;&gt;1</title>
<path fill="none" stroke="green" stroke-width="0.27" d="M641.31,-77.69C636.97,-74.6 632.38,-71.4 628.02,-68.53 616.55,-60.96 586.41,-42.94 565.29,-30.42"/>
<polygon fill="green" stroke="green" stroke-width="0.27" points="566.99,-27.36 556.6,-25.27 563.42,-33.38 566.99,-27.36"/>
</g>
<!-- 496&#45;&gt;2 -->
<g id="edge23" class="edge">
<title>496&#45;&gt;2</title>
<path fill="none" stroke="green" stroke-width="0.23" d="M642.36,-76.63C637.88,-73.53 632.97,-70.6 628.02,-68.53 539.84,-31.66 505.81,-65.26 416.02,-32.53 414.77,-32.07 413.52,-31.56 412.27,-31"/>
<polygon fill="green" stroke="green" stroke-width="0.23" points="413.53,-27.71 403.05,-26.16 410.28,-33.91 413.53,-27.71"/>
</g>
<!-- 496&#45;&gt;3 -->
<g id="edge24" class="edge">
<title>496&#45;&gt;3</title>
<path fill="none" stroke="green" stroke-width="0.37" d="M642.11,-77.17C637.65,-74.04 632.8,-70.96 628.02,-68.53 582.15,-45.23 564.91,-53.67 518.02,-32.53 516.84,-31.99 515.64,-31.42 514.44,-30.82"/>
<polygon fill="green" stroke="green" stroke-width="0.37" points="515.94,-27.65 505.49,-25.91 512.57,-33.79 515.94,-27.65"/>
</g>
<!-- 496&#45;&gt;4 -->
<g id="edge25" class="edge">
<title>496&#45;&gt;4</title>
<path fill="none" stroke="red" stroke-width="0.65" d="M644.8,-74.12C634.7,-62.81 621.72,-48.28 611.41,-36.74"/>
<polygon fill="red" stroke="red" stroke-width="0.65" points="613.72,-34.07 604.45,-28.95 608.5,-38.74 613.72,-34.07"/>
</g>
<!-- 496&#45;&gt;5 -->
<g id="edge26" class="edge">
<title>496&#45;&gt;5</title>
<path fill="none" stroke="red" stroke-width="0.36" d="M656.04,-68.95C654.24,-60.51 652.2,-50.95 650.37,-42.37"/>
<polygon fill="red" stroke="red" stroke-width="0.36" points="653.78,-41.57 648.27,-32.52 646.93,-43.03 653.78,-41.57"/>
</g>
<!-- 497&#45;&gt;0 -->
<g id="edge27" class="edge">
<title>497&#45;&gt;0</title>
<path fill="none" stroke="green" stroke-width="0.23" d="M709.37,-76.59C704.9,-73.49 699.98,-70.57 695.02,-68.53 600.14,-29.5 563.6,-67.1 467.02,-32.53 465.77,-32.08 464.51,-31.57 463.27,-31.02"/>
<polygon fill="green" stroke="green" stroke-width="0.23" points="464.52,-27.73 454.04,-26.19 461.28,-33.93 464.52,-27.73"/>
</g>
<!-- 497&#45;&gt;1 -->
<g id="edge28" class="edge">
<title>497&#45;&gt;1</title>
<path fill="none" stroke="green" stroke-width="0.24" d="M709.18,-77.03C704.71,-73.91 699.84,-70.87 695.02,-68.53 642.6,-43.14 622.56,-55.45 569.02,-32.53 567.8,-32.01 566.57,-31.44 565.34,-30.84"/>
<polygon fill="green" stroke="green" stroke-width="0.24" points="566.63,-27.56 556.17,-25.85 563.29,-33.71 566.63,-27.56"/>
</g>
<!-- 497&#45;&gt;2 -->
<g id="edge29" class="edge">
<title>497&#45;&gt;2</title>
<path fill="none" stroke="red" stroke-width="0.74" d="M709.42,-76.49C704.94,-73.39 700.01,-70.5 695.02,-68.53 578.73,-22.61 534.31,-72.99 416.02,-32.53 414.76,-32.1 413.5,-31.6 412.25,-31.06"/>
<polygon fill="red" stroke="red" stroke-width="0.74" points="413.5,-27.77 403.01,-26.27 410.28,-33.98 413.5,-27.77"/>
</g>
<!-- 497&#45;&gt;3 -->
<g id="edge30" class="edge">
<title>497&#45;&gt;3</title>
<path fill="none" stroke="red" stroke-width="0.43" d="M709.3,-76.75C704.84,-73.64 699.93,-70.68 695.02,-68.53 621.46,-36.36 592.98,-61.24 518.02,-32.53 516.78,-32.05 515.53,-31.52 514.29,-30.95"/>
<polygon fill="red" stroke="red" stroke-width="0.43" points="515.56,-27.67 505.09,-26.07 512.28,-33.85 515.56,-27.67"/>
</g>
<!-- 497&#45;&gt;4 -->
<g id="edge31" class="edge">
<title>497&#45;&gt;4</title>
<path fill="none" stroke="green" stroke-width="0.25" d="M708.51,-77.38C704.16,-74.3 699.51,-71.19 695.02,-68.53 663.22,-49.65 652.65,-49.9 620.02,-32.53 618.87,-31.92 617.71,-31.28 616.54,-30.64"/>
<polygon fill="green" stroke="green" stroke-width="0.25" points="618.08,-27.49 607.66,-25.56 614.6,-33.56 618.08,-27.49"/>
</g>
<!-- 497&#45;&gt;5 -->
<g id="edge32" class="edge">
<title>497&#45;&gt;5</title>
<path fill="none" stroke="red" stroke-width="0.21" d="M710.01,-76C696.46,-63.75 677.92,-47 664.11,-34.52"/>
<polygon fill="red" stroke="red" stroke-width="0.21" points="666.37,-31.84 656.6,-27.74 661.68,-37.04 666.37,-31.84"/>
</g>
<!-- 498&#45;&gt;0 -->
<g id="edge33" class="edge">
<title>498&#45;&gt;0</title>
<path fill="none" stroke="red" stroke-width="0.29" d="M848.1,-86.45C825.9,-81.21 791.88,-73.56 762.02,-68.53 631.77,-46.57 592.14,-74.85 467.02,-32.53 465.76,-32.1 464.5,-31.61 463.25,-31.07"/>
<polygon fill="red" stroke="red" stroke-width="0.29" points="464.5,-27.78 454.01,-26.29 461.28,-34 464.5,-27.78"/>
</g>
<!-- 498&#45;&gt;1 -->
<g id="edge34" class="edge">
<title>498&#45;&gt;1</title>
<path fill="none" stroke="red" stroke-width="0.31" d="M852.17,-78.03C846.25,-74.4 839.59,-70.86 833.02,-68.53 721.43,-28.9 680.92,-71.26 569.02,-32.53 567.76,-32.09 566.51,-31.6 565.25,-31.05"/>
<polygon fill="red" stroke="red" stroke-width="0.31" points="566.51,-27.76 556.02,-26.25 563.28,-33.97 566.51,-27.76"/>
</g>
<!-- 498&#45;&gt;2 -->
<g id="edge35" class="edge">
<title>498&#45;&gt;2</title>
<path fill="none" stroke="red" stroke-width="0.14" d="M848.13,-86.33C825.94,-81 791.92,-73.3 762.02,-68.53 609.34,-44.18 562.91,-80.76 416.02,-32.53 414.76,-32.11 413.49,-31.63 412.24,-31.1"/>
<polygon fill="red" stroke="red" stroke-width="0.14" points="413.48,-27.81 402.99,-26.34 410.28,-34.03 413.48,-27.81"/>
</g>
<!-- 498&#45;&gt;3 -->
<g id="edge36" class="edge">
<title>498&#45;&gt;3</title>
<path fill="none" stroke="red" stroke-width="0.68" d="M852.2,-77.94C846.29,-74.3 839.62,-70.79 833.02,-68.53 699.73,-22.81 651.67,-77.16 518.02,-32.53 516.76,-32.11 515.5,-31.62 514.24,-31.09"/>
<polygon fill="red" stroke="red" stroke-width="0.68" points="515.49,-27.79 505,-26.31 512.28,-34.01 515.49,-27.79"/>
</g>
<!-- 498&#45;&gt;4 -->
<g id="edge37" class="edge">
<title>498&#45;&gt;4</title>
<path fill="none" stroke="green" stroke-width="0.24" stroke-dasharray="1,5" d="M852.12,-78.17C846.2,-74.53 839.55,-70.97 833.02,-68.53 743.07,-34.96 710.23,-65.37 620.02,-32.53 618.77,-32.07 617.52,-31.56 616.27,-31"/>
<polygon fill="green" stroke="green" stroke-width="0.24" points="617.53,-27.71 607.05,-26.16 614.28,-33.91 617.53,-27.71"/>
</g>
<!-- 498&#45;&gt;5 -->
<g id="edge38" class="edge">
<title>498&#45;&gt;5</title>
<path fill="none" stroke="green" stroke-width="0.17" d="M851.95,-78.58C846.03,-74.95 839.42,-71.29 833.02,-68.53 777.59,-44.66 708.12,-29.16 671.09,-21.96"/>
<polygon fill="green" stroke="green" stroke-width="0.17" points="671.6,-18.49 661.12,-20.07 670.29,-25.37 671.6,-18.49"/>
</g>
<!-- 499&#45;&gt;0 -->
<g id="edge39" class="edge">
<title>499&#45;&gt;0</title>
<path fill="none" stroke="red" stroke-width="0.5" d="M277.87,-77.05C282.33,-73.93 287.2,-70.88 292.02,-68.53 343.2,-43.53 362.73,-55.12 415.02,-32.53 416.23,-32 417.46,-31.43 418.69,-30.83"/>
<polygon fill="red" stroke="red" stroke-width="0.5" points="420.75,-33.7 427.85,-25.84 417.4,-27.55 420.75,-33.7"/>
</g>
<!-- 499&#45;&gt;1 -->
<g id="edge40" class="edge">
<title>499&#45;&gt;1</title>
<path fill="none" stroke="green" stroke-width="0.31" d="M277.66,-76.6C282.13,-73.5 287.06,-70.57 292.02,-68.53 385.64,-29.91 421.7,-66.75 517.02,-32.53 518.26,-32.08 519.52,-31.57 520.77,-31.02"/>
<polygon fill="green" stroke="green" stroke-width="0.31" points="522.76,-33.93 529.99,-26.19 519.51,-27.73 522.76,-33.93"/>
</g>
<!-- 499&#45;&gt;2 -->
<g id="edge41" class="edge">
<title>499&#45;&gt;2</title>
<path fill="none" stroke="green" stroke-width="0.15" d="M278.6,-77.49C282.94,-74.41 287.57,-71.27 292.02,-68.53 316.59,-53.36 346.11,-38.32 366.29,-28.5"/>
<polygon fill="green" stroke="green" stroke-width="0.15" points="367.89,-31.61 375.38,-24.11 364.85,-25.3 367.89,-31.61"/>
</g>
<!-- 499&#45;&gt;3 -->
<g id="edge42" class="edge">
<title>499&#45;&gt;3</title>
<path fill="none" stroke="red" stroke-width="0.14" d="M277.73,-76.76C282.2,-73.65 287.1,-70.68 292.02,-68.53 364.32,-36.77 392.32,-60.89 466.02,-32.53 467.25,-32.05 468.5,-31.52 469.74,-30.95"/>
<polygon fill="red" stroke="red" stroke-width="0.14" points="471.75,-33.84 478.94,-26.06 468.47,-27.66 471.75,-33.84"/>
</g>
<!-- 499&#45;&gt;4 -->
<g id="edge43" class="edge">
<title>499&#45;&gt;4</title>
<path fill="none" stroke="red" stroke-width="0.9" d="M277.62,-76.49C282.09,-73.4 287.03,-70.5 292.02,-68.53 407.05,-23.02 451,-72.65 568.02,-32.53 569.27,-32.1 570.53,-31.6 571.78,-31.06"/>
<polygon fill="red" stroke="red" stroke-width="0.9" points="573.76,-33.98 581.02,-26.27 570.53,-27.77 573.76,-33.98"/>
</g>
<!-- 499&#45;&gt;5 -->
<g id="edge44" class="edge">
<title>499&#45;&gt;5</title>
<path fill="none" stroke="red" stroke-width="0.33" d="M277.59,-76.42C282.07,-73.32 287.01,-70.45 292.02,-68.53 428.51,-16.1 480.24,-78.55 619.02,-32.53 620.27,-32.11 621.54,-31.63 622.79,-31.09"/>
<polygon fill="red" stroke="red" stroke-width="0.33" points="624.76,-34.02 632.04,-26.32 621.55,-27.8 624.76,-34.02"/>
</g>
<!-- 500&#45;&gt;0 -->
<g id="edge45" class="edge">
<title>500&#45;&gt;0</title>
<path fill="none" stroke="red" stroke-width="0.21" d="M345.76,-77.75C350.09,-74.65 354.68,-71.44 359.02,-68.53 378.83,-55.23 401.91,-40.9 418.53,-30.78"/>
<polygon fill="red" stroke="red" stroke-width="0.21" points="420.76,-33.52 427.49,-25.35 417.13,-27.53 420.76,-33.52"/>
</g>
<!-- 500&#45;&gt;1 -->
<g id="edge46" class="edge">
<title>500&#45;&gt;1</title>
<path fill="none" stroke="red" stroke-width="0.64" stroke-dasharray="1,5" d="M344.77,-76.84C349.23,-73.72 354.13,-70.73 359.02,-68.53 424.66,-38.9 450.06,-59.07 517.02,-32.53 518.25,-32.04 519.49,-31.5 520.73,-30.92"/>
<polygon fill="red" stroke="red" stroke-width="0.64" points="522.75,-33.81 529.92,-26 519.45,-27.63 522.75,-33.81"/>
</g>
<!-- 500&#45;&gt;2 -->
<g id="edge47" class="edge">
<title>500&#45;&gt;2</title>
<path fill="none" stroke="red" stroke-width="0.1" d="M341.84,-73.73C351.37,-62.56 363.5,-48.34 373.2,-36.97"/>
<polygon fill="red" stroke="red" stroke-width="0.1" points="375.94,-39.15 379.77,-29.27 370.62,-34.61 375.94,-39.15"/>
</g>
<!-- 500&#45;&gt;3 -->
<g id="edge48" class="edge">
<title>500&#45;&gt;3</title>
<path fill="none" stroke="red" stroke-width="0.13" d="M344.94,-77.2C349.4,-74.06 354.24,-70.98 359.02,-68.53 403.66,-45.62 420.36,-53.34 466.02,-32.53 467.2,-31.99 468.39,-31.41 469.58,-30.81"/>
<polygon fill="red" stroke="red" stroke-width="0.13" points="471.46,-33.77 478.54,-25.89 468.09,-27.64 471.46,-33.77"/>
</g>
<!-- 500&#45;&gt;4 -->
<g id="edge49" class="edge">
<title>500&#45;&gt;4</title>
<path fill="none" stroke="green" stroke-width="0.53" d="M344.68,-76.64C349.15,-73.54 354.07,-70.6 359.02,-68.53 445.94,-32.07 479.5,-64.91 568.02,-32.53 569.26,-32.07 570.51,-31.56 571.76,-31"/>
<polygon fill="green" stroke="green" stroke-width="0.53" points="573.76,-33.9 580.98,-26.15 570.5,-27.71 573.76,-33.9"/>
</g>
<!-- 500&#45;&gt;5 -->
<g id="edge50" class="edge">
<title>500&#45;&gt;5</title>
<path fill="none" stroke="red" stroke-width="0.49" d="M344.63,-76.52C349.1,-73.42 354.04,-70.52 359.02,-68.53 467.32,-25.18 508.81,-70.79 619.02,-32.53 620.27,-32.09 621.53,-31.59 622.78,-31.05"/>
<polygon fill="red" stroke="red" stroke-width="0.49" points="624.76,-33.97 632.01,-26.24 621.52,-27.76 624.76,-33.97"/>
</g>
<!-- 501&#45;&gt;0 -->
<g id="edge51" class="edge">
<title>501&#45;&gt;0</title>
<path fill="none" stroke="red" stroke-width="0.44" d="M406.13,-71.78C412.66,-61.58 420.55,-49.25 427.17,-38.9"/>
<polygon fill="red" stroke="red" stroke-width="0.44" points="430.16,-40.73 432.6,-30.42 424.26,-36.95 430.16,-40.73"/>
</g>
<!-- 501&#45;&gt;1 -->
<g id="edge52" class="edge">
<title>501&#45;&gt;1</title>
<path fill="none" stroke="green" stroke-width="0.11" d="M412.04,-77.38C416.49,-74.24 421.31,-71.1 426.02,-68.53 464.18,-47.66 477.92,-51.59 517.02,-32.53 518.18,-31.96 519.36,-31.36 520.55,-30.74"/>
<polygon fill="green" stroke="green" stroke-width="0.11" points="522.45,-33.68 529.47,-25.75 519.03,-27.57 522.45,-33.68"/>
</g>
<!-- 501&#45;&gt;2 -->
<g id="edge53" class="edge">
<title>501&#45;&gt;2</title>
<path fill="none" stroke="red" stroke-width="0.49" d="M392.07,-68.54C391.74,-60.42 391.38,-51.31 391.05,-43.04"/>
<polygon fill="red" stroke="red" stroke-width="0.49" points="394.53,-42.66 390.64,-32.81 387.54,-42.94 394.53,-42.66"/>
</g>
<!-- 501&#45;&gt;3 -->
<g id="edge54" class="edge">
<title>501&#45;&gt;3</title>
<path fill="none" stroke="red" stroke-width="0.33" d="M412.58,-77.46C429.47,-64.66 453.81,-46.21 471.09,-33.12"/>
<polygon fill="red" stroke="red" stroke-width="0.33" points="473.55,-35.65 479.4,-26.82 469.32,-30.07 473.55,-35.65"/>
</g>
<!-- 501&#45;&gt;4 -->
<g id="edge55" class="edge">
<title>501&#45;&gt;4</title>
<path fill="none" stroke="red" stroke-width="0.68" d="M411.81,-76.92C416.27,-73.81 421.15,-70.79 426.02,-68.53 485.03,-41.03 507.79,-57.25 568.02,-32.53 569.24,-32.02 570.48,-31.47 571.71,-30.88"/>
<polygon fill="red" stroke="red" stroke-width="0.68" points="573.75,-33.76 580.89,-25.94 570.43,-27.6 573.75,-33.76"/>
</g>
<!-- 501&#45;&gt;5 -->
<g id="edge56" class="edge">
<title>501&#45;&gt;5</title>
<path fill="none" stroke="green" stroke-width="0.24" d="M411.7,-76.69C416.17,-73.59 421.08,-70.64 426.02,-68.53 506.25,-34.22 537.28,-63.07 619.02,-32.53 620.26,-32.06 621.51,-31.54 622.75,-30.98"/>
<polygon fill="green" stroke="green" stroke-width="0.24" points="624.76,-33.88 631.96,-26.11 621.49,-27.69 624.76,-33.88"/>
</g>
<!-- 502&#45;&gt;0 -->
<g id="edge57" class="edge">
<title>502&#45;&gt;0</title>
<path fill="none" stroke="green" stroke-width="0.3" d="M508.78,-76.37C494.68,-64.07 475.2,-47.08 460.74,-34.47"/>
<polygon fill="green" stroke="green" stroke-width="0.3" points="462.73,-31.56 452.89,-27.62 458.13,-36.83 462.73,-31.56"/>
</g>
<!-- 502&#45;&gt;1 -->
<g id="edge58" class="edge">
<title>502&#45;&gt;1</title>
<path fill="none" stroke="green" stroke-width="0.16" d="M531.99,-68.95C533.79,-60.51 535.83,-50.95 537.66,-42.37"/>
<polygon fill="green" stroke="green" stroke-width="0.16" points="541.1,-43.03 539.76,-32.52 534.25,-41.57 541.1,-43.03"/>
</g>
<!-- 502&#45;&gt;2 -->
<g id="edge59" class="edge">
<title>502&#45;&gt;2</title>
<path fill="none" stroke="green" stroke-width="0.3" d="M507.89,-77.57C503.44,-74.42 498.65,-71.23 494.02,-68.53 461.04,-49.29 449.85,-50.21 416.02,-32.53 414.87,-31.93 413.7,-31.3 412.52,-30.66"/>
<polygon fill="green" stroke="green" stroke-width="0.3" points="414.06,-27.5 403.64,-25.6 410.6,-33.59 414.06,-27.5"/>
</g>
<!-- 502&#45;&gt;3 -->
<g id="edge60" class="edge">
<title>502&#45;&gt;3</title>
<path fill="none" stroke="green" stroke-width="0.28" d="M516.89,-70.58C512.52,-61.2 507.39,-50.21 502.93,-40.65"/>
<polygon fill="green" stroke="green" stroke-width="0.28" points="505.98,-38.92 498.58,-31.34 499.64,-41.88 505.98,-38.92"/>
</g>
<!-- 502&#45;&gt;4 -->
<g id="edge61" class="edge">
<title>502&#45;&gt;4</title>
<path fill="none" stroke="red" stroke-width="0.43" d="M543.24,-74.12C553.33,-62.81 566.31,-48.28 576.62,-36.74"/>
<polygon fill="red" stroke="red" stroke-width="0.43" points="579.53,-38.74 583.58,-28.95 574.31,-34.07 579.53,-38.74"/>
</g>
<!-- 502&#45;&gt;5 -->
<g id="edge62" class="edge">
<title>502&#45;&gt;5</title>
<path fill="none" stroke="red" stroke-width="0.57" d="M546.73,-77.69C551.06,-74.6 555.66,-71.4 560.02,-68.53 571.48,-60.96 601.63,-42.94 622.74,-30.42"/>
<polygon fill="red" stroke="red" stroke-width="0.57" points="624.61,-33.38 631.43,-25.27 621.05,-27.36 624.61,-33.38"/>
</g>
<!-- 503&#45;&gt;0 -->
<g id="edge63" class="edge">
<title>503&#45;&gt;0</title>
<path fill="none" stroke="red" stroke-width="0.65" d="M454.11,-68.95C451.97,-60.51 449.55,-50.95 447.37,-42.37"/>
<polygon fill="red" stroke="red" stroke-width="0.65" points="450.73,-41.35 444.88,-32.52 443.94,-43.07 450.73,-41.35"/>
</g>
<!-- 503&#45;&gt;1 -->
<g id="edge64" class="edge">
<title>503&#45;&gt;1</title>
<path fill="none" stroke="green" stroke-width="0.24" d="M478.03,-76C491.58,-63.75 510.11,-47 523.92,-34.52"/>
<polygon fill="green" stroke="green" stroke-width="0.24" points="526.36,-37.04 531.43,-27.74 521.66,-31.84 526.36,-37.04"/>
</g>
<!-- 503&#45;&gt;2 -->
<g id="edge65" class="edge">
<title>503&#45;&gt;2</title>
<path fill="none" stroke="red" stroke-width="0.42" d="M443.43,-74.5C432.65,-62.95 418.62,-47.92 407.65,-36.16"/>
<polygon fill="red" stroke="red" stroke-width="0.42" points="410,-33.54 400.61,-28.62 404.88,-38.32 410,-33.54"/>
</g>
<!-- 503&#45;&gt;3 -->
<g id="edge66" class="edge">
<title>503&#45;&gt;3</title>
<path fill="none" stroke="red" stroke-width="0.21" d="M469.44,-70.18C473.34,-61.03 477.87,-50.42 481.85,-41.1"/>
<polygon fill="red" stroke="red" stroke-width="0.21" points="485.18,-42.21 485.88,-31.64 478.74,-39.46 485.18,-42.21"/>
</g>
<!-- 503&#45;&gt;4 -->
<g id="edge67" class="edge">
<title>503&#45;&gt;4</title>
<path fill="none" stroke="red" stroke-width="0.16" d="M479.53,-77.38C483.87,-74.3 488.52,-71.19 493.02,-68.53 524.81,-49.65 535.38,-49.9 568.02,-32.53 569.16,-31.92 570.33,-31.28 571.5,-30.64"/>
<polygon fill="red" stroke="red" stroke-width="0.16" points="573.43,-33.56 580.37,-25.56 569.96,-27.49 573.43,-33.56"/>
</g>
<!-- 503&#45;&gt;5 -->
<g id="edge68" class="edge">
<title>503&#45;&gt;5</title>
<path fill="none" stroke="green" stroke-width="0.5" d="M478.86,-77.03C483.32,-73.91 488.19,-70.87 493.02,-68.53 545.43,-43.14 565.48,-55.45 619.02,-32.53 620.23,-32.01 621.47,-31.44 622.7,-30.84"/>
<polygon fill="green" stroke="green" stroke-width="0.5" points="624.75,-33.71 631.86,-25.85 621.4,-27.56 624.75,-33.71"/>
</g>
<!-- 504&#45;&gt;0 -->
<g id="edge69" class="edge">
<title>504&#45;&gt;0</title>
<path fill="none" stroke="green" stroke-width="0.36" d="M575.02,-77.34C570.56,-74.2 565.74,-71.07 561.02,-68.53 521.64,-47.28 507.33,-51.92 467.02,-32.53 465.85,-31.97 464.66,-31.37 463.48,-30.75"/>
<polygon fill="green" stroke="green" stroke-width="0.36" points="464.99,-27.59 454.55,-25.78 461.58,-33.7 464.99,-27.59"/>
</g>
<!-- 504&#45;&gt;1 -->
<g id="edge70" class="edge">
<title>504&#45;&gt;1</title>
<path fill="none" stroke="green" stroke-width="0.17" d="M580.35,-72.17C573.25,-61.73 564.58,-48.98 557.38,-38.39"/>
<polygon fill="green" stroke="green" stroke-width="0.17" points="560.26,-36.4 551.75,-30.1 554.47,-40.34 560.26,-36.4"/>
</g>
<!-- 504&#45;&gt;2 -->
<g id="edge71" class="edge">
<title>504&#45;&gt;2</title>
<path fill="none" stroke="green" stroke-width="0.24" d="M575.24,-76.91C570.77,-73.79 565.88,-70.78 561.02,-68.53 500.76,-40.63 477.5,-57.59 416.02,-32.53 414.79,-32.03 413.55,-31.48 412.32,-30.89"/>
<polygon fill="green" stroke="green" stroke-width="0.24" points="413.6,-27.61 403.13,-25.95 410.28,-33.77 413.6,-27.61"/>
</g>
<!-- 504&#45;&gt;3 -->
<g id="edge72" class="edge">
<title>504&#45;&gt;3</title>
<path fill="none" stroke="red" stroke-width="0.37" d="M574.35,-77.81C556.74,-64.86 530.99,-45.92 512.99,-32.69"/>
<polygon fill="red" stroke="red" stroke-width="0.37" points="514.97,-29.8 504.84,-26.7 510.83,-35.44 514.97,-29.8"/>
</g>
<!-- 504&#45;&gt;4 -->
<g id="edge73" class="edge">
<title>504&#45;&gt;4</title>
<path fill="none" stroke="red" stroke-width="0.51" d="M594.02,-68.13C594.02,-60.03 594.02,-50.97 594.02,-42.77"/>
<polygon fill="red" stroke="red" stroke-width="0.51" points="597.52,-42.64 594.02,-32.64 590.52,-42.64 597.52,-42.64"/>
</g>
<!-- 504&#45;&gt;5 -->
<g id="edge74" class="edge">
<title>504&#45;&gt;5</title>
<path fill="none" stroke="green" stroke-width="0.18" d="M607.68,-72.17C614.78,-61.73 623.46,-48.98 630.65,-38.39"/>
<polygon fill="green" stroke="green" stroke-width="0.18" points="633.56,-40.34 636.29,-30.1 627.77,-36.4 633.56,-40.34"/>
</g>
<!-- 505&#45;&gt;0 -->
<g id="edge75" class="edge">
<title>505&#45;&gt;0</title>
<path fill="none" stroke="red" stroke-width="0.12" d="M210.71,-76.7C215.18,-73.6 220.09,-70.64 225.02,-68.53 303.99,-34.62 334.55,-62.73 415.02,-32.53 416.26,-32.06 417.51,-31.54 418.75,-30.97"/>
<polygon fill="red" stroke="red" stroke-width="0.12" points="420.76,-33.87 427.96,-26.11 417.48,-27.69 420.76,-33.87"/>
</g>
<!-- 505&#45;&gt;1 -->
<g id="edge76" class="edge">
<title>505&#45;&gt;1</title>
<path fill="none" stroke="red" stroke-width="0.19" d="M210.61,-76.46C215.08,-73.37 220.02,-70.48 225.02,-68.53 346.77,-20.85 393.17,-74.5 517.02,-32.53 518.27,-32.1 519.53,-31.61 520.79,-31.07"/>
<polygon fill="red" stroke="red" stroke-width="0.19" points="522.76,-33.99 530.03,-26.29 519.54,-27.78 522.76,-33.99"/>
</g>
<!-- 505&#45;&gt;2 -->
<g id="edge77" class="edge">
<title>505&#45;&gt;2</title>
<path fill="none" stroke="green" stroke-width="0.63" d="M210.9,-77.11C215.36,-73.99 220.22,-70.92 225.02,-68.53 271.53,-45.34 330.65,-30.06 364.02,-22.6"/>
<polygon fill="green" stroke="green" stroke-width="0.63" points="364.87,-26 373.9,-20.45 363.38,-19.16 364.87,-26"/>
</g>
<!-- 505&#45;&gt;3 -->
<g id="edge78" class="edge">
<title>505&#45;&gt;3</title>
<path fill="none" stroke="green" stroke-width="0.42" d="M210.65,-76.56C215.12,-73.46 220.05,-70.55 225.02,-68.53 325.35,-27.75 363.9,-68.6 466.02,-32.53 467.27,-32.09 468.52,-31.58 469.77,-31.03"/>
<polygon fill="green" stroke="green" stroke-width="0.42" points="471.76,-33.95 479,-26.21 468.52,-27.74 471.76,-33.95"/>
</g>
<!-- 505&#45;&gt;4 -->
<g id="edge79" class="edge">
<title>505&#45;&gt;4</title>
<path fill="none" stroke="green" stroke-width="0.46" d="M210.58,-76.4C215.06,-73.31 220,-70.44 225.02,-68.53 368.25,-13.93 422.41,-80.41 568.02,-32.53 569.28,-32.11 570.54,-31.63 571.79,-31.1"/>
<polygon fill="green" stroke="green" stroke-width="0.46" points="573.75,-34.03 581.04,-26.34 570.55,-27.8 573.75,-34.03"/>
</g>
</g>
</svg>
