<?xml version="1.0" encoding="UTF-8" standalone="no"?>
<!DOCTYPE svg PUBLIC "-//W3C//DTD SVG 1.1//EN"
 "http://www.w3.org/Graphics/SVG/1.1/DTD/svg11.dtd">
<!-- Generated by graphviz version 2.44.0 (0)
 -->
<!-- Pages: 1 -->
<svg width="1421pt" height="172pt"
 viewBox="0.00 0.00 1420.53 171.54" xmlns="http://www.w3.org/2000/svg" xmlns:xlink="http://www.w3.org/1999/xlink">
<g id="graph0" class="graph" transform="scale(1 1) rotate(0) translate(4 167.54)">
<polygon fill="white" stroke="transparent" points="-4,4 -4,-167.54 1416.53,-167.54 1416.53,4 -4,4"/>
<!-- &#45;1 -->
<g id="node1" class="node">
<title>&#45;1</title>
<polygon fill="lightgray" stroke="black" points="764.28,-163.54 738.28,-163.54 738.28,-145.54 764.28,-145.54 764.28,-163.54"/>
<text text-anchor="middle" x="751.28" y="-152.34" font-family="Times-Roman" font-size="9.00">&#45;1</text>
</g>
<!-- 0 -->
<g id="node5" class="node">
<title>0</title>
<ellipse fill="lightblue" stroke="black" cx="823.28" cy="-16.26" rx="16.03" ry="16.03"/>
<text text-anchor="middle" x="823.28" y="-14.06" font-family="Times-Roman" font-size="9.00">0</text>
</g>
<!-- &#45;1&#45;&gt;0 -->
<g id="edge100" class="edge">
<title>&#45;1&#45;&gt;0</title>
<path fill="none" stroke="red" stroke-width="0.46" d="M764.69,-151.02C774.29,-149.28 787.55,-147.02 799.28,-145.54 845.09,-139.74 1182.08,-143.57 1213.28,-109.54 1225.6,-96.1 1225.51,-82.04 1213.28,-68.53 1159.33,-8.91 930.43,-55.14 853.28,-32.53 850.83,-31.81 848.34,-30.89 845.89,-29.86"/>
<polygon fill="red" stroke="red" stroke-width="0.46" points="847.41,-26.7 836.88,-25.53 844.38,-33.01 847.41,-26.7"/>
</g>
<!-- 1 -->
<g id="node6" class="node">
<title>1</title>
<ellipse fill="lightblue" stroke="black" cx="725.28" cy="-16.26" rx="16.03" ry="16.03"/>
<text text-anchor="middle" x="725.28" y="-14.06" font-family="Times-Roman" font-size="9.00">1</text>
</g>
<!-- &#45;1&#45;&gt;1 -->
<g id="edge101" class="edge">
<title>&#45;1&#45;&gt;1</title>
<path fill="none" stroke="green" stroke-width="0.11" d="M764.31,-151.33C773.97,-149.71 787.44,-147.46 799.28,-145.54 850.13,-137.3 994.8,-148.69 1028.28,-109.54 1040.13,-95.69 1040.13,-82.38 1028.28,-68.53 994.65,-29.22 849.17,-41.82 798.28,-32.53 782.55,-29.65 765,-26 751.06,-22.99"/>
<polygon fill="green" stroke="green" stroke-width="0.11" points="751.7,-19.54 741.19,-20.83 750.21,-26.38 751.7,-19.54"/>
</g>
<!-- 2 -->
<g id="node7" class="node">
<title>2</title>
<ellipse fill="lightblue" stroke="black" cx="622.28" cy="-16.26" rx="16.03" ry="16.03"/>
<text text-anchor="middle" x="622.28" y="-14.06" font-family="Times-Roman" font-size="9.00">2</text>
</g>
<!-- &#45;1&#45;&gt;2 -->
<g id="edge102" class="edge">
<title>&#45;1&#45;&gt;2</title>
<path fill="none" stroke="red" stroke-width="0.32" d="M738.21,-149.87C732.19,-148.31 724.92,-146.61 718.28,-145.54 670.4,-137.8 316.13,-145.22 283.28,-109.54 270.94,-96.13 271.16,-82.14 283.28,-68.53 329.56,-16.58 527.97,-53.56 594.28,-32.53 596.18,-31.92 598.1,-31.19 600,-30.37"/>
<polygon fill="red" stroke="red" stroke-width="0.32" points="601.71,-33.43 609.08,-25.81 598.57,-27.17 601.71,-33.43"/>
</g>
<!-- 3 -->
<g id="node8" class="node">
<title>3</title>
<ellipse fill="lightblue" stroke="black" cx="674.28" cy="-16.26" rx="16.03" ry="16.03"/>
<text text-anchor="middle" x="674.28" y="-14.06" font-family="Times-Roman" font-size="9.00">3</text>
</g>
<!-- &#45;1&#45;&gt;3 -->
<g id="edge103" class="edge">
<title>&#45;1&#45;&gt;3</title>
<path fill="none" stroke="red" stroke-width="0.12" d="M738.18,-150.04C732.15,-148.51 724.88,-146.79 718.28,-145.54 660.76,-134.63 495.75,-153.68 457.28,-109.54 445.31,-95.8 445.65,-82.56 457.28,-68.53 512.11,-2.34 566.57,-62.07 647.28,-32.53 648.74,-31.99 650.2,-31.39 651.66,-30.73"/>
<polygon fill="red" stroke="red" stroke-width="0.12" points="653.68,-33.63 660.96,-25.93 650.47,-27.41 653.68,-33.63"/>
</g>
<!-- 4 -->
<g id="node9" class="node">
<title>4</title>
<ellipse fill="lightblue" stroke="black" cx="878.28" cy="-16.26" rx="16.03" ry="16.03"/>
<text text-anchor="middle" x="878.28" y="-14.06" font-family="Times-Roman" font-size="9.00">4</text>
</g>
<!-- &#45;1&#45;&gt;4 -->
<g id="edge104" class="edge">
<title>&#45;1&#45;&gt;4</title>
<path fill="none" stroke="green" stroke-width="0.1" d="M764.68,-150.93C774.28,-149.15 787.53,-146.89 799.28,-145.54 861.89,-138.35 1322.16,-155.49 1365.28,-109.54 1377.75,-96.25 1377.48,-82.07 1365.28,-68.53 1334.23,-34.04 1001.91,-21.09 904.79,-18.03"/>
<polygon fill="green" stroke="green" stroke-width="0.1" points="904.74,-14.52 894.64,-17.72 904.53,-21.52 904.74,-14.52"/>
</g>
<!-- 5 -->
<g id="node10" class="node">
<title>5</title>
<ellipse fill="lightblue" stroke="black" cx="569.28" cy="-16.26" rx="16.03" ry="16.03"/>
<text text-anchor="middle" x="569.28" y="-14.06" font-family="Times-Roman" font-size="9.00">5</text>
</g>
<!-- &#45;1&#45;&gt;5 -->
<g id="edge105" class="edge">
<title>&#45;1&#45;&gt;5</title>
<path fill="none" stroke="red" stroke-width="0.19" d="M738.21,-149.87C732.19,-148.31 724.92,-146.6 718.28,-145.54 668.97,-137.63 304.15,-146.24 270.28,-109.54 191.14,-23.78 455.34,-16.97 542.41,-17"/>
<polygon fill="red" stroke="red" stroke-width="0.19" points="542.55,-20.5 552.57,-17.04 542.58,-13.5 542.55,-20.5"/>
</g>
<!-- 76 -->
<g id="node11" class="node">
<title>76</title>
<ellipse fill="white" stroke="black" cx="880.28" cy="-89.03" rx="20.51" ry="20.51"/>
<text text-anchor="middle" x="880.28" y="-86.83" font-family="Times-Roman" font-size="9.00">76</text>
</g>
<!-- &#45;1&#45;&gt;76 -->
<g id="edge1" class="edge">
<title>&#45;1&#45;&gt;76</title>
<path fill="none" stroke="green" stroke-width="0.11" d="M764.58,-148.56C784.09,-141.07 821.37,-126.01 851.28,-109.54 852.61,-108.81 853.96,-108.03 855.3,-107.23"/>
<polygon fill="green" stroke="green" stroke-width="0.11" points="857.46,-110 864.04,-101.7 853.72,-104.09 857.46,-110"/>
</g>
<!-- 77 -->
<g id="node12" class="node">
<title>77</title>
<ellipse fill="white" stroke="black" cx="939.28" cy="-89.03" rx="20.51" ry="20.51"/>
<text text-anchor="middle" x="939.28" y="-86.83" font-family="Times-Roman" font-size="9.00">77</text>
</g>
<!-- &#45;1&#45;&gt;77 -->
<g id="edge2" class="edge">
<title>&#45;1&#45;&gt;77</title>
<path fill="none" stroke="red" stroke-width="0.4" d="M764.56,-151.36C792.5,-146.46 859.02,-133.11 910.28,-109.54 911.66,-108.91 913.05,-108.21 914.42,-107.47"/>
<polygon fill="red" stroke="red" stroke-width="0.4" points="916.51,-110.3 923.26,-102.14 912.89,-104.31 916.51,-110.3"/>
</g>
<!-- 78 -->
<g id="node13" class="node">
<title>78</title>
<ellipse fill="white" stroke="black" cx="998.28" cy="-89.03" rx="20.51" ry="20.51"/>
<text text-anchor="middle" x="998.28" y="-86.83" font-family="Times-Roman" font-size="9.00">78</text>
</g>
<!-- &#45;1&#45;&gt;78 -->
<g id="edge3" class="edge">
<title>&#45;1&#45;&gt;78</title>
<path fill="none" stroke="green" stroke-width="0.36" d="M764.48,-151.19C808.73,-143.26 950.09,-117.56 969.28,-109.54 970.68,-108.95 972.08,-108.3 973.48,-107.59"/>
<polygon fill="green" stroke="green" stroke-width="0.36" points="975.52,-110.45 982.36,-102.36 971.97,-104.42 975.52,-110.45"/>
</g>
<!-- 79 -->
<g id="node14" class="node">
<title>79</title>
<ellipse fill="white" stroke="black" cx="487.28" cy="-89.03" rx="20.51" ry="20.51"/>
<text text-anchor="middle" x="487.28" y="-86.83" font-family="Times-Roman" font-size="9.00">79</text>
</g>
<!-- &#45;1&#45;&gt;79 -->
<g id="edge4" class="edge">
<title>&#45;1&#45;&gt;79</title>
<path fill="none" stroke="red" stroke-width="0.12" d="M738.16,-150.16C732.12,-148.66 724.86,-146.92 718.28,-145.54 629.04,-126.79 600.82,-143.72 516.28,-109.54 514.88,-108.97 513.47,-108.33 512.07,-107.63"/>
<polygon fill="red" stroke="red" stroke-width="0.12" points="513.58,-104.45 503.17,-102.43 510.05,-110.5 513.58,-104.45"/>
</g>
<!-- 80 -->
<g id="node15" class="node">
<title>80</title>
<ellipse fill="white" stroke="black" cx="546.28" cy="-89.03" rx="20.51" ry="20.51"/>
<text text-anchor="middle" x="546.28" y="-86.83" font-family="Times-Roman" font-size="9.00">80</text>
</g>
<!-- &#45;1&#45;&gt;80 -->
<g id="edge5" class="edge">
<title>&#45;1&#45;&gt;80</title>
<path fill="none" stroke="red" stroke-width="0.25" d="M738.23,-150.36C701.02,-141.29 596.14,-115.49 581.28,-109.54 578.34,-108.36 575.34,-106.99 572.39,-105.52"/>
<polygon fill="red" stroke="red" stroke-width="0.25" points="573.77,-102.29 563.3,-100.66 570.47,-108.46 573.77,-102.29"/>
</g>
<!-- 81 -->
<g id="node16" class="node">
<title>81</title>
<ellipse fill="white" stroke="black" cx="644.28" cy="-89.03" rx="20.51" ry="20.51"/>
<text text-anchor="middle" x="644.28" y="-86.83" font-family="Times-Roman" font-size="9.00">81</text>
</g>
<!-- &#45;1&#45;&gt;81 -->
<g id="edge6" class="edge">
<title>&#45;1&#45;&gt;81</title>
<path fill="none" stroke="red" stroke-width="0.48" d="M738.13,-146.53C722.47,-138.09 695.64,-123.34 673.28,-109.54 671.99,-108.74 670.68,-107.92 669.35,-107.07"/>
<polygon fill="red" stroke="red" stroke-width="0.48" points="670.98,-103.95 660.7,-101.4 667.14,-109.81 670.98,-103.95"/>
</g>
<!-- 82 -->
<g id="node17" class="node">
<title>82</title>
<ellipse fill="white" stroke="black" cx="762.28" cy="-89.03" rx="20.51" ry="20.51"/>
<text text-anchor="middle" x="762.28" y="-86.83" font-family="Times-Roman" font-size="9.00">82</text>
</g>
<!-- &#45;1&#45;&gt;82 -->
<g id="edge7" class="edge">
<title>&#45;1&#45;&gt;82</title>
<path fill="none" stroke="green" stroke-width="0.22" d="M752.67,-145.5C753.82,-138.88 755.52,-129.07 757.17,-119.53"/>
<polygon fill="green" stroke="green" stroke-width="0.22" points="760.66,-119.9 758.92,-109.45 753.76,-118.71 760.66,-119.9"/>
</g>
<!-- 83 -->
<g id="node18" class="node">
<title>83</title>
<ellipse fill="white" stroke="black" cx="821.28" cy="-89.03" rx="20.51" ry="20.51"/>
<text text-anchor="middle" x="821.28" y="-86.83" font-family="Times-Roman" font-size="9.00">83</text>
</g>
<!-- &#45;1&#45;&gt;83 -->
<g id="edge8" class="edge">
<title>&#45;1&#45;&gt;83</title>
<path fill="none" stroke="red" stroke-width="0.25" d="M760.15,-145.5C769.77,-136.76 785.53,-122.47 798.64,-110.58"/>
<polygon fill="red" stroke="red" stroke-width="0.25" points="801.32,-112.87 806.37,-103.56 796.62,-107.68 801.32,-112.87"/>
</g>
<!-- 84 -->
<g id="node19" class="node">
<title>84</title>
<ellipse fill="white" stroke="black" cx="313.28" cy="-89.03" rx="20.51" ry="20.51"/>
<text text-anchor="middle" x="313.28" y="-86.83" font-family="Times-Roman" font-size="9.00">84</text>
</g>
<!-- &#45;1&#45;&gt;84 -->
<g id="edge9" class="edge">
<title>&#45;1&#45;&gt;84</title>
<path fill="none" stroke="green" stroke-width="0.39" d="M738.2,-149.92C732.18,-148.37 724.91,-146.66 718.28,-145.54 555.37,-118.01 505.99,-158.79 348.28,-109.54 345.26,-108.59 342.2,-107.37 339.22,-105.99"/>
<polygon fill="green" stroke="green" stroke-width="0.39" points="340.58,-102.75 330.09,-101.24 337.35,-108.96 340.58,-102.75"/>
</g>
<!-- 85 -->
<g id="node20" class="node">
<title>85</title>
<ellipse fill="white" stroke="black" cx="703.28" cy="-89.03" rx="20.51" ry="20.51"/>
<text text-anchor="middle" x="703.28" y="-86.83" font-family="Times-Roman" font-size="9.00">85</text>
</g>
<!-- &#45;1&#45;&gt;85 -->
<g id="edge10" class="edge">
<title>&#45;1&#45;&gt;85</title>
<path fill="none" stroke="green" stroke-width="0.18" d="M745.2,-145.5C739.21,-137.57 729.76,-125.07 721.35,-113.93"/>
<polygon fill="green" stroke="green" stroke-width="0.18" points="724.01,-111.66 715.19,-105.79 718.43,-115.88 724.01,-111.66"/>
</g>
<!-- &#45;2 -->
<g id="node2" class="node">
<title>&#45;2</title>
<polygon fill="lightgray" stroke="black" points="709.28,-163.54 683.28,-163.54 683.28,-145.54 709.28,-145.54 709.28,-163.54"/>
<text text-anchor="middle" x="696.28" y="-152.34" font-family="Times-Roman" font-size="9.00">&#45;2</text>
</g>
<!-- &#45;2&#45;&gt;0 -->
<g id="edge106" class="edge">
<title>&#45;2&#45;&gt;0</title>
<path fill="none" stroke="red" stroke-width="0.62" d="M709.35,-149.87C715.38,-148.31 722.65,-146.6 729.28,-145.54 778.37,-137.66 1141.57,-146.08 1175.28,-109.54 1187.64,-96.14 1187.43,-82.11 1175.28,-68.53 1127.28,-14.86 922.26,-53.18 853.28,-32.53 850.83,-31.79 848.34,-30.86 845.9,-29.83"/>
<polygon fill="red" stroke="red" stroke-width="0.62" points="847.42,-26.67 836.89,-25.49 844.38,-32.98 847.42,-26.67"/>
</g>
<!-- &#45;2&#45;&gt;1 -->
<g id="edge107" class="edge">
<title>&#45;2&#45;&gt;1</title>
<path fill="none" stroke="red" stroke-width="0.21" d="M683.15,-149.13C679.06,-147.86 674.51,-146.54 670.28,-145.54 623.57,-134.46 488.27,-146.2 457.28,-109.54 445.52,-95.62 445.38,-82.33 457.28,-68.53 492.79,-27.35 648.01,-50.62 699.28,-32.53 700.53,-32.09 701.79,-31.58 703.04,-31.03"/>
<polygon fill="red" stroke="red" stroke-width="0.21" points="705.02,-33.95 712.27,-26.22 701.78,-27.74 705.02,-33.95"/>
</g>
<!-- &#45;2&#45;&gt;2 -->
<g id="edge108" class="edge">
<title>&#45;2&#45;&gt;2</title>
<path fill="none" stroke="green" stroke-width="0.39" d="M683.19,-148.93C679.1,-147.65 674.54,-146.38 670.28,-145.54 626.5,-136.93 300.39,-142.48 270.28,-109.54 257.98,-96.08 258.13,-82.11 270.28,-68.53 318.6,-14.55 525.18,-54.27 594.28,-32.53 596.18,-31.93 598.1,-31.2 600,-30.38"/>
<polygon fill="green" stroke="green" stroke-width="0.39" points="601.71,-33.44 609.08,-25.83 598.57,-27.18 601.71,-33.44"/>
</g>
<!-- &#45;2&#45;&gt;3 -->
<g id="edge109" class="edge">
<title>&#45;2&#45;&gt;3</title>
<path fill="none" stroke="green" stroke-width="0.19" d="M683.19,-148.94C679.1,-147.65 674.54,-146.38 670.28,-145.54 585.56,-128.75 341.46,-173.38 283.28,-109.54 271,-96.07 271.04,-82.04 283.28,-68.53 337.86,-8.29 569.79,-57.06 647.28,-32.53 648.76,-32.06 650.24,-31.5 651.72,-30.89"/>
<polygon fill="green" stroke="green" stroke-width="0.19" points="653.69,-33.81 661.05,-26.19 650.55,-27.56 653.69,-33.81"/>
</g>
<!-- &#45;2&#45;&gt;4 -->
<g id="edge110" class="edge">
<title>&#45;2&#45;&gt;4</title>
<path fill="none" stroke="green" stroke-width="0.12" d="M709.34,-149.81C715.36,-148.23 722.64,-146.54 729.28,-145.54 795.11,-135.66 1281.65,-158 1327.28,-109.54 1339.78,-96.27 1339.42,-82.13 1327.28,-68.53 1298.98,-36.81 996.89,-22.06 904.79,-18.28"/>
<polygon fill="green" stroke="green" stroke-width="0.12" points="904.76,-14.77 894.63,-17.87 904.48,-21.77 904.76,-14.77"/>
</g>
<!-- &#45;2&#45;&gt;5 -->
<g id="edge111" class="edge">
<title>&#45;2&#45;&gt;5</title>
<path fill="none" stroke="red" stroke-width="0.31" d="M683.19,-148.92C679.1,-147.64 674.55,-146.37 670.28,-145.54 625.07,-136.72 288.41,-143.5 257.28,-109.54 174.84,-19.6 453.61,-15.74 542.76,-16.73"/>
<polygon fill="red" stroke="red" stroke-width="0.31" points="542.84,-20.23 552.89,-16.87 542.94,-13.23 542.84,-20.23"/>
</g>
<!-- &#45;2&#45;&gt;76 -->
<g id="edge11" class="edge">
<title>&#45;2&#45;&gt;76</title>
<path fill="none" stroke="green" stroke-width="0.33" d="M709.67,-150.32C742.34,-142.36 825.4,-121.55 851.28,-109.54 852.66,-108.9 854.04,-108.2 855.42,-107.46"/>
<polygon fill="green" stroke="green" stroke-width="0.33" points="857.5,-110.29 864.25,-102.12 853.88,-104.3 857.5,-110.29"/>
</g>
<!-- &#45;2&#45;&gt;77 -->
<g id="edge12" class="edge">
<title>&#45;2&#45;&gt;77</title>
<path fill="none" stroke="green" stroke-width="0.26" d="M709.42,-150.22C715.46,-148.73 722.72,-146.99 729.28,-145.54 809.38,-127.87 834.55,-141.04 910.28,-109.54 911.68,-108.96 913.09,-108.3 914.48,-107.59"/>
<polygon fill="green" stroke="green" stroke-width="0.26" points="916.52,-110.46 923.36,-102.37 912.97,-104.42 916.52,-110.46"/>
</g>
<!-- &#45;2&#45;&gt;78 -->
<g id="edge13" class="edge">
<title>&#45;2&#45;&gt;78</title>
<path fill="none" stroke="red" stroke-width="0.25" d="M709.39,-150.08C715.42,-148.56 722.69,-146.83 729.28,-145.54 835.13,-124.81 868.74,-148.59 969.28,-109.54 970.7,-108.99 972.11,-108.36 973.51,-107.68"/>
<polygon fill="red" stroke="red" stroke-width="0.25" points="975.52,-110.56 982.42,-102.52 972.01,-104.5 975.52,-110.56"/>
</g>
<!-- &#45;2&#45;&gt;79 -->
<g id="edge14" class="edge">
<title>&#45;2&#45;&gt;79</title>
<path fill="none" stroke="green" stroke-width="0.4" d="M683.11,-149.29C679.01,-148.03 674.48,-146.67 670.28,-145.54 602.43,-127.19 580.72,-137.61 516.28,-109.54 514.89,-108.93 513.5,-108.26 512.11,-107.54"/>
<polygon fill="green" stroke="green" stroke-width="0.4" points="513.63,-104.37 503.25,-102.27 510.05,-110.39 513.63,-104.37"/>
</g>
<!-- &#45;2&#45;&gt;80 -->
<g id="edge15" class="edge">
<title>&#45;2&#45;&gt;80</title>
<path fill="none" stroke="red" stroke-width="0.4" d="M683.27,-149.24C661.69,-141.97 617.31,-126.36 581.28,-109.54 578.41,-108.2 575.46,-106.72 572.53,-105.19"/>
<polygon fill="red" stroke="red" stroke-width="0.4" points="573.93,-101.96 563.47,-100.26 570.58,-108.11 573.93,-101.96"/>
</g>
<!-- &#45;2&#45;&gt;81 -->
<g id="edge16" class="edge">
<title>&#45;2&#45;&gt;81</title>
<path fill="none" stroke="red" stroke-width="0.25" d="M689.7,-145.5C683.1,-137.44 672.63,-124.65 663.4,-113.38"/>
<polygon fill="red" stroke="red" stroke-width="0.25" points="666.02,-111.06 656.98,-105.54 660.6,-115.49 666.02,-111.06"/>
</g>
<!-- &#45;2&#45;&gt;82 -->
<g id="edge17" class="edge">
<title>&#45;2&#45;&gt;82</title>
<path fill="none" stroke="green" stroke-width="0.44" d="M704.64,-145.5C713.66,-136.82 728.39,-122.65 740.7,-110.8"/>
<polygon fill="green" stroke="green" stroke-width="0.44" points="743.2,-113.26 747.97,-103.8 738.34,-108.21 743.2,-113.26"/>
</g>
<!-- &#45;2&#45;&gt;83 -->
<g id="edge18" class="edge">
<title>&#45;2&#45;&gt;83</title>
<path fill="none" stroke="red" stroke-width="0.6" d="M709.34,-148.35C728.13,-140.7 763.66,-125.59 792.28,-109.54 793.6,-108.8 794.95,-108.01 796.29,-107.21"/>
<polygon fill="red" stroke="red" stroke-width="0.6" points="798.46,-109.97 805.01,-101.65 794.7,-104.07 798.46,-109.97"/>
</g>
<!-- &#45;2&#45;&gt;84 -->
<g id="edge19" class="edge">
<title>&#45;2&#45;&gt;84</title>
<path fill="none" stroke="red" stroke-width="0.4" d="M683.18,-148.98C679.09,-147.71 674.54,-146.42 670.28,-145.54 529.29,-116.24 485.42,-153.45 348.28,-109.54 345.27,-108.57 342.21,-107.33 339.24,-105.95"/>
<polygon fill="red" stroke="red" stroke-width="0.4" points="340.59,-102.71 330.11,-101.19 337.35,-108.91 340.59,-102.71"/>
</g>
<!-- &#45;2&#45;&gt;85 -->
<g id="edge20" class="edge">
<title>&#45;2&#45;&gt;85</title>
<path fill="none" stroke="red" stroke-width="0.18" d="M697.17,-145.5C697.9,-138.88 698.98,-129.07 700.03,-119.53"/>
<polygon fill="red" stroke="red" stroke-width="0.18" points="703.52,-119.78 701.14,-109.45 696.57,-119.01 703.52,-119.78"/>
</g>
<!-- &#45;3 -->
<g id="node3" class="node">
<title>&#45;3</title>
<polygon fill="lightgray" stroke="black" points="834.28,-163.54 808.28,-163.54 808.28,-145.54 834.28,-145.54 834.28,-163.54"/>
<text text-anchor="middle" x="821.28" y="-152.34" font-family="Times-Roman" font-size="9.00">&#45;3</text>
</g>
<!-- &#45;3&#45;&gt;0 -->
<g id="edge112" class="edge">
<title>&#45;3&#45;&gt;0</title>
<path fill="none" stroke="red" stroke-width="0.18" d="M834.56,-153.21C903.93,-151.39 1222.62,-141.29 1251.28,-109.54 1263.5,-96.01 1263.58,-81.98 1251.28,-68.53 1191.38,-2.96 938.62,-57.11 853.28,-32.53 850.82,-31.82 848.33,-30.91 845.89,-29.88"/>
<polygon fill="red" stroke="red" stroke-width="0.18" points="847.4,-26.73 836.87,-25.56 844.37,-33.04 847.4,-26.73"/>
</g>
<!-- &#45;3&#45;&gt;1 -->
<g id="edge113" class="edge">
<title>&#45;3&#45;&gt;1</title>
<path fill="none" stroke="green" stroke-width="0.1" d="M834.57,-153.18C891.26,-151.19 1107.21,-138.94 1046.28,-68.53 1009.84,-26.42 853.12,-42.23 798.28,-32.53 782.53,-29.74 764.99,-26.09 751.05,-23.06"/>
<polygon fill="green" stroke="green" stroke-width="0.1" points="751.69,-19.62 741.18,-20.88 750.19,-26.45 751.69,-19.62"/>
</g>
<!-- &#45;3&#45;&gt;2 -->
<g id="edge114" class="edge">
<title>&#45;3&#45;&gt;2</title>
<path fill="none" stroke="red" stroke-width="0.47" d="M808.16,-151.22C763.6,-143.27 620.52,-117.25 614.28,-109.54 598.79,-90.4 604.69,-61.14 611.94,-40.72"/>
<polygon fill="red" stroke="red" stroke-width="0.47" points="615.27,-41.8 615.63,-31.21 608.75,-39.27 615.27,-41.8"/>
</g>
<!-- &#45;3&#45;&gt;3 -->
<g id="edge115" class="edge">
<title>&#45;3&#45;&gt;3</title>
<path fill="none" stroke="red" stroke-width="0.29" d="M834.31,-152.84C887.9,-149.52 1085.84,-132.75 1028.28,-68.53 979.34,-13.92 769.88,-55.6 700.28,-32.53 699.02,-32.11 697.76,-31.63 696.51,-31.09"/>
<polygon fill="red" stroke="red" stroke-width="0.29" points="697.75,-27.8 687.26,-26.32 694.54,-34.02 697.75,-27.8"/>
</g>
<!-- &#45;3&#45;&gt;4 -->
<g id="edge116" class="edge">
<title>&#45;3&#45;&gt;4</title>
<path fill="none" stroke="green" stroke-width="0.11" d="M834.35,-153.59C916.84,-153.76 1363.28,-152.68 1403.28,-109.54 1415.68,-96.17 1415.53,-82.03 1403.28,-68.53 1369.48,-31.26 1006.89,-20.2 904.86,-17.81"/>
<polygon fill="green" stroke="green" stroke-width="0.11" points="904.85,-14.31 894.77,-17.59 904.69,-21.31 904.85,-14.31"/>
</g>
<!-- &#45;3&#45;&gt;5 -->
<g id="edge117" class="edge">
<title>&#45;3&#45;&gt;5</title>
<path fill="none" stroke="red" stroke-width="0.16" d="M808.27,-151.18C798.63,-149.48 785.16,-147.2 773.28,-145.54 703.29,-135.73 504.34,-162.27 457.28,-109.54 445.14,-95.94 447.43,-83.87 457.28,-68.53 476.15,-39.14 516.53,-26.38 543.29,-21"/>
<polygon fill="red" stroke="red" stroke-width="0.16" points="543.93,-24.44 553.15,-19.22 542.69,-17.55 543.93,-24.44"/>
</g>
<!-- &#45;3&#45;&gt;76 -->
<g id="edge21" class="edge">
<title>&#45;3&#45;&gt;76</title>
<path fill="none" stroke="green" stroke-width="0.14" d="M828.75,-145.5C836.51,-137.14 849,-123.71 859.73,-112.15"/>
<polygon fill="green" stroke="green" stroke-width="0.14" points="862.57,-114.24 866.81,-104.54 857.44,-109.48 862.57,-114.24"/>
</g>
<!-- &#45;3&#45;&gt;77 -->
<g id="edge22" class="edge">
<title>&#45;3&#45;&gt;77</title>
<path fill="none" stroke="red" stroke-width="0.23" d="M834.54,-147.66C852.18,-139.68 884.19,-124.67 910.28,-109.54 911.59,-108.78 912.93,-107.98 914.26,-107.16"/>
<polygon fill="red" stroke="red" stroke-width="0.23" points="916.45,-109.92 922.96,-101.56 912.66,-104.03 916.45,-109.92"/>
</g>
<!-- &#45;3&#45;&gt;78 -->
<g id="edge23" class="edge">
<title>&#45;3&#45;&gt;78</title>
<path fill="none" stroke="red" stroke-width="0.18" d="M834.43,-151.03C860.88,-145.69 922,-131.83 969.28,-109.54 970.65,-108.89 972.03,-108.19 973.41,-107.44"/>
<polygon fill="red" stroke="red" stroke-width="0.18" points="975.5,-110.26 982.23,-102.08 971.87,-104.28 975.5,-110.26"/>
</g>
<!-- &#45;3&#45;&gt;79 -->
<g id="edge24" class="edge">
<title>&#45;3&#45;&gt;79</title>
<path fill="none" stroke="red" stroke-width="0.1" d="M808.26,-151.27C798.61,-149.62 785.14,-147.36 773.28,-145.54 659.28,-128.06 623.99,-150.78 516.28,-109.54 514.86,-109 513.45,-108.37 512.05,-107.69"/>
<polygon fill="red" stroke="red" stroke-width="0.1" points="513.54,-104.51 503.13,-102.55 510.04,-110.58 513.54,-104.51"/>
</g>
<!-- &#45;3&#45;&gt;80 -->
<g id="edge25" class="edge">
<title>&#45;3&#45;&gt;80</title>
<path fill="none" stroke="red" stroke-width="0.29" d="M808.04,-151.24C759.31,-142.74 592.17,-113.45 581.28,-109.54 578.3,-108.47 575.27,-107.16 572.31,-105.74"/>
<polygon fill="red" stroke="red" stroke-width="0.29" points="573.67,-102.5 563.2,-100.92 570.41,-108.69 573.67,-102.5"/>
</g>
<!-- &#45;3&#45;&gt;81 -->
<g id="edge26" class="edge">
<title>&#45;3&#45;&gt;81</title>
<path fill="none" stroke="green" stroke-width="0.14" d="M808.13,-151.03C781.69,-145.69 720.56,-131.83 673.28,-109.54 671.91,-108.89 670.53,-108.19 669.15,-107.44"/>
<polygon fill="green" stroke="green" stroke-width="0.14" points="670.69,-104.28 660.33,-102.08 667.06,-110.26 670.69,-104.28"/>
</g>
<!-- &#45;3&#45;&gt;82 -->
<g id="edge27" class="edge">
<title>&#45;3&#45;&gt;82</title>
<path fill="none" stroke="red" stroke-width="0.23" d="M813.81,-145.5C806.05,-137.14 793.57,-123.71 782.83,-112.15"/>
<polygon fill="red" stroke="red" stroke-width="0.23" points="785.13,-109.48 775.75,-104.54 780,-114.24 785.13,-109.48"/>
</g>
<!-- &#45;3&#45;&gt;83 -->
<g id="edge28" class="edge">
<title>&#45;3&#45;&gt;83</title>
<path fill="none" stroke="red" stroke-width="0.14" d="M821.28,-145.5C821.28,-138.93 821.28,-129.21 821.28,-119.74"/>
<polygon fill="red" stroke="red" stroke-width="0.14" points="824.78,-119.72 821.28,-109.72 817.78,-119.72 824.78,-119.72"/>
</g>
<!-- &#45;3&#45;&gt;85 -->
<g id="edge29" class="edge">
<title>&#45;3&#45;&gt;85</title>
<path fill="none" stroke="red" stroke-width="0.39" d="M808.03,-147.66C790.38,-139.68 758.37,-124.67 732.28,-109.54 730.97,-108.78 729.64,-107.98 728.3,-107.16"/>
<polygon fill="red" stroke="red" stroke-width="0.39" points="729.91,-104.03 719.6,-101.56 726.12,-109.92 729.91,-104.03"/>
</g>
<!-- &#45;4 -->
<g id="node4" class="node">
<title>&#45;4</title>
<polygon fill="lightgray" stroke="black" points="661.28,-163.54 635.28,-163.54 635.28,-145.54 661.28,-145.54 661.28,-163.54"/>
<text text-anchor="middle" x="648.28" y="-152.34" font-family="Times-Roman" font-size="9.00">&#45;4</text>
</g>
<!-- &#45;4&#45;&gt;0 -->
<g id="edge118" class="edge">
<title>&#45;4&#45;&gt;0</title>
<path fill="none" stroke="red" stroke-width="0.22" d="M661.38,-148.96C665.47,-147.68 670.02,-146.4 674.28,-145.54 751.78,-129.84 975.27,-168.21 1028.28,-109.54 1040.5,-96.01 1039.8,-82.65 1028.28,-68.53 978.11,-6.98 928.23,-58.77 853.28,-32.53 850.87,-31.68 848.4,-30.68 845.98,-29.6"/>
<polygon fill="red" stroke="red" stroke-width="0.22" points="847.5,-26.45 836.98,-25.21 844.43,-32.74 847.5,-26.45"/>
</g>
<!-- &#45;4&#45;&gt;1 -->
<g id="edge119" class="edge">
<title>&#45;4&#45;&gt;1</title>
<path fill="none" stroke="green" stroke-width="0.4" d="M634.99,-152.96C572.18,-150.09 307.15,-136.46 283.28,-109.54 271.19,-95.9 270.96,-81.96 283.28,-68.53 346,-0.14 610.87,-60.71 699.28,-32.53 700.54,-32.12 701.81,-31.65 703.07,-31.13"/>
<polygon fill="green" stroke="green" stroke-width="0.4" points="705.02,-34.06 712.32,-26.39 701.83,-27.83 705.02,-34.06"/>
</g>
<!-- &#45;4&#45;&gt;2 -->
<g id="edge120" class="edge">
<title>&#45;4&#45;&gt;2</title>
<path fill="none" stroke="green" stroke-width="0.34" d="M635.08,-153.66C548.63,-154.33 65.55,-155.96 22.28,-109.54 9.85,-96.21 9.8,-81.81 22.28,-68.53 65.87,-22.1 533.1,-50.19 594.28,-32.53 596.2,-31.97 598.13,-31.28 600.03,-30.48"/>
<polygon fill="green" stroke="green" stroke-width="0.34" points="601.72,-33.55 609.13,-25.97 598.61,-27.28 601.72,-33.55"/>
</g>
<!-- &#45;4&#45;&gt;3 -->
<g id="edge121" class="edge">
<title>&#45;4&#45;&gt;3</title>
<path fill="none" stroke="green" stroke-width="0.2" d="M635.17,-153.53C555.24,-153.32 135.89,-150.27 98.28,-109.54 85.92,-96.15 85.82,-81.83 98.28,-68.53 140.07,-23.91 588.7,-50.01 647.28,-32.53 648.77,-32.08 650.26,-31.55 651.73,-30.95"/>
<polygon fill="green" stroke="green" stroke-width="0.2" points="653.69,-33.88 661.08,-26.29 650.57,-27.62 653.69,-33.88"/>
</g>
<!-- &#45;4&#45;&gt;4 -->
<g id="edge122" class="edge">
<title>&#45;4&#45;&gt;4</title>
<path fill="none" stroke="green" stroke-width="0.27" d="M661.38,-148.95C665.46,-147.66 670.02,-146.39 674.28,-145.54 755.72,-129.24 990.45,-171.03 1046.28,-109.54 1058.53,-96.04 1057.13,-83.18 1046.28,-68.53 1013.58,-24.36 943.67,-16.97 905.14,-16.47"/>
<polygon fill="green" stroke="green" stroke-width="0.27" points="904.7,-12.97 894.71,-16.49 904.72,-19.97 904.7,-12.97"/>
</g>
<!-- &#45;4&#45;&gt;5 -->
<g id="edge123" class="edge">
<title>&#45;4&#45;&gt;5</title>
<path fill="none" stroke="red" stroke-width="0.2" d="M635.09,-153.68C547.62,-154.49 53.53,-156.94 9.28,-109.54 -3.16,-96.21 -3.01,-81.99 9.28,-68.53 45.63,-28.7 436.32,-19.43 542.68,-17.64"/>
<polygon fill="red" stroke="red" stroke-width="0.2" points="542.93,-21.14 552.88,-17.48 542.82,-14.14 542.93,-21.14"/>
</g>
<!-- &#45;4&#45;&gt;76 -->
<g id="edge30" class="edge">
<title>&#45;4&#45;&gt;76</title>
<path fill="none" stroke="green" stroke-width="0.32" d="M661.44,-149.22C665.53,-147.95 670.07,-146.61 674.28,-145.54 752.07,-125.71 777.23,-140.53 851.28,-109.54 852.68,-108.95 854.08,-108.3 855.48,-107.59"/>
<polygon fill="green" stroke="green" stroke-width="0.32" points="857.52,-110.45 864.36,-102.36 853.96,-104.42 857.52,-110.45"/>
</g>
<!-- &#45;4&#45;&gt;77 -->
<g id="edge31" class="edge">
<title>&#45;4&#45;&gt;77</title>
<path fill="none" stroke="red" stroke-width="0.44" d="M661.41,-149.09C665.5,-147.81 670.05,-146.51 674.28,-145.54 777.71,-121.87 811.43,-148.08 910.28,-109.54 911.69,-108.99 913.11,-108.36 914.51,-107.67"/>
<polygon fill="red" stroke="red" stroke-width="0.44" points="916.52,-110.55 923.42,-102.51 913.01,-104.49 916.52,-110.55"/>
</g>
<!-- &#45;4&#45;&gt;78 -->
<g id="edge32" class="edge">
<title>&#45;4&#45;&gt;78</title>
<path fill="none" stroke="green" stroke-width="0.23" d="M661.39,-149.01C665.48,-147.73 670.03,-146.44 674.28,-145.54 803.46,-118.01 845.52,-155.67 969.28,-109.54 970.7,-109.01 972.12,-108.4 973.53,-107.72"/>
<polygon fill="green" stroke="green" stroke-width="0.23" points="975.52,-110.62 982.46,-102.61 972.04,-104.54 975.52,-110.62"/>
</g>
<!-- &#45;4&#45;&gt;79 -->
<g id="edge33" class="edge">
<title>&#45;4&#45;&gt;79</title>
<path fill="none" stroke="red" stroke-width="0.19" d="M635.08,-150.41C610.79,-144.37 557.69,-129.9 516.28,-109.54 514.92,-108.87 513.55,-108.15 512.18,-107.38"/>
<polygon fill="red" stroke="red" stroke-width="0.19" points="513.73,-104.23 503.38,-101.98 510.07,-110.19 513.73,-104.23"/>
</g>
<!-- &#45;4&#45;&gt;80 -->
<g id="edge34" class="edge">
<title>&#45;4&#45;&gt;80</title>
<path fill="none" stroke="green" stroke-width="0.17" d="M635.36,-145.5C619.56,-135.66 592.41,-118.76 572.23,-106.19"/>
<polygon fill="green" stroke="green" stroke-width="0.17" points="573.85,-103.08 563.52,-100.76 570.16,-109.02 573.85,-103.08"/>
</g>
<!-- &#45;4&#45;&gt;81 -->
<g id="edge35" class="edge">
<title>&#45;4&#45;&gt;81</title>
<path fill="none" stroke="green" stroke-width="0.58" d="M647.77,-145.5C647.36,-138.93 646.75,-129.21 646.15,-119.74"/>
<polygon fill="green" stroke="green" stroke-width="0.58" points="649.64,-119.48 645.52,-109.72 642.66,-119.92 649.64,-119.48"/>
</g>
<!-- &#45;4&#45;&gt;82 -->
<g id="edge36" class="edge">
<title>&#45;4&#45;&gt;82</title>
<path fill="none" stroke="red" stroke-width="0.52" d="M661.49,-147.28C678.43,-139.14 708.55,-124.19 733.28,-109.54 734.59,-108.77 735.91,-107.96 737.25,-107.13"/>
<polygon fill="red" stroke="red" stroke-width="0.52" points="739.44,-109.88 745.93,-101.51 735.63,-104 739.44,-109.88"/>
</g>
<!-- &#45;4&#45;&gt;83 -->
<g id="edge37" class="edge">
<title>&#45;4&#45;&gt;83</title>
<path fill="none" stroke="red" stroke-width="0.21" d="M661.51,-149.46C665.6,-148.2 670.13,-146.81 674.28,-145.54 726.71,-129.48 742.77,-133.1 792.28,-109.54 793.65,-108.89 795.03,-108.18 796.4,-107.43"/>
<polygon fill="red" stroke="red" stroke-width="0.21" points="798.5,-110.25 805.22,-102.06 794.86,-104.27 798.5,-110.25"/>
</g>
<!-- &#45;4&#45;&gt;84 -->
<g id="edge38" class="edge">
<title>&#45;4&#45;&gt;84</title>
<path fill="none" stroke="red" stroke-width="0.12" d="M635.02,-153.29C592.28,-152.13 454.71,-145.64 348.28,-109.54 345.28,-108.52 342.24,-107.25 339.27,-105.84"/>
<polygon fill="red" stroke="red" stroke-width="0.12" points="340.63,-102.61 330.15,-101.06 337.38,-108.8 340.63,-102.61"/>
</g>
<!-- &#45;4&#45;&gt;85 -->
<g id="edge39" class="edge">
<title>&#45;4&#45;&gt;85</title>
<path fill="none" stroke="red" stroke-width="0.33" d="M655.25,-145.5C662.39,-137.25 673.82,-124.05 683.74,-112.6"/>
<polygon fill="red" stroke="red" stroke-width="0.33" points="686.39,-114.88 690.29,-105.03 681.1,-110.3 686.39,-114.88"/>
</g>
<!-- 76&#45;&gt;0 -->
<g id="edge40" class="edge">
<title>76&#45;&gt;0</title>
<path fill="none" stroke="red" stroke-width="0.48" d="M867.63,-72.33C859.37,-62.07 848.51,-48.59 839.6,-37.53"/>
<polygon fill="red" stroke="red" stroke-width="0.48" points="842.25,-35.23 833.25,-29.64 836.79,-39.62 842.25,-35.23"/>
</g>
<!-- 76&#45;&gt;1 -->
<g id="edge41" class="edge">
<title>76&#45;&gt;1</title>
<path fill="none" stroke="red" stroke-width="0.14" d="M864.08,-76.29C860.01,-73.57 855.57,-70.81 851.28,-68.53 817.57,-50.58 776.17,-34.85 750.25,-25.7"/>
<polygon fill="red" stroke="red" stroke-width="0.14" points="751.07,-22.28 740.47,-22.3 748.77,-28.89 751.07,-22.28"/>
</g>
<!-- 76&#45;&gt;2 -->
<g id="edge42" class="edge">
<title>76&#45;&gt;2</title>
<path fill="none" stroke="green" stroke-width="0.23" d="M864.39,-75.63C860.3,-72.93 855.78,-70.35 851.28,-68.53 766.74,-34.34 735.09,-63.41 649.28,-32.53 647.82,-32 646.35,-31.4 644.89,-30.75"/>
<polygon fill="green" stroke="green" stroke-width="0.23" points="646.08,-27.43 635.59,-25.96 642.88,-33.65 646.08,-27.43"/>
</g>
<!-- 76&#45;&gt;3 -->
<g id="edge43" class="edge">
<title>76&#45;&gt;3</title>
<path fill="none" stroke="red" stroke-width="0.22" d="M864.31,-75.81C860.23,-73.11 855.73,-70.48 851.28,-68.53 788.09,-40.83 764.29,-58.27 700.28,-32.53 699.05,-32.03 697.81,-31.49 696.57,-30.9"/>
<polygon fill="red" stroke="red" stroke-width="0.22" points="697.85,-27.62 687.39,-25.98 694.55,-33.79 697.85,-27.62"/>
</g>
<!-- 76&#45;&gt;4 -->
<g id="edge44" class="edge">
<title>76&#45;&gt;4</title>
<path fill="none" stroke="red" stroke-width="0.14" d="M879.72,-68.32C879.5,-60.38 879.24,-51.13 879,-42.69"/>
<polygon fill="red" stroke="red" stroke-width="0.14" points="882.5,-42.51 878.72,-32.61 875.5,-42.71 882.5,-42.51"/>
</g>
<!-- 76&#45;&gt;5 -->
<g id="edge45" class="edge">
<title>76&#45;&gt;5</title>
<path fill="none" stroke="red" stroke-width="0.14" d="M864.43,-75.52C860.34,-72.82 855.81,-70.27 851.28,-68.53 744.83,-27.67 705.51,-68.39 597.28,-32.53 595.39,-31.9 593.48,-31.15 591.58,-30.32"/>
<polygon fill="red" stroke="red" stroke-width="0.14" points="593.01,-27.12 582.51,-25.74 589.86,-33.37 593.01,-27.12"/>
</g>
<!-- 77&#45;&gt;0 -->
<g id="edge46" class="edge">
<title>77&#45;&gt;0</title>
<path fill="none" stroke="green" stroke-width="0.13" d="M922.83,-76.72C918.76,-73.99 914.39,-71.11 910.28,-68.53 888.76,-54.96 863.68,-40.3 845.99,-30.15"/>
<polygon fill="green" stroke="green" stroke-width="0.13" points="847.41,-26.93 837,-25.01 843.94,-33.01 847.41,-26.93"/>
</g>
<!-- 77&#45;&gt;1 -->
<g id="edge47" class="edge">
<title>77&#45;&gt;1</title>
<path fill="none" stroke="red" stroke-width="0.24" d="M923.26,-75.93C919.18,-73.22 914.69,-70.56 910.28,-68.53 881.68,-55.37 794.54,-33.71 750.84,-23.27"/>
<polygon fill="red" stroke="red" stroke-width="0.24" points="751.51,-19.83 740.97,-20.92 749.89,-26.64 751.51,-19.83"/>
</g>
<!-- 77&#45;&gt;2 -->
<g id="edge48" class="edge">
<title>77&#45;&gt;2</title>
<path fill="none" stroke="red" stroke-width="0.23" d="M923.44,-75.51C919.35,-72.81 914.82,-70.26 910.28,-68.53 800.88,-26.77 760.22,-70.01 649.28,-32.53 647.81,-32.03 646.34,-31.45 644.87,-30.82"/>
<polygon fill="red" stroke="red" stroke-width="0.23" points="646.05,-27.49 635.55,-26.08 642.87,-33.73 646.05,-27.49"/>
</g>
<!-- 77&#45;&gt;3 -->
<g id="edge49" class="edge">
<title>77&#45;&gt;3</title>
<path fill="none" stroke="green" stroke-width="0.34" d="M923.4,-75.61C919.31,-72.91 914.79,-70.33 910.28,-68.53 822.38,-33.32 789.23,-65.03 700.28,-32.53 699.04,-32.07 697.78,-31.56 696.54,-31"/>
<polygon fill="green" stroke="green" stroke-width="0.34" points="697.8,-27.71 687.32,-26.15 694.54,-33.91 697.8,-27.71"/>
</g>
<!-- 77&#45;&gt;4 -->
<g id="edge50" class="edge">
<title>77&#45;&gt;4</title>
<path fill="none" stroke="red" stroke-width="0.1" d="M926.35,-73.02C917.34,-62.58 905.24,-48.53 895.43,-37.15"/>
<polygon fill="red" stroke="red" stroke-width="0.1" points="897.95,-34.72 888.77,-29.43 892.65,-39.29 897.95,-34.72"/>
</g>
<!-- 77&#45;&gt;5 -->
<g id="edge51" class="edge">
<title>77&#45;&gt;5</title>
<path fill="none" stroke="red" stroke-width="0.36" d="M923.47,-75.43C919.38,-72.74 914.84,-70.21 910.28,-68.53 778.9,-20.08 730.77,-74.82 597.28,-32.53 595.38,-31.92 593.46,-31.19 591.57,-30.37"/>
<polygon fill="red" stroke="red" stroke-width="0.36" points="592.99,-27.17 582.48,-25.82 589.85,-33.43 592.99,-27.17"/>
</g>
<!-- 78&#45;&gt;0 -->
<g id="edge52" class="edge">
<title>78&#45;&gt;0</title>
<path fill="none" stroke="green" stroke-width="0.42" d="M982.22,-76.02C978.13,-73.31 973.66,-70.62 969.28,-68.53 920.59,-45.22 903.3,-52.84 853.28,-32.53 850.91,-31.56 848.48,-30.49 846.07,-29.36"/>
<polygon fill="green" stroke="green" stroke-width="0.42" points="847.61,-26.21 837.09,-24.91 844.5,-32.49 847.61,-26.21"/>
</g>
<!-- 78&#45;&gt;1 -->
<g id="edge53" class="edge">
<title>78&#45;&gt;1</title>
<path fill="none" stroke="red" stroke-width="0.27" d="M982.35,-75.73C978.26,-73.03 973.75,-70.42 969.28,-68.53 968.65,-68.26 813.8,-35.81 751.14,-22.68"/>
<polygon fill="red" stroke="red" stroke-width="0.27" points="751.75,-19.23 741.24,-20.61 750.31,-26.08 751.75,-19.23"/>
</g>
<!-- 78&#45;&gt;2 -->
<g id="edge54" class="edge">
<title>78&#45;&gt;2</title>
<path fill="none" stroke="red" stroke-width="0.1" d="M982.47,-75.42C978.38,-72.73 973.84,-70.2 969.28,-68.53 834.94,-19.17 785.44,-76.63 649.28,-32.53 647.81,-32.05 646.33,-31.49 644.85,-30.86"/>
<polygon fill="red" stroke="red" stroke-width="0.1" points="646.03,-27.54 635.52,-26.15 642.87,-33.78 646.03,-27.54"/>
</g>
<!-- 78&#45;&gt;3 -->
<g id="edge55" class="edge">
<title>78&#45;&gt;3</title>
<path fill="none" stroke="green" stroke-width="0.29" d="M982.44,-75.49C978.35,-72.8 973.82,-70.25 969.28,-68.53 856.5,-25.74 814.32,-71.84 700.28,-32.53 699.03,-32.1 697.77,-31.6 696.52,-31.06"/>
<polygon fill="green" stroke="green" stroke-width="0.29" points="697.77,-27.76 687.28,-26.26 694.54,-33.97 697.77,-27.76"/>
</g>
<!-- 78&#45;&gt;4 -->
<g id="edge56" class="edge">
<title>78&#45;&gt;4</title>
<path fill="none" stroke="red" stroke-width="0.4" d="M981.87,-76.66C977.79,-73.94 973.41,-71.07 969.28,-68.53 946.54,-54.51 919.84,-39.65 901.26,-29.55"/>
<polygon fill="red" stroke="red" stroke-width="0.4" points="902.82,-26.42 892.36,-24.74 899.49,-32.57 902.82,-26.42"/>
</g>
<!-- 78&#45;&gt;5 -->
<g id="edge57" class="edge">
<title>78&#45;&gt;5</title>
<path fill="none" stroke="red" stroke-width="0.27" d="M982.79,-75.58C978.62,-72.81 973.97,-70.21 969.28,-68.53 812.92,-12.46 756.08,-81.26 597.28,-32.53 595.38,-31.94 593.45,-31.22 591.55,-30.41"/>
<polygon fill="red" stroke="red" stroke-width="0.27" points="592.98,-27.21 582.47,-25.87 589.85,-33.47 592.98,-27.21"/>
</g>
<!-- 79&#45;&gt;0 -->
<g id="edge58" class="edge">
<title>79&#45;&gt;0</title>
<path fill="none" stroke="red" stroke-width="0.13" d="M503.14,-75.56C507.23,-72.86 511.76,-70.29 516.28,-68.53 614.29,-30.24 646.75,-51.3 750.28,-32.53 766.02,-29.67 783.56,-26.02 797.51,-23"/>
<polygon fill="red" stroke="red" stroke-width="0.13" points="798.36,-26.4 807.38,-20.84 796.86,-19.56 798.36,-26.4"/>
</g>
<!-- 79&#45;&gt;1 -->
<g id="edge59" class="edge">
<title>79&#45;&gt;1</title>
<path fill="none" stroke="red" stroke-width="0.12" d="M503.2,-75.69C507.28,-72.99 511.8,-70.39 516.28,-68.53 592.85,-36.77 621.78,-61.92 699.28,-32.53 700.52,-32.06 701.77,-31.53 703.01,-30.96"/>
<polygon fill="red" stroke="red" stroke-width="0.12" points="705.02,-33.86 712.22,-26.09 701.74,-27.68 705.02,-33.86"/>
</g>
<!-- 79&#45;&gt;2 -->
<g id="edge60" class="edge">
<title>79&#45;&gt;2</title>
<path fill="none" stroke="red" stroke-width="0.15" d="M503.56,-76.42C507.63,-73.7 512.05,-70.91 516.28,-68.53 549.56,-49.81 560.17,-49.67 594.28,-32.53 595.88,-31.72 597.52,-30.88 599.17,-30.02"/>
<polygon fill="red" stroke="red" stroke-width="0.15" points="601.26,-32.87 608.42,-25.06 597.95,-26.7 601.26,-32.87"/>
</g>
<!-- 79&#45;&gt;3 -->
<g id="edge61" class="edge">
<title>79&#45;&gt;3</title>
<path fill="none" stroke="red" stroke-width="0.15" d="M503.3,-75.92C507.38,-73.22 511.87,-70.55 516.28,-68.53 571.16,-43.35 591.47,-55.56 647.28,-32.53 648.71,-31.94 650.16,-31.29 651.61,-30.6"/>
<polygon fill="red" stroke="red" stroke-width="0.15" points="653.67,-33.47 660.87,-25.7 650.4,-27.28 653.67,-33.47"/>
</g>
<!-- 79&#45;&gt;4 -->
<g id="edge62" class="edge">
<title>79&#45;&gt;4</title>
<path fill="none" stroke="red" stroke-width="0.24" d="M503.09,-75.41C507.18,-72.72 511.72,-70.19 516.28,-68.53 655.7,-17.62 706.03,-74.87 848.28,-32.53 850.73,-31.8 853.22,-30.87 855.66,-29.84"/>
<polygon fill="red" stroke="red" stroke-width="0.24" points="857.18,-32.99 864.68,-25.5 854.15,-26.68 857.18,-32.99"/>
</g>
<!-- 79&#45;&gt;5 -->
<g id="edge63" class="edge">
<title>79&#45;&gt;5</title>
<path fill="none" stroke="red" stroke-width="0.15" d="M502.32,-75.05C515.54,-63.64 534.87,-46.96 549.37,-34.45"/>
<polygon fill="red" stroke="red" stroke-width="0.15" points="551.98,-36.82 557.27,-27.63 547.41,-31.52 551.98,-36.82"/>
</g>
<!-- 80&#45;&gt;0 -->
<g id="edge64" class="edge">
<title>80&#45;&gt;0</title>
<path fill="none" stroke="red" stroke-width="0.16" d="M565.87,-82.2C579.42,-78.21 597.9,-72.88 614.28,-68.53 680.1,-51.02 758.15,-32.45 797.65,-23.21"/>
<polygon fill="red" stroke="red" stroke-width="0.16" points="798.55,-26.59 807.5,-20.91 796.96,-19.78 798.55,-26.59"/>
</g>
<!-- 80&#45;&gt;1 -->
<g id="edge65" class="edge">
<title>80&#45;&gt;1</title>
<path fill="none" stroke="red" stroke-width="0.15" d="M566.07,-82.13C595.68,-73.02 653,-54.29 699.28,-32.53 700.45,-31.98 701.64,-31.39 702.83,-30.78"/>
<polygon fill="red" stroke="red" stroke-width="0.15" points="704.72,-33.73 711.77,-25.82 701.33,-27.61 704.72,-33.73"/>
</g>
<!-- 80&#45;&gt;2 -->
<g id="edge66" class="edge">
<title>80&#45;&gt;2</title>
<path fill="none" stroke="green" stroke-width="0.2" d="M560.94,-74.39C572.94,-63.21 590.01,-47.31 603.1,-35.12"/>
<polygon fill="green" stroke="green" stroke-width="0.2" points="605.72,-37.47 610.66,-28.09 600.95,-32.34 605.72,-37.47"/>
</g>
<!-- 80&#45;&gt;3 -->
<g id="edge67" class="edge">
<title>80&#45;&gt;3</title>
<path fill="none" stroke="green" stroke-width="0.22" d="M564.2,-78.27C584.42,-67.24 618.27,-48.7 647.28,-32.53 648.77,-31.7 650.3,-30.84 651.84,-29.97"/>
<polygon fill="green" stroke="green" stroke-width="0.22" points="653.57,-33.02 660.56,-25.06 650.13,-26.92 653.57,-33.02"/>
</g>
<!-- 80&#45;&gt;4 -->
<g id="edge68" class="edge">
<title>80&#45;&gt;4</title>
<path fill="none" stroke="green" stroke-width="0.18" d="M565.75,-81.74C579.26,-77.54 597.73,-72.16 614.28,-68.53 717.06,-45.97 748.13,-64.79 848.28,-32.53 850.72,-31.74 853.19,-30.78 855.63,-29.73"/>
<polygon fill="green" stroke="green" stroke-width="0.18" points="857.16,-32.87 864.63,-25.36 854.11,-26.57 857.16,-32.87"/>
</g>
<!-- 80&#45;&gt;5 -->
<g id="edge69" class="edge">
<title>80&#45;&gt;5</title>
<path fill="none" stroke="red" stroke-width="0.47" d="M552.45,-69.07C555.19,-60.62 558.46,-50.57 561.38,-41.57"/>
<polygon fill="red" stroke="red" stroke-width="0.47" points="564.72,-42.61 564.49,-32.02 558.07,-40.44 564.72,-42.61"/>
</g>
<!-- 81&#45;&gt;0 -->
<g id="edge70" class="edge">
<title>81&#45;&gt;0</title>
<path fill="none" stroke="red" stroke-width="0.23" d="M660.39,-76.11C664.47,-73.4 668.93,-70.69 673.28,-68.53 714.96,-47.84 767.01,-32.12 797.55,-23.83"/>
<polygon fill="red" stroke="red" stroke-width="0.23" points="798.64,-27.16 807.41,-21.21 796.85,-20.39 798.64,-27.16"/>
</g>
<!-- 81&#45;&gt;1 -->
<g id="edge71" class="edge">
<title>81&#45;&gt;1</title>
<path fill="none" stroke="red" stroke-width="0.13" d="M659.52,-74.72C672.62,-63.27 691.59,-46.7 705.8,-34.29"/>
<polygon fill="red" stroke="red" stroke-width="0.13" points="708.3,-36.75 713.53,-27.53 703.7,-31.48 708.3,-36.75"/>
</g>
<!-- 81&#45;&gt;2 -->
<g id="edge72" class="edge">
<title>81&#45;&gt;2</title>
<path fill="none" stroke="green" stroke-width="0.14" d="M638.39,-69.07C635.76,-60.62 632.63,-50.57 629.84,-41.57"/>
<polygon fill="green" stroke="green" stroke-width="0.14" points="633.18,-40.53 626.87,-32.02 626.49,-42.6 633.18,-40.53"/>
</g>
<!-- 81&#45;&gt;3 -->
<g id="edge73" class="edge">
<title>81&#45;&gt;3</title>
<path fill="none" stroke="green" stroke-width="0.26" d="M652.01,-69.81C655.77,-60.93 660.34,-50.16 664.36,-40.68"/>
<polygon fill="green" stroke="green" stroke-width="0.26" points="667.61,-41.98 668.29,-31.41 661.16,-39.25 667.61,-41.98"/>
</g>
<!-- 81&#45;&gt;4 -->
<g id="edge74" class="edge">
<title>81&#45;&gt;4</title>
<path fill="none" stroke="green" stroke-width="0.54" d="M660.21,-75.72C664.3,-73.02 668.81,-70.41 673.28,-68.53 746.5,-37.79 773.34,-58.77 848.28,-32.53 850.69,-31.68 853.16,-30.68 855.59,-29.6"/>
<polygon fill="green" stroke="green" stroke-width="0.54" points="857.13,-32.74 864.58,-25.21 854.06,-26.45 857.13,-32.74"/>
</g>
<!-- 81&#45;&gt;5 -->
<g id="edge75" class="edge">
<title>81&#45;&gt;5</title>
<path fill="none" stroke="red" stroke-width="0.27" d="M629.82,-74.39C617.98,-63.21 601.13,-47.31 588.21,-35.12"/>
<polygon fill="red" stroke="red" stroke-width="0.27" points="590.43,-32.41 580.75,-28.09 585.63,-37.5 590.43,-32.41"/>
</g>
<!-- 82&#45;&gt;0 -->
<g id="edge76" class="edge">
<title>82&#45;&gt;0</title>
<path fill="none" stroke="green" stroke-width="0.2" d="M775.22,-73.02C784.22,-62.58 796.33,-48.53 806.14,-37.15"/>
<polygon fill="green" stroke="green" stroke-width="0.2" points="808.92,-39.29 812.8,-29.43 803.62,-34.72 808.92,-39.29"/>
</g>
<!-- 82&#45;&gt;1 -->
<g id="edge77" class="edge">
<title>82&#45;&gt;1</title>
<path fill="none" stroke="green" stroke-width="0.24" d="M753.14,-70.54C748.34,-61.36 742.39,-50 737.23,-40.13"/>
<polygon fill="green" stroke="green" stroke-width="0.24" points="740.32,-38.48 732.59,-31.24 734.12,-41.72 740.32,-38.48"/>
</g>
<!-- 82&#45;&gt;2 -->
<g id="edge78" class="edge">
<title>82&#45;&gt;2</title>
<path fill="none" stroke="red" stroke-width="0.24" d="M746.05,-76.34C741.98,-73.62 737.54,-70.85 733.28,-68.53 697.61,-49.11 685.68,-50.55 649.28,-32.53 647.76,-31.77 646.19,-30.97 644.63,-30.14"/>
<polygon fill="red" stroke="red" stroke-width="0.24" points="646.31,-27.07 635.86,-25.32 642.94,-33.21 646.31,-27.07"/>
</g>
<!-- 82&#45;&gt;3 -->
<g id="edge79" class="edge">
<title>82&#45;&gt;3</title>
<path fill="none" stroke="green" stroke-width="0.23" d="M746.55,-75.38C732.03,-63.71 710.4,-46.31 694.58,-33.59"/>
<polygon fill="green" stroke="green" stroke-width="0.23" points="696.47,-30.61 686.48,-27.07 692.08,-36.07 696.47,-30.61"/>
</g>
<!-- 82&#45;&gt;4 -->
<g id="edge80" class="edge">
<title>82&#45;&gt;4</title>
<path fill="none" stroke="green" stroke-width="0.15" d="M778.73,-76.72C782.8,-73.99 787.17,-71.11 791.28,-68.53 812.81,-54.96 837.89,-40.3 855.57,-30.15"/>
<polygon fill="green" stroke="green" stroke-width="0.15" points="857.62,-33.01 864.57,-25.01 854.15,-26.93 857.62,-33.01"/>
</g>
<!-- 82&#45;&gt;5 -->
<g id="edge81" class="edge">
<title>82&#45;&gt;5</title>
<path fill="none" stroke="green" stroke-width="0.35" d="M746.28,-75.89C742.19,-73.19 737.7,-70.53 733.28,-68.53 676.33,-42.72 655.37,-55.66 597.28,-32.53 595.62,-31.87 593.93,-31.13 592.25,-30.34"/>
<polygon fill="green" stroke="green" stroke-width="0.35" points="593.41,-27.01 582.92,-25.55 590.22,-33.23 593.41,-27.01"/>
</g>
<!-- 83&#45;&gt;0 -->
<g id="edge82" class="edge">
<title>83&#45;&gt;0</title>
<path fill="none" stroke="red" stroke-width="0.4" d="M821.84,-68.32C822.06,-60.38 822.32,-51.13 822.56,-42.69"/>
<polygon fill="red" stroke="red" stroke-width="0.4" points="826.06,-42.71 822.85,-32.61 819.07,-42.51 826.06,-42.71"/>
</g>
<!-- 83&#45;&gt;1 -->
<g id="edge83" class="edge">
<title>83&#45;&gt;1</title>
<path fill="none" stroke="green" stroke-width="0.41" d="M805,-76.03C788.87,-64.14 764.1,-45.88 746.45,-32.87"/>
<polygon fill="green" stroke="green" stroke-width="0.41" points="748.09,-29.73 737.96,-26.61 743.93,-35.36 748.09,-29.73"/>
</g>
<!-- 83&#45;&gt;2 -->
<g id="edge84" class="edge">
<title>83&#45;&gt;2</title>
<path fill="none" stroke="green" stroke-width="0.46" d="M805.29,-75.85C801.21,-73.15 796.72,-70.5 792.28,-68.53 732.42,-41.84 710.13,-56.87 649.28,-32.53 647.84,-31.95 646.39,-31.31 644.94,-30.63"/>
<polygon fill="green" stroke="green" stroke-width="0.46" points="646.14,-27.31 635.66,-25.76 642.89,-33.51 646.14,-27.31"/>
</g>
<!-- 83&#45;&gt;3 -->
<g id="edge85" class="edge">
<title>83&#45;&gt;3</title>
<path fill="none" stroke="red" stroke-width="0.24" d="M805.1,-76.25C801.03,-73.53 796.58,-70.78 792.28,-68.53 753.39,-48.15 739.78,-51.7 700.28,-32.53 699.12,-31.96 697.93,-31.36 696.75,-30.74"/>
<polygon fill="red" stroke="red" stroke-width="0.24" points="698.26,-27.58 687.82,-25.76 694.85,-33.69 698.26,-27.58"/>
</g>
<!-- 83&#45;&gt;4 -->
<g id="edge86" class="edge">
<title>83&#45;&gt;4</title>
<path fill="none" stroke="red" stroke-width="0.18" d="M833.93,-72.33C842.19,-62.07 853.05,-48.59 861.96,-37.53"/>
<polygon fill="red" stroke="red" stroke-width="0.18" points="864.77,-39.62 868.32,-29.64 859.32,-35.23 864.77,-39.62"/>
</g>
<!-- 83&#45;&gt;5 -->
<g id="edge87" class="edge">
<title>83&#45;&gt;5</title>
<path fill="none" stroke="green" stroke-width="0.16" d="M805.38,-75.65C801.29,-72.95 796.78,-70.36 792.28,-68.53 710.68,-35.24 680.34,-61.99 597.28,-32.53 595.6,-31.93 593.89,-31.24 592.19,-30.49"/>
<polygon fill="green" stroke="green" stroke-width="0.16" points="593.34,-27.15 582.84,-25.77 590.19,-33.4 593.34,-27.15"/>
</g>
<!-- 84&#45;&gt;0 -->
<g id="edge88" class="edge">
<title>84&#45;&gt;0</title>
<path fill="none" stroke="green" stroke-width="0.26" d="M333.78,-85.18C361.7,-81.3 413.25,-74.21 457.28,-68.53 587.4,-51.72 620.84,-53.97 750.28,-32.53 766.16,-29.9 783.83,-26.22 797.81,-23.14"/>
<polygon fill="green" stroke="green" stroke-width="0.26" points="798.7,-26.52 807.69,-20.92 797.17,-19.69 798.7,-26.52"/>
</g>
<!-- 84&#45;&gt;1 -->
<g id="edge89" class="edge">
<title>84&#45;&gt;1</title>
<path fill="none" stroke="red" stroke-width="0.4" d="M332.62,-82.03C347.23,-77.71 367.85,-72.03 386.28,-68.53 523.85,-42.38 566.48,-76.93 699.28,-32.53 700.54,-32.11 701.8,-31.62 703.05,-31.09"/>
<polygon fill="red" stroke="red" stroke-width="0.4" points="705.02,-34.01 712.3,-26.31 701.81,-27.79 705.02,-34.01"/>
</g>
<!-- 84&#45;&gt;2 -->
<g id="edge90" class="edge">
<title>84&#45;&gt;2</title>
<path fill="none" stroke="green" stroke-width="0.17" d="M330.15,-77.01C335.72,-73.81 342.09,-70.63 348.28,-68.53 452.93,-33.05 489.47,-67.52 594.28,-32.53 596.17,-31.9 598.08,-31.14 599.98,-30.31"/>
<polygon fill="green" stroke="green" stroke-width="0.17" points="601.7,-33.36 609.05,-25.73 598.54,-27.11 601.7,-33.36"/>
</g>
<!-- 84&#45;&gt;3 -->
<g id="edge91" class="edge">
<title>84&#45;&gt;3</title>
<path fill="none" stroke="green" stroke-width="0.27" d="M330.12,-76.91C335.69,-73.71 342.06,-70.55 348.28,-68.53 475.58,-27.17 520.11,-74.27 647.28,-32.53 648.75,-32.04 650.23,-31.48 651.7,-30.85"/>
<polygon fill="green" stroke="green" stroke-width="0.27" points="653.69,-33.77 661.03,-26.13 650.53,-27.52 653.69,-33.77"/>
</g>
<!-- 84&#45;&gt;4 -->
<g id="edge92" class="edge">
<title>84&#45;&gt;4</title>
<path fill="none" stroke="red" stroke-width="0.5" d="M333.75,-84.98C361.65,-80.88 413.16,-73.54 457.28,-68.53 630.68,-48.81 680.62,-80.96 848.28,-32.53 850.74,-31.82 853.23,-30.9 855.68,-29.88"/>
<polygon fill="red" stroke="red" stroke-width="0.5" points="857.19,-33.03 864.69,-25.55 854.16,-26.72 857.19,-33.03"/>
</g>
<!-- 84&#45;&gt;5 -->
<g id="edge93" class="edge">
<title>84&#45;&gt;5</title>
<path fill="none" stroke="green" stroke-width="0.27" d="M330.26,-77.31C335.84,-74.14 342.18,-70.88 348.28,-68.53 416.23,-42.31 501.32,-27.22 543.34,-20.86"/>
<polygon fill="green" stroke="green" stroke-width="0.27" points="543.91,-24.32 553.29,-19.4 542.89,-17.39 543.91,-24.32"/>
</g>
<!-- 85&#45;&gt;0 -->
<g id="edge94" class="edge">
<title>85&#45;&gt;0</title>
<path fill="none" stroke="red" stroke-width="0.29" d="M719.7,-76.66C723.77,-73.94 728.15,-71.07 732.28,-68.53 755.02,-54.51 781.72,-39.65 800.3,-29.55"/>
<polygon fill="red" stroke="red" stroke-width="0.29" points="802.07,-32.57 809.21,-24.74 798.75,-26.42 802.07,-32.57"/>
</g>
<!-- 85&#45;&gt;1 -->
<g id="edge95" class="edge">
<title>85&#45;&gt;1</title>
<path fill="none" stroke="green" stroke-width="0.29" d="M709.18,-69.07C711.8,-60.62 714.93,-50.57 717.72,-41.57"/>
<polygon fill="green" stroke="green" stroke-width="0.29" points="721.07,-42.6 720.7,-32.02 714.38,-40.53 721.07,-42.6"/>
</g>
<!-- 85&#45;&gt;2 -->
<g id="edge96" class="edge">
<title>85&#45;&gt;2</title>
<path fill="none" stroke="red" stroke-width="0.24" d="M688.05,-74.72C674.94,-63.27 655.97,-46.7 641.77,-34.29"/>
<polygon fill="red" stroke="red" stroke-width="0.24" points="643.87,-31.48 634.03,-27.53 639.26,-36.75 643.87,-31.48"/>
</g>
<!-- 85&#45;&gt;3 -->
<g id="edge97" class="edge">
<title>85&#45;&gt;3</title>
<path fill="none" stroke="green" stroke-width="0.17" d="M695.81,-69.81C692.26,-61.15 687.97,-50.67 684.16,-41.37"/>
<polygon fill="green" stroke="green" stroke-width="0.17" points="687.29,-39.79 680.26,-31.86 680.82,-42.44 687.29,-39.79"/>
</g>
<!-- 85&#45;&gt;4 -->
<g id="edge98" class="edge">
<title>85&#45;&gt;4</title>
<path fill="none" stroke="red" stroke-width="0.15" d="M719.35,-76.02C723.43,-73.31 727.9,-70.62 732.28,-68.53 780.97,-45.22 798.27,-52.84 848.28,-32.53 850.65,-31.56 853.09,-30.49 855.5,-29.36"/>
<polygon fill="red" stroke="red" stroke-width="0.15" points="857.06,-32.49 864.47,-24.91 853.96,-26.21 857.06,-32.49"/>
</g>
<!-- 85&#45;&gt;5 -->
<g id="edge99" class="edge">
<title>85&#45;&gt;5</title>
<path fill="none" stroke="green" stroke-width="0.36" d="M687,-76.44C682.92,-73.72 678.51,-70.92 674.28,-68.53 641.4,-49.93 630.99,-49.58 597.28,-32.53 595.69,-31.72 594.05,-30.87 592.4,-30.01"/>
<polygon fill="green" stroke="green" stroke-width="0.36" points="593.62,-26.69 583.15,-25.04 590.3,-32.86 593.62,-26.69"/>
</g>
</g>
</svg>
