<?xml version="1.0" encoding="UTF-8" standalone="no"?>
<!DOCTYPE svg PUBLIC "-//W3C//DTD SVG 1.1//EN"
 "http://www.w3.org/Graphics/SVG/1.1/DTD/svg11.dtd">
<!-- Generated by graphviz version 2.44.0 (0)
 -->
<!-- Pages: 1 -->
<svg width="1749pt" height="180pt"
 viewBox="0.00 0.00 1748.99 180.02" xmlns="http://www.w3.org/2000/svg" xmlns:xlink="http://www.w3.org/1999/xlink">
<g id="graph0" class="graph" transform="scale(1 1) rotate(0) translate(4 176.02)">
<polygon fill="white" stroke="transparent" points="-4,4 -4,-176.02 1744.99,-176.02 1744.99,4 -4,4"/>
<!-- &#45;1 -->
<g id="node1" class="node">
<title>&#45;1</title>
<polygon fill="lightgray" stroke="black" points="651.24,-172.02 625.24,-172.02 625.24,-154.02 651.24,-154.02 651.24,-172.02"/>
<text text-anchor="middle" x="638.24" y="-160.82" font-family="Times-Roman" font-size="9.00">&#45;1</text>
</g>
<!-- 0 -->
<g id="node5" class="node">
<title>0</title>
<ellipse fill="lightblue" stroke="black" cx="657.24" cy="-16.26" rx="16.03" ry="16.03"/>
<text text-anchor="middle" x="657.24" y="-14.06" font-family="Times-Roman" font-size="9.00">0</text>
</g>
<!-- &#45;1&#45;&gt;0 -->
<g id="edge120" class="edge">
<title>&#45;1&#45;&gt;0</title>
<path fill="none" stroke="green" stroke-width="0.11" d="M625.06,-161.59C558.94,-159.29 265.63,-147.48 239.24,-118.02 224.56,-101.64 224.41,-84.78 239.24,-68.53 298.2,-3.9 547.97,-59.31 631.24,-32.53 632.5,-32.12 633.77,-31.65 635.03,-31.12"/>
<polygon fill="green" stroke="green" stroke-width="0.11" points="636.98,-34.05 644.28,-26.37 633.78,-27.82 636.98,-34.05"/>
</g>
<!-- 1 -->
<g id="node6" class="node">
<title>1</title>
<ellipse fill="lightblue" stroke="black" cx="708.24" cy="-16.26" rx="16.03" ry="16.03"/>
<text text-anchor="middle" x="708.24" y="-14.06" font-family="Times-Roman" font-size="9.00">1</text>
</g>
<!-- &#45;1&#45;&gt;1 -->
<g id="edge121" class="edge">
<title>&#45;1&#45;&gt;1</title>
<path fill="none" stroke="green" stroke-width="0.21" d="M625,-161.58C580.56,-159.8 437.89,-151.52 410.24,-118.02 396.24,-101.06 395.74,-85.07 410.24,-68.53 450.43,-22.67 624.58,-52.35 682.24,-32.53 683.49,-32.1 684.75,-31.6 686.01,-31.06"/>
<polygon fill="green" stroke="green" stroke-width="0.21" points="687.98,-33.98 695.24,-26.26 684.75,-27.77 687.98,-33.98"/>
</g>
<!-- 2 -->
<g id="node7" class="node">
<title>2</title>
<ellipse fill="lightblue" stroke="black" cx="759.24" cy="-16.26" rx="16.03" ry="16.03"/>
<text text-anchor="middle" x="759.24" y="-14.06" font-family="Times-Roman" font-size="9.00">2</text>
</g>
<!-- &#45;1&#45;&gt;2 -->
<g id="edge122" class="edge">
<title>&#45;1&#45;&gt;2</title>
<path fill="none" stroke="green" stroke-width="0.25" d="M625.22,-161.42C582.82,-159.14 449.95,-149.55 424.24,-118.02 410.34,-100.97 409.61,-84.96 424.24,-68.53 470.21,-16.89 667.69,-54.5 733.24,-32.53 734.5,-32.11 735.76,-31.62 737.01,-31.08"/>
<polygon fill="green" stroke="green" stroke-width="0.25" points="738.98,-34.01 746.26,-26.31 735.77,-27.79 738.98,-34.01"/>
</g>
<!-- 3 -->
<g id="node8" class="node">
<title>3</title>
<ellipse fill="lightblue" stroke="black" cx="916.24" cy="-16.26" rx="16.03" ry="16.03"/>
<text text-anchor="middle" x="916.24" y="-14.06" font-family="Times-Roman" font-size="9.00">3</text>
</g>
<!-- &#45;1&#45;&gt;3 -->
<g id="edge123" class="edge">
<title>&#45;1&#45;&gt;3</title>
<path fill="none" stroke="green" stroke-width="0.2" d="M651.41,-157.88C656.34,-156.46 662,-154.99 667.24,-154.02 748.25,-139.01 980.88,-179.05 1036.24,-118.02 1051.02,-101.73 1048.36,-86.89 1036.24,-68.53 1015.54,-37.18 971.31,-24.93 942.72,-20.2"/>
<polygon fill="green" stroke="green" stroke-width="0.2" points="943.01,-16.7 932.61,-18.72 942,-23.63 943.01,-16.7"/>
</g>
<!-- 4 -->
<g id="node9" class="node">
<title>4</title>
<ellipse fill="lightblue" stroke="black" cx="555.24" cy="-16.26" rx="16.03" ry="16.03"/>
<text text-anchor="middle" x="555.24" y="-14.06" font-family="Times-Roman" font-size="9.00">4</text>
</g>
<!-- &#45;1&#45;&gt;4 -->
<g id="edge124" class="edge">
<title>&#45;1&#45;&gt;4</title>
<path fill="none" stroke="red" stroke-width="0.15" d="M624.99,-161.7C555.79,-159.86 237.84,-149.7 209.24,-118.02 117.81,-16.74 433.29,-14.9 528.72,-16.57"/>
<polygon fill="red" stroke="red" stroke-width="0.15" points="528.67,-20.07 538.73,-16.78 528.81,-13.08 528.67,-20.07"/>
</g>
<!-- 5 -->
<g id="node10" class="node">
<title>5</title>
<ellipse fill="lightblue" stroke="black" cx="606.24" cy="-16.26" rx="16.03" ry="16.03"/>
<text text-anchor="middle" x="606.24" y="-14.06" font-family="Times-Roman" font-size="9.00">5</text>
</g>
<!-- &#45;1&#45;&gt;5 -->
<g id="edge125" class="edge">
<title>&#45;1&#45;&gt;5</title>
<path fill="none" stroke="red" stroke-width="0.27" d="M625.01,-161.65C557.31,-159.58 251.73,-148.59 224.24,-118.02 209.53,-101.67 209.49,-84.85 224.24,-68.53 277.56,-9.54 504.66,-57.22 580.24,-32.53 581.5,-32.12 582.77,-31.64 584.02,-31.11"/>
<polygon fill="red" stroke="red" stroke-width="0.27" points="585.98,-34.04 593.27,-26.35 582.78,-27.81 585.98,-34.04"/>
</g>
<!-- 6 -->
<g id="node11" class="node">
<title>6</title>
<ellipse fill="lightblue" stroke="black" cx="861.24" cy="-16.26" rx="16.03" ry="16.03"/>
<text text-anchor="middle" x="861.24" y="-14.06" font-family="Times-Roman" font-size="9.00">6</text>
</g>
<!-- &#45;1&#45;&gt;6 -->
<g id="edge126" class="edge">
<title>&#45;1&#45;&gt;6</title>
<path fill="none" stroke="green" stroke-width="0.26" d="M651.42,-157.89C656.34,-156.48 662.01,-155.01 667.24,-154.02 744.08,-139.58 964.86,-176.07 1017.24,-118.02 1031.98,-101.69 1030.49,-86.09 1017.24,-68.53 982.17,-22.03 945.45,-53.83 891.24,-32.53 888.86,-31.59 886.42,-30.53 884.01,-29.41"/>
<polygon fill="green" stroke="green" stroke-width="0.26" points="885.54,-26.27 875.03,-24.98 882.44,-32.54 885.54,-26.27"/>
</g>
<!-- 7 -->
<g id="node12" class="node">
<title>7</title>
<ellipse fill="lightblue" stroke="black" cx="810.24" cy="-16.26" rx="16.03" ry="16.03"/>
<text text-anchor="middle" x="810.24" y="-14.06" font-family="Times-Roman" font-size="9.00">7</text>
</g>
<!-- &#45;1&#45;&gt;7 -->
<g id="edge127" class="edge">
<title>&#45;1&#45;&gt;7</title>
<path fill="none" stroke="green" stroke-width="0.62" d="M651.42,-157.91C656.34,-156.5 662.01,-155.02 667.24,-154.02 739.92,-140.14 948.83,-173.1 998.24,-118.02 1012.93,-101.65 1012.01,-85.69 998.24,-68.53 952.09,-10.99 904.88,-59.53 836.24,-32.53 835.01,-32.04 833.77,-31.5 832.53,-30.93"/>
<polygon fill="green" stroke="green" stroke-width="0.62" points="833.8,-27.64 823.33,-26.02 830.5,-33.82 833.8,-27.64"/>
</g>
<!-- 8 -->
<g id="node13" class="node">
<title>8</title>
<ellipse fill="white" stroke="black" cx="973.24" cy="-93.28" rx="16.03" ry="16.03"/>
<text text-anchor="middle" x="973.24" y="-91.08" font-family="Times-Roman" font-size="9.00">8</text>
</g>
<!-- &#45;1&#45;&gt;8 -->
<g id="edge1" class="edge">
<title>&#45;1&#45;&gt;8</title>
<path fill="none" stroke="red" stroke-width="0.26" d="M651.43,-157.96C656.35,-156.56 662.02,-155.07 667.24,-154.02 790.68,-129.22 834.52,-172.06 948.24,-118.02 950.7,-116.86 953.08,-115.35 955.32,-113.67"/>
<polygon fill="red" stroke="red" stroke-width="0.26" points="958.08,-115.89 963.21,-106.62 953.42,-110.67 958.08,-115.89"/>
</g>
<!-- 9 -->
<g id="node14" class="node">
<title>9</title>
<ellipse fill="white" stroke="black" cx="509.24" cy="-93.28" rx="16.03" ry="16.03"/>
<text text-anchor="middle" x="509.24" y="-91.08" font-family="Times-Roman" font-size="9.00">9</text>
</g>
<!-- &#45;1&#45;&gt;9 -->
<g id="edge2" class="edge">
<title>&#45;1&#45;&gt;9</title>
<path fill="none" stroke="green" stroke-width="0.22" d="M625.02,-158.13C604.5,-151.72 564.25,-137.69 534.24,-118.02 531.8,-116.43 529.38,-114.57 527.07,-112.62"/>
<polygon fill="green" stroke="green" stroke-width="0.22" points="529.43,-110.05 519.71,-105.84 524.69,-115.19 529.43,-110.05"/>
</g>
<!-- 10 -->
<g id="node15" class="node">
<title>10</title>
<ellipse fill="white" stroke="black" cx="564.24" cy="-93.28" rx="20.51" ry="20.51"/>
<text text-anchor="middle" x="564.24" y="-91.08" font-family="Times-Roman" font-size="9.00">10</text>
</g>
<!-- &#45;1&#45;&gt;10 -->
<g id="edge3" class="edge">
<title>&#45;1&#45;&gt;10</title>
<path fill="none" stroke="red" stroke-width="0.24" d="M629.46,-153.99C618.93,-144.35 600.89,-127.83 586.45,-114.61"/>
<polygon fill="red" stroke="red" stroke-width="0.24" points="588.61,-111.84 578.87,-107.67 583.88,-117 588.61,-111.84"/>
</g>
<!-- 11 -->
<g id="node16" class="node">
<title>11</title>
<ellipse fill="white" stroke="black" cx="454.24" cy="-93.28" rx="20.51" ry="20.51"/>
<text text-anchor="middle" x="454.24" y="-91.08" font-family="Times-Roman" font-size="9.00">11</text>
</g>
<!-- &#45;1&#45;&gt;11 -->
<g id="edge4" class="edge">
<title>&#45;1&#45;&gt;11</title>
<path fill="none" stroke="green" stroke-width="0.53" d="M625.24,-160.07C597.9,-155.6 532.98,-143.03 484.24,-118.02 481.91,-116.83 479.59,-115.44 477.33,-113.95"/>
<polygon fill="green" stroke="green" stroke-width="0.53" points="479.15,-110.94 469.02,-107.84 475,-116.58 479.15,-110.94"/>
</g>
<!-- 12 -->
<g id="node17" class="node">
<title>12</title>
<ellipse fill="white" stroke="black" cx="623.24" cy="-93.28" rx="20.51" ry="20.51"/>
<text text-anchor="middle" x="623.24" y="-91.08" font-family="Times-Roman" font-size="9.00">12</text>
</g>
<!-- &#45;1&#45;&gt;12 -->
<g id="edge5" class="edge">
<title>&#45;1&#45;&gt;12</title>
<path fill="none" stroke="green" stroke-width="0.21" d="M636.46,-153.99C634.79,-146.42 632.17,-134.62 629.71,-123.49"/>
<polygon fill="green" stroke="green" stroke-width="0.21" points="633.1,-122.62 627.52,-113.61 626.27,-124.13 633.1,-122.62"/>
</g>
<!-- 13 -->
<g id="node18" class="node">
<title>13</title>
<ellipse fill="white" stroke="black" cx="682.24" cy="-93.28" rx="20.51" ry="20.51"/>
<text text-anchor="middle" x="682.24" y="-91.08" font-family="Times-Roman" font-size="9.00">13</text>
</g>
<!-- &#45;1&#45;&gt;13 -->
<g id="edge6" class="edge">
<title>&#45;1&#45;&gt;13</title>
<path fill="none" stroke="red" stroke-width="0.3" d="M643.46,-153.99C648.99,-145.47 658.01,-131.58 665.96,-119.35"/>
<polygon fill="red" stroke="red" stroke-width="0.3" points="668.98,-121.12 671.49,-110.83 663.11,-117.31 668.98,-121.12"/>
</g>
<!-- 14 -->
<g id="node19" class="node">
<title>14</title>
<ellipse fill="white" stroke="black" cx="741.24" cy="-93.28" rx="20.51" ry="20.51"/>
<text text-anchor="middle" x="741.24" y="-91.08" font-family="Times-Roman" font-size="9.00">14</text>
</g>
<!-- &#45;1&#45;&gt;14 -->
<g id="edge7" class="edge">
<title>&#45;1&#45;&gt;14</title>
<path fill="none" stroke="green" stroke-width="0.12" d="M651.44,-154.96C666.54,-146.71 691.8,-132.35 712.24,-118.02 714.15,-116.69 716.09,-115.26 718.01,-113.8"/>
<polygon fill="green" stroke="green" stroke-width="0.12" points="720.56,-116.24 726.23,-107.29 716.21,-110.76 720.56,-116.24"/>
</g>
<!-- 15 -->
<g id="node20" class="node">
<title>15</title>
<ellipse fill="white" stroke="black" cx="800.24" cy="-93.28" rx="20.51" ry="20.51"/>
<text text-anchor="middle" x="800.24" y="-91.08" font-family="Times-Roman" font-size="9.00">15</text>
</g>
<!-- &#45;1&#45;&gt;15 -->
<g id="edge8" class="edge">
<title>&#45;1&#45;&gt;15</title>
<path fill="none" stroke="green" stroke-width="0.5" d="M651.49,-158.31C680.74,-150.01 749.93,-129.74 771.24,-118.02 773.28,-116.9 775.32,-115.63 777.31,-114.27"/>
<polygon fill="green" stroke="green" stroke-width="0.5" points="779.78,-116.79 785.65,-107.97 775.56,-111.21 779.78,-116.79"/>
</g>
<!-- 16 -->
<g id="node21" class="node">
<title>16</title>
<ellipse fill="white" stroke="black" cx="859.24" cy="-93.28" rx="20.51" ry="20.51"/>
<text text-anchor="middle" x="859.24" y="-91.08" font-family="Times-Roman" font-size="9.00">16</text>
</g>
<!-- &#45;1&#45;&gt;16 -->
<g id="edge9" class="edge">
<title>&#45;1&#45;&gt;16</title>
<path fill="none" stroke="green" stroke-width="0.11" d="M651.49,-158.22C656.42,-156.84 662.07,-155.31 667.24,-154.02 739.25,-136.15 763.49,-150.41 830.24,-118.02 832.33,-117.01 834.41,-115.81 836.43,-114.51"/>
<polygon fill="green" stroke="green" stroke-width="0.11" points="838.86,-117.06 844.82,-108.3 834.7,-111.43 838.86,-117.06"/>
</g>
<!-- 17 -->
<g id="node22" class="node">
<title>17</title>
<ellipse fill="white" stroke="black" cx="918.24" cy="-93.28" rx="20.51" ry="20.51"/>
<text text-anchor="middle" x="918.24" y="-91.08" font-family="Times-Roman" font-size="9.00">17</text>
</g>
<!-- &#45;1&#45;&gt;17 -->
<g id="edge10" class="edge">
<title>&#45;1&#45;&gt;17</title>
<path fill="none" stroke="red" stroke-width="0.31" d="M651.45,-158.06C656.38,-156.66 662.04,-155.16 667.24,-154.02 764.9,-132.7 798.12,-159.1 889.24,-118.02 891.58,-116.97 893.88,-115.68 896.11,-114.25"/>
<polygon fill="red" stroke="red" stroke-width="0.31" points="898.26,-117.01 904.21,-108.25 894.09,-111.39 898.26,-117.01"/>
</g>
<!-- &#45;2 -->
<g id="node2" class="node">
<title>&#45;2</title>
<polygon fill="lightgray" stroke="black" points="702.24,-172.02 676.24,-172.02 676.24,-154.02 702.24,-154.02 702.24,-172.02"/>
<text text-anchor="middle" x="689.24" y="-160.82" font-family="Times-Roman" font-size="9.00">&#45;2</text>
</g>
<!-- &#45;2&#45;&gt;0 -->
<g id="edge128" class="edge">
<title>&#45;2&#45;&gt;0</title>
<path fill="none" stroke="red" stroke-width="0.21" d="M676.07,-157.9C671.14,-156.48 665.48,-155.01 660.24,-154.02 584.5,-139.73 366.84,-175.29 315.24,-118.02 300.52,-101.68 300.59,-84.94 315.24,-68.53 362.3,-15.8 564.2,-54.9 631.24,-32.53 632.5,-32.11 633.76,-31.62 635.02,-31.09"/>
<polygon fill="red" stroke="red" stroke-width="0.21" points="636.98,-34.01 644.26,-26.31 633.77,-27.79 636.98,-34.01"/>
</g>
<!-- &#45;2&#45;&gt;1 -->
<g id="edge129" class="edge">
<title>&#45;2&#45;&gt;1</title>
<path fill="none" stroke="green" stroke-width="0.59" d="M676.04,-158.03C671.11,-156.63 665.45,-155.14 660.24,-154.02 608.36,-142.95 458.81,-158.27 424.24,-118.02 409.91,-101.34 409.8,-85.12 424.24,-68.53 462.24,-24.86 627.57,-51.54 682.24,-32.53 683.49,-32.09 684.75,-31.59 686,-31.05"/>
<polygon fill="green" stroke="green" stroke-width="0.59" points="687.98,-33.96 695.24,-26.24 684.75,-27.76 687.98,-33.96"/>
</g>
<!-- &#45;2&#45;&gt;2 -->
<g id="edge130" class="edge">
<title>&#45;2&#45;&gt;2</title>
<path fill="none" stroke="red" stroke-width="0.23" d="M702.46,-160.2C761.35,-152.07 997,-119.46 998.24,-118.02 1012.66,-101.41 1012.44,-85.33 998.24,-68.53 936.27,4.8 875.46,-65.37 785.24,-32.53 784,-32.07 782.74,-31.56 781.5,-31"/>
<polygon fill="red" stroke="red" stroke-width="0.23" points="782.76,-27.71 772.28,-26.16 779.5,-33.91 782.76,-27.71"/>
</g>
<!-- &#45;2&#45;&gt;3 -->
<g id="edge131" class="edge">
<title>&#45;2&#45;&gt;3</title>
<path fill="none" stroke="green" stroke-width="0.14" d="M702.33,-159.93C714.26,-158.1 732.39,-155.5 748.24,-154.02 787.07,-150.4 1422.38,-146.3 1449.24,-118.02 1464.39,-102.07 1464.03,-84.81 1449.24,-68.53 1414.86,-30.68 1045.99,-20.03 942.88,-17.77"/>
<polygon fill="green" stroke="green" stroke-width="0.14" points="942.77,-14.27 932.7,-17.56 942.62,-21.27 942.77,-14.27"/>
</g>
<!-- &#45;2&#45;&gt;4 -->
<g id="edge132" class="edge">
<title>&#45;2&#45;&gt;4</title>
<path fill="none" stroke="red" stroke-width="0.11" d="M676.09,-157.76C671.17,-156.33 665.5,-154.89 660.24,-154.02 588.97,-142.35 60.88,-170.49 11.24,-118.02 -3.88,-102.04 -3.57,-84.8 11.24,-68.53 46.44,-29.86 424.48,-19.77 528.74,-17.72"/>
<polygon fill="red" stroke="red" stroke-width="0.11" points="529.09,-21.21 539.02,-17.52 528.96,-14.21 529.09,-21.21"/>
</g>
<!-- &#45;2&#45;&gt;5 -->
<g id="edge133" class="edge">
<title>&#45;2&#45;&gt;5</title>
<path fill="none" stroke="red" stroke-width="0.13" d="M676.08,-157.81C671.16,-156.38 665.49,-154.93 660.24,-154.02 605.68,-144.62 200.95,-158.56 163.24,-118.02 148.26,-101.92 148.37,-84.74 163.24,-68.53 226.12,0.01 491.62,-60.77 580.24,-32.53 581.5,-32.12 582.77,-31.65 584.03,-31.13"/>
<polygon fill="red" stroke="red" stroke-width="0.13" points="585.98,-34.06 593.28,-26.39 582.79,-27.83 585.98,-34.06"/>
</g>
<!-- &#45;2&#45;&gt;6 -->
<g id="edge134" class="edge">
<title>&#45;2&#45;&gt;6</title>
<path fill="none" stroke="red" stroke-width="0.62" d="M702.33,-159.98C714.27,-158.19 732.4,-155.62 748.24,-154.02 809.07,-147.91 1255.45,-162.64 1297.24,-118.02 1312.28,-101.97 1312.09,-84.75 1297.24,-68.53 1236.09,-1.71 978.3,-57.52 891.24,-32.53 888.78,-31.82 886.29,-30.91 883.85,-29.89"/>
<polygon fill="red" stroke="red" stroke-width="0.62" points="885.36,-26.73 874.83,-25.56 882.33,-33.04 885.36,-26.73"/>
</g>
<!-- &#45;2&#45;&gt;7 -->
<g id="edge135" class="edge">
<title>&#45;2&#45;&gt;7</title>
<path fill="none" stroke="red" stroke-width="0.21" d="M702.34,-160.08C714.29,-158.34 732.42,-155.81 748.24,-154.02 792.25,-149.05 1115.37,-150.73 1145.24,-118.02 1160.08,-101.78 1159.87,-84.96 1145.24,-68.53 1099.27,-16.89 901.79,-54.5 836.24,-32.53 834.99,-32.11 833.72,-31.62 832.47,-31.08"/>
<polygon fill="red" stroke="red" stroke-width="0.21" points="833.72,-27.79 823.23,-26.31 830.5,-34.01 833.72,-27.79"/>
</g>
<!-- &#45;2&#45;&gt;8 -->
<g id="edge11" class="edge">
<title>&#45;2&#45;&gt;8</title>
<path fill="none" stroke="green" stroke-width="0.17" d="M702.51,-160.23C752.24,-153.46 925.91,-129.2 948.24,-118.02 950.68,-116.81 953.04,-115.27 955.27,-113.57"/>
<polygon fill="green" stroke="green" stroke-width="0.17" points="958.04,-115.78 963.16,-106.5 953.37,-110.57 958.04,-115.78"/>
</g>
<!-- &#45;2&#45;&gt;9 -->
<g id="edge12" class="edge">
<title>&#45;2&#45;&gt;9</title>
<path fill="none" stroke="green" stroke-width="0.37" d="M676.07,-158.38C639.2,-148.15 537.42,-119.84 534.24,-118.02 531.88,-116.68 529.56,-115.06 527.35,-113.3"/>
<polygon fill="green" stroke="green" stroke-width="0.37" points="529.26,-110.31 519.5,-106.19 524.56,-115.5 529.26,-110.31"/>
</g>
<!-- &#45;2&#45;&gt;10 -->
<g id="edge13" class="edge">
<title>&#45;2&#45;&gt;10</title>
<path fill="none" stroke="green" stroke-width="0.64" d="M675.97,-157.19C656.92,-149.99 621.08,-135.4 593.24,-118.02 591.27,-116.79 589.28,-115.44 587.32,-114.03"/>
<polygon fill="green" stroke="green" stroke-width="0.64" points="589.09,-110.97 579.04,-107.62 584.8,-116.51 589.09,-110.97"/>
</g>
<!-- &#45;2&#45;&gt;11 -->
<g id="edge14" class="edge">
<title>&#45;2&#45;&gt;11</title>
<path fill="none" stroke="red" stroke-width="0.53" d="M676.01,-158.17C671.08,-156.79 665.42,-155.27 660.24,-154.02 582.6,-135.4 556.62,-151.72 484.24,-118.02 481.87,-116.92 479.52,-115.59 477.24,-114.14"/>
<polygon fill="red" stroke="red" stroke-width="0.53" points="479.04,-111.13 468.89,-108.1 474.94,-116.8 479.04,-111.13"/>
</g>
<!-- &#45;2&#45;&gt;12 -->
<g id="edge15" class="edge">
<title>&#45;2&#45;&gt;12</title>
<path fill="none" stroke="red" stroke-width="0.23" d="M681.41,-153.99C672.33,-144.67 657,-128.93 644.36,-115.95"/>
<polygon fill="red" stroke="red" stroke-width="0.23" points="646.78,-113.42 637.29,-108.7 641.76,-118.3 646.78,-113.42"/>
</g>
<!-- &#45;2&#45;&gt;13 -->
<g id="edge16" class="edge">
<title>&#45;2&#45;&gt;13</title>
<path fill="none" stroke="green" stroke-width="0.54" d="M688.41,-153.99C687.64,-146.55 686.45,-135.02 685.32,-124.07"/>
<polygon fill="green" stroke="green" stroke-width="0.54" points="688.78,-123.49 684.27,-113.9 681.82,-124.21 688.78,-123.49"/>
</g>
<!-- &#45;2&#45;&gt;14 -->
<g id="edge17" class="edge">
<title>&#45;2&#45;&gt;14</title>
<path fill="none" stroke="green" stroke-width="0.14" d="M695.41,-153.99C702.14,-145.22 713.24,-130.75 722.83,-118.26"/>
<polygon fill="green" stroke="green" stroke-width="0.14" points="725.85,-120.08 729.16,-110.02 720.29,-115.82 725.85,-120.08"/>
</g>
<!-- &#45;2&#45;&gt;15 -->
<g id="edge18" class="edge">
<title>&#45;2&#45;&gt;15</title>
<path fill="none" stroke="green" stroke-width="0.1" d="M702.47,-155.91C719.07,-148.02 748.14,-133.47 771.24,-118.02 773.18,-116.73 775.14,-115.34 777.08,-113.89"/>
<polygon fill="green" stroke="green" stroke-width="0.1" points="779.61,-116.35 785.32,-107.42 775.29,-110.84 779.61,-116.35"/>
</g>
<!-- &#45;2&#45;&gt;16 -->
<g id="edge19" class="edge">
<title>&#45;2&#45;&gt;16</title>
<path fill="none" stroke="green" stroke-width="0.11" d="M702.34,-159.69C728.06,-154.73 786.45,-141.63 830.24,-118.02 832.29,-116.92 834.33,-115.66 836.33,-114.31"/>
<polygon fill="green" stroke="green" stroke-width="0.11" points="838.8,-116.84 844.68,-108.02 834.59,-111.24 838.8,-116.84"/>
</g>
<!-- &#45;2&#45;&gt;17 -->
<g id="edge20" class="edge">
<title>&#45;2&#45;&gt;17</title>
<path fill="none" stroke="red" stroke-width="0.94" d="M702.48,-159.94C741.51,-153.67 855.49,-134.39 889.24,-118.02 891.34,-117.01 893.41,-115.82 895.43,-114.51"/>
<polygon fill="red" stroke="red" stroke-width="0.94" points="897.86,-117.07 903.82,-108.31 893.7,-111.44 897.86,-117.07"/>
</g>
<!-- &#45;3 -->
<g id="node3" class="node">
<title>&#45;3</title>
<polygon fill="lightgray" stroke="black" points="783.24,-172.02 757.24,-172.02 757.24,-154.02 783.24,-154.02 783.24,-172.02"/>
<text text-anchor="middle" x="770.24" y="-160.82" font-family="Times-Roman" font-size="9.00">&#45;3</text>
</g>
<!-- &#45;3&#45;&gt;0 -->
<g id="edge136" class="edge">
<title>&#45;3&#45;&gt;0</title>
<path fill="none" stroke="red" stroke-width="0.4" stroke-dasharray="1,5" d="M757.12,-160.21C745.17,-158.56 727.03,-156.08 711.24,-154.02 647.5,-145.71 466.77,-166.22 424.24,-118.02 409.69,-101.53 410.08,-85.36 424.24,-68.53 484.35,2.94 543.57,-64.68 631.24,-32.53 632.49,-32.07 633.74,-31.56 634.98,-31"/>
<polygon fill="red" stroke="red" stroke-width="0.4" points="636.98,-33.9 644.2,-26.15 633.72,-27.71 636.98,-33.9"/>
</g>
<!-- &#45;3&#45;&gt;1 -->
<g id="edge137" class="edge">
<title>&#45;3&#45;&gt;1</title>
<path fill="none" stroke="red" stroke-width="0.16" stroke-dasharray="1,5" d="M783.53,-160.45C830.18,-154.78 984.32,-134.89 998.24,-118.02 1012.25,-101.06 1012.71,-85.1 998.24,-68.53 959.31,-23.92 790.2,-51.89 734.24,-32.53 732.99,-32.09 731.73,-31.6 730.48,-31.05"/>
<polygon fill="red" stroke="red" stroke-width="0.16" points="731.73,-27.76 721.25,-26.25 728.5,-33.97 731.73,-27.76"/>
</g>
<!-- &#45;3&#45;&gt;2 -->
<g id="edge138" class="edge">
<title>&#45;3&#45;&gt;2</title>
<path fill="none" stroke="red" stroke-width="0.13" d="M783.24,-160.35C840.12,-152.97 1064.45,-123.57 1069.24,-118.02 1083.62,-101.37 1083.79,-85.03 1069.24,-68.53 1027.18,-20.8 845.46,-53.05 785.24,-32.53 783.99,-32.1 782.73,-31.61 781.47,-31.07"/>
<polygon fill="red" stroke="red" stroke-width="0.13" points="782.72,-27.77 772.24,-26.28 779.5,-33.99 782.72,-27.77"/>
</g>
<!-- &#45;3&#45;&gt;3 -->
<g id="edge139" class="edge">
<title>&#45;3&#45;&gt;3</title>
<path fill="none" stroke="red" stroke-width="0.21" d="M783.28,-160.47C847.23,-152.85 1124.78,-119.68 1126.24,-118.02 1140.81,-101.54 1139.83,-85.83 1126.24,-68.53 1103.63,-39.73 993.49,-25.05 942.39,-19.7"/>
<polygon fill="red" stroke="red" stroke-width="0.21" points="942.73,-16.21 932.43,-18.69 942.03,-23.18 942.73,-16.21"/>
</g>
<!-- &#45;3&#45;&gt;4 -->
<g id="edge140" class="edge">
<title>&#45;3&#45;&gt;4</title>
<path fill="none" stroke="red" stroke-width="0.47" d="M757.15,-159.94C745.22,-158.12 727.09,-155.53 711.24,-154.02 637.91,-147.07 99.9,-171.51 49.24,-118.02 34.11,-102.05 34.49,-84.85 49.24,-68.53 81.66,-32.66 429.04,-20.64 528.67,-17.92"/>
<polygon fill="red" stroke="red" stroke-width="0.47" points="528.9,-21.41 538.8,-17.65 528.71,-14.42 528.9,-21.41"/>
</g>
<!-- &#45;3&#45;&gt;5 -->
<g id="edge141" class="edge">
<title>&#45;3&#45;&gt;5</title>
<path fill="none" stroke="green" stroke-width="0.32" d="M757.15,-160C745.21,-158.22 727.08,-155.66 711.24,-154.02 654.73,-148.2 239.97,-159.58 201.24,-118.02 186.24,-101.93 186.44,-84.8 201.24,-68.53 258.17,-5.94 499.75,-58.56 580.24,-32.53 581.5,-32.12 582.77,-31.64 584.03,-31.12"/>
<polygon fill="green" stroke="green" stroke-width="0.32" points="585.98,-34.05 593.28,-26.37 582.78,-27.82 585.98,-34.05"/>
</g>
<!-- &#45;3&#45;&gt;6 -->
<g id="edge142" class="edge">
<title>&#45;3&#45;&gt;6</title>
<path fill="none" stroke="red" stroke-width="0.21" d="M783.34,-160.43C845.11,-152.91 1104.5,-121.15 1107.24,-118.02 1121.76,-101.49 1121.46,-85.31 1107.24,-68.53 1075.79,-31.4 937.47,-47.74 891.24,-32.53 888.81,-31.73 886.34,-30.76 883.9,-29.69"/>
<polygon fill="red" stroke="red" stroke-width="0.21" points="885.43,-26.54 874.9,-25.32 882.37,-32.84 885.43,-26.54"/>
</g>
<!-- &#45;3&#45;&gt;7 -->
<g id="edge143" class="edge">
<title>&#45;3&#45;&gt;7</title>
<path fill="none" stroke="green" stroke-width="0.63" d="M783.27,-160.46C842.42,-153.31 1083.11,-123.92 1088.24,-118.02 1102.69,-101.44 1102.66,-85.15 1088.24,-68.53 1051.18,-25.79 889.64,-51.2 836.24,-32.53 834.99,-32.09 833.73,-31.59 832.48,-31.04"/>
<polygon fill="green" stroke="green" stroke-width="0.63" points="833.74,-27.75 823.25,-26.23 830.5,-33.96 833.74,-27.75"/>
</g>
<!-- &#45;3&#45;&gt;8 -->
<g id="edge21" class="edge">
<title>&#45;3&#45;&gt;8</title>
<path fill="none" stroke="red" stroke-width="0.43" d="M783.59,-161.06C814.4,-158.35 892.12,-148.76 948.24,-118.02 950.63,-116.72 952.96,-115.12 955.18,-113.39"/>
<polygon fill="red" stroke="red" stroke-width="0.43" points="957.96,-115.59 963.04,-106.29 953.27,-110.39 957.96,-115.59"/>
</g>
<!-- &#45;3&#45;&gt;9 -->
<g id="edge22" class="edge">
<title>&#45;3&#45;&gt;9</title>
<path fill="none" stroke="green" stroke-width="0.42" d="M757.2,-160.04C710.67,-152.88 554.43,-128.33 534.24,-118.02 531.82,-116.79 529.46,-115.24 527.23,-113.53"/>
<polygon fill="green" stroke="green" stroke-width="0.42" points="529.13,-110.53 519.35,-106.46 524.46,-115.74 529.13,-110.53"/>
</g>
<!-- &#45;3&#45;&gt;10 -->
<g id="edge23" class="edge">
<title>&#45;3&#45;&gt;10</title>
<path fill="none" stroke="green" stroke-width="0.21" d="M757.01,-159.52C721.13,-152.61 622.68,-132.79 593.24,-118.02 591.16,-116.98 589.1,-115.77 587.09,-114.45"/>
<polygon fill="green" stroke="green" stroke-width="0.21" points="588.82,-111.37 578.7,-108.22 584.64,-116.99 588.82,-111.37"/>
</g>
<!-- &#45;3&#45;&gt;11 -->
<g id="edge24" class="edge">
<title>&#45;3&#45;&gt;11</title>
<path fill="none" stroke="green" stroke-width="0.14" d="M757.12,-160.2C702.71,-152.59 497.02,-123.6 484.24,-118.02 481.7,-116.92 479.2,-115.54 476.78,-114.01"/>
<polygon fill="green" stroke="green" stroke-width="0.14" points="478.66,-111.05 468.51,-108.02 474.55,-116.72 478.66,-111.05"/>
</g>
<!-- &#45;3&#45;&gt;12 -->
<g id="edge25" class="edge">
<title>&#45;3&#45;&gt;12</title>
<path fill="none" stroke="red" stroke-width="0.75" d="M757.23,-158.69C734.81,-152.63 687.88,-138.5 652.24,-118.02 650.22,-116.87 648.21,-115.57 646.22,-114.19"/>
<polygon fill="red" stroke="red" stroke-width="0.75" points="647.98,-111.13 637.9,-107.85 643.73,-116.69 647.98,-111.13"/>
</g>
<!-- &#45;3&#45;&gt;13 -->
<g id="edge26" class="edge">
<title>&#45;3&#45;&gt;13</title>
<path fill="none" stroke="green" stroke-width="0.31" d="M758.82,-153.74C746.85,-145.01 727.55,-130.77 711.24,-118.02 709.45,-116.62 707.61,-115.16 705.76,-113.69"/>
<polygon fill="green" stroke="green" stroke-width="0.31" points="707.76,-110.8 697.79,-107.22 703.35,-116.24 707.76,-110.8"/>
</g>
<!-- &#45;3&#45;&gt;14 -->
<g id="edge27" class="edge">
<title>&#45;3&#45;&gt;14</title>
<path fill="none" stroke="green" stroke-width="0.6" d="M766.8,-153.99C763.4,-146.05 758.01,-133.44 753.05,-121.85"/>
<polygon fill="green" stroke="green" stroke-width="0.6" points="756.19,-120.3 749.04,-112.49 749.75,-123.06 756.19,-120.3"/>
</g>
<!-- &#45;3&#45;&gt;15 -->
<g id="edge28" class="edge">
<title>&#45;3&#45;&gt;15</title>
<path fill="none" stroke="green" stroke-width="0.11" d="M773.8,-153.99C777.34,-145.99 782.98,-133.27 788.14,-121.61"/>
<polygon fill="green" stroke="green" stroke-width="0.11" points="791.45,-122.77 792.3,-112.21 785.05,-119.93 791.45,-122.77"/>
</g>
<!-- &#45;3&#45;&gt;16 -->
<g id="edge29" class="edge">
<title>&#45;3&#45;&gt;16</title>
<path fill="none" stroke="green" stroke-width="0.13" d="M781.88,-153.77C794.07,-145.06 813.7,-130.85 830.24,-118.02 832.04,-116.63 833.89,-115.18 835.73,-113.7"/>
<polygon fill="green" stroke="green" stroke-width="0.13" points="838.14,-116.26 843.71,-107.25 833.74,-110.82 838.14,-116.26"/>
</g>
<!-- &#45;3&#45;&gt;17 -->
<g id="edge30" class="edge">
<title>&#45;3&#45;&gt;17</title>
<path fill="none" stroke="green" stroke-width="0.12" d="M783.36,-158.72C805.97,-152.69 853.31,-138.61 889.24,-118.02 891.26,-116.87 893.28,-115.57 895.26,-114.2"/>
<polygon fill="green" stroke="green" stroke-width="0.12" points="897.75,-116.7 903.59,-107.86 893.51,-111.13 897.75,-116.7"/>
</g>
<!-- &#45;4 -->
<g id="node4" class="node">
<title>&#45;4</title>
<polygon fill="lightgray" stroke="black" points="872.24,-172.02 846.24,-172.02 846.24,-154.02 872.24,-154.02 872.24,-172.02"/>
<text text-anchor="middle" x="859.24" y="-160.82" font-family="Times-Roman" font-size="9.00">&#45;4</text>
</g>
<!-- &#45;4&#45;&gt;0 -->
<g id="edge144" class="edge">
<title>&#45;4&#45;&gt;0</title>
<path fill="none" stroke="red" stroke-width="0.43" d="M872.42,-162.5C901,-162.71 968.48,-158.66 998.24,-118.02 1011.24,-100.28 1012.89,-84.94 998.24,-68.53 951.34,-15.95 750.07,-54.84 683.24,-32.53 681.99,-32.11 680.72,-31.62 679.47,-31.09"/>
<polygon fill="red" stroke="red" stroke-width="0.43" points="680.72,-27.79 670.22,-26.31 677.5,-34.01 680.72,-27.79"/>
</g>
<!-- &#45;4&#45;&gt;1 -->
<g id="edge145" class="edge">
<title>&#45;4&#45;&gt;1</title>
<path fill="none" stroke="green" stroke-width="0.15" d="M872.31,-161.81C919.04,-160.75 1076.69,-154.47 1107.24,-118.02 1121.37,-101.16 1122.03,-84.81 1107.24,-68.53 1051.26,-6.88 813.46,-58.21 734.24,-32.53 732.98,-32.12 731.72,-31.64 730.46,-31.11"/>
<polygon fill="green" stroke="green" stroke-width="0.15" points="731.7,-27.82 721.21,-26.36 728.5,-34.04 731.7,-27.82"/>
</g>
<!-- &#45;4&#45;&gt;2 -->
<g id="edge146" class="edge">
<title>&#45;4&#45;&gt;2</title>
<path fill="none" stroke="green" stroke-width="0.42" d="M872.46,-161.6C938.74,-159.31 1232.78,-147.55 1259.24,-118.02 1273.92,-101.64 1274.2,-84.66 1259.24,-68.53 1223.34,-29.79 835.65,-48.3 785.24,-32.53 783.98,-32.13 782.71,-31.66 781.45,-31.14"/>
<polygon fill="green" stroke="green" stroke-width="0.42" points="782.69,-27.85 772.19,-26.42 779.51,-34.08 782.69,-27.85"/>
</g>
<!-- &#45;4&#45;&gt;3 -->
<g id="edge147" class="edge">
<title>&#45;4&#45;&gt;3</title>
<path fill="none" stroke="red" stroke-width="0.14" stroke-dasharray="1,5" d="M872.53,-161.73C968.84,-159.52 1556.93,-144.93 1582.24,-118.02 1597.32,-102 1597.19,-84.67 1582.24,-68.53 1538.12,-20.88 1061.28,-17.37 942.78,-17.23"/>
<polygon fill="red" stroke="red" stroke-width="0.14" points="942.76,-13.73 932.75,-17.23 942.75,-20.73 942.76,-13.73"/>
</g>
<!-- &#45;4&#45;&gt;4 -->
<g id="edge148" class="edge">
<title>&#45;4&#45;&gt;4</title>
<path fill="none" stroke="green" stroke-width="0.29" d="M845.91,-160.33C832.39,-158.64 810.88,-156.01 792.24,-154.02 749.85,-149.5 438.94,-149.55 410.24,-118.02 395.43,-101.76 397.54,-86.49 410.24,-68.53 437.09,-30.56 494.51,-20.53 528.49,-17.99"/>
<polygon fill="green" stroke="green" stroke-width="0.29" points="528.84,-21.48 538.63,-17.4 528.44,-14.49 528.84,-21.48"/>
</g>
<!-- &#45;4&#45;&gt;5 -->
<g id="edge149" class="edge">
<title>&#45;4&#45;&gt;5</title>
<path fill="none" stroke="red" stroke-width="0.11" d="M845.9,-160.35C832.39,-158.67 810.88,-156.05 792.24,-154.02 751.4,-149.59 451.84,-148.46 424.24,-118.02 409.46,-101.73 410.55,-85.74 424.24,-68.53 468.54,-12.84 514.13,-58.84 580.24,-32.53 581.47,-32.04 582.71,-31.49 583.95,-30.92"/>
<polygon fill="red" stroke="red" stroke-width="0.11" points="585.98,-33.8 593.14,-26 582.68,-27.63 585.98,-33.8"/>
</g>
<!-- &#45;4&#45;&gt;6 -->
<g id="edge150" class="edge">
<title>&#45;4&#45;&gt;6</title>
<path fill="none" stroke="red" stroke-width="0.57" d="M872.48,-161.71C967.18,-159.37 1538.64,-144.21 1563.24,-118.02 1578.3,-101.99 1578.38,-84.49 1563.24,-68.53 1511.8,-14.26 963.46,-51.9 891.24,-32.53 888.86,-31.89 886.45,-31.05 884.08,-30.08"/>
<polygon fill="red" stroke="red" stroke-width="0.57" points="885.33,-26.8 874.8,-25.67 882.33,-33.12 885.33,-26.8"/>
</g>
<!-- &#45;4&#45;&gt;7 -->
<g id="edge151" class="edge">
<title>&#45;4&#45;&gt;7</title>
<path fill="none" stroke="green" stroke-width="0.18" d="M872.4,-162.02C952.62,-161.83 1373.49,-158.9 1411.24,-118.02 1426.17,-101.86 1426.3,-84.56 1411.24,-68.53 1367.41,-21.87 897.46,-51.24 836.24,-32.53 834.97,-32.14 833.7,-31.68 832.44,-31.17"/>
<polygon fill="green" stroke="green" stroke-width="0.18" points="833.68,-27.87 823.18,-26.46 830.51,-34.11 833.68,-27.87"/>
</g>
<!-- &#45;4&#45;&gt;8 -->
<g id="edge31" class="edge">
<title>&#45;4&#45;&gt;8</title>
<path fill="none" stroke="green" stroke-width="0.2" d="M872.29,-157.03C890.26,-149.84 923.23,-135.49 948.24,-118.02 950.63,-116.35 953.02,-114.46 955.32,-112.48"/>
<polygon fill="green" stroke="green" stroke-width="0.2" points="957.71,-115.04 962.67,-105.68 952.95,-109.91 957.71,-115.04"/>
</g>
<!-- &#45;4&#45;&gt;9 -->
<g id="edge32" class="edge">
<title>&#45;4&#45;&gt;9</title>
<path fill="none" stroke="green" stroke-width="0.19" d="M845.95,-160.46C786.66,-153.44 548.62,-124.92 534.24,-118.02 531.79,-116.85 529.41,-115.34 527.17,-113.65"/>
<polygon fill="green" stroke="green" stroke-width="0.19" points="529.07,-110.65 519.28,-106.6 524.41,-115.87 529.07,-110.65"/>
</g>
<!-- &#45;4&#45;&gt;10 -->
<g id="edge33" class="edge">
<title>&#45;4&#45;&gt;10</title>
<path fill="none" stroke="green" stroke-width="0.62" d="M845.99,-160.24C795.47,-153.39 616.64,-128.62 593.24,-118.02 590.91,-116.97 588.61,-115.67 586.38,-114.24"/>
<polygon fill="green" stroke="green" stroke-width="0.62" points="588.4,-111.38 578.28,-108.24 584.23,-117 588.4,-111.38"/>
</g>
<!-- &#45;4&#45;&gt;11 -->
<g id="edge34" class="edge">
<title>&#45;4&#45;&gt;11</title>
<path fill="none" stroke="green" stroke-width="0.29" d="M845.9,-160.42C832.37,-158.8 810.86,-156.22 792.24,-154.02 655.37,-137.85 611.56,-170.8 484.24,-118.02 481.68,-116.96 479.16,-115.62 476.74,-114.11"/>
<polygon fill="green" stroke="green" stroke-width="0.29" points="478.61,-111.15 468.45,-108.15 474.52,-116.83 478.61,-111.15"/>
</g>
<!-- &#45;4&#45;&gt;12 -->
<g id="edge35" class="edge">
<title>&#45;4&#45;&gt;12</title>
<path fill="none" stroke="red" stroke-width="0.48" d="M846.11,-160.07C806.27,-154 687.35,-134.89 652.24,-118.02 650.14,-117.02 648.07,-115.83 646.05,-114.53"/>
<polygon fill="red" stroke="red" stroke-width="0.48" points="647.77,-111.45 637.65,-108.33 643.62,-117.08 647.77,-111.45"/>
</g>
<!-- &#45;4&#45;&gt;13 -->
<g id="edge36" class="edge">
<title>&#45;4&#45;&gt;13</title>
<path fill="none" stroke="red" stroke-width="0.26" d="M845.9,-159.89C819.12,-155.22 757.42,-142.51 711.24,-118.02 709.19,-116.93 707.14,-115.69 705.14,-114.34"/>
<polygon fill="red" stroke="red" stroke-width="0.26" points="706.88,-111.27 696.78,-108.07 702.68,-116.87 706.88,-111.27"/>
</g>
<!-- &#45;4&#45;&gt;14 -->
<g id="edge37" class="edge">
<title>&#45;4&#45;&gt;14</title>
<path fill="none" stroke="red" stroke-width="0.2" d="M846.07,-156.64C828.24,-149.1 795.74,-134.46 770.24,-118.02 768.29,-116.76 766.31,-115.39 764.36,-113.96"/>
<polygon fill="red" stroke="red" stroke-width="0.2" points="766.14,-110.91 756.1,-107.53 761.84,-116.43 766.14,-110.91"/>
</g>
<!-- &#45;4&#45;&gt;15 -->
<g id="edge38" class="edge">
<title>&#45;4&#45;&gt;15</title>
<path fill="none" stroke="red" stroke-width="0.12" d="M852.24,-153.99C844.3,-144.87 831.02,-129.61 819.86,-116.8"/>
<polygon fill="red" stroke="red" stroke-width="0.12" points="822.46,-114.46 813.26,-109.22 817.18,-119.06 822.46,-114.46"/>
</g>
<!-- &#45;4&#45;&gt;16 -->
<g id="edge39" class="edge">
<title>&#45;4&#45;&gt;16</title>
<path fill="none" stroke="green" stroke-width="0.39" d="M859.24,-153.99C859.24,-146.55 859.24,-135.02 859.24,-124.07"/>
<polygon fill="green" stroke="green" stroke-width="0.39" points="862.74,-123.9 859.24,-113.9 855.74,-123.9 862.74,-123.9"/>
</g>
<!-- &#45;4&#45;&gt;17 -->
<g id="edge40" class="edge">
<title>&#45;4&#45;&gt;17</title>
<path fill="none" stroke="red" stroke-width="0.35" d="M866.24,-153.99C874.18,-144.87 887.47,-129.61 898.62,-116.8"/>
<polygon fill="red" stroke="red" stroke-width="0.35" points="901.3,-119.06 905.23,-109.22 896.02,-114.46 901.3,-119.06"/>
</g>
<!-- 525 -->
<g id="node23" class="node">
<title>525</title>
<ellipse fill="white" stroke="black" cx="1716.24" cy="-93.28" rx="25" ry="25"/>
<text text-anchor="middle" x="1716.24" y="-91.08" font-family="Times-Roman" font-size="9.00">525</text>
</g>
<!-- &#45;4&#45;&gt;525 -->
<g id="edge152" class="edge">
<title>&#45;4&#45;&gt;525</title>
<path fill="none" stroke="green" stroke-width="0.35" d="M872.51,-162.19C965.3,-163.24 1518.12,-167.31 1677.24,-118.02 1680.78,-116.93 1684.33,-115.44 1687.76,-113.74"/>
<polygon fill="green" stroke="green" stroke-width="0.35" points="1689.48,-116.79 1696.51,-108.87 1686.07,-110.68 1689.48,-116.79"/>
</g>
<!-- 8&#45;&gt;0 -->
<g id="edge41" class="edge">
<title>8&#45;&gt;0</title>
<path fill="none" stroke="red" stroke-width="0.32" d="M963.2,-79.95C959.03,-75.64 953.86,-71.22 948.24,-68.53 841.08,-17.11 795.57,-71.37 683.24,-32.53 681.99,-32.09 680.73,-31.6 679.48,-31.05"/>
<polygon fill="red" stroke="red" stroke-width="0.32" points="680.73,-27.76 670.24,-26.25 677.5,-33.97 680.73,-27.76"/>
</g>
<!-- 8&#45;&gt;1 -->
<g id="edge42" class="edge">
<title>8&#45;&gt;1</title>
<path fill="none" stroke="red" stroke-width="0.37" d="M963.16,-80.04C958.98,-75.75 953.81,-71.31 948.24,-68.53 861.96,-25.43 824.88,-65.49 734.24,-32.53 733,-32.07 731.74,-31.56 730.5,-31.01"/>
<polygon fill="red" stroke="red" stroke-width="0.37" points="731.76,-27.71 721.28,-26.16 728.5,-33.91 731.76,-27.71"/>
</g>
<!-- 8&#45;&gt;2 -->
<g id="edge43" class="edge">
<title>8&#45;&gt;2</title>
<path fill="none" stroke="red" stroke-width="0.18" d="M963.08,-80.19C958.9,-75.92 953.74,-71.45 948.24,-68.53 882.73,-33.71 854.3,-59.64 785.24,-32.53 784.01,-32.04 782.77,-31.51 781.53,-30.93"/>
<polygon fill="red" stroke="red" stroke-width="0.18" points="782.8,-27.64 772.33,-26.02 779.5,-33.82 782.8,-27.64"/>
</g>
<!-- 8&#45;&gt;3 -->
<g id="edge44" class="edge">
<title>8&#45;&gt;3</title>
<path fill="none" stroke="red" stroke-width="0.16" d="M963.83,-79.89C955.17,-68.49 942.15,-51.36 931.92,-37.89"/>
<polygon fill="red" stroke="red" stroke-width="0.16" points="934.51,-35.51 925.67,-29.67 928.93,-39.75 934.51,-35.51"/>
</g>
<!-- 8&#45;&gt;4 -->
<g id="edge45" class="edge">
<title>8&#45;&gt;4</title>
<path fill="none" stroke="red" stroke-width="0.27" d="M963.26,-79.84C959.09,-75.52 953.9,-71.12 948.24,-68.53 799.18,-0.39 737.11,-83.2 581.24,-32.53 579.98,-32.12 578.72,-31.64 577.46,-31.11"/>
<polygon fill="red" stroke="red" stroke-width="0.27" points="578.7,-27.81 568.21,-26.36 575.5,-34.04 578.7,-27.81"/>
</g>
<!-- 8&#45;&gt;5 -->
<g id="edge46" class="edge">
<title>8&#45;&gt;5</title>
<path fill="none" stroke="red" stroke-width="0.32" d="M963.23,-79.89C959.07,-75.57 953.88,-71.16 948.24,-68.53 820.15,-8.76 766.32,-77.28 632.24,-32.53 630.99,-32.11 629.72,-31.62 628.47,-31.09"/>
<polygon fill="red" stroke="red" stroke-width="0.32" points="629.72,-27.79 619.22,-26.31 626.5,-34.01 629.72,-27.79"/>
</g>
<!-- 8&#45;&gt;6 -->
<g id="edge47" class="edge">
<title>8&#45;&gt;6</title>
<path fill="none" stroke="green" stroke-width="0.28" d="M962.03,-80.58C957.88,-76.54 953.02,-72.13 948.24,-68.53 927.93,-53.21 902.69,-38.78 884.63,-29.16"/>
<polygon fill="green" stroke="green" stroke-width="0.28" points="885.9,-25.88 875.42,-24.34 882.65,-32.08 885.9,-25.88"/>
</g>
<!-- 8&#45;&gt;7 -->
<g id="edge48" class="edge">
<title>8&#45;&gt;7</title>
<path fill="none" stroke="red" stroke-width="0.36" d="M962.93,-80.46C958.73,-76.22 953.6,-71.7 948.24,-68.53 903.27,-41.85 883.96,-53.89 836.24,-32.53 835.06,-32 833.86,-31.43 832.67,-30.83"/>
<polygon fill="red" stroke="red" stroke-width="0.36" points="834.16,-27.66 823.71,-25.92 830.8,-33.8 834.16,-27.66"/>
</g>
<!-- 9&#45;&gt;0 -->
<g id="edge49" class="edge">
<title>9&#45;&gt;0</title>
<path fill="none" stroke="green" stroke-width="0.5" d="M519.63,-80.58C523.84,-76.36 528.96,-71.82 534.24,-68.53 573.26,-44.2 589.7,-52.24 631.24,-32.53 632.41,-31.97 633.6,-31.38 634.79,-30.77"/>
<polygon fill="green" stroke="green" stroke-width="0.5" points="636.68,-33.72 643.72,-25.8 633.28,-27.6 636.68,-33.72"/>
</g>
<!-- 9&#45;&gt;1 -->
<g id="edge50" class="edge">
<title>9&#45;&gt;1</title>
<path fill="none" stroke="red" stroke-width="0.47" d="M519.44,-80.25C523.62,-75.99 528.78,-71.51 534.24,-68.53 593.68,-36.12 619.49,-57.93 682.24,-32.53 683.47,-32.03 684.71,-31.48 685.95,-30.9"/>
<polygon fill="red" stroke="red" stroke-width="0.47" points="687.98,-33.78 695.13,-25.96 684.67,-27.61 687.98,-33.78"/>
</g>
<!-- 9&#45;&gt;2 -->
<g id="edge51" class="edge">
<title>9&#45;&gt;2</title>
<path fill="none" stroke="green" stroke-width="0.19" d="M519.34,-80.08C523.52,-75.79 528.69,-71.34 534.24,-68.53 614.4,-27.87 648.96,-63.76 733.24,-32.53 734.48,-32.07 735.74,-31.55 736.98,-30.99"/>
<polygon fill="green" stroke="green" stroke-width="0.19" points="738.98,-33.89 746.19,-26.13 735.72,-27.7 738.98,-33.89"/>
</g>
<!-- 9&#45;&gt;3 -->
<g id="edge52" class="edge">
<title>9&#45;&gt;3</title>
<path fill="none" stroke="green" stroke-width="0.3" d="M519.23,-79.85C523.4,-75.53 528.58,-71.13 534.24,-68.53 677.13,-2.85 735.38,-76.94 886.24,-32.53 888.69,-31.8 891.18,-30.88 893.63,-29.85"/>
<polygon fill="green" stroke="green" stroke-width="0.3" points="895.15,-33.01 902.64,-25.52 892.11,-26.7 895.15,-33.01"/>
</g>
<!-- 9&#45;&gt;4 -->
<g id="edge53" class="edge">
<title>9&#45;&gt;4</title>
<path fill="none" stroke="green" stroke-width="0.16" d="M517.47,-78.86C524.2,-67.88 533.87,-52.11 541.74,-39.27"/>
<polygon fill="green" stroke="green" stroke-width="0.16" points="544.85,-40.91 547.09,-30.56 538.88,-37.25 544.85,-40.91"/>
</g>
<!-- 9&#45;&gt;5 -->
<g id="edge54" class="edge">
<title>9&#45;&gt;5</title>
<path fill="none" stroke="red" stroke-width="0.19" d="M520.63,-80.81C524.8,-76.79 529.62,-72.33 534.24,-68.53 550.42,-55.19 569.84,-41.49 584.43,-31.61"/>
<polygon fill="red" stroke="red" stroke-width="0.19" points="586.46,-34.46 592.82,-25.99 582.57,-28.65 586.46,-34.46"/>
</g>
<!-- 9&#45;&gt;6 -->
<g id="edge55" class="edge">
<title>9&#45;&gt;6</title>
<path fill="none" stroke="red" stroke-width="0.22" d="M519.26,-79.9C523.42,-75.59 528.61,-71.18 534.24,-68.53 656.18,-11.21 707.56,-75.54 835.24,-32.53 836.5,-32.1 837.76,-31.62 839.01,-31.08"/>
<polygon fill="red" stroke="red" stroke-width="0.22" points="840.98,-34 848.25,-26.3 837.76,-27.78 840.98,-34"/>
</g>
<!-- 9&#45;&gt;7 -->
<g id="edge56" class="edge">
<title>9&#45;&gt;7</title>
<path fill="none" stroke="red" stroke-width="0.13" d="M519.29,-79.97C523.46,-75.67 528.64,-71.24 534.24,-68.53 635.26,-19.56 678.3,-69.64 784.24,-32.53 785.49,-32.09 786.75,-31.59 788,-31.04"/>
<polygon fill="red" stroke="red" stroke-width="0.13" points="789.98,-33.96 797.23,-26.23 786.75,-27.75 789.98,-33.96"/>
</g>
<!-- 10&#45;&gt;0 -->
<g id="edge57" class="edge">
<title>10&#45;&gt;0</title>
<path fill="none" stroke="green" stroke-width="0.47" d="M579.87,-79.43C584.19,-75.89 588.89,-72.05 593.24,-68.53 607.8,-56.73 624.31,-43.52 636.91,-33.46"/>
<polygon fill="green" stroke="green" stroke-width="0.47" points="639.31,-36.02 644.94,-27.05 634.94,-30.55 639.31,-36.02"/>
</g>
<!-- 10&#45;&gt;1 -->
<g id="edge58" class="edge">
<title>10&#45;&gt;1</title>
<path fill="none" stroke="green" stroke-width="0.22" d="M578.95,-78.79C583.35,-75.17 588.32,-71.45 593.24,-68.53 629.94,-46.76 643.96,-51.38 682.24,-32.53 683.4,-31.95 684.58,-31.35 685.77,-30.73"/>
<polygon fill="green" stroke="green" stroke-width="0.22" points="687.67,-33.67 694.69,-25.73 684.25,-27.56 687.67,-33.67"/>
</g>
<!-- 10&#45;&gt;2 -->
<g id="edge59" class="edge">
<title>10&#45;&gt;2</title>
<path fill="none" stroke="green" stroke-width="0.22" d="M578.72,-78.36C583.11,-74.73 588.13,-71.11 593.24,-68.53 650.55,-39.49 673.85,-57.03 733.24,-32.53 734.47,-32.02 735.7,-31.47 736.94,-30.88"/>
<polygon fill="green" stroke="green" stroke-width="0.22" points="738.98,-33.76 746.12,-25.93 735.65,-27.59 738.98,-33.76"/>
</g>
<!-- 10&#45;&gt;3 -->
<g id="edge60" class="edge">
<title>10&#45;&gt;3</title>
<path fill="none" stroke="red" stroke-width="0.62" d="M578.22,-78.17C582.67,-74.45 587.86,-70.83 593.24,-68.53 713.87,-16.93 760.76,-70.85 886.24,-32.53 888.69,-31.78 891.17,-30.84 893.61,-29.8"/>
<polygon fill="red" stroke="red" stroke-width="0.62" points="895.14,-32.95 902.62,-25.46 892.1,-26.65 895.14,-32.95"/>
</g>
<!-- 10&#45;&gt;4 -->
<g id="edge61" class="edge">
<title>10&#45;&gt;4</title>
<path fill="none" stroke="green" stroke-width="0.38" d="M561.88,-72.57C560.78,-63.39 559.45,-52.35 558.28,-42.57"/>
<polygon fill="green" stroke="green" stroke-width="0.38" points="561.75,-42.09 557.08,-32.58 554.8,-42.92 561.75,-42.09"/>
</g>
<!-- 10&#45;&gt;5 -->
<g id="edge62" class="edge">
<title>10&#45;&gt;5</title>
<path fill="none" stroke="green" stroke-width="0.49" d="M573.98,-74.88C579.81,-64.46 587.29,-51.11 593.58,-39.89"/>
<polygon fill="green" stroke="green" stroke-width="0.49" points="596.68,-41.5 598.51,-31.07 590.57,-38.08 596.68,-41.5"/>
</g>
<!-- 10&#45;&gt;6 -->
<g id="edge63" class="edge">
<title>10&#45;&gt;6</title>
<path fill="none" stroke="red" stroke-width="0.39" d="M578.25,-78.26C582.71,-74.54 587.89,-70.9 593.24,-68.53 692.67,-24.49 732.7,-68.71 835.24,-32.53 836.49,-32.09 837.75,-31.58 839,-31.03"/>
<polygon fill="red" stroke="red" stroke-width="0.39" points="840.98,-33.95 848.23,-26.22 837.74,-27.74 840.98,-33.95"/>
</g>
<!-- 10&#45;&gt;7 -->
<g id="edge64" class="edge">
<title>10&#45;&gt;7</title>
<path fill="none" stroke="green" stroke-width="0.1" d="M578.61,-78.14C583,-74.51 588.05,-70.95 593.24,-68.53 671.54,-32.03 703.35,-62.84 784.24,-32.53 785.48,-32.06 786.73,-31.54 787.98,-30.98"/>
<polygon fill="green" stroke="green" stroke-width="0.1" points="789.98,-33.88 797.19,-26.11 786.71,-27.69 789.98,-33.88"/>
</g>
<!-- 11&#45;&gt;0 -->
<g id="edge65" class="edge">
<title>11&#45;&gt;0</title>
<path fill="none" stroke="green" stroke-width="0.2" d="M468.95,-78.58C473.57,-74.87 478.87,-71.15 484.24,-68.53 544.67,-38.97 568.91,-57.82 631.24,-32.53 632.47,-32.03 633.71,-31.48 634.94,-30.9"/>
<polygon fill="green" stroke="green" stroke-width="0.2" points="636.98,-33.78 644.13,-25.96 633.66,-27.61 636.98,-33.78"/>
</g>
<!-- 11&#45;&gt;1 -->
<g id="edge66" class="edge">
<title>11&#45;&gt;1</title>
<path fill="none" stroke="red" stroke-width="0.26" d="M468.85,-78.38C473.47,-74.66 478.79,-70.99 484.24,-68.53 565.74,-31.67 598.39,-63.65 682.24,-32.53 683.48,-32.07 684.73,-31.55 685.98,-30.99"/>
<polygon fill="red" stroke="red" stroke-width="0.26" points="687.98,-33.89 695.19,-26.13 684.72,-27.7 687.98,-33.89"/>
</g>
<!-- 11&#45;&gt;2 -->
<g id="edge67" class="edge">
<title>11&#45;&gt;2</title>
<path fill="none" stroke="green" stroke-width="0.23" d="M468.49,-78.5C473.18,-74.69 478.63,-70.94 484.24,-68.53 586.94,-24.3 627.72,-69.52 733.24,-32.53 734.49,-32.09 735.75,-31.59 737,-31.04"/>
<polygon fill="green" stroke="green" stroke-width="0.23" points="738.98,-33.95 746.23,-26.23 735.75,-27.75 738.98,-33.95"/>
</g>
<!-- 11&#45;&gt;4 -->
<g id="edge68" class="edge">
<title>11&#45;&gt;4</title>
<path fill="none" stroke="red" stroke-width="0.41" d="M470.02,-79.57C474.58,-75.96 479.58,-72.05 484.24,-68.53 500.66,-56.11 519.56,-42.5 533.73,-32.42"/>
<polygon fill="red" stroke="red" stroke-width="0.41" points="536.15,-34.99 542.29,-26.36 532.11,-29.28 536.15,-34.99"/>
</g>
<!-- 11&#45;&gt;5 -->
<g id="edge69" class="edge">
<title>11&#45;&gt;5</title>
<path fill="none" stroke="red" stroke-width="0.54" d="M469.16,-78.98C473.78,-75.28 479.04,-71.47 484.24,-68.53 523.92,-46.12 539.11,-52.13 580.24,-32.53 581.41,-31.97 582.6,-31.38 583.79,-30.76"/>
<polygon fill="red" stroke="red" stroke-width="0.54" points="585.68,-33.71 592.72,-25.8 582.28,-27.6 585.68,-33.71"/>
</g>
<!-- 11&#45;&gt;6 -->
<g id="edge70" class="edge">
<title>11&#45;&gt;6</title>
<path fill="none" stroke="red" stroke-width="0.33" d="M468.43,-78.36C473.11,-74.54 478.58,-70.83 484.24,-68.53 629.53,-9.5 686.21,-81.34 835.24,-32.53 836.5,-32.11 837.77,-31.63 839.02,-31.1"/>
<polygon fill="red" stroke="red" stroke-width="0.33" points="840.98,-34.03 848.27,-26.34 837.78,-27.81 840.98,-34.03"/>
</g>
<!-- 11&#45;&gt;7 -->
<g id="edge71" class="edge">
<title>11&#45;&gt;7</title>
<path fill="none" stroke="red" stroke-width="0.49" d="M468.46,-78.42C473.14,-74.6 478.6,-70.88 484.24,-68.53 608.22,-16.91 656.99,-75.42 784.24,-32.53 785.5,-32.1 786.76,-31.61 788.01,-31.08"/>
<polygon fill="red" stroke="red" stroke-width="0.49" points="789.98,-34 797.25,-26.3 786.76,-27.78 789.98,-34"/>
</g>
<!-- 12&#45;&gt;0 -->
<g id="edge72" class="edge">
<title>12&#45;&gt;0</title>
<path fill="none" stroke="red" stroke-width="0.64" d="M631.47,-74.12C636.05,-64.03 641.79,-51.36 646.69,-40.55"/>
<polygon fill="red" stroke="red" stroke-width="0.64" points="649.96,-41.82 650.9,-31.26 643.58,-38.93 649.96,-41.82"/>
</g>
<!-- 12&#45;&gt;1 -->
<g id="edge73" class="edge">
<title>12&#45;&gt;1</title>
<path fill="none" stroke="green" stroke-width="0.16" d="M638.44,-78.86C652.46,-66.49 673.36,-48.05 688.63,-34.57"/>
<polygon fill="green" stroke="green" stroke-width="0.16" points="691.28,-36.9 696.46,-27.66 686.65,-31.65 691.28,-36.9"/>
</g>
<!-- 12&#45;&gt;2 -->
<g id="edge74" class="edge">
<title>12&#45;&gt;2</title>
<path fill="none" stroke="green" stroke-width="0.32" d="M638.02,-78.9C642.42,-75.28 647.37,-71.53 652.24,-68.53 685.78,-47.86 698.2,-50.53 733.24,-32.53 734.39,-31.93 735.57,-31.31 736.74,-30.68"/>
<polygon fill="green" stroke="green" stroke-width="0.32" points="738.67,-33.61 745.64,-25.64 735.21,-27.52 738.67,-33.61"/>
</g>
<!-- 12&#45;&gt;3 -->
<g id="edge75" class="edge">
<title>12&#45;&gt;3</title>
<path fill="none" stroke="red" stroke-width="0.38" d="M637.26,-78.28C641.72,-74.56 646.89,-70.91 652.24,-68.53 748.35,-25.68 786.09,-64.79 886.24,-32.53 888.68,-31.74 891.15,-30.78 893.59,-29.73"/>
<polygon fill="red" stroke="red" stroke-width="0.38" points="895.12,-32.87 902.59,-25.36 892.07,-26.57 895.12,-32.87"/>
</g>
<!-- 12&#45;&gt;4 -->
<g id="edge76" class="edge">
<title>12&#45;&gt;4</title>
<path fill="none" stroke="green" stroke-width="0.15" d="M609.81,-77.46C599.27,-65.83 584.5,-49.54 572.99,-36.84"/>
<polygon fill="green" stroke="green" stroke-width="0.15" points="575.28,-34.15 565.97,-29.1 570.09,-38.85 575.28,-34.15"/>
</g>
<!-- 12&#45;&gt;5 -->
<g id="edge77" class="edge">
<title>12&#45;&gt;5</title>
<path fill="none" stroke="green" stroke-width="0.13" d="M618.86,-72.96C616.73,-63.55 614.14,-52.13 611.87,-42.08"/>
<polygon fill="green" stroke="green" stroke-width="0.13" points="615.26,-41.23 609.64,-32.25 608.44,-42.78 615.26,-41.23"/>
</g>
<!-- 12&#45;&gt;6 -->
<g id="edge78" class="edge">
<title>12&#45;&gt;6</title>
<path fill="none" stroke="red" stroke-width="0.22" stroke-dasharray="1,5" d="M637.62,-78.17C642.02,-74.54 647.06,-70.97 652.24,-68.53 727.23,-33.2 757.74,-61.92 835.24,-32.53 836.48,-32.06 837.73,-31.53 838.97,-30.96"/>
<polygon fill="red" stroke="red" stroke-width="0.22" points="840.98,-33.86 848.18,-26.09 837.7,-27.68 840.98,-33.86"/>
</g>
<!-- 12&#45;&gt;7 -->
<g id="edge79" class="edge">
<title>12&#45;&gt;7</title>
<path fill="none" stroke="green" stroke-width="0.14" d="M637.74,-78.41C642.14,-74.78 647.15,-71.15 652.24,-68.53 706.29,-40.65 728.2,-56.13 784.24,-32.53 785.46,-32.01 786.7,-31.45 787.93,-30.86"/>
<polygon fill="green" stroke="green" stroke-width="0.14" points="789.97,-33.73 797.1,-25.89 786.64,-27.57 789.97,-33.73"/>
</g>
<!-- 13&#45;&gt;0 -->
<g id="edge80" class="edge">
<title>13&#45;&gt;0</title>
<path fill="none" stroke="green" stroke-width="0.56" d="M675.93,-73.35C672.72,-63.71 668.78,-51.89 665.35,-41.59"/>
<polygon fill="green" stroke="green" stroke-width="0.56" points="668.61,-40.31 662.13,-31.93 661.97,-42.52 668.61,-40.31"/>
</g>
<!-- 13&#45;&gt;1 -->
<g id="edge81" class="edge">
<title>13&#45;&gt;1</title>
<path fill="none" stroke="red" stroke-width="0.53" d="M688.67,-73.73C692.01,-64.1 696.13,-52.21 699.73,-41.82"/>
<polygon fill="red" stroke="red" stroke-width="0.53" points="703.14,-42.67 703.11,-32.08 696.53,-40.38 703.14,-42.67"/>
</g>
<!-- 13&#45;&gt;2 -->
<g id="edge82" class="edge">
<title>13&#45;&gt;2</title>
<path fill="none" stroke="green" stroke-width="0.29" d="M696.72,-78.17C709.11,-66.1 727.01,-48.67 740.48,-35.54"/>
<polygon fill="green" stroke="green" stroke-width="0.29" points="743.11,-37.86 747.83,-28.38 738.23,-32.85 743.11,-37.86"/>
</g>
<!-- 13&#45;&gt;3 -->
<g id="edge83" class="edge">
<title>13&#45;&gt;3</title>
<path fill="none" stroke="red" stroke-width="0.14" d="M696.64,-78.2C701.03,-74.57 706.07,-70.99 711.24,-68.53 782.93,-34.38 811.3,-58.77 886.24,-32.53 888.65,-31.68 891.12,-30.68 893.55,-29.6"/>
<polygon fill="red" stroke="red" stroke-width="0.14" points="895.09,-32.74 902.54,-25.21 892.02,-26.45 895.09,-32.74"/>
</g>
<!-- 13&#45;&gt;4 -->
<g id="edge84" class="edge">
<title>13&#45;&gt;4</title>
<path fill="none" stroke="red" stroke-width="0.21" d="M667.38,-79.04C662.98,-75.42 658.05,-71.64 653.24,-68.53 623.22,-49.07 612.69,-49.59 581.24,-32.53 580.1,-31.91 578.94,-31.27 577.77,-30.61"/>
<polygon fill="red" stroke="red" stroke-width="0.21" points="579.32,-27.47 568.91,-25.52 575.83,-33.54 579.32,-27.47"/>
</g>
<!-- 13&#45;&gt;5 -->
<g id="edge85" class="edge">
<title>13&#45;&gt;5</title>
<path fill="none" stroke="red" stroke-width="0.46" d="M667.95,-78.17C655.73,-66.1 638.06,-48.67 624.76,-35.54"/>
<polygon fill="red" stroke="red" stroke-width="0.46" points="627.08,-32.91 617.5,-28.38 622.16,-37.9 627.08,-32.91"/>
</g>
<!-- 13&#45;&gt;6 -->
<g id="edge86" class="edge">
<title>13&#45;&gt;6</title>
<path fill="none" stroke="red" stroke-width="0.27" d="M696.77,-78.46C701.16,-74.83 706.17,-71.19 711.24,-68.53 762.03,-41.81 782.54,-55.23 835.24,-32.53 836.46,-32 837.69,-31.43 838.92,-30.83"/>
<polygon fill="red" stroke="red" stroke-width="0.27" points="840.97,-33.7 848.08,-25.84 837.62,-27.55 840.97,-33.7"/>
</g>
<!-- 13&#45;&gt;7 -->
<g id="edge87" class="edge">
<title>13&#45;&gt;7</title>
<path fill="none" stroke="green" stroke-width="0.12" d="M697.1,-79.02C701.5,-75.4 706.43,-71.63 711.24,-68.53 741.66,-48.94 752.4,-49.7 784.24,-32.53 785.38,-31.91 786.54,-31.27 787.72,-30.62"/>
<polygon fill="green" stroke="green" stroke-width="0.12" points="789.65,-33.54 796.58,-25.53 786.17,-27.47 789.65,-33.54"/>
</g>
<!-- 14&#45;&gt;0 -->
<g id="edge88" class="edge">
<title>14&#45;&gt;0</title>
<path fill="none" stroke="red" stroke-width="0.46" d="M726.22,-78.86C712.37,-66.49 691.72,-48.05 676.62,-34.57"/>
<polygon fill="red" stroke="red" stroke-width="0.46" points="678.68,-31.71 668.89,-27.66 674.01,-36.93 678.68,-31.71"/>
</g>
<!-- 14&#45;&gt;1 -->
<g id="edge89" class="edge">
<title>14&#45;&gt;1</title>
<path fill="none" stroke="green" stroke-width="0.26" d="M733.25,-74.12C728.87,-64.16 723.39,-51.69 718.67,-40.97"/>
<polygon fill="green" stroke="green" stroke-width="0.26" points="721.84,-39.49 714.61,-31.74 715.44,-42.31 721.84,-39.49"/>
</g>
<!-- 14&#45;&gt;2 -->
<g id="edge90" class="edge">
<title>14&#45;&gt;2</title>
<path fill="none" stroke="red" stroke-width="0.11" d="M745.88,-72.96C748.13,-63.55 750.88,-52.13 753.29,-42.08"/>
<polygon fill="red" stroke="red" stroke-width="0.11" points="756.71,-42.8 755.64,-32.25 749.91,-41.16 756.71,-42.8"/>
</g>
<!-- 14&#45;&gt;3 -->
<g id="edge91" class="edge">
<title>14&#45;&gt;3</title>
<path fill="none" stroke="green" stroke-width="0.79" d="M755.8,-78.52C760.2,-74.89 765.2,-71.24 770.24,-68.53 817.78,-42.95 836.23,-52.84 886.24,-32.53 888.61,-31.56 891.05,-30.49 893.46,-29.36"/>
<polygon fill="green" stroke="green" stroke-width="0.79" points="895.02,-32.49 902.43,-24.91 891.92,-26.21 895.02,-32.49"/>
</g>
<!-- 14&#45;&gt;4 -->
<g id="edge92" class="edge">
<title>14&#45;&gt;4</title>
<path fill="none" stroke="red" stroke-width="0.21" d="M726.74,-78.41C722.35,-74.79 717.33,-71.16 712.24,-68.53 658.61,-40.8 636.87,-56.01 581.24,-32.53 580.02,-32.01 578.79,-31.45 577.56,-30.85"/>
<polygon fill="red" stroke="red" stroke-width="0.21" points="578.85,-27.57 568.39,-25.88 575.51,-33.73 578.85,-27.57"/>
</g>
<!-- 14&#45;&gt;5 -->
<g id="edge93" class="edge">
<title>14&#45;&gt;5</title>
<path fill="none" stroke="red" stroke-width="0.19" d="M726.46,-78.91C722.06,-75.29 717.11,-71.54 712.24,-68.53 679.09,-48 666.88,-50.42 632.24,-32.53 631.09,-31.93 629.92,-31.31 628.74,-30.67"/>
<polygon fill="red" stroke="red" stroke-width="0.19" points="630.27,-27.52 619.85,-25.62 626.82,-33.6 630.27,-27.52"/>
</g>
<!-- 14&#45;&gt;6 -->
<g id="edge94" class="edge">
<title>14&#45;&gt;6</title>
<path fill="none" stroke="red" stroke-width="0.19" d="M756.19,-79.17C760.59,-75.55 765.5,-71.74 770.24,-68.53 797.57,-49.99 806.56,-48.89 835.24,-32.53 836.37,-31.89 837.52,-31.22 838.68,-30.56"/>
<polygon fill="red" stroke="red" stroke-width="0.19" points="840.64,-33.47 847.52,-25.41 837.11,-27.42 840.64,-33.47"/>
</g>
<!-- 14&#45;&gt;7 -->
<g id="edge95" class="edge">
<title>14&#45;&gt;7</title>
<path fill="none" stroke="green" stroke-width="0.64" d="M754.87,-77.46C765.67,-65.72 780.84,-49.23 792.57,-36.48"/>
<polygon fill="green" stroke="green" stroke-width="0.64" points="795.16,-38.82 799.36,-29.1 790.01,-34.09 795.16,-38.82"/>
</g>
<!-- 15&#45;&gt;0 -->
<g id="edge96" class="edge">
<title>15&#45;&gt;0</title>
<path fill="none" stroke="green" stroke-width="0.13" d="M785.52,-78.8C781.13,-75.18 776.16,-71.46 771.24,-68.53 734.94,-46.9 721.11,-51.27 683.24,-32.53 682.08,-31.95 680.9,-31.35 679.72,-30.72"/>
<polygon fill="green" stroke="green" stroke-width="0.13" points="681.24,-27.56 670.8,-25.72 677.81,-33.66 681.24,-27.56"/>
</g>
<!-- 15&#45;&gt;1 -->
<g id="edge97" class="edge">
<title>15&#45;&gt;1</title>
<path fill="none" stroke="red" stroke-width="0.42" d="M784.6,-79.45C780.27,-75.91 775.58,-72.07 771.24,-68.53 757.04,-56.93 741.02,-43.9 728.68,-33.87"/>
<polygon fill="red" stroke="red" stroke-width="0.42" points="730.77,-31.06 720.8,-27.46 726.35,-36.49 730.77,-31.06"/>
</g>
<!-- 15&#45;&gt;2 -->
<g id="edge98" class="edge">
<title>15&#45;&gt;2</title>
<path fill="none" stroke="red" stroke-width="0.19" d="M790.73,-74.88C785.04,-64.46 777.74,-51.11 771.61,-39.89"/>
<polygon fill="red" stroke="red" stroke-width="0.19" points="774.65,-38.16 766.79,-31.07 768.51,-41.52 774.65,-38.16"/>
</g>
<!-- 15&#45;&gt;3 -->
<g id="edge99" class="edge">
<title>15&#45;&gt;3</title>
<path fill="none" stroke="red" stroke-width="0.22" d="M815.25,-79.25C819.65,-75.63 824.55,-71.8 829.24,-68.53 850.11,-53.97 875.27,-39.44 893.16,-29.59"/>
<polygon fill="red" stroke="red" stroke-width="0.22" points="895.17,-32.48 902.27,-24.63 891.82,-26.33 895.17,-32.48"/>
</g>
<!-- 15&#45;&gt;4 -->
<g id="edge100" class="edge">
<title>15&#45;&gt;4</title>
<path fill="none" stroke="red" stroke-width="0.23" d="M785.87,-78.15C781.48,-74.51 776.43,-70.95 771.24,-68.53 693.36,-32.17 661.71,-62.73 581.24,-32.53 580,-32.06 578.75,-31.54 577.51,-30.97"/>
<polygon fill="red" stroke="red" stroke-width="0.23" points="578.77,-27.69 568.3,-26.11 575.5,-33.87 578.77,-27.69"/>
</g>
<!-- 15&#45;&gt;5 -->
<g id="edge101" class="edge">
<title>15&#45;&gt;5</title>
<path fill="none" stroke="green" stroke-width="0.17" d="M785.76,-78.37C781.37,-74.74 776.35,-71.12 771.24,-68.53 714.34,-39.64 691.21,-56.92 632.24,-32.53 631.02,-32.02 629.78,-31.47 628.55,-30.88"/>
<polygon fill="green" stroke="green" stroke-width="0.17" points="629.83,-27.59 619.37,-25.92 626.51,-33.75 629.83,-27.59"/>
</g>
<!-- 15&#45;&gt;6 -->
<g id="edge102" class="edge">
<title>15&#45;&gt;6</title>
<path fill="none" stroke="red" stroke-width="0.39" d="M812.88,-76.73C822.18,-65.3 834.9,-49.65 844.96,-37.28"/>
<polygon fill="red" stroke="red" stroke-width="0.39" points="847.83,-39.3 851.43,-29.33 842.4,-34.88 847.83,-39.3"/>
</g>
<!-- 15&#45;&gt;7 -->
<g id="edge103" class="edge">
<title>15&#45;&gt;7</title>
<path fill="none" stroke="red" stroke-width="0.14" d="M802.87,-72.57C804.09,-63.39 805.56,-52.35 806.87,-42.57"/>
<polygon fill="red" stroke="red" stroke-width="0.14" points="810.35,-42.95 808.2,-32.58 803.41,-42.03 810.35,-42.95"/>
</g>
<!-- 16&#45;&gt;0 -->
<g id="edge104" class="edge">
<title>16&#45;&gt;0</title>
<path fill="none" stroke="red" stroke-width="0.15" d="M844.79,-78.32C840.39,-74.69 835.37,-71.09 830.24,-68.53 770.06,-38.47 745.57,-57.82 683.24,-32.53 682.01,-32.03 680.78,-31.48 679.54,-30.9"/>
<polygon fill="red" stroke="red" stroke-width="0.15" points="680.82,-27.61 670.35,-25.96 677.51,-33.78 680.82,-27.61"/>
</g>
<!-- 16&#45;&gt;1 -->
<g id="edge105" class="edge">
<title>16&#45;&gt;1</title>
<path fill="none" stroke="red" stroke-width="0.18" d="M844.58,-78.71C840.18,-75.08 835.2,-71.38 830.24,-68.53 790.75,-45.79 775.38,-52.13 734.24,-32.53 733.07,-31.97 731.89,-31.38 730.7,-30.76"/>
<polygon fill="red" stroke="red" stroke-width="0.18" points="732.21,-27.6 721.77,-25.8 728.8,-33.71 732.21,-27.6"/>
</g>
<!-- 16&#45;&gt;2 -->
<g id="edge106" class="edge">
<title>16&#45;&gt;2</title>
<path fill="none" stroke="green" stroke-width="0.36" d="M843.73,-79.28C839.41,-75.74 834.68,-71.94 830.24,-68.53 813.93,-55.98 795.02,-42.37 780.82,-32.33"/>
<polygon fill="green" stroke="green" stroke-width="0.36" points="782.43,-29.18 772.24,-26.29 778.41,-34.91 782.43,-29.18"/>
</g>
<!-- 16&#45;&gt;3 -->
<g id="edge107" class="edge">
<title>16&#45;&gt;3</title>
<path fill="none" stroke="red" stroke-width="0.63" d="M871.33,-76.37C879.85,-65.15 891.34,-50.04 900.56,-37.9"/>
<polygon fill="red" stroke="red" stroke-width="0.63" points="903.54,-39.76 906.81,-29.68 897.97,-35.53 903.54,-39.76"/>
</g>
<!-- 16&#45;&gt;4 -->
<g id="edge108" class="edge">
<title>16&#45;&gt;4</title>
<path fill="none" stroke="red" stroke-width="0.26" d="M845.24,-78.25C840.78,-74.52 835.6,-70.89 830.24,-68.53 727.91,-23.46 686.76,-69.52 581.24,-32.53 579.99,-32.09 578.73,-31.59 577.48,-31.04"/>
<polygon fill="red" stroke="red" stroke-width="0.26" points="578.74,-27.75 568.25,-26.23 575.5,-33.95 578.74,-27.75"/>
</g>
<!-- 16&#45;&gt;5 -->
<g id="edge109" class="edge">
<title>16&#45;&gt;5</title>
<path fill="none" stroke="red" stroke-width="0.57" d="M844.88,-78.12C840.49,-74.49 835.44,-70.93 830.24,-68.53 749.05,-31 716.1,-63.65 632.24,-32.53 631,-32.07 629.75,-31.55 628.5,-30.99"/>
<polygon fill="red" stroke="red" stroke-width="0.57" points="629.77,-27.7 619.29,-26.13 626.5,-33.89 629.77,-27.7"/>
</g>
<!-- 16&#45;&gt;6 -->
<g id="edge110" class="edge">
<title>16&#45;&gt;6</title>
<path fill="none" stroke="green" stroke-width="0.45" d="M859.77,-72.57C860.01,-63.48 860.3,-52.59 860.56,-42.88"/>
<polygon fill="green" stroke="green" stroke-width="0.45" points="864.07,-42.67 860.83,-32.58 857.07,-42.48 864.07,-42.67"/>
</g>
<!-- 16&#45;&gt;7 -->
<g id="edge111" class="edge">
<title>16&#45;&gt;7</title>
<path fill="none" stroke="red" stroke-width="0.23" d="M848.37,-75.63C841.34,-64.87 832.11,-50.74 824.5,-39.09"/>
<polygon fill="red" stroke="red" stroke-width="0.23" points="827.21,-36.84 818.81,-30.38 821.35,-40.66 827.21,-36.84"/>
</g>
<!-- 17&#45;&gt;0 -->
<g id="edge112" class="edge">
<title>17&#45;&gt;0</title>
<path fill="none" stroke="green" stroke-width="0.11" d="M903.89,-78.1C899.5,-74.46 894.45,-70.91 889.24,-68.53 804.74,-29.82 770.49,-64.57 683.24,-32.53 682,-32.07 680.75,-31.55 679.5,-31"/>
<polygon fill="green" stroke="green" stroke-width="0.11" points="680.76,-27.71 670.28,-26.15 677.5,-33.9 680.76,-27.71"/>
</g>
<!-- 17&#45;&gt;1 -->
<g id="edge113" class="edge">
<title>17&#45;&gt;1</title>
<path fill="none" stroke="green" stroke-width="0.29" stroke-dasharray="1,5" d="M903.81,-78.28C899.41,-74.65 894.38,-71.05 889.24,-68.53 825.78,-37.31 799.93,-58.73 734.24,-32.53 733.01,-32.04 731.77,-31.49 730.53,-30.91"/>
<polygon fill="green" stroke="green" stroke-width="0.29" points="731.81,-27.63 721.34,-25.99 728.51,-33.8 731.81,-27.63"/>
</g>
<!-- 17&#45;&gt;2 -->
<g id="edge114" class="edge">
<title>17&#45;&gt;2</title>
<path fill="none" stroke="green" stroke-width="0.35" d="M903.62,-78.63C899.23,-75 894.24,-71.32 889.24,-68.53 846.55,-44.66 829.66,-53.01 785.24,-32.53 784.07,-31.98 782.87,-31.4 781.68,-30.8"/>
<polygon fill="green" stroke="green" stroke-width="0.35" points="783.18,-27.63 772.73,-25.86 779.8,-33.76 783.18,-27.63"/>
</g>
<!-- 17&#45;&gt;3 -->
<g id="edge115" class="edge">
<title>17&#45;&gt;3</title>
<path fill="none" stroke="red" stroke-width="0.56" d="M917.72,-72.57C917.47,-63.48 917.18,-52.59 916.92,-42.88"/>
<polygon fill="red" stroke="red" stroke-width="0.56" points="920.42,-42.48 916.65,-32.58 913.42,-42.67 920.42,-42.48"/>
</g>
<!-- 17&#45;&gt;4 -->
<g id="edge116" class="edge">
<title>17&#45;&gt;4</title>
<path fill="none" stroke="red" stroke-width="0.45" d="M904.28,-78.15C899.82,-74.43 894.63,-70.81 889.24,-68.53 762.37,-14.7 711.91,-76.35 581.24,-32.53 579.99,-32.11 578.72,-31.62 577.47,-31.08"/>
<polygon fill="red" stroke="red" stroke-width="0.45" points="578.72,-27.79 568.23,-26.3 575.5,-34.01 578.72,-27.79"/>
</g>
<!-- 17&#45;&gt;5 -->
<g id="edge117" class="edge">
<title>17&#45;&gt;5</title>
<path fill="none" stroke="red" stroke-width="0.25" d="M904.24,-78.23C899.78,-74.51 894.61,-70.88 889.24,-68.53 783.59,-22.27 741.17,-70.45 632.24,-32.53 630.99,-32.09 629.73,-31.59 628.48,-31.05"/>
<polygon fill="red" stroke="red" stroke-width="0.25" points="629.74,-27.75 619.25,-26.24 626.5,-33.96 629.74,-27.75"/>
</g>
<!-- 17&#45;&gt;6 -->
<g id="edge118" class="edge">
<title>17&#45;&gt;6</title>
<path fill="none" stroke="green" stroke-width="0.3" d="M906.15,-76.37C897.63,-65.15 886.14,-50.04 876.92,-37.9"/>
<polygon fill="green" stroke="green" stroke-width="0.3" points="879.52,-35.53 870.68,-29.68 873.94,-39.76 879.52,-35.53"/>
</g>
<!-- 17&#45;&gt;7 -->
<g id="edge119" class="edge">
<title>17&#45;&gt;7</title>
<path fill="none" stroke="red" stroke-width="0.19" d="M903.14,-79.38C898.74,-75.77 893.87,-71.9 889.24,-68.53 870.7,-54.98 848.73,-40.87 832.67,-30.89"/>
<polygon fill="red" stroke="red" stroke-width="0.19" points="834.32,-27.8 823.97,-25.53 830.64,-33.75 834.32,-27.8"/>
</g>
<!-- 525&#45;&gt;3 -->
<g id="edge153" class="edge">
<title>525&#45;&gt;3</title>
<path fill="none" stroke="green" stroke-width="0.17" d="M1696.49,-77.74C1690.58,-74.1 1683.89,-70.64 1677.24,-68.53 1536.16,-23.78 1061.22,-18.09 943.04,-17.37"/>
<polygon fill="green" stroke="green" stroke-width="0.17" points="942.76,-13.87 932.74,-17.31 942.72,-20.87 942.76,-13.87"/>
</g>
</g>
</svg>
