<?xml version="1.0" encoding="UTF-8" standalone="no"?>
<!DOCTYPE svg PUBLIC "-//W3C//DTD SVG 1.1//EN"
 "http://www.w3.org/Graphics/SVG/1.1/DTD/svg11.dtd">
<!-- Generated by graphviz version 2.44.0 (0)
 -->
<!-- Pages: 1 -->
<svg width="1472pt" height="180pt"
 viewBox="0.00 0.00 1472.39 180.02" xmlns="http://www.w3.org/2000/svg" xmlns:xlink="http://www.w3.org/1999/xlink">
<g id="graph0" class="graph" transform="scale(1 1) rotate(0) translate(4 176.02)">
<polygon fill="white" stroke="transparent" points="-4,4 -4,-176.02 1468.39,-176.02 1468.39,4 -4,4"/>
<!-- &#45;1 -->
<g id="node1" class="node">
<title>&#45;1</title>
<polygon fill="lightgray" stroke="black" points="619.17,-172.02 593.17,-172.02 593.17,-154.02 619.17,-154.02 619.17,-172.02"/>
<text text-anchor="middle" x="606.17" y="-160.82" font-family="Times-Roman" font-size="9.00">&#45;1</text>
</g>
<!-- 0 -->
<g id="node5" class="node">
<title>0</title>
<ellipse fill="lightblue" stroke="black" cx="658.17" cy="-16.26" rx="16.03" ry="16.03"/>
<text text-anchor="middle" x="658.17" y="-14.06" font-family="Times-Roman" font-size="9.00">0</text>
</g>
<!-- &#45;1&#45;&gt;0 -->
<g id="edge101" class="edge">
<title>&#45;1&#45;&gt;0</title>
<path fill="none" stroke="green" stroke-width="0.29" d="M593.14,-161.98C529.59,-161.34 258.16,-153.68 333.17,-68.53 375.07,-20.95 554.55,-47.45 616.17,-32.53 621.92,-31.13 627.97,-29.22 633.63,-27.21"/>
<polygon fill="green" stroke="green" stroke-width="0.29" points="635.12,-30.39 643.25,-23.6 632.66,-23.84 635.12,-30.39"/>
</g>
<!-- 1 -->
<g id="node6" class="node">
<title>1</title>
<ellipse fill="lightblue" stroke="black" cx="847.17" cy="-16.26" rx="16.03" ry="16.03"/>
<text text-anchor="middle" x="847.17" y="-14.06" font-family="Times-Roman" font-size="9.00">1</text>
</g>
<!-- &#45;1&#45;&gt;1 -->
<g id="edge102" class="edge">
<title>&#45;1&#45;&gt;1</title>
<path fill="none" stroke="red" stroke-width="0.18" d="M619.23,-158.33C625.26,-156.76 632.53,-155.06 639.17,-154.02 693.76,-145.49 1097.54,-158.49 1135.17,-118.02 1212.41,-34.97 958.98,-20.36 873.98,-17.8"/>
<polygon fill="red" stroke="red" stroke-width="0.18" points="873.9,-14.3 863.81,-17.53 873.71,-21.3 873.9,-14.3"/>
</g>
<!-- 2 -->
<g id="node7" class="node">
<title>2</title>
<ellipse fill="lightblue" stroke="black" cx="788.17" cy="-16.26" rx="16.03" ry="16.03"/>
<text text-anchor="middle" x="788.17" y="-14.06" font-family="Times-Roman" font-size="9.00">2</text>
</g>
<!-- &#45;1&#45;&gt;2 -->
<g id="edge103" class="edge">
<title>&#45;1&#45;&gt;2</title>
<path fill="none" stroke="green" stroke-width="0.31" d="M619.24,-158.39C625.27,-156.83 632.54,-155.13 639.17,-154.02 682.09,-146.88 999.84,-150.18 1029.17,-118.02 1043.99,-101.77 1043.33,-85.36 1029.17,-68.53 969.06,2.94 911.46,-59.86 822.17,-32.53 818.72,-31.47 815.17,-30.15 811.71,-28.74"/>
<polygon fill="green" stroke="green" stroke-width="0.31" points="812.98,-25.47 802.42,-24.62 810.14,-31.87 812.98,-25.47"/>
</g>
<!-- 3 -->
<g id="node8" class="node">
<title>3</title>
<ellipse fill="lightblue" stroke="black" cx="591.17" cy="-16.26" rx="16.03" ry="16.03"/>
<text text-anchor="middle" x="591.17" y="-14.06" font-family="Times-Roman" font-size="9.00">3</text>
</g>
<!-- &#45;1&#45;&gt;3 -->
<g id="edge104" class="edge">
<title>&#45;1&#45;&gt;3</title>
<path fill="none" stroke="red" stroke-width="0.15" d="M592.81,-161.85C518.45,-160.74 157.6,-153.56 125.17,-118.02 110.34,-101.78 110.27,-84.72 125.17,-68.53 157.78,-33.08 510.53,-44.56 557.17,-32.53 560.66,-31.63 564.24,-30.4 567.7,-29.02"/>
<polygon fill="red" stroke="red" stroke-width="0.15" points="569.26,-32.16 577,-24.92 566.44,-25.75 569.26,-32.16"/>
</g>
<!-- 4 -->
<g id="node9" class="node">
<title>4</title>
<ellipse fill="lightblue" stroke="black" cx="532.17" cy="-16.26" rx="16.03" ry="16.03"/>
<text text-anchor="middle" x="532.17" y="-14.06" font-family="Times-Roman" font-size="9.00">4</text>
</g>
<!-- &#45;1&#45;&gt;4 -->
<g id="edge105" class="edge">
<title>&#45;1&#45;&gt;4</title>
<path fill="none" stroke="red" stroke-width="0.49" d="M593.08,-162.1C509.46,-162.42 52.14,-162.14 11.17,-118.02 -3.8,-101.91 -3.61,-84.83 11.17,-68.53 44.7,-31.53 404.54,-20.28 505.79,-17.83"/>
<polygon fill="red" stroke="red" stroke-width="0.49" points="505.89,-21.33 515.8,-17.6 505.72,-14.33 505.89,-21.33"/>
</g>
<!-- 5 -->
<g id="node10" class="node">
<title>5</title>
<ellipse fill="lightblue" stroke="black" cx="725.17" cy="-16.26" rx="16.03" ry="16.03"/>
<text text-anchor="middle" x="725.17" y="-14.06" font-family="Times-Roman" font-size="9.00">5</text>
</g>
<!-- &#45;1&#45;&gt;5 -->
<g id="edge106" class="edge">
<title>&#45;1&#45;&gt;5</title>
<path fill="none" stroke="red" stroke-width="0.34" d="M592.91,-161.91C544.74,-161.17 380.11,-155.88 348.17,-118.02 333.98,-101.21 333.47,-84.89 348.17,-68.53 398.2,-12.83 610.23,-49.44 683.17,-32.53 688.93,-31.19 694.99,-29.3 700.65,-27.3"/>
<polygon fill="red" stroke="red" stroke-width="0.34" points="702.14,-30.47 710.27,-23.67 699.68,-23.92 702.14,-30.47"/>
</g>
<!-- 256 -->
<g id="node11" class="node">
<title>256</title>
<ellipse fill="white" stroke="black" cx="583.17" cy="-93.28" rx="25" ry="25"/>
<text text-anchor="middle" x="583.17" y="-91.08" font-family="Times-Roman" font-size="9.00">256</text>
</g>
<!-- &#45;1&#45;&gt;256 -->
<g id="edge1" class="edge">
<title>&#45;1&#45;&gt;256</title>
<path fill="none" stroke="green" stroke-width="0.13" d="M603.44,-153.99C601.11,-147.13 597.61,-136.81 594.16,-126.66"/>
<polygon fill="green" stroke="green" stroke-width="0.13" points="597.45,-125.45 590.92,-117.1 590.82,-127.7 597.45,-125.45"/>
</g>
<!-- 257 -->
<g id="node12" class="node">
<title>257</title>
<ellipse fill="white" stroke="black" cx="650.17" cy="-93.28" rx="25" ry="25"/>
<text text-anchor="middle" x="650.17" y="-91.08" font-family="Times-Roman" font-size="9.00">257</text>
</g>
<!-- &#45;1&#45;&gt;257 -->
<g id="edge2" class="edge">
<title>&#45;1&#45;&gt;257</title>
<path fill="none" stroke="green" stroke-width="0.11" d="M611.39,-153.99C616.39,-146.28 624.25,-134.17 631.59,-122.87"/>
<polygon fill="green" stroke="green" stroke-width="0.11" points="634.54,-124.77 637.05,-114.47 628.67,-120.95 634.54,-124.77"/>
</g>
<!-- 258 -->
<g id="node13" class="node">
<title>258</title>
<ellipse fill="white" stroke="black" cx="516.17" cy="-93.28" rx="25" ry="25"/>
<text text-anchor="middle" x="516.17" y="-91.08" font-family="Times-Roman" font-size="9.00">258</text>
</g>
<!-- &#45;1&#45;&gt;258 -->
<g id="edge3" class="edge">
<title>&#45;1&#45;&gt;258</title>
<path fill="none" stroke="red" stroke-width="0.19" d="M595.49,-153.99C582.84,-144.47 561.3,-128.25 543.85,-115.11"/>
<polygon fill="red" stroke="red" stroke-width="0.19" points="545.77,-112.18 535.67,-108.96 541.56,-117.77 545.77,-112.18"/>
</g>
<!-- 259 -->
<g id="node14" class="node">
<title>259</title>
<ellipse fill="white" stroke="black" cx="717.17" cy="-93.28" rx="25" ry="25"/>
<text text-anchor="middle" x="717.17" y="-91.08" font-family="Times-Roman" font-size="9.00">259</text>
</g>
<!-- &#45;1&#45;&gt;259 -->
<g id="edge4" class="edge">
<title>&#45;1&#45;&gt;259</title>
<path fill="none" stroke="green" stroke-width="0.14" d="M619.4,-155.14C635.13,-146.82 662.03,-132.17 684.17,-118.02 685.82,-116.97 687.5,-115.86 689.18,-114.73"/>
<polygon fill="green" stroke="green" stroke-width="0.14" points="691.29,-117.53 697.52,-108.95 687.31,-111.77 691.29,-117.53"/>
</g>
<!-- 260 -->
<g id="node15" class="node">
<title>260</title>
<ellipse fill="white" stroke="black" cx="851.17" cy="-93.28" rx="25" ry="25"/>
<text text-anchor="middle" x="851.17" y="-91.08" font-family="Times-Roman" font-size="9.00">260</text>
</g>
<!-- &#45;1&#45;&gt;260 -->
<g id="edge5" class="edge">
<title>&#45;1&#45;&gt;260</title>
<path fill="none" stroke="red" stroke-width="0.19" d="M619.31,-158.71C625.34,-157.22 632.61,-155.48 639.17,-154.02 718.39,-136.46 743.78,-150.46 818.17,-118.02 820.01,-117.22 821.85,-116.3 823.67,-115.3"/>
<polygon fill="red" stroke="red" stroke-width="0.19" points="825.84,-118.08 832.46,-109.81 822.12,-112.14 825.84,-118.08"/>
</g>
<!-- 261 -->
<g id="node16" class="node">
<title>261</title>
<ellipse fill="white" stroke="black" cx="995.17" cy="-93.28" rx="25" ry="25"/>
<text text-anchor="middle" x="995.17" y="-91.08" font-family="Times-Roman" font-size="9.00">261</text>
</g>
<!-- &#45;1&#45;&gt;261 -->
<g id="edge6" class="edge">
<title>&#45;1&#45;&gt;261</title>
<path fill="none" stroke="red" stroke-width="0.5" d="M619.27,-158.55C625.3,-157.03 632.57,-155.3 639.17,-154.02 747.64,-132.99 776.43,-137.7 885.17,-118.02 910.78,-113.39 939.52,-107.15 961.2,-102.23"/>
<polygon fill="red" stroke="red" stroke-width="0.5" points="962.26,-105.58 971.23,-99.93 960.7,-98.75 962.26,-105.58"/>
</g>
<!-- 262 -->
<g id="node17" class="node">
<title>262</title>
<ellipse fill="white" stroke="black" cx="784.17" cy="-93.28" rx="25" ry="25"/>
<text text-anchor="middle" x="784.17" y="-91.08" font-family="Times-Roman" font-size="9.00">262</text>
</g>
<!-- &#45;1&#45;&gt;262 -->
<g id="edge7" class="edge">
<title>&#45;1&#45;&gt;262</title>
<path fill="none" stroke="red" stroke-width="0.62" d="M619.62,-158.55C650.84,-150.39 727.35,-129.8 751.17,-118.02 752.97,-117.13 754.78,-116.15 756.58,-115.09"/>
<polygon fill="red" stroke="red" stroke-width="0.62" points="758.8,-117.83 765.3,-109.46 755,-111.95 758.8,-117.83"/>
</g>
<!-- 263 -->
<g id="node18" class="node">
<title>263</title>
<ellipse fill="white" stroke="black" cx="1101.17" cy="-93.28" rx="25" ry="25"/>
<text text-anchor="middle" x="1101.17" y="-91.08" font-family="Times-Roman" font-size="9.00">263</text>
</g>
<!-- &#45;1&#45;&gt;263 -->
<g id="edge8" class="edge">
<title>&#45;1&#45;&gt;263</title>
<path fill="none" stroke="green" stroke-width="0.36" d="M619.24,-158.37C625.26,-156.81 632.53,-155.1 639.17,-154.02 825.4,-123.71 882.83,-176.65 1062.17,-118.02 1065.69,-116.87 1069.23,-115.35 1072.65,-113.63"/>
<polygon fill="green" stroke="green" stroke-width="0.36" points="1074.38,-116.68 1081.39,-108.73 1070.96,-110.57 1074.38,-116.68"/>
</g>
<!-- 264 -->
<g id="node19" class="node">
<title>264</title>
<ellipse fill="white" stroke="black" cx="382.17" cy="-93.28" rx="25" ry="25"/>
<text text-anchor="middle" x="382.17" y="-91.08" font-family="Times-Roman" font-size="9.00">264</text>
</g>
<!-- &#45;1&#45;&gt;264 -->
<g id="edge9" class="edge">
<title>&#45;1&#45;&gt;264</title>
<path fill="none" stroke="green" stroke-width="0.16" d="M593.09,-160.81C561.32,-157.49 478.1,-146.51 415.17,-118.02 413.33,-117.19 411.5,-116.26 409.69,-115.24"/>
<polygon fill="green" stroke="green" stroke-width="0.16" points="411.24,-112.08 400.92,-109.71 407.51,-118 411.24,-112.08"/>
</g>
<!-- 265 -->
<g id="node20" class="node">
<title>265</title>
<ellipse fill="white" stroke="black" cx="449.17" cy="-93.28" rx="25" ry="25"/>
<text text-anchor="middle" x="449.17" y="-91.08" font-family="Times-Roman" font-size="9.00">265</text>
</g>
<!-- &#45;1&#45;&gt;265 -->
<g id="edge10" class="edge">
<title>&#45;1&#45;&gt;265</title>
<path fill="none" stroke="green" stroke-width="0.11" d="M592.99,-158.68C569.77,-152.49 520.41,-138.05 482.17,-118.02 480.38,-117.09 478.59,-116.07 476.81,-115"/>
<polygon fill="green" stroke="green" stroke-width="0.11" points="478.4,-111.85 468.12,-109.3 474.56,-117.71 478.4,-111.85"/>
</g>
<!-- &#45;2 -->
<g id="node2" class="node">
<title>&#45;2</title>
<polygon fill="lightgray" stroke="black" points="674.17,-172.02 648.17,-172.02 648.17,-154.02 674.17,-154.02 674.17,-172.02"/>
<text text-anchor="middle" x="661.17" y="-160.82" font-family="Times-Roman" font-size="9.00">&#45;2</text>
</g>
<!-- &#45;2&#45;&gt;0 -->
<g id="edge107" class="edge">
<title>&#45;2&#45;&gt;0</title>
<path fill="none" stroke="red" stroke-width="0.2" d="M648.07,-158.5C642.04,-156.97 634.78,-155.25 628.17,-154.02 566.48,-142.62 389.6,-165.13 348.17,-118.02 333.64,-101.51 333.68,-85.09 348.17,-68.53 387.73,-23.3 557.81,-46.87 616.17,-32.53 621.91,-31.11 627.96,-29.19 633.62,-27.18"/>
<polygon fill="red" stroke="red" stroke-width="0.2" points="635.11,-30.36 643.25,-23.57 632.65,-23.81 635.11,-30.36"/>
</g>
<!-- &#45;2&#45;&gt;1 -->
<g id="edge108" class="edge">
<title>&#45;2&#45;&gt;1</title>
<path fill="none" stroke="green" stroke-width="0.72" d="M674.5,-159.31C683.43,-157.57 695.46,-155.4 706.17,-154.02 755.7,-147.65 1120.3,-154.72 1154.17,-118.02 1236.16,-29.18 962.53,-18.51 873.93,-17.36"/>
<polygon fill="green" stroke="green" stroke-width="0.72" points="873.88,-13.86 863.85,-17.26 873.81,-20.86 873.88,-13.86"/>
</g>
<!-- &#45;2&#45;&gt;2 -->
<g id="edge109" class="edge">
<title>&#45;2&#45;&gt;2</title>
<path fill="none" stroke="red" stroke-width="0.33" d="M674.51,-159.32C683.43,-157.59 695.47,-155.42 706.17,-154.02 753.6,-147.83 1102.79,-153.23 1135.17,-118.02 1150.06,-101.83 1149.81,-84.95 1135.17,-68.53 1088.57,-16.27 889.68,-51.08 822.17,-32.53 818.69,-31.57 815.12,-30.31 811.66,-28.92"/>
<polygon fill="red" stroke="red" stroke-width="0.33" points="812.92,-25.65 802.36,-24.81 810.09,-32.06 812.92,-25.65"/>
</g>
<!-- &#45;2&#45;&gt;3 -->
<g id="edge110" class="edge">
<title>&#45;2&#45;&gt;3</title>
<path fill="none" stroke="red" stroke-width="0.28" d="M648.1,-158.34C642.07,-156.78 634.8,-155.08 628.17,-154.02 576.99,-145.89 198.37,-156.06 163.17,-118.02 148.22,-101.88 148.34,-84.77 163.17,-68.53 222.44,-3.59 472.12,-54.84 557.17,-32.53 560.65,-31.61 564.23,-30.37 567.69,-29"/>
<polygon fill="red" stroke="red" stroke-width="0.28" points="569.26,-32.13 576.99,-24.89 566.43,-25.73 569.26,-32.13"/>
</g>
<!-- &#45;2&#45;&gt;4 -->
<g id="edge111" class="edge">
<title>&#45;2&#45;&gt;4</title>
<path fill="none" stroke="red" stroke-width="0.22" d="M648.1,-158.3C642.08,-156.72 634.81,-155.03 628.17,-154.02 564.43,-144.39 93.31,-165 49.17,-118.02 34.1,-101.99 34.45,-84.88 49.17,-68.53 79.95,-34.31 409.55,-21.17 505.88,-18.04"/>
<polygon fill="red" stroke="red" stroke-width="0.22" points="506.06,-21.54 515.94,-17.73 505.84,-14.54 506.06,-21.54"/>
</g>
<!-- &#45;2&#45;&gt;5 -->
<g id="edge112" class="edge">
<title>&#45;2&#45;&gt;5</title>
<path fill="none" stroke="green" stroke-width="0.33" d="M674.28,-159.68C721.71,-151.17 881.74,-122.19 885.17,-118.02 899.14,-101.04 898.34,-86.15 885.17,-68.53 851.32,-23.25 816.57,-51.08 763.17,-32.53 758.66,-30.96 753.91,-29.17 749.35,-27.38"/>
<polygon fill="green" stroke="green" stroke-width="0.33" points="750.42,-24.04 739.84,-23.54 747.8,-30.53 750.42,-24.04"/>
</g>
<!-- &#45;2&#45;&gt;256 -->
<g id="edge11" class="edge">
<title>&#45;2&#45;&gt;256</title>
<path fill="none" stroke="red" stroke-width="0.17" d="M651.91,-153.99C641.49,-144.94 624.1,-129.83 609.42,-117.08"/>
<polygon fill="red" stroke="red" stroke-width="0.17" points="611.45,-114.2 601.6,-110.29 606.86,-119.49 611.45,-114.2"/>
</g>
<!-- &#45;2&#45;&gt;257 -->
<g id="edge12" class="edge">
<title>&#45;2&#45;&gt;257</title>
<path fill="none" stroke="green" stroke-width="0.17" d="M659.86,-153.99C658.8,-147.43 657.22,-137.7 655.64,-127.98"/>
<polygon fill="green" stroke="green" stroke-width="0.17" points="659.08,-127.31 654.02,-118 652.17,-128.43 659.08,-127.31"/>
</g>
<!-- &#45;2&#45;&gt;258 -->
<g id="edge13" class="edge">
<title>&#45;2&#45;&gt;258</title>
<path fill="none" stroke="red" stroke-width="0.18" d="M647.93,-158.02C626.48,-151.26 583.1,-136.52 549.17,-118.02 547.4,-117.06 545.62,-116.02 543.85,-114.93"/>
<polygon fill="red" stroke="red" stroke-width="0.18" points="545.45,-111.79 535.18,-109.18 541.58,-117.62 545.45,-111.79"/>
</g>
<!-- &#45;2&#45;&gt;259 -->
<g id="edge14" class="edge">
<title>&#45;2&#45;&gt;259</title>
<path fill="none" stroke="green" stroke-width="0.36" d="M667.81,-153.99C674.59,-145.78 685.48,-132.61 695.31,-120.72"/>
<polygon fill="green" stroke="green" stroke-width="0.36" points="698.21,-122.7 701.88,-112.77 692.81,-118.24 698.21,-122.7"/>
</g>
<!-- &#45;2&#45;&gt;260 -->
<g id="edge15" class="edge">
<title>&#45;2&#45;&gt;260</title>
<path fill="none" stroke="green" stroke-width="0.37" d="M674.33,-159.94C702.03,-155.23 767.92,-142.21 818.17,-118.02 819.98,-117.15 821.8,-116.18 823.6,-115.14"/>
<polygon fill="green" stroke="green" stroke-width="0.37" points="825.81,-117.88 832.33,-109.54 822.03,-111.99 825.81,-117.88"/>
</g>
<!-- &#45;2&#45;&gt;261 -->
<g id="edge16" class="edge">
<title>&#45;2&#45;&gt;261</title>
<path fill="none" stroke="red" stroke-width="0.18" d="M674.55,-159.62C683.5,-158.01 695.53,-155.87 706.17,-154.02 800.33,-137.66 825.19,-140.16 918.17,-118.02 932.7,-114.57 948.5,-109.86 961.99,-105.55"/>
<polygon fill="red" stroke="red" stroke-width="0.18" points="963.37,-108.78 971.8,-102.36 961.2,-102.13 963.37,-108.78"/>
</g>
<!-- &#45;2&#45;&gt;262 -->
<g id="edge17" class="edge">
<title>&#45;2&#45;&gt;262</title>
<path fill="none" stroke="red" stroke-width="0.22" d="M674.35,-156.42C692.21,-148.65 724.9,-133.74 751.17,-118.02 752.85,-117.02 754.55,-115.95 756.25,-114.85"/>
<polygon fill="red" stroke="red" stroke-width="0.22" points="758.34,-117.67 764.64,-109.15 754.4,-111.88 758.34,-117.67"/>
</g>
<!-- &#45;2&#45;&gt;263 -->
<g id="edge18" class="edge">
<title>&#45;2&#45;&gt;263</title>
<path fill="none" stroke="green" stroke-width="0.25" d="M674.51,-159.38C683.45,-157.68 695.48,-155.51 706.17,-154.02 863.68,-132.09 911.41,-168.63 1062.17,-118.02 1065.68,-116.84 1069.21,-115.3 1072.64,-113.57"/>
<polygon fill="green" stroke="green" stroke-width="0.25" points="1074.36,-116.62 1081.37,-108.67 1070.94,-110.51 1074.36,-116.62"/>
</g>
<!-- &#45;2&#45;&gt;264 -->
<g id="edge19" class="edge">
<title>&#45;2&#45;&gt;264</title>
<path fill="none" stroke="red" stroke-width="0.21" d="M648.05,-158.62C642.01,-157.11 634.75,-155.38 628.17,-154.02 534.12,-134.7 503.76,-155.02 415.17,-118.02 413.31,-117.25 411.46,-116.35 409.63,-115.37"/>
<polygon fill="red" stroke="red" stroke-width="0.21" points="411.17,-112.21 400.83,-109.92 407.49,-118.16 411.17,-112.21"/>
</g>
<!-- &#45;2&#45;&gt;265 -->
<g id="edge20" class="edge">
<title>&#45;2&#45;&gt;265</title>
<path fill="none" stroke="green" stroke-width="0.14" d="M648.16,-158.86C607.31,-148.92 484.11,-118.92 482.17,-118.02 480.34,-117.18 478.51,-116.23 476.7,-115.21"/>
<polygon fill="green" stroke="green" stroke-width="0.14" points="478.26,-112.05 467.94,-109.65 474.51,-117.97 478.26,-112.05"/>
</g>
<!-- &#45;3 -->
<g id="node3" class="node">
<title>&#45;3</title>
<polygon fill="lightgray" stroke="black" points="741.17,-172.02 715.17,-172.02 715.17,-154.02 741.17,-154.02 741.17,-172.02"/>
<text text-anchor="middle" x="728.17" y="-160.82" font-family="Times-Roman" font-size="9.00">&#45;3</text>
</g>
<!-- &#45;3&#45;&gt;0 -->
<g id="edge113" class="edge">
<title>&#45;3&#45;&gt;0</title>
<path fill="none" stroke="red" stroke-width="0.25" stroke-dasharray="1,5" d="M741.27,-160.37C775.74,-155.73 867.46,-141.37 885.17,-118.02 898.46,-100.5 899.16,-85.5 885.17,-68.53 831.89,-3.89 780.89,-54.9 700.17,-32.53 694.47,-30.95 688.44,-28.95 682.78,-26.93"/>
<polygon fill="red" stroke="red" stroke-width="0.25" points="683.74,-23.56 673.15,-23.35 681.3,-30.12 683.74,-23.56"/>
</g>
<!-- &#45;3&#45;&gt;1 -->
<g id="edge114" class="edge">
<title>&#45;3&#45;&gt;1</title>
<path fill="none" stroke="green" stroke-width="0.27" d="M741.49,-160.2C754.99,-158.4 776.5,-155.7 795.17,-154.02 861.8,-148.06 1350.3,-166.72 1396.17,-118.02 1411.25,-102.01 1410.98,-84.79 1396.17,-68.53 1360.6,-29.48 978.36,-19.66 873.59,-17.69"/>
<polygon fill="green" stroke="green" stroke-width="0.27" points="873.6,-14.19 863.54,-17.51 873.47,-21.19 873.6,-14.19"/>
</g>
<!-- &#45;3&#45;&gt;2 -->
<g id="edge115" class="edge">
<title>&#45;3&#45;&gt;2</title>
<path fill="none" stroke="green" stroke-width="0.26" d="M741.5,-160.25C755,-158.5 776.51,-155.83 795.17,-154.02 849.17,-148.81 1245.24,-157.78 1282.17,-118.02 1297.14,-101.91 1297.1,-84.68 1282.17,-68.53 1247.36,-30.89 871.84,-45.21 822.17,-32.53 818.68,-31.64 815.09,-30.41 811.63,-29.04"/>
<polygon fill="green" stroke="green" stroke-width="0.26" points="812.89,-25.77 802.33,-24.94 810.07,-32.17 812.89,-25.77"/>
</g>
<!-- &#45;3&#45;&gt;3 -->
<g id="edge116" class="edge">
<title>&#45;3&#45;&gt;3</title>
<path fill="none" stroke="red" stroke-width="0.26" d="M714.82,-159.4C705.88,-157.71 693.85,-155.55 683.17,-154.02 609.04,-143.47 398.2,-173.72 348.17,-118.02 333.47,-101.66 333.99,-85.35 348.17,-68.53 408.9,3.56 467.02,-60.05 557.17,-32.53 560.61,-31.47 564.17,-30.16 567.62,-28.74"/>
<polygon fill="red" stroke="red" stroke-width="0.26" points="569.19,-31.88 576.92,-24.62 566.36,-25.48 569.19,-31.88"/>
</g>
<!-- &#45;3&#45;&gt;4 -->
<g id="edge117" class="edge">
<title>&#45;3&#45;&gt;4</title>
<path fill="none" stroke="red" stroke-width="0.34" d="M714.82,-159.39C705.89,-157.69 693.85,-155.52 683.17,-154.02 605.74,-143.17 385.55,-176.07 333.17,-118.02 318.43,-101.69 319.69,-85.91 333.17,-68.53 354.25,-41.33 456.56,-26.01 505.71,-20.11"/>
<polygon fill="red" stroke="red" stroke-width="0.34" points="506.36,-23.56 515.89,-18.94 505.55,-16.61 506.36,-23.56"/>
</g>
<!-- &#45;3&#45;&gt;5 -->
<g id="edge118" class="edge">
<title>&#45;3&#45;&gt;5</title>
<path fill="none" stroke="red" stroke-width="0.11" d="M741.51,-160.38C755.03,-158.72 776.54,-156.12 795.17,-154.02 832.92,-149.77 1109.76,-146.27 1135.17,-118.02 1149.88,-101.67 1149.95,-84.81 1135.17,-68.53 1079.34,-7.04 843.85,-52.21 763.17,-32.53 758.53,-31.4 753.72,-29.81 749.14,-28.09"/>
<polygon fill="red" stroke="red" stroke-width="0.11" points="750.22,-24.75 739.64,-24.21 747.58,-31.23 750.22,-24.75"/>
</g>
<!-- &#45;3&#45;&gt;256 -->
<g id="edge21" class="edge">
<title>&#45;3&#45;&gt;256</title>
<path fill="none" stroke="red" stroke-width="0.55" d="M714.93,-158.02C693.48,-151.26 650.1,-136.52 616.17,-118.02 614.4,-117.06 612.62,-116.02 610.85,-114.93"/>
<polygon fill="red" stroke="red" stroke-width="0.55" points="612.45,-111.79 602.18,-109.18 608.58,-117.62 612.45,-111.79"/>
</g>
<!-- &#45;3&#45;&gt;257 -->
<g id="edge22" class="edge">
<title>&#45;3&#45;&gt;257</title>
<path fill="none" stroke="red" stroke-width="0.17" d="M718.91,-153.99C708.49,-144.94 691.1,-129.83 676.42,-117.08"/>
<polygon fill="red" stroke="red" stroke-width="0.17" points="678.45,-114.2 668.6,-110.29 673.86,-119.49 678.45,-114.2"/>
</g>
<!-- &#45;3&#45;&gt;258 -->
<g id="edge23" class="edge">
<title>&#45;3&#45;&gt;258</title>
<path fill="none" stroke="red" stroke-width="0.19" d="M715.09,-159.49C679.14,-152.4 579.46,-132.01 549.17,-118.02 547.34,-117.18 545.51,-116.23 543.7,-115.21"/>
<polygon fill="red" stroke="red" stroke-width="0.19" points="545.26,-112.05 534.94,-109.65 541.51,-117.97 545.26,-112.05"/>
</g>
<!-- &#45;3&#45;&gt;259 -->
<g id="edge24" class="edge">
<title>&#45;3&#45;&gt;259</title>
<path fill="none" stroke="green" stroke-width="0.43" d="M726.86,-153.99C725.8,-147.43 724.22,-137.7 722.64,-127.98"/>
<polygon fill="green" stroke="green" stroke-width="0.43" points="726.08,-127.31 721.02,-118 719.17,-128.43 726.08,-127.31"/>
</g>
<!-- &#45;3&#45;&gt;260 -->
<g id="edge25" class="edge">
<title>&#45;3&#45;&gt;260</title>
<path fill="none" stroke="green" stroke-width="0.66" d="M741.35,-156.42C759.21,-148.65 791.9,-133.74 818.17,-118.02 819.85,-117.02 821.55,-115.95 823.25,-114.85"/>
<polygon fill="green" stroke="green" stroke-width="0.66" points="825.34,-117.67 831.64,-109.15 821.4,-111.88 825.34,-117.67"/>
</g>
<!-- &#45;3&#45;&gt;261 -->
<g id="edge26" class="edge">
<title>&#45;3&#45;&gt;261</title>
<path fill="none" stroke="red" stroke-width="0.13" d="M741.32,-160.12C783.64,-153.87 915.93,-133.57 956.17,-118.02 959.62,-116.69 963.12,-115.05 966.52,-113.26"/>
<polygon fill="red" stroke="red" stroke-width="0.13" points="968.28,-116.28 975.23,-108.29 964.81,-110.21 968.28,-116.28"/>
</g>
<!-- &#45;3&#45;&gt;262 -->
<g id="edge27" class="edge">
<title>&#45;3&#45;&gt;262</title>
<path fill="none" stroke="green" stroke-width="0.2" d="M734.81,-153.99C741.59,-145.78 752.48,-132.61 762.31,-120.72"/>
<polygon fill="green" stroke="green" stroke-width="0.2" points="765.21,-122.7 768.88,-112.77 759.81,-118.24 765.21,-122.7"/>
</g>
<!-- &#45;3&#45;&gt;263 -->
<g id="edge28" class="edge">
<title>&#45;3&#45;&gt;263</title>
<path fill="none" stroke="red" stroke-width="0.56" d="M741.39,-160.44C801.5,-153.21 1046.69,-123.48 1062.17,-118.02 1065.66,-116.79 1069.18,-115.22 1072.6,-113.47"/>
<polygon fill="red" stroke="red" stroke-width="0.56" points="1074.34,-116.5 1081.32,-108.54 1070.9,-110.41 1074.34,-116.5"/>
</g>
<!-- &#45;3&#45;&gt;264 -->
<g id="edge29" class="edge">
<title>&#45;3&#45;&gt;264</title>
<path fill="none" stroke="red" stroke-width="0.7" d="M714.8,-159.5C705.86,-157.84 693.83,-155.69 683.17,-154.02 564.42,-135.5 526.83,-162.45 415.17,-118.02 413.3,-117.28 411.44,-116.41 409.6,-115.44"/>
<polygon fill="red" stroke="red" stroke-width="0.7" points="411.13,-112.28 400.78,-110.05 407.48,-118.25 411.13,-112.28"/>
</g>
<!-- &#45;3&#45;&gt;265 -->
<g id="edge30" class="edge">
<title>&#45;3&#45;&gt;265</title>
<path fill="none" stroke="green" stroke-width="0.43" d="M714.98,-159.68C664.04,-150.6 482.85,-118.32 482.17,-118.02 480.31,-117.24 478.47,-116.34 476.64,-115.35"/>
<polygon fill="green" stroke="green" stroke-width="0.43" points="478.18,-112.19 467.84,-109.89 474.49,-118.13 478.18,-112.19"/>
</g>
<!-- &#45;4 -->
<g id="node4" class="node">
<title>&#45;4</title>
<polygon fill="lightgray" stroke="black" points="830.17,-172.02 804.17,-172.02 804.17,-154.02 830.17,-154.02 830.17,-172.02"/>
<text text-anchor="middle" x="817.17" y="-160.82" font-family="Times-Roman" font-size="9.00">&#45;4</text>
</g>
<!-- &#45;4&#45;&gt;0 -->
<g id="edge119" class="edge">
<title>&#45;4&#45;&gt;0</title>
<path fill="none" stroke="red" stroke-width="0.68" d="M830.45,-161.55C895.74,-159.08 1180.53,-146.73 1206.17,-118.02 1220.82,-101.62 1221.16,-84.62 1206.17,-68.53 1167.75,-27.28 755.3,-44.27 700.17,-32.53 694.38,-31.29 688.32,-29.44 682.65,-27.45"/>
<polygon fill="red" stroke="red" stroke-width="0.68" points="683.62,-24.08 673.03,-23.81 681.15,-30.62 683.62,-24.08"/>
</g>
<!-- &#45;4&#45;&gt;1 -->
<g id="edge120" class="edge">
<title>&#45;4&#45;&gt;1</title>
<path fill="none" stroke="green" stroke-width="0.31" d="M830.3,-162.16C917.36,-162.94 1409.13,-165.21 1453.17,-118.02 1468.18,-101.94 1468.05,-84.72 1453.17,-68.53 1413.45,-25.31 985.58,-18.49 873.77,-17.45"/>
<polygon fill="green" stroke="green" stroke-width="0.31" points="873.71,-13.95 863.68,-17.36 873.65,-20.95 873.71,-13.95"/>
</g>
<!-- &#45;4&#45;&gt;2 -->
<g id="edge121" class="edge">
<title>&#45;4&#45;&gt;2</title>
<path fill="none" stroke="red" stroke-width="0.45" d="M830.18,-162.13C915.39,-162.7 1391.54,-163.8 1434.17,-118.02 1449.16,-101.93 1449.26,-84.53 1434.17,-68.53 1387.44,-18.97 888.33,-48.74 822.17,-32.53 818.67,-31.67 815.08,-30.46 811.61,-29.1"/>
<polygon fill="red" stroke="red" stroke-width="0.45" points="812.88,-25.83 802.31,-25 810.05,-32.24 812.88,-25.83"/>
</g>
<!-- &#45;4&#45;&gt;3 -->
<g id="edge122" class="edge">
<title>&#45;4&#45;&gt;3</title>
<path fill="none" stroke="red" stroke-width="0.4" d="M830.49,-162.35C901.07,-163.69 1224.76,-164.77 1135.17,-68.53 1097.07,-27.59 687.86,-44.19 633.17,-32.53 627.38,-31.29 621.32,-29.44 615.65,-27.45"/>
<polygon fill="red" stroke="red" stroke-width="0.4" points="616.62,-24.07 606.03,-23.81 614.15,-30.62 616.62,-24.07"/>
</g>
<!-- &#45;4&#45;&gt;4 -->
<g id="edge123" class="edge">
<title>&#45;4&#45;&gt;4</title>
<path fill="none" stroke="green" stroke-width="0.28" d="M803.83,-160.31C790.32,-158.61 768.81,-155.97 750.17,-154.02 705.56,-149.37 378.43,-151.12 348.17,-118.02 333.32,-101.79 334.86,-86.05 348.17,-68.53 367.25,-43.41 459.59,-27.31 505.76,-20.7"/>
<polygon fill="green" stroke="green" stroke-width="0.28" points="506.49,-24.13 515.92,-19.29 505.53,-17.2 506.49,-24.13"/>
</g>
<!-- &#45;4&#45;&gt;5 -->
<g id="edge124" class="edge">
<title>&#45;4&#45;&gt;5</title>
<path fill="none" stroke="green" stroke-width="0.25" d="M830.32,-161.99C909.58,-161.67 1321.24,-158.08 1358.17,-118.02 1373.08,-101.85 1373.25,-84.55 1358.17,-68.53 1312.77,-20.3 827.79,-47.06 763.17,-32.53 758.52,-31.48 753.69,-29.94 749.11,-28.22"/>
<polygon fill="green" stroke="green" stroke-width="0.25" points="750.19,-24.89 739.61,-24.34 747.54,-31.37 750.19,-24.89"/>
</g>
<!-- &#45;4&#45;&gt;256 -->
<g id="edge31" class="edge">
<title>&#45;4&#45;&gt;256</title>
<path fill="none" stroke="red" stroke-width="0.64" d="M803.91,-159.85C764.81,-153.31 650.58,-133.38 616.17,-118.02 614.33,-117.2 612.49,-116.27 610.68,-115.26"/>
<polygon fill="red" stroke="red" stroke-width="0.64" points="612.23,-112.11 601.9,-109.75 608.5,-118.03 612.23,-112.11"/>
</g>
<!-- &#45;4&#45;&gt;257 -->
<g id="edge32" class="edge">
<title>&#45;4&#45;&gt;257</title>
<path fill="none" stroke="red" stroke-width="0.11" d="M804.09,-159.15C779.49,-153.43 725.07,-139.34 683.17,-118.02 681.37,-117.11 679.57,-116.11 677.78,-115.05"/>
<polygon fill="red" stroke="red" stroke-width="0.11" points="679.37,-111.9 669.08,-109.38 675.55,-117.77 679.37,-111.9"/>
</g>
<!-- &#45;4&#45;&gt;258 -->
<g id="edge33" class="edge">
<title>&#45;4&#45;&gt;258</title>
<path fill="none" stroke="red" stroke-width="0.28" d="M803.83,-160.2C753.01,-153.2 573.07,-127.94 549.17,-118.02 547.31,-117.25 545.46,-116.36 543.63,-115.38"/>
<polygon fill="red" stroke="red" stroke-width="0.28" points="545.17,-112.22 534.82,-109.94 541.49,-118.17 545.17,-112.22"/>
</g>
<!-- &#45;4&#45;&gt;259 -->
<g id="edge34" class="edge">
<title>&#45;4&#45;&gt;259</title>
<path fill="none" stroke="red" stroke-width="0.22" d="M804.21,-153.75C790.64,-145.03 768.74,-130.8 750.17,-118.02 748.55,-116.91 746.9,-115.77 745.24,-114.6"/>
<polygon fill="red" stroke="red" stroke-width="0.22" points="747.14,-111.66 736.96,-108.73 743.09,-117.37 747.14,-111.66"/>
</g>
<!-- &#45;4&#45;&gt;260 -->
<g id="edge35" class="edge">
<title>&#45;4&#45;&gt;260</title>
<path fill="none" stroke="red" stroke-width="0.22" d="M821.2,-153.99C824.85,-146.72 830.45,-135.55 835.83,-124.83"/>
<polygon fill="red" stroke="red" stroke-width="0.22" points="839.09,-126.14 840.45,-115.63 832.83,-123 839.09,-126.14"/>
</g>
<!-- &#45;4&#45;&gt;261 -->
<g id="edge36" class="edge">
<title>&#45;4&#45;&gt;261</title>
<path fill="none" stroke="red" stroke-width="0.38" d="M830.2,-159.02C855.27,-152.99 911.7,-138.25 956.17,-118.02 959.54,-116.49 962.98,-114.72 966.36,-112.86"/>
<polygon fill="red" stroke="red" stroke-width="0.38" points="968.15,-115.87 975.03,-107.8 964.63,-109.82 968.15,-115.87"/>
</g>
<!-- &#45;4&#45;&gt;262 -->
<g id="edge37" class="edge">
<title>&#45;4&#45;&gt;262</title>
<path fill="none" stroke="green" stroke-width="0.42" d="M813.25,-153.99C809.74,-146.78 804.35,-135.72 799.17,-125.07"/>
<polygon fill="green" stroke="green" stroke-width="0.42" points="802.24,-123.38 794.71,-115.93 795.94,-126.45 802.24,-123.38"/>
</g>
<!-- &#45;4&#45;&gt;263 -->
<g id="edge38" class="edge">
<title>&#45;4&#45;&gt;263</title>
<path fill="none" stroke="red" stroke-width="0.11" d="M830.37,-161.36C867.86,-159.11 977.71,-150.04 1062.17,-118.02 1065.63,-116.71 1069.13,-115.08 1072.54,-113.3"/>
<polygon fill="red" stroke="red" stroke-width="0.11" points="1074.3,-116.33 1081.25,-108.34 1070.83,-110.25 1074.3,-116.33"/>
</g>
<!-- &#45;4&#45;&gt;264 -->
<g id="edge39" class="edge">
<title>&#45;4&#45;&gt;264</title>
<path fill="none" stroke="green" stroke-width="0.15" d="M803.82,-160.38C790.31,-158.73 768.79,-156.14 750.17,-154.02 601.37,-137.15 555.03,-171.54 415.17,-118.02 413.29,-117.31 411.42,-116.45 409.58,-115.5"/>
<polygon fill="green" stroke="green" stroke-width="0.15" points="411.1,-112.33 400.74,-110.14 407.48,-118.32 411.1,-112.33"/>
</g>
<!-- &#45;4&#45;&gt;265 -->
<g id="edge40" class="edge">
<title>&#45;4&#45;&gt;265</title>
<path fill="none" stroke="red" stroke-width="0.2" d="M803.96,-160.38C742.8,-152.75 489.84,-121.06 482.17,-118.02 480.3,-117.28 478.43,-116.41 476.6,-115.45"/>
<polygon fill="red" stroke="red" stroke-width="0.2" points="478.13,-112.28 467.77,-110.06 474.48,-118.26 478.13,-112.28"/>
</g>
<!-- 256&#45;&gt;0 -->
<g id="edge41" class="edge">
<title>256&#45;&gt;0</title>
<path fill="none" stroke="red" stroke-width="0.18" d="M600.19,-75.25C611.96,-63.48 627.61,-47.83 639.69,-35.75"/>
<polygon fill="red" stroke="red" stroke-width="0.18" points="642.43,-37.95 647.03,-28.4 637.48,-33 642.43,-37.95"/>
</g>
<!-- 256&#45;&gt;1 -->
<g id="edge42" class="edge">
<title>256&#45;&gt;1</title>
<path fill="none" stroke="green" stroke-width="0.41" d="M601.85,-76.68C606.32,-73.57 611.23,-70.63 616.17,-68.53 698.07,-33.68 728.17,-58.94 813.17,-32.53 816.61,-31.46 820.16,-30.13 823.61,-28.71"/>
<polygon fill="green" stroke="green" stroke-width="0.41" points="825.18,-31.84 832.91,-24.59 822.35,-25.44 825.18,-31.84"/>
</g>
<!-- 256&#45;&gt;2 -->
<g id="edge43" class="edge">
<title>256&#45;&gt;2</title>
<path fill="none" stroke="red" stroke-width="0.25" d="M601.98,-76.97C606.44,-73.85 611.32,-70.83 616.17,-68.53 671.88,-42.09 691.67,-52.05 750.17,-32.53 754.69,-31.02 759.45,-29.25 764.01,-27.47"/>
<polygon fill="red" stroke="red" stroke-width="0.25" points="765.56,-30.62 773.52,-23.62 762.94,-24.13 765.56,-30.62"/>
</g>
<!-- 256&#45;&gt;3 -->
<g id="edge44" class="edge">
<title>256&#45;&gt;3</title>
<path fill="none" stroke="green" stroke-width="0.71" d="M585.7,-68.54C586.57,-60.33 587.56,-51.1 588.45,-42.76"/>
<polygon fill="green" stroke="green" stroke-width="0.71" points="591.93,-43.12 589.51,-32.81 584.97,-42.38 591.93,-43.12"/>
</g>
<!-- 256&#45;&gt;4 -->
<g id="edge45" class="edge">
<title>256&#45;&gt;4</title>
<path fill="none" stroke="red" stroke-width="0.33" d="M569.5,-72.17C562.4,-61.73 553.73,-48.98 546.53,-38.39"/>
<polygon fill="red" stroke="red" stroke-width="0.33" points="549.41,-36.4 540.9,-30.1 543.62,-40.34 549.41,-36.4"/>
</g>
<!-- 256&#45;&gt;5 -->
<g id="edge46" class="edge">
<title>256&#45;&gt;5</title>
<path fill="none" stroke="green" stroke-width="0.55" d="M602.66,-77.35C607.01,-74.28 611.66,-71.18 616.17,-68.53 644.15,-52.07 678.27,-36.72 700.8,-27.19"/>
<polygon fill="green" stroke="green" stroke-width="0.55" points="702.39,-30.32 710.27,-23.24 699.7,-23.86 702.39,-30.32"/>
</g>
<!-- 257&#45;&gt;0 -->
<g id="edge47" class="edge">
<title>257&#45;&gt;0</title>
<path fill="none" stroke="green" stroke-width="0.2" d="M652.7,-68.54C653.57,-60.33 654.56,-51.1 655.45,-42.76"/>
<polygon fill="green" stroke="green" stroke-width="0.2" points="658.93,-43.12 656.51,-32.81 651.97,-42.38 658.93,-43.12"/>
</g>
<!-- 257&#45;&gt;1 -->
<g id="edge48" class="edge">
<title>257&#45;&gt;1</title>
<path fill="none" stroke="red" stroke-width="0.49" d="M668.99,-77C673.46,-73.88 678.33,-70.85 683.17,-68.53 737.23,-42.61 756.77,-52.86 813.17,-32.53 816.56,-31.3 820.08,-29.89 823.52,-28.43"/>
<polygon fill="red" stroke="red" stroke-width="0.49" points="825.1,-31.56 832.81,-24.29 822.25,-25.16 825.1,-31.56"/>
</g>
<!-- 257&#45;&gt;2 -->
<g id="edge49" class="edge">
<title>257&#45;&gt;2</title>
<path fill="none" stroke="red" stroke-width="0.16" d="M669.69,-77.4C674.04,-74.32 678.68,-71.21 683.17,-68.53 709.92,-52.53 742.39,-37.27 764.07,-27.62"/>
<polygon fill="red" stroke="red" stroke-width="0.16" points="765.75,-30.71 773.49,-23.48 762.93,-24.3 765.75,-30.71"/>
</g>
<!-- 257&#45;&gt;3 -->
<g id="edge50" class="edge">
<title>257&#45;&gt;3</title>
<path fill="none" stroke="green" stroke-width="0.24" d="M635.28,-73.35C626.68,-62.42 615.87,-48.67 607.1,-37.53"/>
<polygon fill="green" stroke="green" stroke-width="0.24" points="609.8,-35.29 600.87,-29.6 604.3,-39.62 609.8,-35.29"/>
</g>
<!-- 257&#45;&gt;4 -->
<g id="edge51" class="edge">
<title>257&#45;&gt;4</title>
<path fill="none" stroke="red" stroke-width="0.7" d="M630.46,-77.69C626.12,-74.6 621.53,-71.4 617.17,-68.53 596.41,-54.83 572.05,-40.29 554.74,-30.21"/>
<polygon fill="red" stroke="red" stroke-width="0.7" points="556.33,-27.08 545.92,-25.1 552.82,-33.14 556.33,-27.08"/>
</g>
<!-- 257&#45;&gt;5 -->
<g id="edge52" class="edge">
<title>257&#45;&gt;5</title>
<path fill="none" stroke="green" stroke-width="0.35" d="M667.19,-75.25C678.96,-63.48 694.61,-47.83 706.69,-35.75"/>
<polygon fill="green" stroke="green" stroke-width="0.35" points="709.43,-37.95 714.03,-28.4 704.48,-33 709.43,-37.95"/>
</g>
<!-- 258&#45;&gt;0 -->
<g id="edge53" class="edge">
<title>258&#45;&gt;0</title>
<path fill="none" stroke="green" stroke-width="0.7" d="M535.66,-77.35C540.01,-74.28 544.66,-71.18 549.17,-68.53 577.15,-52.07 611.27,-36.72 633.8,-27.19"/>
<polygon fill="green" stroke="green" stroke-width="0.7" points="635.39,-30.32 643.27,-23.24 632.7,-23.86 635.39,-30.32"/>
</g>
<!-- 258&#45;&gt;1 -->
<g id="edge54" class="edge">
<title>258&#45;&gt;1</title>
<path fill="none" stroke="red" stroke-width="0.23" d="M534.78,-76.51C539.25,-73.42 544.18,-70.52 549.17,-68.53 659.15,-24.64 699.32,-65.11 813.17,-32.53 816.63,-31.54 820.2,-30.25 823.66,-28.85"/>
<polygon fill="red" stroke="red" stroke-width="0.23" points="825.22,-31.99 832.95,-24.74 822.39,-25.59 825.22,-31.99"/>
</g>
<!-- 258&#45;&gt;2 -->
<g id="edge55" class="edge">
<title>258&#45;&gt;2</title>
<path fill="none" stroke="red" stroke-width="0.15" d="M534.84,-76.67C539.31,-73.56 544.23,-70.62 549.17,-68.53 632.74,-33.14 662.94,-57.57 750.17,-32.53 754.75,-31.21 759.54,-29.54 764.11,-27.78"/>
<polygon fill="red" stroke="red" stroke-width="0.15" points="765.67,-30.93 773.61,-23.92 763.03,-24.44 765.67,-30.93"/>
</g>
<!-- 258&#45;&gt;3 -->
<g id="edge56" class="edge">
<title>258&#45;&gt;3</title>
<path fill="none" stroke="green" stroke-width="0.21" d="M533.19,-75.25C544.96,-63.48 560.61,-47.83 572.69,-35.75"/>
<polygon fill="green" stroke="green" stroke-width="0.21" points="575.43,-37.95 580.03,-28.4 570.48,-33 575.43,-37.95"/>
</g>
<!-- 258&#45;&gt;4 -->
<g id="edge57" class="edge">
<title>258&#45;&gt;4</title>
<path fill="none" stroke="red" stroke-width="0.34" d="M521.14,-68.95C522.94,-60.51 524.98,-50.95 526.81,-42.37"/>
<polygon fill="red" stroke="red" stroke-width="0.34" points="530.25,-43.03 528.91,-32.52 523.4,-41.57 530.25,-43.03"/>
</g>
<!-- 258&#45;&gt;5 -->
<g id="edge58" class="edge">
<title>258&#45;&gt;5</title>
<path fill="none" stroke="green" stroke-width="0.18" d="M534.98,-76.97C539.44,-73.85 544.32,-70.83 549.17,-68.53 604.88,-42.09 624.36,-51.08 683.17,-32.53 688.81,-30.75 694.82,-28.67 700.47,-26.64"/>
<polygon fill="green" stroke="green" stroke-width="0.18" points="701.94,-29.83 710.11,-23.09 699.52,-23.26 701.94,-29.83"/>
</g>
<!-- 259&#45;&gt;0 -->
<g id="edge59" class="edge">
<title>259&#45;&gt;0</title>
<path fill="none" stroke="green" stroke-width="0.34" d="M702.28,-73.35C693.68,-62.42 682.87,-48.67 674.1,-37.53"/>
<polygon fill="green" stroke="green" stroke-width="0.34" points="676.8,-35.29 667.87,-29.6 671.3,-39.62 676.8,-35.29"/>
</g>
<!-- 259&#45;&gt;1 -->
<g id="edge60" class="edge">
<title>259&#45;&gt;1</title>
<path fill="none" stroke="red" stroke-width="0.29" d="M736.76,-77.51C741.1,-74.42 745.73,-71.28 750.17,-68.53 774.51,-53.43 803.73,-38.38 823.69,-28.53"/>
<polygon fill="red" stroke="red" stroke-width="0.29" points="825.24,-31.67 832.69,-24.14 822.17,-25.38 825.24,-31.67"/>
</g>
<!-- 259&#45;&gt;2 -->
<g id="edge61" class="edge">
<title>259&#45;&gt;2</title>
<path fill="none" stroke="red" stroke-width="0.22" d="M733.99,-74.5C744.92,-62.95 759.15,-47.92 770.28,-36.16"/>
<polygon fill="red" stroke="red" stroke-width="0.22" points="773.08,-38.29 777.42,-28.62 768,-33.48 773.08,-38.29"/>
</g>
<!-- 259&#45;&gt;3 -->
<g id="edge62" class="edge">
<title>259&#45;&gt;3</title>
<path fill="none" stroke="red" stroke-width="0.5" d="M697.54,-77.57C693.2,-74.48 688.58,-71.32 684.17,-68.53 661.08,-53.93 633.56,-39.06 614.48,-29.12"/>
<polygon fill="red" stroke="red" stroke-width="0.5" points="615.82,-25.87 605.33,-24.4 612.61,-32.09 615.82,-25.87"/>
</g>
<!-- 259&#45;&gt;4 -->
<g id="edge63" class="edge">
<title>259&#45;&gt;4</title>
<path fill="none" stroke="red" stroke-width="0.16" d="M698.29,-77.1C693.84,-73.97 688.97,-70.91 684.17,-68.53 635.03,-44.19 617.5,-51.79 566.17,-32.53 562.79,-31.26 559.28,-29.82 555.84,-28.35"/>
<polygon fill="red" stroke="red" stroke-width="0.16" points="557.12,-25.08 546.56,-24.21 554.27,-31.48 557.12,-25.08"/>
</g>
<!-- 259&#45;&gt;5 -->
<g id="edge64" class="edge">
<title>259&#45;&gt;5</title>
<path fill="none" stroke="green" stroke-width="0.32" d="M719.7,-68.54C720.57,-60.33 721.56,-51.1 722.45,-42.76"/>
<polygon fill="green" stroke="green" stroke-width="0.32" points="725.93,-43.12 723.51,-32.81 718.97,-42.38 725.93,-43.12"/>
</g>
<!-- 260&#45;&gt;0 -->
<g id="edge65" class="edge">
<title>260&#45;&gt;0</title>
<path fill="none" stroke="green" stroke-width="0.44" d="M832.29,-77.1C827.84,-73.97 822.97,-70.91 818.17,-68.53 769.03,-44.19 752.17,-49.9 700.17,-32.53 694.56,-30.65 688.56,-28.54 682.91,-26.5"/>
<polygon fill="green" stroke="green" stroke-width="0.44" points="683.86,-23.12 673.26,-22.97 681.45,-29.69 683.86,-23.12"/>
</g>
<!-- 260&#45;&gt;1 -->
<g id="edge66" class="edge">
<title>260&#45;&gt;1</title>
<path fill="none" stroke="green" stroke-width="0.52" d="M849.9,-68.54C849.47,-60.42 848.98,-51.31 848.54,-43.04"/>
<polygon fill="green" stroke="green" stroke-width="0.52" points="852.02,-42.61 848,-32.81 845.03,-42.98 852.02,-42.61"/>
</g>
<!-- 260&#45;&gt;2 -->
<g id="edge67" class="edge">
<title>260&#45;&gt;2</title>
<path fill="none" stroke="red" stroke-width="0.29" d="M835.59,-73.73C826.21,-62.56 814.27,-48.34 804.72,-36.97"/>
<polygon fill="red" stroke="red" stroke-width="0.29" points="807.37,-34.68 798.25,-29.27 802.01,-39.18 807.37,-34.68"/>
</g>
<!-- 260&#45;&gt;3 -->
<g id="edge68" class="edge">
<title>260&#45;&gt;3</title>
<path fill="none" stroke="red" stroke-width="0.22" d="M832.47,-76.72C828,-73.61 823.09,-70.66 818.17,-68.53 741.28,-35.29 713.89,-54.9 633.17,-32.53 627.47,-30.95 621.44,-28.95 615.78,-26.93"/>
<polygon fill="red" stroke="red" stroke-width="0.22" points="616.74,-23.56 606.15,-23.35 614.3,-30.12 616.74,-23.56"/>
</g>
<!-- 260&#45;&gt;4 -->
<g id="edge69" class="edge">
<title>260&#45;&gt;4</title>
<path fill="none" stroke="green" stroke-width="0.38" d="M832.55,-76.54C828.07,-73.44 823.14,-70.53 818.17,-68.53 713.22,-26.26 674.84,-64 566.17,-32.53 562.71,-31.52 559.14,-30.24 555.68,-28.83"/>
<polygon fill="green" stroke="green" stroke-width="0.38" points="556.95,-25.57 546.39,-24.72 554.12,-31.97 556.95,-25.57"/>
</g>
<!-- 260&#45;&gt;5 -->
<g id="edge70" class="edge">
<title>260&#45;&gt;5</title>
<path fill="none" stroke="green" stroke-width="0.25" d="M831.54,-77.57C827.2,-74.48 822.58,-71.32 818.17,-68.53 795.08,-53.93 767.56,-39.06 748.48,-29.12"/>
<polygon fill="green" stroke="green" stroke-width="0.25" points="749.82,-25.87 739.33,-24.4 746.61,-32.09 749.82,-25.87"/>
</g>
<!-- 261&#45;&gt;0 -->
<g id="edge71" class="edge">
<title>261&#45;&gt;0</title>
<path fill="none" stroke="green" stroke-width="0.44" d="M975.31,-78.05C969.4,-74.42 962.74,-70.88 956.17,-68.53 847.98,-29.85 811.66,-60.3 700.17,-32.53 694.43,-31.1 688.38,-29.16 682.72,-27.16"/>
<polygon fill="green" stroke="green" stroke-width="0.44" points="683.69,-23.78 673.09,-23.55 681.23,-30.34 683.69,-23.78"/>
</g>
<!-- 261&#45;&gt;1 -->
<g id="edge72" class="edge">
<title>261&#45;&gt;1</title>
<path fill="none" stroke="red" stroke-width="0.12" d="M974.36,-79.04C968.54,-75.49 962.17,-71.76 956.17,-68.53 927.58,-53.16 893.58,-37.58 871.25,-27.69"/>
<polygon fill="red" stroke="red" stroke-width="0.12" points="872.43,-24.39 861.87,-23.58 869.62,-30.8 872.43,-24.39"/>
</g>
<!-- 261&#45;&gt;2 -->
<g id="edge73" class="edge">
<title>261&#45;&gt;2</title>
<path fill="none" stroke="red" stroke-width="0.33" d="M975.11,-78.57C969.19,-74.94 962.58,-71.27 956.17,-68.53 899.48,-44.25 880.26,-53.22 822.17,-32.53 818.77,-31.32 815.25,-29.91 811.81,-28.45"/>
<polygon fill="red" stroke="red" stroke-width="0.33" points="813.08,-25.19 802.52,-24.32 810.23,-31.58 813.08,-25.19"/>
</g>
<!-- 261&#45;&gt;3 -->
<g id="edge74" class="edge">
<title>261&#45;&gt;3</title>
<path fill="none" stroke="red" stroke-width="0.33" d="M971.23,-86.6C949.01,-81.45 914.97,-73.87 885.17,-68.53 773.8,-48.58 742.92,-59.99 633.17,-32.53 627.43,-31.09 621.38,-29.16 615.72,-27.15"/>
<polygon fill="red" stroke="red" stroke-width="0.33" points="616.69,-23.77 606.1,-23.54 614.23,-30.33 616.69,-23.77"/>
</g>
<!-- 261&#45;&gt;4 -->
<g id="edge75" class="edge">
<title>261&#45;&gt;4</title>
<path fill="none" stroke="green" stroke-width="0.51" d="M971.27,-86.39C949.07,-81.1 915.05,-73.43 885.17,-68.53 744.37,-45.44 703.78,-70.19 566.17,-32.53 562.69,-31.58 559.12,-30.32 555.66,-28.93"/>
<polygon fill="green" stroke="green" stroke-width="0.51" points="556.92,-25.66 546.36,-24.82 554.09,-32.06 556.92,-25.66"/>
</g>
<!-- 261&#45;&gt;5 -->
<g id="edge76" class="edge">
<title>261&#45;&gt;5</title>
<path fill="none" stroke="green" stroke-width="0.14" d="M975.24,-78.24C969.33,-74.61 962.68,-71.02 956.17,-68.53 874.68,-37.32 846.95,-56.91 763.17,-32.53 758.59,-31.19 753.8,-29.51 749.23,-27.76"/>
<polygon fill="green" stroke="green" stroke-width="0.14" points="750.31,-24.42 739.73,-23.9 747.67,-30.9 750.31,-24.42"/>
</g>
<!-- 262&#45;&gt;0 -->
<g id="edge77" class="edge">
<title>262&#45;&gt;0</title>
<path fill="none" stroke="green" stroke-width="0.63" d="M764.54,-77.57C760.2,-74.48 755.58,-71.32 751.17,-68.53 728.08,-53.93 700.56,-39.06 681.48,-29.12"/>
<polygon fill="green" stroke="green" stroke-width="0.63" points="682.82,-25.87 672.33,-24.4 679.61,-32.09 682.82,-25.87"/>
</g>
<!-- 262&#45;&gt;1 -->
<g id="edge78" class="edge">
<title>262&#45;&gt;1</title>
<path fill="none" stroke="red" stroke-width="0.11" d="M799.74,-73.73C809.12,-62.56 821.06,-48.34 830.62,-36.97"/>
<polygon fill="red" stroke="red" stroke-width="0.11" points="833.33,-39.18 837.08,-29.27 827.97,-34.68 833.33,-39.18"/>
</g>
<!-- 262&#45;&gt;2 -->
<g id="edge79" class="edge">
<title>262&#45;&gt;2</title>
<path fill="none" stroke="green" stroke-width="0.39" d="M785.43,-68.54C785.87,-60.42 786.35,-51.31 786.79,-43.04"/>
<polygon fill="green" stroke="green" stroke-width="0.39" points="790.3,-42.98 787.34,-32.81 783.31,-42.61 790.3,-42.98"/>
</g>
<!-- 262&#45;&gt;3 -->
<g id="edge80" class="edge">
<title>262&#45;&gt;3</title>
<path fill="none" stroke="red" stroke-width="0.1" d="M765.29,-77.1C760.84,-73.97 755.97,-70.91 751.17,-68.53 702.03,-44.19 685.17,-49.9 633.17,-32.53 627.56,-30.65 621.56,-28.54 615.91,-26.5"/>
<polygon fill="red" stroke="red" stroke-width="0.1" points="616.86,-23.12 606.26,-22.97 614.45,-29.69 616.86,-23.12"/>
</g>
<!-- 262&#45;&gt;4 -->
<g id="edge81" class="edge">
<title>262&#45;&gt;4</title>
<path fill="none" stroke="green" stroke-width="0.19" d="M765.47,-76.72C761,-73.61 756.09,-70.66 751.17,-68.53 674.28,-35.29 646.01,-57.85 566.17,-32.53 562.73,-31.44 559.18,-30.1 555.73,-28.67"/>
<polygon fill="green" stroke="green" stroke-width="0.19" points="557,-25.41 546.44,-24.55 554.16,-31.81 557,-25.41"/>
</g>
<!-- 262&#45;&gt;5 -->
<g id="edge82" class="edge">
<title>262&#45;&gt;5</title>
<path fill="none" stroke="green" stroke-width="0.17" d="M769.28,-73.35C760.68,-62.42 749.87,-48.67 741.1,-37.53"/>
<polygon fill="green" stroke="green" stroke-width="0.17" points="743.8,-35.29 734.87,-29.6 738.3,-39.62 743.8,-35.29"/>
</g>
<!-- 263&#45;&gt;0 -->
<g id="edge83" class="edge">
<title>263&#45;&gt;0</title>
<path fill="none" stroke="red" stroke-width="0.11" d="M1078.16,-83.32C1064.19,-78.22 1045.89,-72.16 1029.17,-68.53 885.42,-37.32 843.43,-65.89 700.17,-32.53 694.41,-31.19 688.35,-29.29 682.69,-27.29"/>
<polygon fill="red" stroke="red" stroke-width="0.11" points="683.66,-23.91 673.07,-23.67 681.19,-30.46 683.66,-23.91"/>
</g>
<!-- 263&#45;&gt;1 -->
<g id="edge84" class="edge">
<title>263&#45;&gt;1</title>
<path fill="none" stroke="green" stroke-width="0.43" d="M1081.16,-78.45C1075.24,-74.82 1068.62,-71.18 1062.17,-68.53 997.02,-41.71 914.74,-26.99 873.4,-20.81"/>
<polygon fill="green" stroke="green" stroke-width="0.43" points="873.74,-17.32 863.34,-19.36 872.74,-24.25 873.74,-17.32"/>
</g>
<!-- 263&#45;&gt;2 -->
<g id="edge85" class="edge">
<title>263&#45;&gt;2</title>
<path fill="none" stroke="red" stroke-width="0.52" d="M1081.3,-78.09C1075.38,-74.45 1068.72,-70.91 1062.17,-68.53 960.77,-31.75 925.66,-62.9 822.17,-32.53 818.71,-31.51 815.15,-30.22 811.69,-28.81"/>
<polygon fill="red" stroke="red" stroke-width="0.52" points="812.96,-25.54 802.4,-24.7 810.12,-31.94 812.96,-25.54"/>
</g>
<!-- 263&#45;&gt;3 -->
<g id="edge86" class="edge">
<title>263&#45;&gt;3</title>
<path fill="none" stroke="green" stroke-width="0.32" d="M1078.19,-83.21C1064.23,-78.07 1045.92,-72 1029.17,-68.53 856.13,-32.61 805.65,-71.03 633.17,-32.53 627.39,-31.24 621.33,-29.36 615.67,-27.37"/>
<polygon fill="green" stroke="green" stroke-width="0.32" points="616.64,-23.99 606.05,-23.74 614.17,-30.54 616.64,-23.99"/>
</g>
<!-- 263&#45;&gt;4 -->
<g id="edge87" class="edge">
<title>263&#45;&gt;4</title>
<path fill="none" stroke="red" stroke-width="0.12" d="M1078.52,-83.25C1064.53,-78.06 1046.07,-71.92 1029.17,-68.53 826.8,-27.91 766.16,-83.55 566.17,-32.53 562.68,-31.64 559.09,-30.41 555.63,-29.04"/>
<polygon fill="red" stroke="red" stroke-width="0.12" points="556.89,-25.77 546.33,-24.94 554.07,-32.18 556.89,-25.77"/>
</g>
<!-- 263&#45;&gt;5 -->
<g id="edge88" class="edge">
<title>263&#45;&gt;5</title>
<path fill="none" stroke="green" stroke-width="0.2" d="M1078.13,-83.47C1064.15,-78.43 1045.84,-72.37 1029.17,-68.53 912.92,-41.73 878.51,-62.99 763.17,-32.53 758.56,-31.31 753.75,-29.68 749.18,-27.94"/>
<polygon fill="green" stroke="green" stroke-width="0.2" points="750.26,-24.61 739.68,-24.08 747.62,-31.09 750.26,-24.61"/>
</g>
<!-- 264&#45;&gt;0 -->
<g id="edge89" class="edge">
<title>264&#45;&gt;0</title>
<path fill="none" stroke="red" stroke-width="0.17" d="M400.84,-76.67C405.31,-73.56 410.23,-70.62 415.17,-68.53 498.74,-33.14 528.53,-56.11 616.17,-32.53 621.88,-30.99 627.91,-29.01 633.57,-27"/>
<polygon fill="red" stroke="red" stroke-width="0.17" points="635.06,-30.18 643.2,-23.41 632.61,-23.62 635.06,-30.18"/>
</g>
<!-- 264&#45;&gt;1 -->
<g id="edge90" class="edge">
<title>264&#45;&gt;1</title>
<path fill="none" stroke="green" stroke-width="0.27" d="M400.71,-76.34C405.19,-73.26 410.14,-70.4 415.17,-68.53 581.58,-6.46 641.35,-77.51 813.17,-32.53 816.65,-31.61 820.23,-30.38 823.7,-29"/>
<polygon fill="green" stroke="green" stroke-width="0.27" points="825.26,-32.13 832.99,-24.89 822.43,-25.73 825.26,-32.13"/>
</g>
<!-- 264&#45;&gt;2 -->
<g id="edge91" class="edge">
<title>264&#45;&gt;2</title>
<path fill="none" stroke="red" stroke-width="0.41" d="M400.74,-76.41C405.21,-73.32 410.16,-70.44 415.17,-68.53 555.03,-15.02 604.87,-68.78 750.17,-32.53 754.79,-31.37 759.6,-29.78 764.18,-28.05"/>
<polygon fill="red" stroke="red" stroke-width="0.41" points="765.74,-31.19 773.68,-24.17 763.1,-24.71 765.74,-31.19"/>
</g>
<!-- 264&#45;&gt;3 -->
<g id="edge92" class="edge">
<title>264&#45;&gt;3</title>
<path fill="none" stroke="red" stroke-width="0.38" d="M400.96,-76.92C405.42,-73.81 410.3,-70.79 415.17,-68.53 474.18,-41.03 495.68,-53.94 557.17,-32.53 560.57,-31.34 564.1,-29.95 567.54,-28.5"/>
<polygon fill="red" stroke="red" stroke-width="0.38" points="569.12,-31.63 576.83,-24.36 566.27,-25.23 569.12,-31.63"/>
</g>
<!-- 264&#45;&gt;4 -->
<g id="edge93" class="edge">
<title>264&#45;&gt;4</title>
<path fill="none" stroke="green" stroke-width="0.21" d="M401.26,-77.51C405.71,-74.36 410.51,-71.18 415.17,-68.53 445.67,-51.12 483.21,-35.63 507.41,-26.35"/>
<polygon fill="green" stroke="green" stroke-width="0.21" points="508.78,-29.57 516.9,-22.76 506.31,-23.02 508.78,-29.57"/>
</g>
<!-- 264&#45;&gt;5 -->
<g id="edge94" class="edge">
<title>264&#45;&gt;5</title>
<path fill="none" stroke="green" stroke-width="0.34" d="M400.78,-76.5C405.25,-73.41 410.18,-70.51 415.17,-68.53 526.83,-24.1 566.46,-61.22 683.17,-32.53 688.91,-31.11 694.96,-29.19 700.62,-27.18"/>
<polygon fill="green" stroke="green" stroke-width="0.34" points="702.11,-30.36 710.25,-23.57 699.65,-23.81 702.11,-30.36"/>
</g>
<!-- 265&#45;&gt;0 -->
<g id="edge95" class="edge">
<title>265&#45;&gt;0</title>
<path fill="none" stroke="red" stroke-width="0.31" d="M467.98,-76.97C472.44,-73.85 477.32,-70.83 482.17,-68.53 537.88,-42.09 557.36,-51.08 616.17,-32.53 621.81,-30.75 627.82,-28.67 633.47,-26.64"/>
<polygon fill="red" stroke="red" stroke-width="0.31" points="634.94,-29.83 643.11,-23.09 632.52,-23.26 634.94,-29.83"/>
</g>
<!-- 265&#45;&gt;1 -->
<g id="edge96" class="edge">
<title>265&#45;&gt;1</title>
<path fill="none" stroke="red" stroke-width="0.3" d="M467.74,-76.41C472.21,-73.32 477.16,-70.45 482.17,-68.53 620.34,-15.56 670.36,-71.3 813.17,-32.53 816.64,-31.58 820.22,-30.33 823.68,-28.94"/>
<polygon fill="red" stroke="red" stroke-width="0.3" points="825.24,-32.08 832.98,-24.83 822.42,-25.67 825.24,-32.08"/>
</g>
<!-- 265&#45;&gt;2 -->
<g id="edge97" class="edge">
<title>265&#45;&gt;2</title>
<path fill="none" stroke="green" stroke-width="0.33" d="M467.78,-76.5C472.25,-73.41 477.18,-70.51 482.17,-68.53 593.83,-24.1 633.96,-63.16 750.17,-32.53 754.78,-31.31 759.58,-29.69 764.16,-27.95"/>
<polygon fill="green" stroke="green" stroke-width="0.33" points="765.72,-31.09 773.66,-24.08 763.08,-24.61 765.72,-31.09"/>
</g>
<!-- 265&#45;&gt;3 -->
<g id="edge98" class="edge">
<title>265&#45;&gt;3</title>
<path fill="none" stroke="red" stroke-width="0.32" d="M468.66,-77.35C473.01,-74.28 477.66,-71.18 482.17,-68.53 490.02,-63.91 537.71,-41.81 567.35,-28.18"/>
<polygon fill="red" stroke="red" stroke-width="0.32" points="569,-31.28 576.62,-23.92 566.07,-24.92 569,-31.28"/>
</g>
<!-- 265&#45;&gt;4 -->
<g id="edge99" class="edge">
<title>265&#45;&gt;4</title>
<path fill="none" stroke="red" stroke-width="0.25" d="M467.18,-76C480.73,-63.75 499.26,-47 513.07,-34.52"/>
<polygon fill="red" stroke="red" stroke-width="0.25" points="515.51,-37.04 520.58,-27.74 510.81,-31.84 515.51,-37.04"/>
</g>
<!-- 265&#45;&gt;5 -->
<g id="edge100" class="edge">
<title>265&#45;&gt;5</title>
<path fill="none" stroke="red" stroke-width="0.29" d="M467.84,-76.67C472.31,-73.56 477.23,-70.62 482.17,-68.53 565.74,-33.14 595.53,-56.11 683.17,-32.53 688.88,-30.99 694.91,-29.01 700.57,-27"/>
<polygon fill="red" stroke="red" stroke-width="0.29" points="702.06,-30.18 710.2,-23.41 699.61,-23.62 702.06,-30.18"/>
</g>
</g>
</svg>
