<?xml version="1.0" encoding="UTF-8" standalone="no"?>
<!DOCTYPE svg PUBLIC "-//W3C//DTD SVG 1.1//EN"
 "http://www.w3.org/Graphics/SVG/1.1/DTD/svg11.dtd">
<!-- Generated by graphviz version 2.44.0 (0)
 -->
<!-- Pages: 1 -->
<svg width="2943pt" height="180pt"
 viewBox="0.00 0.00 2942.87 180.02" xmlns="http://www.w3.org/2000/svg" xmlns:xlink="http://www.w3.org/1999/xlink">
<g id="graph0" class="graph" transform="scale(1 1) rotate(0) translate(4 176.02)">
<polygon fill="white" stroke="transparent" points="-4,4 -4,-176.02 2938.87,-176.02 2938.87,4 -4,4"/>
<!-- &#45;1 -->
<g id="node1" class="node">
<title>&#45;1</title>
<polygon fill="lightgray" stroke="black" points="1046.41,-172.02 1020.41,-172.02 1020.41,-154.02 1046.41,-154.02 1046.41,-172.02"/>
<text text-anchor="middle" x="1033.41" y="-160.82" font-family="Times-Roman" font-size="9.00">&#45;1</text>
</g>
<!-- 0 -->
<g id="node9" class="node">
<title>0</title>
<ellipse fill="lightblue" stroke="black" cx="1436.41" cy="-16.26" rx="16.03" ry="16.03"/>
<text text-anchor="middle" x="1436.41" y="-14.06" font-family="Times-Roman" font-size="9.00">0</text>
</g>
<!-- &#45;1&#45;&gt;0 -->
<g id="edge145" class="edge">
<title>&#45;1&#45;&gt;0</title>
<path fill="none" stroke="red" stroke-width="0.51" d="M1020.18,-161.84C915.97,-160.3 230.84,-149.05 201.41,-118.02 186.27,-102.06 186.09,-84.31 201.41,-68.53 248.21,-20.31 1345.84,-51.12 1410.41,-32.53 1411.68,-32.16 1412.96,-31.72 1414.23,-31.22"/>
<polygon fill="red" stroke="red" stroke-width="0.51" points="1416.14,-34.17 1423.5,-26.55 1413,-27.92 1416.14,-34.17"/>
</g>
<!-- 1 -->
<g id="node10" class="node">
<title>1</title>
<ellipse fill="lightblue" stroke="black" cx="1487.41" cy="-16.26" rx="16.03" ry="16.03"/>
<text text-anchor="middle" x="1487.41" y="-14.06" font-family="Times-Roman" font-size="9.00">1</text>
</g>
<!-- &#45;1&#45;&gt;1 -->
<g id="edge146" class="edge">
<title>&#45;1&#45;&gt;1</title>
<path fill="none" stroke="red" stroke-width="0.27" stroke-dasharray="1,5" d="M1020.14,-161.8C918.57,-160.04 267.4,-147.61 239.41,-118.02 224.29,-102.04 224.09,-84.31 239.41,-68.53 286.72,-19.8 1396.14,-51.31 1461.41,-32.53 1462.68,-32.16 1463.96,-31.72 1465.23,-31.22"/>
<polygon fill="red" stroke="red" stroke-width="0.27" points="1467.14,-34.17 1474.5,-26.55 1464,-27.92 1467.14,-34.17"/>
</g>
<!-- 2 -->
<g id="node11" class="node">
<title>2</title>
<ellipse fill="lightblue" stroke="black" cx="1181.41" cy="-16.26" rx="16.03" ry="16.03"/>
<text text-anchor="middle" x="1181.41" y="-14.06" font-family="Times-Roman" font-size="9.00">2</text>
</g>
<!-- &#45;1&#45;&gt;2 -->
<g id="edge147" class="edge">
<title>&#45;1&#45;&gt;2</title>
<path fill="none" stroke="red" stroke-width="0.51" d="M1020.25,-161.97C903.47,-161.44 48.04,-156.26 11.41,-118.02 -3.81,-102.14 -3.8,-84.42 11.41,-68.53 52.29,-25.81 985.11,-18.4 1154.99,-17.4"/>
<polygon fill="red" stroke="red" stroke-width="0.51" points="1155.08,-20.9 1165.06,-17.34 1155.04,-13.9 1155.08,-20.9"/>
</g>
<!-- 3 -->
<g id="node12" class="node">
<title>3</title>
<ellipse fill="lightblue" stroke="black" cx="1232.41" cy="-16.26" rx="16.03" ry="16.03"/>
<text text-anchor="middle" x="1232.41" y="-14.06" font-family="Times-Roman" font-size="9.00">3</text>
</g>
<!-- &#45;1&#45;&gt;3 -->
<g id="edge148" class="edge">
<title>&#45;1&#45;&gt;3</title>
<path fill="none" stroke="red" stroke-width="0.23" d="M1020.38,-161.95C906.57,-161.24 84.61,-154.83 49.41,-118.02 34.21,-102.13 34.1,-84.32 49.41,-68.53 94.17,-22.35 1144.62,-50.36 1206.41,-32.53 1207.68,-32.16 1208.96,-31.72 1210.22,-31.21"/>
<polygon fill="red" stroke="red" stroke-width="0.23" points="1212.14,-34.17 1219.5,-26.55 1209,-27.91 1212.14,-34.17"/>
</g>
<!-- 4 -->
<g id="node13" class="node">
<title>4</title>
<ellipse fill="lightblue" stroke="black" cx="1283.41" cy="-16.26" rx="16.03" ry="16.03"/>
<text text-anchor="middle" x="1283.41" y="-14.06" font-family="Times-Roman" font-size="9.00">4</text>
</g>
<!-- &#45;1&#45;&gt;4 -->
<g id="edge149" class="edge">
<title>&#45;1&#45;&gt;4</title>
<path fill="none" stroke="green" stroke-width="0.12" d="M1020.19,-161.92C908.15,-161.01 121.15,-153.37 87.41,-118.02 72.22,-102.11 72.1,-84.32 87.41,-68.53 132.68,-21.84 1194.93,-50.55 1257.41,-32.53 1258.68,-32.16 1259.96,-31.72 1261.22,-31.21"/>
<polygon fill="green" stroke="green" stroke-width="0.12" points="1263.14,-34.17 1270.5,-26.55 1260,-27.91 1263.14,-34.17"/>
</g>
<!-- 5 -->
<g id="node14" class="node">
<title>5</title>
<ellipse fill="lightblue" stroke="black" cx="1334.41" cy="-16.26" rx="16.03" ry="16.03"/>
<text text-anchor="middle" x="1334.41" y="-14.06" font-family="Times-Roman" font-size="9.00">5</text>
</g>
<!-- &#45;1&#45;&gt;5 -->
<g id="edge150" class="edge">
<title>&#45;1&#45;&gt;5</title>
<path fill="none" stroke="green" stroke-width="0.14" d="M1020.38,-161.9C911.59,-160.8 157.73,-151.95 125.41,-118.02 110.24,-102.1 110.09,-84.32 125.41,-68.53 171.19,-21.33 1245.23,-50.74 1308.41,-32.53 1309.68,-32.16 1310.96,-31.72 1312.22,-31.21"/>
<polygon fill="green" stroke="green" stroke-width="0.14" points="1314.14,-34.17 1321.5,-26.55 1311,-27.92 1314.14,-34.17"/>
</g>
<!-- 6 -->
<g id="node15" class="node">
<title>6</title>
<ellipse fill="lightblue" stroke="black" cx="1385.41" cy="-16.26" rx="16.03" ry="16.03"/>
<text text-anchor="middle" x="1385.41" y="-14.06" font-family="Times-Roman" font-size="9.00">6</text>
</g>
<!-- &#45;1&#45;&gt;6 -->
<g id="edge151" class="edge">
<title>&#45;1&#45;&gt;6</title>
<path fill="none" stroke="red" stroke-width="0.24" d="M1020.26,-161.87C913.65,-160.56 194.28,-150.5 163.41,-118.02 148.25,-102.08 148.09,-84.31 163.41,-68.53 209.7,-20.82 1295.53,-50.93 1359.41,-32.53 1360.68,-32.16 1361.96,-31.72 1363.22,-31.22"/>
<polygon fill="red" stroke="red" stroke-width="0.24" points="1365.14,-34.17 1372.5,-26.55 1362,-27.92 1365.14,-34.17"/>
</g>
<!-- 7 -->
<g id="node16" class="node">
<title>7</title>
<ellipse fill="lightblue" stroke="black" cx="1538.41" cy="-16.26" rx="16.03" ry="16.03"/>
<text text-anchor="middle" x="1538.41" y="-14.06" font-family="Times-Roman" font-size="9.00">7</text>
</g>
<!-- &#45;1&#45;&gt;7 -->
<g id="edge152" class="edge">
<title>&#45;1&#45;&gt;7</title>
<path fill="none" stroke="red" stroke-width="0.19" d="M1028.61,-154.01C1018.58,-136.1 998.1,-92.53 1020.41,-68.53 1057.73,-28.38 1460.08,-48.83 1512.41,-32.53 1513.68,-32.13 1514.95,-31.67 1516.2,-31.15"/>
<polygon fill="red" stroke="red" stroke-width="0.19" points="1518.15,-34.09 1525.47,-26.43 1514.97,-27.85 1518.15,-34.09"/>
</g>
<!-- 192 -->
<g id="node17" class="node">
<title>192</title>
<ellipse fill="white" stroke="black" cx="1066.41" cy="-93.28" rx="25" ry="25"/>
<text text-anchor="middle" x="1066.41" y="-91.08" font-family="Times-Roman" font-size="9.00">192</text>
</g>
<!-- &#45;1&#45;&gt;192 -->
<g id="edge4" class="edge">
<title>&#45;1&#45;&gt;192</title>
<path fill="none" stroke="red" stroke-width="0.3" d="M1037.33,-153.99C1040.84,-146.78 1046.22,-135.72 1051.41,-125.07"/>
<polygon fill="red" stroke="red" stroke-width="0.3" points="1054.63,-126.45 1055.87,-115.93 1048.34,-123.38 1054.63,-126.45"/>
</g>
<!-- 193 -->
<g id="node18" class="node">
<title>193</title>
<ellipse fill="white" stroke="black" cx="1133.41" cy="-93.28" rx="25" ry="25"/>
<text text-anchor="middle" x="1133.41" y="-91.08" font-family="Times-Roman" font-size="9.00">193</text>
</g>
<!-- &#45;1&#45;&gt;193 -->
<g id="edge5" class="edge">
<title>&#45;1&#45;&gt;193</title>
<path fill="none" stroke="red" stroke-width="0.33" d="M1046.36,-153.75C1059.94,-145.03 1081.84,-130.8 1100.41,-118.02 1102.03,-116.91 1103.68,-115.77 1105.34,-114.6"/>
<polygon fill="red" stroke="red" stroke-width="0.33" points="1107.48,-117.37 1113.61,-108.73 1103.43,-111.66 1107.48,-117.37"/>
</g>
<!-- 194 -->
<g id="node19" class="node">
<title>194</title>
<ellipse fill="white" stroke="black" cx="1200.41" cy="-93.28" rx="25" ry="25"/>
<text text-anchor="middle" x="1200.41" y="-91.08" font-family="Times-Roman" font-size="9.00">194</text>
</g>
<!-- &#45;1&#45;&gt;194 -->
<g id="edge6" class="edge">
<title>&#45;1&#45;&gt;194</title>
<path fill="none" stroke="green" stroke-width="0.28" d="M1046.41,-157.2C1049.36,-156.14 1052.49,-155.02 1055.41,-154.02 1104.88,-137.09 1120.73,-141.58 1167.41,-118.02 1169.21,-117.12 1171.01,-116.12 1172.8,-115.06"/>
<polygon fill="green" stroke="green" stroke-width="0.28" points="1175.03,-117.78 1181.51,-109.4 1171.22,-111.91 1175.03,-117.78"/>
</g>
<!-- 195 -->
<g id="node20" class="node">
<title>195</title>
<ellipse fill="white" stroke="black" cx="1267.41" cy="-93.28" rx="25" ry="25"/>
<text text-anchor="middle" x="1267.41" y="-91.08" font-family="Times-Roman" font-size="9.00">195</text>
</g>
<!-- &#45;1&#45;&gt;195 -->
<g id="edge7" class="edge">
<title>&#45;1&#45;&gt;195</title>
<path fill="none" stroke="red" stroke-width="0.33" d="M1046.8,-156.79C1049.62,-155.79 1052.59,-154.82 1055.41,-154.02 1133.54,-132.1 1160.02,-150.46 1234.41,-118.02 1236.26,-117.22 1238.1,-116.3 1239.92,-115.3"/>
<polygon fill="red" stroke="red" stroke-width="0.33" points="1242.08,-118.08 1248.7,-109.81 1238.37,-112.14 1242.08,-118.08"/>
</g>
<!-- 196 -->
<g id="node21" class="node">
<title>196</title>
<ellipse fill="white" stroke="black" cx="1334.41" cy="-93.28" rx="25" ry="25"/>
<text text-anchor="middle" x="1334.41" y="-91.08" font-family="Times-Roman" font-size="9.00">196</text>
</g>
<!-- &#45;1&#45;&gt;196 -->
<g id="edge8" class="edge">
<title>&#45;1&#45;&gt;196</title>
<path fill="none" stroke="green" stroke-width="0.17" d="M1046.77,-156.68C1049.59,-155.69 1052.57,-154.74 1055.41,-154.02 1162.55,-127 1198.98,-159.48 1301.41,-118.02 1303.28,-117.27 1305.13,-116.39 1306.97,-115.42"/>
<polygon fill="green" stroke="green" stroke-width="0.17" points="1309.09,-118.22 1315.78,-110 1305.43,-112.25 1309.09,-118.22"/>
</g>
<!-- 197 -->
<g id="node22" class="node">
<title>197</title>
<ellipse fill="white" stroke="black" cx="1401.41" cy="-93.28" rx="25" ry="25"/>
<text text-anchor="middle" x="1401.41" y="-91.08" font-family="Times-Roman" font-size="9.00">197</text>
</g>
<!-- &#45;1&#45;&gt;197 -->
<g id="edge9" class="edge">
<title>&#45;1&#45;&gt;197</title>
<path fill="none" stroke="red" stroke-width="0.19" d="M1046.76,-156.61C1049.58,-155.62 1052.56,-154.7 1055.41,-154.02 1191.7,-121.88 1237.82,-168.55 1368.41,-118.02 1370.29,-117.3 1372.15,-116.44 1373.99,-115.49"/>
<polygon fill="red" stroke="red" stroke-width="0.19" points="1376.1,-118.3 1382.83,-110.12 1372.47,-112.32 1376.1,-118.3"/>
</g>
<!-- 188 -->
<g id="node23" class="node">
<title>188</title>
<ellipse fill="white" stroke="black" cx="1468.41" cy="-93.28" rx="25" ry="25"/>
<text text-anchor="middle" x="1468.41" y="-91.08" font-family="Times-Roman" font-size="9.00">188</text>
</g>
<!-- &#45;1&#45;&gt;188 -->
<g id="edge1" class="edge">
<title>&#45;1&#45;&gt;188</title>
<path fill="none" stroke="red" stroke-width="0.66" d="M1046.75,-156.56C1049.57,-155.58 1052.56,-154.67 1055.41,-154.02 1220.91,-116.74 1276.59,-177.65 1435.41,-118.02 1437.29,-117.32 1439.17,-116.47 1441.01,-115.53"/>
<polygon fill="red" stroke="red" stroke-width="0.66" points="1443.1,-118.36 1449.86,-110.19 1439.49,-112.36 1443.1,-118.36"/>
</g>
<!-- 190 -->
<g id="node24" class="node">
<title>190</title>
<ellipse fill="white" stroke="black" cx="1535.41" cy="-93.28" rx="25" ry="25"/>
<text text-anchor="middle" x="1535.41" y="-91.08" font-family="Times-Roman" font-size="9.00">190</text>
</g>
<!-- &#45;1&#45;&gt;190 -->
<g id="edge2" class="edge">
<title>&#45;1&#45;&gt;190</title>
<path fill="none" stroke="red" stroke-width="0.23" d="M1046.74,-156.53C1049.56,-155.55 1052.55,-154.65 1055.41,-154.02 1250.15,-111.59 1315.33,-186.76 1502.41,-118.02 1504.3,-117.33 1506.18,-116.5 1508.02,-115.56"/>
<polygon fill="red" stroke="red" stroke-width="0.23" points="1510.11,-118.39 1516.88,-110.24 1506.5,-112.39 1510.11,-118.39"/>
</g>
<!-- 191 -->
<g id="node25" class="node">
<title>191</title>
<ellipse fill="white" stroke="black" cx="1602.41" cy="-93.28" rx="25" ry="25"/>
<text text-anchor="middle" x="1602.41" y="-91.08" font-family="Times-Roman" font-size="9.00">191</text>
</g>
<!-- &#45;1&#45;&gt;191 -->
<g id="edge3" class="edge">
<title>&#45;1&#45;&gt;191</title>
<path fill="none" stroke="red" stroke-width="0.82" d="M1046.73,-156.51C1049.56,-155.53 1052.55,-154.63 1055.41,-154.02 1279.42,-106.43 1354.05,-195.87 1569.41,-118.02 1571.3,-117.34 1573.18,-116.51 1575.03,-115.59"/>
<polygon fill="red" stroke="red" stroke-width="0.82" points="1577.11,-118.42 1583.89,-110.28 1573.51,-112.41 1577.11,-118.42"/>
</g>
<!-- &#45;2 -->
<g id="node2" class="node">
<title>&#45;2</title>
<polygon fill="lightgray" stroke="black" points="1090.41,-172.02 1064.41,-172.02 1064.41,-154.02 1090.41,-154.02 1090.41,-172.02"/>
<text text-anchor="middle" x="1077.41" y="-160.82" font-family="Times-Roman" font-size="9.00">&#45;2</text>
</g>
<!-- &#45;2&#45;&gt;0 -->
<g id="edge153" class="edge">
<title>&#45;2&#45;&gt;0</title>
<path fill="none" stroke="green" stroke-width="0.47" d="M1064.09,-156.5C1061.27,-155.52 1058.27,-154.63 1055.41,-154.02 995.48,-141.43 547.28,-162.72 505.41,-118.02 490.37,-101.97 490.17,-84.39 505.41,-68.53 575.14,4.03 1313.84,-60.85 1410.41,-32.53 1411.68,-32.15 1412.96,-31.71 1414.22,-31.2"/>
<polygon fill="green" stroke="green" stroke-width="0.47" points="1416.14,-34.15 1423.49,-26.52 1412.99,-27.9 1416.14,-34.15"/>
</g>
<!-- &#45;2&#45;&gt;1 -->
<g id="edge154" class="edge">
<title>&#45;2&#45;&gt;1</title>
<path fill="none" stroke="red" stroke-width="0.27" d="M1064.09,-156.51C1061.27,-155.53 1058.27,-154.63 1055.41,-154.02 999.63,-142.16 582.3,-159.74 543.41,-118.02 528.41,-101.93 528.16,-84.38 543.41,-68.53 578.79,-31.74 1412.43,-46.88 1461.41,-32.53 1462.68,-32.15 1463.96,-31.71 1465.22,-31.2"/>
<polygon fill="red" stroke="red" stroke-width="0.27" points="1467.14,-34.15 1474.49,-26.52 1463.99,-27.9 1467.14,-34.15"/>
</g>
<!-- &#45;2&#45;&gt;2 -->
<g id="edge155" class="edge">
<title>&#45;2&#45;&gt;2</title>
<path fill="none" stroke="red" stroke-width="0.69" d="M1064.1,-156.46C1061.27,-155.49 1058.28,-154.6 1055.41,-154.02 974.71,-137.78 372.19,-177.63 315.41,-118.02 300.24,-102.1 300.32,-84.54 315.41,-68.53 344.92,-37.21 1012.04,-20.95 1154.71,-17.82"/>
<polygon fill="red" stroke="red" stroke-width="0.69" points="1155.21,-21.32 1165.13,-17.6 1155.05,-14.32 1155.21,-21.32"/>
</g>
<!-- &#45;2&#45;&gt;3 -->
<g id="edge156" class="edge">
<title>&#45;2&#45;&gt;3</title>
<path fill="none" stroke="red" stroke-width="0.13" d="M1064.1,-156.47C1061.27,-155.49 1058.28,-154.61 1055.41,-154.02 978.87,-138.51 407.21,-174.65 353.41,-118.02 338.26,-102.08 338.19,-84.41 353.41,-68.53 419.06,-0.05 1115.42,-59.34 1206.41,-32.53 1207.68,-32.15 1208.96,-31.7 1210.22,-31.2"/>
<polygon fill="red" stroke="red" stroke-width="0.13" points="1212.14,-34.15 1219.49,-26.51 1208.99,-27.9 1212.14,-34.15"/>
</g>
<!-- &#45;2&#45;&gt;4 -->
<g id="edge157" class="edge">
<title>&#45;2&#45;&gt;4</title>
<path fill="none" stroke="red" stroke-width="0.41" d="M1064.1,-156.47C1061.27,-155.5 1058.28,-154.61 1055.41,-154.02 983.02,-139.24 442.22,-171.67 391.41,-118.02 376.28,-102.05 376.18,-84.4 391.41,-68.53 458.08,0.97 1165.02,-59.71 1257.41,-32.53 1258.68,-32.15 1259.96,-31.7 1261.22,-31.2"/>
<polygon fill="red" stroke="red" stroke-width="0.41" points="1263.14,-34.15 1270.49,-26.52 1259.99,-27.9 1263.14,-34.15"/>
</g>
<!-- &#45;2&#45;&gt;5 -->
<g id="edge158" class="edge">
<title>&#45;2&#45;&gt;5</title>
<path fill="none" stroke="red" stroke-width="0.54" d="M1064.09,-156.48C1061.27,-155.51 1058.28,-154.61 1055.41,-154.02 987.17,-139.97 477.24,-168.68 429.41,-118.02 414.31,-102.03 414.18,-84.4 429.41,-68.53 497.1,1.99 1214.63,-60.09 1308.41,-32.53 1309.68,-32.15 1310.96,-31.7 1312.22,-31.2"/>
<polygon fill="red" stroke="red" stroke-width="0.54" points="1314.14,-34.15 1321.49,-26.52 1310.99,-27.9 1314.14,-34.15"/>
</g>
<!-- &#45;2&#45;&gt;6 -->
<g id="edge159" class="edge">
<title>&#45;2&#45;&gt;6</title>
<path fill="none" stroke="green" stroke-width="0.4" d="M1064.09,-156.49C1061.27,-155.51 1058.28,-154.62 1055.41,-154.02 991.33,-140.7 512.26,-165.7 467.41,-118.02 452.34,-102 452.17,-84.39 467.41,-68.53 536.12,3.01 1264.24,-60.47 1359.41,-32.53 1360.68,-32.15 1361.96,-31.7 1363.22,-31.2"/>
<polygon fill="green" stroke="green" stroke-width="0.4" points="1365.14,-34.15 1372.49,-26.52 1361.99,-27.9 1365.14,-34.15"/>
</g>
<!-- &#45;2&#45;&gt;7 -->
<g id="edge160" class="edge">
<title>&#45;2&#45;&gt;7</title>
<path fill="none" stroke="green" stroke-width="0.63" d="M1064.78,-154.02C1053.9,-146.31 1038.94,-133.53 1032.41,-118.02 1023.88,-97.75 1017.45,-84.65 1032.41,-68.53 1068.79,-29.32 1461.36,-48.48 1512.41,-32.53 1513.68,-32.13 1514.94,-31.67 1516.2,-31.15"/>
<polygon fill="green" stroke="green" stroke-width="0.63" points="1518.15,-34.08 1525.46,-26.42 1514.97,-27.85 1518.15,-34.08"/>
</g>
<!-- &#45;2&#45;&gt;192 -->
<g id="edge13" class="edge">
<title>&#45;2&#45;&gt;192</title>
<path fill="none" stroke="red" stroke-width="0.61" d="M1076.11,-153.99C1075.04,-147.43 1073.46,-137.7 1071.88,-127.98"/>
<polygon fill="red" stroke="red" stroke-width="0.61" points="1075.32,-127.31 1070.26,-118 1068.41,-128.43 1075.32,-127.31"/>
</g>
<!-- &#45;2&#45;&gt;193 -->
<g id="edge14" class="edge">
<title>&#45;2&#45;&gt;193</title>
<path fill="none" stroke="green" stroke-width="0.25" d="M1084.05,-153.99C1090.83,-145.78 1101.73,-132.61 1111.56,-120.72"/>
<polygon fill="green" stroke="green" stroke-width="0.25" points="1114.45,-122.7 1118.13,-112.77 1109.06,-118.24 1114.45,-122.7"/>
</g>
<!-- &#45;2&#45;&gt;194 -->
<g id="edge15" class="edge">
<title>&#45;2&#45;&gt;194</title>
<path fill="none" stroke="green" stroke-width="0.29" d="M1090.59,-156.42C1108.46,-148.65 1141.14,-133.74 1167.41,-118.02 1169.09,-117.02 1170.8,-115.95 1172.5,-114.85"/>
<polygon fill="green" stroke="green" stroke-width="0.29" points="1174.58,-117.67 1180.89,-109.15 1170.65,-111.88 1174.58,-117.67"/>
</g>
<!-- &#45;2&#45;&gt;195 -->
<g id="edge16" class="edge">
<title>&#45;2&#45;&gt;195</title>
<path fill="none" stroke="green" stroke-width="0.31" d="M1090.51,-158.26C1095.21,-156.92 1100.55,-155.4 1105.41,-154.02 1162.69,-137.85 1180.76,-143.81 1234.41,-118.02 1236.22,-117.15 1238.04,-116.18 1239.84,-115.14"/>
<polygon fill="green" stroke="green" stroke-width="0.31" points="1242.05,-117.88 1248.58,-109.54 1238.27,-111.99 1242.05,-117.88"/>
</g>
<!-- &#45;2&#45;&gt;196 -->
<g id="edge17" class="edge">
<title>&#45;2&#45;&gt;196</title>
<path fill="none" stroke="green" stroke-width="0.33" d="M1090.45,-158.02C1095.14,-156.65 1100.49,-155.18 1105.41,-154.02 1191.65,-133.84 1219.93,-152.74 1301.41,-118.02 1303.26,-117.24 1305.11,-116.33 1306.93,-115.34"/>
<polygon fill="green" stroke="green" stroke-width="0.33" points="1309.08,-118.12 1315.73,-109.87 1305.39,-112.18 1309.08,-118.12"/>
</g>
<!-- &#45;2&#45;&gt;197 -->
<g id="edge18" class="edge">
<title>&#45;2&#45;&gt;197</title>
<path fill="none" stroke="green" stroke-width="0.14" d="M1090.42,-157.89C1095.11,-156.51 1100.46,-155.06 1105.41,-154.02 1220.87,-129.76 1258.84,-161.78 1368.41,-118.02 1370.28,-117.28 1372.14,-116.4 1373.97,-115.44"/>
<polygon fill="green" stroke="green" stroke-width="0.14" points="1376.1,-118.24 1382.8,-110.04 1372.44,-112.27 1376.1,-118.24"/>
</g>
<!-- &#45;2&#45;&gt;188 -->
<g id="edge10" class="edge">
<title>&#45;2&#45;&gt;188</title>
<path fill="none" stroke="red" stroke-width="0.23" d="M1090.69,-157.73C1095.31,-156.37 1100.55,-154.98 1105.41,-154.02 1250.2,-125.66 1297.66,-170.86 1435.41,-118.02 1437.29,-117.3 1439.16,-116.45 1441,-115.5"/>
<polygon fill="red" stroke="red" stroke-width="0.23" points="1443.1,-118.32 1449.84,-110.14 1439.47,-112.33 1443.1,-118.32"/>
</g>
<!-- &#45;2&#45;&gt;190 -->
<g id="edge11" class="edge">
<title>&#45;2&#45;&gt;190</title>
<path fill="none" stroke="green" stroke-width="0.14" d="M1090.68,-157.68C1095.3,-156.32 1100.54,-154.93 1105.41,-154.02 1279.58,-121.55 1336.42,-179.96 1502.41,-118.02 1504.3,-117.32 1506.17,-116.48 1508.01,-115.54"/>
<polygon fill="green" stroke="green" stroke-width="0.14" points="1510.11,-118.37 1516.86,-110.21 1506.49,-112.37 1510.11,-118.37"/>
</g>
<!-- &#45;2&#45;&gt;191 -->
<g id="edge12" class="edge">
<title>&#45;2&#45;&gt;191</title>
<path fill="none" stroke="green" stroke-width="0.3" d="M1090.67,-157.65C1095.29,-156.28 1100.53,-154.9 1105.41,-154.02 1308.99,-117.43 1375.15,-189.07 1569.41,-118.02 1571.3,-117.33 1573.18,-116.5 1575.02,-115.57"/>
<polygon fill="green" stroke="green" stroke-width="0.3" points="1577.11,-118.4 1583.88,-110.26 1573.51,-112.4 1577.11,-118.4"/>
</g>
<!-- &#45;3 -->
<g id="node3" class="node">
<title>&#45;3</title>
<polygon fill="lightgray" stroke="black" points="1140.41,-172.02 1114.41,-172.02 1114.41,-154.02 1140.41,-154.02 1140.41,-172.02"/>
<text text-anchor="middle" x="1127.41" y="-160.82" font-family="Times-Roman" font-size="9.00">&#45;3</text>
</g>
<!-- &#45;3&#45;&gt;0 -->
<g id="edge161" class="edge">
<title>&#45;3&#45;&gt;0</title>
<path fill="none" stroke="green" stroke-width="0.56" d="M1114.41,-157.86C1109.72,-156.47 1104.37,-155.03 1099.41,-154.02 1035.78,-141.07 852.41,-166.69 809.41,-118.02 794.85,-101.54 794.33,-84.54 809.41,-68.53 855.28,-19.83 1346.41,-52 1410.41,-32.53 1411.68,-32.14 1412.95,-31.68 1414.21,-31.17"/>
<polygon fill="green" stroke="green" stroke-width="0.56" points="1416.15,-34.11 1423.48,-26.46 1412.98,-27.87 1416.15,-34.11"/>
</g>
<!-- &#45;3&#45;&gt;1 -->
<g id="edge162" class="edge">
<title>&#45;3&#45;&gt;1</title>
<path fill="none" stroke="green" stroke-width="0.18" d="M1114.33,-157.91C1090.55,-150.13 1041.81,-132.73 1032.41,-118.02 1020.57,-99.49 1017.52,-84.72 1032.41,-68.53 1097.17,1.89 1370.22,-61.46 1461.41,-32.53 1462.67,-32.13 1463.94,-31.66 1465.2,-31.13"/>
<polygon fill="green" stroke="green" stroke-width="0.18" points="1467.15,-34.07 1474.46,-26.4 1463.96,-27.84 1467.15,-34.07"/>
</g>
<!-- &#45;3&#45;&gt;2 -->
<g id="edge163" class="edge">
<title>&#45;3&#45;&gt;2</title>
<path fill="none" stroke="red" stroke-width="0.39" d="M1114.15,-157.64C1109.54,-156.27 1104.29,-154.89 1099.41,-154.02 1046.76,-144.63 655.79,-157.23 619.41,-118.02 604.45,-101.9 604.58,-84.77 619.41,-68.53 655.9,-28.56 1047.98,-19.4 1154.72,-17.64"/>
<polygon fill="red" stroke="red" stroke-width="0.39" points="1155,-21.13 1164.95,-17.48 1154.89,-14.13 1155,-21.13"/>
</g>
<!-- &#45;3&#45;&gt;3 -->
<g id="edge164" class="edge">
<title>&#45;3&#45;&gt;3</title>
<path fill="none" stroke="green" stroke-width="0.36" d="M1114.15,-157.66C1109.53,-156.29 1104.29,-154.91 1099.41,-154.02 1050.93,-145.21 690.81,-154.25 657.41,-118.02 642.5,-101.85 642.37,-84.58 657.41,-68.53 699.2,-23.91 1147.98,-50.49 1206.41,-32.53 1207.68,-32.14 1208.95,-31.68 1210.21,-31.16"/>
<polygon fill="green" stroke="green" stroke-width="0.36" points="1212.15,-34.1 1219.47,-26.45 1208.97,-27.86 1212.15,-34.1"/>
</g>
<!-- &#45;3&#45;&gt;4 -->
<g id="edge165" class="edge">
<title>&#45;3&#45;&gt;4</title>
<path fill="none" stroke="red" stroke-width="0.47" d="M1114.15,-157.68C1109.53,-156.31 1104.28,-154.93 1099.41,-154.02 1055.1,-145.8 725.83,-151.28 695.41,-118.02 680.56,-101.79 680.36,-84.57 695.41,-68.53 738.22,-22.89 1197.59,-50.86 1257.41,-32.53 1258.68,-32.14 1259.95,-31.68 1261.21,-31.16"/>
<polygon fill="red" stroke="red" stroke-width="0.47" points="1263.15,-34.1 1270.47,-26.45 1259.97,-27.86 1263.15,-34.1"/>
</g>
<!-- &#45;3&#45;&gt;5 -->
<g id="edge166" class="edge">
<title>&#45;3&#45;&gt;5</title>
<path fill="none" stroke="green" stroke-width="0.48" d="M1114.14,-157.7C1109.52,-156.34 1104.28,-154.95 1099.41,-154.02 1019.13,-138.74 788.3,-178.58 733.41,-118.02 718.64,-101.73 718.35,-84.56 733.41,-68.53 777.24,-21.87 1247.19,-51.24 1308.41,-32.53 1309.68,-32.14 1310.95,-31.68 1312.21,-31.17"/>
<polygon fill="green" stroke="green" stroke-width="0.48" points="1314.15,-34.11 1321.47,-26.46 1310.97,-27.87 1314.15,-34.11"/>
</g>
<!-- &#45;3&#45;&gt;6 -->
<g id="edge167" class="edge">
<title>&#45;3&#45;&gt;6</title>
<path fill="none" stroke="red" stroke-width="0.56" d="M1114.14,-157.73C1109.52,-156.37 1104.27,-154.98 1099.41,-154.02 1027.46,-139.9 820.35,-172.63 771.41,-118.02 756.73,-101.64 756.34,-84.55 771.41,-68.53 816.26,-20.85 1296.8,-51.62 1359.41,-32.53 1360.68,-32.14 1361.95,-31.68 1363.21,-31.17"/>
<polygon fill="red" stroke="red" stroke-width="0.56" points="1365.15,-34.11 1372.48,-26.46 1361.98,-27.87 1365.15,-34.11"/>
</g>
<!-- &#45;3&#45;&gt;192 -->
<g id="edge22" class="edge">
<title>&#45;3&#45;&gt;192</title>
<path fill="none" stroke="green" stroke-width="0.56" d="M1120.17,-153.99C1112.61,-145.59 1100.36,-131.98 1089.46,-119.88"/>
<polygon fill="green" stroke="green" stroke-width="0.56" points="1091.85,-117.3 1082.56,-112.21 1086.65,-121.98 1091.85,-117.3"/>
</g>
<!-- &#45;3&#45;&gt;193 -->
<g id="edge23" class="edge">
<title>&#45;3&#45;&gt;193</title>
<path fill="none" stroke="red" stroke-width="0.44" d="M1128.12,-153.99C1128.7,-147.43 1129.57,-137.7 1130.43,-127.98"/>
<polygon fill="red" stroke="red" stroke-width="0.44" points="1133.91,-128.27 1131.31,-118 1126.94,-127.65 1133.91,-128.27"/>
</g>
<!-- &#45;3&#45;&gt;194 -->
<g id="edge24" class="edge">
<title>&#45;3&#45;&gt;194</title>
<path fill="none" stroke="green" stroke-width="0.79" d="M1136.07,-153.99C1145.61,-145.14 1161.38,-130.5 1174.92,-117.93"/>
<polygon fill="green" stroke="green" stroke-width="0.79" points="1177.63,-120.2 1182.58,-110.83 1172.86,-115.07 1177.63,-120.2"/>
</g>
<!-- &#45;3&#45;&gt;195 -->
<g id="edge25" class="edge">
<title>&#45;3&#45;&gt;195</title>
<path fill="none" stroke="green" stroke-width="0.58" d="M1140.71,-157.68C1161.41,-150.69 1202.28,-135.87 1234.41,-118.02 1236.17,-117.05 1237.95,-115.99 1239.71,-114.89"/>
<polygon fill="green" stroke="green" stroke-width="0.58" points="1241.99,-117.58 1248.37,-109.12 1238.1,-111.76 1241.99,-117.58"/>
</g>
<!-- &#45;3&#45;&gt;196 -->
<g id="edge26" class="edge">
<title>&#45;3&#45;&gt;196</title>
<path fill="none" stroke="green" stroke-width="0.41" d="M1140.64,-160.41C1170.49,-156.39 1244.92,-144.33 1301.41,-118.02 1303.23,-117.18 1305.06,-116.22 1306.87,-115.2"/>
<polygon fill="green" stroke="green" stroke-width="0.41" points="1309.06,-117.95 1315.62,-109.63 1305.31,-112.04 1309.06,-117.95"/>
</g>
<!-- &#45;3&#45;&gt;197 -->
<g id="edge27" class="edge">
<title>&#45;3&#45;&gt;197</title>
<path fill="none" stroke="red" stroke-width="0.36" d="M1140.53,-161.64C1177.74,-160.13 1286.61,-152.82 1368.41,-118.02 1370.26,-117.24 1372.11,-116.33 1373.93,-115.34"/>
<polygon fill="red" stroke="red" stroke-width="0.36" points="1376.09,-118.12 1382.73,-109.87 1372.39,-112.18 1376.09,-118.12"/>
</g>
<!-- &#45;3&#45;&gt;188 -->
<g id="edge19" class="edge">
<title>&#45;3&#45;&gt;188</title>
<path fill="none" stroke="green" stroke-width="0.32" d="M1140.7,-160.98C1192.44,-156.76 1380.3,-140.22 1435.41,-118.02 1437.28,-117.27 1439.14,-116.39 1440.97,-115.43"/>
<polygon fill="green" stroke="green" stroke-width="0.32" points="1443.1,-118.23 1449.79,-110.02 1439.44,-112.26 1443.1,-118.23"/>
</g>
<!-- &#45;3&#45;&gt;190 -->
<g id="edge20" class="edge">
<title>&#45;3&#45;&gt;190</title>
<path fill="none" stroke="red" stroke-width="0.28" d="M1140.64,-160.87C1203.23,-155.35 1467.96,-131.4 1502.41,-118.02 1504.29,-117.3 1506.15,-116.44 1507.99,-115.48"/>
<polygon fill="red" stroke="red" stroke-width="0.28" points="1510.1,-118.29 1516.83,-110.11 1506.46,-112.31 1510.1,-118.29"/>
</g>
<!-- &#45;3&#45;&gt;191 -->
<g id="edge21" class="edge">
<title>&#45;3&#45;&gt;191</title>
<path fill="none" stroke="red" stroke-width="0.45" d="M1140.64,-161.12C1209.82,-156.33 1528.3,-133.57 1569.41,-118.02 1571.29,-117.31 1573.16,-116.47 1575.01,-115.52"/>
<polygon fill="red" stroke="red" stroke-width="0.45" points="1577.1,-118.34 1583.85,-110.17 1573.48,-112.35 1577.1,-118.34"/>
</g>
<!-- &#45;4 -->
<g id="node4" class="node">
<title>&#45;4</title>
<polygon fill="lightgray" stroke="black" points="1280.41,-172.02 1254.41,-172.02 1254.41,-154.02 1280.41,-154.02 1280.41,-172.02"/>
<text text-anchor="middle" x="1267.41" y="-160.82" font-family="Times-Roman" font-size="9.00">&#45;4</text>
</g>
<!-- &#45;4&#45;&gt;0 -->
<g id="edge168" class="edge">
<title>&#45;4&#45;&gt;0</title>
<path fill="none" stroke="red" stroke-width="0.18" d="M1280.43,-161.48C1343.16,-158.7 1612.21,-145.28 1636.41,-118.02 1651.02,-101.57 1650.3,-85.59 1636.41,-68.53 1586.55,-7.29 1536.11,-60.89 1462.41,-32.53 1461.17,-32.05 1459.93,-31.52 1458.69,-30.95"/>
<polygon fill="red" stroke="red" stroke-width="0.18" points="1459.96,-27.66 1449.48,-26.06 1456.67,-33.84 1459.96,-27.66"/>
</g>
<!-- &#45;4&#45;&gt;1 -->
<g id="edge169" class="edge">
<title>&#45;4&#45;&gt;1</title>
<path fill="none" stroke="green" stroke-width="0.2" d="M1280.66,-161.55C1345.79,-159.07 1629.84,-146.66 1655.41,-118.02 1670.06,-101.62 1668.92,-85.89 1655.41,-68.53 1615.43,-17.14 1573.64,-57.25 1513.41,-32.53 1512.19,-32.02 1510.95,-31.47 1509.71,-30.88"/>
<polygon fill="green" stroke="green" stroke-width="0.2" points="1511,-27.6 1500.53,-25.94 1507.68,-33.76 1511,-27.6"/>
</g>
<!-- &#45;4&#45;&gt;2 -->
<g id="edge170" class="edge">
<title>&#45;4&#45;&gt;2</title>
<path fill="none" stroke="red" stroke-width="0.19" d="M1254.38,-160.79C1194.04,-155.01 944.26,-130.39 933.41,-118.02 918.91,-101.48 919.52,-85.58 933.41,-68.53 961.12,-34.5 1096.43,-22.37 1154.67,-18.68"/>
<polygon fill="red" stroke="red" stroke-width="0.19" points="1155.14,-22.15 1164.92,-18.06 1154.73,-15.17 1155.14,-22.15"/>
</g>
<!-- &#45;4&#45;&gt;3 -->
<g id="edge171" class="edge">
<title>&#45;4&#45;&gt;3</title>
<path fill="none" stroke="green" stroke-width="0.13" d="M1254.24,-161.22C1196.55,-157.56 968,-141.64 947.41,-118.02 932.95,-101.44 932.97,-85.12 947.41,-68.53 985.57,-24.7 1151.52,-51.6 1206.41,-32.53 1207.66,-32.09 1208.92,-31.59 1210.17,-31.05"/>
<polygon fill="green" stroke="green" stroke-width="0.13" points="1212.15,-33.97 1219.41,-26.24 1208.92,-27.76 1212.15,-33.97"/>
</g>
<!-- &#45;4&#45;&gt;4 -->
<g id="edge172" class="edge">
<title>&#45;4&#45;&gt;4</title>
<path fill="none" stroke="red" stroke-width="0.13" d="M1254.07,-161.12C1197.68,-157.17 980.96,-140.59 961.41,-118.02 947.01,-101.4 946.82,-84.99 961.41,-68.53 1005.35,-18.92 1194.64,-53.74 1257.41,-32.53 1258.67,-32.1 1259.93,-31.61 1261.18,-31.08"/>
<polygon fill="red" stroke="red" stroke-width="0.13" points="1263.15,-34 1270.42,-26.29 1259.93,-27.78 1263.15,-34"/>
</g>
<!-- &#45;4&#45;&gt;5 -->
<g id="edge173" class="edge">
<title>&#45;4&#45;&gt;5</title>
<path fill="none" stroke="green" stroke-width="0.46" d="M1254.35,-160.86C1202.9,-156.16 1016.24,-137.84 999.41,-118.02 985.17,-101.26 984.78,-84.96 999.41,-68.53 1045.38,-16.89 1242.86,-54.5 1308.41,-32.53 1309.67,-32.11 1310.93,-31.62 1312.18,-31.08"/>
<polygon fill="green" stroke="green" stroke-width="0.46" points="1314.15,-34.01 1321.43,-26.31 1310.94,-27.79 1314.15,-34.01"/>
</g>
<!-- &#45;4&#45;&gt;6 -->
<g id="edge174" class="edge">
<title>&#45;4&#45;&gt;6</title>
<path fill="none" stroke="green" stroke-width="0.32" d="M1254.4,-161.67C1209.34,-160.16 1061.11,-152.6 1032.41,-118.02 1018.36,-101.1 1017.73,-84.91 1032.41,-68.53 1081.19,-14.08 1290.02,-55.54 1359.41,-32.53 1360.67,-32.11 1361.93,-31.63 1363.19,-31.09"/>
<polygon fill="green" stroke="green" stroke-width="0.32" points="1365.15,-34.02 1372.43,-26.32 1361.94,-27.8 1365.15,-34.02"/>
</g>
<!-- &#45;4&#45;&gt;7 -->
<g id="edge175" class="edge">
<title>&#45;4&#45;&gt;7</title>
<path fill="none" stroke="red" stroke-width="0.26" d="M1280.42,-161.63C1346.98,-159.47 1647.41,-148.1 1674.41,-118.02 1689.11,-101.65 1686.93,-86.62 1674.41,-68.53 1649.78,-32.92 1597.06,-22.01 1564.98,-18.69"/>
<polygon fill="red" stroke="red" stroke-width="0.26" points="1565.22,-15.2 1554.96,-17.83 1564.62,-22.18 1565.22,-15.2"/>
</g>
<!-- &#45;4&#45;&gt;192 -->
<g id="edge31" class="edge">
<title>&#45;4&#45;&gt;192</title>
<path fill="none" stroke="green" stroke-width="0.2" d="M1254.21,-160.25C1225.1,-155.99 1153.7,-143.58 1099.41,-118.02 1097.59,-117.17 1095.77,-116.21 1093.96,-115.18"/>
<polygon fill="green" stroke="green" stroke-width="0.2" points="1095.53,-112.02 1085.21,-109.6 1091.76,-117.93 1095.53,-112.02"/>
</g>
<!-- &#45;4&#45;&gt;193 -->
<g id="edge32" class="edge">
<title>&#45;4&#45;&gt;193</title>
<path fill="none" stroke="green" stroke-width="0.16" d="M1254.23,-157.32C1234.53,-150.05 1196.5,-135.15 1166.41,-118.02 1164.66,-117.03 1162.89,-115.96 1161.13,-114.85"/>
<polygon fill="green" stroke="green" stroke-width="0.16" points="1162.75,-111.72 1152.5,-109.05 1158.85,-117.53 1162.75,-111.72"/>
</g>
<!-- &#45;4&#45;&gt;194 -->
<g id="edge33" class="edge">
<title>&#45;4&#45;&gt;194</title>
<path fill="none" stroke="red" stroke-width="0.55" d="M1259.46,-153.99C1250.91,-145.34 1236.88,-131.15 1224.64,-118.78"/>
<polygon fill="red" stroke="red" stroke-width="0.55" points="1226.84,-116.02 1217.32,-111.38 1221.87,-120.95 1226.84,-116.02"/>
</g>
<!-- &#45;4&#45;&gt;195 -->
<g id="edge34" class="edge">
<title>&#45;4&#45;&gt;195</title>
<path fill="none" stroke="green" stroke-width="0.2" d="M1267.41,-153.99C1267.41,-147.55 1267.41,-138.05 1267.41,-128.52"/>
<polygon fill="green" stroke="green" stroke-width="0.2" points="1270.91,-128.3 1267.41,-118.3 1263.91,-128.3 1270.91,-128.3"/>
</g>
<!-- &#45;4&#45;&gt;196 -->
<g id="edge35" class="edge">
<title>&#45;4&#45;&gt;196</title>
<path fill="none" stroke="green" stroke-width="0.16" d="M1275.36,-153.99C1283.91,-145.34 1297.94,-131.15 1310.18,-118.78"/>
<polygon fill="green" stroke="green" stroke-width="0.16" points="1312.96,-120.95 1317.5,-111.38 1307.98,-116.02 1312.96,-120.95"/>
</g>
<!-- &#45;4&#45;&gt;197 -->
<g id="edge36" class="edge">
<title>&#45;4&#45;&gt;197</title>
<path fill="none" stroke="green" stroke-width="0.47" d="M1280.59,-157.32C1300.29,-150.05 1338.32,-135.15 1368.41,-118.02 1370.16,-117.03 1371.93,-115.96 1373.69,-114.85"/>
<polygon fill="green" stroke="green" stroke-width="0.47" points="1375.97,-117.53 1382.32,-109.05 1372.07,-111.72 1375.97,-117.53"/>
</g>
<!-- &#45;4&#45;&gt;188 -->
<g id="edge28" class="edge">
<title>&#45;4&#45;&gt;188</title>
<path fill="none" stroke="green" stroke-width="0.36" d="M1280.61,-160.25C1309.72,-155.99 1381.13,-143.58 1435.41,-118.02 1437.23,-117.17 1439.06,-116.21 1440.86,-115.18"/>
<polygon fill="green" stroke="green" stroke-width="0.36" points="1443.06,-117.93 1449.61,-109.6 1439.29,-112.02 1443.06,-117.93"/>
</g>
<!-- &#45;4&#45;&gt;190 -->
<g id="edge29" class="edge">
<title>&#45;4&#45;&gt;190</title>
<path fill="none" stroke="green" stroke-width="0.64" d="M1280.46,-161.56C1317,-159.85 1422.85,-152.08 1502.41,-118.02 1504.26,-117.23 1506.11,-116.32 1507.93,-115.33"/>
<polygon fill="green" stroke="green" stroke-width="0.64" points="1510.08,-118.11 1516.72,-109.86 1506.38,-112.17 1510.08,-118.11"/>
</g>
<!-- &#45;4&#45;&gt;191 -->
<g id="edge30" class="edge">
<title>&#45;4&#45;&gt;191</title>
<path fill="none" stroke="red" stroke-width="0.32" d="M1280.64,-162.29C1323.88,-162.72 1464.29,-160.53 1569.41,-118.02 1571.28,-117.27 1573.13,-116.39 1574.97,-115.42"/>
<polygon fill="red" stroke="red" stroke-width="0.32" points="1577.09,-118.22 1583.79,-110.01 1573.43,-112.25 1577.09,-118.22"/>
</g>
<!-- &#45;5 -->
<g id="node5" class="node">
<title>&#45;5</title>
<polygon fill="lightgray" stroke="black" points="1559.41,-172.02 1533.41,-172.02 1533.41,-154.02 1559.41,-154.02 1559.41,-172.02"/>
<text text-anchor="middle" x="1546.41" y="-160.82" font-family="Times-Roman" font-size="9.00">&#45;5</text>
</g>
<!-- &#45;5&#45;&gt;0 -->
<g id="edge176" class="edge">
<title>&#45;5&#45;&gt;0</title>
<path fill="none" stroke="red" stroke-width="0.37" d="M1559.75,-156.57C1562.57,-155.59 1565.56,-154.67 1568.41,-154.02 1648.32,-135.88 1880.37,-178.73 1935.41,-118.02 1950.19,-101.73 1950.36,-84.66 1935.41,-68.53 1899.58,-29.87 1512.71,-48.27 1462.41,-32.53 1461.15,-32.13 1459.88,-31.66 1458.62,-31.14"/>
<polygon fill="red" stroke="red" stroke-width="0.37" points="1459.86,-27.85 1449.36,-26.42 1456.68,-34.08 1459.86,-27.85"/>
</g>
<!-- &#45;5&#45;&gt;1 -->
<g id="edge177" class="edge">
<title>&#45;5&#45;&gt;1</title>
<path fill="none" stroke="green" stroke-width="0.83" d="M1559.74,-156.55C1562.56,-155.57 1565.55,-154.66 1568.41,-154.02 1656.61,-134.42 1912.41,-184.68 1973.41,-118.02 1988.26,-101.79 1988.35,-84.68 1973.41,-68.53 1938.6,-30.89 1562.32,-47.9 1513.41,-32.53 1512.15,-32.13 1510.88,-31.66 1509.62,-31.14"/>
<polygon fill="green" stroke="green" stroke-width="0.83" points="1510.86,-27.84 1500.36,-26.41 1507.67,-34.08 1510.86,-27.84"/>
</g>
<!-- &#45;5&#45;&gt;2 -->
<g id="edge178" class="edge">
<title>&#45;5&#45;&gt;2</title>
<path fill="none" stroke="red" stroke-width="0.18" d="M1559.64,-156.48C1583.58,-146.32 1631.99,-125.11 1636.41,-118.02 1648.06,-99.36 1651.3,-84.72 1636.41,-68.53 1571.65,1.89 1298.6,-61.46 1207.41,-32.53 1206.15,-32.13 1204.88,-31.66 1203.62,-31.13"/>
<polygon fill="red" stroke="red" stroke-width="0.18" points="1204.86,-27.84 1194.37,-26.4 1201.67,-34.07 1204.86,-27.84"/>
</g>
<!-- &#45;5&#45;&gt;3 -->
<g id="edge179" class="edge">
<title>&#45;5&#45;&gt;3</title>
<path fill="none" stroke="red" stroke-width="0.22" d="M1559.78,-156.72C1562.6,-155.73 1565.58,-154.77 1568.41,-154.02 1615.26,-141.7 1752.11,-155 1783.41,-118.02 1797.62,-101.23 1798.43,-84.61 1783.41,-68.53 1743.51,-25.79 1314.28,-49.79 1258.41,-32.53 1257.15,-32.14 1255.88,-31.67 1254.62,-31.16"/>
<polygon fill="red" stroke="red" stroke-width="0.22" points="1255.85,-27.86 1245.35,-26.44 1252.68,-34.1 1255.85,-27.86"/>
</g>
<!-- &#45;5&#45;&gt;4 -->
<g id="edge180" class="edge">
<title>&#45;5&#45;&gt;4</title>
<path fill="none" stroke="red" stroke-width="0.15" stroke-dasharray="1,5" d="M1559.77,-156.67C1562.59,-155.68 1565.57,-154.73 1568.41,-154.02 1623.5,-140.25 1784.19,-160.92 1821.41,-118.02 1835.83,-101.41 1836.41,-84.62 1821.41,-68.53 1782.53,-26.81 1363.88,-49.41 1309.41,-32.53 1308.15,-32.13 1306.88,-31.67 1305.62,-31.15"/>
<polygon fill="red" stroke="red" stroke-width="0.15" points="1306.85,-27.86 1296.35,-26.43 1303.68,-34.09 1306.85,-27.86"/>
</g>
<!-- &#45;5&#45;&gt;5 -->
<g id="edge181" class="edge">
<title>&#45;5&#45;&gt;5</title>
<path fill="none" stroke="green" stroke-width="0.29" d="M1559.76,-156.63C1562.58,-155.64 1565.57,-154.71 1568.41,-154.02 1631.77,-138.79 1816.26,-166.85 1859.41,-118.02 1873.98,-101.54 1874.4,-84.63 1859.41,-68.53 1821.54,-27.83 1413.49,-49.03 1360.41,-32.53 1359.15,-32.13 1357.88,-31.67 1356.62,-31.15"/>
<polygon fill="green" stroke="green" stroke-width="0.29" points="1357.85,-27.85 1347.36,-26.43 1354.68,-34.09 1357.85,-27.85"/>
</g>
<!-- &#45;5&#45;&gt;6 -->
<g id="edge182" class="edge">
<title>&#45;5&#45;&gt;6</title>
<path fill="none" stroke="green" stroke-width="0.44" d="M1559.75,-156.6C1562.57,-155.61 1565.56,-154.69 1568.41,-154.02 1640.04,-137.34 1848.32,-172.79 1897.41,-118.02 1912.1,-101.64 1912.38,-84.65 1897.41,-68.53 1860.56,-28.85 1463.1,-48.65 1411.41,-32.53 1410.15,-32.13 1408.88,-31.67 1407.62,-31.15"/>
<polygon fill="green" stroke="green" stroke-width="0.44" points="1408.86,-27.85 1398.36,-26.42 1405.68,-34.09 1408.86,-27.85"/>
</g>
<!-- &#45;5&#45;&gt;7 -->
<g id="edge183" class="edge">
<title>&#45;5&#45;&gt;7</title>
<path fill="none" stroke="green" stroke-width="0.57" d="M1559.74,-156.53C1562.56,-155.55 1565.55,-154.65 1568.41,-154.02 1616.66,-143.49 1977.94,-154.33 2011.41,-118.02 2026.32,-101.85 2026.1,-84.9 2011.41,-68.53 1981.39,-35.08 1660.57,-21.45 1565.08,-18.12"/>
<polygon fill="green" stroke="green" stroke-width="0.57" points="1564.94,-14.61 1554.83,-17.77 1564.7,-21.61 1564.94,-14.61"/>
</g>
<!-- &#45;5&#45;&gt;192 -->
<g id="edge40" class="edge">
<title>&#45;5&#45;&gt;192</title>
<path fill="none" stroke="green" stroke-width="0.23" d="M1533.26,-161.65C1468.37,-159.66 1182.03,-149.21 1099.41,-118.02 1097.53,-117.31 1095.66,-116.47 1093.82,-115.52"/>
<polygon fill="green" stroke="green" stroke-width="0.23" points="1095.34,-112.35 1084.97,-110.18 1091.72,-118.35 1095.34,-112.35"/>
</g>
<!-- &#45;5&#45;&gt;193 -->
<g id="edge41" class="edge">
<title>&#45;5&#45;&gt;193</title>
<path fill="none" stroke="green" stroke-width="0.55" d="M1533.33,-161.39C1474.69,-158.43 1235.77,-144.89 1166.41,-118.02 1164.54,-117.3 1162.67,-116.44 1160.83,-115.49"/>
<polygon fill="green" stroke="green" stroke-width="0.55" points="1162.36,-112.32 1151.99,-110.11 1158.72,-118.3 1162.36,-112.32"/>
</g>
<!-- &#45;5&#45;&gt;194 -->
<g id="edge42" class="edge">
<title>&#45;5&#45;&gt;194</title>
<path fill="none" stroke="green" stroke-width="0.52" d="M1533.32,-162.38C1489.25,-163.14 1342.9,-161.98 1233.41,-118.02 1231.54,-117.27 1229.68,-116.4 1227.85,-115.43"/>
<polygon fill="green" stroke="green" stroke-width="0.52" points="1229.38,-112.27 1219.03,-110.02 1225.73,-118.23 1229.38,-112.27"/>
</g>
<!-- &#45;5&#45;&gt;195 -->
<g id="edge43" class="edge">
<title>&#45;5&#45;&gt;195</title>
<path fill="none" stroke="green" stroke-width="0.71" d="M1533.3,-161.7C1495.57,-160.36 1384.12,-153.45 1300.41,-118.02 1298.56,-117.24 1296.71,-116.34 1294.89,-115.35"/>
<polygon fill="green" stroke="green" stroke-width="0.71" points="1296.43,-112.19 1286.09,-109.89 1292.74,-118.13 1296.43,-112.19"/>
</g>
<!-- &#45;5&#45;&gt;196 -->
<g id="edge44" class="edge">
<title>&#45;5&#45;&gt;196</title>
<path fill="none" stroke="green" stroke-width="0.22" d="M1533.26,-160.54C1502.85,-156.73 1425.81,-144.98 1367.41,-118.02 1365.58,-117.18 1363.76,-116.23 1361.95,-115.21"/>
<polygon fill="green" stroke="green" stroke-width="0.22" points="1363.51,-112.05 1353.19,-109.65 1359.76,-117.97 1363.51,-112.05"/>
</g>
<!-- &#45;5&#45;&gt;197 -->
<g id="edge45" class="edge">
<title>&#45;5&#45;&gt;197</title>
<path fill="none" stroke="green" stroke-width="0.76" d="M1533.18,-158.02C1511.72,-151.26 1468.35,-136.52 1434.41,-118.02 1432.64,-117.06 1430.86,-116.02 1429.09,-114.93"/>
<polygon fill="green" stroke="green" stroke-width="0.76" points="1430.69,-111.79 1420.43,-109.18 1426.83,-117.62 1430.69,-111.79"/>
</g>
<!-- &#45;5&#45;&gt;188 -->
<g id="edge37" class="edge">
<title>&#45;5&#45;&gt;188</title>
<path fill="none" stroke="red" stroke-width="0.46" d="M1537.16,-153.99C1526.74,-144.94 1509.35,-129.83 1494.66,-117.08"/>
<polygon fill="red" stroke="red" stroke-width="0.46" points="1496.69,-114.2 1486.85,-110.29 1492.1,-119.49 1496.69,-114.2"/>
</g>
<!-- &#45;5&#45;&gt;190 -->
<g id="edge38" class="edge">
<title>&#45;5&#45;&gt;190</title>
<path fill="none" stroke="green" stroke-width="0.22" d="M1545.11,-153.99C1544.04,-147.43 1542.46,-137.7 1540.88,-127.98"/>
<polygon fill="green" stroke="green" stroke-width="0.22" points="1544.32,-127.31 1539.26,-118 1537.41,-128.43 1544.32,-127.31"/>
</g>
<!-- &#45;5&#45;&gt;191 -->
<g id="edge39" class="edge">
<title>&#45;5&#45;&gt;191</title>
<path fill="none" stroke="red" stroke-width="0.13" d="M1553.05,-153.99C1559.83,-145.78 1570.73,-132.61 1580.56,-120.72"/>
<polygon fill="red" stroke="red" stroke-width="0.13" points="1583.45,-122.7 1587.13,-112.77 1578.06,-118.24 1583.45,-122.7"/>
</g>
<!-- &#45;6 -->
<g id="node6" class="node">
<title>&#45;6</title>
<polygon fill="lightgray" stroke="black" points="1603.41,-172.02 1577.41,-172.02 1577.41,-154.02 1603.41,-154.02 1603.41,-172.02"/>
<text text-anchor="middle" x="1590.41" y="-160.82" font-family="Times-Roman" font-size="9.00">&#45;6</text>
</g>
<!-- &#45;6&#45;&gt;0 -->
<g id="edge184" class="edge">
<title>&#45;6&#45;&gt;0</title>
<path fill="none" stroke="red" stroke-width="0.26" stroke-dasharray="1,5" d="M1603.73,-156.48C1606.55,-155.51 1609.55,-154.61 1612.41,-154.02 1680.76,-139.95 2191.5,-168.76 2239.41,-118.02 2254.51,-102.03 2254.6,-84.44 2239.41,-68.53 2179.73,-6.02 1545.26,-57.12 1462.41,-32.53 1461.14,-32.15 1459.87,-31.7 1458.6,-31.19"/>
<polygon fill="red" stroke="red" stroke-width="0.26" points="1459.84,-27.89 1449.33,-26.5 1456.68,-34.14 1459.84,-27.89"/>
</g>
<!-- &#45;6&#45;&gt;1 -->
<g id="edge185" class="edge">
<title>&#45;6&#45;&gt;1</title>
<path fill="none" stroke="red" stroke-width="0.48" d="M1603.73,-156.47C1606.55,-155.5 1609.54,-154.61 1612.41,-154.02 1684.91,-139.22 2226.52,-171.74 2277.41,-118.02 2292.54,-102.05 2292.6,-84.44 2277.41,-68.53 2218.75,-7.04 1594.87,-56.74 1513.41,-32.53 1512.14,-32.15 1510.87,-31.7 1509.61,-31.19"/>
<polygon fill="red" stroke="red" stroke-width="0.48" points="1510.84,-27.89 1500.33,-26.5 1507.68,-34.14 1510.84,-27.89"/>
</g>
<!-- &#45;6&#45;&gt;2 -->
<g id="edge186" class="edge">
<title>&#45;6&#45;&gt;2</title>
<path fill="none" stroke="red" stroke-width="0.15" d="M1603.61,-157.33C1619.02,-151.06 1643.74,-138.31 1654.41,-118.02 1664.65,-98.55 1669.33,-84.69 1654.41,-68.53 1586.83,4.71 1302.45,-62.51 1207.41,-32.53 1206.15,-32.13 1204.88,-31.66 1203.62,-31.14"/>
<polygon fill="red" stroke="red" stroke-width="0.15" points="1204.86,-27.84 1194.36,-26.41 1201.67,-34.07 1204.86,-27.84"/>
</g>
<!-- &#45;6&#45;&gt;3 -->
<g id="edge187" class="edge">
<title>&#45;6&#45;&gt;3</title>
<path fill="none" stroke="green" stroke-width="0.43" d="M1603.74,-156.52C1606.56,-155.54 1609.55,-154.64 1612.41,-154.02 1664.15,-142.88 2051.43,-156.84 2087.41,-118.02 2102.37,-101.89 2102.63,-84.42 2087.41,-68.53 2023.65,-1.93 1346.83,-58.64 1258.41,-32.53 1257.14,-32.15 1255.87,-31.7 1254.6,-31.19"/>
<polygon fill="green" stroke="green" stroke-width="0.43" points="1255.84,-27.9 1245.33,-26.51 1252.68,-34.14 1255.84,-27.9"/>
</g>
<!-- &#45;6&#45;&gt;4 -->
<g id="edge188" class="edge">
<title>&#45;6&#45;&gt;4</title>
<path fill="none" stroke="green" stroke-width="0.36" d="M1603.73,-156.51C1606.56,-155.53 1609.55,-154.63 1612.41,-154.02 1668.3,-142.15 2086.45,-159.82 2125.41,-118.02 2140.41,-101.93 2140.62,-84.42 2125.41,-68.53 2062.67,-2.95 1396.44,-58.26 1309.41,-32.53 1308.14,-32.15 1306.87,-31.7 1305.6,-31.19"/>
<polygon fill="green" stroke="green" stroke-width="0.36" points="1306.84,-27.89 1296.33,-26.51 1303.68,-34.14 1306.84,-27.89"/>
</g>
<!-- &#45;6&#45;&gt;5 -->
<g id="edge189" class="edge">
<title>&#45;6&#45;&gt;5</title>
<path fill="none" stroke="red" stroke-width="0.1" d="M1603.73,-156.5C1606.55,-155.52 1609.55,-154.63 1612.41,-154.02 1672.45,-141.41 2121.47,-162.8 2163.41,-118.02 2178.45,-101.97 2178.61,-84.43 2163.41,-68.53 2101.69,-3.98 1446.05,-57.88 1360.41,-32.53 1359.14,-32.15 1357.87,-31.7 1356.6,-31.19"/>
<polygon fill="red" stroke="red" stroke-width="0.1" points="1357.84,-27.89 1347.33,-26.51 1354.68,-34.14 1357.84,-27.89"/>
</g>
<!-- &#45;6&#45;&gt;6 -->
<g id="edge190" class="edge">
<title>&#45;6&#45;&gt;6</title>
<path fill="none" stroke="red" stroke-width="0.55" d="M1603.73,-156.49C1606.55,-155.51 1609.55,-154.62 1612.41,-154.02 1676.61,-140.68 2156.49,-165.78 2201.41,-118.02 2216.48,-102 2216.61,-84.43 2201.41,-68.53 2140.71,-5 1495.66,-57.5 1411.41,-32.53 1410.14,-32.15 1408.87,-31.7 1407.6,-31.19"/>
<polygon fill="red" stroke="red" stroke-width="0.55" points="1408.84,-27.89 1398.33,-26.5 1405.68,-34.14 1408.84,-27.89"/>
</g>
<!-- &#45;6&#45;&gt;7 -->
<g id="edge191" class="edge">
<title>&#45;6&#45;&gt;7</title>
<path fill="none" stroke="green" stroke-width="0.11" d="M1603.72,-156.47C1606.55,-155.49 1609.54,-154.61 1612.41,-154.02 1689.07,-138.49 2261.54,-174.73 2315.41,-118.02 2330.56,-102.08 2330.45,-84.59 2315.41,-68.53 2263.12,-12.67 1695.6,-15.52 1565.07,-16.92"/>
<polygon fill="green" stroke="green" stroke-width="0.11" points="1564.76,-13.42 1554.8,-17.04 1564.84,-20.42 1564.76,-13.42"/>
</g>
<!-- &#45;6&#45;&gt;192 -->
<g id="edge49" class="edge">
<title>&#45;6&#45;&gt;192</title>
<path fill="none" stroke="green" stroke-width="0.17" d="M1577.09,-156.52C1574.26,-155.55 1571.27,-154.64 1568.41,-154.02 1364.06,-109.89 1295.78,-189.75 1099.41,-118.02 1097.52,-117.33 1095.64,-116.5 1093.8,-115.57"/>
<polygon fill="green" stroke="green" stroke-width="0.17" points="1095.32,-112.4 1084.94,-110.26 1091.71,-118.4 1095.32,-112.4"/>
</g>
<!-- &#45;6&#45;&gt;193 -->
<g id="edge50" class="edge">
<title>&#45;6&#45;&gt;193</title>
<path fill="none" stroke="red" stroke-width="0.29" d="M1577.08,-156.55C1574.26,-155.57 1571.27,-154.66 1568.41,-154.02 1393.32,-115.05 1334.51,-180.64 1166.41,-118.02 1164.53,-117.32 1162.65,-116.48 1160.81,-115.54"/>
<polygon fill="red" stroke="red" stroke-width="0.29" points="1162.33,-112.37 1151.96,-110.21 1158.72,-118.37 1162.33,-112.37"/>
</g>
<!-- &#45;6&#45;&gt;194 -->
<g id="edge51" class="edge">
<title>&#45;6&#45;&gt;194</title>
<path fill="none" stroke="green" stroke-width="0.26" d="M1577.07,-156.59C1574.25,-155.61 1571.26,-154.69 1568.41,-154.02 1422.54,-120.19 1373.27,-171.54 1233.41,-118.02 1231.53,-117.31 1229.66,-116.45 1227.82,-115.5"/>
<polygon fill="green" stroke="green" stroke-width="0.26" points="1229.35,-112.33 1218.98,-110.14 1225.72,-118.32 1229.35,-112.33"/>
</g>
<!-- &#45;6&#45;&gt;195 -->
<g id="edge52" class="edge">
<title>&#45;6&#45;&gt;195</title>
<path fill="none" stroke="green" stroke-width="0.31" d="M1577.06,-156.65C1574.24,-155.66 1571.25,-154.72 1568.41,-154.02 1451.71,-125.32 1412.08,-162.45 1300.41,-118.02 1298.54,-117.28 1296.68,-116.41 1294.85,-115.44"/>
<polygon fill="green" stroke="green" stroke-width="0.31" points="1296.38,-112.28 1286.02,-110.05 1292.72,-118.25 1296.38,-112.28"/>
</g>
<!-- &#45;6&#45;&gt;196 -->
<g id="edge53" class="edge">
<title>&#45;6&#45;&gt;196</title>
<path fill="none" stroke="red" stroke-width="0.33" d="M1577.03,-156.75C1574.21,-155.75 1571.24,-154.79 1568.41,-154.02 1480.78,-130.43 1450.98,-153.41 1367.41,-118.02 1365.56,-117.24 1363.71,-116.34 1361.89,-115.35"/>
<polygon fill="red" stroke="red" stroke-width="0.33" points="1363.43,-112.19 1353.09,-109.89 1359.74,-118.13 1363.43,-112.19"/>
</g>
<!-- &#45;6&#45;&gt;197 -->
<g id="edge54" class="edge">
<title>&#45;6&#45;&gt;197</title>
<path fill="none" stroke="red" stroke-width="0.36" d="M1576.98,-156.93C1574.16,-155.92 1571.2,-154.9 1568.41,-154.02 1509.6,-135.47 1490.12,-144.47 1434.41,-118.02 1432.59,-117.16 1430.77,-116.2 1428.97,-115.16"/>
<polygon fill="red" stroke="red" stroke-width="0.36" points="1430.54,-112.01 1420.22,-109.58 1426.77,-117.91 1430.54,-112.01"/>
</g>
<!-- &#45;6&#45;&gt;188 -->
<g id="edge46" class="edge">
<title>&#45;6&#45;&gt;188</title>
<path fill="none" stroke="green" stroke-width="0.26" d="M1577.39,-156.4C1559.73,-148.59 1527.41,-133.66 1501.41,-118.02 1499.73,-117.01 1498.03,-115.95 1496.33,-114.84"/>
<polygon fill="green" stroke="green" stroke-width="0.26" points="1498.18,-111.87 1487.95,-109.14 1494.24,-117.66 1498.18,-111.87"/>
</g>
<!-- &#45;6&#45;&gt;190 -->
<g id="edge47" class="edge">
<title>&#45;6&#45;&gt;190</title>
<path fill="none" stroke="green" stroke-width="0.12" d="M1583.89,-153.99C1577.27,-145.84 1566.68,-132.79 1557.08,-120.96"/>
<polygon fill="green" stroke="green" stroke-width="0.12" points="1559.67,-118.61 1550.65,-113.05 1554.24,-123.02 1559.67,-118.61"/>
</g>
<!-- &#45;6&#45;&gt;191 -->
<g id="edge48" class="edge">
<title>&#45;6&#45;&gt;191</title>
<path fill="none" stroke="red" stroke-width="0.35" d="M1591.83,-153.99C1593.01,-147.38 1594.75,-137.54 1596.48,-127.75"/>
<polygon fill="red" stroke="red" stroke-width="0.35" points="1599.96,-128.16 1598.26,-117.7 1593.07,-126.94 1599.96,-128.16"/>
</g>
<!-- &#45;7 -->
<g id="node7" class="node">
<title>&#45;7</title>
<polygon fill="lightgray" stroke="black" points="1647.41,-172.02 1621.41,-172.02 1621.41,-154.02 1647.41,-154.02 1647.41,-172.02"/>
<text text-anchor="middle" x="1634.41" y="-160.82" font-family="Times-Roman" font-size="9.00">&#45;7</text>
</g>
<!-- &#45;7&#45;&gt;0 -->
<g id="edge192" class="edge">
<title>&#45;7&#45;&gt;0</title>
<path fill="none" stroke="red" stroke-width="0.59" d="M1647.72,-156.44C1650.54,-155.47 1653.54,-154.59 1656.41,-154.02 1704.8,-144.48 2509.25,-153.6 2543.41,-118.02 2558.65,-102.16 2558.71,-84.34 2543.41,-68.53 2501.63,-25.34 1520.13,-49.25 1462.41,-32.53 1461.14,-32.16 1459.86,-31.71 1458.6,-31.21"/>
<polygon fill="red" stroke="red" stroke-width="0.59" points="1459.83,-27.91 1449.32,-26.54 1456.68,-34.16 1459.83,-27.91"/>
</g>
<!-- &#45;7&#45;&gt;1 -->
<g id="edge193" class="edge">
<title>&#45;7&#45;&gt;1</title>
<path fill="none" stroke="red" stroke-width="0.56" d="M1647.72,-156.44C1650.54,-155.47 1653.54,-154.59 1656.41,-154.02 1706.88,-144.12 2545.76,-155.09 2581.41,-118.02 2596.66,-102.17 2596.7,-84.34 2581.41,-68.53 2540.15,-25.85 1570.43,-49.06 1513.41,-32.53 1512.14,-32.16 1510.86,-31.71 1509.6,-31.21"/>
<polygon fill="red" stroke="red" stroke-width="0.56" points="1510.83,-27.91 1500.32,-26.54 1507.68,-34.16 1510.83,-27.91"/>
</g>
<!-- &#45;7&#45;&gt;2 -->
<g id="edge194" class="edge">
<title>&#45;7&#45;&gt;2</title>
<path fill="none" stroke="green" stroke-width="0.13" d="M1644.76,-153.88C1654.01,-145.89 1666.92,-132.78 1672.41,-118.02 1680.08,-97.41 1687.35,-84.67 1672.41,-68.53 1637.21,-30.5 1256.86,-48.04 1207.41,-32.53 1206.15,-32.13 1204.88,-31.66 1203.62,-31.14"/>
<polygon fill="green" stroke="green" stroke-width="0.13" points="1204.86,-27.85 1194.36,-26.41 1201.67,-34.08 1204.86,-27.85"/>
</g>
<!-- &#45;7&#45;&gt;3 -->
<g id="edge195" class="edge">
<title>&#45;7&#45;&gt;3</title>
<path fill="none" stroke="green" stroke-width="0.18" d="M1647.72,-156.46C1650.55,-155.49 1653.54,-154.6 1656.41,-154.02 1736.56,-137.87 2335.03,-177.24 2391.41,-118.02 2406.58,-102.09 2406.72,-84.33 2391.41,-68.53 2347.59,-23.29 1318.91,-50.01 1258.41,-32.53 1257.14,-32.16 1255.86,-31.71 1254.6,-31.21"/>
<polygon fill="green" stroke="green" stroke-width="0.18" points="1255.83,-27.91 1245.32,-26.54 1252.68,-34.17 1255.83,-27.91"/>
</g>
<!-- &#45;7&#45;&gt;4 -->
<g id="edge196" class="edge">
<title>&#45;7&#45;&gt;4</title>
<path fill="none" stroke="green" stroke-width="0.22" d="M1647.72,-156.46C1650.55,-155.48 1653.54,-154.6 1656.41,-154.02 1740.72,-137.14 2370.04,-180.22 2429.41,-118.02 2444.6,-102.11 2444.71,-84.33 2429.41,-68.53 2386.1,-23.8 1369.22,-49.82 1309.41,-32.53 1308.14,-32.16 1306.86,-31.71 1305.6,-31.21"/>
<polygon fill="green" stroke="green" stroke-width="0.22" points="1306.83,-27.91 1296.32,-26.54 1303.68,-34.17 1306.83,-27.91"/>
</g>
<!-- &#45;7&#45;&gt;5 -->
<g id="edge197" class="edge">
<title>&#45;7&#45;&gt;5</title>
<path fill="none" stroke="green" stroke-width="0.61" d="M1647.72,-156.45C1650.55,-155.48 1653.54,-154.6 1656.41,-154.02 1700.64,-145.22 2436.24,-150.61 2467.41,-118.02 2482.62,-102.13 2482.71,-84.33 2467.41,-68.53 2424.61,-24.32 1419.52,-49.63 1360.41,-32.53 1359.14,-32.16 1357.86,-31.71 1356.6,-31.21"/>
<polygon fill="green" stroke="green" stroke-width="0.61" points="1357.83,-27.91 1347.32,-26.54 1354.68,-34.16 1357.83,-27.91"/>
</g>
<!-- &#45;7&#45;&gt;6 -->
<g id="edge198" class="edge">
<title>&#45;7&#45;&gt;6</title>
<path fill="none" stroke="red" stroke-width="0.25" d="M1647.72,-156.45C1650.54,-155.47 1653.54,-154.59 1656.41,-154.02 1702.72,-144.85 2472.74,-152.11 2505.41,-118.02 2520.63,-102.14 2520.71,-84.34 2505.41,-68.53 2463.12,-24.83 1469.82,-49.44 1411.41,-32.53 1410.14,-32.16 1408.86,-31.71 1407.6,-31.21"/>
<polygon fill="red" stroke="red" stroke-width="0.25" points="1408.83,-27.91 1398.32,-26.54 1405.68,-34.16 1408.83,-27.91"/>
</g>
<!-- &#45;7&#45;&gt;7 -->
<g id="edge199" class="edge">
<title>&#45;7&#45;&gt;7</title>
<path fill="none" stroke="green" stroke-width="0.56" d="M1647.72,-156.44C1650.54,-155.46 1653.54,-154.59 1656.41,-154.02 1708.95,-143.75 2582.27,-156.58 2619.41,-118.02 2634.67,-102.18 2634.59,-84.45 2619.41,-68.53 2581.86,-29.15 1726.93,-19.06 1564.82,-17.5"/>
<polygon fill="green" stroke="green" stroke-width="0.56" points="1564.79,-14 1554.76,-17.4 1564.72,-21 1564.79,-14"/>
</g>
<!-- &#45;7&#45;&gt;192 -->
<g id="edge58" class="edge">
<title>&#45;7&#45;&gt;192</title>
<path fill="none" stroke="green" stroke-width="0.21" d="M1621.09,-156.51C1618.27,-155.53 1615.27,-154.63 1612.41,-154.02 1388.84,-106.51 1314.35,-195.74 1099.41,-118.02 1097.52,-117.34 1095.64,-116.51 1093.79,-115.59"/>
<polygon fill="green" stroke="green" stroke-width="0.21" points="1095.31,-112.41 1084.93,-110.28 1091.71,-118.42 1095.31,-112.41"/>
</g>
<!-- &#45;7&#45;&gt;193 -->
<g id="edge59" class="edge">
<title>&#45;7&#45;&gt;193</title>
<path fill="none" stroke="red" stroke-width="0.18" d="M1621.08,-156.53C1618.26,-155.55 1615.27,-154.65 1612.41,-154.02 1418.11,-111.66 1353.07,-186.62 1166.41,-118.02 1164.52,-117.33 1162.65,-116.5 1160.8,-115.56"/>
<polygon fill="red" stroke="red" stroke-width="0.18" points="1162.32,-112.39 1151.94,-110.24 1158.72,-118.39 1162.32,-112.39"/>
</g>
<!-- &#45;7&#45;&gt;194 -->
<g id="edge60" class="edge">
<title>&#45;7&#45;&gt;194</title>
<path fill="none" stroke="green" stroke-width="0.29" d="M1621.08,-156.56C1618.25,-155.58 1615.27,-154.67 1612.41,-154.02 1447.35,-116.81 1391.81,-177.51 1233.41,-118.02 1231.53,-117.32 1229.65,-116.47 1227.81,-115.53"/>
<polygon fill="green" stroke="green" stroke-width="0.29" points="1229.33,-112.36 1218.96,-110.19 1225.72,-118.35 1229.33,-112.36"/>
</g>
<!-- &#45;7&#45;&gt;195 -->
<g id="edge61" class="edge">
<title>&#45;7&#45;&gt;195</title>
<path fill="none" stroke="red" stroke-width="0.33" stroke-dasharray="1,5" d="M1621.07,-156.61C1618.25,-155.62 1615.26,-154.7 1612.41,-154.02 1476.56,-121.95 1430.59,-168.41 1300.41,-118.02 1298.54,-117.3 1296.67,-116.44 1294.83,-115.49"/>
<polygon fill="red" stroke="red" stroke-width="0.33" points="1296.36,-112.32 1285.99,-110.12 1292.72,-118.3 1296.36,-112.32"/>
</g>
<!-- &#45;7&#45;&gt;196 -->
<g id="edge62" class="edge">
<title>&#45;7&#45;&gt;196</title>
<path fill="none" stroke="red" stroke-width="0.25" d="M1621.05,-156.68C1618.23,-155.69 1615.25,-154.74 1612.41,-154.02 1505.7,-127.08 1469.42,-159.34 1367.41,-118.02 1365.55,-117.27 1363.69,-116.39 1361.86,-115.42"/>
<polygon fill="red" stroke="red" stroke-width="0.25" points="1363.39,-112.25 1353.04,-110 1359.73,-118.22 1363.39,-112.25"/>
</g>
<!-- &#45;7&#45;&gt;197 -->
<g id="edge63" class="edge">
<title>&#45;7&#45;&gt;197</title>
<path fill="none" stroke="red" stroke-width="0.26" d="M1621.02,-156.79C1618.2,-155.8 1615.23,-154.82 1612.41,-154.02 1534.71,-132.17 1508.38,-150.32 1434.41,-118.02 1432.57,-117.22 1430.73,-116.3 1428.91,-115.3"/>
<polygon fill="red" stroke="red" stroke-width="0.26" points="1430.46,-112.14 1420.12,-109.8 1426.74,-118.07 1430.46,-112.14"/>
</g>
<!-- &#45;7&#45;&gt;188 -->
<g id="edge55" class="edge">
<title>&#45;7&#45;&gt;188</title>
<path fill="none" stroke="green" stroke-width="0.25" d="M1621.41,-157.21C1618.46,-156.14 1615.33,-155.03 1612.41,-154.02 1563.37,-137.16 1547.68,-141.45 1501.41,-118.02 1499.62,-117.12 1497.81,-116.11 1496.02,-115.05"/>
<polygon fill="green" stroke="green" stroke-width="0.25" points="1497.61,-111.91 1487.31,-109.39 1493.79,-117.78 1497.61,-111.91"/>
</g>
<!-- &#45;7&#45;&gt;190 -->
<g id="edge56" class="edge">
<title>&#45;7&#45;&gt;190</title>
<path fill="none" stroke="green" stroke-width="0.38" d="M1621.67,-153.72C1608.31,-144.97 1586.75,-130.73 1568.41,-118.02 1566.8,-116.91 1565.15,-115.76 1563.49,-114.59"/>
<polygon fill="green" stroke="green" stroke-width="0.38" points="1565.4,-111.65 1555.22,-108.71 1561.34,-117.36 1565.4,-111.65"/>
</g>
<!-- &#45;7&#45;&gt;191 -->
<g id="edge57" class="edge">
<title>&#45;7&#45;&gt;191</title>
<path fill="none" stroke="red" stroke-width="0.34" d="M1630.61,-153.99C1627.21,-146.78 1621.99,-135.72 1616.96,-125.07"/>
<polygon fill="red" stroke="red" stroke-width="0.34" points="1620.07,-123.47 1612.64,-115.93 1613.74,-126.46 1620.07,-123.47"/>
</g>
<!-- &#45;8 -->
<g id="node8" class="node">
<title>&#45;8</title>
<polygon fill="lightgray" stroke="black" points="1691.41,-172.02 1665.41,-172.02 1665.41,-154.02 1691.41,-154.02 1691.41,-172.02"/>
<text text-anchor="middle" x="1678.41" y="-160.82" font-family="Times-Roman" font-size="9.00">&#45;8</text>
</g>
<!-- &#45;8&#45;&gt;0 -->
<g id="edge200" class="edge">
<title>&#45;8&#45;&gt;0</title>
<path fill="none" stroke="green" stroke-width="0.25" d="M1691.43,-162.04C1816.75,-162.18 2805.19,-161.86 2847.41,-118.02 2862.67,-102.18 2862.76,-84.28 2847.41,-68.53 2793.7,-13.4 1536.42,-53.68 1462.41,-32.53 1461.14,-32.16 1459.86,-31.72 1458.6,-31.22"/>
<polygon fill="green" stroke="green" stroke-width="0.25" points="1459.82,-27.92 1449.32,-26.56 1456.68,-34.18 1459.82,-27.92"/>
</g>
<!-- &#45;8&#45;&gt;1 -->
<g id="edge201" class="edge">
<title>&#45;8&#45;&gt;1</title>
<path fill="none" stroke="red" stroke-width="0.14" d="M1691.45,-162.06C1819.11,-162.36 2841.75,-163.31 2885.41,-118.02 2900.68,-102.19 2900.76,-84.29 2885.41,-68.53 2832.21,-13.91 1586.72,-53.49 1513.41,-32.53 1512.14,-32.16 1510.86,-31.72 1509.6,-31.22"/>
<polygon fill="red" stroke="red" stroke-width="0.14" points="1510.82,-27.92 1500.32,-26.56 1507.68,-34.18 1510.82,-27.92"/>
</g>
<!-- &#45;8&#45;&gt;2 -->
<g id="edge202" class="edge">
<title>&#45;8&#45;&gt;2</title>
<path fill="none" stroke="green" stroke-width="0.21" stroke-dasharray="1,5" d="M1683.08,-154C1692.83,-136.09 1712.68,-92.52 1690.41,-68.53 1653.8,-29.08 1258.78,-48.57 1207.41,-32.53 1206.15,-32.13 1204.88,-31.67 1203.62,-31.15"/>
<polygon fill="green" stroke="green" stroke-width="0.21" points="1204.86,-27.85 1194.36,-26.42 1201.68,-34.08 1204.86,-27.85"/>
</g>
<!-- &#45;8&#45;&gt;3 -->
<g id="edge203" class="edge">
<title>&#45;8&#45;&gt;3</title>
<path fill="none" stroke="green" stroke-width="0.3" d="M1691.51,-161.97C1807.72,-161.42 2658.97,-156.08 2695.41,-118.02 2710.63,-102.14 2710.77,-84.28 2695.41,-68.53 2639.65,-11.36 1335.2,-54.44 1258.41,-32.53 1257.14,-32.16 1255.86,-31.72 1254.6,-31.22"/>
<polygon fill="green" stroke="green" stroke-width="0.3" points="1255.82,-27.92 1245.32,-26.56 1252.68,-34.18 1255.82,-27.92"/>
</g>
<!-- &#45;8&#45;&gt;4 -->
<g id="edge204" class="edge">
<title>&#45;8&#45;&gt;4</title>
<path fill="none" stroke="red" stroke-width="0.65" d="M1691.62,-161.99C1810.7,-161.62 2695.54,-157.51 2733.41,-118.02 2748.64,-102.15 2748.77,-84.28 2733.41,-68.53 2678.16,-11.87 1385.51,-54.25 1309.41,-32.53 1308.14,-32.16 1306.86,-31.72 1305.6,-31.22"/>
<polygon fill="red" stroke="red" stroke-width="0.65" points="1306.82,-27.92 1296.32,-26.56 1303.68,-34.18 1306.82,-27.92"/>
</g>
<!-- &#45;8&#45;&gt;5 -->
<g id="edge205" class="edge">
<title>&#45;8&#45;&gt;5</title>
<path fill="none" stroke="green" stroke-width="0.52" d="M1691.71,-162.01C1813.54,-161.81 2732.11,-158.94 2771.41,-118.02 2786.65,-102.16 2786.77,-84.28 2771.41,-68.53 2716.68,-12.38 1435.81,-54.06 1360.41,-32.53 1359.14,-32.16 1357.86,-31.72 1356.6,-31.22"/>
<polygon fill="green" stroke="green" stroke-width="0.52" points="1357.82,-27.92 1347.32,-26.56 1354.68,-34.18 1357.82,-27.92"/>
</g>
<!-- &#45;8&#45;&gt;6 -->
<g id="edge206" class="edge">
<title>&#45;8&#45;&gt;6</title>
<path fill="none" stroke="red" stroke-width="0.28" d="M1691.78,-162.03C1816.24,-162 2768.67,-160.38 2809.41,-118.02 2824.66,-102.17 2824.77,-84.28 2809.41,-68.53 2755.19,-12.89 1486.11,-53.87 1411.41,-32.53 1410.14,-32.16 1408.86,-31.72 1407.6,-31.22"/>
<polygon fill="red" stroke="red" stroke-width="0.28" points="1408.82,-27.92 1398.32,-26.56 1405.68,-34.18 1408.82,-27.92"/>
</g>
<!-- &#45;8&#45;&gt;7 -->
<g id="edge207" class="edge">
<title>&#45;8&#45;&gt;7</title>
<path fill="none" stroke="green" stroke-width="0.26" d="M1691.46,-162.08C1821.34,-162.53 2878.3,-164.76 2923.41,-118.02 2938.69,-102.2 2938.68,-84.37 2923.41,-68.53 2874.45,-17.72 1752.32,-16.98 1564.86,-17.21"/>
<polygon fill="green" stroke="green" stroke-width="0.26" points="1564.78,-13.71 1554.78,-17.23 1564.79,-20.71 1564.78,-13.71"/>
</g>
<!-- &#45;8&#45;&gt;192 -->
<g id="edge67" class="edge">
<title>&#45;8&#45;&gt;192</title>
<path fill="none" stroke="red" stroke-width="0.3" stroke-dasharray="1,5" d="M1665.09,-156.5C1662.27,-155.52 1659.28,-154.62 1656.41,-154.02 1413.62,-103.12 1332.94,-201.73 1099.41,-118.02 1097.52,-117.35 1095.64,-116.52 1093.79,-115.6"/>
<polygon fill="red" stroke="red" stroke-width="0.3" points="1095.3,-112.43 1084.92,-110.3 1091.71,-118.44 1095.3,-112.43"/>
</g>
<!-- &#45;8&#45;&gt;193 -->
<g id="edge68" class="edge">
<title>&#45;8&#45;&gt;193</title>
<path fill="none" stroke="green" stroke-width="0.17" d="M1665.09,-156.52C1662.26,-155.54 1659.27,-154.64 1656.41,-154.02 1442.89,-108.28 1371.64,-192.61 1166.41,-118.02 1164.52,-117.34 1162.64,-116.51 1160.8,-115.58"/>
<polygon fill="green" stroke="green" stroke-width="0.17" points="1162.31,-112.41 1151.93,-110.27 1158.71,-118.41 1162.31,-112.41"/>
</g>
<!-- &#45;8&#45;&gt;194 -->
<g id="edge69" class="edge">
<title>&#45;8&#45;&gt;194</title>
<path fill="none" stroke="red" stroke-width="0.28" d="M1665.08,-156.54C1662.26,-155.56 1659.27,-154.65 1656.41,-154.02 1472.15,-113.43 1410.37,-183.49 1233.41,-118.02 1231.52,-117.33 1229.65,-116.49 1227.81,-115.55"/>
<polygon fill="red" stroke="red" stroke-width="0.28" points="1229.32,-112.38 1218.95,-110.23 1225.72,-118.38 1229.32,-112.38"/>
</g>
<!-- &#45;8&#45;&gt;195 -->
<g id="edge70" class="edge">
<title>&#45;8&#45;&gt;195</title>
<path fill="none" stroke="green" stroke-width="0.13" d="M1665.07,-156.58C1662.25,-155.59 1659.26,-154.68 1656.41,-154.02 1501.38,-118.58 1449.12,-174.39 1300.41,-118.02 1298.53,-117.31 1296.66,-116.46 1294.82,-115.52"/>
<polygon fill="green" stroke="green" stroke-width="0.13" points="1296.34,-112.35 1285.97,-110.17 1292.72,-118.34 1296.34,-112.35"/>
</g>
<!-- &#45;8&#45;&gt;196 -->
<g id="edge71" class="edge">
<title>&#45;8&#45;&gt;196</title>
<path fill="none" stroke="red" stroke-width="0.2" d="M1665.06,-156.63C1662.24,-155.64 1659.26,-154.71 1656.41,-154.02 1530.57,-123.72 1487.91,-165.3 1367.41,-118.02 1365.54,-117.29 1363.67,-116.42 1361.84,-115.47"/>
<polygon fill="red" stroke="red" stroke-width="0.2" points="1363.37,-112.3 1353.01,-110.08 1359.72,-118.28 1363.37,-112.3"/>
</g>
<!-- &#45;8&#45;&gt;197 -->
<g id="edge72" class="edge">
<title>&#45;8&#45;&gt;197</title>
<path fill="none" stroke="green" stroke-width="0.46" d="M1665.04,-156.71C1662.22,-155.72 1659.24,-154.76 1656.41,-154.02 1559.68,-128.83 1526.77,-156.24 1434.41,-118.02 1432.55,-117.26 1430.7,-116.36 1428.87,-115.38"/>
<polygon fill="green" stroke="green" stroke-width="0.46" points="1430.41,-112.22 1420.06,-109.95 1426.73,-118.18 1430.41,-112.22"/>
</g>
<!-- &#45;8&#45;&gt;188 -->
<g id="edge64" class="edge">
<title>&#45;8&#45;&gt;188</title>
<path fill="none" stroke="red" stroke-width="0.22" d="M1665,-156.86C1662.18,-155.85 1659.22,-154.86 1656.41,-154.02 1588.61,-133.9 1565.81,-147.25 1501.41,-118.02 1499.58,-117.19 1497.75,-116.25 1495.94,-115.24"/>
<polygon fill="red" stroke="red" stroke-width="0.22" points="1497.49,-112.08 1487.17,-109.7 1493.75,-118 1497.49,-112.08"/>
</g>
<!-- &#45;8&#45;&gt;190 -->
<g id="edge65" class="edge">
<title>&#45;8&#45;&gt;190</title>
<path fill="none" stroke="red" stroke-width="0.5" d="M1665.26,-157.22C1640.05,-147.94 1585.9,-127.63 1568.41,-118.02 1566.65,-117.06 1564.87,-116.01 1563.1,-114.91"/>
<polygon fill="red" stroke="red" stroke-width="0.5" points="1564.7,-111.78 1554.44,-109.16 1560.83,-117.61 1564.7,-111.78"/>
</g>
<!-- &#45;8&#45;&gt;191 -->
<g id="edge66" class="edge">
<title>&#45;8&#45;&gt;191</title>
<path fill="none" stroke="red" stroke-width="0.28" d="M1669.39,-153.99C1659.31,-145 1642.52,-130.03 1628.27,-117.33"/>
<polygon fill="red" stroke="red" stroke-width="0.28" points="1630.47,-114.6 1620.68,-110.56 1625.81,-119.82 1630.47,-114.6"/>
</g>
<!-- 192&#45;&gt;0 -->
<g id="edge97" class="edge">
<title>192&#45;&gt;0</title>
<path fill="none" stroke="red" stroke-width="0.2" d="M1084.99,-76.44C1089.47,-73.34 1094.41,-70.46 1099.41,-68.53 1229.16,-18.27 1278.46,-76.7 1410.41,-32.53 1411.67,-32.11 1412.93,-31.62 1414.18,-31.08"/>
<polygon fill="red" stroke="red" stroke-width="0.2" points="1416.15,-34.01 1423.43,-26.31 1412.94,-27.79 1416.15,-34.01"/>
</g>
<!-- 192&#45;&gt;1 -->
<g id="edge98" class="edge">
<title>192&#45;&gt;1</title>
<path fill="none" stroke="green" stroke-width="0.4" d="M1084.97,-76.38C1089.45,-73.29 1094.39,-70.42 1099.41,-68.53 1250.65,-11.35 1307.68,-82.62 1461.41,-32.53 1462.67,-32.12 1463.94,-31.64 1465.19,-31.11"/>
<polygon fill="green" stroke="green" stroke-width="0.4" points="1467.15,-34.04 1474.44,-26.35 1463.95,-27.81 1467.15,-34.04"/>
</g>
<!-- 192&#45;&gt;2 -->
<g id="edge99" class="edge">
<title>192&#45;&gt;2</title>
<path fill="none" stroke="green" stroke-width="0.24" d="M1086.16,-77.75C1090.49,-74.65 1095.07,-71.44 1099.41,-68.53 1119.22,-55.23 1142.3,-40.9 1158.92,-30.78"/>
<polygon fill="green" stroke="green" stroke-width="0.24" points="1161.15,-33.52 1167.89,-25.35 1157.52,-27.53 1161.15,-33.52"/>
</g>
<!-- 192&#45;&gt;3 -->
<g id="edge100" class="edge">
<title>192&#45;&gt;3</title>
<path fill="none" stroke="green" stroke-width="0.75" d="M1085.33,-77.2C1089.79,-74.06 1094.64,-70.98 1099.41,-68.53 1144.05,-45.62 1160.76,-53.34 1206.41,-32.53 1207.59,-31.99 1208.78,-31.41 1209.98,-30.81"/>
<polygon fill="green" stroke="green" stroke-width="0.75" points="1211.86,-33.77 1218.93,-25.89 1208.48,-27.64 1211.86,-33.77"/>
</g>
<!-- 192&#45;&gt;4 -->
<g id="edge101" class="edge">
<title>192&#45;&gt;4</title>
<path fill="none" stroke="green" stroke-width="0.29" d="M1085.16,-76.84C1089.63,-73.72 1094.52,-70.73 1099.41,-68.53 1165.06,-38.9 1190.46,-59.07 1257.41,-32.53 1258.64,-32.04 1259.89,-31.5 1261.12,-30.92"/>
<polygon fill="green" stroke="green" stroke-width="0.29" points="1263.15,-33.81 1270.32,-26 1259.85,-27.63 1263.15,-33.81"/>
</g>
<!-- 192&#45;&gt;5 -->
<g id="edge102" class="edge">
<title>192&#45;&gt;5</title>
<path fill="none" stroke="green" stroke-width="0.1" d="M1085.08,-76.64C1089.55,-73.54 1094.46,-70.6 1099.41,-68.53 1186.33,-32.07 1219.89,-64.91 1308.41,-32.53 1309.66,-32.07 1310.91,-31.56 1312.15,-31"/>
<polygon fill="green" stroke="green" stroke-width="0.1" points="1314.15,-33.9 1321.37,-26.15 1310.89,-27.71 1314.15,-33.9"/>
</g>
<!-- 192&#45;&gt;6 -->
<g id="edge103" class="edge">
<title>192&#45;&gt;6</title>
<path fill="none" stroke="green" stroke-width="0.58" d="M1085.03,-76.52C1089.5,-73.42 1094.43,-70.52 1099.41,-68.53 1207.72,-25.18 1249.21,-70.79 1359.41,-32.53 1360.66,-32.09 1361.92,-31.59 1363.17,-31.05"/>
<polygon fill="green" stroke="green" stroke-width="0.58" points="1365.15,-33.97 1372.41,-26.24 1361.92,-27.76 1365.15,-33.97"/>
</g>
<!-- 192&#45;&gt;7 -->
<g id="edge104" class="edge">
<title>192&#45;&gt;7</title>
<path fill="none" stroke="red" stroke-width="0.2" d="M1084.95,-76.33C1089.43,-73.24 1094.38,-70.39 1099.41,-68.53 1272.15,-4.42 1336.88,-88.54 1512.41,-32.53 1513.67,-32.12 1514.94,-31.65 1516.2,-31.13"/>
<polygon fill="red" stroke="red" stroke-width="0.2" points="1518.15,-34.06 1525.45,-26.39 1514.96,-27.83 1518.15,-34.06"/>
</g>
<!-- 193&#45;&gt;0 -->
<g id="edge105" class="edge">
<title>193&#45;&gt;0</title>
<path fill="none" stroke="green" stroke-width="0.55" d="M1152.04,-76.55C1156.51,-73.45 1161.44,-70.54 1166.41,-68.53 1268,-27.34 1307.02,-68.95 1410.41,-32.53 1411.66,-32.09 1412.92,-31.58 1414.17,-31.04"/>
<polygon fill="green" stroke="green" stroke-width="0.55" points="1416.15,-33.95 1423.4,-26.22 1412.91,-27.74 1416.15,-33.95"/>
</g>
<!-- 193&#45;&gt;1 -->
<g id="edge106" class="edge">
<title>193&#45;&gt;1</title>
<path fill="none" stroke="red" stroke-width="0.2" d="M1152,-76.46C1156.48,-73.37 1161.41,-70.48 1166.41,-68.53 1289.43,-20.44 1336.29,-74.85 1461.41,-32.53 1462.67,-32.1 1463.93,-31.61 1465.18,-31.07"/>
<polygon fill="red" stroke="red" stroke-width="0.2" points="1467.15,-34 1474.42,-26.29 1463.93,-27.78 1467.15,-34"/>
</g>
<!-- 193&#45;&gt;2 -->
<g id="edge107" class="edge">
<title>193&#45;&gt;2</title>
<path fill="none" stroke="green" stroke-width="0.2" d="M1146.53,-71.78C1153.05,-61.58 1160.94,-49.25 1167.57,-38.9"/>
<polygon fill="green" stroke="green" stroke-width="0.2" points="1170.55,-40.73 1173,-30.42 1164.66,-36.95 1170.55,-40.73"/>
</g>
<!-- 193&#45;&gt;3 -->
<g id="edge108" class="edge">
<title>193&#45;&gt;3</title>
<path fill="none" stroke="red" stroke-width="0.2" d="M1152.97,-77.46C1169.86,-64.66 1194.2,-46.21 1211.48,-33.12"/>
<polygon fill="red" stroke="red" stroke-width="0.2" points="1213.94,-35.65 1219.8,-26.82 1209.71,-30.07 1213.94,-35.65"/>
</g>
<!-- 193&#45;&gt;4 -->
<g id="edge109" class="edge">
<title>193&#45;&gt;4</title>
<path fill="none" stroke="green" stroke-width="0.55" d="M1152.43,-77.38C1156.88,-74.24 1161.7,-71.1 1166.41,-68.53 1204.58,-47.66 1218.32,-51.59 1257.41,-32.53 1258.58,-31.96 1259.76,-31.36 1260.94,-30.74"/>
<polygon fill="green" stroke="green" stroke-width="0.55" points="1262.84,-33.68 1269.86,-25.75 1259.43,-27.57 1262.84,-33.68"/>
</g>
<!-- 193&#45;&gt;5 -->
<g id="edge110" class="edge">
<title>193&#45;&gt;5</title>
<path fill="none" stroke="green" stroke-width="0.99" stroke-dasharray="1,5" d="M1152.2,-76.92C1156.66,-73.81 1161.55,-70.79 1166.41,-68.53 1225.43,-41.03 1248.18,-57.25 1308.41,-32.53 1309.64,-32.02 1310.87,-31.47 1312.11,-30.88"/>
<polygon fill="green" stroke="green" stroke-width="0.99" points="1314.15,-33.76 1321.29,-25.94 1310.83,-27.6 1314.15,-33.76"/>
</g>
<!-- 193&#45;&gt;6 -->
<g id="edge111" class="edge">
<title>193&#45;&gt;6</title>
<path fill="none" stroke="green" stroke-width="0.12" d="M1152.1,-76.69C1156.57,-73.59 1161.48,-70.64 1166.41,-68.53 1246.64,-34.22 1277.67,-63.07 1359.41,-32.53 1360.65,-32.06 1361.9,-31.54 1363.15,-30.98"/>
<polygon fill="green" stroke="green" stroke-width="0.12" points="1365.15,-33.88 1372.36,-26.11 1361.88,-27.69 1365.15,-33.88"/>
</g>
<!-- 193&#45;&gt;7 -->
<g id="edge112" class="edge">
<title>193&#45;&gt;7</title>
<path fill="none" stroke="green" stroke-width="0.14" d="M1151.98,-76.39C1156.45,-73.3 1161.4,-70.44 1166.41,-68.53 1310.9,-13.52 1365.52,-80.76 1512.41,-32.53 1513.67,-32.11 1514.93,-31.63 1516.19,-31.1"/>
<polygon fill="green" stroke="green" stroke-width="0.14" points="1518.15,-34.03 1525.44,-26.34 1514.94,-27.81 1518.15,-34.03"/>
</g>
<!-- 194&#45;&gt;0 -->
<g id="edge113" class="edge">
<title>194&#45;&gt;0</title>
<path fill="none" stroke="green" stroke-width="0.4" d="M1219.12,-76.75C1223.59,-73.64 1228.5,-70.68 1233.41,-68.53 1306.96,-36.36 1335.44,-61.24 1410.41,-32.53 1411.65,-32.05 1412.9,-31.52 1414.14,-30.95"/>
<polygon fill="green" stroke="green" stroke-width="0.4" points="1416.15,-33.85 1423.34,-26.07 1412.87,-27.67 1416.15,-33.85"/>
</g>
<!-- 194&#45;&gt;1 -->
<g id="edge114" class="edge">
<title>194&#45;&gt;1</title>
<path fill="none" stroke="red" stroke-width="0.25" d="M1219.05,-76.59C1223.53,-73.49 1228.45,-70.57 1233.41,-68.53 1328.29,-29.5 1364.82,-67.1 1461.41,-32.53 1462.66,-32.08 1463.91,-31.57 1465.16,-31.02"/>
<polygon fill="red" stroke="red" stroke-width="0.25" points="1467.15,-33.93 1474.39,-26.19 1463.9,-27.73 1467.15,-33.93"/>
</g>
<!-- 194&#45;&gt;2 -->
<g id="edge115" class="edge">
<title>194&#45;&gt;2</title>
<path fill="none" stroke="green" stroke-width="0.18" d="M1194.5,-68.95C1192.37,-60.51 1189.94,-50.95 1187.77,-42.37"/>
<polygon fill="green" stroke="green" stroke-width="0.18" points="1191.12,-41.35 1185.28,-32.52 1184.34,-43.07 1191.12,-41.35"/>
</g>
<!-- 194&#45;&gt;3 -->
<g id="edge116" class="edge">
<title>194&#45;&gt;3</title>
<path fill="none" stroke="green" stroke-width="0.31" d="M1209.84,-70.18C1213.74,-61.03 1218.27,-50.42 1222.24,-41.1"/>
<polygon fill="green" stroke="green" stroke-width="0.31" points="1225.57,-42.21 1226.28,-31.64 1219.14,-39.46 1225.57,-42.21"/>
</g>
<!-- 194&#45;&gt;4 -->
<g id="edge117" class="edge">
<title>194&#45;&gt;4</title>
<path fill="none" stroke="red" stroke-width="0.32" d="M1218.42,-76C1231.97,-63.75 1250.5,-47 1264.31,-34.52"/>
<polygon fill="red" stroke="red" stroke-width="0.32" points="1266.75,-37.04 1271.82,-27.74 1262.06,-31.84 1266.75,-37.04"/>
</g>
<!-- 194&#45;&gt;5 -->
<g id="edge118" class="edge">
<title>194&#45;&gt;5</title>
<path fill="none" stroke="red" stroke-width="0.26" d="M1219.92,-77.38C1224.27,-74.3 1228.92,-71.19 1233.41,-68.53 1265.21,-49.65 1275.77,-49.9 1308.41,-32.53 1309.55,-31.92 1310.72,-31.28 1311.89,-30.64"/>
<polygon fill="red" stroke="red" stroke-width="0.26" points="1313.83,-33.56 1320.77,-25.56 1310.35,-27.49 1313.83,-33.56"/>
</g>
<!-- 194&#45;&gt;6 -->
<g id="edge119" class="edge">
<title>194&#45;&gt;6</title>
<path fill="none" stroke="green" stroke-width="0.25" d="M1219.25,-77.03C1223.71,-73.91 1228.58,-70.87 1233.41,-68.53 1285.83,-43.14 1305.87,-55.45 1359.41,-32.53 1360.63,-32.01 1361.86,-31.44 1363.09,-30.84"/>
<polygon fill="green" stroke="green" stroke-width="0.25" points="1365.14,-33.71 1372.25,-25.85 1361.8,-27.56 1365.14,-33.71"/>
</g>
<!-- 194&#45;&gt;7 -->
<g id="edge120" class="edge">
<title>194&#45;&gt;7</title>
<path fill="none" stroke="green" stroke-width="0.26" d="M1219.01,-76.49C1223.49,-73.39 1228.42,-70.5 1233.41,-68.53 1349.7,-22.61 1394.11,-72.99 1512.41,-32.53 1513.66,-32.1 1514.92,-31.6 1516.18,-31.06"/>
<polygon fill="green" stroke="green" stroke-width="0.26" points="1518.15,-33.98 1525.41,-26.27 1514.93,-27.77 1518.15,-33.98"/>
</g>
<!-- 195&#45;&gt;0 -->
<g id="edge121" class="edge">
<title>195&#45;&gt;0</title>
<path fill="none" stroke="red" stroke-width="0.11" d="M1286.32,-77.17C1290.78,-74.04 1295.63,-70.96 1300.41,-68.53 1346.27,-45.23 1363.52,-53.67 1410.41,-32.53 1411.59,-31.99 1412.79,-31.42 1413.98,-30.82"/>
<polygon fill="red" stroke="red" stroke-width="0.11" points="1415.86,-33.79 1422.94,-25.91 1412.49,-27.65 1415.86,-33.79"/>
</g>
<!-- 195&#45;&gt;1 -->
<g id="edge122" class="edge">
<title>195&#45;&gt;1</title>
<path fill="none" stroke="green" stroke-width="0.26" d="M1286.15,-76.82C1290.62,-73.71 1295.52,-70.72 1300.41,-68.53 1367.3,-38.5 1393.2,-59.41 1461.41,-32.53 1462.64,-32.04 1463.89,-31.5 1465.13,-30.93"/>
<polygon fill="green" stroke="green" stroke-width="0.26" points="1467.15,-33.81 1474.32,-26.02 1463.85,-27.64 1467.15,-33.81"/>
</g>
<!-- 195&#45;&gt;2 -->
<g id="edge123" class="edge">
<title>195&#45;&gt;2</title>
<path fill="none" stroke="red" stroke-width="0.45" d="M1249.17,-76.37C1235.08,-64.07 1215.6,-47.08 1201.14,-34.47"/>
<polygon fill="red" stroke="red" stroke-width="0.45" points="1203.12,-31.56 1193.28,-27.62 1198.52,-36.83 1203.12,-31.56"/>
</g>
<!-- 195&#45;&gt;3 -->
<g id="edge124" class="edge">
<title>195&#45;&gt;3</title>
<path fill="none" stroke="green" stroke-width="0.27" d="M1257.29,-70.58C1252.91,-61.2 1247.78,-50.21 1243.32,-40.65"/>
<polygon fill="green" stroke="green" stroke-width="0.27" points="1246.38,-38.92 1238.98,-31.34 1240.03,-41.88 1246.38,-38.92"/>
</g>
<!-- 195&#45;&gt;4 -->
<g id="edge125" class="edge">
<title>195&#45;&gt;4</title>
<path fill="none" stroke="green" stroke-width="0.12" d="M1272.39,-68.95C1274.19,-60.51 1276.23,-50.95 1278.06,-42.37"/>
<polygon fill="green" stroke="green" stroke-width="0.12" points="1281.49,-43.03 1280.16,-32.52 1274.65,-41.57 1281.49,-43.03"/>
</g>
<!-- 195&#45;&gt;5 -->
<g id="edge126" class="edge">
<title>195&#45;&gt;5</title>
<path fill="none" stroke="green" stroke-width="0.22" d="M1283.63,-74.12C1293.73,-62.81 1306.71,-48.28 1317.02,-36.74"/>
<polygon fill="green" stroke="green" stroke-width="0.22" points="1319.92,-38.74 1323.97,-28.95 1314.7,-34.07 1319.92,-38.74"/>
</g>
<!-- 195&#45;&gt;6 -->
<g id="edge127" class="edge">
<title>195&#45;&gt;6</title>
<path fill="none" stroke="green" stroke-width="0.17" d="M1287.12,-77.69C1291.45,-74.6 1296.05,-71.4 1300.41,-68.53 1311.88,-60.96 1342.02,-42.94 1363.14,-30.42"/>
<polygon fill="green" stroke="green" stroke-width="0.17" points="1365.01,-33.38 1371.83,-25.27 1361.44,-27.36 1365.01,-33.38"/>
</g>
<!-- 195&#45;&gt;7 -->
<g id="edge128" class="edge">
<title>195&#45;&gt;7</title>
<path fill="none" stroke="red" stroke-width="0.47" d="M1286.07,-76.63C1290.54,-73.53 1295.46,-70.6 1300.41,-68.53 1388.59,-31.66 1422.62,-65.26 1512.41,-32.53 1513.66,-32.07 1514.91,-31.56 1516.16,-31"/>
<polygon fill="red" stroke="red" stroke-width="0.47" points="1518.15,-33.91 1525.38,-26.16 1514.89,-27.71 1518.15,-33.91"/>
</g>
<!-- 196&#45;&gt;0 -->
<g id="edge129" class="edge">
<title>196&#45;&gt;0</title>
<path fill="none" stroke="red" stroke-width="0.16" d="M1354.08,-77.81C1371.69,-64.86 1397.44,-45.92 1415.44,-32.69"/>
<polygon fill="red" stroke="red" stroke-width="0.16" points="1417.6,-35.44 1423.58,-26.7 1413.45,-29.8 1417.6,-35.44"/>
</g>
<!-- 196&#45;&gt;1 -->
<g id="edge130" class="edge">
<title>196&#45;&gt;1</title>
<path fill="none" stroke="red" stroke-width="0.14" d="M1353.41,-77.34C1357.86,-74.2 1362.69,-71.07 1367.41,-68.53 1406.78,-47.28 1421.09,-51.92 1461.41,-32.53 1462.58,-31.97 1463.76,-31.37 1464.95,-30.75"/>
<polygon fill="red" stroke="red" stroke-width="0.14" points="1466.85,-33.7 1473.88,-25.78 1463.44,-27.59 1466.85,-33.7"/>
</g>
<!-- 196&#45;&gt;2 -->
<g id="edge131" class="edge">
<title>196&#45;&gt;2</title>
<path fill="none" stroke="red" stroke-width="0.6" d="M1315.41,-77.34C1310.96,-74.2 1306.13,-71.07 1301.41,-68.53 1262.04,-47.28 1247.73,-51.92 1207.41,-32.53 1206.24,-31.97 1205.06,-31.37 1203.87,-30.75"/>
<polygon fill="red" stroke="red" stroke-width="0.6" points="1205.38,-27.59 1194.94,-25.78 1201.97,-33.7 1205.38,-27.59"/>
</g>
<!-- 196&#45;&gt;3 -->
<g id="edge132" class="edge">
<title>196&#45;&gt;3</title>
<path fill="none" stroke="green" stroke-width="0.51" d="M1314.74,-77.81C1297.13,-64.86 1271.38,-45.92 1253.38,-32.69"/>
<polygon fill="green" stroke="green" stroke-width="0.51" points="1255.37,-29.8 1245.24,-26.7 1251.22,-35.44 1255.37,-29.8"/>
</g>
<!-- 196&#45;&gt;4 -->
<g id="edge133" class="edge">
<title>196&#45;&gt;4</title>
<path fill="none" stroke="red" stroke-width="0.27" d="M1320.74,-72.17C1313.64,-61.73 1304.97,-48.98 1297.77,-38.39"/>
<polygon fill="red" stroke="red" stroke-width="0.27" points="1300.66,-36.4 1292.14,-30.1 1294.87,-40.34 1300.66,-36.4"/>
</g>
<!-- 196&#45;&gt;5 -->
<g id="edge134" class="edge">
<title>196&#45;&gt;5</title>
<path fill="none" stroke="green" stroke-width="0.2" d="M1334.41,-68.13C1334.41,-60.03 1334.41,-50.97 1334.41,-42.77"/>
<polygon fill="green" stroke="green" stroke-width="0.2" points="1337.91,-42.64 1334.41,-32.64 1330.91,-42.64 1337.91,-42.64"/>
</g>
<!-- 196&#45;&gt;6 -->
<g id="edge135" class="edge">
<title>196&#45;&gt;6</title>
<path fill="none" stroke="green" stroke-width="0.15" d="M1348.08,-72.17C1355.18,-61.73 1363.85,-48.98 1371.05,-38.39"/>
<polygon fill="green" stroke="green" stroke-width="0.15" points="1373.95,-40.34 1376.68,-30.1 1368.17,-36.4 1373.95,-40.34"/>
</g>
<!-- 196&#45;&gt;7 -->
<g id="edge136" class="edge">
<title>196&#45;&gt;7</title>
<path fill="none" stroke="red" stroke-width="0.14" d="M1353.19,-76.91C1357.66,-73.79 1362.54,-70.78 1367.41,-68.53 1427.67,-40.63 1450.92,-57.59 1512.41,-32.53 1513.64,-32.03 1514.88,-31.48 1516.11,-30.89"/>
<polygon fill="red" stroke="red" stroke-width="0.14" points="1518.15,-33.77 1525.29,-25.95 1514.83,-27.61 1518.15,-33.77"/>
</g>
<!-- 197&#45;&gt;0 -->
<g id="edge137" class="edge">
<title>197&#45;&gt;0</title>
<path fill="none" stroke="red" stroke-width="0.15" d="M1411.53,-70.58C1415.91,-61.2 1421.04,-50.21 1425.5,-40.65"/>
<polygon fill="red" stroke="red" stroke-width="0.15" points="1428.79,-41.88 1429.84,-31.34 1422.44,-38.92 1428.79,-41.88"/>
</g>
<!-- 197&#45;&gt;1 -->
<g id="edge138" class="edge">
<title>197&#45;&gt;1</title>
<path fill="none" stroke="green" stroke-width="0.1" d="M1419.65,-76.37C1433.75,-64.07 1453.23,-47.08 1467.68,-34.47"/>
<polygon fill="green" stroke="green" stroke-width="0.1" points="1470.3,-36.83 1475.54,-27.62 1465.7,-31.56 1470.3,-36.83"/>
</g>
<!-- 197&#45;&gt;2 -->
<g id="edge139" class="edge">
<title>197&#45;&gt;2</title>
<path fill="none" stroke="green" stroke-width="0.19" d="M1382.67,-76.82C1378.2,-73.71 1373.31,-70.72 1368.41,-68.53 1301.52,-38.5 1275.63,-59.41 1207.41,-32.53 1206.18,-32.04 1204.94,-31.5 1203.7,-30.93"/>
<polygon fill="green" stroke="green" stroke-width="0.19" points="1204.97,-27.64 1194.5,-26.02 1201.67,-33.81 1204.97,-27.64"/>
</g>
<!-- 197&#45;&gt;3 -->
<g id="edge140" class="edge">
<title>197&#45;&gt;3</title>
<path fill="none" stroke="red" stroke-width="0.41" d="M1382.5,-77.17C1378.05,-74.04 1373.19,-70.96 1368.41,-68.53 1322.55,-45.23 1305.31,-53.67 1258.41,-32.53 1257.23,-31.99 1256.03,-31.42 1254.84,-30.82"/>
<polygon fill="red" stroke="red" stroke-width="0.41" points="1256.33,-27.65 1245.88,-25.91 1252.97,-33.79 1256.33,-27.65"/>
</g>
<!-- 197&#45;&gt;4 -->
<g id="edge141" class="edge">
<title>197&#45;&gt;4</title>
<path fill="none" stroke="green" stroke-width="0.17" d="M1381.7,-77.69C1377.37,-74.6 1372.77,-71.4 1368.41,-68.53 1356.95,-60.96 1326.8,-42.94 1305.69,-30.42"/>
<polygon fill="green" stroke="green" stroke-width="0.17" points="1307.38,-27.36 1296.99,-25.27 1303.82,-33.38 1307.38,-27.36"/>
</g>
<!-- 197&#45;&gt;5 -->
<g id="edge142" class="edge">
<title>197&#45;&gt;5</title>
<path fill="none" stroke="green" stroke-width="0.31" d="M1385.19,-74.12C1375.1,-62.81 1362.11,-48.28 1351.8,-36.74"/>
<polygon fill="green" stroke="green" stroke-width="0.31" points="1354.12,-34.07 1344.85,-28.95 1348.9,-38.74 1354.12,-34.07"/>
</g>
<!-- 197&#45;&gt;6 -->
<g id="edge143" class="edge">
<title>197&#45;&gt;6</title>
<path fill="none" stroke="red" stroke-width="0.25" d="M1396.44,-68.95C1394.64,-60.51 1392.6,-50.95 1390.77,-42.37"/>
<polygon fill="red" stroke="red" stroke-width="0.25" points="1394.17,-41.57 1388.67,-32.52 1387.33,-43.03 1394.17,-41.57"/>
</g>
<!-- 197&#45;&gt;7 -->
<g id="edge144" class="edge">
<title>197&#45;&gt;7</title>
<path fill="none" stroke="red" stroke-width="0.33" d="M1420.54,-77.57C1424.99,-74.42 1429.78,-71.23 1434.41,-68.53 1467.39,-49.29 1478.57,-50.21 1512.41,-32.53 1513.56,-31.93 1514.73,-31.3 1515.9,-30.66"/>
<polygon fill="red" stroke="red" stroke-width="0.33" points="1517.83,-33.59 1524.79,-25.6 1514.37,-27.5 1517.83,-33.59"/>
</g>
<!-- 188&#45;&gt;0 -->
<g id="edge73" class="edge">
<title>188&#45;&gt;0</title>
<path fill="none" stroke="red" stroke-width="0.37" d="M1458.98,-70.18C1455.08,-61.03 1450.55,-50.42 1446.58,-41.1"/>
<polygon fill="red" stroke="red" stroke-width="0.37" points="1449.69,-39.46 1442.54,-31.64 1443.25,-42.21 1449.69,-39.46"/>
</g>
<!-- 188&#45;&gt;1 -->
<g id="edge74" class="edge">
<title>188&#45;&gt;1</title>
<path fill="none" stroke="green" stroke-width="0.69" d="M1474.32,-68.95C1476.46,-60.51 1478.88,-50.95 1481.05,-42.37"/>
<polygon fill="green" stroke="green" stroke-width="0.69" points="1484.48,-43.07 1483.55,-32.52 1477.7,-41.35 1484.48,-43.07"/>
</g>
<!-- 188&#45;&gt;2 -->
<g id="edge75" class="edge">
<title>188&#45;&gt;2</title>
<path fill="none" stroke="green" stroke-width="0.31" d="M1449.77,-76.59C1445.3,-73.49 1440.37,-70.57 1435.41,-68.53 1340.53,-29.5 1304,-67.1 1207.41,-32.53 1206.16,-32.08 1204.91,-31.57 1203.66,-31.02"/>
<polygon fill="green" stroke="green" stroke-width="0.31" points="1204.92,-27.73 1194.44,-26.19 1201.67,-33.93 1204.92,-27.73"/>
</g>
<!-- 188&#45;&gt;3 -->
<g id="edge76" class="edge">
<title>188&#45;&gt;3</title>
<path fill="none" stroke="green" stroke-width="0.47" d="M1449.7,-76.75C1445.23,-73.64 1440.33,-70.68 1435.41,-68.53 1361.86,-36.36 1333.38,-61.24 1258.41,-32.53 1257.17,-32.05 1255.93,-31.52 1254.68,-30.95"/>
<polygon fill="green" stroke="green" stroke-width="0.47" points="1255.95,-27.67 1245.48,-26.07 1252.67,-33.85 1255.95,-27.67"/>
</g>
<!-- 188&#45;&gt;4 -->
<g id="edge77" class="edge">
<title>188&#45;&gt;4</title>
<path fill="none" stroke="green" stroke-width="0.33" d="M1449.57,-77.03C1445.11,-73.91 1440.24,-70.87 1435.41,-68.53 1382.99,-43.14 1362.95,-55.45 1309.41,-32.53 1308.19,-32.01 1306.96,-31.44 1305.73,-30.84"/>
<polygon fill="green" stroke="green" stroke-width="0.33" points="1307.02,-27.56 1296.57,-25.85 1303.68,-33.71 1307.02,-27.56"/>
</g>
<!-- 188&#45;&gt;5 -->
<g id="edge78" class="edge">
<title>188&#45;&gt;5</title>
<path fill="none" stroke="red" stroke-width="0.57" d="M1448.9,-77.38C1444.56,-74.3 1439.9,-71.19 1435.41,-68.53 1403.62,-49.65 1393.05,-49.9 1360.41,-32.53 1359.27,-31.92 1358.1,-31.28 1356.93,-30.64"/>
<polygon fill="red" stroke="red" stroke-width="0.57" points="1358.47,-27.49 1348.05,-25.56 1355,-33.56 1358.47,-27.49"/>
</g>
<!-- 188&#45;&gt;6 -->
<g id="edge79" class="edge">
<title>188&#45;&gt;6</title>
<path fill="none" stroke="red" stroke-width="0.3" d="M1450.4,-76C1436.85,-63.75 1418.32,-47 1404.51,-34.52"/>
<polygon fill="red" stroke="red" stroke-width="0.3" points="1406.76,-31.84 1397,-27.74 1402.07,-37.04 1406.76,-31.84"/>
</g>
<!-- 188&#45;&gt;7 -->
<g id="edge80" class="edge">
<title>188&#45;&gt;7</title>
<path fill="none" stroke="green" stroke-width="0.33" d="M1485,-74.5C1495.77,-62.95 1509.8,-47.92 1520.78,-36.16"/>
<polygon fill="green" stroke="green" stroke-width="0.33" points="1523.55,-38.32 1527.81,-28.62 1518.43,-33.54 1523.55,-38.32"/>
</g>
<!-- 190&#45;&gt;0 -->
<g id="edge81" class="edge">
<title>190&#45;&gt;0</title>
<path fill="none" stroke="red" stroke-width="0.13" d="M1515.85,-77.46C1498.96,-64.66 1474.62,-46.21 1457.34,-33.12"/>
<polygon fill="red" stroke="red" stroke-width="0.13" points="1459.11,-30.07 1449.02,-26.82 1454.88,-35.65 1459.11,-30.07"/>
</g>
<!-- 190&#45;&gt;1 -->
<g id="edge82" class="edge">
<title>190&#45;&gt;1</title>
<path fill="none" stroke="red" stroke-width="0.57" d="M1522.29,-71.78C1515.77,-61.58 1507.88,-49.25 1501.26,-38.9"/>
<polygon fill="red" stroke="red" stroke-width="0.57" points="1504.17,-36.95 1495.83,-30.42 1498.27,-40.73 1504.17,-36.95"/>
</g>
<!-- 190&#45;&gt;2 -->
<g id="edge83" class="edge">
<title>190&#45;&gt;2</title>
<path fill="none" stroke="red" stroke-width="0.6" d="M1516.82,-76.46C1512.35,-73.37 1507.41,-70.48 1502.41,-68.53 1379.39,-20.44 1332.53,-74.85 1207.41,-32.53 1206.16,-32.1 1204.89,-31.61 1203.64,-31.07"/>
<polygon fill="red" stroke="red" stroke-width="0.6" points="1204.89,-27.78 1194.4,-26.29 1201.67,-34 1204.89,-27.78"/>
</g>
<!-- 190&#45;&gt;3 -->
<g id="edge84" class="edge">
<title>190&#45;&gt;3</title>
<path fill="none" stroke="red" stroke-width="0.21" d="M1516.78,-76.55C1512.31,-73.45 1507.38,-70.54 1502.41,-68.53 1400.82,-27.34 1361.8,-68.95 1258.41,-32.53 1257.16,-32.09 1255.9,-31.58 1254.65,-31.04"/>
<polygon fill="red" stroke="red" stroke-width="0.21" points="1255.91,-27.74 1245.43,-26.22 1252.67,-33.95 1255.91,-27.74"/>
</g>
<!-- 190&#45;&gt;4 -->
<g id="edge85" class="edge">
<title>190&#45;&gt;4</title>
<path fill="none" stroke="green" stroke-width="0.41" d="M1516.73,-76.69C1512.26,-73.59 1507.34,-70.64 1502.41,-68.53 1422.18,-34.22 1391.15,-63.07 1309.41,-32.53 1308.17,-32.06 1306.92,-31.54 1305.68,-30.98"/>
<polygon fill="green" stroke="green" stroke-width="0.41" points="1306.94,-27.69 1296.46,-26.11 1303.67,-33.88 1306.94,-27.69"/>
</g>
<!-- 190&#45;&gt;5 -->
<g id="edge86" class="edge">
<title>190&#45;&gt;5</title>
<path fill="none" stroke="green" stroke-width="0.71" d="M1516.62,-76.92C1512.16,-73.81 1507.27,-70.79 1502.41,-68.53 1443.4,-41.03 1420.64,-57.25 1360.41,-32.53 1359.19,-32.02 1357.95,-31.47 1356.71,-30.88"/>
<polygon fill="green" stroke="green" stroke-width="0.71" points="1358,-27.6 1347.53,-25.94 1354.68,-33.76 1358,-27.6"/>
</g>
<!-- 190&#45;&gt;6 -->
<g id="edge87" class="edge">
<title>190&#45;&gt;6</title>
<path fill="none" stroke="green" stroke-width="0.36" d="M1516.39,-77.38C1511.94,-74.24 1507.12,-71.1 1502.41,-68.53 1464.25,-47.66 1450.5,-51.59 1411.41,-32.53 1410.25,-31.96 1409.06,-31.36 1407.88,-30.74"/>
<polygon fill="green" stroke="green" stroke-width="0.36" points="1409.39,-27.57 1398.96,-25.75 1405.98,-33.68 1409.39,-27.57"/>
</g>
<!-- 190&#45;&gt;7 -->
<g id="edge88" class="edge">
<title>190&#45;&gt;7</title>
<path fill="none" stroke="green" stroke-width="0.17" d="M1536.36,-68.54C1536.68,-60.42 1537.05,-51.31 1537.38,-43.04"/>
<polygon fill="green" stroke="green" stroke-width="0.17" points="1540.89,-42.94 1537.79,-32.81 1533.89,-42.66 1540.89,-42.94"/>
</g>
<!-- 191&#45;&gt;0 -->
<g id="edge89" class="edge">
<title>191&#45;&gt;0</title>
<path fill="none" stroke="red" stroke-width="0.23" d="M1583.49,-77.2C1579.03,-74.06 1574.18,-70.98 1569.41,-68.53 1524.77,-45.62 1508.07,-53.34 1462.41,-32.53 1461.23,-31.99 1460.04,-31.41 1458.84,-30.81"/>
<polygon fill="red" stroke="red" stroke-width="0.23" points="1460.34,-27.64 1449.89,-25.89 1456.97,-33.77 1460.34,-27.64"/>
</g>
<!-- 191&#45;&gt;1 -->
<g id="edge90" class="edge">
<title>191&#45;&gt;1</title>
<path fill="none" stroke="green" stroke-width="0.21" d="M1582.66,-77.75C1578.33,-74.65 1573.75,-71.44 1569.41,-68.53 1549.6,-55.23 1526.52,-40.9 1509.9,-30.78"/>
<polygon fill="green" stroke="green" stroke-width="0.21" points="1511.3,-27.53 1500.93,-25.35 1507.67,-33.52 1511.3,-27.53"/>
</g>
<!-- 191&#45;&gt;2 -->
<g id="edge91" class="edge">
<title>191&#45;&gt;2</title>
<path fill="none" stroke="green" stroke-width="0.46" d="M1583.85,-76.38C1579.38,-73.29 1574.43,-70.42 1569.41,-68.53 1418.18,-11.35 1361.14,-82.62 1207.41,-32.53 1206.15,-32.12 1204.89,-31.64 1203.63,-31.11"/>
<polygon fill="green" stroke="green" stroke-width="0.46" points="1204.87,-27.81 1194.38,-26.35 1201.67,-34.04 1204.87,-27.81"/>
</g>
<!-- 191&#45;&gt;3 -->
<g id="edge92" class="edge">
<title>191&#45;&gt;3</title>
<path fill="none" stroke="red" stroke-width="0.43" d="M1583.83,-76.44C1579.35,-73.34 1574.41,-70.46 1569.41,-68.53 1439.66,-18.27 1390.36,-76.7 1258.41,-32.53 1257.15,-32.11 1255.89,-31.62 1254.64,-31.08"/>
<polygon fill="red" stroke="red" stroke-width="0.43" points="1255.89,-27.79 1245.4,-26.31 1252.67,-34.01 1255.89,-27.79"/>
</g>
<!-- 191&#45;&gt;4 -->
<g id="edge93" class="edge">
<title>191&#45;&gt;4</title>
<path fill="none" stroke="green" stroke-width="0.12" d="M1583.8,-76.52C1579.32,-73.42 1574.39,-70.52 1569.41,-68.53 1461.1,-25.18 1419.61,-70.79 1309.41,-32.53 1308.16,-32.09 1306.9,-31.59 1305.65,-31.05"/>
<polygon fill="green" stroke="green" stroke-width="0.12" points="1306.9,-27.76 1296.42,-26.24 1303.67,-33.97 1306.9,-27.76"/>
</g>
<!-- 191&#45;&gt;5 -->
<g id="edge94" class="edge">
<title>191&#45;&gt;5</title>
<path fill="none" stroke="green" stroke-width="0.28" d="M1583.75,-76.64C1579.28,-73.54 1574.36,-70.6 1569.41,-68.53 1482.49,-32.07 1448.93,-64.91 1360.41,-32.53 1359.17,-32.07 1357.91,-31.56 1356.67,-31"/>
<polygon fill="green" stroke="green" stroke-width="0.28" points="1357.93,-27.71 1347.45,-26.15 1354.67,-33.9 1357.93,-27.71"/>
</g>
<!-- 191&#45;&gt;6 -->
<g id="edge95" class="edge">
<title>191&#45;&gt;6</title>
<path fill="none" stroke="green" stroke-width="0.44" d="M1583.66,-76.84C1579.2,-73.72 1574.3,-70.73 1569.41,-68.53 1503.76,-38.9 1478.36,-59.07 1411.41,-32.53 1410.18,-32.04 1408.94,-31.5 1407.7,-30.92"/>
<polygon fill="green" stroke="green" stroke-width="0.44" points="1408.97,-27.63 1398.51,-26 1405.67,-33.81 1408.97,-27.63"/>
</g>
<!-- 191&#45;&gt;7 -->
<g id="edge96" class="edge">
<title>191&#45;&gt;7</title>
<path fill="none" stroke="red" stroke-width="0.21" d="M1586.59,-73.73C1577.06,-62.56 1564.93,-48.34 1555.22,-36.97"/>
<polygon fill="red" stroke="red" stroke-width="0.21" points="1557.81,-34.61 1548.66,-29.27 1552.49,-39.15 1557.81,-34.61"/>
</g>
</g>
</svg>
