<?xml version="1.0" encoding="UTF-8" standalone="no"?>
<!DOCTYPE svg PUBLIC "-//W3C//DTD SVG 1.1//EN"
 "http://www.w3.org/Graphics/SVG/1.1/DTD/svg11.dtd">
<!-- Generated by graphviz version 2.44.0 (0)
 -->
<!-- Pages: 1 -->
<svg width="1765pt" height="180pt"
 viewBox="0.00 0.00 1764.57 180.02" xmlns="http://www.w3.org/2000/svg" xmlns:xlink="http://www.w3.org/1999/xlink">
<g id="graph0" class="graph" transform="scale(1 1) rotate(0) translate(4 176.02)">
<polygon fill="white" stroke="transparent" points="-4,4 -4,-176.02 1760.57,-176.02 1760.57,4 -4,4"/>
<!-- &#45;1 -->
<g id="node1" class="node">
<title>&#45;1</title>
<polygon fill="lightgray" stroke="black" points="853.27,-172.02 827.27,-172.02 827.27,-154.02 853.27,-154.02 853.27,-172.02"/>
<text text-anchor="middle" x="840.27" y="-160.82" font-family="Times-Roman" font-size="9.00">&#45;1</text>
</g>
<!-- 0 -->
<g id="node5" class="node">
<title>0</title>
<ellipse fill="lightblue" stroke="black" cx="990.27" cy="-16.26" rx="16.03" ry="16.03"/>
<text text-anchor="middle" x="990.27" y="-14.06" font-family="Times-Roman" font-size="9.00">0</text>
</g>
<!-- &#45;1&#45;&gt;0 -->
<g id="edge109" class="edge">
<title>&#45;1&#45;&gt;0</title>
<path fill="none" stroke="red" stroke-width="0.11" d="M853.33,-158.3C859.36,-156.73 866.63,-155.03 873.27,-154.02 935.79,-144.54 1397.99,-164.13 1441.27,-118.02 1456.33,-101.98 1456.16,-84.73 1441.27,-68.53 1377.14,1.27 1106.6,-61.23 1016.27,-32.53 1015.01,-32.13 1013.74,-31.65 1012.48,-31.13"/>
<polygon fill="red" stroke="red" stroke-width="0.11" points="1013.72,-27.83 1003.23,-26.39 1010.53,-34.07 1013.72,-27.83"/>
</g>
<!-- 1 -->
<g id="node6" class="node">
<title>1</title>
<ellipse fill="lightblue" stroke="black" cx="939.27" cy="-16.26" rx="16.03" ry="16.03"/>
<text text-anchor="middle" x="939.27" y="-14.06" font-family="Times-Roman" font-size="9.00">1</text>
</g>
<!-- &#45;1&#45;&gt;1 -->
<g id="edge110" class="edge">
<title>&#45;1&#45;&gt;1</title>
<path fill="none" stroke="green" stroke-width="0.17" d="M853.35,-158.37C859.37,-156.81 866.64,-155.11 873.27,-154.02 919.06,-146.54 1257.91,-152.22 1289.27,-118.02 1304.14,-101.81 1303.94,-84.92 1289.27,-68.53 1240.96,-14.55 1034.02,-55.37 965.27,-32.53 964.01,-32.11 962.75,-31.62 961.5,-31.09"/>
<polygon fill="green" stroke="green" stroke-width="0.17" points="962.74,-27.8 952.25,-26.32 959.53,-34.02 962.74,-27.8"/>
</g>
<!-- 2 -->
<g id="node7" class="node">
<title>2</title>
<ellipse fill="lightblue" stroke="black" cx="655.27" cy="-16.26" rx="16.03" ry="16.03"/>
<text text-anchor="middle" x="655.27" y="-14.06" font-family="Times-Roman" font-size="9.00">2</text>
</g>
<!-- &#45;1&#45;&gt;2 -->
<g id="edge111" class="edge">
<title>&#45;1&#45;&gt;2</title>
<path fill="none" stroke="red" stroke-width="0.3" d="M826.91,-159.44C817.98,-157.77 805.95,-155.61 795.27,-154.02 728.42,-144.11 538.14,-168.56 493.27,-118.02 478.66,-101.57 480.27,-86.27 493.27,-68.53 524.52,-25.86 591.47,-17.81 628.78,-16.82"/>
<polygon fill="red" stroke="red" stroke-width="0.3" points="628.93,-20.32 638.89,-16.71 628.86,-13.32 628.93,-20.32"/>
</g>
<!-- 3 -->
<g id="node8" class="node">
<title>3</title>
<ellipse fill="lightblue" stroke="black" cx="706.27" cy="-16.26" rx="16.03" ry="16.03"/>
<text text-anchor="middle" x="706.27" y="-14.06" font-family="Times-Roman" font-size="9.00">3</text>
</g>
<!-- &#45;1&#45;&gt;3 -->
<g id="edge112" class="edge">
<title>&#45;1&#45;&gt;3</title>
<path fill="none" stroke="red" stroke-width="0.36" d="M826.91,-159.46C817.97,-157.8 805.94,-155.64 795.27,-154.02 731.72,-144.4 550.8,-166.22 508.27,-118.02 493.72,-101.53 494.4,-85.6 508.27,-68.53 557.52,-7.91 607.42,-60.67 680.27,-32.53 681.51,-32.05 682.75,-31.52 683.99,-30.95"/>
<polygon fill="red" stroke="red" stroke-width="0.36" points="686.01,-33.84 693.19,-26.05 682.72,-27.66 686.01,-33.84"/>
</g>
<!-- 4 -->
<g id="node9" class="node">
<title>4</title>
<ellipse fill="lightblue" stroke="black" cx="757.27" cy="-16.26" rx="16.03" ry="16.03"/>
<text text-anchor="middle" x="757.27" y="-14.06" font-family="Times-Roman" font-size="9.00">4</text>
</g>
<!-- &#45;1&#45;&gt;4 -->
<g id="edge113" class="edge">
<title>&#45;1&#45;&gt;4</title>
<path fill="none" stroke="green" stroke-width="0.62" d="M826.91,-159.49C817.97,-157.83 805.94,-155.68 795.27,-154.02 735.02,-144.69 563.46,-163.88 523.27,-118.02 508.77,-101.48 509.1,-85.36 523.27,-68.53 583.69,3.25 643.18,-64.8 731.27,-32.53 732.51,-32.07 733.77,-31.56 735.01,-31"/>
<polygon fill="green" stroke="green" stroke-width="0.62" points="737.01,-33.9 744.23,-26.15 733.75,-27.71 737.01,-33.9"/>
</g>
<!-- 5 -->
<g id="node10" class="node">
<title>5</title>
<ellipse fill="lightblue" stroke="black" cx="837.27" cy="-16.26" rx="16.03" ry="16.03"/>
<text text-anchor="middle" x="837.27" y="-14.06" font-family="Times-Roman" font-size="9.00">5</text>
</g>
<!-- &#45;1&#45;&gt;5 -->
<g id="edge114" class="edge">
<title>&#45;1&#45;&gt;5</title>
<path fill="none" stroke="green" stroke-width="0.35" d="M826.9,-159.52C817.96,-157.87 805.93,-155.72 795.27,-154.02 738.32,-144.98 576.11,-161.54 538.27,-118.02 523.83,-101.42 523.9,-85.18 538.27,-68.53 574.09,-27.04 728.65,-43.88 782.27,-32.53 792.13,-30.44 802.84,-27.6 812.17,-24.94"/>
<polygon fill="green" stroke="green" stroke-width="0.35" points="813.38,-28.23 821.99,-22.06 811.41,-21.51 813.38,-28.23"/>
</g>
<!-- 6 -->
<g id="node11" class="node">
<title>6</title>
<ellipse fill="lightblue" stroke="black" cx="888.27" cy="-16.26" rx="16.03" ry="16.03"/>
<text text-anchor="middle" x="888.27" y="-14.06" font-family="Times-Roman" font-size="9.00">6</text>
</g>
<!-- &#45;1&#45;&gt;6 -->
<g id="edge115" class="edge">
<title>&#45;1&#45;&gt;6</title>
<path fill="none" stroke="red" stroke-width="0.2" d="M853.37,-158.51C859.4,-156.99 866.67,-155.26 873.27,-154.02 932.55,-142.9 1102.55,-163.41 1142.27,-118.02 1156.76,-101.47 1156.56,-85.25 1142.27,-68.53 1108.95,-29.53 962.56,-49.81 914.27,-32.53 913.02,-32.08 911.77,-31.57 910.52,-31.02"/>
<polygon fill="red" stroke="red" stroke-width="0.2" points="911.78,-27.73 901.3,-26.19 908.53,-33.93 911.78,-27.73"/>
</g>
<!-- 7 -->
<g id="node12" class="node">
<title>7</title>
<ellipse fill="lightblue" stroke="black" cx="1041.27" cy="-16.26" rx="16.03" ry="16.03"/>
<text text-anchor="middle" x="1041.27" y="-14.06" font-family="Times-Roman" font-size="9.00">7</text>
</g>
<!-- &#45;1&#45;&gt;7 -->
<g id="edge116" class="edge">
<title>&#45;1&#45;&gt;7</title>
<path fill="none" stroke="red" stroke-width="0.14" d="M853.33,-158.26C859.35,-156.68 866.62,-154.99 873.27,-154.02 952.54,-142.54 1538.06,-176.06 1593.27,-118.02 1608.43,-102.09 1608.09,-84.79 1593.27,-68.53 1557.5,-29.28 1173.18,-19.6 1067.84,-17.68"/>
<polygon fill="red" stroke="red" stroke-width="0.14" points="1067.79,-14.18 1057.73,-17.5 1067.67,-21.18 1067.79,-14.18"/>
</g>
<!-- 161 -->
<g id="node13" class="node">
<title>161</title>
<ellipse fill="white" stroke="black" cx="706.27" cy="-93.28" rx="25" ry="25"/>
<text text-anchor="middle" x="706.27" y="-91.08" font-family="Times-Roman" font-size="9.00">161</text>
</g>
<!-- &#45;1&#45;&gt;161 -->
<g id="edge3" class="edge">
<title>&#45;1&#45;&gt;161</title>
<path fill="none" stroke="green" stroke-width="0.55" stroke-dasharray="1,5" d="M827.09,-157.32C807.39,-150.05 769.36,-135.15 739.27,-118.02 737.52,-117.03 735.75,-115.96 733.99,-114.85"/>
<polygon fill="green" stroke="green" stroke-width="0.55" points="735.61,-111.72 725.36,-109.05 731.71,-117.53 735.61,-111.72"/>
</g>
<!-- 162 -->
<g id="node14" class="node">
<title>162</title>
<ellipse fill="white" stroke="black" cx="773.27" cy="-93.28" rx="25" ry="25"/>
<text text-anchor="middle" x="773.27" y="-91.08" font-family="Times-Roman" font-size="9.00">162</text>
</g>
<!-- &#45;1&#45;&gt;162 -->
<g id="edge4" class="edge">
<title>&#45;1&#45;&gt;162</title>
<path fill="none" stroke="green" stroke-width="0.44" d="M832.32,-153.99C823.77,-145.34 809.74,-131.15 797.5,-118.78"/>
<polygon fill="green" stroke="green" stroke-width="0.44" points="799.7,-116.02 790.18,-111.38 794.72,-120.95 799.7,-116.02"/>
</g>
<!-- 163 -->
<g id="node15" class="node">
<title>163</title>
<ellipse fill="white" stroke="black" cx="840.27" cy="-93.28" rx="25" ry="25"/>
<text text-anchor="middle" x="840.27" y="-91.08" font-family="Times-Roman" font-size="9.00">163</text>
</g>
<!-- &#45;1&#45;&gt;163 -->
<g id="edge5" class="edge">
<title>&#45;1&#45;&gt;163</title>
<path fill="none" stroke="red" stroke-width="0.13" d="M840.27,-153.99C840.27,-147.55 840.27,-138.05 840.27,-128.52"/>
<polygon fill="red" stroke="red" stroke-width="0.13" points="843.77,-128.3 840.27,-118.3 836.77,-128.3 843.77,-128.3"/>
</g>
<!-- 164 -->
<g id="node16" class="node">
<title>164</title>
<ellipse fill="white" stroke="black" cx="907.27" cy="-93.28" rx="25" ry="25"/>
<text text-anchor="middle" x="907.27" y="-91.08" font-family="Times-Roman" font-size="9.00">164</text>
</g>
<!-- &#45;1&#45;&gt;164 -->
<g id="edge6" class="edge">
<title>&#45;1&#45;&gt;164</title>
<path fill="none" stroke="red" stroke-width="0.14" d="M848.22,-153.99C856.77,-145.34 870.8,-131.15 883.04,-118.78"/>
<polygon fill="red" stroke="red" stroke-width="0.14" points="885.82,-120.95 890.36,-111.38 880.84,-116.02 885.82,-120.95"/>
</g>
<!-- 165 -->
<g id="node17" class="node">
<title>165</title>
<ellipse fill="white" stroke="black" cx="974.27" cy="-93.28" rx="25" ry="25"/>
<text text-anchor="middle" x="974.27" y="-91.08" font-family="Times-Roman" font-size="9.00">165</text>
</g>
<!-- &#45;1&#45;&gt;165 -->
<g id="edge7" class="edge">
<title>&#45;1&#45;&gt;165</title>
<path fill="none" stroke="red" stroke-width="0.24" d="M853.45,-157.32C873.15,-150.05 911.18,-135.15 941.27,-118.02 943.02,-117.03 944.79,-115.96 946.55,-114.85"/>
<polygon fill="red" stroke="red" stroke-width="0.24" points="948.83,-117.53 955.18,-109.05 944.93,-111.72 948.83,-117.53"/>
</g>
<!-- 166 -->
<g id="node18" class="node">
<title>166</title>
<ellipse fill="white" stroke="black" cx="1041.27" cy="-93.28" rx="25" ry="25"/>
<text text-anchor="middle" x="1041.27" y="-91.08" font-family="Times-Roman" font-size="9.00">166</text>
</g>
<!-- &#45;1&#45;&gt;166 -->
<g id="edge8" class="edge">
<title>&#45;1&#45;&gt;166</title>
<path fill="none" stroke="green" stroke-width="0.24" d="M853.35,-158.74C891.61,-149.11 1001.08,-121.41 1008.27,-118.02 1010.09,-117.17 1011.91,-116.21 1013.72,-115.18"/>
<polygon fill="green" stroke="green" stroke-width="0.24" points="1015.92,-117.93 1022.47,-109.6 1012.15,-112.02 1015.92,-117.93"/>
</g>
<!-- 167 -->
<g id="node19" class="node">
<title>167</title>
<ellipse fill="white" stroke="black" cx="1108.27" cy="-93.28" rx="25" ry="25"/>
<text text-anchor="middle" x="1108.27" y="-91.08" font-family="Times-Roman" font-size="9.00">167</text>
</g>
<!-- &#45;1&#45;&gt;167 -->
<g id="edge9" class="edge">
<title>&#45;1&#45;&gt;167</title>
<path fill="none" stroke="green" stroke-width="0.3" d="M853.4,-158.65C859.43,-157.14 866.69,-155.41 873.27,-154.02 962.51,-135.27 991.28,-153.54 1075.27,-118.02 1077.12,-117.24 1078.97,-116.34 1080.8,-115.35"/>
<polygon fill="green" stroke="green" stroke-width="0.3" points="1082.95,-118.14 1089.6,-109.89 1079.25,-112.19 1082.95,-118.14"/>
</g>
<!-- 158 -->
<g id="node20" class="node">
<title>158</title>
<ellipse fill="white" stroke="black" cx="572.27" cy="-93.28" rx="25" ry="25"/>
<text text-anchor="middle" x="572.27" y="-91.08" font-family="Times-Roman" font-size="9.00">158</text>
</g>
<!-- &#45;1&#45;&gt;158 -->
<g id="edge1" class="edge">
<title>&#45;1&#45;&gt;158</title>
<path fill="none" stroke="red" stroke-width="0.13" d="M826.96,-159.61C777.99,-150.73 610.48,-120.25 605.27,-118.02 603.42,-117.23 601.57,-116.32 599.75,-115.33"/>
<polygon fill="red" stroke="red" stroke-width="0.13" points="601.3,-112.17 590.96,-109.86 597.6,-118.11 601.3,-112.17"/>
</g>
<!-- 159 -->
<g id="node21" class="node">
<title>159</title>
<ellipse fill="white" stroke="black" cx="639.27" cy="-93.28" rx="25" ry="25"/>
<text text-anchor="middle" x="639.27" y="-91.08" font-family="Times-Roman" font-size="9.00">159</text>
</g>
<!-- &#45;1&#45;&gt;159 -->
<g id="edge2" class="edge">
<title>&#45;1&#45;&gt;159</title>
<path fill="none" stroke="green" stroke-width="0.28" d="M827.27,-159.27C792.92,-151.88 700.5,-131.32 672.27,-118.02 670.45,-117.17 668.63,-116.21 666.82,-115.18"/>
<polygon fill="green" stroke="green" stroke-width="0.28" points="668.39,-112.02 658.07,-109.6 664.62,-117.93 668.39,-112.02"/>
</g>
<!-- &#45;2 -->
<g id="node2" class="node">
<title>&#45;2</title>
<polygon fill="lightgray" stroke="black" points="786.27,-172.02 760.27,-172.02 760.27,-154.02 786.27,-154.02 786.27,-172.02"/>
<text text-anchor="middle" x="773.27" y="-160.82" font-family="Times-Roman" font-size="9.00">&#45;2</text>
</g>
<!-- &#45;2&#45;&gt;0 -->
<g id="edge117" class="edge">
<title>&#45;2&#45;&gt;0</title>
<path fill="none" stroke="red" stroke-width="0.4" d="M786.62,-159.39C795.55,-157.7 807.59,-155.53 818.27,-154.02 894.16,-143.31 1109.98,-174.98 1161.27,-118.02 1175.99,-101.68 1174.82,-85.86 1161.27,-68.53 1120.36,-16.22 1077.76,-57.59 1016.27,-32.53 1015.04,-32.03 1013.81,-31.48 1012.57,-30.89"/>
<polygon fill="red" stroke="red" stroke-width="0.4" points="1013.85,-27.61 1003.39,-25.95 1010.54,-33.77 1013.85,-27.61"/>
</g>
<!-- &#45;2&#45;&gt;1 -->
<g id="edge118" class="edge">
<title>&#45;2&#45;&gt;1</title>
<path fill="none" stroke="red" stroke-width="0.6" d="M786.62,-159.41C795.56,-157.73 807.59,-155.57 818.27,-154.02 889.97,-143.68 1093.96,-172 1142.27,-118.02 1156.94,-101.63 1156.19,-85.56 1142.27,-68.53 1091.48,-6.36 1040.24,-61.24 965.27,-32.53 964.03,-32.05 962.79,-31.52 961.54,-30.95"/>
<polygon fill="red" stroke="red" stroke-width="0.6" points="962.81,-27.67 952.34,-26.07 959.53,-33.85 962.81,-27.67"/>
</g>
<!-- &#45;2&#45;&gt;2 -->
<g id="edge119" class="edge">
<title>&#45;2&#45;&gt;2</title>
<path fill="none" stroke="green" stroke-width="0.24" d="M760.22,-161.78C661.73,-159.83 38.08,-146.42 11.27,-118.02 -3.83,-102.03 -3.65,-84.69 11.27,-68.53 53.8,-22.48 513.09,-17.76 628.88,-17.31"/>
<polygon fill="green" stroke="green" stroke-width="0.24" points="629,-20.81 638.99,-17.27 628.98,-13.81 629,-20.81"/>
</g>
<!-- &#45;2&#45;&gt;3 -->
<g id="edge120" class="edge">
<title>&#45;2&#45;&gt;3</title>
<path fill="none" stroke="red" stroke-width="0.13" d="M760.07,-161.69C666.9,-159.23 111.2,-143.54 87.27,-118.02 72.22,-101.98 72.19,-84.55 87.27,-68.53 132.51,-20.46 617.13,-51.77 680.27,-32.53 681.54,-32.14 682.81,-31.68 684.07,-31.17"/>
<polygon fill="red" stroke="red" stroke-width="0.13" points="686.01,-34.11 693.34,-26.46 682.84,-27.87 686.01,-34.11"/>
</g>
<!-- &#45;2&#45;&gt;4 -->
<g id="edge121" class="edge">
<title>&#45;2&#45;&gt;4</title>
<path fill="none" stroke="green" stroke-width="0.35" d="M760.03,-161.98C681.17,-161.57 275.66,-157.54 239.27,-118.02 224.37,-101.84 224.29,-84.64 239.27,-68.53 276.59,-28.38 678.94,-48.83 731.27,-32.53 732.54,-32.13 733.8,-31.67 735.06,-31.15"/>
<polygon fill="green" stroke="green" stroke-width="0.35" points="737.01,-34.09 744.33,-26.43 733.83,-27.85 737.01,-34.09"/>
</g>
<!-- &#45;2&#45;&gt;5 -->
<g id="edge122" class="edge">
<title>&#45;2&#45;&gt;5</title>
<path fill="none" stroke="red" stroke-width="0.11" d="M760.1,-161.83C713,-160.83 554.08,-154.73 523.27,-118.02 509.13,-101.17 508.83,-85.12 523.27,-68.53 561.43,-24.7 725.37,-44.32 782.27,-32.53 792.14,-30.48 802.85,-27.65 812.17,-24.98"/>
<polygon fill="red" stroke="red" stroke-width="0.11" points="813.39,-28.27 821.99,-22.09 811.41,-21.56 813.39,-28.27"/>
</g>
<!-- &#45;2&#45;&gt;6 -->
<g id="edge123" class="edge">
<title>&#45;2&#45;&gt;6</title>
<path fill="none" stroke="red" stroke-width="0.12" d="M760.26,-161.67C715.2,-160.16 566.97,-152.6 538.27,-118.02 524.22,-101.1 523.6,-84.92 538.27,-68.53 586.58,-14.55 793.52,-55.37 862.27,-32.53 863.53,-32.11 864.79,-31.62 866.05,-31.09"/>
<polygon fill="red" stroke="red" stroke-width="0.12" points="868.01,-34.02 875.29,-26.32 864.8,-27.8 868.01,-34.02"/>
</g>
<!-- &#45;2&#45;&gt;7 -->
<g id="edge124" class="edge">
<title>&#45;2&#45;&gt;7</title>
<path fill="none" stroke="green" stroke-width="0.22" d="M786.62,-159.37C795.55,-157.67 807.58,-155.5 818.27,-154.02 858.31,-148.48 1153.14,-147.99 1180.27,-118.02 1195.04,-101.72 1192.85,-86.57 1180.27,-68.53 1154.9,-32.13 1100.61,-21.51 1067.89,-18.45"/>
<polygon fill="green" stroke="green" stroke-width="0.22" points="1067.93,-14.94 1057.69,-17.68 1067.4,-21.92 1067.93,-14.94"/>
</g>
<!-- &#45;2&#45;&gt;161 -->
<g id="edge12" class="edge">
<title>&#45;2&#45;&gt;161</title>
<path fill="none" stroke="green" stroke-width="0.16" d="M765.32,-153.99C756.77,-145.34 742.74,-131.15 730.5,-118.78"/>
<polygon fill="green" stroke="green" stroke-width="0.16" points="732.7,-116.02 723.18,-111.38 727.72,-120.95 732.7,-116.02"/>
</g>
<!-- &#45;2&#45;&gt;162 -->
<g id="edge13" class="edge">
<title>&#45;2&#45;&gt;162</title>
<path fill="none" stroke="green" stroke-width="0.67" d="M773.27,-153.99C773.27,-147.55 773.27,-138.05 773.27,-128.52"/>
<polygon fill="green" stroke="green" stroke-width="0.67" points="776.77,-128.3 773.27,-118.3 769.77,-128.3 776.77,-128.3"/>
</g>
<!-- &#45;2&#45;&gt;163 -->
<g id="edge14" class="edge">
<title>&#45;2&#45;&gt;163</title>
<path fill="none" stroke="green" stroke-width="0.47" d="M781.22,-153.99C789.77,-145.34 803.8,-131.15 816.04,-118.78"/>
<polygon fill="green" stroke="green" stroke-width="0.47" points="818.82,-120.95 823.36,-111.38 813.84,-116.02 818.82,-120.95"/>
</g>
<!-- &#45;2&#45;&gt;164 -->
<g id="edge15" class="edge">
<title>&#45;2&#45;&gt;164</title>
<path fill="none" stroke="green" stroke-width="0.37" d="M786.45,-157.32C806.15,-150.05 844.18,-135.15 874.27,-118.02 876.02,-117.03 877.79,-115.96 879.55,-114.85"/>
<polygon fill="green" stroke="green" stroke-width="0.37" points="881.83,-117.53 888.18,-109.05 877.93,-111.72 881.83,-117.53"/>
</g>
<!-- &#45;2&#45;&gt;165 -->
<g id="edge16" class="edge">
<title>&#45;2&#45;&gt;165</title>
<path fill="none" stroke="green" stroke-width="0.27" d="M786.28,-159.27C820.62,-151.88 913.04,-131.32 941.27,-118.02 943.09,-117.17 944.91,-116.21 946.72,-115.18"/>
<polygon fill="green" stroke="green" stroke-width="0.27" points="948.92,-117.93 955.47,-109.6 945.15,-112.02 948.92,-117.93"/>
</g>
<!-- &#45;2&#45;&gt;166 -->
<g id="edge17" class="edge">
<title>&#45;2&#45;&gt;166</title>
<path fill="none" stroke="green" stroke-width="0.28" d="M786.59,-159.61C835.55,-150.73 1003.06,-120.25 1008.27,-118.02 1010.12,-117.23 1011.97,-116.32 1013.79,-115.33"/>
<polygon fill="green" stroke="green" stroke-width="0.28" points="1015.94,-118.11 1022.58,-109.86 1012.24,-112.17 1015.94,-118.11"/>
</g>
<!-- &#45;2&#45;&gt;167 -->
<g id="edge18" class="edge">
<title>&#45;2&#45;&gt;167</title>
<path fill="none" stroke="red" stroke-width="0.24" d="M786.64,-159.52C795.58,-157.87 807.61,-155.72 818.27,-154.02 932.18,-135.93 968.22,-160.96 1075.27,-118.02 1077.14,-117.28 1079,-116.4 1080.83,-115.43"/>
<polygon fill="red" stroke="red" stroke-width="0.24" points="1082.96,-118.23 1089.65,-110.03 1079.3,-112.27 1082.96,-118.23"/>
</g>
<!-- &#45;2&#45;&gt;158 -->
<g id="edge10" class="edge">
<title>&#45;2&#45;&gt;158</title>
<path fill="none" stroke="red" stroke-width="0.18" d="M760.07,-160.25C730.96,-155.99 659.56,-143.58 605.27,-118.02 603.45,-117.17 601.63,-116.21 599.82,-115.18"/>
<polygon fill="red" stroke="red" stroke-width="0.18" points="601.39,-112.02 591.07,-109.6 597.62,-117.93 601.39,-112.02"/>
</g>
<!-- &#45;2&#45;&gt;159 -->
<g id="edge11" class="edge">
<title>&#45;2&#45;&gt;159</title>
<path fill="none" stroke="green" stroke-width="0.11" d="M760.09,-157.32C740.39,-150.05 702.36,-135.15 672.27,-118.02 670.52,-117.03 668.75,-115.96 666.99,-114.85"/>
<polygon fill="green" stroke="green" stroke-width="0.11" points="668.61,-111.72 658.36,-109.05 664.71,-117.53 668.61,-111.72"/>
</g>
<!-- &#45;3 -->
<g id="node3" class="node">
<title>&#45;3</title>
<polygon fill="lightgray" stroke="black" points="908.27,-172.02 882.27,-172.02 882.27,-154.02 908.27,-154.02 908.27,-172.02"/>
<text text-anchor="middle" x="895.27" y="-160.82" font-family="Times-Roman" font-size="9.00">&#45;3</text>
</g>
<!-- &#45;3&#45;&gt;0 -->
<g id="edge125" class="edge">
<title>&#45;3&#45;&gt;0</title>
<path fill="none" stroke="red" stroke-width="0.27" d="M908.61,-156.59C911.43,-155.61 914.42,-154.69 917.27,-154.02 989.99,-137.15 1201.39,-173.57 1251.27,-118.02 1265.97,-101.66 1265.6,-85.22 1251.27,-68.53 1216.86,-28.44 1066.05,-50.22 1016.27,-32.53 1015.02,-32.08 1013.77,-31.58 1012.52,-31.03"/>
<polygon fill="red" stroke="red" stroke-width="0.27" points="1013.77,-27.74 1003.29,-26.2 1010.53,-33.94 1013.77,-27.74"/>
</g>
<!-- &#45;3&#45;&gt;1 -->
<g id="edge126" class="edge">
<title>&#45;3&#45;&gt;1</title>
<path fill="none" stroke="red" stroke-width="0.31" d="M908.61,-156.61C911.44,-155.62 914.42,-154.7 917.27,-154.02 985.85,-137.87 1185.36,-170.6 1232.27,-118.02 1246.92,-101.61 1246.75,-85.09 1232.27,-68.53 1192.87,-23.45 1021.86,-52.07 965.27,-32.53 964.02,-32.09 962.76,-31.6 961.51,-31.06"/>
<polygon fill="red" stroke="red" stroke-width="0.31" points="962.76,-27.76 952.27,-26.25 959.53,-33.97 962.76,-27.76"/>
</g>
<!-- &#45;3&#45;&gt;2 -->
<g id="edge127" class="edge">
<title>&#45;3&#45;&gt;2</title>
<path fill="none" stroke="red" stroke-width="0.61" d="M882.21,-158.26C876.19,-156.69 868.92,-154.99 862.27,-154.02 785.31,-142.81 216.83,-174.41 163.27,-118.02 148.12,-102.07 148.54,-84.87 163.27,-68.53 194.69,-33.67 531.12,-20.96 628.82,-17.99"/>
<polygon fill="red" stroke="red" stroke-width="0.61" points="629.12,-21.49 639.02,-17.69 628.92,-14.49 629.12,-21.49"/>
</g>
<!-- &#45;3&#45;&gt;3 -->
<g id="edge128" class="edge">
<title>&#45;3&#45;&gt;3</title>
<path fill="none" stroke="green" stroke-width="0.38" d="M882.21,-158.31C876.18,-156.74 868.91,-155.04 862.27,-154.02 802.06,-144.82 356.9,-162.49 315.27,-118.02 300.23,-101.97 300.5,-84.83 315.27,-68.53 370,-8.13 602.77,-57.75 680.27,-32.53 681.53,-32.12 682.8,-31.64 684.05,-31.11"/>
<polygon fill="green" stroke="green" stroke-width="0.38" points="686.01,-34.04 693.3,-26.36 682.81,-27.81 686.01,-34.04"/>
</g>
<!-- &#45;3&#45;&gt;4 -->
<g id="edge129" class="edge">
<title>&#45;3&#45;&gt;4</title>
<path fill="none" stroke="red" stroke-width="0.77" d="M882.19,-158.39C876.17,-156.83 868.9,-155.12 862.27,-154.02 818.79,-146.81 496.99,-150.57 467.27,-118.02 452.44,-101.78 452.8,-85.1 467.27,-68.53 506.21,-23.92 675.32,-51.89 731.27,-32.53 732.52,-32.09 733.78,-31.6 735.03,-31.05"/>
<polygon fill="red" stroke="red" stroke-width="0.77" points="737.01,-33.97 744.27,-26.25 733.78,-27.76 737.01,-33.97"/>
</g>
<!-- &#45;3&#45;&gt;5 -->
<g id="edge130" class="edge">
<title>&#45;3&#45;&gt;5</title>
<path fill="none" stroke="red" stroke-width="0.78" d="M908.64,-156.71C911.46,-155.71 914.44,-154.76 917.27,-154.02 966.29,-141.31 1109.42,-156.55 1142.27,-118.02 1156.54,-101.29 1156.8,-85.05 1142.27,-68.53 1100.99,-21.58 922.42,-52.76 863.27,-32.53 862.02,-32.1 860.76,-31.6 859.5,-31.06"/>
<polygon fill="red" stroke="red" stroke-width="0.78" points="860.76,-27.77 850.27,-26.27 857.53,-33.98 860.76,-27.77"/>
</g>
<!-- &#45;3&#45;&gt;6 -->
<g id="edge131" class="edge">
<title>&#45;3&#45;&gt;6</title>
<path fill="none" stroke="green" stroke-width="0.19" d="M908.62,-156.62C911.44,-155.64 914.42,-154.71 917.27,-154.02 981.71,-138.6 1169.34,-167.63 1213.27,-118.02 1227.86,-101.56 1227.87,-84.99 1213.27,-68.53 1168.87,-18.46 977.68,-53.92 914.27,-32.53 913.02,-32.1 911.75,-31.61 910.5,-31.08"/>
<polygon fill="green" stroke="green" stroke-width="0.19" points="911.75,-27.78 901.26,-26.29 908.53,-34 911.75,-27.78"/>
</g>
<!-- &#45;3&#45;&gt;7 -->
<g id="edge132" class="edge">
<title>&#45;3&#45;&gt;7</title>
<path fill="none" stroke="green" stroke-width="0.15" d="M908.61,-156.58C911.43,-155.6 914.42,-154.68 917.27,-154.02 994.13,-136.42 1217.42,-176.54 1270.27,-118.02 1285.02,-101.7 1284.02,-85.7 1270.27,-68.53 1245.13,-37.14 1122.6,-23.68 1067.82,-19.16"/>
<polygon fill="green" stroke="green" stroke-width="0.15" points="1067.76,-15.64 1057.52,-18.35 1067.22,-22.62 1067.76,-15.64"/>
</g>
<!-- &#45;3&#45;&gt;161 -->
<g id="edge21" class="edge">
<title>&#45;3&#45;&gt;161</title>
<path fill="none" stroke="green" stroke-width="0.13" d="M882.26,-158.63C847.2,-149.45 752.45,-124.38 739.27,-118.02 737.46,-117.15 735.64,-116.18 733.84,-115.14"/>
<polygon fill="green" stroke="green" stroke-width="0.13" points="735.41,-111.99 725.11,-109.53 731.63,-117.88 735.41,-111.99"/>
</g>
<!-- &#45;3&#45;&gt;162 -->
<g id="edge22" class="edge">
<title>&#45;3&#45;&gt;162</title>
<path fill="none" stroke="red" stroke-width="0.11" d="M882.24,-156.4C864.59,-148.59 832.27,-133.66 806.27,-118.02 804.59,-117.01 802.89,-115.95 801.19,-114.84"/>
<polygon fill="red" stroke="red" stroke-width="0.11" points="803.04,-111.87 792.81,-109.14 799.1,-117.66 803.04,-111.87"/>
</g>
<!-- &#45;3&#45;&gt;163 -->
<g id="edge23" class="edge">
<title>&#45;3&#45;&gt;163</title>
<path fill="none" stroke="green" stroke-width="0.4" d="M888.75,-153.99C882.13,-145.84 871.54,-132.79 861.94,-120.96"/>
<polygon fill="green" stroke="green" stroke-width="0.4" points="864.53,-118.61 855.51,-113.05 859.1,-123.02 864.53,-118.61"/>
</g>
<!-- &#45;3&#45;&gt;164 -->
<g id="edge24" class="edge">
<title>&#45;3&#45;&gt;164</title>
<path fill="none" stroke="green" stroke-width="0.35" d="M896.69,-153.99C897.86,-147.38 899.61,-137.54 901.34,-127.75"/>
<polygon fill="green" stroke="green" stroke-width="0.35" points="904.82,-128.16 903.12,-117.7 897.93,-126.94 904.82,-128.16"/>
</g>
<!-- &#45;3&#45;&gt;165 -->
<g id="edge25" class="edge">
<title>&#45;3&#45;&gt;165</title>
<path fill="none" stroke="red" stroke-width="0.24" d="M904.64,-153.99C915.26,-144.88 933.04,-129.63 947.97,-116.83"/>
<polygon fill="red" stroke="red" stroke-width="0.24" points="950.6,-119.18 955.91,-110.02 946.04,-113.87 950.6,-119.18"/>
</g>
<!-- &#45;3&#45;&gt;166 -->
<g id="edge26" class="edge">
<title>&#45;3&#45;&gt;166</title>
<path fill="none" stroke="green" stroke-width="0.14" d="M908.63,-157.04C936.52,-146.6 999.11,-123 1008.27,-118.02 1010.04,-117.06 1011.82,-116.02 1013.59,-114.93"/>
<polygon fill="green" stroke="green" stroke-width="0.14" points="1015.86,-117.63 1022.26,-109.19 1011.99,-111.8 1015.86,-117.63"/>
</g>
<!-- &#45;3&#45;&gt;167 -->
<g id="edge27" class="edge">
<title>&#45;3&#45;&gt;167</title>
<path fill="none" stroke="red" stroke-width="0.37" d="M908.68,-156.85C911.5,-155.85 914.46,-154.85 917.27,-154.02 986.36,-133.68 1009.62,-147.65 1075.27,-118.02 1077.1,-117.2 1078.94,-116.26 1080.75,-115.25"/>
<polygon fill="red" stroke="red" stroke-width="0.37" points="1082.93,-118.01 1089.52,-109.72 1079.2,-112.09 1082.93,-118.01"/>
</g>
<!-- &#45;3&#45;&gt;158 -->
<g id="edge19" class="edge">
<title>&#45;3&#45;&gt;158</title>
<path fill="none" stroke="green" stroke-width="0.41" d="M882.17,-158.53C876.14,-157.01 868.87,-155.28 862.27,-154.02 748.98,-132.41 712.32,-160.96 605.27,-118.02 603.4,-117.28 601.54,-116.4 599.71,-115.43"/>
<polygon fill="green" stroke="green" stroke-width="0.41" points="601.24,-112.27 590.89,-110.03 597.59,-118.23 601.24,-112.27"/>
</g>
<!-- &#45;3&#45;&gt;159 -->
<g id="edge20" class="edge">
<title>&#45;3&#45;&gt;159</title>
<path fill="none" stroke="green" stroke-width="0.28" d="M882.14,-158.68C876.1,-157.18 868.84,-155.44 862.27,-154.02 778.26,-135.89 751.25,-151.93 672.27,-118.02 670.42,-117.23 668.58,-116.32 666.76,-115.33"/>
<polygon fill="green" stroke="green" stroke-width="0.28" points="668.3,-112.17 657.96,-109.85 664.6,-118.11 668.3,-112.17"/>
</g>
<!-- &#45;4 -->
<g id="node4" class="node">
<title>&#45;4</title>
<polygon fill="lightgray" stroke="black" points="952.27,-172.02 926.27,-172.02 926.27,-154.02 952.27,-154.02 952.27,-172.02"/>
<text text-anchor="middle" x="939.27" y="-160.82" font-family="Times-Roman" font-size="9.00">&#45;4</text>
</g>
<!-- &#45;4&#45;&gt;0 -->
<g id="edge133" class="edge">
<title>&#45;4&#45;&gt;0</title>
<path fill="none" stroke="red" stroke-width="0.57" d="M952.38,-161.74C1048.67,-159.59 1643.68,-145.21 1669.27,-118.02 1684.35,-102.01 1684.39,-84.5 1669.27,-68.53 1619.32,-15.75 1085.84,-53.51 1016.27,-32.53 1015,-32.14 1013.73,-31.69 1012.47,-31.18"/>
<polygon fill="red" stroke="red" stroke-width="0.57" points="1013.7,-27.88 1003.2,-26.48 1010.54,-34.12 1013.7,-27.88"/>
</g>
<!-- &#45;4&#45;&gt;1 -->
<g id="edge134" class="edge">
<title>&#45;4&#45;&gt;1</title>
<path fill="none" stroke="green" stroke-width="0.35" d="M952.51,-162.07C1035.13,-162.19 1477.59,-160.84 1517.27,-118.02 1532.22,-101.89 1532.31,-84.58 1517.27,-68.53 1475.25,-23.67 1024.03,-50.57 965.27,-32.53 964,-32.14 962.73,-31.68 961.47,-31.16"/>
<polygon fill="green" stroke="green" stroke-width="0.35" points="962.71,-27.86 952.21,-26.45 959.54,-34.1 962.71,-27.86"/>
</g>
<!-- &#45;4&#45;&gt;2 -->
<g id="edge135" class="edge">
<title>&#45;4&#45;&gt;2</title>
<path fill="none" stroke="red" stroke-width="0.14" d="M925.94,-156.55C923.12,-155.57 920.13,-154.66 917.27,-154.02 872.73,-144.15 539.08,-151.67 508.27,-118.02 493.41,-101.8 495.53,-86.46 508.27,-68.53 535.67,-29.95 594.33,-20.16 628.69,-17.83"/>
<polygon fill="red" stroke="red" stroke-width="0.14" points="629.12,-21.31 638.92,-17.31 628.76,-14.32 629.12,-21.31"/>
</g>
<!-- &#45;4&#45;&gt;3 -->
<g id="edge136" class="edge">
<title>&#45;4&#45;&gt;3</title>
<path fill="none" stroke="green" stroke-width="0.53" d="M925.94,-156.56C923.12,-155.57 920.13,-154.66 917.27,-154.02 831.47,-134.84 582.54,-182.96 523.27,-118.02 508.44,-101.78 509.56,-85.73 523.27,-68.53 567.88,-12.53 613.74,-58.96 680.27,-32.53 681.5,-32.04 682.74,-31.5 683.98,-30.92"/>
<polygon fill="green" stroke="green" stroke-width="0.53" points="686.01,-33.8 693.17,-26 682.71,-27.63 686.01,-33.8"/>
</g>
<!-- &#45;4&#45;&gt;4 -->
<g id="edge137" class="edge">
<title>&#45;4&#45;&gt;4</title>
<path fill="none" stroke="green" stroke-width="0.3" d="M925.94,-156.56C923.11,-155.58 920.13,-154.67 917.27,-154.02 834.74,-135.42 595.19,-180.61 538.27,-118.02 523.47,-101.75 524.21,-85.45 538.27,-68.53 594.03,-1.41 649.53,-63.07 731.27,-32.53 732.51,-32.06 733.76,-31.54 735.01,-30.98"/>
<polygon fill="green" stroke="green" stroke-width="0.3" points="737.01,-33.88 744.22,-26.11 733.74,-27.69 737.01,-33.88"/>
</g>
<!-- &#45;4&#45;&gt;5 -->
<g id="edge138" class="edge">
<title>&#45;4&#45;&gt;5</title>
<path fill="none" stroke="green" stroke-width="0.13" d="M952.47,-161.51C996.1,-159.51 1134.46,-150.67 1161.27,-118.02 1175.23,-101.02 1175.86,-84.99 1161.27,-68.53 1117.02,-18.61 926.47,-53.86 863.27,-32.53 862.02,-32.1 860.75,-31.61 859.5,-31.08"/>
<polygon fill="green" stroke="green" stroke-width="0.13" points="860.75,-27.78 850.26,-26.29 857.53,-34 860.75,-27.78"/>
</g>
<!-- &#45;4&#45;&gt;6 -->
<g id="edge139" class="edge">
<title>&#45;4&#45;&gt;6</title>
<path fill="none" stroke="red" stroke-width="0.35" d="M952.37,-162.17C1018.89,-162.54 1313.19,-159.12 1232.27,-68.53 1184.9,-15.49 981.74,-55.02 914.27,-32.53 913.01,-32.11 911.75,-31.62 910.5,-31.09"/>
<polygon fill="red" stroke="red" stroke-width="0.35" points="911.74,-27.79 901.25,-26.31 908.53,-34.01 911.74,-27.79"/>
</g>
<!-- &#45;4&#45;&gt;7 -->
<g id="edge140" class="edge">
<title>&#45;4&#45;&gt;7</title>
<path fill="none" stroke="red" stroke-width="0.45" d="M952.41,-161.82C1054.45,-160.13 1716.82,-148.07 1745.27,-118.02 1760.4,-102.05 1760.25,-84.64 1745.27,-68.53 1698.34,-18.05 1190.26,-16.7 1067.74,-17.12"/>
<polygon fill="red" stroke="red" stroke-width="0.45" points="1067.71,-13.62 1057.72,-17.16 1067.74,-20.62 1067.71,-13.62"/>
</g>
<!-- &#45;4&#45;&gt;161 -->
<g id="edge30" class="edge">
<title>&#45;4&#45;&gt;161</title>
<path fill="none" stroke="red" stroke-width="0.14" d="M925.88,-156.79C923.06,-155.8 920.09,-154.82 917.27,-154.02 839.57,-132.17 813.24,-150.32 739.27,-118.02 737.43,-117.22 735.59,-116.3 733.77,-115.3"/>
<polygon fill="red" stroke="red" stroke-width="0.14" points="735.31,-112.14 724.98,-109.8 731.6,-118.07 735.31,-112.14"/>
</g>
<!-- &#45;4&#45;&gt;162 -->
<g id="edge31" class="edge">
<title>&#45;4&#45;&gt;162</title>
<path fill="none" stroke="red" stroke-width="0.24" d="M926.27,-157.21C923.32,-156.14 920.19,-155.03 917.27,-154.02 868.23,-137.16 852.54,-141.45 806.27,-118.02 804.48,-117.12 802.67,-116.11 800.88,-115.05"/>
<polygon fill="red" stroke="red" stroke-width="0.24" points="802.47,-111.91 792.17,-109.39 798.65,-117.78 802.47,-111.91"/>
</g>
<!-- &#45;4&#45;&gt;163 -->
<g id="edge32" class="edge">
<title>&#45;4&#45;&gt;163</title>
<path fill="none" stroke="red" stroke-width="0.31" d="M926.53,-153.72C913.17,-144.97 891.61,-130.73 873.27,-118.02 871.66,-116.91 870.01,-115.76 868.35,-114.59"/>
<polygon fill="red" stroke="red" stroke-width="0.31" points="870.26,-111.65 860.08,-108.71 866.2,-117.36 870.26,-111.65"/>
</g>
<!-- &#45;4&#45;&gt;164 -->
<g id="edge33" class="edge">
<title>&#45;4&#45;&gt;164</title>
<path fill="none" stroke="red" stroke-width="0.24" d="M935.47,-153.99C932.07,-146.78 926.85,-135.72 921.82,-125.07"/>
<polygon fill="red" stroke="red" stroke-width="0.24" points="924.93,-123.47 917.5,-115.93 918.6,-126.46 924.93,-123.47"/>
</g>
<!-- &#45;4&#45;&gt;165 -->
<g id="edge34" class="edge">
<title>&#45;4&#45;&gt;165</title>
<path fill="none" stroke="green" stroke-width="0.21" d="M943.42,-153.99C947.18,-146.72 952.95,-135.55 958.49,-124.83"/>
<polygon fill="green" stroke="green" stroke-width="0.21" points="961.76,-126.12 963.24,-115.63 955.54,-122.91 961.76,-126.12"/>
</g>
<!-- &#45;4&#45;&gt;166 -->
<g id="edge35" class="edge">
<title>&#45;4&#45;&gt;166</title>
<path fill="none" stroke="green" stroke-width="0.42" d="M952.38,-153.97C966.37,-145.3 989.1,-131.02 1008.27,-118.02 1009.89,-116.93 1011.55,-115.79 1013.22,-114.63"/>
<polygon fill="green" stroke="green" stroke-width="0.42" points="1015.35,-117.4 1021.5,-108.77 1011.32,-111.68 1015.35,-117.4"/>
</g>
<!-- &#45;4&#45;&gt;167 -->
<g id="edge36" class="edge">
<title>&#45;4&#45;&gt;167</title>
<path fill="none" stroke="green" stroke-width="0.33" d="M952.55,-159.18C977.51,-153.53 1032.75,-139.53 1075.27,-118.02 1077.07,-117.12 1078.87,-116.12 1080.66,-115.06"/>
<polygon fill="green" stroke="green" stroke-width="0.33" points="1082.89,-117.78 1089.37,-109.4 1079.08,-111.91 1082.89,-117.78"/>
</g>
<!-- &#45;4&#45;&gt;158 -->
<g id="edge28" class="edge">
<title>&#45;4&#45;&gt;158</title>
<path fill="none" stroke="red" stroke-width="0.54" d="M925.93,-156.61C923.1,-155.62 920.12,-154.7 917.27,-154.02 781.42,-121.95 735.44,-168.41 605.27,-118.02 603.39,-117.3 601.53,-116.44 599.69,-115.49"/>
<polygon fill="red" stroke="red" stroke-width="0.54" points="601.22,-112.32 590.85,-110.12 597.58,-118.3 601.22,-112.32"/>
</g>
<!-- &#45;4&#45;&gt;159 -->
<g id="edge29" class="edge">
<title>&#45;4&#45;&gt;159</title>
<path fill="none" stroke="red" stroke-width="0.42" d="M925.91,-156.68C923.09,-155.69 920.11,-154.74 917.27,-154.02 810.56,-127.08 774.28,-159.34 672.27,-118.02 670.41,-117.27 668.55,-116.39 666.72,-115.42"/>
<polygon fill="red" stroke="red" stroke-width="0.42" points="668.25,-112.25 657.9,-110 664.59,-118.22 668.25,-112.25"/>
</g>
<!-- 161&#45;&gt;0 -->
<g id="edge53" class="edge">
<title>161&#45;&gt;0</title>
<path fill="none" stroke="green" stroke-width="0.16" d="M724.92,-76.6C729.39,-73.5 734.31,-70.57 739.27,-68.53 832.89,-29.91 868.96,-66.75 964.27,-32.53 965.52,-32.08 966.77,-31.57 968.02,-31.02"/>
<polygon fill="green" stroke="green" stroke-width="0.16" points="970.01,-33.93 977.24,-26.19 966.76,-27.73 970.01,-33.93"/>
</g>
<!-- 161&#45;&gt;1 -->
<g id="edge54" class="edge">
<title>161&#45;&gt;1</title>
<path fill="none" stroke="red" stroke-width="0.3" d="M724.99,-76.76C729.46,-73.65 734.36,-70.68 739.27,-68.53 811.57,-36.77 839.57,-60.89 913.27,-32.53 914.51,-32.05 915.75,-31.52 917,-30.95"/>
<polygon fill="red" stroke="red" stroke-width="0.3" points="919.01,-33.84 926.2,-26.06 915.72,-27.66 919.01,-33.84"/>
</g>
<!-- 161&#45;&gt;2 -->
<g id="edge55" class="edge">
<title>161&#45;&gt;2</title>
<path fill="none" stroke="red" stroke-width="0.37" d="M692.6,-72.17C685.5,-61.73 676.83,-48.98 669.63,-38.39"/>
<polygon fill="red" stroke="red" stroke-width="0.37" points="672.52,-36.4 664,-30.1 666.73,-40.34 672.52,-36.4"/>
</g>
<!-- 161&#45;&gt;3 -->
<g id="edge56" class="edge">
<title>161&#45;&gt;3</title>
<path fill="none" stroke="red" stroke-width="0.28" d="M706.27,-68.13C706.27,-60.03 706.27,-50.97 706.27,-42.77"/>
<polygon fill="red" stroke="red" stroke-width="0.28" points="709.77,-42.64 706.27,-32.64 702.77,-42.64 709.77,-42.64"/>
</g>
<!-- 161&#45;&gt;4 -->
<g id="edge57" class="edge">
<title>161&#45;&gt;4</title>
<path fill="none" stroke="red" stroke-width="0.18" d="M719.94,-72.17C727.04,-61.73 735.71,-48.98 742.91,-38.39"/>
<polygon fill="red" stroke="red" stroke-width="0.18" points="745.81,-40.34 748.54,-30.1 740.02,-36.4 745.81,-40.34"/>
</g>
<!-- 161&#45;&gt;5 -->
<g id="edge58" class="edge">
<title>161&#45;&gt;5</title>
<path fill="none" stroke="green" stroke-width="0.46" d="M725.85,-77.49C730.19,-74.41 734.83,-71.27 739.27,-68.53 763.85,-53.36 793.37,-38.32 813.54,-28.5"/>
<polygon fill="green" stroke="green" stroke-width="0.46" points="815.15,-31.61 822.63,-24.11 812.11,-25.3 815.15,-31.61"/>
</g>
<!-- 161&#45;&gt;6 -->
<g id="edge59" class="edge">
<title>161&#45;&gt;6</title>
<path fill="none" stroke="green" stroke-width="0.3" d="M725.12,-77.05C729.58,-73.93 734.45,-70.88 739.27,-68.53 790.45,-43.53 809.98,-55.12 862.27,-32.53 863.49,-32 864.72,-31.43 865.95,-30.83"/>
<polygon fill="green" stroke="green" stroke-width="0.3" points="868,-33.7 875.11,-25.84 864.65,-27.55 868,-33.7"/>
</g>
<!-- 161&#45;&gt;7 -->
<g id="edge60" class="edge">
<title>161&#45;&gt;7</title>
<path fill="none" stroke="red" stroke-width="0.49" d="M724.87,-76.49C729.35,-73.4 734.28,-70.5 739.27,-68.53 854.3,-23.02 898.25,-72.65 1015.27,-32.53 1016.52,-32.1 1017.78,-31.6 1019.04,-31.06"/>
<polygon fill="red" stroke="red" stroke-width="0.49" points="1021.01,-33.98 1028.27,-26.27 1017.78,-27.77 1021.01,-33.98"/>
</g>
<!-- 162&#45;&gt;0 -->
<g id="edge61" class="edge">
<title>162&#45;&gt;0</title>
<path fill="none" stroke="green" stroke-width="0.15" d="M792.02,-76.84C796.49,-73.72 801.38,-70.73 806.27,-68.53 871.92,-38.9 897.32,-59.07 964.27,-32.53 965.5,-32.04 966.74,-31.5 967.98,-30.92"/>
<polygon fill="green" stroke="green" stroke-width="0.15" points="970.01,-33.81 977.18,-26 966.71,-27.63 970.01,-33.81"/>
</g>
<!-- 162&#45;&gt;1 -->
<g id="edge62" class="edge">
<title>162&#45;&gt;1</title>
<path fill="none" stroke="red" stroke-width="1.08" d="M792.19,-77.2C796.65,-74.06 801.5,-70.98 806.27,-68.53 850.91,-45.62 867.62,-53.34 913.27,-32.53 914.45,-31.99 915.64,-31.41 916.84,-30.81"/>
<polygon fill="red" stroke="red" stroke-width="1.08" points="918.71,-33.77 925.79,-25.89 915.34,-27.64 918.71,-33.77"/>
</g>
<!-- 162&#45;&gt;2 -->
<g id="edge63" class="edge">
<title>162&#45;&gt;2</title>
<path fill="none" stroke="red" stroke-width="0.13" d="M753.56,-77.69C749.23,-74.6 744.63,-71.4 740.27,-68.53 728.81,-60.96 698.66,-42.94 677.54,-30.42"/>
<polygon fill="red" stroke="red" stroke-width="0.13" points="679.24,-27.36 668.85,-25.27 675.67,-33.38 679.24,-27.36"/>
</g>
<!-- 162&#45;&gt;3 -->
<g id="edge64" class="edge">
<title>162&#45;&gt;3</title>
<path fill="none" stroke="green" stroke-width="0.28" d="M757.05,-74.12C746.95,-62.81 733.97,-48.28 723.66,-36.74"/>
<polygon fill="green" stroke="green" stroke-width="0.28" points="725.98,-34.07 716.71,-28.95 720.76,-38.74 725.98,-34.07"/>
</g>
<!-- 162&#45;&gt;4 -->
<g id="edge65" class="edge">
<title>162&#45;&gt;4</title>
<path fill="none" stroke="red" stroke-width="0.12" d="M768.3,-68.95C766.5,-60.51 764.46,-50.95 762.63,-42.37"/>
<polygon fill="red" stroke="red" stroke-width="0.12" points="766.03,-41.57 760.52,-32.52 759.19,-43.03 766.03,-41.57"/>
</g>
<!-- 162&#45;&gt;5 -->
<g id="edge66" class="edge">
<title>162&#45;&gt;5</title>
<path fill="none" stroke="green" stroke-width="0.33" d="M789.09,-73.73C798.62,-62.56 810.75,-48.34 820.46,-36.97"/>
<polygon fill="green" stroke="green" stroke-width="0.33" points="823.2,-39.15 827.02,-29.27 817.87,-34.61 823.2,-39.15"/>
</g>
<!-- 162&#45;&gt;6 -->
<g id="edge67" class="edge">
<title>162&#45;&gt;6</title>
<path fill="none" stroke="green" stroke-width="0.24" d="M793.02,-77.75C797.35,-74.65 801.93,-71.44 806.27,-68.53 826.08,-55.23 849.16,-40.9 865.78,-30.78"/>
<polygon fill="green" stroke="green" stroke-width="0.24" points="868.01,-33.52 874.75,-25.35 864.38,-27.53 868.01,-33.52"/>
</g>
<!-- 162&#45;&gt;7 -->
<g id="edge68" class="edge">
<title>162&#45;&gt;7</title>
<path fill="none" stroke="green" stroke-width="0.48" d="M791.94,-76.64C796.41,-73.54 801.32,-70.6 806.27,-68.53 893.19,-32.07 926.75,-64.91 1015.27,-32.53 1016.52,-32.07 1017.77,-31.56 1019.01,-31"/>
<polygon fill="green" stroke="green" stroke-width="0.48" points="1021.01,-33.9 1028.23,-26.15 1017.75,-27.71 1021.01,-33.9"/>
</g>
<!-- 163&#45;&gt;0 -->
<g id="edge69" class="edge">
<title>163&#45;&gt;0</title>
<path fill="none" stroke="green" stroke-width="0.17" d="M859.29,-77.38C863.74,-74.24 868.56,-71.1 873.27,-68.53 911.44,-47.66 925.18,-51.59 964.27,-32.53 965.44,-31.96 966.62,-31.36 967.8,-30.74"/>
<polygon fill="green" stroke="green" stroke-width="0.17" points="969.7,-33.68 976.72,-25.75 966.29,-27.57 969.7,-33.68"/>
</g>
<!-- 163&#45;&gt;1 -->
<g id="edge70" class="edge">
<title>163&#45;&gt;1</title>
<path fill="none" stroke="red" stroke-width="0.32" d="M859.83,-77.46C876.72,-64.66 901.06,-46.21 918.34,-33.12"/>
<polygon fill="red" stroke="red" stroke-width="0.32" points="920.8,-35.65 926.66,-26.82 916.57,-30.07 920.8,-35.65"/>
</g>
<!-- 163&#45;&gt;2 -->
<g id="edge71" class="edge">
<title>163&#45;&gt;2</title>
<path fill="none" stroke="red" stroke-width="0.71" d="M821.43,-77.03C816.97,-73.91 812.1,-70.87 807.27,-68.53 754.85,-43.14 734.81,-55.45 681.27,-32.53 680.05,-32.01 678.82,-31.44 677.59,-30.84"/>
<polygon fill="red" stroke="red" stroke-width="0.71" points="678.88,-27.56 668.43,-25.85 675.54,-33.71 678.88,-27.56"/>
</g>
<!-- 163&#45;&gt;3 -->
<g id="edge72" class="edge">
<title>163&#45;&gt;3</title>
<path fill="none" stroke="green" stroke-width="0.2" d="M820.76,-77.38C816.41,-74.3 811.76,-71.19 807.27,-68.53 775.48,-49.65 764.91,-49.9 732.27,-32.53 731.13,-31.92 729.96,-31.28 728.79,-30.64"/>
<polygon fill="green" stroke="green" stroke-width="0.2" points="730.33,-27.49 719.91,-25.56 726.86,-33.56 730.33,-27.49"/>
</g>
<!-- 163&#45;&gt;4 -->
<g id="edge73" class="edge">
<title>163&#45;&gt;4</title>
<path fill="none" stroke="green" stroke-width="0.23" d="M822.26,-76C808.71,-63.75 790.18,-47 776.37,-34.52"/>
<polygon fill="green" stroke="green" stroke-width="0.23" points="778.62,-31.84 768.86,-27.74 773.93,-37.04 778.62,-31.84"/>
</g>
<!-- 163&#45;&gt;5 -->
<g id="edge74" class="edge">
<title>163&#45;&gt;5</title>
<path fill="none" stroke="red" stroke-width="0.24" d="M839.32,-68.54C839,-60.42 838.63,-51.31 838.3,-43.04"/>
<polygon fill="red" stroke="red" stroke-width="0.24" points="841.79,-42.66 837.89,-32.81 834.79,-42.94 841.79,-42.66"/>
</g>
<!-- 163&#45;&gt;6 -->
<g id="edge75" class="edge">
<title>163&#45;&gt;6</title>
<path fill="none" stroke="red" stroke-width="0.39" d="M853.39,-71.78C859.91,-61.58 867.8,-49.25 874.43,-38.9"/>
<polygon fill="red" stroke="red" stroke-width="0.39" points="877.41,-40.73 879.85,-30.42 871.52,-36.95 877.41,-40.73"/>
</g>
<!-- 163&#45;&gt;7 -->
<g id="edge76" class="edge">
<title>163&#45;&gt;7</title>
<path fill="none" stroke="green" stroke-width="0.22" d="M859.06,-76.92C863.52,-73.81 868.41,-70.79 873.27,-68.53 932.29,-41.03 955.04,-57.25 1015.27,-32.53 1016.5,-32.02 1017.73,-31.47 1018.97,-30.88"/>
<polygon fill="green" stroke="green" stroke-width="0.22" points="1021.01,-33.76 1028.15,-25.94 1017.69,-27.6 1021.01,-33.76"/>
</g>
<!-- 164&#45;&gt;0 -->
<g id="edge77" class="edge">
<title>164&#45;&gt;0</title>
<path fill="none" stroke="green" stroke-width="0.15" d="M925.28,-76C938.83,-63.75 957.36,-47 971.17,-34.52"/>
<polygon fill="green" stroke="green" stroke-width="0.15" points="973.61,-37.04 978.68,-27.74 968.92,-31.84 973.61,-37.04"/>
</g>
<!-- 164&#45;&gt;1 -->
<g id="edge78" class="edge">
<title>164&#45;&gt;1</title>
<path fill="none" stroke="red" stroke-width="0.27" d="M916.7,-70.18C920.6,-61.03 925.13,-50.42 929.1,-41.1"/>
<polygon fill="red" stroke="red" stroke-width="0.27" points="932.43,-42.21 933.14,-31.64 926,-39.46 932.43,-42.21"/>
</g>
<!-- 164&#45;&gt;2 -->
<g id="edge79" class="edge">
<title>164&#45;&gt;2</title>
<path fill="none" stroke="red" stroke-width="0.28" d="M888.58,-76.69C884.12,-73.59 879.2,-70.64 874.27,-68.53 794.04,-34.22 763.01,-63.07 681.27,-32.53 680.03,-32.06 678.78,-31.54 677.54,-30.98"/>
<polygon fill="red" stroke="red" stroke-width="0.28" points="678.8,-27.69 668.32,-26.11 675.53,-33.88 678.8,-27.69"/>
</g>
<!-- 164&#45;&gt;3 -->
<g id="edge80" class="edge">
<title>164&#45;&gt;3</title>
<path fill="none" stroke="green" stroke-width="0.12" d="M888.48,-76.92C884.02,-73.81 879.13,-70.79 874.27,-68.53 815.26,-41.03 792.5,-57.25 732.27,-32.53 731.05,-32.02 729.81,-31.47 728.57,-30.88"/>
<polygon fill="green" stroke="green" stroke-width="0.12" points="729.86,-27.6 719.39,-25.94 726.54,-33.76 729.86,-27.6"/>
</g>
<!-- 164&#45;&gt;4 -->
<g id="edge81" class="edge">
<title>164&#45;&gt;4</title>
<path fill="none" stroke="red" stroke-width="0.16" d="M888.18,-77.51C883.73,-74.36 878.93,-71.18 874.27,-68.53 843.76,-51.12 806.22,-35.63 782.03,-26.35"/>
<polygon fill="red" stroke="red" stroke-width="0.16" points="783.13,-23.02 772.54,-22.76 780.65,-29.57 783.13,-23.02"/>
</g>
<!-- 164&#45;&gt;5 -->
<g id="edge82" class="edge">
<title>164&#45;&gt;5</title>
<path fill="none" stroke="red" stroke-width="0.44" d="M890.68,-74.5C879.91,-62.95 865.88,-47.92 854.9,-36.16"/>
<polygon fill="red" stroke="red" stroke-width="0.44" points="857.25,-33.54 847.87,-28.62 852.13,-38.32 857.25,-33.54"/>
</g>
<!-- 164&#45;&gt;6 -->
<g id="edge83" class="edge">
<title>164&#45;&gt;6</title>
<path fill="none" stroke="red" stroke-width="0.14" d="M901.36,-68.95C899.23,-60.51 896.8,-50.95 894.63,-42.37"/>
<polygon fill="red" stroke="red" stroke-width="0.14" points="897.98,-41.35 892.13,-32.52 891.2,-43.07 897.98,-41.35"/>
</g>
<!-- 164&#45;&gt;7 -->
<g id="edge84" class="edge">
<title>164&#45;&gt;7</title>
<path fill="none" stroke="green" stroke-width="0.63" d="M926.78,-77.38C931.13,-74.3 935.78,-71.19 940.27,-68.53 972.07,-49.65 982.63,-49.9 1015.27,-32.53 1016.41,-31.92 1017.58,-31.28 1018.75,-30.64"/>
<polygon fill="green" stroke="green" stroke-width="0.63" points="1020.69,-33.56 1027.63,-25.56 1017.21,-27.49 1020.69,-33.56"/>
</g>
<!-- 165&#45;&gt;0 -->
<g id="edge85" class="edge">
<title>165&#45;&gt;0</title>
<path fill="none" stroke="green" stroke-width="0.2" d="M979.25,-68.95C981.05,-60.51 983.09,-50.95 984.92,-42.37"/>
<polygon fill="green" stroke="green" stroke-width="0.2" points="988.35,-43.03 987.02,-32.52 981.51,-41.57 988.35,-43.03"/>
</g>
<!-- 165&#45;&gt;1 -->
<g id="edge86" class="edge">
<title>165&#45;&gt;1</title>
<path fill="none" stroke="red" stroke-width="0.18" d="M964.15,-70.58C959.77,-61.2 954.64,-50.21 950.18,-40.65"/>
<polygon fill="red" stroke="red" stroke-width="0.18" points="953.24,-38.92 945.84,-31.34 946.89,-41.88 953.24,-38.92"/>
</g>
<!-- 165&#45;&gt;2 -->
<g id="edge87" class="edge">
<title>165&#45;&gt;2</title>
<path fill="none" stroke="red" stroke-width="0.26" d="M955.66,-76.52C951.18,-73.42 946.25,-70.52 941.27,-68.53 832.96,-25.18 791.47,-70.79 681.27,-32.53 680.02,-32.09 678.76,-31.59 677.51,-31.05"/>
<polygon fill="red" stroke="red" stroke-width="0.26" points="678.76,-27.76 668.28,-26.24 675.53,-33.97 678.76,-27.76"/>
</g>
<!-- 165&#45;&gt;3 -->
<g id="edge88" class="edge">
<title>165&#45;&gt;3</title>
<path fill="none" stroke="green" stroke-width="0.43" d="M955.61,-76.64C951.14,-73.54 946.22,-70.6 941.27,-68.53 854.35,-32.07 820.79,-64.91 732.27,-32.53 731.03,-32.07 729.77,-31.56 728.53,-31"/>
<polygon fill="green" stroke="green" stroke-width="0.43" points="729.79,-27.71 719.31,-26.15 726.53,-33.9 729.79,-27.71"/>
</g>
<!-- 165&#45;&gt;4 -->
<g id="edge89" class="edge">
<title>165&#45;&gt;4</title>
<path fill="none" stroke="red" stroke-width="0.21" d="M955.44,-77.01C950.98,-73.89 946.11,-70.85 941.27,-68.53 940.36,-68.09 832.92,-38.25 782.66,-24.31"/>
<polygon fill="red" stroke="red" stroke-width="0.21" points="783.44,-20.89 772.86,-21.59 781.56,-27.63 783.44,-20.89"/>
</g>
<!-- 165&#45;&gt;5 -->
<g id="edge90" class="edge">
<title>165&#45;&gt;5</title>
<path fill="none" stroke="red" stroke-width="0.14" d="M955.14,-77.57C950.7,-74.42 945.9,-71.23 941.27,-68.53 908.29,-49.29 897.11,-50.21 863.27,-32.53 862.12,-31.93 860.95,-31.3 859.78,-30.66"/>
<polygon fill="red" stroke="red" stroke-width="0.14" points="861.31,-27.5 850.89,-25.6 857.85,-33.59 861.31,-27.5"/>
</g>
<!-- 165&#45;&gt;6 -->
<g id="edge91" class="edge">
<title>165&#45;&gt;6</title>
<path fill="none" stroke="green" stroke-width="0.25" d="M956.03,-76.37C941.94,-64.07 922.45,-47.08 908,-34.47"/>
<polygon fill="green" stroke="green" stroke-width="0.25" points="909.98,-31.56 900.14,-27.62 905.38,-36.83 909.98,-31.56"/>
</g>
<!-- 165&#45;&gt;7 -->
<g id="edge92" class="edge">
<title>165&#45;&gt;7</title>
<path fill="none" stroke="red" stroke-width="0.21" d="M990.49,-74.12C1000.59,-62.81 1013.57,-48.28 1023.88,-36.74"/>
<polygon fill="red" stroke="red" stroke-width="0.21" points="1026.78,-38.74 1030.83,-28.95 1021.56,-34.07 1026.78,-38.74"/>
</g>
<!-- 166&#45;&gt;0 -->
<g id="edge93" class="edge">
<title>166&#45;&gt;0</title>
<path fill="none" stroke="red" stroke-width="0.23" d="M1027.6,-72.17C1020.5,-61.73 1011.83,-48.98 1004.63,-38.39"/>
<polygon fill="red" stroke="red" stroke-width="0.23" points="1007.52,-36.4 999,-30.1 1001.73,-40.34 1007.52,-36.4"/>
</g>
<!-- 166&#45;&gt;1 -->
<g id="edge94" class="edge">
<title>166&#45;&gt;1</title>
<path fill="none" stroke="red" stroke-width="0.47" d="M1021.6,-77.81C1003.99,-64.86 978.24,-45.92 960.24,-32.69"/>
<polygon fill="red" stroke="red" stroke-width="0.47" points="962.23,-29.8 952.1,-26.7 958.08,-35.44 962.23,-29.8"/>
</g>
<!-- 166&#45;&gt;2 -->
<g id="edge95" class="edge">
<title>166&#45;&gt;2</title>
<path fill="none" stroke="red" stroke-width="0.43" d="M1022.7,-76.42C1018.22,-73.32 1013.28,-70.45 1008.27,-68.53 871.78,-16.1 820.05,-78.55 681.27,-32.53 680.01,-32.11 678.75,-31.63 677.49,-31.09"/>
<polygon fill="red" stroke="red" stroke-width="0.43" points="678.74,-27.8 668.25,-26.32 675.53,-34.02 678.74,-27.8"/>
</g>
<!-- 166&#45;&gt;3 -->
<g id="edge96" class="edge">
<title>166&#45;&gt;3</title>
<path fill="none" stroke="green" stroke-width="0.22" d="M1022.67,-76.49C1018.19,-73.4 1013.26,-70.5 1008.27,-68.53 893.24,-23.02 849.29,-72.65 732.27,-32.53 731.02,-32.1 729.76,-31.6 728.51,-31.06"/>
<polygon fill="green" stroke="green" stroke-width="0.22" points="729.76,-27.77 719.27,-26.27 726.53,-33.98 729.76,-27.77"/>
</g>
<!-- 166&#45;&gt;4 -->
<g id="edge97" class="edge">
<title>166&#45;&gt;4</title>
<path fill="none" stroke="green" stroke-width="0.22" d="M1022.59,-76.68C1018.12,-73.58 1013.21,-70.63 1008.27,-68.53 926.79,-33.81 898.58,-52.39 812.27,-32.53 802.45,-30.27 791.75,-27.39 782.42,-24.75"/>
<polygon fill="green" stroke="green" stroke-width="0.22" points="783.17,-21.32 772.59,-21.91 781.22,-28.05 783.17,-21.32"/>
</g>
<!-- 166&#45;&gt;5 -->
<g id="edge98" class="edge">
<title>166&#45;&gt;5</title>
<path fill="none" stroke="green" stroke-width="0.16" d="M1022.49,-76.91C1018.02,-73.79 1013.14,-70.78 1008.27,-68.53 948.01,-40.63 924.76,-57.59 863.27,-32.53 862.04,-32.03 860.81,-31.48 859.57,-30.89"/>
<polygon fill="green" stroke="green" stroke-width="0.16" points="860.85,-27.61 850.39,-25.95 857.54,-33.77 860.85,-27.61"/>
</g>
<!-- 166&#45;&gt;6 -->
<g id="edge99" class="edge">
<title>166&#45;&gt;6</title>
<path fill="none" stroke="red" stroke-width="0.22" d="M1022.27,-77.34C1017.82,-74.2 1012.99,-71.07 1008.27,-68.53 968.9,-47.28 954.59,-51.92 914.27,-32.53 913.1,-31.97 911.92,-31.37 910.73,-30.75"/>
<polygon fill="red" stroke="red" stroke-width="0.22" points="912.24,-27.59 901.8,-25.78 908.83,-33.7 912.24,-27.59"/>
</g>
<!-- 166&#45;&gt;7 -->
<g id="edge100" class="edge">
<title>166&#45;&gt;7</title>
<path fill="none" stroke="red" stroke-width="0.29" d="M1041.27,-68.13C1041.27,-60.03 1041.27,-50.97 1041.27,-42.77"/>
<polygon fill="red" stroke="red" stroke-width="0.29" points="1044.77,-42.64 1041.27,-32.64 1037.77,-42.64 1044.77,-42.64"/>
</g>
<!-- 167&#45;&gt;0 -->
<g id="edge101" class="edge">
<title>167&#45;&gt;0</title>
<path fill="none" stroke="green" stroke-width="0.12" d="M1088.56,-77.69C1084.23,-74.6 1079.63,-71.4 1075.27,-68.53 1063.81,-60.96 1033.66,-42.94 1012.54,-30.42"/>
<polygon fill="green" stroke="green" stroke-width="0.12" points="1014.24,-27.36 1003.85,-25.27 1010.67,-33.38 1014.24,-27.36"/>
</g>
<!-- 167&#45;&gt;1 -->
<g id="edge102" class="edge">
<title>167&#45;&gt;1</title>
<path fill="none" stroke="green" stroke-width="0.34" d="M1089.36,-77.17C1084.9,-74.04 1080.05,-70.96 1075.27,-68.53 1029.41,-45.23 1012.17,-53.67 965.27,-32.53 964.09,-31.99 962.89,-31.42 961.7,-30.82"/>
<polygon fill="green" stroke="green" stroke-width="0.34" points="963.19,-27.65 952.74,-25.91 959.83,-33.79 963.19,-27.65"/>
</g>
<!-- 167&#45;&gt;2 -->
<g id="edge103" class="edge">
<title>167&#45;&gt;2</title>
<path fill="none" stroke="green" stroke-width="0.18" d="M1089.72,-76.35C1085.25,-73.26 1080.3,-70.4 1075.27,-68.53 910.55,-7 848.68,-86.33 681.27,-32.53 680.01,-32.12 678.74,-31.65 677.49,-31.12"/>
<polygon fill="green" stroke="green" stroke-width="0.18" points="678.73,-27.82 668.23,-26.38 675.53,-34.05 678.73,-27.82"/>
</g>
<!-- 167&#45;&gt;3 -->
<g id="edge104" class="edge">
<title>167&#45;&gt;3</title>
<path fill="none" stroke="red" stroke-width="0.31" d="M1089.7,-76.4C1085.23,-73.31 1080.28,-70.44 1075.27,-68.53 932.04,-13.93 877.88,-80.41 732.27,-32.53 731.01,-32.11 729.75,-31.63 728.49,-31.1"/>
<polygon fill="red" stroke="red" stroke-width="0.31" points="729.74,-27.8 719.24,-26.34 726.53,-34.03 729.74,-27.8"/>
</g>
<!-- 167&#45;&gt;4 -->
<g id="edge105" class="edge">
<title>167&#45;&gt;4</title>
<path fill="none" stroke="green" stroke-width="0.44" d="M1089.66,-76.51C1085.19,-73.42 1080.25,-70.52 1075.27,-68.53 965.7,-24.78 927.82,-56.36 812.27,-32.53 802.4,-30.49 791.69,-27.66 782.36,-24.99"/>
<polygon fill="green" stroke="green" stroke-width="0.44" points="783.13,-21.57 772.55,-22.1 781.15,-28.28 783.13,-21.57"/>
</g>
<!-- 167&#45;&gt;5 -->
<g id="edge106" class="edge">
<title>167&#45;&gt;5</title>
<path fill="none" stroke="red" stroke-width="0.4" d="M1089.61,-76.63C1085.14,-73.53 1080.22,-70.6 1075.27,-68.53 987.1,-31.66 953.06,-65.26 863.27,-32.53 862.03,-32.07 860.77,-31.56 859.53,-31"/>
<polygon fill="red" stroke="red" stroke-width="0.4" points="860.79,-27.71 850.31,-26.16 857.53,-33.91 860.79,-27.71"/>
</g>
<!-- 167&#45;&gt;6 -->
<g id="edge107" class="edge">
<title>167&#45;&gt;6</title>
<path fill="none" stroke="red" stroke-width="0.42" d="M1089.53,-76.82C1085.06,-73.71 1080.16,-70.72 1075.27,-68.53 1008.38,-38.5 982.49,-59.41 914.27,-32.53 913.04,-32.04 911.8,-31.5 910.56,-30.93"/>
<polygon fill="red" stroke="red" stroke-width="0.42" points="911.83,-27.64 901.36,-26.02 908.53,-33.81 911.83,-27.64"/>
</g>
<!-- 167&#45;&gt;7 -->
<g id="edge108" class="edge">
<title>167&#45;&gt;7</title>
<path fill="none" stroke="green" stroke-width="0.21" d="M1092.05,-74.12C1081.95,-62.81 1068.97,-48.28 1058.66,-36.74"/>
<polygon fill="green" stroke="green" stroke-width="0.21" points="1060.98,-34.07 1051.71,-28.95 1055.76,-38.74 1060.98,-34.07"/>
</g>
<!-- 158&#45;&gt;0 -->
<g id="edge37" class="edge">
<title>158&#45;&gt;0</title>
<path fill="none" stroke="red" stroke-width="0.32" d="M590.83,-76.38C595.31,-73.29 600.25,-70.43 605.27,-68.53 755.24,-11.76 811.82,-82.27 964.27,-32.53 965.53,-32.12 966.79,-31.64 968.05,-31.11"/>
<polygon fill="red" stroke="red" stroke-width="0.32" points="970.01,-34.04 977.3,-26.35 966.81,-27.81 970.01,-34.04"/>
</g>
<!-- 158&#45;&gt;1 -->
<g id="edge38" class="edge">
<title>158&#45;&gt;1</title>
<path fill="none" stroke="green" stroke-width="0.22" d="M590.85,-76.44C595.33,-73.35 600.27,-70.47 605.27,-68.53 733.76,-18.68 782.6,-76.35 913.27,-32.53 914.53,-32.11 915.79,-31.62 917.04,-31.08"/>
<polygon fill="green" stroke="green" stroke-width="0.22" points="919.01,-34.01 926.29,-26.3 915.8,-27.79 919.01,-34.01"/>
</g>
<!-- 158&#45;&gt;2 -->
<g id="edge39" class="edge">
<title>158&#45;&gt;2</title>
<path fill="none" stroke="green" stroke-width="0.15" d="M590.28,-76C603.83,-63.75 622.36,-47 636.17,-34.52"/>
<polygon fill="green" stroke="green" stroke-width="0.15" points="638.61,-37.04 643.68,-27.74 633.92,-31.84 638.61,-37.04"/>
</g>
<!-- 158&#45;&gt;3 -->
<g id="edge40" class="edge">
<title>158&#45;&gt;3</title>
<path fill="none" stroke="red" stroke-width="0.15" d="M591.78,-77.38C596.13,-74.3 600.78,-71.19 605.27,-68.53 637.07,-49.65 647.63,-49.9 680.27,-32.53 681.41,-31.92 682.58,-31.28 683.75,-30.64"/>
<polygon fill="red" stroke="red" stroke-width="0.15" points="685.69,-33.56 692.63,-25.56 682.21,-27.49 685.69,-33.56"/>
</g>
<!-- 158&#45;&gt;4 -->
<g id="edge41" class="edge">
<title>158&#45;&gt;4</title>
<path fill="none" stroke="green" stroke-width="0.14" d="M591.11,-77.03C595.57,-73.91 600.44,-70.87 605.27,-68.53 657.69,-43.14 677.73,-55.45 731.27,-32.53 732.49,-32.01 733.72,-31.44 734.95,-30.84"/>
<polygon fill="green" stroke="green" stroke-width="0.14" points="737,-33.71 744.11,-25.85 733.66,-27.56 737,-33.71"/>
</g>
<!-- 158&#45;&gt;5 -->
<g id="edge42" class="edge">
<title>158&#45;&gt;5</title>
<path fill="none" stroke="red" stroke-width="0.15" d="M590.98,-76.75C595.45,-73.64 600.36,-70.68 605.27,-68.53 678.82,-36.36 704.21,-51.27 782.27,-32.53 792.07,-30.17 802.77,-27.28 812.1,-24.65"/>
<polygon fill="red" stroke="red" stroke-width="0.15" points="813.29,-27.95 821.94,-21.83 811.36,-21.22 813.29,-27.95"/>
</g>
<!-- 158&#45;&gt;6 -->
<g id="edge43" class="edge">
<title>158&#45;&gt;6</title>
<path fill="none" stroke="red" stroke-width="0.14" d="M590.89,-76.53C595.36,-73.43 600.29,-70.52 605.27,-68.53 712.32,-25.59 753.35,-70.45 862.27,-32.53 863.52,-32.09 864.78,-31.59 866.03,-31.05"/>
<polygon fill="red" stroke="red" stroke-width="0.14" points="868.01,-33.96 875.26,-26.24 864.78,-27.75 868.01,-33.96"/>
</g>
<!-- 158&#45;&gt;7 -->
<g id="edge44" class="edge">
<title>158&#45;&gt;7</title>
<path fill="none" stroke="green" stroke-width="0.44" d="M590.81,-76.33C595.29,-73.25 600.24,-70.4 605.27,-68.53 776.74,-4.83 841.02,-88.19 1015.27,-32.53 1016.53,-32.12 1017.8,-31.65 1019.06,-31.13"/>
<polygon fill="green" stroke="green" stroke-width="0.44" points="1021.01,-34.06 1028.31,-26.39 1017.82,-27.83 1021.01,-34.06"/>
</g>
<!-- 159&#45;&gt;0 -->
<g id="edge45" class="edge">
<title>159&#45;&gt;0</title>
<path fill="none" stroke="green" stroke-width="0.38" d="M657.86,-76.46C662.34,-73.37 667.28,-70.48 672.27,-68.53 794.03,-20.85 840.43,-74.5 964.27,-32.53 965.53,-32.1 966.79,-31.61 968.04,-31.07"/>
<polygon fill="green" stroke="green" stroke-width="0.38" points="970.01,-33.99 977.28,-26.29 966.79,-27.78 970.01,-33.99"/>
</g>
<!-- 159&#45;&gt;1 -->
<g id="edge46" class="edge">
<title>159&#45;&gt;1</title>
<path fill="none" stroke="green" stroke-width="0.37" d="M657.9,-76.56C662.37,-73.46 667.3,-70.55 672.27,-68.53 772.6,-27.75 811.16,-68.6 913.27,-32.53 914.52,-32.09 915.78,-31.58 917.03,-31.03"/>
<polygon fill="green" stroke="green" stroke-width="0.37" points="919.01,-33.95 926.25,-26.21 915.77,-27.74 919.01,-33.95"/>
</g>
<!-- 159&#45;&gt;2 -->
<g id="edge47" class="edge">
<title>159&#45;&gt;2</title>
<path fill="none" stroke="red" stroke-width="0.57" d="M644.25,-68.95C646.05,-60.51 648.09,-50.95 649.92,-42.37"/>
<polygon fill="red" stroke="red" stroke-width="0.57" points="653.35,-43.03 652.02,-32.52 646.51,-41.57 653.35,-43.03"/>
</g>
<!-- 159&#45;&gt;3 -->
<g id="edge48" class="edge">
<title>159&#45;&gt;3</title>
<path fill="none" stroke="green" stroke-width="0.19" d="M655.49,-74.12C665.59,-62.81 678.57,-48.28 688.88,-36.74"/>
<polygon fill="green" stroke="green" stroke-width="0.19" points="691.78,-38.74 695.83,-28.95 686.56,-34.07 691.78,-38.74"/>
</g>
<!-- 159&#45;&gt;4 -->
<g id="edge49" class="edge">
<title>159&#45;&gt;4</title>
<path fill="none" stroke="red" stroke-width="0.34" d="M658.98,-77.69C663.31,-74.6 667.91,-71.4 672.27,-68.53 683.74,-60.96 713.88,-42.94 735,-30.42"/>
<polygon fill="red" stroke="red" stroke-width="0.34" points="736.87,-33.38 743.69,-25.27 733.3,-27.36 736.87,-33.38"/>
</g>
<!-- 159&#45;&gt;5 -->
<g id="edge50" class="edge">
<title>159&#45;&gt;5</title>
<path fill="none" stroke="red" stroke-width="0.18" stroke-dasharray="1,5" d="M658.15,-77.11C662.61,-73.99 667.47,-70.92 672.27,-68.53 684.98,-62.19 769.19,-37.17 812.15,-24.58"/>
<polygon fill="red" stroke="red" stroke-width="0.18" points="813.26,-27.91 821.87,-21.74 811.29,-21.19 813.26,-27.91"/>
</g>
<!-- 159&#45;&gt;6 -->
<g id="edge51" class="edge">
<title>159&#45;&gt;6</title>
<path fill="none" stroke="green" stroke-width="0.13" d="M657.96,-76.7C662.43,-73.6 667.34,-70.64 672.27,-68.53 751.25,-34.62 781.8,-62.73 862.27,-32.53 863.51,-32.06 864.76,-31.54 866,-30.97"/>
<polygon fill="green" stroke="green" stroke-width="0.13" points="868.01,-33.87 875.22,-26.11 864.74,-27.69 868.01,-33.87"/>
</g>
<!-- 159&#45;&gt;7 -->
<g id="edge52" class="edge">
<title>159&#45;&gt;7</title>
<path fill="none" stroke="green" stroke-width="0.35" d="M657.84,-76.4C662.31,-73.31 667.26,-70.44 672.27,-68.53 815.5,-13.93 869.66,-80.41 1015.27,-32.53 1016.53,-32.11 1017.79,-31.63 1019.05,-31.1"/>
<polygon fill="green" stroke="green" stroke-width="0.35" points="1021.01,-34.03 1028.3,-26.34 1017.8,-27.8 1021.01,-34.03"/>
</g>
</g>
</svg>
