<?xml version="1.0" encoding="utf-8" standalone="no"?>
<!DOCTYPE svg PUBLIC "-//W3C//DTD SVG 1.1//EN"
  "http://www.w3.org/Graphics/SVG/1.1/DTD/svg11.dtd">
<svg xmlns:xlink="http://www.w3.org/1999/xlink" width="535.012612pt" height="325.986375pt" viewBox="0 0 535.012612 325.986375" xmlns="http://www.w3.org/2000/svg" version="1.1">
 <metadata>
  <rdf:RDF xmlns:dc="http://purl.org/dc/elements/1.1/" xmlns:cc="http://creativecommons.org/ns#" xmlns:rdf="http://www.w3.org/1999/02/22-rdf-syntax-ns#">
   <cc:Work>
    <dc:type rdf:resource="http://purl.org/dc/dcmitype/StillImage"/>
    <dc:date>2023-06-19T13:23:48.725083</dc:date>
    <dc:format>image/svg+xml</dc:format>
    <dc:creator>
     <cc:Agent>
      <dc:title>Matplotlib v3.6.3, https://matplotlib.org/</dc:title>
     </cc:Agent>
    </dc:creator>
   </cc:Work>
  </rdf:RDF>
 </metadata>
 <defs>
  <style type="text/css">*{stroke-linejoin: round; stroke-linecap: butt}</style>
 </defs>
 <g id="figure_1">
  <g id="patch_1">
   <path d="M 0 325.986375 
L 535.012612 325.986375 
L 535.012612 0 
L 0 0 
z
" style="fill: #ffffff"/>
  </g>
  <g id="axes_1">
   <g id="patch_2">
    <path d="M 58.523438 288.430125 
L 415.643438 288.430125 
L 415.643438 22.318125 
L 58.523438 22.318125 
z
" style="fill: #ffffff"/>
   </g>
   <g id="matplotlib.axis_1">
    <g id="xtick_1">
     <g id="line2d_1">
      <path d="M 74.756165 288.430125 
L 74.756165 22.318125 
" clip-path="url(#pef9d758627)" style="fill: none; stroke: #b0b0b0; stroke-width: 0.8; stroke-linecap: square"/>
     </g>
     <g id="line2d_2">
      <defs>
       <path id="mea8d347469" d="M 0 0 
L 0 3.5 
" style="stroke: #000000; stroke-width: 0.8"/>
      </defs>
      <g>
       <use xlink:href="#mea8d347469" x="74.756165" y="288.430125" style="stroke: #000000; stroke-width: 0.8"/>
      </g>
     </g>
     <g id="text_1">
      <!-- 0 -->
      <g transform="translate(71.574915 303.028562) scale(0.1 -0.1)">
       <defs>
        <path id="DejaVuSans-30" d="M 2034 4250 
Q 1547 4250 1301 3770 
Q 1056 3291 1056 2328 
Q 1056 1369 1301 889 
Q 1547 409 2034 409 
Q 2525 409 2770 889 
Q 3016 1369 3016 2328 
Q 3016 3291 2770 3770 
Q 2525 4250 2034 4250 
z
M 2034 4750 
Q 2819 4750 3233 4129 
Q 3647 3509 3647 2328 
Q 3647 1150 3233 529 
Q 2819 -91 2034 -91 
Q 1250 -91 836 529 
Q 422 1150 422 2328 
Q 422 3509 836 4129 
Q 1250 4750 2034 4750 
z
" transform="scale(0.015625)"/>
       </defs>
       <use xlink:href="#DejaVuSans-30"/>
      </g>
     </g>
    </g>
    <g id="xtick_2">
     <g id="line2d_3">
      <path d="M 116.378542 288.430125 
L 116.378542 22.318125 
" clip-path="url(#pef9d758627)" style="fill: none; stroke: #b0b0b0; stroke-width: 0.8; stroke-linecap: square"/>
     </g>
     <g id="line2d_4">
      <g>
       <use xlink:href="#mea8d347469" x="116.378542" y="288.430125" style="stroke: #000000; stroke-width: 0.8"/>
      </g>
     </g>
     <g id="text_2">
      <!-- 5 -->
      <g transform="translate(113.197292 303.028562) scale(0.1 -0.1)">
       <defs>
        <path id="DejaVuSans-35" d="M 691 4666 
L 3169 4666 
L 3169 4134 
L 1269 4134 
L 1269 2991 
Q 1406 3038 1543 3061 
Q 1681 3084 1819 3084 
Q 2600 3084 3056 2656 
Q 3513 2228 3513 1497 
Q 3513 744 3044 326 
Q 2575 -91 1722 -91 
Q 1428 -91 1123 -41 
Q 819 9 494 109 
L 494 744 
Q 775 591 1075 516 
Q 1375 441 1709 441 
Q 2250 441 2565 725 
Q 2881 1009 2881 1497 
Q 2881 1984 2565 2268 
Q 2250 2553 1709 2553 
Q 1456 2553 1204 2497 
Q 953 2441 691 2322 
L 691 4666 
z
" transform="scale(0.015625)"/>
       </defs>
       <use xlink:href="#DejaVuSans-35"/>
      </g>
     </g>
    </g>
    <g id="xtick_3">
     <g id="line2d_5">
      <path d="M 158.00092 288.430125 
L 158.00092 22.318125 
" clip-path="url(#pef9d758627)" style="fill: none; stroke: #b0b0b0; stroke-width: 0.8; stroke-linecap: square"/>
     </g>
     <g id="line2d_6">
      <g>
       <use xlink:href="#mea8d347469" x="158.00092" y="288.430125" style="stroke: #000000; stroke-width: 0.8"/>
      </g>
     </g>
     <g id="text_3">
      <!-- 10 -->
      <g transform="translate(151.63842 303.028562) scale(0.1 -0.1)">
       <defs>
        <path id="DejaVuSans-31" d="M 794 531 
L 1825 531 
L 1825 4091 
L 703 3866 
L 703 4441 
L 1819 4666 
L 2450 4666 
L 2450 531 
L 3481 531 
L 3481 0 
L 794 0 
L 794 531 
z
" transform="scale(0.015625)"/>
       </defs>
       <use xlink:href="#DejaVuSans-31"/>
       <use xlink:href="#DejaVuSans-30" x="63.623047"/>
      </g>
     </g>
    </g>
    <g id="xtick_4">
     <g id="line2d_7">
      <path d="M 199.623298 288.430125 
L 199.623298 22.318125 
" clip-path="url(#pef9d758627)" style="fill: none; stroke: #b0b0b0; stroke-width: 0.8; stroke-linecap: square"/>
     </g>
     <g id="line2d_8">
      <g>
       <use xlink:href="#mea8d347469" x="199.623298" y="288.430125" style="stroke: #000000; stroke-width: 0.8"/>
      </g>
     </g>
     <g id="text_4">
      <!-- 15 -->
      <g transform="translate(193.260798 303.028562) scale(0.1 -0.1)">
       <use xlink:href="#DejaVuSans-31"/>
       <use xlink:href="#DejaVuSans-35" x="63.623047"/>
      </g>
     </g>
    </g>
    <g id="xtick_5">
     <g id="line2d_9">
      <path d="M 241.245675 288.430125 
L 241.245675 22.318125 
" clip-path="url(#pef9d758627)" style="fill: none; stroke: #b0b0b0; stroke-width: 0.8; stroke-linecap: square"/>
     </g>
     <g id="line2d_10">
      <g>
       <use xlink:href="#mea8d347469" x="241.245675" y="288.430125" style="stroke: #000000; stroke-width: 0.8"/>
      </g>
     </g>
     <g id="text_5">
      <!-- 20 -->
      <g transform="translate(234.883175 303.028562) scale(0.1 -0.1)">
       <defs>
        <path id="DejaVuSans-32" d="M 1228 531 
L 3431 531 
L 3431 0 
L 469 0 
L 469 531 
Q 828 903 1448 1529 
Q 2069 2156 2228 2338 
Q 2531 2678 2651 2914 
Q 2772 3150 2772 3378 
Q 2772 3750 2511 3984 
Q 2250 4219 1831 4219 
Q 1534 4219 1204 4116 
Q 875 4013 500 3803 
L 500 4441 
Q 881 4594 1212 4672 
Q 1544 4750 1819 4750 
Q 2544 4750 2975 4387 
Q 3406 4025 3406 3419 
Q 3406 3131 3298 2873 
Q 3191 2616 2906 2266 
Q 2828 2175 2409 1742 
Q 1991 1309 1228 531 
z
" transform="scale(0.015625)"/>
       </defs>
       <use xlink:href="#DejaVuSans-32"/>
       <use xlink:href="#DejaVuSans-30" x="63.623047"/>
      </g>
     </g>
    </g>
    <g id="xtick_6">
     <g id="line2d_11">
      <path d="M 282.868053 288.430125 
L 282.868053 22.318125 
" clip-path="url(#pef9d758627)" style="fill: none; stroke: #b0b0b0; stroke-width: 0.8; stroke-linecap: square"/>
     </g>
     <g id="line2d_12">
      <g>
       <use xlink:href="#mea8d347469" x="282.868053" y="288.430125" style="stroke: #000000; stroke-width: 0.8"/>
      </g>
     </g>
     <g id="text_6">
      <!-- 25 -->
      <g transform="translate(276.505553 303.028562) scale(0.1 -0.1)">
       <use xlink:href="#DejaVuSans-32"/>
       <use xlink:href="#DejaVuSans-35" x="63.623047"/>
      </g>
     </g>
    </g>
    <g id="xtick_7">
     <g id="line2d_13">
      <path d="M 324.490431 288.430125 
L 324.490431 22.318125 
" clip-path="url(#pef9d758627)" style="fill: none; stroke: #b0b0b0; stroke-width: 0.8; stroke-linecap: square"/>
     </g>
     <g id="line2d_14">
      <g>
       <use xlink:href="#mea8d347469" x="324.490431" y="288.430125" style="stroke: #000000; stroke-width: 0.8"/>
      </g>
     </g>
     <g id="text_7">
      <!-- 30 -->
      <g transform="translate(318.127931 303.028562) scale(0.1 -0.1)">
       <defs>
        <path id="DejaVuSans-33" d="M 2597 2516 
Q 3050 2419 3304 2112 
Q 3559 1806 3559 1356 
Q 3559 666 3084 287 
Q 2609 -91 1734 -91 
Q 1441 -91 1130 -33 
Q 819 25 488 141 
L 488 750 
Q 750 597 1062 519 
Q 1375 441 1716 441 
Q 2309 441 2620 675 
Q 2931 909 2931 1356 
Q 2931 1769 2642 2001 
Q 2353 2234 1838 2234 
L 1294 2234 
L 1294 2753 
L 1863 2753 
Q 2328 2753 2575 2939 
Q 2822 3125 2822 3475 
Q 2822 3834 2567 4026 
Q 2313 4219 1838 4219 
Q 1578 4219 1281 4162 
Q 984 4106 628 3988 
L 628 4550 
Q 988 4650 1302 4700 
Q 1616 4750 1894 4750 
Q 2613 4750 3031 4423 
Q 3450 4097 3450 3541 
Q 3450 3153 3228 2886 
Q 3006 2619 2597 2516 
z
" transform="scale(0.015625)"/>
       </defs>
       <use xlink:href="#DejaVuSans-33"/>
       <use xlink:href="#DejaVuSans-30" x="63.623047"/>
      </g>
     </g>
    </g>
    <g id="xtick_8">
     <g id="line2d_15">
      <path d="M 366.112808 288.430125 
L 366.112808 22.318125 
" clip-path="url(#pef9d758627)" style="fill: none; stroke: #b0b0b0; stroke-width: 0.8; stroke-linecap: square"/>
     </g>
     <g id="line2d_16">
      <g>
       <use xlink:href="#mea8d347469" x="366.112808" y="288.430125" style="stroke: #000000; stroke-width: 0.8"/>
      </g>
     </g>
     <g id="text_8">
      <!-- 35 -->
      <g transform="translate(359.750308 303.028562) scale(0.1 -0.1)">
       <use xlink:href="#DejaVuSans-33"/>
       <use xlink:href="#DejaVuSans-35" x="63.623047"/>
      </g>
     </g>
    </g>
    <g id="xtick_9">
     <g id="line2d_17">
      <path d="M 407.735186 288.430125 
L 407.735186 22.318125 
" clip-path="url(#pef9d758627)" style="fill: none; stroke: #b0b0b0; stroke-width: 0.8; stroke-linecap: square"/>
     </g>
     <g id="line2d_18">
      <g>
       <use xlink:href="#mea8d347469" x="407.735186" y="288.430125" style="stroke: #000000; stroke-width: 0.8"/>
      </g>
     </g>
     <g id="text_9">
      <!-- 40 -->
      <g transform="translate(401.372686 303.028562) scale(0.1 -0.1)">
       <defs>
        <path id="DejaVuSans-34" d="M 2419 4116 
L 825 1625 
L 2419 1625 
L 2419 4116 
z
M 2253 4666 
L 3047 4666 
L 3047 1625 
L 3713 1625 
L 3713 1100 
L 3047 1100 
L 3047 0 
L 2419 0 
L 2419 1100 
L 313 1100 
L 313 1709 
L 2253 4666 
z
" transform="scale(0.015625)"/>
       </defs>
       <use xlink:href="#DejaVuSans-34"/>
       <use xlink:href="#DejaVuSans-30" x="63.623047"/>
      </g>
     </g>
    </g>
    <g id="text_10">
     <!-- Generations -->
     <g transform="translate(206.585781 316.706687) scale(0.1 -0.1)">
      <defs>
       <path id="DejaVuSans-47" d="M 3809 666 
L 3809 1919 
L 2778 1919 
L 2778 2438 
L 4434 2438 
L 4434 434 
Q 4069 175 3628 42 
Q 3188 -91 2688 -91 
Q 1594 -91 976 548 
Q 359 1188 359 2328 
Q 359 3472 976 4111 
Q 1594 4750 2688 4750 
Q 3144 4750 3555 4637 
Q 3966 4525 4313 4306 
L 4313 3634 
Q 3963 3931 3569 4081 
Q 3175 4231 2741 4231 
Q 1884 4231 1454 3753 
Q 1025 3275 1025 2328 
Q 1025 1384 1454 906 
Q 1884 428 2741 428 
Q 3075 428 3337 486 
Q 3600 544 3809 666 
z
" transform="scale(0.015625)"/>
       <path id="DejaVuSans-65" d="M 3597 1894 
L 3597 1613 
L 953 1613 
Q 991 1019 1311 708 
Q 1631 397 2203 397 
Q 2534 397 2845 478 
Q 3156 559 3463 722 
L 3463 178 
Q 3153 47 2828 -22 
Q 2503 -91 2169 -91 
Q 1331 -91 842 396 
Q 353 884 353 1716 
Q 353 2575 817 3079 
Q 1281 3584 2069 3584 
Q 2775 3584 3186 3129 
Q 3597 2675 3597 1894 
z
M 3022 2063 
Q 3016 2534 2758 2815 
Q 2500 3097 2075 3097 
Q 1594 3097 1305 2825 
Q 1016 2553 972 2059 
L 3022 2063 
z
" transform="scale(0.015625)"/>
       <path id="DejaVuSans-6e" d="M 3513 2113 
L 3513 0 
L 2938 0 
L 2938 2094 
Q 2938 2591 2744 2837 
Q 2550 3084 2163 3084 
Q 1697 3084 1428 2787 
Q 1159 2491 1159 1978 
L 1159 0 
L 581 0 
L 581 3500 
L 1159 3500 
L 1159 2956 
Q 1366 3272 1645 3428 
Q 1925 3584 2291 3584 
Q 2894 3584 3203 3211 
Q 3513 2838 3513 2113 
z
" transform="scale(0.015625)"/>
       <path id="DejaVuSans-72" d="M 2631 2963 
Q 2534 3019 2420 3045 
Q 2306 3072 2169 3072 
Q 1681 3072 1420 2755 
Q 1159 2438 1159 1844 
L 1159 0 
L 581 0 
L 581 3500 
L 1159 3500 
L 1159 2956 
Q 1341 3275 1631 3429 
Q 1922 3584 2338 3584 
Q 2397 3584 2469 3576 
Q 2541 3569 2628 3553 
L 2631 2963 
z
" transform="scale(0.015625)"/>
       <path id="DejaVuSans-61" d="M 2194 1759 
Q 1497 1759 1228 1600 
Q 959 1441 959 1056 
Q 959 750 1161 570 
Q 1363 391 1709 391 
Q 2188 391 2477 730 
Q 2766 1069 2766 1631 
L 2766 1759 
L 2194 1759 
z
M 3341 1997 
L 3341 0 
L 2766 0 
L 2766 531 
Q 2569 213 2275 61 
Q 1981 -91 1556 -91 
Q 1019 -91 701 211 
Q 384 513 384 1019 
Q 384 1609 779 1909 
Q 1175 2209 1959 2209 
L 2766 2209 
L 2766 2266 
Q 2766 2663 2505 2880 
Q 2244 3097 1772 3097 
Q 1472 3097 1187 3025 
Q 903 2953 641 2809 
L 641 3341 
Q 956 3463 1253 3523 
Q 1550 3584 1831 3584 
Q 2591 3584 2966 3190 
Q 3341 2797 3341 1997 
z
" transform="scale(0.015625)"/>
       <path id="DejaVuSans-74" d="M 1172 4494 
L 1172 3500 
L 2356 3500 
L 2356 3053 
L 1172 3053 
L 1172 1153 
Q 1172 725 1289 603 
Q 1406 481 1766 481 
L 2356 481 
L 2356 0 
L 1766 0 
Q 1100 0 847 248 
Q 594 497 594 1153 
L 594 3053 
L 172 3053 
L 172 3500 
L 594 3500 
L 594 4494 
L 1172 4494 
z
" transform="scale(0.015625)"/>
       <path id="DejaVuSans-69" d="M 603 3500 
L 1178 3500 
L 1178 0 
L 603 0 
L 603 3500 
z
M 603 4863 
L 1178 4863 
L 1178 4134 
L 603 4134 
L 603 4863 
z
" transform="scale(0.015625)"/>
       <path id="DejaVuSans-6f" d="M 1959 3097 
Q 1497 3097 1228 2736 
Q 959 2375 959 1747 
Q 959 1119 1226 758 
Q 1494 397 1959 397 
Q 2419 397 2687 759 
Q 2956 1122 2956 1747 
Q 2956 2369 2687 2733 
Q 2419 3097 1959 3097 
z
M 1959 3584 
Q 2709 3584 3137 3096 
Q 3566 2609 3566 1747 
Q 3566 888 3137 398 
Q 2709 -91 1959 -91 
Q 1206 -91 779 398 
Q 353 888 353 1747 
Q 353 2609 779 3096 
Q 1206 3584 1959 3584 
z
" transform="scale(0.015625)"/>
       <path id="DejaVuSans-73" d="M 2834 3397 
L 2834 2853 
Q 2591 2978 2328 3040 
Q 2066 3103 1784 3103 
Q 1356 3103 1142 2972 
Q 928 2841 928 2578 
Q 928 2378 1081 2264 
Q 1234 2150 1697 2047 
L 1894 2003 
Q 2506 1872 2764 1633 
Q 3022 1394 3022 966 
Q 3022 478 2636 193 
Q 2250 -91 1575 -91 
Q 1294 -91 989 -36 
Q 684 19 347 128 
L 347 722 
Q 666 556 975 473 
Q 1284 391 1588 391 
Q 1994 391 2212 530 
Q 2431 669 2431 922 
Q 2431 1156 2273 1281 
Q 2116 1406 1581 1522 
L 1381 1569 
Q 847 1681 609 1914 
Q 372 2147 372 2553 
Q 372 3047 722 3315 
Q 1072 3584 1716 3584 
Q 2034 3584 2315 3537 
Q 2597 3491 2834 3397 
z
" transform="scale(0.015625)"/>
      </defs>
      <use xlink:href="#DejaVuSans-47"/>
      <use xlink:href="#DejaVuSans-65" x="77.490234"/>
      <use xlink:href="#DejaVuSans-6e" x="139.013672"/>
      <use xlink:href="#DejaVuSans-65" x="202.392578"/>
      <use xlink:href="#DejaVuSans-72" x="263.916016"/>
      <use xlink:href="#DejaVuSans-61" x="305.029297"/>
      <use xlink:href="#DejaVuSans-74" x="366.308594"/>
      <use xlink:href="#DejaVuSans-69" x="405.517578"/>
      <use xlink:href="#DejaVuSans-6f" x="433.300781"/>
      <use xlink:href="#DejaVuSans-6e" x="494.482422"/>
      <use xlink:href="#DejaVuSans-73" x="557.861328"/>
     </g>
    </g>
   </g>
   <g id="matplotlib.axis_2">
    <g id="ytick_1">
     <g id="line2d_19">
      <path d="M 58.523438 281.788316 
L 415.643438 281.788316 
" clip-path="url(#pef9d758627)" style="fill: none; stroke: #b0b0b0; stroke-width: 0.8; stroke-linecap: square"/>
     </g>
     <g id="line2d_20">
      <defs>
       <path id="m1283c267c2" d="M 0 0 
L -3.5 0 
" style="stroke: #000000; stroke-width: 0.8"/>
      </defs>
      <g>
       <use xlink:href="#m1283c267c2" x="58.523438" y="281.788316" style="stroke: #000000; stroke-width: 0.8"/>
      </g>
     </g>
     <g id="text_11">
      <!-- −0.10 -->
      <g transform="translate(20.878125 285.587535) scale(0.1 -0.1)">
       <defs>
        <path id="DejaVuSans-2212" d="M 678 2272 
L 4684 2272 
L 4684 1741 
L 678 1741 
L 678 2272 
z
" transform="scale(0.015625)"/>
        <path id="DejaVuSans-2e" d="M 684 794 
L 1344 794 
L 1344 0 
L 684 0 
L 684 794 
z
" transform="scale(0.015625)"/>
       </defs>
       <use xlink:href="#DejaVuSans-2212"/>
       <use xlink:href="#DejaVuSans-30" x="83.789062"/>
       <use xlink:href="#DejaVuSans-2e" x="147.412109"/>
       <use xlink:href="#DejaVuSans-31" x="179.199219"/>
       <use xlink:href="#DejaVuSans-30" x="242.822266"/>
      </g>
     </g>
    </g>
    <g id="ytick_2">
     <g id="line2d_21">
      <path d="M 58.523438 239.868077 
L 415.643438 239.868077 
" clip-path="url(#pef9d758627)" style="fill: none; stroke: #b0b0b0; stroke-width: 0.8; stroke-linecap: square"/>
     </g>
     <g id="line2d_22">
      <g>
       <use xlink:href="#m1283c267c2" x="58.523438" y="239.868077" style="stroke: #000000; stroke-width: 0.8"/>
      </g>
     </g>
     <g id="text_12">
      <!-- −0.05 -->
      <g transform="translate(20.878125 243.667296) scale(0.1 -0.1)">
       <use xlink:href="#DejaVuSans-2212"/>
       <use xlink:href="#DejaVuSans-30" x="83.789062"/>
       <use xlink:href="#DejaVuSans-2e" x="147.412109"/>
       <use xlink:href="#DejaVuSans-30" x="179.199219"/>
       <use xlink:href="#DejaVuSans-35" x="242.822266"/>
      </g>
     </g>
    </g>
    <g id="ytick_3">
     <g id="line2d_23">
      <path d="M 58.523438 197.947839 
L 415.643438 197.947839 
" clip-path="url(#pef9d758627)" style="fill: none; stroke: #b0b0b0; stroke-width: 0.8; stroke-linecap: square"/>
     </g>
     <g id="line2d_24">
      <g>
       <use xlink:href="#m1283c267c2" x="58.523438" y="197.947839" style="stroke: #000000; stroke-width: 0.8"/>
      </g>
     </g>
     <g id="text_13">
      <!-- 0.00 -->
      <g transform="translate(29.257813 201.747058) scale(0.1 -0.1)">
       <use xlink:href="#DejaVuSans-30"/>
       <use xlink:href="#DejaVuSans-2e" x="63.623047"/>
       <use xlink:href="#DejaVuSans-30" x="95.410156"/>
       <use xlink:href="#DejaVuSans-30" x="159.033203"/>
      </g>
     </g>
    </g>
    <g id="ytick_4">
     <g id="line2d_25">
      <path d="M 58.523438 156.0276 
L 415.643438 156.0276 
" clip-path="url(#pef9d758627)" style="fill: none; stroke: #b0b0b0; stroke-width: 0.8; stroke-linecap: square"/>
     </g>
     <g id="line2d_26">
      <g>
       <use xlink:href="#m1283c267c2" x="58.523438" y="156.0276" style="stroke: #000000; stroke-width: 0.8"/>
      </g>
     </g>
     <g id="text_14">
      <!-- 0.05 -->
      <g transform="translate(29.257813 159.826819) scale(0.1 -0.1)">
       <use xlink:href="#DejaVuSans-30"/>
       <use xlink:href="#DejaVuSans-2e" x="63.623047"/>
       <use xlink:href="#DejaVuSans-30" x="95.410156"/>
       <use xlink:href="#DejaVuSans-35" x="159.033203"/>
      </g>
     </g>
    </g>
    <g id="ytick_5">
     <g id="line2d_27">
      <path d="M 58.523438 114.107361 
L 415.643438 114.107361 
" clip-path="url(#pef9d758627)" style="fill: none; stroke: #b0b0b0; stroke-width: 0.8; stroke-linecap: square"/>
     </g>
     <g id="line2d_28">
      <g>
       <use xlink:href="#m1283c267c2" x="58.523438" y="114.107361" style="stroke: #000000; stroke-width: 0.8"/>
      </g>
     </g>
     <g id="text_15">
      <!-- 0.10 -->
      <g transform="translate(29.257813 117.90658) scale(0.1 -0.1)">
       <use xlink:href="#DejaVuSans-30"/>
       <use xlink:href="#DejaVuSans-2e" x="63.623047"/>
       <use xlink:href="#DejaVuSans-31" x="95.410156"/>
       <use xlink:href="#DejaVuSans-30" x="159.033203"/>
      </g>
     </g>
    </g>
    <g id="ytick_6">
     <g id="line2d_29">
      <path d="M 58.523438 72.187123 
L 415.643438 72.187123 
" clip-path="url(#pef9d758627)" style="fill: none; stroke: #b0b0b0; stroke-width: 0.8; stroke-linecap: square"/>
     </g>
     <g id="line2d_30">
      <g>
       <use xlink:href="#m1283c267c2" x="58.523438" y="72.187123" style="stroke: #000000; stroke-width: 0.8"/>
      </g>
     </g>
     <g id="text_16">
      <!-- 0.15 -->
      <g transform="translate(29.257813 75.986341) scale(0.1 -0.1)">
       <use xlink:href="#DejaVuSans-30"/>
       <use xlink:href="#DejaVuSans-2e" x="63.623047"/>
       <use xlink:href="#DejaVuSans-31" x="95.410156"/>
       <use xlink:href="#DejaVuSans-35" x="159.033203"/>
      </g>
     </g>
    </g>
    <g id="ytick_7">
     <g id="line2d_31">
      <path d="M 58.523438 30.266884 
L 415.643438 30.266884 
" clip-path="url(#pef9d758627)" style="fill: none; stroke: #b0b0b0; stroke-width: 0.8; stroke-linecap: square"/>
     </g>
     <g id="line2d_32">
      <g>
       <use xlink:href="#m1283c267c2" x="58.523438" y="30.266884" style="stroke: #000000; stroke-width: 0.8"/>
      </g>
     </g>
     <g id="text_17">
      <!-- 0.20 -->
      <g transform="translate(29.257813 34.066103) scale(0.1 -0.1)">
       <use xlink:href="#DejaVuSans-30"/>
       <use xlink:href="#DejaVuSans-2e" x="63.623047"/>
       <use xlink:href="#DejaVuSans-32" x="95.410156"/>
       <use xlink:href="#DejaVuSans-30" x="159.033203"/>
      </g>
     </g>
    </g>
    <g id="text_18">
     <!-- Outputs -->
     <g transform="translate(14.798438 175.346781) rotate(-90) scale(0.1 -0.1)">
      <defs>
       <path id="DejaVuSans-4f" d="M 2522 4238 
Q 1834 4238 1429 3725 
Q 1025 3213 1025 2328 
Q 1025 1447 1429 934 
Q 1834 422 2522 422 
Q 3209 422 3611 934 
Q 4013 1447 4013 2328 
Q 4013 3213 3611 3725 
Q 3209 4238 2522 4238 
z
M 2522 4750 
Q 3503 4750 4090 4092 
Q 4678 3434 4678 2328 
Q 4678 1225 4090 567 
Q 3503 -91 2522 -91 
Q 1538 -91 948 565 
Q 359 1222 359 2328 
Q 359 3434 948 4092 
Q 1538 4750 2522 4750 
z
" transform="scale(0.015625)"/>
       <path id="DejaVuSans-75" d="M 544 1381 
L 544 3500 
L 1119 3500 
L 1119 1403 
Q 1119 906 1312 657 
Q 1506 409 1894 409 
Q 2359 409 2629 706 
Q 2900 1003 2900 1516 
L 2900 3500 
L 3475 3500 
L 3475 0 
L 2900 0 
L 2900 538 
Q 2691 219 2414 64 
Q 2138 -91 1772 -91 
Q 1169 -91 856 284 
Q 544 659 544 1381 
z
M 1991 3584 
L 1991 3584 
z
" transform="scale(0.015625)"/>
       <path id="DejaVuSans-70" d="M 1159 525 
L 1159 -1331 
L 581 -1331 
L 581 3500 
L 1159 3500 
L 1159 2969 
Q 1341 3281 1617 3432 
Q 1894 3584 2278 3584 
Q 2916 3584 3314 3078 
Q 3713 2572 3713 1747 
Q 3713 922 3314 415 
Q 2916 -91 2278 -91 
Q 1894 -91 1617 61 
Q 1341 213 1159 525 
z
M 3116 1747 
Q 3116 2381 2855 2742 
Q 2594 3103 2138 3103 
Q 1681 3103 1420 2742 
Q 1159 2381 1159 1747 
Q 1159 1113 1420 752 
Q 1681 391 2138 391 
Q 2594 391 2855 752 
Q 3116 1113 3116 1747 
z
" transform="scale(0.015625)"/>
      </defs>
      <use xlink:href="#DejaVuSans-4f"/>
      <use xlink:href="#DejaVuSans-75" x="78.710938"/>
      <use xlink:href="#DejaVuSans-74" x="142.089844"/>
      <use xlink:href="#DejaVuSans-70" x="181.298828"/>
      <use xlink:href="#DejaVuSans-75" x="244.775391"/>
      <use xlink:href="#DejaVuSans-74" x="308.154297"/>
      <use xlink:href="#DejaVuSans-73" x="347.363281"/>
     </g>
    </g>
   </g>
   <g id="line2d_33">
    <path d="M 74.756165 171.581216 
L 83.08064 198.072279 
L 91.405116 204.826912 
L 99.729591 204.240039 
L 108.054067 177.997677 
L 116.378542 171.255624 
L 124.703018 163.467965 
L 133.027493 176.154508 
L 141.351969 192.241136 
L 149.676444 181.700854 
L 158.00092 188.96435 
L 166.325396 195.83415 
L 174.649871 167.930554 
L 182.974347 177.546543 
L 191.298822 180.465048 
L 199.623298 181.088955 
L 207.947773 168.91904 
L 216.272249 198.265397 
L 224.596724 176.54575 
L 232.9212 177.009625 
L 241.245675 151.879663 
L 249.570151 181.265026 
L 257.894626 195.706235 
L 266.219102 207.460569 
L 274.543577 185.296275 
L 282.868053 231.774372 
L 291.192528 179.34814 
L 299.517004 222.285572 
L 307.841479 205.919974 
L 316.165955 158.855131 
L 324.490431 212.646311 
L 332.814906 178.422548 
L 341.139382 195.972244 
L 349.463857 207.973245 
L 357.788333 149.50963 
L 366.112808 156.092512 
L 374.437284 149.235156 
L 382.761759 172.353696 
L 391.086235 229.765211 
L 399.41071 199.83125 
" clip-path="url(#pef9d758627)" style="fill: none; stroke: #1f77b4; stroke-width: 1.5; stroke-linecap: square"/>
   </g>
   <g id="line2d_34">
    <path d="M 74.756165 240.603256 
L 83.08064 190.361643 
L 91.405116 174.268797 
L 99.729591 143.619521 
L 108.054067 168.302048 
L 116.378542 121.800261 
L 124.703018 147.198498 
L 133.027493 154.902729 
L 141.351969 153.593347 
L 149.676444 172.213713 
L 158.00092 165.753602 
L 166.325396 140.993535 
L 174.649871 154.162788 
L 182.974347 177.564813 
L 191.298822 163.848771 
L 199.623298 157.277532 
L 207.947773 121.287014 
L 216.272249 140.61636 
L 224.596724 122.553496 
L 232.9212 121.498546 
L 241.245675 126.167744 
L 249.570151 147.537785 
L 257.894626 193.374297 
L 266.219102 176.230502 
L 274.543577 175.439097 
L 282.868053 171.667245 
L 291.192528 200.837641 
L 299.517004 185.111318 
L 307.841479 213.405812 
L 316.165955 177.580079 
L 324.490431 200.875796 
L 332.814906 211.369159 
L 341.139382 174.930019 
L 349.463857 225.408236 
L 357.788333 235.915011 
L 366.112808 192.110967 
L 374.437284 141.57303 
L 382.761759 127.768231 
L 391.086235 168.791228 
L 399.41071 185.135943 
" clip-path="url(#pef9d758627)" style="fill: none; stroke: #ff7f0e; stroke-width: 1.5; stroke-linecap: square"/>
   </g>
   <g id="line2d_35">
    <path d="M 74.756165 205.53187 
L 83.08064 191.060812 
L 91.405116 207.221678 
L 99.729591 187.2869 
L 108.054067 174.898726 
L 116.378542 187.699175 
L 124.703018 167.399907 
L 133.027493 173.140944 
L 141.351969 154.39521 
L 149.676444 156.891457 
L 158.00092 180.422033 
L 166.325396 174.364579 
L 174.649871 187.191705 
L 182.974347 171.034117 
L 191.298822 168.133843 
L 199.623298 182.843675 
L 207.947773 154.786481 
L 216.272249 145.357274 
L 224.596724 117.029116 
L 232.9212 159.133202 
L 241.245675 140.643911 
L 249.570151 125.197606 
L 257.894626 114.590021 
L 266.219102 98.97985 
L 274.543577 69.879476 
L 282.868053 45.158158 
L 291.192528 78.409413 
L 299.517004 85.604164 
L 307.841479 101.597743 
L 316.165955 76.820671 
L 324.490431 59.345505 
L 332.814906 91.208332 
L 341.139382 34.414125 
L 349.463857 71.489132 
L 357.788333 39.611756 
L 366.112808 91.544562 
L 374.437284 76.750066 
L 382.761759 61.483106 
L 391.086235 101.356446 
L 399.41071 107.00754 
" clip-path="url(#pef9d758627)" style="fill: none; stroke: #2ca02c; stroke-width: 1.5; stroke-linecap: square"/>
   </g>
   <g id="line2d_36">
    <path d="M 74.756165 206.250064 
L 83.08064 230.706788 
L 91.405116 223.527545 
L 99.729591 209.587837 
L 108.054067 192.112566 
L 116.378542 214.263476 
L 124.703018 213.554763 
L 133.027493 200.58691 
L 141.351969 221.772492 
L 149.676444 205.707909 
L 158.00092 195.928425 
L 166.325396 196.979452 
L 174.649871 210.995731 
L 182.974347 187.03111 
L 191.298822 193.588401 
L 199.623298 176.791672 
L 207.947773 197.158565 
L 216.272249 191.281428 
L 224.596724 193.478747 
L 232.9212 199.324261 
L 241.245675 203.129953 
L 249.570151 181.309809 
L 257.894626 161.013797 
L 266.219102 141.843502 
L 274.543577 156.313711 
L 282.868053 146.447738 
L 291.192528 140.985347 
L 299.517004 135.781292 
L 307.841479 138.19659 
L 316.165955 141.739747 
L 324.490431 149.150208 
L 332.814906 121.787289 
L 341.139382 150.741674 
L 349.463857 193.355796 
L 357.788333 180.823537 
L 366.112808 178.681097 
L 374.437284 191.56243 
L 382.761759 154.192318 
L 391.086235 151.266825 
L 399.41071 152.336437 
" clip-path="url(#pef9d758627)" style="fill: none; stroke: #d62728; stroke-width: 1.5; stroke-linecap: square"/>
   </g>
   <g id="line2d_37">
    <path d="M 74.756165 189.071366 
L 83.08064 169.865464 
L 91.405116 194.478402 
L 99.729591 161.666926 
L 108.054067 197.208557 
L 116.378542 191.468566 
L 124.703018 181.636101 
L 133.027493 206.034677 
L 141.351969 196.661888 
L 149.676444 199.930238 
L 158.00092 179.098688 
L 166.325396 204.184625 
L 174.649871 191.713236 
L 182.974347 208.598949 
L 191.298822 186.046925 
L 199.623298 190.114835 
L 207.947773 168.895657 
L 216.272249 197.615435 
L 224.596724 204.179279 
L 232.9212 177.145016 
L 241.245675 172.417807 
L 249.570151 219.892674 
L 257.894626 198.565048 
L 266.219102 207.100077 
L 274.543577 227.272137 
L 282.868053 216.323147 
L 291.192528 193.641147 
L 299.517004 179.498122 
L 307.841479 223.986102 
L 316.165955 194.478334 
L 324.490431 180.220963 
L 332.814906 160.819467 
L 341.139382 228.022355 
L 349.463857 221.299771 
L 357.788333 248.043087 
L 366.112808 276.334125 
L 374.437284 199.060614 
L 382.761759 210.172996 
L 391.086235 229.794905 
L 399.41071 239.932163 
" clip-path="url(#pef9d758627)" style="fill: none; stroke: #9467bd; stroke-width: 1.5; stroke-linecap: square"/>
   </g>
   <g id="line2d_38">
    <path d="M 74.756165 172.576997 
L 83.08064 157.818653 
L 91.405116 169.481035 
L 99.729591 168.922405 
L 108.054067 171.424289 
L 116.378542 141.214129 
L 124.703018 155.400394 
L 133.027493 160.840615 
L 141.351969 164.866219 
L 149.676444 144.689017 
L 158.00092 149.609243 
L 166.325396 140.79909 
L 174.649871 151.324715 
L 182.974347 158.367165 
L 191.298822 140.26518 
L 199.623298 156.760816 
L 207.947773 141.815137 
L 216.272249 189.891941 
L 224.596724 183.804648 
L 232.9212 165.777031 
L 241.245675 142.581774 
L 249.570151 161.938316 
L 257.894626 156.495567 
L 266.219102 160.415294 
L 274.543577 143.321669 
L 282.868053 175.843728 
L 291.192528 212.767459 
L 299.517004 154.543327 
L 307.841479 190.472469 
L 316.165955 214.413918 
L 324.490431 163.412542 
L 332.814906 190.993932 
L 341.139382 189.243743 
L 349.463857 150.939117 
L 357.788333 181.599131 
L 366.112808 183.396517 
L 374.437284 170.19771 
L 382.761759 164.582386 
L 391.086235 177.622918 
L 399.41071 153.122218 
" clip-path="url(#pef9d758627)" style="fill: none; stroke: #8c564b; stroke-width: 1.5; stroke-linecap: square"/>
   </g>
   <g id="line2d_39">
    <path d="M 74.756165 122.060448 
L 83.08064 134.371004 
L 91.405116 103.656089 
L 99.729591 96.157956 
L 108.054067 116.995991 
L 116.378542 74.381274 
L 124.703018 85.50397 
L 133.027493 99.955243 
L 141.351969 73.682419 
L 149.676444 105.903195 
L 158.00092 97.649851 
L 166.325396 94.25793 
L 174.649871 70.733037 
L 182.974347 100.805824 
L 191.298822 96.440924 
L 199.623298 104.669757 
L 207.947773 78.239605 
L 216.272249 80.759654 
L 224.596724 109.581777 
L 232.9212 109.807958 
L 241.245675 101.605243 
L 249.570151 100.679504 
L 257.894626 81.348781 
L 266.219102 106.613581 
L 274.543577 124.606883 
L 282.868053 94.791371 
L 291.192528 95.937084 
L 299.517004 91.909408 
L 307.841479 84.35045 
L 316.165955 107.033183 
L 324.490431 74.271223 
L 332.814906 111.316394 
L 341.139382 65.282783 
L 349.463857 37.475536 
L 357.788333 38.370648 
L 366.112808 78.348022 
L 374.437284 64.645889 
L 382.761759 84.721397 
L 391.086235 104.251064 
L 399.41071 147.02281 
" clip-path="url(#pef9d758627)" style="fill: none; stroke: #e377c2; stroke-width: 1.5; stroke-linecap: square"/>
   </g>
   <g id="line2d_40">
    <path d="M 74.756165 187.84764 
L 83.08064 136.828357 
L 91.405116 148.421632 
L 99.729591 133.616924 
L 108.054067 122.103811 
L 116.378542 127.705828 
L 124.703018 108.394629 
L 133.027493 92.339534 
L 141.351969 116.503034 
L 149.676444 92.839919 
L 158.00092 87.816477 
L 166.325396 104.04717 
L 174.649871 81.890758 
L 182.974347 116.89725 
L 191.298822 80.18131 
L 199.623298 112.930857 
L 207.947773 114.996349 
L 216.272249 106.227601 
L 224.596724 80.290273 
L 232.9212 117.65613 
L 241.245675 117.178503 
L 249.570151 116.817888 
L 257.894626 112.252843 
L 266.219102 88.432571 
L 274.543577 120.297461 
L 282.868053 127.108807 
L 291.192528 111.700006 
L 299.517004 124.729981 
L 307.841479 123.433929 
L 316.165955 155.251785 
L 324.490431 132.883167 
L 332.814906 127.455913 
L 341.139382 173.768845 
L 349.463857 144.730252 
L 357.788333 149.949708 
L 366.112808 119.300651 
L 374.437284 141.763326 
L 382.761759 127.603654 
L 391.086235 96.805571 
L 399.41071 131.92194 
" clip-path="url(#pef9d758627)" style="fill: none; stroke: #7f7f7f; stroke-width: 1.5; stroke-linecap: square"/>
   </g>
   <g id="patch_3">
    <path d="M 58.523438 288.430125 
L 58.523438 22.318125 
" style="fill: none; stroke: #000000; stroke-width: 0.8; stroke-linejoin: miter; stroke-linecap: square"/>
   </g>
   <g id="patch_4">
    <path d="M 415.643438 288.430125 
L 415.643438 22.318125 
" style="fill: none; stroke: #000000; stroke-width: 0.8; stroke-linejoin: miter; stroke-linecap: square"/>
   </g>
   <g id="patch_5">
    <path d="M 58.523438 288.430125 
L 415.643438 288.430125 
" style="fill: none; stroke: #000000; stroke-width: 0.8; stroke-linejoin: miter; stroke-linecap: square"/>
   </g>
   <g id="patch_6">
    <path d="M 58.523438 22.318125 
L 415.643438 22.318125 
" style="fill: none; stroke: #000000; stroke-width: 0.8; stroke-linejoin: miter; stroke-linecap: square"/>
   </g>
   <g id="text_19">
    <!-- Average outputs across generations -->
    <g transform="translate(128.820938 16.318125) scale(0.12 -0.12)">
     <defs>
      <path id="DejaVuSans-41" d="M 2188 4044 
L 1331 1722 
L 3047 1722 
L 2188 4044 
z
M 1831 4666 
L 2547 4666 
L 4325 0 
L 3669 0 
L 3244 1197 
L 1141 1197 
L 716 0 
L 50 0 
L 1831 4666 
z
" transform="scale(0.015625)"/>
      <path id="DejaVuSans-76" d="M 191 3500 
L 800 3500 
L 1894 563 
L 2988 3500 
L 3597 3500 
L 2284 0 
L 1503 0 
L 191 3500 
z
" transform="scale(0.015625)"/>
      <path id="DejaVuSans-67" d="M 2906 1791 
Q 2906 2416 2648 2759 
Q 2391 3103 1925 3103 
Q 1463 3103 1205 2759 
Q 947 2416 947 1791 
Q 947 1169 1205 825 
Q 1463 481 1925 481 
Q 2391 481 2648 825 
Q 2906 1169 2906 1791 
z
M 3481 434 
Q 3481 -459 3084 -895 
Q 2688 -1331 1869 -1331 
Q 1566 -1331 1297 -1286 
Q 1028 -1241 775 -1147 
L 775 -588 
Q 1028 -725 1275 -790 
Q 1522 -856 1778 -856 
Q 2344 -856 2625 -561 
Q 2906 -266 2906 331 
L 2906 616 
Q 2728 306 2450 153 
Q 2172 0 1784 0 
Q 1141 0 747 490 
Q 353 981 353 1791 
Q 353 2603 747 3093 
Q 1141 3584 1784 3584 
Q 2172 3584 2450 3431 
Q 2728 3278 2906 2969 
L 2906 3500 
L 3481 3500 
L 3481 434 
z
" transform="scale(0.015625)"/>
      <path id="DejaVuSans-20" transform="scale(0.015625)"/>
      <path id="DejaVuSans-63" d="M 3122 3366 
L 3122 2828 
Q 2878 2963 2633 3030 
Q 2388 3097 2138 3097 
Q 1578 3097 1268 2742 
Q 959 2388 959 1747 
Q 959 1106 1268 751 
Q 1578 397 2138 397 
Q 2388 397 2633 464 
Q 2878 531 3122 666 
L 3122 134 
Q 2881 22 2623 -34 
Q 2366 -91 2075 -91 
Q 1284 -91 818 406 
Q 353 903 353 1747 
Q 353 2603 823 3093 
Q 1294 3584 2113 3584 
Q 2378 3584 2631 3529 
Q 2884 3475 3122 3366 
z
" transform="scale(0.015625)"/>
     </defs>
     <use xlink:href="#DejaVuSans-41"/>
     <use xlink:href="#DejaVuSans-76" x="62.533203"/>
     <use xlink:href="#DejaVuSans-65" x="121.712891"/>
     <use xlink:href="#DejaVuSans-72" x="183.236328"/>
     <use xlink:href="#DejaVuSans-61" x="224.349609"/>
     <use xlink:href="#DejaVuSans-67" x="285.628906"/>
     <use xlink:href="#DejaVuSans-65" x="349.105469"/>
     <use xlink:href="#DejaVuSans-20" x="410.628906"/>
     <use xlink:href="#DejaVuSans-6f" x="442.416016"/>
     <use xlink:href="#DejaVuSans-75" x="503.597656"/>
     <use xlink:href="#DejaVuSans-74" x="566.976562"/>
     <use xlink:href="#DejaVuSans-70" x="606.185547"/>
     <use xlink:href="#DejaVuSans-75" x="669.662109"/>
     <use xlink:href="#DejaVuSans-74" x="733.041016"/>
     <use xlink:href="#DejaVuSans-73" x="772.25"/>
     <use xlink:href="#DejaVuSans-20" x="824.349609"/>
     <use xlink:href="#DejaVuSans-61" x="856.136719"/>
     <use xlink:href="#DejaVuSans-63" x="917.416016"/>
     <use xlink:href="#DejaVuSans-72" x="972.396484"/>
     <use xlink:href="#DejaVuSans-6f" x="1011.259766"/>
     <use xlink:href="#DejaVuSans-73" x="1072.441406"/>
     <use xlink:href="#DejaVuSans-73" x="1124.541016"/>
     <use xlink:href="#DejaVuSans-20" x="1176.640625"/>
     <use xlink:href="#DejaVuSans-67" x="1208.427734"/>
     <use xlink:href="#DejaVuSans-65" x="1271.904297"/>
     <use xlink:href="#DejaVuSans-6e" x="1333.427734"/>
     <use xlink:href="#DejaVuSans-65" x="1396.806641"/>
     <use xlink:href="#DejaVuSans-72" x="1458.330078"/>
     <use xlink:href="#DejaVuSans-61" x="1499.443359"/>
     <use xlink:href="#DejaVuSans-74" x="1560.722656"/>
     <use xlink:href="#DejaVuSans-69" x="1599.931641"/>
     <use xlink:href="#DejaVuSans-6f" x="1627.714844"/>
     <use xlink:href="#DejaVuSans-6e" x="1688.896484"/>
     <use xlink:href="#DejaVuSans-73" x="1752.275391"/>
    </g>
   </g>
   <g id="legend_1">
    <g id="patch_7">
     <path d="M 431.928238 142.743125 
L 525.812613 142.743125 
Q 527.812613 142.743125 527.812613 140.743125 
L 527.812613 24.318125 
Q 527.812613 22.318125 525.812613 22.318125 
L 431.928238 22.318125 
Q 429.928238 22.318125 429.928238 24.318125 
L 429.928238 140.743125 
Q 429.928238 142.743125 431.928238 142.743125 
z
" style="fill: #ffffff; opacity: 0.8; stroke: #cccccc; stroke-linejoin: miter"/>
    </g>
    <g id="line2d_41">
     <path d="M 433.928238 30.416562 
L 443.928238 30.416562 
L 453.928238 30.416562 
" style="fill: none; stroke: #1f77b4; stroke-width: 1.5; stroke-linecap: square"/>
    </g>
    <g id="text_20">
     <!-- output 0 (-) -->
     <g transform="translate(461.928238 33.916562) scale(0.1 -0.1)">
      <defs>
       <path id="DejaVuSans-28" d="M 1984 4856 
Q 1566 4138 1362 3434 
Q 1159 2731 1159 2009 
Q 1159 1288 1364 580 
Q 1569 -128 1984 -844 
L 1484 -844 
Q 1016 -109 783 600 
Q 550 1309 550 2009 
Q 550 2706 781 3412 
Q 1013 4119 1484 4856 
L 1984 4856 
z
" transform="scale(0.015625)"/>
       <path id="DejaVuSans-2d" d="M 313 2009 
L 1997 2009 
L 1997 1497 
L 313 1497 
L 313 2009 
z
" transform="scale(0.015625)"/>
       <path id="DejaVuSans-29" d="M 513 4856 
L 1013 4856 
Q 1481 4119 1714 3412 
Q 1947 2706 1947 2009 
Q 1947 1309 1714 600 
Q 1481 -109 1013 -844 
L 513 -844 
Q 928 -128 1133 580 
Q 1338 1288 1338 2009 
Q 1338 2731 1133 3434 
Q 928 4138 513 4856 
z
" transform="scale(0.015625)"/>
      </defs>
      <use xlink:href="#DejaVuSans-6f"/>
      <use xlink:href="#DejaVuSans-75" x="61.181641"/>
      <use xlink:href="#DejaVuSans-74" x="124.560547"/>
      <use xlink:href="#DejaVuSans-70" x="163.769531"/>
      <use xlink:href="#DejaVuSans-75" x="227.246094"/>
      <use xlink:href="#DejaVuSans-74" x="290.625"/>
      <use xlink:href="#DejaVuSans-20" x="329.833984"/>
      <use xlink:href="#DejaVuSans-30" x="361.621094"/>
      <use xlink:href="#DejaVuSans-20" x="425.244141"/>
      <use xlink:href="#DejaVuSans-28" x="457.03125"/>
      <use xlink:href="#DejaVuSans-2d" x="496.044922"/>
      <use xlink:href="#DejaVuSans-29" x="532.128906"/>
     </g>
    </g>
    <g id="line2d_42">
     <path d="M 433.928238 45.094688 
L 443.928238 45.094688 
L 453.928238 45.094688 
" style="fill: none; stroke: #ff7f0e; stroke-width: 1.5; stroke-linecap: square"/>
    </g>
    <g id="text_21">
     <!-- output 1 (-) -->
     <g transform="translate(461.928238 48.594688) scale(0.1 -0.1)">
      <use xlink:href="#DejaVuSans-6f"/>
      <use xlink:href="#DejaVuSans-75" x="61.181641"/>
      <use xlink:href="#DejaVuSans-74" x="124.560547"/>
      <use xlink:href="#DejaVuSans-70" x="163.769531"/>
      <use xlink:href="#DejaVuSans-75" x="227.246094"/>
      <use xlink:href="#DejaVuSans-74" x="290.625"/>
      <use xlink:href="#DejaVuSans-20" x="329.833984"/>
      <use xlink:href="#DejaVuSans-31" x="361.621094"/>
      <use xlink:href="#DejaVuSans-20" x="425.244141"/>
      <use xlink:href="#DejaVuSans-28" x="457.03125"/>
      <use xlink:href="#DejaVuSans-2d" x="496.044922"/>
      <use xlink:href="#DejaVuSans-29" x="532.128906"/>
     </g>
    </g>
    <g id="line2d_43">
     <path d="M 433.928238 59.772812 
L 443.928238 59.772812 
L 453.928238 59.772812 
" style="fill: none; stroke: #2ca02c; stroke-width: 1.5; stroke-linecap: square"/>
    </g>
    <g id="text_22">
     <!-- output 2 (+) -->
     <g transform="translate(461.928238 63.272812) scale(0.1 -0.1)">
      <defs>
       <path id="DejaVuSans-2b" d="M 2944 4013 
L 2944 2272 
L 4684 2272 
L 4684 1741 
L 2944 1741 
L 2944 0 
L 2419 0 
L 2419 1741 
L 678 1741 
L 678 2272 
L 2419 2272 
L 2419 4013 
L 2944 4013 
z
" transform="scale(0.015625)"/>
      </defs>
      <use xlink:href="#DejaVuSans-6f"/>
      <use xlink:href="#DejaVuSans-75" x="61.181641"/>
      <use xlink:href="#DejaVuSans-74" x="124.560547"/>
      <use xlink:href="#DejaVuSans-70" x="163.769531"/>
      <use xlink:href="#DejaVuSans-75" x="227.246094"/>
      <use xlink:href="#DejaVuSans-74" x="290.625"/>
      <use xlink:href="#DejaVuSans-20" x="329.833984"/>
      <use xlink:href="#DejaVuSans-32" x="361.621094"/>
      <use xlink:href="#DejaVuSans-20" x="425.244141"/>
      <use xlink:href="#DejaVuSans-28" x="457.03125"/>
      <use xlink:href="#DejaVuSans-2b" x="496.044922"/>
      <use xlink:href="#DejaVuSans-29" x="579.833984"/>
     </g>
    </g>
    <g id="line2d_44">
     <path d="M 433.928238 74.450938 
L 443.928238 74.450938 
L 453.928238 74.450938 
" style="fill: none; stroke: #d62728; stroke-width: 1.5; stroke-linecap: square"/>
    </g>
    <g id="text_23">
     <!-- output 3 (+) -->
     <g transform="translate(461.928238 77.950938) scale(0.1 -0.1)">
      <use xlink:href="#DejaVuSans-6f"/>
      <use xlink:href="#DejaVuSans-75" x="61.181641"/>
      <use xlink:href="#DejaVuSans-74" x="124.560547"/>
      <use xlink:href="#DejaVuSans-70" x="163.769531"/>
      <use xlink:href="#DejaVuSans-75" x="227.246094"/>
      <use xlink:href="#DejaVuSans-74" x="290.625"/>
      <use xlink:href="#DejaVuSans-20" x="329.833984"/>
      <use xlink:href="#DejaVuSans-33" x="361.621094"/>
      <use xlink:href="#DejaVuSans-20" x="425.244141"/>
      <use xlink:href="#DejaVuSans-28" x="457.03125"/>
      <use xlink:href="#DejaVuSans-2b" x="496.044922"/>
      <use xlink:href="#DejaVuSans-29" x="579.833984"/>
     </g>
    </g>
    <g id="line2d_45">
     <path d="M 433.928238 89.129063 
L 443.928238 89.129063 
L 453.928238 89.129063 
" style="fill: none; stroke: #9467bd; stroke-width: 1.5; stroke-linecap: square"/>
    </g>
    <g id="text_24">
     <!-- output 4 (-) -->
     <g transform="translate(461.928238 92.629063) scale(0.1 -0.1)">
      <use xlink:href="#DejaVuSans-6f"/>
      <use xlink:href="#DejaVuSans-75" x="61.181641"/>
      <use xlink:href="#DejaVuSans-74" x="124.560547"/>
      <use xlink:href="#DejaVuSans-70" x="163.769531"/>
      <use xlink:href="#DejaVuSans-75" x="227.246094"/>
      <use xlink:href="#DejaVuSans-74" x="290.625"/>
      <use xlink:href="#DejaVuSans-20" x="329.833984"/>
      <use xlink:href="#DejaVuSans-34" x="361.621094"/>
      <use xlink:href="#DejaVuSans-20" x="425.244141"/>
      <use xlink:href="#DejaVuSans-28" x="457.03125"/>
      <use xlink:href="#DejaVuSans-2d" x="496.044922"/>
      <use xlink:href="#DejaVuSans-29" x="532.128906"/>
     </g>
    </g>
    <g id="line2d_46">
     <path d="M 433.928238 103.807187 
L 443.928238 103.807187 
L 453.928238 103.807187 
" style="fill: none; stroke: #8c564b; stroke-width: 1.5; stroke-linecap: square"/>
    </g>
    <g id="text_25">
     <!-- output 5 (-) -->
     <g transform="translate(461.928238 107.307187) scale(0.1 -0.1)">
      <use xlink:href="#DejaVuSans-6f"/>
      <use xlink:href="#DejaVuSans-75" x="61.181641"/>
      <use xlink:href="#DejaVuSans-74" x="124.560547"/>
      <use xlink:href="#DejaVuSans-70" x="163.769531"/>
      <use xlink:href="#DejaVuSans-75" x="227.246094"/>
      <use xlink:href="#DejaVuSans-74" x="290.625"/>
      <use xlink:href="#DejaVuSans-20" x="329.833984"/>
      <use xlink:href="#DejaVuSans-35" x="361.621094"/>
      <use xlink:href="#DejaVuSans-20" x="425.244141"/>
      <use xlink:href="#DejaVuSans-28" x="457.03125"/>
      <use xlink:href="#DejaVuSans-2d" x="496.044922"/>
      <use xlink:href="#DejaVuSans-29" x="532.128906"/>
     </g>
    </g>
    <g id="line2d_47">
     <path d="M 433.928238 118.485312 
L 443.928238 118.485312 
L 453.928238 118.485312 
" style="fill: none; stroke: #e377c2; stroke-width: 1.5; stroke-linecap: square"/>
    </g>
    <g id="text_26">
     <!-- output 6 (+) -->
     <g transform="translate(461.928238 121.985312) scale(0.1 -0.1)">
      <defs>
       <path id="DejaVuSans-36" d="M 2113 2584 
Q 1688 2584 1439 2293 
Q 1191 2003 1191 1497 
Q 1191 994 1439 701 
Q 1688 409 2113 409 
Q 2538 409 2786 701 
Q 3034 994 3034 1497 
Q 3034 2003 2786 2293 
Q 2538 2584 2113 2584 
z
M 3366 4563 
L 3366 3988 
Q 3128 4100 2886 4159 
Q 2644 4219 2406 4219 
Q 1781 4219 1451 3797 
Q 1122 3375 1075 2522 
Q 1259 2794 1537 2939 
Q 1816 3084 2150 3084 
Q 2853 3084 3261 2657 
Q 3669 2231 3669 1497 
Q 3669 778 3244 343 
Q 2819 -91 2113 -91 
Q 1303 -91 875 529 
Q 447 1150 447 2328 
Q 447 3434 972 4092 
Q 1497 4750 2381 4750 
Q 2619 4750 2861 4703 
Q 3103 4656 3366 4563 
z
" transform="scale(0.015625)"/>
      </defs>
      <use xlink:href="#DejaVuSans-6f"/>
      <use xlink:href="#DejaVuSans-75" x="61.181641"/>
      <use xlink:href="#DejaVuSans-74" x="124.560547"/>
      <use xlink:href="#DejaVuSans-70" x="163.769531"/>
      <use xlink:href="#DejaVuSans-75" x="227.246094"/>
      <use xlink:href="#DejaVuSans-74" x="290.625"/>
      <use xlink:href="#DejaVuSans-20" x="329.833984"/>
      <use xlink:href="#DejaVuSans-36" x="361.621094"/>
      <use xlink:href="#DejaVuSans-20" x="425.244141"/>
      <use xlink:href="#DejaVuSans-28" x="457.03125"/>
      <use xlink:href="#DejaVuSans-2b" x="496.044922"/>
      <use xlink:href="#DejaVuSans-29" x="579.833984"/>
     </g>
    </g>
    <g id="line2d_48">
     <path d="M 433.928238 133.163437 
L 443.928238 133.163437 
L 453.928238 133.163437 
" style="fill: none; stroke: #7f7f7f; stroke-width: 1.5; stroke-linecap: square"/>
    </g>
    <g id="text_27">
     <!-- output 7 (+) -->
     <g transform="translate(461.928238 136.663437) scale(0.1 -0.1)">
      <defs>
       <path id="DejaVuSans-37" d="M 525 4666 
L 3525 4666 
L 3525 4397 
L 1831 0 
L 1172 0 
L 2766 4134 
L 525 4134 
L 525 4666 
z
" transform="scale(0.015625)"/>
      </defs>
      <use xlink:href="#DejaVuSans-6f"/>
      <use xlink:href="#DejaVuSans-75" x="61.181641"/>
      <use xlink:href="#DejaVuSans-74" x="124.560547"/>
      <use xlink:href="#DejaVuSans-70" x="163.769531"/>
      <use xlink:href="#DejaVuSans-75" x="227.246094"/>
      <use xlink:href="#DejaVuSans-74" x="290.625"/>
      <use xlink:href="#DejaVuSans-20" x="329.833984"/>
      <use xlink:href="#DejaVuSans-37" x="361.621094"/>
      <use xlink:href="#DejaVuSans-20" x="425.244141"/>
      <use xlink:href="#DejaVuSans-28" x="457.03125"/>
      <use xlink:href="#DejaVuSans-2b" x="496.044922"/>
      <use xlink:href="#DejaVuSans-29" x="579.833984"/>
     </g>
    </g>
   </g>
  </g>
 </g>
 <defs>
  <clipPath id="pef9d758627">
   <rect x="58.523438" y="22.318125" width="357.12" height="266.112"/>
  </clipPath>
 </defs>
</svg>
