<?xml version="1.0" encoding="UTF-8" standalone="no"?>
<!DOCTYPE svg PUBLIC "-//W3C//DTD SVG 1.1//EN"
 "http://www.w3.org/Graphics/SVG/1.1/DTD/svg11.dtd">
<!-- Generated by graphviz version 2.44.0 (0)
 -->
<!-- Pages: 1 -->
<svg width="1664pt" height="266pt"
 viewBox="0.00 0.00 1664.00 265.52" xmlns="http://www.w3.org/2000/svg" xmlns:xlink="http://www.w3.org/1999/xlink">
<g id="graph0" class="graph" transform="scale(1 1) rotate(0) translate(4 261.52)">
<polygon fill="white" stroke="transparent" points="-4,4 -4,-261.52 1660,-261.52 1660,4 -4,4"/>
<!-- &#45;1 -->
<g id="node1" class="node">
<title>&#45;1</title>
<polygon fill="lightgray" stroke="black" points="768.17,-187.77 742.17,-187.77 742.17,-169.77 768.17,-169.77 768.17,-187.77"/>
<text text-anchor="middle" x="755.17" y="-176.57" font-family="Times-Roman" font-size="9.00">&#45;1</text>
</g>
<!-- 0 -->
<g id="node5" class="node">
<title>0</title>
<ellipse fill="lightblue" stroke="black" cx="537.17" cy="-16.26" rx="16.03" ry="16.03"/>
<text text-anchor="middle" x="537.17" y="-14.06" font-family="Times-Roman" font-size="9.00">0</text>
</g>
<!-- &#45;1&#45;&gt;0 -->
<g id="edge120" class="edge">
<title>&#45;1&#45;&gt;0</title>
<path fill="none" stroke="green" stroke-width="0.62" d="M741.72,-171.12C729.8,-165.55 711.75,-157.91 695.17,-154.02 648.17,-143.02 294.87,-153.55 262.17,-118.02 188.69,-38.18 428.85,-21.43 510.78,-18.07"/>
<polygon fill="green" stroke="green" stroke-width="0.62" points="510.95,-21.57 520.81,-17.7 510.69,-14.57 510.95,-21.57"/>
</g>
<!-- 1 -->
<g id="node6" class="node">
<title>1</title>
<ellipse fill="lightblue" stroke="black" cx="588.17" cy="-16.26" rx="16.03" ry="16.03"/>
<text text-anchor="middle" x="588.17" y="-14.06" font-family="Times-Roman" font-size="9.00">1</text>
</g>
<!-- &#45;1&#45;&gt;1 -->
<g id="edge121" class="edge">
<title>&#45;1&#45;&gt;1</title>
<path fill="none" stroke="red" stroke-width="0.27" d="M741.72,-171.13C729.79,-165.57 711.75,-157.93 695.17,-154.02 649.8,-143.33 308.69,-152.37 277.17,-118.02 262.3,-101.82 262.62,-85.03 277.17,-68.53 319.39,-20.64 501.74,-53.11 562.17,-32.53 563.43,-32.1 564.69,-31.61 565.94,-31.07"/>
<polygon fill="red" stroke="red" stroke-width="0.27" points="567.91,-33.99 575.18,-26.28 564.69,-27.77 567.91,-33.99"/>
</g>
<!-- 2 -->
<g id="node7" class="node">
<title>2</title>
<ellipse fill="lightblue" stroke="black" cx="909.17" cy="-16.26" rx="16.03" ry="16.03"/>
<text text-anchor="middle" x="909.17" y="-14.06" font-family="Times-Roman" font-size="9.00">2</text>
</g>
<!-- &#45;1&#45;&gt;2 -->
<g id="edge122" class="edge">
<title>&#45;1&#45;&gt;2</title>
<path fill="none" stroke="green" stroke-width="0.34" d="M768.35,-173.84C787.03,-168.42 822.38,-158.81 853.17,-154.02 908.98,-145.34 1321.68,-159.35 1360.17,-118.02 1375.17,-101.93 1375.06,-84.73 1360.17,-68.53 1296.04,1.27 1025.5,-61.23 935.17,-32.53 933.91,-32.13 932.64,-31.65 931.38,-31.13"/>
<polygon fill="green" stroke="green" stroke-width="0.34" points="932.63,-27.83 922.13,-26.39 929.44,-34.07 932.63,-27.83"/>
</g>
<!-- 3 -->
<g id="node8" class="node">
<title>3</title>
<ellipse fill="lightblue" stroke="black" cx="960.17" cy="-16.26" rx="16.03" ry="16.03"/>
<text text-anchor="middle" x="960.17" y="-14.06" font-family="Times-Roman" font-size="9.00">3</text>
</g>
<!-- &#45;1&#45;&gt;3 -->
<g id="edge123" class="edge">
<title>&#45;1&#45;&gt;3</title>
<path fill="none" stroke="red" stroke-width="0.21" d="M768.34,-173.77C787.01,-168.27 822.34,-158.56 853.17,-154.02 925.72,-143.34 1461.75,-171.27 1512.17,-118.02 1527.3,-102.05 1526.99,-84.79 1512.17,-68.53 1476.4,-29.28 1092.08,-19.6 986.74,-17.68"/>
<polygon fill="red" stroke="red" stroke-width="0.21" points="986.69,-14.18 976.63,-17.5 986.57,-21.18 986.69,-14.18"/>
</g>
<!-- 4 -->
<g id="node9" class="node">
<title>4</title>
<ellipse fill="lightblue" stroke="black" cx="709.17" cy="-16.26" rx="16.03" ry="16.03"/>
<text text-anchor="middle" x="709.17" y="-14.06" font-family="Times-Roman" font-size="9.00">4</text>
</g>
<!-- &#45;1&#45;&gt;4 -->
<g id="edge124" class="edge">
<title>&#45;1&#45;&gt;4</title>
<path fill="none" stroke="green" stroke-width="0.29" d="M742.12,-171.6C730.16,-166.19 711.83,-158.5 695.17,-154.02 642.88,-139.97 489.52,-159.05 454.17,-118.02 439.81,-101.36 439.99,-85.35 454.17,-68.53 484.69,-32.33 618.28,-44.17 664.17,-32.53 670.78,-30.85 677.82,-28.66 684.32,-26.47"/>
<polygon fill="green" stroke="green" stroke-width="0.29" points="685.66,-29.71 693.94,-23.1 683.35,-23.1 685.66,-29.71"/>
</g>
<!-- 5 -->
<g id="node10" class="node">
<title>5</title>
<ellipse fill="lightblue" stroke="black" cx="639.17" cy="-16.26" rx="16.03" ry="16.03"/>
<text text-anchor="middle" x="639.17" y="-14.06" font-family="Times-Roman" font-size="9.00">5</text>
</g>
<!-- &#45;1&#45;&gt;5 -->
<g id="edge125" class="edge">
<title>&#45;1&#45;&gt;5</title>
<path fill="none" stroke="green" stroke-width="0.28" d="M742.17,-171.42C730.24,-165.89 711.93,-158.13 695.17,-154.02 619.87,-135.59 400.09,-175.6 348.17,-118.02 333.44,-101.69 333.7,-85.1 348.17,-68.53 387.27,-23.76 557.01,-51.95 613.17,-32.53 614.43,-32.09 615.68,-31.6 616.94,-31.05"/>
<polygon fill="green" stroke="green" stroke-width="0.28" points="618.91,-33.97 626.17,-26.25 615.68,-27.76 618.91,-33.97"/>
</g>
<!-- 6 -->
<g id="node11" class="node">
<title>6</title>
<ellipse fill="lightblue" stroke="black" cx="799.17" cy="-16.26" rx="16.03" ry="16.03"/>
<text text-anchor="middle" x="799.17" y="-14.06" font-family="Times-Roman" font-size="9.00">6</text>
</g>
<!-- &#45;1&#45;&gt;6 -->
<g id="edge126" class="edge">
<title>&#45;1&#45;&gt;6</title>
<path fill="none" stroke="red" stroke-width="0.24" d="M768.4,-174.14C787.14,-169.08 822.57,-159.89 853.17,-154.02 909.16,-143.3 1069.8,-161.07 1107.17,-118.02 1121.6,-101.41 1121.68,-85.06 1107.17,-68.53 1066.68,-22.36 892.26,-49.28 833.17,-32.53 829.71,-31.54 826.14,-30.27 822.68,-28.87"/>
<polygon fill="red" stroke="red" stroke-width="0.24" points="823.95,-25.6 813.38,-24.76 821.11,-32 823.95,-25.6"/>
</g>
<!-- 7 -->
<g id="node12" class="node">
<title>7</title>
<ellipse fill="lightblue" stroke="black" cx="858.17" cy="-16.26" rx="16.03" ry="16.03"/>
<text text-anchor="middle" x="858.17" y="-14.06" font-family="Times-Roman" font-size="9.00">7</text>
</g>
<!-- &#45;1&#45;&gt;7 -->
<g id="edge127" class="edge">
<title>&#45;1&#45;&gt;7</title>
<path fill="none" stroke="red" stroke-width="1.01" d="M768.37,-173.96C787.07,-168.69 822.45,-159.26 853.17,-154.02 932.43,-140.52 1159.22,-177.64 1213.17,-118.02 1227.93,-101.71 1227.86,-84.91 1213.17,-68.53 1164.08,-13.77 953.99,-55.66 884.17,-32.53 882.92,-32.11 881.65,-31.63 880.4,-31.09"/>
<polygon fill="red" stroke="red" stroke-width="1.01" points="881.64,-27.8 871.15,-26.33 878.43,-34.02 881.64,-27.8"/>
</g>
<!-- 458 -->
<g id="node14" class="node">
<title>458</title>
<ellipse fill="white" stroke="black" cx="1073.17" cy="-93.28" rx="25" ry="25"/>
<text text-anchor="middle" x="1073.17" y="-91.08" font-family="Times-Roman" font-size="9.00">458</text>
</g>
<!-- &#45;1&#45;&gt;458 -->
<g id="edge1" class="edge">
<title>&#45;1&#45;&gt;458</title>
<path fill="none" stroke="green" stroke-width="0.27" d="M768.35,-174.55C815.42,-163.04 973.59,-124.3 996.17,-118.02 1010.57,-114.02 1026.35,-109.23 1039.86,-105"/>
<polygon fill="green" stroke="green" stroke-width="0.27" points="1041.2,-108.24 1049.68,-101.9 1039.09,-101.57 1041.2,-108.24"/>
</g>
<!-- 459 -->
<g id="node15" class="node">
<title>459</title>
<ellipse fill="white" stroke="black" cx="488.17" cy="-93.28" rx="25" ry="25"/>
<text text-anchor="middle" x="488.17" y="-91.08" font-family="Times-Roman" font-size="9.00">459</text>
</g>
<!-- &#45;1&#45;&gt;459 -->
<g id="edge2" class="edge">
<title>&#45;1&#45;&gt;459</title>
<path fill="none" stroke="red" stroke-width="0.11" d="M742.06,-171.82C730.06,-166.56 711.7,-158.97 695.17,-154.02 619.51,-131.41 593.48,-149.79 521.17,-118.02 519.33,-117.22 517.49,-116.29 515.67,-115.29"/>
<polygon fill="red" stroke="red" stroke-width="0.11" points="517.22,-112.13 506.89,-109.79 513.51,-118.06 517.22,-112.13"/>
</g>
<!-- 460 -->
<g id="node16" class="node">
<title>460</title>
<ellipse fill="white" stroke="black" cx="622.17" cy="-93.28" rx="25" ry="25"/>
<text text-anchor="middle" x="622.17" y="-91.08" font-family="Times-Roman" font-size="9.00">460</text>
</g>
<!-- &#45;1&#45;&gt;460 -->
<g id="edge3" class="edge">
<title>&#45;1&#45;&gt;460</title>
<path fill="none" stroke="red" stroke-width="0.34" d="M742.42,-169.77C721.65,-156.73 679.99,-130.58 651.59,-112.75"/>
<polygon fill="red" stroke="red" stroke-width="0.34" points="653.21,-109.63 642.88,-107.28 649.49,-115.56 653.21,-109.63"/>
</g>
<!-- 461 -->
<g id="node17" class="node">
<title>461</title>
<ellipse fill="white" stroke="black" cx="728.17" cy="-93.28" rx="25" ry="25"/>
<text text-anchor="middle" x="728.17" y="-91.08" font-family="Times-Roman" font-size="9.00">461</text>
</g>
<!-- &#45;1&#45;&gt;461 -->
<g id="edge4" class="edge">
<title>&#45;1&#45;&gt;461</title>
<path fill="none" stroke="green" stroke-width="0.23" d="M752.58,-169.77C749.4,-159.92 743.8,-142.6 738.77,-127.03"/>
<polygon fill="green" stroke="green" stroke-width="0.23" points="741.98,-125.59 735.57,-117.15 735.32,-127.74 741.98,-125.59"/>
</g>
<!-- 462 -->
<g id="node18" class="node">
<title>462</title>
<ellipse fill="white" stroke="black" cx="929.17" cy="-93.28" rx="25" ry="25"/>
<text text-anchor="middle" x="929.17" y="-91.08" font-family="Times-Roman" font-size="9.00">462</text>
</g>
<!-- &#45;1&#45;&gt;462 -->
<g id="edge5" class="edge">
<title>&#45;1&#45;&gt;462</title>
<path fill="none" stroke="green" stroke-width="0.36" d="M768.46,-173.27C794.02,-164.36 851.45,-143.18 896.17,-118.02 897.93,-117.04 899.7,-115.98 901.46,-114.87"/>
<polygon fill="green" stroke="green" stroke-width="0.36" points="903.74,-117.56 910.11,-109.09 899.85,-111.74 903.74,-117.56"/>
</g>
<!-- 463 -->
<g id="node19" class="node">
<title>463</title>
<ellipse fill="white" stroke="black" cx="795.17" cy="-93.28" rx="25" ry="25"/>
<text text-anchor="middle" x="795.17" y="-91.08" font-family="Times-Roman" font-size="9.00">463</text>
</g>
<!-- &#45;1&#45;&gt;463 -->
<g id="edge6" class="edge">
<title>&#45;1&#45;&gt;463</title>
<path fill="none" stroke="red" stroke-width="0.33" d="M759.01,-169.77C763.91,-159.53 772.69,-141.21 780.37,-125.18"/>
<polygon fill="red" stroke="red" stroke-width="0.33" points="783.56,-126.62 784.72,-116.09 777.25,-123.59 783.56,-126.62"/>
</g>
<!-- 464 -->
<g id="node20" class="node">
<title>464</title>
<ellipse fill="white" stroke="black" cx="382.17" cy="-93.28" rx="25" ry="25"/>
<text text-anchor="middle" x="382.17" y="-91.08" font-family="Times-Roman" font-size="9.00">464</text>
</g>
<!-- &#45;1&#45;&gt;464 -->
<g id="edge7" class="edge">
<title>&#45;1&#45;&gt;464</title>
<path fill="none" stroke="green" stroke-width="0.38" d="M742.14,-171.53C730.19,-166.07 711.87,-158.36 695.17,-154.02 576.28,-123.19 537.02,-158.85 421.17,-118.02 417.68,-116.79 414.16,-115.22 410.74,-113.47"/>
<polygon fill="green" stroke="green" stroke-width="0.38" points="412.44,-110.41 402.02,-108.54 409,-116.51 412.44,-110.41"/>
</g>
<!-- 465 -->
<g id="node21" class="node">
<title>465</title>
<ellipse fill="white" stroke="black" cx="555.17" cy="-93.28" rx="25" ry="25"/>
<text text-anchor="middle" x="555.17" y="-91.08" font-family="Times-Roman" font-size="9.00">465</text>
</g>
<!-- &#45;1&#45;&gt;465 -->
<g id="edge8" class="edge">
<title>&#45;1&#45;&gt;465</title>
<path fill="none" stroke="green" stroke-width="0.5" d="M741.9,-172.29C729.8,-167.34 711.38,-159.95 695.17,-154.02 648.05,-136.79 632.81,-140.93 588.17,-118.02 586.38,-117.11 584.58,-116.1 582.8,-115.03"/>
<polygon fill="green" stroke="green" stroke-width="0.5" points="584.38,-111.89 574.1,-109.35 580.56,-117.75 584.38,-111.89"/>
</g>
<!-- 466 -->
<g id="node22" class="node">
<title>466</title>
<ellipse fill="white" stroke="black" cx="862.17" cy="-93.28" rx="25" ry="25"/>
<text text-anchor="middle" x="862.17" y="-91.08" font-family="Times-Roman" font-size="9.00">466</text>
</g>
<!-- &#45;1&#45;&gt;466 -->
<g id="edge9" class="edge">
<title>&#45;1&#45;&gt;466</title>
<path fill="none" stroke="green" stroke-width="0.19" d="M765.43,-169.77C781.27,-157.41 812.21,-133.26 834.85,-115.59"/>
<polygon fill="green" stroke="green" stroke-width="0.19" points="837.05,-118.32 842.78,-109.41 832.74,-112.8 837.05,-118.32"/>
</g>
<!-- 467 -->
<g id="node23" class="node">
<title>467</title>
<ellipse fill="white" stroke="black" cx="1179.17" cy="-93.28" rx="25" ry="25"/>
<text text-anchor="middle" x="1179.17" y="-91.08" font-family="Times-Roman" font-size="9.00">467</text>
</g>
<!-- &#45;1&#45;&gt;467 -->
<g id="edge10" class="edge">
<title>&#45;1&#45;&gt;467</title>
<path fill="none" stroke="red" stroke-width="0.12" d="M768.39,-174.07C787.12,-168.93 822.52,-159.64 853.17,-154.02 979.62,-130.85 1018.8,-160.4 1140.17,-118.02 1143.67,-116.8 1147.19,-115.24 1150.61,-113.49"/>
<polygon fill="red" stroke="red" stroke-width="0.12" points="1152.35,-116.53 1159.34,-108.56 1148.91,-110.43 1152.35,-116.53"/>
</g>
<!-- &#45;2 -->
<g id="node2" class="node">
<title>&#45;2</title>
<polygon fill="lightgray" stroke="black" points="727.17,-257.52 701.17,-257.52 701.17,-239.52 727.17,-239.52 727.17,-257.52"/>
<text text-anchor="middle" x="714.17" y="-246.32" font-family="Times-Roman" font-size="9.00">&#45;2</text>
</g>
<!-- &#45;2&#45;&gt;0 -->
<g id="edge128" class="edge">
<title>&#45;2&#45;&gt;0</title>
<path fill="none" stroke="green" stroke-width="0.16" d="M701.12,-247.22C631.5,-245.46 305.84,-235.55 276.17,-203.52 235.4,-159.5 236.02,-114.84 274.17,-68.53 303.97,-32.36 449.74,-21.37 510.51,-18.33"/>
<polygon fill="green" stroke="green" stroke-width="0.16" points="510.99,-21.81 520.81,-17.85 510.66,-14.82 510.99,-21.81"/>
</g>
<!-- &#45;2&#45;&gt;1 -->
<g id="edge129" class="edge">
<title>&#45;2&#45;&gt;1</title>
<path fill="none" stroke="green" stroke-width="0.2" d="M700.91,-247.05C634.39,-244.57 339.2,-231.98 311.17,-203.52 269,-160.7 263.71,-113.86 303.17,-68.53 341.33,-24.7 507.28,-51.6 562.17,-32.53 563.42,-32.09 564.68,-31.59 565.93,-31.05"/>
<polygon fill="green" stroke="green" stroke-width="0.2" points="567.91,-33.97 575.17,-26.24 564.68,-27.76 567.91,-33.97"/>
</g>
<!-- &#45;2&#45;&gt;2 -->
<g id="edge130" class="edge">
<title>&#45;2&#45;&gt;2</title>
<path fill="none" stroke="red" stroke-width="0.5" d="M727.59,-247.41C797.93,-246.64 1124.57,-241.08 1217.17,-203.52 1272.94,-180.9 1296.34,-172.38 1322.17,-118.02 1331.62,-98.16 1336.99,-84.79 1322.17,-68.53 1264,-4.69 1017.38,-59.02 935.17,-32.53 933.91,-32.12 932.65,-31.65 931.39,-31.12"/>
<polygon fill="red" stroke="red" stroke-width="0.5" points="932.63,-27.82 922.14,-26.37 929.44,-34.05 932.63,-27.82"/>
</g>
<!-- &#45;2&#45;&gt;3 -->
<g id="edge131" class="edge">
<title>&#45;2&#45;&gt;3</title>
<path fill="none" stroke="green" stroke-width="0.21" d="M727.23,-247.2C788.79,-245.53 1056.05,-236.63 1272.17,-203.52 1440.29,-177.77 1539.19,-251.04 1645.17,-118.02 1658.88,-100.82 1660.14,-84.65 1645.17,-68.53 1599.65,-19.47 1107.21,-17.03 986.68,-17.17"/>
<polygon fill="green" stroke="green" stroke-width="0.21" points="986.5,-13.67 976.5,-17.19 986.51,-20.67 986.5,-13.67"/>
</g>
<!-- &#45;2&#45;&gt;4 -->
<g id="edge132" class="edge">
<title>&#45;2&#45;&gt;4</title>
<path fill="none" stroke="green" stroke-width="0.16" d="M700.93,-247.06C647.6,-244.98 448.98,-235.21 396.17,-203.52 339.56,-169.55 290.09,-117.68 334.17,-68.53 383.43,-13.61 592.15,-48.47 664.17,-32.53 670.94,-31.03 678.11,-28.87 684.69,-26.65"/>
<polygon fill="green" stroke="green" stroke-width="0.16" points="686.16,-29.84 694.41,-23.18 683.81,-23.25 686.16,-29.84"/>
</g>
<!-- &#45;2&#45;&gt;5 -->
<g id="edge133" class="edge">
<title>&#45;2&#45;&gt;5</title>
<path fill="none" stroke="green" stroke-width="0.21" d="M700.89,-246.88C636.89,-243.67 362.18,-228.49 334.17,-203.52 305.04,-177.55 318.65,-156.79 314.17,-118.02 311.65,-96.17 299.58,-84.99 314.17,-68.53 358.58,-18.46 549.76,-53.92 613.17,-32.53 614.43,-32.1 615.69,-31.61 616.94,-31.08"/>
<polygon fill="green" stroke="green" stroke-width="0.21" points="618.91,-34 626.18,-26.29 615.69,-27.78 618.91,-34"/>
</g>
<!-- &#45;2&#45;&gt;6 -->
<g id="edge134" class="edge">
<title>&#45;2&#45;&gt;6</title>
<path fill="none" stroke="green" stroke-width="0.28" d="M727.48,-247.05C772.37,-245.19 921.96,-236.71 1040.17,-203.52 1131.28,-177.95 1183.41,-197.24 1235.17,-118.02 1247.21,-99.61 1250.02,-84.76 1235.17,-68.53 1174.65,-2.34 919.95,-55.21 833.17,-32.53 829.69,-31.62 826.11,-30.38 822.64,-29"/>
<polygon fill="green" stroke="green" stroke-width="0.28" points="823.91,-25.73 813.35,-24.9 821.08,-32.14 823.91,-25.73"/>
</g>
<!-- &#45;2&#45;&gt;7 -->
<g id="edge135" class="edge">
<title>&#45;2&#45;&gt;7</title>
<path fill="none" stroke="green" stroke-width="0.16" d="M727.25,-247.87C779.74,-248.91 979.78,-249.46 1135.17,-203.52 1215.52,-179.77 1259.38,-189.45 1303.17,-118.02 1314.67,-99.27 1318.05,-84.73 1303.17,-68.53 1239.98,0.33 973.22,-60.88 884.17,-32.53 882.91,-32.12 881.64,-31.65 880.39,-31.13"/>
<polygon fill="green" stroke="green" stroke-width="0.16" points="881.63,-27.83 871.13,-26.39 878.44,-34.06 881.63,-27.83"/>
</g>
<!-- 518 -->
<g id="node13" class="node">
<title>518</title>
<ellipse fill="white" stroke="black" cx="471.17" cy="-178.77" rx="25" ry="25"/>
<text text-anchor="middle" x="471.17" y="-176.57" font-family="Times-Roman" font-size="9.00">518</text>
</g>
<!-- &#45;2&#45;&gt;518 -->
<g id="edge151" class="edge">
<title>&#45;2&#45;&gt;518</title>
<path fill="none" stroke="red" stroke-width="0.19" d="M701.1,-245.67C669.28,-240.94 585.58,-227.06 519.17,-203.52 513.45,-201.49 507.52,-198.95 501.86,-196.29"/>
<polygon fill="red" stroke="red" stroke-width="0.19" points="503.2,-193.05 492.68,-191.78 500.11,-199.33 503.2,-193.05"/>
</g>
<!-- &#45;2&#45;&gt;458 -->
<g id="edge11" class="edge">
<title>&#45;2&#45;&gt;458</title>
<path fill="none" stroke="red" stroke-width="0.34" d="M727.48,-246.66C761.48,-244.04 853.72,-234.41 923.17,-203.52 971.4,-182.07 1019.33,-143.34 1047.59,-118.22"/>
<polygon fill="red" stroke="red" stroke-width="0.34" points="1050.29,-120.51 1055.37,-111.21 1045.6,-115.31 1050.29,-120.51"/>
</g>
<!-- &#45;2&#45;&gt;459 -->
<g id="edge12" class="edge">
<title>&#45;2&#45;&gt;459</title>
<path fill="none" stroke="red" stroke-width="0.28" d="M701.16,-245.56C676.25,-241.32 620.89,-229.5 582.17,-203.52 550.72,-182.41 523.59,-148.06 506.67,-123.51"/>
<polygon fill="red" stroke="red" stroke-width="0.28" points="509.4,-121.3 500.91,-114.95 503.59,-125.2 509.4,-121.3"/>
</g>
<!-- &#45;2&#45;&gt;460 -->
<g id="edge13" class="edge">
<title>&#45;2&#45;&gt;460</title>
<path fill="none" stroke="red" stroke-width="0.46" d="M700.99,-241.76C686.59,-234.78 663.87,-221.67 651.17,-203.52 635.57,-181.21 628.36,-150.99 625.03,-127.99"/>
<polygon fill="red" stroke="red" stroke-width="0.46" points="628.49,-127.47 623.76,-117.99 621.55,-128.35 628.49,-127.47"/>
</g>
<!-- &#45;2&#45;&gt;461 -->
<g id="edge14" class="edge">
<title>&#45;2&#45;&gt;461</title>
<path fill="none" stroke="green" stroke-width="0.57" d="M714.93,-239.28C716.81,-218.69 721.8,-164.03 725.09,-128.02"/>
<polygon fill="green" stroke="green" stroke-width="0.57" points="728.59,-128.22 726.01,-117.95 721.61,-127.59 728.59,-128.22"/>
</g>
<!-- &#45;2&#45;&gt;462 -->
<g id="edge15" class="edge">
<title>&#45;2&#45;&gt;462</title>
<path fill="none" stroke="green" stroke-width="0.41" d="M727.37,-246.06C765.1,-241.63 872.33,-227.18 897.17,-203.52 917.5,-184.17 925.12,-152.68 927.88,-128.47"/>
<polygon fill="green" stroke="green" stroke-width="0.41" points="931.39,-128.53 928.81,-118.26 924.41,-127.9 931.39,-128.53"/>
</g>
<!-- &#45;2&#45;&gt;463 -->
<g id="edge16" class="edge">
<title>&#45;2&#45;&gt;463</title>
<path fill="none" stroke="green" stroke-width="0.18" d="M727.42,-242.1C742.11,-235.35 765.3,-222.37 777.17,-203.52 791.24,-181.2 795.39,-151.41 796.23,-128.57"/>
<polygon fill="green" stroke="green" stroke-width="0.18" points="799.73,-128.36 796.4,-118.31 792.73,-128.25 799.73,-128.36"/>
</g>
<!-- &#45;2&#45;&gt;464 -->
<g id="edge17" class="edge">
<title>&#45;2&#45;&gt;464</title>
<path fill="none" stroke="red" stroke-width="0.11" d="M700.85,-246.99C651.55,-244.77 480.13,-234.9 437.17,-203.52 412.16,-185.25 397.79,-152.32 390.06,-127.37"/>
<polygon fill="red" stroke="red" stroke-width="0.11" points="393.37,-126.22 387.23,-117.58 386.64,-128.16 393.37,-126.22"/>
</g>
<!-- &#45;2&#45;&gt;465 -->
<g id="edge18" class="edge">
<title>&#45;2&#45;&gt;465</title>
<path fill="none" stroke="green" stroke-width="0.13" d="M700.96,-243.4C682.54,-237.14 648.85,-223.78 626.17,-203.52 601.45,-181.44 581.77,-148.84 569.45,-125"/>
<polygon fill="green" stroke="green" stroke-width="0.13" points="572.56,-123.38 564.95,-116.01 566.3,-126.52 572.56,-123.38"/>
</g>
<!-- &#45;2&#45;&gt;466 -->
<g id="edge19" class="edge">
<title>&#45;2&#45;&gt;466</title>
<path fill="none" stroke="green" stroke-width="0.15" d="M727.39,-243.34C745.42,-237.1 777.91,-223.84 799.17,-203.52 821.99,-181.72 839.08,-149.83 849.67,-126.13"/>
<polygon fill="green" stroke="green" stroke-width="0.15" points="852.93,-127.42 853.67,-116.85 846.5,-124.65 852.93,-127.42"/>
</g>
<!-- &#45;2&#45;&gt;467 -->
<g id="edge20" class="edge">
<title>&#45;2&#45;&gt;467</title>
<path fill="none" stroke="red" stroke-width="0.15" d="M727.3,-246.81C766.17,-244.39 883.64,-234.81 975.17,-203.52 1041.52,-180.85 1112.21,-138.32 1150.49,-113.54"/>
<polygon fill="red" stroke="red" stroke-width="0.15" points="1152.59,-116.35 1159.05,-107.95 1148.76,-110.49 1152.59,-116.35"/>
</g>
<!-- &#45;3 -->
<g id="node3" class="node">
<title>&#45;3</title>
<polygon fill="lightgray" stroke="black" points="686.17,-187.77 660.17,-187.77 660.17,-169.77 686.17,-169.77 686.17,-187.77"/>
<text text-anchor="middle" x="673.17" y="-176.57" font-family="Times-Roman" font-size="9.00">&#45;3</text>
</g>
<!-- &#45;3&#45;&gt;0 -->
<g id="edge136" class="edge">
<title>&#45;3&#45;&gt;0</title>
<path fill="none" stroke="green" stroke-width="0.11" stroke-dasharray="1,5" d="M660.14,-175.62C631.95,-171.04 563.17,-160.23 505.17,-154.02 450.45,-148.17 48.65,-158.33 11.17,-118.02 -3.81,-101.91 -3.61,-84.82 11.17,-68.53 45.08,-31.16 409.12,-20.16 510.88,-17.8"/>
<polygon fill="green" stroke="green" stroke-width="0.11" points="511.01,-21.3 520.93,-17.58 510.86,-14.3 511.01,-21.3"/>
</g>
<!-- &#45;3&#45;&gt;1 -->
<g id="edge137" class="edge">
<title>&#45;3&#45;&gt;1</title>
<path fill="none" stroke="green" stroke-width="0.29" d="M660.13,-175.72C631.92,-171.33 563.1,-160.86 505.17,-154.02 463.05,-149.05 153.71,-149.4 125.17,-118.02 110.37,-101.75 110.27,-84.71 125.17,-68.53 191.18,3.15 469.27,-61.93 562.17,-32.53 563.44,-32.13 564.7,-31.66 565.96,-31.13"/>
<polygon fill="green" stroke="green" stroke-width="0.29" points="567.91,-34.07 575.22,-26.4 564.72,-27.84 567.91,-34.07"/>
</g>
<!-- &#45;3&#45;&gt;2 -->
<g id="edge138" class="edge">
<title>&#45;3&#45;&gt;2</title>
<path fill="none" stroke="red" stroke-width="0.15" d="M686.62,-171.09C698.54,-165.5 716.58,-157.84 733.17,-154.02 785.3,-142.05 1176.8,-157.23 1213.17,-118.02 1228.14,-101.9 1227.7,-85.05 1213.17,-68.53 1172.05,-21.74 994.11,-52.7 935.17,-32.53 933.92,-32.1 932.66,-31.6 931.41,-31.06"/>
<polygon fill="red" stroke="red" stroke-width="0.15" points="932.66,-27.77 922.17,-26.27 929.43,-33.98 932.66,-27.77"/>
</g>
<!-- &#45;3&#45;&gt;3 -->
<g id="edge139" class="edge">
<title>&#45;3&#45;&gt;3</title>
<path fill="none" stroke="green" stroke-width="0.22" d="M686.61,-171.08C698.53,-165.48 716.57,-157.81 733.17,-154.02 787.37,-141.65 1194.31,-158.72 1232.17,-118.02 1305.23,-39.5 1068.46,-21.89 986.82,-18.19"/>
<polygon fill="green" stroke="green" stroke-width="0.22" points="986.52,-14.68 976.38,-17.76 986.23,-21.67 986.52,-14.68"/>
</g>
<!-- &#45;3&#45;&gt;4 -->
<g id="edge140" class="edge">
<title>&#45;3&#45;&gt;4</title>
<path fill="none" stroke="red" stroke-width="0.62" d="M660.09,-175.84C600.65,-167.02 358.48,-130.39 348.17,-118.02 334.09,-101.12 333.52,-84.94 348.17,-68.53 395.24,-15.8 595.2,-47.97 664.17,-32.53 670.94,-31.01 678.1,-28.85 684.69,-26.63"/>
<polygon fill="red" stroke="red" stroke-width="0.62" points="686.16,-29.82 694.4,-23.17 683.81,-23.22 686.16,-29.82"/>
</g>
<!-- &#45;3&#45;&gt;5 -->
<g id="edge141" class="edge">
<title>&#45;3&#45;&gt;5</title>
<path fill="none" stroke="red" stroke-width="0.45" d="M660.11,-175.9C631.85,-171.85 562.95,-162.02 505.17,-154.02 446.09,-145.85 278.42,-162.94 239.17,-118.02 224.7,-101.46 224.38,-84.81 239.17,-68.53 295.31,-6.72 533.74,-58.27 613.17,-32.53 614.43,-32.12 615.7,-31.64 616.96,-31.11"/>
<polygon fill="red" stroke="red" stroke-width="0.45" points="618.91,-34.04 626.21,-26.36 615.71,-27.82 618.91,-34.04"/>
</g>
<!-- &#45;3&#45;&gt;6 -->
<g id="edge142" class="edge">
<title>&#45;3&#45;&gt;6</title>
<path fill="none" stroke="red" stroke-width="0.24" d="M672.44,-169.67C671.1,-150.11 670.34,-99.66 694.17,-68.53 713.61,-43.13 748.94,-29.57 773.2,-22.9"/>
<polygon fill="red" stroke="red" stroke-width="0.24" points="774.33,-26.23 783.16,-20.38 772.61,-19.44 774.33,-26.23"/>
</g>
<!-- &#45;3&#45;&gt;7 -->
<g id="edge143" class="edge">
<title>&#45;3&#45;&gt;7</title>
<path fill="none" stroke="green" stroke-width="0.24" d="M686.23,-171.63C698.2,-166.23 716.53,-158.56 733.17,-154.02 783.09,-140.42 929.54,-157.33 963.17,-118.02 977.48,-101.31 975.07,-87.03 963.17,-68.53 942.3,-36.08 918.41,-50.32 884.17,-32.53 883.02,-31.93 881.85,-31.31 880.68,-30.66"/>
<polygon fill="green" stroke="green" stroke-width="0.24" points="882.21,-27.51 871.79,-25.61 878.75,-33.6 882.21,-27.51"/>
</g>
<!-- &#45;3&#45;&gt;458 -->
<g id="edge21" class="edge">
<title>&#45;3&#45;&gt;458</title>
<path fill="none" stroke="red" stroke-width="0.15" d="M686.21,-171.55C698.16,-166.11 716.48,-158.4 733.17,-154.02 847.29,-124.1 880.98,-143.49 996.17,-118.02 1010.76,-114.8 1026.57,-110.13 1040.05,-105.79"/>
<polygon fill="red" stroke="red" stroke-width="0.15" points="1041.45,-109.01 1049.85,-102.56 1039.26,-102.37 1041.45,-109.01"/>
</g>
<!-- &#45;3&#45;&gt;459 -->
<g id="edge22" class="edge">
<title>&#45;3&#45;&gt;459</title>
<path fill="none" stroke="green" stroke-width="0.3" d="M660.08,-173.85C633.14,-165.52 569.97,-144.63 521.17,-118.02 519.41,-117.06 517.62,-116.02 515.85,-114.93"/>
<polygon fill="green" stroke="green" stroke-width="0.3" points="517.46,-111.79 507.19,-109.18 513.59,-117.62 517.46,-111.79"/>
</g>
<!-- &#45;3&#45;&gt;460 -->
<g id="edge23" class="edge">
<title>&#45;3&#45;&gt;460</title>
<path fill="none" stroke="green" stroke-width="0.13" d="M668.28,-169.77C661.8,-159.16 650.02,-139.87 639.99,-123.45"/>
<polygon fill="green" stroke="green" stroke-width="0.13" points="642.84,-121.4 634.64,-114.69 636.87,-125.05 642.84,-121.4"/>
</g>
<!-- &#45;3&#45;&gt;461 -->
<g id="edge24" class="edge">
<title>&#45;3&#45;&gt;461</title>
<path fill="none" stroke="green" stroke-width="0.3" d="M678.45,-169.77C685.48,-159.09 698.3,-139.62 709.17,-123.13"/>
<polygon fill="green" stroke="green" stroke-width="0.3" points="712.37,-124.62 714.95,-114.35 706.53,-120.77 712.37,-124.62"/>
</g>
<!-- &#45;3&#45;&gt;462 -->
<g id="edge25" class="edge">
<title>&#45;3&#45;&gt;462</title>
<path fill="none" stroke="green" stroke-width="0.44" d="M686.3,-171.87C698.31,-166.64 716.68,-159.08 733.17,-154.02 804.11,-132.3 828.45,-148.32 896.17,-118.02 898.01,-117.2 899.85,-116.27 901.66,-115.26"/>
<polygon fill="green" stroke="green" stroke-width="0.44" points="903.83,-118.03 910.43,-109.74 900.11,-112.1 903.83,-118.03"/>
</g>
<!-- &#45;3&#45;&gt;463 -->
<g id="edge26" class="edge">
<title>&#45;3&#45;&gt;463</title>
<path fill="none" stroke="red" stroke-width="0.35" stroke-dasharray="1,5" d="M685.64,-169.59C702.93,-158.19 735.13,-136.83 762.17,-118.02 763.78,-116.91 765.43,-115.75 767.09,-114.58"/>
<polygon fill="red" stroke="red" stroke-width="0.35" points="769.24,-117.35 775.35,-108.7 765.18,-111.64 769.24,-117.35"/>
</g>
<!-- &#45;3&#45;&gt;464 -->
<g id="edge27" class="edge">
<title>&#45;3&#45;&gt;464</title>
<path fill="none" stroke="green" stroke-width="0.15" d="M660.15,-176.16C622.13,-171.13 508.51,-153.91 421.17,-118.02 417.74,-116.62 414.27,-114.93 410.88,-113.11"/>
<polygon fill="green" stroke="green" stroke-width="0.15" points="412.59,-110.06 402.18,-108.11 409.1,-116.13 412.59,-110.06"/>
</g>
<!-- &#45;3&#45;&gt;465 -->
<g id="edge28" class="edge">
<title>&#45;3&#45;&gt;465</title>
<path fill="none" stroke="red" stroke-width="0.33" d="M661.6,-169.7C645.21,-158.25 614.34,-136.63 588.17,-118.02 586.58,-116.89 584.94,-115.72 583.29,-114.54"/>
<polygon fill="red" stroke="red" stroke-width="0.33" points="585.21,-111.61 575.04,-108.63 581.13,-117.3 585.21,-111.61"/>
</g>
<!-- &#45;3&#45;&gt;466 -->
<g id="edge29" class="edge">
<title>&#45;3&#45;&gt;466</title>
<path fill="none" stroke="green" stroke-width="0.12" d="M686.49,-172.42C698.63,-167.56 717.07,-160.23 733.17,-154.02 775.69,-137.64 788.99,-139.52 829.17,-118.02 830.95,-117.08 832.73,-116.04 834.51,-114.96"/>
<polygon fill="green" stroke="green" stroke-width="0.12" points="836.77,-117.66 843.19,-109.23 832.91,-111.82 836.77,-117.66"/>
</g>
<!-- &#45;3&#45;&gt;467 -->
<g id="edge30" class="edge">
<title>&#45;3&#45;&gt;467</title>
<path fill="none" stroke="red" stroke-width="0.18" d="M686.64,-171.17C698.57,-165.64 716.62,-158.01 733.17,-154.02 895.52,-114.91 943.76,-152.39 1107.17,-118.02 1120.25,-115.27 1134.29,-110.97 1146.46,-106.77"/>
<polygon fill="red" stroke="red" stroke-width="0.18" points="1147.94,-109.96 1156.19,-103.31 1145.59,-103.37 1147.94,-109.96"/>
</g>
<!-- &#45;4 -->
<g id="node4" class="node">
<title>&#45;4</title>
<polygon fill="lightgray" stroke="black" points="888.17,-187.77 862.17,-187.77 862.17,-169.77 888.17,-169.77 888.17,-187.77"/>
<text text-anchor="middle" x="875.17" y="-176.57" font-family="Times-Roman" font-size="9.00">&#45;4</text>
</g>
<!-- &#45;4&#45;&gt;0 -->
<g id="edge144" class="edge">
<title>&#45;4&#45;&gt;0</title>
<path fill="none" stroke="green" stroke-width="0.15" d="M861.99,-173.88C843.3,-168.52 807.94,-158.97 777.17,-154.02 728.41,-146.18 367.65,-154.33 334.17,-118.02 319.26,-101.85 320.66,-85.88 334.17,-68.53 355.81,-40.74 461.01,-25.65 510.86,-19.95"/>
<polygon fill="green" stroke="green" stroke-width="0.15" points="511.33,-23.42 520.89,-18.85 510.57,-16.46 511.33,-23.42"/>
</g>
<!-- &#45;4&#45;&gt;1 -->
<g id="edge145" class="edge">
<title>&#45;4&#45;&gt;1</title>
<path fill="none" stroke="green" stroke-width="0.32" d="M861.99,-173.89C843.3,-168.55 807.93,-159.01 777.17,-154.02 729.96,-146.37 380.55,-153.23 348.17,-118.02 333.28,-101.83 333.97,-85.32 348.17,-68.53 410.46,5.11 471.53,-65.49 562.17,-32.53 563.42,-32.07 564.67,-31.56 565.92,-31.01"/>
<polygon fill="green" stroke="green" stroke-width="0.32" points="567.91,-33.91 575.14,-26.16 564.66,-27.71 567.91,-33.91"/>
</g>
<!-- &#45;4&#45;&gt;2 -->
<g id="edge146" class="edge">
<title>&#45;4&#45;&gt;2</title>
<path fill="none" stroke="red" stroke-width="0.24" d="M888.25,-178.12C953.99,-179.56 1247.28,-182.27 1303.17,-118.02 1317.61,-101.43 1317.95,-84.82 1303.17,-68.53 1247.97,-7.66 1013.32,-57.92 935.17,-32.53 933.91,-32.12 932.65,-31.64 931.39,-31.11"/>
<polygon fill="red" stroke="red" stroke-width="0.24" points="932.63,-27.82 922.14,-26.36 929.43,-34.04 932.63,-27.82"/>
</g>
<!-- &#45;4&#45;&gt;3 -->
<g id="edge147" class="edge">
<title>&#45;4&#45;&gt;3</title>
<path fill="none" stroke="red" stroke-width="0.63" stroke-dasharray="1,5" d="M888.45,-177.77C984.78,-177.63 1574.04,-174.47 1626.17,-118.02 1641.1,-101.86 1641.12,-84.67 1626.17,-68.53 1582.05,-20.88 1105.21,-17.37 986.71,-17.23"/>
<polygon fill="red" stroke="red" stroke-width="0.63" points="986.69,-13.73 976.68,-17.23 986.68,-20.73 986.69,-13.73"/>
</g>
<!-- &#45;4&#45;&gt;4 -->
<g id="edge148" class="edge">
<title>&#45;4&#45;&gt;4</title>
<path fill="none" stroke="green" stroke-width="0.17" d="M888.37,-173.38C908.76,-165.78 947.27,-148.05 963.17,-118.02 973.47,-98.58 977.2,-85.48 963.17,-68.53 935.92,-35.59 815.99,-41.42 774.17,-32.53 761.11,-29.75 746.63,-26.38 734.66,-23.51"/>
<polygon fill="green" stroke="green" stroke-width="0.17" points="735.43,-20.1 724.89,-21.15 733.79,-26.9 735.43,-20.1"/>
</g>
<!-- &#45;4&#45;&gt;6 -->
<g id="edge149" class="edge">
<title>&#45;4&#45;&gt;6</title>
<path fill="none" stroke="green" stroke-width="0.22" d="M888.35,-177.87C961.25,-178 1308.41,-173.22 1213.17,-68.53 1156.09,-5.78 915.18,-54.19 833.17,-32.53 829.69,-31.61 826.11,-30.36 822.65,-28.98"/>
<polygon fill="green" stroke="green" stroke-width="0.22" points="823.91,-25.72 813.35,-24.88 821.09,-32.12 823.91,-25.72"/>
</g>
<!-- &#45;4&#45;&gt;7 -->
<g id="edge150" class="edge">
<title>&#45;4&#45;&gt;7</title>
<path fill="none" stroke="green" stroke-width="0.38" d="M888.52,-178.03C952.99,-178.97 1231.14,-179.37 1284.17,-118.02 1298.56,-101.38 1299.01,-84.76 1284.17,-68.53 1223.96,-2.65 969.16,-59.78 884.17,-32.53 882.91,-32.12 881.64,-31.65 880.39,-31.12"/>
<polygon fill="green" stroke="green" stroke-width="0.38" points="881.63,-27.83 871.13,-26.38 878.44,-34.06 881.63,-27.83"/>
</g>
<!-- &#45;4&#45;&gt;458 -->
<g id="edge31" class="edge">
<title>&#45;4&#45;&gt;458</title>
<path fill="none" stroke="red" stroke-width="0.28" d="M888.29,-173.77C915.94,-165.13 981.94,-143.46 1034.17,-118.02 1037.5,-116.4 1040.92,-114.58 1044.28,-112.69"/>
<polygon fill="red" stroke="red" stroke-width="0.28" points="1046.09,-115.68 1052.93,-107.59 1042.54,-109.65 1046.09,-115.68"/>
</g>
<!-- &#45;4&#45;&gt;459 -->
<g id="edge32" class="edge">
<title>&#45;4&#45;&gt;459</title>
<path fill="none" stroke="red" stroke-width="0.43" d="M861.95,-174.13C843.2,-169.07 807.78,-159.87 777.17,-154.02 664.32,-132.47 627.8,-160.83 521.17,-118.02 519.31,-117.27 517.45,-116.4 515.61,-115.43"/>
<polygon fill="red" stroke="red" stroke-width="0.43" points="517.15,-112.27 506.79,-110.02 513.49,-118.23 517.15,-112.27"/>
</g>
<!-- &#45;4&#45;&gt;460 -->
<g id="edge33" class="edge">
<title>&#45;4&#45;&gt;460</title>
<path fill="none" stroke="green" stroke-width="0.52" d="M861.93,-173.4C823.56,-160.74 711.52,-123.76 655.24,-105.19"/>
<polygon fill="green" stroke="green" stroke-width="0.52" points="656.33,-101.86 645.73,-102.05 654.13,-108.51 656.33,-101.86"/>
</g>
<!-- &#45;4&#45;&gt;461 -->
<g id="edge34" class="edge">
<title>&#45;4&#45;&gt;461</title>
<path fill="none" stroke="green" stroke-width="0.32" d="M861.85,-171.55C840.22,-161.28 796.34,-139.75 761.17,-118.02 759.51,-117 757.81,-115.91 756.12,-114.79"/>
<polygon fill="green" stroke="green" stroke-width="0.32" points="757.98,-111.83 747.76,-109.06 754.02,-117.6 757.98,-111.83"/>
</g>
<!-- &#45;4&#45;&gt;462 -->
<g id="edge35" class="edge">
<title>&#45;4&#45;&gt;462</title>
<path fill="none" stroke="red" stroke-width="0.19" d="M880.35,-169.77C887.21,-159.16 899.68,-139.87 910.31,-123.45"/>
<polygon fill="red" stroke="red" stroke-width="0.19" points="913.48,-124.99 915.97,-114.69 907.6,-121.19 913.48,-124.99"/>
</g>
<!-- &#45;4&#45;&gt;463 -->
<g id="edge36" class="edge">
<title>&#45;4&#45;&gt;463</title>
<path fill="none" stroke="green" stroke-width="0.35" d="M867.5,-169.77C856.45,-158.23 835.55,-136.42 819.05,-119.19"/>
<polygon fill="green" stroke="green" stroke-width="0.35" points="821.27,-116.46 811.83,-111.66 816.22,-121.3 821.27,-116.46"/>
</g>
<!-- &#45;4&#45;&gt;464 -->
<g id="edge37" class="edge">
<title>&#45;4&#45;&gt;464</title>
<path fill="none" stroke="green" stroke-width="0.18" d="M861.97,-174.01C843.25,-168.8 807.86,-159.43 777.17,-154.02 634.92,-128.96 595.3,-148.81 454.17,-118.02 441.11,-115.17 427.08,-110.85 414.91,-106.67"/>
<polygon fill="green" stroke="green" stroke-width="0.18" points="415.77,-103.26 405.18,-103.22 413.44,-109.86 415.77,-103.26"/>
</g>
<!-- &#45;4&#45;&gt;465 -->
<g id="edge38" class="edge">
<title>&#45;4&#45;&gt;465</title>
<path fill="none" stroke="green" stroke-width="0.26" d="M861.91,-174.34C843.11,-169.52 807.63,-160.61 777.17,-154.02 693.59,-135.95 666.73,-151.8 588.17,-118.02 586.32,-117.23 584.48,-116.32 582.66,-115.32"/>
<polygon fill="green" stroke="green" stroke-width="0.26" points="584.2,-112.16 573.86,-109.85 580.5,-118.1 584.2,-112.16"/>
</g>
<!-- &#45;4&#45;&gt;466 -->
<g id="edge39" class="edge">
<title>&#45;4&#45;&gt;466</title>
<path fill="none" stroke="red" stroke-width="0.3" d="M873.93,-169.77C872.43,-160.15 869.82,-143.4 867.44,-128.11"/>
<polygon fill="red" stroke="red" stroke-width="0.3" points="870.84,-127.21 865.85,-117.87 863.93,-128.29 870.84,-127.21"/>
</g>
<!-- &#45;4&#45;&gt;467 -->
<g id="edge40" class="edge">
<title>&#45;4&#45;&gt;467</title>
<path fill="none" stroke="red" stroke-width="0.45" d="M888.31,-176.34C927.72,-171.73 1047.92,-155.34 1140.17,-118.02 1143.61,-116.63 1147.09,-114.96 1150.49,-113.15"/>
<polygon fill="red" stroke="red" stroke-width="0.45" points="1152.26,-116.17 1159.19,-108.16 1148.77,-110.1 1152.26,-116.17"/>
</g>
<!-- 518&#45;&gt;464 -->
<g id="edge152" class="edge">
<title>518&#45;&gt;464</title>
<path fill="none" stroke="green" stroke-width="0.13" d="M453.59,-161.28C440.3,-148.81 421.89,-131.53 407.09,-117.65"/>
<polygon fill="green" stroke="green" stroke-width="0.13" points="409.41,-115.03 399.72,-110.74 404.62,-120.13 409.41,-115.03"/>
</g>
<!-- 458&#45;&gt;0 -->
<g id="edge41" class="edge">
<title>458&#45;&gt;0</title>
<path fill="none" stroke="red" stroke-width="0.23" d="M1049.3,-86.23C1027.12,-80.83 993.11,-73.09 963.17,-68.53 786.71,-41.64 733.14,-87.03 563.17,-32.53 561.91,-32.12 560.64,-31.65 559.39,-31.12"/>
<polygon fill="red" stroke="red" stroke-width="0.23" points="560.63,-27.83 550.13,-26.38 557.44,-34.06 560.63,-27.83"/>
</g>
<!-- 458&#45;&gt;1 -->
<g id="edge42" class="edge">
<title>458&#45;&gt;1</title>
<path fill="none" stroke="red" stroke-width="0.45" d="M1049.28,-86.32C1027.1,-80.99 993.08,-73.28 963.17,-68.53 809.17,-44.04 762.35,-81.11 614.17,-32.53 612.91,-32.11 611.65,-31.63 610.39,-31.1"/>
<polygon fill="red" stroke="red" stroke-width="0.45" points="611.64,-27.81 601.15,-26.34 608.43,-34.03 611.64,-27.81"/>
</g>
<!-- 458&#45;&gt;2 -->
<g id="edge43" class="edge">
<title>458&#45;&gt;2</title>
<path fill="none" stroke="green" stroke-width="0.18" d="M1052.95,-78.92C1047.03,-75.3 1040.46,-71.55 1034.17,-68.53 991.97,-48.25 977.54,-52.46 935.17,-32.53 934,-31.98 932.81,-31.39 931.62,-30.78"/>
<polygon fill="green" stroke="green" stroke-width="0.18" points="933.13,-27.61 922.68,-25.82 929.73,-33.73 933.13,-27.61"/>
</g>
<!-- 458&#45;&gt;3 -->
<g id="edge44" class="edge">
<title>458&#45;&gt;3</title>
<path fill="none" stroke="green" stroke-width="0.12" d="M1052.97,-78.86C1032.95,-65.58 1002.39,-45.29 981.87,-31.67"/>
<polygon fill="green" stroke="green" stroke-width="0.12" points="983.75,-28.71 973.48,-26.1 979.88,-34.55 983.75,-28.71"/>
</g>
<!-- 458&#45;&gt;4 -->
<g id="edge45" class="edge">
<title>458&#45;&gt;4</title>
<path fill="none" stroke="red" stroke-width="0.21" d="M1053.32,-78.04C1047.41,-74.41 1040.74,-70.87 1034.17,-68.53 924.28,-29.37 888.86,-53.88 774.17,-32.53 761.04,-30.08 746.56,-26.74 734.6,-23.81"/>
<polygon fill="red" stroke="red" stroke-width="0.21" points="735.4,-20.4 724.85,-21.38 733.7,-27.2 735.4,-20.4"/>
</g>
<!-- 458&#45;&gt;5 -->
<g id="edge46" class="edge">
<title>458&#45;&gt;5</title>
<path fill="none" stroke="green" stroke-width="0.25" d="M1049.25,-86.5C1027.05,-81.29 993.02,-73.66 963.17,-68.53 839.96,-47.32 805.97,-60.75 684.17,-32.53 677.42,-30.96 670.26,-28.78 663.68,-26.56"/>
<polygon fill="green" stroke="green" stroke-width="0.25" points="664.55,-23.15 653.96,-23.11 662.21,-29.75 664.55,-23.15"/>
</g>
<!-- 458&#45;&gt;6 -->
<g id="edge47" class="edge">
<title>458&#45;&gt;6</title>
<path fill="none" stroke="red" stroke-width="0.19" d="M1053.26,-78.21C1047.34,-74.58 1040.7,-71 1034.17,-68.53 949.3,-36.38 919.89,-59.31 833.17,-32.53 829.73,-31.46 826.18,-30.14 822.72,-28.72"/>
<polygon fill="red" stroke="red" stroke-width="0.19" points="823.99,-25.45 813.43,-24.6 821.15,-31.85 823.99,-25.45"/>
</g>
<!-- 458&#45;&gt;7 -->
<g id="edge48" class="edge">
<title>458&#45;&gt;7</title>
<path fill="none" stroke="green" stroke-width="0.72" d="M1053.16,-78.45C1047.25,-74.82 1040.62,-71.19 1034.17,-68.53 970.79,-42.38 947.76,-58.16 884.17,-32.53 882.94,-32.03 881.7,-31.48 880.47,-30.9"/>
<polygon fill="green" stroke="green" stroke-width="0.72" points="881.75,-27.62 871.28,-25.97 878.44,-33.78 881.75,-27.62"/>
</g>
<!-- 459&#45;&gt;0 -->
<g id="edge49" class="edge">
<title>459&#45;&gt;0</title>
<path fill="none" stroke="red" stroke-width="0.41" d="M501.3,-72.17C507.97,-61.97 516.08,-49.56 522.9,-39.12"/>
<polygon fill="red" stroke="red" stroke-width="0.41" points="525.95,-40.84 528.49,-30.56 520.09,-37.01 525.95,-40.84"/>
</g>
<!-- 459&#45;&gt;1 -->
<g id="edge50" class="edge">
<title>459&#45;&gt;1</title>
<path fill="none" stroke="red" stroke-width="0.32" d="M507.93,-77.46C524.99,-64.66 549.58,-46.21 567.03,-33.12"/>
<polygon fill="red" stroke="red" stroke-width="0.32" points="569.53,-35.62 575.43,-26.82 565.33,-30.02 569.53,-35.62"/>
</g>
<!-- 459&#45;&gt;2 -->
<g id="edge51" class="edge">
<title>459&#45;&gt;2</title>
<path fill="none" stroke="red" stroke-width="0.38" d="M506.73,-76.38C511.21,-73.29 516.16,-70.42 521.17,-68.53 672.41,-11.35 729.44,-82.62 883.17,-32.53 884.43,-32.12 885.7,-31.64 886.95,-31.11"/>
<polygon fill="red" stroke="red" stroke-width="0.38" points="888.91,-34.04 896.2,-26.35 885.71,-27.81 888.91,-34.04"/>
</g>
<!-- 459&#45;&gt;3 -->
<g id="edge52" class="edge">
<title>459&#45;&gt;3</title>
<path fill="none" stroke="green" stroke-width="0.22" d="M506.72,-76.33C511.19,-73.24 516.14,-70.39 521.17,-68.53 693.91,-4.42 758.64,-88.54 934.17,-32.53 935.44,-32.12 936.7,-31.65 937.96,-31.13"/>
<polygon fill="green" stroke="green" stroke-width="0.22" points="939.91,-34.06 947.21,-26.39 936.72,-27.83 939.91,-34.06"/>
</g>
<!-- 459&#45;&gt;4 -->
<g id="edge53" class="edge">
<title>459&#45;&gt;4</title>
<path fill="none" stroke="green" stroke-width="0.16" d="M506.96,-76.92C511.42,-73.8 516.31,-70.79 521.17,-68.53 580.6,-40.9 601.31,-51.07 664.17,-32.53 670.72,-30.6 677.73,-28.32 684.22,-26.12"/>
<polygon fill="green" stroke="green" stroke-width="0.16" points="685.55,-29.37 693.86,-22.8 683.26,-22.75 685.55,-29.37"/>
</g>
<!-- 459&#45;&gt;5 -->
<g id="edge54" class="edge">
<title>459&#45;&gt;5</title>
<path fill="none" stroke="red" stroke-width="0.17" d="M507.19,-77.37C511.64,-74.23 516.46,-71.09 521.17,-68.53 559.74,-47.54 573.67,-51.7 613.17,-32.53 614.34,-31.96 615.52,-31.36 616.71,-30.74"/>
<polygon fill="red" stroke="red" stroke-width="0.17" points="618.61,-33.69 625.63,-25.76 615.19,-27.58 618.61,-33.69"/>
</g>
<!-- 459&#45;&gt;6 -->
<g id="edge55" class="edge">
<title>459&#45;&gt;6</title>
<path fill="none" stroke="red" stroke-width="0.31" d="M506.83,-76.63C511.3,-73.53 516.22,-70.59 521.17,-68.53 609.77,-31.53 640.06,-51.51 734.17,-32.53 747.27,-29.89 761.74,-26.53 773.71,-23.64"/>
<polygon fill="red" stroke="red" stroke-width="0.31" points="774.59,-27.02 783.47,-21.24 772.93,-20.22 774.59,-27.02"/>
</g>
<!-- 459&#45;&gt;7 -->
<g id="edge56" class="edge">
<title>459&#45;&gt;7</title>
<path fill="none" stroke="red" stroke-width="0.4" d="M506.76,-76.45C511.23,-73.36 516.17,-70.47 521.17,-68.53 647.56,-19.36 693.48,-68.71 824.17,-32.53 827.65,-31.57 831.22,-30.3 834.68,-28.91"/>
<polygon fill="red" stroke="red" stroke-width="0.4" points="836.24,-32.04 843.97,-24.8 833.41,-25.64 836.24,-32.04"/>
</g>
<!-- 460&#45;&gt;0 -->
<g id="edge57" class="edge">
<title>460&#45;&gt;0</title>
<path fill="none" stroke="green" stroke-width="0.1" stroke-dasharray="1,5" d="M603.73,-76C589.85,-63.75 570.87,-47 556.73,-34.52"/>
<polygon fill="green" stroke="green" stroke-width="0.1" points="558.85,-31.73 549.04,-27.74 554.22,-36.98 558.85,-31.73"/>
</g>
<!-- 460&#45;&gt;1 -->
<g id="edge58" class="edge">
<title>460&#45;&gt;1</title>
<path fill="none" stroke="green" stroke-width="0.63" d="M612.16,-70.18C607.97,-60.94 603.1,-50.19 598.84,-40.81"/>
<polygon fill="green" stroke="green" stroke-width="0.63" points="602,-39.3 594.69,-31.64 595.63,-42.19 602,-39.3"/>
</g>
<!-- 460&#45;&gt;2 -->
<g id="edge59" class="edge">
<title>460&#45;&gt;2</title>
<path fill="none" stroke="green" stroke-width="0.48" d="M645.29,-83.8C659.3,-78.87 677.61,-72.82 694.17,-68.53 776.95,-47.09 803.13,-62.61 883.17,-32.53 884.41,-32.06 885.66,-31.54 886.91,-30.97"/>
<polygon fill="green" stroke="green" stroke-width="0.48" points="888.91,-33.87 896.12,-26.1 885.64,-27.68 888.91,-33.87"/>
</g>
<!-- 460&#45;&gt;3 -->
<g id="edge60" class="edge">
<title>460&#45;&gt;3</title>
<path fill="none" stroke="green" stroke-width="0.43" d="M645.23,-83.56C659.22,-78.55 677.53,-72.49 694.17,-68.53 799.1,-43.54 832.48,-68.48 934.17,-32.53 935.42,-32.09 936.68,-31.58 937.93,-31.03"/>
<polygon fill="green" stroke="green" stroke-width="0.43" points="939.91,-33.94 947.16,-26.21 936.67,-27.74 939.91,-33.94"/>
</g>
<!-- 460&#45;&gt;4 -->
<g id="edge61" class="edge">
<title>460&#45;&gt;4</title>
<path fill="none" stroke="red" stroke-width="0.58" d="M640.62,-76.37C654.88,-64.07 674.59,-47.08 689.22,-34.47"/>
<polygon fill="red" stroke="red" stroke-width="0.58" points="691.87,-36.8 697.16,-27.62 687.3,-31.5 691.87,-36.8"/>
</g>
<!-- 460&#45;&gt;5 -->
<g id="edge62" class="edge">
<title>460&#45;&gt;5</title>
<path fill="none" stroke="green" stroke-width="0.23" d="M627.46,-68.95C629.37,-60.51 631.54,-50.95 633.48,-42.37"/>
<polygon fill="green" stroke="green" stroke-width="0.23" points="636.92,-43.05 635.72,-32.52 630.09,-41.5 636.92,-43.05"/>
</g>
<!-- 460&#45;&gt;6 -->
<g id="edge63" class="edge">
<title>460&#45;&gt;6</title>
<path fill="none" stroke="green" stroke-width="0.17" d="M642.41,-78.95C648.33,-75.33 654.9,-71.57 661.17,-68.53 699.31,-50.04 745.94,-34 774.06,-24.99"/>
<polygon fill="green" stroke="green" stroke-width="0.17" points="775.39,-28.23 783.87,-21.89 773.28,-21.56 775.39,-28.23"/>
</g>
<!-- 460&#45;&gt;7 -->
<g id="edge64" class="edge">
<title>460&#45;&gt;7</title>
<path fill="none" stroke="red" stroke-width="0.66" d="M645.43,-84.29C659.49,-79.54 677.8,-73.49 694.17,-68.53 751.55,-51.13 767.77,-52.86 824.17,-32.53 827.56,-31.3 831.09,-29.89 834.53,-28.43"/>
<polygon fill="red" stroke="red" stroke-width="0.66" points="836.1,-31.56 843.81,-24.29 833.25,-25.16 836.1,-31.56"/>
</g>
<!-- 461&#45;&gt;0 -->
<g id="edge65" class="edge">
<title>461&#45;&gt;0</title>
<path fill="none" stroke="green" stroke-width="0.37" d="M704.92,-84.45C665.93,-71.22 589.09,-44.7 563.17,-32.53 562,-31.98 560.81,-31.39 559.62,-30.78"/>
<polygon fill="green" stroke="green" stroke-width="0.37" points="561.13,-27.61 550.68,-25.83 557.73,-33.73 561.13,-27.61"/>
</g>
<!-- 461&#45;&gt;1 -->
<g id="edge66" class="edge">
<title>461&#45;&gt;1</title>
<path fill="none" stroke="green" stroke-width="0.12" d="M706.15,-81.13C683.07,-69.36 645.82,-50.1 614.17,-32.53 613.04,-31.9 611.88,-31.25 610.72,-30.59"/>
<polygon fill="green" stroke="green" stroke-width="0.12" points="612.27,-27.44 601.87,-25.47 608.77,-33.5 612.27,-27.44"/>
</g>
<!-- 461&#45;&gt;2 -->
<g id="edge67" class="edge">
<title>461&#45;&gt;2</title>
<path fill="none" stroke="green" stroke-width="0.38" d="M747.03,-77.06C751.49,-73.94 756.36,-70.89 761.17,-68.53 811.95,-43.66 831.3,-55 883.17,-32.53 884.39,-32 885.62,-31.43 886.85,-30.83"/>
<polygon fill="green" stroke="green" stroke-width="0.38" points="888.9,-33.69 896.01,-25.83 885.55,-27.55 888.9,-33.69"/>
</g>
<!-- 461&#45;&gt;3 -->
<g id="edge68" class="edge">
<title>461&#45;&gt;3</title>
<path fill="none" stroke="green" stroke-width="0.25" d="M746.89,-76.77C751.36,-73.66 756.26,-70.69 761.17,-68.53 833.06,-36.9 860.9,-60.78 934.17,-32.53 935.41,-32.05 936.66,-31.52 937.9,-30.95"/>
<polygon fill="green" stroke="green" stroke-width="0.25" points="939.91,-33.84 947.1,-26.06 936.63,-27.66 939.91,-33.84"/>
</g>
<!-- 461&#45;&gt;4 -->
<g id="edge69" class="edge">
<title>461&#45;&gt;4</title>
<path fill="none" stroke="green" stroke-width="0.25" d="M722.27,-68.95C720.13,-60.51 717.71,-50.95 715.53,-42.37"/>
<polygon fill="green" stroke="green" stroke-width="0.25" points="718.89,-41.35 713.04,-32.52 712.1,-43.07 718.89,-41.35"/>
</g>
<!-- 461&#45;&gt;5 -->
<g id="edge70" class="edge">
<title>461&#45;&gt;5</title>
<path fill="none" stroke="red" stroke-width="0.74" d="M709.73,-76.73C694.95,-64.28 674.26,-46.83 659.1,-34.06"/>
<polygon fill="red" stroke="red" stroke-width="0.74" points="661.22,-31.27 651.32,-27.5 656.71,-36.62 661.22,-31.27"/>
</g>
<!-- 461&#45;&gt;6 -->
<g id="edge71" class="edge">
<title>461&#45;&gt;6</title>
<path fill="none" stroke="red" stroke-width="0.29" d="M745,-74.5C755.93,-62.95 770.16,-47.92 781.29,-36.16"/>
<polygon fill="red" stroke="red" stroke-width="0.29" points="784.09,-38.29 788.42,-28.62 779.01,-33.48 784.09,-38.29"/>
</g>
<!-- 461&#45;&gt;7 -->
<g id="edge72" class="edge">
<title>461&#45;&gt;7</title>
<path fill="none" stroke="red" stroke-width="0.51" d="M747.76,-77.51C752.1,-74.42 756.73,-71.28 761.17,-68.53 785.52,-53.43 814.74,-38.38 834.7,-28.53"/>
<polygon fill="red" stroke="red" stroke-width="0.51" points="836.25,-31.67 843.69,-24.14 833.17,-25.38 836.25,-31.67"/>
</g>
<!-- 462&#45;&gt;0 -->
<g id="edge73" class="edge">
<title>462&#45;&gt;0</title>
<path fill="none" stroke="red" stroke-width="0.39" d="M910.6,-76.41C906.13,-73.32 901.18,-70.45 896.17,-68.53 757.16,-15.29 704.51,-79.25 563.17,-32.53 561.91,-32.11 560.65,-31.63 559.4,-31.1"/>
<polygon fill="red" stroke="red" stroke-width="0.39" points="560.64,-27.8 550.15,-26.33 557.43,-34.02 560.64,-27.8"/>
</g>
<!-- 462&#45;&gt;1 -->
<g id="edge74" class="edge">
<title>462&#45;&gt;1</title>
<path fill="none" stroke="red" stroke-width="0.27" d="M910.57,-76.48C906.1,-73.39 901.16,-70.49 896.17,-68.53 778.62,-22.2 733.75,-73.34 614.17,-32.53 612.92,-32.1 611.66,-31.61 610.41,-31.07"/>
<polygon fill="red" stroke="red" stroke-width="0.27" points="611.66,-27.77 601.17,-26.27 608.43,-33.99 611.66,-27.77"/>
</g>
<!-- 462&#45;&gt;2 -->
<g id="edge75" class="edge">
<title>462&#45;&gt;2</title>
<path fill="none" stroke="red" stroke-width="0.37" d="M922.95,-68.95C920.67,-60.39 918.08,-50.67 915.77,-41.99"/>
<polygon fill="red" stroke="red" stroke-width="0.37" points="919.08,-40.83 913.12,-32.07 912.31,-42.63 919.08,-40.83"/>
</g>
<!-- 462&#45;&gt;3 -->
<g id="edge76" class="edge">
<title>462&#45;&gt;3</title>
<path fill="none" stroke="green" stroke-width="0.21" d="M938.31,-70.18C942.08,-61.03 946.47,-50.42 950.32,-41.1"/>
<polygon fill="green" stroke="green" stroke-width="0.21" points="953.65,-42.22 954.23,-31.64 947.18,-39.54 953.65,-42.22"/>
</g>
<!-- 462&#45;&gt;4 -->
<g id="edge77" class="edge">
<title>462&#45;&gt;4</title>
<path fill="none" stroke="green" stroke-width="0.52" d="M910.35,-76.99C905.89,-73.87 901.01,-70.84 896.17,-68.53 881.49,-61.51 782.29,-35.84 734.63,-23.71"/>
<polygon fill="green" stroke="green" stroke-width="0.52" points="735.32,-20.27 724.76,-21.2 733.59,-27.05 735.32,-20.27"/>
</g>
<!-- 462&#45;&gt;5 -->
<g id="edge78" class="edge">
<title>462&#45;&gt;5</title>
<path fill="none" stroke="green" stroke-width="0.14" d="M910.51,-76.63C906.04,-73.53 901.12,-70.6 896.17,-68.53 808,-31.66 776.83,-55.95 684.17,-32.53 677.56,-30.86 670.52,-28.67 664.03,-26.48"/>
<polygon fill="green" stroke="green" stroke-width="0.14" points="665,-23.11 654.4,-23.1 662.68,-29.72 665,-23.11"/>
</g>
<!-- 462&#45;&gt;6 -->
<g id="edge79" class="edge">
<title>462&#45;&gt;6</title>
<path fill="none" stroke="green" stroke-width="0.31" d="M909.58,-77.51C905.24,-74.42 900.61,-71.28 896.17,-68.53 871.83,-53.43 842.61,-38.38 822.65,-28.53"/>
<polygon fill="green" stroke="green" stroke-width="0.31" points="824.17,-25.38 813.65,-24.14 821.1,-31.67 824.17,-25.38"/>
</g>
<!-- 462&#45;&gt;7 -->
<g id="edge80" class="edge">
<title>462&#45;&gt;7</title>
<path fill="none" stroke="green" stroke-width="0.28" d="M912.35,-74.5C901.42,-62.95 887.19,-47.92 876.06,-36.16"/>
<polygon fill="green" stroke="green" stroke-width="0.28" points="878.34,-33.48 868.92,-28.62 873.25,-38.29 878.34,-33.48"/>
</g>
<!-- 463&#45;&gt;0 -->
<g id="edge81" class="edge">
<title>463&#45;&gt;0</title>
<path fill="none" stroke="green" stroke-width="0.21" d="M776.5,-76.67C772.03,-73.57 767.11,-70.62 762.17,-68.53 679.44,-33.41 647.45,-63.76 563.17,-32.53 561.93,-32.07 560.68,-31.55 559.43,-30.99"/>
<polygon fill="green" stroke="green" stroke-width="0.21" points="560.7,-27.7 550.22,-26.13 557.43,-33.89 560.7,-27.7"/>
</g>
<!-- 463&#45;&gt;1 -->
<g id="edge82" class="edge">
<title>463&#45;&gt;1</title>
<path fill="none" stroke="green" stroke-width="0.83" d="M776.4,-76.89C771.93,-73.77 767.05,-70.77 762.17,-68.53 700.67,-40.23 676.92,-57.93 614.17,-32.53 612.94,-32.03 611.71,-31.48 610.47,-30.9"/>
<polygon fill="green" stroke="green" stroke-width="0.83" points="611.75,-27.61 601.28,-25.96 608.44,-33.78 611.75,-27.61"/>
</g>
<!-- 463&#45;&gt;2 -->
<g id="edge83" class="edge">
<title>463&#45;&gt;2</title>
<path fill="none" stroke="green" stroke-width="0.23" d="M814.93,-77.77C819.26,-74.67 823.84,-71.45 828.17,-68.53 847.66,-55.37 870.3,-41.12 886.69,-30.99"/>
<polygon fill="green" stroke="green" stroke-width="0.23" points="888.86,-33.77 895.54,-25.55 885.19,-27.81 888.86,-33.77"/>
</g>
<!-- 463&#45;&gt;3 -->
<g id="edge84" class="edge">
<title>463&#45;&gt;3</title>
<path fill="none" stroke="red" stroke-width="0.61" d="M814.1,-77.21C818.56,-74.07 823.4,-70.98 828.17,-68.53 872.41,-45.75 888.93,-53.23 934.17,-32.53 935.35,-31.99 936.54,-31.41 937.74,-30.81"/>
<polygon fill="red" stroke="red" stroke-width="0.61" points="939.62,-33.77 946.69,-25.88 936.24,-27.64 939.62,-33.77"/>
</g>
<!-- 463&#45;&gt;4 -->
<g id="edge85" class="edge">
<title>463&#45;&gt;4</title>
<path fill="none" stroke="green" stroke-width="0.56" d="M776.93,-76.37C762.84,-64.07 743.36,-47.08 728.9,-34.47"/>
<polygon fill="green" stroke="green" stroke-width="0.56" points="730.88,-31.56 721.05,-27.62 726.28,-36.83 730.88,-31.56"/>
</g>
<!-- 463&#45;&gt;5 -->
<g id="edge86" class="edge">
<title>463&#45;&gt;5</title>
<path fill="none" stroke="red" stroke-width="0.33" d="M776.12,-77.44C771.67,-74.3 766.86,-71.14 762.17,-68.53 729.69,-50.38 689.47,-34.8 664.06,-25.73"/>
<polygon fill="red" stroke="red" stroke-width="0.33" points="665.05,-22.37 654.46,-22.36 662.73,-28.97 665.05,-22.37"/>
</g>
<!-- 463&#45;&gt;6 -->
<g id="edge87" class="edge">
<title>463&#45;&gt;6</title>
<path fill="none" stroke="green" stroke-width="0.2" d="M796.44,-68.54C796.87,-60.42 797.36,-51.31 797.8,-43.04"/>
<polygon fill="green" stroke="green" stroke-width="0.2" points="801.31,-42.98 798.34,-32.81 794.32,-42.61 801.31,-42.98"/>
</g>
<!-- 463&#45;&gt;7 -->
<g id="edge88" class="edge">
<title>463&#45;&gt;7</title>
<path fill="none" stroke="green" stroke-width="0.39" d="M810.75,-73.73C820.13,-62.56 832.07,-48.34 841.62,-36.97"/>
<polygon fill="green" stroke="green" stroke-width="0.39" points="844.33,-39.18 848.09,-29.27 838.97,-34.68 844.33,-39.18"/>
</g>
<!-- 464&#45;&gt;0 -->
<g id="edge89" class="edge">
<title>464&#45;&gt;0</title>
<path fill="none" stroke="red" stroke-width="0.13" d="M402.53,-79.19C408.45,-75.57 414.99,-71.76 421.17,-68.53 452.08,-52.38 489.14,-36.59 512.91,-26.9"/>
<polygon fill="red" stroke="red" stroke-width="0.13" points="514.27,-30.12 522.23,-23.13 511.65,-23.63 514.27,-30.12"/>
</g>
<!-- 464&#45;&gt;1 -->
<g id="edge90" class="edge">
<title>464&#45;&gt;1</title>
<path fill="none" stroke="red" stroke-width="0.14" d="M402.21,-78.51C408.13,-74.89 414.74,-71.23 421.17,-68.53 480.78,-43.43 502.36,-57.14 562.17,-32.53 563.4,-32.02 564.64,-31.47 565.87,-30.88"/>
<polygon fill="red" stroke="red" stroke-width="0.14" points="567.91,-33.76 575.05,-25.93 564.59,-27.6 567.91,-33.76"/>
</g>
<!-- 464&#45;&gt;2 -->
<g id="edge91" class="edge">
<title>464&#45;&gt;2</title>
<path fill="none" stroke="red" stroke-width="0.43" d="M404.82,-83.28C418.82,-78.11 437.28,-71.97 454.17,-68.53 641.65,-30.3 700.8,-90.4 883.17,-32.53 884.44,-32.13 885.7,-31.66 886.96,-31.13"/>
<polygon fill="red" stroke="red" stroke-width="0.43" points="888.91,-34.07 896.22,-26.4 885.72,-27.84 888.91,-34.07"/>
</g>
<!-- 464&#45;&gt;3 -->
<g id="edge92" class="edge">
<title>464&#45;&gt;3</title>
<path fill="none" stroke="red" stroke-width="0.12" d="M404.81,-83.23C418.81,-78.04 437.26,-71.9 454.17,-68.53 663.98,-26.71 729.98,-96.33 934.17,-32.53 935.44,-32.13 936.71,-31.67 937.97,-31.15"/>
<polygon fill="red" stroke="red" stroke-width="0.12" points="939.91,-34.08 947.23,-26.42 936.73,-27.85 939.91,-34.08"/>
</g>
<!-- 464&#45;&gt;4 -->
<g id="edge93" class="edge">
<title>464&#45;&gt;4</title>
<path fill="none" stroke="green" stroke-width="0.22" d="M402.04,-78.08C407.95,-74.45 414.61,-70.9 421.17,-68.53 523.84,-31.4 558.05,-58.17 664.17,-32.53 670.91,-30.9 678.07,-28.7 684.65,-26.47"/>
<polygon fill="green" stroke="green" stroke-width="0.22" points="686.11,-29.67 694.37,-23.04 683.78,-23.07 686.11,-29.67"/>
</g>
<!-- 464&#45;&gt;5 -->
<g id="edge94" class="edge">
<title>464&#45;&gt;5</title>
<path fill="none" stroke="red" stroke-width="0.68" d="M402.1,-78.24C408.02,-74.61 414.66,-71.02 421.17,-68.53 502.24,-37.44 531.86,-62.96 613.17,-32.53 614.41,-32.06 615.66,-31.54 616.91,-30.98"/>
<polygon fill="red" stroke="red" stroke-width="0.68" points="618.91,-33.88 626.12,-26.11 615.64,-27.69 618.91,-33.88"/>
</g>
<!-- 464&#45;&gt;6 -->
<g id="edge95" class="edge">
<title>464&#45;&gt;6</title>
<path fill="none" stroke="red" stroke-width="0.55" d="M405.2,-83.43C419.18,-78.38 437.49,-72.32 454.17,-68.53 576.53,-40.75 610.71,-54.9 734.17,-32.53 747.32,-30.15 761.8,-26.81 773.75,-23.87"/>
<polygon fill="red" stroke="red" stroke-width="0.55" points="774.66,-27.25 783.51,-21.42 772.95,-20.46 774.66,-27.25"/>
</g>
<!-- 464&#45;&gt;7 -->
<g id="edge96" class="edge">
<title>464&#45;&gt;7</title>
<path fill="none" stroke="red" stroke-width="0.33" d="M405.16,-83.25C419.12,-78.13 437.43,-72.06 454.17,-68.53 615.84,-34.44 664.48,-74.92 824.17,-32.53 827.66,-31.6 831.23,-30.36 834.7,-28.98"/>
<polygon fill="red" stroke="red" stroke-width="0.33" points="836.26,-32.11 843.99,-24.87 833.43,-25.71 836.26,-32.11"/>
</g>
<!-- 465&#45;&gt;0 -->
<g id="edge97" class="edge">
<title>465&#45;&gt;0</title>
<path fill="none" stroke="green" stroke-width="0.48" d="M549.58,-68.95C547.55,-60.51 545.26,-50.95 543.2,-42.37"/>
<polygon fill="green" stroke="green" stroke-width="0.48" points="546.57,-41.43 540.83,-32.52 539.76,-43.06 546.57,-41.43"/>
</g>
<!-- 465&#45;&gt;1 -->
<g id="edge98" class="edge">
<title>465&#45;&gt;1</title>
<path fill="none" stroke="red" stroke-width="0.15" d="M564.9,-70.18C568.96,-60.94 573.69,-50.19 577.82,-40.81"/>
<polygon fill="red" stroke="red" stroke-width="0.15" points="581.03,-42.2 581.85,-31.64 574.62,-39.38 581.03,-42.2"/>
</g>
<!-- 465&#45;&gt;2 -->
<g id="edge99" class="edge">
<title>465&#45;&gt;2</title>
<path fill="none" stroke="red" stroke-width="0.49" d="M573.76,-76.46C578.24,-73.37 583.18,-70.48 588.17,-68.53 711.19,-20.44 758.05,-74.85 883.17,-32.53 884.43,-32.1 885.69,-31.61 886.94,-31.07"/>
<polygon fill="red" stroke="red" stroke-width="0.49" points="888.91,-34 896.18,-26.29 885.69,-27.78 888.91,-34"/>
</g>
<!-- 465&#45;&gt;3 -->
<g id="edge100" class="edge">
<title>465&#45;&gt;3</title>
<path fill="none" stroke="green" stroke-width="0.23" d="M573.74,-76.39C578.21,-73.3 583.16,-70.44 588.17,-68.53 732.67,-13.52 787.28,-80.76 934.17,-32.53 935.43,-32.11 936.7,-31.63 937.95,-31.1"/>
<polygon fill="green" stroke="green" stroke-width="0.23" points="939.91,-34.03 947.2,-26.34 936.71,-27.81 939.91,-34.03"/>
</g>
<!-- 465&#45;&gt;4 -->
<g id="edge101" class="edge">
<title>465&#45;&gt;4</title>
<path fill="none" stroke="green" stroke-width="0.4" d="M574.24,-77.46C578.69,-74.32 583.5,-71.16 588.17,-68.53 619.98,-50.64 659.28,-35.09 684.29,-25.94"/>
<polygon fill="green" stroke="green" stroke-width="0.4" points="685.53,-29.21 693.76,-22.54 683.16,-22.63 685.53,-29.21"/>
</g>
<!-- 465&#45;&gt;5 -->
<g id="edge102" class="edge">
<title>465&#45;&gt;5</title>
<path fill="none" stroke="red" stroke-width="0.27" d="M573.4,-76C587.11,-63.75 605.87,-47 619.84,-34.52"/>
<polygon fill="red" stroke="red" stroke-width="0.27" points="622.32,-37.01 627.45,-27.74 617.66,-31.79 622.32,-37.01"/>
</g>
<!-- 465&#45;&gt;6 -->
<g id="edge103" class="edge">
<title>465&#45;&gt;6</title>
<path fill="none" stroke="green" stroke-width="0.32" d="M573.95,-76.89C578.41,-73.77 583.3,-70.77 588.17,-68.53 592.45,-66.56 718.37,-36.49 773.61,-23.34"/>
<polygon fill="green" stroke="green" stroke-width="0.32" points="774.44,-26.74 783.36,-21.02 772.82,-19.93 774.44,-26.74"/>
</g>
<!-- 465&#45;&gt;7 -->
<g id="edge104" class="edge">
<title>465&#45;&gt;7</title>
<path fill="none" stroke="red" stroke-width="0.34" d="M573.81,-76.57C578.28,-73.47 583.21,-70.55 588.17,-68.53 686.4,-28.43 722.4,-62.53 824.17,-32.53 827.63,-31.51 831.19,-30.21 834.65,-28.8"/>
<polygon fill="red" stroke="red" stroke-width="0.34" points="836.21,-31.94 843.94,-24.69 833.38,-25.54 836.21,-31.94"/>
</g>
<!-- 466&#45;&gt;0 -->
<g id="edge105" class="edge">
<title>466&#45;&gt;0</title>
<path fill="none" stroke="red" stroke-width="0.17" d="M843.56,-76.51C839.09,-73.41 834.16,-70.51 829.17,-68.53 718.35,-24.37 675.93,-71.49 563.17,-32.53 561.92,-32.09 560.66,-31.6 559.41,-31.05"/>
<polygon fill="red" stroke="red" stroke-width="0.17" points="560.66,-27.76 550.18,-26.25 557.43,-33.97 560.66,-27.76"/>
</g>
<!-- 466&#45;&gt;1 -->
<g id="edge106" class="edge">
<title>466&#45;&gt;1</title>
<path fill="none" stroke="red" stroke-width="0.33" d="M843.52,-76.62C839.04,-73.52 834.12,-70.59 829.17,-68.53 739.74,-31.26 705.24,-65.6 614.17,-32.53 612.93,-32.07 611.67,-31.56 610.43,-31.01"/>
<polygon fill="red" stroke="red" stroke-width="0.33" points="611.69,-27.72 601.21,-26.17 608.43,-33.91 611.69,-27.72"/>
</g>
<!-- 466&#45;&gt;2 -->
<g id="edge107" class="edge">
<title>466&#45;&gt;2</title>
<path fill="none" stroke="green" stroke-width="0.39" d="M875.02,-71.78C881.41,-61.58 889.13,-49.25 895.62,-38.9"/>
<polygon fill="green" stroke="green" stroke-width="0.39" points="898.59,-40.75 900.93,-30.42 892.66,-37.03 898.59,-40.75"/>
</g>
<!-- 466&#45;&gt;3 -->
<g id="edge108" class="edge">
<title>466&#45;&gt;3</title>
<path fill="none" stroke="red" stroke-width="0.2" d="M881.53,-77.46C898.26,-64.66 922.35,-46.21 939.46,-33.12"/>
<polygon fill="red" stroke="red" stroke-width="0.2" points="941.87,-35.68 947.69,-26.82 937.62,-30.12 941.87,-35.68"/>
</g>
<!-- 466&#45;&gt;4 -->
<g id="edge109" class="edge">
<title>466&#45;&gt;4</title>
<path fill="none" stroke="red" stroke-width="0.23" d="M843.1,-77.47C838.65,-74.33 833.84,-71.16 829.17,-68.53 797.75,-50.8 758.99,-35.29 734.17,-26.1"/>
<polygon fill="red" stroke="red" stroke-width="0.23" points="735.05,-22.69 724.46,-22.56 732.65,-29.27 735.05,-22.69"/>
</g>
<!-- 466&#45;&gt;5 -->
<g id="edge110" class="edge">
<title>466&#45;&gt;5</title>
<path fill="none" stroke="red" stroke-width="0.29" d="M843.39,-76.91C838.93,-73.79 834.04,-70.78 829.17,-68.53 768.92,-40.63 747.89,-51.21 684.17,-32.53 677.63,-30.61 670.61,-28.34 664.12,-26.14"/>
<polygon fill="red" stroke="red" stroke-width="0.29" points="665.08,-22.77 654.48,-22.81 662.79,-29.38 665.08,-22.77"/>
</g>
<!-- 466&#45;&gt;6 -->
<g id="edge111" class="edge">
<title>466&#45;&gt;6</title>
<path fill="none" stroke="green" stroke-width="0.18" d="M846.6,-73.73C837.22,-62.56 825.28,-48.34 815.72,-36.97"/>
<polygon fill="green" stroke="green" stroke-width="0.18" points="818.37,-34.68 809.26,-29.27 813.01,-39.18 818.37,-34.68"/>
</g>
<!-- 466&#45;&gt;7 -->
<g id="edge112" class="edge">
<title>466&#45;&gt;7</title>
<path fill="none" stroke="green" stroke-width="0.23" d="M860.91,-68.54C860.47,-60.42 859.99,-51.31 859.55,-43.04"/>
<polygon fill="green" stroke="green" stroke-width="0.23" points="863.03,-42.61 859,-32.81 856.04,-42.98 863.03,-42.61"/>
</g>
<!-- 467&#45;&gt;1 -->
<g id="edge113" class="edge">
<title>467&#45;&gt;1</title>
<path fill="none" stroke="red" stroke-width="0.12" d="M1156.54,-83.22C1142.54,-78.02 1124.09,-71.88 1107.17,-68.53 891.67,-25.8 823.93,-97.84 614.17,-32.53 612.91,-32.13 611.64,-31.67 610.38,-31.15"/>
<polygon fill="red" stroke="red" stroke-width="0.12" points="611.62,-27.85 601.12,-26.43 608.44,-34.09 611.62,-27.85"/>
</g>
<!-- 467&#45;&gt;2 -->
<g id="edge114" class="edge">
<title>467&#45;&gt;2</title>
<path fill="none" stroke="green" stroke-width="0.11" d="M1159.26,-78.19C1153.35,-74.56 1146.7,-70.99 1140.17,-68.53 1053.61,-35.9 1022,-64.45 935.17,-32.53 933.93,-32.07 932.68,-31.55 931.43,-30.99"/>
<polygon fill="green" stroke="green" stroke-width="0.11" points="932.69,-27.7 922.21,-26.14 929.43,-33.9 932.69,-27.7"/>
</g>
<!-- 467&#45;&gt;3 -->
<g id="edge115" class="edge">
<title>467&#45;&gt;3</title>
<path fill="none" stroke="red" stroke-width="0.53" d="M1159.09,-78.63C1153.17,-75 1146.56,-71.32 1140.17,-68.53 1087.56,-45.52 1021.81,-29.85 986.13,-22.35"/>
<polygon fill="red" stroke="red" stroke-width="0.53" points="986.57,-18.87 976.07,-20.28 985.17,-25.72 986.57,-18.87"/>
</g>
<!-- 467&#45;&gt;4 -->
<g id="edge116" class="edge">
<title>467&#45;&gt;4</title>
<path fill="none" stroke="green" stroke-width="0.3" d="M1156.17,-83.31C1142.2,-78.21 1123.9,-72.15 1107.17,-68.53 961.68,-37.04 920.91,-57.59 774.17,-32.53 761.01,-30.28 746.52,-26.96 734.57,-23.99"/>
<polygon fill="green" stroke="green" stroke-width="0.3" points="735.38,-20.59 724.82,-21.51 733.65,-27.37 735.38,-20.59"/>
</g>
<!-- 467&#45;&gt;5 -->
<g id="edge117" class="edge">
<title>467&#45;&gt;5</title>
<path fill="none" stroke="green" stroke-width="0.25" d="M1156.52,-83.29C1142.52,-78.12 1124.07,-71.98 1107.17,-68.53 922.32,-30.72 868.86,-71.11 684.17,-32.53 677.39,-31.11 670.21,-28.98 663.63,-26.76"/>
<polygon fill="green" stroke="green" stroke-width="0.25" points="664.52,-23.35 653.92,-23.28 662.15,-29.94 664.52,-23.35"/>
</g>
<!-- 467&#45;&gt;6 -->
<g id="edge118" class="edge">
<title>467&#45;&gt;6</title>
<path fill="none" stroke="red" stroke-width="0.17" d="M1159.35,-77.95C1153.44,-74.32 1146.77,-70.8 1140.17,-68.53 1010.29,-23.77 965.6,-69.08 833.17,-32.53 829.7,-31.57 826.13,-30.3 822.67,-28.91"/>
<polygon fill="red" stroke="red" stroke-width="0.17" points="823.93,-25.65 813.37,-24.8 821.1,-32.05 823.93,-25.65"/>
</g>
<!-- 467&#45;&gt;7 -->
<g id="edge119" class="edge">
<title>467&#45;&gt;7</title>
<path fill="none" stroke="green" stroke-width="0.12" d="M1159.32,-78.05C1153.4,-74.42 1146.74,-70.88 1140.17,-68.53 1031.98,-29.85 992.67,-70.33 884.17,-32.53 882.92,-32.09 881.66,-31.59 880.41,-31.05"/>
<polygon fill="green" stroke="green" stroke-width="0.12" points="881.67,-27.75 871.18,-26.24 878.43,-33.96 881.67,-27.75"/>
</g>
</g>
</svg>
