<?xml version="1.0" encoding="utf-8" standalone="no"?>
<!DOCTYPE svg PUBLIC "-//W3C//DTD SVG 1.1//EN"
  "http://www.w3.org/Graphics/SVG/1.1/DTD/svg11.dtd">
<svg xmlns:xlink="http://www.w3.org/1999/xlink" width="528.650112pt" height="325.986375pt" viewBox="0 0 528.650112 325.986375" xmlns="http://www.w3.org/2000/svg" version="1.1">
 <metadata>
  <rdf:RDF xmlns:dc="http://purl.org/dc/elements/1.1/" xmlns:cc="http://creativecommons.org/ns#" xmlns:rdf="http://www.w3.org/1999/02/22-rdf-syntax-ns#">
   <cc:Work>
    <dc:type rdf:resource="http://purl.org/dc/dcmitype/StillImage"/>
    <dc:date>2023-06-16T23:06:53.960316</dc:date>
    <dc:format>image/svg+xml</dc:format>
    <dc:creator>
     <cc:Agent>
      <dc:title>Matplotlib v3.6.3, https://matplotlib.org/</dc:title>
     </cc:Agent>
    </dc:creator>
   </cc:Work>
  </rdf:RDF>
 </metadata>
 <defs>
  <style type="text/css">*{stroke-linejoin: round; stroke-linecap: butt}</style>
 </defs>
 <g id="figure_1">
  <g id="patch_1">
   <path d="M 0 325.986375 
L 528.650112 325.986375 
L 528.650112 0 
L 0 0 
z
" style="fill: #ffffff"/>
  </g>
  <g id="axes_1">
   <g id="patch_2">
    <path d="M 52.160938 288.430125 
L 409.280938 288.430125 
L 409.280938 22.318125 
L 52.160938 22.318125 
z
" style="fill: #ffffff"/>
   </g>
   <g id="matplotlib.axis_1">
    <g id="xtick_1">
     <g id="line2d_1">
      <path d="M 68.393665 288.430125 
L 68.393665 22.318125 
" clip-path="url(#p509f74df4b)" style="fill: none; stroke: #b0b0b0; stroke-width: 0.8; stroke-linecap: square"/>
     </g>
     <g id="line2d_2">
      <defs>
       <path id="mfbf037ba52" d="M 0 0 
L 0 3.5 
" style="stroke: #000000; stroke-width: 0.8"/>
      </defs>
      <g>
       <use xlink:href="#mfbf037ba52" x="68.393665" y="288.430125" style="stroke: #000000; stroke-width: 0.8"/>
      </g>
     </g>
     <g id="text_1">
      <!-- 0 -->
      <g transform="translate(65.212415 303.028562) scale(0.1 -0.1)">
       <defs>
        <path id="DejaVuSans-30" d="M 2034 4250 
Q 1547 4250 1301 3770 
Q 1056 3291 1056 2328 
Q 1056 1369 1301 889 
Q 1547 409 2034 409 
Q 2525 409 2770 889 
Q 3016 1369 3016 2328 
Q 3016 3291 2770 3770 
Q 2525 4250 2034 4250 
z
M 2034 4750 
Q 2819 4750 3233 4129 
Q 3647 3509 3647 2328 
Q 3647 1150 3233 529 
Q 2819 -91 2034 -91 
Q 1250 -91 836 529 
Q 422 1150 422 2328 
Q 422 3509 836 4129 
Q 1250 4750 2034 4750 
z
" transform="scale(0.015625)"/>
       </defs>
       <use xlink:href="#DejaVuSans-30"/>
      </g>
     </g>
    </g>
    <g id="xtick_2">
     <g id="line2d_3">
      <path d="M 110.016042 288.430125 
L 110.016042 22.318125 
" clip-path="url(#p509f74df4b)" style="fill: none; stroke: #b0b0b0; stroke-width: 0.8; stroke-linecap: square"/>
     </g>
     <g id="line2d_4">
      <g>
       <use xlink:href="#mfbf037ba52" x="110.016042" y="288.430125" style="stroke: #000000; stroke-width: 0.8"/>
      </g>
     </g>
     <g id="text_2">
      <!-- 5 -->
      <g transform="translate(106.834792 303.028562) scale(0.1 -0.1)">
       <defs>
        <path id="DejaVuSans-35" d="M 691 4666 
L 3169 4666 
L 3169 4134 
L 1269 4134 
L 1269 2991 
Q 1406 3038 1543 3061 
Q 1681 3084 1819 3084 
Q 2600 3084 3056 2656 
Q 3513 2228 3513 1497 
Q 3513 744 3044 326 
Q 2575 -91 1722 -91 
Q 1428 -91 1123 -41 
Q 819 9 494 109 
L 494 744 
Q 775 591 1075 516 
Q 1375 441 1709 441 
Q 2250 441 2565 725 
Q 2881 1009 2881 1497 
Q 2881 1984 2565 2268 
Q 2250 2553 1709 2553 
Q 1456 2553 1204 2497 
Q 953 2441 691 2322 
L 691 4666 
z
" transform="scale(0.015625)"/>
       </defs>
       <use xlink:href="#DejaVuSans-35"/>
      </g>
     </g>
    </g>
    <g id="xtick_3">
     <g id="line2d_5">
      <path d="M 151.63842 288.430125 
L 151.63842 22.318125 
" clip-path="url(#p509f74df4b)" style="fill: none; stroke: #b0b0b0; stroke-width: 0.8; stroke-linecap: square"/>
     </g>
     <g id="line2d_6">
      <g>
       <use xlink:href="#mfbf037ba52" x="151.63842" y="288.430125" style="stroke: #000000; stroke-width: 0.8"/>
      </g>
     </g>
     <g id="text_3">
      <!-- 10 -->
      <g transform="translate(145.27592 303.028562) scale(0.1 -0.1)">
       <defs>
        <path id="DejaVuSans-31" d="M 794 531 
L 1825 531 
L 1825 4091 
L 703 3866 
L 703 4441 
L 1819 4666 
L 2450 4666 
L 2450 531 
L 3481 531 
L 3481 0 
L 794 0 
L 794 531 
z
" transform="scale(0.015625)"/>
       </defs>
       <use xlink:href="#DejaVuSans-31"/>
       <use xlink:href="#DejaVuSans-30" x="63.623047"/>
      </g>
     </g>
    </g>
    <g id="xtick_4">
     <g id="line2d_7">
      <path d="M 193.260798 288.430125 
L 193.260798 22.318125 
" clip-path="url(#p509f74df4b)" style="fill: none; stroke: #b0b0b0; stroke-width: 0.8; stroke-linecap: square"/>
     </g>
     <g id="line2d_8">
      <g>
       <use xlink:href="#mfbf037ba52" x="193.260798" y="288.430125" style="stroke: #000000; stroke-width: 0.8"/>
      </g>
     </g>
     <g id="text_4">
      <!-- 15 -->
      <g transform="translate(186.898298 303.028562) scale(0.1 -0.1)">
       <use xlink:href="#DejaVuSans-31"/>
       <use xlink:href="#DejaVuSans-35" x="63.623047"/>
      </g>
     </g>
    </g>
    <g id="xtick_5">
     <g id="line2d_9">
      <path d="M 234.883175 288.430125 
L 234.883175 22.318125 
" clip-path="url(#p509f74df4b)" style="fill: none; stroke: #b0b0b0; stroke-width: 0.8; stroke-linecap: square"/>
     </g>
     <g id="line2d_10">
      <g>
       <use xlink:href="#mfbf037ba52" x="234.883175" y="288.430125" style="stroke: #000000; stroke-width: 0.8"/>
      </g>
     </g>
     <g id="text_5">
      <!-- 20 -->
      <g transform="translate(228.520675 303.028562) scale(0.1 -0.1)">
       <defs>
        <path id="DejaVuSans-32" d="M 1228 531 
L 3431 531 
L 3431 0 
L 469 0 
L 469 531 
Q 828 903 1448 1529 
Q 2069 2156 2228 2338 
Q 2531 2678 2651 2914 
Q 2772 3150 2772 3378 
Q 2772 3750 2511 3984 
Q 2250 4219 1831 4219 
Q 1534 4219 1204 4116 
Q 875 4013 500 3803 
L 500 4441 
Q 881 4594 1212 4672 
Q 1544 4750 1819 4750 
Q 2544 4750 2975 4387 
Q 3406 4025 3406 3419 
Q 3406 3131 3298 2873 
Q 3191 2616 2906 2266 
Q 2828 2175 2409 1742 
Q 1991 1309 1228 531 
z
" transform="scale(0.015625)"/>
       </defs>
       <use xlink:href="#DejaVuSans-32"/>
       <use xlink:href="#DejaVuSans-30" x="63.623047"/>
      </g>
     </g>
    </g>
    <g id="xtick_6">
     <g id="line2d_11">
      <path d="M 276.505553 288.430125 
L 276.505553 22.318125 
" clip-path="url(#p509f74df4b)" style="fill: none; stroke: #b0b0b0; stroke-width: 0.8; stroke-linecap: square"/>
     </g>
     <g id="line2d_12">
      <g>
       <use xlink:href="#mfbf037ba52" x="276.505553" y="288.430125" style="stroke: #000000; stroke-width: 0.8"/>
      </g>
     </g>
     <g id="text_6">
      <!-- 25 -->
      <g transform="translate(270.143053 303.028562) scale(0.1 -0.1)">
       <use xlink:href="#DejaVuSans-32"/>
       <use xlink:href="#DejaVuSans-35" x="63.623047"/>
      </g>
     </g>
    </g>
    <g id="xtick_7">
     <g id="line2d_13">
      <path d="M 318.127931 288.430125 
L 318.127931 22.318125 
" clip-path="url(#p509f74df4b)" style="fill: none; stroke: #b0b0b0; stroke-width: 0.8; stroke-linecap: square"/>
     </g>
     <g id="line2d_14">
      <g>
       <use xlink:href="#mfbf037ba52" x="318.127931" y="288.430125" style="stroke: #000000; stroke-width: 0.8"/>
      </g>
     </g>
     <g id="text_7">
      <!-- 30 -->
      <g transform="translate(311.765431 303.028562) scale(0.1 -0.1)">
       <defs>
        <path id="DejaVuSans-33" d="M 2597 2516 
Q 3050 2419 3304 2112 
Q 3559 1806 3559 1356 
Q 3559 666 3084 287 
Q 2609 -91 1734 -91 
Q 1441 -91 1130 -33 
Q 819 25 488 141 
L 488 750 
Q 750 597 1062 519 
Q 1375 441 1716 441 
Q 2309 441 2620 675 
Q 2931 909 2931 1356 
Q 2931 1769 2642 2001 
Q 2353 2234 1838 2234 
L 1294 2234 
L 1294 2753 
L 1863 2753 
Q 2328 2753 2575 2939 
Q 2822 3125 2822 3475 
Q 2822 3834 2567 4026 
Q 2313 4219 1838 4219 
Q 1578 4219 1281 4162 
Q 984 4106 628 3988 
L 628 4550 
Q 988 4650 1302 4700 
Q 1616 4750 1894 4750 
Q 2613 4750 3031 4423 
Q 3450 4097 3450 3541 
Q 3450 3153 3228 2886 
Q 3006 2619 2597 2516 
z
" transform="scale(0.015625)"/>
       </defs>
       <use xlink:href="#DejaVuSans-33"/>
       <use xlink:href="#DejaVuSans-30" x="63.623047"/>
      </g>
     </g>
    </g>
    <g id="xtick_8">
     <g id="line2d_15">
      <path d="M 359.750308 288.430125 
L 359.750308 22.318125 
" clip-path="url(#p509f74df4b)" style="fill: none; stroke: #b0b0b0; stroke-width: 0.8; stroke-linecap: square"/>
     </g>
     <g id="line2d_16">
      <g>
       <use xlink:href="#mfbf037ba52" x="359.750308" y="288.430125" style="stroke: #000000; stroke-width: 0.8"/>
      </g>
     </g>
     <g id="text_8">
      <!-- 35 -->
      <g transform="translate(353.387808 303.028562) scale(0.1 -0.1)">
       <use xlink:href="#DejaVuSans-33"/>
       <use xlink:href="#DejaVuSans-35" x="63.623047"/>
      </g>
     </g>
    </g>
    <g id="xtick_9">
     <g id="line2d_17">
      <path d="M 401.372686 288.430125 
L 401.372686 22.318125 
" clip-path="url(#p509f74df4b)" style="fill: none; stroke: #b0b0b0; stroke-width: 0.8; stroke-linecap: square"/>
     </g>
     <g id="line2d_18">
      <g>
       <use xlink:href="#mfbf037ba52" x="401.372686" y="288.430125" style="stroke: #000000; stroke-width: 0.8"/>
      </g>
     </g>
     <g id="text_9">
      <!-- 40 -->
      <g transform="translate(395.010186 303.028562) scale(0.1 -0.1)">
       <defs>
        <path id="DejaVuSans-34" d="M 2419 4116 
L 825 1625 
L 2419 1625 
L 2419 4116 
z
M 2253 4666 
L 3047 4666 
L 3047 1625 
L 3713 1625 
L 3713 1100 
L 3047 1100 
L 3047 0 
L 2419 0 
L 2419 1100 
L 313 1100 
L 313 1709 
L 2253 4666 
z
" transform="scale(0.015625)"/>
       </defs>
       <use xlink:href="#DejaVuSans-34"/>
       <use xlink:href="#DejaVuSans-30" x="63.623047"/>
      </g>
     </g>
    </g>
    <g id="text_10">
     <!-- Generations -->
     <g transform="translate(200.223281 316.706687) scale(0.1 -0.1)">
      <defs>
       <path id="DejaVuSans-47" d="M 3809 666 
L 3809 1919 
L 2778 1919 
L 2778 2438 
L 4434 2438 
L 4434 434 
Q 4069 175 3628 42 
Q 3188 -91 2688 -91 
Q 1594 -91 976 548 
Q 359 1188 359 2328 
Q 359 3472 976 4111 
Q 1594 4750 2688 4750 
Q 3144 4750 3555 4637 
Q 3966 4525 4313 4306 
L 4313 3634 
Q 3963 3931 3569 4081 
Q 3175 4231 2741 4231 
Q 1884 4231 1454 3753 
Q 1025 3275 1025 2328 
Q 1025 1384 1454 906 
Q 1884 428 2741 428 
Q 3075 428 3337 486 
Q 3600 544 3809 666 
z
" transform="scale(0.015625)"/>
       <path id="DejaVuSans-65" d="M 3597 1894 
L 3597 1613 
L 953 1613 
Q 991 1019 1311 708 
Q 1631 397 2203 397 
Q 2534 397 2845 478 
Q 3156 559 3463 722 
L 3463 178 
Q 3153 47 2828 -22 
Q 2503 -91 2169 -91 
Q 1331 -91 842 396 
Q 353 884 353 1716 
Q 353 2575 817 3079 
Q 1281 3584 2069 3584 
Q 2775 3584 3186 3129 
Q 3597 2675 3597 1894 
z
M 3022 2063 
Q 3016 2534 2758 2815 
Q 2500 3097 2075 3097 
Q 1594 3097 1305 2825 
Q 1016 2553 972 2059 
L 3022 2063 
z
" transform="scale(0.015625)"/>
       <path id="DejaVuSans-6e" d="M 3513 2113 
L 3513 0 
L 2938 0 
L 2938 2094 
Q 2938 2591 2744 2837 
Q 2550 3084 2163 3084 
Q 1697 3084 1428 2787 
Q 1159 2491 1159 1978 
L 1159 0 
L 581 0 
L 581 3500 
L 1159 3500 
L 1159 2956 
Q 1366 3272 1645 3428 
Q 1925 3584 2291 3584 
Q 2894 3584 3203 3211 
Q 3513 2838 3513 2113 
z
" transform="scale(0.015625)"/>
       <path id="DejaVuSans-72" d="M 2631 2963 
Q 2534 3019 2420 3045 
Q 2306 3072 2169 3072 
Q 1681 3072 1420 2755 
Q 1159 2438 1159 1844 
L 1159 0 
L 581 0 
L 581 3500 
L 1159 3500 
L 1159 2956 
Q 1341 3275 1631 3429 
Q 1922 3584 2338 3584 
Q 2397 3584 2469 3576 
Q 2541 3569 2628 3553 
L 2631 2963 
z
" transform="scale(0.015625)"/>
       <path id="DejaVuSans-61" d="M 2194 1759 
Q 1497 1759 1228 1600 
Q 959 1441 959 1056 
Q 959 750 1161 570 
Q 1363 391 1709 391 
Q 2188 391 2477 730 
Q 2766 1069 2766 1631 
L 2766 1759 
L 2194 1759 
z
M 3341 1997 
L 3341 0 
L 2766 0 
L 2766 531 
Q 2569 213 2275 61 
Q 1981 -91 1556 -91 
Q 1019 -91 701 211 
Q 384 513 384 1019 
Q 384 1609 779 1909 
Q 1175 2209 1959 2209 
L 2766 2209 
L 2766 2266 
Q 2766 2663 2505 2880 
Q 2244 3097 1772 3097 
Q 1472 3097 1187 3025 
Q 903 2953 641 2809 
L 641 3341 
Q 956 3463 1253 3523 
Q 1550 3584 1831 3584 
Q 2591 3584 2966 3190 
Q 3341 2797 3341 1997 
z
" transform="scale(0.015625)"/>
       <path id="DejaVuSans-74" d="M 1172 4494 
L 1172 3500 
L 2356 3500 
L 2356 3053 
L 1172 3053 
L 1172 1153 
Q 1172 725 1289 603 
Q 1406 481 1766 481 
L 2356 481 
L 2356 0 
L 1766 0 
Q 1100 0 847 248 
Q 594 497 594 1153 
L 594 3053 
L 172 3053 
L 172 3500 
L 594 3500 
L 594 4494 
L 1172 4494 
z
" transform="scale(0.015625)"/>
       <path id="DejaVuSans-69" d="M 603 3500 
L 1178 3500 
L 1178 0 
L 603 0 
L 603 3500 
z
M 603 4863 
L 1178 4863 
L 1178 4134 
L 603 4134 
L 603 4863 
z
" transform="scale(0.015625)"/>
       <path id="DejaVuSans-6f" d="M 1959 3097 
Q 1497 3097 1228 2736 
Q 959 2375 959 1747 
Q 959 1119 1226 758 
Q 1494 397 1959 397 
Q 2419 397 2687 759 
Q 2956 1122 2956 1747 
Q 2956 2369 2687 2733 
Q 2419 3097 1959 3097 
z
M 1959 3584 
Q 2709 3584 3137 3096 
Q 3566 2609 3566 1747 
Q 3566 888 3137 398 
Q 2709 -91 1959 -91 
Q 1206 -91 779 398 
Q 353 888 353 1747 
Q 353 2609 779 3096 
Q 1206 3584 1959 3584 
z
" transform="scale(0.015625)"/>
       <path id="DejaVuSans-73" d="M 2834 3397 
L 2834 2853 
Q 2591 2978 2328 3040 
Q 2066 3103 1784 3103 
Q 1356 3103 1142 2972 
Q 928 2841 928 2578 
Q 928 2378 1081 2264 
Q 1234 2150 1697 2047 
L 1894 2003 
Q 2506 1872 2764 1633 
Q 3022 1394 3022 966 
Q 3022 478 2636 193 
Q 2250 -91 1575 -91 
Q 1294 -91 989 -36 
Q 684 19 347 128 
L 347 722 
Q 666 556 975 473 
Q 1284 391 1588 391 
Q 1994 391 2212 530 
Q 2431 669 2431 922 
Q 2431 1156 2273 1281 
Q 2116 1406 1581 1522 
L 1381 1569 
Q 847 1681 609 1914 
Q 372 2147 372 2553 
Q 372 3047 722 3315 
Q 1072 3584 1716 3584 
Q 2034 3584 2315 3537 
Q 2597 3491 2834 3397 
z
" transform="scale(0.015625)"/>
      </defs>
      <use xlink:href="#DejaVuSans-47"/>
      <use xlink:href="#DejaVuSans-65" x="77.490234"/>
      <use xlink:href="#DejaVuSans-6e" x="139.013672"/>
      <use xlink:href="#DejaVuSans-65" x="202.392578"/>
      <use xlink:href="#DejaVuSans-72" x="263.916016"/>
      <use xlink:href="#DejaVuSans-61" x="305.029297"/>
      <use xlink:href="#DejaVuSans-74" x="366.308594"/>
      <use xlink:href="#DejaVuSans-69" x="405.517578"/>
      <use xlink:href="#DejaVuSans-6f" x="433.300781"/>
      <use xlink:href="#DejaVuSans-6e" x="494.482422"/>
      <use xlink:href="#DejaVuSans-73" x="557.861328"/>
     </g>
    </g>
   </g>
   <g id="matplotlib.axis_2">
    <g id="ytick_1">
     <g id="line2d_19">
      <path d="M 52.160938 282.108084 
L 409.280938 282.108084 
" clip-path="url(#p509f74df4b)" style="fill: none; stroke: #b0b0b0; stroke-width: 0.8; stroke-linecap: square"/>
     </g>
     <g id="line2d_20">
      <defs>
       <path id="m795cd0a47e" d="M 0 0 
L -3.5 0 
" style="stroke: #000000; stroke-width: 0.8"/>
      </defs>
      <g>
       <use xlink:href="#m795cd0a47e" x="52.160938" y="282.108084" style="stroke: #000000; stroke-width: 0.8"/>
      </g>
     </g>
     <g id="text_11">
      <!-- −0.4 -->
      <g transform="translate(20.878125 285.907302) scale(0.1 -0.1)">
       <defs>
        <path id="DejaVuSans-2212" d="M 678 2272 
L 4684 2272 
L 4684 1741 
L 678 1741 
L 678 2272 
z
" transform="scale(0.015625)"/>
        <path id="DejaVuSans-2e" d="M 684 794 
L 1344 794 
L 1344 0 
L 684 0 
L 684 794 
z
" transform="scale(0.015625)"/>
       </defs>
       <use xlink:href="#DejaVuSans-2212"/>
       <use xlink:href="#DejaVuSans-30" x="83.789062"/>
       <use xlink:href="#DejaVuSans-2e" x="147.412109"/>
       <use xlink:href="#DejaVuSans-34" x="179.199219"/>
      </g>
     </g>
    </g>
    <g id="ytick_2">
     <g id="line2d_21">
      <path d="M 52.160938 229.859119 
L 409.280938 229.859119 
" clip-path="url(#p509f74df4b)" style="fill: none; stroke: #b0b0b0; stroke-width: 0.8; stroke-linecap: square"/>
     </g>
     <g id="line2d_22">
      <g>
       <use xlink:href="#m795cd0a47e" x="52.160938" y="229.859119" style="stroke: #000000; stroke-width: 0.8"/>
      </g>
     </g>
     <g id="text_12">
      <!-- −0.2 -->
      <g transform="translate(20.878125 233.658337) scale(0.1 -0.1)">
       <use xlink:href="#DejaVuSans-2212"/>
       <use xlink:href="#DejaVuSans-30" x="83.789062"/>
       <use xlink:href="#DejaVuSans-2e" x="147.412109"/>
       <use xlink:href="#DejaVuSans-32" x="179.199219"/>
      </g>
     </g>
    </g>
    <g id="ytick_3">
     <g id="line2d_23">
      <path d="M 52.160938 177.610154 
L 409.280938 177.610154 
" clip-path="url(#p509f74df4b)" style="fill: none; stroke: #b0b0b0; stroke-width: 0.8; stroke-linecap: square"/>
     </g>
     <g id="line2d_24">
      <g>
       <use xlink:href="#m795cd0a47e" x="52.160938" y="177.610154" style="stroke: #000000; stroke-width: 0.8"/>
      </g>
     </g>
     <g id="text_13">
      <!-- 0.0 -->
      <g transform="translate(29.257812 181.409372) scale(0.1 -0.1)">
       <use xlink:href="#DejaVuSans-30"/>
       <use xlink:href="#DejaVuSans-2e" x="63.623047"/>
       <use xlink:href="#DejaVuSans-30" x="95.410156"/>
      </g>
     </g>
    </g>
    <g id="ytick_4">
     <g id="line2d_25">
      <path d="M 52.160938 125.361189 
L 409.280938 125.361189 
" clip-path="url(#p509f74df4b)" style="fill: none; stroke: #b0b0b0; stroke-width: 0.8; stroke-linecap: square"/>
     </g>
     <g id="line2d_26">
      <g>
       <use xlink:href="#m795cd0a47e" x="52.160938" y="125.361189" style="stroke: #000000; stroke-width: 0.8"/>
      </g>
     </g>
     <g id="text_14">
      <!-- 0.2 -->
      <g transform="translate(29.257812 129.160407) scale(0.1 -0.1)">
       <use xlink:href="#DejaVuSans-30"/>
       <use xlink:href="#DejaVuSans-2e" x="63.623047"/>
       <use xlink:href="#DejaVuSans-32" x="95.410156"/>
      </g>
     </g>
    </g>
    <g id="ytick_5">
     <g id="line2d_27">
      <path d="M 52.160938 73.112224 
L 409.280938 73.112224 
" clip-path="url(#p509f74df4b)" style="fill: none; stroke: #b0b0b0; stroke-width: 0.8; stroke-linecap: square"/>
     </g>
     <g id="line2d_28">
      <g>
       <use xlink:href="#m795cd0a47e" x="52.160938" y="73.112224" style="stroke: #000000; stroke-width: 0.8"/>
      </g>
     </g>
     <g id="text_15">
      <!-- 0.4 -->
      <g transform="translate(29.257812 76.911442) scale(0.1 -0.1)">
       <use xlink:href="#DejaVuSans-30"/>
       <use xlink:href="#DejaVuSans-2e" x="63.623047"/>
       <use xlink:href="#DejaVuSans-34" x="95.410156"/>
      </g>
     </g>
    </g>
    <g id="text_16">
     <!-- Outputs -->
     <g transform="translate(14.798437 175.346781) rotate(-90) scale(0.1 -0.1)">
      <defs>
       <path id="DejaVuSans-4f" d="M 2522 4238 
Q 1834 4238 1429 3725 
Q 1025 3213 1025 2328 
Q 1025 1447 1429 934 
Q 1834 422 2522 422 
Q 3209 422 3611 934 
Q 4013 1447 4013 2328 
Q 4013 3213 3611 3725 
Q 3209 4238 2522 4238 
z
M 2522 4750 
Q 3503 4750 4090 4092 
Q 4678 3434 4678 2328 
Q 4678 1225 4090 567 
Q 3503 -91 2522 -91 
Q 1538 -91 948 565 
Q 359 1222 359 2328 
Q 359 3434 948 4092 
Q 1538 4750 2522 4750 
z
" transform="scale(0.015625)"/>
       <path id="DejaVuSans-75" d="M 544 1381 
L 544 3500 
L 1119 3500 
L 1119 1403 
Q 1119 906 1312 657 
Q 1506 409 1894 409 
Q 2359 409 2629 706 
Q 2900 1003 2900 1516 
L 2900 3500 
L 3475 3500 
L 3475 0 
L 2900 0 
L 2900 538 
Q 2691 219 2414 64 
Q 2138 -91 1772 -91 
Q 1169 -91 856 284 
Q 544 659 544 1381 
z
M 1991 3584 
L 1991 3584 
z
" transform="scale(0.015625)"/>
       <path id="DejaVuSans-70" d="M 1159 525 
L 1159 -1331 
L 581 -1331 
L 581 3500 
L 1159 3500 
L 1159 2969 
Q 1341 3281 1617 3432 
Q 1894 3584 2278 3584 
Q 2916 3584 3314 3078 
Q 3713 2572 3713 1747 
Q 3713 922 3314 415 
Q 2916 -91 2278 -91 
Q 1894 -91 1617 61 
Q 1341 213 1159 525 
z
M 3116 1747 
Q 3116 2381 2855 2742 
Q 2594 3103 2138 3103 
Q 1681 3103 1420 2742 
Q 1159 2381 1159 1747 
Q 1159 1113 1420 752 
Q 1681 391 2138 391 
Q 2594 391 2855 752 
Q 3116 1113 3116 1747 
z
" transform="scale(0.015625)"/>
      </defs>
      <use xlink:href="#DejaVuSans-4f"/>
      <use xlink:href="#DejaVuSans-75" x="78.710938"/>
      <use xlink:href="#DejaVuSans-74" x="142.089844"/>
      <use xlink:href="#DejaVuSans-70" x="181.298828"/>
      <use xlink:href="#DejaVuSans-75" x="244.775391"/>
      <use xlink:href="#DejaVuSans-74" x="308.154297"/>
      <use xlink:href="#DejaVuSans-73" x="347.363281"/>
     </g>
    </g>
   </g>
   <g id="line2d_29">
    <path d="M 68.393665 174.371362 
L 76.71814 198.315712 
L 85.042616 186.701393 
L 93.367091 206.187541 
L 101.691567 200.961051 
L 110.016042 158.267522 
L 118.340518 184.446413 
L 126.664993 186.816019 
L 134.989469 111.000204 
L 143.313944 123.89594 
L 151.63842 214.995072 
L 159.962896 99.874125 
L 168.287371 134.427221 
L 176.611847 153.613307 
L 184.936322 143.284494 
L 193.260798 133.248153 
L 201.585273 118.344607 
L 209.909749 119.517263 
L 218.234224 119.003385 
L 226.5587 143.936326 
L 234.883175 131.472645 
L 243.207651 103.929707 
L 251.532126 121.503411 
L 259.856602 101.715735 
L 268.181077 127.946026 
L 276.505553 125.366552 
L 284.830028 137.439183 
L 293.154504 160.009992 
L 301.478979 124.522015 
L 309.803455 150.479157 
L 318.127931 147.053655 
L 326.452406 185.238094 
L 334.776882 195.584987 
L 343.101357 214.418824 
L 351.425833 193.15392 
L 359.750308 210.151716 
L 368.074784 186.794657 
L 376.399259 230.80172 
L 384.723735 182.59058 
L 393.04821 179.6193 
" clip-path="url(#p509f74df4b)" style="fill: none; stroke: #1f77b4; stroke-width: 1.5; stroke-linecap: square"/>
   </g>
   <g id="line2d_30">
    <path d="M 68.393665 130.67843 
L 76.71814 206.29325 
L 85.042616 138.404368 
L 93.367091 165.329151 
L 101.691567 162.557904 
L 110.016042 151.834177 
L 118.340518 131.122578 
L 126.664993 203.541085 
L 134.989469 169.403126 
L 143.313944 151.789983 
L 151.63842 141.646685 
L 159.962896 160.061915 
L 168.287371 170.1767 
L 176.611847 194.767723 
L 184.936322 193.228947 
L 193.260798 185.651348 
L 201.585273 218.104802 
L 209.909749 207.370842 
L 218.234224 189.134486 
L 226.5587 168.806149 
L 234.883175 196.30689 
L 243.207651 223.498169 
L 251.532126 198.187776 
L 259.856602 164.213403 
L 268.181077 177.355063 
L 276.505553 171.92488 
L 284.830028 201.341831 
L 293.154504 175.7572 
L 301.478979 176.972532 
L 309.803455 217.341938 
L 318.127931 206.261972 
L 326.452406 208.663764 
L 334.776882 201.054559 
L 343.101357 223.014458 
L 351.425833 193.327974 
L 359.750308 224.829698 
L 368.074784 205.917656 
L 376.399259 222.903638 
L 384.723735 156.320121 
L 393.04821 182.575778 
" clip-path="url(#p509f74df4b)" style="fill: none; stroke: #ff7f0e; stroke-width: 1.5; stroke-linecap: square"/>
   </g>
   <g id="line2d_31">
    <path d="M 68.393665 179.217834 
L 76.71814 127.106765 
L 85.042616 143.781838 
L 93.367091 144.377948 
L 101.691567 207.089332 
L 110.016042 179.917419 
L 118.340518 172.230205 
L 126.664993 202.537429 
L 134.989469 135.530383 
L 143.313944 126.382181 
L 151.63842 171.11888 
L 159.962896 137.133738 
L 168.287371 165.265796 
L 176.611847 184.760263 
L 184.936322 160.192539 
L 193.260798 200.84039 
L 201.585273 190.604919 
L 209.909749 237.454205 
L 218.234224 198.179522 
L 226.5587 192.713174 
L 234.883175 191.014369 
L 243.207651 178.912032 
L 251.532126 209.438182 
L 259.856602 228.704213 
L 268.181077 225.96479 
L 276.505553 204.022712 
L 284.830028 192.210956 
L 293.154504 210.892636 
L 301.478979 233.252352 
L 309.803455 202.677491 
L 318.127931 219.538202 
L 326.452406 216.446107 
L 334.776882 197.890681 
L 343.101357 157.607222 
L 351.425833 185.331594 
L 359.750308 210.967109 
L 368.074784 199.402868 
L 376.399259 186.41907 
L 384.723735 276.334125 
L 393.04821 265.807196 
" clip-path="url(#p509f74df4b)" style="fill: none; stroke: #2ca02c; stroke-width: 1.5; stroke-linecap: square"/>
   </g>
   <g id="line2d_32">
    <path d="M 68.393665 197.611432 
L 76.71814 181.518147 
L 85.042616 106.989652 
L 93.367091 126.506319 
L 101.691567 151.228808 
L 110.016042 137.358173 
L 118.340518 136.841385 
L 126.664993 175.342463 
L 134.989469 136.937779 
L 143.313944 134.866181 
L 151.63842 156.921851 
L 159.962896 162.61302 
L 168.287371 122.779351 
L 176.611847 143.023114 
L 184.936322 112.773044 
L 193.260798 84.337895 
L 201.585273 106.539025 
L 209.909749 104.625982 
L 218.234224 122.973661 
L 226.5587 132.832447 
L 234.883175 113.059908 
L 243.207651 87.936495 
L 251.532126 116.830373 
L 259.856602 118.419846 
L 268.181077 86.59198 
L 276.505553 131.960948 
L 284.830028 137.645203 
L 293.154504 111.76989 
L 301.478979 124.986448 
L 309.803455 200.313711 
L 318.127931 175.867424 
L 326.452406 216.665848 
L 334.776882 201.425825 
L 343.101357 190.09096 
L 351.425833 182.082742 
L 359.750308 199.839755 
L 368.074784 176.58263 
L 376.399259 154.646337 
L 384.723735 207.086097 
L 393.04821 190.517659 
" clip-path="url(#p509f74df4b)" style="fill: none; stroke: #d62728; stroke-width: 1.5; stroke-linecap: square"/>
   </g>
   <g id="line2d_33">
    <path d="M 68.393665 177.529137 
L 76.71814 107.591451 
L 85.042616 147.83596 
L 93.367091 159.865714 
L 101.691567 128.243687 
L 110.016042 124.422961 
L 118.340518 166.917292 
L 126.664993 151.740718 
L 134.989469 178.869469 
L 143.313944 159.16999 
L 151.63842 156.853004 
L 159.962896 127.323213 
L 168.287371 189.933143 
L 176.611847 195.283776 
L 184.936322 168.648091 
L 193.260798 210.449013 
L 201.585273 183.415712 
L 209.909749 209.501235 
L 218.234224 197.53476 
L 226.5587 221.53409 
L 234.883175 219.149307 
L 243.207651 193.37515 
L 251.532126 170.55364 
L 259.856602 237.705998 
L 268.181077 196.77486 
L 276.505553 212.52668 
L 284.830028 208.019694 
L 293.154504 212.447205 
L 301.478979 157.812449 
L 309.803455 150.081414 
L 318.127931 152.042664 
L 326.452406 143.840735 
L 334.776882 178.713985 
L 343.101357 148.630347 
L 351.425833 137.747157 
L 359.750308 142.600267 
L 368.074784 145.564549 
L 376.399259 168.132264 
L 384.723735 163.320498 
L 393.04821 209.975846 
" clip-path="url(#p509f74df4b)" style="fill: none; stroke: #9467bd; stroke-width: 1.5; stroke-linecap: square"/>
   </g>
   <g id="line2d_34">
    <path d="M 68.393665 198.45073 
L 76.71814 166.31234 
L 85.042616 166.263461 
L 93.367091 197.722194 
L 101.691567 178.37469 
L 110.016042 123.745734 
L 118.340518 156.737696 
L 126.664993 145.460322 
L 134.989469 160.496147 
L 143.313944 131.092925 
L 151.63842 151.391091 
L 159.962896 143.025556 
L 168.287371 131.097815 
L 176.611847 164.704558 
L 184.936322 191.987432 
L 193.260798 149.691724 
L 201.585273 150.200171 
L 209.909749 127.067294 
L 218.234224 144.622063 
L 226.5587 142.827335 
L 234.883175 179.371683 
L 243.207651 147.061329 
L 251.532126 170.271882 
L 259.856602 134.795027 
L 268.181077 131.413589 
L 276.505553 168.556902 
L 284.830028 126.776646 
L 293.154504 161.303974 
L 301.478979 219.599593 
L 309.803455 195.547343 
L 318.127931 147.289523 
L 326.452406 173.075203 
L 334.776882 150.662157 
L 343.101357 148.391782 
L 351.425833 187.421154 
L 359.750308 210.602891 
L 368.074784 189.791056 
L 376.399259 151.159454 
L 384.723735 156.892558 
L 393.04821 156.116229 
" clip-path="url(#p509f74df4b)" style="fill: none; stroke: #8c564b; stroke-width: 1.5; stroke-linecap: square"/>
   </g>
   <g id="line2d_35">
    <path d="M 68.393665 163.283897 
L 76.71814 139.274303 
L 85.042616 114.093564 
L 93.367091 123.227796 
L 101.691567 148.446714 
L 110.016042 139.301797 
L 118.340518 141.039476 
L 126.664993 112.741145 
L 134.989469 178.758075 
L 143.313944 124.078192 
L 151.63842 171.594306 
L 159.962896 154.107036 
L 168.287371 112.043769 
L 176.611847 133.839854 
L 184.936322 121.827781 
L 193.260798 159.619084 
L 201.585273 98.857176 
L 209.909749 115.753273 
L 218.234224 123.237156 
L 226.5587 130.092762 
L 234.883175 102.918421 
L 243.207651 94.020066 
L 251.532126 100.758028 
L 259.856602 130.498699 
L 268.181077 112.475866 
L 276.505553 110.898655 
L 284.830028 116.939492 
L 293.154504 82.487943 
L 301.478979 100.536764 
L 309.803455 42.79638 
L 318.127931 60.753714 
L 326.452406 34.414125 
L 334.776882 118.533123 
L 343.101357 83.100444 
L 351.425833 108.478211 
L 359.750308 143.582405 
L 368.074784 109.539705 
L 376.399259 154.242467 
L 384.723735 138.170839 
L 393.04821 156.647524 
" clip-path="url(#p509f74df4b)" style="fill: none; stroke: #e377c2; stroke-width: 1.5; stroke-linecap: square"/>
   </g>
   <g id="line2d_36">
    <path d="M 68.393665 220.80958 
L 76.71814 163.803692 
L 85.042616 193.992012 
L 93.367091 171.800997 
L 101.691567 191.362245 
L 110.016042 171.496272 
L 118.340518 182.043365 
L 126.664993 195.052774 
L 134.989469 172.657603 
L 143.313944 176.403796 
L 151.63842 163.677709 
L 159.962896 180.827679 
L 168.287371 213.921996 
L 176.611847 153.358255 
L 184.936322 204.034395 
L 193.260798 179.484218 
L 201.585273 152.577182 
L 209.909749 198.429254 
L 218.234224 166.179063 
L 226.5587 146.127221 
L 234.883175 183.635001 
L 243.207651 160.691026 
L 251.532126 145.98763 
L 259.856602 176.455745 
L 268.181077 177.320705 
L 276.505553 124.650346 
L 284.830028 167.183288 
L 293.154504 170.333912 
L 301.478979 180.312834 
L 309.803455 145.460172 
L 318.127931 159.81441 
L 326.452406 122.06922 
L 334.776882 134.788709 
L 343.101357 122.404817 
L 351.425833 140.61614 
L 359.750308 163.209075 
L 368.074784 161.880327 
L 376.399259 143.947171 
L 384.723735 163.263491 
L 393.04821 132.891099 
" clip-path="url(#p509f74df4b)" style="fill: none; stroke: #7f7f7f; stroke-width: 1.5; stroke-linecap: square"/>
   </g>
   <g id="patch_3">
    <path d="M 52.160938 288.430125 
L 52.160938 22.318125 
" style="fill: none; stroke: #000000; stroke-width: 0.8; stroke-linejoin: miter; stroke-linecap: square"/>
   </g>
   <g id="patch_4">
    <path d="M 409.280938 288.430125 
L 409.280938 22.318125 
" style="fill: none; stroke: #000000; stroke-width: 0.8; stroke-linejoin: miter; stroke-linecap: square"/>
   </g>
   <g id="patch_5">
    <path d="M 52.160938 288.430125 
L 409.280938 288.430125 
" style="fill: none; stroke: #000000; stroke-width: 0.8; stroke-linejoin: miter; stroke-linecap: square"/>
   </g>
   <g id="patch_6">
    <path d="M 52.160938 22.318125 
L 409.280938 22.318125 
" style="fill: none; stroke: #000000; stroke-width: 0.8; stroke-linejoin: miter; stroke-linecap: square"/>
   </g>
   <g id="text_17">
    <!-- Outputs across generations -->
    <g transform="translate(147.952813 16.318125) scale(0.12 -0.12)">
     <defs>
      <path id="DejaVuSans-20" transform="scale(0.015625)"/>
      <path id="DejaVuSans-63" d="M 3122 3366 
L 3122 2828 
Q 2878 2963 2633 3030 
Q 2388 3097 2138 3097 
Q 1578 3097 1268 2742 
Q 959 2388 959 1747 
Q 959 1106 1268 751 
Q 1578 397 2138 397 
Q 2388 397 2633 464 
Q 2878 531 3122 666 
L 3122 134 
Q 2881 22 2623 -34 
Q 2366 -91 2075 -91 
Q 1284 -91 818 406 
Q 353 903 353 1747 
Q 353 2603 823 3093 
Q 1294 3584 2113 3584 
Q 2378 3584 2631 3529 
Q 2884 3475 3122 3366 
z
" transform="scale(0.015625)"/>
      <path id="DejaVuSans-67" d="M 2906 1791 
Q 2906 2416 2648 2759 
Q 2391 3103 1925 3103 
Q 1463 3103 1205 2759 
Q 947 2416 947 1791 
Q 947 1169 1205 825 
Q 1463 481 1925 481 
Q 2391 481 2648 825 
Q 2906 1169 2906 1791 
z
M 3481 434 
Q 3481 -459 3084 -895 
Q 2688 -1331 1869 -1331 
Q 1566 -1331 1297 -1286 
Q 1028 -1241 775 -1147 
L 775 -588 
Q 1028 -725 1275 -790 
Q 1522 -856 1778 -856 
Q 2344 -856 2625 -561 
Q 2906 -266 2906 331 
L 2906 616 
Q 2728 306 2450 153 
Q 2172 0 1784 0 
Q 1141 0 747 490 
Q 353 981 353 1791 
Q 353 2603 747 3093 
Q 1141 3584 1784 3584 
Q 2172 3584 2450 3431 
Q 2728 3278 2906 2969 
L 2906 3500 
L 3481 3500 
L 3481 434 
z
" transform="scale(0.015625)"/>
     </defs>
     <use xlink:href="#DejaVuSans-4f"/>
     <use xlink:href="#DejaVuSans-75" x="78.710938"/>
     <use xlink:href="#DejaVuSans-74" x="142.089844"/>
     <use xlink:href="#DejaVuSans-70" x="181.298828"/>
     <use xlink:href="#DejaVuSans-75" x="244.775391"/>
     <use xlink:href="#DejaVuSans-74" x="308.154297"/>
     <use xlink:href="#DejaVuSans-73" x="347.363281"/>
     <use xlink:href="#DejaVuSans-20" x="399.462891"/>
     <use xlink:href="#DejaVuSans-61" x="431.25"/>
     <use xlink:href="#DejaVuSans-63" x="492.529297"/>
     <use xlink:href="#DejaVuSans-72" x="547.509766"/>
     <use xlink:href="#DejaVuSans-6f" x="586.373047"/>
     <use xlink:href="#DejaVuSans-73" x="647.554688"/>
     <use xlink:href="#DejaVuSans-73" x="699.654297"/>
     <use xlink:href="#DejaVuSans-20" x="751.753906"/>
     <use xlink:href="#DejaVuSans-67" x="783.541016"/>
     <use xlink:href="#DejaVuSans-65" x="847.017578"/>
     <use xlink:href="#DejaVuSans-6e" x="908.541016"/>
     <use xlink:href="#DejaVuSans-65" x="971.919922"/>
     <use xlink:href="#DejaVuSans-72" x="1033.443359"/>
     <use xlink:href="#DejaVuSans-61" x="1074.556641"/>
     <use xlink:href="#DejaVuSans-74" x="1135.835938"/>
     <use xlink:href="#DejaVuSans-69" x="1175.044922"/>
     <use xlink:href="#DejaVuSans-6f" x="1202.828125"/>
     <use xlink:href="#DejaVuSans-6e" x="1264.009766"/>
     <use xlink:href="#DejaVuSans-73" x="1327.388672"/>
    </g>
   </g>
   <g id="legend_1">
    <g id="patch_7">
     <path d="M 425.565738 142.743125 
L 519.450113 142.743125 
Q 521.450113 142.743125 521.450113 140.743125 
L 521.450113 24.318125 
Q 521.450113 22.318125 519.450113 22.318125 
L 425.565738 22.318125 
Q 423.565738 22.318125 423.565738 24.318125 
L 423.565738 140.743125 
Q 423.565738 142.743125 425.565738 142.743125 
z
" style="fill: #ffffff; opacity: 0.8; stroke: #cccccc; stroke-linejoin: miter"/>
    </g>
    <g id="line2d_37">
     <path d="M 427.565738 30.416562 
L 437.565738 30.416562 
L 447.565738 30.416562 
" style="fill: none; stroke: #1f77b4; stroke-width: 1.5; stroke-linecap: square"/>
    </g>
    <g id="text_18">
     <!-- output 0 (+) -->
     <g transform="translate(455.565738 33.916562) scale(0.1 -0.1)">
      <defs>
       <path id="DejaVuSans-28" d="M 1984 4856 
Q 1566 4138 1362 3434 
Q 1159 2731 1159 2009 
Q 1159 1288 1364 580 
Q 1569 -128 1984 -844 
L 1484 -844 
Q 1016 -109 783 600 
Q 550 1309 550 2009 
Q 550 2706 781 3412 
Q 1013 4119 1484 4856 
L 1984 4856 
z
" transform="scale(0.015625)"/>
       <path id="DejaVuSans-2b" d="M 2944 4013 
L 2944 2272 
L 4684 2272 
L 4684 1741 
L 2944 1741 
L 2944 0 
L 2419 0 
L 2419 1741 
L 678 1741 
L 678 2272 
L 2419 2272 
L 2419 4013 
L 2944 4013 
z
" transform="scale(0.015625)"/>
       <path id="DejaVuSans-29" d="M 513 4856 
L 1013 4856 
Q 1481 4119 1714 3412 
Q 1947 2706 1947 2009 
Q 1947 1309 1714 600 
Q 1481 -109 1013 -844 
L 513 -844 
Q 928 -128 1133 580 
Q 1338 1288 1338 2009 
Q 1338 2731 1133 3434 
Q 928 4138 513 4856 
z
" transform="scale(0.015625)"/>
      </defs>
      <use xlink:href="#DejaVuSans-6f"/>
      <use xlink:href="#DejaVuSans-75" x="61.181641"/>
      <use xlink:href="#DejaVuSans-74" x="124.560547"/>
      <use xlink:href="#DejaVuSans-70" x="163.769531"/>
      <use xlink:href="#DejaVuSans-75" x="227.246094"/>
      <use xlink:href="#DejaVuSans-74" x="290.625"/>
      <use xlink:href="#DejaVuSans-20" x="329.833984"/>
      <use xlink:href="#DejaVuSans-30" x="361.621094"/>
      <use xlink:href="#DejaVuSans-20" x="425.244141"/>
      <use xlink:href="#DejaVuSans-28" x="457.03125"/>
      <use xlink:href="#DejaVuSans-2b" x="496.044922"/>
      <use xlink:href="#DejaVuSans-29" x="579.833984"/>
     </g>
    </g>
    <g id="line2d_38">
     <path d="M 427.565738 45.094688 
L 437.565738 45.094688 
L 447.565738 45.094688 
" style="fill: none; stroke: #ff7f0e; stroke-width: 1.5; stroke-linecap: square"/>
    </g>
    <g id="text_19">
     <!-- output 1 (+) -->
     <g transform="translate(455.565738 48.594688) scale(0.1 -0.1)">
      <use xlink:href="#DejaVuSans-6f"/>
      <use xlink:href="#DejaVuSans-75" x="61.181641"/>
      <use xlink:href="#DejaVuSans-74" x="124.560547"/>
      <use xlink:href="#DejaVuSans-70" x="163.769531"/>
      <use xlink:href="#DejaVuSans-75" x="227.246094"/>
      <use xlink:href="#DejaVuSans-74" x="290.625"/>
      <use xlink:href="#DejaVuSans-20" x="329.833984"/>
      <use xlink:href="#DejaVuSans-31" x="361.621094"/>
      <use xlink:href="#DejaVuSans-20" x="425.244141"/>
      <use xlink:href="#DejaVuSans-28" x="457.03125"/>
      <use xlink:href="#DejaVuSans-2b" x="496.044922"/>
      <use xlink:href="#DejaVuSans-29" x="579.833984"/>
     </g>
    </g>
    <g id="line2d_39">
     <path d="M 427.565738 59.772812 
L 437.565738 59.772812 
L 447.565738 59.772812 
" style="fill: none; stroke: #2ca02c; stroke-width: 1.5; stroke-linecap: square"/>
    </g>
    <g id="text_20">
     <!-- output 2 (+) -->
     <g transform="translate(455.565738 63.272812) scale(0.1 -0.1)">
      <use xlink:href="#DejaVuSans-6f"/>
      <use xlink:href="#DejaVuSans-75" x="61.181641"/>
      <use xlink:href="#DejaVuSans-74" x="124.560547"/>
      <use xlink:href="#DejaVuSans-70" x="163.769531"/>
      <use xlink:href="#DejaVuSans-75" x="227.246094"/>
      <use xlink:href="#DejaVuSans-74" x="290.625"/>
      <use xlink:href="#DejaVuSans-20" x="329.833984"/>
      <use xlink:href="#DejaVuSans-32" x="361.621094"/>
      <use xlink:href="#DejaVuSans-20" x="425.244141"/>
      <use xlink:href="#DejaVuSans-28" x="457.03125"/>
      <use xlink:href="#DejaVuSans-2b" x="496.044922"/>
      <use xlink:href="#DejaVuSans-29" x="579.833984"/>
     </g>
    </g>
    <g id="line2d_40">
     <path d="M 427.565738 74.450938 
L 437.565738 74.450938 
L 447.565738 74.450938 
" style="fill: none; stroke: #d62728; stroke-width: 1.5; stroke-linecap: square"/>
    </g>
    <g id="text_21">
     <!-- output 3 (+) -->
     <g transform="translate(455.565738 77.950938) scale(0.1 -0.1)">
      <use xlink:href="#DejaVuSans-6f"/>
      <use xlink:href="#DejaVuSans-75" x="61.181641"/>
      <use xlink:href="#DejaVuSans-74" x="124.560547"/>
      <use xlink:href="#DejaVuSans-70" x="163.769531"/>
      <use xlink:href="#DejaVuSans-75" x="227.246094"/>
      <use xlink:href="#DejaVuSans-74" x="290.625"/>
      <use xlink:href="#DejaVuSans-20" x="329.833984"/>
      <use xlink:href="#DejaVuSans-33" x="361.621094"/>
      <use xlink:href="#DejaVuSans-20" x="425.244141"/>
      <use xlink:href="#DejaVuSans-28" x="457.03125"/>
      <use xlink:href="#DejaVuSans-2b" x="496.044922"/>
      <use xlink:href="#DejaVuSans-29" x="579.833984"/>
     </g>
    </g>
    <g id="line2d_41">
     <path d="M 427.565738 89.129063 
L 437.565738 89.129063 
L 447.565738 89.129063 
" style="fill: none; stroke: #9467bd; stroke-width: 1.5; stroke-linecap: square"/>
    </g>
    <g id="text_22">
     <!-- output 4 (+) -->
     <g transform="translate(455.565738 92.629063) scale(0.1 -0.1)">
      <use xlink:href="#DejaVuSans-6f"/>
      <use xlink:href="#DejaVuSans-75" x="61.181641"/>
      <use xlink:href="#DejaVuSans-74" x="124.560547"/>
      <use xlink:href="#DejaVuSans-70" x="163.769531"/>
      <use xlink:href="#DejaVuSans-75" x="227.246094"/>
      <use xlink:href="#DejaVuSans-74" x="290.625"/>
      <use xlink:href="#DejaVuSans-20" x="329.833984"/>
      <use xlink:href="#DejaVuSans-34" x="361.621094"/>
      <use xlink:href="#DejaVuSans-20" x="425.244141"/>
      <use xlink:href="#DejaVuSans-28" x="457.03125"/>
      <use xlink:href="#DejaVuSans-2b" x="496.044922"/>
      <use xlink:href="#DejaVuSans-29" x="579.833984"/>
     </g>
    </g>
    <g id="line2d_42">
     <path d="M 427.565738 103.807187 
L 437.565738 103.807187 
L 447.565738 103.807187 
" style="fill: none; stroke: #8c564b; stroke-width: 1.5; stroke-linecap: square"/>
    </g>
    <g id="text_23">
     <!-- output 5 (+) -->
     <g transform="translate(455.565738 107.307187) scale(0.1 -0.1)">
      <use xlink:href="#DejaVuSans-6f"/>
      <use xlink:href="#DejaVuSans-75" x="61.181641"/>
      <use xlink:href="#DejaVuSans-74" x="124.560547"/>
      <use xlink:href="#DejaVuSans-70" x="163.769531"/>
      <use xlink:href="#DejaVuSans-75" x="227.246094"/>
      <use xlink:href="#DejaVuSans-74" x="290.625"/>
      <use xlink:href="#DejaVuSans-20" x="329.833984"/>
      <use xlink:href="#DejaVuSans-35" x="361.621094"/>
      <use xlink:href="#DejaVuSans-20" x="425.244141"/>
      <use xlink:href="#DejaVuSans-28" x="457.03125"/>
      <use xlink:href="#DejaVuSans-2b" x="496.044922"/>
      <use xlink:href="#DejaVuSans-29" x="579.833984"/>
     </g>
    </g>
    <g id="line2d_43">
     <path d="M 427.565738 118.485312 
L 437.565738 118.485312 
L 447.565738 118.485312 
" style="fill: none; stroke: #e377c2; stroke-width: 1.5; stroke-linecap: square"/>
    </g>
    <g id="text_24">
     <!-- output 6 (+) -->
     <g transform="translate(455.565738 121.985312) scale(0.1 -0.1)">
      <defs>
       <path id="DejaVuSans-36" d="M 2113 2584 
Q 1688 2584 1439 2293 
Q 1191 2003 1191 1497 
Q 1191 994 1439 701 
Q 1688 409 2113 409 
Q 2538 409 2786 701 
Q 3034 994 3034 1497 
Q 3034 2003 2786 2293 
Q 2538 2584 2113 2584 
z
M 3366 4563 
L 3366 3988 
Q 3128 4100 2886 4159 
Q 2644 4219 2406 4219 
Q 1781 4219 1451 3797 
Q 1122 3375 1075 2522 
Q 1259 2794 1537 2939 
Q 1816 3084 2150 3084 
Q 2853 3084 3261 2657 
Q 3669 2231 3669 1497 
Q 3669 778 3244 343 
Q 2819 -91 2113 -91 
Q 1303 -91 875 529 
Q 447 1150 447 2328 
Q 447 3434 972 4092 
Q 1497 4750 2381 4750 
Q 2619 4750 2861 4703 
Q 3103 4656 3366 4563 
z
" transform="scale(0.015625)"/>
      </defs>
      <use xlink:href="#DejaVuSans-6f"/>
      <use xlink:href="#DejaVuSans-75" x="61.181641"/>
      <use xlink:href="#DejaVuSans-74" x="124.560547"/>
      <use xlink:href="#DejaVuSans-70" x="163.769531"/>
      <use xlink:href="#DejaVuSans-75" x="227.246094"/>
      <use xlink:href="#DejaVuSans-74" x="290.625"/>
      <use xlink:href="#DejaVuSans-20" x="329.833984"/>
      <use xlink:href="#DejaVuSans-36" x="361.621094"/>
      <use xlink:href="#DejaVuSans-20" x="425.244141"/>
      <use xlink:href="#DejaVuSans-28" x="457.03125"/>
      <use xlink:href="#DejaVuSans-2b" x="496.044922"/>
      <use xlink:href="#DejaVuSans-29" x="579.833984"/>
     </g>
    </g>
    <g id="line2d_44">
     <path d="M 427.565738 133.163437 
L 437.565738 133.163437 
L 447.565738 133.163437 
" style="fill: none; stroke: #7f7f7f; stroke-width: 1.5; stroke-linecap: square"/>
    </g>
    <g id="text_25">
     <!-- output 7 (+) -->
     <g transform="translate(455.565738 136.663437) scale(0.1 -0.1)">
      <defs>
       <path id="DejaVuSans-37" d="M 525 4666 
L 3525 4666 
L 3525 4397 
L 1831 0 
L 1172 0 
L 2766 4134 
L 525 4134 
L 525 4666 
z
" transform="scale(0.015625)"/>
      </defs>
      <use xlink:href="#DejaVuSans-6f"/>
      <use xlink:href="#DejaVuSans-75" x="61.181641"/>
      <use xlink:href="#DejaVuSans-74" x="124.560547"/>
      <use xlink:href="#DejaVuSans-70" x="163.769531"/>
      <use xlink:href="#DejaVuSans-75" x="227.246094"/>
      <use xlink:href="#DejaVuSans-74" x="290.625"/>
      <use xlink:href="#DejaVuSans-20" x="329.833984"/>
      <use xlink:href="#DejaVuSans-37" x="361.621094"/>
      <use xlink:href="#DejaVuSans-20" x="425.244141"/>
      <use xlink:href="#DejaVuSans-28" x="457.03125"/>
      <use xlink:href="#DejaVuSans-2b" x="496.044922"/>
      <use xlink:href="#DejaVuSans-29" x="579.833984"/>
     </g>
    </g>
   </g>
  </g>
 </g>
 <defs>
  <clipPath id="p509f74df4b">
   <rect x="52.160938" y="22.318125" width="357.12" height="266.112"/>
  </clipPath>
 </defs>
</svg>
