<?xml version="1.0" encoding="UTF-8" standalone="no"?>
<!DOCTYPE svg PUBLIC "-//W3C//DTD SVG 1.1//EN"
 "http://www.w3.org/Graphics/SVG/1.1/DTD/svg11.dtd">
<!-- Generated by graphviz version 2.44.0 (0)
 -->
<!-- Pages: 1 -->
<svg width="3071pt" height="180pt"
 viewBox="0.00 0.00 3071.22 180.02" xmlns="http://www.w3.org/2000/svg" xmlns:xlink="http://www.w3.org/1999/xlink">
<g id="graph0" class="graph" transform="scale(1 1) rotate(0) translate(4 176.02)">
<polygon fill="white" stroke="transparent" points="-4,4 -4,-176.02 3067.22,-176.02 3067.22,4 -4,4"/>
<!-- &#45;1 -->
<g id="node1" class="node">
<title>&#45;1</title>
<polygon fill="lightgray" stroke="black" points="1252.75,-172.02 1226.75,-172.02 1226.75,-154.02 1252.75,-154.02 1252.75,-172.02"/>
<text text-anchor="middle" x="1239.75" y="-160.82" font-family="Times-Roman" font-size="9.00">&#45;1</text>
</g>
<!-- 0 -->
<g id="node9" class="node">
<title>0</title>
<ellipse fill="lightblue" stroke="black" cx="1608.75" cy="-16.26" rx="16.03" ry="16.03"/>
<text text-anchor="middle" x="1608.75" y="-14.06" font-family="Times-Roman" font-size="9.00">0</text>
</g>
<!-- &#45;1&#45;&gt;0 -->
<g id="edge145" class="edge">
<title>&#45;1&#45;&gt;0</title>
<path fill="none" stroke="red" stroke-width="0.46" d="M1253.08,-156.55C1255.9,-155.57 1258.89,-154.66 1261.75,-154.02 1306.07,-144.18 1638.09,-151.51 1668.75,-118.02 1683.6,-101.8 1677.96,-88.51 1668.75,-68.53 1664.54,-59.39 1645.42,-43.88 1629.89,-32.3"/>
<polygon fill="red" stroke="red" stroke-width="0.46" points="1631.88,-29.42 1621.74,-26.34 1627.74,-35.07 1631.88,-29.42"/>
</g>
<!-- 1 -->
<g id="node10" class="node">
<title>1</title>
<ellipse fill="lightblue" stroke="black" cx="762.75" cy="-16.26" rx="16.03" ry="16.03"/>
<text text-anchor="middle" x="762.75" y="-14.06" font-family="Times-Roman" font-size="9.00">1</text>
</g>
<!-- &#45;1&#45;&gt;1 -->
<g id="edge146" class="edge">
<title>&#45;1&#45;&gt;1</title>
<path fill="none" stroke="red" stroke-width="0.19" stroke-dasharray="1,5" d="M1226.69,-162.03C1103.07,-162.03 142.79,-160.68 101.75,-118.02 86.5,-102.17 86.81,-84.67 101.75,-68.53 145.49,-21.27 617.85,-17.46 736.05,-17.25"/>
<polygon fill="red" stroke="red" stroke-width="0.19" points="736.36,-20.75 746.36,-17.24 736.36,-13.75 736.36,-20.75"/>
</g>
<!-- 2 -->
<g id="node11" class="node">
<title>2</title>
<ellipse fill="lightblue" stroke="black" cx="1659.75" cy="-16.26" rx="16.03" ry="16.03"/>
<text text-anchor="middle" x="1659.75" y="-14.06" font-family="Times-Roman" font-size="9.00">2</text>
</g>
<!-- &#45;1&#45;&gt;2 -->
<g id="edge147" class="edge">
<title>&#45;1&#45;&gt;2</title>
<path fill="none" stroke="red" stroke-width="0.25" d="M1253.08,-156.54C1255.9,-155.56 1258.89,-154.65 1261.75,-154.02 1308.03,-143.84 1654.68,-152.92 1686.75,-118.02 1707,-95.99 1689.86,-60.42 1675.16,-37.97"/>
<polygon fill="red" stroke="red" stroke-width="0.25" points="1677.88,-35.76 1669.33,-29.51 1672.12,-39.73 1677.88,-35.76"/>
</g>
<!-- 3 -->
<g id="node12" class="node">
<title>3</title>
<ellipse fill="lightblue" stroke="black" cx="1710.75" cy="-16.26" rx="16.03" ry="16.03"/>
<text text-anchor="middle" x="1710.75" y="-14.06" font-family="Times-Roman" font-size="9.00">3</text>
</g>
<!-- &#45;1&#45;&gt;3 -->
<g id="edge148" class="edge">
<title>&#45;1&#45;&gt;3</title>
<path fill="none" stroke="red" stroke-width="0.17" d="M1253.08,-156.53C1255.9,-155.55 1258.89,-154.65 1261.75,-154.02 1310,-143.49 1670.21,-153.32 1704.75,-118.02 1724.01,-98.35 1721.89,-64.87 1717.37,-41.94"/>
<polygon fill="red" stroke="red" stroke-width="0.17" points="1720.73,-40.93 1715.13,-31.94 1713.9,-42.46 1720.73,-40.93"/>
</g>
<!-- 4 -->
<g id="node13" class="node">
<title>4</title>
<ellipse fill="lightblue" stroke="black" cx="1080.75" cy="-16.26" rx="16.03" ry="16.03"/>
<text text-anchor="middle" x="1080.75" y="-14.06" font-family="Times-Roman" font-size="9.00">4</text>
</g>
<!-- &#45;1&#45;&gt;4 -->
<g id="edge149" class="edge">
<title>&#45;1&#45;&gt;4</title>
<path fill="none" stroke="red" stroke-width="0.41" d="M1226.69,-161.95C1112.65,-161.25 289.02,-154.9 253.75,-118.02 238.54,-102.13 238.68,-84.56 253.75,-68.53 260.78,-61.05 913.08,-26.13 1054.07,-18.67"/>
<polygon fill="red" stroke="red" stroke-width="0.41" points="1054.58,-22.15 1064.38,-18.12 1054.21,-15.16 1054.58,-22.15"/>
</g>
<!-- 5 -->
<g id="node14" class="node">
<title>5</title>
<ellipse fill="lightblue" stroke="black" cx="1214.75" cy="-16.26" rx="16.03" ry="16.03"/>
<text text-anchor="middle" x="1214.75" y="-14.06" font-family="Times-Roman" font-size="9.00">5</text>
</g>
<!-- &#45;1&#45;&gt;5 -->
<g id="edge150" class="edge">
<title>&#45;1&#45;&gt;5</title>
<path fill="none" stroke="red" stroke-width="0.12" d="M1226.56,-162.23C1135.73,-163.49 605.22,-168.66 557.75,-118.02 542.7,-101.98 542.71,-84.58 557.75,-68.53 599.46,-23.99 1045.05,-38.76 1105.75,-32.53 1134.17,-29.61 1166.58,-24.89 1188.62,-21.47"/>
<polygon fill="red" stroke="red" stroke-width="0.12" points="1189.21,-24.92 1198.54,-19.91 1188.12,-18.01 1189.21,-24.92"/>
</g>
<!-- 6 -->
<g id="node15" class="node">
<title>6</title>
<ellipse fill="lightblue" stroke="black" cx="1348.75" cy="-16.26" rx="16.03" ry="16.03"/>
<text text-anchor="middle" x="1348.75" y="-14.06" font-family="Times-Roman" font-size="9.00">6</text>
</g>
<!-- &#45;1&#45;&gt;6 -->
<g id="edge151" class="edge">
<title>&#45;1&#45;&gt;6</title>
<path fill="none" stroke="red" stroke-width="0.23" d="M1226.41,-161.29C1166.87,-157.87 927.34,-142.65 905.75,-118.02 891.24,-101.48 891.05,-84.89 905.75,-68.53 955.63,-12.98 1165.66,-41.7 1239.75,-32.53 1268.1,-29.01 1300.52,-24.4 1322.58,-21.16"/>
<polygon fill="red" stroke="red" stroke-width="0.23" points="1323.14,-24.62 1332.52,-19.7 1322.12,-17.7 1323.14,-24.62"/>
</g>
<!-- 7 -->
<g id="node16" class="node">
<title>7</title>
<ellipse fill="lightblue" stroke="black" cx="1557.75" cy="-16.26" rx="16.03" ry="16.03"/>
<text text-anchor="middle" x="1557.75" y="-14.06" font-family="Times-Roman" font-size="9.00">7</text>
</g>
<!-- &#45;1&#45;&gt;7 -->
<g id="edge152" class="edge">
<title>&#45;1&#45;&gt;7</title>
<path fill="none" stroke="green" stroke-width="0.16" d="M1253.08,-156.56C1255.9,-155.58 1258.89,-154.66 1261.75,-154.02 1346.46,-135.03 1592.26,-182.18 1650.75,-118.02 1665.57,-101.77 1662.04,-87.41 1650.75,-68.53 1633.4,-39.51 1613.22,-49.09 1583.75,-32.53 1582.62,-31.89 1581.47,-31.24 1580.3,-30.57"/>
<polygon fill="green" stroke="green" stroke-width="0.16" points="1581.86,-27.43 1571.46,-25.44 1578.35,-33.49 1581.86,-27.43"/>
</g>
<!-- 551 -->
<g id="node17" class="node">
<title>551</title>
<ellipse fill="white" stroke="black" cx="24.75" cy="-93.28" rx="25" ry="25"/>
<text text-anchor="middle" x="24.75" y="-91.08" font-family="Times-Roman" font-size="9.00">551</text>
</g>
<!-- &#45;1&#45;&gt;551 -->
<g id="edge209" class="edge">
<title>&#45;1&#45;&gt;551</title>
<path fill="none" stroke="green" stroke-width="0.25" d="M1226.43,-161.93C1104.27,-161.04 180.65,-153.19 63.75,-118.02 60.2,-116.96 56.65,-115.49 53.21,-113.8"/>
<polygon fill="green" stroke="green" stroke-width="0.25" points="54.9,-110.74 44.46,-108.94 51.5,-116.85 54.9,-110.74"/>
</g>
<!-- 368 -->
<g id="node18" class="node">
<title>368</title>
<ellipse fill="white" stroke="black" cx="1281.75" cy="-93.28" rx="25" ry="25"/>
<text text-anchor="middle" x="1281.75" y="-91.08" font-family="Times-Roman" font-size="9.00">368</text>
</g>
<!-- &#45;1&#45;&gt;368 -->
<g id="edge1" class="edge">
<title>&#45;1&#45;&gt;368</title>
<path fill="none" stroke="red" stroke-width="0.21" d="M1244.73,-153.99C1249.43,-146.41 1256.76,-134.58 1263.66,-123.45"/>
<polygon fill="red" stroke="red" stroke-width="0.21" points="1266.75,-125.11 1269.05,-114.76 1260.8,-121.42 1266.75,-125.11"/>
</g>
<!-- 369 -->
<g id="node19" class="node">
<title>369</title>
<ellipse fill="white" stroke="black" cx="1348.75" cy="-93.28" rx="25" ry="25"/>
<text text-anchor="middle" x="1348.75" y="-91.08" font-family="Times-Roman" font-size="9.00">369</text>
</g>
<!-- &#45;1&#45;&gt;369 -->
<g id="edge2" class="edge">
<title>&#45;1&#45;&gt;369</title>
<path fill="none" stroke="red" stroke-width="0.53" d="M1252.89,-154.93C1268.23,-146.54 1294.24,-131.94 1315.75,-118.02 1317.39,-116.96 1319.07,-115.85 1320.75,-114.71"/>
<polygon fill="red" stroke="red" stroke-width="0.53" points="1322.87,-117.5 1329.08,-108.92 1318.87,-111.75 1322.87,-117.5"/>
</g>
<!-- 370 -->
<g id="node20" class="node">
<title>370</title>
<ellipse fill="white" stroke="black" cx="1415.75" cy="-93.28" rx="25" ry="25"/>
<text text-anchor="middle" x="1415.75" y="-91.08" font-family="Times-Roman" font-size="9.00">370</text>
</g>
<!-- &#45;1&#45;&gt;370 -->
<g id="edge3" class="edge">
<title>&#45;1&#45;&gt;370</title>
<path fill="none" stroke="green" stroke-width="0.16" d="M1253.2,-156.99C1256.01,-155.98 1258.97,-154.94 1261.75,-154.02 1315.03,-136.43 1332.39,-142.76 1382.75,-118.02 1384.55,-117.14 1386.37,-116.15 1388.16,-115.11"/>
<polygon fill="green" stroke="green" stroke-width="0.16" points="1390.38,-117.84 1396.89,-109.48 1386.59,-111.96 1390.38,-117.84"/>
</g>
<!-- 371 -->
<g id="node21" class="node">
<title>371</title>
<ellipse fill="white" stroke="black" cx="1482.75" cy="-93.28" rx="25" ry="25"/>
<text text-anchor="middle" x="1482.75" y="-91.08" font-family="Times-Roman" font-size="9.00">371</text>
</g>
<!-- &#45;1&#45;&gt;371 -->
<g id="edge4" class="edge">
<title>&#45;1&#45;&gt;371</title>
<path fill="none" stroke="green" stroke-width="0.51" d="M1253.13,-156.77C1255.95,-155.78 1258.93,-154.8 1261.75,-154.02 1343.76,-131.42 1371.61,-151.66 1449.75,-118.02 1451.6,-117.23 1453.44,-116.32 1455.26,-115.32"/>
<polygon fill="green" stroke="green" stroke-width="0.51" points="1457.42,-118.1 1464.06,-109.84 1453.72,-112.16 1457.42,-118.1"/>
</g>
<!-- 372 -->
<g id="node22" class="node">
<title>372</title>
<ellipse fill="white" stroke="black" cx="1549.75" cy="-93.28" rx="25" ry="25"/>
<text text-anchor="middle" x="1549.75" y="-91.08" font-family="Times-Roman" font-size="9.00">372</text>
</g>
<!-- &#45;1&#45;&gt;372 -->
<g id="edge5" class="edge">
<title>&#45;1&#45;&gt;372</title>
<path fill="none" stroke="green" stroke-width="0.62" d="M1253.11,-156.66C1255.93,-155.68 1258.91,-154.73 1261.75,-154.02 1372.8,-126.32 1410.54,-160.69 1516.75,-118.02 1518.62,-117.27 1520.48,-116.4 1522.31,-115.43"/>
<polygon fill="green" stroke="green" stroke-width="0.62" points="1524.43,-118.23 1531.13,-110.02 1520.78,-112.26 1524.43,-118.23"/>
</g>
<!-- 374 -->
<g id="node23" class="node">
<title>374</title>
<ellipse fill="white" stroke="black" cx="1616.75" cy="-93.28" rx="25" ry="25"/>
<text text-anchor="middle" x="1616.75" y="-91.08" font-family="Times-Roman" font-size="9.00">374</text>
</g>
<!-- &#45;1&#45;&gt;374 -->
<g id="edge6" class="edge">
<title>&#45;1&#45;&gt;374</title>
<path fill="none" stroke="green" stroke-width="0.19" d="M1253.09,-156.6C1255.91,-155.62 1258.9,-154.69 1261.75,-154.02 1401.96,-121.19 1449.36,-169.77 1583.75,-118.02 1585.63,-117.3 1587.49,-116.45 1589.33,-115.49"/>
<polygon fill="green" stroke="green" stroke-width="0.19" points="1591.44,-118.31 1598.17,-110.13 1587.81,-112.33 1591.44,-118.31"/>
</g>
<!-- 375 -->
<g id="node24" class="node">
<title>375</title>
<ellipse fill="white" stroke="black" cx="1080.75" cy="-93.28" rx="25" ry="25"/>
<text text-anchor="middle" x="1080.75" y="-91.08" font-family="Times-Roman" font-size="9.00">375</text>
</g>
<!-- &#45;1&#45;&gt;375 -->
<g id="edge7" class="edge">
<title>&#45;1&#45;&gt;375</title>
<path fill="none" stroke="red" stroke-width="0.26" d="M1226.73,-158.81C1203.29,-152.74 1152.8,-138.35 1113.75,-118.02 1111.96,-117.1 1110.17,-116.08 1108.39,-115.01"/>
<polygon fill="red" stroke="red" stroke-width="0.26" points="1109.98,-111.86 1099.69,-109.31 1106.14,-117.72 1109.98,-111.86"/>
</g>
<!-- 376 -->
<g id="node25" class="node">
<title>376</title>
<ellipse fill="white" stroke="black" cx="1147.75" cy="-93.28" rx="25" ry="25"/>
<text text-anchor="middle" x="1147.75" y="-91.08" font-family="Times-Roman" font-size="9.00">376</text>
</g>
<!-- &#45;1&#45;&gt;376 -->
<g id="edge8" class="edge">
<title>&#45;1&#45;&gt;376</title>
<path fill="none" stroke="green" stroke-width="0.11" d="M1228.83,-153.99C1215.83,-144.41 1193.6,-128.04 1175.71,-114.87"/>
<polygon fill="green" stroke="green" stroke-width="0.11" points="1177.46,-111.81 1167.33,-108.7 1173.31,-117.44 1177.46,-111.81"/>
</g>
<!-- 377 -->
<g id="node26" class="node">
<title>377</title>
<ellipse fill="white" stroke="black" cx="1214.75" cy="-93.28" rx="25" ry="25"/>
<text text-anchor="middle" x="1214.75" y="-91.08" font-family="Times-Roman" font-size="9.00">377</text>
</g>
<!-- &#45;1&#45;&gt;377 -->
<g id="edge9" class="edge">
<title>&#45;1&#45;&gt;377</title>
<path fill="none" stroke="red" stroke-width="0.51" d="M1236.78,-153.99C1234.23,-147.08 1230.38,-136.65 1226.61,-126.42"/>
<polygon fill="red" stroke="red" stroke-width="0.51" points="1229.81,-124.98 1223.06,-116.81 1223.24,-127.4 1229.81,-124.98"/>
</g>
<!-- &#45;2 -->
<g id="node2" class="node">
<title>&#45;2</title>
<polygon fill="lightgray" stroke="black" points="1428.75,-172.02 1402.75,-172.02 1402.75,-154.02 1428.75,-154.02 1428.75,-172.02"/>
<text text-anchor="middle" x="1415.75" y="-160.82" font-family="Times-Roman" font-size="9.00">&#45;2</text>
</g>
<!-- &#45;2&#45;&gt;0 -->
<g id="edge153" class="edge">
<title>&#45;2&#45;&gt;0</title>
<path fill="none" stroke="green" stroke-width="0.16" d="M1429.11,-156.67C1431.93,-155.68 1434.91,-154.74 1437.75,-154.02 1492.19,-140.36 1651,-160.45 1687.75,-118.02 1702.15,-101.4 1698.25,-87.86 1687.75,-68.53 1686.15,-65.58 1654.04,-45.28 1631.26,-31.13"/>
<polygon fill="green" stroke="green" stroke-width="0.16" points="1632.82,-27.99 1622.47,-25.7 1629.13,-33.94 1632.82,-27.99"/>
</g>
<!-- &#45;2&#45;&gt;1 -->
<g id="edge154" class="edge">
<title>&#45;2&#45;&gt;1</title>
<path fill="none" stroke="green" stroke-width="0.59" d="M1402.44,-156.43C1399.62,-155.46 1396.62,-154.58 1393.75,-154.02 1339.84,-143.51 443.87,-157.56 405.75,-118.02 307.93,-16.58 638.16,-14.94 736.15,-16.6"/>
<polygon fill="green" stroke="green" stroke-width="0.59" points="736.34,-20.11 746.41,-16.8 736.48,-13.11 736.34,-20.11"/>
</g>
<!-- &#45;2&#45;&gt;2 -->
<g id="edge155" class="edge">
<title>&#45;2&#45;&gt;2</title>
<path fill="none" stroke="green" stroke-width="0.26" d="M1429.1,-156.65C1431.92,-155.66 1434.91,-154.72 1437.75,-154.02 1496.1,-139.67 1666.19,-163.25 1705.75,-118.02 1720.23,-101.47 1713.61,-89.07 1705.75,-68.53 1700.49,-54.78 1689.65,-42.4 1679.81,-33.25"/>
<polygon fill="green" stroke="green" stroke-width="0.26" points="1682.1,-30.6 1672.27,-26.64 1677.49,-35.87 1682.1,-30.6"/>
</g>
<!-- &#45;2&#45;&gt;3 -->
<g id="edge156" class="edge">
<title>&#45;2&#45;&gt;3</title>
<path fill="none" stroke="green" stroke-width="0.24" d="M1429.1,-156.63C1431.92,-155.64 1434.9,-154.71 1437.75,-154.02 1500.02,-138.99 1681.38,-166.06 1723.75,-118.02 1742.45,-96.82 1732.64,-62.67 1722.69,-40.1"/>
<polygon fill="green" stroke="green" stroke-width="0.24" points="1725.78,-38.46 1718.35,-30.92 1719.45,-41.45 1725.78,-38.46"/>
</g>
<!-- &#45;2&#45;&gt;4 -->
<g id="edge157" class="edge">
<title>&#45;2&#45;&gt;4</title>
<path fill="none" stroke="red" stroke-width="0.51" d="M1402.43,-156.47C1399.61,-155.5 1396.62,-154.61 1393.75,-154.02 1319.17,-138.85 762.13,-173.23 709.75,-118.02 694.61,-102.07 695.3,-85.11 709.75,-68.53 754.74,-16.9 976.87,-15.52 1054.17,-16.66"/>
<polygon fill="red" stroke="red" stroke-width="0.51" points="1054.43,-20.16 1064.49,-16.84 1054.55,-13.16 1054.43,-20.16"/>
</g>
<!-- &#45;2&#45;&gt;5 -->
<g id="edge158" class="edge">
<title>&#45;2&#45;&gt;5</title>
<path fill="none" stroke="red" stroke-width="0.22" d="M1402.41,-156.56C1399.59,-155.58 1396.6,-154.67 1393.75,-154.02 1311,-135.38 1070.83,-180.77 1013.75,-118.02 998.94,-101.75 1000.25,-85.9 1013.75,-68.53 1035.11,-41.03 1138.89,-25.82 1188.38,-20.03"/>
<polygon fill="red" stroke="red" stroke-width="0.22" points="1189.08,-23.47 1198.62,-18.88 1188.29,-16.52 1189.08,-23.47"/>
</g>
<!-- &#45;2&#45;&gt;6 -->
<g id="edge159" class="edge">
<title>&#45;2&#45;&gt;6</title>
<path fill="none" stroke="red" stroke-width="0.35" stroke-dasharray="1,5" d="M1429.12,-156.72C1431.94,-155.73 1434.92,-154.77 1437.75,-154.02 1484.16,-141.77 1619.76,-154.69 1650.75,-118.02 1664.95,-101.22 1664.94,-85.33 1650.75,-68.53 1632.96,-47.46 1445.77,-26.88 1375.34,-19.83"/>
<polygon fill="red" stroke="red" stroke-width="0.35" points="1375.38,-16.31 1365.08,-18.81 1374.69,-23.28 1375.38,-16.31"/>
</g>
<!-- &#45;2&#45;&gt;7 -->
<g id="edge160" class="edge">
<title>&#45;2&#45;&gt;7</title>
<path fill="none" stroke="red" stroke-width="0.42" d="M1429.11,-156.69C1431.93,-155.7 1434.91,-154.75 1437.75,-154.02 1488.28,-141.05 1635.8,-157.64 1669.75,-118.02 1684.06,-101.32 1681.94,-86.84 1669.75,-68.53 1646.79,-34.03 1620.81,-51.06 1583.75,-32.53 1582.59,-31.95 1581.41,-31.34 1580.23,-30.71"/>
<polygon fill="red" stroke="red" stroke-width="0.42" points="1581.75,-27.55 1571.32,-25.69 1578.32,-33.65 1581.75,-27.55"/>
</g>
<!-- &#45;2&#45;&gt;368 -->
<g id="edge10" class="edge">
<title>&#45;2&#45;&gt;368</title>
<path fill="none" stroke="green" stroke-width="0.59" d="M1402.57,-157.32C1382.87,-150.05 1344.84,-135.15 1314.75,-118.02 1313,-117.03 1311.23,-115.96 1309.47,-114.85"/>
<polygon fill="green" stroke="green" stroke-width="0.59" points="1311.09,-111.72 1300.84,-109.05 1307.19,-117.53 1311.09,-111.72"/>
</g>
<!-- &#45;2&#45;&gt;369 -->
<g id="edge11" class="edge">
<title>&#45;2&#45;&gt;369</title>
<path fill="none" stroke="green" stroke-width="0.26" d="M1407.8,-153.99C1399.25,-145.34 1385.22,-131.15 1372.98,-118.78"/>
<polygon fill="green" stroke="green" stroke-width="0.26" points="1375.18,-116.02 1365.66,-111.38 1370.2,-120.95 1375.18,-116.02"/>
</g>
<!-- &#45;2&#45;&gt;370 -->
<g id="edge12" class="edge">
<title>&#45;2&#45;&gt;370</title>
<path fill="none" stroke="green" stroke-width="0.33" d="M1415.75,-153.99C1415.75,-147.55 1415.75,-138.05 1415.75,-128.52"/>
<polygon fill="green" stroke="green" stroke-width="0.33" points="1419.25,-128.3 1415.75,-118.3 1412.25,-128.3 1419.25,-128.3"/>
</g>
<!-- &#45;2&#45;&gt;371 -->
<g id="edge13" class="edge">
<title>&#45;2&#45;&gt;371</title>
<path fill="none" stroke="green" stroke-width="0.38" d="M1423.7,-153.99C1432.25,-145.34 1446.28,-131.15 1458.52,-118.78"/>
<polygon fill="green" stroke="green" stroke-width="0.38" points="1461.29,-120.95 1465.84,-111.38 1456.32,-116.02 1461.29,-120.95"/>
</g>
<!-- &#45;2&#45;&gt;372 -->
<g id="edge14" class="edge">
<title>&#45;2&#45;&gt;372</title>
<path fill="none" stroke="red" stroke-width="0.69" d="M1428.93,-157.32C1448.63,-150.05 1486.66,-135.15 1516.75,-118.02 1518.5,-117.03 1520.27,-115.96 1522.03,-114.85"/>
<polygon fill="red" stroke="red" stroke-width="0.69" points="1524.31,-117.53 1530.66,-109.05 1520.41,-111.72 1524.31,-117.53"/>
</g>
<!-- &#45;2&#45;&gt;374 -->
<g id="edge15" class="edge">
<title>&#45;2&#45;&gt;374</title>
<path fill="none" stroke="green" stroke-width="0.29" d="M1429.17,-156.89C1431.98,-155.88 1434.95,-154.88 1437.75,-154.02 1501.69,-134.58 1523.08,-146.05 1583.75,-118.02 1585.57,-117.18 1587.4,-116.23 1589.21,-115.21"/>
<polygon fill="green" stroke="green" stroke-width="0.29" points="1591.4,-117.96 1597.97,-109.65 1587.65,-112.05 1591.4,-117.96"/>
</g>
<!-- &#45;2&#45;&gt;375 -->
<g id="edge16" class="edge">
<title>&#45;2&#45;&gt;375</title>
<path fill="none" stroke="green" stroke-width="0.14" d="M1402.4,-156.64C1399.58,-155.65 1396.59,-154.72 1393.75,-154.02 1271.83,-124.4 1230.46,-164.08 1113.75,-118.02 1111.88,-117.29 1110.01,-116.42 1108.18,-115.46"/>
<polygon fill="green" stroke="green" stroke-width="0.14" points="1109.71,-112.29 1099.35,-110.07 1106.06,-118.27 1109.71,-112.29"/>
</g>
<!-- &#45;2&#45;&gt;376 -->
<g id="edge17" class="edge">
<title>&#45;2&#45;&gt;376</title>
<path fill="none" stroke="red" stroke-width="0.61" stroke-dasharray="1,5" d="M1402.38,-156.72C1399.56,-155.73 1396.58,-154.77 1393.75,-154.02 1300.92,-129.52 1269.34,-155.02 1180.75,-118.02 1178.89,-117.25 1177.04,-116.35 1175.21,-115.37"/>
<polygon fill="red" stroke="red" stroke-width="0.61" points="1176.75,-112.21 1166.41,-109.92 1173.07,-118.16 1176.75,-112.21"/>
</g>
<!-- &#45;2&#45;&gt;377 -->
<g id="edge18" class="edge">
<title>&#45;2&#45;&gt;377</title>
<path fill="none" stroke="red" stroke-width="0.33" d="M1402.33,-156.89C1399.51,-155.88 1396.55,-154.88 1393.75,-154.02 1329.81,-134.58 1308.42,-146.05 1247.75,-118.02 1245.92,-117.18 1244.09,-116.23 1242.29,-115.21"/>
<polygon fill="red" stroke="red" stroke-width="0.33" points="1243.85,-112.05 1233.53,-109.65 1240.1,-117.96 1243.85,-112.05"/>
</g>
<!-- &#45;3 -->
<g id="node3" class="node">
<title>&#45;3</title>
<polygon fill="lightgray" stroke="black" points="1472.75,-172.02 1446.75,-172.02 1446.75,-154.02 1472.75,-154.02 1472.75,-172.02"/>
<text text-anchor="middle" x="1459.75" y="-160.82" font-family="Times-Roman" font-size="9.00">&#45;3</text>
</g>
<!-- &#45;3&#45;&gt;0 -->
<g id="edge161" class="edge">
<title>&#45;3&#45;&gt;0</title>
<path fill="none" stroke="green" stroke-width="0.19" d="M1473.06,-156.43C1475.88,-155.46 1478.88,-154.58 1481.75,-154.02 1538.39,-143.03 2479.66,-159.53 2519.75,-118.02 2535.03,-102.2 2534.98,-84.4 2519.75,-68.53 2451.59,2.46 1729.17,-60.27 1634.75,-32.53 1633.48,-32.15 1632.2,-31.7 1630.94,-31.2"/>
<polygon fill="green" stroke="green" stroke-width="0.19" points="1632.17,-27.9 1621.67,-26.52 1629.02,-34.15 1632.17,-27.9"/>
</g>
<!-- &#45;3&#45;&gt;1 -->
<g id="edge162" class="edge">
<title>&#45;3&#45;&gt;1</title>
<path fill="none" stroke="red" stroke-width="0.39" d="M1446.44,-156.43C1443.62,-155.46 1440.62,-154.58 1437.75,-154.02 1383.51,-143.45 482.11,-157.8 443.75,-118.02 356.38,-27.44 645.48,-18.01 736.32,-17.25"/>
<polygon fill="red" stroke="red" stroke-width="0.39" points="736.39,-20.75 746.37,-17.2 736.35,-13.75 736.39,-20.75"/>
</g>
<!-- &#45;3&#45;&gt;2 -->
<g id="edge163" class="edge">
<title>&#45;3&#45;&gt;2</title>
<path fill="none" stroke="green" stroke-width="0.31" d="M1473.05,-156.41C1475.88,-155.44 1478.87,-154.57 1481.75,-154.02 1555.02,-140.1 2771.72,-171.46 2823.75,-118.02 2839.09,-102.26 2839.06,-84.33 2823.75,-68.53 2779.73,-23.1 1746.52,-50.08 1685.75,-32.53 1684.48,-32.16 1683.2,-31.71 1681.94,-31.21"/>
<polygon fill="green" stroke="green" stroke-width="0.31" points="1683.16,-27.91 1672.66,-26.54 1680.02,-34.17 1683.16,-27.91"/>
</g>
<!-- &#45;3&#45;&gt;3 -->
<g id="edge164" class="edge">
<title>&#45;3&#45;&gt;3</title>
<path fill="none" stroke="red" stroke-width="0.74" d="M1473.05,-156.41C1475.88,-155.44 1478.87,-154.57 1481.75,-154.02 1563.33,-138.64 2917.75,-177.43 2975.75,-118.02 2991.12,-102.28 2990.99,-84.39 2975.75,-68.53 2931.29,-22.23 1914.58,-17.74 1737.07,-17.31"/>
<polygon fill="red" stroke="red" stroke-width="0.74" points="1737.05,-13.81 1727.04,-17.29 1737.03,-20.81 1737.05,-13.81"/>
</g>
<!-- &#45;3&#45;&gt;4 -->
<g id="edge165" class="edge">
<title>&#45;3&#45;&gt;4</title>
<path fill="none" stroke="red" stroke-width="0.1" d="M1446.43,-156.47C1443.61,-155.49 1440.62,-154.61 1437.75,-154.02 1362.51,-138.74 800.6,-173.71 747.75,-118.02 657.25,-22.68 961.29,-16.62 1054.45,-16.95"/>
<polygon fill="red" stroke="red" stroke-width="0.1" points="1054.47,-20.45 1064.49,-17.01 1054.51,-13.45 1054.47,-20.45"/>
</g>
<!-- &#45;3&#45;&gt;5 -->
<g id="edge166" class="edge">
<title>&#45;3&#45;&gt;5</title>
<path fill="none" stroke="red" stroke-width="0.24" d="M1446.42,-156.56C1443.59,-155.58 1440.6,-154.66 1437.75,-154.02 1352.6,-134.96 1105.55,-182.49 1046.75,-118.02 1031.92,-101.77 1033.66,-86.21 1046.75,-68.53 1063.77,-45.54 1146.06,-28.71 1188.82,-21.36"/>
<polygon fill="red" stroke="red" stroke-width="0.24" points="1189.49,-24.8 1198.78,-19.7 1188.34,-17.9 1189.49,-24.8"/>
</g>
<!-- &#45;3&#45;&gt;6 -->
<g id="edge167" class="edge">
<title>&#45;3&#45;&gt;6</title>
<path fill="none" stroke="green" stroke-width="0.12" d="M1473.13,-156.77C1475.95,-155.78 1478.93,-154.8 1481.75,-154.02 1563.76,-131.42 1615.54,-183.59 1669.75,-118.02 1683.77,-101.07 1684.03,-85.26 1669.75,-68.53 1650.63,-46.12 1449.19,-26.16 1375.53,-19.56"/>
<polygon fill="green" stroke="green" stroke-width="0.12" points="1375.51,-16.05 1365.24,-18.66 1374.89,-23.02 1375.51,-16.05"/>
</g>
<!-- &#45;3&#45;&gt;7 -->
<g id="edge168" class="edge">
<title>&#45;3&#45;&gt;7</title>
<path fill="none" stroke="green" stroke-width="0.38" d="M1473.06,-156.46C1475.89,-155.49 1478.88,-154.6 1481.75,-154.02 1561.79,-137.89 2159.44,-177.16 2215.75,-118.02 2230.92,-102.09 2230.86,-84.52 2215.75,-68.53 2167.45,-17.4 1651.07,-52.9 1583.75,-32.53 1582.48,-32.14 1581.21,-31.69 1579.95,-31.17"/>
<polygon fill="green" stroke="green" stroke-width="0.38" points="1581.18,-27.88 1570.68,-26.47 1578.01,-34.12 1581.18,-27.88"/>
</g>
<!-- &#45;3&#45;&gt;368 -->
<g id="edge19" class="edge">
<title>&#45;3&#45;&gt;368</title>
<path fill="none" stroke="green" stroke-width="0.18" d="M1446.3,-156.98C1443.49,-155.97 1440.53,-154.94 1437.75,-154.02 1383.62,-136.28 1365.93,-143.02 1314.75,-118.02 1312.94,-117.14 1311.13,-116.16 1309.33,-115.12"/>
<polygon fill="green" stroke="green" stroke-width="0.18" points="1310.9,-111.97 1300.6,-109.5 1307.12,-117.85 1310.9,-111.97"/>
</g>
<!-- &#45;3&#45;&gt;369 -->
<g id="edge20" class="edge">
<title>&#45;3&#45;&gt;369</title>
<path fill="none" stroke="green" stroke-width="0.29" d="M1446.52,-155.14C1430.79,-146.82 1403.89,-132.17 1381.75,-118.02 1380.1,-116.97 1378.42,-115.86 1376.73,-114.73"/>
<polygon fill="green" stroke="green" stroke-width="0.29" points="1378.61,-111.77 1368.4,-108.95 1374.62,-117.53 1378.61,-111.77"/>
</g>
<!-- &#45;3&#45;&gt;370 -->
<g id="edge21" class="edge">
<title>&#45;3&#45;&gt;370</title>
<path fill="none" stroke="red" stroke-width="0.2" d="M1454.53,-153.99C1449.52,-146.28 1441.66,-134.17 1434.32,-122.87"/>
<polygon fill="red" stroke="red" stroke-width="0.2" points="1437.25,-120.95 1428.87,-114.47 1431.38,-124.77 1437.25,-120.95"/>
</g>
<!-- &#45;3&#45;&gt;371 -->
<g id="edge22" class="edge">
<title>&#45;3&#45;&gt;371</title>
<path fill="none" stroke="red" stroke-width="0.16" stroke-dasharray="1,5" d="M1462.48,-153.99C1464.8,-147.13 1468.31,-136.81 1471.75,-126.66"/>
<polygon fill="red" stroke="red" stroke-width="0.16" points="1475.1,-127.7 1475,-117.1 1468.47,-125.45 1475.1,-127.7"/>
</g>
<!-- &#45;3&#45;&gt;372 -->
<g id="edge23" class="edge">
<title>&#45;3&#45;&gt;372</title>
<path fill="none" stroke="green" stroke-width="0.55" d="M1470.43,-153.99C1483.07,-144.47 1504.62,-128.25 1522.07,-115.11"/>
<polygon fill="green" stroke="green" stroke-width="0.55" points="1524.36,-117.77 1530.24,-108.96 1520.15,-112.18 1524.36,-117.77"/>
</g>
<!-- &#45;3&#45;&gt;374 -->
<g id="edge24" class="edge">
<title>&#45;3&#45;&gt;374</title>
<path fill="none" stroke="green" stroke-width="0.18" d="M1472.77,-157.27C1475.72,-156.19 1478.84,-155.07 1481.75,-154.02 1527.01,-137.81 1541.14,-140.29 1583.75,-118.02 1585.53,-117.09 1587.33,-116.07 1589.11,-115"/>
<polygon fill="green" stroke="green" stroke-width="0.18" points="1591.35,-117.71 1597.8,-109.3 1587.52,-111.86 1591.35,-117.71"/>
</g>
<!-- &#45;3&#45;&gt;375 -->
<g id="edge25" class="edge">
<title>&#45;3&#45;&gt;375</title>
<path fill="none" stroke="red" stroke-width="0.18" d="M1446.41,-156.6C1443.58,-155.61 1440.6,-154.69 1437.75,-154.02 1296.67,-121.03 1248.97,-170.04 1113.75,-118.02 1111.87,-117.3 1110,-116.45 1108.16,-115.5"/>
<polygon fill="red" stroke="red" stroke-width="0.18" points="1109.69,-112.33 1099.32,-110.13 1106.06,-118.31 1109.69,-112.33"/>
</g>
<!-- &#45;3&#45;&gt;376 -->
<g id="edge26" class="edge">
<title>&#45;3&#45;&gt;376</title>
<path fill="none" stroke="red" stroke-width="0.88" d="M1446.39,-156.66C1443.57,-155.67 1440.59,-154.73 1437.75,-154.02 1325.83,-126.16 1287.79,-160.96 1180.75,-118.02 1178.88,-117.28 1177.02,-116.4 1175.19,-115.43"/>
<polygon fill="red" stroke="red" stroke-width="0.88" points="1176.72,-112.27 1166.37,-110.03 1173.06,-118.23 1176.72,-112.27"/>
</g>
<!-- &#45;3&#45;&gt;377 -->
<g id="edge27" class="edge">
<title>&#45;3&#45;&gt;377</title>
<path fill="none" stroke="red" stroke-width="0.33" d="M1446.36,-156.77C1443.55,-155.77 1440.57,-154.8 1437.75,-154.02 1354.87,-131.26 1326.72,-151.93 1247.75,-118.02 1245.9,-117.23 1244.05,-116.32 1242.23,-115.33"/>
<polygon fill="red" stroke="red" stroke-width="0.33" points="1243.78,-112.17 1233.44,-109.85 1240.08,-118.11 1243.78,-112.17"/>
</g>
<!-- &#45;4 -->
<g id="node4" class="node">
<title>&#45;4</title>
<polygon fill="lightgray" stroke="black" points="1384.75,-172.02 1358.75,-172.02 1358.75,-154.02 1384.75,-154.02 1384.75,-172.02"/>
<text text-anchor="middle" x="1371.75" y="-160.82" font-family="Times-Roman" font-size="9.00">&#45;4</text>
</g>
<!-- &#45;4&#45;&gt;0 -->
<g id="edge169" class="edge">
<title>&#45;4&#45;&gt;0</title>
<path fill="none" stroke="green" stroke-width="0.2" d="M1385.06,-156.46C1387.88,-155.49 1390.88,-154.6 1393.75,-154.02 1475.1,-137.66 2082.5,-178.1 2139.75,-118.02 2154.92,-102.1 2154.74,-84.63 2139.75,-68.53 2101.41,-27.36 1688.47,-49.21 1634.75,-32.53 1633.48,-32.13 1632.21,-31.67 1630.95,-31.15"/>
<polygon fill="green" stroke="green" stroke-width="0.2" points="1632.19,-27.85 1621.69,-26.43 1629.01,-34.09 1632.19,-27.85"/>
</g>
<!-- &#45;4&#45;&gt;1 -->
<g id="edge170" class="edge">
<title>&#45;4&#45;&gt;1</title>
<path fill="none" stroke="green" stroke-width="0.24" d="M1358.41,-156.58C1355.59,-155.6 1352.6,-154.68 1349.75,-154.02 1198.64,-119.27 1152.96,-156.45 1002.75,-118.02 919.66,-96.77 827.86,-51.65 785.94,-29.73"/>
<polygon fill="green" stroke="green" stroke-width="0.24" points="787.32,-26.51 776.84,-24.93 784.05,-32.7 787.32,-26.51"/>
</g>
<!-- &#45;4&#45;&gt;2 -->
<g id="edge171" class="edge">
<title>&#45;4&#45;&gt;2</title>
<path fill="none" stroke="green" stroke-width="0.52" d="M1385.05,-156.43C1387.88,-155.46 1390.88,-154.58 1393.75,-154.02 1451.05,-142.91 2403.19,-160 2443.75,-118.02 2459.04,-102.2 2458.93,-84.45 2443.75,-68.53 2385.56,-7.51 1766.57,-56.57 1685.75,-32.53 1684.48,-32.15 1683.21,-31.7 1681.94,-31.19"/>
<polygon fill="green" stroke="green" stroke-width="0.52" points="1683.18,-27.89 1672.67,-26.5 1680.02,-34.14 1683.18,-27.89"/>
</g>
<!-- &#45;4&#45;&gt;3 -->
<g id="edge172" class="edge">
<title>&#45;4&#45;&gt;3</title>
<path fill="none" stroke="red" stroke-width="0.44" d="M1385.05,-156.41C1387.88,-155.44 1390.87,-154.57 1393.75,-154.02 1467.68,-139.98 2695.25,-171.94 2747.75,-118.02 2763.1,-102.26 2762.92,-84.46 2747.75,-68.53 2711.87,-30.83 1896.69,-19.43 1737.55,-17.56"/>
<polygon fill="red" stroke="red" stroke-width="0.44" points="1737.28,-14.05 1727.24,-17.44 1737.2,-21.05 1737.28,-14.05"/>
</g>
<!-- &#45;4&#45;&gt;4 -->
<g id="edge173" class="edge">
<title>&#45;4&#45;&gt;4</title>
<path fill="none" stroke="green" stroke-width="0.26" d="M1358.41,-156.59C1355.59,-155.61 1352.6,-154.69 1349.75,-154.02 1277.25,-137.18 1066.47,-173.41 1016.75,-118.02 1002.05,-101.65 1007.23,-88.36 1016.75,-68.53 1025.14,-51.05 1042.71,-37.66 1057.33,-28.96"/>
<polygon fill="green" stroke="green" stroke-width="0.26" points="1059.34,-31.84 1066.37,-23.92 1055.93,-25.73 1059.34,-31.84"/>
</g>
<!-- &#45;4&#45;&gt;5 -->
<g id="edge174" class="edge">
<title>&#45;4&#45;&gt;5</title>
<path fill="none" stroke="green" stroke-width="0.31" stroke-dasharray="1,5" d="M1358.41,-156.6C1355.58,-155.62 1352.6,-154.69 1349.75,-154.02 1280.52,-137.76 1079.12,-171.07 1031.75,-118.02 1017.09,-101.62 1018.46,-86.06 1031.75,-68.53 1050.71,-43.52 1142.56,-27.37 1188.49,-20.72"/>
<polygon fill="green" stroke="green" stroke-width="0.31" points="1189.17,-24.16 1198.59,-19.31 1188.2,-17.23 1189.17,-24.16"/>
</g>
<!-- &#45;4&#45;&gt;6 -->
<g id="edge175" class="edge">
<title>&#45;4&#45;&gt;6</title>
<path fill="none" stroke="red" stroke-width="0.38" d="M1358.4,-156.62C1355.58,-155.63 1352.6,-154.7 1349.75,-154.02 1283.78,-138.33 1091.78,-168.72 1046.75,-118.02 1032.14,-101.58 1032.55,-85.33 1046.75,-68.53 1051.24,-63.21 1250.17,-32.33 1322.67,-21.23"/>
<polygon fill="red" stroke="red" stroke-width="0.38" points="1323.44,-24.66 1332.79,-19.69 1322.38,-17.74 1323.44,-24.66"/>
</g>
<!-- &#45;4&#45;&gt;7 -->
<g id="edge176" class="edge">
<title>&#45;4&#45;&gt;7</title>
<path fill="none" stroke="red" stroke-width="0.41" d="M1385.08,-156.53C1387.9,-155.55 1390.89,-154.65 1393.75,-154.02 1441.89,-143.51 1802.35,-154.25 1835.75,-118.02 1850.66,-101.85 1850.16,-85.15 1835.75,-68.53 1798.68,-25.79 1637.15,-51.2 1583.75,-32.53 1582.5,-32.09 1581.24,-31.59 1579.99,-31.04"/>
<polygon fill="red" stroke="red" stroke-width="0.41" points="1581.24,-27.75 1570.76,-26.23 1578.01,-33.96 1581.24,-27.75"/>
</g>
<!-- &#45;4&#45;&gt;368 -->
<g id="edge28" class="edge">
<title>&#45;4&#45;&gt;368</title>
<path fill="none" stroke="green" stroke-width="0.18" d="M1361.07,-153.99C1348.43,-144.47 1326.88,-128.25 1309.43,-115.11"/>
<polygon fill="green" stroke="green" stroke-width="0.18" points="1311.35,-112.18 1301.25,-108.96 1307.14,-117.77 1311.35,-112.18"/>
</g>
<!-- &#45;4&#45;&gt;369 -->
<g id="edge29" class="edge">
<title>&#45;4&#45;&gt;369</title>
<path fill="none" stroke="green" stroke-width="0.16" d="M1369.02,-153.99C1366.69,-147.13 1363.19,-136.81 1359.74,-126.66"/>
<polygon fill="green" stroke="green" stroke-width="0.16" points="1363.03,-125.45 1356.5,-117.1 1356.4,-127.7 1363.03,-125.45"/>
</g>
<!-- &#45;4&#45;&gt;370 -->
<g id="edge30" class="edge">
<title>&#45;4&#45;&gt;370</title>
<path fill="none" stroke="green" stroke-width="0.51" d="M1376.97,-153.99C1381.98,-146.28 1389.84,-134.17 1397.18,-122.87"/>
<polygon fill="green" stroke="green" stroke-width="0.51" points="1400.12,-124.77 1402.63,-114.47 1394.25,-120.95 1400.12,-124.77"/>
</g>
<!-- &#45;4&#45;&gt;371 -->
<g id="edge31" class="edge">
<title>&#45;4&#45;&gt;371</title>
<path fill="none" stroke="green" stroke-width="0.68" d="M1384.98,-155.14C1400.71,-146.82 1427.61,-132.17 1449.75,-118.02 1451.4,-116.97 1453.08,-115.86 1454.76,-114.73"/>
<polygon fill="green" stroke="green" stroke-width="0.68" points="1456.88,-117.53 1463.1,-108.95 1452.89,-111.77 1456.88,-117.53"/>
</g>
<!-- &#45;4&#45;&gt;372 -->
<g id="edge32" class="edge">
<title>&#45;4&#45;&gt;372</title>
<path fill="none" stroke="red" stroke-width="0.75" d="M1385.2,-156.98C1388.01,-155.97 1390.97,-154.94 1393.75,-154.02 1447.88,-136.28 1465.57,-143.02 1516.75,-118.02 1518.56,-117.14 1520.37,-116.16 1522.17,-115.12"/>
<polygon fill="red" stroke="red" stroke-width="0.75" points="1524.38,-117.85 1530.9,-109.5 1520.59,-111.97 1524.38,-117.85"/>
</g>
<!-- &#45;4&#45;&gt;374 -->
<g id="edge33" class="edge">
<title>&#45;4&#45;&gt;374</title>
<path fill="none" stroke="red" stroke-width="0.21" d="M1385.13,-156.77C1387.95,-155.77 1390.93,-154.8 1393.75,-154.02 1476.63,-131.26 1504.77,-151.93 1583.75,-118.02 1585.6,-117.23 1587.44,-116.32 1589.26,-115.33"/>
<polygon fill="red" stroke="red" stroke-width="0.21" points="1591.42,-118.11 1598.06,-109.85 1587.72,-112.17 1591.42,-118.11"/>
</g>
<!-- &#45;4&#45;&gt;375 -->
<g id="edge34" class="edge">
<title>&#45;4&#45;&gt;375</title>
<path fill="none" stroke="red" stroke-width="0.31" d="M1358.38,-156.69C1355.56,-155.7 1352.58,-154.75 1349.75,-154.02 1246.95,-127.77 1211.98,-158.13 1113.75,-118.02 1111.89,-117.26 1110.03,-116.38 1108.2,-115.41"/>
<polygon fill="red" stroke="red" stroke-width="0.31" points="1109.74,-112.24 1099.38,-109.98 1106.07,-118.2 1109.74,-112.24"/>
</g>
<!-- &#45;4&#45;&gt;376 -->
<g id="edge35" class="edge">
<title>&#45;4&#45;&gt;376</title>
<path fill="none" stroke="red" stroke-width="0.72" d="M1358.35,-156.82C1355.53,-155.82 1352.56,-154.83 1349.75,-154.02 1275.93,-132.85 1250.97,-149.12 1180.75,-118.02 1178.91,-117.21 1177.07,-116.28 1175.25,-115.28"/>
<polygon fill="red" stroke="red" stroke-width="0.72" points="1176.81,-112.12 1166.48,-109.77 1173.08,-118.05 1176.81,-112.12"/>
</g>
<!-- &#45;4&#45;&gt;377 -->
<g id="edge36" class="edge">
<title>&#45;4&#45;&gt;377</title>
<path fill="none" stroke="green" stroke-width="0.22" d="M1358.73,-157.27C1355.78,-156.19 1352.66,-155.07 1349.75,-154.02 1304.49,-137.81 1290.36,-140.29 1247.75,-118.02 1245.97,-117.09 1244.17,-116.07 1242.39,-115"/>
<polygon fill="green" stroke="green" stroke-width="0.22" points="1243.98,-111.86 1233.7,-109.3 1240.14,-117.71 1243.98,-111.86"/>
</g>
<!-- &#45;5 -->
<g id="node5" class="node">
<title>&#45;5</title>
<polygon fill="lightgray" stroke="black" points="1560.75,-172.02 1534.75,-172.02 1534.75,-154.02 1560.75,-154.02 1560.75,-172.02"/>
<text text-anchor="middle" x="1547.75" y="-160.82" font-family="Times-Roman" font-size="9.00">&#45;5</text>
</g>
<!-- &#45;5&#45;&gt;0 -->
<g id="edge177" class="edge">
<title>&#45;5&#45;&gt;0</title>
<path fill="none" stroke="green" stroke-width="0.53" d="M1560.87,-161.99C1679.16,-161.58 2558.13,-157.25 2595.75,-118.02 2610.97,-102.15 2611.01,-84.37 2595.75,-68.53 2558.68,-30.05 1686.03,-47.5 1634.75,-32.53 1633.48,-32.16 1632.2,-31.71 1630.94,-31.2"/>
<polygon fill="green" stroke="green" stroke-width="0.53" points="1632.17,-27.9 1621.66,-26.53 1629.02,-34.16 1632.17,-27.9"/>
</g>
<!-- &#45;5&#45;&gt;1 -->
<g id="edge178" class="edge">
<title>&#45;5&#45;&gt;1</title>
<path fill="none" stroke="red" stroke-width="0.54" d="M1534.43,-156.52C1531.6,-155.54 1528.61,-154.64 1525.75,-154.02 1311.36,-108.13 1247.98,-164.7 1033.75,-118.02 938.71,-97.32 832.27,-50.23 786.15,-28.56"/>
<polygon fill="red" stroke="red" stroke-width="0.54" points="787.53,-25.34 777,-24.22 784.53,-31.67 787.53,-25.34"/>
</g>
<!-- &#45;5&#45;&gt;2 -->
<g id="edge179" class="edge">
<title>&#45;5&#45;&gt;2</title>
<path fill="none" stroke="red" stroke-width="0.16" d="M1561.05,-162.12C1698.17,-162.99 2850.59,-168.8 2899.75,-118.02 2915.05,-102.22 2915.07,-84.31 2899.75,-68.53 2852.75,-20.11 1750.59,-51.19 1685.75,-32.53 1684.48,-32.16 1683.2,-31.72 1681.93,-31.22"/>
<polygon fill="red" stroke="red" stroke-width="0.16" points="1683.16,-27.92 1672.66,-26.55 1680.02,-34.17 1683.16,-27.92"/>
</g>
<!-- &#45;5&#45;&gt;3 -->
<g id="edge180" class="edge">
<title>&#45;5&#45;&gt;3</title>
<path fill="none" stroke="red" stroke-width="0.61" d="M1560.95,-161.89C1707.46,-160.41 3024.25,-146.34 3051.75,-118.02 3067.08,-102.24 3067,-84.38 3051.75,-68.53 3004.45,-19.38 1921.22,-17.25 1737.2,-17.25"/>
<polygon fill="red" stroke="red" stroke-width="0.61" points="1737.06,-13.75 1727.07,-17.25 1737.07,-20.75 1737.06,-13.75"/>
</g>
<!-- &#45;5&#45;&gt;4 -->
<g id="edge181" class="edge">
<title>&#45;5&#45;&gt;4</title>
<path fill="none" stroke="red" stroke-width="0.66" d="M1534.42,-156.52C1531.6,-155.54 1528.61,-154.64 1525.75,-154.02 1473.57,-142.8 1083.05,-157.15 1046.75,-118.02 1025.8,-95.44 1046.6,-59.49 1063.63,-37.19"/>
<polygon fill="red" stroke="red" stroke-width="0.66" points="1066.59,-39.09 1070.1,-29.1 1061.12,-34.72 1066.59,-39.09"/>
</g>
<!-- &#45;5&#45;&gt;5 -->
<g id="edge182" class="edge">
<title>&#45;5&#45;&gt;5</title>
<path fill="none" stroke="red" stroke-width="0.21" d="M1560.93,-161.84C1586.94,-160.68 1644.51,-153.95 1669.75,-118.02 1682.39,-100.02 1684.48,-84.87 1669.75,-68.53 1643.87,-39.82 1362.12,-37.21 1323.75,-32.53 1295.39,-29.07 1262.97,-24.44 1240.91,-21.19"/>
<polygon fill="red" stroke="red" stroke-width="0.21" points="1241.38,-17.72 1230.98,-19.72 1240.35,-24.65 1241.38,-17.72"/>
</g>
<!-- &#45;5&#45;&gt;6 -->
<g id="edge183" class="edge">
<title>&#45;5&#45;&gt;6</title>
<path fill="none" stroke="green" stroke-width="0.74" d="M1560.85,-160.44C1595.77,-155.94 1689.63,-141.8 1707.75,-118.02 1721.08,-100.53 1722.16,-85.15 1707.75,-68.53 1685.93,-43.37 1455.02,-24.78 1375.49,-19.09"/>
<polygon fill="green" stroke="green" stroke-width="0.74" points="1375.53,-15.58 1365.31,-18.37 1375.04,-22.57 1375.53,-15.58"/>
</g>
<!-- &#45;5&#45;&gt;7 -->
<g id="edge184" class="edge">
<title>&#45;5&#45;&gt;7</title>
<path fill="none" stroke="green" stroke-width="0.31" d="M1560.79,-161.76C1657.95,-159.7 2265.62,-145.74 2291.75,-118.02 2306.84,-102.02 2306.9,-84.47 2291.75,-68.53 2237.48,-11.43 1659.21,-55.11 1583.75,-32.53 1582.48,-32.15 1581.21,-31.69 1579.94,-31.18"/>
<polygon fill="green" stroke="green" stroke-width="0.31" points="1581.18,-27.88 1570.67,-26.49 1578.02,-34.13 1581.18,-27.88"/>
</g>
<!-- &#45;5&#45;&gt;368 -->
<g id="edge37" class="edge">
<title>&#45;5&#45;&gt;368</title>
<path fill="none" stroke="red" stroke-width="0.35" d="M1534.37,-156.73C1531.56,-155.73 1528.58,-154.77 1525.75,-154.02 1433.79,-129.67 1402.5,-154.75 1314.75,-118.02 1312.89,-117.25 1311.04,-116.35 1309.22,-115.37"/>
<polygon fill="red" stroke="red" stroke-width="0.35" points="1310.76,-112.2 1300.41,-109.92 1307.07,-118.16 1310.76,-112.2"/>
</g>
<!-- &#45;5&#45;&gt;369 -->
<g id="edge38" class="edge">
<title>&#45;5&#45;&gt;369</title>
<path fill="none" stroke="green" stroke-width="0.15" d="M1534.33,-156.89C1531.51,-155.89 1528.55,-154.88 1525.75,-154.02 1462.66,-134.73 1441.59,-145.79 1381.75,-118.02 1379.92,-117.18 1378.1,-116.23 1376.29,-115.2"/>
<polygon fill="green" stroke="green" stroke-width="0.15" points="1377.85,-112.05 1367.53,-109.64 1374.1,-117.96 1377.85,-112.05"/>
</g>
<!-- &#45;5&#45;&gt;370 -->
<g id="edge39" class="edge">
<title>&#45;5&#45;&gt;370</title>
<path fill="none" stroke="green" stroke-width="0.49" d="M1534.52,-157.15C1515.13,-149.78 1478.11,-134.88 1448.75,-118.02 1447,-117.02 1445.24,-115.95 1443.48,-114.83"/>
<polygon fill="green" stroke="green" stroke-width="0.49" points="1445.1,-111.71 1434.85,-109.03 1441.19,-117.51 1445.1,-111.71"/>
</g>
<!-- &#45;5&#45;&gt;371 -->
<g id="edge40" class="edge">
<title>&#45;5&#45;&gt;371</title>
<path fill="none" stroke="green" stroke-width="0.98" d="M1540.04,-153.99C1531.79,-145.39 1518.31,-131.34 1506.5,-119.03"/>
<polygon fill="green" stroke="green" stroke-width="0.98" points="1508.87,-116.44 1499.42,-111.65 1503.82,-121.29 1508.87,-116.44"/>
</g>
<!-- &#45;5&#45;&gt;372 -->
<g id="edge41" class="edge">
<title>&#45;5&#45;&gt;372</title>
<path fill="none" stroke="green" stroke-width="0.26" d="M1547.99,-153.99C1548.18,-147.55 1548.46,-138.05 1548.74,-128.52"/>
<polygon fill="green" stroke="green" stroke-width="0.26" points="1552.24,-128.4 1549.04,-118.3 1545.25,-128.19 1552.24,-128.4"/>
</g>
<!-- &#45;5&#45;&gt;374 -->
<g id="edge42" class="edge">
<title>&#45;5&#45;&gt;374</title>
<path fill="none" stroke="red" stroke-width="0.25" d="M1555.93,-153.99C1564.83,-145.26 1579.46,-130.89 1592.15,-118.43"/>
<polygon fill="red" stroke="red" stroke-width="0.25" points="1594.65,-120.88 1599.33,-111.38 1589.75,-115.88 1594.65,-120.88"/>
</g>
<!-- &#45;5&#45;&gt;375 -->
<g id="edge43" class="edge">
<title>&#45;5&#45;&gt;375</title>
<path fill="none" stroke="green" stroke-width="0.73" d="M1534.42,-156.55C1531.6,-155.57 1528.61,-154.66 1525.75,-154.02 1346.29,-114.28 1286.07,-182 1113.75,-118.02 1111.86,-117.32 1109.99,-116.49 1108.14,-115.55"/>
<polygon fill="green" stroke="green" stroke-width="0.73" points="1109.66,-112.38 1099.29,-110.22 1106.05,-118.37 1109.66,-112.38"/>
</g>
<!-- &#45;5&#45;&gt;376 -->
<g id="edge44" class="edge">
<title>&#45;5&#45;&gt;376</title>
<path fill="none" stroke="green" stroke-width="0.16" d="M1534.41,-156.58C1531.59,-155.6 1528.6,-154.68 1525.75,-154.02 1375.52,-119.42 1324.82,-172.89 1180.75,-118.02 1178.87,-117.31 1177,-116.46 1175.16,-115.51"/>
<polygon fill="green" stroke="green" stroke-width="0.16" points="1176.68,-112.34 1166.31,-110.16 1173.06,-118.33 1176.68,-112.34"/>
</g>
<!-- &#45;5&#45;&gt;377 -->
<g id="edge45" class="edge">
<title>&#45;5&#45;&gt;377</title>
<path fill="none" stroke="red" stroke-width="0.24" d="M1534.4,-156.64C1531.58,-155.65 1528.59,-154.72 1525.75,-154.02 1404.7,-124.56 1363.62,-163.81 1247.75,-118.02 1245.88,-117.29 1244.01,-116.42 1242.18,-115.46"/>
<polygon fill="red" stroke="red" stroke-width="0.24" points="1243.71,-112.29 1233.35,-110.06 1240.06,-118.26 1243.71,-112.29"/>
</g>
<!-- &#45;6 -->
<g id="node6" class="node">
<title>&#45;6</title>
<polygon fill="lightgray" stroke="black" points="1296.75,-172.02 1270.75,-172.02 1270.75,-154.02 1296.75,-154.02 1296.75,-172.02"/>
<text text-anchor="middle" x="1283.75" y="-160.82" font-family="Times-Roman" font-size="9.00">&#45;6</text>
</g>
<!-- &#45;6&#45;&gt;0 -->
<g id="edge185" class="edge">
<title>&#45;6&#45;&gt;0</title>
<path fill="none" stroke="red" stroke-width="0.16" d="M1297.06,-156.46C1299.88,-155.49 1302.88,-154.6 1305.75,-154.02 1388.42,-137.43 2005.56,-179.04 2063.75,-118.02 2078.93,-102.1 2078.64,-84.72 2063.75,-68.53 1998.99,1.89 1725.94,-61.46 1634.75,-32.53 1633.49,-32.13 1632.22,-31.66 1630.96,-31.13"/>
<polygon fill="red" stroke="red" stroke-width="0.16" points="1632.2,-27.84 1621.7,-26.4 1629.01,-34.07 1632.2,-27.84"/>
</g>
<!-- &#45;6&#45;&gt;1 -->
<g id="edge186" class="edge">
<title>&#45;6&#45;&gt;1</title>
<path fill="none" stroke="green" stroke-width="0.26" d="M1270.44,-156.43C1267.62,-155.45 1264.62,-154.58 1261.75,-154.02 1200.51,-142.22 183.13,-162.82 139.75,-118.02 124.44,-102.22 124.84,-84.71 139.75,-68.53 180.71,-24.06 622.38,-18.16 736.14,-17.38"/>
<polygon fill="green" stroke="green" stroke-width="0.26" points="736.41,-20.88 746.39,-17.32 736.37,-13.88 736.41,-20.88"/>
</g>
<!-- &#45;6&#45;&gt;2 -->
<g id="edge187" class="edge">
<title>&#45;6&#45;&gt;2</title>
<path fill="none" stroke="red" stroke-width="0.2" d="M1297.05,-156.43C1299.88,-155.46 1302.88,-154.58 1305.75,-154.02 1363.71,-142.8 2326.72,-160.47 2367.75,-118.02 2383.04,-102.21 2382.89,-84.49 2367.75,-68.53 2315.52,-13.47 1758.42,-54.36 1685.75,-32.53 1684.48,-32.15 1683.21,-31.69 1681.95,-31.18"/>
<polygon fill="red" stroke="red" stroke-width="0.2" points="1683.18,-27.88 1672.68,-26.48 1680.02,-34.13 1683.18,-27.88"/>
</g>
<!-- &#45;6&#45;&gt;3 -->
<g id="edge188" class="edge">
<title>&#45;6&#45;&gt;3</title>
<path fill="none" stroke="green" stroke-width="0.36" d="M1297.05,-156.41C1299.88,-155.44 1302.87,-154.57 1305.75,-154.02 1380.33,-139.87 2618.78,-172.41 2671.75,-118.02 2687.1,-102.27 2686.88,-84.49 2671.75,-68.53 2638.7,-33.67 1889.36,-20.07 1737.46,-17.66"/>
<polygon fill="green" stroke="green" stroke-width="0.36" points="1737.25,-14.16 1727.2,-17.5 1737.15,-21.16 1737.25,-14.16"/>
</g>
<!-- &#45;6&#45;&gt;4 -->
<g id="edge189" class="edge">
<title>&#45;6&#45;&gt;4</title>
<path fill="none" stroke="red" stroke-width="0.1" d="M1270.44,-156.44C1267.62,-155.46 1264.62,-154.59 1261.75,-154.02 1208.82,-143.68 329.17,-156.86 291.75,-118.02 276.48,-102.18 276.71,-84.58 291.75,-68.53 298.43,-61.4 918.13,-26.36 1054.43,-18.73"/>
<polygon fill="red" stroke="red" stroke-width="0.1" points="1054.63,-22.22 1064.42,-18.17 1054.24,-15.24 1054.63,-22.22"/>
</g>
<!-- &#45;6&#45;&gt;5 -->
<g id="edge190" class="edge">
<title>&#45;6&#45;&gt;5</title>
<path fill="none" stroke="red" stroke-width="0.36" d="M1270.43,-156.47C1267.61,-155.5 1264.62,-154.61 1261.75,-154.02 1189.14,-139.2 646.72,-171.82 595.75,-118.02 580.62,-102.05 580.75,-84.62 595.75,-68.53 634.48,-26.97 1049.25,-38.47 1105.75,-32.53 1134.16,-29.54 1166.57,-24.83 1188.62,-21.44"/>
<polygon fill="red" stroke="red" stroke-width="0.36" points="1189.2,-24.89 1198.54,-19.89 1188.12,-17.97 1189.2,-24.89"/>
</g>
<!-- &#45;6&#45;&gt;6 -->
<g id="edge191" class="edge">
<title>&#45;6&#45;&gt;6</title>
<path fill="none" stroke="green" stroke-width="0.32" stroke-dasharray="1,5" d="M1270.41,-156.59C1267.59,-155.6 1264.6,-154.68 1261.75,-154.02 1187.72,-136.92 972.57,-174.51 921.75,-118.02 907.03,-101.67 907.09,-84.93 921.75,-68.53 969.12,-15.49 1169.19,-41.46 1239.75,-32.53 1268.1,-28.94 1300.52,-24.33 1322.58,-21.13"/>
<polygon fill="green" stroke="green" stroke-width="0.32" points="1323.13,-24.58 1332.52,-19.67 1322.11,-17.66 1323.13,-24.58"/>
</g>
<!-- &#45;6&#45;&gt;7 -->
<g id="edge192" class="edge">
<title>&#45;6&#45;&gt;7</title>
<path fill="none" stroke="green" stroke-width="0.58" d="M1297.08,-156.53C1299.9,-155.55 1302.89,-154.65 1305.75,-154.02 1355.2,-143.28 1725.41,-155.19 1759.75,-118.02 1774.68,-101.87 1773.66,-85.57 1759.75,-68.53 1709.26,-6.67 1658.29,-61.12 1583.75,-32.53 1582.51,-32.05 1581.27,-31.52 1580.02,-30.95"/>
<polygon fill="green" stroke="green" stroke-width="0.58" points="1581.29,-27.66 1570.82,-26.07 1578.01,-33.85 1581.29,-27.66"/>
</g>
<!-- &#45;6&#45;&gt;368 -->
<g id="edge46" class="edge">
<title>&#45;6&#45;&gt;368</title>
<path fill="none" stroke="green" stroke-width="0.59" d="M1283.51,-153.99C1283.32,-147.55 1283.04,-138.05 1282.76,-128.52"/>
<polygon fill="green" stroke="green" stroke-width="0.59" points="1286.25,-128.19 1282.46,-118.3 1279.25,-128.4 1286.25,-128.19"/>
</g>
<!-- &#45;6&#45;&gt;369 -->
<g id="edge47" class="edge">
<title>&#45;6&#45;&gt;369</title>
<path fill="none" stroke="red" stroke-width="0.4" d="M1291.46,-153.99C1299.7,-145.39 1313.18,-131.34 1325,-119.03"/>
<polygon fill="red" stroke="red" stroke-width="0.4" points="1327.68,-121.29 1332.08,-111.65 1322.63,-116.44 1327.68,-121.29"/>
</g>
<!-- &#45;6&#45;&gt;370 -->
<g id="edge48" class="edge">
<title>&#45;6&#45;&gt;370</title>
<path fill="none" stroke="green" stroke-width="0.62" d="M1296.98,-157.15C1316.37,-149.78 1353.39,-134.88 1382.75,-118.02 1384.49,-117.02 1386.26,-115.95 1388.02,-114.83"/>
<polygon fill="green" stroke="green" stroke-width="0.62" points="1390.31,-117.51 1396.65,-109.03 1386.4,-111.71 1390.31,-117.51"/>
</g>
<!-- &#45;6&#45;&gt;371 -->
<g id="edge49" class="edge">
<title>&#45;6&#45;&gt;371</title>
<path fill="none" stroke="green" stroke-width="0.37" d="M1297.17,-156.89C1299.99,-155.89 1302.95,-154.88 1305.75,-154.02 1368.83,-134.73 1389.91,-145.79 1449.75,-118.02 1451.57,-117.18 1453.4,-116.23 1455.21,-115.2"/>
<polygon fill="green" stroke="green" stroke-width="0.37" points="1457.4,-117.96 1463.96,-109.64 1453.65,-112.05 1457.4,-117.96"/>
</g>
<!-- &#45;6&#45;&gt;372 -->
<g id="edge50" class="edge">
<title>&#45;6&#45;&gt;372</title>
<path fill="none" stroke="green" stroke-width="0.51" d="M1297.12,-156.73C1299.94,-155.73 1302.92,-154.77 1305.75,-154.02 1397.71,-129.67 1428.99,-154.75 1516.75,-118.02 1518.6,-117.25 1520.46,-116.35 1522.28,-115.37"/>
<polygon fill="green" stroke="green" stroke-width="0.51" points="1524.43,-118.16 1531.09,-109.92 1520.74,-112.2 1524.43,-118.16"/>
</g>
<!-- &#45;6&#45;&gt;374 -->
<g id="edge51" class="edge">
<title>&#45;6&#45;&gt;374</title>
<path fill="none" stroke="red" stroke-width="0.28" d="M1297.1,-156.64C1299.92,-155.65 1302.91,-154.72 1305.75,-154.02 1426.8,-124.56 1467.88,-163.81 1583.75,-118.02 1585.62,-117.29 1587.48,-116.42 1589.32,-115.46"/>
<polygon fill="red" stroke="red" stroke-width="0.28" points="1591.44,-118.26 1598.15,-110.06 1587.79,-112.29 1591.44,-118.26"/>
</g>
<!-- &#45;6&#45;&gt;375 -->
<g id="edge52" class="edge">
<title>&#45;6&#45;&gt;375</title>
<path fill="none" stroke="green" stroke-width="0.17" d="M1270.33,-156.88C1267.52,-155.87 1264.55,-154.87 1261.75,-154.02 1196.95,-134.43 1175.25,-146.32 1113.75,-118.02 1111.92,-117.18 1110.09,-116.24 1108.28,-115.21"/>
<polygon fill="green" stroke="green" stroke-width="0.17" points="1109.84,-112.06 1099.52,-109.66 1106.1,-117.97 1109.84,-112.06"/>
</g>
<!-- &#45;6&#45;&gt;376 -->
<g id="edge53" class="edge">
<title>&#45;6&#45;&gt;376</title>
<path fill="none" stroke="red" stroke-width="0.31" d="M1270.7,-156.87C1246.81,-147.36 1197.01,-127.2 1180.75,-118.02 1179,-117.04 1177.23,-115.97 1175.46,-114.86"/>
<polygon fill="red" stroke="red" stroke-width="0.31" points="1177.08,-111.73 1166.82,-109.08 1173.18,-117.55 1177.08,-111.73"/>
</g>
<!-- &#45;6&#45;&gt;377 -->
<g id="edge54" class="edge">
<title>&#45;6&#45;&gt;377</title>
<path fill="none" stroke="red" stroke-width="0.23" d="M1275.56,-153.99C1266.67,-145.26 1252.03,-130.89 1239.35,-118.43"/>
<polygon fill="red" stroke="red" stroke-width="0.23" points="1241.75,-115.88 1232.16,-111.38 1236.85,-120.88 1241.75,-115.88"/>
</g>
<!-- &#45;7 -->
<g id="node7" class="node">
<title>&#45;7</title>
<polygon fill="lightgray" stroke="black" points="1516.75,-172.02 1490.75,-172.02 1490.75,-154.02 1516.75,-154.02 1516.75,-172.02"/>
<text text-anchor="middle" x="1503.75" y="-160.82" font-family="Times-Roman" font-size="9.00">&#45;7</text>
</g>
<!-- &#45;7&#45;&gt;0 -->
<g id="edge193" class="edge">
<title>&#45;7&#45;&gt;0</title>
<path fill="none" stroke="green" stroke-width="0.17" d="M1517.06,-156.43C1519.88,-155.46 1522.88,-154.58 1525.75,-154.02 1582.06,-143.09 2517.9,-159.29 2557.75,-118.02 2573.03,-102.2 2573,-84.38 2557.75,-68.53 2522.18,-31.54 1684,-46.95 1634.75,-32.53 1633.48,-32.15 1632.2,-31.71 1630.94,-31.2"/>
<polygon fill="green" stroke="green" stroke-width="0.17" points="1632.17,-27.9 1621.67,-26.52 1629.02,-34.15 1632.17,-27.9"/>
</g>
<!-- &#45;7&#45;&gt;1 -->
<g id="edge194" class="edge">
<title>&#45;7&#45;&gt;1</title>
<path fill="none" stroke="green" stroke-width="0.37" d="M1490.44,-156.43C1487.62,-155.46 1484.62,-154.58 1481.75,-154.02 1427.18,-143.4 520.34,-158.03 481.75,-118.02 404.79,-38.24 652.6,-21.44 736.2,-18.07"/>
<polygon fill="green" stroke="green" stroke-width="0.37" points="736.56,-21.56 746.42,-17.69 736.3,-14.56 736.56,-21.56"/>
</g>
<!-- &#45;7&#45;&gt;2 -->
<g id="edge195" class="edge">
<title>&#45;7&#45;&gt;2</title>
<path fill="none" stroke="green" stroke-width="0.11" d="M1517.05,-156.41C1519.88,-155.44 1522.87,-154.57 1525.75,-154.02 1598.69,-140.16 2809.96,-171.23 2861.75,-118.02 2877.09,-102.26 2877.06,-84.32 2861.75,-68.53 2816.24,-21.61 1748.55,-50.64 1685.75,-32.53 1684.48,-32.16 1683.2,-31.72 1681.94,-31.21"/>
<polygon fill="green" stroke="green" stroke-width="0.11" points="1683.16,-27.91 1672.66,-26.55 1680.02,-34.17 1683.16,-27.91"/>
</g>
<!-- &#45;7&#45;&gt;3 -->
<g id="edge196" class="edge">
<title>&#45;7&#45;&gt;3</title>
<path fill="none" stroke="red" stroke-width="0.35" d="M1517.05,-156.41C1519.88,-155.44 1522.87,-154.57 1525.75,-154.02 1607.01,-138.69 2955.99,-177.2 3013.75,-118.02 3029.12,-102.28 3029,-84.39 3013.75,-68.53 2967.88,-20.82 1918.5,-17.5 1737.29,-17.28"/>
<polygon fill="red" stroke="red" stroke-width="0.35" points="1737.07,-13.78 1727.06,-17.27 1737.06,-20.78 1737.07,-13.78"/>
</g>
<!-- &#45;7&#45;&gt;4 -->
<g id="edge197" class="edge">
<title>&#45;7&#45;&gt;4</title>
<path fill="none" stroke="green" stroke-width="0.28" d="M1490.43,-156.47C1487.61,-155.49 1484.62,-154.61 1481.75,-154.02 1405.86,-138.62 839.07,-174.18 785.75,-118.02 705.69,-33.72 967.7,-19.95 1054.08,-17.7"/>
<polygon fill="green" stroke="green" stroke-width="0.28" points="1054.24,-21.2 1064.16,-17.47 1054.08,-14.2 1054.24,-21.2"/>
</g>
<!-- &#45;7&#45;&gt;5 -->
<g id="edge198" class="edge">
<title>&#45;7&#45;&gt;5</title>
<path fill="none" stroke="red" stroke-width="0.56" d="M1517.19,-156.97C1520.01,-155.96 1522.97,-154.93 1525.75,-154.02 1580.73,-136.14 1615.98,-164.22 1650.75,-118.02 1663.98,-100.45 1665.43,-84.91 1650.75,-68.53 1601.97,-14.08 1396.29,-41.6 1323.75,-32.53 1295.4,-28.98 1262.98,-24.37 1240.92,-21.15"/>
<polygon fill="red" stroke="red" stroke-width="0.56" points="1241.38,-17.68 1230.98,-19.69 1240.36,-24.61 1241.38,-17.68"/>
</g>
<!-- &#45;7&#45;&gt;6 -->
<g id="edge199" class="edge">
<title>&#45;7&#45;&gt;6</title>
<path fill="none" stroke="green" stroke-width="0.41" d="M1517.15,-156.83C1519.97,-155.83 1522.94,-154.84 1525.75,-154.02 1596.99,-133.3 1642.29,-175.87 1688.75,-118.02 1702.53,-100.87 1703.1,-85.2 1688.75,-68.53 1668.24,-44.7 1451.29,-25.38 1375.06,-19.28"/>
<polygon fill="green" stroke="green" stroke-width="0.41" points="1375.11,-15.77 1364.87,-18.47 1374.56,-22.75 1375.11,-15.77"/>
</g>
<!-- &#45;7&#45;&gt;7 -->
<g id="edge200" class="edge">
<title>&#45;7&#45;&gt;7</title>
<path fill="none" stroke="red" stroke-width="0.23" d="M1517.06,-156.46C1519.89,-155.49 1522.88,-154.6 1525.75,-154.02 1605.14,-138.01 2197.91,-176.69 2253.75,-118.02 2268.92,-102.09 2268.88,-84.49 2253.75,-68.53 2202.47,-14.42 1655.14,-54.01 1583.75,-32.53 1582.48,-32.15 1581.21,-31.69 1579.95,-31.18"/>
<polygon fill="red" stroke="red" stroke-width="0.23" points="1581.18,-27.88 1570.68,-26.48 1578.02,-34.12 1581.18,-27.88"/>
</g>
<!-- &#45;7&#45;&gt;368 -->
<g id="edge55" class="edge">
<title>&#45;7&#45;&gt;368</title>
<path fill="none" stroke="red" stroke-width="0.32" d="M1490.35,-156.82C1487.53,-155.82 1484.56,-154.83 1481.75,-154.02 1408.79,-133 1384.14,-148.85 1314.75,-118.02 1312.91,-117.21 1311.07,-116.28 1309.26,-115.27"/>
<polygon fill="red" stroke="red" stroke-width="0.32" points="1310.81,-112.11 1300.48,-109.76 1307.09,-118.04 1310.81,-112.11"/>
</g>
<!-- &#45;7&#45;&gt;369 -->
<g id="edge56" class="edge">
<title>&#45;7&#45;&gt;369</title>
<path fill="none" stroke="green" stroke-width="0.14" d="M1490.72,-157.28C1487.77,-156.21 1484.65,-155.08 1481.75,-154.02 1437.33,-137.95 1423.55,-140.03 1381.75,-118.02 1379.97,-117.09 1378.18,-116.06 1376.4,-114.99"/>
<polygon fill="green" stroke="green" stroke-width="0.14" points="1377.99,-111.85 1367.71,-109.28 1374.15,-117.7 1377.99,-111.85"/>
</g>
<!-- &#45;7&#45;&gt;370 -->
<g id="edge57" class="edge">
<title>&#45;7&#45;&gt;370</title>
<path fill="none" stroke="green" stroke-width="0.62" d="M1493.31,-153.99C1481.02,-144.53 1460.14,-128.45 1443.14,-115.36"/>
<polygon fill="green" stroke="green" stroke-width="0.62" points="1445.22,-112.55 1435.16,-109.22 1440.95,-118.09 1445.22,-112.55"/>
</g>
<!-- &#45;7&#45;&gt;371 -->
<g id="edge58" class="edge">
<title>&#45;7&#45;&gt;371</title>
<path fill="none" stroke="red" stroke-width="0.27" d="M1501.26,-153.99C1499.13,-147.13 1495.93,-136.81 1492.79,-126.66"/>
<polygon fill="red" stroke="red" stroke-width="0.27" points="1496.13,-125.62 1489.82,-117.1 1489.44,-127.69 1496.13,-125.62"/>
</g>
<!-- &#45;7&#45;&gt;372 -->
<g id="edge59" class="edge">
<title>&#45;7&#45;&gt;372</title>
<path fill="none" stroke="green" stroke-width="0.57" d="M1509.21,-153.99C1514.48,-146.22 1522.78,-134 1530.5,-122.63"/>
<polygon fill="green" stroke="green" stroke-width="0.57" points="1533.51,-124.43 1536.23,-114.19 1527.72,-120.49 1533.51,-124.43"/>
</g>
<!-- &#45;7&#45;&gt;374 -->
<g id="edge60" class="edge">
<title>&#45;7&#45;&gt;374</title>
<path fill="none" stroke="red" stroke-width="0.62" d="M1516.77,-155.48C1532.84,-147.27 1560.83,-132.5 1583.75,-118.02 1585.4,-116.98 1587.09,-115.88 1588.78,-114.75"/>
<polygon fill="red" stroke="red" stroke-width="0.62" points="1590.88,-117.55 1597.12,-108.99 1586.91,-111.79 1590.88,-117.55"/>
</g>
<!-- &#45;7&#45;&gt;375 -->
<g id="edge61" class="edge">
<title>&#45;7&#45;&gt;375</title>
<path fill="none" stroke="green" stroke-width="0.48" d="M1490.41,-156.57C1487.59,-155.59 1484.6,-154.67 1481.75,-154.02 1321.49,-117.66 1267.51,-176.02 1113.75,-118.02 1111.87,-117.31 1109.99,-116.47 1108.15,-115.52"/>
<polygon fill="green" stroke="green" stroke-width="0.48" points="1109.67,-112.36 1099.31,-110.18 1106.06,-118.35 1109.67,-112.36"/>
</g>
<!-- &#45;7&#45;&gt;376 -->
<g id="edge62" class="edge">
<title>&#45;7&#45;&gt;376</title>
<path fill="none" stroke="green" stroke-width="0.61" d="M1490.4,-156.62C1487.58,-155.63 1484.6,-154.7 1481.75,-154.02 1350.69,-122.8 1306.29,-166.92 1180.75,-118.02 1178.87,-117.29 1177.01,-116.43 1175.17,-115.48"/>
<polygon fill="green" stroke="green" stroke-width="0.61" points="1176.7,-112.31 1166.34,-110.1 1173.06,-118.29 1176.7,-112.31"/>
</g>
<!-- &#45;7&#45;&gt;377 -->
<g id="edge63" class="edge">
<title>&#45;7&#45;&gt;377</title>
<path fill="none" stroke="red" stroke-width="0.29" d="M1490.38,-156.69C1487.56,-155.7 1484.58,-154.75 1481.75,-154.02 1379.81,-127.92 1345.14,-157.86 1247.75,-118.02 1245.89,-117.26 1244.03,-116.38 1242.2,-115.4"/>
<polygon fill="red" stroke="red" stroke-width="0.29" points="1243.74,-112.24 1233.39,-109.98 1240.07,-118.2 1243.74,-112.24"/>
</g>
<!-- &#45;8 -->
<g id="node8" class="node">
<title>&#45;8</title>
<polygon fill="lightgray" stroke="black" points="1340.75,-172.02 1314.75,-172.02 1314.75,-154.02 1340.75,-154.02 1340.75,-172.02"/>
<text text-anchor="middle" x="1327.75" y="-160.82" font-family="Times-Roman" font-size="9.00">&#45;8</text>
</g>
<!-- &#45;8&#45;&gt;0 -->
<g id="edge201" class="edge">
<title>&#45;8&#45;&gt;0</title>
<path fill="none" stroke="red" stroke-width="0.4" d="M1341.06,-156.46C1343.88,-155.49 1346.88,-154.6 1349.75,-154.02 1431.76,-137.54 2044.03,-178.57 2101.75,-118.02 2116.93,-102.1 2116.69,-84.67 2101.75,-68.53 2066.39,-30.34 1684.41,-48.1 1634.75,-32.53 1633.48,-32.13 1632.22,-31.66 1630.96,-31.14"/>
<polygon fill="red" stroke="red" stroke-width="0.4" points="1632.2,-27.85 1621.7,-26.42 1629.01,-34.08 1632.2,-27.85"/>
</g>
<!-- &#45;8&#45;&gt;1 -->
<g id="edge202" class="edge">
<title>&#45;8&#45;&gt;1</title>
<path fill="none" stroke="green" stroke-width="0.19" d="M1314.44,-156.42C1311.62,-155.45 1308.62,-154.58 1305.75,-154.02 1244.18,-142.16 221.37,-163.06 177.75,-118.02 162.44,-102.22 162.89,-84.75 177.75,-68.53 215.95,-26.83 627.38,-18.9 736.38,-17.53"/>
<polygon fill="green" stroke="green" stroke-width="0.19" points="736.55,-21.03 746.51,-17.41 736.47,-14.03 736.55,-21.03"/>
</g>
<!-- &#45;8&#45;&gt;2 -->
<g id="edge203" class="edge">
<title>&#45;8&#45;&gt;2</title>
<path fill="none" stroke="green" stroke-width="0.2" d="M1341.05,-156.43C1343.88,-155.46 1346.88,-154.58 1349.75,-154.02 1407.38,-142.86 2364.95,-160.23 2405.75,-118.02 2421.04,-102.21 2420.91,-84.47 2405.75,-68.53 2350.54,-10.49 1762.49,-55.46 1685.75,-32.53 1684.48,-32.15 1683.21,-31.69 1681.94,-31.18"/>
<polygon fill="green" stroke="green" stroke-width="0.2" points="1683.18,-27.89 1672.67,-26.49 1680.02,-34.13 1683.18,-27.89"/>
</g>
<!-- &#45;8&#45;&gt;3 -->
<g id="edge204" class="edge">
<title>&#45;8&#45;&gt;3</title>
<path fill="none" stroke="green" stroke-width="0.25" d="M1341.05,-156.41C1343.88,-155.44 1346.87,-154.57 1349.75,-154.02 1424,-139.93 2657.02,-172.17 2709.75,-118.02 2725.1,-102.26 2724.9,-84.48 2709.75,-68.53 2675.25,-32.22 1891.54,-19.72 1737.06,-17.6"/>
<polygon fill="green" stroke="green" stroke-width="0.25" points="1737.08,-14.1 1727.04,-17.47 1736.99,-21.1 1737.08,-14.1"/>
</g>
<!-- &#45;8&#45;&gt;4 -->
<g id="edge205" class="edge">
<title>&#45;8&#45;&gt;4</title>
<path fill="none" stroke="red" stroke-width="0.39" d="M1314.44,-156.44C1311.62,-155.46 1308.62,-154.59 1305.75,-154.02 1252.5,-143.63 367.4,-157.09 329.75,-118.02 314.48,-102.18 314.73,-84.6 329.75,-68.53 342.4,-54.99 922.45,-25.18 1054.28,-18.58"/>
<polygon fill="red" stroke="red" stroke-width="0.39" points="1054.51,-22.07 1064.32,-18.08 1054.16,-15.08 1054.51,-22.07"/>
</g>
<!-- &#45;8&#45;&gt;5 -->
<g id="edge206" class="edge">
<title>&#45;8&#45;&gt;5</title>
<path fill="none" stroke="red" stroke-width="0.37" d="M1314.43,-156.47C1311.61,-155.5 1308.62,-154.61 1305.75,-154.02 1232.48,-139.09 685.19,-172.29 633.75,-118.02 618.61,-102.06 618.8,-84.66 633.75,-68.53 669.5,-29.95 1053.46,-38.18 1105.75,-32.53 1134.16,-29.46 1166.57,-24.77 1188.61,-21.4"/>
<polygon fill="red" stroke="red" stroke-width="0.37" points="1189.19,-24.85 1198.54,-19.86 1188.12,-17.93 1189.19,-24.85"/>
</g>
<!-- &#45;8&#45;&gt;6 -->
<g id="edge207" class="edge">
<title>&#45;8&#45;&gt;6</title>
<path fill="none" stroke="green" stroke-width="0.37" d="M1314.41,-156.57C1311.59,-155.59 1308.6,-154.67 1305.75,-154.02 1225.62,-135.84 992.95,-178.89 937.75,-118.02 922.97,-101.73 923.14,-84.98 937.75,-68.53 982.62,-17.99 1172.72,-41.21 1239.75,-32.53 1268.08,-28.85 1300.51,-24.26 1322.57,-21.08"/>
<polygon fill="green" stroke="green" stroke-width="0.37" points="1323.12,-24.54 1332.51,-19.64 1322.11,-17.61 1323.12,-24.54"/>
</g>
<!-- &#45;8&#45;&gt;7 -->
<g id="edge208" class="edge">
<title>&#45;8&#45;&gt;7</title>
<path fill="none" stroke="red" stroke-width="0.51" d="M1341.08,-156.53C1343.9,-155.55 1346.89,-154.65 1349.75,-154.02 1398.54,-143.4 1763.88,-154.72 1797.75,-118.02 1812.67,-101.86 1811.96,-85.32 1797.75,-68.53 1735.46,5.11 1674.39,-65.49 1583.75,-32.53 1582.5,-32.07 1581.25,-31.56 1580,-31.01"/>
<polygon fill="red" stroke="red" stroke-width="0.51" points="1581.26,-27.71 1570.78,-26.16 1578.01,-33.91 1581.26,-27.71"/>
</g>
<!-- &#45;8&#45;&gt;368 -->
<g id="edge64" class="edge">
<title>&#45;8&#45;&gt;368</title>
<path fill="none" stroke="red" stroke-width="0.14" d="M1322.29,-153.99C1317.02,-146.22 1308.72,-134 1301,-122.63"/>
<polygon fill="red" stroke="red" stroke-width="0.14" points="1303.78,-120.49 1295.27,-114.19 1297.99,-124.43 1303.78,-120.49"/>
</g>
<!-- &#45;8&#45;&gt;369 -->
<g id="edge65" class="edge">
<title>&#45;8&#45;&gt;369</title>
<path fill="none" stroke="red" stroke-width="0.58" d="M1330.24,-153.99C1332.36,-147.13 1335.57,-136.81 1338.71,-126.66"/>
<polygon fill="red" stroke="red" stroke-width="0.58" points="1342.05,-127.69 1341.67,-117.1 1335.37,-125.62 1342.05,-127.69"/>
</g>
<!-- &#45;8&#45;&gt;370 -->
<g id="edge66" class="edge">
<title>&#45;8&#45;&gt;370</title>
<path fill="none" stroke="red" stroke-width="0.16" d="M1338.19,-153.99C1350.47,-144.53 1371.35,-128.45 1388.36,-115.36"/>
<polygon fill="red" stroke="red" stroke-width="0.16" points="1390.55,-118.09 1396.34,-109.22 1386.28,-112.55 1390.55,-118.09"/>
</g>
<!-- &#45;8&#45;&gt;371 -->
<g id="edge67" class="edge">
<title>&#45;8&#45;&gt;371</title>
<path fill="none" stroke="green" stroke-width="0.59" d="M1340.78,-157.28C1343.73,-156.21 1346.84,-155.08 1349.75,-154.02 1394.17,-137.95 1407.95,-140.03 1449.75,-118.02 1451.53,-117.09 1453.32,-116.06 1455.1,-114.99"/>
<polygon fill="green" stroke="green" stroke-width="0.59" points="1457.35,-117.7 1463.79,-109.28 1453.51,-111.85 1457.35,-117.7"/>
</g>
<!-- &#45;8&#45;&gt;372 -->
<g id="edge68" class="edge">
<title>&#45;8&#45;&gt;372</title>
<path fill="none" stroke="green" stroke-width="0.57" d="M1341.15,-156.82C1343.97,-155.82 1346.94,-154.83 1349.75,-154.02 1422.71,-133 1447.36,-148.85 1516.75,-118.02 1518.59,-117.21 1520.43,-116.28 1522.24,-115.27"/>
<polygon fill="green" stroke="green" stroke-width="0.57" points="1524.41,-118.04 1531.02,-109.76 1520.69,-112.11 1524.41,-118.04"/>
</g>
<!-- &#45;8&#45;&gt;374 -->
<g id="edge69" class="edge">
<title>&#45;8&#45;&gt;374</title>
<path fill="none" stroke="red" stroke-width="0.27" d="M1341.11,-156.69C1343.93,-155.7 1346.91,-154.75 1349.75,-154.02 1451.68,-127.92 1486.36,-157.86 1583.75,-118.02 1585.61,-117.26 1587.47,-116.38 1589.3,-115.4"/>
<polygon fill="red" stroke="red" stroke-width="0.27" points="1591.43,-118.2 1598.11,-109.98 1587.76,-112.24 1591.43,-118.2"/>
</g>
<!-- &#45;8&#45;&gt;375 -->
<g id="edge70" class="edge">
<title>&#45;8&#45;&gt;375</title>
<path fill="none" stroke="green" stroke-width="0.42" d="M1314.36,-156.76C1311.55,-155.77 1308.57,-154.8 1305.75,-154.02 1222.01,-131.11 1193.56,-152.2 1113.75,-118.02 1111.9,-117.23 1110.05,-116.32 1108.23,-115.33"/>
<polygon fill="green" stroke="green" stroke-width="0.42" points="1109.78,-112.17 1099.44,-109.86 1106.08,-118.11 1109.78,-112.17"/>
</g>
<!-- &#45;8&#45;&gt;376 -->
<g id="edge71" class="edge">
<title>&#45;8&#45;&gt;376</title>
<path fill="none" stroke="green" stroke-width="0.5" d="M1314.3,-156.97C1311.49,-155.96 1308.53,-154.93 1305.75,-154.02 1250.77,-136.14 1232.75,-143.28 1180.75,-118.02 1178.94,-117.15 1177.12,-116.17 1175.33,-115.12"/>
<polygon fill="green" stroke="green" stroke-width="0.5" points="1176.9,-111.97 1166.59,-109.51 1173.11,-117.86 1176.9,-111.97"/>
</g>
<!-- &#45;8&#45;&gt;377 -->
<g id="edge72" class="edge">
<title>&#45;8&#45;&gt;377</title>
<path fill="none" stroke="red" stroke-width="0.41" d="M1314.73,-155.48C1298.66,-147.27 1270.67,-132.5 1247.75,-118.02 1246.09,-116.98 1244.41,-115.88 1242.72,-114.75"/>
<polygon fill="red" stroke="red" stroke-width="0.41" points="1244.59,-111.79 1234.37,-108.99 1240.61,-117.55 1244.59,-111.79"/>
</g>
<!-- 551&#45;&gt;1 -->
<g id="edge210" class="edge">
<title>551&#45;&gt;1</title>
<path fill="none" stroke="green" stroke-width="0.12" d="M44.51,-77.77C50.42,-74.13 57.11,-70.66 63.75,-68.53 192.57,-27.25 624.92,-19 736.36,-17.55"/>
<polygon fill="green" stroke="green" stroke-width="0.12" points="736.45,-21.05 746.41,-17.42 736.36,-14.05 736.45,-21.05"/>
</g>
<!-- 368&#45;&gt;0 -->
<g id="edge73" class="edge">
<title>368&#45;&gt;0</title>
<path fill="none" stroke="green" stroke-width="0.37" d="M1300.36,-76.5C1304.83,-73.41 1309.76,-70.51 1314.75,-68.53 1426.42,-24.1 1469.14,-71.72 1582.75,-32.53 1584,-32.09 1585.26,-31.6 1586.51,-31.06"/>
<polygon fill="green" stroke="green" stroke-width="0.37" points="1588.49,-33.97 1595.75,-26.26 1585.26,-27.76 1588.49,-33.97"/>
</g>
<!-- 368&#45;&gt;1 -->
<g id="edge74" class="edge">
<title>368&#45;&gt;1</title>
<path fill="none" stroke="red" stroke-width="0.22" d="M1263.18,-76.4C1258.71,-73.31 1253.76,-70.44 1248.75,-68.53 1163.33,-35.94 877.3,-21.89 788.96,-18.26"/>
<polygon fill="red" stroke="red" stroke-width="0.22" points="789.1,-14.76 778.97,-17.86 788.82,-21.76 789.1,-14.76"/>
</g>
<!-- 368&#45;&gt;2 -->
<g id="edge75" class="edge">
<title>368&#45;&gt;2</title>
<path fill="none" stroke="red" stroke-width="0.22" d="M1300.33,-76.43C1304.8,-73.33 1309.74,-70.46 1314.75,-68.53 1447.87,-17.19 1498.39,-77.63 1633.75,-32.53 1635.01,-32.11 1636.27,-31.62 1637.52,-31.09"/>
<polygon fill="red" stroke="red" stroke-width="0.22" points="1639.49,-34.01 1646.77,-26.32 1636.28,-27.79 1639.49,-34.01"/>
</g>
<!-- 368&#45;&gt;3 -->
<g id="edge76" class="edge">
<title>368&#45;&gt;3</title>
<path fill="none" stroke="green" stroke-width="0.15" d="M1300.31,-76.37C1304.78,-73.28 1309.73,-70.42 1314.75,-68.53 1469.36,-10.26 1527.6,-83.55 1684.75,-32.53 1686.01,-32.12 1687.27,-31.64 1688.53,-31.11"/>
<polygon fill="green" stroke="green" stroke-width="0.15" points="1690.49,-34.04 1697.78,-26.36 1687.29,-27.82 1690.49,-34.04"/>
</g>
<!-- 368&#45;&gt;4 -->
<g id="edge77" class="edge">
<title>368&#45;&gt;4</title>
<path fill="none" stroke="red" stroke-width="0.51" d="M1262.88,-77.1C1258.42,-73.97 1253.56,-70.91 1248.75,-68.53 1201.16,-44.95 1140.57,-29.73 1106.69,-22.4"/>
<polygon fill="red" stroke="red" stroke-width="0.51" points="1107.19,-18.93 1096.68,-20.3 1105.75,-25.78 1107.19,-18.93"/>
</g>
<!-- 368&#45;&gt;5 -->
<g id="edge78" class="edge">
<title>368&#45;&gt;5</title>
<path fill="none" stroke="red" stroke-width="0.29" d="M1265.53,-74.12C1255.43,-62.81 1242.45,-48.28 1232.14,-36.74"/>
<polygon fill="red" stroke="red" stroke-width="0.29" points="1234.46,-34.07 1225.19,-28.95 1229.24,-38.74 1234.46,-34.07"/>
</g>
<!-- 368&#45;&gt;6 -->
<g id="edge79" class="edge">
<title>368&#45;&gt;6</title>
<path fill="none" stroke="red" stroke-width="0.2" d="M1297.97,-74.12C1308.06,-62.81 1321.05,-48.28 1331.36,-36.74"/>
<polygon fill="red" stroke="red" stroke-width="0.2" points="1334.26,-38.74 1338.31,-28.95 1329.04,-34.07 1334.26,-38.74"/>
</g>
<!-- 368&#45;&gt;7 -->
<g id="edge80" class="edge">
<title>368&#45;&gt;7</title>
<path fill="none" stroke="green" stroke-width="0.17" d="M1300.47,-76.78C1304.94,-73.67 1309.84,-70.69 1314.75,-68.53 1389.05,-35.71 1485.6,-23.43 1531.41,-19.24"/>
<polygon fill="green" stroke="green" stroke-width="0.17" points="1531.74,-22.72 1541.41,-18.37 1531.14,-15.74 1531.74,-22.72"/>
</g>
<!-- 369&#45;&gt;0 -->
<g id="edge81" class="edge">
<title>369&#45;&gt;0</title>
<path fill="none" stroke="green" stroke-width="0.24" d="M1367.42,-76.67C1371.89,-73.56 1376.81,-70.62 1381.75,-68.53 1465.32,-33.14 1497.62,-63.99 1582.75,-32.53 1583.99,-32.07 1585.24,-31.55 1586.49,-30.99"/>
<polygon fill="green" stroke="green" stroke-width="0.24" points="1588.49,-33.89 1595.7,-26.13 1585.22,-27.7 1588.49,-33.89"/>
</g>
<!-- 369&#45;&gt;1 -->
<g id="edge82" class="edge">
<title>369&#45;&gt;1</title>
<path fill="none" stroke="green" stroke-width="0.54" d="M1330.2,-76.35C1325.72,-73.26 1320.77,-70.41 1315.75,-68.53 1266.03,-49.92 892.61,-25.39 789.22,-18.9"/>
<polygon fill="green" stroke="green" stroke-width="0.54" points="789.22,-15.39 779.02,-18.26 788.78,-22.38 789.22,-15.39"/>
</g>
<!-- 369&#45;&gt;2 -->
<g id="edge83" class="edge">
<title>369&#45;&gt;2</title>
<path fill="none" stroke="green" stroke-width="0.14" d="M1367.37,-76.54C1371.84,-73.44 1376.77,-70.53 1381.75,-68.53 1486.7,-26.26 1526.95,-69.87 1633.75,-32.53 1635,-32.09 1636.26,-31.59 1637.51,-31.04"/>
<polygon fill="green" stroke="green" stroke-width="0.14" points="1639.49,-33.96 1646.74,-26.23 1636.25,-27.75 1639.49,-33.96"/>
</g>
<!-- 369&#45;&gt;3 -->
<g id="edge84" class="edge">
<title>369&#45;&gt;3</title>
<path fill="none" stroke="green" stroke-width="0.35" d="M1367.34,-76.45C1371.81,-73.36 1376.75,-70.47 1381.75,-68.53 1508.13,-19.36 1556.21,-75.77 1684.75,-32.53 1686,-32.1 1687.27,-31.62 1688.52,-31.08"/>
<polygon fill="green" stroke="green" stroke-width="0.35" points="1690.49,-34 1697.76,-26.3 1687.27,-27.78 1690.49,-34"/>
</g>
<!-- 369&#45;&gt;4 -->
<g id="edge85" class="edge">
<title>369&#45;&gt;4</title>
<path fill="none" stroke="red" stroke-width="0.6" d="M1330.01,-76.8C1325.55,-73.69 1320.65,-70.71 1315.75,-68.53 1278.28,-51.83 1159.92,-30.57 1106.89,-21.58"/>
<polygon fill="red" stroke="red" stroke-width="0.6" points="1107.35,-18.11 1096.91,-19.91 1106.19,-25.01 1107.35,-18.11"/>
</g>
<!-- 369&#45;&gt;5 -->
<g id="edge86" class="edge">
<title>369&#45;&gt;5</title>
<path fill="none" stroke="green" stroke-width="0.26" d="M1329.19,-77.45C1324.85,-74.37 1320.21,-71.24 1315.75,-68.53 1290.23,-52.99 1259.42,-37.84 1238.6,-28.09"/>
<polygon fill="green" stroke="green" stroke-width="0.26" points="1240.06,-24.91 1229.51,-23.88 1237.12,-31.26 1240.06,-24.91"/>
</g>
<!-- 369&#45;&gt;6 -->
<g id="edge87" class="edge">
<title>369&#45;&gt;6</title>
<path fill="none" stroke="red" stroke-width="0.28" d="M1348.75,-68.13C1348.75,-60.03 1348.75,-50.97 1348.75,-42.77"/>
<polygon fill="red" stroke="red" stroke-width="0.28" points="1352.25,-42.64 1348.75,-32.64 1345.25,-42.64 1352.25,-42.64"/>
</g>
<!-- 369&#45;&gt;7 -->
<g id="edge88" class="edge">
<title>369&#45;&gt;7</title>
<path fill="none" stroke="red" stroke-width="0.41" d="M1367.6,-77.05C1372.06,-73.93 1376.93,-70.88 1381.75,-68.53 1432.04,-44.01 1496.27,-28.99 1531.57,-21.98"/>
<polygon fill="red" stroke="red" stroke-width="0.41" points="1532.39,-25.39 1541.54,-20.07 1531.06,-18.52 1532.39,-25.39"/>
</g>
<!-- 370&#45;&gt;0 -->
<g id="edge89" class="edge">
<title>370&#45;&gt;0</title>
<path fill="none" stroke="red" stroke-width="0.41" d="M1434.56,-76.97C1439.03,-73.85 1443.9,-70.83 1448.75,-68.53 1504.46,-42.09 1525.87,-56.35 1582.75,-32.53 1583.97,-32.02 1585.21,-31.46 1586.44,-30.86"/>
<polygon fill="red" stroke="red" stroke-width="0.41" points="1588.48,-33.74 1595.61,-25.9 1585.15,-27.58 1588.48,-33.74"/>
</g>
<!-- 370&#45;&gt;1 -->
<g id="edge90" class="edge">
<title>370&#45;&gt;1</title>
<path fill="none" stroke="red" stroke-width="0.25" d="M1397.21,-76.32C1392.74,-73.23 1387.78,-70.38 1382.75,-68.53 1326.42,-47.76 900.23,-24.4 789.16,-18.61"/>
<polygon fill="red" stroke="red" stroke-width="0.25" points="789.3,-15.11 779.13,-18.09 788.94,-22.11 789.3,-15.11"/>
</g>
<!-- 370&#45;&gt;2 -->
<g id="edge91" class="edge">
<title>370&#45;&gt;2</title>
<path fill="none" stroke="green" stroke-width="0.24" d="M1434.45,-76.72C1438.92,-73.61 1443.82,-70.66 1448.75,-68.53 1525.64,-35.29 1555.4,-62.15 1633.75,-32.53 1634.99,-32.06 1636.24,-31.53 1637.48,-30.97"/>
<polygon fill="green" stroke="green" stroke-width="0.24" points="1639.49,-33.86 1646.69,-26.09 1636.21,-27.68 1639.49,-33.86"/>
</g>
<!-- 370&#45;&gt;3 -->
<g id="edge92" class="edge">
<title>370&#45;&gt;3</title>
<path fill="none" stroke="green" stroke-width="0.41" d="M1434.38,-76.57C1438.86,-73.47 1443.78,-70.55 1448.75,-68.53 1546.98,-28.43 1584.76,-68.02 1684.75,-32.53 1686,-32.08 1687.25,-31.58 1688.5,-31.03"/>
<polygon fill="green" stroke="green" stroke-width="0.41" points="1690.49,-33.94 1697.73,-26.21 1687.25,-27.74 1690.49,-33.94"/>
</g>
<!-- 370&#45;&gt;4 -->
<g id="edge93" class="edge">
<title>370&#45;&gt;4</title>
<path fill="none" stroke="green" stroke-width="0.26" d="M1397.09,-76.63C1392.62,-73.53 1387.7,-70.6 1382.75,-68.53 1357.37,-57.92 1175.7,-30.96 1106.99,-21.02"/>
<polygon fill="green" stroke="green" stroke-width="0.26" points="1107.37,-17.54 1096.97,-19.58 1106.37,-24.47 1107.37,-17.54"/>
</g>
<!-- 370&#45;&gt;5 -->
<g id="edge94" class="edge">
<title>370&#45;&gt;5</title>
<path fill="none" stroke="red" stroke-width="0.43" d="M1396.88,-77.1C1392.42,-73.97 1387.56,-70.91 1382.75,-68.53 1335.16,-44.95 1274.57,-29.73 1240.69,-22.4"/>
<polygon fill="red" stroke="red" stroke-width="0.43" points="1241.19,-18.93 1230.68,-20.3 1239.75,-25.78 1241.19,-18.93"/>
</g>
<!-- 370&#45;&gt;6 -->
<g id="edge95" class="edge">
<title>370&#45;&gt;6</title>
<path fill="none" stroke="green" stroke-width="0.4" d="M1399.53,-74.12C1389.43,-62.81 1376.45,-48.28 1366.14,-36.74"/>
<polygon fill="green" stroke="green" stroke-width="0.4" points="1368.46,-34.07 1359.19,-28.95 1363.24,-38.74 1368.46,-34.07"/>
</g>
<!-- 370&#45;&gt;7 -->
<g id="edge96" class="edge">
<title>370&#45;&gt;7</title>
<path fill="none" stroke="red" stroke-width="0.42" d="M1435.24,-77.35C1439.59,-74.28 1444.25,-71.18 1448.75,-68.53 1476.73,-52.07 1510.85,-36.72 1533.38,-27.19"/>
<polygon fill="red" stroke="red" stroke-width="0.42" points="1534.97,-30.32 1542.85,-23.24 1532.28,-23.86 1534.97,-30.32"/>
</g>
<!-- 371&#45;&gt;0 -->
<g id="edge97" class="edge">
<title>371&#45;&gt;0</title>
<path fill="none" stroke="red" stroke-width="0.26" d="M1502.35,-77.53C1506.69,-74.45 1511.32,-71.29 1515.75,-68.53 1544.42,-50.62 1553.28,-49.09 1582.75,-32.53 1583.88,-31.89 1585.03,-31.24 1586.2,-30.57"/>
<polygon fill="red" stroke="red" stroke-width="0.26" points="1588.15,-33.49 1595.04,-25.44 1584.64,-27.43 1588.15,-33.49"/>
</g>
<!-- 371&#45;&gt;1 -->
<g id="edge98" class="edge">
<title>371&#45;&gt;1</title>
<path fill="none" stroke="red" stroke-width="0.13" d="M1464.22,-76.29C1459.75,-73.2 1454.79,-70.36 1449.75,-68.53 1418.15,-57.02 911.58,-26.15 789.2,-18.83"/>
<polygon fill="red" stroke="red" stroke-width="0.13" points="789.39,-15.34 779.2,-18.24 788.97,-22.33 789.39,-15.34"/>
</g>
<!-- 371&#45;&gt;2 -->
<g id="edge99" class="edge">
<title>371&#45;&gt;2</title>
<path fill="none" stroke="red" stroke-width="0.21" d="M1501.62,-77.1C1506.08,-73.97 1510.94,-70.91 1515.75,-68.53 1564.88,-44.19 1583.54,-54.56 1633.75,-32.53 1634.96,-31.99 1636.19,-31.42 1637.42,-30.81"/>
<polygon fill="red" stroke="red" stroke-width="0.21" points="1639.48,-33.67 1646.57,-25.81 1636.12,-27.53 1639.48,-33.67"/>
</g>
<!-- 371&#45;&gt;3 -->
<g id="edge100" class="edge">
<title>371&#45;&gt;3</title>
<path fill="none" stroke="red" stroke-width="0.27" d="M1501.48,-76.78C1505.94,-73.67 1510.84,-70.7 1515.75,-68.53 1585.97,-37.43 1613.16,-60.32 1684.75,-32.53 1685.98,-32.05 1687.23,-31.51 1688.47,-30.94"/>
<polygon fill="red" stroke="red" stroke-width="0.27" points="1690.49,-33.83 1697.67,-26.04 1687.2,-27.65 1690.49,-33.83"/>
</g>
<!-- 371&#45;&gt;4 -->
<g id="edge101" class="edge">
<title>371&#45;&gt;4</title>
<path fill="none" stroke="green" stroke-width="0.2" d="M1464.13,-76.52C1459.66,-73.42 1454.73,-70.52 1449.75,-68.53 1341.44,-25.18 1305.29,-48.62 1189.75,-32.53 1161.45,-28.59 1129.02,-24.04 1106.94,-20.94"/>
<polygon fill="green" stroke="green" stroke-width="0.2" points="1107.39,-17.47 1097,-19.55 1106.41,-24.4 1107.39,-17.47"/>
</g>
<!-- 371&#45;&gt;5 -->
<g id="edge102" class="edge">
<title>371&#45;&gt;5</title>
<path fill="none" stroke="green" stroke-width="0.82" d="M1464.01,-76.8C1459.55,-73.69 1454.65,-70.71 1449.75,-68.53 1412.28,-51.83 1293.92,-30.57 1240.89,-21.58"/>
<polygon fill="green" stroke="green" stroke-width="0.82" points="1241.35,-18.11 1230.91,-19.91 1240.19,-25.01 1241.35,-18.11"/>
</g>
<!-- 371&#45;&gt;6 -->
<g id="edge103" class="edge">
<title>371&#45;&gt;6</title>
<path fill="none" stroke="green" stroke-width="0.51" d="M1463.19,-77.45C1458.85,-74.37 1454.21,-71.24 1449.75,-68.53 1424.23,-52.99 1393.42,-37.84 1372.6,-28.09"/>
<polygon fill="green" stroke="green" stroke-width="0.51" points="1374.06,-24.91 1363.51,-23.88 1371.12,-31.26 1374.06,-24.91"/>
</g>
<!-- 371&#45;&gt;7 -->
<g id="edge104" class="edge">
<title>371&#45;&gt;7</title>
<path fill="none" stroke="green" stroke-width="0.17" d="M1499.77,-75.25C1511.54,-63.48 1527.19,-47.83 1539.27,-35.75"/>
<polygon fill="green" stroke="green" stroke-width="0.17" points="1542.01,-37.95 1546.61,-28.4 1537.06,-33 1542.01,-37.95"/>
</g>
<!-- 372&#45;&gt;0 -->
<g id="edge105" class="edge">
<title>372&#45;&gt;0</title>
<path fill="none" stroke="red" stroke-width="0.62" d="M1564.64,-73.35C1573.23,-62.42 1584.04,-48.67 1592.81,-37.53"/>
<polygon fill="red" stroke="red" stroke-width="0.62" points="1595.62,-39.62 1599.05,-29.6 1590.11,-35.29 1595.62,-39.62"/>
</g>
<!-- 372&#45;&gt;1 -->
<g id="edge106" class="edge">
<title>372&#45;&gt;1</title>
<path fill="none" stroke="green" stroke-width="0.25" d="M1531.23,-76.26C1526.75,-73.18 1521.8,-70.35 1516.75,-68.53 1481.82,-55.94 918.95,-25.52 789.26,-18.66"/>
<polygon fill="green" stroke="green" stroke-width="0.25" points="789.21,-15.15 779.04,-18.12 788.84,-22.14 789.21,-15.15"/>
</g>
<!-- 372&#45;&gt;2 -->
<g id="edge107" class="edge">
<title>372&#45;&gt;2</title>
<path fill="none" stroke="red" stroke-width="0.94" d="M1569.56,-77.84C1573.89,-74.74 1578.45,-71.5 1582.75,-68.53 1601.29,-55.69 1622.66,-41.51 1638.18,-31.32"/>
<polygon fill="red" stroke="red" stroke-width="0.94" points="1640.12,-34.23 1646.57,-25.83 1636.29,-28.38 1640.12,-34.23"/>
</g>
<!-- 372&#45;&gt;3 -->
<g id="edge108" class="edge">
<title>372&#45;&gt;3</title>
<path fill="none" stroke="green" stroke-width="0.54" d="M1568.7,-77.25C1573.15,-74.11 1577.99,-71.01 1582.75,-68.53 1625.36,-46.26 1641.15,-52.79 1684.75,-32.53 1685.92,-31.98 1687.11,-31.4 1688.31,-30.79"/>
<polygon fill="green" stroke="green" stroke-width="0.54" points="1690.19,-33.75 1697.25,-25.85 1686.8,-27.62 1690.19,-33.75"/>
</g>
<!-- 372&#45;&gt;4 -->
<g id="edge109" class="edge">
<title>372&#45;&gt;4</title>
<path fill="none" stroke="red" stroke-width="0.19" d="M1531.17,-76.42C1526.7,-73.32 1521.76,-70.45 1516.75,-68.53 1380.26,-16.1 1334.83,-50.67 1189.75,-32.53 1161.4,-28.98 1128.98,-24.37 1106.92,-21.15"/>
<polygon fill="red" stroke="red" stroke-width="0.19" points="1107.38,-17.68 1096.98,-19.69 1106.36,-24.61 1107.38,-17.68"/>
</g>
<!-- 372&#45;&gt;5 -->
<g id="edge110" class="edge">
<title>372&#45;&gt;5</title>
<path fill="none" stroke="red" stroke-width="0.46" d="M1531.09,-76.63C1526.62,-73.53 1521.7,-70.6 1516.75,-68.53 1491.37,-57.92 1309.7,-30.96 1240.99,-21.02"/>
<polygon fill="red" stroke="red" stroke-width="0.46" points="1241.37,-17.54 1230.97,-19.58 1240.37,-24.47 1241.37,-17.54"/>
</g>
<!-- 372&#45;&gt;6 -->
<g id="edge111" class="edge">
<title>372&#45;&gt;6</title>
<path fill="none" stroke="red" stroke-width="0.6" d="M1530.88,-77.1C1526.42,-73.97 1521.56,-70.91 1516.75,-68.53 1469.16,-44.95 1408.57,-29.73 1374.69,-22.4"/>
<polygon fill="red" stroke="red" stroke-width="0.6" points="1375.19,-18.93 1364.68,-20.3 1373.75,-25.78 1375.19,-18.93"/>
</g>
<!-- 372&#45;&gt;7 -->
<g id="edge112" class="edge">
<title>372&#45;&gt;7</title>
<path fill="none" stroke="red" stroke-width="0.59" d="M1552.28,-68.54C1553.16,-60.33 1554.14,-51.1 1555.03,-42.76"/>
<polygon fill="red" stroke="red" stroke-width="0.59" points="1558.51,-43.12 1556.09,-32.81 1551.55,-42.38 1558.51,-43.12"/>
</g>
<!-- 374&#45;&gt;0 -->
<g id="edge113" class="edge">
<title>374&#45;&gt;0</title>
<path fill="none" stroke="green" stroke-width="0.6" d="M1614.22,-68.54C1613.34,-60.33 1612.36,-51.1 1611.47,-42.76"/>
<polygon fill="green" stroke="green" stroke-width="0.6" points="1614.95,-42.38 1610.41,-32.81 1607.99,-43.12 1614.95,-42.38"/>
</g>
<!-- 374&#45;&gt;1 -->
<g id="edge114" class="edge">
<title>374&#45;&gt;1</title>
<path fill="none" stroke="green" stroke-width="0.29" d="M1598.24,-76.24C1593.76,-73.16 1588.8,-70.33 1583.75,-68.53 1564.58,-61.68 927.92,-26.34 789.24,-18.72"/>
<polygon fill="green" stroke="green" stroke-width="0.29" points="789.27,-15.21 779.09,-18.16 788.89,-22.2 789.27,-15.21"/>
</g>
<!-- 374&#45;&gt;2 -->
<g id="edge115" class="edge">
<title>374&#45;&gt;2</title>
<path fill="none" stroke="red" stroke-width="0.32" d="M1628.73,-71.38C1634.38,-61.53 1641.13,-49.75 1646.88,-39.71"/>
<polygon fill="red" stroke="red" stroke-width="0.32" points="1650.09,-41.14 1652.03,-30.73 1644.02,-37.66 1650.09,-41.14"/>
</g>
<!-- 374&#45;&gt;3 -->
<g id="edge116" class="edge">
<title>374&#45;&gt;3</title>
<path fill="none" stroke="red" stroke-width="0.18" stroke-dasharray="1,5" d="M1635.77,-77.1C1651.67,-64.41 1674.28,-46.36 1690.51,-33.41"/>
<polygon fill="red" stroke="red" stroke-width="0.18" points="1692.71,-36.13 1698.35,-27.16 1688.35,-30.66 1692.71,-36.13"/>
</g>
<!-- 374&#45;&gt;4 -->
<g id="edge117" class="edge">
<title>374&#45;&gt;4</title>
<path fill="none" stroke="red" stroke-width="0.33" d="M1598.2,-76.35C1593.72,-73.26 1588.77,-70.4 1583.75,-68.53 1419.02,-7 1364.43,-52.73 1189.75,-32.53 1161.37,-29.24 1128.95,-24.59 1106.9,-21.28"/>
<polygon fill="red" stroke="red" stroke-width="0.33" points="1107.38,-17.82 1096.97,-19.78 1106.33,-24.74 1107.38,-17.82"/>
</g>
<!-- 374&#45;&gt;5 -->
<g id="edge118" class="edge">
<title>374&#45;&gt;5</title>
<path fill="none" stroke="green" stroke-width="0.37" d="M1598.13,-76.52C1593.66,-73.42 1588.73,-70.52 1583.75,-68.53 1475.44,-25.18 1439.29,-48.62 1323.75,-32.53 1295.45,-28.59 1263.02,-24.04 1240.94,-20.94"/>
<polygon fill="green" stroke="green" stroke-width="0.37" points="1241.39,-17.47 1231,-19.55 1240.41,-24.4 1241.39,-17.47"/>
</g>
<!-- 374&#45;&gt;6 -->
<g id="edge119" class="edge">
<title>374&#45;&gt;6</title>
<path fill="none" stroke="red" stroke-width="0.66" d="M1598.01,-76.8C1593.55,-73.69 1588.65,-70.71 1583.75,-68.53 1512.4,-36.72 1419.83,-24.03 1375.16,-19.49"/>
<polygon fill="red" stroke="red" stroke-width="0.66" points="1375.42,-16 1365.13,-18.53 1374.75,-22.97 1375.42,-16"/>
</g>
<!-- 374&#45;&gt;7 -->
<g id="edge120" class="edge">
<title>374&#45;&gt;7</title>
<path fill="none" stroke="red" stroke-width="0.21" d="M1601.86,-73.35C1593.26,-62.42 1582.45,-48.67 1573.69,-37.53"/>
<polygon fill="red" stroke="red" stroke-width="0.21" points="1576.38,-35.29 1567.45,-29.6 1570.88,-39.62 1576.38,-35.29"/>
</g>
<!-- 375&#45;&gt;0 -->
<g id="edge121" class="edge">
<title>375&#45;&gt;0</title>
<path fill="none" stroke="green" stroke-width="0.31" d="M1099.28,-76.29C1103.75,-73.21 1108.71,-70.37 1113.75,-68.53 1310.12,3.2 1383.26,-95.05 1582.75,-32.53 1584.01,-32.13 1585.28,-31.66 1586.54,-31.14"/>
<polygon fill="green" stroke="green" stroke-width="0.31" points="1588.48,-34.08 1595.8,-26.42 1585.3,-27.85 1588.48,-34.08"/>
</g>
<!-- 375&#45;&gt;1 -->
<g id="edge122" class="edge">
<title>375&#45;&gt;1</title>
<path fill="none" stroke="red" stroke-width="0.59" d="M1056.85,-86.64C998.39,-72.85 848.6,-37.51 788.38,-23.31"/>
<polygon fill="red" stroke="red" stroke-width="0.59" points="789.08,-19.88 778.54,-20.99 787.47,-26.69 789.08,-19.88"/>
</g>
<!-- 375&#45;&gt;2 -->
<g id="edge123" class="edge">
<title>375&#45;&gt;2</title>
<path fill="none" stroke="red" stroke-width="0.43" d="M1099.27,-76.27C1103.74,-73.18 1108.7,-70.35 1113.75,-68.53 1331.65,10.14 1412.43,-100.98 1633.75,-32.53 1635.01,-32.14 1636.28,-31.67 1637.54,-31.15"/>
<polygon fill="red" stroke="red" stroke-width="0.43" points="1639.48,-34.09 1646.81,-26.44 1636.31,-27.86 1639.48,-34.09"/>
</g>
<!-- 375&#45;&gt;3 -->
<g id="edge124" class="edge">
<title>375&#45;&gt;3</title>
<path fill="none" stroke="green" stroke-width="0.12" d="M1099.26,-76.24C1103.74,-73.16 1108.7,-70.33 1113.75,-68.53 1353.19,17.08 1441.59,-106.92 1684.75,-32.53 1686.02,-32.14 1687.29,-31.68 1688.55,-31.16"/>
<polygon fill="green" stroke="green" stroke-width="0.12" points="1690.48,-34.11 1697.81,-26.46 1687.31,-27.87 1690.48,-34.11"/>
</g>
<!-- 375&#45;&gt;4 -->
<g id="edge125" class="edge">
<title>375&#45;&gt;4</title>
<path fill="none" stroke="red" stroke-width="0.45" d="M1080.75,-68.13C1080.75,-60.03 1080.75,-50.97 1080.75,-42.77"/>
<polygon fill="red" stroke="red" stroke-width="0.45" points="1084.25,-42.64 1080.75,-32.64 1077.25,-42.64 1084.25,-42.64"/>
</g>
<!-- 375&#45;&gt;5 -->
<g id="edge126" class="edge">
<title>375&#45;&gt;5</title>
<path fill="none" stroke="green" stroke-width="0.16" stroke-dasharray="1,5" d="M1100.31,-77.45C1104.65,-74.37 1109.29,-71.24 1113.75,-68.53 1139.27,-52.99 1170.07,-37.84 1190.9,-28.09"/>
<polygon fill="green" stroke="green" stroke-width="0.16" points="1192.38,-31.26 1199.98,-23.88 1189.44,-24.91 1192.38,-31.26"/>
</g>
<!-- 375&#45;&gt;6 -->
<g id="edge127" class="edge">
<title>375&#45;&gt;6</title>
<path fill="none" stroke="green" stroke-width="0.66" d="M1099.48,-76.8C1103.95,-73.69 1108.85,-70.71 1113.75,-68.53 1151.22,-51.83 1269.58,-30.57 1322.61,-21.58"/>
<polygon fill="green" stroke="green" stroke-width="0.66" points="1323.31,-25.01 1332.59,-19.91 1322.15,-18.11 1323.31,-25.01"/>
</g>
<!-- 375&#45;&gt;7 -->
<g id="edge128" class="edge">
<title>375&#45;&gt;7</title>
<path fill="none" stroke="green" stroke-width="0.54" d="M1099.33,-76.44C1103.81,-73.34 1108.75,-70.46 1113.75,-68.53 1152.82,-53.4 1442.03,-27.31 1531.47,-19.52"/>
<polygon fill="green" stroke="green" stroke-width="0.54" points="1531.92,-22.99 1541.58,-18.64 1531.32,-16.02 1531.92,-22.99"/>
</g>
<!-- 376&#45;&gt;0 -->
<g id="edge129" class="edge">
<title>376&#45;&gt;0</title>
<path fill="none" stroke="red" stroke-width="0.14" d="M1166.29,-76.34C1170.77,-73.25 1175.72,-70.4 1180.75,-68.53 1348.85,-5.91 1411.92,-87.26 1582.75,-32.53 1584.01,-32.12 1585.28,-31.65 1586.53,-31.12"/>
<polygon fill="red" stroke="red" stroke-width="0.14" points="1588.49,-34.06 1595.79,-26.38 1585.29,-27.83 1588.49,-34.06"/>
</g>
<!-- 376&#45;&gt;1 -->
<g id="edge130" class="edge">
<title>376&#45;&gt;1</title>
<path fill="none" stroke="red" stroke-width="0.51" d="M1129.12,-76.55C1124.65,-73.45 1119.72,-70.54 1114.75,-68.53 1000.21,-22.22 849.73,-16.98 789.43,-16.9"/>
<polygon fill="red" stroke="red" stroke-width="0.51" points="789.23,-13.4 779.25,-16.94 789.26,-20.4 789.23,-13.4"/>
</g>
<!-- 376&#45;&gt;2 -->
<g id="edge131" class="edge">
<title>376&#45;&gt;2</title>
<path fill="none" stroke="green" stroke-width="0.11" d="M1166.28,-76.3C1170.76,-73.22 1175.71,-70.37 1180.75,-68.53 1370.36,1.02 1441.11,-93.19 1633.75,-32.53 1635.01,-32.13 1636.28,-31.66 1637.54,-31.14"/>
<polygon fill="green" stroke="green" stroke-width="0.11" points="1639.49,-34.08 1646.8,-26.41 1636.3,-27.84 1639.49,-34.08"/>
</g>
<!-- 376&#45;&gt;3 -->
<g id="edge132" class="edge">
<title>376&#45;&gt;3</title>
<path fill="none" stroke="green" stroke-width="0.61" stroke-dasharray="1,5" d="M1166.27,-76.27C1170.75,-73.19 1175.71,-70.35 1180.75,-68.53 1391.89,7.96 1470.28,-99.12 1684.75,-32.53 1686.01,-32.13 1687.28,-31.67 1688.54,-31.15"/>
<polygon fill="green" stroke="green" stroke-width="0.61" points="1690.48,-34.09 1697.8,-26.43 1687.31,-27.85 1690.48,-34.09"/>
</g>
<!-- 376&#45;&gt;4 -->
<g id="edge133" class="edge">
<title>376&#45;&gt;4</title>
<path fill="none" stroke="red" stroke-width="0.2" d="M1131.53,-74.12C1121.43,-62.81 1108.45,-48.28 1098.14,-36.74"/>
<polygon fill="red" stroke="red" stroke-width="0.2" points="1100.46,-34.07 1091.19,-28.95 1095.24,-38.74 1100.46,-34.07"/>
</g>
<!-- 376&#45;&gt;5 -->
<g id="edge134" class="edge">
<title>376&#45;&gt;5</title>
<path fill="none" stroke="green" stroke-width="0.26" d="M1163.97,-74.12C1174.06,-62.81 1187.05,-48.28 1197.36,-36.74"/>
<polygon fill="green" stroke="green" stroke-width="0.26" points="1200.26,-38.74 1204.31,-28.95 1195.04,-34.07 1200.26,-38.74"/>
</g>
<!-- 376&#45;&gt;6 -->
<g id="edge135" class="edge">
<title>376&#45;&gt;6</title>
<path fill="none" stroke="red" stroke-width="0.82" d="M1166.62,-77.1C1171.08,-73.97 1175.94,-70.91 1180.75,-68.53 1228.34,-44.95 1288.93,-29.73 1322.8,-22.4"/>
<polygon fill="red" stroke="red" stroke-width="0.82" points="1323.75,-25.78 1332.81,-20.3 1322.31,-18.93 1323.75,-25.78"/>
</g>
<!-- 376&#45;&gt;7 -->
<g id="edge136" class="edge">
<title>376&#45;&gt;7</title>
<path fill="none" stroke="red" stroke-width="0.23" d="M1166.36,-76.51C1170.83,-73.41 1175.77,-70.51 1180.75,-68.53 1244.94,-42.93 1456.09,-24.93 1531.05,-19.21"/>
<polygon fill="red" stroke="red" stroke-width="0.23" points="1531.77,-22.66 1541.48,-18.42 1531.25,-15.68 1531.77,-22.66"/>
</g>
<!-- 377&#45;&gt;0 -->
<g id="edge137" class="edge">
<title>377&#45;&gt;0</title>
<path fill="none" stroke="green" stroke-width="0.55" d="M1233.32,-76.41C1237.79,-73.32 1242.74,-70.44 1247.75,-68.53 1387.61,-15.02 1440.56,-79.48 1582.75,-32.53 1584.01,-32.11 1585.27,-31.63 1586.53,-31.1"/>
<polygon fill="green" stroke="green" stroke-width="0.55" points="1588.49,-34.02 1595.77,-26.33 1585.28,-27.8 1588.49,-34.02"/>
</g>
<!-- 377&#45;&gt;1 -->
<g id="edge138" class="edge">
<title>377&#45;&gt;1</title>
<path fill="none" stroke="red" stroke-width="0.3" d="M1196.16,-76.46C1191.68,-73.37 1186.74,-70.48 1181.75,-68.53 1109.39,-40.23 869.47,-23.64 789.18,-18.78"/>
<polygon fill="red" stroke="red" stroke-width="0.3" points="789.14,-15.27 778.95,-18.17 788.72,-22.26 789.14,-15.27"/>
</g>
<!-- 377&#45;&gt;2 -->
<g id="edge139" class="edge">
<title>377&#45;&gt;2</title>
<path fill="none" stroke="green" stroke-width="0.84" d="M1233.3,-76.35C1237.78,-73.27 1242.73,-70.41 1247.75,-68.53 1409.1,-8.09 1469.76,-85.4 1633.75,-32.53 1635.01,-32.12 1636.28,-31.64 1637.53,-31.12"/>
<polygon fill="green" stroke="green" stroke-width="0.84" points="1639.49,-34.05 1646.79,-26.37 1636.29,-27.82 1639.49,-34.05"/>
</g>
<!-- 377&#45;&gt;3 -->
<g id="edge140" class="edge">
<title>377&#45;&gt;3</title>
<path fill="none" stroke="green" stroke-width="0.21" d="M1233.28,-76.31C1237.76,-73.23 1242.72,-70.38 1247.75,-68.53 1430.61,-1.15 1498.95,-91.33 1684.75,-32.53 1686.01,-32.13 1687.28,-31.66 1688.54,-31.13"/>
<polygon fill="green" stroke="green" stroke-width="0.21" points="1690.49,-34.07 1697.8,-26.4 1687.3,-27.84 1690.49,-34.07"/>
</g>
<!-- 377&#45;&gt;4 -->
<g id="edge141" class="edge">
<title>377&#45;&gt;4</title>
<path fill="none" stroke="green" stroke-width="0.82" d="M1195.19,-77.45C1190.85,-74.37 1186.21,-71.24 1181.75,-68.53 1156.23,-52.99 1125.42,-37.84 1104.6,-28.09"/>
<polygon fill="green" stroke="green" stroke-width="0.82" points="1106.06,-24.91 1095.51,-23.88 1103.12,-31.26 1106.06,-24.91"/>
</g>
<!-- 377&#45;&gt;5 -->
<g id="edge142" class="edge">
<title>377&#45;&gt;5</title>
<path fill="none" stroke="green" stroke-width="0.27" d="M1214.75,-68.13C1214.75,-60.03 1214.75,-50.97 1214.75,-42.77"/>
<polygon fill="green" stroke="green" stroke-width="0.27" points="1218.25,-42.64 1214.75,-32.64 1211.25,-42.64 1218.25,-42.64"/>
</g>
<!-- 377&#45;&gt;6 -->
<g id="edge143" class="edge">
<title>377&#45;&gt;6</title>
<path fill="none" stroke="red" stroke-width="0.23" d="M1234.31,-77.45C1238.65,-74.37 1243.29,-71.24 1247.75,-68.53 1273.27,-52.99 1304.07,-37.84 1324.9,-28.09"/>
<polygon fill="red" stroke="red" stroke-width="0.23" points="1326.38,-31.26 1333.98,-23.88 1323.44,-24.91 1326.38,-31.26"/>
</g>
<!-- 377&#45;&gt;7 -->
<g id="edge144" class="edge">
<title>377&#45;&gt;7</title>
<path fill="none" stroke="red" stroke-width="0.15" d="M1233.4,-76.62C1237.87,-73.51 1242.79,-70.59 1247.75,-68.53 1346.48,-27.5 1475.74,-19.25 1530.91,-17.63"/>
<polygon fill="red" stroke="red" stroke-width="0.15" points="1531.31,-21.12 1541.23,-17.38 1531.15,-14.12 1531.31,-21.12"/>
</g>
</g>
</svg>
