<?xml version="1.0" encoding="UTF-8" standalone="no"?>
<!DOCTYPE svg PUBLIC "-//W3C//DTD SVG 1.1//EN"
 "http://www.w3.org/Graphics/SVG/1.1/DTD/svg11.dtd">
<!-- Generated by graphviz version 2.44.0 (0)
 -->
<!-- Pages: 1 -->
<svg width="2553pt" height="266pt"
 viewBox="0.00 0.00 2552.53 265.52" xmlns="http://www.w3.org/2000/svg" xmlns:xlink="http://www.w3.org/1999/xlink">
<g id="graph0" class="graph" transform="scale(1 1) rotate(0) translate(4 261.52)">
<polygon fill="white" stroke="transparent" points="-4,4 -4,-261.52 2548.53,-261.52 2548.53,4 -4,4"/>
<!-- &#45;1 -->
<g id="node1" class="node">
<title>&#45;1</title>
<polygon fill="lightgray" stroke="black" points="1242.45,-257.52 1216.45,-257.52 1216.45,-239.52 1242.45,-239.52 1242.45,-257.52"/>
<text text-anchor="middle" x="1229.45" y="-246.32" font-family="Times-Roman" font-size="9.00">&#45;1</text>
</g>
<!-- 0 -->
<g id="node5" class="node">
<title>0</title>
<ellipse fill="lightblue" stroke="black" cx="930.45" cy="-16.26" rx="16.03" ry="16.03"/>
<text text-anchor="middle" x="930.45" y="-14.06" font-family="Times-Roman" font-size="9.00">0</text>
</g>
<!-- &#45;1&#45;&gt;0 -->
<g id="edge121" class="edge">
<title>&#45;1&#45;&gt;0</title>
<path fill="none" stroke="green" stroke-width="0.21" d="M1216.29,-245.57C1203.18,-243.7 1182.47,-240.96 1164.45,-239.52 1057.27,-230.95 292.98,-252.85 197.45,-203.52 172.81,-190.8 178.02,-174.62 159.45,-154.02 143.87,-136.74 130.64,-139.4 121.45,-118.02 112.76,-97.82 106.39,-84.57 121.45,-68.53 148.85,-39.33 767,-21.53 903.8,-17.94"/>
<polygon fill="green" stroke="green" stroke-width="0.21" points="904.27,-21.43 914.18,-17.67 904.09,-14.43 904.27,-21.43"/>
</g>
<!-- 1 -->
<g id="node6" class="node">
<title>1</title>
<ellipse fill="lightblue" stroke="black" cx="982.45" cy="-16.26" rx="16.03" ry="16.03"/>
<text text-anchor="middle" x="982.45" y="-14.06" font-family="Times-Roman" font-size="9.00">1</text>
</g>
<!-- &#45;1&#45;&gt;1 -->
<g id="edge122" class="edge">
<title>&#45;1&#45;&gt;1</title>
<path fill="none" stroke="red" stroke-width="0.38" d="M1216.28,-245.59C1203.18,-243.75 1182.46,-241.03 1164.45,-239.52 1119.28,-235.75 380.78,-236.27 349.45,-203.52 307.97,-160.17 308.3,-112.19 349.45,-68.53 395.71,-19.44 890.75,-51.62 955.45,-32.53 957.12,-32.03 958.8,-31.42 960.45,-30.73"/>
<polygon fill="red" stroke="red" stroke-width="0.38" points="962.18,-33.78 969.53,-26.14 959.03,-27.53 962.18,-33.78"/>
</g>
<!-- 2 -->
<g id="node7" class="node">
<title>2</title>
<ellipse fill="lightblue" stroke="black" cx="1034.45" cy="-16.26" rx="16.03" ry="16.03"/>
<text text-anchor="middle" x="1034.45" y="-14.06" font-family="Times-Roman" font-size="9.00">2</text>
</g>
<!-- &#45;1&#45;&gt;2 -->
<g id="edge123" class="edge">
<title>&#45;1&#45;&gt;2</title>
<path fill="none" stroke="red" stroke-width="0.32" d="M1216.26,-245.85C1203.13,-244.19 1182.41,-241.62 1164.45,-239.52 1091.84,-231.06 902.92,-236.04 837.45,-203.52 790.57,-180.24 775.83,-166.65 756.45,-118.02 748.31,-97.59 742.04,-85.15 756.45,-68.53 793.36,-25.95 954.11,-50.71 1007.45,-32.53 1008.91,-32.03 1010.39,-31.45 1011.86,-30.81"/>
<polygon fill="red" stroke="red" stroke-width="0.32" points="1013.86,-33.72 1021.18,-26.06 1010.68,-27.49 1013.86,-33.72"/>
</g>
<!-- 3 -->
<g id="node8" class="node">
<title>3</title>
<ellipse fill="lightblue" stroke="black" cx="1520.45" cy="-16.26" rx="16.03" ry="16.03"/>
<text text-anchor="middle" x="1520.45" y="-14.06" font-family="Times-Roman" font-size="9.00">3</text>
</g>
<!-- &#45;1&#45;&gt;3 -->
<g id="edge124" class="edge">
<title>&#45;1&#45;&gt;3</title>
<path fill="none" stroke="green" stroke-width="0.28" d="M1242.69,-247.24C1332.77,-245.23 1853.76,-232.43 1917.45,-203.52 1966.24,-181.38 1982.02,-167.56 2002.45,-118.02 2010.84,-97.69 2017.16,-84.88 2002.45,-68.53 1971.77,-34.41 1643.53,-21.22 1547,-18.06"/>
<polygon fill="green" stroke="green" stroke-width="0.28" points="1547.01,-14.56 1536.91,-17.74 1546.79,-21.55 1547.01,-14.56"/>
</g>
<!-- 4 -->
<g id="node9" class="node">
<title>4</title>
<ellipse fill="lightblue" stroke="black" cx="1461.45" cy="-16.26" rx="16.03" ry="16.03"/>
<text text-anchor="middle" x="1461.45" y="-14.06" font-family="Times-Roman" font-size="9.00">4</text>
</g>
<!-- &#45;1&#45;&gt;4 -->
<g id="edge125" class="edge">
<title>&#45;1&#45;&gt;4</title>
<path fill="none" stroke="red" stroke-width="0.17" d="M1242.65,-247.46C1321.51,-246.95 1731.05,-242.46 1849.45,-203.52 1916.92,-181.34 1950.21,-180.24 1984.45,-118.02 1995.06,-98.75 1999.42,-84.64 1984.45,-68.53 1947.37,-28.61 1548.27,-45.89 1495.45,-32.53 1491.96,-31.64 1488.37,-30.42 1484.91,-29.05"/>
<polygon fill="red" stroke="red" stroke-width="0.17" points="1486.17,-25.78 1475.61,-24.95 1483.35,-32.19 1486.17,-25.78"/>
</g>
<!-- 5 -->
<g id="node10" class="node">
<title>5</title>
<ellipse fill="lightblue" stroke="black" cx="1352.45" cy="-16.26" rx="16.03" ry="16.03"/>
<text text-anchor="middle" x="1352.45" y="-14.06" font-family="Times-Roman" font-size="9.00">5</text>
</g>
<!-- &#45;1&#45;&gt;5 -->
<g id="edge126" class="edge">
<title>&#45;1&#45;&gt;5</title>
<path fill="none" stroke="red" stroke-width="0.15" d="M1242.49,-247.06C1282.76,-245.28 1408.26,-237.23 1505.45,-203.52 1579.05,-178 1619.03,-185.21 1658.45,-118.02 1669.58,-99.05 1672.96,-85.06 1658.45,-68.53 1617.8,-22.2 1442.44,-50.38 1383.45,-32.53 1380.8,-31.72 1378.09,-30.71 1375.44,-29.6"/>
<polygon fill="red" stroke="red" stroke-width="0.15" points="1376.79,-26.36 1366.25,-25.26 1373.8,-32.69 1376.79,-26.36"/>
</g>
<!-- 6 -->
<g id="node11" class="node">
<title>6</title>
<ellipse fill="lightblue" stroke="black" cx="1112.45" cy="-16.26" rx="16.03" ry="16.03"/>
<text text-anchor="middle" x="1112.45" y="-14.06" font-family="Times-Roman" font-size="9.00">6</text>
</g>
<!-- &#45;1&#45;&gt;6 -->
<g id="edge127" class="edge">
<title>&#45;1&#45;&gt;6</title>
<path fill="none" stroke="red" stroke-width="0.23" d="M1216.43,-245.89C1155.01,-238.15 897.04,-205.59 893.45,-203.52 851.83,-179.59 842.95,-163.46 827.45,-118.02 820.35,-97.2 813.14,-85.23 827.45,-68.53 861.39,-28.91 1008.5,-43.77 1059.45,-32.53 1068.72,-30.48 1078.77,-27.73 1087.59,-25.12"/>
<polygon fill="red" stroke="red" stroke-width="0.23" points="1088.72,-28.44 1097.27,-22.19 1086.69,-21.74 1088.72,-28.44"/>
</g>
<!-- 7 -->
<g id="node12" class="node">
<title>7</title>
<ellipse fill="lightblue" stroke="black" cx="1408.45" cy="-16.26" rx="16.03" ry="16.03"/>
<text text-anchor="middle" x="1408.45" y="-14.06" font-family="Times-Roman" font-size="9.00">7</text>
</g>
<!-- &#45;1&#45;&gt;7 -->
<g id="edge128" class="edge">
<title>&#45;1&#45;&gt;7</title>
<path fill="none" stroke="red" stroke-width="0.2" d="M1242.72,-247.44C1334.19,-246.57 1870.46,-236.43 1965.45,-118.02 1979.22,-100.87 1980.47,-84.6 1965.45,-68.53 1925.23,-25.48 1493.01,-49.01 1436.45,-32.53 1434.54,-31.97 1432.61,-31.27 1430.7,-30.47"/>
<polygon fill="red" stroke="red" stroke-width="0.2" points="1432.12,-27.27 1421.61,-25.96 1429.01,-33.54 1432.12,-27.27"/>
</g>
<!-- 138 -->
<g id="node13" class="node">
<title>138</title>
<ellipse fill="white" stroke="black" cx="928.45" cy="-93.28" rx="25" ry="25"/>
<text text-anchor="middle" x="928.45" y="-91.08" font-family="Times-Roman" font-size="9.00">138</text>
</g>
<!-- &#45;1&#45;&gt;138 -->
<g id="edge1" class="edge">
<title>&#45;1&#45;&gt;138</title>
<path fill="none" stroke="green" stroke-width="0.29" d="M1216.4,-245.62C1170.56,-238.85 1018.71,-215.72 1000.45,-203.52 972.44,-184.81 952.72,-151.11 941.08,-126.07"/>
<polygon fill="green" stroke="green" stroke-width="0.29" points="944.14,-124.33 936.87,-116.61 937.74,-127.17 944.14,-124.33"/>
</g>
<!-- 139 -->
<g id="node14" class="node">
<title>139</title>
<ellipse fill="white" stroke="black" cx="861.45" cy="-93.28" rx="25" ry="25"/>
<text text-anchor="middle" x="861.45" y="-91.08" font-family="Times-Roman" font-size="9.00">139</text>
</g>
<!-- &#45;1&#45;&gt;139 -->
<g id="edge2" class="edge">
<title>&#45;1&#45;&gt;139</title>
<path fill="none" stroke="green" stroke-width="0.1" d="M1216.3,-245.71C1162.73,-238.27 963.19,-210.24 951.45,-203.52 918.96,-184.95 893.27,-149.81 877.8,-124.39"/>
<polygon fill="green" stroke="green" stroke-width="0.1" points="880.66,-122.35 872.56,-115.51 874.63,-125.9 880.66,-122.35"/>
</g>
<!-- 140 -->
<g id="node15" class="node">
<title>140</title>
<ellipse fill="white" stroke="black" cx="1351.45" cy="-93.28" rx="25" ry="25"/>
<text text-anchor="middle" x="1351.45" y="-91.08" font-family="Times-Roman" font-size="9.00">140</text>
</g>
<!-- &#45;1&#45;&gt;140 -->
<g id="edge3" class="edge">
<title>&#45;1&#45;&gt;140</title>
<path fill="none" stroke="red" stroke-width="0.17" d="M1242.84,-247.58C1269.88,-246.89 1330.69,-241.01 1357.45,-203.52 1373.21,-181.43 1369.51,-149.98 1363.17,-126.49"/>
<polygon fill="red" stroke="red" stroke-width="0.17" points="1366.44,-125.22 1360.23,-116.64 1359.73,-127.22 1366.44,-125.22"/>
</g>
<!-- 141 -->
<g id="node16" class="node">
<title>141</title>
<ellipse fill="white" stroke="black" cx="1245.45" cy="-93.28" rx="25" ry="25"/>
<text text-anchor="middle" x="1245.45" y="-91.08" font-family="Times-Roman" font-size="9.00">141</text>
</g>
<!-- &#45;1&#45;&gt;141 -->
<g id="edge4" class="edge">
<title>&#45;1&#45;&gt;141</title>
<path fill="none" stroke="red" stroke-width="0.16" d="M1242.54,-240.84C1255.17,-233.58 1273.49,-220.69 1281.45,-203.52 1293.91,-176.65 1279.85,-144.25 1265.82,-121.74"/>
<polygon fill="red" stroke="red" stroke-width="0.16" points="1268.71,-119.77 1260.29,-113.34 1262.86,-123.62 1268.71,-119.77"/>
</g>
<!-- 142 -->
<g id="node17" class="node">
<title>142</title>
<ellipse fill="white" stroke="black" cx="995.45" cy="-93.28" rx="25" ry="25"/>
<text text-anchor="middle" x="995.45" y="-91.08" font-family="Times-Roman" font-size="9.00">142</text>
</g>
<!-- &#45;1&#45;&gt;142 -->
<g id="edge5" class="edge">
<title>&#45;1&#45;&gt;142</title>
<path fill="none" stroke="red" stroke-width="0.13" d="M1216.19,-245.31C1174.39,-238.24 1047.34,-215.91 1033.45,-203.52 1011.95,-184.34 1002.61,-152.34 998.56,-127.91"/>
<polygon fill="red" stroke="red" stroke-width="0.13" points="1002.01,-127.37 997.12,-117.97 995.09,-128.37 1002.01,-127.37"/>
</g>
<!-- 143 -->
<g id="node18" class="node">
<title>143</title>
<ellipse fill="white" stroke="black" cx="1100.45" cy="-178.77" rx="25" ry="25"/>
<text text-anchor="middle" x="1100.45" y="-176.57" font-family="Times-Roman" font-size="9.00">143</text>
</g>
<!-- &#45;1&#45;&gt;143 -->
<g id="edge6" class="edge">
<title>&#45;1&#45;&gt;143</title>
<path fill="none" stroke="red" stroke-width="0.4" d="M1216.44,-241.62C1198.77,-233.51 1166.3,-218.22 1139.45,-203.52 1136.37,-201.83 1133.18,-200.02 1130.02,-198.17"/>
<polygon fill="red" stroke="red" stroke-width="0.4" points="1131.67,-195.08 1121.29,-192.95 1128.08,-201.09 1131.67,-195.08"/>
</g>
<!-- 144 -->
<g id="node19" class="node">
<title>144</title>
<ellipse fill="white" stroke="black" cx="1457.45" cy="-93.28" rx="25" ry="25"/>
<text text-anchor="middle" x="1457.45" y="-91.08" font-family="Times-Roman" font-size="9.00">144</text>
</g>
<!-- &#45;1&#45;&gt;144 -->
<g id="edge7" class="edge">
<title>&#45;1&#45;&gt;144</title>
<path fill="none" stroke="red" stroke-width="0.37" d="M1242.85,-246.35C1270.25,-243.37 1333.71,-233.51 1376.45,-203.52 1405.24,-183.32 1427.95,-149.64 1441.91,-125"/>
<polygon fill="red" stroke="red" stroke-width="0.37" points="1445.08,-126.5 1446.83,-116.05 1438.95,-123.13 1445.08,-126.5"/>
</g>
<!-- 145 -->
<g id="node20" class="node">
<title>145</title>
<ellipse fill="white" stroke="black" cx="1139.45" cy="-93.28" rx="25" ry="25"/>
<text text-anchor="middle" x="1139.45" y="-91.08" font-family="Times-Roman" font-size="9.00">145</text>
</g>
<!-- &#45;1&#45;&gt;145 -->
<g id="edge8" class="edge">
<title>&#45;1&#45;&gt;145</title>
<path fill="none" stroke="green" stroke-width="0.45" d="M1216.17,-239.28C1204.48,-231.41 1187.76,-218.54 1177.45,-203.52 1161.68,-180.55 1151.84,-150.39 1146.14,-127.58"/>
<polygon fill="green" stroke="green" stroke-width="0.45" points="1149.5,-126.6 1143.8,-117.67 1142.69,-128.2 1149.5,-126.6"/>
</g>
<!-- 146 -->
<g id="node21" class="node">
<title>146</title>
<ellipse fill="white" stroke="black" cx="1591.45" cy="-93.28" rx="25" ry="25"/>
<text text-anchor="middle" x="1591.45" y="-91.08" font-family="Times-Roman" font-size="9.00">146</text>
</g>
<!-- &#45;1&#45;&gt;146 -->
<g id="edge9" class="edge">
<title>&#45;1&#45;&gt;146</title>
<path fill="none" stroke="red" stroke-width="0.2" d="M1242.67,-247.17C1278.7,-245.76 1380.94,-238.69 1456.45,-203.52 1500.54,-182.99 1542.67,-144.95 1567.8,-119.63"/>
<polygon fill="red" stroke="red" stroke-width="0.2" points="1570.56,-121.81 1575.04,-112.21 1565.55,-116.92 1570.56,-121.81"/>
</g>
<!-- 147 -->
<g id="node22" class="node">
<title>147</title>
<ellipse fill="white" stroke="black" cx="1524.45" cy="-93.28" rx="25" ry="25"/>
<text text-anchor="middle" x="1524.45" y="-91.08" font-family="Times-Roman" font-size="9.00">147</text>
</g>
<!-- &#45;1&#45;&gt;147 -->
<g id="edge10" class="edge">
<title>&#45;1&#45;&gt;147</title>
<path fill="none" stroke="red" stroke-width="0.28" d="M1242.73,-246.73C1274.13,-244.38 1354.67,-235.42 1412.45,-203.52 1449.62,-183 1483.16,-146.8 1503.64,-121.73"/>
<polygon fill="red" stroke="red" stroke-width="0.28" points="1506.56,-123.68 1510.07,-113.69 1501.09,-119.31 1506.56,-123.68"/>
</g>
<!-- &#45;2 -->
<g id="node2" class="node">
<title>&#45;2</title>
<polygon fill="lightgray" stroke="black" points="1660.45,-257.52 1634.45,-257.52 1634.45,-239.52 1660.45,-239.52 1660.45,-257.52"/>
<text text-anchor="middle" x="1647.45" y="-246.32" font-family="Times-Roman" font-size="9.00">&#45;2</text>
</g>
<!-- &#45;2&#45;&gt;0 -->
<g id="edge129" class="edge">
<title>&#45;2&#45;&gt;0</title>
<path fill="none" stroke="red" stroke-width="0.22" d="M1634.13,-247.35C1527.78,-245.89 819.44,-235.02 788.45,-203.52 746.36,-160.75 750.8,-117.53 785.45,-68.53 812.3,-30.56 869.72,-20.53 903.69,-17.99"/>
<polygon fill="red" stroke="red" stroke-width="0.22" points="904.05,-21.48 913.83,-17.4 903.65,-14.49 904.05,-21.48"/>
</g>
<!-- &#45;2&#45;&gt;1 -->
<g id="edge130" class="edge">
<title>&#45;2&#45;&gt;1</title>
<path fill="none" stroke="red" stroke-width="0.44" d="M1634.14,-247.27C1530.83,-245.27 860.07,-231.24 828.45,-203.52 783.02,-163.7 775.31,-116.18 812.45,-68.53 852.74,-16.84 894.6,-56.87 955.45,-32.53 956.89,-31.95 958.34,-31.31 959.79,-30.63"/>
<polygon fill="red" stroke="red" stroke-width="0.44" points="961.84,-33.51 969.07,-25.76 958.59,-27.31 961.84,-33.51"/>
</g>
<!-- &#45;2&#45;&gt;2 -->
<g id="edge131" class="edge">
<title>&#45;2&#45;&gt;2</title>
<path fill="none" stroke="green" stroke-width="0.73" d="M1634.21,-247.38C1539.43,-246.29 965.64,-238.3 897.45,-203.52 837.24,-172.81 784.6,-120.79 827.45,-68.53 879.17,-5.43 930.98,-60.96 1007.45,-32.53 1008.9,-31.99 1010.37,-31.38 1011.82,-30.72"/>
<polygon fill="green" stroke="green" stroke-width="0.73" points="1013.85,-33.61 1021.12,-25.9 1010.63,-27.39 1013.85,-33.61"/>
</g>
<!-- &#45;2&#45;&gt;3 -->
<g id="edge132" class="edge">
<title>&#45;2&#45;&gt;3</title>
<path fill="none" stroke="red" stroke-width="0.21" d="M1660.53,-247.38C1768.14,-246.17 2503.89,-236.68 2535.45,-203.52 2550.62,-187.59 2543.27,-174.59 2535.45,-154.02 2517.38,-106.5 2505.24,-90.61 2459.45,-68.53 2375.34,-27.96 1691.57,-18.96 1547.17,-17.5"/>
<polygon fill="red" stroke="red" stroke-width="0.21" points="1547.03,-14 1537,-17.4 1546.97,-21 1547.03,-14"/>
</g>
<!-- &#45;2&#45;&gt;4 -->
<g id="edge133" class="edge">
<title>&#45;2&#45;&gt;4</title>
<path fill="none" stroke="red" stroke-width="0.18" d="M1660.63,-247.35C1765.95,-245.92 2467.34,-235.23 2497.45,-203.52 2512.6,-187.57 2507.29,-173.7 2497.45,-154.02 2493.91,-146.94 2390.91,-71.18 2383.45,-68.53 2197.39,-2.29 1687.69,-77.79 1495.45,-32.53 1491.88,-31.69 1488.22,-30.47 1484.69,-29.08"/>
<polygon fill="red" stroke="red" stroke-width="0.18" points="1485.81,-25.75 1475.25,-24.9 1482.98,-32.15 1485.81,-25.75"/>
</g>
<!-- &#45;2&#45;&gt;5 -->
<g id="edge134" class="edge">
<title>&#45;2&#45;&gt;5</title>
<path fill="none" stroke="green" stroke-width="0.37" d="M1660.5,-247.69C1749.22,-248.72 2261.6,-252.53 2307.45,-203.52 2322.48,-187.46 2322.13,-170.41 2307.45,-154.02 2258.67,-99.58 2052.69,-129.25 1980.45,-118.02 1870.25,-100.91 1844.72,-85.24 1734.45,-68.53 1579.4,-45.03 1534.17,-75.84 1383.45,-32.53 1380.78,-31.76 1378.07,-30.77 1375.41,-29.67"/>
<polygon fill="green" stroke="green" stroke-width="0.37" points="1376.76,-26.44 1366.22,-25.35 1373.79,-32.77 1376.76,-26.44"/>
</g>
<!-- &#45;2&#45;&gt;6 -->
<g id="edge135" class="edge">
<title>&#45;2&#45;&gt;6</title>
<path fill="none" stroke="red" stroke-width="0.2" d="M1660.66,-247.54C1742.09,-247.51 2173.74,-245.36 2212.45,-203.52 2227.39,-187.37 2227.41,-170.15 2212.45,-154.02 2176.23,-114.97 1786.05,-131.24 1734.45,-118.02 1682.91,-104.82 1676.83,-82.36 1625.45,-68.53 1578.17,-55.8 1236.97,-27.38 1138.81,-19.39"/>
<polygon fill="red" stroke="red" stroke-width="0.2" points="1139.07,-15.9 1128.82,-18.58 1138.5,-22.88 1139.07,-15.9"/>
</g>
<!-- &#45;2&#45;&gt;7 -->
<g id="edge136" class="edge">
<title>&#45;2&#45;&gt;7</title>
<path fill="none" stroke="green" stroke-width="0.11" d="M1660.69,-247.32C1763.48,-245.66 2430.78,-233.79 2459.45,-203.52 2474.58,-187.55 2473.56,-170.9 2459.45,-154.02 2425.05,-112.88 2037.68,-75.04 1984.45,-68.53 1742.18,-38.86 1670.87,-100.53 1436.45,-32.53 1434.54,-31.97 1432.61,-31.27 1430.7,-30.48"/>
<polygon fill="green" stroke="green" stroke-width="0.11" points="1432.12,-27.27 1421.61,-25.96 1429.01,-33.54 1432.12,-27.27"/>
</g>
<!-- &#45;2&#45;&gt;138 -->
<g id="edge11" class="edge">
<title>&#45;2&#45;&gt;138</title>
<path fill="none" stroke="green" stroke-width="0.48" d="M1634.21,-247.23C1548.5,-245.23 1074.08,-232.89 1017.45,-203.52 984.38,-186.37 959.16,-150.96 944.15,-125.09"/>
<polygon fill="green" stroke="green" stroke-width="0.48" points="947.02,-123.06 939.09,-116.04 940.91,-126.48 947.02,-123.06"/>
</g>
<!-- &#45;2&#45;&gt;139 -->
<g id="edge12" class="edge">
<title>&#45;2&#45;&gt;139</title>
<path fill="none" stroke="green" stroke-width="0.29" d="M1634.19,-247.27C1543.99,-245.51 1022.38,-234.05 959.45,-203.52 923.97,-186.31 895.58,-149.99 878.66,-123.95"/>
<polygon fill="green" stroke="green" stroke-width="0.29" points="881.46,-121.81 873.17,-115.21 875.53,-125.54 881.46,-121.81"/>
</g>
<!-- &#45;2&#45;&gt;140 -->
<g id="edge13" class="edge">
<title>&#45;2&#45;&gt;140</title>
<path fill="none" stroke="red" stroke-width="0.37" d="M1634.35,-240.74C1590.18,-217.87 1445.96,-143.21 1382.22,-110.21"/>
<polygon fill="red" stroke="red" stroke-width="0.37" points="1383.55,-106.96 1373.06,-105.47 1380.34,-113.17 1383.55,-106.96"/>
</g>
<!-- &#45;2&#45;&gt;141 -->
<g id="edge14" class="edge">
<title>&#45;2&#45;&gt;141</title>
<path fill="none" stroke="green" stroke-width="0.35" d="M1634.39,-243.76C1609.75,-236.56 1554.8,-220.1 1509.45,-203.52 1424.28,-172.39 1326.12,-130.01 1276.96,-108.32"/>
<polygon fill="green" stroke="green" stroke-width="0.35" points="1278.36,-105.11 1267.8,-104.27 1275.53,-111.52 1278.36,-105.11"/>
</g>
<!-- &#45;2&#45;&gt;142 -->
<g id="edge15" class="edge">
<title>&#45;2&#45;&gt;142</title>
<path fill="none" stroke="green" stroke-width="0.5" d="M1634.42,-247.22C1553.08,-245.27 1116.92,-233.44 1066.45,-203.52 1037.46,-186.34 1018.17,-152.16 1007.1,-126.59"/>
<polygon fill="green" stroke="green" stroke-width="0.5" points="1010.31,-125.17 1003.26,-117.26 1003.83,-127.84 1010.31,-125.17"/>
</g>
<!-- &#45;2&#45;&gt;143 -->
<g id="edge16" class="edge">
<title>&#45;2&#45;&gt;143</title>
<path fill="none" stroke="red" stroke-width="0.11" d="M1634.22,-247.28C1578.3,-246.03 1355.89,-239 1177.45,-203.52 1162.69,-200.59 1146.74,-195.93 1133.2,-191.51"/>
<polygon fill="red" stroke="red" stroke-width="0.11" points="1133.97,-188.07 1123.38,-188.21 1131.74,-194.71 1133.97,-188.07"/>
</g>
<!-- &#45;2&#45;&gt;144 -->
<g id="edge17" class="edge">
<title>&#45;2&#45;&gt;144</title>
<path fill="none" stroke="green" stroke-width="0.11" d="M1660.88,-247.48C1726.39,-246.89 2006.09,-239.41 1927.45,-154.02 1861.44,-82.35 1581.88,-151.71 1490.45,-118.02 1488.56,-117.33 1486.69,-116.49 1484.84,-115.56"/>
<polygon fill="green" stroke="green" stroke-width="0.11" points="1486.36,-112.39 1475.99,-110.24 1482.75,-118.39 1486.36,-112.39"/>
</g>
<!-- &#45;2&#45;&gt;145 -->
<g id="edge18" class="edge">
<title>&#45;2&#45;&gt;145</title>
<path fill="none" stroke="red" stroke-width="0.18" d="M1634.44,-246.57C1595.39,-243.47 1475.98,-232.14 1381.45,-203.52 1301.95,-179.45 1214.48,-135.15 1169.64,-111.01"/>
<polygon fill="red" stroke="red" stroke-width="0.18" points="1171.19,-107.88 1160.73,-106.18 1167.86,-114.03 1171.19,-107.88"/>
</g>
<!-- &#45;2&#45;&gt;146 -->
<g id="edge19" class="edge">
<title>&#45;2&#45;&gt;146</title>
<path fill="none" stroke="red" stroke-width="0.14" d="M1660.47,-247.5C1739.81,-247.25 2156.13,-243.97 2193.45,-203.52 2208.37,-187.35 2208.42,-170.14 2193.45,-154.02 2156.52,-114.27 1760.19,-125.53 1706.45,-118.02 1678.96,-114.19 1648.18,-107.71 1625.39,-102.49"/>
<polygon fill="red" stroke="red" stroke-width="0.14" points="1626.05,-99.05 1615.52,-100.2 1624.47,-105.87 1626.05,-99.05"/>
</g>
<!-- &#45;2&#45;&gt;147 -->
<g id="edge20" class="edge">
<title>&#45;2&#45;&gt;147</title>
<path fill="none" stroke="green" stroke-width="0.11" d="M1660.79,-247.2C1730.48,-245.4 2050.64,-235.41 2079.45,-203.52 2094.2,-187.2 2094.46,-170.11 2079.45,-154.02 2039.78,-111.52 1612.14,-137.76 1557.45,-118.02 1555.56,-117.34 1553.68,-116.52 1551.83,-115.59"/>
<polygon fill="green" stroke="green" stroke-width="0.11" points="1553.35,-112.42 1542.97,-110.29 1549.75,-118.42 1553.35,-112.42"/>
</g>
<!-- &#45;3 -->
<g id="node3" class="node">
<title>&#45;3</title>
<polygon fill="lightgray" stroke="black" points="1031.45,-257.52 1005.45,-257.52 1005.45,-239.52 1031.45,-239.52 1031.45,-257.52"/>
<text text-anchor="middle" x="1018.45" y="-246.32" font-family="Times-Roman" font-size="9.00">&#45;3</text>
</g>
<!-- &#45;3&#45;&gt;0 -->
<g id="edge137" class="edge">
<title>&#45;3&#45;&gt;0</title>
<path fill="none" stroke="green" stroke-width="0.23" d="M1005.28,-247.41C890.18,-246.42 58.87,-238.04 20.45,-203.52 -8.14,-177.83 10.35,-156.35 7.45,-118.02 5.79,-96.09 -7.67,-84.51 7.45,-68.53 39.09,-35.08 755.84,-20.4 903.86,-17.72"/>
<polygon fill="green" stroke="green" stroke-width="0.23" points="903.94,-21.22 913.88,-17.54 903.82,-14.22 903.94,-21.22"/>
</g>
<!-- &#45;3&#45;&gt;1 -->
<g id="edge138" class="edge">
<title>&#45;3&#45;&gt;1</title>
<path fill="none" stroke="green" stroke-width="0.66" d="M1005.21,-247.44C891.32,-246.67 80.21,-239.89 45.45,-203.52 -30.2,-124.38 111.27,-85.81 159.45,-68.53 326.12,-8.75 785.27,-81.44 955.45,-32.53 957.12,-32.05 958.8,-31.44 960.46,-30.76"/>
<polygon fill="green" stroke="green" stroke-width="0.66" points="962.18,-33.81 969.54,-26.18 959.04,-27.56 962.18,-33.81"/>
</g>
<!-- &#45;3&#45;&gt;2 -->
<g id="edge139" class="edge">
<title>&#45;3&#45;&gt;2</title>
<path fill="none" stroke="red" stroke-width="0.1" d="M1005.23,-247.39C896.54,-246.22 153.33,-237.01 121.45,-203.52 106.28,-187.59 110.34,-173.01 121.45,-154.02 160.58,-87.12 198.97,-90 273.45,-68.53 587.28,21.95 693.71,-123.34 1007.45,-32.53 1009.12,-32.04 1010.8,-31.44 1012.46,-30.75"/>
<polygon fill="red" stroke="red" stroke-width="0.1" points="1014.18,-33.8 1021.54,-26.17 1011.03,-27.55 1014.18,-33.8"/>
</g>
<!-- &#45;3&#45;&gt;3 -->
<g id="edge140" class="edge">
<title>&#45;3&#45;&gt;3</title>
<path fill="none" stroke="green" stroke-width="0.38" d="M1031.65,-246.46C1051.09,-244.9 1088.57,-241.92 1120.45,-239.52 1175.88,-235.35 1572.93,-233.95 1619.45,-203.52 1672.38,-168.91 1700.91,-120.2 1664.45,-68.53 1637.81,-30.76 1580.77,-20.66 1547.03,-18.05"/>
<polygon fill="green" stroke="green" stroke-width="0.38" points="1547.15,-14.55 1536.96,-17.45 1546.73,-21.54 1547.15,-14.55"/>
</g>
<!-- &#45;3&#45;&gt;4 -->
<g id="edge141" class="edge">
<title>&#45;3&#45;&gt;4</title>
<path fill="none" stroke="red" stroke-width="0.45" d="M1031.58,-246.49C1115.35,-239.89 1571.67,-203.93 1572.45,-203.52 1632.63,-172.31 1685.34,-121.83 1643.45,-68.53 1601.62,-15.3 1559.49,-54.48 1495.45,-32.53 1492.04,-31.36 1488.51,-29.98 1485.06,-28.53"/>
<polygon fill="red" stroke="red" stroke-width="0.45" points="1486.33,-25.26 1475.77,-24.4 1483.49,-31.66 1486.33,-25.26"/>
</g>
<!-- &#45;3&#45;&gt;5 -->
<g id="edge142" class="edge">
<title>&#45;3&#45;&gt;5</title>
<path fill="none" stroke="red" stroke-width="0.71" d="M1031.49,-245.1C1092.05,-233.58 1344.57,-182.1 1385.45,-118.02 1401.63,-92.66 1383.69,-58.6 1368.61,-37.29"/>
<polygon fill="red" stroke="red" stroke-width="0.71" points="1371.41,-35.2 1362.63,-29.27 1365.8,-39.38 1371.41,-35.2"/>
</g>
<!-- &#45;3&#45;&gt;6 -->
<g id="edge143" class="edge">
<title>&#45;3&#45;&gt;6</title>
<path fill="none" stroke="green" stroke-width="0.84" d="M1005.33,-247.47C927.21,-247 525.49,-242.68 489.45,-203.52 476.66,-189.62 472.53,-88.22 491.45,-68.53 535.26,-22.93 997.14,-43.34 1059.45,-32.53 1068.81,-30.9 1078.87,-28.25 1087.69,-25.6"/>
<polygon fill="green" stroke="green" stroke-width="0.84" points="1088.86,-28.9 1097.35,-22.56 1086.76,-22.22 1088.86,-28.9"/>
</g>
<!-- &#45;3&#45;&gt;7 -->
<g id="edge144" class="edge">
<title>&#45;3&#45;&gt;7</title>
<path fill="none" stroke="red" stroke-width="0.22" d="M1031.66,-246.46C1109.36,-240.17 1503.82,-208.09 1515.45,-203.52 1573.08,-180.87 1598.24,-173.64 1625.45,-118.02 1635.12,-98.26 1639.47,-85.48 1625.45,-68.53 1570.93,-2.65 1516.96,-61.34 1436.45,-32.53 1434.76,-31.92 1433.06,-31.23 1431.37,-30.48"/>
<polygon fill="red" stroke="red" stroke-width="0.22" points="1432.51,-27.14 1422.01,-25.76 1429.36,-33.39 1432.51,-27.14"/>
</g>
<!-- &#45;3&#45;&gt;138 -->
<g id="edge21" class="edge">
<title>&#45;3&#45;&gt;138</title>
<path fill="none" stroke="green" stroke-width="0.19" d="M1005.13,-247.1C938.36,-244.85 642.12,-233.26 615.45,-203.52 600.76,-187.14 600.92,-170.54 615.45,-154.02 656.88,-106.92 837.09,-141.05 895.45,-118.02 897.32,-117.29 899.18,-116.42 901.02,-115.46"/>
<polygon fill="green" stroke="green" stroke-width="0.19" points="903.14,-118.27 909.85,-110.07 899.49,-112.29 903.14,-118.27"/>
</g>
<!-- &#45;3&#45;&gt;139 -->
<g id="edge22" class="edge">
<title>&#45;3&#45;&gt;139</title>
<path fill="none" stroke="red" stroke-width="0.2" d="M1005.41,-247.59C922.07,-247.89 466.28,-247.49 425.45,-203.52 410.48,-187.4 410.99,-170.6 425.45,-154.02 451.8,-123.82 727.93,-102.98 826.62,-96.46"/>
<polygon fill="red" stroke="red" stroke-width="0.2" points="826.93,-99.94 836.68,-95.8 826.48,-92.96 826.93,-99.94"/>
</g>
<!-- &#45;3&#45;&gt;140 -->
<g id="edge23" class="edge">
<title>&#45;3&#45;&gt;140</title>
<path fill="none" stroke="red" stroke-width="0.16" d="M1031.47,-242.99C1053.08,-235.39 1097.63,-219.31 1134.45,-203.52 1174.78,-186.22 1273.88,-138.96 1312.45,-118.02 1315.54,-116.35 1318.73,-114.54 1321.89,-112.69"/>
<polygon fill="red" stroke="red" stroke-width="0.16" points="1323.83,-115.61 1330.62,-107.48 1320.24,-109.6 1323.83,-115.61"/>
</g>
<!-- &#45;3&#45;&gt;141 -->
<g id="edge24" class="edge">
<title>&#45;3&#45;&gt;141</title>
<path fill="none" stroke="red" stroke-width="0.52" d="M1020.36,-239.47C1025.04,-221.49 1038.76,-177.79 1066.45,-154.02 1067.17,-153.41 1160.96,-122.27 1212.47,-105.2"/>
<polygon fill="red" stroke="red" stroke-width="0.52" points="1213.78,-108.45 1222.17,-101.99 1211.57,-101.81 1213.78,-108.45"/>
</g>
<!-- &#45;3&#45;&gt;142 -->
<g id="edge25" class="edge">
<title>&#45;3&#45;&gt;142</title>
<path fill="none" stroke="green" stroke-width="0.51" d="M1005.42,-247.67C953.97,-247.93 765.92,-245.96 729.45,-203.52 715.11,-186.84 715.13,-170.73 729.45,-154.02 797.65,-74.47 865.48,-157.72 962.45,-118.02 964.31,-117.26 966.17,-116.38 968,-115.4"/>
<polygon fill="green" stroke="green" stroke-width="0.51" points="970.13,-118.2 976.81,-109.97 966.46,-112.24 970.13,-118.2"/>
</g>
<!-- &#45;3&#45;&gt;143 -->
<g id="edge26" class="edge">
<title>&#45;3&#45;&gt;143</title>
<path fill="none" stroke="red" stroke-width="0.35" d="M1028.18,-239.48C1039.38,-230.23 1058.24,-214.65 1073.89,-201.72"/>
<polygon fill="red" stroke="red" stroke-width="0.35" points="1076.24,-204.32 1081.72,-195.25 1071.78,-198.92 1076.24,-204.32"/>
</g>
<!-- &#45;3&#45;&gt;144 -->
<g id="edge27" class="edge">
<title>&#45;3&#45;&gt;144</title>
<path fill="none" stroke="green" stroke-width="0.73" d="M1031.69,-246.31C1096.75,-240.34 1379.9,-213.83 1395.45,-203.52 1409.82,-194 1430.09,-154.56 1443.49,-125.79"/>
<polygon fill="green" stroke="green" stroke-width="0.73" points="1446.76,-127.06 1447.76,-116.51 1440.4,-124.14 1446.76,-127.06"/>
</g>
<!-- &#45;3&#45;&gt;145 -->
<g id="edge28" class="edge">
<title>&#45;3&#45;&gt;145</title>
<path fill="none" stroke="red" stroke-width="0.13" d="M1005.03,-247.92C976.61,-247.95 910.59,-243.49 881.45,-203.52 868.49,-185.75 867.76,-171.25 881.45,-154.02 884.97,-149.6 1035.69,-116.64 1105.1,-101.65"/>
<polygon fill="red" stroke="red" stroke-width="0.13" points="1106.08,-105.02 1115.12,-99.49 1104.6,-98.18 1106.08,-105.02"/>
</g>
<!-- &#45;3&#45;&gt;146 -->
<g id="edge29" class="edge">
<title>&#45;3&#45;&gt;146</title>
<path fill="none" stroke="green" stroke-width="0.14" d="M1031.69,-246.45C1103.83,-240.62 1446.89,-212.46 1467.45,-203.52 1509.66,-185.18 1547.66,-146.93 1570.15,-120.93"/>
<polygon fill="green" stroke="green" stroke-width="0.14" points="1572.83,-123.18 1576.62,-113.28 1567.49,-118.65 1572.83,-123.18"/>
</g>
<!-- &#45;3&#45;&gt;147 -->
<g id="edge30" class="edge">
<title>&#45;3&#45;&gt;147</title>
<path fill="none" stroke="green" stroke-width="0.37" d="M1031.79,-246.35C1100.02,-240.31 1407.44,-212.7 1425.45,-203.52 1460.74,-185.54 1489.54,-149.38 1506.8,-123.59"/>
<polygon fill="green" stroke="green" stroke-width="0.37" points="1509.91,-125.23 1512.42,-114.94 1504.04,-121.42 1509.91,-125.23"/>
</g>
<!-- &#45;4 -->
<g id="node4" class="node">
<title>&#45;4</title>
<polygon fill="lightgray" stroke="black" points="1155.45,-257.52 1129.45,-257.52 1129.45,-239.52 1155.45,-239.52 1155.45,-257.52"/>
<text text-anchor="middle" x="1142.45" y="-246.32" font-family="Times-Roman" font-size="9.00">&#45;4</text>
</g>
<!-- &#45;4&#45;&gt;0 -->
<g id="edge145" class="edge">
<title>&#45;4&#45;&gt;0</title>
<path fill="none" stroke="red" stroke-width="0.23" d="M1129.26,-246.35C1109.82,-244.65 1072.36,-241.49 1040.45,-239.52 862.61,-228.55 412.94,-244.14 239.45,-203.52 147.71,-182.04 96.92,-196.95 45.45,-118.02 33.43,-99.6 30.35,-84.53 45.45,-68.53 75.69,-36.48 760.19,-20.74 904.06,-17.78"/>
<polygon fill="red" stroke="red" stroke-width="0.23" points="904.26,-21.28 914.19,-17.58 904.12,-14.28 904.26,-21.28"/>
</g>
<!-- &#45;4&#45;&gt;1 -->
<g id="edge146" class="edge">
<title>&#45;4&#45;&gt;1</title>
<path fill="none" stroke="red" stroke-width="0.52" d="M1129.25,-246.42C1109.81,-244.81 1072.34,-241.77 1040.45,-239.52 851.65,-226.24 308.86,-271.03 197.45,-118.02 184.5,-100.24 182.27,-84.45 197.45,-68.53 255.64,-7.51 874.44,-55.91 955.45,-32.53 957.12,-32.04 958.8,-31.44 960.46,-30.75"/>
<polygon fill="red" stroke="red" stroke-width="0.52" points="962.18,-33.8 969.54,-26.18 959.03,-27.55 962.18,-33.8"/>
</g>
<!-- &#45;4&#45;&gt;2 -->
<g id="edge147" class="edge">
<title>&#45;4&#45;&gt;2</title>
<path fill="none" stroke="red" stroke-width="0.23" d="M1129.25,-246.43C1109.81,-244.84 1072.34,-241.81 1040.45,-239.52 979.25,-235.12 537.52,-241.64 489.45,-203.52 458.33,-178.85 469.29,-157.31 463.45,-118.02 460.21,-96.26 448.42,-84.59 463.45,-68.53 504.85,-24.3 949.41,-49.87 1007.45,-32.53 1008.93,-32.08 1010.42,-31.55 1011.9,-30.95"/>
<polygon fill="red" stroke="red" stroke-width="0.23" points="1013.86,-33.88 1021.25,-26.28 1010.74,-27.61 1013.86,-33.88"/>
</g>
<!-- &#45;4&#45;&gt;3 -->
<g id="edge148" class="edge">
<title>&#45;4&#45;&gt;3</title>
<path fill="none" stroke="red" stroke-width="0.36" d="M1155.62,-245.64C1168.73,-243.83 1189.44,-241.13 1207.45,-239.52 1492.54,-214.03 1570.31,-262.24 1850.45,-203.52 1956.78,-181.23 2017.5,-207.27 2079.45,-118.02 2091.99,-99.95 2094.28,-84.78 2079.45,-68.53 2043.17,-28.77 1653.17,-19.45 1547,-17.65"/>
<polygon fill="red" stroke="red" stroke-width="0.36" points="1546.88,-14.15 1536.83,-17.48 1546.77,-21.14 1546.88,-14.15"/>
</g>
<!-- &#45;4&#45;&gt;4 -->
<g id="edge149" class="edge">
<title>&#45;4&#45;&gt;4</title>
<path fill="none" stroke="green" stroke-width="0.51" d="M1155.62,-245.66C1168.73,-243.87 1189.45,-241.18 1207.45,-239.52 1336.92,-227.57 1669.42,-248.42 1791.45,-203.52 1850.89,-181.65 1877.13,-174.67 1905.45,-118.02 1915.29,-98.35 1920.31,-84.75 1905.45,-68.53 1843.67,-1.08 1583.96,-55.58 1495.45,-32.53 1491.96,-31.62 1488.38,-30.38 1484.92,-29.01"/>
<polygon fill="green" stroke="green" stroke-width="0.51" points="1486.18,-25.74 1475.62,-24.9 1483.36,-32.14 1486.18,-25.74"/>
</g>
<!-- &#45;4&#45;&gt;5 -->
<g id="edge150" class="edge">
<title>&#45;4&#45;&gt;5</title>
<path fill="none" stroke="red" stroke-width="0.14" d="M1155.63,-245.72C1168.74,-243.97 1189.46,-241.31 1207.45,-239.52 1259.79,-234.31 1643.7,-242.1 1679.45,-203.52 1694.4,-187.39 1685.56,-175.16 1679.45,-154.02 1677.89,-148.63 1630.16,-71.59 1625.45,-68.53 1534.35,-9.16 1487.25,-64.93 1383.45,-32.53 1380.8,-31.7 1378.1,-30.68 1375.45,-29.55"/>
<polygon fill="red" stroke="red" stroke-width="0.14" points="1376.8,-26.32 1366.27,-25.21 1373.81,-32.65 1376.8,-26.32"/>
</g>
<!-- &#45;4&#45;&gt;6 -->
<g id="edge151" class="edge">
<title>&#45;4&#45;&gt;6</title>
<path fill="none" stroke="red" stroke-width="0.34" d="M1129.25,-246.45C1109.81,-244.88 1072.33,-241.89 1040.45,-239.52 983.24,-235.28 564.57,-245.47 525.45,-203.52 355.49,-21.27 815.6,-83.92 1059.45,-32.53 1068.74,-30.57 1078.79,-27.84 1087.61,-25.22"/>
<polygon fill="red" stroke="red" stroke-width="0.34" points="1088.75,-28.54 1097.29,-22.27 1086.7,-21.84 1088.75,-28.54"/>
</g>
<!-- &#45;4&#45;&gt;7 -->
<g id="edge152" class="edge">
<title>&#45;4&#45;&gt;7</title>
<path fill="none" stroke="red" stroke-width="0.44" d="M1155.62,-245.71C1168.74,-243.95 1189.46,-241.29 1207.45,-239.52 1360,-224.54 1803.35,-246.83 1886.45,-118.02 1898.38,-99.54 1901.37,-84.69 1886.45,-68.53 1852.42,-31.67 1484.52,-46.84 1436.45,-32.53 1434.54,-31.96 1432.61,-31.25 1430.71,-30.45"/>
<polygon fill="red" stroke="red" stroke-width="0.44" points="1432.13,-27.24 1421.62,-25.92 1429.01,-33.51 1432.13,-27.24"/>
</g>
<!-- &#45;4&#45;&gt;138 -->
<g id="edge31" class="edge">
<title>&#45;4&#45;&gt;138</title>
<path fill="none" stroke="green" stroke-width="0.1" d="M1129.24,-246.45C1051.56,-240.17 657.6,-208.06 653.45,-203.52 638.61,-187.28 639.08,-170.69 653.45,-154.02 688.95,-112.85 845.07,-138.48 895.45,-118.02 897.31,-117.27 899.17,-116.38 901,-115.41"/>
<polygon fill="green" stroke="green" stroke-width="0.1" points="903.13,-118.21 909.82,-109.99 899.47,-112.25 903.13,-118.21"/>
</g>
<!-- &#45;4&#45;&gt;139 -->
<g id="edge32" class="edge">
<title>&#45;4&#45;&gt;139</title>
<path fill="none" stroke="red" stroke-width="0.44" d="M1129.25,-246.46C1109.81,-244.9 1072.33,-241.92 1040.45,-239.52 984.8,-235.34 577.47,-244.38 539.45,-203.52 524.46,-187.42 525.29,-170.86 539.45,-154.02 569.5,-118.29 700.58,-126.75 746.45,-118.02 773.72,-112.84 804.51,-106.45 827.36,-101.61"/>
<polygon fill="red" stroke="red" stroke-width="0.44" points="828.21,-105.01 837.26,-99.5 826.75,-98.16 828.21,-105.01"/>
</g>
<!-- &#45;4&#45;&gt;140 -->
<g id="edge33" class="edge">
<title>&#45;4&#45;&gt;140</title>
<path fill="none" stroke="red" stroke-width="0.5" d="M1153.39,-239.5C1184.94,-216.37 1276.8,-149.01 1323.49,-114.77"/>
<polygon fill="red" stroke="red" stroke-width="0.5" points="1325.67,-117.52 1331.66,-108.78 1321.53,-111.87 1325.67,-117.52"/>
</g>
<!-- &#45;4&#45;&gt;141 -->
<g id="edge34" class="edge">
<title>&#45;4&#45;&gt;141</title>
<path fill="none" stroke="green" stroke-width="0.36" d="M1147.99,-239.28C1162.51,-217.68 1202.22,-158.59 1226.24,-122.86"/>
<polygon fill="green" stroke="green" stroke-width="0.36" points="1229.31,-124.57 1231.98,-114.31 1223.5,-120.66 1229.31,-124.57"/>
</g>
<!-- &#45;4&#45;&gt;142 -->
<g id="edge35" class="edge">
<title>&#45;4&#45;&gt;142</title>
<path fill="none" stroke="red" stroke-width="0.38" d="M1129.45,-245.92C1083.82,-240.18 933.04,-220.06 919.45,-203.52 905.48,-186.53 909.84,-173.81 919.45,-154.02 922.16,-148.45 947.02,-129.43 967.59,-114.33"/>
<polygon fill="red" stroke="red" stroke-width="0.38" points="969.76,-117.08 975.77,-108.35 965.63,-111.42 969.76,-117.08"/>
</g>
<!-- &#45;4&#45;&gt;143 -->
<g id="edge36" class="edge">
<title>&#45;4&#45;&gt;143</title>
<path fill="none" stroke="green" stroke-width="0.22" d="M1137.47,-239.48C1132.77,-231.91 1125.44,-220.08 1118.53,-208.95"/>
<polygon fill="green" stroke="green" stroke-width="0.22" points="1121.39,-206.91 1113.15,-200.26 1115.44,-210.6 1121.39,-206.91"/>
</g>
<!-- &#45;4&#45;&gt;144 -->
<g id="edge37" class="edge">
<title>&#45;4&#45;&gt;144</title>
<path fill="none" stroke="red" stroke-width="0.12" d="M1155.45,-245.76C1211.3,-238.16 1428.25,-208.39 1433.45,-203.52 1453.7,-184.57 1458.83,-152.75 1459.4,-128.32"/>
<polygon fill="red" stroke="red" stroke-width="0.12" points="1462.9,-128.03 1459.39,-118.03 1455.9,-128.03 1462.9,-128.03"/>
</g>
<!-- &#45;4&#45;&gt;145 -->
<g id="edge38" class="edge">
<title>&#45;4&#45;&gt;145</title>
<path fill="none" stroke="red" stroke-width="0.2" d="M1129.36,-244.3C1111.45,-239.12 1080,-227.03 1066.45,-203.52 1055.46,-184.46 1057.03,-173.9 1066.45,-154.02 1075.24,-135.47 1092.93,-120.75 1108.7,-110.57"/>
<polygon fill="red" stroke="red" stroke-width="0.2" points="1110.96,-113.3 1117.68,-105.11 1107.32,-107.32 1110.96,-113.3"/>
</g>
<!-- &#45;4&#45;&gt;146 -->
<g id="edge39" class="edge">
<title>&#45;4&#45;&gt;146</title>
<path fill="none" stroke="red" stroke-width="0.46" d="M1155.63,-245.73C1168.74,-243.99 1189.46,-241.34 1207.45,-239.52 1257.8,-234.43 1627.11,-240.69 1661.45,-203.52 1676.38,-187.36 1670.66,-174 1661.45,-154.02 1656.85,-144.05 1637,-127.55 1619.6,-114.42"/>
<polygon fill="red" stroke="red" stroke-width="0.46" points="1621.45,-111.43 1611.34,-108.28 1617.28,-117.05 1621.45,-111.43"/>
</g>
<!-- &#45;4&#45;&gt;147 -->
<g id="edge40" class="edge">
<title>&#45;4&#45;&gt;147</title>
<path fill="none" stroke="red" stroke-width="0.22" d="M1155.64,-245.83C1168.76,-244.17 1189.49,-241.58 1207.45,-239.52 1245.19,-235.2 1522.04,-231.76 1547.45,-203.52 1567.11,-181.67 1555.41,-147.38 1542.6,-123.05"/>
<polygon fill="red" stroke="red" stroke-width="0.22" points="1545.63,-121.29 1537.7,-114.26 1539.51,-124.7 1545.63,-121.29"/>
</g>
<!-- 138&#45;&gt;0 -->
<g id="edge41" class="edge">
<title>138&#45;&gt;0</title>
<path fill="none" stroke="green" stroke-width="0.79" d="M929.09,-68.13C929.31,-60.03 929.55,-50.97 929.77,-42.77"/>
<polygon fill="green" stroke="green" stroke-width="0.79" points="933.27,-42.73 930.04,-32.64 926.27,-42.54 933.27,-42.73"/>
</g>
<!-- 138&#45;&gt;1 -->
<g id="edge42" class="edge">
<title>138&#45;&gt;1</title>
<path fill="none" stroke="red" stroke-width="0.25" d="M942.64,-72.57C950.16,-62.12 959.4,-49.28 967.09,-38.6"/>
<polygon fill="red" stroke="red" stroke-width="0.25" points="970.11,-40.4 973.11,-30.24 964.43,-36.31 970.11,-40.4"/>
</g>
<!-- 138&#45;&gt;2 -->
<g id="edge43" class="edge">
<title>138&#45;&gt;2</title>
<path fill="none" stroke="green" stroke-width="0.22" d="M948.32,-77.92C952.64,-74.81 957.19,-71.55 961.45,-68.53 978.8,-56.19 998.57,-42.32 1013.15,-32.12"/>
<polygon fill="green" stroke="green" stroke-width="0.22" points="1015.3,-34.89 1021.49,-26.29 1011.29,-29.15 1015.3,-34.89"/>
</g>
<!-- 138&#45;&gt;3 -->
<g id="edge44" class="edge">
<title>138&#45;&gt;3</title>
<path fill="none" stroke="red" stroke-width="0.24" d="M946.97,-76.26C951.44,-73.18 956.4,-70.35 961.45,-68.53 1181.46,10.82 1259.56,-89.3 1486.45,-32.53 1489.94,-31.65 1493.53,-30.44 1497,-29.07"/>
<polygon fill="red" stroke="red" stroke-width="0.24" points="1498.56,-32.21 1506.29,-24.97 1495.73,-25.8 1498.56,-32.21"/>
</g>
<!-- 138&#45;&gt;4 -->
<g id="edge45" class="edge">
<title>138&#45;&gt;4</title>
<path fill="none" stroke="red" stroke-width="0.88" d="M946.98,-76.29C951.45,-73.21 956.41,-70.37 961.45,-68.53 1159.08,3.61 1231.7,-92.21 1433.45,-32.53 1435.36,-31.96 1437.29,-31.25 1439.19,-30.45"/>
<polygon fill="red" stroke="red" stroke-width="0.88" points="1440.89,-33.52 1448.28,-25.93 1437.77,-27.25 1440.89,-33.52"/>
</g>
<!-- 138&#45;&gt;5 -->
<g id="edge46" class="edge">
<title>138&#45;&gt;5</title>
<path fill="none" stroke="green" stroke-width="0.24" d="M947.05,-76.49C951.53,-73.4 956.46,-70.5 961.45,-68.53 1028.34,-42.04 1248.92,-24.49 1325.77,-19.06"/>
<polygon fill="green" stroke="green" stroke-width="0.24" points="1326.29,-22.53 1336.03,-18.34 1325.81,-15.55 1326.29,-22.53"/>
</g>
<!-- 138&#45;&gt;6 -->
<g id="edge47" class="edge">
<title>138&#45;&gt;6</title>
<path fill="none" stroke="green" stroke-width="0.28" d="M947.38,-77.21C951.83,-74.07 956.68,-70.98 961.45,-68.53 983.74,-57.05 1050.07,-36.15 1086.97,-24.91"/>
<polygon fill="green" stroke="green" stroke-width="0.28" points="1088.41,-28.13 1096.97,-21.88 1086.38,-21.43 1088.41,-28.13"/>
</g>
<!-- 138&#45;&gt;7 -->
<g id="edge48" class="edge">
<title>138&#45;&gt;7</title>
<path fill="none" stroke="green" stroke-width="0.27" d="M946.99,-76.33C951.47,-73.24 956.42,-70.39 961.45,-68.53 1135.45,-4.01 1198.69,-82.37 1377.45,-32.53 1380.12,-31.78 1382.84,-30.81 1385.5,-29.71"/>
<polygon fill="green" stroke="green" stroke-width="0.27" points="1387.12,-32.82 1394.69,-25.4 1384.15,-26.48 1387.12,-32.82"/>
</g>
<!-- 139&#45;&gt;0 -->
<g id="edge49" class="edge">
<title>139&#45;&gt;0</title>
<path fill="none" stroke="green" stroke-width="0.25" d="M877.8,-74.5C888.29,-63.09 901.91,-48.29 912.67,-36.59"/>
<polygon fill="green" stroke="green" stroke-width="0.25" points="915.4,-38.8 919.59,-29.07 910.24,-34.06 915.4,-38.8"/>
</g>
<!-- 139&#45;&gt;1 -->
<g id="edge50" class="edge">
<title>139&#45;&gt;1</title>
<path fill="none" stroke="green" stroke-width="0.16" d="M881.13,-77.64C885.46,-74.55 890.07,-71.37 894.45,-68.53 906.39,-60.78 938.12,-42.5 960.02,-30"/>
<polygon fill="green" stroke="green" stroke-width="0.16" points="961.76,-33.04 968.72,-25.05 958.3,-26.95 961.76,-33.04"/>
</g>
<!-- 139&#45;&gt;2 -->
<g id="edge51" class="edge">
<title>139&#45;&gt;2</title>
<path fill="none" stroke="red" stroke-width="0.25" d="M880.34,-77.14C884.8,-74.01 889.66,-70.94 894.45,-68.53 941.54,-44.84 959.14,-53.61 1007.45,-32.53 1009.01,-31.85 1010.6,-31.1 1012.18,-30.32"/>
<polygon fill="red" stroke="red" stroke-width="0.25" points="1013.84,-33.4 1020.99,-25.59 1010.53,-27.23 1013.84,-33.4"/>
</g>
<!-- 139&#45;&gt;3 -->
<g id="edge52" class="edge">
<title>139&#45;&gt;3</title>
<path fill="none" stroke="green" stroke-width="0.12" d="M879.96,-76.23C884.43,-73.15 889.4,-70.33 894.45,-68.53 1142.76,19.94 1230.49,-95.53 1486.45,-32.53 1489.95,-31.67 1493.53,-30.46 1497,-29.09"/>
<polygon fill="green" stroke="green" stroke-width="0.12" points="1498.56,-32.23 1506.3,-24.99 1495.74,-25.82 1498.56,-32.23"/>
</g>
<!-- 139&#45;&gt;4 -->
<g id="edge53" class="edge">
<title>139&#45;&gt;4</title>
<path fill="none" stroke="green" stroke-width="0.38" d="M879.96,-76.26C884.44,-73.17 889.4,-70.34 894.45,-68.53 1120.37,12.73 1202.9,-99.54 1433.45,-32.53 1435.36,-31.97 1437.29,-31.27 1439.2,-30.47"/>
<polygon fill="green" stroke="green" stroke-width="0.38" points="1440.89,-33.54 1448.29,-25.96 1437.78,-27.27 1440.89,-33.54"/>
</g>
<!-- 139&#45;&gt;5 -->
<g id="edge54" class="edge">
<title>139&#45;&gt;5</title>
<path fill="none" stroke="green" stroke-width="0.21" d="M880.03,-76.42C884.5,-73.33 889.44,-70.45 894.45,-68.53 934.9,-52.95 1235.02,-27.01 1326.23,-19.42"/>
<polygon fill="green" stroke="green" stroke-width="0.21" points="1326.61,-22.9 1336.29,-18.58 1326.03,-15.92 1326.61,-22.9"/>
</g>
<!-- 139&#45;&gt;6 -->
<g id="edge55" class="edge">
<title>139&#45;&gt;6</title>
<path fill="none" stroke="red" stroke-width="0.39" d="M880.18,-76.8C884.65,-73.69 889.55,-70.71 894.45,-68.53 963.01,-37.97 986.68,-50.92 1059.45,-32.53 1068.52,-30.23 1078.4,-27.47 1087.13,-24.92"/>
<polygon fill="red" stroke="red" stroke-width="0.39" points="1088.16,-28.27 1096.75,-22.08 1086.17,-21.56 1088.16,-28.27"/>
</g>
<!-- 139&#45;&gt;7 -->
<g id="edge56" class="edge">
<title>139&#45;&gt;7</title>
<path fill="none" stroke="green" stroke-width="0.2" d="M879.97,-76.28C884.45,-73.2 889.41,-70.36 894.45,-68.53 1096.73,5.1 1169.76,-89.11 1377.45,-32.53 1380.12,-31.8 1382.84,-30.84 1385.51,-29.75"/>
<polygon fill="green" stroke="green" stroke-width="0.2" points="1387.13,-32.85 1394.7,-25.44 1384.16,-26.51 1387.13,-32.85"/>
</g>
<!-- 140&#45;&gt;0 -->
<g id="edge57" class="edge">
<title>140&#45;&gt;0</title>
<path fill="none" stroke="green" stroke-width="0.26" d="M1328.44,-83.33C1314.47,-78.24 1296.17,-72.18 1279.45,-68.53 1138.76,-37.81 1094.46,-76.86 957.45,-32.53 955.98,-32.05 954.49,-31.49 953.02,-30.87"/>
<polygon fill="green" stroke="green" stroke-width="0.26" points="954.2,-27.54 943.69,-26.15 951.04,-33.79 954.2,-27.54"/>
</g>
<!-- 140&#45;&gt;1 -->
<g id="edge58" class="edge">
<title>140&#45;&gt;1</title>
<path fill="none" stroke="red" stroke-width="0.23" d="M1328.41,-83.46C1314.43,-78.42 1296.13,-72.35 1279.45,-68.53 1161.45,-41.45 1124.23,-71.02 1009.45,-32.53 1007.98,-32.03 1006.5,-31.46 1005.03,-30.83"/>
<polygon fill="red" stroke="red" stroke-width="0.23" points="1006.21,-27.5 995.71,-26.09 1003.04,-33.74 1006.21,-27.5"/>
</g>
<!-- 140&#45;&gt;2 -->
<g id="edge59" class="edge">
<title>140&#45;&gt;2</title>
<path fill="none" stroke="green" stroke-width="0.44" d="M1328.34,-83.78C1314.33,-78.85 1296.02,-72.79 1279.45,-68.53 1195.37,-46.88 1171.93,-52.56 1087.45,-32.53 1078.21,-30.34 1068.17,-27.55 1059.34,-24.96"/>
<polygon fill="green" stroke="green" stroke-width="0.44" points="1060.24,-21.58 1049.66,-22.06 1058.23,-28.28 1060.24,-21.58"/>
</g>
<!-- 140&#45;&gt;3 -->
<g id="edge60" class="edge">
<title>140&#45;&gt;3</title>
<path fill="none" stroke="green" stroke-width="0.25" d="M1373.92,-82.37C1400.73,-70.55 1446.89,-50.16 1486.45,-32.53 1489.74,-31.06 1493.21,-29.51 1496.62,-27.98"/>
<polygon fill="green" stroke="green" stroke-width="0.25" points="1498.21,-31.1 1505.9,-23.82 1495.34,-24.72 1498.21,-31.1"/>
</g>
<!-- 140&#45;&gt;4 -->
<g id="edge61" class="edge">
<title>140&#45;&gt;4</title>
<path fill="none" stroke="red" stroke-width="0.6" d="M1371.63,-78.52C1390.99,-65.31 1420.13,-45.44 1439.93,-31.94"/>
<polygon fill="red" stroke="red" stroke-width="0.6" points="1442.01,-34.75 1448.3,-26.23 1438.07,-28.97 1442.01,-34.75"/>
</g>
<!-- 140&#45;&gt;5 -->
<g id="edge62" class="edge">
<title>140&#45;&gt;5</title>
<path fill="none" stroke="green" stroke-width="0.17" d="M1351.77,-68.13C1351.88,-60.03 1352,-50.97 1352.11,-42.77"/>
<polygon fill="green" stroke="green" stroke-width="0.17" points="1355.61,-42.68 1352.24,-32.64 1348.61,-42.59 1355.61,-42.68"/>
</g>
<!-- 140&#45;&gt;6 -->
<g id="edge63" class="edge">
<title>140&#45;&gt;6</title>
<path fill="none" stroke="green" stroke-width="0.1" d="M1328.14,-84.45C1314.07,-79.76 1295.75,-73.72 1279.45,-68.53 1229.38,-52.59 1170.6,-34.74 1137.82,-24.87"/>
<polygon fill="green" stroke="green" stroke-width="0.1" points="1138.72,-21.49 1128.14,-21.96 1136.71,-28.19 1138.72,-21.49"/>
</g>
<!-- 140&#45;&gt;7 -->
<g id="edge64" class="edge">
<title>140&#45;&gt;7</title>
<path fill="none" stroke="green" stroke-width="0.24" d="M1366.13,-72.96C1374.25,-62.27 1384.34,-48.98 1392.64,-38.07"/>
<polygon fill="green" stroke="green" stroke-width="0.24" points="1395.57,-40 1398.83,-29.92 1390,-35.76 1395.57,-40"/>
</g>
<!-- 141&#45;&gt;0 -->
<g id="edge65" class="edge">
<title>141&#45;&gt;0</title>
<path fill="none" stroke="green" stroke-width="0.19" d="M1222.37,-83.66C1208.37,-78.69 1190.06,-72.63 1173.45,-68.53 1078.96,-45.22 1049.21,-64.97 957.45,-32.53 955.99,-32.01 954.52,-31.42 953.05,-30.77"/>
<polygon fill="green" stroke="green" stroke-width="0.19" points="954.24,-27.45 943.74,-26 951.04,-33.68 954.24,-27.45"/>
</g>
<!-- 141&#45;&gt;1 -->
<g id="edge66" class="edge">
<title>141&#45;&gt;1</title>
<path fill="none" stroke="red" stroke-width="0.45" d="M1222.29,-83.96C1208.26,-79.1 1189.95,-73.05 1173.45,-68.53 1101.48,-48.81 1079.15,-59.19 1009.45,-32.53 1008,-31.97 1006.54,-31.35 1005.09,-30.69"/>
<polygon fill="red" stroke="red" stroke-width="0.45" points="1006.28,-27.36 995.8,-25.85 1003.05,-33.57 1006.28,-27.36"/>
</g>
<!-- 141&#45;&gt;2 -->
<g id="edge67" class="edge">
<title>141&#45;&gt;2</title>
<path fill="none" stroke="red" stroke-width="0.13" d="M1222.06,-83.96C1181.9,-69.68 1100.2,-40.64 1059.15,-26.05"/>
<polygon fill="red" stroke="red" stroke-width="0.13" points="1060.24,-22.72 1049.64,-22.66 1057.89,-29.31 1060.24,-22.72"/>
</g>
<!-- 141&#45;&gt;3 -->
<g id="edge68" class="edge">
<title>141&#45;&gt;3</title>
<path fill="none" stroke="red" stroke-width="0.38" d="M1268.6,-83.93C1282.62,-79.05 1300.93,-73 1317.45,-68.53 1391.58,-48.47 1413.45,-56.39 1486.45,-32.53 1489.87,-31.41 1493.42,-30.05 1496.87,-28.62"/>
<polygon fill="red" stroke="red" stroke-width="0.38" points="1498.44,-31.75 1506.16,-24.49 1495.6,-25.35 1498.44,-31.75"/>
</g>
<!-- 141&#45;&gt;4 -->
<g id="edge69" class="edge">
<title>141&#45;&gt;4</title>
<path fill="none" stroke="red" stroke-width="0.39" d="M1268.76,-84.47C1282.84,-79.79 1301.15,-73.74 1317.45,-68.53 1368.86,-52.07 1383.73,-53.55 1433.45,-32.53 1435.1,-31.83 1436.77,-31.07 1438.45,-30.26"/>
<polygon fill="red" stroke="red" stroke-width="0.39" points="1440.5,-33.14 1447.76,-25.43 1437.27,-26.93 1440.5,-33.14"/>
</g>
<!-- 141&#45;&gt;5 -->
<g id="edge70" class="edge">
<title>141&#45;&gt;5</title>
<path fill="none" stroke="green" stroke-width="0.46" d="M1265.32,-78.34C1284,-65.25 1311.88,-45.71 1331.04,-32.27"/>
<polygon fill="green" stroke="green" stroke-width="0.46" points="1333.24,-35.01 1339.42,-26.4 1329.22,-29.27 1333.24,-35.01"/>
</g>
<!-- 141&#45;&gt;6 -->
<g id="edge71" class="edge">
<title>141&#45;&gt;6</title>
<path fill="none" stroke="red" stroke-width="0.18" d="M1224.08,-80.22C1199.73,-66.49 1160.09,-44.13 1135.18,-30.09"/>
<polygon fill="red" stroke="red" stroke-width="0.18" points="1136.85,-27.01 1126.42,-25.14 1133.41,-33.1 1136.85,-27.01"/>
</g>
<!-- 141&#45;&gt;7 -->
<g id="edge72" class="edge">
<title>141&#45;&gt;7</title>
<path fill="none" stroke="green" stroke-width="0.79" d="M1265.71,-79C1271.63,-75.38 1278.19,-71.61 1284.45,-68.53 1324.2,-48.92 1336.86,-50.33 1377.45,-32.53 1379.99,-31.41 1382.62,-30.2 1385.23,-28.97"/>
<polygon fill="green" stroke="green" stroke-width="0.79" points="1386.91,-32.04 1394.37,-24.52 1383.85,-25.75 1386.91,-32.04"/>
</g>
<!-- 142&#45;&gt;0 -->
<g id="edge73" class="edge">
<title>142&#45;&gt;0</title>
<path fill="none" stroke="green" stroke-width="0.37" d="M979.71,-74.12C970.04,-62.95 957.64,-48.64 947.69,-37.16"/>
<polygon fill="green" stroke="green" stroke-width="0.37" points="950.16,-34.66 940.96,-29.4 944.87,-39.25 950.16,-34.66"/>
</g>
<!-- 142&#45;&gt;1 -->
<g id="edge74" class="edge">
<title>142&#45;&gt;1</title>
<path fill="none" stroke="red" stroke-width="0.27" d="M991.34,-68.54C989.89,-60.21 988.27,-50.83 986.8,-42.39"/>
<polygon fill="red" stroke="red" stroke-width="0.27" points="990.22,-41.61 985.06,-32.35 983.32,-42.8 990.22,-41.61"/>
</g>
<!-- 142&#45;&gt;2 -->
<g id="edge75" class="edge">
<title>142&#45;&gt;2</title>
<path fill="none" stroke="green" stroke-width="0.16" d="M1006.52,-70.98C1011.52,-61.37 1017.43,-49.99 1022.53,-40.19"/>
<polygon fill="green" stroke="green" stroke-width="0.16" points="1025.78,-41.52 1027.29,-31.03 1019.57,-38.29 1025.78,-41.52"/>
</g>
<!-- 142&#45;&gt;3 -->
<g id="edge76" class="edge">
<title>142&#45;&gt;3</title>
<path fill="none" stroke="red" stroke-width="0.17" d="M1019.33,-86.26C1041.51,-80.88 1075.52,-73.15 1105.45,-68.53 1273.54,-42.53 1321.99,-75.94 1486.45,-32.53 1489.93,-31.61 1493.51,-30.37 1496.97,-28.99"/>
<polygon fill="red" stroke="red" stroke-width="0.17" points="1498.54,-32.12 1506.27,-24.88 1495.71,-25.72 1498.54,-32.12"/>
</g>
<!-- 142&#45;&gt;4 -->
<g id="edge77" class="edge">
<title>142&#45;&gt;4</title>
<path fill="none" stroke="red" stroke-width="0.37" d="M1019.35,-86.37C1041.54,-81.06 1075.56,-73.38 1105.45,-68.53 1250.21,-45.02 1293.53,-76.45 1433.45,-32.53 1435.35,-31.93 1437.27,-31.2 1439.17,-30.38"/>
<polygon fill="red" stroke="red" stroke-width="0.37" points="1440.88,-33.44 1448.25,-25.83 1437.74,-27.18 1440.88,-33.44"/>
</g>
<!-- 142&#45;&gt;5 -->
<g id="edge78" class="edge">
<title>142&#45;&gt;5</title>
<path fill="none" stroke="red" stroke-width="0.13" d="M1019.47,-87.03C1041.75,-82.18 1075.82,-74.8 1105.45,-68.53 1186,-51.47 1281.45,-31.82 1326.47,-22.58"/>
<polygon fill="red" stroke="red" stroke-width="0.13" points="1327.45,-25.96 1336.55,-20.52 1326.05,-19.1 1327.45,-25.96"/>
</g>
<!-- 142&#45;&gt;6 -->
<g id="edge79" class="edge">
<title>142&#45;&gt;6</title>
<path fill="none" stroke="red" stroke-width="0.25" d="M1015.83,-79.21C1036.8,-65.77 1069.34,-44.91 1090.77,-31.16"/>
<polygon fill="red" stroke="red" stroke-width="0.25" points="1092.68,-34.1 1099.21,-25.75 1088.9,-28.21 1092.68,-34.1"/>
</g>
<!-- 142&#45;&gt;7 -->
<g id="edge80" class="edge">
<title>142&#45;&gt;7</title>
<path fill="none" stroke="red" stroke-width="0.26" d="M1019.37,-86.52C1041.58,-81.33 1075.61,-73.71 1105.45,-68.53 1225.59,-47.64 1260.76,-67.93 1377.45,-32.53 1380.1,-31.72 1382.81,-30.71 1385.46,-29.59"/>
<polygon fill="red" stroke="red" stroke-width="0.26" points="1387.1,-32.69 1394.65,-25.26 1384.11,-26.36 1387.1,-32.69"/>
</g>
<!-- 143&#45;&gt;0 -->
<g id="edge81" class="edge">
<title>143&#45;&gt;0</title>
<path fill="none" stroke="green" stroke-width="0.16" d="M1075.58,-176.49C1011.9,-172.65 845.65,-158.82 812.45,-118.02 798.56,-100.96 800.38,-86.92 812.45,-68.53 832.76,-37.56 876.27,-25.2 904.4,-20.34"/>
<polygon fill="green" stroke="green" stroke-width="0.16" points="904.99,-23.79 914.35,-18.82 903.93,-16.87 904.99,-23.79"/>
</g>
<!-- 143&#45;&gt;1 -->
<g id="edge82" class="edge">
<title>143&#45;&gt;1</title>
<path fill="none" stroke="red" stroke-width="0.46" d="M1075.53,-176.18C1014.17,-171.7 858.55,-156.67 827.45,-118.02 813.66,-100.89 814.17,-86.06 827.45,-68.53 863.13,-21.42 900.89,-55.23 955.45,-32.53 956.88,-31.93 958.33,-31.28 959.77,-30.59"/>
<polygon fill="red" stroke="red" stroke-width="0.46" points="961.83,-33.46 969.04,-25.69 958.56,-27.27 961.83,-33.46"/>
</g>
<!-- 143&#45;&gt;2 -->
<g id="edge83" class="edge">
<title>143&#45;&gt;2</title>
<path fill="none" stroke="green" stroke-width="0.38" d="M1091.27,-155.45C1078.93,-125.43 1057.05,-72.23 1044.35,-41.33"/>
<polygon fill="green" stroke="green" stroke-width="0.38" points="1047.46,-39.69 1040.42,-31.77 1040.98,-42.35 1047.46,-39.69"/>
</g>
<!-- 143&#45;&gt;3 -->
<g id="edge84" class="edge">
<title>143&#45;&gt;3</title>
<path fill="none" stroke="red" stroke-width="0.35" d="M1125.17,-176.96C1226.87,-173.35 1609.3,-157.25 1644.45,-118.02 1659.13,-101.64 1656.68,-86.81 1644.45,-68.53 1622.77,-36.1 1576.4,-24.16 1546.92,-19.78"/>
<polygon fill="red" stroke="red" stroke-width="0.35" points="1547.26,-16.3 1536.9,-18.49 1546.36,-23.24 1547.26,-16.3"/>
</g>
<!-- 143&#45;&gt;4 -->
<g id="edge85" class="edge">
<title>143&#45;&gt;4</title>
<path fill="none" stroke="red" stroke-width="0.63" d="M1125.31,-176.85C1224.96,-172.89 1591.7,-155.83 1625.45,-118.02 1640.1,-101.61 1638.77,-86.04 1625.45,-68.53 1589.15,-20.81 1551.85,-52.86 1495.45,-32.53 1492.06,-31.3 1488.54,-29.89 1485.1,-28.43"/>
<polygon fill="red" stroke="red" stroke-width="0.63" points="1486.37,-25.16 1475.81,-24.29 1483.52,-31.56 1486.37,-25.16"/>
</g>
<!-- 143&#45;&gt;5 -->
<g id="edge86" class="edge">
<title>143&#45;&gt;5</title>
<path fill="none" stroke="red" stroke-width="0.25" d="M1120.08,-163.67C1135.4,-152.21 1156.81,-135.19 1173.45,-118.02 1192.75,-98.11 1189.08,-84.92 1211.45,-68.53 1246.63,-42.75 1296.11,-28.76 1326.13,-22.17"/>
<polygon fill="red" stroke="red" stroke-width="0.25" points="1327.17,-25.53 1336.25,-20.07 1325.75,-18.67 1327.17,-25.53"/>
</g>
<!-- 143&#45;&gt;6 -->
<g id="edge87" class="edge">
<title>143&#45;&gt;6</title>
<path fill="none" stroke="green" stroke-width="0.1" d="M1100.93,-153.86C1101.51,-131.7 1102.78,-97.83 1105.45,-68.53 1106.22,-60.07 1107.38,-50.86 1108.53,-42.62"/>
<polygon fill="green" stroke="green" stroke-width="0.1" points="1112.03,-42.88 1110.01,-32.48 1105.1,-41.87 1112.03,-42.88"/>
</g>
<!-- 143&#45;&gt;7 -->
<g id="edge88" class="edge">
<title>143&#45;&gt;7</title>
<path fill="none" stroke="green" stroke-width="0.13" d="M1124.8,-174.31C1161.29,-168.14 1231.02,-152.53 1279.45,-118.02 1302.04,-101.93 1296.5,-86.7 1317.45,-68.53 1328.54,-58.91 1361.99,-40.96 1385.09,-29.06"/>
<polygon fill="green" stroke="green" stroke-width="0.13" points="1386.95,-32.04 1394.26,-24.37 1383.76,-25.8 1386.95,-32.04"/>
</g>
<!-- 143&#45;&gt;145 -->
<g id="edge153" class="edge">
<title>143&#45;&gt;145</title>
<path fill="none" stroke="red" stroke-width="0.15" d="M1110.7,-155.84C1115.04,-146.53 1120.18,-135.53 1124.91,-125.41"/>
<polygon fill="red" stroke="red" stroke-width="0.15" points="1128.21,-126.61 1129.27,-116.07 1121.87,-123.65 1128.21,-126.61"/>
</g>
<!-- 144&#45;&gt;0 -->
<g id="edge89" class="edge">
<title>144&#45;&gt;0</title>
<path fill="none" stroke="green" stroke-width="0.69" d="M1434.8,-83.28C1420.8,-78.11 1402.34,-71.97 1385.45,-68.53 1198.41,-30.37 1139.86,-88.8 957.45,-32.53 955.97,-32.07 954.48,-31.52 953.01,-30.91"/>
<polygon fill="green" stroke="green" stroke-width="0.69" points="954.17,-27.58 943.67,-26.23 951.04,-33.84 954.17,-27.58"/>
</g>
<!-- 144&#45;&gt;1 -->
<g id="edge90" class="edge">
<title>144&#45;&gt;1</title>
<path fill="none" stroke="green" stroke-width="0.42" d="M1434.46,-83.24C1420.5,-78.11 1402.2,-72.04 1385.45,-68.53 1221.16,-34.02 1169.58,-82.94 1009.45,-32.53 1007.97,-32.06 1006.49,-31.51 1005.01,-30.89"/>
<polygon fill="green" stroke="green" stroke-width="0.42" points="1006.18,-27.56 995.68,-26.2 1003.04,-33.82 1006.18,-27.56"/>
</g>
<!-- 144&#45;&gt;2 -->
<g id="edge91" class="edge">
<title>144&#45;&gt;2</title>
<path fill="none" stroke="red" stroke-width="0.35" stroke-dasharray="1,5" d="M1434.43,-83.39C1420.46,-78.32 1402.15,-72.25 1385.45,-68.53 1255.24,-39.49 1218.19,-59.07 1087.45,-32.53 1078.14,-30.64 1068.09,-27.92 1059.27,-25.3"/>
<polygon fill="red" stroke="red" stroke-width="0.35" points="1060.18,-21.92 1049.6,-22.33 1058.13,-28.61 1060.18,-21.92"/>
</g>
<!-- 144&#45;&gt;3 -->
<g id="edge92" class="edge">
<title>144&#45;&gt;3</title>
<path fill="none" stroke="red" stroke-width="0.43" d="M1473.02,-73.73C1482.41,-62.56 1494.35,-48.34 1503.9,-36.97"/>
<polygon fill="red" stroke="red" stroke-width="0.43" points="1506.61,-39.18 1510.36,-29.27 1501.25,-34.68 1506.61,-39.18"/>
</g>
<!-- 144&#45;&gt;4 -->
<g id="edge93" class="edge">
<title>144&#45;&gt;4</title>
<path fill="none" stroke="green" stroke-width="0.1" d="M1458.71,-68.54C1459.15,-60.42 1459.63,-51.31 1460.08,-43.04"/>
<polygon fill="green" stroke="green" stroke-width="0.1" points="1463.58,-42.98 1460.62,-32.81 1456.59,-42.61 1463.58,-42.98"/>
</g>
<!-- 144&#45;&gt;5 -->
<g id="edge94" class="edge">
<title>144&#45;&gt;5</title>
<path fill="none" stroke="red" stroke-width="0.2" d="M1437.7,-78.17C1419.44,-65.12 1392.39,-45.8 1373.67,-32.43"/>
<polygon fill="red" stroke="red" stroke-width="0.2" points="1375.65,-29.54 1365.48,-26.57 1371.58,-35.23 1375.65,-29.54"/>
</g>
<!-- 144&#45;&gt;6 -->
<g id="edge95" class="edge">
<title>144&#45;&gt;6</title>
<path fill="none" stroke="green" stroke-width="0.5" d="M1434.34,-83.78C1420.33,-78.85 1402.02,-72.8 1385.45,-68.53 1296.01,-45.49 1187.6,-28.23 1138.66,-21"/>
<polygon fill="green" stroke="green" stroke-width="0.5" points="1139.02,-17.51 1128.61,-19.53 1138,-24.44 1139.02,-17.51"/>
</g>
<!-- 144&#45;&gt;7 -->
<g id="edge96" class="edge">
<title>144&#45;&gt;7</title>
<path fill="none" stroke="red" stroke-width="0.34" d="M1444.32,-72.17C1437.65,-61.97 1429.54,-49.56 1422.72,-39.12"/>
<polygon fill="red" stroke="red" stroke-width="0.34" points="1425.53,-37.01 1417.13,-30.56 1419.67,-40.84 1425.53,-37.01"/>
</g>
<!-- 145&#45;&gt;0 -->
<g id="edge97" class="edge">
<title>145&#45;&gt;0</title>
<path fill="none" stroke="red" stroke-width="0.87" d="M1115.62,-86.08C1080.32,-76.53 1012.36,-56.78 957.45,-32.53 955.89,-31.84 954.31,-31.09 952.73,-30.3"/>
<polygon fill="red" stroke="red" stroke-width="0.87" points="954.38,-27.22 943.92,-25.57 951.07,-33.38 954.38,-27.22"/>
</g>
<!-- 145&#45;&gt;1 -->
<g id="edge98" class="edge">
<title>145&#45;&gt;1</title>
<path fill="none" stroke="red" stroke-width="0.48" d="M1116.63,-82.48C1090.45,-71.08 1046.38,-51.41 1009.45,-32.53 1007.93,-31.75 1006.38,-30.93 1004.82,-30.1"/>
<polygon fill="red" stroke="red" stroke-width="0.48" points="1006.51,-27.03 996.06,-25.25 1003.12,-33.16 1006.51,-27.03"/>
</g>
<!-- 145&#45;&gt;2 -->
<g id="edge99" class="edge">
<title>145&#45;&gt;2</title>
<path fill="none" stroke="red" stroke-width="0.11" d="M1119.7,-78.17C1101.44,-65.12 1074.39,-45.8 1055.67,-32.43"/>
<polygon fill="red" stroke="red" stroke-width="0.11" points="1057.65,-29.54 1047.48,-26.57 1053.58,-35.23 1057.65,-29.54"/>
</g>
<!-- 145&#45;&gt;3 -->
<g id="edge100" class="edge">
<title>145&#45;&gt;3</title>
<path fill="none" stroke="red" stroke-width="0.58" d="M1162.48,-83.45C1176.46,-78.4 1194.77,-72.33 1211.45,-68.53 1331.62,-41.1 1367.85,-66.13 1486.45,-32.53 1489.92,-31.54 1493.48,-30.27 1496.94,-28.87"/>
<polygon fill="red" stroke="red" stroke-width="0.58" points="1498.51,-32.01 1506.24,-24.76 1495.68,-25.6 1498.51,-32.01"/>
</g>
<!-- 145&#45;&gt;4 -->
<g id="edge101" class="edge">
<title>145&#45;&gt;4</title>
<path fill="none" stroke="red" stroke-width="0.27" d="M1162.53,-83.63C1176.52,-78.65 1194.83,-72.59 1211.45,-68.53 1308.55,-44.8 1338.88,-64.91 1433.45,-32.53 1435.14,-31.95 1436.85,-31.27 1438.55,-30.53"/>
<polygon fill="red" stroke="red" stroke-width="0.27" points="1440.54,-33.45 1447.92,-25.84 1437.41,-27.19 1440.54,-33.45"/>
</g>
<!-- 145&#45;&gt;5 -->
<g id="edge102" class="edge">
<title>145&#45;&gt;5</title>
<path fill="none" stroke="green" stroke-width="0.7" d="M1159.55,-78.66C1165.47,-75.04 1172.07,-71.35 1178.45,-68.53 1229.08,-46.12 1292.23,-30.31 1326.83,-22.6"/>
<polygon fill="green" stroke="green" stroke-width="0.7" points="1327.58,-26.02 1336.61,-20.48 1326.09,-19.18 1327.58,-26.02"/>
</g>
<!-- 145&#45;&gt;6 -->
<g id="edge103" class="edge">
<title>145&#45;&gt;6</title>
<path fill="none" stroke="green" stroke-width="0.22" d="M1131.35,-69.77C1128.14,-60.86 1124.45,-50.61 1121.19,-41.54"/>
<polygon fill="green" stroke="green" stroke-width="0.22" points="1124.41,-40.16 1117.73,-31.94 1117.82,-42.53 1124.41,-40.16"/>
</g>
<!-- 145&#45;&gt;7 -->
<g id="edge104" class="edge">
<title>145&#45;&gt;7</title>
<path fill="none" stroke="green" stroke-width="0.13" d="M1162.61,-83.95C1176.63,-79.08 1194.94,-73.03 1211.45,-68.53 1284.29,-48.68 1306.17,-57.39 1377.45,-32.53 1380.07,-31.61 1382.75,-30.53 1385.39,-29.37"/>
<polygon fill="green" stroke="green" stroke-width="0.13" points="1387.04,-32.46 1394.56,-25 1384.03,-26.15 1387.04,-32.46"/>
</g>
<!-- 146&#45;&gt;0 -->
<g id="edge105" class="edge">
<title>146&#45;&gt;0</title>
<path fill="none" stroke="green" stroke-width="0.31" d="M1572.94,-76.23C1568.47,-73.15 1563.5,-70.33 1558.45,-68.53 1306.34,21.17 1214.08,-108.32 957.45,-32.53 955.78,-32.03 954.1,-31.42 952.45,-30.73"/>
<polygon fill="green" stroke="green" stroke-width="0.31" points="953.87,-27.53 943.37,-26.14 950.72,-33.78 953.87,-27.53"/>
</g>
<!-- 146&#45;&gt;1 -->
<g id="edge106" class="edge">
<title>146&#45;&gt;1</title>
<path fill="none" stroke="red" stroke-width="0.24" d="M1572.94,-76.25C1568.46,-73.17 1563.5,-70.34 1558.45,-68.53 1328.3,14.09 1243.76,-102.45 1009.45,-32.53 1007.97,-32.08 1006.48,-31.55 1005,-30.95"/>
<polygon fill="red" stroke="red" stroke-width="0.24" points="1006.16,-27.62 995.65,-26.29 1003.04,-33.88 1006.16,-27.62"/>
</g>
<!-- 146&#45;&gt;2 -->
<g id="edge107" class="edge">
<title>146&#45;&gt;2</title>
<path fill="none" stroke="green" stroke-width="0.4" d="M1572.92,-76.29C1568.44,-73.21 1563.49,-70.37 1558.45,-68.53 1361.24,3.47 1294.06,-69.77 1087.45,-32.53 1078.1,-30.84 1068.04,-28.17 1059.22,-25.53"/>
<polygon fill="green" stroke="green" stroke-width="0.4" points="1060.15,-22.15 1049.56,-22.51 1058.06,-28.83 1060.15,-22.15"/>
</g>
<!-- 146&#45;&gt;3 -->
<g id="edge108" class="edge">
<title>146&#45;&gt;3</title>
<path fill="none" stroke="red" stroke-width="0.26" stroke-dasharray="1,5" d="M1574.62,-74.5C1563.69,-62.95 1549.47,-47.92 1538.33,-36.16"/>
<polygon fill="red" stroke="red" stroke-width="0.26" points="1540.62,-33.48 1531.2,-28.62 1535.53,-38.29 1540.62,-33.48"/>
</g>
<!-- 146&#45;&gt;4 -->
<g id="edge109" class="edge">
<title>146&#45;&gt;4</title>
<path fill="none" stroke="green" stroke-width="0.33" d="M1571.86,-77.51C1567.52,-74.42 1562.89,-71.28 1558.45,-68.53 1534.1,-53.43 1504.89,-38.38 1484.92,-28.53"/>
<polygon fill="green" stroke="green" stroke-width="0.33" points="1486.45,-25.38 1475.93,-24.14 1483.38,-31.67 1486.45,-25.38"/>
</g>
<!-- 146&#45;&gt;5 -->
<g id="edge110" class="edge">
<title>146&#45;&gt;5</title>
<path fill="none" stroke="green" stroke-width="0.36" d="M1572.73,-76.76C1568.27,-73.65 1563.36,-70.68 1558.45,-68.53 1485.73,-36.63 1458.57,-58.27 1383.45,-32.53 1380.83,-31.63 1378.14,-30.56 1375.5,-29.4"/>
<polygon fill="green" stroke="green" stroke-width="0.36" points="1376.86,-26.17 1366.32,-25.03 1373.85,-32.49 1376.86,-26.17"/>
</g>
<!-- 146&#45;&gt;6 -->
<g id="edge111" class="edge">
<title>146&#45;&gt;6</title>
<path fill="none" stroke="green" stroke-width="0.37" d="M1572.87,-76.43C1568.39,-73.34 1563.45,-70.46 1558.45,-68.53 1519.2,-53.34 1228.69,-27.29 1138.85,-19.52"/>
<polygon fill="green" stroke="green" stroke-width="0.37" points="1138.95,-16.01 1128.69,-18.64 1138.35,-22.99 1138.95,-16.01"/>
</g>
<!-- 146&#45;&gt;7 -->
<g id="edge112" class="edge">
<title>146&#45;&gt;7</title>
<path fill="none" stroke="red" stroke-width="0.35" d="M1572.59,-77.06C1568.13,-73.94 1563.27,-70.89 1558.45,-68.53 1507.68,-43.66 1488.67,-54.18 1436.45,-32.53 1434.8,-31.84 1433.12,-31.09 1431.44,-30.29"/>
<polygon fill="red" stroke="red" stroke-width="0.35" points="1432.61,-26.96 1422.12,-25.47 1429.39,-33.17 1432.61,-26.96"/>
</g>
<!-- 147&#45;&gt;0 -->
<g id="edge113" class="edge">
<title>147&#45;&gt;0</title>
<path fill="none" stroke="green" stroke-width="0.24" d="M1505.93,-76.26C1501.46,-73.18 1496.5,-70.34 1491.45,-68.53 1267.64,12.05 1185.33,-100.76 957.45,-32.53 955.97,-32.08 954.48,-31.55 953,-30.94"/>
<polygon fill="green" stroke="green" stroke-width="0.24" points="954.16,-27.61 943.65,-26.28 951.04,-33.88 954.16,-27.61"/>
</g>
<!-- 147&#45;&gt;1 -->
<g id="edge114" class="edge">
<title>147&#45;&gt;1</title>
<path fill="none" stroke="green" stroke-width="0.19" stroke-dasharray="1,5" d="M1505.92,-76.29C1501.45,-73.2 1496.49,-70.36 1491.45,-68.53 1289.59,4.97 1215.02,-94.89 1009.45,-32.53 1007.97,-32.08 1006.48,-31.54 1005,-30.93"/>
<polygon fill="green" stroke="green" stroke-width="0.19" points="1006.17,-27.6 995.66,-26.26 1003.04,-33.86 1006.17,-27.6"/>
</g>
<!-- 147&#45;&gt;2 -->
<g id="edge115" class="edge">
<title>147&#45;&gt;2</title>
<path fill="none" stroke="green" stroke-width="0.41" stroke-dasharray="1,5" d="M1505.9,-76.34C1501.43,-73.25 1496.48,-70.4 1491.45,-68.53 1322.51,-5.64 1264.65,-65.62 1087.45,-32.53 1078.11,-30.78 1068.06,-28.1 1059.24,-25.47"/>
<polygon fill="green" stroke="green" stroke-width="0.41" points="1060.16,-22.09 1049.57,-22.46 1058.08,-28.77 1060.16,-22.09"/>
</g>
<!-- 147&#45;&gt;3 -->
<g id="edge116" class="edge">
<title>147&#45;&gt;3</title>
<path fill="none" stroke="red" stroke-width="0.16" d="M1523.18,-68.54C1522.75,-60.42 1522.26,-51.31 1521.82,-43.04"/>
<polygon fill="red" stroke="red" stroke-width="0.16" points="1525.31,-42.61 1521.28,-32.81 1518.32,-42.98 1525.31,-42.61"/>
</g>
<!-- 147&#45;&gt;4 -->
<g id="edge117" class="edge">
<title>147&#45;&gt;4</title>
<path fill="none" stroke="red" stroke-width="0.11" d="M1508.88,-73.73C1499.49,-62.56 1487.55,-48.34 1478,-36.97"/>
<polygon fill="red" stroke="red" stroke-width="0.11" points="1480.65,-34.68 1471.54,-29.27 1475.29,-39.18 1480.65,-34.68"/>
</g>
<!-- 147&#45;&gt;5 -->
<g id="edge118" class="edge">
<title>147&#45;&gt;5</title>
<path fill="none" stroke="red" stroke-width="0.19" d="M1505.53,-77.19C1501.07,-74.06 1496.23,-70.97 1491.45,-68.53 1446.4,-45.49 1430.25,-51.75 1383.45,-32.53 1380.88,-31.47 1378.24,-30.3 1375.62,-29.09"/>
<polygon fill="red" stroke="red" stroke-width="0.19" points="1376.99,-25.87 1366.46,-24.67 1373.94,-32.17 1376.99,-25.87"/>
</g>
<!-- 147&#45;&gt;6 -->
<g id="edge119" class="edge">
<title>147&#45;&gt;6</title>
<path fill="none" stroke="green" stroke-width="0.13" d="M1505.84,-76.51C1501.37,-73.41 1496.43,-70.51 1491.45,-68.53 1426.78,-42.76 1213.78,-24.81 1138.82,-19.16"/>
<polygon fill="green" stroke="green" stroke-width="0.13" points="1139.03,-15.67 1128.8,-18.42 1138.51,-22.65 1139.03,-15.67"/>
</g>
<!-- 147&#45;&gt;7 -->
<g id="edge120" class="edge">
<title>147&#45;&gt;7</title>
<path fill="none" stroke="red" stroke-width="0.48" d="M1504.71,-77.73C1500.38,-74.63 1495.79,-71.43 1491.45,-68.53 1471.24,-55.04 1447.62,-40.57 1430.76,-30.46"/>
<polygon fill="red" stroke="red" stroke-width="0.48" points="1432.53,-27.44 1422.15,-25.32 1428.94,-33.45 1432.53,-27.44"/>
</g>
</g>
</svg>
