<?xml version="1.0" encoding="UTF-8" standalone="no"?>
<!DOCTYPE svg PUBLIC "-//W3C//DTD SVG 1.1//EN"
 "http://www.w3.org/Graphics/SVG/1.1/DTD/svg11.dtd">
<!-- Generated by graphviz version 2.44.0 (0)
 -->
<!-- Pages: 1 -->
<svg width="2984pt" height="180pt"
 viewBox="0.00 0.00 2983.86 180.02" xmlns="http://www.w3.org/2000/svg" xmlns:xlink="http://www.w3.org/1999/xlink">
<g id="graph0" class="graph" transform="scale(1 1) rotate(0) translate(4 176.02)">
<polygon fill="white" stroke="transparent" points="-4,4 -4,-176.02 2979.86,-176.02 2979.86,4 -4,4"/>
<!-- &#45;1 -->
<g id="node1" class="node">
<title>&#45;1</title>
<polygon fill="lightgray" stroke="black" points="1224.42,-172.02 1198.42,-172.02 1198.42,-154.02 1224.42,-154.02 1224.42,-172.02"/>
<text text-anchor="middle" x="1211.42" y="-160.82" font-family="Times-Roman" font-size="9.00">&#45;1</text>
</g>
<!-- 0 -->
<g id="node9" class="node">
<title>0</title>
<ellipse fill="lightblue" stroke="black" cx="1267.42" cy="-16.26" rx="16.03" ry="16.03"/>
<text text-anchor="middle" x="1267.42" y="-14.06" font-family="Times-Roman" font-size="9.00">0</text>
</g>
<!-- &#45;1&#45;&gt;0 -->
<g id="edge144" class="edge">
<title>&#45;1&#45;&gt;0</title>
<path fill="none" stroke="red" stroke-width="0.35" d="M1198.1,-156.48C1195.28,-155.51 1192.28,-154.62 1189.42,-154.02 1121.51,-140.03 614.01,-168.45 566.42,-118.02 551.32,-102.03 551.29,-84.5 566.42,-68.53 616.84,-15.28 1153.57,-47.21 1225.42,-32.53 1231.31,-31.32 1237.48,-29.45 1243.23,-27.42"/>
<polygon fill="red" stroke="red" stroke-width="0.35" points="1244.85,-30.55 1252.95,-23.72 1242.36,-24.01 1244.85,-30.55"/>
</g>
<!-- 1 -->
<g id="node10" class="node">
<title>1</title>
<ellipse fill="lightblue" stroke="black" cx="1066.42" cy="-16.26" rx="16.03" ry="16.03"/>
<text text-anchor="middle" x="1066.42" y="-14.06" font-family="Times-Roman" font-size="9.00">1</text>
</g>
<!-- &#45;1&#45;&gt;1 -->
<g id="edge145" class="edge">
<title>&#45;1&#45;&gt;1</title>
<path fill="none" stroke="red" stroke-width="0.37" d="M1198.11,-156.42C1195.29,-155.45 1192.29,-154.58 1189.42,-154.02 1127.19,-142.05 93.51,-163.53 49.42,-118.02 34.11,-102.23 34.26,-84.47 49.42,-68.53 84.55,-31.58 882.37,-19.59 1039.64,-17.58"/>
<polygon fill="red" stroke="red" stroke-width="0.37" points="1039.88,-21.08 1049.83,-17.46 1039.79,-14.08 1039.88,-21.08"/>
</g>
<!-- 2 -->
<g id="node11" class="node">
<title>2</title>
<ellipse fill="lightblue" stroke="black" cx="1373.42" cy="-16.26" rx="16.03" ry="16.03"/>
<text text-anchor="middle" x="1373.42" y="-14.06" font-family="Times-Roman" font-size="9.00">2</text>
</g>
<!-- &#45;1&#45;&gt;2 -->
<g id="edge146" class="edge">
<title>&#45;1&#45;&gt;2</title>
<path fill="none" stroke="green" stroke-width="0.28" d="M1198.05,-156.72C1195.23,-155.72 1192.25,-154.77 1189.42,-154.02 1141.92,-141.58 1003.18,-155.47 971.42,-118.02 957.18,-101.25 956.75,-84.93 971.42,-68.53 1019.26,-15.02 1221.43,-43.18 1292.42,-32.53 1310.93,-29.75 1331.67,-25.82 1347.53,-22.65"/>
<polygon fill="green" stroke="green" stroke-width="0.28" points="1348.54,-26.02 1357.64,-20.6 1347.15,-19.16 1348.54,-26.02"/>
</g>
<!-- 3 -->
<g id="node12" class="node">
<title>3</title>
<ellipse fill="lightblue" stroke="black" cx="1200.42" cy="-16.26" rx="16.03" ry="16.03"/>
<text text-anchor="middle" x="1200.42" y="-14.06" font-family="Times-Roman" font-size="9.00">3</text>
</g>
<!-- &#45;1&#45;&gt;3 -->
<g id="edge147" class="edge">
<title>&#45;1&#45;&gt;3</title>
<path fill="none" stroke="red" stroke-width="0.6" d="M1198.11,-156.44C1195.28,-155.47 1192.29,-154.59 1189.42,-154.02 1137.58,-143.88 276.05,-156.07 239.42,-118.02 224.16,-102.18 224.19,-84.41 239.42,-68.53 272.2,-34.33 1044.24,-36.82 1091.42,-32.53 1119.87,-29.94 1152.27,-25.17 1174.3,-21.65"/>
<polygon fill="red" stroke="red" stroke-width="0.6" points="1174.91,-25.09 1184.22,-20.03 1173.79,-18.18 1174.91,-25.09"/>
</g>
<!-- 4 -->
<g id="node13" class="node">
<title>4</title>
<ellipse fill="lightblue" stroke="black" cx="1432.42" cy="-16.26" rx="16.03" ry="16.03"/>
<text text-anchor="middle" x="1432.42" y="-14.06" font-family="Times-Roman" font-size="9.00">4</text>
</g>
<!-- &#45;1&#45;&gt;4 -->
<g id="edge148" class="edge">
<title>&#45;1&#45;&gt;4</title>
<path fill="none" stroke="green" stroke-width="0.18" d="M1198.02,-156.81C1195.2,-155.81 1192.23,-154.83 1189.42,-154.02 1114.74,-132.7 1067.35,-178.33 1018.42,-118.02 1004.56,-100.94 1003.61,-84.8 1018.42,-68.53 1075.5,-5.78 1316.41,-54.19 1398.42,-32.53 1401.9,-31.61 1405.48,-30.36 1408.94,-28.98"/>
<polygon fill="green" stroke="green" stroke-width="0.18" points="1410.5,-32.12 1418.24,-24.88 1407.68,-25.72 1410.5,-32.12"/>
</g>
<!-- 5 -->
<g id="node14" class="node">
<title>5</title>
<ellipse fill="lightblue" stroke="black" cx="1483.42" cy="-16.26" rx="16.03" ry="16.03"/>
<text text-anchor="middle" x="1483.42" y="-14.06" font-family="Times-Roman" font-size="9.00">5</text>
</g>
<!-- &#45;1&#45;&gt;5 -->
<g id="edge149" class="edge">
<title>&#45;1&#45;&gt;5</title>
<path fill="none" stroke="green" stroke-width="0.56" d="M1198.01,-156.85C1195.19,-155.85 1192.22,-154.85 1189.42,-154.02 1120.76,-133.75 1077.02,-174.02 1032.42,-118.02 1018.71,-100.82 1017.53,-84.73 1032.42,-68.53 1096.55,1.27 1367.08,-61.23 1457.42,-32.53 1458.68,-32.13 1459.95,-31.65 1461.2,-31.13"/>
<polygon fill="green" stroke="green" stroke-width="0.56" points="1463.15,-34.07 1470.46,-26.39 1459.96,-27.83 1463.15,-34.07"/>
</g>
<!-- 6 -->
<g id="node15" class="node">
<title>6</title>
<ellipse fill="lightblue" stroke="black" cx="1651.42" cy="-16.26" rx="16.03" ry="16.03"/>
<text text-anchor="middle" x="1651.42" y="-14.06" font-family="Times-Roman" font-size="9.00">6</text>
</g>
<!-- &#45;1&#45;&gt;6 -->
<g id="edge150" class="edge">
<title>&#45;1&#45;&gt;6</title>
<path fill="none" stroke="red" stroke-width="0.12" d="M1224.57,-158.45C1230.84,-156.87 1238.47,-155.12 1245.42,-154.02 1293.87,-146.39 1652.18,-154.1 1685.42,-118.02 1706.29,-95.37 1685.51,-59.44 1668.51,-37.17"/>
<polygon fill="red" stroke="red" stroke-width="0.12" points="1671.02,-34.71 1662.04,-29.08 1665.55,-39.08 1671.02,-34.71"/>
</g>
<!-- 7 -->
<g id="node16" class="node">
<title>7</title>
<ellipse fill="lightblue" stroke="black" cx="1757.42" cy="-16.26" rx="16.03" ry="16.03"/>
<text text-anchor="middle" x="1757.42" y="-14.06" font-family="Times-Roman" font-size="9.00">7</text>
</g>
<!-- &#45;1&#45;&gt;7 -->
<g id="edge151" class="edge">
<title>&#45;1&#45;&gt;7</title>
<path fill="none" stroke="green" stroke-width="0.35" d="M1224.55,-158.34C1230.82,-156.73 1238.45,-155 1245.42,-154.02 1287.77,-148.1 1984.89,-148.97 2014.42,-118.02 2084.57,-44.51 1862.22,-23.65 1783.77,-18.65"/>
<polygon fill="green" stroke="green" stroke-width="0.35" points="1783.89,-15.16 1773.7,-18.05 1783.47,-22.14 1783.89,-15.16"/>
</g>
<!-- 208 -->
<g id="node17" class="node">
<title>208</title>
<ellipse fill="white" stroke="black" cx="1133.42" cy="-93.28" rx="25" ry="25"/>
<text text-anchor="middle" x="1133.42" y="-91.08" font-family="Times-Roman" font-size="9.00">208</text>
</g>
<!-- &#45;1&#45;&gt;208 -->
<g id="edge1" class="edge">
<title>&#45;1&#45;&gt;208</title>
<path fill="none" stroke="green" stroke-width="0.43" d="M1202.16,-153.99C1191.74,-144.94 1174.35,-129.83 1159.67,-117.08"/>
<polygon fill="green" stroke="green" stroke-width="0.43" points="1161.7,-114.2 1151.85,-110.29 1157.11,-119.49 1161.7,-114.2"/>
</g>
<!-- 209 -->
<g id="node18" class="node">
<title>209</title>
<ellipse fill="white" stroke="black" cx="1373.42" cy="-93.28" rx="25" ry="25"/>
<text text-anchor="middle" x="1373.42" y="-91.08" font-family="Times-Roman" font-size="9.00">209</text>
</g>
<!-- &#45;1&#45;&gt;209 -->
<g id="edge2" class="edge">
<title>&#45;1&#45;&gt;209</title>
<path fill="none" stroke="green" stroke-width="0.32" d="M1224.67,-156.48C1249.95,-145.91 1305.7,-122.59 1341.31,-107.7"/>
<polygon fill="green" stroke="green" stroke-width="0.32" points="1342.9,-110.83 1350.78,-103.74 1340.2,-104.37 1342.9,-110.83"/>
</g>
<!-- 210 -->
<g id="node19" class="node">
<title>210</title>
<ellipse fill="white" stroke="black" cx="1440.42" cy="-93.28" rx="25" ry="25"/>
<text text-anchor="middle" x="1440.42" y="-91.08" font-family="Times-Roman" font-size="9.00">210</text>
</g>
<!-- &#45;1&#45;&gt;210 -->
<g id="edge3" class="edge">
<title>&#45;1&#45;&gt;210</title>
<path fill="none" stroke="red" stroke-width="0.24" d="M1224.65,-158.87C1230.94,-157.38 1238.56,-155.59 1245.42,-154.02 1317.32,-137.58 1340.11,-148.18 1407.42,-118.02 1409.25,-117.2 1411.09,-116.27 1412.9,-115.26"/>
<polygon fill="red" stroke="red" stroke-width="0.24" points="1415.08,-118.02 1421.68,-109.73 1411.35,-112.1 1415.08,-118.02"/>
</g>
<!-- 211 -->
<g id="node20" class="node">
<title>211</title>
<ellipse fill="white" stroke="black" cx="1584.42" cy="-93.28" rx="25" ry="25"/>
<text text-anchor="middle" x="1584.42" y="-91.08" font-family="Times-Roman" font-size="9.00">211</text>
</g>
<!-- &#45;1&#45;&gt;211 -->
<g id="edge4" class="edge">
<title>&#45;1&#45;&gt;211</title>
<path fill="none" stroke="red" stroke-width="0.1" d="M1224.59,-158.56C1230.86,-157.01 1238.49,-155.25 1245.42,-154.02 1377.65,-130.61 1418.51,-161.95 1545.42,-118.02 1548.92,-116.81 1552.44,-115.25 1555.86,-113.51"/>
<polygon fill="red" stroke="red" stroke-width="0.1" points="1557.6,-116.55 1564.59,-108.59 1554.16,-110.45 1557.6,-116.55"/>
</g>
<!-- 213 -->
<g id="node21" class="node">
<title>213</title>
<ellipse fill="white" stroke="black" cx="1757.42" cy="-93.28" rx="25" ry="25"/>
<text text-anchor="middle" x="1757.42" y="-91.08" font-family="Times-Roman" font-size="9.00">213</text>
</g>
<!-- &#45;1&#45;&gt;213 -->
<g id="edge5" class="edge">
<title>&#45;1&#45;&gt;213</title>
<path fill="none" stroke="red" stroke-width="0.23" d="M1224.56,-158.43C1230.83,-156.84 1238.47,-155.1 1245.42,-154.02 1453.77,-121.78 1517.73,-182.63 1718.42,-118.02 1721.94,-116.89 1725.48,-115.38 1728.91,-113.66"/>
<polygon fill="red" stroke="red" stroke-width="0.23" points="1730.63,-116.71 1737.65,-108.77 1727.22,-110.6 1730.63,-116.71"/>
</g>
<!-- 214 -->
<g id="node22" class="node">
<title>214</title>
<ellipse fill="white" stroke="black" cx="1200.42" cy="-93.28" rx="25" ry="25"/>
<text text-anchor="middle" x="1200.42" y="-91.08" font-family="Times-Roman" font-size="9.00">214</text>
</g>
<!-- &#45;1&#45;&gt;214 -->
<g id="edge6" class="edge">
<title>&#45;1&#45;&gt;214</title>
<path fill="none" stroke="green" stroke-width="0.14" d="M1210.11,-153.99C1209.05,-147.43 1207.47,-137.7 1205.89,-127.98"/>
<polygon fill="green" stroke="green" stroke-width="0.14" points="1209.33,-127.31 1204.27,-118 1202.42,-128.43 1209.33,-127.31"/>
</g>
<!-- 215 -->
<g id="node23" class="node">
<title>215</title>
<ellipse fill="white" stroke="black" cx="1651.42" cy="-93.28" rx="25" ry="25"/>
<text text-anchor="middle" x="1651.42" y="-91.08" font-family="Times-Roman" font-size="9.00">215</text>
</g>
<!-- &#45;1&#45;&gt;215 -->
<g id="edge7" class="edge">
<title>&#45;1&#45;&gt;215</title>
<path fill="none" stroke="green" stroke-width="1.27" d="M1224.57,-158.49C1230.84,-156.92 1238.48,-155.17 1245.42,-154.02 1409.74,-126.89 1462.55,-176.7 1618.42,-118.02 1620.3,-117.32 1622.17,-116.47 1624.01,-115.53"/>
<polygon fill="green" stroke="green" stroke-width="1.27" points="1626.11,-118.35 1632.86,-110.19 1622.49,-112.36 1626.11,-118.35"/>
</g>
<!-- 216 -->
<g id="node24" class="node">
<title>216</title>
<ellipse fill="white" stroke="black" cx="1066.42" cy="-93.28" rx="25" ry="25"/>
<text text-anchor="middle" x="1066.42" y="-91.08" font-family="Times-Roman" font-size="9.00">216</text>
</g>
<!-- &#45;1&#45;&gt;216 -->
<g id="edge8" class="edge">
<title>&#45;1&#45;&gt;216</title>
<path fill="none" stroke="green" stroke-width="0.15" d="M1198.17,-157.03C1170.53,-146.59 1108.5,-122.97 1099.42,-118.02 1097.65,-117.06 1095.87,-116.02 1094.1,-114.93"/>
<polygon fill="green" stroke="green" stroke-width="0.15" points="1095.7,-111.79 1085.43,-109.18 1091.83,-117.62 1095.7,-111.79"/>
</g>
<!-- 217 -->
<g id="node25" class="node">
<title>217</title>
<ellipse fill="white" stroke="black" cx="1267.42" cy="-93.28" rx="25" ry="25"/>
<text text-anchor="middle" x="1267.42" y="-91.08" font-family="Times-Roman" font-size="9.00">217</text>
</g>
<!-- &#45;1&#45;&gt;217 -->
<g id="edge9" class="edge">
<title>&#45;1&#45;&gt;217</title>
<path fill="none" stroke="green" stroke-width="0.32" d="M1218.06,-153.99C1224.84,-145.78 1235.73,-132.61 1245.56,-120.72"/>
<polygon fill="green" stroke="green" stroke-width="0.32" points="1248.46,-122.7 1252.13,-112.77 1243.06,-118.24 1248.46,-122.7"/>
</g>
<!-- &#45;2 -->
<g id="node2" class="node">
<title>&#45;2</title>
<polygon fill="lightgray" stroke="black" points="1506.42,-172.02 1480.42,-172.02 1480.42,-154.02 1506.42,-154.02 1506.42,-172.02"/>
<text text-anchor="middle" x="1493.42" y="-160.82" font-family="Times-Roman" font-size="9.00">&#45;2</text>
</g>
<!-- &#45;2&#45;&gt;0 -->
<g id="edge152" class="edge">
<title>&#45;2&#45;&gt;0</title>
<path fill="none" stroke="red" stroke-width="0.58" d="M1494.38,-153.99C1496.04,-136.06 1497.34,-92.44 1474.42,-68.53 1461.8,-55.37 1346.1,-32.12 1293.38,-22.09"/>
<polygon fill="red" stroke="red" stroke-width="0.58" points="1293.91,-18.63 1283.43,-20.21 1292.61,-25.51 1293.91,-18.63"/>
</g>
<!-- &#45;2&#45;&gt;1 -->
<g id="edge153" class="edge">
<title>&#45;2&#45;&gt;1</title>
<path fill="none" stroke="green" stroke-width="0.73" d="M1480.27,-157.95C1474.8,-156.44 1468.36,-154.88 1462.42,-154.02 1403.49,-145.54 432.8,-160.82 391.42,-118.02 376.12,-102.21 376.46,-84.66 391.42,-68.53 436.21,-20.21 920.47,-17.2 1039.91,-17.2"/>
<polygon fill="green" stroke="green" stroke-width="0.73" points="1040,-20.7 1050,-17.21 1040.01,-13.7 1040,-20.7"/>
</g>
<!-- &#45;2&#45;&gt;2 -->
<g id="edge154" class="edge">
<title>&#45;2&#45;&gt;2</title>
<path fill="none" stroke="red" stroke-width="0.47" d="M1506.46,-161.21C1563.62,-157.51 1790.03,-141.44 1810.42,-118.02 1824.86,-101.43 1825.26,-84.76 1810.42,-68.53 1749.73,-2.18 1494.41,-55.25 1407.42,-32.53 1403.93,-31.62 1400.35,-30.38 1396.89,-29"/>
<polygon fill="red" stroke="red" stroke-width="0.47" points="1398.15,-25.73 1387.59,-24.9 1395.32,-32.14 1398.15,-25.73"/>
</g>
<!-- &#45;2&#45;&gt;3 -->
<g id="edge155" class="edge">
<title>&#45;2&#45;&gt;3</title>
<path fill="none" stroke="green" stroke-width="0.97" d="M1480.25,-158.1C1474.78,-156.61 1468.33,-155.03 1462.42,-154.02 1415.15,-146.01 1064.87,-153.31 1032.42,-118.02 1017.52,-101.83 1019.33,-86.21 1032.42,-68.53 1049.44,-45.54 1131.73,-28.71 1174.49,-21.36"/>
<polygon fill="green" stroke="green" stroke-width="0.97" points="1175.16,-24.8 1184.45,-19.7 1174.01,-17.9 1175.16,-24.8"/>
</g>
<!-- &#45;2&#45;&gt;4 -->
<g id="edge156" class="edge">
<title>&#45;2&#45;&gt;4</title>
<path fill="none" stroke="green" stroke-width="0.32" d="M1506.73,-161.01C1573.44,-155.87 1868.6,-132.37 1881.42,-118.02 1896.07,-101.62 1896.3,-84.73 1881.42,-68.53 1817.6,0.95 1548.32,-61.12 1458.42,-32.53 1457.15,-32.13 1455.89,-31.65 1454.63,-31.13"/>
<polygon fill="green" stroke="green" stroke-width="0.32" points="1455.87,-27.83 1445.37,-26.39 1452.68,-34.07 1455.87,-27.83"/>
</g>
<!-- &#45;2&#45;&gt;5 -->
<g id="edge157" class="edge">
<title>&#45;2&#45;&gt;5</title>
<path fill="none" stroke="red" stroke-width="0.11" d="M1506.54,-161.21C1530.8,-159.72 1584.31,-156.47 1629.42,-154.02 1669.8,-151.84 2328.54,-147.32 2356.42,-118.02 2371.58,-102.09 2371.58,-84.46 2356.42,-68.53 2328.42,-39.12 1666.9,-35.68 1626.42,-32.53 1585.58,-29.34 1538.36,-23.97 1509.71,-20.52"/>
<polygon fill="red" stroke="red" stroke-width="0.11" points="1510.04,-17.04 1499.69,-19.31 1509.19,-23.99 1510.04,-17.04"/>
</g>
<!-- &#45;2&#45;&gt;6 -->
<g id="edge158" class="edge">
<title>&#45;2&#45;&gt;6</title>
<path fill="none" stroke="green" stroke-width="0.11" d="M1506.54,-161.21C1530.8,-159.7 1584.31,-156.44 1629.42,-154.02 1670.85,-151.81 2346.79,-148.06 2375.42,-118.02 2390.59,-102.1 2390.53,-84.51 2375.42,-68.53 2326.25,-16.53 1803.45,-41.17 1732.42,-32.53 1713.83,-30.27 1693.09,-26.33 1677.25,-23.02"/>
<polygon fill="green" stroke="green" stroke-width="0.11" points="1677.66,-19.53 1667.15,-20.86 1676.2,-26.38 1677.66,-19.53"/>
</g>
<!-- &#45;2&#45;&gt;7 -->
<g id="edge159" class="edge">
<title>&#45;2&#45;&gt;7</title>
<path fill="none" stroke="green" stroke-width="0.18" d="M1506.54,-161.2C1530.8,-159.69 1584.3,-156.41 1629.42,-154.02 1671.9,-151.78 2365.05,-148.81 2394.42,-118.02 2409.6,-102.11 2409.34,-84.69 2394.42,-68.53 2352.41,-23.01 1899.04,-17.89 1783.89,-17.33"/>
<polygon fill="green" stroke="green" stroke-width="0.18" points="1783.84,-13.83 1773.83,-17.29 1783.81,-20.83 1783.84,-13.83"/>
</g>
<!-- &#45;2&#45;&gt;208 -->
<g id="edge10" class="edge">
<title>&#45;2&#45;&gt;208</title>
<path fill="none" stroke="red" stroke-width="0.14" d="M1480.23,-158.21C1474.75,-156.74 1468.32,-155.14 1462.42,-154.02 1332.2,-129.41 1289.86,-166.25 1166.42,-118.02 1164.54,-117.29 1162.68,-116.43 1160.84,-115.47"/>
<polygon fill="red" stroke="red" stroke-width="0.14" points="1162.37,-112.3 1152.01,-110.09 1158.73,-118.28 1162.37,-112.3"/>
</g>
<!-- &#45;2&#45;&gt;209 -->
<g id="edge11" class="edge">
<title>&#45;2&#45;&gt;209</title>
<path fill="none" stroke="green" stroke-width="0.12" d="M1480.4,-156.22C1463.09,-148.32 1431.73,-133.41 1406.42,-118.02 1404.74,-117.01 1403.04,-115.93 1401.35,-114.82"/>
<polygon fill="green" stroke="green" stroke-width="0.12" points="1403.2,-111.85 1392.97,-109.11 1399.26,-117.63 1403.2,-111.85"/>
</g>
<!-- &#45;2&#45;&gt;210 -->
<g id="edge12" class="edge">
<title>&#45;2&#45;&gt;210</title>
<path fill="none" stroke="red" stroke-width="0.14" d="M1487.13,-153.99C1480.8,-145.9 1470.69,-132.97 1461.49,-121.21"/>
<polygon fill="red" stroke="red" stroke-width="0.14" points="1464.24,-119.05 1455.32,-113.33 1458.73,-123.36 1464.24,-119.05"/>
</g>
<!-- &#45;2&#45;&gt;211 -->
<g id="edge13" class="edge">
<title>&#45;2&#45;&gt;211</title>
<path fill="none" stroke="green" stroke-width="0.28" d="M1504.21,-153.99C1517.08,-144.41 1539.06,-128.04 1556.76,-114.87"/>
<polygon fill="green" stroke="green" stroke-width="0.28" points="1559.12,-117.48 1565.05,-108.7 1554.94,-111.86 1559.12,-117.48"/>
</g>
<!-- &#45;2&#45;&gt;213 -->
<g id="edge14" class="edge">
<title>&#45;2&#45;&gt;213</title>
<path fill="none" stroke="red" stroke-width="0.37" d="M1506.55,-161.08C1541.9,-158.2 1641.6,-147.82 1718.42,-118.02 1721.87,-116.68 1725.37,-115.04 1728.77,-113.25"/>
<polygon fill="red" stroke="red" stroke-width="0.37" points="1730.53,-116.28 1737.48,-108.28 1727.06,-110.2 1730.53,-116.28"/>
</g>
<!-- &#45;2&#45;&gt;214 -->
<g id="edge15" class="edge">
<title>&#45;2&#45;&gt;214</title>
<path fill="none" stroke="green" stroke-width="0.75" d="M1480.21,-158.32C1474.73,-156.86 1468.29,-155.24 1462.42,-154.02 1361.53,-133.13 1328.71,-157.18 1233.42,-118.02 1231.56,-117.26 1229.7,-116.37 1227.87,-115.4"/>
<polygon fill="green" stroke="green" stroke-width="0.75" points="1229.41,-112.23 1219.06,-109.96 1225.74,-118.19 1229.41,-112.23"/>
</g>
<!-- &#45;2&#45;&gt;215 -->
<g id="edge16" class="edge">
<title>&#45;2&#45;&gt;215</title>
<path fill="none" stroke="red" stroke-width="0.87" d="M1506.7,-158.7C1530.11,-152.54 1579.87,-138.15 1618.42,-118.02 1620.2,-117.09 1622,-116.08 1623.78,-115"/>
<polygon fill="red" stroke="red" stroke-width="0.87" points="1626.02,-117.71 1632.47,-109.31 1622.19,-111.86 1626.02,-117.71"/>
</g>
<!-- &#45;2&#45;&gt;216 -->
<g id="edge17" class="edge">
<title>&#45;2&#45;&gt;216</title>
<path fill="none" stroke="green" stroke-width="0.16" d="M1480.24,-158.15C1474.77,-156.66 1468.33,-155.07 1462.42,-154.02 1302.79,-125.69 1251.07,-175.34 1099.42,-118.02 1097.53,-117.31 1095.66,-116.47 1093.82,-115.52"/>
<polygon fill="green" stroke="green" stroke-width="0.16" points="1095.34,-112.35 1084.98,-110.18 1091.72,-118.34 1095.34,-112.35"/>
</g>
<!-- &#45;2&#45;&gt;217 -->
<g id="edge18" class="edge">
<title>&#45;2&#45;&gt;217</title>
<path fill="none" stroke="red" stroke-width="0.35" d="M1480.18,-158.44C1453.47,-151.15 1391.24,-133.97 1339.42,-118.02 1326.64,-114.09 1312.67,-109.54 1300.46,-105.48"/>
<polygon fill="red" stroke="red" stroke-width="0.35" points="1301.28,-102.07 1290.69,-102.22 1299.06,-108.71 1301.28,-102.07"/>
</g>
<!-- &#45;3 -->
<g id="node3" class="node">
<title>&#45;3</title>
<polygon fill="lightgray" stroke="black" points="1664.42,-172.02 1638.42,-172.02 1638.42,-154.02 1664.42,-154.02 1664.42,-172.02"/>
<text text-anchor="middle" x="1651.42" y="-160.82" font-family="Times-Roman" font-size="9.00">&#45;3</text>
</g>
<!-- &#45;3&#45;&gt;0 -->
<g id="edge160" class="edge">
<title>&#45;3&#45;&gt;0</title>
<path fill="none" stroke="red" stroke-width="0.8" d="M1664.47,-160.05C1720.49,-151.58 1937.84,-118.69 1938.42,-118.02 1952.75,-101.33 1953.49,-84.55 1938.42,-68.53 1893.41,-20.69 1413.59,-40.62 1348.42,-32.53 1329.84,-30.22 1309.1,-26.28 1293.26,-22.99"/>
<polygon fill="red" stroke="red" stroke-width="0.8" points="1293.67,-19.5 1283.16,-20.84 1292.21,-26.34 1293.67,-19.5"/>
</g>
<!-- &#45;3&#45;&gt;1 -->
<g id="edge161" class="edge">
<title>&#45;3&#45;&gt;1</title>
<path fill="none" stroke="green" stroke-width="0.52" d="M1638.29,-161.14C1614.04,-159.53 1560.54,-156.1 1515.42,-154.02 1455.11,-151.25 471.39,-161.41 429.42,-118.02 414.12,-102.21 414.5,-84.69 429.42,-68.53 471.42,-23.01 924.79,-17.89 1039.94,-17.33"/>
<polygon fill="green" stroke="green" stroke-width="0.52" points="1040.02,-20.83 1050.01,-17.29 1039.99,-13.83 1040.02,-20.83"/>
</g>
<!-- &#45;3&#45;&gt;2 -->
<g id="edge162" class="edge">
<title>&#45;3&#45;&gt;2</title>
<path fill="none" stroke="green" stroke-width="0.17" d="M1664.45,-159.75C1675.15,-157.95 1690.72,-155.51 1704.42,-154.02 1763.98,-147.55 2201.49,-161.78 2242.42,-118.02 2257.44,-101.96 2257.63,-84.41 2242.42,-68.53 2178.18,-1.46 1497.78,-53.93 1407.42,-32.53 1403.85,-31.68 1400.19,-30.46 1396.66,-29.07"/>
<polygon fill="green" stroke="green" stroke-width="0.17" points="1397.78,-25.74 1387.22,-24.89 1394.95,-32.14 1397.78,-25.74"/>
</g>
<!-- &#45;3&#45;&gt;3 -->
<g id="edge163" class="edge">
<title>&#45;3&#45;&gt;3</title>
<path fill="none" stroke="green" stroke-width="0.2" d="M1664.5,-159.91C1696.27,-154.48 1776.04,-138.97 1791.42,-118.02 1804.43,-100.29 1806.45,-84.58 1791.42,-68.53 1749.63,-23.91 1302.24,-45.09 1242.42,-32.53 1236.63,-31.31 1230.56,-29.47 1224.9,-27.47"/>
<polygon fill="green" stroke="green" stroke-width="0.2" points="1225.87,-24.1 1215.28,-23.83 1223.39,-30.65 1225.87,-24.1"/>
</g>
<!-- &#45;3&#45;&gt;4 -->
<g id="edge164" class="edge">
<title>&#45;3&#45;&gt;4</title>
<path fill="none" stroke="red" stroke-width="0.18" d="M1664.44,-159.7C1675.14,-157.87 1690.71,-155.41 1704.42,-154.02 1742.61,-150.16 2367.99,-145.87 2394.42,-118.02 2409.56,-102.07 2409.67,-84.38 2394.42,-68.53 2358.33,-31.03 1508.36,-47.14 1458.42,-32.53 1457.14,-32.15 1455.87,-31.71 1454.61,-31.2"/>
<polygon fill="red" stroke="red" stroke-width="0.18" points="1455.84,-27.9 1445.33,-26.53 1452.69,-34.15 1455.84,-27.9"/>
</g>
<!-- &#45;3&#45;&gt;5 -->
<g id="edge165" class="edge">
<title>&#45;3&#45;&gt;5</title>
<path fill="none" stroke="red" stroke-width="0.59" d="M1664.44,-159.7C1675.14,-157.88 1690.72,-155.42 1704.42,-154.02 1778.69,-146.44 2324.06,-172.21 2375.42,-118.02 2390.55,-102.06 2390.59,-84.45 2375.42,-68.53 2346.67,-38.37 1667.95,-35.74 1626.42,-32.53 1585.58,-29.37 1538.36,-23.99 1509.71,-20.53"/>
<polygon fill="red" stroke="red" stroke-width="0.59" points="1510.04,-17.05 1499.69,-19.31 1509.19,-24 1510.04,-17.05"/>
</g>
<!-- &#45;3&#45;&gt;6 -->
<g id="edge166" class="edge">
<title>&#45;3&#45;&gt;6</title>
<path fill="none" stroke="green" stroke-width="0.59" d="M1664.43,-159.63C1675.13,-157.76 1690.7,-155.29 1704.42,-154.02 1763.64,-148.58 2733.07,-160.78 2774.42,-118.02 2789.71,-102.21 2789.7,-84.35 2774.42,-68.53 2734.17,-26.87 1789.99,-38.91 1732.42,-32.53 1713.81,-30.46 1693.07,-26.52 1677.23,-23.16"/>
<polygon fill="green" stroke="green" stroke-width="0.59" points="1677.66,-19.67 1667.14,-20.96 1676.16,-26.51 1677.66,-19.67"/>
</g>
<!-- &#45;3&#45;&gt;7 -->
<g id="edge167" class="edge">
<title>&#45;3&#45;&gt;7</title>
<path fill="none" stroke="red" stroke-width="0.18" d="M1664.43,-159.61C1675.13,-157.74 1690.7,-155.26 1704.42,-154.02 1772.06,-147.94 2879.1,-166.75 2926.42,-118.02 2941.74,-102.24 2941.63,-84.42 2926.42,-68.53 2885.57,-25.85 1953.55,-18.4 1783.82,-17.4"/>
<polygon fill="red" stroke="red" stroke-width="0.18" points="1783.78,-13.9 1773.76,-17.34 1783.74,-20.9 1783.78,-13.9"/>
</g>
<!-- &#45;3&#45;&gt;208 -->
<g id="edge19" class="edge">
<title>&#45;3&#45;&gt;208</title>
<path fill="none" stroke="green" stroke-width="0.28" d="M1638.36,-161.25C1565.61,-156.9 1211.86,-134.98 1166.42,-118.02 1164.53,-117.32 1162.66,-116.48 1160.82,-115.54"/>
<polygon fill="green" stroke="green" stroke-width="0.28" points="1162.34,-112.37 1151.96,-110.21 1158.72,-118.37 1162.34,-112.37"/>
</g>
<!-- &#45;3&#45;&gt;209 -->
<g id="edge20" class="edge">
<title>&#45;3&#45;&gt;209</title>
<path fill="none" stroke="green" stroke-width="0.12" d="M1638.35,-161.69C1600.78,-160.32 1489.78,-153.34 1406.42,-118.02 1404.56,-117.24 1402.72,-116.34 1400.89,-115.35"/>
<polygon fill="green" stroke="green" stroke-width="0.12" points="1402.43,-112.19 1392.09,-109.88 1398.74,-118.13 1402.43,-112.19"/>
</g>
<!-- &#45;3&#45;&gt;210 -->
<g id="edge21" class="edge">
<title>&#45;3&#45;&gt;210</title>
<path fill="none" stroke="green" stroke-width="0.18" d="M1638.22,-157.79C1605.69,-147.34 1520.89,-120.11 1473.56,-104.92"/>
<polygon fill="green" stroke="green" stroke-width="0.18" points="1474.38,-101.5 1463.79,-101.78 1472.24,-108.17 1474.38,-101.5"/>
</g>
<!-- &#45;3&#45;&gt;211 -->
<g id="edge22" class="edge">
<title>&#45;3&#45;&gt;211</title>
<path fill="none" stroke="green" stroke-width="0.23" d="M1643.47,-153.99C1634.91,-145.34 1620.89,-131.15 1608.65,-118.78"/>
<polygon fill="green" stroke="green" stroke-width="0.23" points="1610.85,-116.02 1601.33,-111.38 1605.87,-120.95 1610.85,-116.02"/>
</g>
<!-- &#45;3&#45;&gt;213 -->
<g id="edge23" class="edge">
<title>&#45;3&#45;&gt;213</title>
<path fill="none" stroke="green" stroke-width="0.46" d="M1663.99,-153.99C1679.73,-143.93 1707.18,-126.38 1728.27,-112.91"/>
<polygon fill="green" stroke="green" stroke-width="0.46" points="1730.32,-115.75 1736.86,-107.41 1726.55,-109.85 1730.32,-115.75"/>
</g>
<!-- &#45;3&#45;&gt;214 -->
<g id="edge24" class="edge">
<title>&#45;3&#45;&gt;214</title>
<path fill="none" stroke="green" stroke-width="0.14" d="M1638.03,-161.03C1570.84,-155.96 1272.11,-132.78 1233.42,-118.02 1231.54,-117.31 1229.67,-116.46 1227.83,-115.51"/>
<polygon fill="green" stroke="green" stroke-width="0.14" points="1229.35,-112.34 1218.98,-110.15 1225.72,-118.33 1229.35,-112.34"/>
</g>
<!-- &#45;3&#45;&gt;215 -->
<g id="edge25" class="edge">
<title>&#45;3&#45;&gt;215</title>
<path fill="none" stroke="red" stroke-width="0.49" d="M1651.42,-153.99C1651.42,-147.55 1651.42,-138.05 1651.42,-128.52"/>
<polygon fill="red" stroke="red" stroke-width="0.49" points="1654.92,-128.3 1651.42,-118.3 1647.92,-128.3 1654.92,-128.3"/>
</g>
<!-- &#45;3&#45;&gt;216 -->
<g id="edge26" class="edge">
<title>&#45;3&#45;&gt;216</title>
<path fill="none" stroke="red" stroke-width="0.59" d="M1638.2,-161.17C1556.74,-155.9 1125.56,-127.62 1099.42,-118.02 1097.53,-117.33 1095.65,-116.5 1093.81,-115.57"/>
<polygon fill="red" stroke="red" stroke-width="0.59" points="1095.32,-112.39 1084.95,-110.25 1091.72,-118.4 1095.32,-112.39"/>
</g>
<!-- &#45;3&#45;&gt;217 -->
<g id="edge27" class="edge">
<title>&#45;3&#45;&gt;217</title>
<path fill="none" stroke="red" stroke-width="0.12" d="M1638.18,-161.01C1594.85,-157.5 1453.41,-144.64 1339.42,-118.02 1326.4,-114.99 1312.38,-110.62 1300.2,-106.46"/>
<polygon fill="red" stroke="red" stroke-width="0.12" points="1301.06,-103.05 1290.46,-103.04 1298.74,-109.66 1301.06,-103.05"/>
</g>
<!-- &#45;4 -->
<g id="node4" class="node">
<title>&#45;4</title>
<polygon fill="lightgray" stroke="black" points="1386.42,-172.02 1360.42,-172.02 1360.42,-154.02 1386.42,-154.02 1386.42,-172.02"/>
<text text-anchor="middle" x="1373.42" y="-160.82" font-family="Times-Roman" font-size="9.00">&#45;4</text>
</g>
<!-- &#45;4&#45;&gt;0 -->
<g id="edge168" class="edge">
<title>&#45;4&#45;&gt;0</title>
<path fill="none" stroke="green" stroke-width="0.3" d="M1360.34,-160.61C1343.83,-158.86 1314.54,-155.9 1289.42,-154.02 1252.24,-151.26 645.06,-145.08 619.42,-118.02 604.28,-102.06 604.33,-84.54 619.42,-68.53 665.68,-19.44 1159.36,-46.19 1225.42,-32.53 1231.3,-31.31 1237.48,-29.43 1243.22,-27.4"/>
<polygon fill="green" stroke="green" stroke-width="0.3" points="1244.85,-30.53 1252.95,-23.7 1242.36,-23.99 1244.85,-30.53"/>
</g>
<!-- &#45;4&#45;&gt;1 -->
<g id="edge169" class="edge">
<title>&#45;4&#45;&gt;1</title>
<path fill="none" stroke="red" stroke-width="0.17" d="M1360.34,-160.52C1343.84,-158.68 1314.56,-155.61 1289.42,-154.02 1224.85,-149.96 170.45,-164.47 125.42,-118.02 110.1,-102.23 110.29,-84.5 125.42,-68.53 157.73,-34.41 889.96,-20.24 1039.78,-17.69"/>
<polygon fill="red" stroke="red" stroke-width="0.17" points="1039.98,-21.19 1049.92,-17.52 1039.86,-14.19 1039.98,-21.19"/>
</g>
<!-- &#45;4&#45;&gt;2 -->
<g id="edge170" class="edge">
<title>&#45;4&#45;&gt;2</title>
<path fill="none" stroke="red" stroke-width="0.67" d="M1360.11,-160.8C1298.52,-155.07 1043.5,-130.63 1032.42,-118.02 890.66,43.2 909.13,-95.14 1292.42,-32.53 1310.89,-29.51 1331.63,-25.59 1347.5,-22.48"/>
<polygon fill="red" stroke="red" stroke-width="0.67" points="1348.5,-25.85 1357.63,-20.47 1347.14,-18.98 1348.5,-25.85"/>
</g>
<!-- &#45;4&#45;&gt;3 -->
<g id="edge171" class="edge">
<title>&#45;4&#45;&gt;3</title>
<path fill="none" stroke="red" stroke-width="0.21" d="M1360.34,-160.54C1343.83,-158.73 1314.56,-155.68 1289.42,-154.02 1235.39,-150.46 352.99,-157.01 315.42,-118.02 300.15,-102.18 300.23,-84.44 315.42,-68.53 345.22,-37.31 1048.44,-36.52 1091.42,-32.53 1119.87,-29.88 1152.27,-25.12 1174.3,-21.61"/>
<polygon fill="red" stroke="red" stroke-width="0.21" points="1174.91,-25.06 1184.22,-20.01 1173.79,-18.15 1174.91,-25.06"/>
</g>
<!-- &#45;4&#45;&gt;4 -->
<g id="edge172" class="edge">
<title>&#45;4&#45;&gt;4</title>
<path fill="none" stroke="red" stroke-width="0.23" d="M1386.76,-159.36C1395.69,-157.65 1407.72,-155.49 1418.42,-154.02 1459.67,-148.38 1763.42,-148.85 1791.42,-118.02 1806.21,-101.74 1806.11,-84.9 1791.42,-68.53 1741.69,-13.14 1529.09,-55.89 1458.42,-32.53 1457.16,-32.11 1455.9,-31.63 1454.64,-31.1"/>
<polygon fill="red" stroke="red" stroke-width="0.23" points="1455.89,-27.8 1445.39,-26.33 1452.68,-34.02 1455.89,-27.8"/>
</g>
<!-- &#45;4&#45;&gt;5 -->
<g id="edge173" class="edge">
<title>&#45;4&#45;&gt;5</title>
<path fill="none" stroke="green" stroke-width="0.21" d="M1386.76,-159.35C1395.69,-157.63 1407.72,-155.46 1418.42,-154.02 1461.76,-148.19 1780.94,-150.34 1810.42,-118.02 1825.24,-101.77 1824.72,-85.24 1810.42,-68.53 1800.58,-57.03 1585.54,-29.75 1509.65,-20.44"/>
<polygon fill="green" stroke="green" stroke-width="0.21" points="1509.85,-16.94 1499.5,-19.2 1509.01,-23.89 1509.85,-16.94"/>
</g>
<!-- &#45;4&#45;&gt;6 -->
<g id="edge174" class="edge">
<title>&#45;4&#45;&gt;6</title>
<path fill="none" stroke="red" stroke-width="0.22" d="M1386.76,-159.33C1395.69,-157.61 1407.72,-155.44 1418.42,-154.02 1463.86,-148.01 1798.45,-151.82 1829.42,-118.02 1844.28,-101.8 1842.65,-86.1 1829.42,-68.53 1820.11,-56.16 1724.15,-33.41 1677.12,-22.88"/>
<polygon fill="red" stroke="red" stroke-width="0.22" points="1677.6,-19.4 1667.08,-20.65 1676.09,-26.23 1677.6,-19.4"/>
</g>
<!-- &#45;4&#45;&gt;7 -->
<g id="edge175" class="edge">
<title>&#45;4&#45;&gt;7</title>
<path fill="none" stroke="green" stroke-width="0.6" d="M1386.76,-159.32C1395.68,-157.59 1407.72,-155.42 1418.42,-154.02 1465.96,-147.82 1815.96,-153.31 1848.42,-118.02 1863.31,-101.83 1859.52,-87.52 1848.42,-68.53 1834.36,-44.47 1804.39,-30.82 1782.68,-23.76"/>
<polygon fill="green" stroke="green" stroke-width="0.6" points="1783.66,-20.4 1773.08,-20.88 1781.65,-27.1 1783.66,-20.4"/>
</g>
<!-- &#45;4&#45;&gt;208 -->
<g id="edge28" class="edge">
<title>&#45;4&#45;&gt;208</title>
<path fill="none" stroke="green" stroke-width="0.22" d="M1360.24,-161.11C1326.6,-158.38 1235.29,-148.5 1166.42,-118.02 1164.58,-117.21 1162.74,-116.28 1160.92,-115.28"/>
<polygon fill="green" stroke="green" stroke-width="0.22" points="1162.47,-112.12 1152.14,-109.77 1158.75,-118.05 1162.47,-112.12"/>
</g>
<!-- &#45;4&#45;&gt;209 -->
<g id="edge29" class="edge">
<title>&#45;4&#45;&gt;209</title>
<path fill="none" stroke="green" stroke-width="0.15" d="M1373.42,-153.99C1373.42,-147.55 1373.42,-138.05 1373.42,-128.52"/>
<polygon fill="green" stroke="green" stroke-width="0.15" points="1376.92,-128.3 1373.42,-118.3 1369.92,-128.3 1376.92,-128.3"/>
</g>
<!-- &#45;4&#45;&gt;210 -->
<g id="edge30" class="edge">
<title>&#45;4&#45;&gt;210</title>
<path fill="none" stroke="red" stroke-width="0.32" d="M1381.37,-153.99C1389.92,-145.34 1403.95,-131.15 1416.18,-118.78"/>
<polygon fill="red" stroke="red" stroke-width="0.32" points="1418.96,-120.95 1423.51,-111.38 1413.99,-116.02 1418.96,-120.95"/>
</g>
<!-- &#45;4&#45;&gt;211 -->
<g id="edge31" class="edge">
<title>&#45;4&#45;&gt;211</title>
<path fill="none" stroke="red" stroke-width="0.38" d="M1386.42,-159.22C1421.25,-151.64 1515.95,-130.44 1545.42,-118.02 1548.83,-116.59 1552.3,-114.88 1555.69,-113.05"/>
<polygon fill="red" stroke="red" stroke-width="0.38" points="1557.47,-116.07 1564.38,-108.04 1553.97,-110.01 1557.47,-116.07"/>
</g>
<!-- &#45;4&#45;&gt;213 -->
<g id="edge32" class="edge">
<title>&#45;4&#45;&gt;213</title>
<path fill="none" stroke="red" stroke-width="0.14" d="M1386.77,-159.45C1395.71,-157.77 1407.74,-155.61 1418.42,-154.02 1551.24,-134.26 1591.51,-161.95 1718.42,-118.02 1721.92,-116.81 1725.44,-115.25 1728.86,-113.51"/>
<polygon fill="red" stroke="red" stroke-width="0.14" points="1730.6,-116.55 1737.59,-108.59 1727.16,-110.45 1730.6,-116.55"/>
</g>
<!-- &#45;4&#45;&gt;214 -->
<g id="edge33" class="edge">
<title>&#45;4&#45;&gt;214</title>
<path fill="none" stroke="green" stroke-width="0.1" d="M1360.14,-159.34C1334.63,-153.87 1277.39,-140.04 1233.42,-118.02 1231.62,-117.12 1229.81,-116.13 1228.02,-115.07"/>
<polygon fill="green" stroke="green" stroke-width="0.1" points="1229.6,-111.93 1219.3,-109.43 1225.79,-117.8 1229.6,-111.93"/>
</g>
<!-- &#45;4&#45;&gt;215 -->
<g id="edge34" class="edge">
<title>&#45;4&#45;&gt;215</title>
<path fill="none" stroke="red" stroke-width="0.2" d="M1386.51,-159.69C1437.09,-150.68 1617.05,-118.6 1618.42,-118.02 1620.27,-117.24 1622.12,-116.34 1623.94,-115.35"/>
<polygon fill="red" stroke="red" stroke-width="0.2" points="1626.09,-118.13 1632.74,-109.88 1622.4,-112.19 1626.09,-118.13"/>
</g>
<!-- &#45;4&#45;&gt;216 -->
<g id="edge35" class="edge">
<title>&#45;4&#45;&gt;216</title>
<path fill="none" stroke="green" stroke-width="0.17" d="M1360.31,-160.73C1312.52,-155.88 1147.96,-138.06 1099.42,-118.02 1097.56,-117.26 1095.7,-116.37 1093.88,-115.39"/>
<polygon fill="green" stroke="green" stroke-width="0.17" points="1095.41,-112.22 1085.06,-109.95 1091.74,-118.18 1095.41,-112.22"/>
</g>
<!-- &#45;4&#45;&gt;217 -->
<g id="edge36" class="edge">
<title>&#45;4&#45;&gt;217</title>
<path fill="none" stroke="red" stroke-width="0.45" d="M1360.84,-153.99C1345.1,-143.93 1317.65,-126.38 1296.57,-112.91"/>
<polygon fill="red" stroke="red" stroke-width="0.45" points="1298.28,-109.85 1287.97,-107.41 1294.51,-115.75 1298.28,-109.85"/>
</g>
<!-- &#45;5 -->
<g id="node5" class="node">
<title>&#45;5</title>
<polygon fill="lightgray" stroke="black" points="1739.42,-172.02 1713.42,-172.02 1713.42,-154.02 1739.42,-154.02 1739.42,-172.02"/>
<text text-anchor="middle" x="1726.42" y="-160.82" font-family="Times-Roman" font-size="9.00">&#45;5</text>
</g>
<!-- &#45;5&#45;&gt;0 -->
<g id="edge176" class="edge">
<title>&#45;5&#45;&gt;0</title>
<path fill="none" stroke="green" stroke-width="0.3" d="M1739.51,-161.63C1784.18,-159.96 1929.31,-151.99 1957.42,-118.02 1971.44,-101.08 1972.51,-84.53 1957.42,-68.53 1910.92,-19.2 1415.69,-40.82 1348.42,-32.53 1329.84,-30.24 1309.1,-26.3 1293.25,-23"/>
<polygon fill="green" stroke="green" stroke-width="0.3" points="1293.67,-19.51 1283.15,-20.84 1292.2,-26.36 1293.67,-19.51"/>
</g>
<!-- &#45;5&#45;&gt;1 -->
<g id="edge177" class="edge">
<title>&#45;5&#45;&gt;1</title>
<path fill="none" stroke="red" stroke-width="0.29" d="M1713.39,-159.71C1702.69,-157.89 1687.12,-155.44 1673.42,-154.02 1602.46,-146.69 1081.42,-169.86 1032.42,-118.02 1011.05,-95.42 1032.53,-58.93 1049.72,-36.62"/>
<polygon fill="red" stroke="red" stroke-width="0.29" points="1052.45,-38.8 1056,-28.82 1047,-34.41 1052.45,-38.8"/>
</g>
<!-- &#45;5&#45;&gt;2 -->
<g id="edge178" class="edge">
<title>&#45;5&#45;&gt;2</title>
<path fill="none" stroke="green" stroke-width="0.23" d="M1739.43,-161.98C1817.8,-161.59 2224.91,-157.65 2261.42,-118.02 2276.32,-101.84 2276.64,-84.41 2261.42,-68.53 2228.55,-34.25 1453.63,-43.45 1407.42,-32.53 1403.85,-31.68 1400.19,-30.46 1396.66,-29.08"/>
<polygon fill="green" stroke="green" stroke-width="0.23" points="1397.78,-25.75 1387.22,-24.9 1394.95,-32.15 1397.78,-25.75"/>
</g>
<!-- &#45;5&#45;&gt;3 -->
<g id="edge179" class="edge">
<title>&#45;5&#45;&gt;3</title>
<path fill="none" stroke="red" stroke-width="0.34" d="M1739.53,-159.55C1758.99,-155.08 1794.91,-143.66 1810.42,-118.02 1821.81,-99.2 1825.47,-84.57 1810.42,-68.53 1767.14,-22.42 1304.32,-45.46 1242.42,-32.53 1236.53,-31.3 1230.36,-29.41 1224.62,-27.38"/>
<polygon fill="red" stroke="red" stroke-width="0.34" points="1225.48,-23.97 1214.89,-23.68 1222.99,-30.51 1225.48,-23.97"/>
</g>
<!-- &#45;5&#45;&gt;4 -->
<g id="edge180" class="edge">
<title>&#45;5&#45;&gt;4</title>
<path fill="none" stroke="green" stroke-width="0.22" d="M1739.63,-161.69C1832.94,-159.24 2389.45,-143.58 2413.42,-118.02 2428.47,-101.98 2428.68,-84.37 2413.42,-68.53 2376.59,-30.28 1509.38,-47.42 1458.42,-32.53 1457.14,-32.16 1455.87,-31.71 1454.61,-31.2"/>
<polygon fill="green" stroke="green" stroke-width="0.22" points="1455.84,-27.9 1445.33,-26.53 1452.69,-34.15 1455.84,-27.9"/>
</g>
<!-- &#45;5&#45;&gt;5 -->
<g id="edge181" class="edge">
<title>&#45;5&#45;&gt;5</title>
<path fill="none" stroke="red" stroke-width="1.04" d="M1739.63,-162.21C1829.42,-163.33 2348,-167.6 2394.42,-118.02 2409.45,-101.97 2409.6,-84.44 2394.42,-68.53 2364.93,-37.62 1669,-35.8 1626.42,-32.53 1585.58,-29.39 1538.36,-24.01 1509.71,-20.54"/>
<polygon fill="red" stroke="red" stroke-width="1.04" points="1510.04,-17.06 1499.69,-19.32 1509.19,-24.01 1510.04,-17.06"/>
</g>
<!-- &#45;5&#45;&gt;6 -->
<g id="edge182" class="edge">
<title>&#45;5&#45;&gt;6</title>
<path fill="none" stroke="green" stroke-width="0.79" d="M1739.7,-162.02C1863.39,-161.96 2809.93,-160.12 2850.42,-118.02 2865.66,-102.17 2865.72,-84.33 2850.42,-68.53 2807.19,-23.88 1794.19,-39.3 1732.42,-32.53 1713.81,-30.49 1693.07,-26.55 1677.23,-23.18"/>
<polygon fill="green" stroke="green" stroke-width="0.79" points="1677.66,-19.69 1667.14,-20.97 1676.16,-26.53 1677.66,-19.69"/>
</g>
<!-- &#45;5&#45;&gt;7 -->
<g id="edge183" class="edge">
<title>&#45;5&#45;&gt;7</title>
<path fill="none" stroke="green" stroke-width="0.11" d="M1739.79,-162.07C1870.73,-162.5 2919.61,-164.45 2964.42,-118.02 2979.69,-102.19 2979.64,-84.41 2964.42,-68.53 2922.15,-24.43 1956.94,-18.14 1783.86,-17.36"/>
<polygon fill="green" stroke="green" stroke-width="0.11" points="1783.85,-13.86 1773.84,-17.32 1783.82,-20.86 1783.85,-13.86"/>
</g>
<!-- &#45;5&#45;&gt;208 -->
<g id="edge37" class="edge">
<title>&#45;5&#45;&gt;208</title>
<path fill="none" stroke="green" stroke-width="0.2" d="M1713.39,-159.76C1702.68,-157.98 1687.11,-155.54 1673.42,-154.02 1561.15,-141.59 1272.62,-156.47 1166.42,-118.02 1164.53,-117.34 1162.65,-116.51 1160.8,-115.58"/>
<polygon fill="green" stroke="green" stroke-width="0.2" points="1162.31,-112.41 1151.94,-110.28 1158.72,-118.42 1162.31,-112.41"/>
</g>
<!-- &#45;5&#45;&gt;209 -->
<g id="edge38" class="edge">
<title>&#45;5&#45;&gt;209</title>
<path fill="none" stroke="green" stroke-width="0.27" d="M1713.36,-159.99C1702.63,-158.34 1687.05,-155.97 1673.42,-154.02 1554.88,-137.09 1517.66,-162.32 1406.42,-118.02 1404.55,-117.28 1402.69,-116.41 1400.85,-115.44"/>
<polygon fill="green" stroke="green" stroke-width="0.27" points="1402.38,-112.28 1392.03,-110.04 1398.73,-118.25 1402.38,-112.28"/>
</g>
<!-- &#45;5&#45;&gt;210 -->
<g id="edge39" class="edge">
<title>&#45;5&#45;&gt;210</title>
<path fill="none" stroke="red" stroke-width="0.18" d="M1713.38,-158.94C1671.25,-148.96 1537.8,-117.34 1474.44,-102.33"/>
<polygon fill="red" stroke="red" stroke-width="0.18" points="1475.07,-98.89 1464.54,-99.99 1473.46,-105.7 1475.07,-98.89"/>
</g>
<!-- &#45;5&#45;&gt;211 -->
<g id="edge40" class="edge">
<title>&#45;5&#45;&gt;211</title>
<path fill="none" stroke="green" stroke-width="0.3" d="M1713.2,-157.84C1692.22,-150.95 1650.3,-136.15 1617.42,-118.02 1615.65,-117.05 1613.88,-116 1612.11,-114.91"/>
<polygon fill="green" stroke="green" stroke-width="0.3" points="1613.71,-111.77 1603.45,-109.15 1609.84,-117.6 1613.71,-111.77"/>
</g>
<!-- &#45;5&#45;&gt;213 -->
<g id="edge41" class="edge">
<title>&#45;5&#45;&gt;213</title>
<path fill="none" stroke="red" stroke-width="0.14" d="M1730.09,-153.99C1733.34,-146.9 1738.28,-136.11 1743.07,-125.63"/>
<polygon fill="red" stroke="red" stroke-width="0.14" points="1746.4,-126.77 1747.38,-116.22 1740.03,-123.86 1746.4,-126.77"/>
</g>
<!-- &#45;5&#45;&gt;214 -->
<g id="edge42" class="edge">
<title>&#45;5&#45;&gt;214</title>
<path fill="none" stroke="green" stroke-width="0.35" d="M1713.38,-159.8C1702.67,-158.04 1687.1,-155.61 1673.42,-154.02 1478.52,-131.37 1417.55,-185.8 1233.42,-118.02 1231.53,-117.33 1229.65,-116.49 1227.81,-115.56"/>
<polygon fill="green" stroke="green" stroke-width="0.35" points="1229.33,-112.39 1218.95,-110.24 1225.72,-118.39 1229.33,-112.39"/>
</g>
<!-- &#45;5&#45;&gt;215 -->
<g id="edge43" class="edge">
<title>&#45;5&#45;&gt;215</title>
<path fill="none" stroke="red" stroke-width="0.27" d="M1717.52,-153.99C1707.57,-145 1691,-130.03 1676.94,-117.33"/>
<polygon fill="red" stroke="red" stroke-width="0.27" points="1679.21,-114.66 1669.44,-110.56 1674.52,-119.86 1679.21,-114.66"/>
</g>
<!-- &#45;5&#45;&gt;217 -->
<g id="edge44" class="edge">
<title>&#45;5&#45;&gt;217</title>
<path fill="none" stroke="green" stroke-width="0.16" d="M1713.37,-159.9C1702.66,-158.19 1687.08,-155.79 1673.42,-154.02 1525.35,-134.88 1485.35,-149.58 1339.42,-118.02 1326.35,-115.2 1312.32,-110.88 1300.15,-106.69"/>
<polygon fill="green" stroke="green" stroke-width="0.16" points="1301.01,-103.29 1290.42,-103.24 1298.67,-109.88 1301.01,-103.29"/>
</g>
<!-- &#45;6 -->
<g id="node6" class="node">
<title>&#45;6</title>
<polygon fill="lightgray" stroke="black" points="1180.42,-172.02 1154.42,-172.02 1154.42,-154.02 1180.42,-154.02 1180.42,-172.02"/>
<text text-anchor="middle" x="1167.42" y="-160.82" font-family="Times-Roman" font-size="9.00">&#45;6</text>
</g>
<!-- &#45;6&#45;&gt;0 -->
<g id="edge184" class="edge">
<title>&#45;6&#45;&gt;0</title>
<path fill="none" stroke="red" stroke-width="0.44" d="M1154.15,-162.13C1068.33,-162.69 593.93,-163.68 551.42,-118.02 536.43,-101.92 536.28,-84.49 551.42,-68.53 603.01,-14.1 1151.93,-47.5 1225.42,-32.53 1231.31,-31.33 1237.48,-29.45 1243.23,-27.43"/>
<polygon fill="red" stroke="red" stroke-width="0.44" points="1244.85,-30.55 1252.95,-23.72 1242.36,-24.01 1244.85,-30.55"/>
</g>
<!-- &#45;6&#45;&gt;1 -->
<g id="edge185" class="edge">
<title>&#45;6&#45;&gt;1</title>
<path fill="none" stroke="red" stroke-width="0.24" d="M1154.15,-162.04C1028.58,-162.12 53.12,-161.34 11.42,-118.02 -3.84,-102.18 -3.76,-84.46 11.42,-68.53 47.97,-30.15 879,-19.28 1039.66,-17.53"/>
<polygon fill="red" stroke="red" stroke-width="0.24" points="1040.09,-21.03 1050.05,-17.42 1040.02,-14.03 1040.09,-21.03"/>
</g>
<!-- &#45;6&#45;&gt;2 -->
<g id="edge186" class="edge">
<title>&#45;6&#45;&gt;2</title>
<path fill="none" stroke="red" stroke-width="0.47" d="M1154.34,-161.36C1112.41,-158.92 982.54,-148.96 957.42,-118.02 943.55,-100.95 942.72,-84.89 957.42,-68.53 1007.45,-12.83 1218.35,-43.47 1292.42,-32.53 1310.93,-29.79 1331.68,-25.87 1347.54,-22.68"/>
<polygon fill="red" stroke="red" stroke-width="0.47" points="1348.55,-26.05 1357.65,-20.62 1347.15,-19.19 1348.55,-26.05"/>
</g>
<!-- &#45;6&#45;&gt;3 -->
<g id="edge187" class="edge">
<title>&#45;6&#45;&gt;3</title>
<path fill="none" stroke="green" stroke-width="0.25" d="M1154.24,-161.92C1042.55,-161 258.05,-153.26 224.42,-118.02 209.23,-102.11 209.19,-84.4 224.42,-68.53 257.79,-33.74 1043.4,-36.87 1091.42,-32.53 1119.87,-29.95 1152.27,-25.18 1174.3,-21.65"/>
<polygon fill="green" stroke="green" stroke-width="0.25" points="1174.92,-25.1 1184.22,-20.04 1173.79,-18.19 1174.92,-25.1"/>
</g>
<!-- &#45;6&#45;&gt;4 -->
<g id="edge188" class="edge">
<title>&#45;6&#45;&gt;4</title>
<path fill="none" stroke="red" stroke-width="0.31" d="M1154.33,-160.52C1118.97,-156.15 1022.95,-142.23 1004.42,-118.02 991.04,-100.56 989.59,-84.77 1004.42,-68.53 1063.69,-3.59 1313.37,-54.84 1398.42,-32.53 1401.9,-31.61 1405.48,-30.37 1408.94,-29"/>
<polygon fill="red" stroke="red" stroke-width="0.31" points="1410.51,-32.13 1418.24,-24.89 1407.68,-25.73 1410.51,-32.13"/>
</g>
<!-- &#45;6&#45;&gt;5 -->
<g id="edge189" class="edge">
<title>&#45;6&#45;&gt;5</title>
<path fill="none" stroke="red" stroke-width="0.27" d="M1154.23,-162.82C1124.22,-163.81 1050.87,-161.45 1018.42,-118.02 1005.25,-100.4 1003.51,-84.71 1018.42,-68.53 1084.74,3.46 1364.09,-62.05 1457.42,-32.53 1458.68,-32.13 1459.95,-31.66 1461.21,-31.14"/>
<polygon fill="red" stroke="red" stroke-width="0.27" points="1463.15,-34.07 1470.46,-26.4 1459.97,-27.84 1463.15,-34.07"/>
</g>
<!-- &#45;6&#45;&gt;6 -->
<g id="edge190" class="edge">
<title>&#45;6&#45;&gt;6</title>
<path fill="none" stroke="red" stroke-width="0.44" d="M1180.77,-156.63C1183.59,-155.65 1186.57,-154.71 1189.42,-154.02 1313.51,-124.02 1354.55,-161.98 1474.42,-118.02 1512.26,-104.15 1515.5,-88.68 1550.42,-68.53 1576.29,-53.59 1607.03,-38.33 1627.74,-28.39"/>
<polygon fill="red" stroke="red" stroke-width="0.44" points="1629.25,-31.55 1636.77,-24.08 1626.24,-25.23 1629.25,-31.55"/>
</g>
<!-- &#45;6&#45;&gt;7 -->
<g id="edge191" class="edge">
<title>&#45;6&#45;&gt;7</title>
<path fill="none" stroke="green" stroke-width="0.45" d="M1180.73,-156.49C1183.56,-155.51 1186.55,-154.62 1189.42,-154.02 1255.03,-140.43 1745.47,-166.8 1791.42,-118.02 1812.74,-95.38 1791.27,-58.9 1774.1,-36.6"/>
<polygon fill="green" stroke="green" stroke-width="0.45" points="1776.82,-34.41 1767.83,-28.81 1771.37,-38.8 1776.82,-34.41"/>
</g>
<!-- &#45;6&#45;&gt;208 -->
<g id="edge45" class="edge">
<title>&#45;6&#45;&gt;208</title>
<path fill="none" stroke="green" stroke-width="0.47" d="M1163.38,-153.99C1159.74,-146.72 1154.13,-135.55 1148.75,-124.83"/>
<polygon fill="green" stroke="green" stroke-width="0.47" points="1151.75,-123 1144.13,-115.63 1145.49,-126.14 1151.75,-123"/>
</g>
<!-- &#45;6&#45;&gt;209 -->
<g id="edge46" class="edge">
<title>&#45;6&#45;&gt;209</title>
<path fill="none" stroke="red" stroke-width="0.21" d="M1180.42,-157.2C1183.37,-156.14 1186.49,-155.02 1189.42,-154.02 1238.88,-137.09 1251.7,-134.21 1301.42,-118.02 1314.13,-113.89 1328.09,-109.29 1340.3,-105.26"/>
<polygon fill="red" stroke="red" stroke-width="0.21" points="1341.69,-108.48 1350.08,-102.02 1339.49,-101.84 1341.69,-108.48"/>
</g>
<!-- &#45;6&#45;&gt;210 -->
<g id="edge47" class="edge">
<title>&#45;6&#45;&gt;210</title>
<path fill="none" stroke="green" stroke-width="0.24" d="M1180.79,-156.72C1183.61,-155.72 1186.59,-154.77 1189.42,-154.02 1284.41,-129.14 1316.73,-155.7 1407.42,-118.02 1409.27,-117.25 1411.13,-116.36 1412.95,-115.38"/>
<polygon fill="green" stroke="green" stroke-width="0.24" points="1415.1,-118.17 1421.76,-109.94 1411.42,-112.21 1415.1,-118.17"/>
</g>
<!-- &#45;6&#45;&gt;211 -->
<g id="edge48" class="edge">
<title>&#45;6&#45;&gt;211</title>
<path fill="none" stroke="red" stroke-width="0.22" d="M1180.75,-156.58C1183.58,-155.59 1186.56,-154.68 1189.42,-154.02 1344.45,-118.58 1394.66,-168.63 1545.42,-118.02 1548.93,-116.84 1552.46,-115.3 1555.89,-113.57"/>
<polygon fill="red" stroke="red" stroke-width="0.22" points="1557.61,-116.62 1564.62,-108.67 1554.19,-110.51 1557.61,-116.62"/>
</g>
<!-- &#45;6&#45;&gt;213 -->
<g id="edge49" class="edge">
<title>&#45;6&#45;&gt;213</title>
<path fill="none" stroke="green" stroke-width="0.47" d="M1180.74,-156.51C1183.56,-155.54 1186.56,-154.64 1189.42,-154.02 1405.56,-107.82 1468.6,-160.97 1685.42,-118.02 1698.63,-115.41 1712.79,-111.09 1725.02,-106.84"/>
<polygon fill="green" stroke="green" stroke-width="0.47" points="1726.55,-110.01 1734.78,-103.34 1724.19,-103.42 1726.55,-110.01"/>
</g>
<!-- &#45;6&#45;&gt;214 -->
<g id="edge50" class="edge">
<title>&#45;6&#45;&gt;214</title>
<path fill="none" stroke="green" stroke-width="0.17" d="M1171.33,-153.99C1174.84,-146.78 1180.23,-135.72 1185.42,-125.07"/>
<polygon fill="green" stroke="green" stroke-width="0.17" points="1188.64,-126.45 1189.87,-115.93 1182.35,-123.38 1188.64,-126.45"/>
</g>
<!-- &#45;6&#45;&gt;215 -->
<g id="edge51" class="edge">
<title>&#45;6&#45;&gt;215</title>
<path fill="none" stroke="green" stroke-width="0.5" d="M1180.75,-156.54C1183.57,-155.56 1186.56,-154.65 1189.42,-154.02 1376.3,-112.97 1438.93,-184.31 1618.42,-118.02 1620.3,-117.33 1622.18,-116.49 1624.02,-115.56"/>
<polygon fill="green" stroke="green" stroke-width="0.5" points="1626.11,-118.38 1632.88,-110.23 1622.5,-112.38 1626.11,-118.38"/>
</g>
<!-- &#45;6&#45;&gt;216 -->
<g id="edge52" class="edge">
<title>&#45;6&#45;&gt;216</title>
<path fill="none" stroke="green" stroke-width="0.24" d="M1154.51,-153.94C1140.74,-145.25 1118.35,-130.95 1099.42,-118.02 1097.8,-116.92 1096.14,-115.78 1094.48,-114.61"/>
<polygon fill="green" stroke="green" stroke-width="0.24" points="1096.38,-111.67 1086.2,-108.75 1092.34,-117.39 1096.38,-111.67"/>
</g>
<!-- &#45;6&#45;&gt;217 -->
<g id="edge53" class="edge">
<title>&#45;6&#45;&gt;217</title>
<path fill="none" stroke="red" stroke-width="0.28" d="M1180.37,-153.75C1193.95,-145.03 1215.84,-130.8 1234.42,-118.02 1236.03,-116.91 1237.68,-115.77 1239.34,-114.6"/>
<polygon fill="red" stroke="red" stroke-width="0.28" points="1241.49,-117.37 1247.62,-108.73 1237.44,-111.66 1241.49,-117.37"/>
</g>
<!-- &#45;7 -->
<g id="node7" class="node">
<title>&#45;7</title>
<polygon fill="lightgray" stroke="black" points="1453.42,-172.02 1427.42,-172.02 1427.42,-154.02 1453.42,-154.02 1453.42,-172.02"/>
<text text-anchor="middle" x="1440.42" y="-160.82" font-family="Times-Roman" font-size="9.00">&#45;7</text>
</g>
<!-- &#45;7&#45;&gt;0 -->
<g id="edge192" class="edge">
<title>&#45;7&#45;&gt;0</title>
<path fill="none" stroke="red" stroke-width="0.37" d="M1427.07,-159.37C1418.14,-157.67 1406.11,-155.5 1395.42,-154.02 1355.27,-148.47 1059.63,-148.07 1032.42,-118.02 1017.65,-101.72 1018.36,-85.45 1032.42,-68.53 1088.17,-1.41 1141.24,-55.51 1225.42,-32.53 1231.12,-30.97 1237.16,-28.99 1242.82,-26.97"/>
<polygon fill="red" stroke="red" stroke-width="0.37" points="1244.3,-30.15 1252.45,-23.38 1241.85,-23.59 1244.3,-30.15"/>
</g>
<!-- &#45;7&#45;&gt;1 -->
<g id="edge193" class="edge">
<title>&#45;7&#45;&gt;1</title>
<path fill="none" stroke="green" stroke-width="0.16" d="M1427.07,-159.35C1418.14,-157.63 1406.11,-155.46 1395.42,-154.02 1352.18,-148.2 1033.82,-150.26 1004.42,-118.02 989.59,-101.77 995.05,-88.43 1004.42,-68.53 1012.47,-51.42 1029.34,-38.08 1043.45,-29.29"/>
<polygon fill="green" stroke="green" stroke-width="0.16" points="1045.33,-32.25 1052.2,-24.19 1041.8,-26.2 1045.33,-32.25"/>
</g>
<!-- &#45;7&#45;&gt;2 -->
<g id="edge194" class="edge">
<title>&#45;7&#45;&gt;2</title>
<path fill="none" stroke="red" stroke-width="0.61" d="M1453.6,-158.19C1459.07,-156.71 1465.51,-155.11 1471.42,-154.02 1541.79,-141.05 1743.73,-171.38 1791.42,-118.02 1806.08,-101.62 1806.23,-84.79 1791.42,-68.53 1733.71,-5.16 1490.29,-54.37 1407.42,-32.53 1403.93,-31.61 1400.36,-30.37 1396.89,-28.99"/>
<polygon fill="red" stroke="red" stroke-width="0.61" points="1398.15,-25.72 1387.59,-24.88 1395.33,-32.12 1398.15,-25.72"/>
</g>
<!-- &#45;7&#45;&gt;3 -->
<g id="edge195" class="edge">
<title>&#45;7&#45;&gt;3</title>
<path fill="none" stroke="green" stroke-width="0.29" d="M1427.07,-159.36C1418.14,-157.65 1406.11,-155.48 1395.42,-154.02 1353.72,-148.34 1046.72,-149.16 1018.42,-118.02 1003.62,-101.75 1005.14,-86.06 1018.42,-68.53 1037.27,-43.63 1128.62,-27.43 1174.3,-20.74"/>
<polygon fill="green" stroke="green" stroke-width="0.29" points="1174.93,-24.19 1184.34,-19.32 1173.95,-17.26 1174.93,-24.19"/>
</g>
<!-- &#45;7&#45;&gt;4 -->
<g id="edge196" class="edge">
<title>&#45;7&#45;&gt;4</title>
<path fill="none" stroke="red" stroke-width="0.7" d="M1453.59,-158.13C1459.06,-156.64 1465.5,-155.05 1471.42,-154.02 1514.4,-146.55 1833.01,-150.26 1862.42,-118.02 1877.24,-101.77 1877.27,-84.76 1862.42,-68.53 1801.58,-2.02 1544.26,-60.01 1458.42,-32.53 1457.15,-32.12 1455.89,-31.65 1454.63,-31.12"/>
<polygon fill="red" stroke="red" stroke-width="0.7" points="1455.87,-27.83 1445.38,-26.38 1452.68,-34.06 1455.87,-27.83"/>
</g>
<!-- &#45;7&#45;&gt;5 -->
<g id="edge197" class="edge">
<title>&#45;7&#45;&gt;5</title>
<path fill="none" stroke="green" stroke-width="0.36" d="M1453.59,-158.11C1459.06,-156.62 1465.5,-155.04 1471.42,-154.02 1516.49,-146.28 1850.53,-151.75 1881.42,-118.02 1896.28,-101.8 1895.94,-85.05 1881.42,-68.53 1875.22,-61.48 1597.4,-29.97 1509.67,-20.18"/>
<polygon fill="green" stroke="green" stroke-width="0.36" points="1510.04,-16.7 1499.72,-19.07 1509.27,-23.65 1510.04,-16.7"/>
</g>
<!-- &#45;7&#45;&gt;6 -->
<g id="edge198" class="edge">
<title>&#45;7&#45;&gt;6</title>
<path fill="none" stroke="red" stroke-width="0.66" d="M1453.56,-157.96C1459.03,-156.45 1465.48,-154.89 1471.42,-154.02 1526.38,-146.04 2431.86,-158 2470.42,-118.02 2485.69,-102.19 2485.59,-84.46 2470.42,-68.53 2442.11,-38.8 1773.18,-37.34 1732.42,-32.53 1713.83,-30.33 1693.09,-26.4 1677.25,-23.07"/>
<polygon fill="red" stroke="red" stroke-width="0.66" points="1677.66,-19.58 1667.15,-20.89 1676.19,-26.42 1677.66,-19.58"/>
</g>
<!-- &#45;7&#45;&gt;7 -->
<g id="edge199" class="edge">
<title>&#45;7&#45;&gt;7</title>
<path fill="none" stroke="red" stroke-width="0.24" d="M1453.56,-157.95C1459.03,-156.43 1465.47,-154.87 1471.42,-154.02 1534.75,-144.98 2577.89,-163.96 2622.42,-118.02 2637.73,-102.23 2637.5,-84.54 2622.42,-68.53 2592.94,-37.25 1926.59,-20.96 1784.08,-17.83"/>
<polygon fill="red" stroke="red" stroke-width="0.24" points="1783.76,-14.32 1773.68,-17.6 1783.6,-21.32 1783.76,-14.32"/>
</g>
<!-- &#45;7&#45;&gt;208 -->
<g id="edge54" class="edge">
<title>&#45;7&#45;&gt;208</title>
<path fill="none" stroke="green" stroke-width="0.19" d="M1427.04,-159.57C1418.09,-157.95 1406.06,-155.81 1395.42,-154.02 1293.8,-137.01 1261.71,-157.18 1166.42,-118.02 1164.56,-117.26 1162.7,-116.37 1160.87,-115.4"/>
<polygon fill="green" stroke="green" stroke-width="0.19" points="1162.41,-112.23 1152.06,-109.96 1158.74,-118.19 1162.41,-112.23"/>
</g>
<!-- &#45;7&#45;&gt;209 -->
<g id="edge55" class="edge">
<title>&#45;7&#45;&gt;209</title>
<path fill="none" stroke="green" stroke-width="0.16" d="M1432.47,-153.99C1423.91,-145.34 1409.89,-131.15 1397.65,-118.78"/>
<polygon fill="green" stroke="green" stroke-width="0.16" points="1399.85,-116.02 1390.33,-111.38 1394.87,-120.95 1399.85,-116.02"/>
</g>
<!-- &#45;7&#45;&gt;210 -->
<g id="edge56" class="edge">
<title>&#45;7&#45;&gt;210</title>
<path fill="none" stroke="red" stroke-width="0.38" d="M1440.42,-153.99C1440.42,-147.55 1440.42,-138.05 1440.42,-128.52"/>
<polygon fill="red" stroke="red" stroke-width="0.38" points="1443.92,-128.3 1440.42,-118.3 1436.92,-128.3 1443.92,-128.3"/>
</g>
<!-- &#45;7&#45;&gt;211 -->
<g id="edge57" class="edge">
<title>&#45;7&#45;&gt;211</title>
<path fill="none" stroke="green" stroke-width="0.1" d="M1453.63,-157.22C1473.82,-149.72 1513.38,-134.38 1545.42,-118.02 1548.72,-116.34 1552.11,-114.48 1555.46,-112.56"/>
<polygon fill="green" stroke="green" stroke-width="0.1" points="1557.28,-115.55 1564.1,-107.44 1553.71,-109.53 1557.28,-115.55"/>
</g>
<!-- &#45;7&#45;&gt;213 -->
<g id="edge58" class="edge">
<title>&#45;7&#45;&gt;213</title>
<path fill="none" stroke="green" stroke-width="0.58" d="M1453.62,-158.28C1459.09,-156.82 1465.53,-155.21 1471.42,-154.02 1580.17,-132.13 1614.05,-155.63 1718.42,-118.02 1721.9,-116.77 1725.42,-115.18 1728.83,-113.42"/>
<polygon fill="green" stroke="green" stroke-width="0.58" points="1730.58,-116.45 1737.55,-108.48 1727.13,-110.36 1730.58,-116.45"/>
</g>
<!-- &#45;7&#45;&gt;214 -->
<g id="edge59" class="edge">
<title>&#45;7&#45;&gt;214</title>
<path fill="none" stroke="green" stroke-width="0.12" stroke-dasharray="1,5" d="M1427.28,-159.56C1384.58,-151.5 1251.43,-126 1233.42,-118.02 1231.58,-117.21 1229.74,-116.28 1227.92,-115.28"/>
<polygon fill="green" stroke="green" stroke-width="0.12" points="1229.47,-112.12 1219.14,-109.77 1225.75,-118.05 1229.47,-112.12"/>
</g>
<!-- &#45;7&#45;&gt;215 -->
<g id="edge60" class="edge">
<title>&#45;7&#45;&gt;215</title>
<path fill="none" stroke="red" stroke-width="0.18" d="M1453.68,-158.56C1459.17,-157.14 1465.59,-155.49 1471.42,-154.02 1536.65,-137.62 1557.33,-146.19 1618.42,-118.02 1620.24,-117.18 1622.07,-116.23 1623.88,-115.21"/>
<polygon fill="red" stroke="red" stroke-width="0.18" points="1626.07,-117.97 1632.64,-109.66 1622.32,-112.06 1626.07,-117.97"/>
</g>
<!-- &#45;7&#45;&gt;216 -->
<g id="edge61" class="edge">
<title>&#45;7&#45;&gt;216</title>
<path fill="none" stroke="red" stroke-width="0.67" d="M1427.06,-159.45C1418.12,-157.78 1406.09,-155.62 1395.42,-154.02 1264.35,-134.42 1222.86,-166.25 1099.42,-118.02 1097.54,-117.29 1095.68,-116.43 1093.84,-115.47"/>
<polygon fill="red" stroke="red" stroke-width="0.67" points="1095.37,-112.3 1085.01,-110.09 1091.73,-118.28 1095.37,-112.3"/>
</g>
<!-- &#45;7&#45;&gt;217 -->
<g id="edge62" class="edge">
<title>&#45;7&#45;&gt;217</title>
<path fill="none" stroke="green" stroke-width="0.12" d="M1427.41,-156.93C1400.58,-146.42 1338.37,-122.06 1299.91,-107"/>
<polygon fill="green" stroke="green" stroke-width="0.12" points="1300.79,-103.59 1290.21,-103.2 1298.24,-110.11 1300.79,-103.59"/>
</g>
<!-- &#45;8 -->
<g id="node8" class="node">
<title>&#45;8</title>
<polygon fill="lightgray" stroke="black" points="1280.42,-172.02 1254.42,-172.02 1254.42,-154.02 1280.42,-154.02 1280.42,-172.02"/>
<text text-anchor="middle" x="1267.42" y="-160.82" font-family="Times-Roman" font-size="9.00">&#45;8</text>
</g>
<!-- &#45;8&#45;&gt;0 -->
<g id="edge200" class="edge">
<title>&#45;8&#45;&gt;0</title>
<path fill="none" stroke="green" stroke-width="0.23" d="M1254.28,-158.36C1248.01,-156.76 1240.38,-155.03 1233.42,-154.02 1161.6,-143.68 631.29,-170.72 581.42,-118.02 566.3,-102.05 566.3,-84.51 581.42,-68.53 630.66,-16.46 1155.21,-46.92 1225.42,-32.53 1231.31,-31.32 1237.48,-29.44 1243.22,-27.42"/>
<polygon fill="green" stroke="green" stroke-width="0.23" points="1244.85,-30.54 1252.95,-23.71 1242.36,-24 1244.85,-30.54"/>
</g>
<!-- &#45;8&#45;&gt;1 -->
<g id="edge201" class="edge">
<title>&#45;8&#45;&gt;1</title>
<path fill="none" stroke="green" stroke-width="0.57" stroke-dasharray="1,5" d="M1254.29,-158.29C1248.03,-156.67 1240.39,-154.94 1233.42,-154.02 1170.27,-145.69 131.75,-163.77 87.42,-118.02 72.11,-102.23 72.27,-84.48 87.42,-68.53 121.13,-33 886.08,-19.91 1039.69,-17.64"/>
<polygon fill="green" stroke="green" stroke-width="0.57" points="1040.11,-21.13 1050.06,-17.49 1040.01,-14.13 1040.11,-21.13"/>
</g>
<!-- &#45;8&#45;&gt;2 -->
<g id="edge202" class="edge">
<title>&#45;8&#45;&gt;2</title>
<path fill="none" stroke="red" stroke-width="0.32" d="M1254.23,-158.64C1247.96,-157.1 1240.33,-155.34 1233.42,-154.02 1178.71,-143.64 1021.86,-160.14 985.42,-118.02 971.02,-101.39 970.79,-84.96 985.42,-68.53 1031.07,-17.21 1224.51,-42.89 1292.42,-32.53 1310.92,-29.7 1331.66,-25.78 1347.53,-22.62"/>
<polygon fill="red" stroke="red" stroke-width="0.32" points="1348.53,-25.98 1357.64,-20.57 1347.15,-19.12 1348.53,-25.98"/>
</g>
<!-- &#45;8&#45;&gt;3 -->
<g id="edge203" class="edge">
<title>&#45;8&#45;&gt;3</title>
<path fill="none" stroke="red" stroke-width="0.61" d="M1254.29,-158.31C1248.02,-156.7 1240.39,-154.97 1233.42,-154.02 1180.75,-146.9 314.28,-156.31 277.42,-118.02 262.16,-102.18 262.21,-84.42 277.42,-68.53 308.71,-35.82 1046.34,-36.67 1091.42,-32.53 1119.87,-29.91 1152.27,-25.14 1174.3,-21.63"/>
<polygon fill="red" stroke="red" stroke-width="0.61" points="1174.91,-25.08 1184.22,-20.02 1173.79,-18.17 1174.91,-25.08"/>
</g>
<!-- &#45;8&#45;&gt;4 -->
<g id="edge204" class="edge">
<title>&#45;8&#45;&gt;4</title>
<path fill="none" stroke="green" stroke-width="0.19" d="M1254.21,-158.74C1247.93,-157.23 1240.3,-155.45 1233.42,-154.02 1188.98,-144.82 1061.54,-152.82 1032.42,-118.02 1018.3,-101.15 1017.64,-84.83 1032.42,-68.53 1087.3,-7.98 1319.44,-53.54 1398.42,-32.53 1401.9,-31.6 1405.47,-30.36 1408.94,-28.97"/>
<polygon fill="green" stroke="green" stroke-width="0.19" points="1410.5,-32.11 1418.24,-24.87 1407.67,-25.71 1410.5,-32.11"/>
</g>
<!-- &#45;8&#45;&gt;5 -->
<g id="edge205" class="edge">
<title>&#45;8&#45;&gt;5</title>
<path fill="none" stroke="red" stroke-width="0.37" d="M1273.69,-153.92C1280.52,-145.1 1291.76,-130.57 1301.42,-118.02 1318.34,-96.05 1316.62,-84.33 1339.42,-68.53 1384.48,-37.29 1407.21,-54.56 1457.42,-32.53 1458.63,-31.99 1459.86,-31.42 1461.08,-30.81"/>
<polygon fill="red" stroke="red" stroke-width="0.37" points="1463.14,-33.67 1470.24,-25.81 1459.79,-27.53 1463.14,-33.67"/>
</g>
<!-- &#45;8&#45;&gt;6 -->
<g id="edge206" class="edge">
<title>&#45;8&#45;&gt;6</title>
<path fill="none" stroke="red" stroke-width="0.11" d="M1280.51,-160.72C1297.03,-159.09 1326.32,-156.25 1351.42,-154.02 1400.28,-149.7 1758.18,-154.1 1791.42,-118.02 1806.32,-101.85 1804.02,-86.56 1791.42,-68.53 1778.02,-49.36 1713.81,-31.72 1677.17,-22.99"/>
<polygon fill="red" stroke="red" stroke-width="0.11" points="1677.74,-19.53 1667.21,-20.67 1676.15,-26.35 1677.74,-19.53"/>
</g>
<!-- &#45;8&#45;&gt;7 -->
<g id="edge207" class="edge">
<title>&#45;8&#45;&gt;7</title>
<path fill="none" stroke="red" stroke-width="0.51" d="M1280.51,-160.71C1297.02,-159.07 1326.31,-156.2 1351.42,-154.02 1402.38,-149.6 1775.69,-155.59 1810.42,-118.02 1825.35,-101.87 1819,-88.78 1810.42,-68.53 1803.98,-53.35 1790.61,-40.48 1778.91,-31.42"/>
<polygon fill="red" stroke="red" stroke-width="0.51" points="1780.96,-28.58 1770.81,-25.53 1776.84,-34.24 1780.96,-28.58"/>
</g>
<!-- &#45;8&#45;&gt;208 -->
<g id="edge63" class="edge">
<title>&#45;8&#45;&gt;208</title>
<path fill="none" stroke="red" stroke-width="0.38" d="M1254.24,-157.32C1234.54,-150.05 1196.51,-135.15 1166.42,-118.02 1164.67,-117.03 1162.9,-115.96 1161.14,-114.85"/>
<polygon fill="red" stroke="red" stroke-width="0.38" points="1162.76,-111.72 1152.5,-109.05 1158.85,-117.53 1162.76,-111.72"/>
</g>
<!-- &#45;8&#45;&gt;209 -->
<g id="edge64" class="edge">
<title>&#45;8&#45;&gt;209</title>
<path fill="none" stroke="red" stroke-width="0.21" d="M1279.99,-153.99C1295.73,-143.93 1323.18,-126.38 1344.27,-112.91"/>
<polygon fill="red" stroke="red" stroke-width="0.21" points="1346.32,-115.75 1352.86,-107.41 1342.55,-109.85 1346.32,-115.75"/>
</g>
<!-- &#45;8&#45;&gt;210 -->
<g id="edge65" class="edge">
<title>&#45;8&#45;&gt;210</title>
<path fill="none" stroke="red" stroke-width="0.13" d="M1280.69,-159.34C1306.2,-153.87 1363.45,-140.04 1407.42,-118.02 1409.22,-117.12 1411.02,-116.13 1412.81,-115.07"/>
<polygon fill="red" stroke="red" stroke-width="0.13" points="1415.04,-117.8 1421.53,-109.43 1411.23,-111.93 1415.04,-117.8"/>
</g>
<!-- &#45;8&#45;&gt;211 -->
<g id="edge66" class="edge">
<title>&#45;8&#45;&gt;211</title>
<path fill="none" stroke="green" stroke-width="0.13" d="M1280.67,-160.62C1328.98,-155.38 1495.42,-136.39 1545.42,-118.02 1548.9,-116.75 1552.4,-115.14 1555.82,-113.38"/>
<polygon fill="green" stroke="green" stroke-width="0.13" points="1557.57,-116.41 1564.53,-108.43 1554.11,-110.32 1557.57,-116.41"/>
</g>
<!-- &#45;8&#45;&gt;213 -->
<g id="edge67" class="edge">
<title>&#45;8&#45;&gt;213</title>
<path fill="none" stroke="red" stroke-width="0.26" d="M1280.83,-160.74C1355.4,-153.57 1715.74,-118.92 1718.42,-118.02 1721.93,-116.85 1725.46,-115.31 1728.89,-113.59"/>
<polygon fill="red" stroke="red" stroke-width="0.26" points="1730.62,-116.63 1737.62,-108.68 1727.19,-110.53 1730.62,-116.63"/>
</g>
<!-- &#45;8&#45;&gt;214 -->
<g id="edge68" class="edge">
<title>&#45;8&#45;&gt;214</title>
<path fill="none" stroke="red" stroke-width="0.62" d="M1259.47,-153.99C1250.91,-145.34 1236.89,-131.15 1224.65,-118.78"/>
<polygon fill="red" stroke="red" stroke-width="0.62" points="1226.85,-116.02 1217.33,-111.38 1221.87,-120.95 1226.85,-116.02"/>
</g>
<!-- &#45;8&#45;&gt;215 -->
<g id="edge69" class="edge">
<title>&#45;8&#45;&gt;215</title>
<path fill="none" stroke="green" stroke-width="0.37" d="M1280.59,-160.76C1340.59,-154.96 1586.33,-130.63 1618.42,-118.02 1620.29,-117.29 1622.15,-116.42 1623.99,-115.46"/>
<polygon fill="green" stroke="green" stroke-width="0.37" points="1626.1,-118.27 1632.82,-110.08 1622.46,-112.3 1626.1,-118.27"/>
</g>
<!-- &#45;8&#45;&gt;216 -->
<g id="edge70" class="edge">
<title>&#45;8&#45;&gt;216</title>
<path fill="none" stroke="green" stroke-width="0.12" d="M1254.22,-158.86C1217.12,-149.94 1113.7,-124.75 1099.42,-118.02 1097.6,-117.17 1095.77,-116.21 1093.97,-115.18"/>
<polygon fill="green" stroke="green" stroke-width="0.12" points="1095.53,-112.02 1085.22,-109.6 1091.77,-117.93 1095.53,-112.02"/>
</g>
<!-- &#45;8&#45;&gt;217 -->
<g id="edge71" class="edge">
<title>&#45;8&#45;&gt;217</title>
<path fill="none" stroke="red" stroke-width="0.46" d="M1267.42,-153.99C1267.42,-147.55 1267.42,-138.05 1267.42,-128.52"/>
<polygon fill="red" stroke="red" stroke-width="0.46" points="1270.92,-128.3 1267.42,-118.3 1263.92,-128.3 1270.92,-128.3"/>
</g>
<!-- 208&#45;&gt;0 -->
<g id="edge72" class="edge">
<title>208&#45;&gt;0</title>
<path fill="none" stroke="red" stroke-width="0.5" d="M1152.97,-77.45C1157.31,-74.37 1161.95,-71.24 1166.42,-68.53 1191.94,-52.99 1222.74,-37.84 1243.57,-28.09"/>
<polygon fill="red" stroke="red" stroke-width="0.5" points="1245.05,-31.26 1252.65,-23.88 1242.11,-24.91 1245.05,-31.26"/>
</g>
<!-- 208&#45;&gt;1 -->
<g id="edge73" class="edge">
<title>208&#45;&gt;1</title>
<path fill="none" stroke="green" stroke-width="0.36" d="M1117.2,-74.12C1107.1,-62.81 1094.12,-48.28 1083.81,-36.74"/>
<polygon fill="green" stroke="green" stroke-width="0.36" points="1086.13,-34.07 1076.85,-28.95 1080.9,-38.74 1086.13,-34.07"/>
</g>
<!-- 208&#45;&gt;2 -->
<g id="edge74" class="edge">
<title>208&#45;&gt;2</title>
<path fill="none" stroke="green" stroke-width="0.7" d="M1152.2,-76.9C1156.66,-73.79 1161.55,-70.78 1166.42,-68.53 1198.75,-53.57 1299.45,-32.13 1347.46,-22.41"/>
<polygon fill="green" stroke="green" stroke-width="0.7" points="1348.28,-25.81 1357.39,-20.41 1346.9,-18.95 1348.28,-25.81"/>
</g>
<!-- 208&#45;&gt;3 -->
<g id="edge75" class="edge">
<title>208&#45;&gt;3</title>
<path fill="none" stroke="red" stroke-width="0.38" d="M1149.64,-74.12C1159.73,-62.81 1172.71,-48.28 1183.02,-36.74"/>
<polygon fill="red" stroke="red" stroke-width="0.38" points="1185.93,-38.74 1189.98,-28.95 1180.71,-34.07 1185.93,-38.74"/>
</g>
<!-- 208&#45;&gt;4 -->
<g id="edge76" class="edge">
<title>208&#45;&gt;4</title>
<path fill="none" stroke="green" stroke-width="0.48" d="M1152.06,-76.58C1156.53,-73.48 1161.45,-70.56 1166.42,-68.53 1262.97,-28.97 1298.37,-62.16 1398.42,-32.53 1401.87,-31.5 1405.43,-30.2 1408.89,-28.79"/>
<polygon fill="green" stroke="green" stroke-width="0.48" points="1410.46,-31.93 1418.18,-24.68 1407.62,-25.53 1410.46,-31.93"/>
</g>
<!-- 208&#45;&gt;5 -->
<g id="edge77" class="edge">
<title>208&#45;&gt;5</title>
<path fill="none" stroke="red" stroke-width="0.12" d="M1152.01,-76.47C1156.48,-73.37 1161.42,-70.48 1166.42,-68.53 1287.75,-20.98 1334,-74.38 1457.42,-32.53 1458.67,-32.1 1459.93,-31.61 1461.19,-31.07"/>
<polygon fill="red" stroke="red" stroke-width="0.12" points="1463.16,-33.99 1470.43,-26.29 1459.94,-27.78 1463.16,-33.99"/>
</g>
<!-- 208&#45;&gt;6 -->
<g id="edge78" class="edge">
<title>208&#45;&gt;6</title>
<path fill="none" stroke="green" stroke-width="0.37" d="M1151.98,-76.4C1156.46,-73.31 1161.4,-70.44 1166.42,-68.53 1309.22,-14.07 1356.43,-48.64 1508.42,-32.53 1549.15,-28.21 1596.39,-23.16 1625.08,-20.09"/>
<polygon fill="green" stroke="green" stroke-width="0.37" points="1625.55,-23.56 1635.12,-19.01 1624.8,-16.6 1625.55,-23.56"/>
</g>
<!-- 208&#45;&gt;7 -->
<g id="edge79" class="edge">
<title>208&#45;&gt;7</title>
<path fill="none" stroke="red" stroke-width="0.37" d="M1151.94,-76.27C1156.41,-73.19 1161.37,-70.35 1166.42,-68.53 1273.25,-29.87 1563.74,-47.07 1676.42,-32.53 1694.98,-30.13 1715.72,-26.2 1731.57,-22.92"/>
<polygon fill="red" stroke="red" stroke-width="0.37" points="1732.61,-26.28 1741.67,-20.79 1731.16,-19.43 1732.61,-26.28"/>
</g>
<!-- 209&#45;&gt;0 -->
<g id="edge80" class="edge">
<title>209&#45;&gt;0</title>
<path fill="none" stroke="green" stroke-width="0.26" d="M1353.48,-78.17C1334.94,-65.05 1307.43,-45.58 1288.53,-32.2"/>
<polygon fill="green" stroke="green" stroke-width="0.26" points="1290.45,-29.27 1280.26,-26.35 1286.4,-34.99 1290.45,-29.27"/>
</g>
<!-- 209&#45;&gt;1 -->
<g id="edge81" class="edge">
<title>209&#45;&gt;1</title>
<path fill="none" stroke="green" stroke-width="0.53" d="M1350.26,-83.96C1336.23,-79.09 1317.92,-73.04 1301.42,-68.53 1226.22,-47.98 1135.73,-30.14 1092.24,-21.99"/>
<polygon fill="green" stroke="green" stroke-width="0.53" points="1092.7,-18.51 1082.23,-20.12 1091.42,-25.39 1092.7,-18.51"/>
</g>
<!-- 209&#45;&gt;2 -->
<g id="edge82" class="edge">
<title>209&#45;&gt;2</title>
<path fill="none" stroke="red" stroke-width="0.15" d="M1373.42,-68.13C1373.42,-60.03 1373.42,-50.97 1373.42,-42.77"/>
<polygon fill="red" stroke="red" stroke-width="0.15" points="1376.92,-42.64 1373.42,-32.64 1369.92,-42.64 1376.92,-42.64"/>
</g>
<!-- 209&#45;&gt;3 -->
<g id="edge83" class="edge">
<title>209&#45;&gt;3</title>
<path fill="none" stroke="green" stroke-width="0.13" d="M1350.8,-82.47C1318.26,-68.36 1258.48,-42.44 1224.92,-27.89"/>
<polygon fill="green" stroke="green" stroke-width="0.13" points="1225.98,-24.53 1215.41,-23.76 1223.19,-30.95 1225.98,-24.53"/>
</g>
<!-- 209&#45;&gt;4 -->
<g id="edge84" class="edge">
<title>209&#45;&gt;4</title>
<path fill="none" stroke="green" stroke-width="0.77" d="M1388.3,-73.35C1396.9,-62.42 1407.71,-48.67 1416.48,-37.53"/>
<polygon fill="green" stroke="green" stroke-width="0.77" points="1419.28,-39.62 1422.72,-29.6 1413.78,-35.29 1419.28,-39.62"/>
</g>
<!-- 209&#45;&gt;5 -->
<g id="edge85" class="edge">
<title>209&#45;&gt;5</title>
<path fill="none" stroke="red" stroke-width="0.41" d="M1393.23,-77.84C1397.55,-74.74 1402.12,-71.5 1406.42,-68.53 1424.96,-55.69 1446.33,-41.51 1461.85,-31.32"/>
<polygon fill="red" stroke="red" stroke-width="0.41" points="1463.79,-34.23 1470.24,-25.83 1459.96,-28.38 1463.79,-34.23"/>
</g>
<!-- 209&#45;&gt;6 -->
<g id="edge86" class="edge">
<title>209&#45;&gt;6</title>
<path fill="none" stroke="green" stroke-width="0.17" d="M1392.14,-76.77C1396.6,-73.66 1401.51,-70.69 1406.42,-68.53 1481.52,-35.43 1579.15,-23.27 1625.2,-19.16"/>
<polygon fill="green" stroke="green" stroke-width="0.17" points="1625.56,-22.65 1635.24,-18.33 1624.98,-15.67 1625.56,-22.65"/>
</g>
<!-- 209&#45;&gt;7 -->
<g id="edge87" class="edge">
<title>209&#45;&gt;7</title>
<path fill="none" stroke="red" stroke-width="0.36" d="M1392.02,-76.5C1396.5,-73.41 1401.43,-70.51 1406.42,-68.53 1518.92,-23.83 1556.89,-51.74 1676.42,-32.53 1694.9,-29.56 1715.64,-25.64 1731.51,-22.51"/>
<polygon fill="red" stroke="red" stroke-width="0.36" points="1732.5,-25.88 1741.63,-20.5 1731.14,-19.02 1732.5,-25.88"/>
</g>
<!-- 210&#45;&gt;0 -->
<g id="edge88" class="edge">
<title>210&#45;&gt;0</title>
<path fill="none" stroke="green" stroke-width="0.51" d="M1421.44,-77.29C1416.99,-74.15 1412.16,-71.04 1407.42,-68.53 1369.33,-48.34 1321.54,-32.72 1292.8,-24.27"/>
<polygon fill="green" stroke="green" stroke-width="0.51" points="1293.7,-20.89 1283.13,-21.49 1291.77,-27.62 1293.7,-20.89"/>
</g>
<!-- 210&#45;&gt;1 -->
<g id="edge89" class="edge">
<title>210&#45;&gt;1</title>
<path fill="none" stroke="red" stroke-width="0.14" d="M1421.78,-76.56C1417.31,-73.46 1412.39,-70.55 1407.42,-68.53 1400.07,-65.54 1170.98,-32.33 1092.49,-21.02"/>
<polygon fill="red" stroke="red" stroke-width="0.14" points="1092.85,-17.53 1082.46,-19.57 1091.86,-24.46 1092.85,-17.53"/>
</g>
<!-- 210&#45;&gt;2 -->
<g id="edge90" class="edge">
<title>210&#45;&gt;2</title>
<path fill="none" stroke="green" stroke-width="0.39" d="M1424.2,-74.12C1414.1,-62.81 1401.12,-48.28 1390.81,-36.74"/>
<polygon fill="green" stroke="green" stroke-width="0.39" points="1393.13,-34.07 1383.85,-28.95 1387.9,-38.74 1393.13,-34.07"/>
</g>
<!-- 210&#45;&gt;3 -->
<g id="edge91" class="edge">
<title>210&#45;&gt;3</title>
<path fill="none" stroke="green" stroke-width="0.12" d="M1421.68,-76.8C1417.22,-73.69 1412.32,-70.71 1407.42,-68.53 1338.86,-37.97 1314.52,-53.39 1242.42,-32.53 1236.73,-30.88 1230.71,-28.86 1225.05,-26.84"/>
<polygon fill="green" stroke="green" stroke-width="0.12" points="1226.01,-23.46 1215.42,-23.27 1223.58,-30.03 1226.01,-23.46"/>
</g>
<!-- 210&#45;&gt;4 -->
<g id="edge92" class="edge">
<title>210&#45;&gt;4</title>
<path fill="none" stroke="red" stroke-width="0.27" stroke-dasharray="1,5" d="M1437.89,-68.54C1437.01,-60.33 1436.03,-51.1 1435.14,-42.76"/>
<polygon fill="red" stroke="red" stroke-width="0.27" points="1438.61,-42.38 1434.07,-32.81 1431.65,-43.12 1438.61,-42.38"/>
</g>
<!-- 210&#45;&gt;5 -->
<g id="edge93" class="edge">
<title>210&#45;&gt;5</title>
<path fill="none" stroke="green" stroke-width="0.28" d="M1452.39,-71.38C1458.04,-61.53 1464.79,-49.75 1470.55,-39.71"/>
<polygon fill="green" stroke="green" stroke-width="0.28" points="1473.76,-41.14 1475.7,-30.73 1467.69,-37.66 1473.76,-41.14"/>
</g>
<!-- 210&#45;&gt;6 -->
<g id="edge94" class="edge">
<title>210&#45;&gt;6</title>
<path fill="none" stroke="green" stroke-width="0.33" d="M1463.8,-83.96C1503.96,-69.68 1585.67,-40.64 1626.71,-26.05"/>
<polygon fill="green" stroke="green" stroke-width="0.33" points="1627.97,-29.31 1636.22,-22.66 1625.63,-22.72 1627.97,-29.31"/>
</g>
<!-- 210&#45;&gt;7 -->
<g id="edge95" class="edge">
<title>210&#45;&gt;7</title>
<path fill="none" stroke="red" stroke-width="0.44" d="M1464.5,-86.58C1522.98,-72.74 1672.02,-37.47 1731.92,-23.3"/>
<polygon fill="red" stroke="red" stroke-width="0.44" points="1732.78,-26.69 1741.71,-20.98 1731.17,-19.88 1732.78,-26.69"/>
</g>
<!-- 211&#45;&gt;0 -->
<g id="edge96" class="edge">
<title>211&#45;&gt;0</title>
<path fill="none" stroke="red" stroke-width="0.42" stroke-dasharray="1,5" d="M1560.98,-84.45C1545.8,-79.54 1525.56,-73.25 1507.42,-68.53 1430.09,-48.39 1337.26,-30.24 1293.14,-21.98"/>
<polygon fill="red" stroke="red" stroke-width="0.42" points="1293.73,-18.53 1283.26,-20.14 1292.45,-25.41 1293.73,-18.53"/>
</g>
<!-- 211&#45;&gt;1 -->
<g id="edge97" class="edge">
<title>211&#45;&gt;1</title>
<path fill="none" stroke="red" stroke-width="0.5" d="M1560.51,-86.44C1538.31,-81.19 1504.28,-73.54 1474.42,-68.53 1342.41,-46.38 1308.14,-49.81 1175.42,-32.53 1147.08,-28.84 1114.66,-24.25 1092.59,-21.07"/>
<polygon fill="red" stroke="red" stroke-width="0.5" points="1093.05,-17.6 1082.65,-19.64 1092.05,-24.53 1093.05,-17.6"/>
</g>
<!-- 211&#45;&gt;2 -->
<g id="edge98" class="edge">
<title>211&#45;&gt;2</title>
<path fill="none" stroke="red" stroke-width="0.13" d="M1560.96,-85.15C1526.83,-74.61 1461.61,-53.78 1407.42,-32.53 1404.06,-31.21 1400.56,-29.75 1397.13,-28.26"/>
<polygon fill="red" stroke="red" stroke-width="0.13" points="1398.4,-24.99 1387.85,-24.11 1395.55,-31.39 1398.4,-24.99"/>
</g>
<!-- 211&#45;&gt;3 -->
<g id="edge99" class="edge">
<title>211&#45;&gt;3</title>
<path fill="none" stroke="green" stroke-width="0.28" d="M1560.46,-86.68C1538.24,-81.59 1504.19,-74.05 1474.42,-68.53 1371.82,-49.51 1343.49,-58.47 1242.42,-32.53 1236.69,-31.06 1230.64,-29.11 1224.98,-27.1"/>
<polygon fill="green" stroke="green" stroke-width="0.28" points="1225.95,-23.72 1215.36,-23.5 1223.5,-30.28 1225.95,-23.72"/>
</g>
<!-- 211&#45;&gt;4 -->
<g id="edge100" class="edge">
<title>211&#45;&gt;4</title>
<path fill="none" stroke="red" stroke-width="0.26" d="M1561.82,-82.29C1536.37,-70.87 1493.94,-51.33 1458.42,-32.53 1457.27,-31.92 1456.1,-31.29 1454.93,-30.64"/>
<polygon fill="red" stroke="red" stroke-width="0.26" points="1456.47,-27.49 1446.05,-25.57 1453,-33.57 1456.47,-27.49"/>
</g>
<!-- 211&#45;&gt;5 -->
<g id="edge101" class="edge">
<title>211&#45;&gt;5</title>
<path fill="none" stroke="red" stroke-width="0.12" d="M1564.94,-77.81C1547.5,-64.86 1522.01,-45.92 1504.18,-32.69"/>
<polygon fill="red" stroke="red" stroke-width="0.12" points="1506.23,-29.85 1496.12,-26.7 1502.06,-35.47 1506.23,-29.85"/>
</g>
<!-- 211&#45;&gt;6 -->
<g id="edge102" class="edge">
<title>211&#45;&gt;6</title>
<path fill="none" stroke="red" stroke-width="0.11" d="M1600.64,-74.12C1610.73,-62.81 1623.71,-48.28 1634.02,-36.74"/>
<polygon fill="red" stroke="red" stroke-width="0.11" points="1636.93,-38.74 1640.98,-28.95 1631.71,-34.07 1636.93,-38.74"/>
</g>
<!-- 211&#45;&gt;7 -->
<g id="edge103" class="edge">
<title>211&#45;&gt;7</title>
<path fill="none" stroke="red" stroke-width="0.22" d="M1603.39,-77.29C1607.84,-74.15 1612.68,-71.04 1617.42,-68.53 1655.51,-48.34 1703.29,-32.72 1732.03,-24.27"/>
<polygon fill="red" stroke="red" stroke-width="0.22" points="1733.07,-27.62 1741.71,-21.49 1731.13,-20.89 1733.07,-27.62"/>
</g>
<!-- 213&#45;&gt;0 -->
<g id="edge104" class="edge">
<title>213&#45;&gt;0</title>
<path fill="none" stroke="red" stroke-width="0.17" d="M1734.42,-83.3C1720.45,-78.2 1702.14,-72.14 1685.42,-68.53 1538.18,-36.76 1497.44,-54.49 1348.42,-32.53 1329.9,-29.8 1309.15,-25.87 1293.3,-22.69"/>
<polygon fill="red" stroke="red" stroke-width="0.17" points="1293.68,-19.19 1283.19,-20.62 1292.28,-26.05 1293.68,-19.19"/>
</g>
<!-- 213&#45;&gt;1 -->
<g id="edge105" class="edge">
<title>213&#45;&gt;1</title>
<path fill="none" stroke="red" stroke-width="0.53" d="M1734.78,-83.2C1720.79,-78 1702.33,-71.86 1685.42,-68.53 1462.47,-24.6 1401.4,-56.3 1175.42,-32.53 1147,-29.54 1114.59,-24.83 1092.55,-21.44"/>
<polygon fill="red" stroke="red" stroke-width="0.53" points="1093.04,-17.97 1082.62,-19.89 1091.97,-24.89 1093.04,-17.97"/>
</g>
<!-- 213&#45;&gt;2 -->
<g id="edge106" class="edge">
<title>213&#45;&gt;2</title>
<path fill="none" stroke="red" stroke-width="0.82" d="M1734.39,-83.44C1720.41,-78.39 1702.1,-72.32 1685.42,-68.53 1563.93,-40.89 1527.31,-66.4 1407.42,-32.53 1403.95,-31.55 1400.38,-30.27 1396.92,-28.87"/>
<polygon fill="red" stroke="red" stroke-width="0.82" points="1398.19,-25.61 1387.63,-24.76 1395.36,-32.01 1398.19,-25.61"/>
</g>
<!-- 213&#45;&gt;3 -->
<g id="edge107" class="edge">
<title>213&#45;&gt;3</title>
<path fill="none" stroke="red" stroke-width="0.28" d="M1734.77,-83.27C1720.77,-78.09 1702.32,-71.95 1685.42,-68.53 1491.81,-29.31 1435.41,-74.64 1242.42,-32.53 1236.64,-31.27 1230.57,-29.4 1224.91,-27.41"/>
<polygon fill="red" stroke="red" stroke-width="0.28" points="1225.88,-24.03 1215.29,-23.77 1223.41,-30.58 1225.88,-24.03"/>
</g>
<!-- 213&#45;&gt;4 -->
<g id="edge108" class="edge">
<title>213&#45;&gt;4</title>
<path fill="none" stroke="green" stroke-width="0.11" d="M1734.35,-83.61C1720.35,-78.62 1702.05,-72.56 1685.42,-68.53 1586.14,-44.45 1554.58,-66.98 1458.42,-32.53 1457.17,-32.08 1455.91,-31.57 1454.67,-31.02"/>
<polygon fill="green" stroke="green" stroke-width="0.11" points="1455.92,-27.73 1445.44,-26.19 1452.68,-33.93 1455.92,-27.73"/>
</g>
<!-- 213&#45;&gt;5 -->
<g id="edge109" class="edge">
<title>213&#45;&gt;5</title>
<path fill="none" stroke="green" stroke-width="0.42" d="M1734.2,-84.16C1720.15,-79.36 1701.84,-73.31 1685.42,-68.53 1622.55,-50.21 1547.61,-32.17 1509.09,-23.17"/>
<polygon fill="green" stroke="green" stroke-width="0.42" points="1509.77,-19.73 1499.23,-20.88 1508.18,-26.55 1509.77,-19.73"/>
</g>
<!-- 213&#45;&gt;6 -->
<g id="edge110" class="edge">
<title>213&#45;&gt;6</title>
<path fill="none" stroke="green" stroke-width="0.13" d="M1737.48,-78.17C1718.94,-65.05 1691.43,-45.58 1672.53,-32.2"/>
<polygon fill="green" stroke="green" stroke-width="0.13" points="1674.45,-29.27 1664.26,-26.35 1670.4,-34.99 1674.45,-29.27"/>
</g>
<!-- 213&#45;&gt;7 -->
<g id="edge111" class="edge">
<title>213&#45;&gt;7</title>
<path fill="none" stroke="red" stroke-width="0.45" d="M1757.42,-68.13C1757.42,-60.03 1757.42,-50.97 1757.42,-42.77"/>
<polygon fill="red" stroke="red" stroke-width="0.45" points="1760.92,-42.64 1757.42,-32.64 1753.92,-42.64 1760.92,-42.64"/>
</g>
<!-- 214&#45;&gt;0 -->
<g id="edge112" class="edge">
<title>214&#45;&gt;0</title>
<path fill="none" stroke="red" stroke-width="0.25" d="M1216.64,-74.12C1226.73,-62.81 1239.71,-48.28 1250.02,-36.74"/>
<polygon fill="red" stroke="red" stroke-width="0.25" points="1252.93,-38.74 1256.98,-28.95 1247.71,-34.07 1252.93,-38.74"/>
</g>
<!-- 214&#45;&gt;1 -->
<g id="edge113" class="edge">
<title>214&#45;&gt;1</title>
<path fill="none" stroke="green" stroke-width="0.25" d="M1180.86,-77.45C1176.52,-74.37 1171.88,-71.24 1167.42,-68.53 1141.89,-52.99 1111.09,-37.84 1090.26,-28.09"/>
<polygon fill="green" stroke="green" stroke-width="0.25" points="1091.73,-24.91 1081.18,-23.88 1088.78,-31.26 1091.73,-24.91"/>
</g>
<!-- 214&#45;&gt;2 -->
<g id="edge114" class="edge">
<title>214&#45;&gt;2</title>
<path fill="none" stroke="green" stroke-width="0.24" d="M1219.39,-77.29C1223.84,-74.15 1228.68,-71.04 1233.42,-68.53 1271.51,-48.34 1319.29,-32.72 1348.03,-24.27"/>
<polygon fill="green" stroke="green" stroke-width="0.24" points="1349.07,-27.62 1357.71,-21.49 1347.13,-20.89 1349.07,-27.62"/>
</g>
<!-- 214&#45;&gt;3 -->
<g id="edge115" class="edge">
<title>214&#45;&gt;3</title>
<path fill="none" stroke="green" stroke-width="0.52" d="M1200.42,-68.13C1200.42,-60.03 1200.42,-50.97 1200.42,-42.77"/>
<polygon fill="green" stroke="green" stroke-width="0.52" points="1203.92,-42.64 1200.42,-32.64 1196.92,-42.64 1203.92,-42.64"/>
</g>
<!-- 214&#45;&gt;4 -->
<g id="edge116" class="edge">
<title>214&#45;&gt;4</title>
<path fill="none" stroke="green" stroke-width="0.23" d="M1219.15,-76.8C1223.62,-73.69 1228.52,-70.71 1233.42,-68.53 1301.97,-37.97 1327.13,-56.02 1398.42,-32.53 1401.84,-31.4 1405.38,-30.04 1408.83,-28.6"/>
<polygon fill="green" stroke="green" stroke-width="0.23" points="1410.4,-31.73 1418.12,-24.48 1407.56,-25.34 1410.4,-31.73"/>
</g>
<!-- 214&#45;&gt;5 -->
<g id="edge117" class="edge">
<title>214&#45;&gt;5</title>
<path fill="none" stroke="red" stroke-width="0.45" d="M1219.06,-76.6C1223.54,-73.5 1228.46,-70.57 1233.42,-68.53 1326.62,-30.04 1362.53,-66.64 1457.42,-32.53 1458.66,-32.08 1459.92,-31.57 1461.17,-31.02"/>
<polygon fill="red" stroke="red" stroke-width="0.45" points="1463.16,-33.93 1470.39,-26.18 1459.91,-27.73 1463.16,-33.93"/>
</g>
<!-- 214&#45;&gt;6 -->
<g id="edge118" class="edge">
<title>214&#45;&gt;6</title>
<path fill="none" stroke="red" stroke-width="0.44" d="M1219.01,-76.46C1223.48,-73.37 1228.42,-70.48 1233.42,-68.53 1251.8,-61.34 1536.72,-29.79 1625.33,-20.1"/>
<polygon fill="red" stroke="red" stroke-width="0.44" points="1625.79,-23.57 1635.36,-19.01 1625.03,-16.61 1625.79,-23.57"/>
</g>
<!-- 214&#45;&gt;7 -->
<g id="edge119" class="edge">
<title>214&#45;&gt;7</title>
<path fill="none" stroke="green" stroke-width="0.15" d="M1218.95,-76.31C1223.43,-73.22 1228.38,-70.38 1233.42,-68.53 1418.81,-0.34 1480.64,-58.85 1676.42,-32.53 1694.97,-30.03 1715.71,-26.1 1731.56,-22.85"/>
<polygon fill="green" stroke="green" stroke-width="0.15" points="1732.59,-26.21 1741.66,-20.74 1731.16,-19.36 1732.59,-26.21"/>
</g>
<!-- 215&#45;&gt;0 -->
<g id="edge120" class="edge">
<title>215&#45;&gt;0</title>
<path fill="none" stroke="red" stroke-width="0.22" d="M1632.81,-76.5C1628.34,-73.41 1623.4,-70.51 1618.42,-68.53 1505.91,-23.83 1467.94,-51.74 1348.42,-32.53 1329.93,-29.56 1309.19,-25.64 1293.32,-22.51"/>
<polygon fill="red" stroke="red" stroke-width="0.22" points="1293.69,-19.02 1283.2,-20.5 1292.33,-25.88 1293.69,-19.02"/>
</g>
<!-- 215&#45;&gt;1 -->
<g id="edge121" class="edge">
<title>215&#45;&gt;1</title>
<path fill="none" stroke="green" stroke-width="0.2" d="M1632.88,-76.31C1628.41,-73.22 1623.45,-70.38 1618.42,-68.53 1433.02,-0.34 1371.76,-54.23 1175.42,-32.53 1147.02,-29.39 1114.61,-24.71 1092.56,-21.36"/>
<polygon fill="green" stroke="green" stroke-width="0.2" points="1093.05,-17.89 1082.63,-19.83 1091.98,-24.81 1093.05,-17.89"/>
</g>
<!-- 215&#45;&gt;2 -->
<g id="edge122" class="edge">
<title>215&#45;&gt;2</title>
<path fill="none" stroke="red" stroke-width="0.4" d="M1632.75,-76.64C1628.28,-73.53 1623.37,-70.6 1618.42,-68.53 1530.66,-31.8 1498.43,-60.23 1407.42,-32.53 1403.97,-31.48 1400.41,-30.16 1396.96,-28.75"/>
<polygon fill="red" stroke="red" stroke-width="0.4" points="1398.23,-25.48 1387.67,-24.63 1395.39,-31.88 1398.23,-25.48"/>
</g>
<!-- 215&#45;&gt;3 -->
<g id="edge123" class="edge">
<title>215&#45;&gt;3</title>
<path fill="none" stroke="red" stroke-width="1.01" d="M1632.86,-76.36C1628.39,-73.27 1623.44,-70.41 1618.42,-68.53 1461.28,-9.45 1406.17,-69.49 1242.42,-32.53 1236.65,-31.22 1230.59,-29.34 1224.92,-27.34"/>
<polygon fill="red" stroke="red" stroke-width="1.01" points="1225.89,-23.97 1215.3,-23.72 1223.43,-30.52 1225.89,-23.97"/>
</g>
<!-- 215&#45;&gt;4 -->
<g id="edge124" class="edge">
<title>215&#45;&gt;4</title>
<path fill="none" stroke="green" stroke-width="0.51" d="M1632.67,-76.83C1628.21,-73.71 1623.31,-70.73 1618.42,-68.53 1551.94,-38.64 1526.21,-59.3 1458.42,-32.53 1457.18,-32.04 1455.94,-31.5 1454.7,-30.92"/>
<polygon fill="green" stroke="green" stroke-width="0.51" points="1455.98,-27.64 1445.51,-26.01 1452.68,-33.81 1455.98,-27.64"/>
</g>
<!-- 215&#45;&gt;5 -->
<g id="edge125" class="edge">
<title>215&#45;&gt;5</title>
<path fill="none" stroke="green" stroke-width="0.2" d="M1632.42,-77.33C1627.97,-74.19 1623.14,-71.07 1618.42,-68.53 1582,-48.94 1536.47,-33.32 1508.69,-24.68"/>
<polygon fill="green" stroke="green" stroke-width="0.2" points="1509.55,-21.28 1498.97,-21.71 1507.51,-27.98 1509.55,-21.28"/>
</g>
<!-- 215&#45;&gt;6 -->
<g id="edge126" class="edge">
<title>215&#45;&gt;6</title>
<path fill="none" stroke="red" stroke-width="0.44" d="M1651.42,-68.13C1651.42,-60.03 1651.42,-50.97 1651.42,-42.77"/>
<polygon fill="red" stroke="red" stroke-width="0.44" points="1654.92,-42.64 1651.42,-32.64 1647.92,-42.64 1654.92,-42.64"/>
</g>
<!-- 215&#45;&gt;7 -->
<g id="edge127" class="edge">
<title>215&#45;&gt;7</title>
<path fill="none" stroke="red" stroke-width="0.36" stroke-dasharray="1,5" d="M1671.35,-78.17C1689.89,-65.05 1717.41,-45.58 1736.31,-32.2"/>
<polygon fill="red" stroke="red" stroke-width="0.36" points="1738.43,-34.99 1744.57,-26.35 1734.38,-29.27 1738.43,-34.99"/>
</g>
<!-- 216&#45;&gt;0 -->
<g id="edge128" class="edge">
<title>216&#45;&gt;0</title>
<path fill="none" stroke="red" stroke-width="0.27" d="M1085.26,-77.03C1089.72,-73.91 1094.59,-70.87 1099.42,-68.53 1151.83,-43.14 1170.01,-50.48 1225.42,-32.53 1231.04,-30.7 1237.05,-28.61 1242.7,-26.57"/>
<polygon fill="red" stroke="red" stroke-width="0.27" points="1244.16,-29.76 1252.34,-23.03 1241.75,-23.19 1244.16,-29.76"/>
</g>
<!-- 216&#45;&gt;1 -->
<g id="edge129" class="edge">
<title>216&#45;&gt;1</title>
<path fill="none" stroke="red" stroke-width="1.15" d="M1066.42,-68.13C1066.42,-60.03 1066.42,-50.97 1066.42,-42.77"/>
<polygon fill="red" stroke="red" stroke-width="1.15" points="1069.92,-42.64 1066.42,-32.64 1062.92,-42.64 1069.92,-42.64"/>
</g>
<!-- 216&#45;&gt;2 -->
<g id="edge130" class="edge">
<title>216&#45;&gt;2</title>
<path fill="none" stroke="red" stroke-width="0.25" d="M1085.1,-76.69C1089.57,-73.59 1094.48,-70.64 1099.42,-68.53 1179.65,-34.22 1206.65,-48.61 1292.42,-32.53 1310.82,-29.08 1331.56,-25.17 1347.45,-22.17"/>
<polygon fill="red" stroke="red" stroke-width="0.25" points="1348.41,-25.55 1357.59,-20.26 1347.11,-18.67 1348.41,-25.55"/>
</g>
<!-- 216&#45;&gt;3 -->
<g id="edge131" class="edge">
<title>216&#45;&gt;3</title>
<path fill="none" stroke="green" stroke-width="0.1" d="M1085.97,-77.45C1090.31,-74.37 1094.95,-71.24 1099.42,-68.53 1124.94,-52.99 1155.74,-37.84 1176.57,-28.09"/>
<polygon fill="green" stroke="green" stroke-width="0.1" points="1178.05,-31.26 1185.65,-23.88 1175.11,-24.91 1178.05,-31.26"/>
</g>
<!-- 216&#45;&gt;4 -->
<g id="edge132" class="edge">
<title>216&#45;&gt;4</title>
<path fill="none" stroke="green" stroke-width="0.41" d="M1085.01,-76.45C1089.48,-73.36 1094.42,-70.48 1099.42,-68.53 1224.12,-19.9 1269.45,-68.34 1398.42,-32.53 1401.89,-31.56 1405.46,-30.3 1408.92,-28.9"/>
<polygon fill="green" stroke="green" stroke-width="0.41" points="1410.48,-32.04 1418.22,-24.79 1407.65,-25.64 1410.48,-32.04"/>
</g>
<!-- 216&#45;&gt;5 -->
<g id="edge133" class="edge">
<title>216&#45;&gt;5</title>
<path fill="none" stroke="red" stroke-width="0.2" d="M1084.98,-76.38C1089.45,-73.29 1094.4,-70.43 1099.42,-68.53 1248.97,-11.89 1305.4,-82.15 1457.42,-32.53 1458.68,-32.12 1459.94,-31.64 1461.2,-31.11"/>
<polygon fill="red" stroke="red" stroke-width="0.2" points="1463.15,-34.04 1470.45,-26.35 1459.95,-27.81 1463.15,-34.04"/>
</g>
<!-- 216&#45;&gt;6 -->
<g id="edge134" class="edge">
<title>216&#45;&gt;6</title>
<path fill="none" stroke="green" stroke-width="0.13" d="M1084.96,-76.33C1089.44,-73.25 1094.39,-70.4 1099.42,-68.53 1270.47,-4.96 1326.79,-50.21 1508.42,-32.53 1549.18,-28.56 1596.42,-23.41 1625.1,-20.22"/>
<polygon fill="green" stroke="green" stroke-width="0.13" points="1625.58,-23.69 1635.13,-19.1 1624.8,-16.73 1625.58,-23.69"/>
</g>
<!-- 216&#45;&gt;7 -->
<g id="edge135" class="edge">
<title>216&#45;&gt;7</title>
<path fill="none" stroke="red" stroke-width="0.32" d="M1084.93,-76.24C1089.4,-73.16 1094.36,-70.33 1099.42,-68.53 1220.4,-25.31 1548.94,-48.45 1676.42,-32.53 1694.99,-30.21 1715.73,-26.27 1731.58,-22.98"/>
<polygon fill="red" stroke="red" stroke-width="0.32" points="1732.62,-26.33 1741.68,-20.83 1731.17,-19.49 1732.62,-26.33"/>
</g>
<!-- 217&#45;&gt;0 -->
<g id="edge136" class="edge">
<title>217&#45;&gt;0</title>
<path fill="none" stroke="red" stroke-width="0.46" d="M1267.42,-68.13C1267.42,-60.03 1267.42,-50.97 1267.42,-42.77"/>
<polygon fill="red" stroke="red" stroke-width="0.46" points="1270.92,-42.64 1267.42,-32.64 1263.92,-42.64 1270.92,-42.64"/>
</g>
<!-- 217&#45;&gt;1 -->
<g id="edge137" class="edge">
<title>217&#45;&gt;1</title>
<path fill="none" stroke="green" stroke-width="0.47" d="M1248.54,-77.1C1244.08,-73.97 1239.22,-70.91 1234.42,-68.53 1186.83,-44.95 1126.24,-29.73 1092.36,-22.4"/>
<polygon fill="green" stroke="green" stroke-width="0.47" points="1092.86,-18.93 1082.35,-20.3 1091.42,-25.78 1092.86,-18.93"/>
</g>
<!-- 217&#45;&gt;2 -->
<g id="edge138" class="edge">
<title>217&#45;&gt;2</title>
<path fill="none" stroke="green" stroke-width="0.39" d="M1287.35,-78.17C1305.89,-65.05 1333.41,-45.58 1352.31,-32.2"/>
<polygon fill="green" stroke="green" stroke-width="0.39" points="1354.43,-34.99 1360.57,-26.35 1350.38,-29.27 1354.43,-34.99"/>
</g>
<!-- 217&#45;&gt;3 -->
<g id="edge139" class="edge">
<title>217&#45;&gt;3</title>
<path fill="none" stroke="green" stroke-width="0.25" d="M1251.2,-74.12C1241.1,-62.81 1228.12,-48.28 1217.81,-36.74"/>
<polygon fill="green" stroke="green" stroke-width="0.25" points="1220.13,-34.07 1210.85,-28.95 1214.9,-38.74 1220.13,-34.07"/>
</g>
<!-- 217&#45;&gt;4 -->
<g id="edge140" class="edge">
<title>217&#45;&gt;4</title>
<path fill="none" stroke="red" stroke-width="0.35" d="M1287.68,-79.02C1293.6,-75.4 1300.17,-71.62 1306.42,-68.53 1345.76,-49.03 1357.93,-49.52 1398.42,-32.53 1401.74,-31.13 1405.22,-29.62 1408.65,-28.11"/>
<polygon fill="red" stroke="red" stroke-width="0.35" points="1410.23,-31.24 1417.93,-23.96 1407.37,-24.85 1410.23,-31.24"/>
</g>
<!-- 217&#45;&gt;5 -->
<g id="edge141" class="edge">
<title>217&#45;&gt;5</title>
<path fill="none" stroke="red" stroke-width="0.75" d="M1287.43,-78.45C1293.34,-74.82 1299.97,-71.18 1306.42,-68.53 1370.21,-42.26 1393.41,-58.27 1457.42,-32.53 1458.65,-32.03 1459.89,-31.49 1461.12,-30.9"/>
<polygon fill="red" stroke="red" stroke-width="0.75" points="1463.15,-33.79 1470.31,-25.98 1459.84,-27.62 1463.15,-33.79"/>
</g>
<!-- 217&#45;&gt;6 -->
<g id="edge142" class="edge">
<title>217&#45;&gt;6</title>
<path fill="none" stroke="red" stroke-width="0.17" d="M1290.5,-83.64C1304.49,-78.67 1322.8,-72.61 1339.42,-68.53 1443.9,-42.88 1571.28,-26.45 1625.25,-20.16"/>
<polygon fill="red" stroke="red" stroke-width="0.17" points="1625.79,-23.63 1635.33,-19.01 1625,-16.67 1625.79,-23.63"/>
</g>
<!-- 217&#45;&gt;7 -->
<g id="edge143" class="edge">
<title>217&#45;&gt;7</title>
<path fill="none" stroke="red" stroke-width="0.38" d="M1290.42,-83.3C1304.38,-78.2 1322.69,-72.14 1339.42,-68.53 1486.66,-36.76 1527.4,-54.49 1676.42,-32.53 1694.94,-29.8 1715.68,-25.87 1731.54,-22.69"/>
<polygon fill="red" stroke="red" stroke-width="0.38" points="1732.55,-26.05 1741.65,-20.62 1731.15,-19.19 1732.55,-26.05"/>
</g>
</g>
</svg>
