<?xml version="1.0" encoding="UTF-8" standalone="no"?>
<!DOCTYPE svg PUBLIC "-//W3C//DTD SVG 1.1//EN"
 "http://www.w3.org/Graphics/SVG/1.1/DTD/svg11.dtd">
<!-- Generated by graphviz version 2.44.0 (0)
 -->
<!-- Pages: 1 -->
<svg width="1716pt" height="343pt"
 viewBox="0.00 0.00 1716.50 342.53" xmlns="http://www.w3.org/2000/svg" xmlns:xlink="http://www.w3.org/1999/xlink">
<g id="graph0" class="graph" transform="scale(1 1) rotate(0) translate(4 338.53)">
<polygon fill="white" stroke="transparent" points="-4,4 -4,-338.53 1712.5,-338.53 1712.5,4 -4,4"/>
<!-- &#45;1 -->
<g id="node1" class="node">
<title>&#45;1</title>
<polygon fill="lightgray" stroke="black" points="858.32,-264.79 832.32,-264.79 832.32,-246.79 858.32,-246.79 858.32,-264.79"/>
<text text-anchor="middle" x="845.32" y="-253.59" font-family="Times-Roman" font-size="9.00">&#45;1</text>
</g>
<!-- 0 -->
<g id="node7" class="node">
<title>0</title>
<ellipse fill="lightblue" stroke="black" cx="1012.32" cy="-16.26" rx="16.03" ry="16.03"/>
<text text-anchor="middle" x="1012.32" y="-14.06" font-family="Times-Roman" font-size="9.00">0</text>
</g>
<!-- &#45;1&#45;&gt;0 -->
<g id="edge121" class="edge">
<title>&#45;1&#45;&gt;0</title>
<path fill="none" stroke="green" stroke-width="0.28" d="M858.51,-250.92C877.2,-245.6 912.57,-236.09 943.32,-231.04 988.34,-223.64 1321.51,-228.68 1352.32,-195.04 1390.2,-153.68 1315.93,-78.62 1301.32,-68.53 1258.79,-39.17 1102.25,-24.15 1039.04,-19.18"/>
<polygon fill="green" stroke="green" stroke-width="0.28" points="1038.95,-15.66 1028.71,-18.39 1038.42,-22.64 1038.95,-15.66"/>
</g>
<!-- 1 -->
<g id="node8" class="node">
<title>1</title>
<ellipse fill="lightblue" stroke="black" cx="681.32" cy="-93.28" rx="16.03" ry="16.03"/>
<text text-anchor="middle" x="681.32" y="-91.08" font-family="Times-Roman" font-size="9.00">1</text>
</g>
<!-- &#45;1&#45;&gt;1 -->
<g id="edge122" class="edge">
<title>&#45;1&#45;&gt;1</title>
<path fill="none" stroke="red" stroke-width="0.59" d="M832.23,-253C770.42,-244.53 510.39,-208.18 499.32,-195.04 452.03,-138.88 594.62,-108.37 655.34,-98.19"/>
<polygon fill="red" stroke="red" stroke-width="0.59" points="656.02,-101.62 665.33,-96.57 654.9,-94.71 656.02,-101.62"/>
</g>
<!-- 2 -->
<g id="node9" class="node">
<title>2</title>
<ellipse fill="lightblue" stroke="black" cx="1059.32" cy="-93.28" rx="16.03" ry="16.03"/>
<text text-anchor="middle" x="1059.32" y="-91.08" font-family="Times-Roman" font-size="9.00">2</text>
</g>
<!-- &#45;1&#45;&gt;2 -->
<g id="edge123" class="edge">
<title>&#45;1&#45;&gt;2</title>
<path fill="none" stroke="green" stroke-width="0.37" d="M858.51,-250.94C877.21,-245.63 912.58,-236.15 943.32,-231.04 986.36,-223.88 1304.92,-227.27 1334.32,-195.04 1346.6,-181.57 1345.76,-168.22 1334.32,-154.02 1318.56,-134.48 1150.81,-107.8 1085.31,-98.04"/>
<polygon fill="green" stroke="green" stroke-width="0.37" points="1085.77,-94.57 1075.36,-96.58 1084.75,-101.5 1085.77,-94.57"/>
</g>
<!-- 3 -->
<g id="node10" class="node">
<title>3</title>
<ellipse fill="lightblue" stroke="black" cx="891.32" cy="-93.28" rx="16.03" ry="16.03"/>
<text text-anchor="middle" x="891.32" y="-91.08" font-family="Times-Roman" font-size="9.00">3</text>
</g>
<!-- &#45;1&#45;&gt;3 -->
<g id="edge124" class="edge">
<title>&#45;1&#45;&gt;3</title>
<path fill="none" stroke="red" stroke-width="0.3" d="M847.66,-246.6C854.33,-223.35 873.59,-156.15 884.16,-119.25"/>
<polygon fill="red" stroke="red" stroke-width="0.3" points="887.63,-119.86 887.02,-109.29 880.9,-117.93 887.63,-119.86"/>
</g>
<!-- 4 -->
<g id="node11" class="node">
<title>4</title>
<ellipse fill="lightblue" stroke="black" cx="521.32" cy="-93.28" rx="16.03" ry="16.03"/>
<text text-anchor="middle" x="521.32" y="-91.08" font-family="Times-Roman" font-size="9.00">4</text>
</g>
<!-- &#45;1&#45;&gt;4 -->
<g id="edge125" class="edge">
<title>&#45;1&#45;&gt;4</title>
<path fill="none" stroke="green" stroke-width="0.3" d="M832.32,-252.85C802.84,-248.5 728.65,-237.83 666.32,-231.04 619.54,-225.94 276.15,-229.7 244.32,-195.04 170.45,-114.6 412.26,-98.25 494.75,-95.03"/>
<polygon fill="green" stroke="green" stroke-width="0.3" points="494.98,-98.53 504.85,-94.68 494.73,-91.53 494.98,-98.53"/>
</g>
<!-- 5 -->
<g id="node12" class="node">
<title>5</title>
<ellipse fill="lightblue" stroke="black" cx="840.32" cy="-93.28" rx="16.03" ry="16.03"/>
<text text-anchor="middle" x="840.32" y="-91.08" font-family="Times-Roman" font-size="9.00">5</text>
</g>
<!-- &#45;1&#45;&gt;5 -->
<g id="edge126" class="edge">
<title>&#45;1&#45;&gt;5</title>
<path fill="none" stroke="green" stroke-width="0.62" d="M845.06,-246.6C844.34,-223.41 842.26,-156.48 841.11,-119.53"/>
<polygon fill="green" stroke="green" stroke-width="0.62" points="844.6,-119.42 840.79,-109.54 837.61,-119.64 844.6,-119.42"/>
</g>
<!-- 64 -->
<g id="node13" class="node">
<title>64</title>
<ellipse fill="white" stroke="black" cx="1304.32" cy="-174.53" rx="20.51" ry="20.51"/>
<text text-anchor="middle" x="1304.32" y="-172.33" font-family="Times-Roman" font-size="9.00">64</text>
</g>
<!-- &#45;1&#45;&gt;64 -->
<g id="edge9" class="edge">
<title>&#45;1&#45;&gt;64</title>
<path fill="none" stroke="red" stroke-width="0.3" d="M858.52,-251.01C877.23,-245.78 912.62,-236.4 943.32,-231.04 1089.53,-205.51 1135.9,-245.94 1275.32,-195.04 1276.74,-194.52 1278.17,-193.91 1279.58,-193.24"/>
<polygon fill="red" stroke="red" stroke-width="0.3" points="1281.56,-196.14 1288.51,-188.15 1278.09,-190.06 1281.56,-196.14"/>
</g>
<!-- 65 -->
<g id="node14" class="node">
<title>65</title>
<ellipse fill="white" stroke="black" cx="529.32" cy="-174.53" rx="20.51" ry="20.51"/>
<text text-anchor="middle" x="529.32" y="-172.33" font-family="Times-Roman" font-size="9.00">65</text>
</g>
<!-- &#45;1&#45;&gt;65 -->
<g id="edge10" class="edge">
<title>&#45;1&#45;&gt;65</title>
<path fill="none" stroke="green" stroke-width="0.35" d="M832.14,-251.48C785.24,-239.72 625.67,-199.7 558.98,-182.97"/>
<polygon fill="green" stroke="green" stroke-width="0.35" points="559.66,-179.53 549.11,-180.49 557.96,-186.32 559.66,-179.53"/>
</g>
<!-- 56 -->
<g id="node17" class="node">
<title>56</title>
<ellipse fill="white" stroke="black" cx="1012.32" cy="-174.53" rx="20.51" ry="20.51"/>
<text text-anchor="middle" x="1012.32" y="-172.33" font-family="Times-Roman" font-size="9.00">56</text>
</g>
<!-- &#45;1&#45;&gt;56 -->
<g id="edge1" class="edge">
<title>&#45;1&#45;&gt;56</title>
<path fill="none" stroke="red" stroke-width="0.13" d="M858.42,-248.57C885.6,-235.67 948.58,-205.78 984.99,-188.5"/>
<polygon fill="red" stroke="red" stroke-width="0.13" points="986.54,-191.64 994.07,-184.19 983.54,-185.31 986.54,-191.64"/>
</g>
<!-- 57 -->
<g id="node18" class="node">
<title>57</title>
<ellipse fill="white" stroke="black" cx="372.32" cy="-174.53" rx="20.51" ry="20.51"/>
<text text-anchor="middle" x="372.32" y="-172.33" font-family="Times-Roman" font-size="9.00">57</text>
</g>
<!-- &#45;1&#45;&gt;57 -->
<g id="edge2" class="edge">
<title>&#45;1&#45;&gt;57</title>
<path fill="none" stroke="red" stroke-width="0.22" d="M832.12,-253.03C758.7,-243.26 403.93,-196.03 401.32,-195.04 399.9,-194.5 398.48,-193.88 397.08,-193.2"/>
<polygon fill="red" stroke="red" stroke-width="0.22" points="398.57,-190.02 388.16,-188.07 395.08,-196.09 398.57,-190.02"/>
</g>
<!-- 58 -->
<g id="node19" class="node">
<title>58</title>
<ellipse fill="white" stroke="black" cx="741.32" cy="-174.53" rx="20.51" ry="20.51"/>
<text text-anchor="middle" x="741.32" y="-172.33" font-family="Times-Roman" font-size="9.00">58</text>
</g>
<!-- &#45;1&#45;&gt;58 -->
<g id="edge3" class="edge">
<title>&#45;1&#45;&gt;58</title>
<path fill="none" stroke="green" stroke-width="0.39" d="M834.58,-246.6C818.36,-234.24 787.2,-210.49 765.37,-193.86"/>
<polygon fill="green" stroke="green" stroke-width="0.39" points="767.31,-190.94 757.23,-187.66 763.07,-196.5 767.31,-190.94"/>
</g>
<!-- 59 -->
<g id="node20" class="node">
<title>59</title>
<ellipse fill="white" stroke="black" cx="800.32" cy="-174.53" rx="20.51" ry="20.51"/>
<text text-anchor="middle" x="800.32" y="-172.33" font-family="Times-Roman" font-size="9.00">59</text>
</g>
<!-- &#45;1&#45;&gt;59 -->
<g id="edge4" class="edge">
<title>&#45;1&#45;&gt;59</title>
<path fill="none" stroke="green" stroke-width="0.45" d="M840.67,-246.6C834.67,-236.02 823.92,-217.1 815.03,-201.44"/>
<polygon fill="green" stroke="green" stroke-width="0.45" points="818.04,-199.65 810.06,-192.68 811.95,-203.1 818.04,-199.65"/>
</g>
<!-- 60 -->
<g id="node21" class="node">
<title>60</title>
<ellipse fill="white" stroke="black" cx="431.32" cy="-174.53" rx="20.51" ry="20.51"/>
<text text-anchor="middle" x="431.32" y="-172.33" font-family="Times-Roman" font-size="9.00">60</text>
</g>
<!-- &#45;1&#45;&gt;60 -->
<g id="edge5" class="edge">
<title>&#45;1&#45;&gt;60</title>
<path fill="none" stroke="green" stroke-width="0.25" d="M831.97,-252.96C768.85,-244.32 501.82,-207.29 466.32,-195.04 463.33,-194 460.29,-192.72 457.32,-191.31"/>
<polygon fill="green" stroke="green" stroke-width="0.25" points="458.68,-188.07 448.2,-186.51 455.42,-194.27 458.68,-188.07"/>
</g>
<!-- 61 -->
<g id="node22" class="node">
<title>61</title>
<ellipse fill="white" stroke="black" cx="1186.32" cy="-174.53" rx="20.51" ry="20.51"/>
<text text-anchor="middle" x="1186.32" y="-172.33" font-family="Times-Roman" font-size="9.00">61</text>
</g>
<!-- &#45;1&#45;&gt;61 -->
<g id="edge6" class="edge">
<title>&#45;1&#45;&gt;61</title>
<path fill="none" stroke="green" stroke-width="0.25" d="M858.57,-251.28C877.35,-246.38 912.81,-237.37 943.32,-231.04 1035.18,-211.98 1062.87,-226.32 1151.32,-195.04 1154.31,-193.98 1157.34,-192.68 1160.3,-191.26"/>
<polygon fill="green" stroke="green" stroke-width="0.25" points="1162.2,-194.22 1169.42,-186.46 1158.94,-188.03 1162.2,-194.22"/>
</g>
<!-- 62 -->
<g id="node23" class="node">
<title>62</title>
<ellipse fill="white" stroke="black" cx="274.32" cy="-174.53" rx="20.51" ry="20.51"/>
<text text-anchor="middle" x="274.32" y="-172.33" font-family="Times-Roman" font-size="9.00">62</text>
</g>
<!-- &#45;1&#45;&gt;62 -->
<g id="edge7" class="edge">
<title>&#45;1&#45;&gt;62</title>
<path fill="none" stroke="red" stroke-width="0.6" d="M832.31,-252.92C802.82,-248.71 728.59,-238.31 666.32,-231.04 507.92,-212.55 461.46,-242.84 309.32,-195.04 306.3,-194.09 303.24,-192.86 300.26,-191.48"/>
<polygon fill="red" stroke="red" stroke-width="0.6" points="301.62,-188.24 291.13,-186.72 298.39,-194.45 301.62,-188.24"/>
</g>
<!-- 63 -->
<g id="node24" class="node">
<title>63</title>
<ellipse fill="white" stroke="black" cx="1245.32" cy="-174.53" rx="20.51" ry="20.51"/>
<text text-anchor="middle" x="1245.32" y="-172.33" font-family="Times-Roman" font-size="9.00">63</text>
</g>
<!-- &#45;1&#45;&gt;63 -->
<g id="edge8" class="edge">
<title>&#45;1&#45;&gt;63</title>
<path fill="none" stroke="green" stroke-width="0.11" d="M858.54,-251.11C877.27,-246 912.69,-236.75 943.32,-231.04 1063.63,-208.59 1101.85,-238.33 1216.32,-195.04 1217.74,-194.5 1219.16,-193.88 1220.56,-193.2"/>
<polygon fill="green" stroke="green" stroke-width="0.11" points="1222.56,-196.09 1229.48,-188.08 1219.07,-190.02 1222.56,-196.09"/>
</g>
<!-- &#45;2 -->
<g id="node2" class="node">
<title>&#45;2</title>
<polygon fill="lightgray" stroke="black" points="608.32,-264.79 582.32,-264.79 582.32,-246.79 608.32,-246.79 608.32,-264.79"/>
<text text-anchor="middle" x="595.32" y="-253.59" font-family="Times-Roman" font-size="9.00">&#45;2</text>
</g>
<!-- &#45;2&#45;&gt;0 -->
<g id="edge127" class="edge">
<title>&#45;2&#45;&gt;0</title>
<path fill="none" stroke="green" stroke-width="0.14" d="M582.17,-252.81C553.06,-248.48 480.94,-237.97 420.32,-231.04 377.52,-226.14 63.33,-226.88 34.32,-195.04 22.04,-181.56 30.28,-171.8 34.32,-154.02 43.66,-112.93 40.28,-91.94 75.32,-68.53 152.88,-16.69 841.65,-16.57 985.9,-17.12"/>
<polygon fill="green" stroke="green" stroke-width="0.14" points="986.03,-20.63 996.04,-17.17 986.06,-13.63 986.03,-20.63"/>
</g>
<!-- &#45;2&#45;&gt;1 -->
<g id="edge128" class="edge">
<title>&#45;2&#45;&gt;1</title>
<path fill="none" stroke="red" stroke-width="0.39" d="M582.29,-253C511.36,-243.27 175.06,-197.04 173.32,-195.04 161.37,-181.27 161.07,-167.52 173.32,-154.02 201.31,-123.2 505.06,-123.64 546.32,-118.02 584.62,-112.81 628.67,-104.65 655.75,-99.39"/>
<polygon fill="red" stroke="red" stroke-width="0.39" points="656.45,-102.82 665.59,-97.45 655.1,-95.95 656.45,-102.82"/>
</g>
<!-- &#45;2&#45;&gt;2 -->
<g id="edge129" class="edge">
<title>&#45;2&#45;&gt;2</title>
<path fill="none" stroke="green" stroke-width="0.42" d="M602.51,-246.44C607.52,-241.18 614.66,-234.7 622.32,-231.04 706.94,-190.53 740.5,-222.13 830.32,-195.04 908.69,-171.4 995.78,-127.96 1036.28,-106.68"/>
<polygon fill="green" stroke="green" stroke-width="0.42" points="1038.12,-109.67 1045.31,-101.89 1034.84,-103.48 1038.12,-109.67"/>
</g>
<!-- &#45;2&#45;&gt;3 -->
<g id="edge130" class="edge">
<title>&#45;2&#45;&gt;3</title>
<path fill="none" stroke="red" stroke-width="0.11" d="M598.72,-246.62C607.33,-227.07 631.98,-177.41 669.32,-154.02 744.38,-107.02 785.99,-157.42 865.32,-118.02 867.99,-116.7 870.58,-115.02 873.04,-113.16"/>
<polygon fill="red" stroke="red" stroke-width="0.11" points="875.49,-115.67 880.73,-106.46 870.89,-110.39 875.49,-115.67"/>
</g>
<!-- &#45;2&#45;&gt;4 -->
<g id="edge131" class="edge">
<title>&#45;2&#45;&gt;4</title>
<path fill="none" stroke="red" stroke-width="0.17" d="M582.17,-252.8C553.06,-248.44 480.95,-237.88 420.32,-231.04 376.09,-226.04 51.35,-227.9 21.32,-195.04 9.02,-181.58 9.22,-167.66 21.32,-154.02 53.1,-118.22 396.54,-99.94 495.05,-95.41"/>
<polygon fill="red" stroke="red" stroke-width="0.17" points="495.23,-98.91 505.07,-94.96 494.92,-91.92 495.23,-98.91"/>
</g>
<!-- &#45;2&#45;&gt;5 -->
<g id="edge132" class="edge">
<title>&#45;2&#45;&gt;5</title>
<path fill="none" stroke="green" stroke-width="0.22" d="M582.04,-253.01C519.34,-244.57 255.56,-208.35 244.32,-195.04 232.56,-181.11 231.94,-167.4 244.32,-154.02 279.28,-116.23 655.24,-124.52 706.32,-118.02 744.02,-113.23 787.24,-105.08 814.16,-99.69"/>
<polygon fill="green" stroke="green" stroke-width="0.22" points="815.2,-103.05 824.31,-97.64 813.81,-96.19 815.2,-103.05"/>
</g>
<!-- &#45;2&#45;&gt;64 -->
<g id="edge19" class="edge">
<title>&#45;2&#45;&gt;64</title>
<path fill="none" stroke="red" stroke-width="0.16" d="M601.94,-246.61C606.91,-241.14 614.23,-234.35 622.32,-231.04 756.83,-176.02 1137.53,-241.25 1275.32,-195.04 1276.94,-194.49 1278.56,-193.83 1280.15,-193.09"/>
<polygon fill="red" stroke="red" stroke-width="0.16" points="1281.92,-196.11 1288.88,-188.12 1278.45,-190.02 1281.92,-196.11"/>
</g>
<!-- &#45;2&#45;&gt;65 -->
<g id="edge20" class="edge">
<title>&#45;2&#45;&gt;65</title>
<path fill="none" stroke="red" stroke-width="0.21" d="M588.51,-246.6C579.19,-235.42 562.12,-214.92 548.69,-198.8"/>
<polygon fill="red" stroke="red" stroke-width="0.21" points="551.16,-196.28 542.07,-190.84 545.78,-200.76 551.16,-196.28"/>
</g>
<!-- &#45;2&#45;&gt;56 -->
<g id="edge11" class="edge">
<title>&#45;2&#45;&gt;56</title>
<path fill="none" stroke="red" stroke-width="0.45" d="M602.01,-246.76C607,-241.35 614.33,-234.58 622.32,-231.04 751.95,-173.57 800,-221.41 939.32,-195.04 953.86,-192.28 969.77,-188.17 983.01,-184.43"/>
<polygon fill="red" stroke="red" stroke-width="0.45" points="984.35,-187.68 992.98,-181.54 982.4,-180.96 984.35,-187.68"/>
</g>
<!-- &#45;2&#45;&gt;57 -->
<g id="edge12" class="edge">
<title>&#45;2&#45;&gt;57</title>
<path fill="none" stroke="green" stroke-width="0.36" d="M582.12,-252.13C550.04,-245.37 465.88,-225.86 401.32,-195.04 399.95,-194.38 398.57,-193.67 397.2,-192.92"/>
<polygon fill="green" stroke="green" stroke-width="0.36" points="398.74,-189.76 388.38,-187.55 395.1,-195.74 398.74,-189.76"/>
</g>
<!-- &#45;2&#45;&gt;58 -->
<g id="edge13" class="edge">
<title>&#45;2&#45;&gt;58</title>
<path fill="none" stroke="green" stroke-width="0.15" d="M603.33,-246.64C608.46,-241.72 615.42,-235.55 622.32,-231.04 651.33,-212.07 687.86,-196.05 712.74,-186.17"/>
<polygon fill="green" stroke="green" stroke-width="0.15" points="714.27,-189.34 722.31,-182.45 711.73,-182.81 714.27,-189.34"/>
</g>
<!-- &#45;2&#45;&gt;59 -->
<g id="edge14" class="edge">
<title>&#45;2&#45;&gt;59</title>
<path fill="none" stroke="red" stroke-width="0.25" d="M602.59,-246.6C607.64,-241.41 614.79,-234.95 622.32,-231.04 682.77,-199.62 708.96,-222.48 771.32,-195.04 772.71,-194.43 774.1,-193.75 775.49,-193.02"/>
<polygon fill="red" stroke="red" stroke-width="0.25" points="777.55,-195.87 784.35,-187.74 773.96,-189.86 777.55,-195.87"/>
</g>
<!-- &#45;2&#45;&gt;60 -->
<g id="edge15" class="edge">
<title>&#45;2&#45;&gt;60</title>
<path fill="none" stroke="red" stroke-width="0.34" d="M581.98,-249C558.39,-238.69 507.89,-216.21 466.32,-195.04 463.56,-193.63 460.7,-192.12 457.85,-190.59"/>
<polygon fill="red" stroke="red" stroke-width="0.34" points="459.44,-187.47 448.99,-185.71 456.06,-193.6 459.44,-187.47"/>
</g>
<!-- &#45;2&#45;&gt;61 -->
<g id="edge16" class="edge">
<title>&#45;2&#45;&gt;61</title>
<path fill="none" stroke="green" stroke-width="0.18" d="M601.98,-246.69C606.96,-241.25 614.28,-234.47 622.32,-231.04 708.47,-194.26 949.21,-205.33 1042.32,-195.04 1081.63,-190.69 1126.79,-184.36 1155.89,-180.09"/>
<polygon fill="green" stroke="green" stroke-width="0.18" points="1156.47,-183.55 1165.85,-178.63 1155.45,-176.62 1156.47,-183.55"/>
</g>
<!-- &#45;2&#45;&gt;62 -->
<g id="edge17" class="edge">
<title>&#45;2&#45;&gt;62</title>
<path fill="none" stroke="green" stroke-width="0.61" d="M582.1,-253.46C540.7,-249.01 410.31,-232.73 309.32,-195.04 306.35,-193.93 303.33,-192.6 300.37,-191.16"/>
<polygon fill="green" stroke="green" stroke-width="0.61" points="301.74,-187.92 291.27,-186.33 298.46,-194.11 301.74,-187.92"/>
</g>
<!-- &#45;2&#45;&gt;63 -->
<g id="edge18" class="edge">
<title>&#45;2&#45;&gt;63</title>
<path fill="none" stroke="green" stroke-width="0.27" d="M601.95,-246.63C606.92,-241.16 614.24,-234.37 622.32,-231.04 744.58,-180.64 1091.06,-237.43 1216.32,-195.04 1217.94,-194.49 1219.55,-193.82 1221.15,-193.08"/>
<polygon fill="green" stroke="green" stroke-width="0.27" points="1222.92,-196.1 1229.87,-188.1 1219.45,-190.01 1222.92,-196.1"/>
</g>
<!-- &#45;3 -->
<g id="node3" class="node">
<title>&#45;3</title>
<polygon fill="lightgray" stroke="black" points="1070.32,-264.79 1044.32,-264.79 1044.32,-246.79 1070.32,-246.79 1070.32,-264.79"/>
<text text-anchor="middle" x="1057.32" y="-253.59" font-family="Times-Roman" font-size="9.00">&#45;3</text>
</g>
<!-- &#45;3&#45;&gt;0 -->
<g id="edge133" class="edge">
<title>&#45;3&#45;&gt;0</title>
<path fill="none" stroke="green" stroke-width="0.24" d="M1070.56,-254.54C1156.18,-252.81 1629.44,-241.19 1671.32,-195.04 1709.1,-153.4 1709.5,-109.8 1671.32,-68.53 1627.72,-21.4 1156.78,-17.49 1038.93,-17.26"/>
<polygon fill="green" stroke="green" stroke-width="0.24" points="1038.66,-13.76 1028.66,-17.24 1038.65,-20.76 1038.66,-13.76"/>
</g>
<!-- &#45;3&#45;&gt;1 -->
<g id="edge134" class="edge">
<title>&#45;3&#45;&gt;1</title>
<path fill="none" stroke="red" stroke-width="0.4" d="M1058.95,-246.61C1062.27,-227.47 1067.46,-179.41 1042.32,-154.02 1006.38,-117.74 865.69,-126.48 815.32,-118.02 777.84,-111.73 734.56,-103.97 707.57,-99.07"/>
<polygon fill="red" stroke="red" stroke-width="0.4" points="707.86,-95.57 697.39,-97.22 706.6,-102.45 707.86,-95.57"/>
</g>
<!-- &#45;3&#45;&gt;2 -->
<g id="edge135" class="edge">
<title>&#45;3&#45;&gt;2</title>
<path fill="none" stroke="red" stroke-width="0.16" d="M1070.71,-254.22C1146.95,-250.9 1523.95,-232.63 1557.32,-195.04 1637.41,-104.81 1644.87,-168.97 1233.32,-118.02 1180.9,-111.54 1119.74,-102.95 1085.68,-98.08"/>
<polygon fill="red" stroke="red" stroke-width="0.16" points="1086.01,-94.59 1075.61,-96.64 1085.02,-101.52 1086.01,-94.59"/>
</g>
<!-- &#45;3&#45;&gt;3 -->
<g id="edge136" class="edge">
<title>&#45;3&#45;&gt;3</title>
<path fill="none" stroke="green" stroke-width="0.44" d="M1070.75,-254.78C1138.96,-254.34 1440.67,-247.18 1357.32,-154.02 1309.16,-100.2 1105.86,-127.94 1034.32,-118.02 993.21,-112.32 945.71,-104.11 917.13,-98.99"/>
<polygon fill="green" stroke="green" stroke-width="0.44" points="917.61,-95.52 907.15,-97.19 916.37,-102.41 917.61,-95.52"/>
</g>
<!-- &#45;3&#45;&gt;4 -->
<g id="edge137" class="edge">
<title>&#45;3&#45;&gt;4</title>
<path fill="none" stroke="red" stroke-width="0.31" d="M1044.13,-249.43C1030.22,-244 1007.57,-235.74 987.32,-231.04 866.83,-203.03 829.18,-232.62 711.32,-195.04 646.29,-174.3 577.24,-131.8 543.08,-109.19"/>
<polygon fill="red" stroke="red" stroke-width="0.31" points="544.66,-106.03 534.4,-103.37 540.76,-111.85 544.66,-106.03"/>
</g>
<!-- &#45;3&#45;&gt;5 -->
<g id="edge138" class="edge">
<title>&#45;3&#45;&gt;5</title>
<path fill="none" stroke="green" stroke-width="0.1" d="M1070.64,-254.47C1135.63,-252.5 1413.07,-239.07 1334.32,-154.02 1263.45,-77.49 962.05,-159.46 866.32,-118.02 863.38,-116.75 860.56,-115.01 857.93,-113.04"/>
<polygon fill="green" stroke="green" stroke-width="0.1" points="860.08,-110.27 850.27,-106.28 855.45,-115.52 860.08,-110.27"/>
</g>
<!-- &#45;3&#45;&gt;64 -->
<g id="edge29" class="edge">
<title>&#45;3&#45;&gt;64</title>
<path fill="none" stroke="red" stroke-width="0.25" d="M1070.36,-252.74C1104.99,-246.97 1201.65,-228.8 1275.32,-195.04 1276.7,-194.4 1278.08,-193.71 1279.46,-192.97"/>
<polygon fill="red" stroke="red" stroke-width="0.25" points="1281.54,-195.8 1288.3,-187.64 1277.93,-189.81 1281.54,-195.8"/>
</g>
<!-- &#45;3&#45;&gt;65 -->
<g id="edge30" class="edge">
<title>&#45;3&#45;&gt;65</title>
<path fill="none" stroke="red" stroke-width="0.61" d="M1044.14,-249.38C1030.25,-243.9 1007.6,-235.6 987.32,-231.04 852.44,-200.66 815.54,-212.01 678.32,-195.04 637.27,-189.96 589.92,-183.69 559.82,-179.65"/>
<polygon fill="red" stroke="red" stroke-width="0.61" points="559.93,-176.14 549.55,-178.27 559,-183.07 559.93,-176.14"/>
</g>
<!-- &#45;3&#45;&gt;56 -->
<g id="edge21" class="edge">
<title>&#45;3&#45;&gt;56</title>
<path fill="none" stroke="green" stroke-width="0.23" d="M1052.67,-246.6C1046.67,-236.02 1035.92,-217.1 1027.03,-201.44"/>
<polygon fill="green" stroke="green" stroke-width="0.23" points="1030.04,-199.65 1022.06,-192.68 1023.95,-203.1 1030.04,-199.65"/>
</g>
<!-- &#45;3&#45;&gt;57 -->
<g id="edge22" class="edge">
<title>&#45;3&#45;&gt;57</title>
<path fill="none" stroke="green" stroke-width="0.22" d="M1044.19,-249.15C1030.33,-243.49 1007.72,-235.05 987.32,-231.04 731.29,-180.68 648.45,-278.78 401.32,-195.04 399.7,-194.49 398.09,-193.82 396.49,-193.08"/>
<polygon fill="green" stroke="green" stroke-width="0.22" points="398.19,-190.01 387.77,-188.1 394.72,-196.09 398.19,-190.01"/>
</g>
<!-- &#45;3&#45;&gt;58 -->
<g id="edge23" class="edge">
<title>&#45;3&#45;&gt;58</title>
<path fill="none" stroke="red" stroke-width="0.48" d="M1044.09,-249.58C1030.16,-244.26 1007.48,-236.09 987.32,-231.04 892.49,-207.25 861.17,-231.14 770.32,-195.04 768.91,-194.48 767.5,-193.84 766.1,-193.15"/>
<polygon fill="red" stroke="red" stroke-width="0.48" points="767.6,-189.97 757.2,-187.97 764.08,-196.02 767.6,-189.97"/>
</g>
<!-- &#45;3&#45;&gt;59 -->
<g id="edge24" class="edge">
<title>&#45;3&#45;&gt;59</title>
<path fill="none" stroke="red" stroke-width="0.36" d="M1044.21,-250.17C1030.18,-245.27 1007.25,-237.37 987.32,-231.04 931.95,-213.43 866.81,-194.5 829.86,-183.92"/>
<polygon fill="red" stroke="red" stroke-width="0.36" points="830.35,-180.42 819.78,-181.04 828.43,-187.15 830.35,-180.42"/>
</g>
<!-- &#45;3&#45;&gt;60 -->
<g id="edge25" class="edge">
<title>&#45;3&#45;&gt;60</title>
<path fill="none" stroke="green" stroke-width="0.48" d="M1044.18,-249.2C1030.31,-243.59 1007.69,-235.17 987.32,-231.04 774.19,-187.75 713.42,-233.22 499.32,-195.04 486.32,-192.72 472.25,-188.91 460.29,-185.27"/>
<polygon fill="green" stroke="green" stroke-width="0.48" points="461.01,-181.82 450.42,-182.15 458.9,-188.5 461.01,-181.82"/>
</g>
<!-- &#45;3&#45;&gt;61 -->
<g id="edge26" class="edge">
<title>&#45;3&#45;&gt;61</title>
<path fill="none" stroke="red" stroke-width="0.16" d="M1070.64,-246.6C1091.81,-233.6 1133.5,-207.98 1160.62,-191.32"/>
<polygon fill="red" stroke="red" stroke-width="0.16" points="1162.52,-194.26 1169.21,-186.04 1158.86,-188.29 1162.52,-194.26"/>
</g>
<!-- &#45;3&#45;&gt;62 -->
<g id="edge27" class="edge">
<title>&#45;3&#45;&gt;62</title>
<path fill="none" stroke="red" stroke-width="0.61" d="M1044.19,-249.13C1030.34,-243.45 1007.73,-234.99 987.32,-231.04 705.45,-176.41 625.41,-242.92 342.32,-195.04 329.3,-192.83 315.22,-189.04 303.27,-185.38"/>
<polygon fill="red" stroke="red" stroke-width="0.61" points="303.99,-181.94 293.4,-182.25 301.87,-188.61 303.99,-181.94"/>
</g>
<!-- &#45;3&#45;&gt;63 -->
<g id="edge28" class="edge">
<title>&#45;3&#45;&gt;63</title>
<path fill="none" stroke="green" stroke-width="0.13" d="M1070.53,-250.97C1098.36,-242.68 1164.68,-221.65 1216.32,-195.04 1217.67,-194.34 1219.03,-193.6 1220.39,-192.82"/>
<polygon fill="green" stroke="green" stroke-width="0.13" points="1222.52,-195.61 1229.16,-187.36 1218.82,-189.67 1222.52,-195.61"/>
</g>
<!-- &#45;4 -->
<g id="node4" class="node">
<title>&#45;4</title>
<polygon fill="lightgray" stroke="black" points="657.32,-264.79 631.32,-264.79 631.32,-246.79 657.32,-246.79 657.32,-264.79"/>
<text text-anchor="middle" x="644.32" y="-253.59" font-family="Times-Roman" font-size="9.00">&#45;4</text>
</g>
<!-- &#45;4&#45;&gt;0 -->
<g id="edge139" class="edge">
<title>&#45;4&#45;&gt;0</title>
<path fill="none" stroke="red" stroke-width="0.2" d="M637.69,-246.63C632.71,-241.17 625.4,-234.38 617.32,-231.04 558.58,-206.74 89.83,-241.38 46.32,-195.04 33.84,-181.75 35.5,-168.7 46.32,-154.02 122.51,-50.65 196.15,-92.44 322.32,-68.53 577.21,-20.23 893.12,-16.94 985.68,-17.09"/>
<polygon fill="red" stroke="red" stroke-width="0.2" points="985.83,-20.59 995.84,-17.12 985.85,-13.59 985.83,-20.59"/>
</g>
<!-- &#45;4&#45;&gt;1 -->
<g id="edge140" class="edge">
<title>&#45;4&#45;&gt;1</title>
<path fill="none" stroke="red" stroke-width="0.32" d="M637.65,-246.72C632.66,-241.29 625.34,-234.51 617.32,-231.04 540.91,-197.93 300.3,-256.68 244.32,-195.04 232.07,-181.54 232.22,-167.65 244.32,-154.02 289.19,-103.48 479.46,-127.88 546.32,-118.02 584.56,-112.39 628.63,-104.34 655.73,-99.21"/>
<polygon fill="red" stroke="red" stroke-width="0.32" points="656.4,-102.65 665.57,-97.34 655.09,-95.77 656.4,-102.65"/>
</g>
<!-- &#45;4&#45;&gt;2 -->
<g id="edge141" class="edge">
<title>&#45;4&#45;&gt;2</title>
<path fill="none" stroke="red" stroke-width="0.23" d="M657.76,-252.99C726.43,-243.77 1035.23,-202 1042.32,-195.04 1061.99,-175.72 1064.04,-142.73 1062.62,-119.78"/>
<polygon fill="red" stroke="red" stroke-width="0.23" points="1066.1,-119.38 1061.74,-109.73 1059.13,-120 1066.1,-119.38"/>
</g>
<!-- &#45;4&#45;&gt;3 -->
<g id="edge142" class="edge">
<title>&#45;4&#45;&gt;3</title>
<path fill="none" stroke="red" stroke-width="0.17" d="M647.24,-246.74C654.68,-227.45 676.29,-178.34 711.32,-154.02 769.06,-113.94 803.13,-150.79 865.32,-118.02 867.96,-116.64 870.53,-114.91 872.97,-113.04"/>
<polygon fill="red" stroke="red" stroke-width="0.17" points="875.43,-115.54 880.66,-106.32 870.82,-110.27 875.43,-115.54"/>
</g>
<!-- &#45;4&#45;&gt;4 -->
<g id="edge143" class="edge">
<title>&#45;4&#45;&gt;4</title>
<path fill="none" stroke="green" stroke-width="0.33" d="M637.69,-246.64C632.71,-241.17 625.39,-234.38 617.32,-231.04 559.93,-207.25 101.81,-240.36 59.32,-195.04 46.85,-181.74 47.29,-167.71 59.32,-154.02 88.34,-121.01 401.23,-100.98 494.95,-95.69"/>
<polygon fill="green" stroke="green" stroke-width="0.33" points="495.23,-99.18 505.02,-95.13 494.84,-92.19 495.23,-99.18"/>
</g>
<!-- &#45;4&#45;&gt;5 -->
<g id="edge144" class="edge">
<title>&#45;4&#45;&gt;5</title>
<path fill="none" stroke="green" stroke-width="0.26" d="M640.93,-246.74C633.75,-228.27 619.3,-182.24 640.32,-154.02 661.3,-125.87 765.11,-106.1 814.34,-98.16"/>
<polygon fill="green" stroke="green" stroke-width="0.26" points="814.9,-101.61 824.24,-96.6 813.81,-94.7 814.9,-101.61"/>
</g>
<!-- &#45;4&#45;&gt;64 -->
<g id="edge39" class="edge">
<title>&#45;4&#45;&gt;64</title>
<path fill="none" stroke="red" stroke-width="0.25" d="M657.76,-252.76C687.53,-248.32 761.28,-237.62 823.32,-231.04 1023.72,-209.78 1085.05,-261.44 1275.32,-195.04 1276.93,-194.47 1278.55,-193.8 1280.13,-193.04"/>
<polygon fill="red" stroke="red" stroke-width="0.25" points="1281.92,-196.05 1288.85,-188.04 1278.43,-189.98 1281.92,-196.05"/>
</g>
<!-- &#45;4&#45;&gt;65 -->
<g id="edge40" class="edge">
<title>&#45;4&#45;&gt;65</title>
<path fill="none" stroke="red" stroke-width="0.28" d="M635.62,-246.5C630.47,-241.76 623.72,-235.82 617.32,-231.04 597.36,-216.11 573.36,-201.16 555.47,-190.53"/>
<polygon fill="red" stroke="red" stroke-width="0.28" points="557.12,-187.44 546.72,-185.4 553.57,-193.48 557.12,-187.44"/>
</g>
<!-- &#45;4&#45;&gt;56 -->
<g id="edge31" class="edge">
<title>&#45;4&#45;&gt;56</title>
<path fill="none" stroke="red" stroke-width="0.44" d="M657.32,-252.45C698.7,-244.94 830.96,-220.46 939.32,-195.04 953.73,-191.66 969.62,-187.47 982.88,-183.84"/>
<polygon fill="red" stroke="red" stroke-width="0.44" points="984.18,-187.11 992.88,-181.07 982.31,-180.36 984.18,-187.11"/>
</g>
<!-- &#45;4&#45;&gt;57 -->
<g id="edge32" class="edge">
<title>&#45;4&#45;&gt;57</title>
<path fill="none" stroke="green" stroke-width="0.24" d="M637.14,-246.42C632.13,-241.15 624.99,-234.68 617.32,-231.04 529.4,-189.29 491.75,-231.01 401.32,-195.04 399.91,-194.48 398.5,-193.84 397.1,-193.15"/>
<polygon fill="green" stroke="green" stroke-width="0.24" points="398.6,-189.97 388.2,-187.97 395.08,-196.02 398.6,-189.97"/>
</g>
<!-- &#45;4&#45;&gt;58 -->
<g id="edge33" class="edge">
<title>&#45;4&#45;&gt;58</title>
<path fill="none" stroke="green" stroke-width="0.36" d="M654.33,-246.6C669.23,-234.44 697.62,-211.23 717.92,-194.65"/>
<polygon fill="green" stroke="green" stroke-width="0.36" points="720.26,-197.25 725.79,-188.22 715.84,-191.83 720.26,-197.25"/>
</g>
<!-- &#45;4&#45;&gt;59 -->
<g id="edge34" class="edge">
<title>&#45;4&#45;&gt;59</title>
<path fill="none" stroke="green" stroke-width="0.12" d="M657.63,-249.32C681.13,-239.5 731.26,-217.76 771.32,-195.04 772.64,-194.29 773.98,-193.5 775.32,-192.69"/>
<polygon fill="green" stroke="green" stroke-width="0.12" points="777.49,-195.45 784.03,-187.12 773.72,-189.55 777.49,-195.45"/>
</g>
<!-- &#45;4&#45;&gt;60 -->
<g id="edge35" class="edge">
<title>&#45;4&#45;&gt;60</title>
<path fill="none" stroke="green" stroke-width="0.34" d="M637.05,-246.6C632.01,-241.4 624.86,-234.94 617.32,-231.04 556.05,-199.32 530.61,-220.07 466.32,-195.04 463.37,-193.89 460.36,-192.53 457.41,-191.08"/>
<polygon fill="green" stroke="green" stroke-width="0.34" points="458.78,-187.84 448.31,-186.23 455.49,-194.02 458.78,-187.84"/>
</g>
<!-- &#45;4&#45;&gt;61 -->
<g id="edge36" class="edge">
<title>&#45;4&#45;&gt;61</title>
<path fill="none" stroke="red" stroke-width="0.26" d="M657.33,-252.96C686.84,-248.83 761.08,-238.58 823.32,-231.04 968.91,-213.39 1011.61,-239.62 1151.32,-195.04 1154.34,-194.07 1157.39,-192.84 1160.37,-191.45"/>
<polygon fill="red" stroke="red" stroke-width="0.26" points="1162.25,-194.42 1169.49,-186.69 1159.01,-188.21 1162.25,-194.42"/>
</g>
<!-- &#45;4&#45;&gt;62 -->
<g id="edge37" class="edge">
<title>&#45;4&#45;&gt;62</title>
<path fill="none" stroke="red" stroke-width="0.6" d="M637.63,-246.77C632.63,-241.36 625.3,-234.59 617.32,-231.04 491.41,-174.98 440.47,-237.39 309.32,-195.04 306.31,-194.06 303.26,-192.82 300.28,-191.43"/>
<polygon fill="red" stroke="red" stroke-width="0.6" points="301.64,-188.19 291.15,-186.66 298.4,-194.4 301.64,-188.19"/>
</g>
<!-- &#45;4&#45;&gt;63 -->
<g id="edge38" class="edge">
<title>&#45;4&#45;&gt;63</title>
<path fill="none" stroke="red" stroke-width="0.2" d="M657.32,-252.88C686.81,-248.59 761.01,-238.02 823.32,-231.04 997.63,-211.5 1051.06,-253.82 1216.32,-195.04 1217.93,-194.46 1219.54,-193.78 1221.13,-193.02"/>
<polygon fill="red" stroke="red" stroke-width="0.2" points="1222.92,-196.03 1229.84,-188 1219.42,-189.96 1222.92,-196.03"/>
</g>
<!-- &#45;5 -->
<g id="node5" class="node">
<title>&#45;5</title>
<polygon fill="lightgray" stroke="black" points="813.32,-334.53 787.32,-334.53 787.32,-316.53 813.32,-316.53 813.32,-334.53"/>
<text text-anchor="middle" x="800.32" y="-323.33" font-family="Times-Roman" font-size="9.00">&#45;5</text>
</g>
<!-- &#45;5&#45;&gt;0 -->
<g id="edge145" class="edge">
<title>&#45;5&#45;&gt;0</title>
<path fill="none" stroke="green" stroke-width="0.29" d="M813.33,-324.2C887.71,-322.18 1259.45,-310.7 1369.32,-280.53 1526.59,-237.35 1612.24,-256.55 1698.32,-118.02 1709.93,-99.34 1713.28,-84.65 1698.32,-68.53 1652.72,-19.4 1159.57,-17.01 1038.87,-17.17"/>
<polygon fill="green" stroke="green" stroke-width="0.29" points="1038.67,-13.67 1028.67,-17.19 1038.68,-20.67 1038.67,-13.67"/>
</g>
<!-- &#45;5&#45;&gt;1 -->
<g id="edge146" class="edge">
<title>&#45;5&#45;&gt;1</title>
<path fill="none" stroke="green" stroke-width="0.25" d="M787.04,-324.19C717.39,-322.27 393.82,-311.8 299.32,-280.53 230.46,-257.75 195.71,-258.35 160.32,-195.04 100.71,-88.4 249.3,-157.93 546.32,-118.02 584.63,-112.88 628.68,-104.7 655.76,-99.41"/>
<polygon fill="green" stroke="green" stroke-width="0.25" points="656.46,-102.84 665.59,-97.47 655.1,-95.97 656.46,-102.84"/>
</g>
<!-- &#45;5&#45;&gt;2 -->
<g id="edge147" class="edge">
<title>&#45;5&#45;&gt;2</title>
<path fill="none" stroke="red" stroke-width="0.37" d="M813.54,-324.15C891.41,-321.77 1288.43,-308.35 1334.32,-280.53 1372.76,-257.24 1375.83,-238.21 1388.32,-195.04 1393.39,-177.53 1400,-168.02 1388.32,-154.02 1378.52,-142.29 1162.11,-109.41 1085.72,-98.13"/>
<polygon fill="red" stroke="red" stroke-width="0.37" points="1085.91,-94.62 1075.51,-96.63 1084.89,-101.55 1085.91,-94.62"/>
</g>
<!-- &#45;5&#45;&gt;3 -->
<g id="edge148" class="edge">
<title>&#45;5&#45;&gt;3</title>
<path fill="none" stroke="green" stroke-width="0.16" d="M813.45,-324.58C882.28,-324.64 1201.74,-322.63 1289.32,-280.53 1336.77,-257.73 1351.68,-243.89 1371.32,-195.04 1378.12,-178.12 1383.5,-167.58 1371.32,-154.02 1320.97,-98.01 1108.94,-128.2 1034.32,-118.02 993.19,-112.42 945.7,-104.18 917.12,-99.03"/>
<polygon fill="green" stroke="green" stroke-width="0.16" points="917.61,-95.56 907.14,-97.21 916.36,-102.44 917.61,-95.56"/>
</g>
<!-- &#45;5&#45;&gt;4 -->
<g id="edge149" class="edge">
<title>&#45;5&#45;&gt;4</title>
<path fill="none" stroke="red" stroke-width="0.41" d="M787.24,-324.28C709.09,-322.65 303.1,-312.76 183.32,-280.53 99.73,-258.04 54.17,-268.46 8.32,-195.04 -1.33,-179.58 -3.8,-167.64 8.32,-154.02 41,-117.31 394.08,-99.65 494.7,-95.34"/>
<polygon fill="red" stroke="red" stroke-width="0.41" points="495.08,-98.83 504.92,-94.92 494.78,-91.84 495.08,-98.83"/>
</g>
<!-- &#45;5&#45;&gt;5 -->
<g id="edge150" class="edge">
<title>&#45;5&#45;&gt;5</title>
<path fill="none" stroke="red" stroke-width="0.38" d="M813.56,-323.99C876.41,-321.31 1144.86,-308.37 1223.32,-280.53 1288.84,-257.29 1321.21,-256.17 1354.32,-195.04 1363,-179.01 1366.73,-167.38 1354.32,-154.02 1280.31,-74.36 966.18,-161.06 866.32,-118.02 863.38,-116.76 860.56,-115.02 857.93,-113.05"/>
<polygon fill="red" stroke="red" stroke-width="0.38" points="860.08,-110.28 850.26,-106.29 855.45,-115.53 860.08,-110.28"/>
</g>
<!-- &#45;5&#45;&gt;64 -->
<g id="edge49" class="edge">
<title>&#45;5&#45;&gt;64</title>
<path fill="none" stroke="green" stroke-width="0.26" d="M813.5,-323.93C871.54,-321.12 1104.37,-308.3 1171.32,-280.53 1216.68,-261.72 1259.44,-222.79 1283.7,-197.98"/>
<polygon fill="green" stroke="green" stroke-width="0.26" points="1286.51,-200.11 1290.9,-190.47 1281.46,-195.26 1286.51,-200.11"/>
</g>
<!-- &#45;5&#45;&gt;65 -->
<g id="edge50" class="edge">
<title>&#45;5&#45;&gt;65</title>
<path fill="none" stroke="red" stroke-width="0.48" d="M787.29,-323.6C744.16,-320.29 606.8,-307.76 573.32,-280.53 550.34,-261.85 539.19,-229.07 533.89,-205.09"/>
<polygon fill="red" stroke="red" stroke-width="0.48" points="537.29,-204.22 531.9,-195.1 530.42,-205.59 537.29,-204.22"/>
</g>
<!-- 509 -->
<g id="node15" class="node">
<title>509</title>
<ellipse fill="white" stroke="black" cx="386.32" cy="-255.79" rx="25" ry="25"/>
<text text-anchor="middle" x="386.32" y="-253.59" font-family="Times-Roman" font-size="9.00">509</text>
</g>
<!-- &#45;5&#45;&gt;509 -->
<g id="edge157" class="edge">
<title>&#45;5&#45;&gt;509</title>
<path fill="none" stroke="green" stroke-width="0.35" d="M787.07,-324.83C738.08,-325.53 563.07,-324.62 428.32,-280.53 423.99,-279.12 419.61,-277.23 415.39,-275.14"/>
<polygon fill="green" stroke="green" stroke-width="0.35" points="416.96,-272.01 406.5,-270.34 413.63,-278.17 416.96,-272.01"/>
</g>
<!-- &#45;5&#45;&gt;56 -->
<g id="edge41" class="edge">
<title>&#45;5&#45;&gt;56</title>
<path fill="none" stroke="green" stroke-width="0.24" d="M813.59,-323.21C852.05,-319.09 962.47,-305.32 987.32,-280.53 1006.99,-260.91 1012.26,-228.79 1013.22,-205.23"/>
<polygon fill="green" stroke="green" stroke-width="0.24" points="1016.72,-205.14 1013.39,-195.09 1009.72,-205.03 1016.72,-205.14"/>
</g>
<!-- &#45;5&#45;&gt;57 -->
<g id="edge42" class="edge">
<title>&#45;5&#45;&gt;57</title>
<path fill="none" stroke="red" stroke-width="0.4" d="M787.23,-323.9C733.6,-321.15 530.8,-309.01 474.32,-280.53 464.31,-275.49 419.66,-227.53 392.86,-198.2"/>
<polygon fill="red" stroke="red" stroke-width="0.4" points="395.14,-195.51 385.82,-190.48 389.97,-200.22 395.14,-195.51"/>
</g>
<!-- &#45;5&#45;&gt;58 -->
<g id="edge43" class="edge">
<title>&#45;5&#45;&gt;58</title>
<path fill="none" stroke="red" stroke-width="0.11" d="M797.15,-316.52C788.85,-295.56 766.18,-238.32 752.42,-203.56"/>
<polygon fill="red" stroke="red" stroke-width="0.11" points="755.56,-201.98 748.62,-193.97 749.05,-204.56 755.56,-201.98"/>
</g>
<!-- &#45;5&#45;&gt;59 -->
<g id="edge44" class="edge">
<title>&#45;5&#45;&gt;59</title>
<path fill="none" stroke="red" stroke-width="0.55" d="M800.32,-316.52C800.32,-295.93 800.32,-240.29 800.32,-205.39"/>
<polygon fill="red" stroke="red" stroke-width="0.55" points="803.82,-205.28 800.32,-195.28 796.82,-205.28 803.82,-205.28"/>
</g>
<!-- &#45;5&#45;&gt;60 -->
<g id="edge45" class="edge">
<title>&#45;5&#45;&gt;60</title>
<path fill="none" stroke="red" stroke-width="0.15" d="M787.2,-325.02C747.37,-325.96 625.24,-324.82 538.32,-280.53 500.77,-261.4 467.92,-224.47 448.84,-199.9"/>
<polygon fill="red" stroke="red" stroke-width="0.15" points="451.51,-197.64 442.68,-191.78 445.93,-201.86 451.51,-197.64"/>
</g>
<!-- &#45;5&#45;&gt;61 -->
<g id="edge46" class="edge">
<title>&#45;5&#45;&gt;61</title>
<path fill="none" stroke="red" stroke-width="0.31" d="M813.45,-323.53C862.05,-319.64 1031.46,-304.61 1079.32,-280.53 1116.96,-261.59 1149.79,-224.61 1168.84,-199.98"/>
<polygon fill="red" stroke="red" stroke-width="0.31" points="1171.75,-201.93 1174.98,-191.83 1166.17,-197.71 1171.75,-201.93"/>
</g>
<!-- &#45;5&#45;&gt;62 -->
<g id="edge47" class="edge">
<title>&#45;5&#45;&gt;62</title>
<path fill="none" stroke="green" stroke-width="0.39" stroke-dasharray="1,5" d="M786.91,-324.65C720.77,-325.02 429.35,-324.12 352.32,-280.53 321.44,-263.06 299.19,-227.8 286.55,-202.97"/>
<polygon fill="green" stroke="green" stroke-width="0.39" points="289.56,-201.15 282.02,-193.7 283.27,-204.22 289.56,-201.15"/>
</g>
<!-- &#45;5&#45;&gt;63 -->
<g id="edge48" class="edge">
<title>&#45;5&#45;&gt;63</title>
<path fill="none" stroke="green" stroke-width="0.29" d="M813.58,-323.73C867.01,-320.35 1066.3,-306.21 1123.32,-280.53 1165.22,-261.67 1203.62,-223.73 1225.73,-198.99"/>
<polygon fill="green" stroke="green" stroke-width="0.29" points="1228.64,-200.98 1232.59,-191.15 1223.37,-196.37 1228.64,-200.98"/>
</g>
<!-- &#45;6 -->
<g id="node6" class="node">
<title>&#45;6</title>
<polygon fill="lightgray" stroke="black" points="978.32,-264.79 952.32,-264.79 952.32,-246.79 978.32,-246.79 978.32,-264.79"/>
<text text-anchor="middle" x="965.32" y="-253.59" font-family="Times-Roman" font-size="9.00">&#45;6</text>
</g>
<!-- &#45;6&#45;&gt;0 -->
<g id="edge151" class="edge">
<title>&#45;6&#45;&gt;0</title>
<path fill="none" stroke="green" stroke-width="0.51" d="M978.49,-249.34C992.38,-243.82 1015.01,-235.5 1035.32,-231.04 1251.07,-183.63 1405.78,-307.51 1519.32,-118.02 1530.63,-99.15 1534.07,-84.85 1519.32,-68.53 1486.83,-32.59 1138.77,-20.62 1038.94,-17.91"/>
<polygon fill="green" stroke="green" stroke-width="0.51" points="1038.88,-14.41 1028.79,-17.65 1038.7,-21.41 1038.88,-14.41"/>
</g>
<!-- &#45;6&#45;&gt;1 -->
<g id="edge152" class="edge">
<title>&#45;6&#45;&gt;1</title>
<path fill="none" stroke="green" stroke-width="0.21" d="M956.09,-246.54C935.03,-228.04 881.33,-182.64 830.32,-154.02 789.01,-130.85 736.88,-112.11 706.5,-102.13"/>
<polygon fill="green" stroke="green" stroke-width="0.21" points="707.31,-98.72 696.72,-98.98 705.16,-105.38 707.31,-98.72"/>
</g>
<!-- &#45;6&#45;&gt;2 -->
<g id="edge153" class="edge">
<title>&#45;6&#45;&gt;2</title>
<path fill="none" stroke="green" stroke-width="0.21" d="M978.49,-249.36C992.39,-243.87 1015.03,-235.56 1035.32,-231.04 1105.6,-215.38 1309.32,-248.7 1357.32,-195.04 1369.47,-181.45 1368.87,-168.12 1357.32,-154.02 1339.98,-132.86 1155.13,-106.77 1085.58,-97.63"/>
<polygon fill="green" stroke="green" stroke-width="0.21" points="1085.82,-94.13 1075.45,-96.31 1084.92,-101.07 1085.82,-94.13"/>
</g>
<!-- &#45;6&#45;&gt;3 -->
<g id="edge154" class="edge">
<title>&#45;6&#45;&gt;3</title>
<path fill="none" stroke="green" stroke-width="0.28" d="M978.5,-249.39C992.4,-243.93 1015.05,-235.64 1035.32,-231.04 1169.13,-200.63 1425.39,-256.68 1334.32,-154.02 1289.76,-103.8 1100.79,-127.53 1034.32,-118.02 993.23,-112.15 945.73,-103.99 917.14,-98.92"/>
<polygon fill="green" stroke="green" stroke-width="0.28" points="917.61,-95.45 907.15,-97.15 916.39,-102.35 917.61,-95.45"/>
</g>
<!-- &#45;6&#45;&gt;4 -->
<g id="edge155" class="edge">
<title>&#45;6&#45;&gt;4</title>
<path fill="none" stroke="green" stroke-width="0.34" d="M952.15,-250.84C933.47,-245.41 898.12,-235.79 867.32,-231.04 809.53,-222.12 382.23,-237.77 342.32,-195.04 292.84,-142.05 434.83,-109.68 495.39,-98.59"/>
<polygon fill="green" stroke="green" stroke-width="0.34" points="496.12,-102.02 505.36,-96.83 494.9,-95.12 496.12,-102.02"/>
</g>
<!-- &#45;6&#45;&gt;5 -->
<g id="edge156" class="edge">
<title>&#45;6&#45;&gt;5</title>
<path fill="none" stroke="green" stroke-width="0.28" d="M978.41,-249.2C996.66,-240.61 1029,-222.24 1042.32,-195.04 1050.34,-178.67 1053.84,-168.15 1042.32,-154.02 991.84,-92.17 937.47,-154.25 866.32,-118.02 863.66,-116.67 861.08,-114.97 858.63,-113.11"/>
<polygon fill="green" stroke="green" stroke-width="0.28" points="860.78,-110.34 850.94,-106.4 856.17,-115.61 860.78,-110.34"/>
</g>
<!-- &#45;6&#45;&gt;64 -->
<g id="edge59" class="edge">
<title>&#45;6&#45;&gt;64</title>
<path fill="none" stroke="green" stroke-width="0.13" d="M978.53,-249.51C992.45,-244.15 1015.12,-235.94 1035.32,-231.04 1140.14,-205.61 1174.78,-234.09 1275.32,-195.04 1276.73,-194.49 1278.15,-193.86 1279.55,-193.17"/>
<polygon fill="green" stroke="green" stroke-width="0.13" points="1281.56,-196.06 1288.46,-188.02 1278.05,-190 1281.56,-196.06"/>
</g>
<!-- &#45;6&#45;&gt;65 -->
<g id="edge60" class="edge">
<title>&#45;6&#45;&gt;65</title>
<path fill="none" stroke="red" stroke-width="0.38" d="M952.08,-251.24C933.31,-246.3 897.86,-237.24 867.32,-231.04 754.58,-208.15 619.21,-188.16 559.79,-179.75"/>
<polygon fill="red" stroke="red" stroke-width="0.38" points="560,-176.25 549.61,-178.32 559.02,-183.18 560,-176.25"/>
</g>
<!-- &#45;6&#45;&gt;56 -->
<g id="edge51" class="edge">
<title>&#45;6&#45;&gt;56</title>
<path fill="none" stroke="red" stroke-width="0.21" d="M970.17,-246.6C976.45,-236.02 987.67,-217.1 996.96,-201.44"/>
<polygon fill="red" stroke="red" stroke-width="0.21" points="1000.06,-203.07 1002.15,-192.68 994.04,-199.49 1000.06,-203.07"/>
</g>
<!-- &#45;6&#45;&gt;57 -->
<g id="edge52" class="edge">
<title>&#45;6&#45;&gt;57</title>
<path fill="none" stroke="green" stroke-width="0.77" d="M952.14,-250.88C933.45,-245.5 898.1,-235.92 867.32,-231.04 662.16,-198.47 597.53,-263.25 401.32,-195.04 399.7,-194.47 398.09,-193.8 396.5,-193.04"/>
<polygon fill="green" stroke="green" stroke-width="0.77" points="398.2,-189.98 387.79,-188.05 394.72,-196.06 398.2,-189.98"/>
</g>
<!-- &#45;6&#45;&gt;58 -->
<g id="edge53" class="edge">
<title>&#45;6&#45;&gt;58</title>
<path fill="none" stroke="red" stroke-width="0.12" d="M952.05,-252.14C919.8,-245.41 835.21,-225.96 770.32,-195.04 768.95,-194.38 767.57,-193.67 766.2,-192.92"/>
<polygon fill="red" stroke="red" stroke-width="0.12" points="767.74,-189.76 757.38,-187.55 764.1,-195.74 767.74,-189.76"/>
</g>
<!-- &#45;6&#45;&gt;59 -->
<g id="edge54" class="edge">
<title>&#45;6&#45;&gt;59</title>
<path fill="none" stroke="red" stroke-width="0.58" d="M952.1,-248.43C925.25,-235.54 863.88,-206.06 827.94,-188.8"/>
<polygon fill="red" stroke="red" stroke-width="0.58" points="829.06,-185.45 818.53,-184.28 826.03,-191.76 829.06,-185.45"/>
</g>
<!-- &#45;6&#45;&gt;60 -->
<g id="edge55" class="edge">
<title>&#45;6&#45;&gt;60</title>
<path fill="none" stroke="red" stroke-width="0.1" d="M952.13,-250.96C933.42,-245.69 898.04,-236.24 867.32,-231.04 705.29,-203.62 660.75,-225.82 499.32,-195.04 486.35,-192.56 472.28,-188.73 460.32,-185.11"/>
<polygon fill="red" stroke="red" stroke-width="0.1" points="461.03,-181.66 450.44,-182.03 458.94,-188.35 461.03,-181.66"/>
</g>
<!-- &#45;6&#45;&gt;61 -->
<g id="edge56" class="edge">
<title>&#45;6&#45;&gt;61</title>
<path fill="none" stroke="green" stroke-width="0.21" d="M978.44,-250.22C992.49,-245.36 1015.42,-237.5 1035.32,-231.04 1086.66,-214.36 1101.7,-216.29 1151.32,-195.04 1154.23,-193.79 1157.21,-192.37 1160.15,-190.88"/>
<polygon fill="green" stroke="green" stroke-width="0.21" points="1162.09,-193.81 1169.23,-185.99 1158.77,-187.65 1162.09,-193.81"/>
</g>
<!-- &#45;6&#45;&gt;62 -->
<g id="edge57" class="edge">
<title>&#45;6&#45;&gt;62</title>
<path fill="none" stroke="red" stroke-width="0.29" d="M952.15,-250.82C933.47,-245.38 898.13,-235.73 867.32,-231.04 621.64,-193.63 547.71,-265.25 309.32,-195.04 306.28,-194.14 303.22,-192.95 300.23,-191.59"/>
<polygon fill="red" stroke="red" stroke-width="0.29" points="301.58,-188.35 291.09,-186.86 298.36,-194.56 301.58,-188.35"/>
</g>
<!-- &#45;6&#45;&gt;63 -->
<g id="edge58" class="edge">
<title>&#45;6&#45;&gt;63</title>
<path fill="none" stroke="green" stroke-width="0.13" d="M978.32,-249.8C992.26,-244.6 1015.11,-236.45 1035.32,-231.04 1114.55,-209.82 1140.59,-226.54 1216.32,-195.04 1217.72,-194.45 1219.12,-193.8 1220.52,-193.09"/>
<polygon fill="green" stroke="green" stroke-width="0.13" points="1222.55,-195.95 1229.4,-187.87 1219.01,-189.92 1222.55,-195.95"/>
</g>
<!-- 64&#45;&gt;0 -->
<g id="edge109" class="edge">
<title>64&#45;&gt;0</title>
<path fill="none" stroke="green" stroke-width="0.33" stroke-dasharray="1,5" d="M1288.47,-161.16C1253.83,-134.15 1173.94,-72.03 1167.32,-68.53 1124.55,-45.9 1069.9,-30.65 1038.23,-23.01"/>
<polygon fill="green" stroke="green" stroke-width="0.33" points="1038.96,-19.58 1028.42,-20.71 1037.36,-26.4 1038.96,-19.58"/>
</g>
<!-- 64&#45;&gt;1 -->
<g id="edge110" class="edge">
<title>64&#45;&gt;1</title>
<path fill="none" stroke="red" stroke-width="0.1" d="M1288.85,-161.01C1284.68,-158.25 1280.02,-155.66 1275.32,-154.02 1081.66,-86.58 1018.74,-143.95 815.32,-118.02 777.62,-113.22 734.4,-105.08 707.48,-99.69"/>
<polygon fill="red" stroke="red" stroke-width="0.1" points="707.83,-96.19 697.33,-97.63 706.44,-103.05 707.83,-96.19"/>
</g>
<!-- 64&#45;&gt;2 -->
<g id="edge111" class="edge">
<title>64&#45;&gt;2</title>
<path fill="none" stroke="green" stroke-width="0.24" d="M1288.3,-161.42C1284.22,-158.72 1279.73,-156.05 1275.32,-154.02 1210.12,-124.04 1126.74,-106.25 1085.23,-98.64"/>
<polygon fill="green" stroke="green" stroke-width="0.24" points="1085.84,-95.2 1075.38,-96.89 1084.61,-102.09 1085.84,-95.2"/>
</g>
<!-- 64&#45;&gt;3 -->
<g id="edge112" class="edge">
<title>64&#45;&gt;3</title>
<path fill="none" stroke="green" stroke-width="0.47" d="M1288.46,-161.04C1284.37,-158.34 1279.84,-155.78 1275.32,-154.02 1174.36,-114.84 1141.3,-134.9 1034.32,-118.02 993.32,-111.56 945.79,-103.57 917.17,-98.7"/>
<polygon fill="green" stroke="green" stroke-width="0.47" points="917.62,-95.23 907.18,-97 916.45,-102.13 917.62,-95.23"/>
</g>
<!-- 64&#45;&gt;4 -->
<g id="edge113" class="edge">
<title>64&#45;&gt;4</title>
<path fill="none" stroke="red" stroke-width="0.16" d="M1288.87,-160.95C1284.7,-158.19 1280.03,-155.61 1275.32,-154.02 1144.75,-110.01 793.18,-133.99 656.32,-118.02 617.92,-113.55 573.9,-105.19 546.85,-99.68"/>
<polygon fill="red" stroke="red" stroke-width="0.16" points="547.53,-96.25 537.03,-97.65 546.11,-103.1 547.53,-96.25"/>
</g>
<!-- 64&#45;&gt;5 -->
<g id="edge114" class="edge">
<title>64&#45;&gt;5</title>
<path fill="none" stroke="red" stroke-width="0.25" d="M1288.84,-161.05C1284.67,-158.28 1280.01,-155.68 1275.32,-154.02 1103.28,-93.18 1033.39,-191.43 866.32,-118.02 863.39,-116.74 860.57,-114.99 857.95,-113.01"/>
<polygon fill="red" stroke="red" stroke-width="0.25" points="860.09,-110.24 850.28,-106.25 855.46,-115.49 860.09,-110.24"/>
</g>
<!-- 515 -->
<g id="node16" class="node">
<title>515</title>
<ellipse fill="white" stroke="black" cx="1267.32" cy="-93.28" rx="25" ry="25"/>
<text text-anchor="middle" x="1267.32" y="-91.08" font-family="Times-Roman" font-size="9.00">515</text>
</g>
<!-- 64&#45;&gt;515 -->
<g id="edge159" class="edge">
<title>64&#45;&gt;515</title>
<path fill="none" stroke="green" stroke-width="0.33" d="M1295.92,-155.55C1291.74,-146.59 1286.57,-135.52 1281.78,-125.25"/>
<polygon fill="green" stroke="green" stroke-width="0.33" points="1284.93,-123.72 1277.53,-116.14 1278.59,-126.68 1284.93,-123.72"/>
</g>
<!-- 65&#45;&gt;0 -->
<g id="edge115" class="edge">
<title>65&#45;&gt;0</title>
<path fill="none" stroke="red" stroke-width="0.2" d="M542.38,-158.34C563.64,-134.76 608.19,-89.84 656.32,-68.53 715.78,-42.19 914.19,-24.77 986.05,-19.2"/>
<polygon fill="red" stroke="red" stroke-width="0.2" points="986.37,-22.68 996.08,-18.43 985.84,-15.7 986.37,-22.68"/>
</g>
<!-- 65&#45;&gt;1 -->
<g id="edge116" class="edge">
<title>65&#45;&gt;1</title>
<path fill="none" stroke="green" stroke-width="0.51" d="M547.06,-163.48C552.57,-160.4 558.67,-157.04 564.32,-154.02 596.51,-136.84 634.15,-117.81 657.86,-105.94"/>
<polygon fill="green" stroke="green" stroke-width="0.51" points="659.44,-109.07 666.82,-101.47 656.31,-102.8 659.44,-109.07"/>
</g>
<!-- 65&#45;&gt;2 -->
<g id="edge117" class="edge">
<title>65&#45;&gt;2</title>
<path fill="none" stroke="green" stroke-width="0.26" stroke-dasharray="1,5" d="M549.49,-170.8C606.9,-162.99 776.13,-139.72 916.32,-118.02 957.34,-111.68 1004.86,-103.65 1033.48,-98.74"/>
<polygon fill="green" stroke="green" stroke-width="0.26" points="1034.21,-102.17 1043.47,-97.03 1033.02,-95.27 1034.21,-102.17"/>
</g>
<!-- 65&#45;&gt;3 -->
<g id="edge118" class="edge">
<title>65&#45;&gt;3</title>
<path fill="none" stroke="red" stroke-width="0.26" d="M548.68,-167.65C563.31,-163.38 583.93,-157.72 602.32,-154.02 717.98,-130.75 758.48,-168.07 865.32,-118.02 868.22,-116.67 871.01,-114.87 873.63,-112.88"/>
<polygon fill="red" stroke="red" stroke-width="0.26" points="876.12,-115.35 881.29,-106.1 871.48,-110.11 876.12,-115.35"/>
</g>
<!-- 65&#45;&gt;4 -->
<g id="edge119" class="edge">
<title>65&#45;&gt;4</title>
<path fill="none" stroke="red" stroke-width="0.3" d="M527.34,-153.94C526.3,-143.59 525,-130.76 523.88,-119.66"/>
<polygon fill="red" stroke="red" stroke-width="0.3" points="527.36,-119.27 522.87,-109.67 520.4,-119.97 527.36,-119.27"/>
</g>
<!-- 65&#45;&gt;5 -->
<g id="edge120" class="edge">
<title>65&#45;&gt;5</title>
<path fill="none" stroke="red" stroke-width="0.19" d="M546.28,-162.76C551.86,-159.58 558.2,-156.33 564.32,-154.02 610.52,-136.59 754.93,-109.59 814.37,-98.88"/>
<polygon fill="red" stroke="red" stroke-width="0.19" points="815.21,-102.29 824.43,-97.08 813.97,-95.4 815.21,-102.29"/>
</g>
<!-- 509&#45;&gt;62 -->
<g id="edge158" class="edge">
<title>509&#45;&gt;62</title>
<path fill="none" stroke="red" stroke-width="0.11" d="M366.55,-240.8C347.74,-227.48 319.35,-207.4 299.04,-193.03"/>
<polygon fill="red" stroke="red" stroke-width="0.11" points="300.8,-189.98 290.62,-187.06 296.76,-195.7 300.8,-189.98"/>
</g>
<!-- 515&#45;&gt;0 -->
<g id="edge160" class="edge">
<title>515&#45;&gt;0</title>
<path fill="none" stroke="green" stroke-width="0.22" d="M1247.05,-78.98C1240.62,-75.19 1233.35,-71.33 1226.32,-68.53 1161.18,-42.51 1079.41,-27.44 1038.36,-21"/>
<polygon fill="green" stroke="green" stroke-width="0.22" points="1038.79,-17.53 1028.37,-19.48 1037.73,-24.45 1038.79,-17.53"/>
</g>
<!-- 56&#45;&gt;0 -->
<g id="edge61" class="edge">
<title>56&#45;&gt;0</title>
<path fill="none" stroke="red" stroke-width="0.24" d="M1012.32,-153.74C1012.32,-125.53 1012.32,-73.74 1012.32,-42.71"/>
<polygon fill="red" stroke="red" stroke-width="0.24" points="1015.82,-42.67 1012.32,-32.67 1008.82,-42.67 1015.82,-42.67"/>
</g>
<!-- 56&#45;&gt;1 -->
<g id="edge62" class="edge">
<title>56&#45;&gt;1</title>
<path fill="none" stroke="red" stroke-width="0.27" d="M995.38,-162.7C989.8,-159.52 983.45,-156.29 977.32,-154.02 951.93,-144.65 774.9,-111.52 707.39,-99.06"/>
<polygon fill="red" stroke="red" stroke-width="0.27" points="707.65,-95.55 697.18,-97.18 706.38,-102.43 707.65,-95.55"/>
</g>
<!-- 56&#45;&gt;2 -->
<g id="edge63" class="edge">
<title>56&#45;&gt;2</title>
<path fill="none" stroke="red" stroke-width="0.64" d="M1022.52,-156.33C1029.4,-144.72 1038.56,-129.29 1046.01,-116.71"/>
<polygon fill="red" stroke="red" stroke-width="0.64" points="1049.23,-118.15 1051.32,-107.77 1043.21,-114.58 1049.23,-118.15"/>
</g>
<!-- 56&#45;&gt;3 -->
<g id="edge64" class="edge">
<title>56&#45;&gt;3</title>
<path fill="none" stroke="red" stroke-width="0.36" d="M995.5,-162.51C974.05,-148.47 936.95,-124.16 913.29,-108.67"/>
<polygon fill="red" stroke="red" stroke-width="0.36" points="914.93,-105.56 904.65,-103.01 911.1,-111.41 914.93,-105.56"/>
</g>
<!-- 56&#45;&gt;4 -->
<g id="edge65" class="edge">
<title>56&#45;&gt;4</title>
<path fill="none" stroke="red" stroke-width="0.46" stroke-dasharray="1,5" d="M991.83,-170.48C937.24,-162.32 783.75,-139.16 656.32,-118.02 618.39,-111.73 574.57,-103.92 547.4,-99.02"/>
<polygon fill="red" stroke="red" stroke-width="0.46" points="547.97,-95.57 537.51,-97.23 546.73,-102.45 547.97,-95.57"/>
</g>
<!-- 56&#45;&gt;5 -->
<g id="edge66" class="edge">
<title>56&#45;&gt;5</title>
<path fill="none" stroke="green" stroke-width="0.27" d="M995.21,-163.12C989.63,-159.96 983.31,-156.64 977.32,-154.02 929.78,-133.3 911.15,-144.1 866.32,-118.02 863.69,-116.5 861.11,-114.67 858.65,-112.71"/>
<polygon fill="green" stroke="green" stroke-width="0.27" points="860.68,-109.83 850.87,-105.82 856.04,-115.07 860.68,-109.83"/>
</g>
<!-- 57&#45;&gt;0 -->
<g id="edge67" class="edge">
<title>57&#45;&gt;0</title>
<path fill="none" stroke="green" stroke-width="0.26" d="M380.17,-155.32C391.79,-130.86 416.05,-88.18 451.32,-68.53 544.58,-16.55 886.83,-15.94 985.52,-16.89"/>
<polygon fill="green" stroke="green" stroke-width="0.26" points="985.78,-20.39 995.82,-17 985.85,-13.39 985.78,-20.39"/>
</g>
<!-- 57&#45;&gt;1 -->
<g id="edge68" class="edge">
<title>57&#45;&gt;1</title>
<path fill="none" stroke="green" stroke-width="0.12" d="M388.26,-161.24C392.34,-158.54 396.85,-155.92 401.32,-154.02 447.51,-134.43 594.97,-108.58 655.26,-98.53"/>
<polygon fill="green" stroke="green" stroke-width="0.12" points="655.84,-101.98 665.14,-96.9 654.7,-95.08 655.84,-101.98"/>
</g>
<!-- 57&#45;&gt;2 -->
<g id="edge69" class="edge">
<title>57&#45;&gt;2</title>
<path fill="none" stroke="green" stroke-width="0.31" d="M387.78,-160.99C391.95,-158.22 396.61,-155.64 401.32,-154.02 509.82,-116.75 802.38,-131.44 916.32,-118.02 957.54,-113.17 1005,-104.71 1033.55,-99.31"/>
<polygon fill="green" stroke="green" stroke-width="0.31" points="1034.36,-102.72 1043.52,-97.4 1033.04,-95.85 1034.36,-102.72"/>
</g>
<!-- 57&#45;&gt;3 -->
<g id="edge70" class="edge">
<title>57&#45;&gt;3</title>
<path fill="none" stroke="red" stroke-width="0.22" d="M387.79,-161.01C391.96,-158.25 396.62,-155.66 401.32,-154.02 596.68,-86.07 675.52,-200.25 865.32,-118.02 868.25,-116.75 871.08,-115.01 873.71,-113.04"/>
<polygon fill="red" stroke="red" stroke-width="0.22" points="876.19,-115.52 881.37,-106.28 871.56,-110.27 876.19,-115.52"/>
</g>
<!-- 57&#45;&gt;4 -->
<g id="edge71" class="edge">
<title>57&#45;&gt;4</title>
<path fill="none" stroke="red" stroke-width="0.11" d="M388.64,-162.01C392.72,-159.29 397.12,-156.47 401.32,-154.02 433.67,-135.2 472.74,-116.44 497.31,-105.1"/>
<polygon fill="red" stroke="red" stroke-width="0.11" points="498.96,-108.2 506.59,-100.85 496.04,-101.83 498.96,-108.2"/>
</g>
<!-- 57&#45;&gt;5 -->
<g id="edge72" class="edge">
<title>57&#45;&gt;5</title>
<path fill="none" stroke="green" stroke-width="0.4" d="M388.14,-160.94C392.23,-158.25 396.77,-155.71 401.32,-154.02 529.31,-106.6 571.28,-137.94 706.32,-118.02 743.91,-112.48 787.16,-104.53 814.12,-99.38"/>
<polygon fill="green" stroke="green" stroke-width="0.4" points="815.12,-102.75 824.28,-97.43 813.8,-95.88 815.12,-102.75"/>
</g>
<!-- 58&#45;&gt;0 -->
<g id="edge73" class="edge">
<title>58&#45;&gt;0</title>
<path fill="none" stroke="red" stroke-width="0.29" d="M745.39,-154.06C751.42,-130.2 765.08,-90.28 792.32,-68.53 849.79,-22.64 941.12,-16.47 985.86,-16.46"/>
<polygon fill="red" stroke="red" stroke-width="0.29" points="985.9,-19.96 995.93,-16.56 985.97,-12.96 985.9,-19.96"/>
</g>
<!-- 58&#45;&gt;1 -->
<g id="edge74" class="edge">
<title>58&#45;&gt;1</title>
<path fill="none" stroke="green" stroke-width="0.34" d="M729.18,-157.49C719.85,-145.17 706.91,-128.07 696.83,-114.76"/>
<polygon fill="green" stroke="green" stroke-width="0.34" points="699.52,-112.51 690.69,-106.65 693.94,-116.74 699.52,-112.51"/>
</g>
<!-- 58&#45;&gt;2 -->
<g id="edge75" class="edge">
<title>58&#45;&gt;2</title>
<path fill="none" stroke="green" stroke-width="0.34" d="M757.25,-161.22C761.33,-158.52 765.84,-155.91 770.32,-154.02 818.22,-133.89 971.62,-108.15 1033.29,-98.33"/>
<polygon fill="green" stroke="green" stroke-width="0.34" points="1034.03,-101.76 1043.36,-96.74 1032.94,-94.84 1034.03,-101.76"/>
</g>
<!-- 58&#45;&gt;3 -->
<g id="edge76" class="edge">
<title>58&#45;&gt;3</title>
<path fill="none" stroke="green" stroke-width="0.33" d="M757.48,-161.71C761.56,-158.99 766.01,-156.25 770.32,-154.02 810.43,-133.29 826.85,-141.67 865.32,-118.02 867.91,-116.43 870.47,-114.57 872.92,-112.59"/>
<polygon fill="green" stroke="green" stroke-width="0.33" points="875.54,-114.94 880.69,-105.69 870.89,-109.71 875.54,-114.94"/>
</g>
<!-- 58&#45;&gt;4 -->
<g id="edge77" class="edge">
<title>58&#45;&gt;4</title>
<path fill="none" stroke="red" stroke-width="0.2" d="M724.21,-163.12C718.63,-159.96 712.32,-156.63 706.32,-154.02 651.11,-130 583.01,-110.45 546.8,-100.8"/>
<polygon fill="red" stroke="red" stroke-width="0.2" points="547.61,-97.39 537.05,-98.23 545.83,-104.16 547.61,-97.39"/>
</g>
<!-- 58&#45;&gt;5 -->
<g id="edge78" class="edge">
<title>58&#45;&gt;5</title>
<path fill="none" stroke="red" stroke-width="0.17" d="M757.23,-160.8C774.29,-147.14 801.44,-125.4 820.03,-110.52"/>
<polygon fill="red" stroke="red" stroke-width="0.17" points="822.28,-113.2 827.9,-104.22 817.91,-107.74 822.28,-113.2"/>
</g>
<!-- 59&#45;&gt;0 -->
<g id="edge79" class="edge">
<title>59&#45;&gt;0</title>
<path fill="none" stroke="green" stroke-width="0.1" d="M797.2,-153.85C794.69,-130.52 794.47,-91.87 815.32,-68.53 837.97,-43.17 937.89,-26.96 986.11,-20.48"/>
<polygon fill="green" stroke="green" stroke-width="0.1" points="986.64,-23.94 996.11,-19.18 985.74,-17 986.64,-23.94"/>
</g>
<!-- 59&#45;&gt;1 -->
<g id="edge80" class="edge">
<title>59&#45;&gt;1</title>
<path fill="none" stroke="red" stroke-width="0.11" d="M783.77,-162.37C779.7,-159.64 775.36,-156.72 771.32,-154.02 748.08,-138.5 721.4,-120.8 703.16,-108.72"/>
<polygon fill="red" stroke="red" stroke-width="0.11" points="704.72,-105.56 694.45,-102.96 700.86,-111.4 704.72,-105.56"/>
</g>
<!-- 59&#45;&gt;2 -->
<g id="edge81" class="edge">
<title>59&#45;&gt;2</title>
<path fill="none" stroke="red" stroke-width="0.21" d="M819.79,-167.57C866.12,-153.39 982.92,-117.65 1034.35,-101.92"/>
<polygon fill="red" stroke="red" stroke-width="0.21" points="1035.46,-105.24 1044,-98.96 1033.42,-98.54 1035.46,-105.24"/>
</g>
<!-- 59&#45;&gt;3 -->
<g id="edge82" class="edge">
<title>59&#45;&gt;3</title>
<path fill="none" stroke="green" stroke-width="0.27" d="M815.68,-160.66C828.93,-149.5 848.53,-132.86 865.32,-118.02 867.55,-116.05 869.88,-113.97 872.18,-111.89"/>
<polygon fill="green" stroke="green" stroke-width="0.27" points="874.71,-114.32 879.75,-105 870,-109.15 874.71,-114.32"/>
</g>
<!-- 59&#45;&gt;4 -->
<g id="edge83" class="edge">
<title>59&#45;&gt;4</title>
<path fill="none" stroke="green" stroke-width="0.34" d="M784.35,-161.31C780.26,-158.61 775.76,-155.97 771.32,-154.02 730.71,-136.21 602.47,-110.04 547.14,-99.23"/>
<polygon fill="green" stroke="green" stroke-width="0.34" points="547.58,-95.75 537.1,-97.28 546.25,-102.62 547.58,-95.75"/>
</g>
<!-- 59&#45;&gt;5 -->
<g id="edge84" class="edge">
<title>59&#45;&gt;5</title>
<path fill="none" stroke="green" stroke-width="0.35" d="M809.2,-155.94C814.94,-144.57 822.47,-129.65 828.68,-117.33"/>
<polygon fill="green" stroke="green" stroke-width="0.35" points="831.95,-118.64 833.33,-108.13 825.7,-115.48 831.95,-118.64"/>
</g>
<!-- 60&#45;&gt;0 -->
<g id="edge85" class="edge">
<title>60&#45;&gt;0</title>
<path fill="none" stroke="green" stroke-width="0.29" d="M437.16,-154.61C445.8,-130.16 464.49,-88.39 496.32,-68.53 579.25,-16.79 892.77,-15.94 986.01,-16.87"/>
<polygon fill="green" stroke="green" stroke-width="0.29" points="985.98,-20.37 996.02,-16.99 986.06,-13.37 985.98,-20.37"/>
</g>
<!-- 60&#45;&gt;1 -->
<g id="edge86" class="edge">
<title>60&#45;&gt;1</title>
<path fill="none" stroke="red" stroke-width="0.38" d="M448.36,-162.97C453.95,-159.8 460.27,-156.51 466.32,-154.02 532.28,-126.93 614.53,-107.91 655.55,-99.36"/>
<polygon fill="red" stroke="red" stroke-width="0.38" points="656.42,-102.76 665.52,-97.32 655.02,-95.9 656.42,-102.76"/>
</g>
<!-- 60&#45;&gt;2 -->
<g id="edge87" class="edge">
<title>60&#45;&gt;2</title>
<path fill="none" stroke="red" stroke-width="0.19" d="M450.43,-166.98C463.93,-162.61 482.53,-157.13 499.32,-154.02 682.25,-120.22 731.76,-141.28 916.32,-118.02 957.5,-112.84 1004.97,-104.48 1033.54,-99.18"/>
<polygon fill="red" stroke="red" stroke-width="0.19" points="1034.32,-102.6 1043.51,-97.32 1033.04,-95.72 1034.32,-102.6"/>
</g>
<!-- 60&#45;&gt;3 -->
<g id="edge88" class="edge">
<title>60&#45;&gt;3</title>
<path fill="none" stroke="red" stroke-width="0.31" d="M450.44,-167.04C463.94,-162.7 482.55,-157.23 499.32,-154.02 659.87,-123.36 716.01,-184.54 865.32,-118.02 868.24,-116.72 871.05,-114.96 873.68,-112.98"/>
<polygon fill="red" stroke="red" stroke-width="0.31" points="876.17,-115.46 881.34,-106.22 871.53,-110.21 876.17,-115.46"/>
</g>
<!-- 60&#45;&gt;4 -->
<g id="edge89" class="edge">
<title>60&#45;&gt;4</title>
<path fill="none" stroke="green" stroke-width="0.3" d="M446.59,-160.09C461.84,-146.65 485.35,-125.95 501.92,-111.36"/>
<polygon fill="green" stroke="green" stroke-width="0.3" points="504.24,-113.98 509.43,-104.74 499.62,-108.72 504.24,-113.98"/>
</g>
<!-- 60&#45;&gt;5 -->
<g id="edge90" class="edge">
<title>60&#45;&gt;5</title>
<path fill="none" stroke="red" stroke-width="1.04" d="M450.81,-167.34C464.33,-163.19 482.8,-157.82 499.32,-154.02 590.33,-133.12 614.35,-134.17 706.32,-118.02 743.75,-111.45 787.04,-103.76 814.05,-98.96"/>
<polygon fill="red" stroke="red" stroke-width="1.04" points="815,-102.34 824.23,-97.14 813.78,-95.45 815,-102.34"/>
</g>
<!-- 61&#45;&gt;0 -->
<g id="edge91" class="edge">
<title>61&#45;&gt;0</title>
<path fill="none" stroke="green" stroke-width="0.35" d="M1173.24,-158.43C1154.55,-137.25 1118.65,-97.99 1084.32,-68.53 1068.31,-54.79 1048.74,-41.02 1034.04,-31.22"/>
<polygon fill="green" stroke="green" stroke-width="0.35" points="1035.87,-28.24 1025.59,-25.66 1032.02,-34.08 1035.87,-28.24"/>
</g>
<!-- 61&#45;&gt;1 -->
<g id="edge92" class="edge">
<title>61&#45;&gt;1</title>
<path fill="none" stroke="red" stroke-width="0.13" d="M1166.3,-169.79C1144.11,-165.69 1107.21,-159.03 1075.32,-154.02 960.07,-135.93 930.55,-136.21 815.32,-118.02 777.78,-112.1 734.52,-104.25 707.54,-99.23"/>
<polygon fill="red" stroke="red" stroke-width="0.13" points="707.85,-95.72 697.38,-97.32 706.56,-102.6 707.85,-95.72"/>
</g>
<!-- 61&#45;&gt;2 -->
<g id="edge93" class="edge">
<title>61&#45;&gt;2</title>
<path fill="none" stroke="green" stroke-width="0.11" d="M1169.19,-162.84C1146.5,-148.68 1106.43,-123.68 1081.46,-108.09"/>
<polygon fill="green" stroke="green" stroke-width="0.11" points="1083.04,-104.95 1072.7,-102.63 1079.33,-110.89 1083.04,-104.95"/>
</g>
<!-- 61&#45;&gt;3 -->
<g id="edge94" class="edge">
<title>61&#45;&gt;3</title>
<path fill="none" stroke="red" stroke-width="0.26" d="M1166.51,-168.21C1114.58,-154.26 974.56,-116.64 916.78,-101.12"/>
<polygon fill="red" stroke="red" stroke-width="0.26" points="917.56,-97.7 906.99,-98.49 915.74,-104.46 917.56,-97.7"/>
</g>
<!-- 61&#45;&gt;4 -->
<g id="edge95" class="edge">
<title>61&#45;&gt;4</title>
<path fill="none" stroke="green" stroke-width="0.3" d="M1165.85,-170.48C1137.95,-166.4 1086.43,-159.07 1042.32,-154.02 871.13,-134.46 827.09,-140.97 656.32,-118.02 618.01,-112.88 573.96,-104.7 546.88,-99.41"/>
<polygon fill="green" stroke="green" stroke-width="0.3" points="547.54,-95.97 537.05,-97.47 546.18,-102.84 547.54,-95.97"/>
</g>
<!-- 61&#45;&gt;5 -->
<g id="edge96" class="edge">
<title>61&#45;&gt;5</title>
<path fill="none" stroke="green" stroke-width="0.13" d="M1166.95,-167.69C1152.32,-163.45 1131.69,-157.8 1113.32,-154.02 1004.66,-131.67 966.57,-165.52 866.32,-118.02 863.43,-116.66 860.63,-114.85 858.02,-112.85"/>
<polygon fill="green" stroke="green" stroke-width="0.13" points="860.17,-110.08 850.36,-106.08 855.53,-115.32 860.17,-110.08"/>
</g>
<!-- 62&#45;&gt;0 -->
<g id="edge97" class="edge">
<title>62&#45;&gt;0</title>
<path fill="none" stroke="red" stroke-width="0.12" d="M286.85,-158C307.29,-133.95 350.37,-88.4 398.32,-68.53 507.01,-23.47 882.29,-18 985.73,-17.35"/>
<polygon fill="red" stroke="red" stroke-width="0.12" points="985.95,-20.85 995.93,-17.29 985.92,-13.85 985.95,-20.85"/>
</g>
<!-- 62&#45;&gt;1 -->
<g id="edge98" class="edge">
<title>62&#45;&gt;1</title>
<path fill="none" stroke="green" stroke-width="0.1" d="M293.82,-167.35C307.34,-163.21 325.81,-157.84 342.32,-154.02 344.25,-153.58 575.53,-112.89 654.92,-98.92"/>
<polygon fill="green" stroke="green" stroke-width="0.1" points="655.83,-102.31 665.08,-97.13 654.62,-95.42 655.83,-102.31"/>
</g>
<!-- 62&#45;&gt;2 -->
<g id="edge99" class="edge">
<title>62&#45;&gt;2</title>
<path fill="none" stroke="red" stroke-width="0.29" d="M293.41,-166.85C306.9,-162.43 325.5,-156.93 342.32,-154.02 594.2,-110.53 662.35,-147 916.32,-118.02 957.56,-113.32 1005.02,-104.82 1033.56,-99.37"/>
<polygon fill="red" stroke="red" stroke-width="0.29" points="1034.37,-102.78 1043.52,-97.44 1033.04,-95.9 1034.37,-102.78"/>
</g>
<!-- 62&#45;&gt;3 -->
<g id="edge100" class="edge">
<title>62&#45;&gt;3</title>
<path fill="none" stroke="green" stroke-width="0.18" d="M293.41,-166.88C306.9,-162.48 325.51,-156.98 342.32,-154.02 457.06,-133.85 758.22,-163.87 865.32,-118.02 868.26,-116.77 871.08,-115.03 873.72,-113.06"/>
<polygon fill="green" stroke="green" stroke-width="0.18" points="876.2,-115.54 881.38,-106.31 871.57,-110.29 876.2,-115.54"/>
</g>
<!-- 62&#45;&gt;4 -->
<g id="edge101" class="edge">
<title>62&#45;&gt;4</title>
<path fill="none" stroke="red" stroke-width="0.14" d="M291.37,-162.98C296.95,-159.81 303.28,-156.52 309.32,-154.02 374.21,-127.23 455.06,-108.14 495.61,-99.48"/>
<polygon fill="red" stroke="red" stroke-width="0.14" points="496.4,-102.89 505.47,-97.41 494.97,-96.04 496.4,-102.89"/>
</g>
<!-- 62&#45;&gt;5 -->
<g id="edge102" class="edge">
<title>62&#45;&gt;5</title>
<path fill="none" stroke="green" stroke-width="0.11" d="M293.44,-167.04C306.95,-162.71 325.55,-157.23 342.32,-154.02 501.99,-123.49 545.28,-140.23 706.32,-118.02 743.96,-112.83 787.2,-104.79 814.14,-99.53"/>
<polygon fill="green" stroke="green" stroke-width="0.11" points="815.16,-102.9 824.29,-97.53 813.81,-96.03 815.16,-102.9"/>
</g>
<!-- 63&#45;&gt;0 -->
<g id="edge103" class="edge">
<title>63&#45;&gt;0</title>
<path fill="none" stroke="red" stroke-width="0.11" d="M1231.2,-159.21C1209.34,-137.58 1165.3,-96.16 1122.32,-68.53 1094.69,-50.76 1059.91,-35.62 1036.94,-26.5"/>
<polygon fill="red" stroke="red" stroke-width="0.11" points="1038.17,-23.22 1027.58,-22.85 1035.63,-29.74 1038.17,-23.22"/>
</g>
<!-- 63&#45;&gt;1 -->
<g id="edge104" class="edge">
<title>63&#45;&gt;1</title>
<path fill="none" stroke="red" stroke-width="0.39" d="M1229.84,-161.05C1225.67,-158.29 1221.01,-155.69 1216.32,-154.02 1047.67,-94.21 992.69,-141.66 815.32,-118.02 777.65,-113.01 734.42,-104.92 707.49,-99.6"/>
<polygon fill="red" stroke="red" stroke-width="0.39" points="707.83,-96.1 697.34,-97.57 706.46,-102.96 707.83,-96.1"/>
</g>
<!-- 63&#45;&gt;2 -->
<g id="edge105" class="edge">
<title>63&#45;&gt;2</title>
<path fill="none" stroke="green" stroke-width="0.25" d="M1229.16,-161.71C1225.08,-159 1220.63,-156.26 1216.32,-154.02 1171.88,-131.01 1116.47,-112 1084.77,-101.97"/>
<polygon fill="green" stroke="green" stroke-width="0.25" points="1085.57,-98.55 1074.98,-98.92 1083.48,-105.24 1085.57,-98.55"/>
</g>
<!-- 63&#45;&gt;3 -->
<g id="edge106" class="edge">
<title>63&#45;&gt;3</title>
<path fill="none" stroke="red" stroke-width="0.28" d="M1229.42,-161.15C1225.33,-158.45 1220.81,-155.86 1216.32,-154.02 1202.36,-148.34 992.28,-111.72 917.5,-98.79"/>
<polygon fill="red" stroke="red" stroke-width="0.28" points="917.94,-95.31 907.49,-97.06 916.75,-102.21 917.94,-95.31"/>
</g>
<!-- 63&#45;&gt;4 -->
<g id="edge107" class="edge">
<title>63&#45;&gt;4</title>
<path fill="none" stroke="red" stroke-width="0.36" d="M1229.87,-160.97C1225.7,-158.21 1221.03,-155.63 1216.32,-154.02 1098.27,-113.83 780.14,-132.85 656.32,-118.02 617.94,-113.43 573.91,-105.1 546.86,-99.63"/>
<polygon fill="red" stroke="red" stroke-width="0.36" points="547.53,-96.2 537.03,-97.62 546.13,-103.06 547.53,-96.2"/>
</g>
<!-- 63&#45;&gt;5 -->
<g id="edge108" class="edge">
<title>63&#45;&gt;5</title>
<path fill="none" stroke="red" stroke-width="0.16" d="M1229.82,-161.09C1225.65,-158.33 1221,-155.72 1216.32,-154.02 1069.28,-100.8 1009.02,-181.98 866.32,-118.02 863.4,-116.72 860.59,-114.95 857.96,-112.97"/>
<polygon fill="red" stroke="red" stroke-width="0.16" points="860.11,-110.2 850.3,-106.2 855.48,-115.45 860.11,-110.2"/>
</g>
</g>
</svg>
