<?xml version="1.0" encoding="utf-8" standalone="no"?>
<!DOCTYPE svg PUBLIC "-//W3C//DTD SVG 1.1//EN"
  "http://www.w3.org/Graphics/SVG/1.1/DTD/svg11.dtd">
<svg xmlns:xlink="http://www.w3.org/1999/xlink" width="460.8pt" height="345.6pt" viewBox="0 0 460.8 345.6" xmlns="http://www.w3.org/2000/svg" version="1.1">
 <metadata>
  <rdf:RDF xmlns:dc="http://purl.org/dc/elements/1.1/" xmlns:cc="http://creativecommons.org/ns#" xmlns:rdf="http://www.w3.org/1999/02/22-rdf-syntax-ns#">
   <cc:Work>
    <dc:type rdf:resource="http://purl.org/dc/dcmitype/StillImage"/>
    <dc:date>2023-06-18T17:59:21.996652</dc:date>
    <dc:format>image/svg+xml</dc:format>
    <dc:creator>
     <cc:Agent>
      <dc:title>Matplotlib v3.6.3, https://matplotlib.org/</dc:title>
     </cc:Agent>
    </dc:creator>
   </cc:Work>
  </rdf:RDF>
 </metadata>
 <defs>
  <style type="text/css">*{stroke-linejoin: round; stroke-linecap: butt}</style>
 </defs>
 <g id="figure_1">
  <g id="patch_1">
   <path d="M 0 345.6 
L 460.8 345.6 
L 460.8 0 
L 0 0 
z
" style="fill: #ffffff"/>
  </g>
  <g id="axes_1">
   <g id="patch_2">
    <path d="M 57.6 307.584 
L 414.72 307.584 
L 414.72 41.472 
L 57.6 41.472 
z
" style="fill: #ffffff"/>
   </g>
   <g id="PolyCollection_1">
    <path d="M 73.832727 289.152 
L 73.832727 307.584 
L 82.157203 307.584 
L 90.481678 307.584 
L 98.806154 307.584 
L 107.130629 307.584 
L 115.455105 307.584 
L 123.77958 307.584 
L 132.104056 307.584 
L 140.428531 307.584 
L 148.753007 307.584 
L 157.077483 307.584 
L 165.401958 307.584 
L 173.726434 307.584 
L 182.050909 307.584 
L 190.375385 307.584 
L 198.69986 307.584 
L 207.024336 307.584 
L 215.348811 307.584 
L 223.673287 307.584 
L 231.997762 307.584 
L 240.322238 307.584 
L 248.646713 307.584 
L 256.971189 307.584 
L 265.295664 307.584 
L 273.62014 307.584 
L 281.944615 307.584 
L 290.269091 307.584 
L 298.593566 307.584 
L 306.918042 307.584 
L 315.242517 307.584 
L 323.566993 307.584 
L 331.891469 307.584 
L 340.215944 307.584 
L 348.54042 307.584 
L 356.864895 307.584 
L 365.189371 307.584 
L 373.513846 307.584 
L 381.838322 307.584 
L 390.162797 307.584 
L 398.487273 307.584 
L 398.487273 307.584 
L 398.487273 307.584 
L 390.162797 307.584 
L 381.838322 307.584 
L 373.513846 307.584 
L 365.189371 307.584 
L 356.864895 307.584 
L 348.54042 307.584 
L 340.215944 307.584 
L 331.891469 307.584 
L 323.566993 307.584 
L 315.242517 307.584 
L 306.918042 307.584 
L 298.593566 307.584 
L 290.269091 307.584 
L 281.944615 307.584 
L 273.62014 307.584 
L 265.295664 307.584 
L 256.971189 307.584 
L 248.646713 307.584 
L 240.322238 298.368 
L 231.997762 298.368 
L 223.673287 298.368 
L 215.348811 298.368 
L 207.024336 298.368 
L 198.69986 293.76 
L 190.375385 298.368 
L 182.050909 293.76 
L 173.726434 298.368 
L 165.401958 293.76 
L 157.077483 298.368 
L 148.753007 293.76 
L 140.428531 298.368 
L 132.104056 293.76 
L 123.77958 298.368 
L 115.455105 298.368 
L 107.130629 293.76 
L 98.806154 298.368 
L 90.481678 293.76 
L 82.157203 298.368 
L 73.832727 289.152 
z
" clip-path="url(#pe9575bd66b)" style="fill: #1f77b4"/>
   </g>
   <g id="PolyCollection_2">
    <path d="M 73.832727 279.936 
L 73.832727 289.152 
L 82.157203 298.368 
L 90.481678 293.76 
L 98.806154 298.368 
L 107.130629 293.76 
L 115.455105 298.368 
L 123.77958 298.368 
L 132.104056 293.76 
L 140.428531 298.368 
L 148.753007 293.76 
L 157.077483 298.368 
L 165.401958 293.76 
L 173.726434 298.368 
L 182.050909 293.76 
L 190.375385 298.368 
L 198.69986 293.76 
L 207.024336 298.368 
L 215.348811 298.368 
L 223.673287 298.368 
L 231.997762 298.368 
L 240.322238 298.368 
L 248.646713 307.584 
L 256.971189 307.584 
L 265.295664 307.584 
L 273.62014 307.584 
L 281.944615 307.584 
L 290.269091 307.584 
L 298.593566 307.584 
L 306.918042 307.584 
L 315.242517 307.584 
L 323.566993 307.584 
L 331.891469 307.584 
L 340.215944 307.584 
L 348.54042 307.584 
L 356.864895 307.584 
L 365.189371 307.584 
L 373.513846 307.584 
L 381.838322 307.584 
L 390.162797 307.584 
L 398.487273 307.584 
L 398.487273 307.584 
L 398.487273 307.584 
L 390.162797 307.584 
L 381.838322 307.584 
L 373.513846 307.584 
L 365.189371 307.584 
L 356.864895 307.584 
L 348.54042 307.584 
L 340.215944 307.584 
L 331.891469 307.584 
L 323.566993 307.584 
L 315.242517 307.584 
L 306.918042 307.584 
L 298.593566 307.584 
L 290.269091 307.584 
L 281.944615 307.584 
L 273.62014 307.584 
L 265.295664 307.584 
L 256.971189 307.584 
L 248.646713 307.584 
L 240.322238 289.152 
L 231.997762 289.152 
L 223.673287 289.152 
L 215.348811 289.152 
L 207.024336 289.152 
L 198.69986 284.544 
L 190.375385 289.152 
L 182.050909 284.544 
L 173.726434 289.152 
L 165.401958 284.544 
L 157.077483 289.152 
L 148.753007 284.544 
L 140.428531 289.152 
L 132.104056 284.544 
L 123.77958 289.152 
L 115.455105 289.152 
L 107.130629 284.544 
L 98.806154 289.152 
L 90.481678 284.544 
L 82.157203 289.152 
L 73.832727 279.936 
z
" clip-path="url(#pe9575bd66b)" style="fill: #ff7f0e"/>
   </g>
   <g id="PolyCollection_3">
    <path d="M 73.832727 266.112 
L 73.832727 279.936 
L 82.157203 289.152 
L 90.481678 284.544 
L 98.806154 289.152 
L 107.130629 284.544 
L 115.455105 289.152 
L 123.77958 289.152 
L 132.104056 284.544 
L 140.428531 289.152 
L 148.753007 284.544 
L 157.077483 289.152 
L 165.401958 284.544 
L 173.726434 289.152 
L 182.050909 284.544 
L 190.375385 289.152 
L 198.69986 284.544 
L 207.024336 289.152 
L 215.348811 289.152 
L 223.673287 289.152 
L 231.997762 289.152 
L 240.322238 289.152 
L 248.646713 307.584 
L 256.971189 307.584 
L 265.295664 307.584 
L 273.62014 307.584 
L 281.944615 307.584 
L 290.269091 307.584 
L 298.593566 307.584 
L 306.918042 307.584 
L 315.242517 307.584 
L 323.566993 307.584 
L 331.891469 307.584 
L 340.215944 307.584 
L 348.54042 307.584 
L 356.864895 307.584 
L 365.189371 307.584 
L 373.513846 307.584 
L 381.838322 307.584 
L 390.162797 307.584 
L 398.487273 307.584 
L 398.487273 307.584 
L 398.487273 307.584 
L 390.162797 307.584 
L 381.838322 307.584 
L 373.513846 307.584 
L 365.189371 307.584 
L 356.864895 307.584 
L 348.54042 307.584 
L 340.215944 307.584 
L 331.891469 307.584 
L 323.566993 307.584 
L 315.242517 307.584 
L 306.918042 307.584 
L 298.593566 307.584 
L 290.269091 307.584 
L 281.944615 307.584 
L 273.62014 307.584 
L 265.295664 307.584 
L 256.971189 307.584 
L 248.646713 307.584 
L 240.322238 279.936 
L 231.997762 279.936 
L 223.673287 279.936 
L 215.348811 279.936 
L 207.024336 279.936 
L 198.69986 275.328 
L 190.375385 279.936 
L 182.050909 275.328 
L 173.726434 279.936 
L 165.401958 275.328 
L 157.077483 279.936 
L 148.753007 275.328 
L 140.428531 279.936 
L 132.104056 275.328 
L 123.77958 279.936 
L 115.455105 279.936 
L 107.130629 275.328 
L 98.806154 279.936 
L 90.481678 275.328 
L 82.157203 279.936 
L 73.832727 266.112 
z
" clip-path="url(#pe9575bd66b)" style="fill: #2ca02c"/>
   </g>
   <g id="PolyCollection_4">
    <path d="M 73.832727 252.288 
L 73.832727 266.112 
L 82.157203 279.936 
L 90.481678 275.328 
L 98.806154 279.936 
L 107.130629 275.328 
L 115.455105 279.936 
L 123.77958 279.936 
L 132.104056 275.328 
L 140.428531 279.936 
L 148.753007 275.328 
L 157.077483 279.936 
L 165.401958 275.328 
L 173.726434 279.936 
L 182.050909 275.328 
L 190.375385 279.936 
L 198.69986 275.328 
L 207.024336 279.936 
L 215.348811 279.936 
L 223.673287 279.936 
L 231.997762 279.936 
L 240.322238 279.936 
L 248.646713 307.584 
L 256.971189 307.584 
L 265.295664 307.584 
L 273.62014 307.584 
L 281.944615 307.584 
L 290.269091 307.584 
L 298.593566 307.584 
L 306.918042 307.584 
L 315.242517 307.584 
L 323.566993 307.584 
L 331.891469 307.584 
L 340.215944 307.584 
L 348.54042 307.584 
L 356.864895 307.584 
L 365.189371 307.584 
L 373.513846 307.584 
L 381.838322 307.584 
L 390.162797 307.584 
L 398.487273 307.584 
L 398.487273 307.584 
L 398.487273 307.584 
L 390.162797 307.584 
L 381.838322 307.584 
L 373.513846 307.584 
L 365.189371 307.584 
L 356.864895 307.584 
L 348.54042 307.584 
L 340.215944 307.584 
L 331.891469 307.584 
L 323.566993 307.584 
L 315.242517 307.584 
L 306.918042 307.584 
L 298.593566 307.584 
L 290.269091 307.584 
L 281.944615 307.584 
L 273.62014 307.584 
L 265.295664 307.584 
L 256.971189 307.584 
L 248.646713 307.584 
L 240.322238 270.72 
L 231.997762 270.72 
L 223.673287 270.72 
L 215.348811 270.72 
L 207.024336 270.72 
L 198.69986 266.112 
L 190.375385 270.72 
L 182.050909 266.112 
L 173.726434 270.72 
L 165.401958 266.112 
L 157.077483 270.72 
L 148.753007 266.112 
L 140.428531 270.72 
L 132.104056 266.112 
L 123.77958 270.72 
L 115.455105 270.72 
L 107.130629 266.112 
L 98.806154 270.72 
L 90.481678 266.112 
L 82.157203 275.328 
L 73.832727 252.288 
z
" clip-path="url(#pe9575bd66b)" style="fill: #d62728"/>
   </g>
   <g id="PolyCollection_5">
    <path d="M 73.832727 247.68 
L 73.832727 252.288 
L 82.157203 275.328 
L 90.481678 266.112 
L 98.806154 270.72 
L 107.130629 266.112 
L 115.455105 270.72 
L 123.77958 270.72 
L 132.104056 266.112 
L 140.428531 270.72 
L 148.753007 266.112 
L 157.077483 270.72 
L 165.401958 266.112 
L 173.726434 270.72 
L 182.050909 266.112 
L 190.375385 270.72 
L 198.69986 266.112 
L 207.024336 270.72 
L 215.348811 270.72 
L 223.673287 270.72 
L 231.997762 270.72 
L 240.322238 270.72 
L 248.646713 307.584 
L 256.971189 307.584 
L 265.295664 307.584 
L 273.62014 307.584 
L 281.944615 307.584 
L 290.269091 307.584 
L 298.593566 307.584 
L 306.918042 307.584 
L 315.242517 307.584 
L 323.566993 307.584 
L 331.891469 307.584 
L 340.215944 307.584 
L 348.54042 307.584 
L 356.864895 307.584 
L 365.189371 307.584 
L 373.513846 307.584 
L 381.838322 307.584 
L 390.162797 307.584 
L 398.487273 307.584 
L 398.487273 307.584 
L 398.487273 307.584 
L 390.162797 307.584 
L 381.838322 307.584 
L 373.513846 307.584 
L 365.189371 307.584 
L 356.864895 307.584 
L 348.54042 307.584 
L 340.215944 307.584 
L 331.891469 307.584 
L 323.566993 307.584 
L 315.242517 307.584 
L 306.918042 307.584 
L 298.593566 307.584 
L 290.269091 307.584 
L 281.944615 307.584 
L 273.62014 307.584 
L 265.295664 307.584 
L 256.971189 307.584 
L 248.646713 307.584 
L 240.322238 261.504 
L 231.997762 261.504 
L 223.673287 261.504 
L 215.348811 261.504 
L 207.024336 261.504 
L 198.69986 256.896 
L 190.375385 261.504 
L 182.050909 256.896 
L 173.726434 261.504 
L 165.401958 256.896 
L 157.077483 261.504 
L 148.753007 256.896 
L 140.428531 261.504 
L 132.104056 256.896 
L 123.77958 261.504 
L 115.455105 261.504 
L 107.130629 256.896 
L 98.806154 261.504 
L 90.481678 256.896 
L 82.157203 266.112 
L 73.832727 247.68 
z
" clip-path="url(#pe9575bd66b)" style="fill: #9467bd"/>
   </g>
   <g id="PolyCollection_6">
    <path d="M 73.832727 210.816 
L 73.832727 247.68 
L 82.157203 266.112 
L 90.481678 256.896 
L 98.806154 261.504 
L 107.130629 256.896 
L 115.455105 261.504 
L 123.77958 261.504 
L 132.104056 256.896 
L 140.428531 261.504 
L 148.753007 256.896 
L 157.077483 261.504 
L 165.401958 256.896 
L 173.726434 261.504 
L 182.050909 256.896 
L 190.375385 261.504 
L 198.69986 256.896 
L 207.024336 261.504 
L 215.348811 261.504 
L 223.673287 261.504 
L 231.997762 261.504 
L 240.322238 261.504 
L 248.646713 307.584 
L 256.971189 307.584 
L 265.295664 307.584 
L 273.62014 307.584 
L 281.944615 307.584 
L 290.269091 307.584 
L 298.593566 307.584 
L 306.918042 307.584 
L 315.242517 307.584 
L 323.566993 307.584 
L 331.891469 307.584 
L 340.215944 307.584 
L 348.54042 307.584 
L 356.864895 307.584 
L 365.189371 307.584 
L 373.513846 307.584 
L 381.838322 307.584 
L 390.162797 307.584 
L 398.487273 307.584 
L 398.487273 252.288 
L 398.487273 252.288 
L 390.162797 247.68 
L 381.838322 252.288 
L 373.513846 256.896 
L 365.189371 256.896 
L 356.864895 252.288 
L 348.54042 261.504 
L 340.215944 275.328 
L 331.891469 270.72 
L 323.566993 275.328 
L 315.242517 270.72 
L 306.918042 279.936 
L 298.593566 275.328 
L 290.269091 279.936 
L 281.944615 275.328 
L 273.62014 279.936 
L 265.295664 284.544 
L 256.971189 279.936 
L 248.646713 284.544 
L 240.322238 243.072 
L 231.997762 243.072 
L 223.673287 243.072 
L 215.348811 243.072 
L 207.024336 243.072 
L 198.69986 238.464 
L 190.375385 243.072 
L 182.050909 243.072 
L 173.726434 238.464 
L 165.401958 233.856 
L 157.077483 238.464 
L 148.753007 233.856 
L 140.428531 238.464 
L 132.104056 243.072 
L 123.77958 252.288 
L 115.455105 243.072 
L 107.130629 243.072 
L 98.806154 252.288 
L 90.481678 243.072 
L 82.157203 261.504 
L 73.832727 210.816 
z
" clip-path="url(#pe9575bd66b)" style="fill: #8c564b"/>
   </g>
   <g id="PolyCollection_7">
    <path d="M 73.832727 187.776 
L 73.832727 210.816 
L 82.157203 261.504 
L 90.481678 243.072 
L 98.806154 252.288 
L 107.130629 243.072 
L 115.455105 243.072 
L 123.77958 252.288 
L 132.104056 243.072 
L 140.428531 238.464 
L 148.753007 233.856 
L 157.077483 238.464 
L 165.401958 233.856 
L 173.726434 238.464 
L 182.050909 243.072 
L 190.375385 243.072 
L 198.69986 238.464 
L 207.024336 243.072 
L 215.348811 243.072 
L 223.673287 243.072 
L 231.997762 243.072 
L 240.322238 243.072 
L 248.646713 284.544 
L 256.971189 279.936 
L 265.295664 284.544 
L 273.62014 279.936 
L 281.944615 275.328 
L 290.269091 279.936 
L 298.593566 275.328 
L 306.918042 279.936 
L 315.242517 270.72 
L 323.566993 275.328 
L 331.891469 270.72 
L 340.215944 275.328 
L 348.54042 261.504 
L 356.864895 252.288 
L 365.189371 256.896 
L 373.513846 256.896 
L 381.838322 252.288 
L 390.162797 247.68 
L 398.487273 252.288 
L 398.487273 252.288 
L 398.487273 252.288 
L 390.162797 247.68 
L 381.838322 252.288 
L 373.513846 256.896 
L 365.189371 256.896 
L 356.864895 252.288 
L 348.54042 261.504 
L 340.215944 233.856 
L 331.891469 243.072 
L 323.566993 243.072 
L 315.242517 233.856 
L 306.918042 252.288 
L 298.593566 243.072 
L 290.269091 243.072 
L 281.944615 243.072 
L 273.62014 252.288 
L 265.295664 261.504 
L 256.971189 252.288 
L 248.646713 261.504 
L 240.322238 224.64 
L 231.997762 224.64 
L 223.673287 224.64 
L 215.348811 224.64 
L 207.024336 224.64 
L 198.69986 220.032 
L 190.375385 229.248 
L 182.050909 229.248 
L 173.726434 224.64 
L 165.401958 224.64 
L 157.077483 224.64 
L 148.753007 224.64 
L 140.428531 224.64 
L 132.104056 233.856 
L 123.77958 247.68 
L 115.455105 233.856 
L 107.130629 233.856 
L 98.806154 243.072 
L 90.481678 233.856 
L 82.157203 247.68 
L 73.832727 187.776 
z
" clip-path="url(#pe9575bd66b)" style="fill: #e377c2"/>
   </g>
   <g id="PolyCollection_8">
    <path d="M 73.832727 155.52 
L 73.832727 187.776 
L 82.157203 247.68 
L 90.481678 233.856 
L 98.806154 243.072 
L 107.130629 233.856 
L 115.455105 233.856 
L 123.77958 247.68 
L 132.104056 233.856 
L 140.428531 224.64 
L 148.753007 224.64 
L 157.077483 224.64 
L 165.401958 224.64 
L 173.726434 224.64 
L 182.050909 229.248 
L 190.375385 229.248 
L 198.69986 220.032 
L 207.024336 224.64 
L 215.348811 224.64 
L 223.673287 224.64 
L 231.997762 224.64 
L 240.322238 224.64 
L 248.646713 261.504 
L 256.971189 252.288 
L 265.295664 261.504 
L 273.62014 252.288 
L 281.944615 243.072 
L 290.269091 243.072 
L 298.593566 243.072 
L 306.918042 252.288 
L 315.242517 233.856 
L 323.566993 243.072 
L 331.891469 243.072 
L 340.215944 233.856 
L 348.54042 261.504 
L 356.864895 252.288 
L 365.189371 256.896 
L 373.513846 256.896 
L 381.838322 252.288 
L 390.162797 247.68 
L 398.487273 252.288 
L 398.487273 252.288 
L 398.487273 252.288 
L 390.162797 247.68 
L 381.838322 252.288 
L 373.513846 256.896 
L 365.189371 201.6 
L 356.864895 201.6 
L 348.54042 206.208 
L 340.215944 187.776 
L 331.891469 206.208 
L 323.566993 210.816 
L 315.242517 196.992 
L 306.918042 215.424 
L 298.593566 210.816 
L 290.269091 206.208 
L 281.944615 210.816 
L 273.62014 224.64 
L 265.295664 238.464 
L 256.971189 224.64 
L 248.646713 238.464 
L 240.322238 206.208 
L 231.997762 210.816 
L 223.673287 210.816 
L 215.348811 206.208 
L 207.024336 210.816 
L 198.69986 206.208 
L 190.375385 220.032 
L 182.050909 215.424 
L 173.726434 215.424 
L 165.401958 210.816 
L 157.077483 215.424 
L 148.753007 210.816 
L 140.428531 215.424 
L 132.104056 220.032 
L 123.77958 238.464 
L 115.455105 224.64 
L 107.130629 220.032 
L 98.806154 233.856 
L 90.481678 220.032 
L 82.157203 233.856 
L 73.832727 155.52 
z
" clip-path="url(#pe9575bd66b)" style="fill: #7f7f7f"/>
   </g>
   <g id="PolyCollection_9">
    <path d="M 73.832727 146.304 
L 73.832727 155.52 
L 82.157203 233.856 
L 90.481678 220.032 
L 98.806154 233.856 
L 107.130629 220.032 
L 115.455105 224.64 
L 123.77958 238.464 
L 132.104056 220.032 
L 140.428531 215.424 
L 148.753007 210.816 
L 157.077483 215.424 
L 165.401958 210.816 
L 173.726434 215.424 
L 182.050909 215.424 
L 190.375385 220.032 
L 198.69986 206.208 
L 207.024336 210.816 
L 215.348811 206.208 
L 223.673287 210.816 
L 231.997762 210.816 
L 240.322238 206.208 
L 248.646713 238.464 
L 256.971189 224.64 
L 265.295664 238.464 
L 273.62014 224.64 
L 281.944615 210.816 
L 290.269091 206.208 
L 298.593566 210.816 
L 306.918042 215.424 
L 315.242517 196.992 
L 323.566993 210.816 
L 331.891469 206.208 
L 340.215944 187.776 
L 348.54042 206.208 
L 356.864895 201.6 
L 365.189371 201.6 
L 373.513846 256.896 
L 381.838322 252.288 
L 390.162797 247.68 
L 398.487273 252.288 
L 398.487273 252.288 
L 398.487273 252.288 
L 390.162797 247.68 
L 381.838322 252.288 
L 373.513846 256.896 
L 365.189371 201.6 
L 356.864895 201.6 
L 348.54042 206.208 
L 340.215944 187.776 
L 331.891469 206.208 
L 323.566993 210.816 
L 315.242517 196.992 
L 306.918042 215.424 
L 298.593566 210.816 
L 290.269091 206.208 
L 281.944615 210.816 
L 273.62014 224.64 
L 265.295664 238.464 
L 256.971189 224.64 
L 248.646713 238.464 
L 240.322238 196.992 
L 231.997762 201.6 
L 223.673287 201.6 
L 215.348811 196.992 
L 207.024336 201.6 
L 198.69986 196.992 
L 190.375385 210.816 
L 182.050909 206.208 
L 173.726434 206.208 
L 165.401958 201.6 
L 157.077483 206.208 
L 148.753007 201.6 
L 140.428531 206.208 
L 132.104056 210.816 
L 123.77958 229.248 
L 115.455105 215.424 
L 107.130629 210.816 
L 98.806154 224.64 
L 90.481678 210.816 
L 82.157203 210.816 
L 73.832727 146.304 
z
" clip-path="url(#pe9575bd66b)" style="fill: #bcbd22"/>
   </g>
   <g id="PolyCollection_10">
    <path d="M 73.832727 127.872 
L 73.832727 146.304 
L 82.157203 210.816 
L 90.481678 210.816 
L 98.806154 224.64 
L 107.130629 210.816 
L 115.455105 215.424 
L 123.77958 229.248 
L 132.104056 210.816 
L 140.428531 206.208 
L 148.753007 201.6 
L 157.077483 206.208 
L 165.401958 201.6 
L 173.726434 206.208 
L 182.050909 206.208 
L 190.375385 210.816 
L 198.69986 196.992 
L 207.024336 201.6 
L 215.348811 196.992 
L 223.673287 201.6 
L 231.997762 201.6 
L 240.322238 196.992 
L 248.646713 238.464 
L 256.971189 224.64 
L 265.295664 238.464 
L 273.62014 224.64 
L 281.944615 210.816 
L 290.269091 206.208 
L 298.593566 210.816 
L 306.918042 215.424 
L 315.242517 196.992 
L 323.566993 210.816 
L 331.891469 206.208 
L 340.215944 187.776 
L 348.54042 206.208 
L 356.864895 201.6 
L 365.189371 201.6 
L 373.513846 256.896 
L 381.838322 252.288 
L 390.162797 247.68 
L 398.487273 252.288 
L 398.487273 252.288 
L 398.487273 252.288 
L 390.162797 247.68 
L 381.838322 252.288 
L 373.513846 256.896 
L 365.189371 201.6 
L 356.864895 201.6 
L 348.54042 206.208 
L 340.215944 187.776 
L 331.891469 206.208 
L 323.566993 210.816 
L 315.242517 196.992 
L 306.918042 215.424 
L 298.593566 210.816 
L 290.269091 206.208 
L 281.944615 210.816 
L 273.62014 224.64 
L 265.295664 238.464 
L 256.971189 210.816 
L 248.646713 220.032 
L 240.322238 183.168 
L 231.997762 187.776 
L 223.673287 187.776 
L 215.348811 178.56 
L 207.024336 187.776 
L 198.69986 178.56 
L 190.375385 196.992 
L 182.050909 192.384 
L 173.726434 192.384 
L 165.401958 183.168 
L 157.077483 187.776 
L 148.753007 183.168 
L 140.428531 187.776 
L 132.104056 192.384 
L 123.77958 210.816 
L 115.455105 196.992 
L 107.130629 192.384 
L 98.806154 201.6 
L 90.481678 201.6 
L 82.157203 192.384 
L 73.832727 127.872 
z
" clip-path="url(#pe9575bd66b)" style="fill: #17becf"/>
   </g>
   <g id="PolyCollection_11">
    <path d="M 73.832727 123.264 
L 73.832727 127.872 
L 82.157203 192.384 
L 90.481678 201.6 
L 98.806154 201.6 
L 107.130629 192.384 
L 115.455105 196.992 
L 123.77958 210.816 
L 132.104056 192.384 
L 140.428531 187.776 
L 148.753007 183.168 
L 157.077483 187.776 
L 165.401958 183.168 
L 173.726434 192.384 
L 182.050909 192.384 
L 190.375385 196.992 
L 198.69986 178.56 
L 207.024336 187.776 
L 215.348811 178.56 
L 223.673287 187.776 
L 231.997762 187.776 
L 240.322238 183.168 
L 248.646713 220.032 
L 256.971189 210.816 
L 265.295664 238.464 
L 273.62014 224.64 
L 281.944615 210.816 
L 290.269091 206.208 
L 298.593566 210.816 
L 306.918042 215.424 
L 315.242517 196.992 
L 323.566993 210.816 
L 331.891469 206.208 
L 340.215944 187.776 
L 348.54042 206.208 
L 356.864895 201.6 
L 365.189371 201.6 
L 373.513846 256.896 
L 381.838322 252.288 
L 390.162797 247.68 
L 398.487273 252.288 
L 398.487273 210.816 
L 398.487273 210.816 
L 390.162797 215.424 
L 381.838322 215.424 
L 373.513846 215.424 
L 365.189371 169.344 
L 356.864895 164.736 
L 348.54042 173.952 
L 340.215944 164.736 
L 331.891469 178.56 
L 323.566993 187.776 
L 315.242517 178.56 
L 306.918042 192.384 
L 298.593566 192.384 
L 290.269091 183.168 
L 281.944615 192.384 
L 273.62014 201.6 
L 265.295664 220.032 
L 256.971189 196.992 
L 248.646713 201.6 
L 240.322238 169.344 
L 231.997762 173.952 
L 223.673287 173.952 
L 215.348811 160.128 
L 207.024336 173.952 
L 198.69986 160.128 
L 190.375385 183.168 
L 182.050909 178.56 
L 173.726434 178.56 
L 165.401958 169.344 
L 157.077483 173.952 
L 148.753007 169.344 
L 140.428531 169.344 
L 132.104056 178.56 
L 123.77958 192.384 
L 115.455105 178.56 
L 107.130629 178.56 
L 98.806154 178.56 
L 90.481678 183.168 
L 82.157203 173.952 
L 73.832727 123.264 
z
" clip-path="url(#pe9575bd66b)" style="fill: #1f77b4"/>
   </g>
   <g id="PolyCollection_12">
    <path d="M 73.832727 118.656 
L 73.832727 123.264 
L 82.157203 173.952 
L 90.481678 183.168 
L 98.806154 178.56 
L 107.130629 178.56 
L 115.455105 178.56 
L 123.77958 192.384 
L 132.104056 178.56 
L 140.428531 169.344 
L 148.753007 169.344 
L 157.077483 173.952 
L 165.401958 169.344 
L 173.726434 178.56 
L 182.050909 178.56 
L 190.375385 183.168 
L 198.69986 160.128 
L 207.024336 173.952 
L 215.348811 160.128 
L 223.673287 173.952 
L 231.997762 173.952 
L 240.322238 169.344 
L 248.646713 201.6 
L 256.971189 196.992 
L 265.295664 220.032 
L 273.62014 201.6 
L 281.944615 192.384 
L 290.269091 183.168 
L 298.593566 192.384 
L 306.918042 192.384 
L 315.242517 178.56 
L 323.566993 187.776 
L 331.891469 178.56 
L 340.215944 164.736 
L 348.54042 173.952 
L 356.864895 164.736 
L 365.189371 169.344 
L 373.513846 215.424 
L 381.838322 215.424 
L 390.162797 215.424 
L 398.487273 210.816 
L 398.487273 127.872 
L 398.487273 127.872 
L 390.162797 132.48 
L 381.838322 137.088 
L 373.513846 141.696 
L 365.189371 118.656 
L 356.864895 109.44 
L 348.54042 114.048 
L 340.215944 114.048 
L 331.891469 137.088 
L 323.566993 150.912 
L 315.242517 137.088 
L 306.918042 150.912 
L 298.593566 146.304 
L 290.269091 141.696 
L 281.944615 155.52 
L 273.62014 169.344 
L 265.295664 183.168 
L 256.971189 173.952 
L 248.646713 187.776 
L 240.322238 160.128 
L 231.997762 160.128 
L 223.673287 160.128 
L 215.348811 150.912 
L 207.024336 160.128 
L 198.69986 150.912 
L 190.375385 169.344 
L 182.050909 169.344 
L 173.726434 164.736 
L 165.401958 155.52 
L 157.077483 160.128 
L 148.753007 155.52 
L 140.428531 150.912 
L 132.104056 160.128 
L 123.77958 178.56 
L 115.455105 164.736 
L 107.130629 160.128 
L 98.806154 160.128 
L 90.481678 169.344 
L 82.157203 155.52 
L 73.832727 118.656 
z
" clip-path="url(#pe9575bd66b)" style="fill: #ff7f0e"/>
   </g>
   <g id="PolyCollection_13">
    <path d="M 73.832727 100.224 
L 73.832727 118.656 
L 82.157203 155.52 
L 90.481678 169.344 
L 98.806154 160.128 
L 107.130629 160.128 
L 115.455105 164.736 
L 123.77958 178.56 
L 132.104056 160.128 
L 140.428531 150.912 
L 148.753007 155.52 
L 157.077483 160.128 
L 165.401958 155.52 
L 173.726434 164.736 
L 182.050909 169.344 
L 190.375385 169.344 
L 198.69986 150.912 
L 207.024336 160.128 
L 215.348811 150.912 
L 223.673287 160.128 
L 231.997762 160.128 
L 240.322238 160.128 
L 248.646713 187.776 
L 256.971189 173.952 
L 265.295664 183.168 
L 273.62014 169.344 
L 281.944615 155.52 
L 290.269091 141.696 
L 298.593566 146.304 
L 306.918042 150.912 
L 315.242517 137.088 
L 323.566993 150.912 
L 331.891469 137.088 
L 340.215944 114.048 
L 348.54042 114.048 
L 356.864895 109.44 
L 365.189371 118.656 
L 373.513846 141.696 
L 381.838322 137.088 
L 390.162797 132.48 
L 398.487273 127.872 
L 398.487273 81.792 
L 398.487273 81.792 
L 390.162797 77.184 
L 381.838322 77.184 
L 373.513846 77.184 
L 365.189371 72.576 
L 356.864895 72.576 
L 348.54042 72.576 
L 340.215944 72.576 
L 331.891469 104.832 
L 323.566993 114.048 
L 315.242517 104.832 
L 306.918042 118.656 
L 298.593566 118.656 
L 290.269091 109.44 
L 281.944615 132.48 
L 273.62014 141.696 
L 265.295664 160.128 
L 256.971189 155.52 
L 248.646713 173.952 
L 240.322238 150.912 
L 231.997762 146.304 
L 223.673287 146.304 
L 215.348811 141.696 
L 207.024336 146.304 
L 198.69986 137.088 
L 190.375385 160.128 
L 182.050909 155.52 
L 173.726434 150.912 
L 165.401958 141.696 
L 157.077483 146.304 
L 148.753007 141.696 
L 140.428531 132.48 
L 132.104056 141.696 
L 123.77958 155.52 
L 115.455105 146.304 
L 107.130629 146.304 
L 98.806154 150.912 
L 90.481678 155.52 
L 82.157203 146.304 
L 73.832727 100.224 
z
" clip-path="url(#pe9575bd66b)" style="fill: #2ca02c"/>
   </g>
   <g id="PolyCollection_14">
    <path d="M 73.832727 95.616 
L 73.832727 100.224 
L 82.157203 146.304 
L 90.481678 155.52 
L 98.806154 150.912 
L 107.130629 146.304 
L 115.455105 146.304 
L 123.77958 155.52 
L 132.104056 141.696 
L 140.428531 132.48 
L 148.753007 141.696 
L 157.077483 146.304 
L 165.401958 141.696 
L 173.726434 150.912 
L 182.050909 155.52 
L 190.375385 160.128 
L 198.69986 137.088 
L 207.024336 146.304 
L 215.348811 141.696 
L 223.673287 146.304 
L 231.997762 146.304 
L 240.322238 150.912 
L 248.646713 173.952 
L 256.971189 155.52 
L 265.295664 160.128 
L 273.62014 141.696 
L 281.944615 132.48 
L 290.269091 109.44 
L 298.593566 118.656 
L 306.918042 118.656 
L 315.242517 104.832 
L 323.566993 114.048 
L 331.891469 104.832 
L 340.215944 72.576 
L 348.54042 72.576 
L 356.864895 72.576 
L 365.189371 72.576 
L 373.513846 77.184 
L 381.838322 77.184 
L 390.162797 77.184 
L 398.487273 81.792 
L 398.487273 81.792 
L 398.487273 81.792 
L 390.162797 77.184 
L 381.838322 77.184 
L 373.513846 77.184 
L 365.189371 72.576 
L 356.864895 72.576 
L 348.54042 72.576 
L 340.215944 72.576 
L 331.891469 104.832 
L 323.566993 114.048 
L 315.242517 104.832 
L 306.918042 118.656 
L 298.593566 118.656 
L 290.269091 109.44 
L 281.944615 132.48 
L 273.62014 132.48 
L 265.295664 146.304 
L 256.971189 146.304 
L 248.646713 160.128 
L 240.322238 141.696 
L 231.997762 137.088 
L 223.673287 132.48 
L 215.348811 132.48 
L 207.024336 132.48 
L 198.69986 127.872 
L 190.375385 146.304 
L 182.050909 141.696 
L 173.726434 141.696 
L 165.401958 127.872 
L 157.077483 137.088 
L 148.753007 127.872 
L 140.428531 123.264 
L 132.104056 127.872 
L 123.77958 146.304 
L 115.455105 127.872 
L 107.130629 132.48 
L 98.806154 141.696 
L 90.481678 141.696 
L 82.157203 137.088 
L 73.832727 95.616 
z
" clip-path="url(#pe9575bd66b)" style="fill: #d62728"/>
   </g>
   <g id="PolyCollection_15">
    <path d="M 73.832727 91.008 
L 73.832727 95.616 
L 82.157203 137.088 
L 90.481678 141.696 
L 98.806154 141.696 
L 107.130629 132.48 
L 115.455105 127.872 
L 123.77958 146.304 
L 132.104056 127.872 
L 140.428531 123.264 
L 148.753007 127.872 
L 157.077483 137.088 
L 165.401958 127.872 
L 173.726434 141.696 
L 182.050909 141.696 
L 190.375385 146.304 
L 198.69986 127.872 
L 207.024336 132.48 
L 215.348811 132.48 
L 223.673287 132.48 
L 231.997762 137.088 
L 240.322238 141.696 
L 248.646713 160.128 
L 256.971189 146.304 
L 265.295664 146.304 
L 273.62014 132.48 
L 281.944615 132.48 
L 290.269091 109.44 
L 298.593566 118.656 
L 306.918042 118.656 
L 315.242517 104.832 
L 323.566993 114.048 
L 331.891469 104.832 
L 340.215944 72.576 
L 348.54042 72.576 
L 356.864895 72.576 
L 365.189371 72.576 
L 373.513846 77.184 
L 381.838322 77.184 
L 390.162797 77.184 
L 398.487273 81.792 
L 398.487273 81.792 
L 398.487273 81.792 
L 390.162797 77.184 
L 381.838322 77.184 
L 373.513846 77.184 
L 365.189371 72.576 
L 356.864895 72.576 
L 348.54042 72.576 
L 340.215944 72.576 
L 331.891469 104.832 
L 323.566993 114.048 
L 315.242517 104.832 
L 306.918042 118.656 
L 298.593566 118.656 
L 290.269091 109.44 
L 281.944615 132.48 
L 273.62014 132.48 
L 265.295664 137.088 
L 256.971189 137.088 
L 248.646713 150.912 
L 240.322238 132.48 
L 231.997762 127.872 
L 223.673287 123.264 
L 215.348811 123.264 
L 207.024336 123.264 
L 198.69986 118.656 
L 190.375385 137.088 
L 182.050909 132.48 
L 173.726434 132.48 
L 165.401958 118.656 
L 157.077483 127.872 
L 148.753007 118.656 
L 140.428531 114.048 
L 132.104056 118.656 
L 123.77958 137.088 
L 115.455105 118.656 
L 107.130629 127.872 
L 98.806154 127.872 
L 90.481678 132.48 
L 82.157203 127.872 
L 73.832727 91.008 
z
" clip-path="url(#pe9575bd66b)" style="fill: #9467bd"/>
   </g>
   <g id="PolyCollection_16">
    <path d="M 73.832727 86.4 
L 73.832727 91.008 
L 82.157203 127.872 
L 90.481678 132.48 
L 98.806154 127.872 
L 107.130629 127.872 
L 115.455105 118.656 
L 123.77958 137.088 
L 132.104056 118.656 
L 140.428531 114.048 
L 148.753007 118.656 
L 157.077483 127.872 
L 165.401958 118.656 
L 173.726434 132.48 
L 182.050909 132.48 
L 190.375385 137.088 
L 198.69986 118.656 
L 207.024336 123.264 
L 215.348811 123.264 
L 223.673287 123.264 
L 231.997762 127.872 
L 240.322238 132.48 
L 248.646713 150.912 
L 256.971189 137.088 
L 265.295664 137.088 
L 273.62014 132.48 
L 281.944615 132.48 
L 290.269091 109.44 
L 298.593566 118.656 
L 306.918042 118.656 
L 315.242517 104.832 
L 323.566993 114.048 
L 331.891469 104.832 
L 340.215944 72.576 
L 348.54042 72.576 
L 356.864895 72.576 
L 365.189371 72.576 
L 373.513846 77.184 
L 381.838322 77.184 
L 390.162797 77.184 
L 398.487273 81.792 
L 398.487273 81.792 
L 398.487273 81.792 
L 390.162797 77.184 
L 381.838322 77.184 
L 373.513846 77.184 
L 365.189371 72.576 
L 356.864895 72.576 
L 348.54042 72.576 
L 340.215944 72.576 
L 331.891469 104.832 
L 323.566993 114.048 
L 315.242517 104.832 
L 306.918042 118.656 
L 298.593566 118.656 
L 290.269091 109.44 
L 281.944615 132.48 
L 273.62014 132.48 
L 265.295664 137.088 
L 256.971189 137.088 
L 248.646713 141.696 
L 240.322238 123.264 
L 231.997762 118.656 
L 223.673287 114.048 
L 215.348811 114.048 
L 207.024336 114.048 
L 198.69986 109.44 
L 190.375385 127.872 
L 182.050909 123.264 
L 173.726434 123.264 
L 165.401958 109.44 
L 157.077483 118.656 
L 148.753007 109.44 
L 140.428531 104.832 
L 132.104056 109.44 
L 123.77958 127.872 
L 115.455105 109.44 
L 107.130629 118.656 
L 98.806154 118.656 
L 90.481678 123.264 
L 82.157203 118.656 
L 73.832727 86.4 
z
" clip-path="url(#pe9575bd66b)" style="fill: #8c564b"/>
   </g>
   <g id="PolyCollection_17">
    <path d="M 73.832727 81.792 
L 73.832727 86.4 
L 82.157203 118.656 
L 90.481678 123.264 
L 98.806154 118.656 
L 107.130629 118.656 
L 115.455105 109.44 
L 123.77958 127.872 
L 132.104056 109.44 
L 140.428531 104.832 
L 148.753007 109.44 
L 157.077483 118.656 
L 165.401958 109.44 
L 173.726434 123.264 
L 182.050909 123.264 
L 190.375385 127.872 
L 198.69986 109.44 
L 207.024336 114.048 
L 215.348811 114.048 
L 223.673287 114.048 
L 231.997762 118.656 
L 240.322238 123.264 
L 248.646713 141.696 
L 256.971189 137.088 
L 265.295664 137.088 
L 273.62014 132.48 
L 281.944615 132.48 
L 290.269091 109.44 
L 298.593566 118.656 
L 306.918042 118.656 
L 315.242517 104.832 
L 323.566993 114.048 
L 331.891469 104.832 
L 340.215944 72.576 
L 348.54042 72.576 
L 356.864895 72.576 
L 365.189371 72.576 
L 373.513846 77.184 
L 381.838322 77.184 
L 390.162797 77.184 
L 398.487273 81.792 
L 398.487273 81.792 
L 398.487273 81.792 
L 390.162797 77.184 
L 381.838322 77.184 
L 373.513846 77.184 
L 365.189371 72.576 
L 356.864895 72.576 
L 348.54042 72.576 
L 340.215944 72.576 
L 331.891469 104.832 
L 323.566993 114.048 
L 315.242517 104.832 
L 306.918042 118.656 
L 298.593566 118.656 
L 290.269091 109.44 
L 281.944615 132.48 
L 273.62014 132.48 
L 265.295664 137.088 
L 256.971189 137.088 
L 248.646713 127.872 
L 240.322238 114.048 
L 231.997762 109.44 
L 223.673287 100.224 
L 215.348811 104.832 
L 207.024336 100.224 
L 198.69986 100.224 
L 190.375385 114.048 
L 182.050909 114.048 
L 173.726434 109.44 
L 165.401958 100.224 
L 157.077483 104.832 
L 148.753007 95.616 
L 140.428531 95.616 
L 132.104056 95.616 
L 123.77958 118.656 
L 115.455105 100.224 
L 107.130629 104.832 
L 98.806154 95.616 
L 90.481678 104.832 
L 82.157203 100.224 
L 73.832727 81.792 
z
" clip-path="url(#pe9575bd66b)" style="fill: #e377c2"/>
   </g>
   <g id="PolyCollection_18">
    <path d="M 73.832727 77.184 
L 73.832727 81.792 
L 82.157203 100.224 
L 90.481678 104.832 
L 98.806154 95.616 
L 107.130629 104.832 
L 115.455105 100.224 
L 123.77958 118.656 
L 132.104056 95.616 
L 140.428531 95.616 
L 148.753007 95.616 
L 157.077483 104.832 
L 165.401958 100.224 
L 173.726434 109.44 
L 182.050909 114.048 
L 190.375385 114.048 
L 198.69986 100.224 
L 207.024336 100.224 
L 215.348811 104.832 
L 223.673287 100.224 
L 231.997762 109.44 
L 240.322238 114.048 
L 248.646713 127.872 
L 256.971189 137.088 
L 265.295664 137.088 
L 273.62014 132.48 
L 281.944615 132.48 
L 290.269091 109.44 
L 298.593566 118.656 
L 306.918042 118.656 
L 315.242517 104.832 
L 323.566993 114.048 
L 331.891469 104.832 
L 340.215944 72.576 
L 348.54042 72.576 
L 356.864895 72.576 
L 365.189371 72.576 
L 373.513846 77.184 
L 381.838322 77.184 
L 390.162797 77.184 
L 398.487273 81.792 
L 398.487273 81.792 
L 398.487273 81.792 
L 390.162797 77.184 
L 381.838322 77.184 
L 373.513846 77.184 
L 365.189371 72.576 
L 356.864895 72.576 
L 348.54042 72.576 
L 340.215944 72.576 
L 331.891469 104.832 
L 323.566993 114.048 
L 315.242517 104.832 
L 306.918042 118.656 
L 298.593566 118.656 
L 290.269091 109.44 
L 281.944615 132.48 
L 273.62014 123.264 
L 265.295664 127.872 
L 256.971189 127.872 
L 248.646713 118.656 
L 240.322238 104.832 
L 231.997762 100.224 
L 223.673287 91.008 
L 215.348811 95.616 
L 207.024336 91.008 
L 198.69986 91.008 
L 190.375385 104.832 
L 182.050909 104.832 
L 173.726434 100.224 
L 165.401958 91.008 
L 157.077483 95.616 
L 148.753007 86.4 
L 140.428531 86.4 
L 132.104056 86.4 
L 123.77958 109.44 
L 115.455105 91.008 
L 107.130629 95.616 
L 98.806154 91.008 
L 90.481678 91.008 
L 82.157203 91.008 
L 73.832727 77.184 
z
" clip-path="url(#pe9575bd66b)" style="fill: #7f7f7f"/>
   </g>
   <g id="PolyCollection_19">
    <path d="M 73.832727 77.184 
L 73.832727 77.184 
L 82.157203 91.008 
L 90.481678 91.008 
L 98.806154 91.008 
L 107.130629 95.616 
L 115.455105 91.008 
L 123.77958 109.44 
L 132.104056 86.4 
L 140.428531 86.4 
L 148.753007 86.4 
L 157.077483 95.616 
L 165.401958 91.008 
L 173.726434 100.224 
L 182.050909 104.832 
L 190.375385 104.832 
L 198.69986 91.008 
L 207.024336 91.008 
L 215.348811 95.616 
L 223.673287 91.008 
L 231.997762 100.224 
L 240.322238 104.832 
L 248.646713 118.656 
L 256.971189 127.872 
L 265.295664 127.872 
L 273.62014 123.264 
L 281.944615 132.48 
L 290.269091 109.44 
L 298.593566 118.656 
L 306.918042 118.656 
L 315.242517 104.832 
L 323.566993 114.048 
L 331.891469 104.832 
L 340.215944 72.576 
L 348.54042 72.576 
L 356.864895 72.576 
L 365.189371 72.576 
L 373.513846 77.184 
L 381.838322 77.184 
L 390.162797 77.184 
L 398.487273 81.792 
L 398.487273 81.792 
L 398.487273 81.792 
L 390.162797 77.184 
L 381.838322 77.184 
L 373.513846 77.184 
L 365.189371 72.576 
L 356.864895 72.576 
L 348.54042 72.576 
L 340.215944 72.576 
L 331.891469 104.832 
L 323.566993 114.048 
L 315.242517 104.832 
L 306.918042 118.656 
L 298.593566 118.656 
L 290.269091 109.44 
L 281.944615 104.832 
L 273.62014 100.224 
L 265.295664 109.44 
L 256.971189 104.832 
L 248.646713 100.224 
L 240.322238 91.008 
L 231.997762 86.4 
L 223.673287 77.184 
L 215.348811 77.184 
L 207.024336 77.184 
L 198.69986 72.576 
L 190.375385 91.008 
L 182.050909 91.008 
L 173.726434 86.4 
L 165.401958 77.184 
L 157.077483 77.184 
L 148.753007 67.968 
L 140.428531 72.576 
L 132.104056 67.968 
L 123.77958 91.008 
L 115.455105 72.576 
L 107.130629 81.792 
L 98.806154 77.184 
L 90.481678 72.576 
L 82.157203 77.184 
L 73.832727 77.184 
z
" clip-path="url(#pe9575bd66b)" style="fill: #bcbd22"/>
   </g>
   <g id="PolyCollection_20">
    <path d="M 73.832727 77.184 
L 73.832727 77.184 
L 82.157203 77.184 
L 90.481678 72.576 
L 98.806154 77.184 
L 107.130629 81.792 
L 115.455105 72.576 
L 123.77958 91.008 
L 132.104056 67.968 
L 140.428531 72.576 
L 148.753007 67.968 
L 157.077483 77.184 
L 165.401958 77.184 
L 173.726434 86.4 
L 182.050909 91.008 
L 190.375385 91.008 
L 198.69986 72.576 
L 207.024336 77.184 
L 215.348811 77.184 
L 223.673287 77.184 
L 231.997762 86.4 
L 240.322238 91.008 
L 248.646713 100.224 
L 256.971189 104.832 
L 265.295664 109.44 
L 273.62014 100.224 
L 281.944615 104.832 
L 290.269091 109.44 
L 298.593566 118.656 
L 306.918042 118.656 
L 315.242517 104.832 
L 323.566993 114.048 
L 331.891469 104.832 
L 340.215944 72.576 
L 348.54042 72.576 
L 356.864895 72.576 
L 365.189371 72.576 
L 373.513846 77.184 
L 381.838322 77.184 
L 390.162797 77.184 
L 398.487273 81.792 
L 398.487273 81.792 
L 398.487273 81.792 
L 390.162797 77.184 
L 381.838322 77.184 
L 373.513846 77.184 
L 365.189371 72.576 
L 356.864895 72.576 
L 348.54042 72.576 
L 340.215944 72.576 
L 331.891469 67.968 
L 323.566993 72.576 
L 315.242517 67.968 
L 306.918042 81.792 
L 298.593566 86.4 
L 290.269091 81.792 
L 281.944615 72.576 
L 273.62014 72.576 
L 265.295664 86.4 
L 256.971189 77.184 
L 248.646713 77.184 
L 240.322238 72.576 
L 231.997762 67.968 
L 223.673287 58.752 
L 215.348811 58.752 
L 207.024336 58.752 
L 198.69986 54.144 
L 190.375385 72.576 
L 182.050909 72.576 
L 173.726434 67.968 
L 165.401958 63.36 
L 157.077483 67.968 
L 148.753007 54.144 
L 140.428531 63.36 
L 132.104056 54.144 
L 123.77958 81.792 
L 115.455105 54.144 
L 107.130629 67.968 
L 98.806154 63.36 
L 90.481678 54.144 
L 82.157203 58.752 
L 73.832727 77.184 
z
" clip-path="url(#pe9575bd66b)" style="fill: #17becf"/>
   </g>
   <g id="matplotlib.axis_1">
    <g id="xtick_1">
     <g id="line2d_1">
      <defs>
       <path id="m844a2bd10b" d="M 0 0 
L 0 3.5 
" style="stroke: #000000; stroke-width: 0.8"/>
      </defs>
      <g>
       <use xlink:href="#m844a2bd10b" x="73.832727" y="307.584" style="stroke: #000000; stroke-width: 0.8"/>
      </g>
     </g>
     <g id="text_1">
      <!-- 0 -->
      <g transform="translate(70.651477 322.182437) scale(0.1 -0.1)">
       <defs>
        <path id="DejaVuSans-30" d="M 2034 4250 
Q 1547 4250 1301 3770 
Q 1056 3291 1056 2328 
Q 1056 1369 1301 889 
Q 1547 409 2034 409 
Q 2525 409 2770 889 
Q 3016 1369 3016 2328 
Q 3016 3291 2770 3770 
Q 2525 4250 2034 4250 
z
M 2034 4750 
Q 2819 4750 3233 4129 
Q 3647 3509 3647 2328 
Q 3647 1150 3233 529 
Q 2819 -91 2034 -91 
Q 1250 -91 836 529 
Q 422 1150 422 2328 
Q 422 3509 836 4129 
Q 1250 4750 2034 4750 
z
" transform="scale(0.015625)"/>
       </defs>
       <use xlink:href="#DejaVuSans-30"/>
      </g>
     </g>
    </g>
    <g id="xtick_2">
     <g id="line2d_2">
      <g>
       <use xlink:href="#m844a2bd10b" x="115.455105" y="307.584" style="stroke: #000000; stroke-width: 0.8"/>
      </g>
     </g>
     <g id="text_2">
      <!-- 5 -->
      <g transform="translate(112.273855 322.182437) scale(0.1 -0.1)">
       <defs>
        <path id="DejaVuSans-35" d="M 691 4666 
L 3169 4666 
L 3169 4134 
L 1269 4134 
L 1269 2991 
Q 1406 3038 1543 3061 
Q 1681 3084 1819 3084 
Q 2600 3084 3056 2656 
Q 3513 2228 3513 1497 
Q 3513 744 3044 326 
Q 2575 -91 1722 -91 
Q 1428 -91 1123 -41 
Q 819 9 494 109 
L 494 744 
Q 775 591 1075 516 
Q 1375 441 1709 441 
Q 2250 441 2565 725 
Q 2881 1009 2881 1497 
Q 2881 1984 2565 2268 
Q 2250 2553 1709 2553 
Q 1456 2553 1204 2497 
Q 953 2441 691 2322 
L 691 4666 
z
" transform="scale(0.015625)"/>
       </defs>
       <use xlink:href="#DejaVuSans-35"/>
      </g>
     </g>
    </g>
    <g id="xtick_3">
     <g id="line2d_3">
      <g>
       <use xlink:href="#m844a2bd10b" x="157.077483" y="307.584" style="stroke: #000000; stroke-width: 0.8"/>
      </g>
     </g>
     <g id="text_3">
      <!-- 10 -->
      <g transform="translate(150.714983 322.182437) scale(0.1 -0.1)">
       <defs>
        <path id="DejaVuSans-31" d="M 794 531 
L 1825 531 
L 1825 4091 
L 703 3866 
L 703 4441 
L 1819 4666 
L 2450 4666 
L 2450 531 
L 3481 531 
L 3481 0 
L 794 0 
L 794 531 
z
" transform="scale(0.015625)"/>
       </defs>
       <use xlink:href="#DejaVuSans-31"/>
       <use xlink:href="#DejaVuSans-30" x="63.623047"/>
      </g>
     </g>
    </g>
    <g id="xtick_4">
     <g id="line2d_4">
      <g>
       <use xlink:href="#m844a2bd10b" x="198.69986" y="307.584" style="stroke: #000000; stroke-width: 0.8"/>
      </g>
     </g>
     <g id="text_4">
      <!-- 15 -->
      <g transform="translate(192.33736 322.182437) scale(0.1 -0.1)">
       <use xlink:href="#DejaVuSans-31"/>
       <use xlink:href="#DejaVuSans-35" x="63.623047"/>
      </g>
     </g>
    </g>
    <g id="xtick_5">
     <g id="line2d_5">
      <g>
       <use xlink:href="#m844a2bd10b" x="240.322238" y="307.584" style="stroke: #000000; stroke-width: 0.8"/>
      </g>
     </g>
     <g id="text_5">
      <!-- 20 -->
      <g transform="translate(233.959738 322.182437) scale(0.1 -0.1)">
       <defs>
        <path id="DejaVuSans-32" d="M 1228 531 
L 3431 531 
L 3431 0 
L 469 0 
L 469 531 
Q 828 903 1448 1529 
Q 2069 2156 2228 2338 
Q 2531 2678 2651 2914 
Q 2772 3150 2772 3378 
Q 2772 3750 2511 3984 
Q 2250 4219 1831 4219 
Q 1534 4219 1204 4116 
Q 875 4013 500 3803 
L 500 4441 
Q 881 4594 1212 4672 
Q 1544 4750 1819 4750 
Q 2544 4750 2975 4387 
Q 3406 4025 3406 3419 
Q 3406 3131 3298 2873 
Q 3191 2616 2906 2266 
Q 2828 2175 2409 1742 
Q 1991 1309 1228 531 
z
" transform="scale(0.015625)"/>
       </defs>
       <use xlink:href="#DejaVuSans-32"/>
       <use xlink:href="#DejaVuSans-30" x="63.623047"/>
      </g>
     </g>
    </g>
    <g id="xtick_6">
     <g id="line2d_6">
      <g>
       <use xlink:href="#m844a2bd10b" x="281.944615" y="307.584" style="stroke: #000000; stroke-width: 0.8"/>
      </g>
     </g>
     <g id="text_6">
      <!-- 25 -->
      <g transform="translate(275.582115 322.182437) scale(0.1 -0.1)">
       <use xlink:href="#DejaVuSans-32"/>
       <use xlink:href="#DejaVuSans-35" x="63.623047"/>
      </g>
     </g>
    </g>
    <g id="xtick_7">
     <g id="line2d_7">
      <g>
       <use xlink:href="#m844a2bd10b" x="323.566993" y="307.584" style="stroke: #000000; stroke-width: 0.8"/>
      </g>
     </g>
     <g id="text_7">
      <!-- 30 -->
      <g transform="translate(317.204493 322.182437) scale(0.1 -0.1)">
       <defs>
        <path id="DejaVuSans-33" d="M 2597 2516 
Q 3050 2419 3304 2112 
Q 3559 1806 3559 1356 
Q 3559 666 3084 287 
Q 2609 -91 1734 -91 
Q 1441 -91 1130 -33 
Q 819 25 488 141 
L 488 750 
Q 750 597 1062 519 
Q 1375 441 1716 441 
Q 2309 441 2620 675 
Q 2931 909 2931 1356 
Q 2931 1769 2642 2001 
Q 2353 2234 1838 2234 
L 1294 2234 
L 1294 2753 
L 1863 2753 
Q 2328 2753 2575 2939 
Q 2822 3125 2822 3475 
Q 2822 3834 2567 4026 
Q 2313 4219 1838 4219 
Q 1578 4219 1281 4162 
Q 984 4106 628 3988 
L 628 4550 
Q 988 4650 1302 4700 
Q 1616 4750 1894 4750 
Q 2613 4750 3031 4423 
Q 3450 4097 3450 3541 
Q 3450 3153 3228 2886 
Q 3006 2619 2597 2516 
z
" transform="scale(0.015625)"/>
       </defs>
       <use xlink:href="#DejaVuSans-33"/>
       <use xlink:href="#DejaVuSans-30" x="63.623047"/>
      </g>
     </g>
    </g>
    <g id="xtick_8">
     <g id="line2d_8">
      <g>
       <use xlink:href="#m844a2bd10b" x="365.189371" y="307.584" style="stroke: #000000; stroke-width: 0.8"/>
      </g>
     </g>
     <g id="text_8">
      <!-- 35 -->
      <g transform="translate(358.826871 322.182437) scale(0.1 -0.1)">
       <use xlink:href="#DejaVuSans-33"/>
       <use xlink:href="#DejaVuSans-35" x="63.623047"/>
      </g>
     </g>
    </g>
    <g id="xtick_9">
     <g id="line2d_9">
      <g>
       <use xlink:href="#m844a2bd10b" x="406.811748" y="307.584" style="stroke: #000000; stroke-width: 0.8"/>
      </g>
     </g>
     <g id="text_9">
      <!-- 40 -->
      <g transform="translate(400.449248 322.182437) scale(0.1 -0.1)">
       <defs>
        <path id="DejaVuSans-34" d="M 2419 4116 
L 825 1625 
L 2419 1625 
L 2419 4116 
z
M 2253 4666 
L 3047 4666 
L 3047 1625 
L 3713 1625 
L 3713 1100 
L 3047 1100 
L 3047 0 
L 2419 0 
L 2419 1100 
L 313 1100 
L 313 1709 
L 2253 4666 
z
" transform="scale(0.015625)"/>
       </defs>
       <use xlink:href="#DejaVuSans-34"/>
       <use xlink:href="#DejaVuSans-30" x="63.623047"/>
      </g>
     </g>
    </g>
    <g id="text_10">
     <!-- Generations -->
     <g transform="translate(205.662344 335.860562) scale(0.1 -0.1)">
      <defs>
       <path id="DejaVuSans-47" d="M 3809 666 
L 3809 1919 
L 2778 1919 
L 2778 2438 
L 4434 2438 
L 4434 434 
Q 4069 175 3628 42 
Q 3188 -91 2688 -91 
Q 1594 -91 976 548 
Q 359 1188 359 2328 
Q 359 3472 976 4111 
Q 1594 4750 2688 4750 
Q 3144 4750 3555 4637 
Q 3966 4525 4313 4306 
L 4313 3634 
Q 3963 3931 3569 4081 
Q 3175 4231 2741 4231 
Q 1884 4231 1454 3753 
Q 1025 3275 1025 2328 
Q 1025 1384 1454 906 
Q 1884 428 2741 428 
Q 3075 428 3337 486 
Q 3600 544 3809 666 
z
" transform="scale(0.015625)"/>
       <path id="DejaVuSans-65" d="M 3597 1894 
L 3597 1613 
L 953 1613 
Q 991 1019 1311 708 
Q 1631 397 2203 397 
Q 2534 397 2845 478 
Q 3156 559 3463 722 
L 3463 178 
Q 3153 47 2828 -22 
Q 2503 -91 2169 -91 
Q 1331 -91 842 396 
Q 353 884 353 1716 
Q 353 2575 817 3079 
Q 1281 3584 2069 3584 
Q 2775 3584 3186 3129 
Q 3597 2675 3597 1894 
z
M 3022 2063 
Q 3016 2534 2758 2815 
Q 2500 3097 2075 3097 
Q 1594 3097 1305 2825 
Q 1016 2553 972 2059 
L 3022 2063 
z
" transform="scale(0.015625)"/>
       <path id="DejaVuSans-6e" d="M 3513 2113 
L 3513 0 
L 2938 0 
L 2938 2094 
Q 2938 2591 2744 2837 
Q 2550 3084 2163 3084 
Q 1697 3084 1428 2787 
Q 1159 2491 1159 1978 
L 1159 0 
L 581 0 
L 581 3500 
L 1159 3500 
L 1159 2956 
Q 1366 3272 1645 3428 
Q 1925 3584 2291 3584 
Q 2894 3584 3203 3211 
Q 3513 2838 3513 2113 
z
" transform="scale(0.015625)"/>
       <path id="DejaVuSans-72" d="M 2631 2963 
Q 2534 3019 2420 3045 
Q 2306 3072 2169 3072 
Q 1681 3072 1420 2755 
Q 1159 2438 1159 1844 
L 1159 0 
L 581 0 
L 581 3500 
L 1159 3500 
L 1159 2956 
Q 1341 3275 1631 3429 
Q 1922 3584 2338 3584 
Q 2397 3584 2469 3576 
Q 2541 3569 2628 3553 
L 2631 2963 
z
" transform="scale(0.015625)"/>
       <path id="DejaVuSans-61" d="M 2194 1759 
Q 1497 1759 1228 1600 
Q 959 1441 959 1056 
Q 959 750 1161 570 
Q 1363 391 1709 391 
Q 2188 391 2477 730 
Q 2766 1069 2766 1631 
L 2766 1759 
L 2194 1759 
z
M 3341 1997 
L 3341 0 
L 2766 0 
L 2766 531 
Q 2569 213 2275 61 
Q 1981 -91 1556 -91 
Q 1019 -91 701 211 
Q 384 513 384 1019 
Q 384 1609 779 1909 
Q 1175 2209 1959 2209 
L 2766 2209 
L 2766 2266 
Q 2766 2663 2505 2880 
Q 2244 3097 1772 3097 
Q 1472 3097 1187 3025 
Q 903 2953 641 2809 
L 641 3341 
Q 956 3463 1253 3523 
Q 1550 3584 1831 3584 
Q 2591 3584 2966 3190 
Q 3341 2797 3341 1997 
z
" transform="scale(0.015625)"/>
       <path id="DejaVuSans-74" d="M 1172 4494 
L 1172 3500 
L 2356 3500 
L 2356 3053 
L 1172 3053 
L 1172 1153 
Q 1172 725 1289 603 
Q 1406 481 1766 481 
L 2356 481 
L 2356 0 
L 1766 0 
Q 1100 0 847 248 
Q 594 497 594 1153 
L 594 3053 
L 172 3053 
L 172 3500 
L 594 3500 
L 594 4494 
L 1172 4494 
z
" transform="scale(0.015625)"/>
       <path id="DejaVuSans-69" d="M 603 3500 
L 1178 3500 
L 1178 0 
L 603 0 
L 603 3500 
z
M 603 4863 
L 1178 4863 
L 1178 4134 
L 603 4134 
L 603 4863 
z
" transform="scale(0.015625)"/>
       <path id="DejaVuSans-6f" d="M 1959 3097 
Q 1497 3097 1228 2736 
Q 959 2375 959 1747 
Q 959 1119 1226 758 
Q 1494 397 1959 397 
Q 2419 397 2687 759 
Q 2956 1122 2956 1747 
Q 2956 2369 2687 2733 
Q 2419 3097 1959 3097 
z
M 1959 3584 
Q 2709 3584 3137 3096 
Q 3566 2609 3566 1747 
Q 3566 888 3137 398 
Q 2709 -91 1959 -91 
Q 1206 -91 779 398 
Q 353 888 353 1747 
Q 353 2609 779 3096 
Q 1206 3584 1959 3584 
z
" transform="scale(0.015625)"/>
       <path id="DejaVuSans-73" d="M 2834 3397 
L 2834 2853 
Q 2591 2978 2328 3040 
Q 2066 3103 1784 3103 
Q 1356 3103 1142 2972 
Q 928 2841 928 2578 
Q 928 2378 1081 2264 
Q 1234 2150 1697 2047 
L 1894 2003 
Q 2506 1872 2764 1633 
Q 3022 1394 3022 966 
Q 3022 478 2636 193 
Q 2250 -91 1575 -91 
Q 1294 -91 989 -36 
Q 684 19 347 128 
L 347 722 
Q 666 556 975 473 
Q 1284 391 1588 391 
Q 1994 391 2212 530 
Q 2431 669 2431 922 
Q 2431 1156 2273 1281 
Q 2116 1406 1581 1522 
L 1381 1569 
Q 847 1681 609 1914 
Q 372 2147 372 2553 
Q 372 3047 722 3315 
Q 1072 3584 1716 3584 
Q 2034 3584 2315 3537 
Q 2597 3491 2834 3397 
z
" transform="scale(0.015625)"/>
      </defs>
      <use xlink:href="#DejaVuSans-47"/>
      <use xlink:href="#DejaVuSans-65" x="77.490234"/>
      <use xlink:href="#DejaVuSans-6e" x="139.013672"/>
      <use xlink:href="#DejaVuSans-65" x="202.392578"/>
      <use xlink:href="#DejaVuSans-72" x="263.916016"/>
      <use xlink:href="#DejaVuSans-61" x="305.029297"/>
      <use xlink:href="#DejaVuSans-74" x="366.308594"/>
      <use xlink:href="#DejaVuSans-69" x="405.517578"/>
      <use xlink:href="#DejaVuSans-6f" x="433.300781"/>
      <use xlink:href="#DejaVuSans-6e" x="494.482422"/>
      <use xlink:href="#DejaVuSans-73" x="557.861328"/>
     </g>
    </g>
   </g>
   <g id="matplotlib.axis_2">
    <g id="ytick_1">
     <g id="line2d_10">
      <defs>
       <path id="m817ca11609" d="M 0 0 
L -3.5 0 
" style="stroke: #000000; stroke-width: 0.8"/>
      </defs>
      <g>
       <use xlink:href="#m817ca11609" x="57.6" y="307.584" style="stroke: #000000; stroke-width: 0.8"/>
      </g>
     </g>
     <g id="text_11">
      <!-- 0 -->
      <g transform="translate(44.2375 311.383219) scale(0.1 -0.1)">
       <use xlink:href="#DejaVuSans-30"/>
      </g>
     </g>
    </g>
    <g id="ytick_2">
     <g id="line2d_11">
      <g>
       <use xlink:href="#m817ca11609" x="57.6" y="261.504" style="stroke: #000000; stroke-width: 0.8"/>
      </g>
     </g>
     <g id="text_12">
      <!-- 10 -->
      <g transform="translate(37.875 265.303219) scale(0.1 -0.1)">
       <use xlink:href="#DejaVuSans-31"/>
       <use xlink:href="#DejaVuSans-30" x="63.623047"/>
      </g>
     </g>
    </g>
    <g id="ytick_3">
     <g id="line2d_12">
      <g>
       <use xlink:href="#m817ca11609" x="57.6" y="215.424" style="stroke: #000000; stroke-width: 0.8"/>
      </g>
     </g>
     <g id="text_13">
      <!-- 20 -->
      <g transform="translate(37.875 219.223219) scale(0.1 -0.1)">
       <use xlink:href="#DejaVuSans-32"/>
       <use xlink:href="#DejaVuSans-30" x="63.623047"/>
      </g>
     </g>
    </g>
    <g id="ytick_4">
     <g id="line2d_13">
      <g>
       <use xlink:href="#m817ca11609" x="57.6" y="169.344" style="stroke: #000000; stroke-width: 0.8"/>
      </g>
     </g>
     <g id="text_14">
      <!-- 30 -->
      <g transform="translate(37.875 173.143219) scale(0.1 -0.1)">
       <use xlink:href="#DejaVuSans-33"/>
       <use xlink:href="#DejaVuSans-30" x="63.623047"/>
      </g>
     </g>
    </g>
    <g id="ytick_5">
     <g id="line2d_14">
      <g>
       <use xlink:href="#m817ca11609" x="57.6" y="123.264" style="stroke: #000000; stroke-width: 0.8"/>
      </g>
     </g>
     <g id="text_15">
      <!-- 40 -->
      <g transform="translate(37.875 127.063219) scale(0.1 -0.1)">
       <use xlink:href="#DejaVuSans-34"/>
       <use xlink:href="#DejaVuSans-30" x="63.623047"/>
      </g>
     </g>
    </g>
    <g id="ytick_6">
     <g id="line2d_15">
      <g>
       <use xlink:href="#m817ca11609" x="57.6" y="77.184" style="stroke: #000000; stroke-width: 0.8"/>
      </g>
     </g>
     <g id="text_16">
      <!-- 50 -->
      <g transform="translate(37.875 80.983219) scale(0.1 -0.1)">
       <use xlink:href="#DejaVuSans-35"/>
       <use xlink:href="#DejaVuSans-30" x="63.623047"/>
      </g>
     </g>
    </g>
    <g id="text_17">
     <!-- Size per Species -->
     <g transform="translate(31.795312 215.520969) rotate(-90) scale(0.1 -0.1)">
      <defs>
       <path id="DejaVuSans-53" d="M 3425 4513 
L 3425 3897 
Q 3066 4069 2747 4153 
Q 2428 4238 2131 4238 
Q 1616 4238 1336 4038 
Q 1056 3838 1056 3469 
Q 1056 3159 1242 3001 
Q 1428 2844 1947 2747 
L 2328 2669 
Q 3034 2534 3370 2195 
Q 3706 1856 3706 1288 
Q 3706 609 3251 259 
Q 2797 -91 1919 -91 
Q 1588 -91 1214 -16 
Q 841 59 441 206 
L 441 856 
Q 825 641 1194 531 
Q 1563 422 1919 422 
Q 2459 422 2753 634 
Q 3047 847 3047 1241 
Q 3047 1584 2836 1778 
Q 2625 1972 2144 2069 
L 1759 2144 
Q 1053 2284 737 2584 
Q 422 2884 422 3419 
Q 422 4038 858 4394 
Q 1294 4750 2059 4750 
Q 2388 4750 2728 4690 
Q 3069 4631 3425 4513 
z
" transform="scale(0.015625)"/>
       <path id="DejaVuSans-7a" d="M 353 3500 
L 3084 3500 
L 3084 2975 
L 922 459 
L 3084 459 
L 3084 0 
L 275 0 
L 275 525 
L 2438 3041 
L 353 3041 
L 353 3500 
z
" transform="scale(0.015625)"/>
       <path id="DejaVuSans-20" transform="scale(0.015625)"/>
       <path id="DejaVuSans-70" d="M 1159 525 
L 1159 -1331 
L 581 -1331 
L 581 3500 
L 1159 3500 
L 1159 2969 
Q 1341 3281 1617 3432 
Q 1894 3584 2278 3584 
Q 2916 3584 3314 3078 
Q 3713 2572 3713 1747 
Q 3713 922 3314 415 
Q 2916 -91 2278 -91 
Q 1894 -91 1617 61 
Q 1341 213 1159 525 
z
M 3116 1747 
Q 3116 2381 2855 2742 
Q 2594 3103 2138 3103 
Q 1681 3103 1420 2742 
Q 1159 2381 1159 1747 
Q 1159 1113 1420 752 
Q 1681 391 2138 391 
Q 2594 391 2855 752 
Q 3116 1113 3116 1747 
z
" transform="scale(0.015625)"/>
       <path id="DejaVuSans-63" d="M 3122 3366 
L 3122 2828 
Q 2878 2963 2633 3030 
Q 2388 3097 2138 3097 
Q 1578 3097 1268 2742 
Q 959 2388 959 1747 
Q 959 1106 1268 751 
Q 1578 397 2138 397 
Q 2388 397 2633 464 
Q 2878 531 3122 666 
L 3122 134 
Q 2881 22 2623 -34 
Q 2366 -91 2075 -91 
Q 1284 -91 818 406 
Q 353 903 353 1747 
Q 353 2603 823 3093 
Q 1294 3584 2113 3584 
Q 2378 3584 2631 3529 
Q 2884 3475 3122 3366 
z
" transform="scale(0.015625)"/>
      </defs>
      <use xlink:href="#DejaVuSans-53"/>
      <use xlink:href="#DejaVuSans-69" x="63.476562"/>
      <use xlink:href="#DejaVuSans-7a" x="91.259766"/>
      <use xlink:href="#DejaVuSans-65" x="143.75"/>
      <use xlink:href="#DejaVuSans-20" x="205.273438"/>
      <use xlink:href="#DejaVuSans-70" x="237.060547"/>
      <use xlink:href="#DejaVuSans-65" x="300.537109"/>
      <use xlink:href="#DejaVuSans-72" x="362.060547"/>
      <use xlink:href="#DejaVuSans-20" x="403.173828"/>
      <use xlink:href="#DejaVuSans-53" x="434.960938"/>
      <use xlink:href="#DejaVuSans-70" x="498.4375"/>
      <use xlink:href="#DejaVuSans-65" x="561.914062"/>
      <use xlink:href="#DejaVuSans-63" x="623.4375"/>
      <use xlink:href="#DejaVuSans-69" x="678.417969"/>
      <use xlink:href="#DejaVuSans-65" x="706.201172"/>
      <use xlink:href="#DejaVuSans-73" x="767.724609"/>
     </g>
    </g>
   </g>
   <g id="patch_3">
    <path d="M 57.6 307.584 
L 57.6 41.472 
" style="fill: none; stroke: #000000; stroke-width: 0.8; stroke-linejoin: miter; stroke-linecap: square"/>
   </g>
   <g id="patch_4">
    <path d="M 414.72 307.584 
L 414.72 41.472 
" style="fill: none; stroke: #000000; stroke-width: 0.8; stroke-linejoin: miter; stroke-linecap: square"/>
   </g>
   <g id="patch_5">
    <path d="M 57.6 307.584 
L 414.72 307.584 
" style="fill: none; stroke: #000000; stroke-width: 0.8; stroke-linejoin: miter; stroke-linecap: square"/>
   </g>
   <g id="patch_6">
    <path d="M 57.6 41.472 
L 414.72 41.472 
" style="fill: none; stroke: #000000; stroke-width: 0.8; stroke-linejoin: miter; stroke-linecap: square"/>
   </g>
   <g id="text_18">
    <!-- Speciation -->
    <g transform="translate(204.714375 35.472) scale(0.12 -0.12)">
     <use xlink:href="#DejaVuSans-53"/>
     <use xlink:href="#DejaVuSans-70" x="63.476562"/>
     <use xlink:href="#DejaVuSans-65" x="126.953125"/>
     <use xlink:href="#DejaVuSans-63" x="188.476562"/>
     <use xlink:href="#DejaVuSans-69" x="243.457031"/>
     <use xlink:href="#DejaVuSans-61" x="271.240234"/>
     <use xlink:href="#DejaVuSans-74" x="332.519531"/>
     <use xlink:href="#DejaVuSans-69" x="371.728516"/>
     <use xlink:href="#DejaVuSans-6f" x="399.511719"/>
     <use xlink:href="#DejaVuSans-6e" x="460.693359"/>
    </g>
   </g>
  </g>
 </g>
 <defs>
  <clipPath id="pe9575bd66b">
   <rect x="57.6" y="41.472" width="357.12" height="266.112"/>
  </clipPath>
 </defs>
</svg>
