<?xml version="1.0" encoding="UTF-8" standalone="no"?>
<!DOCTYPE svg PUBLIC "-//W3C//DTD SVG 1.1//EN"
 "http://www.w3.org/Graphics/SVG/1.1/DTD/svg11.dtd">
<!-- Generated by graphviz version 2.44.0 (0)
 -->
<!-- Pages: 1 -->
<svg width="1902pt" height="172pt"
 viewBox="0.00 0.00 1901.71 171.54" xmlns="http://www.w3.org/2000/svg" xmlns:xlink="http://www.w3.org/1999/xlink">
<g id="graph0" class="graph" transform="scale(1 1) rotate(0) translate(4 167.54)">
<polygon fill="white" stroke="transparent" points="-4,4 -4,-167.54 1897.71,-167.54 1897.71,4 -4,4"/>
<!-- &#45;1 -->
<g id="node1" class="node">
<title>&#45;1</title>
<polygon fill="lightgray" stroke="black" points="852.33,-163.54 826.33,-163.54 826.33,-145.54 852.33,-145.54 852.33,-163.54"/>
<text text-anchor="middle" x="839.33" y="-152.34" font-family="Times-Roman" font-size="9.00">&#45;1</text>
</g>
<!-- 0 -->
<g id="node7" class="node">
<title>0</title>
<ellipse fill="lightblue" stroke="black" cx="655.33" cy="-16.26" rx="16.03" ry="16.03"/>
<text text-anchor="middle" x="655.33" y="-14.06" font-family="Times-Roman" font-size="9.00">0</text>
</g>
<!-- &#45;1&#45;&gt;0 -->
<g id="edge121" class="edge">
<title>&#45;1&#45;&gt;0</title>
<path fill="none" stroke="green" stroke-width="0.1" d="M826.02,-147.98C823.2,-147 820.2,-146.12 817.33,-145.54 737.51,-129.44 141.48,-168.52 85.33,-109.54 72.77,-96.34 73.04,-81.98 85.33,-68.53 122.4,-27.98 520.88,-19.23 628.61,-17.6"/>
<polygon fill="green" stroke="green" stroke-width="0.1" points="628.98,-21.1 638.93,-17.45 628.88,-14.1 628.98,-21.1"/>
</g>
<!-- 1 -->
<g id="node8" class="node">
<title>1</title>
<ellipse fill="lightblue" stroke="black" cx="1138.33" cy="-16.26" rx="16.03" ry="16.03"/>
<text text-anchor="middle" x="1138.33" y="-14.06" font-family="Times-Roman" font-size="9.00">1</text>
</g>
<!-- &#45;1&#45;&gt;1 -->
<g id="edge122" class="edge">
<title>&#45;1&#45;&gt;1</title>
<path fill="none" stroke="green" stroke-width="0.35" d="M852.66,-148.05C855.49,-147.07 858.48,-146.16 861.33,-145.54 909.04,-135.1 1266.25,-145.45 1299.33,-109.54 1311.68,-96.13 1310.09,-83.24 1299.33,-68.53 1268.29,-26.07 1201.76,-17.94 1164.67,-16.88"/>
<polygon fill="green" stroke="green" stroke-width="0.35" points="1164.66,-13.38 1154.61,-16.74 1164.57,-20.38 1164.66,-13.38"/>
</g>
<!-- 2 -->
<g id="node9" class="node">
<title>2</title>
<ellipse fill="lightblue" stroke="black" cx="890.33" cy="-16.26" rx="16.03" ry="16.03"/>
<text text-anchor="middle" x="890.33" y="-14.06" font-family="Times-Roman" font-size="9.00">2</text>
</g>
<!-- &#45;1&#45;&gt;2 -->
<g id="edge123" class="edge">
<title>&#45;1&#45;&gt;2</title>
<path fill="none" stroke="green" stroke-width="0.3" d="M852.53,-148.76C881.31,-138.27 947.42,-113.83 950.33,-109.54 960.58,-94.46 957.96,-85.08 950.33,-68.53 942.74,-52.05 926.94,-38.9 913.47,-30.05"/>
<polygon fill="green" stroke="green" stroke-width="0.3" points="914.99,-26.87 904.64,-24.61 911.32,-32.83 914.99,-26.87"/>
</g>
<!-- 3 -->
<g id="node10" class="node">
<title>3</title>
<ellipse fill="lightblue" stroke="black" cx="806.33" cy="-16.26" rx="16.03" ry="16.03"/>
<text text-anchor="middle" x="806.33" y="-14.06" font-family="Times-Roman" font-size="9.00">3</text>
</g>
<!-- &#45;1&#45;&gt;3 -->
<g id="edge124" class="edge">
<title>&#45;1&#45;&gt;3</title>
<path fill="none" stroke="red" stroke-width="0.25" d="M825.98,-148.15C823.16,-147.16 820.18,-146.23 817.33,-145.54 756.16,-130.69 577.93,-156.8 536.33,-109.54 524.29,-95.86 524.46,-82.35 536.33,-68.53 570.9,-28.28 721.45,-47.53 772.33,-32.53 775.79,-31.51 779.35,-30.21 782.81,-28.8"/>
<polygon fill="red" stroke="red" stroke-width="0.25" points="784.38,-31.94 792.1,-24.69 781.54,-25.54 784.38,-31.94"/>
</g>
<!-- 4 -->
<g id="node11" class="node">
<title>4</title>
<ellipse fill="lightblue" stroke="black" cx="747.33" cy="-16.26" rx="16.03" ry="16.03"/>
<text text-anchor="middle" x="747.33" y="-14.06" font-family="Times-Roman" font-size="9.00">4</text>
</g>
<!-- &#45;1&#45;&gt;4 -->
<g id="edge125" class="edge">
<title>&#45;1&#45;&gt;4</title>
<path fill="none" stroke="green" stroke-width="0.57" d="M826.02,-148.01C823.19,-147.03 820.2,-146.14 817.33,-145.54 754.12,-132.37 281.55,-156.59 237.33,-109.54 224.85,-96.26 224.98,-81.93 237.33,-68.53 270.81,-32.22 631.52,-40.03 680.33,-32.53 694.24,-30.39 709.56,-26.98 722.04,-23.93"/>
<polygon fill="green" stroke="green" stroke-width="0.57" points="722.91,-27.31 731.75,-21.48 721.2,-20.53 722.91,-27.31"/>
</g>
<!-- 5 -->
<g id="node12" class="node">
<title>5</title>
<ellipse fill="lightblue" stroke="black" cx="1059.33" cy="-16.26" rx="16.03" ry="16.03"/>
<text text-anchor="middle" x="1059.33" y="-14.06" font-family="Times-Roman" font-size="9.00">5</text>
</g>
<!-- &#45;1&#45;&gt;5 -->
<g id="edge126" class="edge">
<title>&#45;1&#45;&gt;5</title>
<path fill="none" stroke="red" stroke-width="0.38" d="M852.66,-148.06C855.49,-147.08 858.48,-146.17 861.33,-145.54 907.07,-135.45 1249.66,-144.04 1281.33,-109.54 1293.66,-96.11 1292.79,-82.7 1281.33,-68.53 1233.33,-9.14 1187.45,-50.92 1113.33,-32.53 1103.96,-30.2 1093.74,-27.38 1084.74,-24.81"/>
<polygon fill="red" stroke="red" stroke-width="0.38" points="1085.44,-21.37 1074.86,-21.94 1083.49,-28.09 1085.44,-21.37"/>
</g>
<!-- 46 -->
<g id="node13" class="node">
<title>46</title>
<ellipse fill="white" stroke="black" cx="1251.33" cy="-89.03" rx="20.51" ry="20.51"/>
<text text-anchor="middle" x="1251.33" y="-86.83" font-family="Times-Roman" font-size="9.00">46</text>
</g>
<!-- &#45;1&#45;&gt;46 -->
<g id="edge1" class="edge">
<title>&#45;1&#45;&gt;46</title>
<path fill="none" stroke="red" stroke-width="0.93" d="M852.67,-148.09C855.49,-147.11 858.48,-146.19 861.33,-145.54 1015.93,-110.17 1065.06,-157.12 1216.33,-109.54 1219.36,-108.59 1222.41,-107.36 1225.39,-105.98"/>
<polygon fill="red" stroke="red" stroke-width="0.93" points="1227.27,-108.95 1234.52,-101.22 1224.03,-102.74 1227.27,-108.95"/>
</g>
<!-- 47 -->
<g id="node14" class="node">
<title>47</title>
<ellipse fill="white" stroke="black" cx="625.33" cy="-89.03" rx="20.51" ry="20.51"/>
<text text-anchor="middle" x="625.33" y="-86.83" font-family="Times-Roman" font-size="9.00">47</text>
</g>
<!-- &#45;1&#45;&gt;47 -->
<g id="edge2" class="edge">
<title>&#45;1&#45;&gt;47</title>
<path fill="none" stroke="red" stroke-width="0.1" d="M825.93,-148.35C823.11,-147.35 820.14,-146.36 817.33,-145.54 746.1,-124.82 722.53,-138.75 654.33,-109.54 652.94,-108.94 651.54,-108.28 650.15,-107.56"/>
<polygon fill="red" stroke="red" stroke-width="0.1" points="651.67,-104.39 641.28,-102.3 648.1,-110.41 651.67,-104.39"/>
</g>
<!-- 48 -->
<g id="node15" class="node">
<title>48</title>
<ellipse fill="white" stroke="black" cx="684.33" cy="-89.03" rx="20.51" ry="20.51"/>
<text text-anchor="middle" x="684.33" y="-86.83" font-family="Times-Roman" font-size="9.00">48</text>
</g>
<!-- &#45;1&#45;&gt;48 -->
<g id="edge3" class="edge">
<title>&#45;1&#45;&gt;48</title>
<path fill="none" stroke="green" stroke-width="0.22" d="M826.32,-148.77C823.37,-147.7 820.25,-146.57 817.33,-145.54 771.24,-129.18 757.11,-131.37 713.33,-109.54 711.98,-108.86 710.61,-108.13 709.24,-107.36"/>
<polygon fill="green" stroke="green" stroke-width="0.22" points="710.8,-104.21 700.45,-101.94 707.13,-110.17 710.8,-104.21"/>
</g>
<!-- 49 -->
<g id="node16" class="node">
<title>49</title>
<ellipse fill="white" stroke="black" cx="743.33" cy="-89.03" rx="20.51" ry="20.51"/>
<text text-anchor="middle" x="743.33" y="-86.83" font-family="Times-Roman" font-size="9.00">49</text>
</g>
<!-- &#45;1&#45;&gt;49 -->
<g id="edge4" class="edge">
<title>&#45;1&#45;&gt;49</title>
<path fill="none" stroke="green" stroke-width="0.59" d="M826.96,-145.47C813.49,-136.68 791.34,-122.17 772.33,-109.54 771.07,-108.7 769.78,-107.84 768.47,-106.97"/>
<polygon fill="green" stroke="green" stroke-width="0.59" points="770.13,-103.86 759.88,-101.21 766.23,-109.68 770.13,-103.86"/>
</g>
<!-- 50 -->
<g id="node17" class="node">
<title>50</title>
<ellipse fill="white" stroke="black" cx="802.33" cy="-89.03" rx="20.51" ry="20.51"/>
<text text-anchor="middle" x="802.33" y="-86.83" font-family="Times-Roman" font-size="9.00">50</text>
</g>
<!-- &#45;1&#45;&gt;50 -->
<g id="edge5" class="edge">
<title>&#45;1&#45;&gt;50</title>
<path fill="none" stroke="red" stroke-width="1.02" d="M834.65,-145.5C830.32,-138.06 823.64,-126.6 817.47,-116.02"/>
<polygon fill="red" stroke="red" stroke-width="1.02" points="820.32,-113.95 812.26,-107.07 814.27,-117.47 820.32,-113.95"/>
</g>
<!-- 51 -->
<g id="node18" class="node">
<title>51</title>
<ellipse fill="white" stroke="black" cx="861.33" cy="-89.03" rx="20.51" ry="20.51"/>
<text text-anchor="middle" x="861.33" y="-86.83" font-family="Times-Roman" font-size="9.00">51</text>
</g>
<!-- &#45;1&#45;&gt;51 -->
<g id="edge6" class="edge">
<title>&#45;1&#45;&gt;51</title>
<path fill="none" stroke="red" stroke-width="0.11" d="M842.12,-145.5C844.51,-138.59 848.11,-128.2 851.55,-118.27"/>
<polygon fill="red" stroke="red" stroke-width="0.11" points="854.92,-119.24 854.89,-108.65 848.3,-116.95 854.92,-119.24"/>
</g>
<!-- 52 -->
<g id="node19" class="node">
<title>52</title>
<ellipse fill="white" stroke="black" cx="920.33" cy="-89.03" rx="20.51" ry="20.51"/>
<text text-anchor="middle" x="920.33" y="-86.83" font-family="Times-Roman" font-size="9.00">52</text>
</g>
<!-- &#45;1&#45;&gt;52 -->
<g id="edge7" class="edge">
<title>&#45;1&#45;&gt;52</title>
<path fill="none" stroke="red" stroke-width="0.39" d="M849.59,-145.5C861.3,-136.32 880.85,-120.99 896.43,-108.77"/>
<polygon fill="red" stroke="red" stroke-width="0.39" points="898.89,-111.29 904.6,-102.37 894.58,-105.78 898.89,-111.29"/>
</g>
<!-- 53 -->
<g id="node20" class="node">
<title>53</title>
<ellipse fill="white" stroke="black" cx="566.33" cy="-89.03" rx="20.51" ry="20.51"/>
<text text-anchor="middle" x="566.33" y="-86.83" font-family="Times-Roman" font-size="9.00">53</text>
</g>
<!-- &#45;1&#45;&gt;53 -->
<g id="edge8" class="edge">
<title>&#45;1&#45;&gt;53</title>
<path fill="none" stroke="green" stroke-width="0.34" d="M825.97,-148.22C823.15,-147.23 820.17,-146.28 817.33,-145.54 720.61,-120.35 688.29,-146.28 595.33,-109.54 593.92,-108.98 592.51,-108.35 591.11,-107.66"/>
<polygon fill="green" stroke="green" stroke-width="0.34" points="592.61,-104.48 582.21,-102.48 589.1,-110.53 592.61,-104.48"/>
</g>
<!-- 54 -->
<g id="node21" class="node">
<title>54</title>
<ellipse fill="white" stroke="black" cx="1094.33" cy="-89.03" rx="20.51" ry="20.51"/>
<text text-anchor="middle" x="1094.33" y="-86.83" font-family="Times-Roman" font-size="9.00">54</text>
</g>
<!-- &#45;1&#45;&gt;54 -->
<g id="edge9" class="edge">
<title>&#45;1&#45;&gt;54</title>
<path fill="none" stroke="red" stroke-width="0.65" d="M852.72,-148.27C855.53,-147.27 858.51,-146.3 861.33,-145.54 947.67,-122.17 975.14,-139.72 1059.33,-109.54 1062.32,-108.47 1065.34,-107.16 1068.31,-105.74"/>
<polygon fill="red" stroke="red" stroke-width="0.65" points="1070.21,-108.69 1077.42,-100.93 1066.94,-102.5 1070.21,-108.69"/>
</g>
<!-- 55 -->
<g id="node22" class="node">
<title>55</title>
<ellipse fill="white" stroke="black" cx="1153.33" cy="-89.03" rx="20.51" ry="20.51"/>
<text text-anchor="middle" x="1153.33" y="-86.83" font-family="Times-Roman" font-size="9.00">55</text>
</g>
<!-- &#45;1&#45;&gt;55 -->
<g id="edge10" class="edge">
<title>&#45;1&#45;&gt;55</title>
<path fill="none" stroke="green" stroke-width="0.16" d="M852.69,-148.17C855.51,-147.18 858.49,-146.24 861.33,-145.54 975.86,-117.22 1014.09,-151.55 1124.33,-109.54 1125.75,-109 1127.17,-108.38 1128.57,-107.7"/>
<polygon fill="green" stroke="green" stroke-width="0.16" points="1130.57,-110.59 1137.49,-102.56 1127.08,-104.52 1130.57,-110.59"/>
</g>
<!-- &#45;2 -->
<g id="node2" class="node">
<title>&#45;2</title>
<polygon fill="lightgray" stroke="black" points="808.33,-163.54 782.33,-163.54 782.33,-145.54 808.33,-145.54 808.33,-163.54"/>
<text text-anchor="middle" x="795.33" y="-152.34" font-family="Times-Roman" font-size="9.00">&#45;2</text>
</g>
<!-- &#45;2&#45;&gt;0 -->
<g id="edge127" class="edge">
<title>&#45;2&#45;&gt;0</title>
<path fill="none" stroke="red" stroke-width="0.16" d="M782.02,-147.98C779.2,-147 776.2,-146.12 773.33,-145.54 694.17,-129.56 103.01,-168.05 47.33,-109.54 34.77,-96.33 35,-81.95 47.33,-68.53 87.23,-25.13 517.4,-18.44 629.01,-17.44"/>
<polygon fill="red" stroke="red" stroke-width="0.16" points="629.1,-20.94 639.07,-17.35 629.04,-13.94 629.1,-20.94"/>
</g>
<!-- &#45;2&#45;&gt;1 -->
<g id="edge128" class="edge">
<title>&#45;2&#45;&gt;1</title>
<path fill="none" stroke="red" stroke-width="0.33" d="M808.65,-148C811.48,-147.02 814.47,-146.13 817.33,-145.54 883.93,-131.77 1381.68,-159.02 1428.33,-109.54 1506.11,-27.04 1249.72,-18.01 1164.74,-17.25"/>
<polygon fill="red" stroke="red" stroke-width="0.33" points="1164.62,-13.75 1154.6,-17.19 1164.58,-20.75 1164.62,-13.75"/>
</g>
<!-- &#45;2&#45;&gt;2 -->
<g id="edge129" class="edge">
<title>&#45;2&#45;&gt;2</title>
<path fill="none" stroke="red" stroke-width="0.26" d="M781.97,-148.2C779.15,-147.21 776.17,-146.26 773.33,-145.54 721.72,-132.37 571.06,-149.94 536.33,-109.54 524.45,-95.72 524.25,-82.17 536.33,-68.53 580.11,-19.08 766.45,-44.82 831.33,-32.53 842.56,-30.4 854.82,-27.35 865.23,-24.54"/>
<polygon fill="red" stroke="red" stroke-width="0.26" points="866.23,-27.89 874.93,-21.84 864.36,-21.15 866.23,-27.89"/>
</g>
<!-- &#45;2&#45;&gt;3 -->
<g id="edge130" class="edge">
<title>&#45;2&#45;&gt;3</title>
<path fill="none" stroke="green" stroke-width="0.33" d="M782,-148.1C779.17,-147.12 776.19,-146.2 773.33,-145.54 698,-128.2 479.09,-166.96 427.33,-109.54 415.13,-96 415.13,-82.07 427.33,-68.53 478.93,-11.26 697.9,-52.56 772.33,-32.53 775.81,-31.59 779.39,-30.34 782.85,-28.95"/>
<polygon fill="green" stroke="green" stroke-width="0.33" points="784.42,-32.09 792.15,-24.85 781.59,-25.69 784.42,-32.09"/>
</g>
<!-- &#45;2&#45;&gt;4 -->
<g id="edge131" class="edge">
<title>&#45;2&#45;&gt;4</title>
<path fill="none" stroke="green" stroke-width="0.34" d="M782.02,-148.01C779.19,-147.03 776.2,-146.14 773.33,-145.54 710.78,-132.49 243.08,-156.12 199.33,-109.54 186.86,-96.25 186.94,-81.89 199.33,-68.53 235.79,-29.24 627.34,-40.5 680.33,-32.53 694.25,-30.43 709.57,-27.03 722.04,-23.96"/>
<polygon fill="green" stroke="green" stroke-width="0.34" points="722.92,-27.35 731.76,-21.51 721.2,-20.57 722.92,-27.35"/>
</g>
<!-- &#45;2&#45;&gt;5 -->
<g id="edge132" class="edge">
<title>&#45;2&#45;&gt;5</title>
<path fill="none" stroke="red" stroke-width="0.17" d="M808.67,-148.09C811.49,-147.1 814.48,-146.19 817.33,-145.54 897.03,-127.43 1128.45,-170.09 1183.33,-109.54 1195.58,-96.03 1193.47,-83.68 1183.33,-68.53 1171.94,-51.49 1117.63,-33.66 1084.78,-24.17"/>
<polygon fill="red" stroke="red" stroke-width="0.17" points="1085.53,-20.74 1074.95,-21.39 1083.62,-27.48 1085.53,-20.74"/>
</g>
<!-- &#45;2&#45;&gt;46 -->
<g id="edge11" class="edge">
<title>&#45;2&#45;&gt;46</title>
<path fill="none" stroke="red" stroke-width="0.29" d="M808.67,-148.07C811.49,-147.09 814.48,-146.18 817.33,-145.54 991.12,-106.79 1046.19,-162.02 1216.33,-109.54 1219.36,-108.61 1222.42,-107.39 1225.4,-106.01"/>
<polygon fill="red" stroke="red" stroke-width="0.29" points="1227.28,-108.98 1234.53,-101.27 1224.05,-102.77 1227.28,-108.98"/>
</g>
<!-- &#45;2&#45;&gt;47 -->
<g id="edge12" class="edge">
<title>&#45;2&#45;&gt;47</title>
<path fill="none" stroke="red" stroke-width="0.16" d="M781.88,-148.51C779.07,-147.5 776.11,-146.46 773.33,-145.54 720.91,-128.09 704.26,-133.22 654.33,-109.54 652.96,-108.89 651.58,-108.18 650.21,-107.43"/>
<polygon fill="red" stroke="red" stroke-width="0.16" points="651.75,-104.27 641.39,-102.06 648.12,-110.25 651.75,-104.27"/>
</g>
<!-- &#45;2&#45;&gt;48 -->
<g id="edge13" class="edge">
<title>&#45;2&#45;&gt;48</title>
<path fill="none" stroke="red" stroke-width="0.6" d="M782.33,-147.07C765.97,-138.81 737.14,-123.88 713.33,-109.54 712.04,-108.76 710.71,-107.94 709.39,-107.11"/>
<polygon fill="red" stroke="red" stroke-width="0.6" points="711,-103.98 700.71,-101.46 707.19,-109.85 711,-103.98"/>
</g>
<!-- &#45;2&#45;&gt;49 -->
<g id="edge14" class="edge">
<title>&#45;2&#45;&gt;49</title>
<path fill="none" stroke="red" stroke-width="0.43" stroke-dasharray="1,5" d="M788.75,-145.5C782.15,-137.44 771.68,-124.65 762.45,-113.38"/>
<polygon fill="red" stroke="red" stroke-width="0.43" points="765.07,-111.06 756.03,-105.54 759.66,-115.49 765.07,-111.06"/>
</g>
<!-- &#45;2&#45;&gt;50 -->
<g id="edge15" class="edge">
<title>&#45;2&#45;&gt;50</title>
<path fill="none" stroke="red" stroke-width="0.68" d="M796.22,-145.5C796.95,-138.88 798.03,-129.07 799.08,-119.53"/>
<polygon fill="red" stroke="red" stroke-width="0.68" points="802.58,-119.78 800.19,-109.45 795.62,-119.01 802.58,-119.78"/>
</g>
<!-- &#45;2&#45;&gt;51 -->
<g id="edge16" class="edge">
<title>&#45;2&#45;&gt;51</title>
<path fill="none" stroke="red" stroke-width="0.24" d="M803.69,-145.5C812.71,-136.82 827.44,-122.65 839.75,-110.8"/>
<polygon fill="red" stroke="red" stroke-width="0.24" points="842.25,-113.26 847.03,-103.8 837.39,-108.21 842.25,-113.26"/>
</g>
<!-- &#45;2&#45;&gt;52 -->
<g id="edge17" class="edge">
<title>&#45;2&#45;&gt;52</title>
<path fill="none" stroke="green" stroke-width="0.12" d="M808.4,-148.35C827.18,-140.7 862.71,-125.59 891.33,-109.54 892.66,-108.8 894,-108.01 895.34,-107.21"/>
<polygon fill="green" stroke="green" stroke-width="0.12" points="897.51,-109.97 904.06,-101.65 893.75,-104.07 897.51,-109.97"/>
</g>
<!-- &#45;2&#45;&gt;53 -->
<g id="edge18" class="edge">
<title>&#45;2&#45;&gt;53</title>
<path fill="none" stroke="green" stroke-width="0.15" d="M781.94,-148.31C779.12,-147.31 776.15,-146.33 773.33,-145.54 695.64,-123.69 669.81,-140.66 595.33,-109.54 593.94,-108.95 592.53,-108.3 591.14,-107.59"/>
<polygon fill="green" stroke="green" stroke-width="0.15" points="592.65,-104.42 582.26,-102.36 589.1,-110.45 592.65,-104.42"/>
</g>
<!-- &#45;2&#45;&gt;54 -->
<g id="edge19" class="edge">
<title>&#45;2&#45;&gt;54</title>
<path fill="none" stroke="red" stroke-width="0.25" d="M808.7,-148.2C811.52,-147.21 814.5,-146.26 817.33,-145.54 922.74,-118.82 956.39,-144.58 1059.33,-109.54 1062.33,-108.52 1065.37,-107.24 1068.34,-105.84"/>
<polygon fill="red" stroke="red" stroke-width="0.25" points="1070.24,-108.8 1077.46,-101.05 1066.98,-102.6 1070.24,-108.8"/>
</g>
<!-- &#45;2&#45;&gt;55 -->
<g id="edge20" class="edge">
<title>&#45;2&#45;&gt;55</title>
<path fill="none" stroke="red" stroke-width="0.16" d="M808.68,-148.13C811.5,-147.14 814.49,-146.21 817.33,-145.54 951.01,-113.85 995.49,-157.22 1124.33,-109.54 1125.76,-109.01 1127.18,-108.4 1128.59,-107.73"/>
<polygon fill="red" stroke="red" stroke-width="0.16" points="1130.57,-110.63 1137.52,-102.63 1127.1,-104.55 1130.57,-110.63"/>
</g>
<!-- &#45;3 -->
<g id="node3" class="node">
<title>&#45;3</title>
<polygon fill="lightgray" stroke="black" points="764.33,-163.54 738.33,-163.54 738.33,-145.54 764.33,-145.54 764.33,-163.54"/>
<text text-anchor="middle" x="751.33" y="-152.34" font-family="Times-Roman" font-size="9.00">&#45;3</text>
</g>
<!-- &#45;3&#45;&gt;0 -->
<g id="edge133" class="edge">
<title>&#45;3&#45;&gt;0</title>
<path fill="none" stroke="red" stroke-width="0.37" d="M738.32,-153.27C641.43,-151.2 35.39,-137.18 9.33,-109.54 -3.17,-96.27 -3.03,-81.92 9.33,-68.53 52,-22.34 512.71,-17.73 628.87,-17.3"/>
<polygon fill="red" stroke="red" stroke-width="0.37" points="629.02,-20.8 639.01,-17.27 629,-13.8 629.02,-20.8"/>
</g>
<!-- &#45;3&#45;&gt;1 -->
<g id="edge134" class="edge">
<title>&#45;3&#45;&gt;1</title>
<path fill="none" stroke="green" stroke-width="0.21" d="M764.66,-148.03C767.48,-147.05 770.47,-146.15 773.33,-145.54 828.68,-133.76 1242.76,-150.94 1281.33,-109.54 1293.76,-96.2 1291.83,-83.43 1281.33,-68.53 1254.9,-30.97 1198.25,-20.79 1164.73,-18.12"/>
<polygon fill="green" stroke="green" stroke-width="0.21" points="1164.93,-14.62 1154.73,-17.49 1164.49,-21.61 1164.93,-14.62"/>
</g>
<!-- &#45;3&#45;&gt;2 -->
<g id="edge135" class="edge">
<title>&#45;3&#45;&gt;2</title>
<path fill="none" stroke="red" stroke-width="0.17" d="M738.27,-153.17C681.48,-151.17 461.82,-138.8 524.33,-68.53 569.99,-17.21 763.82,-45.16 831.33,-32.53 842.57,-30.43 854.82,-27.38 865.24,-24.56"/>
<polygon fill="red" stroke="red" stroke-width="0.17" points="866.24,-27.92 874.94,-21.86 864.36,-21.17 866.24,-27.92"/>
</g>
<!-- &#45;3&#45;&gt;3 -->
<g id="edge136" class="edge">
<title>&#45;3&#45;&gt;3</title>
<path fill="none" stroke="red" stroke-width="0.26" d="M738.28,-152.83C678.88,-149.5 436.18,-134.43 414.33,-109.54 402.31,-95.84 402.11,-82.05 414.33,-68.53 467.97,-9.23 695.09,-53.17 772.33,-32.53 775.82,-31.6 779.39,-30.35 782.86,-28.97"/>
<polygon fill="red" stroke="red" stroke-width="0.26" points="784.42,-32.1 792.15,-24.86 781.59,-25.7 784.42,-32.1"/>
</g>
<!-- &#45;3&#45;&gt;4 -->
<g id="edge137" class="edge">
<title>&#45;3&#45;&gt;4</title>
<path fill="none" stroke="green" stroke-width="0.22" d="M738.09,-153.6C654.47,-153.86 201.91,-153.25 161.33,-109.54 148.93,-96.18 148.9,-81.85 161.33,-68.53 200.77,-26.26 623.15,-40.97 680.33,-32.53 694.26,-30.47 709.58,-27.07 722.05,-24"/>
<polygon fill="green" stroke="green" stroke-width="0.22" points="722.93,-27.38 731.76,-21.53 721.21,-20.6 722.93,-27.38"/>
</g>
<!-- &#45;3&#45;&gt;5 -->
<g id="edge138" class="edge">
<title>&#45;3&#45;&gt;5</title>
<path fill="none" stroke="red" stroke-width="0.79" d="M764.73,-148.31C767.55,-147.31 770.52,-146.33 773.33,-145.54 850.6,-123.76 878.1,-144.57 950.33,-109.54 987.52,-91.5 1022.5,-57.83 1042.37,-36.53"/>
<polygon fill="red" stroke="red" stroke-width="0.79" points="1045.06,-38.77 1049.23,-29.03 1039.9,-34.05 1045.06,-38.77"/>
</g>
<!-- &#45;3&#45;&gt;46 -->
<g id="edge21" class="edge">
<title>&#45;3&#45;&gt;46</title>
<path fill="none" stroke="green" stroke-width="0.66" d="M764.67,-148.06C767.49,-147.08 770.48,-146.17 773.33,-145.54 951.92,-105.95 1003.48,-142.91 1183.33,-109.54 1196.32,-107.13 1210.39,-103.3 1222.34,-99.68"/>
<polygon fill="green" stroke="green" stroke-width="0.66" points="1223.73,-102.91 1232.22,-96.58 1221.64,-96.23 1223.73,-102.91"/>
</g>
<!-- &#45;3&#45;&gt;47 -->
<g id="edge22" class="edge">
<title>&#45;3&#45;&gt;47</title>
<path fill="none" stroke="red" stroke-width="0.37" d="M738.13,-148.37C719.15,-140.75 683.24,-125.67 654.33,-109.54 653.01,-108.8 651.67,-108.02 650.32,-107.21"/>
<polygon fill="red" stroke="red" stroke-width="0.37" points="651.91,-104.08 641.6,-101.66 648.16,-109.98 651.91,-104.08"/>
</g>
<!-- &#45;3&#45;&gt;48 -->
<g id="edge23" class="edge">
<title>&#45;3&#45;&gt;48</title>
<path fill="none" stroke="red" stroke-width="0.47" d="M742.85,-145.5C733.69,-136.82 718.74,-122.65 706.25,-110.8"/>
<polygon fill="red" stroke="red" stroke-width="0.47" points="708.52,-108.14 698.86,-103.8 703.71,-113.22 708.52,-108.14"/>
</g>
<!-- &#45;3&#45;&gt;49 -->
<g id="edge24" class="edge">
<title>&#45;3&#45;&gt;49</title>
<path fill="none" stroke="green" stroke-width="0.13" d="M750.32,-145.5C749.49,-138.88 748.25,-129.07 747.05,-119.53"/>
<polygon fill="green" stroke="green" stroke-width="0.13" points="750.5,-118.94 745.78,-109.45 743.56,-119.81 750.5,-118.94"/>
</g>
<!-- &#45;3&#45;&gt;50 -->
<g id="edge25" class="edge">
<title>&#45;3&#45;&gt;50</title>
<path fill="none" stroke="red" stroke-width="0.54" d="M757.79,-145.5C764.26,-137.44 774.54,-124.65 783.58,-113.38"/>
<polygon fill="red" stroke="red" stroke-width="0.54" points="786.35,-115.52 789.89,-105.54 780.89,-111.14 786.35,-115.52"/>
</g>
<!-- &#45;3&#45;&gt;51 -->
<g id="edge26" class="edge">
<title>&#45;3&#45;&gt;51</title>
<path fill="none" stroke="red" stroke-width="0.15" d="M764.45,-146.9C780.65,-138.59 808.93,-123.72 832.33,-109.54 833.63,-108.75 834.95,-107.93 836.28,-107.1"/>
<polygon fill="red" stroke="red" stroke-width="0.15" points="838.48,-109.84 844.95,-101.45 834.66,-103.98 838.48,-109.84"/>
</g>
<!-- &#45;3&#45;&gt;52 -->
<g id="edge27" class="edge">
<title>&#45;3&#45;&gt;52</title>
<path fill="none" stroke="green" stroke-width="0.15" d="M764.79,-148.52C767.6,-147.5 770.56,-146.47 773.33,-145.54 825.34,-128.16 841.82,-133.1 891.33,-109.54 892.7,-108.89 894.08,-108.18 895.46,-107.43"/>
<polygon fill="green" stroke="green" stroke-width="0.15" points="897.55,-110.25 904.28,-102.06 893.91,-104.27 897.55,-110.25"/>
</g>
<!-- &#45;3&#45;&gt;53 -->
<g id="edge28" class="edge">
<title>&#45;3&#45;&gt;53</title>
<path fill="none" stroke="red" stroke-width="0.48" d="M738.31,-151.32C710.9,-146.33 645.64,-132.83 595.33,-109.54 593.96,-108.9 592.57,-108.2 591.2,-107.46"/>
<polygon fill="red" stroke="red" stroke-width="0.48" points="592.73,-104.3 582.36,-102.12 589.11,-110.29 592.73,-104.3"/>
</g>
<!-- &#45;3&#45;&gt;54 -->
<g id="edge29" class="edge">
<title>&#45;3&#45;&gt;54</title>
<path fill="none" stroke="red" stroke-width="0.4" d="M764.68,-148.15C767.51,-147.16 770.49,-146.23 773.33,-145.54 897.87,-115.46 937.6,-149.45 1059.33,-109.54 1062.34,-108.55 1065.39,-107.3 1068.37,-105.91"/>
<polygon fill="red" stroke="red" stroke-width="0.4" points="1070.25,-108.87 1077.49,-101.13 1067.01,-102.67 1070.25,-108.87"/>
</g>
<!-- &#45;3&#45;&gt;55 -->
<g id="edge30" class="edge">
<title>&#45;3&#45;&gt;55</title>
<path fill="none" stroke="green" stroke-width="0.5" d="M764.67,-148.1C767.49,-147.11 770.48,-146.19 773.33,-145.54 926.18,-110.48 976.87,-162.89 1124.33,-109.54 1125.94,-108.96 1127.55,-108.27 1129.13,-107.5"/>
<polygon fill="green" stroke="green" stroke-width="0.5" points="1130.93,-110.5 1137.84,-102.47 1127.43,-104.44 1130.93,-110.5"/>
</g>
<!-- &#45;4 -->
<g id="node4" class="node">
<title>&#45;4</title>
<polygon fill="lightgray" stroke="black" points="896.33,-163.54 870.33,-163.54 870.33,-145.54 896.33,-145.54 896.33,-163.54"/>
<text text-anchor="middle" x="883.33" y="-152.34" font-family="Times-Roman" font-size="9.00">&#45;4</text>
</g>
<!-- &#45;4&#45;&gt;0 -->
<g id="edge139" class="edge">
<title>&#45;4&#45;&gt;0</title>
<path fill="none" stroke="green" stroke-width="0.27" d="M869.99,-148.1C867.17,-147.12 864.19,-146.2 861.33,-145.54 787.96,-128.55 574.68,-165.55 524.33,-109.54 512.15,-95.98 514.06,-83.58 524.33,-68.53 547.73,-34.24 597.81,-22.89 628.82,-19.12"/>
<polygon fill="green" stroke="green" stroke-width="0.27" points="629.33,-22.59 638.92,-18.09 628.61,-15.63 629.33,-22.59"/>
</g>
<!-- &#45;4&#45;&gt;1 -->
<g id="edge140" class="edge">
<title>&#45;4&#45;&gt;1</title>
<path fill="none" stroke="red" stroke-width="0.6" d="M896.65,-147.98C899.47,-147 902.47,-146.12 905.33,-145.54 987.24,-129.08 1598.69,-170.01 1656.33,-109.54 1668.91,-96.35 1668.57,-82.04 1656.33,-68.53 1623.04,-31.77 1265.95,-20.36 1164.86,-17.85"/>
<polygon fill="red" stroke="red" stroke-width="0.6" points="1164.69,-14.35 1154.6,-17.61 1164.52,-21.34 1164.69,-14.35"/>
</g>
<!-- &#45;4&#45;&gt;2 -->
<g id="edge141" class="edge">
<title>&#45;4&#45;&gt;2</title>
<path fill="none" stroke="red" stroke-width="0.44" d="M896.67,-148.08C899.49,-147.1 902.48,-146.18 905.33,-145.54 987.21,-127.05 1224.88,-171.66 1281.33,-109.54 1293.59,-96.05 1293.36,-82.23 1281.33,-68.53 1275.27,-61.62 1004.08,-30.21 916.97,-20.28"/>
<polygon fill="red" stroke="red" stroke-width="0.44" points="917.17,-16.78 906.84,-19.13 916.38,-23.74 917.17,-16.78"/>
</g>
<!-- &#45;4&#45;&gt;3 -->
<g id="edge142" class="edge">
<title>&#45;4&#45;&gt;3</title>
<path fill="none" stroke="red" stroke-width="0.27" d="M896.57,-146.81C914.36,-137.45 944.45,-120.44 950.33,-109.54 958.99,-93.5 960.84,-83.42 950.33,-68.53 943.24,-58.47 870.87,-36.09 831.51,-24.51"/>
<polygon fill="red" stroke="red" stroke-width="0.27" points="832.4,-21.12 821.82,-21.68 830.44,-27.84 832.4,-21.12"/>
</g>
<!-- &#45;4&#45;&gt;4 -->
<g id="edge143" class="edge">
<title>&#45;4&#45;&gt;4</title>
<path fill="none" stroke="red" stroke-width="0.26" d="M869.99,-148.11C867.17,-147.13 864.18,-146.2 861.33,-145.54 790.58,-129.01 584.8,-163.67 536.33,-109.54 524.18,-95.96 525.07,-82.86 536.33,-68.53 537.79,-66.67 665.89,-36.4 721.76,-23.26"/>
<polygon fill="red" stroke="red" stroke-width="0.26" points="722.67,-26.64 731.61,-20.95 721.07,-19.83 722.67,-26.64"/>
</g>
<!-- &#45;4&#45;&gt;5 -->
<g id="edge144" class="edge">
<title>&#45;4&#45;&gt;5</title>
<path fill="none" stroke="red" stroke-width="0.26" d="M896.65,-148C899.48,-147.03 902.47,-146.13 905.33,-145.54 970.62,-132.01 1458.62,-158.08 1504.33,-109.54 1516.83,-96.27 1516.62,-81.99 1504.33,-68.53 1474.93,-36.29 1156.23,-40.49 1113.33,-32.53 1103.83,-30.76 1093.59,-28.07 1084.6,-25.44"/>
<polygon fill="red" stroke="red" stroke-width="0.26" points="1085.34,-22.01 1074.75,-22.44 1083.3,-28.7 1085.34,-22.01"/>
</g>
<!-- &#45;4&#45;&gt;46 -->
<g id="edge31" class="edge">
<title>&#45;4&#45;&gt;46</title>
<path fill="none" stroke="red" stroke-width="0.12" d="M896.68,-148.12C899.5,-147.14 902.49,-146.21 905.33,-145.54 1040.75,-113.55 1083.9,-152.23 1216.33,-109.54 1219.35,-108.57 1222.4,-107.32 1225.38,-105.94"/>
<polygon fill="red" stroke="red" stroke-width="0.12" points="1227.26,-108.9 1234.5,-101.17 1224.02,-102.7 1227.26,-108.9"/>
</g>
<!-- &#45;4&#45;&gt;47 -->
<g id="edge32" class="edge">
<title>&#45;4&#45;&gt;47</title>
<path fill="none" stroke="red" stroke-width="0.37" d="M869.96,-148.25C867.14,-147.26 864.16,-146.29 861.33,-145.54 771.1,-121.49 740.98,-144.36 654.33,-109.54 652.93,-108.97 651.52,-108.33 650.12,-107.64"/>
<polygon fill="red" stroke="red" stroke-width="0.37" points="651.62,-104.46 641.22,-102.45 648.1,-110.51 651.62,-104.46"/>
</g>
<!-- &#45;4&#45;&gt;48 -->
<g id="edge33" class="edge">
<title>&#45;4&#45;&gt;48</title>
<path fill="none" stroke="green" stroke-width="0.35" d="M869.92,-148.39C867.1,-147.39 864.14,-146.39 861.33,-145.54 796.54,-125.94 775.27,-136.86 713.33,-109.54 711.95,-108.93 710.55,-108.25 709.17,-107.52"/>
<polygon fill="green" stroke="green" stroke-width="0.35" points="710.69,-104.36 700.31,-102.24 707.11,-110.37 710.69,-104.36"/>
</g>
<!-- &#45;4&#45;&gt;49 -->
<g id="edge34" class="edge">
<title>&#45;4&#45;&gt;49</title>
<path fill="none" stroke="red" stroke-width="0.36" d="M870.09,-148.7C844.7,-139.35 790.13,-118.91 772.33,-109.54 770.99,-108.83 769.64,-108.08 768.28,-107.29"/>
<polygon fill="red" stroke="red" stroke-width="0.36" points="769.85,-104.15 759.52,-101.81 766.14,-110.08 769.85,-104.15"/>
</g>
<!-- &#45;4&#45;&gt;50 -->
<g id="edge35" class="edge">
<title>&#45;4&#45;&gt;50</title>
<path fill="none" stroke="red" stroke-width="0.46" d="M873.08,-145.5C861.37,-136.32 841.82,-120.99 826.24,-108.77"/>
<polygon fill="red" stroke="red" stroke-width="0.46" points="828.09,-105.78 818.06,-102.37 823.77,-111.29 828.09,-105.78"/>
</g>
<!-- &#45;4&#45;&gt;51 -->
<g id="edge36" class="edge">
<title>&#45;4&#45;&gt;51</title>
<path fill="none" stroke="red" stroke-width="0.14" d="M880.55,-145.5C878.15,-138.59 874.56,-128.2 871.12,-118.27"/>
<polygon fill="red" stroke="red" stroke-width="0.14" points="874.36,-116.95 867.78,-108.65 867.75,-119.24 874.36,-116.95"/>
</g>
<!-- &#45;4&#45;&gt;52 -->
<g id="edge37" class="edge">
<title>&#45;4&#45;&gt;52</title>
<path fill="none" stroke="green" stroke-width="0.11" d="M888.02,-145.5C892.35,-138.06 899.03,-126.6 905.19,-116.02"/>
<polygon fill="green" stroke="green" stroke-width="0.11" points="908.4,-117.47 910.41,-107.07 902.35,-113.95 908.4,-117.47"/>
</g>
<!-- &#45;4&#45;&gt;53 -->
<g id="edge38" class="edge">
<title>&#45;4&#45;&gt;53</title>
<path fill="none" stroke="red" stroke-width="0.53" d="M869.98,-148.17C867.16,-147.18 864.18,-146.24 861.33,-145.54 745.5,-116.99 706.85,-151.94 595.33,-109.54 593.92,-109 592.5,-108.38 591.1,-107.7"/>
<polygon fill="red" stroke="red" stroke-width="0.53" points="592.59,-104.52 582.17,-102.57 589.1,-110.59 592.59,-104.52"/>
</g>
<!-- &#45;4&#45;&gt;54 -->
<g id="edge39" class="edge">
<title>&#45;4&#45;&gt;54</title>
<path fill="none" stroke="red" stroke-width="0.24" d="M896.75,-148.37C899.56,-147.37 902.53,-146.37 905.33,-145.54 972.71,-125.49 993.78,-134.89 1059.33,-109.54 1062.29,-108.4 1065.3,-107.04 1068.25,-105.59"/>
<polygon fill="red" stroke="red" stroke-width="0.24" points="1070.17,-108.54 1077.35,-100.75 1066.88,-102.36 1070.17,-108.54"/>
</g>
<!-- &#45;4&#45;&gt;55 -->
<g id="edge40" class="edge">
<title>&#45;4&#45;&gt;55</title>
<path fill="none" stroke="red" stroke-width="0.1" d="M896.71,-148.23C899.52,-147.24 902.5,-146.28 905.33,-145.54 1000.76,-120.58 1032.64,-145.9 1124.33,-109.54 1125.74,-108.98 1127.16,-108.34 1128.55,-107.65"/>
<polygon fill="red" stroke="red" stroke-width="0.1" points="1130.57,-110.53 1137.46,-102.48 1127.05,-104.48 1130.57,-110.53"/>
</g>
<!-- &#45;5 -->
<g id="node5" class="node">
<title>&#45;5</title>
<polygon fill="lightgray" stroke="black" points="1049.33,-163.54 1023.33,-163.54 1023.33,-145.54 1049.33,-145.54 1049.33,-163.54"/>
<text text-anchor="middle" x="1036.33" y="-152.34" font-family="Times-Roman" font-size="9.00">&#45;5</text>
</g>
<!-- &#45;5&#45;&gt;0 -->
<g id="edge145" class="edge">
<title>&#45;5&#45;&gt;0</title>
<path fill="none" stroke="red" stroke-width="0.44" d="M1023.07,-152.3C1006.01,-150.71 975.47,-147.88 949.33,-145.54 903.46,-141.43 567.46,-143.5 536.33,-109.54 524.02,-96.1 526.31,-83.75 536.33,-68.53 556.84,-37.37 600.71,-25.07 629.07,-20.27"/>
<polygon fill="red" stroke="red" stroke-width="0.44" points="629.73,-23.71 639.1,-18.77 628.69,-16.78 629.73,-23.71"/>
</g>
<!-- &#45;5&#45;&gt;1 -->
<g id="edge146" class="edge">
<title>&#45;5&#45;&gt;1</title>
<path fill="none" stroke="green" stroke-width="0.22" d="M1049.49,-153.37C1154.55,-151.93 1854.3,-141.18 1884.33,-109.54 1896.89,-96.32 1896.77,-81.85 1884.33,-68.53 1834.3,-14.93 1291.61,-16.01 1164.75,-17"/>
<polygon fill="green" stroke="green" stroke-width="0.22" points="1164.71,-13.5 1154.74,-17.09 1164.77,-20.5 1164.71,-13.5"/>
</g>
<!-- &#45;5&#45;&gt;2 -->
<g id="edge147" class="edge">
<title>&#45;5&#45;&gt;2</title>
<path fill="none" stroke="green" stroke-width="0.1" d="M1049.47,-153.55C1130.47,-153.48 1559.84,-151.17 1598.33,-109.54 1610.71,-96.16 1610.81,-81.82 1598.33,-68.53 1555.37,-22.73 1096.9,-37.84 1034.33,-32.53 993.24,-29.04 945.68,-23.75 916.82,-20.41"/>
<polygon fill="green" stroke="green" stroke-width="0.1" points="917.06,-16.91 906.73,-19.23 916.25,-23.86 917.06,-16.91"/>
</g>
<!-- &#45;5&#45;&gt;3 -->
<g id="edge148" class="edge">
<title>&#45;5&#45;&gt;3</title>
<path fill="none" stroke="red" stroke-width="0.2" d="M1049.67,-152.8C1109.22,-149.38 1348.74,-134.16 1370.33,-109.54 1382.35,-95.83 1382.76,-81.87 1370.33,-68.53 1332,-27.36 920.85,-41.61 865.33,-32.53 854.06,-30.68 841.8,-27.68 831.39,-24.82"/>
<polygon fill="red" stroke="red" stroke-width="0.2" points="832.27,-21.43 821.7,-22.06 830.36,-28.17 832.27,-21.43"/>
</g>
<!-- &#45;5&#45;&gt;4 -->
<g id="edge149" class="edge">
<title>&#45;5&#45;&gt;4</title>
<path fill="none" stroke="green" stroke-width="0.68" d="M1049.37,-153.58C1111.7,-153.37 1373.31,-147.82 1299.33,-68.53 1259.98,-26.34 837.3,-46.56 781.33,-32.53 777.84,-31.65 774.26,-30.43 770.79,-29.06"/>
<polygon fill="green" stroke="green" stroke-width="0.68" points="772.05,-25.8 761.49,-24.97 769.23,-32.2 772.05,-25.8"/>
</g>
<!-- &#45;5&#45;&gt;5 -->
<g id="edge150" class="edge">
<title>&#45;5&#45;&gt;5</title>
<path fill="none" stroke="red" stroke-width="0.37" d="M1049.55,-153.3C1149.34,-151.4 1781.17,-138.3 1808.33,-109.54 1820.85,-96.29 1820.89,-81.74 1808.33,-68.53 1755.09,-12.45 1189.63,-45.12 1113.33,-32.53 1103.8,-30.95 1093.55,-28.31 1084.57,-25.66"/>
<polygon fill="red" stroke="red" stroke-width="0.37" points="1085.31,-22.22 1074.72,-22.61 1083.24,-28.91 1085.31,-22.22"/>
</g>
<!-- &#45;5&#45;&gt;46 -->
<g id="edge41" class="edge">
<title>&#45;5&#45;&gt;46</title>
<path fill="none" stroke="red" stroke-width="0.3" d="M1049.36,-151.59C1079.51,-146.82 1156.14,-133.17 1216.33,-109.54 1219.28,-108.38 1222.29,-107.02 1225.24,-105.56"/>
<polygon fill="red" stroke="red" stroke-width="0.3" points="1227.16,-108.5 1234.34,-100.71 1223.87,-102.33 1227.16,-108.5"/>
</g>
<!-- &#45;5&#45;&gt;47 -->
<g id="edge42" class="edge">
<title>&#45;5&#45;&gt;47</title>
<path fill="none" stroke="green" stroke-width="0.26" d="M1022.99,-152.18C957.45,-145.49 672.07,-116.08 654.33,-109.54 652.91,-109.01 651.49,-108.41 650.08,-107.73"/>
<polygon fill="green" stroke="green" stroke-width="0.26" points="651.57,-104.55 641.15,-102.63 648.1,-110.63 651.57,-104.55"/>
</g>
<!-- &#45;5&#45;&gt;48 -->
<g id="edge43" class="edge">
<title>&#45;5&#45;&gt;48</title>
<path fill="none" stroke="green" stroke-width="0.25" d="M1023.09,-152.09C966.03,-145.82 742.82,-120.76 713.33,-109.54 711.92,-109 710.5,-108.38 709.1,-107.7"/>
<polygon fill="green" stroke="green" stroke-width="0.25" points="710.59,-104.52 700.18,-102.57 707.1,-110.59 710.59,-104.52"/>
</g>
<!-- &#45;5&#45;&gt;49 -->
<g id="edge44" class="edge">
<title>&#45;5&#45;&gt;49</title>
<path fill="none" stroke="red" stroke-width="0.1" d="M1023.08,-152.08C976.3,-146.83 819.18,-128.18 772.33,-109.54 770.93,-108.98 769.51,-108.34 768.12,-107.65"/>
<polygon fill="red" stroke="red" stroke-width="0.1" points="769.62,-104.47 759.21,-102.47 766.1,-110.52 769.62,-104.47"/>
</g>
<!-- &#45;5&#45;&gt;50 -->
<g id="edge45" class="edge">
<title>&#45;5&#45;&gt;50</title>
<path fill="none" stroke="red" stroke-width="0.14" d="M1022.86,-152.42C989.28,-149.28 899.68,-138.58 831.33,-109.54 829.94,-108.95 828.54,-108.28 827.15,-107.57"/>
<polygon fill="red" stroke="red" stroke-width="0.14" points="828.66,-104.4 818.27,-102.32 825.1,-110.42 828.66,-104.4"/>
</g>
<!-- &#45;5&#45;&gt;51 -->
<g id="edge46" class="edge">
<title>&#45;5&#45;&gt;51</title>
<path fill="none" stroke="red" stroke-width="0.14" d="M1022.96,-150.92C996.66,-145.46 936.75,-131.53 890.33,-109.54 888.96,-108.89 887.58,-108.18 886.21,-107.43"/>
<polygon fill="red" stroke="red" stroke-width="0.14" points="887.75,-104.27 877.39,-102.07 884.12,-110.25 887.75,-104.27"/>
</g>
<!-- &#45;5&#45;&gt;52 -->
<g id="edge47" class="edge">
<title>&#45;5&#45;&gt;52</title>
<path fill="none" stroke="green" stroke-width="0.25" d="M1023.03,-146.25C1004.54,-136.13 970.66,-117.59 946.89,-104.57"/>
<polygon fill="green" stroke="green" stroke-width="0.25" points="948.47,-101.44 938.02,-99.71 945.11,-107.58 948.47,-101.44"/>
</g>
<!-- &#45;5&#45;&gt;53 -->
<g id="edge48" class="edge">
<title>&#45;5&#45;&gt;53</title>
<path fill="none" stroke="green" stroke-width="0.3" d="M1023,-152.3C950.4,-145.53 605.7,-113.27 595.33,-109.54 593.73,-108.96 592.12,-108.27 590.53,-107.5"/>
<polygon fill="green" stroke="green" stroke-width="0.3" points="592.24,-104.45 581.83,-102.48 588.74,-110.51 592.24,-104.45"/>
</g>
<!-- &#45;5&#45;&gt;54 -->
<g id="edge49" class="edge">
<title>&#45;5&#45;&gt;54</title>
<path fill="none" stroke="red" stroke-width="0.24" d="M1043.68,-145.5C1051.21,-137.25 1063.26,-124.05 1073.72,-112.6"/>
<polygon fill="red" stroke="red" stroke-width="0.24" points="1076.48,-114.78 1080.64,-105.03 1071.31,-110.06 1076.48,-114.78"/>
</g>
<!-- &#45;5&#45;&gt;55 -->
<g id="edge50" class="edge">
<title>&#45;5&#45;&gt;55</title>
<path fill="none" stroke="green" stroke-width="0.58" d="M1049.43,-147.63C1066.87,-139.63 1098.51,-124.6 1124.33,-109.54 1125.65,-108.78 1126.98,-107.97 1128.31,-107.15"/>
<polygon fill="green" stroke="green" stroke-width="0.58" points="1130.5,-109.91 1137.01,-101.55 1126.7,-104.02 1130.5,-109.91"/>
</g>
<!-- &#45;6 -->
<g id="node6" class="node">
<title>&#45;6</title>
<polygon fill="lightgray" stroke="black" points="940.33,-163.54 914.33,-163.54 914.33,-145.54 940.33,-145.54 940.33,-163.54"/>
<text text-anchor="middle" x="927.33" y="-152.34" font-family="Times-Roman" font-size="9.00">&#45;6</text>
</g>
<!-- &#45;6&#45;&gt;0 -->
<g id="edge151" class="edge">
<title>&#45;6&#45;&gt;0</title>
<path fill="none" stroke="red" stroke-width="0.65" d="M914.02,-148C911.19,-147.03 908.2,-146.13 905.33,-145.54 840.81,-132.14 358.5,-157.53 313.33,-109.54 300.84,-96.26 301.44,-82.34 313.33,-68.53 354.24,-21.04 555.9,-16.91 628.9,-17.01"/>
<polygon fill="red" stroke="red" stroke-width="0.65" points="629.07,-20.51 639.08,-17.05 629.1,-13.51 629.07,-20.51"/>
</g>
<!-- &#45;6&#45;&gt;1 -->
<g id="edge152" class="edge">
<title>&#45;6&#45;&gt;1</title>
<path fill="none" stroke="red" stroke-width="0.24" d="M940.59,-152.19C957.64,-150.48 988.17,-147.52 1014.33,-145.54 1081.15,-140.47 1570.39,-158.31 1616.33,-109.54 1628.83,-96.27 1628.52,-82.09 1616.33,-68.53 1585.92,-34.68 1260.4,-21.3 1164.67,-18.08"/>
<polygon fill="red" stroke="red" stroke-width="0.24" points="1164.76,-14.58 1154.66,-17.75 1164.54,-21.57 1164.76,-14.58"/>
</g>
<!-- &#45;6&#45;&gt;2 -->
<g id="edge153" class="edge">
<title>&#45;6&#45;&gt;2</title>
<path fill="none" stroke="green" stroke-width="0.33" stroke-dasharray="1,5" d="M940.59,-152.2C957.64,-150.51 988.17,-147.57 1014.33,-145.54 1077.16,-140.65 1537.21,-155.49 1580.33,-109.54 1592.81,-96.25 1592.79,-81.83 1580.33,-68.53 1538.78,-24.14 1094.91,-37.73 1034.33,-32.53 993.25,-29 945.69,-23.72 916.82,-20.39"/>
<polygon fill="green" stroke="green" stroke-width="0.33" points="917.06,-16.89 906.73,-19.22 916.26,-23.85 917.06,-16.89"/>
</g>
<!-- &#45;6&#45;&gt;3 -->
<g id="edge154" class="edge">
<title>&#45;6&#45;&gt;3</title>
<path fill="none" stroke="green" stroke-width="0.47" d="M940.4,-152.31C1011.51,-145.58 1348.78,-113.48 1352.33,-109.54 1364.54,-96 1364.74,-81.88 1352.33,-68.53 1315.41,-28.77 918.87,-41.36 865.33,-32.53 854.06,-30.67 841.8,-27.66 831.39,-24.8"/>
<polygon fill="green" stroke="green" stroke-width="0.47" points="832.28,-21.42 821.7,-22.05 830.36,-28.15 832.28,-21.42"/>
</g>
<!-- &#45;6&#45;&gt;4 -->
<g id="edge155" class="edge">
<title>&#45;6&#45;&gt;4</title>
<path fill="none" stroke="green" stroke-width="0.41" d="M940.54,-152.14C1004.08,-145.37 1275.54,-116.1 1281.33,-109.54 1293.4,-95.88 1293.75,-81.87 1281.33,-68.53 1243.39,-27.75 835.34,-46.14 781.33,-32.53 777.84,-31.65 774.26,-30.43 770.79,-29.06"/>
<polygon fill="green" stroke="green" stroke-width="0.41" points="772.05,-25.79 761.49,-24.96 769.23,-32.19 772.05,-25.79"/>
</g>
<!-- &#45;6&#45;&gt;5 -->
<g id="edge156" class="edge">
<title>&#45;6&#45;&gt;5</title>
<path fill="none" stroke="red" stroke-width="0.19" d="M940.59,-152.2C957.64,-150.5 988.17,-147.55 1014.33,-145.54 1079.16,-140.56 1553.8,-156.9 1598.33,-109.54 1610.82,-96.26 1610.74,-81.88 1598.33,-68.53 1561.57,-28.93 1166.55,-41.92 1113.33,-32.53 1103.82,-30.85 1093.57,-28.18 1084.59,-25.54"/>
<polygon fill="red" stroke="red" stroke-width="0.19" points="1085.33,-22.1 1074.74,-22.51 1083.27,-28.79 1085.33,-22.1"/>
</g>
<!-- &#45;6&#45;&gt;46 -->
<g id="edge51" class="edge">
<title>&#45;6&#45;&gt;46</title>
<path fill="none" stroke="green" stroke-width="0.56" d="M940.41,-152.18C989.64,-146.94 1163.76,-127.53 1216.33,-109.54 1219.33,-108.51 1222.37,-107.24 1225.34,-105.83"/>
<polygon fill="green" stroke="green" stroke-width="0.56" points="1227.23,-108.79 1234.46,-101.04 1223.98,-102.59 1227.23,-108.79"/>
</g>
<!-- &#45;6&#45;&gt;47 -->
<g id="edge52" class="edge">
<title>&#45;6&#45;&gt;47</title>
<path fill="none" stroke="green" stroke-width="0.11" d="M913.98,-148.18C911.16,-147.19 908.17,-146.25 905.33,-145.54 796.02,-118.14 759.52,-150.01 654.33,-109.54 652.92,-108.99 651.5,-108.37 650.1,-107.69"/>
<polygon fill="green" stroke="green" stroke-width="0.11" points="651.6,-104.51 641.18,-102.54 648.1,-110.57 651.6,-104.51"/>
</g>
<!-- &#45;6&#45;&gt;48 -->
<g id="edge53" class="edge">
<title>&#45;6&#45;&gt;48</title>
<path fill="none" stroke="green" stroke-width="0.21" d="M913.95,-148.28C911.13,-147.28 908.16,-146.31 905.33,-145.54 821.59,-122.63 793.68,-142.45 713.33,-109.54 711.93,-108.96 710.52,-108.32 709.13,-107.61"/>
<polygon fill="green" stroke="green" stroke-width="0.21" points="710.64,-104.44 700.24,-102.41 707.1,-110.48 710.64,-104.44"/>
</g>
<!-- &#45;6&#45;&gt;49 -->
<g id="edge54" class="edge">
<title>&#45;6&#45;&gt;49</title>
<path fill="none" stroke="green" stroke-width="0.1" d="M913.9,-148.45C911.09,-147.44 908.12,-146.42 905.33,-145.54 846.95,-127.06 828.04,-134.97 772.33,-109.54 770.95,-108.91 769.57,-108.22 768.19,-107.48"/>
<polygon fill="green" stroke="green" stroke-width="0.1" points="769.72,-104.32 759.35,-102.16 766.11,-110.31 769.72,-104.32"/>
</g>
<!-- &#45;6&#45;&gt;50 -->
<g id="edge55" class="edge">
<title>&#45;6&#45;&gt;50</title>
<path fill="none" stroke="red" stroke-width="0.55" d="M914.27,-148.35C895.49,-140.7 859.96,-125.59 831.33,-109.54 830.01,-108.8 828.67,-108.01 827.33,-107.21"/>
<polygon fill="red" stroke="red" stroke-width="0.55" points="828.92,-104.07 818.6,-101.65 825.16,-109.97 828.92,-104.07"/>
</g>
<!-- &#45;6&#45;&gt;51 -->
<g id="edge56" class="edge">
<title>&#45;6&#45;&gt;51</title>
<path fill="none" stroke="green" stroke-width="0.4" d="M918.98,-145.5C909.96,-136.82 895.23,-122.65 882.92,-110.8"/>
<polygon fill="green" stroke="green" stroke-width="0.4" points="885.27,-108.21 875.64,-103.8 880.42,-113.26 885.27,-108.21"/>
</g>
<!-- &#45;6&#45;&gt;52 -->
<g id="edge57" class="edge">
<title>&#45;6&#45;&gt;52</title>
<path fill="none" stroke="green" stroke-width="0.48" stroke-dasharray="1,5" d="M926.45,-145.5C925.72,-138.88 924.64,-129.07 923.59,-119.53"/>
<polygon fill="green" stroke="green" stroke-width="0.48" points="927.05,-119.01 922.48,-109.45 920.09,-119.78 927.05,-119.01"/>
</g>
<!-- &#45;6&#45;&gt;53 -->
<g id="edge58" class="edge">
<title>&#45;6&#45;&gt;53</title>
<path fill="none" stroke="red" stroke-width="0.44" d="M913.99,-148.13C911.17,-147.14 908.18,-146.21 905.33,-145.54 770.35,-113.62 725.44,-157.6 595.33,-109.54 593.91,-109.01 592.49,-108.4 591.08,-107.73"/>
<polygon fill="red" stroke="red" stroke-width="0.44" points="592.57,-104.55 582.15,-102.63 589.1,-110.63 592.57,-104.55"/>
</g>
<!-- &#45;6&#45;&gt;54 -->
<g id="edge59" class="edge">
<title>&#45;6&#45;&gt;54</title>
<path fill="none" stroke="green" stroke-width="0.47" d="M940.38,-150.07C964.42,-143.48 1017.11,-128.15 1059.33,-109.54 1062.23,-108.26 1065.21,-106.82 1068.14,-105.32"/>
<polygon fill="green" stroke="green" stroke-width="0.47" points="1070.08,-108.25 1077.21,-100.41 1066.75,-102.09 1070.08,-108.25"/>
</g>
<!-- &#45;6&#45;&gt;55 -->
<g id="edge60" class="edge">
<title>&#45;6&#45;&gt;55</title>
<path fill="none" stroke="red" stroke-width="0.34" d="M940.77,-152.27C973.4,-148.84 1058.98,-137.63 1124.33,-109.54 1125.73,-108.94 1127.13,-108.27 1128.51,-107.55"/>
<polygon fill="red" stroke="red" stroke-width="0.34" points="1130.57,-110.41 1137.38,-102.3 1127,-104.38 1130.57,-110.41"/>
</g>
<!-- 46&#45;&gt;0 -->
<g id="edge61" class="edge">
<title>46&#45;&gt;0</title>
<path fill="none" stroke="green" stroke-width="0.19" d="M1232.23,-81.43C1218.74,-77.05 1200.13,-71.56 1183.33,-68.53 981.09,-32.01 925.51,-63.43 722.33,-32.53 708.42,-30.41 693.1,-27 680.63,-23.94"/>
<polygon fill="green" stroke="green" stroke-width="0.19" points="681.47,-20.55 670.91,-21.49 679.75,-27.33 681.47,-20.55"/>
</g>
<!-- 46&#45;&gt;1 -->
<g id="edge62" class="edge">
<title>46&#45;&gt;1</title>
<path fill="none" stroke="green" stroke-width="0.32" d="M1234.17,-77.28C1214.4,-64.9 1181.87,-44.53 1160.27,-31"/>
<polygon fill="green" stroke="green" stroke-width="0.32" points="1162.09,-28.01 1151.76,-25.67 1158.37,-33.94 1162.09,-28.01"/>
</g>
<!-- 46&#45;&gt;2 -->
<g id="edge63" class="edge">
<title>46&#45;&gt;2</title>
<path fill="none" stroke="red" stroke-width="0.48" d="M1231.84,-81.84C1218.32,-77.7 1199.85,-72.33 1183.33,-68.53 1085.61,-46.03 967.55,-28.17 916.24,-20.85"/>
<polygon fill="red" stroke="red" stroke-width="0.48" points="916.73,-17.39 906.33,-19.45 915.75,-24.32 916.73,-17.39"/>
</g>
<!-- 46&#45;&gt;3 -->
<g id="edge64" class="edge">
<title>46&#45;&gt;3</title>
<path fill="none" stroke="green" stroke-width="0.36" d="M1232.2,-81.62C1218.69,-77.32 1200.08,-71.85 1183.33,-68.53 1043.82,-40.82 1005.2,-58.4 865.33,-32.53 854.1,-30.45 841.84,-27.41 831.43,-24.58"/>
<polygon fill="green" stroke="green" stroke-width="0.36" points="832.3,-21.2 821.73,-21.88 830.42,-27.94 832.3,-21.2"/>
</g>
<!-- 46&#45;&gt;4 -->
<g id="edge65" class="edge">
<title>46&#45;&gt;4</title>
<path fill="none" stroke="red" stroke-width="0.47" d="M1232.22,-81.49C1218.72,-77.14 1200.12,-71.66 1183.33,-68.53 1006.99,-35.65 954.89,-77.89 781.33,-32.53 777.85,-31.62 774.27,-30.38 770.8,-29"/>
<polygon fill="red" stroke="red" stroke-width="0.47" points="772.07,-25.73 761.51,-24.9 769.24,-32.14 772.07,-25.73"/>
</g>
<!-- 46&#45;&gt;5 -->
<g id="edge66" class="edge">
<title>46&#45;&gt;5</title>
<path fill="none" stroke="green" stroke-width="0.41" d="M1234.22,-77.63C1228.64,-74.47 1222.33,-71.15 1216.33,-68.53 1192.32,-58.03 1122.54,-36.38 1084.6,-24.86"/>
<polygon fill="green" stroke="green" stroke-width="0.41" points="1085.4,-21.45 1074.81,-21.9 1083.37,-28.15 1085.4,-21.45"/>
</g>
<!-- 47&#45;&gt;0 -->
<g id="edge67" class="edge">
<title>47&#45;&gt;0</title>
<path fill="none" stroke="red" stroke-width="0.48" d="M633.06,-69.81C636.82,-60.93 641.39,-50.16 645.41,-40.68"/>
<polygon fill="red" stroke="red" stroke-width="0.48" points="648.66,-41.98 649.34,-31.41 642.21,-39.25 648.66,-41.98"/>
</g>
<!-- 47&#45;&gt;1 -->
<g id="edge68" class="edge">
<title>47&#45;&gt;1</title>
<path fill="none" stroke="green" stroke-width="0.36" d="M640.81,-75.53C644.98,-72.77 649.64,-70.18 654.33,-68.53 835.27,-4.96 895.64,-66.77 1084.33,-32.53 1093.84,-30.8 1104.09,-28.12 1113.07,-25.49"/>
<polygon fill="green" stroke="green" stroke-width="0.36" points="1114.39,-28.75 1122.92,-22.47 1112.34,-22.05 1114.39,-28.75"/>
</g>
<!-- 47&#45;&gt;2 -->
<g id="edge69" class="edge">
<title>47&#45;&gt;2</title>
<path fill="none" stroke="green" stroke-width="0.16" d="M641.26,-75.71C645.35,-73.01 649.86,-70.4 654.33,-68.53 728.39,-37.53 753.12,-50.59 831.33,-32.53 842.47,-29.96 854.71,-26.84 865.14,-24.09"/>
<polygon fill="green" stroke="green" stroke-width="0.16" points="866.1,-27.46 874.86,-21.5 864.3,-20.69 866.1,-27.46"/>
</g>
<!-- 47&#45;&gt;3 -->
<g id="edge70" class="edge">
<title>47&#45;&gt;3</title>
<path fill="none" stroke="red" stroke-width="0.14" d="M641.39,-76.01C645.48,-73.3 649.95,-70.61 654.33,-68.53 703.85,-44.97 721,-51.79 772.33,-32.53 775.71,-31.26 779.22,-29.82 782.66,-28.35"/>
<polygon fill="red" stroke="red" stroke-width="0.14" points="784.24,-31.48 791.94,-24.21 781.38,-25.08 784.24,-31.48"/>
</g>
<!-- 47&#45;&gt;4 -->
<g id="edge71" class="edge">
<title>47&#45;&gt;4</title>
<path fill="none" stroke="red" stroke-width="0.25" d="M641.73,-76.64C645.81,-73.91 650.19,-71.06 654.33,-68.53 677.65,-54.3 705.13,-39.37 724.15,-29.31"/>
<polygon fill="red" stroke="red" stroke-width="0.25" points="726.03,-32.28 733.25,-24.53 722.77,-26.08 726.03,-32.28"/>
</g>
<!-- 47&#45;&gt;5 -->
<g id="edge72" class="edge">
<title>47&#45;&gt;5</title>
<path fill="none" stroke="red" stroke-width="0.32" d="M641.16,-75.47C645.25,-72.78 649.79,-70.23 654.33,-68.53 672.19,-61.83 946.45,-30.14 1033.22,-20.23"/>
<polygon fill="red" stroke="red" stroke-width="0.32" points="1033.75,-23.69 1043.29,-19.08 1032.96,-16.74 1033.75,-23.69"/>
</g>
<!-- 48&#45;&gt;0 -->
<g id="edge73" class="edge">
<title>48&#45;&gt;0</title>
<path fill="none" stroke="green" stroke-width="0.12" d="M676.87,-69.81C673.32,-61.15 669.03,-50.67 665.21,-41.37"/>
<polygon fill="green" stroke="green" stroke-width="0.12" points="668.35,-39.79 661.32,-31.86 661.87,-42.44 668.35,-39.79"/>
</g>
<!-- 48&#45;&gt;1 -->
<g id="edge74" class="edge">
<title>48&#45;&gt;1</title>
<path fill="none" stroke="green" stroke-width="0.12" d="M699.82,-75.58C703.99,-72.81 708.65,-70.21 713.33,-68.53 869.27,-12.59 921.53,-63.18 1084.33,-32.53 1093.83,-30.74 1104.07,-28.05 1113.06,-25.42"/>
<polygon fill="green" stroke="green" stroke-width="0.12" points="1114.37,-28.68 1122.91,-22.42 1112.33,-21.98 1114.37,-28.68"/>
</g>
<!-- 48&#45;&gt;2 -->
<g id="edge75" class="edge">
<title>48&#45;&gt;2</title>
<path fill="none" stroke="green" stroke-width="0.33" d="M700.37,-75.96C704.46,-73.26 708.94,-70.58 713.33,-68.53 727.22,-62.04 819.45,-36.55 864.99,-24.14"/>
<polygon fill="green" stroke="green" stroke-width="0.33" points="865.99,-27.49 874.72,-21.49 864.15,-20.74 865.99,-27.49"/>
</g>
<!-- 48&#45;&gt;3 -->
<g id="edge76" class="edge">
<title>48&#45;&gt;3</title>
<path fill="none" stroke="red" stroke-width="0.38" d="M700.73,-76.64C704.81,-73.91 709.19,-71.06 713.33,-68.53 736.65,-54.3 764.13,-39.37 783.15,-29.31"/>
<polygon fill="red" stroke="red" stroke-width="0.38" points="785.03,-32.28 792.25,-24.53 781.77,-26.08 785.03,-32.28"/>
</g>
<!-- 48&#45;&gt;4 -->
<g id="edge77" class="edge">
<title>48&#45;&gt;4</title>
<path fill="none" stroke="green" stroke-width="0.5" d="M697.7,-73.02C707.11,-62.45 719.81,-48.18 730.01,-36.73"/>
<polygon fill="green" stroke="green" stroke-width="0.5" points="732.87,-38.78 736.9,-28.98 727.64,-34.12 732.87,-38.78"/>
</g>
<!-- 48&#45;&gt;5 -->
<g id="edge78" class="edge">
<title>48&#45;&gt;5</title>
<path fill="none" stroke="red" stroke-width="0.15" d="M700.19,-75.54C704.28,-72.84 708.81,-70.28 713.33,-68.53 743.09,-57 957.18,-29.85 1032.89,-20.5"/>
<polygon fill="red" stroke="red" stroke-width="0.15" points="1033.52,-23.95 1043.02,-19.25 1032.67,-17 1033.52,-23.95"/>
</g>
<!-- 49&#45;&gt;0 -->
<g id="edge79" class="edge">
<title>49&#45;&gt;0</title>
<path fill="none" stroke="green" stroke-width="0.24" d="M727.6,-75.38C713.09,-63.71 691.45,-46.31 675.64,-33.59"/>
<polygon fill="green" stroke="green" stroke-width="0.24" points="677.52,-30.61 667.53,-27.07 673.13,-36.07 677.52,-30.61"/>
</g>
<!-- 49&#45;&gt;1 -->
<g id="edge80" class="edge">
<title>49&#45;&gt;1</title>
<path fill="none" stroke="green" stroke-width="0.73" d="M759.15,-75.43C763.24,-72.74 767.78,-70.21 772.33,-68.53 903.29,-20.2 947.4,-59.6 1084.33,-32.53 1093.81,-30.65 1104.05,-27.94 1113.04,-25.32"/>
<polygon fill="green" stroke="green" stroke-width="0.73" points="1114.34,-28.58 1122.9,-22.34 1112.31,-21.88 1114.34,-28.58"/>
</g>
<!-- 49&#45;&gt;2 -->
<g id="edge81" class="edge">
<title>49&#45;&gt;2</title>
<path fill="none" stroke="green" stroke-width="0.37" d="M759.57,-76.36C763.65,-73.64 768.08,-70.86 772.33,-68.53 803.53,-51.44 841.58,-35.78 865.88,-26.37"/>
<polygon fill="green" stroke="green" stroke-width="0.37" points="867.3,-29.58 875.39,-22.74 864.8,-23.04 867.3,-29.58"/>
</g>
<!-- 49&#45;&gt;3 -->
<g id="edge82" class="edge">
<title>49&#45;&gt;3</title>
<path fill="none" stroke="red" stroke-width="0.32" d="M756.7,-73.02C766.11,-62.45 778.81,-48.18 789.01,-36.73"/>
<polygon fill="red" stroke="red" stroke-width="0.32" points="791.87,-38.78 795.9,-28.98 786.64,-34.12 791.87,-38.78"/>
</g>
<!-- 49&#45;&gt;4 -->
<g id="edge83" class="edge">
<title>49&#45;&gt;4</title>
<path fill="none" stroke="red" stroke-width="0.26" d="M744.45,-68.32C744.9,-60.38 745.42,-51.13 745.9,-42.69"/>
<polygon fill="red" stroke="red" stroke-width="0.26" points="749.4,-42.79 746.47,-32.61 742.41,-42.4 749.4,-42.79"/>
</g>
<!-- 49&#45;&gt;5 -->
<g id="edge84" class="edge">
<title>49&#45;&gt;5</title>
<path fill="none" stroke="green" stroke-width="0.38" d="M759.23,-75.63C763.32,-72.93 767.83,-70.35 772.33,-68.53 819.81,-49.32 971.54,-28.45 1033.06,-20.54"/>
<polygon fill="green" stroke="green" stroke-width="0.38" points="1033.64,-24 1043.12,-19.26 1032.76,-17.05 1033.64,-24"/>
</g>
<!-- 50&#45;&gt;0 -->
<g id="edge85" class="edge">
<title>50&#45;&gt;0</title>
<path fill="none" stroke="red" stroke-width="0.18" d="M786.1,-76.36C782.02,-73.64 777.59,-70.86 773.33,-68.53 742.14,-51.44 704.09,-35.78 679.79,-26.37"/>
<polygon fill="red" stroke="red" stroke-width="0.18" points="680.87,-23.04 670.28,-22.74 678.37,-29.58 680.87,-23.04"/>
</g>
<!-- 50&#45;&gt;1 -->
<g id="edge86" class="edge">
<title>50&#45;&gt;1</title>
<path fill="none" stroke="green" stroke-width="0.21" d="M818.18,-75.52C822.27,-72.83 826.8,-70.27 831.33,-68.53 937.36,-27.8 973.22,-56.03 1084.33,-32.53 1093.79,-30.53 1104.02,-27.79 1113.01,-25.18"/>
<polygon fill="green" stroke="green" stroke-width="0.21" points="1114.3,-28.45 1122.88,-22.23 1112.29,-21.74 1114.3,-28.45"/>
</g>
<!-- 50&#45;&gt;2 -->
<g id="edge87" class="edge">
<title>50&#45;&gt;2</title>
<path fill="none" stroke="red" stroke-width="0.18" d="M818.07,-75.38C832.58,-63.71 854.22,-46.31 870.03,-33.59"/>
<polygon fill="red" stroke="red" stroke-width="0.18" points="872.54,-36.07 878.14,-27.07 868.15,-30.61 872.54,-36.07"/>
</g>
<!-- 50&#45;&gt;3 -->
<g id="edge88" class="edge">
<title>50&#45;&gt;3</title>
<path fill="none" stroke="green" stroke-width="0.11" stroke-dasharray="1,5" d="M803.45,-68.32C803.9,-60.38 804.42,-51.13 804.9,-42.69"/>
<polygon fill="green" stroke="green" stroke-width="0.11" points="808.4,-42.79 805.47,-32.61 801.41,-42.4 808.4,-42.79"/>
</g>
<!-- 50&#45;&gt;4 -->
<g id="edge89" class="edge">
<title>50&#45;&gt;4</title>
<path fill="none" stroke="red" stroke-width="0.33" d="M790.13,-72.33C782.24,-62.17 771.88,-48.85 763.34,-37.85"/>
<polygon fill="red" stroke="red" stroke-width="0.33" points="765.85,-35.38 756.95,-29.64 760.32,-39.68 765.85,-35.38"/>
</g>
<!-- 50&#45;&gt;5 -->
<g id="edge90" class="edge">
<title>50&#45;&gt;5</title>
<path fill="none" stroke="red" stroke-width="0.29" d="M818.29,-75.77C822.37,-73.07 826.88,-70.45 831.33,-68.53 900.73,-38.64 989.81,-25.11 1033.22,-19.95"/>
<polygon fill="red" stroke="red" stroke-width="0.29" points="1033.69,-23.42 1043.23,-18.82 1032.9,-16.47 1033.69,-23.42"/>
</g>
<!-- 51&#45;&gt;0 -->
<g id="edge91" class="edge">
<title>51&#45;&gt;0</title>
<path fill="none" stroke="red" stroke-width="0.14" d="M845.3,-75.96C841.21,-73.26 836.73,-70.58 832.33,-68.53 805.15,-55.83 722.75,-34.21 680.67,-23.57"/>
<polygon fill="red" stroke="red" stroke-width="0.14" points="681.44,-20.15 670.89,-21.11 679.74,-26.94 681.44,-20.15"/>
</g>
<!-- 51&#45;&gt;1 -->
<g id="edge92" class="edge">
<title>51&#45;&gt;1</title>
<path fill="none" stroke="green" stroke-width="0.27" d="M877.24,-75.65C881.32,-72.96 885.84,-70.36 890.33,-68.53 971.52,-35.37 998.94,-52.47 1084.33,-32.53 1093.74,-30.33 1103.97,-27.54 1112.96,-24.95"/>
<polygon fill="green" stroke="green" stroke-width="0.27" points="1114.23,-28.23 1122.84,-22.05 1112.26,-21.51 1114.23,-28.23"/>
</g>
<!-- 51&#45;&gt;2 -->
<g id="edge93" class="edge">
<title>51&#45;&gt;2</title>
<path fill="none" stroke="red" stroke-width="0.25" d="M868.8,-69.81C872.35,-61.15 876.64,-50.67 880.46,-41.37"/>
<polygon fill="red" stroke="red" stroke-width="0.25" points="883.8,-42.44 884.35,-31.86 877.32,-39.79 883.8,-42.44"/>
</g>
<!-- 51&#45;&gt;3 -->
<g id="edge94" class="edge">
<title>51&#45;&gt;3</title>
<path fill="none" stroke="green" stroke-width="0.13" d="M849.13,-72.33C841.24,-62.17 830.88,-48.85 822.34,-37.85"/>
<polygon fill="green" stroke="green" stroke-width="0.13" points="824.85,-35.38 815.95,-29.64 819.32,-39.68 824.85,-35.38"/>
</g>
<!-- 51&#45;&gt;4 -->
<g id="edge95" class="edge">
<title>51&#45;&gt;4</title>
<path fill="none" stroke="green" stroke-width="0.25" d="M844.87,-76.75C840.8,-74.02 836.43,-71.14 832.33,-68.53 811.37,-55.16 787.03,-40.58 769.79,-30.4"/>
<polygon fill="green" stroke="green" stroke-width="0.25" points="771.4,-27.28 761.01,-25.23 767.85,-33.32 771.4,-27.28"/>
</g>
<!-- 51&#45;&gt;5 -->
<g id="edge96" class="edge">
<title>51&#45;&gt;5</title>
<path fill="none" stroke="red" stroke-width="0.41" d="M877.39,-76C881.47,-73.29 885.95,-70.61 890.33,-68.53 938.57,-45.62 999.39,-30.16 1033.35,-22.61"/>
<polygon fill="red" stroke="red" stroke-width="0.41" points="1034.35,-25.97 1043.38,-20.44 1032.86,-19.13 1034.35,-25.97"/>
</g>
<!-- 52&#45;&gt;0 -->
<g id="edge97" class="edge">
<title>52&#45;&gt;0</title>
<path fill="none" stroke="red" stroke-width="0.34" d="M904.4,-75.74C900.31,-73.04 895.8,-70.42 891.33,-68.53 820.63,-38.55 797.33,-49.06 722.33,-32.53 708.59,-29.5 693.29,-26.02 680.78,-23.15"/>
<polygon fill="red" stroke="red" stroke-width="0.34" points="681.55,-19.74 671.02,-20.9 679.98,-26.56 681.55,-19.74"/>
</g>
<!-- 52&#45;&gt;1 -->
<g id="edge98" class="edge">
<title>52&#45;&gt;1</title>
<path fill="none" stroke="green" stroke-width="0.22" d="M939.68,-81.75C979.23,-68.91 1069.32,-39.67 1113.28,-25.4"/>
<polygon fill="green" stroke="green" stroke-width="0.22" points="1114.48,-28.69 1122.91,-22.27 1112.32,-22.03 1114.48,-28.69"/>
</g>
<!-- 52&#45;&gt;2 -->
<g id="edge99" class="edge">
<title>52&#45;&gt;2</title>
<path fill="none" stroke="red" stroke-width="0.12" d="M912.61,-69.81C908.85,-60.93 904.28,-50.16 900.26,-40.68"/>
<polygon fill="red" stroke="red" stroke-width="0.12" points="903.46,-39.25 896.33,-31.41 897.01,-41.98 903.46,-39.25"/>
</g>
<!-- 52&#45;&gt;3 -->
<g id="edge100" class="edge">
<title>52&#45;&gt;3</title>
<path fill="none" stroke="red" stroke-width="0.52" d="M903.87,-76.75C899.8,-74.02 895.43,-71.14 891.33,-68.53 870.37,-55.16 846.03,-40.58 828.79,-30.4"/>
<polygon fill="red" stroke="red" stroke-width="0.52" points="830.4,-27.28 820.01,-25.23 826.85,-33.32 830.4,-27.28"/>
</g>
<!-- 52&#45;&gt;4 -->
<g id="edge101" class="edge">
<title>52&#45;&gt;4</title>
<path fill="none" stroke="red" stroke-width="0.32" d="M904.25,-76.07C900.16,-73.36 895.7,-70.66 891.33,-68.53 845.11,-45.96 829.31,-51.09 781.33,-32.53 777.97,-31.23 774.47,-29.77 771.04,-28.29"/>
<polygon fill="red" stroke="red" stroke-width="0.32" points="772.31,-25.02 761.75,-24.14 769.46,-31.41 772.31,-25.02"/>
</g>
<!-- 52&#45;&gt;5 -->
<g id="edge102" class="edge">
<title>52&#45;&gt;5</title>
<path fill="none" stroke="green" stroke-width="0.16" d="M938.22,-78.93C963.15,-66.24 1008.36,-43.22 1035.94,-29.18"/>
<polygon fill="green" stroke="green" stroke-width="0.16" points="1037.57,-32.27 1044.89,-24.62 1034.39,-26.04 1037.57,-32.27"/>
</g>
<!-- 53&#45;&gt;0 -->
<g id="edge103" class="edge">
<title>53&#45;&gt;0</title>
<path fill="none" stroke="red" stroke-width="0.35" d="M582.25,-75.38C596.93,-63.71 618.81,-46.31 634.8,-33.59"/>
<polygon fill="red" stroke="red" stroke-width="0.35" points="637.35,-36.04 643,-27.07 632.99,-30.56 637.35,-36.04"/>
</g>
<!-- 53&#45;&gt;1 -->
<g id="edge104" class="edge">
<title>53&#45;&gt;1</title>
<path fill="none" stroke="green" stroke-width="0.64" d="M581.8,-75.5C585.97,-72.74 590.63,-70.15 595.33,-68.53 801.3,2.67 869.72,-70.36 1084.33,-32.53 1093.85,-30.85 1104.1,-28.18 1113.08,-25.54"/>
<polygon fill="green" stroke="green" stroke-width="0.64" points="1114.4,-28.8 1122.93,-22.52 1112.34,-22.11 1114.4,-28.8"/>
</g>
<!-- 53&#45;&gt;2 -->
<g id="edge105" class="edge">
<title>53&#45;&gt;2</title>
<path fill="none" stroke="green" stroke-width="0.21" d="M582.2,-75.55C586.28,-72.86 590.81,-70.29 595.33,-68.53 694.19,-29.99 727.4,-53.84 831.33,-32.53 842.53,-30.23 854.78,-27.16 865.2,-24.37"/>
<polygon fill="green" stroke="green" stroke-width="0.21" points="866.18,-27.73 874.91,-21.71 864.34,-20.98 866.18,-27.73"/>
</g>
<!-- 53&#45;&gt;3 -->
<g id="edge106" class="edge">
<title>53&#45;&gt;3</title>
<path fill="none" stroke="red" stroke-width="0.24" d="M582.26,-75.71C586.35,-73.01 590.86,-70.4 595.33,-68.53 669.39,-37.53 695.92,-57.12 772.33,-32.53 775.76,-31.42 779.31,-30.08 782.76,-28.65"/>
<polygon fill="red" stroke="red" stroke-width="0.24" points="784.33,-31.78 792.05,-24.52 781.49,-25.38 784.33,-31.78"/>
</g>
<!-- 53&#45;&gt;4 -->
<g id="edge107" class="edge">
<title>53&#45;&gt;4</title>
<path fill="none" stroke="red" stroke-width="0.44" d="M582.44,-76.1C586.52,-73.39 590.98,-70.68 595.33,-68.53 637.77,-47.57 690.86,-31.84 721.75,-23.64"/>
<polygon fill="red" stroke="red" stroke-width="0.44" points="722.9,-26.96 731.7,-21.06 721.14,-20.18 722.9,-26.96"/>
</g>
<!-- 53&#45;&gt;5 -->
<g id="edge108" class="edge">
<title>53&#45;&gt;5</title>
<path fill="none" stroke="green" stroke-width="0.26" d="M582.15,-75.42C586.24,-72.73 590.78,-70.2 595.33,-68.53 600.54,-66.62 935.85,-30.52 1033.14,-20.07"/>
<polygon fill="green" stroke="green" stroke-width="0.26" points="1033.73,-23.53 1043.3,-18.98 1032.98,-16.57 1033.73,-23.53"/>
</g>
<!-- 54&#45;&gt;0 -->
<g id="edge109" class="edge">
<title>54&#45;&gt;0</title>
<path fill="none" stroke="red" stroke-width="0.12" d="M1074.07,-85.22C1006.82,-75.84 791.32,-45.51 722.33,-32.53 708.5,-29.92 693.19,-26.48 680.7,-23.52"/>
<polygon fill="red" stroke="red" stroke-width="0.12" points="681.51,-20.11 670.97,-21.18 679.87,-26.92 681.51,-20.11"/>
</g>
<!-- 54&#45;&gt;1 -->
<g id="edge110" class="edge">
<title>54&#45;&gt;1</title>
<path fill="none" stroke="green" stroke-width="0.23" d="M1104.76,-71.26C1110.74,-61.65 1118.3,-49.48 1124.74,-39.13"/>
<polygon fill="green" stroke="green" stroke-width="0.23" points="1127.73,-40.95 1130.04,-30.61 1121.79,-37.25 1127.73,-40.95"/>
</g>
<!-- 54&#45;&gt;2 -->
<g id="edge111" class="edge">
<title>54&#45;&gt;2</title>
<path fill="none" stroke="red" stroke-width="0.3" d="M1075.14,-81.38C1037.93,-68.47 956.01,-40.05 914.89,-25.78"/>
<polygon fill="red" stroke="red" stroke-width="0.3" points="915.97,-22.45 905.37,-22.48 913.67,-29.06 915.97,-22.45"/>
</g>
<!-- 54&#45;&gt;3 -->
<g id="edge112" class="edge">
<title>54&#45;&gt;3</title>
<path fill="none" stroke="green" stroke-width="0.26" d="M1074.55,-82.55C1059.89,-78.54 1039.41,-73.03 1021.33,-68.53 952.29,-51.34 934.45,-49.44 865.33,-32.53 854.24,-29.81 842,-26.67 831.56,-23.95"/>
<polygon fill="green" stroke="green" stroke-width="0.26" points="832.4,-20.55 821.83,-21.39 830.62,-27.32 832.4,-20.55"/>
</g>
<!-- 54&#45;&gt;4 -->
<g id="edge113" class="edge">
<title>54&#45;&gt;4</title>
<path fill="none" stroke="red" stroke-width="0.47" d="M1073.88,-85.08C1013.53,-76.26 836.98,-49.66 781.33,-32.53 777.89,-31.47 774.34,-30.15 770.88,-28.73"/>
<polygon fill="red" stroke="red" stroke-width="0.47" points="772.15,-25.46 761.59,-24.61 769.31,-31.86 772.15,-25.46"/>
</g>
<!-- 54&#45;&gt;5 -->
<g id="edge114" class="edge">
<title>54&#45;&gt;5</title>
<path fill="none" stroke="green" stroke-width="0.49" d="M1085.5,-70.17C1081.01,-61.08 1075.49,-49.93 1070.68,-40.21"/>
<polygon fill="green" stroke="green" stroke-width="0.49" points="1073.75,-38.51 1066.18,-31.1 1067.47,-41.61 1073.75,-38.51"/>
</g>
<!-- 55&#45;&gt;0 -->
<g id="edge115" class="edge">
<title>55&#45;&gt;0</title>
<path fill="none" stroke="red" stroke-width="0.37" d="M1137.85,-75.55C1133.68,-72.79 1129.02,-70.19 1124.33,-68.53 955.26,-8.58 899.52,-60.51 722.33,-32.53 708.43,-30.33 693.12,-26.92 680.64,-23.88"/>
<polygon fill="red" stroke="red" stroke-width="0.37" points="681.47,-20.48 670.92,-21.44 679.77,-27.27 681.47,-20.48"/>
</g>
<!-- 55&#45;&gt;1 -->
<g id="edge116" class="edge">
<title>55&#45;&gt;1</title>
<path fill="none" stroke="green" stroke-width="0.26" d="M1149.24,-68.69C1147.51,-60.55 1145.48,-50.96 1143.64,-42.29"/>
<polygon fill="green" stroke="green" stroke-width="0.26" points="1147.02,-41.37 1141.52,-32.32 1140.17,-42.82 1147.02,-41.37"/>
</g>
<!-- 55&#45;&gt;2 -->
<g id="edge117" class="edge">
<title>55&#45;&gt;2</title>
<path fill="none" stroke="green" stroke-width="0.53" d="M1137.39,-75.76C1133.3,-73.05 1128.8,-70.43 1124.33,-68.53 1052.79,-37.95 960.85,-24.69 916.53,-19.76"/>
<polygon fill="green" stroke="green" stroke-width="0.53" points="916.89,-16.28 906.58,-18.71 916.15,-23.24 916.89,-16.28"/>
</g>
<!-- 55&#45;&gt;3 -->
<g id="edge118" class="edge">
<title>55&#45;&gt;3</title>
<path fill="none" stroke="green" stroke-width="0.33" d="M1137.49,-75.51C1133.4,-72.81 1128.87,-70.26 1124.33,-68.53 1015.78,-27.03 979.34,-55.12 865.33,-32.53 854.13,-30.31 841.87,-27.24 831.45,-24.44"/>
<polygon fill="green" stroke="green" stroke-width="0.33" points="832.32,-21.05 821.75,-21.77 830.46,-27.8 832.32,-21.05"/>
</g>
<!-- 55&#45;&gt;4 -->
<g id="edge119" class="edge">
<title>55&#45;&gt;4</title>
<path fill="none" stroke="red" stroke-width="0.27" d="M1137.84,-75.6C1133.67,-72.84 1129.01,-70.23 1124.33,-68.53 980.26,-16.21 929.34,-72.42 781.33,-32.53 777.86,-31.59 774.28,-30.34 770.82,-28.95"/>
<polygon fill="red" stroke="red" stroke-width="0.27" points="772.08,-25.68 761.52,-24.85 769.25,-32.09 772.08,-25.68"/>
</g>
<!-- 55&#45;&gt;5 -->
<g id="edge120" class="edge">
<title>55&#45;&gt;5</title>
<path fill="none" stroke="red" stroke-width="0.34" d="M1137.39,-76.03C1121.69,-64.21 1097.62,-46.09 1080.36,-33.09"/>
<polygon fill="red" stroke="red" stroke-width="0.34" points="1082.13,-30.04 1072.04,-26.83 1077.92,-35.64 1082.13,-30.04"/>
</g>
</g>
</svg>
