<?xml version="1.0" encoding="UTF-8" standalone="no"?>
<!DOCTYPE svg PUBLIC "-//W3C//DTD SVG 1.1//EN"
 "http://www.w3.org/Graphics/SVG/1.1/DTD/svg11.dtd">
<!-- Generated by graphviz version 2.44.0 (0)
 -->
<!-- Pages: 1 -->
<svg width="2542pt" height="249pt"
 viewBox="0.00 0.00 2541.84 248.55" xmlns="http://www.w3.org/2000/svg" xmlns:xlink="http://www.w3.org/1999/xlink">
<g id="graph0" class="graph" transform="scale(1 1) rotate(0) translate(4 244.55)">
<polygon fill="white" stroke="transparent" points="-4,4 -4,-244.55 2537.84,-244.55 2537.84,4 -4,4"/>
<!-- &#45;1 -->
<g id="node1" class="node">
<title>&#45;1</title>
<polygon fill="lightgray" stroke="black" points="1008.18,-240.55 982.18,-240.55 982.18,-222.55 1008.18,-222.55 1008.18,-240.55"/>
<text text-anchor="middle" x="995.18" y="-229.35" font-family="Times-Roman" font-size="9.00">&#45;1</text>
</g>
<!-- 0 -->
<g id="node5" class="node">
<title>0</title>
<ellipse fill="lightblue" stroke="black" cx="952.18" cy="-16.26" rx="16.03" ry="16.03"/>
<text text-anchor="middle" x="952.18" y="-14.06" font-family="Times-Roman" font-size="9.00">0</text>
</g>
<!-- &#45;1&#45;&gt;0 -->
<g id="edge121" class="edge">
<title>&#45;1&#45;&gt;0</title>
<path fill="none" stroke="red" stroke-width="0.1" d="M981.93,-230.43C867.91,-229.32 55.8,-220.26 18.18,-186.55 -7.62,-163.43 8.86,-144.08 6.18,-109.54 4.78,-91.37 -6.35,-81.76 6.18,-68.53 38.67,-34.23 774.79,-20.2 925.41,-17.69"/>
<polygon fill="red" stroke="red" stroke-width="0.1" points="925.66,-21.18 935.6,-17.52 925.54,-14.19 925.66,-21.18"/>
</g>
<!-- 1 -->
<g id="node6" class="node">
<title>1</title>
<ellipse fill="lightblue" stroke="black" cx="1004.18" cy="-16.26" rx="16.03" ry="16.03"/>
<text text-anchor="middle" x="1004.18" y="-14.06" font-family="Times-Roman" font-size="9.00">1</text>
</g>
<!-- &#45;1&#45;&gt;1 -->
<g id="edge122" class="edge">
<title>&#45;1&#45;&gt;1</title>
<path fill="none" stroke="green" stroke-width="0.58" d="M981.89,-230.45C869.26,-229.57 78.1,-222.08 44.18,-186.55 -27.41,-111.57 85.13,-92.66 158.18,-68.53 331.17,-11.39 802.06,-82.74 977.18,-32.53 978.86,-32.05 980.54,-31.45 982.2,-30.76"/>
<polygon fill="green" stroke="green" stroke-width="0.58" points="983.92,-33.81 991.28,-26.19 980.77,-27.56 983.92,-33.81"/>
</g>
<!-- 2 -->
<g id="node7" class="node">
<title>2</title>
<ellipse fill="lightblue" stroke="black" cx="1056.18" cy="-16.26" rx="16.03" ry="16.03"/>
<text text-anchor="middle" x="1056.18" y="-14.06" font-family="Times-Roman" font-size="9.00">2</text>
</g>
<!-- &#45;1&#45;&gt;2 -->
<g id="edge123" class="edge">
<title>&#45;1&#45;&gt;2</title>
<path fill="none" stroke="red" stroke-width="0.15" d="M981.95,-230.4C874.73,-229.11 151.24,-219.2 120.18,-186.55 107.62,-173.34 110.64,-161.07 120.18,-145.54 159.83,-81.01 198.96,-87.87 272.18,-68.53 597.84,17.49 705.57,-125.94 1029.18,-32.53 1030.86,-32.04 1032.54,-31.44 1034.19,-30.75"/>
<polygon fill="red" stroke="red" stroke-width="0.15" points="1035.92,-33.8 1043.27,-26.18 1032.77,-27.55 1035.92,-33.8"/>
</g>
<!-- 3 -->
<g id="node8" class="node">
<title>3</title>
<ellipse fill="lightblue" stroke="black" cx="1496.18" cy="-16.26" rx="16.03" ry="16.03"/>
<text text-anchor="middle" x="1496.18" y="-14.06" font-family="Times-Roman" font-size="9.00">3</text>
</g>
<!-- &#45;1&#45;&gt;3 -->
<g id="edge124" class="edge">
<title>&#45;1&#45;&gt;3</title>
<path fill="none" stroke="green" stroke-width="0.19" d="M1008.27,-229.75C1093.86,-224.48 1570.74,-194.76 1583.18,-186.55 1629.41,-156.05 1654.16,-114.44 1623.18,-68.53 1600.8,-35.35 1552.94,-23.64 1522.79,-19.51"/>
<polygon fill="green" stroke="green" stroke-width="0.19" points="1522.9,-16 1512.56,-18.3 1522.08,-22.95 1522.9,-16"/>
</g>
<!-- 4 -->
<g id="node9" class="node">
<title>4</title>
<ellipse fill="lightblue" stroke="black" cx="1445.18" cy="-16.26" rx="16.03" ry="16.03"/>
<text text-anchor="middle" x="1445.18" y="-14.06" font-family="Times-Roman" font-size="9.00">4</text>
</g>
<!-- &#45;1&#45;&gt;4 -->
<g id="edge125" class="edge">
<title>&#45;1&#45;&gt;4</title>
<path fill="none" stroke="green" stroke-width="0.42" stroke-dasharray="1,5" d="M1008.32,-229.79C1089.29,-225.07 1517.84,-199.55 1542.18,-186.55 1594.27,-158.73 1639.03,-115.45 1603.18,-68.53 1566.27,-20.2 1527.23,-56.13 1471.18,-32.53 1469.96,-32.01 1468.73,-31.45 1467.5,-30.86"/>
<polygon fill="green" stroke="green" stroke-width="0.42" points="1468.79,-27.57 1458.33,-25.89 1465.45,-33.73 1468.79,-27.57"/>
</g>
<!-- 5 -->
<g id="node10" class="node">
<title>5</title>
<ellipse fill="lightblue" stroke="black" cx="1340.18" cy="-16.26" rx="16.03" ry="16.03"/>
<text text-anchor="middle" x="1340.18" y="-14.06" font-family="Times-Roman" font-size="9.00">5</text>
</g>
<!-- &#45;1&#45;&gt;5 -->
<g id="edge126" class="edge">
<title>&#45;1&#45;&gt;5</title>
<path fill="none" stroke="green" stroke-width="0.56" d="M1008.48,-228.48C1070.24,-218.58 1327.8,-173.78 1370.18,-109.54 1384.91,-87.23 1369.85,-57.12 1356.27,-37.45"/>
<polygon fill="green" stroke="green" stroke-width="0.56" points="1358.98,-35.22 1350.25,-29.22 1353.33,-39.36 1358.98,-35.22"/>
</g>
<!-- 6 -->
<g id="node11" class="node">
<title>6</title>
<ellipse fill="lightblue" stroke="black" cx="1125.18" cy="-16.26" rx="16.03" ry="16.03"/>
<text text-anchor="middle" x="1125.18" y="-14.06" font-family="Times-Roman" font-size="9.00">6</text>
</g>
<!-- &#45;1&#45;&gt;6 -->
<g id="edge127" class="edge">
<title>&#45;1&#45;&gt;6</title>
<path fill="none" stroke="green" stroke-width="0.28" stroke-dasharray="1,5" d="M982.16,-230.45C903.72,-229.73 496.15,-224.19 457.18,-186.55 419.34,-150 412.06,-106.77 448.18,-68.53 496.56,-17.32 1012.08,-46.2 1081.18,-32.53 1087.74,-31.23 1094.65,-29.18 1101.01,-26.99"/>
<polygon fill="green" stroke="green" stroke-width="0.28" points="1102.22,-30.28 1110.4,-23.54 1099.81,-23.71 1102.22,-30.28"/>
</g>
<!-- 7 -->
<g id="node12" class="node">
<title>7</title>
<ellipse fill="lightblue" stroke="black" cx="1393.18" cy="-16.26" rx="16.03" ry="16.03"/>
<text text-anchor="middle" x="1393.18" y="-14.06" font-family="Times-Roman" font-size="9.00">7</text>
</g>
<!-- &#45;1&#45;&gt;7 -->
<g id="edge128" class="edge">
<title>&#45;1&#45;&gt;7</title>
<path fill="none" stroke="red" stroke-width="0.37" d="M1008.64,-229.85C1083.6,-225.86 1448.08,-205.63 1494.18,-186.55 1543.45,-166.16 1563.62,-157.85 1586.18,-109.54 1593.9,-93.02 1597.63,-82.72 1586.18,-68.53 1538.8,-9.76 1490.73,-59.41 1420.18,-32.53 1418.74,-31.98 1417.27,-31.36 1415.82,-30.69"/>
<polygon fill="red" stroke="red" stroke-width="0.37" points="1417.02,-27.37 1406.53,-25.86 1413.79,-33.58 1417.02,-27.37"/>
</g>
<!-- 96 -->
<g id="node13" class="node">
<title>96</title>
<ellipse fill="white" stroke="black" cx="1144.18" cy="-89.03" rx="20.51" ry="20.51"/>
<text text-anchor="middle" x="1144.18" y="-86.83" font-family="Times-Roman" font-size="9.00">96</text>
</g>
<!-- &#45;1&#45;&gt;96 -->
<g id="edge9" class="edge">
<title>&#45;1&#45;&gt;96</title>
<path fill="none" stroke="red" stroke-width="0.2" d="M981.97,-230.04C957.06,-228.29 903.57,-220.54 880.18,-186.55 869.85,-171.54 868.7,-159.69 880.18,-145.54 883.9,-140.95 1045.66,-109.13 1114.1,-95.84"/>
<polygon fill="red" stroke="red" stroke-width="0.2" points="1115.1,-99.22 1124.25,-93.88 1113.76,-92.35 1115.1,-99.22"/>
</g>
<!-- 97 -->
<g id="node14" class="node">
<title>97</title>
<ellipse fill="white" stroke="black" cx="949.18" cy="-89.03" rx="20.51" ry="20.51"/>
<text text-anchor="middle" x="949.18" y="-86.83" font-family="Times-Roman" font-size="9.00">97</text>
</g>
<!-- &#45;1&#45;&gt;97 -->
<g id="edge10" class="edge">
<title>&#45;1&#45;&gt;97</title>
<path fill="none" stroke="green" stroke-width="0.21" d="M982.17,-230.05C918.22,-227.48 639.27,-214.7 614.18,-186.55 602.06,-172.94 602.07,-159.16 614.18,-145.54 659.68,-94.37 855.97,-133.31 920.18,-109.54 921.61,-109.01 923.03,-108.4 924.43,-107.73"/>
<polygon fill="green" stroke="green" stroke-width="0.21" points="926.42,-110.63 933.36,-102.63 922.95,-104.55 926.42,-110.63"/>
</g>
<!-- 88 -->
<g id="node15" class="node">
<title>88</title>
<ellipse fill="white" stroke="black" cx="1095.18" cy="-166.05" rx="20.51" ry="20.51"/>
<text text-anchor="middle" x="1095.18" y="-163.85" font-family="Times-Roman" font-size="9.00">88</text>
</g>
<!-- &#45;1&#45;&gt;88 -->
<g id="edge1" class="edge">
<title>&#45;1&#45;&gt;88</title>
<path fill="none" stroke="red" stroke-width="0.42" d="M1007.85,-222.51C1023.34,-212.67 1049.96,-195.77 1069.74,-183.2"/>
<polygon fill="red" stroke="red" stroke-width="0.42" points="1071.72,-186.09 1078.29,-177.78 1067.97,-180.18 1071.72,-186.09"/>
</g>
<!-- 89 -->
<g id="node16" class="node">
<title>89</title>
<ellipse fill="white" stroke="black" cx="1340.18" cy="-89.03" rx="20.51" ry="20.51"/>
<text text-anchor="middle" x="1340.18" y="-86.83" font-family="Times-Roman" font-size="9.00">89</text>
</g>
<!-- &#45;1&#45;&gt;89 -->
<g id="edge2" class="edge">
<title>&#45;1&#45;&gt;89</title>
<path fill="none" stroke="red" stroke-width="0.45" d="M1008.22,-226.51C1031.77,-219.13 1082.9,-202.72 1125.18,-186.55 1206.46,-155.47 1227.07,-147.89 1305.18,-109.54 1308.12,-108.1 1311.16,-106.53 1314.16,-104.93"/>
<polygon fill="red" stroke="red" stroke-width="0.45" points="1315.84,-108 1322.93,-100.12 1312.48,-101.86 1315.84,-108"/>
</g>
<!-- 90 -->
<g id="node17" class="node">
<title>90</title>
<ellipse fill="white" stroke="black" cx="1242.18" cy="-89.03" rx="20.51" ry="20.51"/>
<text text-anchor="middle" x="1242.18" y="-86.83" font-family="Times-Roman" font-size="9.00">90</text>
</g>
<!-- &#45;1&#45;&gt;90 -->
<g id="edge3" class="edge">
<title>&#45;1&#45;&gt;90</title>
<path fill="none" stroke="red" stroke-width="0.87" d="M999.65,-222.44C1009.33,-205.58 1033.95,-166.58 1065.18,-145.54 1071.48,-141.3 1164.55,-113.18 1213.14,-98.67"/>
<polygon fill="red" stroke="red" stroke-width="0.87" points="1214.2,-102.01 1222.78,-95.79 1212.2,-95.3 1214.2,-102.01"/>
</g>
<!-- 91 -->
<g id="node18" class="node">
<title>91</title>
<ellipse fill="white" stroke="black" cx="1008.18" cy="-89.03" rx="20.51" ry="20.51"/>
<text text-anchor="middle" x="1008.18" y="-86.83" font-family="Times-Roman" font-size="9.00">91</text>
</g>
<!-- &#45;1&#45;&gt;91 -->
<g id="edge4" class="edge">
<title>&#45;1&#45;&gt;91</title>
<path fill="none" stroke="red" stroke-width="0.19" d="M982.08,-230.75C919.39,-231.27 656.17,-228.62 728.18,-145.54 765.09,-102.96 926.59,-129.77 979.18,-109.54 980.6,-108.99 982.02,-108.37 983.42,-107.69"/>
<polygon fill="red" stroke="red" stroke-width="0.19" points="985.42,-110.57 992.33,-102.54 981.92,-104.51 985.42,-110.57"/>
</g>
<!-- 92 -->
<g id="node19" class="node">
<title>92</title>
<ellipse fill="white" stroke="black" cx="1438.18" cy="-89.03" rx="20.51" ry="20.51"/>
<text text-anchor="middle" x="1438.18" y="-86.83" font-family="Times-Roman" font-size="9.00">92</text>
</g>
<!-- &#45;1&#45;&gt;92 -->
<g id="edge5" class="edge">
<title>&#45;1&#45;&gt;92</title>
<path fill="none" stroke="green" stroke-width="0.36" d="M1008.29,-229.8C1072.72,-225.99 1354.14,-208.21 1386.18,-186.55 1409.43,-170.84 1423.15,-141.22 1430.6,-118.91"/>
<polygon fill="green" stroke="green" stroke-width="0.36" points="1433.98,-119.85 1433.6,-109.26 1427.29,-117.77 1433.98,-119.85"/>
</g>
<!-- 93 -->
<g id="node20" class="node">
<title>93</title>
<ellipse fill="white" stroke="black" cx="1556.18" cy="-89.03" rx="20.51" ry="20.51"/>
<text text-anchor="middle" x="1556.18" y="-86.83" font-family="Times-Roman" font-size="9.00">93</text>
</g>
<!-- &#45;1&#45;&gt;93 -->
<g id="edge6" class="edge">
<title>&#45;1&#45;&gt;93</title>
<path fill="none" stroke="red" stroke-width="0.38" d="M1008.43,-229.78C1079.17,-225.61 1410.65,-205.2 1452.18,-186.55 1488.01,-170.47 1519.55,-136.98 1538.24,-114.01"/>
<polygon fill="red" stroke="red" stroke-width="0.38" points="1541.07,-116.08 1544.53,-106.07 1535.58,-111.74 1541.07,-116.08"/>
</g>
<!-- 94 -->
<g id="node21" class="node">
<title>94</title>
<ellipse fill="white" stroke="black" cx="1497.18" cy="-89.03" rx="20.51" ry="20.51"/>
<text text-anchor="middle" x="1497.18" y="-86.83" font-family="Times-Roman" font-size="9.00">94</text>
</g>
<!-- &#45;1&#45;&gt;94 -->
<g id="edge7" class="edge">
<title>&#45;1&#45;&gt;94</title>
<path fill="none" stroke="red" stroke-width="0.26" d="M1008.3,-229.77C1075.49,-225.67 1379.27,-206.16 1416.18,-186.55 1445.9,-170.76 1469.15,-139.11 1482.97,-116.35"/>
<polygon fill="red" stroke="red" stroke-width="0.26" points="1486.11,-117.91 1488.14,-107.51 1480.07,-114.38 1486.11,-117.91"/>
</g>
<!-- 95 -->
<g id="node22" class="node">
<title>95</title>
<ellipse fill="white" stroke="black" cx="890.18" cy="-89.03" rx="20.51" ry="20.51"/>
<text text-anchor="middle" x="890.18" y="-86.83" font-family="Times-Roman" font-size="9.00">95</text>
</g>
<!-- &#45;1&#45;&gt;95 -->
<g id="edge8" class="edge">
<title>&#45;1&#45;&gt;95</title>
<path fill="none" stroke="red" stroke-width="0.52" d="M982.1,-230.58C900.49,-230.62 463.36,-228.87 424.18,-186.55 411.8,-173.18 412.08,-159.17 424.18,-145.54 453.16,-112.91 759.95,-96.02 859.31,-91.38"/>
<polygon fill="red" stroke="red" stroke-width="0.52" points="859.76,-94.86 869.59,-90.91 859.44,-87.87 859.76,-94.86"/>
</g>
<!-- &#45;2 -->
<g id="node2" class="node">
<title>&#45;2</title>
<polygon fill="lightgray" stroke="black" points="1651.18,-240.55 1625.18,-240.55 1625.18,-222.55 1651.18,-222.55 1651.18,-240.55"/>
<text text-anchor="middle" x="1638.18" y="-229.35" font-family="Times-Roman" font-size="9.00">&#45;2</text>
</g>
<!-- &#45;2&#45;&gt;0 -->
<g id="edge129" class="edge">
<title>&#45;2&#45;&gt;0</title>
<path fill="none" stroke="red" stroke-width="0.28" d="M1625.02,-230.33C1522.84,-228.56 859.48,-215.92 830.18,-186.55 793.12,-149.39 796.89,-112.07 826.18,-68.53 848.37,-35.54 895.86,-23.77 925.78,-19.58"/>
<polygon fill="red" stroke="red" stroke-width="0.28" points="926.42,-23.03 935.93,-18.35 925.58,-16.08 926.42,-23.03"/>
</g>
<!-- &#45;2&#45;&gt;1 -->
<g id="edge130" class="edge">
<title>&#45;2&#45;&gt;1</title>
<path fill="none" stroke="red" stroke-width="0.15" d="M1625.01,-230.25C1525.5,-227.93 895.35,-212.23 865.18,-186.55 824.83,-152.2 816.14,-110.74 848.18,-68.53 884.17,-21.12 922.21,-55.34 977.18,-32.53 978.61,-31.93 980.06,-31.28 981.51,-30.59"/>
<polygon fill="red" stroke="red" stroke-width="0.15" points="983.57,-33.46 990.77,-25.69 980.3,-27.27 983.57,-33.46"/>
</g>
<!-- &#45;2&#45;&gt;2 -->
<g id="edge131" class="edge">
<title>&#45;2&#45;&gt;2</title>
<path fill="none" stroke="red" stroke-width="0.58" d="M1625.02,-230.36C1533.2,-228.93 990.08,-219.17 925.18,-186.55 871.68,-159.66 822.51,-115.07 860.18,-68.53 908.5,-8.83 957.37,-59.74 1029.18,-32.53 1030.63,-31.98 1032.09,-31.36 1033.55,-30.7"/>
<polygon fill="red" stroke="red" stroke-width="0.58" points="1035.58,-33.59 1042.84,-25.87 1032.35,-27.37 1035.58,-33.59"/>
</g>
<!-- &#45;2&#45;&gt;3 -->
<g id="edge132" class="edge">
<title>&#45;2&#45;&gt;3</title>
<path fill="none" stroke="red" stroke-width="0.45" d="M1651.27,-230.41C1758.88,-229.2 2494.63,-219.71 2526.18,-186.55 2538.75,-173.35 2533.1,-162.4 2526.18,-145.54 2507.93,-101.05 2494.04,-88.26 2450.18,-68.53 2363.58,-29.55 1668.34,-19.28 1522.83,-17.55"/>
<polygon fill="red" stroke="red" stroke-width="0.45" points="1522.64,-14.05 1512.6,-17.43 1522.55,-21.05 1522.64,-14.05"/>
</g>
<!-- &#45;2&#45;&gt;4 -->
<g id="edge133" class="edge">
<title>&#45;2&#45;&gt;4</title>
<path fill="none" stroke="red" stroke-width="0.25" d="M1651.37,-230.38C1756.68,-228.95 2458.07,-218.26 2488.18,-186.55 2500.74,-173.33 2496.74,-161.64 2488.18,-145.54 2481.01,-132.04 2388.71,-73.29 2374.18,-68.53 2183.36,-5.93 1663.89,-89.06 1471.18,-32.53 1469.91,-32.15 1468.64,-31.71 1467.37,-31.2"/>
<polygon fill="red" stroke="red" stroke-width="0.25" points="1468.61,-27.9 1458.1,-26.52 1465.45,-34.15 1468.61,-27.9"/>
</g>
<!-- &#45;2&#45;&gt;5 -->
<g id="edge134" class="edge">
<title>&#45;2&#45;&gt;5</title>
<path fill="none" stroke="green" stroke-width="0.34" d="M1651.24,-230.72C1739.96,-231.75 2252.34,-235.56 2298.18,-186.55 2310.64,-173.24 2310.35,-159.11 2298.18,-145.54 2249.24,-90.93 2042.9,-118.95 1970.18,-109.54 1847.63,-93.68 1817.73,-84.41 1695.18,-68.53 1550.18,-49.74 1507.67,-76.35 1368.18,-32.53 1366.28,-31.93 1364.36,-31.2 1362.47,-30.38"/>
<polygon fill="green" stroke="green" stroke-width="0.34" points="1363.89,-27.18 1353.38,-25.83 1360.75,-33.44 1363.89,-27.18"/>
</g>
<!-- &#45;2&#45;&gt;6 -->
<g id="edge135" class="edge">
<title>&#45;2&#45;&gt;6</title>
<path fill="none" stroke="red" stroke-width="0.4" d="M1651.37,-230.57C1732.65,-230.52 2163.54,-228.32 2202.18,-186.55 2214.56,-173.17 2214.61,-158.88 2202.18,-145.54 2163.69,-104.22 1750.35,-121.61 1695.18,-109.54 1644.62,-98.48 1636.52,-80.59 1586.18,-68.53 1502.35,-48.43 1236.26,-26.09 1151.44,-19.32"/>
<polygon fill="red" stroke="red" stroke-width="0.4" points="1151.6,-15.82 1141.36,-18.52 1151.05,-22.8 1151.6,-15.82"/>
</g>
<!-- &#45;2&#45;&gt;7 -->
<g id="edge136" class="edge">
<title>&#45;2&#45;&gt;7</title>
<path fill="none" stroke="green" stroke-width="0.3" d="M1651.42,-230.35C1754.22,-228.69 2421.51,-216.82 2450.18,-186.55 2462.72,-173.32 2462,-159.42 2450.18,-145.54 2415.46,-104.74 2027.42,-74.55 1974.18,-68.53 1729.01,-40.79 1656.64,-103.01 1420.18,-32.53 1418.7,-32.08 1417.21,-31.55 1415.73,-30.95"/>
<polygon fill="green" stroke="green" stroke-width="0.3" points="1416.9,-27.62 1406.38,-26.29 1413.77,-33.88 1416.9,-27.62"/>
</g>
<!-- &#45;2&#45;&gt;96 -->
<g id="edge19" class="edge">
<title>&#45;2&#45;&gt;96</title>
<path fill="none" stroke="red" stroke-width="0.27" d="M1625.02,-229.17C1587.57,-225.03 1477.48,-211.47 1389.18,-186.55 1307.99,-163.63 1216.54,-123.6 1171.82,-103.04"/>
<polygon fill="red" stroke="red" stroke-width="0.27" points="1173.04,-99.75 1162.49,-98.72 1170.1,-106.1 1173.04,-99.75"/>
</g>
<!-- &#45;2&#45;&gt;97 -->
<g id="edge20" class="edge">
<title>&#45;2&#45;&gt;97</title>
<path fill="none" stroke="green" stroke-width="0.2" d="M1625.02,-230.24C1540.86,-228.18 1079.97,-215.61 1025.18,-186.55 996.37,-171.27 974.86,-139.8 962.21,-116.94"/>
<polygon fill="green" stroke="green" stroke-width="0.2" points="965.27,-115.24 957.49,-108.04 959.09,-118.52 965.27,-115.24"/>
</g>
<!-- &#45;2&#45;&gt;88 -->
<g id="edge11" class="edge">
<title>&#45;2&#45;&gt;88</title>
<path fill="none" stroke="red" stroke-width="0.16" d="M1624.99,-230.13C1569.2,-228.16 1347.27,-218.63 1168.18,-186.55 1153.61,-183.94 1137.71,-179.84 1124.47,-176.07"/>
<polygon fill="red" stroke="red" stroke-width="0.16" points="1125.08,-172.61 1114.5,-173.16 1123.12,-179.33 1125.08,-172.61"/>
</g>
<!-- &#45;2&#45;&gt;89 -->
<g id="edge12" class="edge">
<title>&#45;2&#45;&gt;89</title>
<path fill="none" stroke="green" stroke-width="0.15" d="M1624.99,-224.33C1579.77,-203.01 1430.32,-132.53 1367.93,-103.12"/>
<polygon fill="green" stroke="green" stroke-width="0.15" points="1369.23,-99.86 1358.69,-98.76 1366.24,-106.19 1369.23,-99.86"/>
</g>
<!-- &#45;2&#45;&gt;90 -->
<g id="edge13" class="edge">
<title>&#45;2&#45;&gt;90</title>
<path fill="none" stroke="red" stroke-width="0.34" d="M1625.18,-226.64C1600.62,-219.2 1545.81,-202.35 1500.18,-186.55 1416.19,-157.47 1318.16,-119.74 1270.76,-101.25"/>
<polygon fill="red" stroke="red" stroke-width="0.34" points="1271.75,-97.88 1261.16,-97.5 1269.2,-104.4 1271.75,-97.88"/>
</g>
<!-- &#45;2&#45;&gt;91 -->
<g id="edge14" class="edge">
<title>&#45;2&#45;&gt;91</title>
<path fill="none" stroke="green" stroke-width="0.29" d="M1625.05,-230.26C1544.06,-228.4 1114.25,-217.11 1065.18,-186.55 1040.58,-171.23 1025.31,-141.06 1016.84,-118.51"/>
<polygon fill="green" stroke="green" stroke-width="0.29" points="1020.14,-117.34 1013.52,-109.07 1013.54,-119.67 1020.14,-117.34"/>
</g>
<!-- &#45;2&#45;&gt;92 -->
<g id="edge15" class="edge">
<title>&#45;2&#45;&gt;92</title>
<path fill="none" stroke="green" stroke-width="0.13" d="M1626.57,-222.39C1594.9,-200.14 1506.54,-138.06 1463.03,-107.49"/>
<polygon fill="green" stroke="green" stroke-width="0.13" points="1464.91,-104.53 1454.71,-101.65 1460.88,-110.26 1464.91,-104.53"/>
</g>
<!-- &#45;2&#45;&gt;93 -->
<g id="edge16" class="edge">
<title>&#45;2&#45;&gt;93</title>
<path fill="none" stroke="green" stroke-width="0.46" d="M1651.2,-230.53C1730.55,-230.27 2146.86,-227 2184.18,-186.55 2196.54,-173.15 2196.62,-158.87 2184.18,-145.54 2144.91,-103.43 1724.34,-116.53 1667.18,-109.54 1639.52,-106.15 1608.28,-100.5 1586,-96.14"/>
<polygon fill="green" stroke="green" stroke-width="0.46" points="1586.63,-92.7 1576.14,-94.19 1585.27,-99.57 1586.63,-92.7"/>
</g>
<!-- &#45;2&#45;&gt;94 -->
<g id="edge17" class="edge">
<title>&#45;2&#45;&gt;94</title>
<path fill="none" stroke="green" stroke-width="0.59" d="M1651.52,-230.23C1721.21,-228.43 2041.38,-218.44 2070.18,-186.55 2082.4,-173.03 2082.64,-158.85 2070.18,-145.54 2028.79,-101.31 1583.51,-129.12 1526.18,-109.54 1524.57,-108.99 1522.95,-108.32 1521.36,-107.57"/>
<polygon fill="green" stroke="green" stroke-width="0.59" points="1523.06,-104.51 1512.64,-102.59 1519.59,-110.59 1523.06,-104.51"/>
</g>
<!-- &#45;2&#45;&gt;95 -->
<g id="edge18" class="edge">
<title>&#45;2&#45;&gt;95</title>
<path fill="none" stroke="green" stroke-width="0.34" d="M1624.9,-230.26C1536.81,-228.25 1038.51,-215.62 978.18,-186.55 946.44,-171.26 920.82,-138.97 905.57,-115.96"/>
<polygon fill="green" stroke="green" stroke-width="0.34" points="908.4,-113.88 900.06,-107.34 902.5,-117.65 908.4,-113.88"/>
</g>
<!-- &#45;3 -->
<g id="node3" class="node">
<title>&#45;3</title>
<polygon fill="lightgray" stroke="black" points="1253.18,-240.55 1227.18,-240.55 1227.18,-222.55 1253.18,-222.55 1253.18,-240.55"/>
<text text-anchor="middle" x="1240.18" y="-229.35" font-family="Times-Roman" font-size="9.00">&#45;3</text>
</g>
<!-- &#45;3&#45;&gt;0 -->
<g id="edge137" class="edge">
<title>&#45;3&#45;&gt;0</title>
<path fill="none" stroke="red" stroke-width="0.8" d="M1227.08,-228C1217.03,-226.16 1202.78,-223.78 1190.18,-222.55 1080.19,-211.8 296.65,-232.61 196.18,-186.55 173.6,-176.2 175.66,-163.21 158.18,-145.54 141.82,-129 129.38,-130.91 120.18,-109.54 112.98,-92.79 107.7,-81.81 120.18,-68.53 148.45,-38.47 786.73,-21.28 925.65,-17.89"/>
<polygon fill="red" stroke="red" stroke-width="0.8" points="925.9,-21.38 935.82,-17.64 925.73,-14.38 925.9,-21.38"/>
</g>
<!-- &#45;3&#45;&gt;1 -->
<g id="edge138" class="edge">
<title>&#45;3&#45;&gt;1</title>
<path fill="none" stroke="red" stroke-width="0.72" d="M1227.08,-228.03C1217.02,-226.2 1202.78,-223.82 1190.18,-222.55 1143.6,-217.84 380.58,-220.36 348.18,-186.55 311.89,-148.68 312.17,-106.66 348.18,-68.53 396.25,-17.63 910.02,-52.27 977.18,-32.53 978.85,-32.04 980.53,-31.43 982.19,-30.74"/>
<polygon fill="red" stroke="red" stroke-width="0.72" points="983.92,-33.78 991.27,-26.15 980.76,-27.54 983.92,-33.78"/>
</g>
<!-- &#45;3&#45;&gt;2 -->
<g id="edge139" class="edge">
<title>&#45;3&#45;&gt;2</title>
<path fill="none" stroke="green" stroke-width="0.15" d="M1227.05,-228.28C1216.98,-226.58 1202.73,-224.26 1190.18,-222.55 1049.26,-203.31 1001.45,-245.89 872.18,-186.55 826.45,-165.56 809.31,-155.66 789.18,-109.54 781.89,-92.83 777.29,-82.34 789.18,-68.53 824.38,-27.66 978.19,-50.09 1029.18,-32.53 1030.65,-32.02 1032.12,-31.44 1033.59,-30.8"/>
<polygon fill="green" stroke="green" stroke-width="0.15" points="1035.59,-33.71 1042.91,-26.04 1032.41,-27.47 1035.59,-33.71"/>
</g>
<!-- &#45;3&#45;&gt;3 -->
<g id="edge140" class="edge">
<title>&#45;3&#45;&gt;3</title>
<path fill="none" stroke="green" stroke-width="0.31" d="M1253.46,-230.25C1342.66,-228.16 1852.83,-215.04 1915.18,-186.55 1958.92,-166.57 1972.93,-154.03 1991.18,-109.54 1998.1,-92.68 2003.39,-82.06 1991.18,-68.53 1959.57,-33.47 1621.09,-20.91 1522.8,-17.98"/>
<polygon fill="green" stroke="green" stroke-width="0.31" points="1522.63,-14.48 1512.54,-17.69 1522.43,-21.47 1522.63,-14.48"/>
</g>
<!-- &#45;3&#45;&gt;4 -->
<g id="edge141" class="edge">
<title>&#45;3&#45;&gt;4</title>
<path fill="none" stroke="red" stroke-width="0.45" d="M1253.3,-230.5C1331.7,-230.09 1738.82,-226.07 1856.18,-186.55 1915.54,-166.57 1944.36,-164.61 1974.18,-109.54 1982.86,-93.51 1986.6,-81.87 1974.18,-68.53 1936,-27.52 1524.69,-49.15 1471.18,-32.53 1469.92,-32.13 1468.65,-31.67 1467.39,-31.15"/>
<polygon fill="red" stroke="red" stroke-width="0.45" points="1468.63,-27.85 1458.13,-26.43 1465.45,-34.09 1468.63,-27.85"/>
</g>
<!-- &#45;3&#45;&gt;5 -->
<g id="edge142" class="edge">
<title>&#45;3&#45;&gt;5</title>
<path fill="none" stroke="red" stroke-width="0.56" d="M1253.32,-229.64C1290.12,-226.78 1397.02,-216.31 1480.18,-186.55 1546.68,-162.76 1583.33,-170.39 1619.18,-109.54 1628.44,-93.83 1631.12,-82.3 1619.18,-68.53 1582.28,-25.95 1421.66,-50.29 1368.18,-32.53 1366.29,-31.9 1364.38,-31.14 1362.49,-30.31"/>
<polygon fill="red" stroke="red" stroke-width="0.56" points="1363.92,-27.12 1353.41,-25.73 1360.76,-33.36 1363.92,-27.12"/>
</g>
<!-- &#45;3&#45;&gt;6 -->
<g id="edge143" class="edge">
<title>&#45;3&#45;&gt;6</title>
<path fill="none" stroke="green" stroke-width="0.9" d="M1227.04,-228.35C1216.96,-226.69 1202.71,-224.39 1190.18,-222.55 1070.84,-205.02 1026.04,-246.17 921.18,-186.55 883.23,-164.97 874.54,-150.78 860.18,-109.54 825.99,-11.3 980.34,-58.03 1081.18,-32.53 1087.51,-30.93 1094.22,-28.82 1100.45,-26.68"/>
<polygon fill="green" stroke="green" stroke-width="0.9" points="1102.08,-29.81 1110.31,-23.14 1099.71,-23.23 1102.08,-29.81"/>
</g>
<!-- &#45;3&#45;&gt;7 -->
<g id="edge144" class="edge">
<title>&#45;3&#45;&gt;7</title>
<path fill="none" stroke="green" stroke-width="0.3" d="M1253.34,-230.54C1342.89,-230.15 1862.15,-222.98 1956.18,-109.54 1967.82,-95.51 1968.63,-81.84 1956.18,-68.53 1915.42,-24.93 1477.37,-49.64 1420.18,-32.53 1418.7,-32.08 1417.21,-31.55 1415.73,-30.94"/>
<polygon fill="green" stroke="green" stroke-width="0.3" points="1416.9,-27.61 1406.39,-26.28 1413.77,-33.88 1416.9,-27.61"/>
</g>
<!-- &#45;3&#45;&gt;96 -->
<g id="edge29" class="edge">
<title>&#45;3&#45;&gt;96</title>
<path fill="none" stroke="red" stroke-width="0.11" d="M1227.11,-226.12C1210.79,-219.9 1183.18,-206.98 1168.18,-186.55 1153.92,-167.11 1148.08,-140.15 1145.71,-119.67"/>
<polygon fill="red" stroke="red" stroke-width="0.11" points="1149.19,-119.25 1144.76,-109.62 1142.22,-119.91 1149.19,-119.25"/>
</g>
<!-- &#45;3&#45;&gt;97 -->
<g id="edge30" class="edge">
<title>&#45;3&#45;&gt;97</title>
<path fill="none" stroke="red" stroke-width="0.49" d="M1226.91,-228.35C1178.88,-220.36 1016.39,-192.96 1007.18,-186.55 983.53,-170.08 967.89,-140.58 958.87,-118.51"/>
<polygon fill="red" stroke="red" stroke-width="0.49" points="962.05,-117.03 955.19,-108.96 955.52,-119.55 962.05,-117.03"/>
</g>
<!-- &#45;3&#45;&gt;88 -->
<g id="edge21" class="edge">
<title>&#45;3&#45;&gt;88</title>
<path fill="none" stroke="red" stroke-width="0.41" d="M1227.08,-225.93C1206.23,-218.44 1164.35,-202.82 1130.18,-186.55 1127.32,-185.19 1124.37,-183.69 1121.46,-182.16"/>
<polygon fill="red" stroke="red" stroke-width="0.41" points="1122.85,-178.93 1112.4,-177.22 1119.5,-185.08 1122.85,-178.93"/>
</g>
<!-- &#45;3&#45;&gt;89 -->
<g id="edge22" class="edge">
<title>&#45;3&#45;&gt;89</title>
<path fill="none" stroke="red" stroke-width="0.78" d="M1253.36,-229.69C1277.11,-227.34 1326.61,-218.64 1348.18,-186.55 1361.73,-166.41 1357.45,-138.29 1351.15,-117.59"/>
<polygon fill="red" stroke="red" stroke-width="0.78" points="1354.46,-116.46 1347.96,-108.1 1347.82,-118.69 1354.46,-116.46"/>
</g>
<!-- &#45;3&#45;&gt;90 -->
<g id="edge23" class="edge">
<title>&#45;3&#45;&gt;90</title>
<path fill="none" stroke="red" stroke-width="0.28" d="M1248.63,-222.38C1256.46,-214.18 1267.57,-200.74 1272.18,-186.55 1277.82,-169.22 1276.65,-163.21 1272.18,-145.54 1269.48,-134.87 1264.28,-124.02 1258.96,-114.78"/>
<polygon fill="red" stroke="red" stroke-width="0.28" points="1261.88,-112.85 1253.68,-106.14 1255.9,-116.5 1261.88,-112.85"/>
</g>
<!-- &#45;3&#45;&gt;91 -->
<g id="edge24" class="edge">
<title>&#45;3&#45;&gt;91</title>
<path fill="none" stroke="red" stroke-width="0.18" d="M1227.06,-228.17C1182.5,-220.04 1039.35,-193.47 1032.18,-186.55 1014.44,-169.42 1009.02,-141.35 1007.7,-119.89"/>
<polygon fill="red" stroke="red" stroke-width="0.18" points="1011.19,-119.53 1007.35,-109.66 1004.2,-119.77 1011.19,-119.53"/>
</g>
<!-- &#45;3&#45;&gt;92 -->
<g id="edge25" class="edge">
<title>&#45;3&#45;&gt;92</title>
<path fill="none" stroke="green" stroke-width="0.52" d="M1253.53,-228.54C1277.92,-224.34 1330.5,-212.73 1366.18,-186.55 1391.29,-168.13 1411.56,-138.47 1424.12,-116.88"/>
<polygon fill="green" stroke="green" stroke-width="0.52" points="1427.32,-118.33 1429.18,-107.9 1421.22,-114.89 1427.32,-118.33"/>
</g>
<!-- &#45;3&#45;&gt;93 -->
<g id="edge26" class="edge">
<title>&#45;3&#45;&gt;93</title>
<path fill="none" stroke="green" stroke-width="0.33" d="M1253.3,-229.7C1285.94,-227.14 1372.83,-217.69 1437.18,-186.55 1475.95,-167.79 1513.28,-134.16 1535.49,-111.96"/>
<polygon fill="green" stroke="green" stroke-width="0.33" points="1538.18,-114.22 1542.69,-104.63 1533.18,-109.31 1538.18,-114.22"/>
</g>
<!-- &#45;3&#45;&gt;94 -->
<g id="edge27" class="edge">
<title>&#45;3&#45;&gt;94</title>
<path fill="none" stroke="red" stroke-width="0.27" d="M1253.41,-229.17C1281.82,-225.73 1350.08,-214.92 1399.18,-186.55 1431.64,-167.8 1461.13,-135.76 1479.1,-113.78"/>
<polygon fill="red" stroke="red" stroke-width="0.27" points="1481.89,-115.89 1485.4,-105.89 1476.42,-111.52 1481.89,-115.89"/>
</g>
<!-- &#45;3&#45;&gt;95 -->
<g id="edge28" class="edge">
<title>&#45;3&#45;&gt;95</title>
<path fill="none" stroke="red" stroke-width="0.33" d="M1226.87,-228.41C1172.7,-219.71 971.61,-187.37 970.18,-186.55 941.3,-170.01 918.38,-138.79 904.6,-116.33"/>
<polygon fill="red" stroke="red" stroke-width="0.33" points="907.54,-114.43 899.43,-107.6 901.52,-117.99 907.54,-114.43"/>
</g>
<!-- &#45;4 -->
<g id="node4" class="node">
<title>&#45;4</title>
<polygon fill="lightgray" stroke="black" points="1181.18,-240.55 1155.18,-240.55 1155.18,-222.55 1181.18,-222.55 1181.18,-240.55"/>
<text text-anchor="middle" x="1168.18" y="-229.35" font-family="Times-Roman" font-size="9.00">&#45;4</text>
</g>
<!-- &#45;4&#45;&gt;0 -->
<g id="edge145" class="edge">
<title>&#45;4&#45;&gt;0</title>
<path fill="none" stroke="green" stroke-width="0.21" d="M1154.85,-229.81C1128.54,-228.36 1068.05,-225.06 1017.18,-222.55 841.88,-213.91 399.43,-225.02 228.18,-186.55 141.69,-167.12 93.3,-183.34 44.18,-109.54 34.09,-94.36 31.66,-81.77 44.18,-68.53 75.27,-35.64 779,-20.54 925.58,-17.75"/>
<polygon fill="green" stroke="green" stroke-width="0.21" points="925.95,-21.24 935.88,-17.55 925.82,-14.24 925.95,-21.24"/>
</g>
<!-- &#45;4&#45;&gt;1 -->
<g id="edge146" class="edge">
<title>&#45;4&#45;&gt;1</title>
<path fill="none" stroke="green" stroke-width="0.29" d="M1155.1,-229.85C1060.24,-224.72 480.57,-193.21 444.18,-186.55 330.65,-165.79 264.63,-202.47 196.18,-109.54 185.37,-94.86 183.6,-81.71 196.18,-68.53 256.18,-5.7 893.7,-56.56 977.18,-32.53 978.86,-32.05 980.54,-31.44 982.2,-30.76"/>
<polygon fill="green" stroke="green" stroke-width="0.29" points="983.92,-33.81 991.27,-26.18 980.77,-27.56 983.92,-33.81"/>
</g>
<!-- &#45;4&#45;&gt;2 -->
<g id="edge147" class="edge">
<title>&#45;4&#45;&gt;2</title>
<path fill="none" stroke="red" stroke-width="0.46" d="M1155.05,-229.86C1058.6,-224.78 463.41,-193.18 457.18,-186.55 443.16,-171.64 443.65,-87.03 462.18,-68.53 506.85,-23.92 968.67,-50.52 1029.18,-32.53 1030.67,-32.09 1032.16,-31.55 1033.64,-30.95"/>
<polygon fill="red" stroke="red" stroke-width="0.46" points="1035.6,-33.88 1042.99,-26.29 1032.47,-27.62 1035.6,-33.88"/>
</g>
<!-- &#45;4&#45;&gt;3 -->
<g id="edge148" class="edge">
<title>&#45;4&#45;&gt;3</title>
<path fill="none" stroke="green" stroke-width="0.21" d="M1181.3,-228.09C1191.35,-226.29 1205.6,-223.93 1218.18,-222.55 1483.29,-193.45 1554.68,-233.71 1817.18,-186.55 1932.87,-165.77 2000.21,-203.98 2070.18,-109.54 2081.03,-94.89 2082.49,-81.98 2070.18,-68.53 2032.77,-27.62 1629.89,-19.12 1522.41,-17.58"/>
<polygon fill="green" stroke="green" stroke-width="0.21" points="1522.45,-14.08 1512.41,-17.44 1522.36,-21.08 1522.45,-14.08"/>
</g>
<!-- &#45;4&#45;&gt;4 -->
<g id="edge149" class="edge">
<title>&#45;4&#45;&gt;4</title>
<path fill="none" stroke="green" stroke-width="0.46" d="M1181.3,-228.11C1191.36,-226.32 1205.6,-223.97 1218.18,-222.55 1339.24,-208.91 1651.22,-229.58 1765.18,-186.55 1817.66,-166.74 1840.42,-159.87 1865.18,-109.54 1873.23,-93.18 1877.47,-81.99 1865.18,-68.53 1805.91,-3.59 1554.89,-59.43 1471.18,-32.53 1469.92,-32.12 1468.66,-31.65 1467.4,-31.12"/>
<polygon fill="green" stroke="green" stroke-width="0.46" points="1468.64,-27.82 1458.15,-26.38 1465.45,-34.05 1468.64,-27.82"/>
</g>
<!-- &#45;4&#45;&gt;5 -->
<g id="edge150" class="edge">
<title>&#45;4&#45;&gt;5</title>
<path fill="none" stroke="green" stroke-width="0.44" d="M1181.3,-228.16C1191.37,-226.4 1205.61,-224.06 1218.18,-222.55 1268.21,-216.57 1636,-223.56 1670.18,-186.55 1682.55,-173.16 1678.57,-161.72 1670.18,-145.54 1657.42,-120.9 1639.41,-128.53 1619.18,-109.54 1602.13,-93.52 1606.39,-80.32 1586.18,-68.53 1501.38,-19.01 1461.04,-64.48 1368.18,-32.53 1366.49,-31.94 1364.78,-31.27 1363.08,-30.53"/>
<polygon fill="green" stroke="green" stroke-width="0.44" points="1364.23,-27.18 1353.72,-25.83 1361.09,-33.44 1364.23,-27.18"/>
</g>
<!-- &#45;4&#45;&gt;6 -->
<g id="edge151" class="edge">
<title>&#45;4&#45;&gt;6</title>
<path fill="none" stroke="red" stroke-width="0.6" d="M1155.07,-229.82C1061.28,-224.6 496.1,-192.87 490.18,-186.55 304.57,11.5 817.35,-96.35 1081.18,-32.53 1087.53,-30.99 1094.24,-28.91 1100.47,-26.77"/>
<polygon fill="red" stroke="red" stroke-width="0.6" points="1102.11,-29.9 1110.33,-23.22 1099.73,-23.32 1102.11,-29.9"/>
</g>
<!-- &#45;4&#45;&gt;7 -->
<g id="edge152" class="edge">
<title>&#45;4&#45;&gt;7</title>
<path fill="none" stroke="red" stroke-width="0.15" d="M1181.3,-228.15C1191.36,-226.38 1205.61,-224.04 1218.18,-222.55 1425.8,-198.02 1485.29,-240.82 1687.18,-186.55 1763.4,-166.06 1805.19,-176.36 1847.18,-109.54 1856.88,-94.11 1859.52,-81.95 1847.18,-68.53 1782.74,1.58 1511.18,-60.61 1420.18,-32.53 1418.7,-32.07 1417.22,-31.52 1415.74,-30.91"/>
<polygon fill="red" stroke="red" stroke-width="0.15" points="1416.91,-27.58 1406.4,-26.23 1413.77,-33.84 1416.91,-27.58"/>
</g>
<!-- &#45;4&#45;&gt;96 -->
<g id="edge39" class="edge">
<title>&#45;4&#45;&gt;96</title>
<path fill="none" stroke="green" stroke-width="0.2" d="M1154.87,-229.39C1131.92,-226.59 1085.43,-217.22 1065.18,-186.55 1055.14,-171.34 1056.78,-161.71 1065.18,-145.54 1075.75,-125.21 1097.55,-110.76 1115.58,-101.72"/>
<polygon fill="green" stroke="green" stroke-width="0.2" points="1117.55,-104.66 1125.12,-97.24 1114.58,-98.32 1117.55,-104.66"/>
</g>
<!-- &#45;4&#45;&gt;97 -->
<g id="edge40" class="edge">
<title>&#45;4&#45;&gt;97</title>
<path fill="none" stroke="red" stroke-width="0.13" d="M1155.15,-229.68C1075.83,-224.37 660.98,-196.13 652.18,-186.55 639.85,-173.13 640.18,-159.26 652.18,-145.54 691.74,-100.31 864.01,-130.87 920.18,-109.54 921.6,-109 923.02,-108.38 924.42,-107.7"/>
<polygon fill="red" stroke="red" stroke-width="0.13" points="926.42,-110.59 933.34,-102.57 922.93,-104.52 926.42,-110.59"/>
</g>
<!-- &#45;4&#45;&gt;88 -->
<g id="edge31" class="edge">
<title>&#45;4&#45;&gt;88</title>
<path fill="none" stroke="red" stroke-width="0.1" d="M1158.94,-222.51C1148.68,-213.58 1131.73,-198.84 1117.89,-186.8"/>
<polygon fill="red" stroke="red" stroke-width="0.1" points="1120.02,-184.01 1110.18,-180.09 1115.42,-189.29 1120.02,-184.01"/>
</g>
<!-- &#45;4&#45;&gt;89 -->
<g id="edge32" class="edge">
<title>&#45;4&#45;&gt;89</title>
<path fill="none" stroke="red" stroke-width="0.15" d="M1178.17,-222.39C1204.9,-200.55 1278.6,-140.34 1316.7,-109.22"/>
<polygon fill="red" stroke="red" stroke-width="0.15" points="1319.17,-111.72 1324.7,-102.69 1314.74,-106.3 1319.17,-111.72"/>
</g>
<!-- &#45;4&#45;&gt;90 -->
<g id="edge33" class="edge">
<title>&#45;4&#45;&gt;90</title>
<path fill="none" stroke="green" stroke-width="0.45" d="M1172.59,-222.18C1183.3,-201.85 1211.04,-149.18 1228.09,-116.8"/>
<polygon fill="green" stroke="green" stroke-width="0.45" points="1231.23,-118.34 1232.8,-107.86 1225.04,-115.08 1231.23,-118.34"/>
</g>
<!-- &#45;4&#45;&gt;91 -->
<g id="edge34" class="edge">
<title>&#45;4&#45;&gt;91</title>
<path fill="none" stroke="red" stroke-width="0.12" d="M1155.01,-230.36C1107.91,-229.35 949,-223.26 918.18,-186.55 906.47,-172.59 909.15,-161.37 918.18,-145.54 933.79,-118.2 952.56,-126.33 979.18,-109.54 980.47,-108.73 981.78,-107.89 983.09,-107.04"/>
<polygon fill="red" stroke="red" stroke-width="0.12" points="985.31,-109.77 991.73,-101.34 981.46,-103.93 985.31,-109.77"/>
</g>
<!-- &#45;4&#45;&gt;92 -->
<g id="edge35" class="edge">
<title>&#45;4&#45;&gt;92</title>
<path fill="none" stroke="red" stroke-width="0.28" d="M1181.46,-228.38C1233.66,-219.81 1422.02,-188.78 1424.18,-186.55 1441.06,-169.22 1443.46,-141.18 1442.29,-119.77"/>
<polygon fill="red" stroke="red" stroke-width="0.28" points="1445.76,-119.25 1441.44,-109.57 1438.78,-119.83 1445.76,-119.25"/>
</g>
<!-- &#45;4&#45;&gt;93 -->
<g id="edge36" class="edge">
<title>&#45;4&#45;&gt;93</title>
<path fill="none" stroke="red" stroke-width="0.49" d="M1181.3,-228.17C1191.37,-226.42 1205.62,-224.08 1218.18,-222.55 1266.22,-216.72 1619.41,-222.15 1652.18,-186.55 1664.53,-173.14 1661.29,-161.33 1652.18,-145.54 1651.18,-143.81 1611.01,-120.93 1582.96,-105.09"/>
<polygon fill="red" stroke="red" stroke-width="0.49" points="1584.41,-101.89 1573.98,-100.03 1580.98,-107.99 1584.41,-101.89"/>
</g>
<!-- &#45;4&#45;&gt;94 -->
<g id="edge37" class="edge">
<title>&#45;4&#45;&gt;94</title>
<path fill="none" stroke="red" stroke-width="0.25" d="M1181.32,-228.28C1191.39,-226.58 1205.64,-224.26 1218.18,-222.55 1289.09,-212.9 1490.5,-239.91 1538.18,-186.55 1557.55,-164.89 1536.83,-132.72 1518.48,-111.56"/>
<polygon fill="red" stroke="red" stroke-width="0.25" points="1520.97,-109.09 1511.65,-104.04 1515.78,-113.8 1520.97,-109.09"/>
</g>
<!-- &#45;4&#45;&gt;95 -->
<g id="edge38" class="edge">
<title>&#45;4&#45;&gt;95</title>
<path fill="none" stroke="red" stroke-width="0.39" d="M1154.98,-229.88C1065.33,-225.27 549.11,-198.27 538.18,-186.55 405.59,-44.37 330.71,-182.43 779.18,-109.54 806.69,-105.07 837.95,-99.53 860.28,-95.5"/>
<polygon fill="red" stroke="red" stroke-width="0.39" points="860.94,-98.94 870.16,-93.71 859.69,-92.05 860.94,-98.94"/>
</g>
<!-- 96&#45;&gt;0 -->
<g id="edge105" class="edge">
<title>96&#45;&gt;0</title>
<path fill="none" stroke="red" stroke-width="0.11" d="M1124.42,-82.71C1092.99,-73.94 1029.97,-55.18 979.18,-32.53 977.63,-31.83 976.05,-31.08 974.47,-30.29"/>
<polygon fill="red" stroke="red" stroke-width="0.11" points="976.12,-27.2 965.66,-25.55 972.8,-33.37 976.12,-27.2"/>
</g>
<!-- 96&#45;&gt;1 -->
<g id="edge106" class="edge">
<title>96&#45;&gt;1</title>
<path fill="none" stroke="green" stroke-width="0.13" d="M1126.02,-79.51C1103.55,-68.88 1064.24,-49.97 1031.18,-32.53 1029.68,-31.73 1028.13,-30.9 1026.58,-30.05"/>
<polygon fill="green" stroke="green" stroke-width="0.13" points="1028.27,-26.99 1017.83,-25.18 1024.87,-33.11 1028.27,-26.99"/>
</g>
<!-- 96&#45;&gt;2 -->
<g id="edge107" class="edge">
<title>96&#45;&gt;2</title>
<path fill="none" stroke="red" stroke-width="0.19" d="M1128.45,-75.38C1113.94,-63.71 1092.3,-46.31 1076.49,-33.59"/>
<polygon fill="red" stroke="red" stroke-width="0.19" points="1078.37,-30.61 1068.38,-27.07 1073.98,-36.07 1078.37,-30.61"/>
</g>
<!-- 96&#45;&gt;3 -->
<g id="edge108" class="edge">
<title>96&#45;&gt;3</title>
<path fill="none" stroke="green" stroke-width="0.21" d="M1163.64,-81.66C1177.14,-77.44 1195.6,-72.04 1212.18,-68.53 1325.44,-44.51 1360.83,-70.56 1470.18,-32.53 1471.44,-32.09 1472.69,-31.59 1473.94,-31.05"/>
<polygon fill="green" stroke="green" stroke-width="0.21" points="1475.92,-33.96 1483.18,-26.24 1472.69,-27.76 1475.92,-33.96"/>
</g>
<!-- 96&#45;&gt;4 -->
<g id="edge109" class="edge">
<title>96&#45;&gt;4</title>
<path fill="none" stroke="red" stroke-width="0.39" d="M1163.68,-81.84C1177.2,-77.7 1195.67,-72.33 1212.18,-68.53 1302.76,-47.68 1330.68,-63.85 1418.18,-32.53 1419.64,-32.01 1421.11,-31.41 1422.57,-30.76"/>
<polygon fill="red" stroke="red" stroke-width="0.39" points="1424.59,-33.66 1431.88,-25.97 1421.39,-27.43 1424.59,-33.66"/>
</g>
<!-- 96&#45;&gt;5 -->
<g id="edge110" class="edge">
<title>96&#45;&gt;5</title>
<path fill="none" stroke="green" stroke-width="0.13" d="M1161.28,-77.6C1166.87,-74.44 1173.18,-71.12 1179.18,-68.53 1225.38,-48.54 1281.99,-32.31 1314.29,-23.79"/>
<polygon fill="green" stroke="green" stroke-width="0.13" points="1315.46,-27.1 1324.26,-21.2 1313.7,-20.32 1315.46,-27.1"/>
</g>
<!-- 96&#45;&gt;6 -->
<g id="edge111" class="edge">
<title>96&#45;&gt;6</title>
<path fill="none" stroke="red" stroke-width="0.34" d="M1139.09,-69.07C1136.88,-60.83 1134.26,-51.06 1131.89,-42.24"/>
<polygon fill="red" stroke="red" stroke-width="0.34" points="1135.24,-41.22 1129.27,-32.47 1128.48,-43.04 1135.24,-41.22"/>
</g>
<!-- 96&#45;&gt;7 -->
<g id="edge112" class="edge">
<title>96&#45;&gt;7</title>
<path fill="none" stroke="red" stroke-width="0.37" d="M1163.75,-82.15C1177.31,-78.14 1195.78,-72.81 1212.18,-68.53 1279.78,-50.89 1299.93,-57.47 1365.18,-32.53 1366.85,-31.89 1368.55,-31.17 1370.24,-30.4"/>
<polygon fill="red" stroke="red" stroke-width="0.37" points="1372.26,-33.29 1379.58,-25.63 1369.08,-27.06 1372.26,-33.29"/>
</g>
<!-- 97&#45;&gt;0 -->
<g id="edge113" class="edge">
<title>97&#45;&gt;0</title>
<path fill="none" stroke="red" stroke-width="0.24" d="M950.02,-68.32C950.36,-60.38 950.75,-51.13 951.11,-42.69"/>
<polygon fill="red" stroke="red" stroke-width="0.24" points="954.61,-42.75 951.53,-32.61 947.61,-42.45 954.61,-42.75"/>
</g>
<!-- 97&#45;&gt;1 -->
<g id="edge114" class="edge">
<title>97&#45;&gt;1</title>
<path fill="none" stroke="green" stroke-width="0.15" d="M961.39,-72.33C969.28,-62.17 979.64,-48.85 988.18,-37.85"/>
<polygon fill="green" stroke="green" stroke-width="0.15" points="991.2,-39.68 994.57,-29.64 985.67,-35.38 991.2,-39.68"/>
</g>
<!-- 97&#45;&gt;2 -->
<g id="edge115" class="edge">
<title>97&#45;&gt;2</title>
<path fill="none" stroke="red" stroke-width="0.2" d="M965.73,-76.86C969.79,-74.13 974.14,-71.21 978.18,-68.53 997.13,-55.93 1018.77,-41.72 1034.44,-31.47"/>
<polygon fill="red" stroke="red" stroke-width="0.2" points="1036.45,-34.33 1042.91,-25.93 1032.62,-28.47 1036.45,-34.33"/>
</g>
<!-- 97&#45;&gt;3 -->
<g id="edge116" class="edge">
<title>97&#45;&gt;3</title>
<path fill="none" stroke="green" stroke-width="0.13" d="M964.65,-75.5C968.82,-72.74 973.48,-70.15 978.18,-68.53 1185.42,3.05 1260.85,-97.73 1470.18,-32.53 1471.45,-32.13 1472.72,-31.67 1473.98,-31.15"/>
<polygon fill="green" stroke="green" stroke-width="0.13" points="1475.92,-34.09 1483.24,-26.43 1472.74,-27.85 1475.92,-34.09"/>
</g>
<!-- 97&#45;&gt;4 -->
<g id="edge117" class="edge">
<title>97&#45;&gt;4</title>
<path fill="none" stroke="red" stroke-width="0.29" d="M964.66,-75.53C968.83,-72.76 973.49,-70.17 978.18,-68.53 1163.36,-3.67 1230.63,-90.15 1418.18,-32.53 1419.66,-32.07 1421.15,-31.53 1422.63,-30.92"/>
<polygon fill="red" stroke="red" stroke-width="0.29" points="1424.6,-33.85 1431.97,-26.24 1421.46,-27.59 1424.6,-33.85"/>
</g>
<!-- 97&#45;&gt;5 -->
<g id="edge118" class="edge">
<title>97&#45;&gt;5</title>
<path fill="none" stroke="red" stroke-width="0.3" d="M965.03,-75.52C969.12,-72.82 973.65,-70.27 978.18,-68.53 1039.91,-44.84 1240.86,-25.76 1313.6,-19.47"/>
<polygon fill="red" stroke="red" stroke-width="0.3" points="1314.08,-22.94 1323.75,-18.61 1313.49,-15.97 1314.08,-22.94"/>
</g>
<!-- 97&#45;&gt;6 -->
<g id="edge119" class="edge">
<title>97&#45;&gt;6</title>
<path fill="none" stroke="red" stroke-width="0.31" d="M965.3,-76.13C969.38,-73.42 973.84,-70.7 978.18,-68.53 979.61,-67.81 1058.65,-40.35 1100.23,-25.92"/>
<polygon fill="red" stroke="red" stroke-width="0.31" points="1101.62,-29.14 1109.92,-22.56 1099.32,-22.53 1101.62,-29.14"/>
</g>
<!-- 97&#45;&gt;7 -->
<g id="edge120" class="edge">
<title>97&#45;&gt;7</title>
<path fill="none" stroke="green" stroke-width="0.23" d="M964.67,-75.56C968.84,-72.8 973.5,-70.2 978.18,-68.53 1140.9,-10.52 1199.95,-82.9 1365.18,-32.53 1367.09,-31.95 1369.01,-31.23 1370.91,-30.42"/>
<polygon fill="green" stroke="green" stroke-width="0.23" points="1372.62,-33.48 1380,-25.88 1369.49,-27.22 1372.62,-33.48"/>
</g>
<!-- 88&#45;&gt;0 -->
<g id="edge41" class="edge">
<title>88&#45;&gt;0</title>
<path fill="none" stroke="red" stroke-width="0.49" d="M1074.62,-163.63C1020.56,-159.43 876.61,-145.06 848.18,-109.54 836.8,-95.31 838.56,-84 848.18,-68.53 865.11,-41.31 901.23,-28.11 926.1,-22.03"/>
<polygon fill="red" stroke="red" stroke-width="0.49" points="926.98,-25.42 935.99,-19.84 925.47,-18.59 926.98,-25.42"/>
</g>
<!-- 88&#45;&gt;1 -->
<g id="edge42" class="edge">
<title>88&#45;&gt;1</title>
<path fill="none" stroke="green" stroke-width="0.69" d="M1074.48,-163.36C1022.16,-158.63 886.91,-143.32 860.18,-109.54 848.87,-95.25 849.35,-83.19 860.18,-68.53 892.51,-24.76 927.21,-54.04 977.18,-32.53 978.61,-31.91 980.05,-31.25 981.49,-30.55"/>
<polygon fill="green" stroke="green" stroke-width="0.69" points="983.56,-33.41 990.74,-25.62 980.27,-27.23 983.56,-33.41"/>
</g>
<!-- 88&#45;&gt;2 -->
<g id="edge43" class="edge">
<title>88&#45;&gt;2</title>
<path fill="none" stroke="red" stroke-width="0.27" d="M1090.17,-146.03C1083.17,-119.51 1070.46,-71.38 1062.73,-42.06"/>
<polygon fill="red" stroke="red" stroke-width="0.27" points="1066.06,-40.97 1060.12,-32.19 1059.29,-42.75 1066.06,-40.97"/>
</g>
<!-- 88&#45;&gt;3 -->
<g id="edge44" class="edge">
<title>88&#45;&gt;3</title>
<path fill="none" stroke="green" stroke-width="0.23" d="M1115.8,-164.39C1206.99,-161.27 1570.98,-146.56 1604.18,-109.54 1616.35,-95.97 1613.92,-83.93 1604.18,-68.53 1586.25,-40.16 1547.87,-27.17 1522.04,-21.46"/>
<polygon fill="green" stroke="green" stroke-width="0.23" points="1522.66,-18.01 1512.16,-19.49 1521.29,-24.88 1522.66,-18.01"/>
</g>
<!-- 88&#45;&gt;4 -->
<g id="edge45" class="edge">
<title>88&#45;&gt;4</title>
<path fill="none" stroke="green" stroke-width="0.66" d="M1115.67,-164.31C1204.61,-160.89 1554.29,-145.25 1586.18,-109.54 1598.33,-95.95 1596.98,-83.22 1586.18,-68.53 1554.47,-25.37 1520.15,-54.22 1471.18,-32.53 1469.97,-31.99 1468.75,-31.41 1467.52,-30.8"/>
<polygon fill="green" stroke="green" stroke-width="0.66" points="1468.82,-27.52 1458.37,-25.79 1465.46,-33.66 1468.82,-27.52"/>
</g>
<!-- 88&#45;&gt;5 -->
<g id="edge46" class="edge">
<title>88&#45;&gt;5</title>
<path fill="none" stroke="green" stroke-width="0.37" d="M1112.28,-154.53C1128.82,-144.02 1154.24,-126.96 1174.18,-109.54 1192.9,-93.19 1191.71,-82.6 1212.18,-68.53 1244.4,-46.38 1287.61,-31.63 1314.67,-23.85"/>
<polygon fill="green" stroke="green" stroke-width="0.37" points="1315.83,-27.16 1324.53,-21.12 1313.96,-20.41 1315.83,-27.16"/>
</g>
<!-- 88&#45;&gt;6 -->
<g id="edge47" class="edge">
<title>88&#45;&gt;6</title>
<path fill="none" stroke="green" stroke-width="0.73" d="M1098.87,-145.8C1102.63,-126.3 1108.68,-95.29 1114.18,-68.53 1115.94,-60 1117.92,-50.69 1119.71,-42.37"/>
<polygon fill="green" stroke="green" stroke-width="0.73" points="1123.15,-43.02 1121.84,-32.5 1116.31,-41.54 1123.15,-43.02"/>
</g>
<!-- 88&#45;&gt;7 -->
<g id="edge48" class="edge">
<title>88&#45;&gt;7</title>
<path fill="none" stroke="green" stroke-width="0.17" d="M1115.46,-162.18C1149.92,-156.58 1221.14,-141.8 1272.18,-109.54 1293.19,-96.26 1290.99,-84.31 1310.18,-68.53 1320.51,-60.04 1349.65,-42.53 1370.48,-30.35"/>
<polygon fill="green" stroke="green" stroke-width="0.17" points="1372.49,-33.24 1379.37,-25.18 1368.97,-27.18 1372.49,-33.24"/>
</g>
<!-- 88&#45;&gt;96 -->
<g id="edge153" class="edge">
<title>88&#45;&gt;96</title>
<path fill="none" stroke="red" stroke-width="0.32" d="M1106.06,-148.4C1112.47,-138.59 1120.7,-125.99 1127.87,-115.01"/>
<polygon fill="red" stroke="red" stroke-width="0.32" points="1130.8,-116.92 1133.34,-106.63 1124.94,-113.09 1130.8,-116.92"/>
</g>
<!-- 89&#45;&gt;0 -->
<g id="edge49" class="edge">
<title>89&#45;&gt;0</title>
<path fill="none" stroke="green" stroke-width="0.37" d="M1321.04,-81.67C1307.52,-77.39 1288.91,-71.93 1272.18,-68.53 1143.62,-42.36 1103.79,-73.6 979.18,-32.53 977.71,-32.04 976.23,-31.47 974.76,-30.85"/>
<polygon fill="green" stroke="green" stroke-width="0.37" points="975.94,-27.52 965.44,-26.12 972.77,-33.76 975.94,-27.52"/>
</g>
<!-- 89&#45;&gt;1 -->
<g id="edge50" class="edge">
<title>89&#45;&gt;1</title>
<path fill="none" stroke="red" stroke-width="0.34" d="M1320.72,-81.71C1307.21,-77.51 1288.75,-72.12 1272.18,-68.53 1166.35,-45.55 1133.59,-67.76 1031.18,-32.53 1029.72,-32.02 1028.24,-31.44 1026.78,-30.8"/>
<polygon fill="red" stroke="red" stroke-width="0.34" points="1027.96,-27.48 1017.46,-26.05 1024.78,-33.71 1027.96,-27.48"/>
</g>
<!-- 89&#45;&gt;2 -->
<g id="edge51" class="edge">
<title>89&#45;&gt;2</title>
<path fill="none" stroke="red" stroke-width="0.33" d="M1320.65,-82.02C1307.11,-77.95 1288.64,-72.6 1272.18,-68.53 1196.37,-49.75 1175.45,-53.37 1100.18,-32.53 1093.89,-30.79 1087.2,-28.62 1080.97,-26.48"/>
<polygon fill="red" stroke="red" stroke-width="0.33" points="1081.7,-23.03 1071.1,-22.97 1079.35,-29.62 1081.7,-23.03"/>
</g>
<!-- 89&#45;&gt;3 -->
<g id="edge52" class="edge">
<title>89&#45;&gt;3</title>
<path fill="none" stroke="green" stroke-width="0.43" d="M1359.04,-80.86C1384.64,-70.92 1431.62,-51.98 1470.18,-32.53 1471.34,-31.94 1472.52,-31.33 1473.7,-30.7"/>
<polygon fill="green" stroke="green" stroke-width="0.43" points="1475.61,-33.64 1482.6,-25.68 1472.17,-27.54 1475.61,-33.64"/>
</g>
<!-- 89&#45;&gt;4 -->
<g id="edge53" class="edge">
<title>89&#45;&gt;4</title>
<path fill="none" stroke="red" stroke-width="0.52" d="M1357.05,-76.66C1375.15,-64.46 1403.94,-45.06 1423.66,-31.77"/>
<polygon fill="red" stroke="red" stroke-width="0.52" points="1425.68,-34.63 1432.01,-26.14 1421.76,-28.83 1425.68,-34.63"/>
</g>
<!-- 89&#45;&gt;5 -->
<g id="edge54" class="edge">
<title>89&#45;&gt;5</title>
<path fill="none" stroke="green" stroke-width="0.61" d="M1340.18,-68.32C1340.18,-60.38 1340.18,-51.13 1340.18,-42.69"/>
<polygon fill="green" stroke="green" stroke-width="0.61" points="1343.68,-42.61 1340.18,-32.61 1336.68,-42.61 1343.68,-42.61"/>
</g>
<!-- 89&#45;&gt;6 -->
<g id="edge55" class="edge">
<title>89&#45;&gt;6</title>
<path fill="none" stroke="red" stroke-width="0.46" d="M1320.72,-81.63C1281.57,-68.74 1193.33,-39.7 1150.06,-25.45"/>
<polygon fill="red" stroke="red" stroke-width="0.46" points="1150.92,-22.05 1140.33,-22.25 1148.73,-28.7 1150.92,-22.05"/>
</g>
<!-- 89&#45;&gt;7 -->
<g id="edge56" class="edge">
<title>89&#45;&gt;7</title>
<path fill="none" stroke="green" stroke-width="0.54" d="M1352.21,-71.97C1359.73,-61.93 1369.49,-48.9 1377.6,-38.07"/>
<polygon fill="green" stroke="green" stroke-width="0.54" points="1380.48,-40.06 1383.67,-29.96 1374.88,-35.87 1380.48,-40.06"/>
</g>
<!-- 90&#45;&gt;0 -->
<g id="edge57" class="edge">
<title>90&#45;&gt;0</title>
<path fill="none" stroke="green" stroke-width="0.81" d="M1222.68,-81.89C1209.15,-77.77 1190.68,-72.41 1174.18,-68.53 1088.39,-48.35 1062.02,-62.63 979.18,-32.53 977.73,-32 976.26,-31.4 974.8,-30.74"/>
<polygon fill="green" stroke="green" stroke-width="0.81" points="975.99,-27.42 965.5,-25.95 972.78,-33.64 975.99,-27.42"/>
</g>
<!-- 90&#45;&gt;1 -->
<g id="edge58" class="edge">
<title>90&#45;&gt;1</title>
<path fill="none" stroke="red" stroke-width="0.36" d="M1222.59,-82.23C1209.03,-78.26 1190.55,-72.93 1174.18,-68.53 1110.9,-51.49 1092.03,-56.87 1031.18,-32.53 1029.75,-31.95 1028.29,-31.31 1026.84,-30.63"/>
<polygon fill="red" stroke="red" stroke-width="0.36" points="1028.05,-27.31 1017.57,-25.76 1024.79,-33.51 1028.05,-27.31"/>
</g>
<!-- 90&#45;&gt;2 -->
<g id="edge59" class="edge">
<title>90&#45;&gt;2</title>
<path fill="none" stroke="green" stroke-width="0.1" d="M1223.33,-80.86C1189.56,-68.01 1118.78,-41.08 1081.08,-26.73"/>
<polygon fill="green" stroke="green" stroke-width="0.1" points="1081.97,-23.33 1071.38,-23.04 1079.48,-29.87 1081.97,-23.33"/>
</g>
<!-- 90&#45;&gt;3 -->
<g id="edge60" class="edge">
<title>90&#45;&gt;3</title>
<path fill="none" stroke="green" stroke-width="0.29" d="M1261.74,-82.1C1275.29,-78.07 1293.76,-72.73 1310.18,-68.53 1380.8,-50.47 1402.39,-59.3 1470.18,-32.53 1471.42,-32.04 1472.66,-31.5 1473.9,-30.92"/>
<polygon fill="green" stroke="green" stroke-width="0.29" points="1475.92,-33.81 1483.09,-26.01 1472.62,-27.64 1475.92,-33.81"/>
</g>
<!-- 90&#45;&gt;4 -->
<g id="edge61" class="edge">
<title>90&#45;&gt;4</title>
<path fill="none" stroke="green" stroke-width="0.82" d="M1261.91,-82.38C1301.52,-70.93 1389.39,-45.04 1418.18,-32.53 1419.75,-31.85 1421.33,-31.1 1422.92,-30.32"/>
<polygon fill="green" stroke="green" stroke-width="0.82" points="1424.57,-33.41 1431.73,-25.6 1421.26,-27.24 1424.57,-33.41"/>
</g>
<!-- 90&#45;&gt;5 -->
<g id="edge62" class="edge">
<title>90&#45;&gt;5</title>
<path fill="none" stroke="green" stroke-width="0.29" d="M1258.37,-76.35C1275,-64.34 1300.97,-45.58 1319.18,-32.43"/>
<polygon fill="green" stroke="green" stroke-width="0.29" points="1321.36,-35.18 1327.42,-26.48 1317.26,-29.5 1321.36,-35.18"/>
</g>
<!-- 90&#45;&gt;6 -->
<g id="edge63" class="edge">
<title>90&#45;&gt;6</title>
<path fill="none" stroke="red" stroke-width="0.16" d="M1224.92,-77.59C1204.36,-65.15 1169.98,-44.36 1147.44,-30.72"/>
<polygon fill="red" stroke="red" stroke-width="0.16" points="1149.23,-27.72 1138.86,-25.54 1145.61,-33.71 1149.23,-27.72"/>
</g>
<!-- 90&#45;&gt;7 -->
<g id="edge64" class="edge">
<title>90&#45;&gt;7</title>
<path fill="none" stroke="red" stroke-width="0.12" d="M1259.41,-77.89C1265.01,-74.74 1271.29,-71.36 1277.18,-68.53 1315.26,-50.21 1327.02,-50.67 1365.18,-32.53 1366.8,-31.76 1368.45,-30.94 1370.11,-30.1"/>
<polygon fill="red" stroke="red" stroke-width="0.12" points="1372.19,-32.96 1379.38,-25.18 1368.91,-26.77 1372.19,-32.96"/>
</g>
<!-- 91&#45;&gt;0 -->
<g id="edge65" class="edge">
<title>91&#45;&gt;0</title>
<path fill="none" stroke="green" stroke-width="0.14" d="M995.76,-72.33C987.64,-62.07 976.97,-48.59 968.22,-37.53"/>
<polygon fill="green" stroke="green" stroke-width="0.14" points="970.92,-35.31 961.97,-29.64 965.43,-39.65 970.92,-35.31"/>
</g>
<!-- 91&#45;&gt;1 -->
<g id="edge66" class="edge">
<title>91&#45;&gt;1</title>
<path fill="none" stroke="green" stroke-width="0.33" d="M1007.07,-68.32C1006.62,-60.38 1006.1,-51.13 1005.62,-42.69"/>
<polygon fill="green" stroke="green" stroke-width="0.33" points="1009.11,-42.4 1005.05,-32.61 1002.12,-42.79 1009.11,-42.4"/>
</g>
<!-- 91&#45;&gt;2 -->
<g id="edge67" class="edge">
<title>91&#45;&gt;2</title>
<path fill="none" stroke="green" stroke-width="0.6" d="M1019.32,-71.62C1025.98,-61.79 1034.52,-49.2 1041.71,-38.61"/>
<polygon fill="green" stroke="green" stroke-width="0.6" points="1044.64,-40.53 1047.35,-30.28 1038.84,-36.6 1044.64,-40.53"/>
</g>
<!-- 91&#45;&gt;3 -->
<g id="edge68" class="edge">
<title>91&#45;&gt;3</title>
<path fill="none" stroke="green" stroke-width="0.89" d="M1028.42,-83.8C1049.7,-79.48 1084.17,-72.8 1114.18,-68.53 1271.63,-46.12 1319.02,-81.92 1470.18,-32.53 1471.44,-32.12 1472.71,-31.64 1473.96,-31.11"/>
<polygon fill="green" stroke="green" stroke-width="0.89" points="1475.92,-34.04 1483.21,-26.35 1472.72,-27.81 1475.92,-34.04"/>
</g>
<!-- 91&#45;&gt;4 -->
<g id="edge69" class="edge">
<title>91&#45;&gt;4</title>
<path fill="none" stroke="green" stroke-width="0.53" d="M1028.44,-83.91C1049.72,-79.66 1084.21,-73.05 1114.18,-68.53 1248.71,-48.2 1288.87,-74.83 1418.18,-32.53 1419.66,-32.05 1421.14,-31.48 1422.61,-30.85"/>
<polygon fill="green" stroke="green" stroke-width="0.53" points="1424.59,-33.77 1431.94,-26.13 1421.43,-27.53 1424.59,-33.77"/>
</g>
<!-- 91&#45;&gt;5 -->
<g id="edge70" class="edge">
<title>91&#45;&gt;5</title>
<path fill="none" stroke="green" stroke-width="0.34" d="M1028.45,-83.71C1085.95,-71.46 1250.04,-36.48 1314.11,-22.82"/>
<polygon fill="green" stroke="green" stroke-width="0.34" points="1315.13,-26.18 1324.18,-20.67 1313.67,-19.34 1315.13,-26.18"/>
</g>
<!-- 91&#45;&gt;6 -->
<g id="edge71" class="edge">
<title>91&#45;&gt;6</title>
<path fill="none" stroke="green" stroke-width="0.46" d="M1025.45,-77.59C1046.01,-65.15 1080.39,-44.36 1102.93,-30.72"/>
<polygon fill="green" stroke="green" stroke-width="0.46" points="1104.76,-33.71 1111.5,-25.54 1101.14,-27.72 1104.76,-33.71"/>
</g>
<!-- 91&#45;&gt;7 -->
<g id="edge72" class="edge">
<title>91&#45;&gt;7</title>
<path fill="none" stroke="green" stroke-width="0.25" d="M1028.46,-84.05C1049.77,-79.93 1084.27,-73.42 1114.18,-68.53 1225.4,-50.33 1258.24,-68.06 1365.18,-32.53 1367.08,-31.9 1368.99,-31.14 1370.88,-30.31"/>
<polygon fill="green" stroke="green" stroke-width="0.25" points="1372.6,-33.36 1379.95,-25.73 1369.45,-27.12 1372.6,-33.36"/>
</g>
<!-- 92&#45;&gt;0 -->
<g id="edge73" class="edge">
<title>92&#45;&gt;0</title>
<path fill="none" stroke="red" stroke-width="0.54" d="M1419.07,-81.51C1405.57,-77.16 1386.96,-71.68 1370.18,-68.53 1198.67,-36.33 1145.74,-84.63 979.18,-32.53 977.71,-32.06 976.22,-31.51 974.75,-30.9"/>
<polygon fill="red" stroke="red" stroke-width="0.54" points="975.91,-27.57 965.41,-26.21 972.77,-33.83 975.91,-27.57"/>
</g>
<!-- 92&#45;&gt;1 -->
<g id="edge74" class="edge">
<title>92&#45;&gt;1</title>
<path fill="none" stroke="red" stroke-width="0.11" d="M1419.06,-81.58C1405.55,-77.26 1386.94,-71.79 1370.18,-68.53 1221.47,-39.53 1175.47,-78.77 1031.18,-32.53 1029.71,-32.05 1028.23,-31.5 1026.75,-30.88"/>
<polygon fill="red" stroke="red" stroke-width="0.11" points="1027.93,-27.55 1017.42,-26.17 1024.77,-33.8 1027.93,-27.55"/>
</g>
<!-- 92&#45;&gt;2 -->
<g id="edge75" class="edge">
<title>92&#45;&gt;2</title>
<path fill="none" stroke="green" stroke-width="0.15" d="M1418.73,-81.63C1405.24,-77.39 1386.77,-71.99 1370.18,-68.53 1251.68,-43.77 1217.97,-60.51 1100.18,-32.53 1093.83,-31.02 1087.11,-28.94 1080.89,-26.81"/>
<polygon fill="green" stroke="green" stroke-width="0.15" points="1081.63,-23.36 1071.03,-23.25 1079.25,-29.94 1081.63,-23.36"/>
</g>
<!-- 92&#45;&gt;3 -->
<g id="edge76" class="edge">
<title>92&#45;&gt;3</title>
<path fill="none" stroke="red" stroke-width="0.53" d="M1450.77,-72.68C1459.26,-62.31 1470.56,-48.52 1479.77,-37.3"/>
<polygon fill="red" stroke="red" stroke-width="0.53" points="1482.68,-39.26 1486.31,-29.31 1477.27,-34.82 1482.68,-39.26"/>
</g>
<!-- 92&#45;&gt;4 -->
<g id="edge77" class="edge">
<title>92&#45;&gt;4</title>
<path fill="none" stroke="red" stroke-width="0.25" d="M1440.13,-68.32C1440.92,-60.38 1441.83,-51.13 1442.67,-42.69"/>
<polygon fill="red" stroke="red" stroke-width="0.25" points="1446.16,-42.91 1443.67,-32.61 1439.2,-42.22 1446.16,-42.91"/>
</g>
<!-- 92&#45;&gt;5 -->
<g id="edge78" class="edge">
<title>92&#45;&gt;5</title>
<path fill="none" stroke="red" stroke-width="0.29" d="M1422,-76.35C1405.37,-64.34 1379.4,-45.58 1361.19,-32.43"/>
<polygon fill="red" stroke="red" stroke-width="0.29" points="1363.11,-29.5 1352.95,-26.48 1359.01,-35.18 1363.11,-29.5"/>
</g>
<!-- 92&#45;&gt;6 -->
<g id="edge79" class="edge">
<title>92&#45;&gt;6</title>
<path fill="none" stroke="green" stroke-width="0.29" d="M1418.65,-82.02C1405.11,-77.95 1386.64,-72.6 1370.18,-68.53 1290.88,-48.88 1195.93,-30.45 1151.07,-22.04"/>
<polygon fill="green" stroke="green" stroke-width="0.29" points="1151.51,-18.56 1141.04,-20.16 1150.23,-25.44 1151.51,-18.56"/>
</g>
<!-- 92&#45;&gt;7 -->
<g id="edge80" class="edge">
<title>92&#45;&gt;7</title>
<path fill="none" stroke="red" stroke-width="0.18" d="M1427.52,-71.26C1421.41,-61.65 1413.67,-49.48 1407.09,-39.13"/>
<polygon fill="red" stroke="red" stroke-width="0.18" points="1409.99,-37.17 1401.67,-30.61 1404.08,-40.92 1409.99,-37.17"/>
</g>
<!-- 93&#45;&gt;0 -->
<g id="edge81" class="edge">
<title>93&#45;&gt;0</title>
<path fill="none" stroke="red" stroke-width="0.21" d="M1540.73,-75.48C1536.56,-72.71 1531.89,-70.13 1527.18,-68.53 1296.18,10.3 1213.07,-102.34 979.18,-32.53 977.7,-32.08 976.21,-31.55 974.73,-30.95"/>
<polygon fill="red" stroke="red" stroke-width="0.21" points="975.9,-27.62 965.38,-26.29 972.77,-33.88 975.9,-27.62"/>
</g>
<!-- 93&#45;&gt;1 -->
<g id="edge82" class="edge">
<title>93&#45;&gt;1</title>
<path fill="none" stroke="green" stroke-width="0.11" d="M1540.72,-75.5C1536.55,-72.73 1531.89,-70.15 1527.18,-68.53 1318.25,3.57 1242.76,-96.47 1031.18,-32.53 1029.7,-32.08 1028.21,-31.54 1026.74,-30.93"/>
<polygon fill="green" stroke="green" stroke-width="0.11" points="1027.9,-27.6 1017.39,-26.27 1024.77,-33.87 1027.9,-27.6"/>
</g>
<!-- 93&#45;&gt;2 -->
<g id="edge83" class="edge">
<title>93&#45;&gt;2</title>
<path fill="none" stroke="green" stroke-width="0.1" d="M1540.71,-75.54C1536.54,-72.77 1531.88,-70.18 1527.18,-68.53 1347.52,-5.35 1286.49,-72.04 1100.18,-32.53 1093.64,-31.14 1086.74,-29.06 1080.39,-26.87"/>
<polygon fill="green" stroke="green" stroke-width="0.1" points="1081.58,-23.58 1070.99,-23.44 1079.18,-30.16 1081.58,-23.58"/>
</g>
<!-- 93&#45;&gt;3 -->
<g id="edge84" class="edge">
<title>93&#45;&gt;3</title>
<path fill="none" stroke="red" stroke-width="0.48" d="M1543.16,-72.68C1534.29,-62.21 1522.46,-48.25 1512.89,-36.97"/>
<polygon fill="red" stroke="red" stroke-width="0.48" points="1515.53,-34.67 1506.4,-29.31 1510.19,-39.2 1515.53,-34.67"/>
</g>
<!-- 93&#45;&gt;4 -->
<g id="edge85" class="edge">
<title>93&#45;&gt;4</title>
<path fill="none" stroke="green" stroke-width="0.11" d="M1539.68,-76.8C1535.62,-74.06 1531.26,-71.17 1527.18,-68.53 1507.17,-55.54 1484.1,-41.18 1467.55,-30.97"/>
<polygon fill="green" stroke="green" stroke-width="0.11" points="1468.97,-27.73 1458.62,-25.47 1465.3,-33.69 1468.97,-27.73"/>
</g>
<!-- 93&#45;&gt;5 -->
<g id="edge86" class="edge">
<title>93&#45;&gt;5</title>
<path fill="none" stroke="green" stroke-width="0.14" d="M1540.23,-75.78C1536.14,-73.08 1531.64,-70.45 1527.18,-68.53 1460.66,-39.82 1435.97,-58.11 1368.18,-32.53 1366.51,-31.9 1364.81,-31.18 1363.12,-30.41"/>
<polygon fill="green" stroke="green" stroke-width="0.14" points="1364.28,-27.07 1353.78,-25.66 1361.11,-33.31 1364.28,-27.07"/>
</g>
<!-- 93&#45;&gt;6 -->
<g id="edge87" class="edge">
<title>93&#45;&gt;6</title>
<path fill="none" stroke="green" stroke-width="0.44" d="M1540.35,-75.47C1536.26,-72.78 1531.73,-70.23 1527.18,-68.53 1457.82,-42.46 1230.44,-24.58 1152.04,-19.07"/>
<polygon fill="green" stroke="green" stroke-width="0.44" points="1151.81,-15.54 1141.59,-18.34 1151.33,-22.53 1151.81,-15.54"/>
</g>
<!-- 93&#45;&gt;7 -->
<g id="edge88" class="edge">
<title>93&#45;&gt;7</title>
<path fill="none" stroke="red" stroke-width="0.34" d="M1540.08,-76.1C1536,-73.38 1531.54,-70.67 1527.18,-68.53 1482.19,-46.33 1466.01,-52.97 1420.18,-32.53 1418.63,-31.83 1417.05,-31.08 1415.47,-30.29"/>
<polygon fill="red" stroke="red" stroke-width="0.34" points="1417.12,-27.2 1406.66,-25.55 1413.8,-33.37 1417.12,-27.2"/>
</g>
<!-- 94&#45;&gt;0 -->
<g id="edge89" class="edge">
<title>94&#45;&gt;0</title>
<path fill="none" stroke="red" stroke-width="0.19" d="M1481.72,-75.5C1477.55,-72.74 1472.89,-70.15 1468.18,-68.53 1262.22,2.67 1187.75,-95.68 979.18,-32.53 977.7,-32.08 976.21,-31.54 974.74,-30.93"/>
<polygon fill="red" stroke="red" stroke-width="0.19" points="975.9,-27.6 965.39,-26.26 972.77,-33.86 975.9,-27.6"/>
</g>
<!-- 94&#45;&gt;1 -->
<g id="edge90" class="edge">
<title>94&#45;&gt;1</title>
<path fill="none" stroke="red" stroke-width="0.34" d="M1481.71,-75.53C1477.54,-72.77 1472.88,-70.17 1468.18,-68.53 1284.28,-4.06 1217.45,-89.81 1031.18,-32.53 1029.7,-32.07 1028.22,-31.53 1026.74,-30.92"/>
<polygon fill="red" stroke="red" stroke-width="0.34" points="1027.91,-27.59 1017.4,-26.24 1024.77,-33.85 1027.91,-27.59"/>
</g>
<!-- 94&#45;&gt;2 -->
<g id="edge91" class="edge">
<title>94&#45;&gt;2</title>
<path fill="none" stroke="red" stroke-width="0.78" d="M1481.69,-75.58C1477.52,-72.81 1472.87,-70.21 1468.18,-68.53 1313.52,-12.98 1260.71,-67.7 1100.18,-32.53 1093.65,-31.1 1086.75,-29 1080.4,-26.81"/>
<polygon fill="red" stroke="red" stroke-width="0.78" points="1081.59,-23.52 1071,-23.39 1079.2,-30.1 1081.59,-23.52"/>
</g>
<!-- 94&#45;&gt;3 -->
<g id="edge92" class="edge">
<title>94&#45;&gt;3</title>
<path fill="none" stroke="red" stroke-width="0.25" d="M1496.91,-68.32C1496.79,-60.38 1496.66,-51.13 1496.54,-42.69"/>
<polygon fill="red" stroke="red" stroke-width="0.25" points="1500.04,-42.56 1496.4,-32.61 1493.04,-42.66 1500.04,-42.56"/>
</g>
<!-- 94&#45;&gt;4 -->
<g id="edge93" class="edge">
<title>94&#45;&gt;4</title>
<path fill="none" stroke="red" stroke-width="0.36" stroke-dasharray="1,5" d="M1485.38,-71.97C1478.01,-61.93 1468.43,-48.9 1460.47,-38.07"/>
<polygon fill="red" stroke="red" stroke-width="0.36" points="1463.26,-35.95 1454.51,-29.96 1457.61,-40.09 1463.26,-35.95"/>
</g>
<!-- 94&#45;&gt;5 -->
<g id="edge94" class="edge">
<title>94&#45;&gt;5</title>
<path fill="none" stroke="red" stroke-width="0.18" d="M1481.05,-76.16C1476.97,-73.45 1472.51,-70.72 1468.18,-68.53 1426.04,-47.18 1411.27,-51.89 1368.18,-32.53 1366.55,-31.79 1364.89,-31 1363.22,-30.18"/>
<polygon fill="red" stroke="red" stroke-width="0.18" points="1364.41,-26.85 1353.93,-25.3 1361.16,-33.05 1364.41,-26.85"/>
</g>
<!-- 94&#45;&gt;6 -->
<g id="edge95" class="edge">
<title>94&#45;&gt;6</title>
<path fill="none" stroke="red" stroke-width="0.25" d="M1481.33,-75.54C1477.24,-72.85 1472.71,-70.28 1468.18,-68.53 1410.11,-45.99 1221.81,-26.39 1151.76,-19.71"/>
<polygon fill="red" stroke="red" stroke-width="0.25" points="1151.85,-16.2 1141.57,-18.75 1151.2,-23.17 1151.85,-16.2"/>
</g>
<!-- 94&#45;&gt;7 -->
<g id="edge96" class="edge">
<title>94&#45;&gt;7</title>
<path fill="none" stroke="green" stroke-width="0.31" d="M1480.47,-76.66C1462.55,-64.46 1434.03,-45.06 1414.5,-31.77"/>
<polygon fill="green" stroke="green" stroke-width="0.31" points="1416.47,-28.87 1406.23,-26.14 1412.53,-34.66 1416.47,-28.87"/>
</g>
<!-- 95&#45;&gt;0 -->
<g id="edge97" class="edge">
<title>95&#45;&gt;0</title>
<path fill="none" stroke="green" stroke-width="0.2" d="M903.33,-73.02C912.6,-62.45 925.1,-48.18 935.13,-36.73"/>
<polygon fill="green" stroke="green" stroke-width="0.2" points="937.96,-38.81 941.92,-28.98 932.7,-34.19 937.96,-38.81"/>
</g>
<!-- 95&#45;&gt;1 -->
<g id="edge98" class="edge">
<title>95&#45;&gt;1</title>
<path fill="none" stroke="red" stroke-width="0.59" d="M906.65,-76.75C910.72,-74.02 915.09,-71.14 919.18,-68.53 940.15,-55.16 964.48,-40.58 981.73,-30.4"/>
<polygon fill="red" stroke="red" stroke-width="0.59" points="983.67,-33.32 990.51,-25.23 980.12,-27.28 983.67,-33.32"/>
</g>
<!-- 95&#45;&gt;2 -->
<g id="edge99" class="edge">
<title>95&#45;&gt;2</title>
<path fill="none" stroke="red" stroke-width="0.42" d="M906.27,-76.07C910.35,-73.36 914.82,-70.66 919.18,-68.53 965.41,-45.96 982.12,-53.29 1029.18,-32.53 1030.74,-31.84 1032.33,-31.09 1033.91,-30.3"/>
<polygon fill="red" stroke="red" stroke-width="0.42" points="1035.57,-33.38 1042.72,-25.57 1032.25,-27.22 1035.57,-33.38"/>
</g>
<!-- 95&#45;&gt;3 -->
<g id="edge100" class="edge">
<title>95&#45;&gt;3</title>
<path fill="none" stroke="green" stroke-width="0.54" d="M905.64,-75.47C909.81,-72.71 914.47,-70.13 919.18,-68.53 1151.46,10.69 1235.59,-104.59 1470.18,-32.53 1471.45,-32.14 1472.72,-31.68 1473.98,-31.16"/>
<polygon fill="green" stroke="green" stroke-width="0.54" points="1475.92,-34.1 1483.25,-26.45 1472.75,-27.86 1475.92,-34.1"/>
</g>
<!-- 95&#45;&gt;4 -->
<g id="edge101" class="edge">
<title>95&#45;&gt;4</title>
<path fill="none" stroke="red" stroke-width="0.17" d="M905.64,-75.5C909.81,-72.73 914.48,-70.15 919.18,-68.53 1129.39,3.96 1205.32,-96.81 1418.18,-32.53 1419.67,-32.08 1421.16,-31.54 1422.63,-30.93"/>
<polygon fill="red" stroke="red" stroke-width="0.17" points="1424.6,-33.87 1431.98,-26.27 1421.47,-27.6 1424.6,-33.87"/>
</g>
<!-- 95&#45;&gt;5 -->
<g id="edge102" class="edge">
<title>95&#45;&gt;5</title>
<path fill="none" stroke="red" stroke-width="0.21" d="M906.01,-75.45C910.1,-72.76 914.64,-70.22 919.18,-68.53 956.24,-54.72 1227.54,-27.99 1313.87,-19.75"/>
<polygon fill="red" stroke="red" stroke-width="0.21" points="1314.28,-23.22 1323.91,-18.79 1313.62,-16.25 1314.28,-23.22"/>
</g>
<!-- 95&#45;&gt;6 -->
<g id="edge103" class="edge">
<title>95&#45;&gt;6</title>
<path fill="none" stroke="red" stroke-width="0.21" d="M906.13,-75.77C910.22,-73.06 914.72,-70.44 919.18,-68.53 986.96,-39.44 1010.22,-52.65 1081.18,-32.53 1087.46,-30.75 1094.16,-28.57 1100.38,-26.43"/>
<polygon fill="red" stroke="red" stroke-width="0.21" points="1102,-29.57 1110.25,-22.92 1099.66,-22.97 1102,-29.57"/>
</g>
<!-- 95&#45;&gt;7 -->
<g id="edge104" class="edge">
<title>95&#45;&gt;7</title>
<path fill="none" stroke="red" stroke-width="0.28" d="M905.65,-75.52C909.82,-72.76 914.49,-70.17 919.18,-68.53 1106.91,-2.9 1174.61,-89.36 1365.18,-32.53 1367.09,-31.96 1369.02,-31.25 1370.92,-30.44"/>
<polygon fill="red" stroke="red" stroke-width="0.28" points="1372.62,-33.51 1380.01,-25.92 1369.5,-27.24 1372.62,-33.51"/>
</g>
</g>
</svg>
