<?xml version="1.0" encoding="UTF-8" standalone="no"?>
<!DOCTYPE svg PUBLIC "-//W3C//DTD SVG 1.1//EN"
 "http://www.w3.org/Graphics/SVG/1.1/DTD/svg11.dtd">
<!-- Generated by graphviz version 2.44.0 (0)
 -->
<!-- Pages: 1 -->
<svg width="1686pt" height="266pt"
 viewBox="0.00 0.00 1686.25 265.52" xmlns="http://www.w3.org/2000/svg" xmlns:xlink="http://www.w3.org/1999/xlink">
<g id="graph0" class="graph" transform="scale(1 1) rotate(0) translate(4 261.52)">
<polygon fill="white" stroke="transparent" points="-4,4 -4,-261.52 1682.25,-261.52 1682.25,4 -4,4"/>
<!-- &#45;1 -->
<g id="node1" class="node">
<title>&#45;1</title>
<polygon fill="lightgray" stroke="black" points="777.62,-257.52 751.62,-257.52 751.62,-239.52 777.62,-239.52 777.62,-257.52"/>
<text text-anchor="middle" x="764.62" y="-246.32" font-family="Times-Roman" font-size="9.00">&#45;1</text>
</g>
<!-- 0 -->
<g id="node5" class="node">
<title>0</title>
<ellipse fill="lightblue" stroke="black" cx="770.62" cy="-16.26" rx="16.03" ry="16.03"/>
<text text-anchor="middle" x="770.62" y="-14.06" font-family="Times-Roman" font-size="9.00">0</text>
</g>
<!-- &#45;1&#45;&gt;0 -->
<g id="edge109" class="edge">
<title>&#45;1&#45;&gt;0</title>
<path fill="none" stroke="red" stroke-width="1.08" d="M751.42,-245.79C737.54,-244.02 715.08,-241.29 695.62,-239.52 634.74,-234 188.41,-248.14 146.62,-203.52 -29.83,-15.12 604.8,-14.62 744.12,-16.72"/>
<polygon fill="red" stroke="red" stroke-width="1.08" points="744.27,-20.22 754.33,-16.89 744.39,-13.22 744.27,-20.22"/>
</g>
<!-- 1 -->
<g id="node6" class="node">
<title>1</title>
<ellipse fill="lightblue" stroke="black" cx="631.62" cy="-93.28" rx="16.03" ry="16.03"/>
<text text-anchor="middle" x="631.62" y="-91.08" font-family="Times-Roman" font-size="9.00">1</text>
</g>
<!-- &#45;1&#45;&gt;1 -->
<g id="edge110" class="edge">
<title>&#45;1&#45;&gt;1</title>
<path fill="none" stroke="red" stroke-width="0.31" d="M751.42,-245.81C737.54,-244.05 715.08,-241.32 695.62,-239.52 638.07,-234.19 216.06,-245.79 176.62,-203.52 161.62,-187.44 161.8,-170.28 176.62,-154.02 235.58,-89.4 483.37,-137.63 568.62,-118.02 581.93,-114.96 596.21,-109.75 607.8,-104.99"/>
<polygon fill="red" stroke="red" stroke-width="0.31" points="609.38,-108.13 617.2,-100.99 606.63,-101.68 609.38,-108.13"/>
</g>
<!-- 2 -->
<g id="node7" class="node">
<title>2</title>
<ellipse fill="lightblue" stroke="black" cx="770.62" cy="-93.28" rx="16.03" ry="16.03"/>
<text text-anchor="middle" x="770.62" y="-91.08" font-family="Times-Roman" font-size="9.00">2</text>
</g>
<!-- &#45;1&#45;&gt;2 -->
<g id="edge111" class="edge">
<title>&#45;1&#45;&gt;2</title>
<path fill="none" stroke="green" stroke-width="0.14" d="M764.95,-239.28C765.82,-217.08 768.23,-155.32 769.62,-119.98"/>
<polygon fill="green" stroke="green" stroke-width="0.14" points="773.12,-120.06 770.01,-109.93 766.12,-119.78 773.12,-120.06"/>
</g>
<!-- 3 -->
<g id="node8" class="node">
<title>3</title>
<ellipse fill="lightblue" stroke="black" cx="1034.62" cy="-93.28" rx="16.03" ry="16.03"/>
<text text-anchor="middle" x="1034.62" y="-91.08" font-family="Times-Roman" font-size="9.00">3</text>
</g>
<!-- &#45;1&#45;&gt;3 -->
<g id="edge112" class="edge">
<title>&#45;1&#45;&gt;3</title>
<path fill="none" stroke="green" stroke-width="0.54" d="M777.67,-246.41C855.25,-239.79 1252.54,-205.8 1254.62,-203.52 1269.47,-187.29 1267.99,-171.5 1254.62,-154.02 1231.01,-123.14 1114.07,-104.47 1060.95,-97.46"/>
<polygon fill="green" stroke="green" stroke-width="0.54" points="1061.3,-93.97 1050.94,-96.17 1060.41,-100.91 1061.3,-93.97"/>
</g>
<!-- 4 -->
<g id="node9" class="node">
<title>4</title>
<ellipse fill="lightblue" stroke="black" cx="858.62" cy="-93.28" rx="16.03" ry="16.03"/>
<text text-anchor="middle" x="858.62" y="-91.08" font-family="Times-Roman" font-size="9.00">4</text>
</g>
<!-- &#45;1&#45;&gt;4 -->
<g id="edge113" class="edge">
<title>&#45;1&#45;&gt;4</title>
<path fill="none" stroke="green" stroke-width="0.1" d="M777.64,-246.3C828.04,-241.43 1008.37,-222.75 1024.62,-203.52 1038.82,-186.72 1037.36,-171.96 1024.62,-154.02 996.56,-114.48 967.21,-134.58 921.62,-118.02 908.88,-113.4 894.75,-108.08 883.1,-103.66"/>
<polygon fill="green" stroke="green" stroke-width="0.1" points="884.2,-100.33 873.61,-100.04 881.7,-106.87 884.2,-100.33"/>
</g>
<!-- 5 -->
<g id="node10" class="node">
<title>5</title>
<ellipse fill="lightblue" stroke="black" cx="682.62" cy="-93.28" rx="16.03" ry="16.03"/>
<text text-anchor="middle" x="682.62" y="-91.08" font-family="Times-Roman" font-size="9.00">5</text>
</g>
<!-- &#45;1&#45;&gt;5 -->
<g id="edge114" class="edge">
<title>&#45;1&#45;&gt;5</title>
<path fill="none" stroke="red" stroke-width="0.43" d="M751.4,-245.96C737.51,-244.32 715.04,-241.69 695.62,-239.52 621.44,-231.22 411.5,-259.07 361.62,-203.52 346.93,-187.15 347.04,-170.5 361.62,-154.02 405.4,-104.58 596.62,-145.6 656.62,-118.02 659.53,-116.69 662.33,-114.91 664.96,-112.92"/>
<polygon fill="red" stroke="red" stroke-width="0.43" points="667.44,-115.39 672.62,-106.15 662.81,-110.15 667.44,-115.39"/>
</g>
<!-- 6 -->
<g id="node11" class="node">
<title>6</title>
<ellipse fill="lightblue" stroke="black" cx="543.62" cy="-93.28" rx="16.03" ry="16.03"/>
<text text-anchor="middle" x="543.62" y="-91.08" font-family="Times-Roman" font-size="9.00">6</text>
</g>
<!-- &#45;1&#45;&gt;6 -->
<g id="edge115" class="edge">
<title>&#45;1&#45;&gt;6</title>
<path fill="none" stroke="green" stroke-width="0.38" d="M751.42,-245.8C737.54,-244.03 715.08,-241.3 695.62,-239.52 636.41,-234.1 202.24,-246.96 161.62,-203.52 146.6,-187.45 146.97,-170.43 161.62,-154.02 209.16,-100.83 411.27,-134.73 480.62,-118.02 493.9,-114.83 508.17,-109.6 519.77,-104.87"/>
<polygon fill="green" stroke="green" stroke-width="0.38" points="521.33,-108.01 529.18,-100.9 518.61,-101.56 521.33,-108.01"/>
</g>
<!-- 7 -->
<g id="node12" class="node">
<title>7</title>
<ellipse fill="lightblue" stroke="black" cx="946.62" cy="-93.28" rx="16.03" ry="16.03"/>
<text text-anchor="middle" x="946.62" y="-91.08" font-family="Times-Roman" font-size="9.00">7</text>
</g>
<!-- &#45;1&#45;&gt;7 -->
<g id="edge116" class="edge">
<title>&#45;1&#45;&gt;7</title>
<path fill="none" stroke="red" stroke-width="0.31" d="M778.09,-246.39C854.63,-239.92 1231.65,-207.89 1235.62,-203.52 1250.44,-187.26 1249.9,-170.76 1235.62,-154.02 1202.61,-115.34 1058.78,-131.06 1009.62,-118.02 996.43,-114.53 982.16,-109.28 970.55,-104.6"/>
<polygon fill="red" stroke="red" stroke-width="0.31" points="971.69,-101.29 961.12,-100.7 969.02,-107.76 971.69,-101.29"/>
</g>
<!-- 418 -->
<g id="node13" class="node">
<title>418</title>
<ellipse fill="white" stroke="black" cx="606.62" cy="-178.77" rx="25" ry="25"/>
<text text-anchor="middle" x="606.62" y="-176.57" font-family="Times-Roman" font-size="9.00">418</text>
</g>
<!-- &#45;1&#45;&gt;418 -->
<g id="edge1" class="edge">
<title>&#45;1&#45;&gt;418</title>
<path fill="none" stroke="red" stroke-width="0.44" d="M751.34,-244.19C727.93,-238.04 678.17,-223.64 639.62,-203.52 637.84,-202.59 636.05,-201.57 634.26,-200.5"/>
<polygon fill="red" stroke="red" stroke-width="0.44" points="635.86,-197.36 625.57,-194.8 632.02,-203.21 635.86,-197.36"/>
</g>
<!-- 419 -->
<g id="node14" class="node">
<title>419</title>
<ellipse fill="white" stroke="black" cx="1201.62" cy="-178.77" rx="25" ry="25"/>
<text text-anchor="middle" x="1201.62" y="-176.57" font-family="Times-Roman" font-size="9.00">419</text>
</g>
<!-- &#45;1&#45;&gt;419 -->
<g id="edge2" class="edge">
<title>&#45;1&#45;&gt;419</title>
<path fill="none" stroke="green" stroke-width="0.34" d="M778,-246.47C843.77,-241.26 1131.32,-217.82 1168.62,-203.52 1170.5,-202.8 1172.37,-201.95 1174.21,-201"/>
<polygon fill="green" stroke="green" stroke-width="0.34" points="1176.32,-203.81 1183.05,-195.64 1172.69,-197.83 1176.32,-203.81"/>
</g>
<!-- 420 -->
<g id="node15" class="node">
<title>420</title>
<ellipse fill="white" stroke="black" cx="884.62" cy="-178.77" rx="25" ry="25"/>
<text text-anchor="middle" x="884.62" y="-176.57" font-family="Times-Roman" font-size="9.00">420</text>
</g>
<!-- &#45;1&#45;&gt;420 -->
<g id="edge3" class="edge">
<title>&#45;1&#45;&gt;420</title>
<path fill="none" stroke="red" stroke-width="0.64" d="M777.64,-241.71C794.95,-233.82 826.31,-218.9 851.62,-203.52 853.3,-202.5 855,-201.43 856.7,-200.32"/>
<polygon fill="red" stroke="red" stroke-width="0.64" points="858.79,-203.13 865.07,-194.6 854.84,-197.35 858.79,-203.13"/>
</g>
<!-- 422 -->
<g id="node16" class="node">
<title>422</title>
<ellipse fill="white" stroke="black" cx="817.62" cy="-178.77" rx="25" ry="25"/>
<text text-anchor="middle" x="817.62" y="-176.57" font-family="Times-Roman" font-size="9.00">422</text>
</g>
<!-- &#45;1&#45;&gt;422 -->
<g id="edge4" class="edge">
<title>&#45;1&#45;&gt;422</title>
<path fill="none" stroke="green" stroke-width="0.77" d="M770.91,-239.48C777.24,-231.4 787.35,-218.47 796.55,-206.71"/>
<polygon fill="green" stroke="green" stroke-width="0.77" points="799.31,-208.86 802.72,-198.83 793.8,-204.55 799.31,-208.86"/>
</g>
<!-- 423 -->
<g id="node17" class="node">
<title>423</title>
<ellipse fill="white" stroke="black" cx="462.62" cy="-178.77" rx="25" ry="25"/>
<text text-anchor="middle" x="462.62" y="-176.57" font-family="Times-Roman" font-size="9.00">423</text>
</g>
<!-- &#45;1&#45;&gt;423 -->
<g id="edge5" class="edge">
<title>&#45;1&#45;&gt;423</title>
<path fill="none" stroke="red" stroke-width="0.43" d="M751.45,-245.99C704.94,-240.48 548.7,-221.05 501.62,-203.52 498.15,-202.23 494.65,-200.62 491.24,-198.84"/>
<polygon fill="red" stroke="red" stroke-width="0.43" points="492.94,-195.79 482.52,-193.89 489.48,-201.87 492.94,-195.79"/>
</g>
<!-- 424 -->
<g id="node18" class="node">
<title>424</title>
<ellipse fill="white" stroke="black" cx="673.62" cy="-178.77" rx="25" ry="25"/>
<text text-anchor="middle" x="673.62" y="-176.57" font-family="Times-Roman" font-size="9.00">424</text>
</g>
<!-- &#45;1&#45;&gt;424 -->
<g id="edge6" class="edge">
<title>&#45;1&#45;&gt;424</title>
<path fill="none" stroke="green" stroke-width="0.29" d="M753.83,-239.48C740.96,-229.91 718.98,-213.54 701.28,-200.36"/>
<polygon fill="green" stroke="green" stroke-width="0.29" points="703.11,-197.36 693,-194.19 698.93,-202.97 703.11,-197.36"/>
</g>
<!-- 425 -->
<g id="node19" class="node">
<title>425</title>
<ellipse fill="white" stroke="black" cx="990.62" cy="-178.77" rx="25" ry="25"/>
<text text-anchor="middle" x="990.62" y="-176.57" font-family="Times-Roman" font-size="9.00">425</text>
</g>
<!-- &#45;1&#45;&gt;425 -->
<g id="edge7" class="edge">
<title>&#45;1&#45;&gt;425</title>
<path fill="none" stroke="green" stroke-width="0.16" d="M777.76,-245.89C808.9,-241.7 889.29,-229.07 951.62,-203.52 955.05,-202.12 958.53,-200.43 961.92,-198.62"/>
<polygon fill="green" stroke="green" stroke-width="0.16" points="963.7,-201.63 970.62,-193.61 960.21,-195.57 963.7,-201.63"/>
</g>
<!-- 426 -->
<g id="node20" class="node">
<title>426</title>
<ellipse fill="white" stroke="black" cx="1134.62" cy="-178.77" rx="25" ry="25"/>
<text text-anchor="middle" x="1134.62" y="-176.57" font-family="Times-Roman" font-size="9.00">426</text>
</g>
<!-- &#45;1&#45;&gt;426 -->
<g id="edge8" class="edge">
<title>&#45;1&#45;&gt;426</title>
<path fill="none" stroke="red" stroke-width="0.68" d="M777.9,-246.25C819.52,-242.09 951.05,-227.81 1057.62,-203.52 1072.19,-200.2 1088,-195.52 1101.48,-191.19"/>
<polygon fill="red" stroke="red" stroke-width="0.68" points="1102.87,-194.42 1111.28,-187.97 1100.69,-187.77 1102.87,-194.42"/>
</g>
<!-- 427 -->
<g id="node21" class="node">
<title>427</title>
<ellipse fill="white" stroke="black" cx="395.62" cy="-178.77" rx="25" ry="25"/>
<text text-anchor="middle" x="395.62" y="-176.57" font-family="Times-Roman" font-size="9.00">427</text>
</g>
<!-- &#45;1&#45;&gt;427 -->
<g id="edge9" class="edge">
<title>&#45;1&#45;&gt;427</title>
<path fill="none" stroke="green" stroke-width="0.37" d="M751.31,-245.96C690.8,-238.86 443.98,-209.6 428.62,-203.52 426.75,-202.78 424.89,-201.91 423.06,-200.95"/>
<polygon fill="green" stroke="green" stroke-width="0.37" points="424.59,-197.78 414.23,-195.56 420.94,-203.76 424.59,-197.78"/>
</g>
<!-- &#45;2 -->
<g id="node2" class="node">
<title>&#45;2</title>
<polygon fill="lightgray" stroke="black" points="1003.62,-257.52 977.62,-257.52 977.62,-239.52 1003.62,-239.52 1003.62,-257.52"/>
<text text-anchor="middle" x="990.62" y="-246.32" font-family="Times-Roman" font-size="9.00">&#45;2</text>
</g>
<!-- &#45;2&#45;&gt;0 -->
<g id="edge117" class="edge">
<title>&#45;2&#45;&gt;0</title>
<path fill="none" stroke="green" stroke-width="0.41" d="M1003.72,-247.72C1093.89,-248.93 1620.51,-253.8 1667.62,-203.52 1682.67,-187.47 1680.55,-171.82 1667.62,-154.02 1595.39,-54.58 1525.15,-92.64 1404.62,-68.53 1172.54,-22.09 884.66,-17.48 797.1,-17.2"/>
<polygon fill="green" stroke="green" stroke-width="0.41" points="796.99,-13.7 786.98,-17.19 796.98,-20.7 796.99,-13.7"/>
</g>
<!-- &#45;2&#45;&gt;1 -->
<g id="edge118" class="edge">
<title>&#45;2&#45;&gt;1</title>
<path fill="none" stroke="green" stroke-width="0.43" d="M977.31,-246.24C906.39,-239.41 576.11,-207.39 572.62,-203.52 557.91,-187.17 564.27,-174.38 572.62,-154.02 580.16,-135.66 596.38,-119.93 609.9,-109.22"/>
<polygon fill="green" stroke="green" stroke-width="0.43" points="612.38,-111.74 618.28,-102.94 608.18,-106.14 612.38,-111.74"/>
</g>
<!-- &#45;2&#45;&gt;2 -->
<g id="edge119" class="edge">
<title>&#45;2&#45;&gt;2</title>
<path fill="none" stroke="red" stroke-width="0.58" d="M1003.85,-247.46C1052.69,-246.92 1221.81,-242.26 1254.62,-203.52 1268.84,-186.74 1269.5,-170.23 1254.62,-154.02 1222.87,-119.44 879.41,-128.4 833.62,-118.02 820.31,-115.01 806.03,-109.8 794.44,-105.03"/>
<polygon fill="red" stroke="red" stroke-width="0.58" points="795.61,-101.72 785.04,-101.01 792.86,-108.16 795.61,-101.72"/>
</g>
<!-- &#45;2&#45;&gt;3 -->
<g id="edge120" class="edge">
<title>&#45;2&#45;&gt;3</title>
<path fill="none" stroke="red" stroke-width="0.25" d="M1003.64,-247.69C1092.09,-248.7 1602.92,-252.38 1648.62,-203.52 1663.65,-187.46 1663.41,-170.32 1648.62,-154.02 1608.58,-109.89 1173.99,-97.33 1061.23,-94.81"/>
<polygon fill="red" stroke="red" stroke-width="0.25" points="1061.13,-91.31 1051.06,-94.59 1060.98,-98.3 1061.13,-91.31"/>
</g>
<!-- &#45;2&#45;&gt;4 -->
<g id="edge121" class="edge">
<title>&#45;2&#45;&gt;4</title>
<path fill="none" stroke="green" stroke-width="0.28" d="M1003.92,-247.69C1071.46,-248.15 1370.22,-245.14 1287.62,-154.02 1232.74,-93.47 1001.21,-136.6 921.62,-118.02 908.33,-114.92 894.05,-109.71 882.46,-104.95"/>
<polygon fill="green" stroke="green" stroke-width="0.28" points="883.62,-101.65 873.05,-100.96 880.89,-108.09 883.62,-101.65"/>
</g>
<!-- &#45;2&#45;&gt;5 -->
<g id="edge122" class="edge">
<title>&#45;2&#45;&gt;5</title>
<path fill="none" stroke="green" stroke-width="0.13" d="M999.59,-239.46C1007.9,-231.33 1019.7,-217.96 1024.62,-203.52 1031.73,-182.7 1039.15,-170.55 1024.62,-154.02 983.35,-107.08 806.28,-133.15 745.62,-118.02 732.38,-114.72 718.11,-109.49 706.5,-104.78"/>
<polygon fill="green" stroke="green" stroke-width="0.13" points="707.66,-101.47 697.08,-100.83 704.95,-107.92 707.66,-101.47"/>
</g>
<!-- &#45;2&#45;&gt;6 -->
<g id="edge123" class="edge">
<title>&#45;2&#45;&gt;6</title>
<path fill="none" stroke="red" stroke-width="0.16" d="M977.54,-246.16C961.03,-244.46 931.74,-241.55 906.62,-239.52 846.13,-234.64 403.1,-247.83 361.62,-203.52 346.59,-187.46 348.51,-171.69 361.62,-154.02 394.56,-109.65 428.3,-135.78 480.62,-118.02 493.47,-113.67 507.61,-108.38 519.23,-103.9"/>
<polygon fill="red" stroke="red" stroke-width="0.16" points="520.65,-107.11 528.71,-100.22 518.12,-100.58 520.65,-107.11"/>
</g>
<!-- &#45;2&#45;&gt;7 -->
<g id="edge124" class="edge">
<title>&#45;2&#45;&gt;7</title>
<path fill="none" stroke="red" stroke-width="0.16" d="M1003.7,-247.63C1089.33,-248.24 1567.78,-249.52 1610.62,-203.52 1625.62,-187.43 1625.71,-170.04 1610.62,-154.02 1564.76,-105.33 1075.05,-131.98 1009.62,-118.02 996.27,-115.18 981.99,-109.98 970.41,-105.18"/>
<polygon fill="red" stroke="red" stroke-width="0.16" points="971.58,-101.87 961.01,-101.13 968.81,-108.3 971.58,-101.87"/>
</g>
<!-- &#45;2&#45;&gt;418 -->
<g id="edge10" class="edge">
<title>&#45;2&#45;&gt;418</title>
<path fill="none" stroke="green" stroke-width="0.11" d="M977.45,-246.26C917.46,-240.46 671.71,-216.12 639.62,-203.52 637.75,-202.79 635.89,-201.92 634.05,-200.96"/>
<polygon fill="green" stroke="green" stroke-width="0.11" points="635.58,-197.79 625.22,-195.58 631.94,-203.77 635.58,-197.79"/>
</g>
<!-- &#45;2&#45;&gt;419 -->
<g id="edge11" class="edge">
<title>&#45;2&#45;&gt;419</title>
<path fill="none" stroke="red" stroke-width="0.17" d="M1003.7,-246.02C1033.94,-242.18 1110.55,-230.37 1168.62,-203.52 1170.45,-202.68 1172.28,-201.73 1174.09,-200.7"/>
<polygon fill="red" stroke="red" stroke-width="0.17" points="1176.28,-203.46 1182.85,-195.15 1172.53,-197.55 1176.28,-203.46"/>
</g>
<!-- &#45;2&#45;&gt;420 -->
<g id="edge12" class="edge">
<title>&#45;2&#45;&gt;420</title>
<path fill="none" stroke="red" stroke-width="0.11" d="M978.05,-239.48C962.31,-229.42 934.86,-211.88 913.78,-198.4"/>
<polygon fill="red" stroke="red" stroke-width="0.11" points="915.49,-195.35 905.18,-192.91 911.72,-201.25 915.49,-195.35"/>
</g>
<!-- &#45;2&#45;&gt;422 -->
<g id="edge13" class="edge">
<title>&#45;2&#45;&gt;422</title>
<path fill="none" stroke="red" stroke-width="0.17" d="M977.35,-244.84C951.84,-239.36 894.59,-225.53 850.62,-203.52 848.83,-202.62 847.02,-201.63 845.23,-200.57"/>
<polygon fill="red" stroke="red" stroke-width="0.17" points="846.81,-197.42 836.51,-194.92 843,-203.3 846.81,-197.42"/>
</g>
<!-- &#45;2&#45;&gt;423 -->
<g id="edge14" class="edge">
<title>&#45;2&#45;&gt;423</title>
<path fill="none" stroke="red" stroke-width="0.87" d="M977.53,-246.25C961.01,-244.65 931.72,-241.83 906.62,-239.52 726.68,-222.96 673.28,-259.99 501.62,-203.52 498.1,-202.36 494.57,-200.84 491.14,-199.11"/>
<polygon fill="red" stroke="red" stroke-width="0.87" points="492.84,-196.05 482.41,-194.22 489.42,-202.16 492.84,-196.05"/>
</g>
<!-- &#45;2&#45;&gt;424 -->
<g id="edge15" class="edge">
<title>&#45;2&#45;&gt;424</title>
<path fill="none" stroke="red" stroke-width="0.51" stroke-dasharray="1,5" d="M977.54,-244.76C944.85,-237.84 856.91,-219.22 783.62,-203.52 758.18,-198.07 729.43,-191.86 707.71,-187.16"/>
<polygon fill="red" stroke="red" stroke-width="0.51" points="708.17,-183.68 697.65,-184.98 706.69,-190.52 708.17,-183.68"/>
</g>
<!-- &#45;2&#45;&gt;425 -->
<g id="edge16" class="edge">
<title>&#45;2&#45;&gt;425</title>
<path fill="none" stroke="red" stroke-width="0.65" d="M990.62,-239.48C990.62,-233.05 990.62,-223.55 990.62,-214.01"/>
<polygon fill="red" stroke="red" stroke-width="0.65" points="994.13,-213.79 990.62,-203.79 987.13,-213.79 994.13,-213.79"/>
</g>
<!-- &#45;2&#45;&gt;426 -->
<g id="edge17" class="edge">
<title>&#45;2&#45;&gt;426</title>
<path fill="none" stroke="green" stroke-width="0.44" d="M1003.84,-242.72C1024.03,-235.21 1063.58,-219.87 1095.62,-203.52 1098.93,-201.84 1102.32,-199.98 1105.67,-198.06"/>
<polygon fill="green" stroke="green" stroke-width="0.44" points="1107.49,-201.05 1114.31,-192.94 1103.92,-195.02 1107.49,-201.05"/>
</g>
<!-- &#45;2&#45;&gt;427 -->
<g id="edge18" class="edge">
<title>&#45;2&#45;&gt;427</title>
<path fill="none" stroke="green" stroke-width="0.43" d="M977.54,-246.19C961.02,-244.54 931.73,-241.66 906.62,-239.52 800.49,-230.47 528.71,-240 428.62,-203.52 426.73,-202.83 424.86,-202 423.01,-201.07"/>
<polygon fill="green" stroke="green" stroke-width="0.43" points="424.53,-197.9 414.15,-195.76 420.93,-203.9 424.53,-197.9"/>
</g>
<!-- &#45;3 -->
<g id="node3" class="node">
<title>&#45;3</title>
<polygon fill="lightgray" stroke="black" points="686.62,-257.52 660.62,-257.52 660.62,-239.52 686.62,-239.52 686.62,-257.52"/>
<text text-anchor="middle" x="673.62" y="-246.32" font-family="Times-Roman" font-size="9.00">&#45;3</text>
</g>
<!-- &#45;3&#45;&gt;0 -->
<g id="edge125" class="edge">
<title>&#45;3&#45;&gt;0</title>
<path fill="none" stroke="green" stroke-width="0.43" d="M660.49,-247.7C571.24,-248.77 55.76,-252.81 9.62,-203.52 -5.41,-187.46 -0.13,-173.74 9.62,-154.02 37.39,-97.89 63.14,-90.9 121.62,-68.53 238.24,-23.91 636.94,-18.12 743.99,-17.37"/>
<polygon fill="green" stroke="green" stroke-width="0.43" points="744.26,-20.87 754.23,-17.31 744.21,-13.87 744.26,-20.87"/>
</g>
<!-- &#45;3&#45;&gt;1 -->
<g id="edge126" class="edge">
<title>&#45;3&#45;&gt;1</title>
<path fill="none" stroke="green" stroke-width="0.24" d="M660.5,-247.55C578.6,-247.62 139.95,-245.98 100.62,-203.52 85.68,-187.38 85.68,-170.17 100.62,-154.02 136.06,-115.76 517.71,-129.34 568.62,-118.02 581.95,-115.06 596.23,-109.86 607.82,-105.08"/>
<polygon fill="green" stroke="green" stroke-width="0.24" points="609.41,-108.21 617.22,-101.05 606.65,-101.77 609.41,-108.21"/>
</g>
<!-- &#45;3&#45;&gt;2 -->
<g id="edge127" class="edge">
<title>&#45;3&#45;&gt;2</title>
<path fill="none" stroke="green" stroke-width="0.33" d="M660.6,-247.84C591.61,-249.13 275.12,-250 361.62,-154.02 413.38,-96.6 632.39,-135.8 707.62,-118.02 720.91,-114.88 735.19,-109.67 746.78,-104.92"/>
<polygon fill="green" stroke="green" stroke-width="0.33" points="748.35,-108.06 756.19,-100.94 745.62,-101.61 748.35,-108.06"/>
</g>
<!-- &#45;3&#45;&gt;3 -->
<g id="edge128" class="edge">
<title>&#45;3&#45;&gt;3</title>
<path fill="none" stroke="red" stroke-width="0.2" d="M686.84,-245.82C700.71,-244.07 723.18,-241.36 742.62,-239.52 797.31,-234.36 1198.23,-243.75 1235.62,-203.52 1250.6,-187.41 1248.78,-171.66 1235.62,-154.02 1214.53,-125.75 1110.2,-106.05 1060.74,-98.14"/>
<polygon fill="red" stroke="red" stroke-width="0.2" points="1061.21,-94.67 1050.79,-96.59 1060.13,-101.59 1061.21,-94.67"/>
</g>
<!-- &#45;3&#45;&gt;4 -->
<g id="edge129" class="edge">
<title>&#45;3&#45;&gt;4</title>
<path fill="none" stroke="green" stroke-width="0.11" d="M682.96,-239.42C701.82,-223.07 745.89,-185.08 783.62,-154.02 801.78,-139.08 822.74,-122.43 837.88,-110.52"/>
<polygon fill="green" stroke="green" stroke-width="0.11" points="840.35,-113.02 846.05,-104.09 836.03,-107.52 840.35,-113.02"/>
</g>
<!-- &#45;3&#45;&gt;5 -->
<g id="edge130" class="edge">
<title>&#45;3&#45;&gt;5</title>
<path fill="none" stroke="green" stroke-width="0.12" d="M660.62,-247.17C592.7,-245.23 280.66,-234.64 252.62,-203.52 237.9,-187.18 237.78,-170.26 252.62,-154.02 313.46,-87.52 574.13,-154.33 656.62,-118.02 659.55,-116.74 662.37,-114.98 665,-113.01"/>
<polygon fill="green" stroke="green" stroke-width="0.12" points="667.48,-115.49 672.66,-106.24 662.85,-110.24 667.48,-115.49"/>
</g>
<!-- &#45;3&#45;&gt;6 -->
<g id="edge131" class="edge">
<title>&#45;3&#45;&gt;6</title>
<path fill="none" stroke="green" stroke-width="0.27" d="M660.51,-247.68C572.47,-248.59 69.64,-251.69 24.62,-203.52 9.6,-187.45 9.69,-170.18 24.62,-154.02 59.12,-116.7 431.02,-129.1 480.62,-118.02 493.95,-115.05 508.23,-109.85 519.82,-105.07"/>
<polygon fill="green" stroke="green" stroke-width="0.27" points="521.4,-108.2 529.22,-101.04 518.65,-101.76 521.4,-108.2"/>
</g>
<!-- &#45;3&#45;&gt;7 -->
<g id="edge132" class="edge">
<title>&#45;3&#45;&gt;7</title>
<path fill="none" stroke="green" stroke-width="0.32" d="M686.74,-246C735.08,-240.28 901.33,-219.59 918.62,-203.52 941.61,-182.16 946.79,-144.72 947.45,-119.71"/>
<polygon fill="green" stroke="green" stroke-width="0.32" points="950.95,-119.53 947.49,-109.52 943.95,-119.51 950.95,-119.53"/>
</g>
<!-- &#45;3&#45;&gt;418 -->
<g id="edge19" class="edge">
<title>&#45;3&#45;&gt;418</title>
<path fill="none" stroke="red" stroke-width="0.31" d="M665.68,-239.48C657.12,-230.83 643.1,-216.65 630.86,-204.28"/>
<polygon fill="red" stroke="red" stroke-width="0.31" points="633.06,-201.52 623.54,-196.87 628.08,-206.44 633.06,-201.52"/>
</g>
<!-- &#45;3&#45;&gt;419 -->
<g id="edge20" class="edge">
<title>&#45;3&#45;&gt;419</title>
<path fill="none" stroke="red" stroke-width="0.28" d="M686.84,-245.87C700.72,-244.16 723.19,-241.47 742.62,-239.52 931.69,-220.58 990.4,-269.4 1168.62,-203.52 1170.51,-202.82 1172.39,-201.99 1174.23,-201.05"/>
<polygon fill="red" stroke="red" stroke-width="0.28" points="1176.32,-203.88 1183.09,-195.73 1172.71,-197.88 1176.32,-203.88"/>
</g>
<!-- &#45;3&#45;&gt;420 -->
<g id="edge21" class="edge">
<title>&#45;3&#45;&gt;420</title>
<path fill="none" stroke="green" stroke-width="0.12" d="M686.7,-246.02C716.94,-242.18 793.55,-230.37 851.62,-203.52 853.45,-202.68 855.28,-201.73 857.09,-200.7"/>
<polygon fill="green" stroke="green" stroke-width="0.12" points="859.28,-203.46 865.85,-195.15 855.53,-197.55 859.28,-203.46"/>
</g>
<!-- &#45;3&#45;&gt;422 -->
<g id="edge22" class="edge">
<title>&#45;3&#45;&gt;422</title>
<path fill="none" stroke="red" stroke-width="0.46" d="M686.66,-241.39C708.99,-230.88 755.18,-209.15 786.29,-194.51"/>
<polygon fill="red" stroke="red" stroke-width="0.46" points="787.86,-197.64 795.42,-190.22 784.88,-191.31 787.86,-197.64"/>
</g>
<!-- &#45;3&#45;&gt;423 -->
<g id="edge23" class="edge">
<title>&#45;3&#45;&gt;423</title>
<path fill="none" stroke="green" stroke-width="0.19" d="M660.25,-245.49C630.73,-240.71 558.15,-227.33 501.62,-203.52 498.21,-202.08 494.74,-200.38 491.35,-198.55"/>
<polygon fill="green" stroke="green" stroke-width="0.19" points="493.07,-195.5 482.66,-193.53 489.57,-201.56 493.07,-195.5"/>
</g>
<!-- &#45;3&#45;&gt;424 -->
<g id="edge24" class="edge">
<title>&#45;3&#45;&gt;424</title>
<path fill="none" stroke="red" stroke-width="0.22" d="M673.62,-239.48C673.62,-233.05 673.62,-223.55 673.62,-214.01"/>
<polygon fill="red" stroke="red" stroke-width="0.22" points="677.13,-213.79 673.62,-203.79 670.13,-213.79 677.13,-213.79"/>
</g>
<!-- &#45;3&#45;&gt;425 -->
<g id="edge25" class="edge">
<title>&#45;3&#45;&gt;425</title>
<path fill="none" stroke="red" stroke-width="0.17" d="M686.72,-245.75C738.37,-238.74 926.34,-212.81 951.62,-203.52 955.1,-202.24 958.61,-200.64 962.02,-198.87"/>
<polygon fill="red" stroke="red" stroke-width="0.17" points="963.77,-201.91 970.74,-193.93 960.32,-195.82 963.77,-201.91"/>
</g>
<!-- &#45;3&#45;&gt;426 -->
<g id="edge26" class="edge">
<title>&#45;3&#45;&gt;426</title>
<path fill="none" stroke="green" stroke-width="0.22" d="M686.72,-245.95C746.33,-238.78 990.65,-209.31 1024.62,-203.52 1050.28,-199.15 1079.02,-192.9 1100.69,-187.91"/>
<polygon fill="green" stroke="green" stroke-width="0.22" points="1101.76,-191.25 1110.71,-185.57 1100.18,-184.43 1101.76,-191.25"/>
</g>
<!-- &#45;3&#45;&gt;427 -->
<g id="edge27" class="edge">
<title>&#45;3&#45;&gt;427</title>
<path fill="none" stroke="green" stroke-width="0.31" d="M660.56,-247.19C622.99,-245.82 511.99,-238.84 428.62,-203.52 426.77,-202.74 424.92,-201.83 423.1,-200.85"/>
<polygon fill="green" stroke="green" stroke-width="0.31" points="424.64,-197.68 414.3,-195.38 420.95,-203.63 424.64,-197.68"/>
</g>
<!-- &#45;4 -->
<g id="node4" class="node">
<title>&#45;4</title>
<polygon fill="lightgray" stroke="black" points="897.62,-257.52 871.62,-257.52 871.62,-239.52 897.62,-239.52 897.62,-257.52"/>
<text text-anchor="middle" x="884.62" y="-246.32" font-family="Times-Roman" font-size="9.00">&#45;4</text>
</g>
<!-- &#45;4&#45;&gt;0 -->
<g id="edge133" class="edge">
<title>&#45;4&#45;&gt;0</title>
<path fill="none" stroke="green" stroke-width="0.16" d="M897.71,-246.16C914.22,-244.46 943.51,-241.54 968.62,-239.52 1029.34,-234.63 1473.99,-247.98 1515.62,-203.52 1530.66,-187.46 1529.35,-171.22 1515.62,-154.02 1423.45,-38.54 918.97,-20.42 797.12,-17.72"/>
<polygon fill="green" stroke="green" stroke-width="0.16" points="796.92,-14.21 786.85,-17.51 796.78,-21.21 796.92,-14.21"/>
</g>
<!-- &#45;4&#45;&gt;1 -->
<g id="edge134" class="edge">
<title>&#45;4&#45;&gt;1</title>
<path fill="none" stroke="green" stroke-width="0.25" d="M871.47,-246.44C790.45,-239.81 362.74,-204.74 361.62,-203.52 346.74,-187.33 347.46,-170.86 361.62,-154.02 391.68,-118.29 523.58,-130.31 568.62,-118.02 581.79,-114.43 596.06,-109.17 607.68,-104.52"/>
<polygon fill="green" stroke="green" stroke-width="0.25" points="609.2,-107.68 617.12,-100.64 606.54,-101.2 609.2,-107.68"/>
</g>
<!-- &#45;4&#45;&gt;2 -->
<g id="edge135" class="edge">
<title>&#45;4&#45;&gt;2</title>
<path fill="none" stroke="green" stroke-width="0.73" d="M897.72,-246.12C960.73,-239.34 1229.89,-210.03 1235.62,-203.52 1250.18,-187.03 1250.47,-170.26 1235.62,-154.02 1175.1,-87.84 921.06,-138.03 833.62,-118.02 820.32,-114.98 806.04,-109.77 794.45,-105.01"/>
<polygon fill="green" stroke="green" stroke-width="0.73" points="795.61,-101.7 785.04,-101 792.87,-108.14 795.61,-101.7"/>
</g>
<!-- &#45;4&#45;&gt;3 -->
<g id="edge136" class="edge">
<title>&#45;4&#45;&gt;3</title>
<path fill="none" stroke="green" stroke-width="0.31" d="M897.71,-246.17C914.23,-244.48 943.51,-241.57 968.62,-239.52 1027.23,-234.73 1456.48,-246.49 1496.62,-203.52 1511.64,-187.45 1511.15,-170.55 1496.62,-154.02 1467.61,-121.01 1154.71,-100.98 1061,-95.69"/>
<polygon fill="green" stroke="green" stroke-width="0.31" points="1061.11,-92.19 1050.93,-95.13 1060.72,-99.18 1061.11,-92.19"/>
</g>
<!-- &#45;4&#45;&gt;4 -->
<g id="edge137" class="edge">
<title>&#45;4&#45;&gt;4</title>
<path fill="none" stroke="green" stroke-width="0.11" d="M898.05,-246.23C965.26,-239.73 1262.29,-210.63 1268.62,-203.52 1283.27,-187.1 1283.36,-170.36 1268.62,-154.02 1216.71,-96.45 997.07,-135.84 921.62,-118.02 908.34,-114.89 894.06,-109.67 882.47,-104.92"/>
<polygon fill="green" stroke="green" stroke-width="0.11" points="883.63,-101.61 873.06,-100.94 880.9,-108.06 883.63,-101.61"/>
</g>
<!-- &#45;4&#45;&gt;5 -->
<g id="edge138" class="edge">
<title>&#45;4&#45;&gt;5</title>
<path fill="none" stroke="green" stroke-width="0.43" d="M871.3,-246.13C812.98,-239.99 582.65,-215.06 572.62,-203.52 558.2,-186.92 560.51,-172.39 572.62,-154.02 594.98,-120.12 622.48,-140.03 656.62,-118.02 659.18,-116.38 661.72,-114.48 664.16,-112.48"/>
<polygon fill="green" stroke="green" stroke-width="0.43" points="666.78,-114.83 671.92,-105.57 662.12,-109.61 666.78,-114.83"/>
</g>
<!-- &#45;4&#45;&gt;6 -->
<g id="edge139" class="edge">
<title>&#45;4&#45;&gt;6</title>
<path fill="none" stroke="red" stroke-width="0.21" d="M871.62,-246.46C789.61,-239.74 347.62,-203.52 347.62,-203.52 332.72,-187.34 334.26,-171.49 347.62,-154.02 384.84,-105.39 422.35,-136.85 480.62,-118.02 493.53,-113.86 507.68,-108.59 519.29,-104.07"/>
<polygon fill="red" stroke="red" stroke-width="0.21" points="520.73,-107.27 528.75,-100.35 518.16,-100.76 520.73,-107.27"/>
</g>
<!-- &#45;4&#45;&gt;7 -->
<g id="edge140" class="edge">
<title>&#45;4&#45;&gt;7</title>
<path fill="none" stroke="green" stroke-width="0.14" d="M897.71,-246.21C914.23,-244.57 943.52,-241.72 968.62,-239.52 1018.81,-235.13 1386.44,-240.53 1420.62,-203.52 1435.55,-187.36 1435.49,-170.24 1420.62,-154.02 1389.66,-120.22 1054.32,-128.2 1009.62,-118.02 996.31,-114.99 982.04,-109.78 970.44,-105.02"/>
<polygon fill="green" stroke="green" stroke-width="0.14" points="971.61,-101.71 961.04,-101.01 968.87,-108.15 971.61,-101.71"/>
</g>
<!-- &#45;4&#45;&gt;418 -->
<g id="edge28" class="edge">
<title>&#45;4&#45;&gt;418</title>
<path fill="none" stroke="green" stroke-width="0.15" d="M871.39,-245.93C826.8,-240.45 682.5,-221.69 639.62,-203.52 637.77,-202.74 635.92,-201.83 634.1,-200.85"/>
<polygon fill="green" stroke="green" stroke-width="0.15" points="635.64,-197.68 625.3,-195.38 631.95,-203.63 635.64,-197.68"/>
</g>
<!-- &#45;4&#45;&gt;419 -->
<g id="edge29" class="edge">
<title>&#45;4&#45;&gt;419</title>
<path fill="none" stroke="red" stroke-width="0.24" d="M897.87,-246.3C946.96,-241.63 1118.18,-224.18 1168.62,-203.52 1170.49,-202.76 1172.34,-201.87 1174.17,-200.9"/>
<polygon fill="red" stroke="red" stroke-width="0.24" points="1176.31,-203.69 1182.99,-195.47 1172.64,-197.73 1176.31,-203.69"/>
</g>
<!-- &#45;4&#45;&gt;420 -->
<g id="edge30" class="edge">
<title>&#45;4&#45;&gt;420</title>
<path fill="none" stroke="red" stroke-width="0.14" d="M884.62,-239.48C884.62,-233.05 884.62,-223.55 884.62,-214.01"/>
<polygon fill="red" stroke="red" stroke-width="0.14" points="888.13,-213.79 884.62,-203.79 881.13,-213.79 888.13,-213.79"/>
</g>
<!-- &#45;4&#45;&gt;422 -->
<g id="edge31" class="edge">
<title>&#45;4&#45;&gt;422</title>
<path fill="none" stroke="green" stroke-width="0.28" d="M876.68,-239.48C868.12,-230.83 854.1,-216.65 841.86,-204.28"/>
<polygon fill="green" stroke="green" stroke-width="0.28" points="844.06,-201.52 834.54,-196.87 839.08,-206.44 844.06,-201.52"/>
</g>
<!-- &#45;4&#45;&gt;423 -->
<g id="edge32" class="edge">
<title>&#45;4&#45;&gt;423</title>
<path fill="none" stroke="red" stroke-width="0.5" d="M871.55,-246.36C808.5,-240.69 537.39,-215.8 501.62,-203.52 498.12,-202.32 494.59,-200.76 491.17,-199.02"/>
<polygon fill="red" stroke="red" stroke-width="0.5" points="492.87,-195.96 482.44,-194.11 489.44,-202.06 492.87,-195.96"/>
</g>
<!-- &#45;4&#45;&gt;424 -->
<g id="edge33" class="edge">
<title>&#45;4&#45;&gt;424</title>
<path fill="none" stroke="green" stroke-width="0.18" d="M871.43,-243.28C838.9,-232.84 754.1,-205.61 706.77,-190.42"/>
<polygon fill="green" stroke="green" stroke-width="0.18" points="707.59,-187 696.99,-187.28 705.45,-193.67 707.59,-187"/>
</g>
<!-- &#45;4&#45;&gt;425 -->
<g id="edge34" class="edge">
<title>&#45;4&#45;&gt;425</title>
<path fill="none" stroke="green" stroke-width="0.51" d="M897.2,-239.48C912.94,-229.42 940.39,-211.88 961.47,-198.4"/>
<polygon fill="green" stroke="green" stroke-width="0.51" points="963.53,-201.25 970.07,-192.91 959.76,-195.35 963.53,-201.25"/>
</g>
<!-- &#45;4&#45;&gt;426 -->
<g id="edge35" class="edge">
<title>&#45;4&#45;&gt;426</title>
<path fill="none" stroke="green" stroke-width="0.13" d="M897.71,-244.43C926.65,-237.54 998.26,-220.22 1057.62,-203.52 1072.01,-199.48 1087.79,-194.68 1101.3,-190.45"/>
<polygon fill="green" stroke="green" stroke-width="0.13" points="1102.64,-193.7 1111.13,-187.36 1100.54,-187.02 1102.64,-193.7"/>
</g>
<!-- &#45;4&#45;&gt;427 -->
<g id="edge36" class="edge">
<title>&#45;4&#45;&gt;427</title>
<path fill="none" stroke="green" stroke-width="0.29" d="M871.19,-246.42C798,-240.42 449.93,-211.54 428.62,-203.52 426.74,-202.81 424.87,-201.97 423.03,-201.03"/>
<polygon fill="green" stroke="green" stroke-width="0.29" points="424.55,-197.86 414.18,-195.68 420.93,-203.85 424.55,-197.86"/>
</g>
<!-- 418&#45;&gt;0 -->
<g id="edge37" class="edge">
<title>418&#45;&gt;0</title>
<path fill="none" stroke="green" stroke-width="0.55" d="M599.38,-154.86C593.32,-130.91 588.31,-93.44 606.62,-68.53 638.39,-25.32 706.4,-17.52 744.1,-16.7"/>
<polygon fill="green" stroke="green" stroke-width="0.55" points="744.34,-20.2 754.31,-16.63 744.29,-13.2 744.34,-20.2"/>
</g>
<!-- 418&#45;&gt;1 -->
<g id="edge38" class="edge">
<title>418&#45;&gt;1</title>
<path fill="none" stroke="green" stroke-width="0.32" d="M613.46,-154.96C616.8,-143.79 620.83,-130.34 624.24,-118.94"/>
<polygon fill="green" stroke="green" stroke-width="0.32" points="627.65,-119.75 627.17,-109.17 620.94,-117.74 627.65,-119.75"/>
</g>
<!-- 418&#45;&gt;2 -->
<g id="edge39" class="edge">
<title>418&#45;&gt;2</title>
<path fill="none" stroke="green" stroke-width="0.21" d="M625.75,-163.05C630.19,-159.9 634.99,-156.72 639.62,-154.02 675.28,-133.33 719.37,-114.5 746.22,-103.72"/>
<polygon fill="green" stroke="green" stroke-width="0.21" points="747.61,-106.94 755.62,-100 745.03,-100.43 747.61,-106.94"/>
</g>
<!-- 418&#45;&gt;3 -->
<g id="edge40" class="edge">
<title>418&#45;&gt;3</title>
<path fill="none" stroke="green" stroke-width="0.31" d="M625.2,-161.91C629.67,-158.82 634.62,-155.94 639.62,-154.02 778.22,-100.92 827.26,-152.48 971.62,-118.02 984.9,-114.86 999.18,-109.64 1010.78,-104.9"/>
<polygon fill="green" stroke="green" stroke-width="0.31" points="1012.34,-108.03 1020.19,-100.92 1009.61,-101.59 1012.34,-108.03"/>
</g>
<!-- 418&#45;&gt;4 -->
<g id="edge41" class="edge">
<title>418&#45;&gt;4</title>
<path fill="none" stroke="green" stroke-width="0.33" d="M625.38,-162.34C629.84,-159.23 634.74,-156.24 639.62,-154.02 704.44,-124.67 727.52,-138.62 795.62,-118.02 808.61,-114.1 822.76,-108.85 834.36,-104.29"/>
<polygon fill="green" stroke="green" stroke-width="0.33" points="835.82,-107.48 843.8,-100.51 833.21,-100.98 835.82,-107.48"/>
</g>
<!-- 418&#45;&gt;5 -->
<g id="edge42" class="edge">
<title>418&#45;&gt;5</title>
<path fill="none" stroke="green" stroke-width="0.11" d="M623.12,-159.66C635.52,-146.02 652.49,-127.38 665.14,-113.49"/>
<polygon fill="green" stroke="green" stroke-width="0.11" points="667.87,-115.68 672.02,-105.93 662.7,-110.97 667.87,-115.68"/>
</g>
<!-- 418&#45;&gt;6 -->
<g id="edge43" class="edge">
<title>418&#45;&gt;6</title>
<path fill="none" stroke="red" stroke-width="0.49" d="M592.01,-158.41C582.23,-145.44 569.37,-128.4 559.36,-115.13"/>
<polygon fill="red" stroke="red" stroke-width="0.49" points="562.08,-112.92 553.26,-107.05 556.49,-117.14 562.08,-112.92"/>
</g>
<!-- 418&#45;&gt;7 -->
<g id="edge44" class="edge">
<title>418&#45;&gt;7</title>
<path fill="none" stroke="red" stroke-width="0.53" d="M625.25,-162.05C629.73,-158.95 634.65,-156.04 639.62,-154.02 741.21,-112.84 777.51,-145.51 883.62,-118.02 896.84,-114.6 911.11,-109.36 922.72,-104.67"/>
<polygon fill="red" stroke="red" stroke-width="0.53" points="924.26,-107.82 932.15,-100.75 921.57,-101.36 924.26,-107.82"/>
</g>
<!-- 419&#45;&gt;0 -->
<g id="edge45" class="edge">
<title>419&#45;&gt;0</title>
<path fill="none" stroke="green" stroke-width="0.49" d="M1188.22,-157.41C1170.35,-132.07 1136.21,-89.58 1095.62,-68.53 1043.51,-41.5 865.55,-24.82 797.44,-19.3"/>
<polygon fill="green" stroke="green" stroke-width="0.49" points="797.37,-15.79 787.12,-18.48 796.82,-22.76 797.37,-15.79"/>
</g>
<!-- 419&#45;&gt;1 -->
<g id="edge46" class="edge">
<title>419&#45;&gt;1</title>
<path fill="none" stroke="green" stroke-width="0.21" d="M1183.11,-161.77C1178.63,-158.68 1173.67,-155.85 1168.62,-154.02 954.53,-76.58 866.86,-207.79 657.62,-118.02 654.69,-116.76 651.86,-115.03 649.23,-113.06"/>
<polygon fill="green" stroke="green" stroke-width="0.21" points="651.38,-110.29 641.56,-106.3 646.75,-115.54 651.38,-110.29"/>
</g>
<!-- 419&#45;&gt;2 -->
<g id="edge47" class="edge">
<title>419&#45;&gt;2</title>
<path fill="none" stroke="green" stroke-width="0.55" d="M1183.05,-161.9C1178.58,-158.81 1173.64,-155.94 1168.62,-154.02 1028.77,-100.51 979.3,-152.71 833.62,-118.02 820.35,-114.86 806.07,-109.64 794.47,-104.9"/>
<polygon fill="green" stroke="green" stroke-width="0.55" points="795.63,-101.59 785.06,-100.92 792.91,-108.04 795.63,-101.59"/>
</g>
<!-- 419&#45;&gt;3 -->
<g id="edge48" class="edge">
<title>419&#45;&gt;3</title>
<path fill="none" stroke="green" stroke-width="0.48" d="M1182.52,-163.03C1178.07,-159.88 1173.28,-156.7 1168.62,-154.02 1132.01,-132.98 1086.61,-114.13 1059.16,-103.46"/>
<polygon fill="green" stroke="green" stroke-width="0.48" points="1060.17,-100.1 1049.58,-99.78 1057.66,-106.63 1060.17,-100.1"/>
</g>
<!-- 419&#45;&gt;4 -->
<g id="edge49" class="edge">
<title>419&#45;&gt;4</title>
<path fill="none" stroke="green" stroke-width="0.23" d="M1183,-162.04C1178.53,-158.95 1173.6,-156.04 1168.62,-154.02 1065.78,-112.44 1029.04,-145.75 921.62,-118.02 908.41,-114.61 894.14,-109.37 882.53,-104.68"/>
<polygon fill="green" stroke="green" stroke-width="0.23" points="883.68,-101.37 873.1,-100.76 880.99,-107.83 883.68,-101.37"/>
</g>
<!-- 419&#45;&gt;5 -->
<g id="edge50" class="edge">
<title>419&#45;&gt;5</title>
<path fill="none" stroke="red" stroke-width="0.18" d="M1183.09,-161.82C1178.61,-158.74 1173.66,-155.89 1168.62,-154.02 991.67,-88.56 929.65,-159.7 745.62,-118.02 732.31,-115.01 718.03,-109.8 706.44,-105.03"/>
<polygon fill="red" stroke="red" stroke-width="0.18" points="707.61,-101.72 697.04,-101.02 704.86,-108.16 707.61,-101.72"/>
</g>
<!-- 419&#45;&gt;6 -->
<g id="edge51" class="edge">
<title>419&#45;&gt;6</title>
<path fill="none" stroke="green" stroke-width="0.17" d="M1183.11,-161.74C1178.64,-158.66 1173.68,-155.83 1168.62,-154.02 932.99,-69.64 851.3,-170.75 606.62,-118.02 593.28,-115.15 579,-109.95 567.41,-105.16"/>
<polygon fill="green" stroke="green" stroke-width="0.17" points="568.59,-101.85 558.02,-101.11 565.82,-108.28 568.59,-101.85"/>
</g>
<!-- 419&#45;&gt;7 -->
<g id="edge52" class="edge">
<title>419&#45;&gt;7</title>
<path fill="none" stroke="green" stroke-width="0.17" d="M1182.88,-162.33C1178.41,-159.22 1173.52,-156.23 1168.62,-154.02 1102.56,-124.27 1079.02,-138.85 1009.62,-118.02 996.64,-114.13 982.48,-108.88 970.89,-104.32"/>
<polygon fill="green" stroke="green" stroke-width="0.17" points="972.03,-101 961.45,-100.53 969.42,-107.5 972.03,-101"/>
</g>
<!-- 420&#45;&gt;0 -->
<g id="edge53" class="edge">
<title>420&#45;&gt;0</title>
<path fill="none" stroke="red" stroke-width="0.3" d="M891.1,-154.82C896.34,-131.19 900.39,-94.28 883.62,-68.53 864.43,-39.04 823.74,-26.31 796.79,-20.96"/>
<polygon fill="red" stroke="red" stroke-width="0.3" points="797.32,-17.5 786.86,-19.2 796.1,-24.39 797.32,-17.5"/>
</g>
<!-- 420&#45;&gt;1 -->
<g id="edge54" class="edge">
<title>420&#45;&gt;1</title>
<path fill="none" stroke="red" stroke-width="0.22" d="M865.94,-162.19C861.47,-159.08 856.56,-156.13 851.62,-154.02 770.98,-119.58 736.13,-157.1 657.62,-118.02 654.96,-116.7 652.36,-115.01 649.91,-113.16"/>
<polygon fill="red" stroke="red" stroke-width="0.22" points="652.06,-110.39 642.22,-106.45 647.46,-115.66 652.06,-110.39"/>
</g>
<!-- 420&#45;&gt;2 -->
<g id="edge55" class="edge">
<title>420&#45;&gt;2</title>
<path fill="none" stroke="green" stroke-width="0.14" d="M865.03,-163.42C844.53,-148.41 812.48,-124.93 791.51,-109.57"/>
<polygon fill="green" stroke="green" stroke-width="0.14" points="793.4,-106.62 783.27,-103.54 789.27,-112.27 793.4,-106.62"/>
</g>
<!-- 420&#45;&gt;3 -->
<g id="edge56" class="edge">
<title>420&#45;&gt;3</title>
<path fill="none" stroke="red" stroke-width="0.36" d="M906.12,-165.81C934.21,-150.17 983.2,-122.9 1011.9,-106.93"/>
<polygon fill="red" stroke="red" stroke-width="0.36" points="1013.75,-109.9 1020.79,-101.98 1010.35,-103.78 1013.75,-109.9"/>
</g>
<!-- 420&#45;&gt;4 -->
<g id="edge57" class="edge">
<title>420&#45;&gt;4</title>
<path fill="none" stroke="red" stroke-width="0.29" d="M877.52,-154.96C874.02,-143.72 869.8,-130.16 866.23,-118.71"/>
<polygon fill="red" stroke="red" stroke-width="0.29" points="869.5,-117.42 863.18,-108.92 862.81,-119.5 869.5,-117.42"/>
</g>
<!-- 420&#45;&gt;5 -->
<g id="edge58" class="edge">
<title>420&#45;&gt;5</title>
<path fill="none" stroke="red" stroke-width="0.15" d="M865.7,-162.7C861.24,-159.57 856.39,-156.48 851.62,-154.02 807.39,-131.24 792.46,-134.8 745.62,-118.02 732.86,-113.45 718.72,-108.15 707.08,-103.71"/>
<polygon fill="red" stroke="red" stroke-width="0.15" points="708.18,-100.38 697.59,-100.08 705.68,-106.92 708.18,-100.38"/>
</g>
<!-- 420&#45;&gt;6 -->
<g id="edge59" class="edge">
<title>420&#45;&gt;6</title>
<path fill="none" stroke="green" stroke-width="0.7" d="M866,-162.05C861.53,-158.95 856.6,-156.04 851.62,-154.02 749.62,-112.71 713.17,-145.59 606.62,-118.02 593.41,-114.6 579.14,-109.36 567.53,-104.67"/>
<polygon fill="green" stroke="green" stroke-width="0.7" points="568.68,-101.36 558.1,-100.75 565.99,-107.82 568.68,-101.36"/>
</g>
<!-- 420&#45;&gt;7 -->
<g id="edge60" class="edge">
<title>420&#45;&gt;7</title>
<path fill="none" stroke="green" stroke-width="0.44" d="M899,-158.41C908.63,-145.44 921.29,-128.4 931.14,-115.13"/>
<polygon fill="green" stroke="green" stroke-width="0.44" points="933.99,-117.16 937.14,-107.05 928.37,-112.99 933.99,-117.16"/>
</g>
<!-- 422&#45;&gt;0 -->
<g id="edge61" class="edge">
<title>422&#45;&gt;0</title>
<path fill="none" stroke="red" stroke-width="0.11" d="M814.6,-153.87C811.35,-131.43 805.3,-97.12 795.62,-68.53 792.32,-58.75 787.55,-48.43 783.07,-39.63"/>
<polygon fill="red" stroke="red" stroke-width="0.11" points="786.17,-37.99 778.4,-30.78 779.97,-41.26 786.17,-37.99"/>
</g>
<!-- 422&#45;&gt;1 -->
<g id="edge62" class="edge">
<title>422&#45;&gt;1</title>
<path fill="none" stroke="green" stroke-width="0.56" d="M793.56,-171.89C761.08,-163.28 702.15,-145.25 657.62,-118.02 655.03,-116.44 652.47,-114.58 650.02,-112.6"/>
<polygon fill="green" stroke="green" stroke-width="0.56" points="652.05,-109.72 642.25,-105.7 647.4,-114.96 652.05,-109.72"/>
</g>
<!-- 422&#45;&gt;2 -->
<g id="edge63" class="edge">
<title>422&#45;&gt;2</title>
<path fill="none" stroke="green" stroke-width="0.18" d="M805.76,-156.7C798.87,-144.46 790.2,-129.04 783.19,-116.59"/>
<polygon fill="green" stroke="green" stroke-width="0.18" points="786.17,-114.75 778.21,-107.75 780.07,-118.19 786.17,-114.75"/>
</g>
<!-- 422&#45;&gt;3 -->
<g id="edge64" class="edge">
<title>422&#45;&gt;3</title>
<path fill="none" stroke="green" stroke-width="0.41" d="M836.48,-162.57C840.95,-159.44 845.81,-156.39 850.62,-154.02 900.99,-129.29 918.45,-135.93 971.62,-118.02 984.48,-113.7 998.62,-108.41 1010.24,-103.93"/>
<polygon fill="green" stroke="green" stroke-width="0.41" points="1011.67,-107.13 1019.71,-100.24 1009.12,-100.61 1011.67,-107.13"/>
</g>
<!-- 422&#45;&gt;4 -->
<g id="edge65" class="edge">
<title>422&#45;&gt;4</title>
<path fill="none" stroke="green" stroke-width="0.21" d="M828.18,-156.27C834.06,-144.3 841.38,-129.4 847.37,-117.2"/>
<polygon fill="green" stroke="green" stroke-width="0.21" points="850.56,-118.63 851.83,-108.11 844.28,-115.55 850.56,-118.63"/>
</g>
<!-- 422&#45;&gt;5 -->
<g id="edge66" class="edge">
<title>422&#45;&gt;5</title>
<path fill="none" stroke="red" stroke-width="0.4" stroke-dasharray="1,5" d="M796.83,-164.91C771.93,-149.51 730.4,-123.82 704.87,-108.04"/>
<polygon fill="red" stroke="red" stroke-width="0.4" points="706.6,-104.99 696.25,-102.7 702.92,-110.94 706.6,-104.99"/>
</g>
<!-- 422&#45;&gt;6 -->
<g id="edge67" class="edge">
<title>422&#45;&gt;6</title>
<path fill="none" stroke="green" stroke-width="0.19" d="M793.69,-171.7C754.36,-161.57 673.7,-140.12 606.62,-118.02 593.74,-113.78 579.6,-108.51 567.98,-104.01"/>
<polygon fill="green" stroke="green" stroke-width="0.19" points="569.11,-100.69 558.52,-100.3 566.55,-107.21 569.11,-100.69"/>
</g>
<!-- 422&#45;&gt;7 -->
<g id="edge68" class="edge">
<title>422&#45;&gt;7</title>
<path fill="none" stroke="green" stroke-width="0.27" d="M837.37,-163.24C841.7,-160.14 846.29,-156.93 850.62,-154.02 875.43,-137.4 904.65,-119.44 924.28,-107.6"/>
<polygon fill="green" stroke="green" stroke-width="0.27" points="926.32,-110.46 933.09,-102.31 922.71,-104.46 926.32,-110.46"/>
</g>
<!-- 423&#45;&gt;0 -->
<g id="edge69" class="edge">
<title>423&#45;&gt;0</title>
<path fill="none" stroke="red" stroke-width="0.17" d="M468.2,-154.23C475.44,-129.02 490.61,-89.78 518.62,-68.53 554.13,-41.6 687.51,-25.49 744.52,-19.71"/>
<polygon fill="red" stroke="red" stroke-width="0.17" points="744.94,-23.18 754.54,-18.72 744.25,-16.22 744.94,-23.18"/>
</g>
<!-- 423&#45;&gt;1 -->
<g id="edge70" class="edge">
<title>423&#45;&gt;1</title>
<path fill="none" stroke="green" stroke-width="0.41" d="M483.42,-164.5C489.23,-160.96 495.61,-157.23 501.62,-154.02 537.79,-134.78 581.32,-115.54 607.71,-104.28"/>
<polygon fill="green" stroke="green" stroke-width="0.41" points="609.09,-107.49 616.93,-100.37 606.36,-101.05 609.09,-107.49"/>
</g>
<!-- 423&#45;&gt;2 -->
<g id="edge71" class="edge">
<title>423&#45;&gt;2</title>
<path fill="none" stroke="red" stroke-width="0.13" d="M486.88,-172.88C531.18,-163.72 627.94,-142.66 707.62,-118.02 720.58,-114.02 734.73,-108.77 746.34,-104.22"/>
<polygon fill="red" stroke="red" stroke-width="0.13" points="747.79,-107.41 755.78,-100.46 745.2,-100.91 747.79,-107.41"/>
</g>
<!-- 423&#45;&gt;3 -->
<g id="edge72" class="edge">
<title>423&#45;&gt;3</title>
<path fill="none" stroke="green" stroke-width="0.19" d="M486.5,-171.73C508.68,-166.33 542.69,-158.59 572.62,-154.02 748.64,-127.19 798.07,-157.79 971.62,-118.02 984.93,-114.98 999.21,-109.77 1010.8,-105"/>
<polygon fill="green" stroke="green" stroke-width="0.19" points="1012.38,-108.13 1020.21,-100.99 1009.63,-101.69 1012.38,-108.13"/>
</g>
<!-- 423&#45;&gt;4 -->
<g id="edge73" class="edge">
<title>423&#45;&gt;4</title>
<path fill="none" stroke="red" stroke-width="0.36" d="M486.58,-172.22C508.82,-167.16 542.87,-159.63 572.62,-154.02 671.28,-135.42 698.61,-143.86 795.62,-118.02 808.82,-114.51 823.08,-109.26 834.7,-104.59"/>
<polygon fill="red" stroke="red" stroke-width="0.36" points="836.23,-107.75 844.13,-100.69 833.55,-101.28 836.23,-107.75"/>
</g>
<!-- 423&#45;&gt;5 -->
<g id="edge74" class="edge">
<title>423&#45;&gt;5</title>
<path fill="none" stroke="red" stroke-width="0.3" d="M486.21,-170.49C501.45,-165.79 521.71,-159.54 539.62,-154.02 591.62,-138.01 609.39,-145.03 656.62,-118.02 659.26,-116.52 661.85,-114.7 664.32,-112.75"/>
<polygon fill="red" stroke="red" stroke-width="0.3" points="666.93,-115.12 672.1,-105.87 662.29,-109.87 666.93,-115.12"/>
</g>
<!-- 423&#45;&gt;6 -->
<g id="edge75" class="edge">
<title>423&#45;&gt;6</title>
<path fill="none" stroke="red" stroke-width="0.5" d="M479.41,-160.47C492.86,-146.61 511.7,-127.19 525.49,-112.97"/>
<polygon fill="red" stroke="red" stroke-width="0.5" points="528.12,-115.29 532.57,-105.67 523.09,-110.41 528.12,-115.29"/>
</g>
<!-- 423&#45;&gt;7 -->
<g id="edge76" class="edge">
<title>423&#45;&gt;7</title>
<path fill="none" stroke="green" stroke-width="0.36" d="M486.53,-171.91C508.73,-166.63 542.75,-158.97 572.62,-154.02 709.9,-131.32 748.4,-150.81 883.62,-118.02 896.89,-114.81 911.17,-109.58 922.77,-104.85"/>
<polygon fill="green" stroke="green" stroke-width="0.36" points="924.32,-107.99 932.18,-100.89 921.61,-101.54 924.32,-107.99"/>
</g>
<!-- 424&#45;&gt;0 -->
<g id="edge77" class="edge">
<title>424&#45;&gt;0</title>
<path fill="none" stroke="red" stroke-width="0.17" d="M686.11,-157.12C704.38,-126.89 738.27,-70.8 757.11,-39.63"/>
<polygon fill="red" stroke="red" stroke-width="0.17" points="760.26,-41.18 762.44,-30.81 754.27,-37.56 760.26,-41.18"/>
</g>
<!-- 424&#45;&gt;1 -->
<g id="edge78" class="edge">
<title>424&#45;&gt;1</title>
<path fill="none" stroke="green" stroke-width="0.12" d="M662.81,-156.27C656.79,-144.3 649.29,-129.4 643.16,-117.2"/>
<polygon fill="green" stroke="green" stroke-width="0.12" points="646.21,-115.47 638.58,-108.11 639.95,-118.62 646.21,-115.47"/>
</g>
<!-- 424&#45;&gt;2 -->
<g id="edge79" class="edge">
<title>424&#45;&gt;2</title>
<path fill="none" stroke="red" stroke-width="0.48" d="M692.33,-161.67C709.17,-147.18 733.84,-125.94 750.97,-111.19"/>
<polygon fill="red" stroke="red" stroke-width="0.48" points="753.41,-113.71 758.71,-104.53 748.84,-108.41 753.41,-113.71"/>
</g>
<!-- 424&#45;&gt;3 -->
<g id="edge80" class="edge">
<title>424&#45;&gt;3</title>
<path fill="none" stroke="red" stroke-width="0.2" d="M697.62,-172.42C719.89,-167.5 753.95,-160.07 783.62,-154.02 866.99,-137.05 889.74,-141.11 971.62,-118.02 984.68,-114.34 998.84,-109.12 1010.42,-104.51"/>
<polygon fill="red" stroke="red" stroke-width="0.2" points="1011.91,-107.69 1019.85,-100.67 1009.26,-101.2 1011.91,-107.69"/>
</g>
<!-- 424&#45;&gt;4 -->
<g id="edge81" class="edge">
<title>424&#45;&gt;4</title>
<path fill="none" stroke="red" stroke-width="0.19" d="M693.92,-164.58C699.84,-160.96 706.4,-157.17 712.62,-154.02 734.76,-142.84 798.66,-117.58 834.14,-103.75"/>
<polygon fill="red" stroke="red" stroke-width="0.19" points="835.7,-106.9 843.75,-100.02 833.16,-100.38 835.7,-106.9"/>
</g>
<!-- 424&#45;&gt;5 -->
<g id="edge82" class="edge">
<title>424&#45;&gt;5</title>
<path fill="none" stroke="red" stroke-width="0.19" d="M676.18,-154.07C677.33,-143.37 678.7,-130.7 679.87,-119.79"/>
<polygon fill="red" stroke="red" stroke-width="0.19" points="683.38,-119.92 680.97,-109.6 676.42,-119.17 683.38,-119.92"/>
</g>
<!-- 424&#45;&gt;6 -->
<g id="edge83" class="edge">
<title>424&#45;&gt;6</title>
<path fill="none" stroke="green" stroke-width="0.11" d="M653.89,-163.22C649.56,-160.13 644.97,-156.92 640.62,-154.02 615.48,-137.26 585.79,-119.22 565.95,-107.4"/>
<polygon fill="green" stroke="green" stroke-width="0.11" points="567.7,-104.38 557.31,-102.29 564.13,-110.4 567.7,-104.38"/>
</g>
<!-- 424&#45;&gt;7 -->
<g id="edge84" class="edge">
<title>424&#45;&gt;7</title>
<path fill="none" stroke="red" stroke-width="0.86" d="M697.44,-171.69C736.59,-161.54 816.85,-140.07 883.62,-118.02 896.5,-113.77 910.65,-108.5 922.27,-104"/>
<polygon fill="red" stroke="red" stroke-width="0.86" points="923.7,-107.2 931.73,-100.29 921.14,-100.68 923.7,-107.2"/>
</g>
<!-- 425&#45;&gt;0 -->
<g id="edge85" class="edge">
<title>425&#45;&gt;0</title>
<path fill="none" stroke="green" stroke-width="0.11" d="M993.36,-154.11C994.81,-129.55 992.94,-91.56 971.62,-68.53 948.03,-43.03 845.86,-26.85 796.93,-20.42"/>
<polygon fill="green" stroke="green" stroke-width="0.11" points="797.16,-16.93 786.8,-19.13 796.28,-23.87 797.16,-16.93"/>
</g>
<!-- 425&#45;&gt;1 -->
<g id="edge86" class="edge">
<title>425&#45;&gt;1</title>
<path fill="none" stroke="green" stroke-width="0.23" d="M967.58,-168.99C953.6,-163.95 935.29,-157.89 918.62,-154.02 804.55,-127.58 763.64,-167.76 657.62,-118.02 654.73,-116.67 651.93,-114.87 649.31,-112.88"/>
<polygon fill="green" stroke="green" stroke-width="0.23" points="651.46,-110.1 641.65,-106.1 646.82,-115.35 651.46,-110.1"/>
</g>
<!-- 425&#45;&gt;2 -->
<g id="edge87" class="edge">
<title>425&#45;&gt;2</title>
<path fill="none" stroke="red" stroke-width="0.37" d="M967.5,-169C925.62,-153.1 837.63,-119.71 794.92,-103.5"/>
<polygon fill="red" stroke="red" stroke-width="0.37" points="796.16,-100.22 785.57,-99.95 793.67,-106.77 796.16,-100.22"/>
</g>
<!-- 425&#45;&gt;3 -->
<g id="edge88" class="edge">
<title>425&#45;&gt;3</title>
<path fill="none" stroke="green" stroke-width="0.44" d="M1001.96,-156.27C1008.26,-144.3 1016.12,-129.4 1022.54,-117.2"/>
<polygon fill="green" stroke="green" stroke-width="0.44" points="1025.77,-118.59 1027.33,-108.11 1019.58,-115.33 1025.77,-118.59"/>
</g>
<!-- 425&#45;&gt;4 -->
<g id="edge89" class="edge">
<title>425&#45;&gt;4</title>
<path fill="none" stroke="red" stroke-width="0.15" d="M970,-164.73C945.82,-149.43 905.91,-124.18 881,-108.43"/>
<polygon fill="red" stroke="red" stroke-width="0.15" points="882.58,-105.28 872.25,-102.9 878.83,-111.2 882.58,-105.28"/>
</g>
<!-- 425&#45;&gt;5 -->
<g id="edge90" class="edge">
<title>425&#45;&gt;5</title>
<path fill="none" stroke="green" stroke-width="0.37" d="M967.48,-169.4C953.46,-164.51 935.15,-158.45 918.62,-154.02 842.77,-133.69 821.04,-139.94 745.62,-118.02 732.6,-114.24 718.44,-109.01 706.85,-104.42"/>
<polygon fill="green" stroke="green" stroke-width="0.37" points="708.01,-101.11 697.42,-100.6 705.38,-107.6 708.01,-101.11"/>
</g>
<!-- 425&#45;&gt;6 -->
<g id="edge91" class="edge">
<title>425&#45;&gt;6</title>
<path fill="none" stroke="red" stroke-width="0.11" d="M967.61,-168.85C953.64,-163.77 935.34,-157.7 918.62,-154.02 782.3,-124.01 742.29,-150.89 606.62,-118.02 593.36,-114.81 579.08,-109.59 567.48,-104.85"/>
<polygon fill="red" stroke="red" stroke-width="0.11" points="568.64,-101.55 558.07,-100.89 565.92,-108 568.64,-101.55"/>
</g>
<!-- 425&#45;&gt;7 -->
<g id="edge92" class="edge">
<title>425&#45;&gt;7</title>
<path fill="none" stroke="green" stroke-width="0.2" d="M979.29,-156.27C972.99,-144.3 965.13,-129.4 958.71,-117.2"/>
<polygon fill="green" stroke="green" stroke-width="0.2" points="961.67,-115.33 953.92,-108.11 955.48,-118.59 961.67,-115.33"/>
</g>
<!-- 426&#45;&gt;0 -->
<g id="edge93" class="edge">
<title>426&#45;&gt;0</title>
<path fill="none" stroke="green" stroke-width="0.51" d="M1125.65,-155.34C1114.26,-129.97 1092.11,-89.46 1059.62,-68.53 1016.19,-40.54 860.17,-24.72 797.23,-19.36"/>
<polygon fill="green" stroke="green" stroke-width="0.51" points="797.2,-15.84 786.95,-18.5 796.62,-22.82 797.2,-15.84"/>
</g>
<!-- 426&#45;&gt;1 -->
<g id="edge94" class="edge">
<title>426&#45;&gt;1</title>
<path fill="none" stroke="red" stroke-width="0.48" d="M1110.74,-171.79C1088.56,-166.42 1054.54,-158.71 1024.62,-154.02 862.7,-128.69 807.34,-184.7 657.62,-118.02 654.7,-116.72 651.89,-114.96 649.26,-112.98"/>
<polygon fill="red" stroke="red" stroke-width="0.48" points="651.41,-110.21 641.6,-106.22 646.78,-115.46 651.41,-110.21"/>
</g>
<!-- 426&#45;&gt;2 -->
<g id="edge95" class="edge">
<title>426&#45;&gt;2</title>
<path fill="none" stroke="red" stroke-width="0.39" d="M1114.77,-163.53C1108.86,-159.9 1102.2,-156.36 1095.62,-154.02 984.88,-114.63 947.55,-146.94 833.62,-118.02 820.39,-114.67 806.12,-109.43 794.51,-104.73"/>
<polygon fill="red" stroke="red" stroke-width="0.39" points="795.67,-101.42 785.09,-100.79 792.97,-107.88 795.67,-101.42"/>
</g>
<!-- 426&#45;&gt;3 -->
<g id="edge96" class="edge">
<title>426&#45;&gt;3</title>
<path fill="none" stroke="green" stroke-width="0.2" d="M1115.82,-162.07C1098.41,-147.53 1072.61,-125.99 1054.78,-111.11"/>
<polygon fill="green" stroke="green" stroke-width="0.2" points="1056.66,-108.12 1046.74,-104.4 1052.18,-113.49 1056.66,-108.12"/>
</g>
<!-- 426&#45;&gt;4 -->
<g id="edge97" class="edge">
<title>426&#45;&gt;4</title>
<path fill="none" stroke="green" stroke-width="0.16" d="M1114.67,-163.82C1108.75,-160.19 1102.12,-156.58 1095.62,-154.02 1022.16,-125.06 997.47,-140.02 921.62,-118.02 908.6,-114.25 894.44,-109.02 882.85,-104.42"/>
<polygon fill="green" stroke="green" stroke-width="0.16" points="884.01,-101.12 873.42,-100.61 881.38,-107.6 884.01,-101.12"/>
</g>
<!-- 426&#45;&gt;5 -->
<g id="edge98" class="edge">
<title>426&#45;&gt;5</title>
<path fill="none" stroke="green" stroke-width="0.17" d="M1114.82,-163.39C1108.91,-159.75 1102.24,-156.25 1095.62,-154.02 947.42,-104.13 897.83,-153.9 745.62,-118.02 732.34,-114.89 718.06,-109.68 706.47,-104.93"/>
<polygon fill="green" stroke="green" stroke-width="0.17" points="707.63,-101.62 697.06,-100.94 704.9,-108.06 707.63,-101.62"/>
</g>
<!-- 426&#45;&gt;6 -->
<g id="edge99" class="edge">
<title>426&#45;&gt;6</title>
<path fill="none" stroke="red" stroke-width="0.17" d="M1110.75,-171.7C1088.58,-166.28 1054.57,-158.53 1024.62,-154.02 840.23,-126.29 788.46,-159.3 606.62,-118.02 593.31,-115 579.03,-109.8 567.44,-105.03"/>
<polygon fill="red" stroke="red" stroke-width="0.17" points="568.61,-101.72 558.04,-101.01 565.86,-108.16 568.61,-101.72"/>
</g>
<!-- 426&#45;&gt;7 -->
<g id="edge100" class="edge">
<title>426&#45;&gt;7</title>
<path fill="none" stroke="red" stroke-width="0.32" d="M1114.34,-164.55C1108.42,-160.93 1101.86,-157.15 1095.62,-154.02 1073.06,-142.73 1007.84,-117.51 971.62,-103.72"/>
<polygon fill="red" stroke="red" stroke-width="0.32" points="972.4,-100.27 961.81,-100 969.91,-106.82 972.4,-100.27"/>
</g>
<!-- 427&#45;&gt;0 -->
<g id="edge101" class="edge">
<title>427&#45;&gt;0</title>
<path fill="none" stroke="green" stroke-width="0.37" stroke-dasharray="1,5" d="M391.96,-154.16C389.55,-129.26 390.23,-90.65 412.62,-68.53 459.36,-22.36 668.89,-17.41 743.85,-17.15"/>
<polygon fill="green" stroke="green" stroke-width="0.37" points="744.3,-20.65 754.29,-17.14 744.29,-13.65 744.3,-20.65"/>
</g>
<!-- 427&#45;&gt;1 -->
<g id="edge102" class="edge">
<title>427&#45;&gt;1</title>
<path fill="none" stroke="green" stroke-width="0.32" d="M414.42,-162.43C418.88,-159.32 423.77,-156.3 428.62,-154.02 486.81,-126.79 507.36,-137.38 568.62,-118.02 581.56,-113.94 595.7,-108.68 607.31,-104.15"/>
<polygon fill="green" stroke="green" stroke-width="0.32" points="608.76,-107.34 616.77,-100.4 606.18,-100.83 608.76,-107.34"/>
</g>
<!-- 427&#45;&gt;2 -->
<g id="edge103" class="edge">
<title>427&#45;&gt;2</title>
<path fill="none" stroke="red" stroke-width="0.13" d="M414.23,-161.98C418.7,-158.89 423.64,-155.99 428.62,-154.02 544.92,-108.11 586.31,-148.28 707.62,-118.02 720.87,-114.72 735.14,-109.49 746.75,-104.78"/>
<polygon fill="red" stroke="red" stroke-width="0.13" points="748.3,-107.92 756.17,-100.83 745.59,-101.47 748.3,-107.92"/>
</g>
<!-- 427&#45;&gt;3 -->
<g id="edge104" class="edge">
<title>427&#45;&gt;3</title>
<path fill="none" stroke="red" stroke-width="0.24" d="M414.14,-161.75C418.62,-158.67 423.58,-155.84 428.62,-154.02 656.24,-72.23 735.25,-169.23 971.62,-118.02 984.97,-115.13 999.25,-109.94 1010.83,-105.14"/>
<polygon fill="red" stroke="red" stroke-width="0.24" points="1012.43,-108.27 1020.23,-101.1 1009.66,-101.84 1012.43,-108.27"/>
</g>
<!-- 427&#45;&gt;4 -->
<g id="edge105" class="edge">
<title>427&#45;&gt;4</title>
<path fill="none" stroke="red" stroke-width="0.25" d="M414.18,-161.87C418.66,-158.78 423.61,-155.92 428.62,-154.02 581.97,-96.17 636.01,-155.25 795.62,-118.02 808.92,-114.92 823.2,-109.71 834.79,-104.96"/>
<polygon fill="red" stroke="red" stroke-width="0.25" points="836.36,-108.09 844.2,-100.96 833.63,-101.65 836.36,-108.09"/>
</g>
<!-- 427&#45;&gt;5 -->
<g id="edge106" class="edge">
<title>427&#45;&gt;5</title>
<path fill="none" stroke="green" stroke-width="0.22" d="M414.27,-162.09C418.74,-158.99 423.66,-156.06 428.62,-154.02 523.5,-115 564.18,-162.5 656.62,-118.02 659.31,-116.73 661.92,-115.07 664.38,-113.23"/>
<polygon fill="green" stroke="green" stroke-width="0.22" points="666.82,-115.74 672.07,-106.54 662.23,-110.46 666.82,-115.74"/>
</g>
<!-- 427&#45;&gt;6 -->
<g id="edge107" class="edge">
<title>427&#45;&gt;6</title>
<path fill="none" stroke="red" stroke-width="0.34" d="M415.2,-162.98C419.54,-159.9 424.18,-156.76 428.62,-154.02 459.14,-135.25 496.19,-116.71 519.84,-105.38"/>
<polygon fill="red" stroke="red" stroke-width="0.34" points="521.56,-108.44 529.1,-100.99 518.56,-102.12 521.56,-108.44"/>
</g>
<!-- 427&#45;&gt;7 -->
<g id="edge108" class="edge">
<title>427&#45;&gt;7</title>
<path fill="none" stroke="green" stroke-width="0.14" d="M414.16,-161.8C418.63,-158.71 423.59,-155.87 428.62,-154.02 619.08,-84.2 685.65,-162.24 883.62,-118.02 896.95,-115.05 911.23,-109.85 922.82,-105.07"/>
<polygon fill="green" stroke="green" stroke-width="0.14" points="924.4,-108.2 932.22,-101.04 921.65,-101.76 924.4,-108.2"/>
</g>
<!-- 510 -->
<g id="node22" class="node">
<title>510</title>
<ellipse fill="white" stroke="black" cx="446.62" cy="-93.28" rx="25" ry="25"/>
<text text-anchor="middle" x="446.62" y="-91.08" font-family="Times-Roman" font-size="9.00">510</text>
</g>
<!-- 427&#45;&gt;510 -->
<g id="edge141" class="edge">
<title>427&#45;&gt;510</title>
<path fill="none" stroke="green" stroke-width="0.2" d="M408.23,-157.13C414.47,-146.92 422.1,-134.42 428.92,-123.27"/>
<polygon fill="green" stroke="green" stroke-width="0.2" points="431.94,-125.04 434.16,-114.68 425.96,-121.39 431.94,-125.04"/>
</g>
<!-- 510&#45;&gt;0 -->
<g id="edge142" class="edge">
<title>510&#45;&gt;0</title>
<path fill="none" stroke="red" stroke-width="0.4" d="M466.54,-78.21C472.46,-74.58 479.1,-71 485.62,-68.53 576.5,-34.07 692.64,-22.42 744.08,-18.78"/>
<polygon fill="red" stroke="red" stroke-width="0.4" points="744.57,-22.26 754.32,-18.1 744.11,-15.27 744.57,-22.26"/>
</g>
</g>
</svg>
