<?xml version="1.0" encoding="UTF-8" standalone="no"?>
<!DOCTYPE svg PUBLIC "-//W3C//DTD SVG 1.1//EN"
 "http://www.w3.org/Graphics/SVG/1.1/DTD/svg11.dtd">
<!-- Generated by graphviz version 2.44.0 (0)
 -->
<!-- Pages: 1 -->
<svg width="1777pt" height="180pt"
 viewBox="0.00 0.00 1776.57 180.02" xmlns="http://www.w3.org/2000/svg" xmlns:xlink="http://www.w3.org/1999/xlink">
<g id="graph0" class="graph" transform="scale(1 1) rotate(0) translate(4 176.02)">
<polygon fill="white" stroke="transparent" points="-4,4 -4,-176.02 1772.57,-176.02 1772.57,4 -4,4"/>
<!-- &#45;1 -->
<g id="node1" class="node">
<title>&#45;1</title>
<polygon fill="lightgray" stroke="black" points="771.27,-172.02 745.27,-172.02 745.27,-154.02 771.27,-154.02 771.27,-172.02"/>
<text text-anchor="middle" x="758.27" y="-160.82" font-family="Times-Roman" font-size="9.00">&#45;1</text>
</g>
<!-- 0 -->
<g id="node5" class="node">
<title>0</title>
<ellipse fill="lightblue" stroke="black" cx="833.27" cy="-16.26" rx="16.03" ry="16.03"/>
<text text-anchor="middle" x="833.27" y="-14.06" font-family="Times-Roman" font-size="9.00">0</text>
</g>
<!-- &#45;1&#45;&gt;0 -->
<g id="edge121" class="edge">
<title>&#45;1&#45;&gt;0</title>
<path fill="none" stroke="red" stroke-width="0.3" d="M745.27,-161.95C681.83,-161.15 410.9,-152.85 486.27,-68.53 533.96,-15.17 738.2,-54.58 806.27,-32.53 807.75,-32.05 809.23,-31.49 810.7,-30.86"/>
<polygon fill="red" stroke="red" stroke-width="0.3" points="812.68,-33.78 820.03,-26.15 809.53,-27.54 812.68,-33.78"/>
</g>
<!-- 1 -->
<g id="node6" class="node">
<title>1</title>
<ellipse fill="lightblue" stroke="black" cx="1037.27" cy="-16.26" rx="16.03" ry="16.03"/>
<text text-anchor="middle" x="1037.27" y="-14.06" font-family="Times-Roman" font-size="9.00">1</text>
</g>
<!-- &#45;1&#45;&gt;1 -->
<g id="edge122" class="edge">
<title>&#45;1&#45;&gt;1</title>
<path fill="none" stroke="red" stroke-width="0.25" d="M771.34,-158.32C777.36,-156.75 784.63,-155.05 791.27,-154.02 847.96,-145.24 1267.15,-159.98 1306.27,-118.02 1378.55,-40.52 1145.47,-22.26 1064.19,-18.29"/>
<polygon fill="red" stroke="red" stroke-width="0.25" points="1063.92,-14.77 1053.77,-17.82 1063.61,-21.77 1063.92,-14.77"/>
</g>
<!-- 2 -->
<g id="node7" class="node">
<title>2</title>
<ellipse fill="lightblue" stroke="black" cx="884.27" cy="-16.26" rx="16.03" ry="16.03"/>
<text text-anchor="middle" x="884.27" y="-14.06" font-family="Times-Roman" font-size="9.00">2</text>
</g>
<!-- &#45;1&#45;&gt;2 -->
<g id="edge123" class="edge">
<title>&#45;1&#45;&gt;2</title>
<path fill="none" stroke="green" stroke-width="0.59" d="M745.02,-161.91C696.85,-161.17 532.21,-155.88 500.27,-118.02 486.08,-101.21 485.52,-84.84 500.27,-68.53 553.91,-9.23 782.26,-57.34 858.27,-32.53 859.53,-32.12 860.8,-31.64 862.05,-31.11"/>
<polygon fill="green" stroke="green" stroke-width="0.59" points="864.01,-34.04 871.3,-26.35 860.81,-27.81 864.01,-34.04"/>
</g>
<!-- 3 -->
<g id="node8" class="node">
<title>3</title>
<ellipse fill="lightblue" stroke="black" cx="728.27" cy="-16.26" rx="16.03" ry="16.03"/>
<text text-anchor="middle" x="728.27" y="-14.06" font-family="Times-Roman" font-size="9.00">3</text>
</g>
<!-- &#45;1&#45;&gt;3 -->
<g id="edge124" class="edge">
<title>&#45;1&#45;&gt;3</title>
<path fill="none" stroke="red" stroke-width="0.29" d="M745.2,-162.16C658.55,-162.9 169.09,-165 125.27,-118.02 110.27,-101.94 110.21,-84.56 125.27,-68.53 169.02,-21.95 637.75,-49.79 699.27,-32.53 701.45,-31.91 703.66,-31.12 705.82,-30.23"/>
<polygon fill="red" stroke="red" stroke-width="0.29" points="707.44,-33.33 714.9,-25.81 704.38,-27.04 707.44,-33.33"/>
</g>
<!-- 4 -->
<g id="node9" class="node">
<title>4</title>
<ellipse fill="lightblue" stroke="black" cx="935.27" cy="-16.26" rx="16.03" ry="16.03"/>
<text text-anchor="middle" x="935.27" y="-14.06" font-family="Times-Roman" font-size="9.00">4</text>
</g>
<!-- &#45;1&#45;&gt;4 -->
<g id="edge125" class="edge">
<title>&#45;1&#45;&gt;4</title>
<path fill="none" stroke="red" stroke-width="0.34" d="M771.35,-158.39C777.37,-156.83 784.64,-155.13 791.27,-154.02 834.2,-146.88 1151.95,-150.18 1181.27,-118.02 1196.1,-101.77 1195.52,-85.29 1181.27,-68.53 1117.12,6.98 1054.46,-66.18 961.27,-32.53 960.03,-32.08 958.77,-31.57 957.52,-31.01"/>
<polygon fill="red" stroke="red" stroke-width="0.34" points="958.78,-27.72 948.3,-26.18 955.53,-33.92 958.78,-27.72"/>
</g>
<!-- 5 -->
<g id="node10" class="node">
<title>5</title>
<ellipse fill="lightblue" stroke="black" cx="674.27" cy="-16.26" rx="16.03" ry="16.03"/>
<text text-anchor="middle" x="674.27" y="-14.06" font-family="Times-Roman" font-size="9.00">5</text>
</g>
<!-- &#45;1&#45;&gt;5 -->
<g id="edge126" class="edge">
<title>&#45;1&#45;&gt;5</title>
<path fill="none" stroke="red" stroke-width="0.24" d="M745.17,-161.76C647.63,-159.72 37.51,-145.85 11.27,-118.02 -3.82,-102.02 -3.67,-84.67 11.27,-68.53 55.15,-21.13 528.93,-17.42 647.5,-17.24"/>
<polygon fill="red" stroke="red" stroke-width="0.24" points="647.84,-20.74 657.83,-17.23 647.83,-13.74 647.84,-20.74"/>
</g>
<!-- 6 -->
<g id="node11" class="node">
<title>6</title>
<ellipse fill="lightblue" stroke="black" cx="781.27" cy="-16.26" rx="16.03" ry="16.03"/>
<text text-anchor="middle" x="781.27" y="-14.06" font-family="Times-Roman" font-size="9.00">6</text>
</g>
<!-- &#45;1&#45;&gt;6 -->
<g id="edge127" class="edge">
<title>&#45;1&#45;&gt;6</title>
<path fill="none" stroke="green" stroke-width="0.23" d="M744.92,-161.85C670.56,-160.74 309.71,-153.56 277.27,-118.02 262.44,-101.78 262.31,-84.66 277.27,-68.53 313.34,-29.63 702.41,-47.56 753.27,-32.53 755.18,-31.96 757.11,-31.25 759.01,-30.46"/>
<polygon fill="green" stroke="green" stroke-width="0.23" points="760.71,-33.52 768.11,-25.93 757.59,-27.25 760.71,-33.52"/>
</g>
<!-- 7 -->
<g id="node12" class="node">
<title>7</title>
<ellipse fill="lightblue" stroke="black" cx="986.27" cy="-16.26" rx="16.03" ry="16.03"/>
<text text-anchor="middle" x="986.27" y="-14.06" font-family="Times-Roman" font-size="9.00">7</text>
</g>
<!-- &#45;1&#45;&gt;7 -->
<g id="edge128" class="edge">
<title>&#45;1&#45;&gt;7</title>
<path fill="none" stroke="red" stroke-width="0.52" d="M771.34,-158.33C777.36,-156.76 784.63,-155.06 791.27,-154.02 845.86,-145.49 1249.64,-158.49 1287.27,-118.02 1302.25,-101.92 1301.78,-85.06 1287.27,-68.53 1246.62,-22.2 1070.57,-52.53 1012.27,-32.53 1011.02,-32.1 1009.76,-31.6 1008.51,-31.06"/>
<polygon fill="red" stroke="red" stroke-width="0.52" points="1009.76,-27.77 999.27,-26.27 1006.53,-33.98 1009.76,-27.77"/>
</g>
<!-- 228 -->
<g id="node13" class="node">
<title>228</title>
<ellipse fill="white" stroke="black" cx="1253.27" cy="-93.28" rx="25" ry="25"/>
<text text-anchor="middle" x="1253.27" y="-91.08" font-family="Times-Roman" font-size="9.00">228</text>
</g>
<!-- &#45;1&#45;&gt;228 -->
<g id="edge1" class="edge">
<title>&#45;1&#45;&gt;228</title>
<path fill="none" stroke="green" stroke-width="0.11" d="M771.35,-158.37C777.37,-156.81 784.64,-155.1 791.27,-154.02 977.5,-123.71 1034.93,-176.65 1214.27,-118.02 1217.8,-116.87 1221.33,-115.35 1224.76,-113.63"/>
<polygon fill="green" stroke="green" stroke-width="0.11" points="1226.48,-116.68 1233.5,-108.73 1223.06,-110.57 1226.48,-116.68"/>
</g>
<!-- 229 -->
<g id="node14" class="node">
<title>229</title>
<ellipse fill="white" stroke="black" cx="601.27" cy="-93.28" rx="25" ry="25"/>
<text text-anchor="middle" x="601.27" y="-91.08" font-family="Times-Roman" font-size="9.00">229</text>
</g>
<!-- &#45;1&#45;&gt;229 -->
<g id="edge2" class="edge">
<title>&#45;1&#45;&gt;229</title>
<path fill="none" stroke="red" stroke-width="0.48" d="M745.1,-158.68C721.88,-152.49 672.52,-138.05 634.27,-118.02 632.49,-117.09 630.7,-116.07 628.91,-115"/>
<polygon fill="red" stroke="red" stroke-width="0.48" points="630.51,-111.85 620.23,-109.3 626.67,-117.71 630.51,-111.85"/>
</g>
<!-- 230 -->
<g id="node15" class="node">
<title>230</title>
<ellipse fill="white" stroke="black" cx="668.27" cy="-93.28" rx="25" ry="25"/>
<text text-anchor="middle" x="668.27" y="-91.08" font-family="Times-Roman" font-size="9.00">230</text>
</g>
<!-- &#45;1&#45;&gt;230 -->
<g id="edge3" class="edge">
<title>&#45;1&#45;&gt;230</title>
<path fill="none" stroke="green" stroke-width="0.49" d="M747.59,-153.99C734.95,-144.47 713.4,-128.25 695.96,-115.11"/>
<polygon fill="green" stroke="green" stroke-width="0.49" points="697.87,-112.18 687.78,-108.96 693.66,-117.77 697.87,-112.18"/>
</g>
<!-- 231 -->
<g id="node16" class="node">
<title>231</title>
<ellipse fill="white" stroke="black" cx="735.27" cy="-93.28" rx="25" ry="25"/>
<text text-anchor="middle" x="735.27" y="-91.08" font-family="Times-Roman" font-size="9.00">231</text>
</g>
<!-- &#45;1&#45;&gt;231 -->
<g id="edge4" class="edge">
<title>&#45;1&#45;&gt;231</title>
<path fill="none" stroke="red" stroke-width="0.47" d="M755.54,-153.99C753.22,-147.13 749.71,-136.81 746.27,-126.66"/>
<polygon fill="red" stroke="red" stroke-width="0.47" points="749.55,-125.45 743.02,-117.1 742.92,-127.7 749.55,-125.45"/>
</g>
<!-- 232 -->
<g id="node17" class="node">
<title>232</title>
<ellipse fill="white" stroke="black" cx="802.27" cy="-93.28" rx="25" ry="25"/>
<text text-anchor="middle" x="802.27" y="-91.08" font-family="Times-Roman" font-size="9.00">232</text>
</g>
<!-- &#45;1&#45;&gt;232 -->
<g id="edge5" class="edge">
<title>&#45;1&#45;&gt;232</title>
<path fill="none" stroke="red" stroke-width="0.15" d="M763.49,-153.99C768.5,-146.28 776.36,-134.17 783.7,-122.87"/>
<polygon fill="red" stroke="red" stroke-width="0.15" points="786.64,-124.77 789.15,-114.47 780.77,-120.95 786.64,-124.77"/>
</g>
<!-- 233 -->
<g id="node18" class="node">
<title>233</title>
<ellipse fill="white" stroke="black" cx="869.27" cy="-93.28" rx="25" ry="25"/>
<text text-anchor="middle" x="869.27" y="-91.08" font-family="Times-Roman" font-size="9.00">233</text>
</g>
<!-- &#45;1&#45;&gt;233 -->
<g id="edge6" class="edge">
<title>&#45;1&#45;&gt;233</title>
<path fill="none" stroke="green" stroke-width="0.37" d="M771.5,-155.14C787.23,-146.82 814.13,-132.17 836.27,-118.02 837.92,-116.97 839.6,-115.86 841.29,-114.73"/>
<polygon fill="green" stroke="green" stroke-width="0.37" points="843.4,-117.53 849.62,-108.95 839.41,-111.77 843.4,-117.53"/>
</g>
<!-- 234 -->
<g id="node19" class="node">
<title>234</title>
<ellipse fill="white" stroke="black" cx="936.27" cy="-93.28" rx="25" ry="25"/>
<text text-anchor="middle" x="936.27" y="-91.08" font-family="Times-Roman" font-size="9.00">234</text>
</g>
<!-- &#45;1&#45;&gt;234 -->
<g id="edge7" class="edge">
<title>&#45;1&#45;&gt;234</title>
<path fill="none" stroke="green" stroke-width="0.51" d="M771.73,-158.55C802.94,-150.39 879.45,-129.8 903.27,-118.02 905.08,-117.13 906.89,-116.15 908.68,-115.09"/>
<polygon fill="green" stroke="green" stroke-width="0.51" points="910.9,-117.83 917.4,-109.46 907.1,-111.95 910.9,-117.83"/>
</g>
<!-- 235 -->
<g id="node20" class="node">
<title>235</title>
<ellipse fill="white" stroke="black" cx="1003.27" cy="-93.28" rx="25" ry="25"/>
<text text-anchor="middle" x="1003.27" y="-91.08" font-family="Times-Roman" font-size="9.00">235</text>
</g>
<!-- &#45;1&#45;&gt;235 -->
<g id="edge8" class="edge">
<title>&#45;1&#45;&gt;235</title>
<path fill="none" stroke="green" stroke-width="0.44" d="M771.41,-158.71C777.45,-157.22 784.71,-155.48 791.27,-154.02 870.5,-136.46 895.89,-150.46 970.27,-118.02 972.12,-117.22 973.96,-116.3 975.78,-115.3"/>
<polygon fill="green" stroke="green" stroke-width="0.44" points="977.94,-118.08 984.56,-109.81 974.23,-112.14 977.94,-118.08"/>
</g>
<!-- 236 -->
<g id="node21" class="node">
<title>236</title>
<ellipse fill="white" stroke="black" cx="534.27" cy="-93.28" rx="25" ry="25"/>
<text text-anchor="middle" x="534.27" y="-91.08" font-family="Times-Roman" font-size="9.00">236</text>
</g>
<!-- &#45;1&#45;&gt;236 -->
<g id="edge9" class="edge">
<title>&#45;1&#45;&gt;236</title>
<path fill="none" stroke="green" stroke-width="0.21" d="M745.19,-160.81C713.43,-157.49 630.2,-146.51 567.27,-118.02 565.44,-117.19 563.61,-116.26 561.79,-115.24"/>
<polygon fill="green" stroke="green" stroke-width="0.21" points="563.35,-112.08 553.03,-109.71 559.61,-118 563.35,-112.08"/>
</g>
<!-- 237 -->
<g id="node22" class="node">
<title>237</title>
<ellipse fill="white" stroke="black" cx="1147.27" cy="-93.28" rx="25" ry="25"/>
<text text-anchor="middle" x="1147.27" y="-91.08" font-family="Times-Roman" font-size="9.00">237</text>
</g>
<!-- &#45;1&#45;&gt;237 -->
<g id="edge10" class="edge">
<title>&#45;1&#45;&gt;237</title>
<path fill="none" stroke="green" stroke-width="0.16" d="M771.38,-158.55C777.41,-157.03 784.67,-155.3 791.27,-154.02 899.75,-132.99 928.54,-137.7 1037.27,-118.02 1062.88,-113.39 1091.62,-107.15 1113.3,-102.23"/>
<polygon fill="green" stroke="green" stroke-width="0.16" points="1114.37,-105.58 1123.33,-99.93 1112.8,-98.75 1114.37,-105.58"/>
</g>
<!-- &#45;2 -->
<g id="node2" class="node">
<title>&#45;2</title>
<polygon fill="lightgray" stroke="black" points="826.27,-172.02 800.27,-172.02 800.27,-154.02 826.27,-154.02 826.27,-172.02"/>
<text text-anchor="middle" x="813.27" y="-160.82" font-family="Times-Roman" font-size="9.00">&#45;2</text>
</g>
<!-- &#45;2&#45;&gt;0 -->
<g id="edge129" class="edge">
<title>&#45;2&#45;&gt;0</title>
<path fill="none" stroke="green" stroke-width="0.29" d="M800.18,-158.5C794.15,-156.97 786.88,-155.25 780.27,-154.02 718.58,-142.62 541.71,-165.13 500.27,-118.02 485.74,-101.51 485.65,-84.97 500.27,-68.53 545.77,-17.36 741.19,-53.79 806.27,-32.53 807.74,-32.05 809.23,-31.48 810.7,-30.86"/>
<polygon fill="green" stroke="green" stroke-width="0.29" points="812.68,-33.77 820.02,-26.14 809.52,-27.53 812.68,-33.77"/>
</g>
<!-- &#45;2&#45;&gt;1 -->
<g id="edge130" class="edge">
<title>&#45;2&#45;&gt;1</title>
<path fill="none" stroke="red" stroke-width="0.19" d="M826.61,-159.3C835.54,-157.56 847.57,-155.39 858.27,-154.02 909.9,-147.46 1289.92,-156.21 1325.27,-118.02 1402.33,-34.8 1149.02,-20.3 1064.07,-17.79"/>
<polygon fill="red" stroke="red" stroke-width="0.19" points="1064,-14.29 1053.91,-17.52 1063.81,-21.28 1064,-14.29"/>
</g>
<!-- &#45;2&#45;&gt;2 -->
<g id="edge131" class="edge">
<title>&#45;2&#45;&gt;2</title>
<path fill="none" stroke="red" stroke-width="0.17" d="M826.39,-159.68C873.82,-151.17 1033.84,-122.19 1037.27,-118.02 1051.25,-101.04 1050.54,-86.08 1037.27,-68.53 1001.89,-21.73 964.23,-55.56 910.27,-32.53 909.05,-32.01 907.82,-31.44 906.59,-30.84"/>
<polygon fill="red" stroke="red" stroke-width="0.17" points="907.88,-27.56 897.43,-25.86 904.54,-33.71 907.88,-27.56"/>
</g>
<!-- &#45;2&#45;&gt;3 -->
<g id="edge132" class="edge">
<title>&#45;2&#45;&gt;3</title>
<path fill="none" stroke="green" stroke-width="0.43" d="M800.21,-158.29C794.19,-156.71 786.92,-155.02 780.27,-154.02 712.35,-143.89 210.4,-167.98 163.27,-118.02 148.18,-102.02 148.25,-84.6 163.27,-68.53 204.04,-24.93 641.84,-48.78 699.27,-32.53 701.45,-31.91 703.65,-31.12 705.82,-30.21"/>
<polygon fill="green" stroke="green" stroke-width="0.43" points="707.44,-33.32 714.9,-25.79 704.38,-27.03 707.44,-33.32"/>
</g>
<!-- &#45;2&#45;&gt;4 -->
<g id="edge133" class="edge">
<title>&#45;2&#45;&gt;4</title>
<path fill="none" stroke="red" stroke-width="0.3" d="M826.61,-159.32C835.54,-157.59 847.57,-155.42 858.27,-154.02 905.7,-147.83 1254.89,-153.23 1287.27,-118.02 1302.16,-101.83 1301.95,-84.91 1287.27,-68.53 1238.65,-14.23 1030.45,-55.48 961.27,-32.53 960.01,-32.11 958.75,-31.63 957.5,-31.09"/>
<polygon fill="red" stroke="red" stroke-width="0.3" points="958.74,-27.8 948.25,-26.32 955.53,-34.02 958.74,-27.8"/>
</g>
<!-- &#45;2&#45;&gt;5 -->
<g id="edge134" class="edge">
<title>&#45;2&#45;&gt;5</title>
<path fill="none" stroke="green" stroke-width="0.33" d="M800.22,-158.26C794.2,-156.68 786.92,-154.99 780.27,-154.02 699.79,-142.39 105.34,-176.92 49.27,-118.02 34.1,-102.09 34.37,-84.71 49.27,-68.53 90.37,-23.92 533.45,-18.13 647.58,-17.38"/>
<polygon fill="green" stroke="green" stroke-width="0.33" points="647.88,-20.87 657.86,-17.32 647.84,-13.87 647.88,-20.87"/>
</g>
<!-- &#45;2&#45;&gt;6 -->
<g id="edge135" class="edge">
<title>&#45;2&#45;&gt;6</title>
<path fill="none" stroke="green" stroke-width="0.34" d="M800.2,-158.34C794.18,-156.78 786.91,-155.08 780.27,-154.02 729.09,-145.89 350.47,-156.06 315.27,-118.02 300.33,-101.88 300.37,-84.71 315.27,-68.53 381.44,3.3 659.7,-60.5 753.27,-32.53 755.18,-31.96 757.11,-31.24 759.01,-30.44"/>
<polygon fill="green" stroke="green" stroke-width="0.34" points="760.71,-33.5 768.1,-25.91 757.59,-27.24 760.71,-33.5"/>
</g>
<!-- &#45;2&#45;&gt;7 -->
<g id="edge136" class="edge">
<title>&#45;2&#45;&gt;7</title>
<path fill="none" stroke="green" stroke-width="0.35" d="M826.61,-159.31C835.54,-157.57 847.57,-155.4 858.27,-154.02 907.8,-147.65 1272.4,-154.72 1306.27,-118.02 1321.19,-101.86 1320.85,-85 1306.27,-68.53 1262.65,-19.24 1074.62,-53.63 1012.27,-32.53 1011.02,-32.1 1009.76,-31.61 1008.5,-31.07"/>
<polygon fill="green" stroke="green" stroke-width="0.35" points="1009.75,-27.78 999.26,-26.29 1006.53,-34 1009.75,-27.78"/>
</g>
<!-- &#45;2&#45;&gt;228 -->
<g id="edge11" class="edge">
<title>&#45;2&#45;&gt;228</title>
<path fill="none" stroke="red" stroke-width="0.25" d="M826.62,-159.38C835.55,-157.68 847.58,-155.51 858.27,-154.02 1015.78,-132.09 1063.51,-168.63 1214.27,-118.02 1217.79,-116.84 1221.32,-115.3 1224.74,-113.57"/>
<polygon fill="red" stroke="red" stroke-width="0.25" points="1226.47,-116.62 1233.47,-108.67 1223.04,-110.51 1226.47,-116.62"/>
</g>
<!-- &#45;2&#45;&gt;229 -->
<g id="edge12" class="edge">
<title>&#45;2&#45;&gt;229</title>
<path fill="none" stroke="green" stroke-width="0.12" d="M800.27,-158.86C759.42,-148.92 636.21,-118.92 634.27,-118.02 632.45,-117.18 630.62,-116.23 628.81,-115.21"/>
<polygon fill="green" stroke="green" stroke-width="0.12" points="630.37,-112.05 620.05,-109.65 626.62,-117.97 630.37,-112.05"/>
</g>
<!-- &#45;2&#45;&gt;230 -->
<g id="edge13" class="edge">
<title>&#45;2&#45;&gt;230</title>
<path fill="none" stroke="green" stroke-width="0.29" d="M800.04,-158.02C778.59,-151.26 735.21,-136.52 701.27,-118.02 699.51,-117.06 697.72,-116.02 695.95,-114.93"/>
<polygon fill="green" stroke="green" stroke-width="0.29" points="697.56,-111.79 687.29,-109.18 693.69,-117.62 697.56,-111.79"/>
</g>
<!-- &#45;2&#45;&gt;231 -->
<g id="edge14" class="edge">
<title>&#45;2&#45;&gt;231</title>
<path fill="none" stroke="green" stroke-width="0.26" d="M804.02,-153.99C793.6,-144.94 776.21,-129.83 761.52,-117.08"/>
<polygon fill="green" stroke="green" stroke-width="0.26" points="763.55,-114.2 753.71,-110.29 758.96,-119.49 763.55,-114.2"/>
</g>
<!-- &#45;2&#45;&gt;232 -->
<g id="edge15" class="edge">
<title>&#45;2&#45;&gt;232</title>
<path fill="none" stroke="red" stroke-width="0.37" d="M811.97,-153.99C810.9,-147.43 809.32,-137.7 807.75,-127.98"/>
<polygon fill="red" stroke="red" stroke-width="0.37" points="811.18,-127.31 806.12,-118 804.27,-128.43 811.18,-127.31"/>
</g>
<!-- &#45;2&#45;&gt;233 -->
<g id="edge16" class="edge">
<title>&#45;2&#45;&gt;233</title>
<path fill="none" stroke="green" stroke-width="0.58" d="M819.92,-153.99C826.7,-145.78 837.59,-132.61 847.42,-120.72"/>
<polygon fill="green" stroke="green" stroke-width="0.58" points="850.32,-122.7 853.99,-112.77 844.92,-118.24 850.32,-122.7"/>
</g>
<!-- &#45;2&#45;&gt;234 -->
<g id="edge17" class="edge">
<title>&#45;2&#45;&gt;234</title>
<path fill="none" stroke="green" stroke-width="0.18" d="M826.45,-156.42C844.32,-148.65 877.01,-133.74 903.27,-118.02 904.95,-117.02 906.66,-115.95 908.36,-114.85"/>
<polygon fill="green" stroke="green" stroke-width="0.18" points="910.44,-117.67 916.75,-109.15 906.51,-111.88 910.44,-117.67"/>
</g>
<!-- &#45;2&#45;&gt;235 -->
<g id="edge18" class="edge">
<title>&#45;2&#45;&gt;235</title>
<path fill="none" stroke="red" stroke-width="0.42" d="M826.44,-159.94C854.14,-155.23 920.02,-142.21 970.27,-118.02 972.09,-117.15 973.9,-116.18 975.7,-115.14"/>
<polygon fill="red" stroke="red" stroke-width="0.42" points="977.91,-117.88 984.44,-109.54 974.13,-111.99 977.91,-117.88"/>
</g>
<!-- &#45;2&#45;&gt;236 -->
<g id="edge19" class="edge">
<title>&#45;2&#45;&gt;236</title>
<path fill="none" stroke="green" stroke-width="0.13" d="M800.15,-158.62C794.12,-157.11 786.86,-155.38 780.27,-154.02 686.23,-134.7 655.87,-155.02 567.27,-118.02 565.42,-117.25 563.56,-116.35 561.74,-115.37"/>
<polygon fill="green" stroke="green" stroke-width="0.13" points="563.28,-112.21 552.93,-109.92 559.59,-118.16 563.28,-112.21"/>
</g>
<!-- &#45;2&#45;&gt;237 -->
<g id="edge20" class="edge">
<title>&#45;2&#45;&gt;237</title>
<path fill="none" stroke="green" stroke-width="0.2" d="M826.66,-159.62C835.6,-158.01 847.64,-155.87 858.27,-154.02 952.43,-137.66 977.3,-140.16 1070.27,-118.02 1084.8,-114.57 1100.61,-109.86 1114.1,-105.55"/>
<polygon fill="green" stroke="green" stroke-width="0.2" points="1115.48,-108.78 1123.9,-102.36 1113.31,-102.13 1115.48,-108.78"/>
</g>
<!-- &#45;3 -->
<g id="node3" class="node">
<title>&#45;3</title>
<polygon fill="lightgray" stroke="black" points="893.27,-172.02 867.27,-172.02 867.27,-154.02 893.27,-154.02 893.27,-172.02"/>
<text text-anchor="middle" x="880.27" y="-160.82" font-family="Times-Roman" font-size="9.00">&#45;3</text>
</g>
<!-- &#45;3&#45;&gt;0 -->
<g id="edge137" class="edge">
<title>&#45;3&#45;&gt;0</title>
<path fill="none" stroke="red" stroke-width="0.14" d="M893.38,-160.37C927.85,-155.73 1019.57,-141.37 1037.27,-118.02 1050.56,-100.5 1051.2,-85.55 1037.27,-68.53 986.17,-6.05 934.66,-61.35 859.27,-32.53 858.03,-32.05 856.79,-31.52 855.55,-30.96"/>
<polygon fill="red" stroke="red" stroke-width="0.14" points="856.81,-27.67 846.34,-26.07 853.53,-33.85 856.81,-27.67"/>
</g>
<!-- &#45;3&#45;&gt;1 -->
<g id="edge138" class="edge">
<title>&#45;3&#45;&gt;1</title>
<path fill="none" stroke="red" stroke-width="0.11" d="M893.59,-160.15C907.09,-158.32 928.59,-155.58 947.27,-154.02 989.01,-150.54 1671.37,-148.34 1700.27,-118.02 1715.45,-102.1 1715.22,-84.67 1700.27,-68.53 1656.4,-21.13 1182.61,-17.42 1064.05,-17.24"/>
<polygon fill="red" stroke="red" stroke-width="0.11" points="1063.71,-13.74 1053.71,-17.23 1063.71,-20.74 1063.71,-13.74"/>
</g>
<!-- &#45;3&#45;&gt;2 -->
<g id="edge139" class="edge">
<title>&#45;3&#45;&gt;2</title>
<path fill="none" stroke="green" stroke-width="0.58" d="M893.61,-160.38C907.13,-158.72 928.65,-156.12 947.27,-154.02 985.02,-149.77 1261.86,-146.27 1287.27,-118.02 1301.99,-101.67 1302.07,-84.81 1287.27,-68.53 1230.66,-6.25 990.34,-58.44 910.27,-32.53 909.01,-32.12 907.75,-31.64 906.49,-31.11"/>
<polygon fill="green" stroke="green" stroke-width="0.58" points="907.73,-27.82 897.24,-26.36 904.53,-34.05 907.73,-27.82"/>
</g>
<!-- &#45;3&#45;&gt;3 -->
<g id="edge140" class="edge">
<title>&#45;3&#45;&gt;3</title>
<path fill="none" stroke="green" stroke-width="0.33" d="M866.92,-159.39C857.99,-157.69 845.96,-155.52 835.27,-154.02 758.06,-143.19 538.5,-175.91 486.27,-118.02 471.54,-101.69 472.07,-85.33 486.27,-68.53 548.25,4.8 608.32,-63.27 699.27,-32.53 701.42,-31.8 703.6,-30.93 705.75,-29.98"/>
<polygon fill="green" stroke="green" stroke-width="0.33" points="707.4,-33.07 714.8,-25.49 704.29,-26.8 707.4,-33.07"/>
</g>
<!-- &#45;3&#45;&gt;4 -->
<g id="edge141" class="edge">
<title>&#45;3&#45;&gt;4</title>
<path fill="none" stroke="green" stroke-width="0.41" d="M893.6,-160.25C907.11,-158.5 928.62,-155.83 947.27,-154.02 1001.28,-148.81 1397.35,-157.78 1434.27,-118.02 1449.24,-101.91 1449.23,-84.66 1434.27,-68.53 1398.44,-29.87 1011.57,-48.27 961.27,-32.53 960.01,-32.13 958.74,-31.66 957.48,-31.14"/>
<polygon fill="green" stroke="green" stroke-width="0.41" points="958.72,-27.85 948.22,-26.42 955.54,-34.08 958.72,-27.85"/>
</g>
<!-- &#45;3&#45;&gt;5 -->
<g id="edge142" class="edge">
<title>&#45;3&#45;&gt;5</title>
<path fill="none" stroke="red" stroke-width="0.25" d="M866.93,-159.37C857.99,-157.67 845.96,-155.5 835.27,-154.02 795.12,-148.47 499.48,-148.07 472.27,-118.02 457.5,-101.72 458.76,-85.89 472.27,-68.53 493.8,-40.86 598.48,-25.7 648.09,-19.97"/>
<polygon fill="red" stroke="red" stroke-width="0.25" points="648.52,-23.45 658.07,-18.86 647.74,-16.49 648.52,-23.45"/>
</g>
<!-- &#45;3&#45;&gt;6 -->
<g id="edge143" class="edge">
<title>&#45;3&#45;&gt;6</title>
<path fill="none" stroke="red" stroke-width="0.11" d="M866.92,-159.4C857.99,-157.71 845.96,-155.55 835.27,-154.02 761.15,-143.47 550.31,-173.72 500.27,-118.02 485.57,-101.66 485.85,-85.14 500.27,-68.53 537.49,-25.64 699.37,-50.4 753.27,-32.53 755.16,-31.9 757.08,-31.15 758.97,-30.32"/>
<polygon fill="red" stroke="red" stroke-width="0.11" points="760.69,-33.37 768.04,-25.74 757.54,-27.12 760.69,-33.37"/>
</g>
<!-- &#45;3&#45;&gt;7 -->
<g id="edge144" class="edge">
<title>&#45;3&#45;&gt;7</title>
<path fill="none" stroke="red" stroke-width="0.61" d="M893.59,-160.18C907.1,-158.38 928.6,-155.66 947.27,-154.02 1018.11,-147.81 1537.42,-169.7 1586.27,-118.02 1601.38,-102.04 1601.33,-84.56 1586.27,-68.53 1542.52,-21.95 1073.38,-51.21 1012.27,-32.53 1011.01,-32.14 1009.73,-31.68 1008.47,-31.16"/>
<polygon fill="red" stroke="red" stroke-width="0.61" points="1009.71,-27.87 999.21,-26.46 1006.54,-34.11 1009.71,-27.87"/>
</g>
<!-- &#45;3&#45;&gt;228 -->
<g id="edge21" class="edge">
<title>&#45;3&#45;&gt;228</title>
<path fill="none" stroke="red" stroke-width="0.52" d="M893.5,-160.44C953.6,-153.21 1198.79,-123.48 1214.27,-118.02 1217.77,-116.79 1221.29,-115.22 1224.7,-113.47"/>
<polygon fill="red" stroke="red" stroke-width="0.52" points="1226.44,-116.5 1233.43,-108.54 1223,-110.41 1226.44,-116.5"/>
</g>
<!-- &#45;3&#45;&gt;229 -->
<g id="edge22" class="edge">
<title>&#45;3&#45;&gt;229</title>
<path fill="none" stroke="green" stroke-width="0.23" d="M867.09,-159.68C816.14,-150.6 634.96,-118.32 634.27,-118.02 632.42,-117.24 630.57,-116.34 628.75,-115.35"/>
<polygon fill="green" stroke="green" stroke-width="0.23" points="630.29,-112.19 619.95,-109.89 626.6,-118.13 630.29,-112.19"/>
</g>
<!-- &#45;3&#45;&gt;230 -->
<g id="edge23" class="edge">
<title>&#45;3&#45;&gt;230</title>
<path fill="none" stroke="red" stroke-width="0.33" d="M867.2,-159.49C831.25,-152.4 731.56,-132.01 701.27,-118.02 699.45,-117.18 697.62,-116.23 695.81,-115.21"/>
<polygon fill="red" stroke="red" stroke-width="0.33" points="697.37,-112.05 687.05,-109.65 693.62,-117.97 697.37,-112.05"/>
</g>
<!-- &#45;3&#45;&gt;231 -->
<g id="edge24" class="edge">
<title>&#45;3&#45;&gt;231</title>
<path fill="none" stroke="green" stroke-width="0.33" d="M867.04,-158.02C845.59,-151.26 802.21,-136.52 768.27,-118.02 766.51,-117.06 764.72,-116.02 762.95,-114.93"/>
<polygon fill="green" stroke="green" stroke-width="0.33" points="764.56,-111.79 754.29,-109.18 760.69,-117.62 764.56,-111.79"/>
</g>
<!-- &#45;3&#45;&gt;232 -->
<g id="edge25" class="edge">
<title>&#45;3&#45;&gt;232</title>
<path fill="none" stroke="red" stroke-width="1.03" d="M871.02,-153.99C860.6,-144.94 843.21,-129.83 828.52,-117.08"/>
<polygon fill="red" stroke="red" stroke-width="1.03" points="830.55,-114.2 820.71,-110.29 825.96,-119.49 830.55,-114.2"/>
</g>
<!-- &#45;3&#45;&gt;233 -->
<g id="edge26" class="edge">
<title>&#45;3&#45;&gt;233</title>
<path fill="none" stroke="red" stroke-width="0.12" d="M878.97,-153.99C877.9,-147.43 876.32,-137.7 874.75,-127.98"/>
<polygon fill="red" stroke="red" stroke-width="0.12" points="878.18,-127.31 873.12,-118 871.27,-128.43 878.18,-127.31"/>
</g>
<!-- &#45;3&#45;&gt;234 -->
<g id="edge27" class="edge">
<title>&#45;3&#45;&gt;234</title>
<path fill="none" stroke="green" stroke-width="0.29" d="M886.92,-153.99C893.7,-145.78 904.59,-132.61 914.42,-120.72"/>
<polygon fill="green" stroke="green" stroke-width="0.29" points="917.32,-122.7 920.99,-112.77 911.92,-118.24 917.32,-122.7"/>
</g>
<!-- &#45;3&#45;&gt;235 -->
<g id="edge28" class="edge">
<title>&#45;3&#45;&gt;235</title>
<path fill="none" stroke="red" stroke-width="0.34" d="M893.45,-156.42C911.32,-148.65 944.01,-133.74 970.27,-118.02 971.95,-117.02 973.66,-115.95 975.36,-114.85"/>
<polygon fill="red" stroke="red" stroke-width="0.34" points="977.44,-117.67 983.75,-109.15 973.51,-111.88 977.44,-117.67"/>
</g>
<!-- &#45;3&#45;&gt;236 -->
<g id="edge29" class="edge">
<title>&#45;3&#45;&gt;236</title>
<path fill="none" stroke="green" stroke-width="0.23" d="M866.91,-159.5C857.97,-157.84 845.94,-155.69 835.27,-154.02 716.53,-135.5 678.94,-162.45 567.27,-118.02 565.4,-117.28 563.54,-116.41 561.71,-115.44"/>
<polygon fill="green" stroke="green" stroke-width="0.23" points="563.24,-112.28 552.88,-110.05 559.59,-118.25 563.24,-112.28"/>
</g>
<!-- &#45;3&#45;&gt;237 -->
<g id="edge30" class="edge">
<title>&#45;3&#45;&gt;237</title>
<path fill="none" stroke="red" stroke-width="0.11" d="M893.42,-160.12C935.75,-153.87 1068.04,-133.57 1108.27,-118.02 1111.73,-116.69 1115.22,-115.05 1118.63,-113.26"/>
<polygon fill="red" stroke="red" stroke-width="0.11" points="1120.39,-116.28 1127.34,-108.29 1116.92,-110.21 1120.39,-116.28"/>
</g>
<!-- &#45;4 -->
<g id="node4" class="node">
<title>&#45;4</title>
<polygon fill="lightgray" stroke="black" points="982.27,-172.02 956.27,-172.02 956.27,-154.02 982.27,-154.02 982.27,-172.02"/>
<text text-anchor="middle" x="969.27" y="-160.82" font-family="Times-Roman" font-size="9.00">&#45;4</text>
</g>
<!-- &#45;4&#45;&gt;0 -->
<g id="edge145" class="edge">
<title>&#45;4&#45;&gt;0</title>
<path fill="none" stroke="green" stroke-width="0.32" d="M982.56,-161.55C1047.85,-159.08 1332.63,-146.73 1358.27,-118.02 1372.93,-101.62 1373.26,-84.63 1358.27,-68.53 1320.41,-27.83 912.35,-49.03 859.27,-32.53 858.01,-32.13 856.74,-31.67 855.48,-31.15"/>
<polygon fill="green" stroke="green" stroke-width="0.32" points="856.72,-27.85 846.22,-26.43 853.54,-34.09 856.72,-27.85"/>
</g>
<!-- &#45;4&#45;&gt;1 -->
<g id="edge146" class="edge">
<title>&#45;4&#45;&gt;1</title>
<path fill="none" stroke="green" stroke-width="0.14" d="M982.44,-161.8C1083.25,-160.01 1729.5,-147.39 1757.27,-118.02 1772.39,-102.04 1772.27,-84.63 1757.27,-68.53 1709.19,-16.9 1188.52,-16.43 1063.94,-17.07"/>
<polygon fill="green" stroke="green" stroke-width="0.14" points="1063.74,-13.57 1053.76,-17.13 1063.78,-20.57 1063.74,-13.57"/>
</g>
<!-- &#45;4&#45;&gt;2 -->
<g id="edge147" class="edge">
<title>&#45;4&#45;&gt;2</title>
<path fill="none" stroke="red" stroke-width="0.38" d="M982.43,-161.99C1061.68,-161.67 1473.34,-158.08 1510.27,-118.02 1525.18,-101.85 1525.35,-84.54 1510.27,-68.53 1464.48,-19.91 974.17,-51.97 910.27,-32.53 909,-32.14 907.73,-31.68 906.47,-31.17"/>
<polygon fill="red" stroke="red" stroke-width="0.38" points="907.71,-27.87 897.21,-26.46 904.54,-34.11 907.71,-27.87"/>
</g>
<!-- &#45;4&#45;&gt;3 -->
<g id="edge148" class="edge">
<title>&#45;4&#45;&gt;3</title>
<path fill="none" stroke="green" stroke-width="0.28" stroke-dasharray="1,5" d="M955.94,-160.31C942.43,-158.61 920.91,-155.97 902.27,-154.02 857.67,-149.37 530.54,-151.12 500.27,-118.02 485.43,-101.79 486.17,-85.41 500.27,-68.53 557.89,0.45 614.29,-61.8 699.27,-32.53 701.41,-31.79 703.59,-30.91 705.74,-29.96"/>
<polygon fill="green" stroke="green" stroke-width="0.28" points="707.4,-33.04 714.79,-25.45 704.28,-26.77 707.4,-33.04"/>
</g>
<!-- &#45;4&#45;&gt;4 -->
<g id="edge149" class="edge">
<title>&#45;4&#45;&gt;4</title>
<path fill="none" stroke="green" stroke-width="0.21" d="M982.3,-161.7C1075.53,-159.31 1638.06,-143.82 1662.27,-118.02 1677.33,-101.98 1677.42,-84.48 1662.27,-68.53 1608.56,-11.98 1035.98,-54.91 961.27,-32.53 960,-32.15 958.73,-31.69 957.47,-31.18"/>
<polygon fill="green" stroke="green" stroke-width="0.21" points="958.7,-27.88 948.2,-26.49 955.54,-34.13 958.7,-27.88"/>
</g>
<!-- &#45;4&#45;&gt;5 -->
<g id="edge150" class="edge">
<title>&#45;4&#45;&gt;5</title>
<path fill="none" stroke="green" stroke-width="0.15" d="M955.94,-160.3C942.43,-158.59 920.92,-155.94 902.27,-154.02 856.12,-149.27 517.63,-152.22 486.27,-118.02 471.4,-101.81 472.92,-86.01 486.27,-68.53 505.9,-42.84 601,-26.93 647.94,-20.52"/>
<polygon fill="green" stroke="green" stroke-width="0.15" points="648.52,-23.98 657.98,-19.2 647.61,-17.04 648.52,-23.98"/>
</g>
<!-- &#45;4&#45;&gt;6 -->
<g id="edge151" class="edge">
<title>&#45;4&#45;&gt;6</title>
<path fill="none" stroke="red" stroke-width="0.2" d="M982.59,-162.36C1053.14,-163.73 1376.7,-164.93 1287.27,-68.53 1250.97,-29.4 859.34,-48.03 808.27,-32.53 806.79,-32.08 805.3,-31.54 803.83,-30.93"/>
<polygon fill="red" stroke="red" stroke-width="0.2" points="804.99,-27.6 794.48,-26.26 801.86,-33.86 804.99,-27.6"/>
</g>
<!-- &#45;4&#45;&gt;7 -->
<g id="edge152" class="edge">
<title>&#45;4&#45;&gt;7</title>
<path fill="none" stroke="green" stroke-width="0.62" d="M982.44,-161.78C1081.84,-159.87 1711.21,-146.67 1738.27,-118.02 1753.38,-102.03 1753.44,-84.46 1738.27,-68.53 1682.59,-10.02 1089.66,-55.64 1012.27,-32.53 1011,-32.15 1009.73,-31.69 1008.47,-31.19"/>
<polygon fill="green" stroke="green" stroke-width="0.62" points="1009.7,-27.89 999.2,-26.49 1006.54,-34.13 1009.7,-27.89"/>
</g>
<!-- &#45;4&#45;&gt;228 -->
<g id="edge31" class="edge">
<title>&#45;4&#45;&gt;228</title>
<path fill="none" stroke="red" stroke-width="0.66" d="M982.47,-161.36C1019.96,-159.11 1129.82,-150.04 1214.27,-118.02 1217.74,-116.71 1221.24,-115.08 1224.65,-113.3"/>
<polygon fill="red" stroke="red" stroke-width="0.66" points="1226.4,-116.33 1233.36,-108.34 1222.94,-110.25 1226.4,-116.33"/>
</g>
<!-- &#45;4&#45;&gt;229 -->
<g id="edge32" class="edge">
<title>&#45;4&#45;&gt;229</title>
<path fill="none" stroke="red" stroke-width="0.35" d="M956.06,-160.38C894.91,-152.75 641.94,-121.06 634.27,-118.02 632.4,-117.28 630.54,-116.41 628.71,-115.45"/>
<polygon fill="red" stroke="red" stroke-width="0.35" points="630.24,-112.28 619.88,-110.06 626.59,-118.26 630.24,-112.28"/>
</g>
<!-- &#45;4&#45;&gt;230 -->
<g id="edge33" class="edge">
<title>&#45;4&#45;&gt;230</title>
<path fill="none" stroke="green" stroke-width="0.23" d="M955.94,-160.2C905.11,-153.2 725.17,-127.94 701.27,-118.02 699.41,-117.25 697.56,-116.36 695.73,-115.38"/>
<polygon fill="green" stroke="green" stroke-width="0.23" points="697.27,-112.22 686.92,-109.94 693.59,-118.17 697.27,-112.22"/>
</g>
<!-- &#45;4&#45;&gt;231 -->
<g id="edge34" class="edge">
<title>&#45;4&#45;&gt;231</title>
<path fill="none" stroke="green" stroke-width="0.16" d="M956.01,-159.85C916.92,-153.31 802.69,-133.38 768.27,-118.02 766.44,-117.2 764.6,-116.27 762.78,-115.26"/>
<polygon fill="green" stroke="green" stroke-width="0.16" points="764.34,-112.11 754.01,-109.75 760.61,-118.03 764.34,-112.11"/>
</g>
<!-- &#45;4&#45;&gt;232 -->
<g id="edge35" class="edge">
<title>&#45;4&#45;&gt;232</title>
<path fill="none" stroke="red" stroke-width="0.39" d="M956.19,-159.15C931.6,-153.43 877.18,-139.34 835.27,-118.02 833.48,-117.11 831.68,-116.11 829.89,-115.05"/>
<polygon fill="red" stroke="red" stroke-width="0.39" points="831.47,-111.9 821.18,-109.38 827.65,-117.77 831.47,-111.9"/>
</g>
<!-- &#45;4&#45;&gt;233 -->
<g id="edge36" class="edge">
<title>&#45;4&#45;&gt;233</title>
<path fill="none" stroke="red" stroke-width="0.31" d="M956.32,-153.75C942.74,-145.03 920.85,-130.8 902.27,-118.02 900.66,-116.91 899.01,-115.77 897.34,-114.6"/>
<polygon fill="red" stroke="red" stroke-width="0.31" points="899.25,-111.66 889.07,-108.73 895.2,-117.37 899.25,-111.66"/>
</g>
<!-- &#45;4&#45;&gt;234 -->
<g id="edge37" class="edge">
<title>&#45;4&#45;&gt;234</title>
<path fill="none" stroke="red" stroke-width="0.46" d="M965.36,-153.99C961.84,-146.78 956.46,-135.72 951.27,-125.07"/>
<polygon fill="red" stroke="red" stroke-width="0.46" points="954.34,-123.38 946.82,-115.93 948.05,-126.45 954.34,-123.38"/>
</g>
<!-- &#45;4&#45;&gt;235 -->
<g id="edge38" class="edge">
<title>&#45;4&#45;&gt;235</title>
<path fill="none" stroke="green" stroke-width="0.14" d="M973.31,-153.99C976.95,-146.72 982.56,-135.55 987.94,-124.83"/>
<polygon fill="green" stroke="green" stroke-width="0.14" points="991.2,-126.14 992.55,-115.63 984.94,-123 991.2,-126.14"/>
</g>
<!-- &#45;4&#45;&gt;236 -->
<g id="edge39" class="edge">
<title>&#45;4&#45;&gt;236</title>
<path fill="none" stroke="red" stroke-width="0.21" d="M955.93,-160.38C942.41,-158.73 920.9,-156.14 902.27,-154.02 753.48,-137.15 707.13,-171.54 567.27,-118.02 565.39,-117.31 563.52,-116.45 561.69,-115.5"/>
<polygon fill="red" stroke="red" stroke-width="0.21" points="563.21,-112.33 552.84,-110.14 559.58,-118.32 563.21,-112.33"/>
</g>
<!-- &#45;4&#45;&gt;237 -->
<g id="edge40" class="edge">
<title>&#45;4&#45;&gt;237</title>
<path fill="none" stroke="green" stroke-width="0.16" d="M982.3,-159.02C1007.38,-152.99 1063.8,-138.25 1108.27,-118.02 1111.65,-116.49 1115.09,-114.72 1118.46,-112.86"/>
<polygon fill="green" stroke="green" stroke-width="0.16" points="1120.26,-115.87 1127.13,-107.8 1116.73,-109.82 1120.26,-115.87"/>
</g>
<!-- 228&#45;&gt;0 -->
<g id="edge41" class="edge">
<title>228&#45;&gt;0</title>
<path fill="none" stroke="green" stroke-width="0.22" d="M1230.27,-83.33C1216.3,-78.24 1197.99,-72.18 1181.27,-68.53 1040.58,-37.81 995.92,-77.97 859.27,-32.53 858.02,-32.11 856.75,-31.62 855.5,-31.09"/>
<polygon fill="green" stroke="green" stroke-width="0.22" points="856.74,-27.79 846.25,-26.32 853.53,-34.02 856.74,-27.79"/>
</g>
<!-- 228&#45;&gt;1 -->
<g id="edge42" class="edge">
<title>228&#45;&gt;1</title>
<path fill="none" stroke="red" stroke-width="0.6" d="M1233.18,-78.65C1227.26,-75.02 1220.66,-71.34 1214.27,-68.53 1162.79,-45.88 1098.54,-30.16 1063.34,-22.54"/>
<polygon fill="red" stroke="red" stroke-width="0.6" points="1063.9,-19.08 1053.39,-20.43 1062.45,-25.92 1063.9,-19.08"/>
</g>
<!-- 228&#45;&gt;2 -->
<g id="edge43" class="edge">
<title>228&#45;&gt;2</title>
<path fill="none" stroke="green" stroke-width="0.19" d="M1230.24,-83.46C1216.26,-78.41 1197.95,-72.35 1181.27,-68.53 1062.84,-41.38 1025.16,-72.07 910.27,-32.53 909.02,-32.1 907.76,-31.6 906.51,-31.06"/>
<polygon fill="green" stroke="green" stroke-width="0.19" points="907.76,-27.76 897.27,-26.26 904.53,-33.98 907.76,-27.76"/>
</g>
<!-- 228&#45;&gt;3 -->
<g id="edge44" class="edge">
<title>228&#45;&gt;3</title>
<path fill="none" stroke="green" stroke-width="0.22" d="M1230.62,-83.29C1216.62,-78.12 1198.17,-71.98 1181.27,-68.53 995.54,-30.58 937.82,-87.06 756.27,-32.53 754.36,-31.95 752.44,-31.24 750.54,-30.44"/>
<polygon fill="green" stroke="green" stroke-width="0.22" points="751.96,-27.23 741.45,-25.91 748.84,-33.5 751.96,-27.23"/>
</g>
<!-- 228&#45;&gt;4 -->
<g id="edge45" class="edge">
<title>228&#45;&gt;4</title>
<path fill="none" stroke="green" stroke-width="0.18" d="M1233.41,-78.06C1227.5,-74.42 1220.84,-70.88 1214.27,-68.53 1107.36,-30.21 1068.49,-69.99 961.27,-32.53 960.02,-32.09 958.76,-31.59 957.51,-31.04"/>
<polygon fill="green" stroke="green" stroke-width="0.18" points="958.77,-27.75 948.28,-26.23 955.53,-33.96 958.77,-27.75"/>
</g>
<!-- 228&#45;&gt;5 -->
<g id="edge46" class="edge">
<title>228&#45;&gt;5</title>
<path fill="none" stroke="red" stroke-width="0.12" d="M1230.63,-83.23C1216.64,-78.04 1198.18,-71.9 1181.27,-68.53 972.34,-26.85 908.03,-91.37 703.27,-32.53 701.1,-31.9 698.89,-31.1 696.73,-30.2"/>
<polygon fill="red" stroke="red" stroke-width="0.12" points="698.18,-27.01 687.65,-25.77 695.11,-33.3 698.18,-27.01"/>
</g>
<!-- 228&#45;&gt;6 -->
<g id="edge47" class="edge">
<title>228&#45;&gt;6</title>
<path fill="none" stroke="green" stroke-width="0.16" d="M1230.29,-83.24C1216.32,-78.12 1198.02,-72.05 1181.27,-68.53 1018.29,-34.23 967.12,-82.6 808.27,-32.53 806.8,-32.06 805.31,-31.51 803.84,-30.89"/>
<polygon fill="green" stroke="green" stroke-width="0.16" points="805.01,-27.56 794.5,-26.2 801.86,-33.82 805.01,-27.56"/>
</g>
<!-- 228&#45;&gt;7 -->
<g id="edge48" class="edge">
<title>228&#45;&gt;7</title>
<path fill="none" stroke="red" stroke-width="0.39" d="M1233.36,-78.21C1227.44,-74.57 1220.8,-71 1214.27,-68.53 1128.98,-36.26 1097.82,-64.11 1012.27,-32.53 1011.03,-32.07 1009.78,-31.55 1008.53,-30.99"/>
<polygon fill="red" stroke="red" stroke-width="0.39" points="1009.8,-27.7 999.32,-26.14 1006.53,-33.89 1009.8,-27.7"/>
</g>
<!-- 229&#45;&gt;0 -->
<g id="edge49" class="edge">
<title>229&#45;&gt;0</title>
<path fill="none" stroke="green" stroke-width="0.12" d="M619.99,-76.77C624.46,-73.66 629.36,-70.69 634.27,-68.53 705.74,-37.03 733.19,-60.07 806.27,-32.53 807.72,-31.98 809.18,-31.37 810.64,-30.7"/>
<polygon fill="green" stroke="green" stroke-width="0.12" points="812.67,-33.59 819.93,-25.88 809.45,-27.38 812.67,-33.59"/>
</g>
<!-- 229&#45;&gt;1 -->
<g id="edge50" class="edge">
<title>229&#45;&gt;1</title>
<path fill="none" stroke="green" stroke-width="0.2" d="M619.83,-76.36C624.3,-73.27 629.25,-70.41 634.27,-68.53 791.83,-9.31 851.13,-84.36 1011.27,-32.53 1012.53,-32.12 1013.8,-31.64 1015.06,-31.11"/>
<polygon fill="green" stroke="green" stroke-width="0.2" points="1017.01,-34.05 1024.31,-26.36 1013.81,-27.82 1017.01,-34.05"/>
</g>
<!-- 229&#45;&gt;2 -->
<g id="edge51" class="edge">
<title>229&#45;&gt;2</title>
<path fill="none" stroke="red" stroke-width="0.11" d="M619.92,-76.6C624.39,-73.5 629.31,-70.57 634.27,-68.53 727.47,-30.04 763.38,-66.64 858.27,-32.53 859.52,-32.08 860.77,-31.57 862.02,-31.02"/>
<polygon fill="red" stroke="red" stroke-width="0.11" points="864.01,-33.93 871.25,-26.18 860.76,-27.73 864.01,-33.93"/>
</g>
<!-- 229&#45;&gt;3 -->
<g id="edge52" class="edge">
<title>229&#45;&gt;3</title>
<path fill="none" stroke="green" stroke-width="0.61" d="M620.89,-77.55C625.23,-74.47 629.85,-71.31 634.27,-68.53 647.06,-60.48 681.53,-41.97 704.97,-29.54"/>
<polygon fill="green" stroke="green" stroke-width="0.61" points="706.75,-32.56 713.95,-24.79 703.47,-26.38 706.75,-32.56"/>
</g>
<!-- 229&#45;&gt;4 -->
<g id="edge53" class="edge">
<title>229&#45;&gt;4</title>
<path fill="none" stroke="green" stroke-width="0.25" d="M619.88,-76.49C624.35,-73.4 629.28,-70.5 634.27,-68.53 748.88,-23.15 792.68,-72.53 909.27,-32.53 910.53,-32.1 911.79,-31.6 913.04,-31.06"/>
<polygon fill="green" stroke="green" stroke-width="0.25" points="915.01,-33.98 922.27,-26.27 911.79,-27.77 915.01,-33.98"/>
</g>
<!-- 229&#45;&gt;5 -->
<g id="edge54" class="edge">
<title>229&#45;&gt;5</title>
<path fill="none" stroke="red" stroke-width="0.58" d="M618.2,-74.88C629.54,-63.23 644.44,-47.92 656.04,-36"/>
<polygon fill="red" stroke="red" stroke-width="0.58" points="658.64,-38.35 663.11,-28.74 653.62,-33.46 658.64,-38.35"/>
</g>
<!-- 229&#45;&gt;6 -->
<g id="edge55" class="edge">
<title>229&#45;&gt;6</title>
<path fill="none" stroke="green" stroke-width="0.24" d="M620.14,-77.09C624.6,-73.96 629.46,-70.9 634.27,-68.53 683.81,-44.06 702.3,-53.86 753.27,-32.53 754.92,-31.84 756.6,-31.08 758.28,-30.28"/>
<polygon fill="green" stroke="green" stroke-width="0.24" points="760.32,-33.16 767.59,-25.45 757.1,-26.94 760.32,-33.16"/>
</g>
<!-- 229&#45;&gt;7 -->
<g id="edge56" class="edge">
<title>229&#45;&gt;7</title>
<path fill="none" stroke="red" stroke-width="0.15" d="M619.85,-76.42C624.32,-73.33 629.26,-70.45 634.27,-68.53 770.34,-16.24 821.92,-78.44 960.27,-32.53 961.53,-32.11 962.79,-31.63 964.05,-31.09"/>
<polygon fill="red" stroke="red" stroke-width="0.15" points="966.01,-34.02 973.29,-26.32 962.8,-27.8 966.01,-34.02"/>
</g>
<!-- 230&#45;&gt;0 -->
<g id="edge57" class="edge">
<title>230&#45;&gt;0</title>
<path fill="none" stroke="green" stroke-width="0.23" d="M687.21,-77.22C691.66,-74.08 696.51,-70.99 701.27,-68.53 745.1,-45.88 761.28,-52.75 806.27,-32.53 807.83,-31.83 809.41,-31.07 810.99,-30.28"/>
<polygon fill="green" stroke="green" stroke-width="0.23" points="812.65,-33.36 819.79,-25.53 809.33,-27.19 812.65,-33.36"/>
</g>
<!-- 230&#45;&gt;1 -->
<g id="edge58" class="edge">
<title>230&#45;&gt;1</title>
<path fill="none" stroke="green" stroke-width="0.34" d="M686.86,-76.44C691.33,-73.35 696.27,-70.47 701.27,-68.53 830.6,-18.41 879.75,-76.58 1011.27,-32.53 1012.53,-32.11 1013.79,-31.62 1015.05,-31.08"/>
<polygon fill="green" stroke="green" stroke-width="0.34" points="1017.01,-34.01 1024.29,-26.31 1013.8,-27.79 1017.01,-34.01"/>
</g>
<!-- 230&#45;&gt;2 -->
<g id="edge59" class="edge">
<title>230&#45;&gt;2</title>
<path fill="none" stroke="green" stroke-width="0.28" d="M687.02,-76.84C691.49,-73.73 696.38,-70.74 701.27,-68.53 766.5,-39.04 791.74,-58.96 858.27,-32.53 859.5,-32.04 860.75,-31.5 861.98,-30.92"/>
<polygon fill="green" stroke="green" stroke-width="0.28" points="864.01,-33.8 871.18,-26 860.71,-27.63 864.01,-33.8"/>
</g>
<!-- 230&#45;&gt;3 -->
<g id="edge60" class="edge">
<title>230&#45;&gt;3</title>
<path fill="none" stroke="red" stroke-width="0.76" d="M683.41,-73.35C692.15,-62.42 703.15,-48.67 712.07,-37.53"/>
<polygon fill="red" stroke="red" stroke-width="0.76" points="714.89,-39.59 718.41,-29.6 709.43,-35.22 714.89,-39.59"/>
</g>
<!-- 230&#45;&gt;4 -->
<g id="edge61" class="edge">
<title>230&#45;&gt;4</title>
<path fill="none" stroke="red" stroke-width="0.34" d="M686.94,-76.64C691.41,-73.54 696.33,-70.6 701.27,-68.53 787.77,-32.2 821.18,-64.8 909.27,-32.53 910.52,-32.07 911.77,-31.56 913.02,-31"/>
<polygon fill="red" stroke="red" stroke-width="0.34" points="915.01,-33.9 922.23,-26.15 911.75,-27.71 915.01,-33.9"/>
</g>
<!-- 230&#45;&gt;5 -->
<g id="edge62" class="edge">
<title>230&#45;&gt;5</title>
<path fill="none" stroke="green" stroke-width="0.37" d="M670.17,-68.54C670.82,-60.42 671.55,-51.31 672.21,-43.04"/>
<polygon fill="green" stroke="green" stroke-width="0.37" points="675.72,-43.05 673.03,-32.81 668.74,-42.5 675.72,-43.05"/>
</g>
<!-- 230&#45;&gt;6 -->
<g id="edge63" class="edge">
<title>230&#45;&gt;6</title>
<path fill="none" stroke="green" stroke-width="0.16" d="M688.04,-77.78C692.37,-74.69 696.95,-71.46 701.27,-68.53 720.55,-55.43 742.91,-41.18 759.09,-31.03"/>
<polygon fill="green" stroke="green" stroke-width="0.16" points="761.2,-33.84 767.82,-25.57 757.49,-27.9 761.2,-33.84"/>
</g>
<!-- 230&#45;&gt;7 -->
<g id="edge64" class="edge">
<title>230&#45;&gt;7</title>
<path fill="none" stroke="green" stroke-width="0.14" d="M686.89,-76.52C691.36,-73.42 696.29,-70.52 701.27,-68.53 809.16,-25.32 850.5,-70.68 960.27,-32.53 961.52,-32.09 962.78,-31.59 964.03,-31.05"/>
<polygon fill="green" stroke="green" stroke-width="0.14" points="966.01,-33.97 973.27,-26.24 962.78,-27.76 966.01,-33.97"/>
</g>
<!-- 231&#45;&gt;0 -->
<g id="edge65" class="edge">
<title>231&#45;&gt;0</title>
<path fill="none" stroke="red" stroke-width="0.15" d="M754.63,-77.46C771.35,-64.66 795.45,-46.21 812.55,-33.12"/>
<polygon fill="red" stroke="red" stroke-width="0.15" points="814.97,-35.68 820.79,-26.82 810.72,-30.12 814.97,-35.68"/>
</g>
<!-- 231&#45;&gt;1 -->
<g id="edge66" class="edge">
<title>231&#45;&gt;1</title>
<path fill="none" stroke="green" stroke-width="0.43" d="M753.9,-76.55C758.37,-73.46 763.3,-70.54 768.27,-68.53 869.44,-27.48 908.31,-68.83 1011.27,-32.53 1012.52,-32.09 1013.78,-31.58 1015.03,-31.04"/>
<polygon fill="green" stroke="green" stroke-width="0.43" points="1017.01,-33.95 1024.26,-26.22 1013.77,-27.74 1017.01,-33.95"/>
</g>
<!-- 231&#45;&gt;2 -->
<g id="edge67" class="edge">
<title>231&#45;&gt;2</title>
<path fill="none" stroke="green" stroke-width="0.26" d="M754.3,-77.39C758.75,-74.25 763.57,-71.11 768.27,-68.53 806.04,-47.79 819.59,-51.49 858.27,-32.53 859.44,-31.96 860.62,-31.35 861.8,-30.73"/>
<polygon fill="green" stroke="green" stroke-width="0.26" points="863.71,-33.68 870.72,-25.74 860.29,-27.57 863.71,-33.68"/>
</g>
<!-- 231&#45;&gt;3 -->
<g id="edge68" class="edge">
<title>231&#45;&gt;3</title>
<path fill="none" stroke="red" stroke-width="0.31" d="M733.06,-68.54C732.3,-60.42 731.45,-51.31 730.68,-43.04"/>
<polygon fill="red" stroke="red" stroke-width="0.31" points="734.14,-42.44 729.72,-32.81 727.17,-43.09 734.14,-42.44"/>
</g>
<!-- 231&#45;&gt;4 -->
<g id="edge69" class="edge">
<title>231&#45;&gt;4</title>
<path fill="none" stroke="green" stroke-width="0.12" d="M754.06,-76.93C758.53,-73.81 763.41,-70.8 768.27,-68.53 826.87,-41.16 849.46,-57.14 909.27,-32.53 910.5,-32.02 911.73,-31.47 912.97,-30.88"/>
<polygon fill="green" stroke="green" stroke-width="0.12" points="915.01,-33.76 922.15,-25.93 911.69,-27.6 915.01,-33.76"/>
</g>
<!-- 231&#45;&gt;5 -->
<g id="edge70" class="edge">
<title>231&#45;&gt;5</title>
<path fill="none" stroke="red" stroke-width="0.27" stroke-dasharray="1,5" d="M719.88,-73.35C710.99,-62.42 699.81,-48.67 690.75,-37.53"/>
<polygon fill="red" stroke="red" stroke-width="0.27" points="693.33,-35.15 684.3,-29.6 687.9,-39.56 693.33,-35.15"/>
</g>
<!-- 231&#45;&gt;6 -->
<g id="edge71" class="edge">
<title>231&#45;&gt;6</title>
<path fill="none" stroke="red" stroke-width="0.21" d="M747.84,-71.78C754.03,-61.68 761.5,-49.5 767.81,-39.21"/>
<polygon fill="red" stroke="red" stroke-width="0.21" points="770.96,-40.77 773.21,-30.42 765,-37.11 770.96,-40.77"/>
</g>
<!-- 231&#45;&gt;7 -->
<g id="edge72" class="edge">
<title>231&#45;&gt;7</title>
<path fill="none" stroke="red" stroke-width="0.2" d="M753.96,-76.7C758.43,-73.59 763.34,-70.64 768.27,-68.53 848.08,-34.35 878.96,-62.96 960.27,-32.53 961.51,-32.06 962.76,-31.54 964.01,-30.98"/>
<polygon fill="red" stroke="red" stroke-width="0.2" points="966.01,-33.88 973.22,-26.11 962.74,-27.69 966.01,-33.88"/>
</g>
<!-- 232&#45;&gt;0 -->
<g id="edge73" class="edge">
<title>232&#45;&gt;0</title>
<path fill="none" stroke="green" stroke-width="0.23" d="M811.41,-70.18C815.18,-61.03 819.57,-50.42 823.42,-41.1"/>
<polygon fill="green" stroke="green" stroke-width="0.23" points="826.75,-42.22 827.33,-31.64 820.28,-39.54 826.75,-42.22"/>
</g>
<!-- 232&#45;&gt;1 -->
<g id="edge74" class="edge">
<title>232&#45;&gt;1</title>
<path fill="none" stroke="green" stroke-width="0.23" d="M820.99,-76.76C825.45,-73.65 830.36,-70.68 835.27,-68.53 908.41,-36.5 936.73,-61.12 1011.27,-32.53 1012.51,-32.05 1013.76,-31.52 1015,-30.95"/>
<polygon fill="green" stroke="green" stroke-width="0.23" points="1017.01,-33.85 1024.2,-26.07 1013.73,-27.66 1017.01,-33.85"/>
</g>
<!-- 232&#45;&gt;2 -->
<g id="edge75" class="edge">
<title>232&#45;&gt;2</title>
<path fill="none" stroke="green" stroke-width="0.2" d="M820.07,-76C833.3,-63.9 851.33,-47.4 864.92,-34.97"/>
<polygon fill="green" stroke="green" stroke-width="0.2" points="867.32,-37.51 872.34,-28.18 862.6,-32.35 867.32,-37.51"/>
</g>
<!-- 232&#45;&gt;3 -->
<g id="edge76" class="edge">
<title>232&#45;&gt;3</title>
<path fill="none" stroke="red" stroke-width="0.16" d="M785.11,-74.88C773.62,-63.23 758.51,-47.92 746.76,-36"/>
<polygon fill="red" stroke="red" stroke-width="0.16" points="749.11,-33.4 739.59,-28.74 744.12,-38.31 749.11,-33.4"/>
</g>
<!-- 232&#45;&gt;4 -->
<g id="edge77" class="edge">
<title>232&#45;&gt;4</title>
<path fill="none" stroke="green" stroke-width="0.51" d="M821.79,-77.39C826.14,-74.32 830.79,-71.2 835.27,-68.53 866.67,-49.78 877.03,-49.8 909.27,-32.53 910.41,-31.92 911.58,-31.28 912.75,-30.63"/>
<polygon fill="green" stroke="green" stroke-width="0.51" points="914.69,-33.55 921.62,-25.55 911.21,-27.48 914.69,-33.55"/>
</g>
<!-- 232&#45;&gt;5 -->
<g id="edge78" class="edge">
<title>232&#45;&gt;5</title>
<path fill="none" stroke="green" stroke-width="0.49" d="M782.66,-77.54C778.32,-74.45 773.7,-71.3 769.27,-68.53 762.55,-64.32 723.21,-43.28 697.3,-29.49"/>
<polygon fill="green" stroke="green" stroke-width="0.49" points="698.93,-26.39 688.46,-24.79 695.64,-32.57 698.93,-26.39"/>
</g>
<!-- 232&#45;&gt;6 -->
<g id="edge79" class="edge">
<title>232&#45;&gt;6</title>
<path fill="none" stroke="red" stroke-width="0.1" d="M795.86,-69.36C793.43,-60.69 790.66,-50.79 788.19,-41.96"/>
<polygon fill="red" stroke="red" stroke-width="0.1" points="791.53,-40.92 785.46,-32.23 784.79,-42.8 791.53,-40.92"/>
</g>
<!-- 232&#45;&gt;7 -->
<g id="edge80" class="edge">
<title>232&#45;&gt;7</title>
<path fill="none" stroke="red" stroke-width="0.14" d="M821.12,-77.04C825.58,-73.92 830.45,-70.87 835.27,-68.53 887.28,-43.27 907.15,-55.34 960.27,-32.53 961.49,-32 962.72,-31.44 963.95,-30.84"/>
<polygon fill="red" stroke="red" stroke-width="0.14" points="966,-33.7 973.11,-25.85 962.66,-27.55 966,-33.7"/>
</g>
<!-- 233&#45;&gt;0 -->
<g id="edge81" class="edge">
<title>233&#45;&gt;0</title>
<path fill="none" stroke="green" stroke-width="0.22" d="M858.86,-70.58C854.36,-61.2 849.08,-50.21 844.5,-40.65"/>
<polygon fill="green" stroke="green" stroke-width="0.22" points="847.51,-38.84 840.03,-31.34 841.2,-41.87 847.51,-38.84"/>
</g>
<!-- 233&#45;&gt;1 -->
<g id="edge82" class="edge">
<title>233&#45;&gt;1</title>
<path fill="none" stroke="green" stroke-width="0.17" d="M888.19,-77.18C892.64,-74.05 897.49,-70.96 902.27,-68.53 947.73,-45.36 964.79,-53.56 1011.27,-32.53 1012.45,-31.99 1013.65,-31.42 1014.84,-30.82"/>
<polygon fill="green" stroke="green" stroke-width="0.17" points="1016.72,-33.78 1023.8,-25.9 1013.35,-27.65 1016.72,-33.78"/>
</g>
<!-- 233&#45;&gt;2 -->
<g id="edge83" class="edge">
<title>233&#45;&gt;2</title>
<path fill="none" stroke="red" stroke-width="0.44" d="M873.94,-68.95C875.62,-60.51 877.54,-50.95 879.25,-42.37"/>
<polygon fill="red" stroke="red" stroke-width="0.44" points="882.69,-43.01 881.22,-32.52 875.83,-41.64 882.69,-43.01"/>
</g>
<!-- 233&#45;&gt;3 -->
<g id="edge84" class="edge">
<title>233&#45;&gt;3</title>
<path fill="none" stroke="green" stroke-width="0.26" d="M850.16,-77.54C845.72,-74.39 840.92,-71.21 836.27,-68.53 802.5,-49.04 791.19,-49.87 756.27,-32.53 754.67,-31.73 753.03,-30.89 751.38,-30.04"/>
<polygon fill="green" stroke="green" stroke-width="0.26" points="752.59,-26.71 742.12,-25.08 749.29,-32.89 752.59,-26.71"/>
</g>
<!-- 233&#45;&gt;4 -->
<g id="edge85" class="edge">
<title>233&#45;&gt;4</title>
<path fill="none" stroke="green" stroke-width="0.33" d="M885.25,-74.12C895.2,-62.81 907.98,-48.28 918.14,-36.74"/>
<polygon fill="green" stroke="green" stroke-width="0.33" points="921.01,-38.77 924.99,-28.95 915.76,-34.14 921.01,-38.77"/>
</g>
<!-- 233&#45;&gt;5 -->
<g id="edge86" class="edge">
<title>233&#45;&gt;5</title>
<path fill="none" stroke="red" stroke-width="0.34" d="M850.46,-76.98C845.99,-73.86 841.12,-70.83 836.27,-68.53 780.97,-42.22 760.27,-54.92 703.27,-32.53 701.37,-31.78 699.42,-30.94 697.49,-30.05"/>
<polygon fill="red" stroke="red" stroke-width="0.34" points="698.65,-26.71 688.14,-25.36 695.51,-32.97 698.65,-26.71"/>
</g>
<!-- 233&#45;&gt;6 -->
<g id="edge87" class="edge">
<title>233&#45;&gt;6</title>
<path fill="none" stroke="red" stroke-width="0.44" d="M850.61,-76.37C835.97,-63.88 815.64,-46.56 800.78,-33.9"/>
<polygon fill="red" stroke="red" stroke-width="0.44" points="803.04,-31.22 793.16,-27.4 798.5,-36.55 803.04,-31.22"/>
</g>
<!-- 233&#45;&gt;7 -->
<g id="edge88" class="edge">
<title>233&#45;&gt;7</title>
<path fill="none" stroke="green" stroke-width="0.18" d="M889,-77.71C893.33,-74.62 897.92,-71.42 902.27,-68.53 913.56,-61.04 943.08,-43.16 963.92,-30.64"/>
<polygon fill="green" stroke="green" stroke-width="0.18" points="965.75,-33.63 972.52,-25.48 962.15,-27.63 965.75,-33.63"/>
</g>
<!-- 234&#45;&gt;0 -->
<g id="edge89" class="edge">
<title>234&#45;&gt;0</title>
<path fill="none" stroke="red" stroke-width="0.55" d="M916.41,-77.81C898.53,-64.79 872.33,-45.71 854.14,-32.46"/>
<polygon fill="red" stroke="red" stroke-width="0.55" points="856.07,-29.54 845.93,-26.48 851.95,-35.2 856.07,-29.54"/>
</g>
<!-- 234&#45;&gt;1 -->
<g id="edge90" class="edge">
<title>234&#45;&gt;1</title>
<path fill="none" stroke="green" stroke-width="0.21" d="M955.75,-77.81C973.18,-64.86 998.68,-45.92 1016.51,-32.69"/>
<polygon fill="green" stroke="green" stroke-width="0.21" points="1018.63,-35.47 1024.57,-26.7 1014.46,-29.85 1018.63,-35.47"/>
</g>
<!-- 234&#45;&gt;2 -->
<g id="edge91" class="edge">
<title>234&#45;&gt;2</title>
<path fill="none" stroke="green" stroke-width="0.36" d="M922.61,-72.57C915.37,-62.12 906.47,-49.28 899.06,-38.6"/>
<polygon fill="green" stroke="green" stroke-width="0.36" points="901.84,-36.46 893.27,-30.24 896.09,-40.45 901.84,-36.46"/>
</g>
<!-- 234&#45;&gt;3 -->
<g id="edge92" class="edge">
<title>234&#45;&gt;3</title>
<path fill="none" stroke="green" stroke-width="0.24" d="M917.5,-76.89C913.03,-73.78 908.14,-70.77 903.27,-68.53 842.19,-40.37 818.99,-56.83 756.27,-32.53 754.6,-31.88 752.91,-31.15 751.23,-30.38"/>
<polygon fill="green" stroke="green" stroke-width="0.24" points="752.39,-27.04 741.89,-25.61 749.2,-33.27 752.39,-27.04"/>
</g>
<!-- 234&#45;&gt;4 -->
<g id="edge93" class="edge">
<title>234&#45;&gt;4</title>
<path fill="none" stroke="green" stroke-width="0.14" d="M935.95,-68.13C935.84,-60.03 935.72,-50.97 935.61,-42.77"/>
<polygon fill="green" stroke="green" stroke-width="0.14" points="939.11,-42.59 935.48,-32.64 932.11,-42.68 939.11,-42.59"/>
</g>
<!-- 234&#45;&gt;5 -->
<g id="edge94" class="edge">
<title>234&#45;&gt;5</title>
<path fill="none" stroke="red" stroke-width="0.38" d="M917.6,-76.67C913.13,-73.56 908.21,-70.62 903.27,-68.53 820.12,-33.28 788.68,-61.9 703.27,-32.53 701.13,-31.79 698.95,-30.91 696.8,-29.96"/>
<polygon fill="red" stroke="red" stroke-width="0.38" points="698.26,-26.78 687.75,-25.46 695.15,-33.04 698.26,-26.78"/>
</g>
<!-- 234&#45;&gt;6 -->
<g id="edge95" class="edge">
<title>234&#45;&gt;6</title>
<path fill="none" stroke="red" stroke-width="0.45" d="M917.28,-77.33C912.83,-74.19 908,-71.07 903.27,-68.53 863.5,-47.16 849.16,-51.69 808.27,-32.53 806.73,-31.8 805.16,-31.03 803.58,-30.22"/>
<polygon fill="red" stroke="red" stroke-width="0.45" points="805.25,-27.14 794.8,-25.44 801.91,-33.29 805.25,-27.14"/>
</g>
<!-- 234&#45;&gt;7 -->
<g id="edge96" class="edge">
<title>234&#45;&gt;7</title>
<path fill="none" stroke="red" stroke-width="0.14" d="M949.67,-72.17C956.56,-61.84 964.96,-49.23 971.98,-38.71"/>
<polygon fill="red" stroke="red" stroke-width="0.14" points="975.08,-40.36 977.71,-30.1 969.26,-36.48 975.08,-40.36"/>
</g>
<!-- 235&#45;&gt;0 -->
<g id="edge97" class="edge">
<title>235&#45;&gt;0</title>
<path fill="none" stroke="red" stroke-width="0.28" d="M984.37,-77.16C979.91,-74.03 975.06,-70.95 970.27,-68.53 924,-45.1 906.58,-53.78 859.27,-32.53 858.09,-32 856.89,-31.43 855.7,-30.83"/>
<polygon fill="red" stroke="red" stroke-width="0.28" points="857.19,-27.65 846.74,-25.92 853.83,-33.79 857.19,-27.65"/>
</g>
<!-- 235&#45;&gt;1 -->
<g id="edge98" class="edge">
<title>235&#45;&gt;1</title>
<path fill="none" stroke="red" stroke-width="0.23" d="M1013.29,-70.18C1017.48,-60.94 1022.35,-50.19 1026.6,-40.81"/>
<polygon fill="red" stroke="red" stroke-width="0.23" points="1029.82,-42.19 1030.76,-31.64 1023.44,-39.3 1029.82,-42.19"/>
</g>
<!-- 235&#45;&gt;2 -->
<g id="edge99" class="edge">
<title>235&#45;&gt;2</title>
<path fill="none" stroke="red" stroke-width="0.43" d="M983.57,-77.68C979.24,-74.59 974.64,-71.39 970.27,-68.53 964.27,-64.59 930.25,-44.41 906.84,-30.58"/>
<polygon fill="red" stroke="red" stroke-width="0.43" points="908.56,-27.53 898.17,-25.46 905,-33.56 908.56,-27.53"/>
</g>
<!-- 235&#45;&gt;3 -->
<g id="edge100" class="edge">
<title>235&#45;&gt;3</title>
<path fill="none" stroke="green" stroke-width="0.2" d="M984.61,-76.63C980.14,-73.52 975.22,-70.59 970.27,-68.53 881.26,-31.39 847.43,-64.04 756.27,-32.53 754.58,-31.94 752.87,-31.26 751.17,-30.52"/>
<polygon fill="green" stroke="green" stroke-width="0.2" points="752.32,-27.18 741.81,-25.82 749.18,-33.43 752.32,-27.18"/>
</g>
<!-- 235&#45;&gt;4 -->
<g id="edge101" class="edge">
<title>235&#45;&gt;4</title>
<path fill="none" stroke="green" stroke-width="0.43" d="M986.81,-74.12C976.46,-62.7 963.13,-48 952.62,-36.4"/>
<polygon fill="green" stroke="green" stroke-width="0.43" points="955.17,-34.01 945.86,-28.95 949.99,-38.71 955.17,-34.01"/>
</g>
<!-- 235&#45;&gt;5 -->
<g id="edge102" class="edge">
<title>235&#45;&gt;5</title>
<path fill="none" stroke="red" stroke-width="0.24" d="M984.66,-76.51C980.19,-73.41 975.26,-70.51 970.27,-68.53 859.03,-24.23 817.33,-68.97 703.27,-32.53 701.11,-31.84 698.93,-30.99 696.77,-30.06"/>
<polygon fill="red" stroke="red" stroke-width="0.24" points="698.22,-26.87 687.71,-25.59 695.13,-33.15 698.22,-26.87"/>
</g>
<!-- 235&#45;&gt;6 -->
<g id="edge103" class="edge">
<title>235&#45;&gt;6</title>
<path fill="none" stroke="red" stroke-width="0.58" d="M984.53,-76.82C980.07,-73.7 975.17,-70.72 970.27,-68.53 902.96,-38.37 877.13,-58.96 808.27,-32.53 806.83,-31.97 805.37,-31.35 803.91,-30.68"/>
<polygon fill="red" stroke="red" stroke-width="0.58" points="805.11,-27.36 794.62,-25.84 801.88,-33.57 805.11,-27.36"/>
</g>
<!-- 235&#45;&gt;7 -->
<g id="edge104" class="edge">
<title>235&#45;&gt;7</title>
<path fill="none" stroke="green" stroke-width="0.38" d="M997.99,-68.95C996.07,-60.51 993.91,-50.95 991.96,-42.37"/>
<polygon fill="green" stroke="green" stroke-width="0.38" points="995.35,-41.5 989.73,-32.52 988.53,-43.05 995.35,-41.5"/>
</g>
<!-- 236&#45;&gt;0 -->
<g id="edge105" class="edge">
<title>236&#45;&gt;0</title>
<path fill="none" stroke="green" stroke-width="0.43" d="M552.9,-76.56C557.38,-73.46 562.3,-70.55 567.27,-68.53 666.76,-28.02 704.72,-67.54 806.27,-32.53 807.74,-32.02 809.21,-31.44 810.68,-30.8"/>
<polygon fill="green" stroke="green" stroke-width="0.43" points="812.68,-33.71 819.99,-26.04 809.5,-27.47 812.68,-33.71"/>
</g>
<!-- 236&#45;&gt;1 -->
<g id="edge106" class="edge">
<title>236&#45;&gt;1</title>
<path fill="none" stroke="red" stroke-width="0.4" d="M552.81,-76.31C557.28,-73.22 562.24,-70.38 567.27,-68.53 753.09,-0.2 822.48,-92.14 1011.27,-32.53 1012.54,-32.13 1013.8,-31.66 1015.06,-31.14"/>
<polygon fill="red" stroke="red" stroke-width="0.4" points="1017.01,-34.07 1024.32,-26.4 1013.82,-27.84 1017.01,-34.07"/>
</g>
<!-- 236&#45;&gt;2 -->
<g id="edge107" class="edge">
<title>236&#45;&gt;2</title>
<path fill="none" stroke="red" stroke-width="0.19" d="M552.87,-76.47C557.34,-73.37 562.28,-70.48 567.27,-68.53 688.61,-20.98 734.86,-74.38 858.27,-32.53 859.53,-32.1 860.79,-31.61 862.04,-31.07"/>
<polygon fill="red" stroke="red" stroke-width="0.19" points="864.01,-33.99 871.28,-26.29 860.79,-27.78 864.01,-33.99"/>
</g>
<!-- 236&#45;&gt;3 -->
<g id="edge108" class="edge">
<title>236&#45;&gt;3</title>
<path fill="none" stroke="red" stroke-width="0.2" d="M553.09,-76.99C557.55,-73.87 562.43,-70.84 567.27,-68.53 622.16,-42.35 642.7,-54.82 699.27,-32.53 701.18,-31.78 703.12,-30.93 705.05,-30.04"/>
<polygon fill="red" stroke="red" stroke-width="0.2" points="707.04,-32.96 714.4,-25.35 703.9,-26.71 707.04,-32.96"/>
</g>
<!-- 236&#45;&gt;4 -->
<g id="edge109" class="edge">
<title>236&#45;&gt;4</title>
<path fill="none" stroke="green" stroke-width="0.52" d="M552.84,-76.4C557.32,-73.31 562.26,-70.44 567.27,-68.53 710.08,-14.07 764.09,-80.29 909.27,-32.53 910.53,-32.11 911.79,-31.63 913.05,-31.1"/>
<polygon fill="green" stroke="green" stroke-width="0.52" points="915.01,-34.03 922.3,-26.34 911.81,-27.8 915.01,-34.03"/>
</g>
<!-- 236&#45;&gt;5 -->
<g id="edge110" class="edge">
<title>236&#45;&gt;5</title>
<path fill="none" stroke="red" stroke-width="0.46" d="M553.78,-77.37C558.13,-74.3 562.78,-71.19 567.27,-68.53 594.62,-52.31 627.89,-37.01 650,-27.42"/>
<polygon fill="red" stroke="red" stroke-width="0.46" points="651.49,-30.59 659.31,-23.43 648.74,-24.15 651.49,-30.59"/>
</g>
<!-- 236&#45;&gt;6 -->
<g id="edge111" class="edge">
<title>236&#45;&gt;6</title>
<path fill="none" stroke="green" stroke-width="0.31" d="M552.97,-76.72C557.44,-73.61 562.35,-70.65 567.27,-68.53 644.58,-35.16 674.04,-61.01 753.27,-32.53 754.96,-31.92 756.66,-31.23 758.35,-30.47"/>
<polygon fill="green" stroke="green" stroke-width="0.31" points="760.36,-33.38 767.71,-25.75 757.2,-27.13 760.36,-33.38"/>
</g>
<!-- 236&#45;&gt;7 -->
<g id="edge112" class="edge">
<title>236&#45;&gt;7</title>
<path fill="none" stroke="green" stroke-width="0.49" d="M552.82,-76.35C557.3,-73.26 562.25,-70.4 567.27,-68.53 731.58,-7.14 793.29,-86.22 960.27,-32.53 961.53,-32.12 962.8,-31.65 964.06,-31.12"/>
<polygon fill="green" stroke="green" stroke-width="0.49" points="966.01,-34.05 973.31,-26.37 962.82,-27.82 966.01,-34.05"/>
</g>
<!-- 237&#45;&gt;0 -->
<g id="edge113" class="edge">
<title>237&#45;&gt;0</title>
<path fill="none" stroke="green" stroke-width="0.57" d="M1127.41,-78.07C1121.5,-74.43 1114.84,-70.89 1108.27,-68.53 1003.05,-30.68 964.79,-69.52 859.27,-32.53 858.02,-32.09 856.76,-31.59 855.51,-31.04"/>
<polygon fill="green" stroke="green" stroke-width="0.57" points="856.77,-27.75 846.28,-26.23 853.53,-33.95 856.77,-27.75"/>
</g>
<!-- 237&#45;&gt;1 -->
<g id="edge114" class="edge">
<title>237&#45;&gt;1</title>
<path fill="none" stroke="green" stroke-width="0.2" d="M1127.1,-78.52C1107.73,-65.31 1078.59,-45.44 1058.79,-31.94"/>
<polygon fill="green" stroke="green" stroke-width="0.2" points="1060.65,-28.97 1050.42,-26.23 1056.71,-34.75 1060.65,-28.97"/>
</g>
<!-- 237&#45;&gt;2 -->
<g id="edge115" class="edge">
<title>237&#45;&gt;2</title>
<path fill="none" stroke="red" stroke-width="0.42" d="M1127.35,-78.22C1121.44,-74.59 1114.79,-71.01 1108.27,-68.53 1024.67,-36.73 994.13,-63.65 910.27,-32.53 909.03,-32.07 907.78,-31.55 906.53,-30.99"/>
<polygon fill="red" stroke="red" stroke-width="0.42" points="907.8,-27.7 897.32,-26.13 904.53,-33.89 907.8,-27.7"/>
</g>
<!-- 237&#45;&gt;3 -->
<g id="edge116" class="edge">
<title>237&#45;&gt;3</title>
<path fill="none" stroke="red" stroke-width="0.31" d="M1123.35,-86.5C1101.15,-81.28 1067.12,-73.65 1037.27,-68.53 913.18,-47.22 876.05,-71.33 756.27,-32.53 754.38,-31.91 752.46,-31.17 750.57,-30.35"/>
<polygon fill="red" stroke="red" stroke-width="0.31" points="751.99,-27.15 741.49,-25.78 748.85,-33.4 751.99,-27.15"/>
</g>
<!-- 237&#45;&gt;4 -->
<g id="edge117" class="edge">
<title>237&#45;&gt;4</title>
<path fill="none" stroke="green" stroke-width="0.16" d="M1127.25,-78.47C1121.34,-74.84 1114.72,-71.2 1108.27,-68.53 1046.15,-42.73 1023.6,-57.82 961.27,-32.53 960.04,-32.03 958.81,-31.48 957.57,-30.9"/>
<polygon fill="green" stroke="green" stroke-width="0.16" points="958.85,-27.61 948.39,-25.96 955.54,-33.78 958.85,-27.61"/>
</g>
<!-- 237&#45;&gt;5 -->
<g id="edge118" class="edge">
<title>237&#45;&gt;5</title>
<path fill="none" stroke="green" stroke-width="0.44" d="M1123.38,-86.36C1101.19,-81.04 1067.17,-73.35 1037.27,-68.53 889.88,-44.74 846.09,-76.07 703.27,-32.53 701.11,-31.87 698.91,-31.04 696.75,-30.12"/>
<polygon fill="green" stroke="green" stroke-width="0.44" points="698.2,-26.93 687.68,-25.67 695.12,-33.22 698.2,-26.93"/>
</g>
<!-- 237&#45;&gt;6 -->
<g id="edge119" class="edge">
<title>237&#45;&gt;6</title>
<path fill="none" stroke="red" stroke-width="0.12" d="M1123.32,-86.69C1101.09,-81.61 1067.04,-74.08 1037.27,-68.53 935.99,-49.65 905.57,-66.42 808.27,-32.53 806.81,-32.02 805.34,-31.43 803.87,-30.79"/>
<polygon fill="red" stroke="red" stroke-width="0.12" points="805.05,-27.46 794.56,-26.02 801.87,-33.69 805.05,-27.46"/>
</g>
<!-- 237&#45;&gt;7 -->
<g id="edge120" class="edge">
<title>237&#45;&gt;7</title>
<path fill="none" stroke="red" stroke-width="0.2" d="M1127.03,-78.96C1121.11,-75.34 1114.55,-71.58 1108.27,-68.53 1067.3,-48.59 1053.41,-52.13 1012.27,-32.53 1011.1,-31.97 1009.92,-31.38 1008.73,-30.76"/>
<polygon fill="red" stroke="red" stroke-width="0.2" points="1010.24,-27.6 999.8,-25.8 1006.83,-33.71 1010.24,-27.6"/>
</g>
</g>
</svg>
