<?xml version="1.0" encoding="UTF-8" standalone="no"?>
<!DOCTYPE svg PUBLIC "-//W3C//DTD SVG 1.1//EN"
 "http://www.w3.org/Graphics/SVG/1.1/DTD/svg11.dtd">
<!-- Generated by graphviz version 2.44.0 (0)
 -->
<!-- Pages: 1 -->
<svg width="1767pt" height="180pt"
 viewBox="0.00 0.00 1766.54 180.02" xmlns="http://www.w3.org/2000/svg" xmlns:xlink="http://www.w3.org/1999/xlink">
<g id="graph0" class="graph" transform="scale(1 1) rotate(0) translate(4 176.02)">
<polygon fill="white" stroke="transparent" points="-4,4 -4,-176.02 1762.54,-176.02 1762.54,4 -4,4"/>
<!-- &#45;1 -->
<g id="node1" class="node">
<title>&#45;1</title>
<polygon fill="lightgray" stroke="black" points="748.25,-172.02 722.25,-172.02 722.25,-154.02 748.25,-154.02 748.25,-172.02"/>
<text text-anchor="middle" x="735.25" y="-160.82" font-family="Times-Roman" font-size="9.00">&#45;1</text>
</g>
<!-- 0 -->
<g id="node5" class="node">
<title>0</title>
<ellipse fill="lightblue" stroke="black" cx="625.25" cy="-16.26" rx="16.03" ry="16.03"/>
<text text-anchor="middle" x="625.25" y="-14.06" font-family="Times-Roman" font-size="9.00">0</text>
</g>
<!-- &#45;1&#45;&gt;0 -->
<g id="edge108" class="edge">
<title>&#45;1&#45;&gt;0</title>
<path fill="none" stroke="green" stroke-width="0.39" d="M721.95,-161.73C625.5,-159.52 36.6,-144.96 11.25,-118.02 -3.83,-102 -3.64,-84.72 11.25,-68.53 51.55,-24.72 485.96,-18.34 598.66,-17.42"/>
<polygon fill="green" stroke="green" stroke-width="0.39" points="598.85,-20.92 608.83,-17.34 598.8,-13.92 598.85,-20.92"/>
</g>
<!-- 1 -->
<g id="node6" class="node">
<title>1</title>
<ellipse fill="lightblue" stroke="black" cx="861.25" cy="-16.26" rx="16.03" ry="16.03"/>
<text text-anchor="middle" x="861.25" y="-14.06" font-family="Times-Roman" font-size="9.00">1</text>
</g>
<!-- &#45;1&#45;&gt;1 -->
<g id="edge109" class="edge">
<title>&#45;1&#45;&gt;1</title>
<path fill="none" stroke="red" stroke-width="0.46" d="M722.24,-161.67C677.18,-160.16 528.95,-152.6 500.25,-118.02 486.2,-101.1 485.57,-84.91 500.25,-68.53 549.03,-14.08 756.71,-51.73 827.25,-32.53 830.73,-31.58 834.3,-30.32 837.76,-28.94"/>
<polygon fill="red" stroke="red" stroke-width="0.46" points="839.33,-32.07 847.06,-24.83 836.5,-25.67 839.33,-32.07"/>
</g>
<!-- 2 -->
<g id="node7" class="node">
<title>2</title>
<ellipse fill="lightblue" stroke="black" cx="735.25" cy="-16.26" rx="16.03" ry="16.03"/>
<text text-anchor="middle" x="735.25" y="-14.06" font-family="Times-Roman" font-size="9.00">2</text>
</g>
<!-- &#45;1&#45;&gt;2 -->
<g id="edge110" class="edge">
<title>&#45;1&#45;&gt;2</title>
<path fill="none" stroke="red" stroke-width="0.22" d="M722.07,-161.79C650.22,-160.37 308,-151.87 277.25,-118.02 262.46,-101.74 262.37,-84.73 277.25,-68.53 341.22,1.11 609.71,-56.23 701.25,-32.53 704.74,-31.62 708.32,-30.39 711.78,-29.02"/>
<polygon fill="red" stroke="red" stroke-width="0.22" points="713.35,-32.15 721.08,-24.91 710.52,-25.75 713.35,-32.15"/>
</g>
<!-- 3 -->
<g id="node8" class="node">
<title>3</title>
<ellipse fill="lightblue" stroke="black" cx="802.25" cy="-16.26" rx="16.03" ry="16.03"/>
<text text-anchor="middle" x="802.25" y="-14.06" font-family="Times-Roman" font-size="9.00">3</text>
</g>
<!-- &#45;1&#45;&gt;3 -->
<g id="edge111" class="edge">
<title>&#45;1&#45;&gt;3</title>
<path fill="none" stroke="red" stroke-width="0.18" d="M722.13,-161.82C675.22,-160.79 516.93,-154.6 486.25,-118.02 472.11,-101.17 471.74,-85.06 486.25,-68.53 526.75,-22.36 700.59,-47.1 760.25,-32.53 766,-31.12 772.05,-29.2 777.71,-27.19"/>
<polygon fill="red" stroke="red" stroke-width="0.18" points="779.2,-30.37 787.33,-23.59 776.74,-23.82 779.2,-30.37"/>
</g>
<!-- 4 -->
<g id="node9" class="node">
<title>4</title>
<ellipse fill="lightblue" stroke="black" cx="912.25" cy="-16.26" rx="16.03" ry="16.03"/>
<text text-anchor="middle" x="912.25" y="-14.06" font-family="Times-Roman" font-size="9.00">4</text>
</g>
<!-- &#45;1&#45;&gt;4 -->
<g id="edge112" class="edge">
<title>&#45;1&#45;&gt;4</title>
<path fill="none" stroke="green" stroke-width="0.19" d="M748.6,-159.4C757.53,-157.71 769.57,-155.55 780.25,-154.02 854.15,-143.48 1064.37,-173.57 1114.25,-118.02 1128.95,-101.66 1128.16,-85.57 1114.25,-68.53 1063.77,-6.67 1012.8,-61.12 938.25,-32.53 937.01,-32.05 935.77,-31.52 934.52,-30.95"/>
<polygon fill="green" stroke="green" stroke-width="0.19" points="935.79,-27.66 925.32,-26.07 932.51,-33.85 935.79,-27.66"/>
</g>
<!-- 5 -->
<g id="node10" class="node">
<title>5</title>
<ellipse fill="lightblue" stroke="black" cx="676.25" cy="-16.26" rx="16.03" ry="16.03"/>
<text text-anchor="middle" x="676.25" y="-14.06" font-family="Times-Roman" font-size="9.00">5</text>
</g>
<!-- &#45;1&#45;&gt;5 -->
<g id="edge113" class="edge">
<title>&#45;1&#45;&gt;5</title>
<path fill="none" stroke="green" stroke-width="0.3" d="M722.11,-162.12C637.13,-162.61 167.34,-163.26 125.25,-118.02 110.26,-101.92 110.24,-84.61 125.25,-68.53 165.16,-25.79 594.39,-49.79 650.25,-32.53 651.52,-32.14 652.79,-31.67 654.05,-31.16"/>
<polygon fill="green" stroke="green" stroke-width="0.3" points="655.99,-34.1 663.31,-26.44 652.81,-27.86 655.99,-34.1"/>
</g>
<!-- 6 -->
<g id="node11" class="node">
<title>6</title>
<ellipse fill="lightblue" stroke="black" cx="963.25" cy="-16.26" rx="16.03" ry="16.03"/>
<text text-anchor="middle" x="963.25" y="-14.06" font-family="Times-Roman" font-size="9.00">6</text>
</g>
<!-- &#45;1&#45;&gt;6 -->
<g id="edge114" class="edge">
<title>&#45;1&#45;&gt;6</title>
<path fill="none" stroke="green" stroke-width="0.64" d="M748.59,-159.31C757.52,-157.58 769.55,-155.41 780.25,-154.02 828.9,-147.72 1187.01,-154.1 1220.25,-118.02 1235.16,-101.85 1234.56,-85.24 1220.25,-68.53 1186.46,-29.06 1038.18,-49.99 989.25,-32.53 988,-32.08 986.75,-31.58 985.5,-31.02"/>
<polygon fill="green" stroke="green" stroke-width="0.64" points="986.76,-27.73 976.27,-26.2 983.51,-33.93 986.76,-27.73"/>
</g>
<!-- 7 -->
<g id="node12" class="node">
<title>7</title>
<ellipse fill="lightblue" stroke="black" cx="1014.25" cy="-16.26" rx="16.03" ry="16.03"/>
<text text-anchor="middle" x="1014.25" y="-14.06" font-family="Times-Roman" font-size="9.00">7</text>
</g>
<!-- &#45;1&#45;&gt;7 -->
<g id="edge115" class="edge">
<title>&#45;1&#45;&gt;7</title>
<path fill="none" stroke="red" stroke-width="0.25" d="M748.59,-159.3C757.51,-157.56 769.55,-155.39 780.25,-154.02 830.99,-147.54 1204.52,-155.59 1239.25,-118.02 1254.19,-101.87 1252.97,-85.72 1239.25,-68.53 1214.65,-37.69 1094.75,-23.96 1040.73,-19.27"/>
<polygon fill="red" stroke="red" stroke-width="0.25" points="1040.81,-15.76 1030.55,-18.42 1040.23,-22.74 1040.81,-15.76"/>
</g>
<!-- 228 -->
<g id="node13" class="node">
<title>228</title>
<ellipse fill="white" stroke="black" cx="1080.25" cy="-93.28" rx="25" ry="25"/>
<text text-anchor="middle" x="1080.25" y="-91.08" font-family="Times-Roman" font-size="9.00">228</text>
</g>
<!-- &#45;1&#45;&gt;228 -->
<g id="edge1" class="edge">
<title>&#45;1&#45;&gt;228</title>
<path fill="none" stroke="red" stroke-width="0.4" d="M748.27,-159.72C783.87,-153.38 885.82,-135.04 970.25,-118.02 995.76,-112.88 1024.51,-106.66 1046.21,-101.88"/>
<polygon fill="red" stroke="red" stroke-width="0.4" points="1047.25,-105.23 1056.26,-99.66 1045.74,-98.4 1047.25,-105.23"/>
</g>
<!-- 229 -->
<g id="node14" class="node">
<title>229</title>
<ellipse fill="white" stroke="black" cx="1186.25" cy="-93.28" rx="25" ry="25"/>
<text text-anchor="middle" x="1186.25" y="-91.08" font-family="Times-Roman" font-size="9.00">229</text>
</g>
<!-- &#45;1&#45;&gt;229 -->
<g id="edge2" class="edge">
<title>&#45;1&#45;&gt;229</title>
<path fill="none" stroke="green" stroke-width="0.42" d="M748.6,-159.37C757.53,-157.66 769.56,-155.5 780.25,-154.02 942.61,-131.66 991.8,-169.95 1147.25,-118.02 1150.77,-116.85 1154.3,-115.31 1157.72,-113.58"/>
<polygon fill="green" stroke="green" stroke-width="0.42" points="1159.45,-116.63 1166.46,-108.68 1156.02,-110.52 1159.45,-116.63"/>
</g>
<!-- 231 -->
<g id="node15" class="node">
<title>231</title>
<ellipse fill="white" stroke="black" cx="668.25" cy="-93.28" rx="25" ry="25"/>
<text text-anchor="middle" x="668.25" y="-91.08" font-family="Times-Roman" font-size="9.00">231</text>
</g>
<!-- &#45;1&#45;&gt;231 -->
<g id="edge3" class="edge">
<title>&#45;1&#45;&gt;231</title>
<path fill="none" stroke="green" stroke-width="0.33" d="M727.3,-153.99C718.75,-145.34 704.72,-131.15 692.48,-118.78"/>
<polygon fill="green" stroke="green" stroke-width="0.33" points="694.68,-116.02 685.16,-111.38 689.7,-120.95 694.68,-116.02"/>
</g>
<!-- 232 -->
<g id="node16" class="node">
<title>232</title>
<ellipse fill="white" stroke="black" cx="534.25" cy="-93.28" rx="25" ry="25"/>
<text text-anchor="middle" x="534.25" y="-91.08" font-family="Times-Roman" font-size="9.00">232</text>
</g>
<!-- &#45;1&#45;&gt;232 -->
<g id="edge4" class="edge">
<title>&#45;1&#45;&gt;232</title>
<path fill="none" stroke="green" stroke-width="0.42" d="M722.05,-160.25C692.94,-155.99 621.54,-143.58 567.25,-118.02 565.43,-117.17 563.61,-116.21 561.8,-115.18"/>
<polygon fill="green" stroke="green" stroke-width="0.42" points="563.37,-112.02 553.05,-109.6 559.6,-117.93 563.37,-112.02"/>
</g>
<!-- 233 -->
<g id="node17" class="node">
<title>233</title>
<ellipse fill="white" stroke="black" cx="735.25" cy="-93.28" rx="25" ry="25"/>
<text text-anchor="middle" x="735.25" y="-91.08" font-family="Times-Roman" font-size="9.00">233</text>
</g>
<!-- &#45;1&#45;&gt;233 -->
<g id="edge5" class="edge">
<title>&#45;1&#45;&gt;233</title>
<path fill="none" stroke="red" stroke-width="0.65" d="M735.25,-153.99C735.25,-147.55 735.25,-138.05 735.25,-128.52"/>
<polygon fill="red" stroke="red" stroke-width="0.65" points="738.75,-128.3 735.25,-118.3 731.75,-128.3 738.75,-128.3"/>
</g>
<!-- 234 -->
<g id="node18" class="node">
<title>234</title>
<ellipse fill="white" stroke="black" cx="802.25" cy="-93.28" rx="25" ry="25"/>
<text text-anchor="middle" x="802.25" y="-91.08" font-family="Times-Roman" font-size="9.00">234</text>
</g>
<!-- &#45;1&#45;&gt;234 -->
<g id="edge6" class="edge">
<title>&#45;1&#45;&gt;234</title>
<path fill="none" stroke="red" stroke-width="0.18" d="M743.2,-153.99C751.75,-145.34 765.78,-131.15 778.02,-118.78"/>
<polygon fill="red" stroke="red" stroke-width="0.18" points="780.8,-120.95 785.34,-111.38 775.82,-116.02 780.8,-120.95"/>
</g>
<!-- 235 -->
<g id="node19" class="node">
<title>235</title>
<ellipse fill="white" stroke="black" cx="869.25" cy="-93.28" rx="25" ry="25"/>
<text text-anchor="middle" x="869.25" y="-91.08" font-family="Times-Roman" font-size="9.00">235</text>
</g>
<!-- &#45;1&#45;&gt;235 -->
<g id="edge7" class="edge">
<title>&#45;1&#45;&gt;235</title>
<path fill="none" stroke="red" stroke-width="0.11" d="M748.43,-157.32C768.13,-150.05 806.16,-135.15 836.25,-118.02 838,-117.03 839.77,-115.96 841.53,-114.85"/>
<polygon fill="red" stroke="red" stroke-width="0.11" points="843.81,-117.53 850.16,-109.05 839.91,-111.72 843.81,-117.53"/>
</g>
<!-- 236 -->
<g id="node20" class="node">
<title>236</title>
<ellipse fill="white" stroke="black" cx="601.25" cy="-93.28" rx="25" ry="25"/>
<text text-anchor="middle" x="601.25" y="-91.08" font-family="Times-Roman" font-size="9.00">236</text>
</g>
<!-- &#45;1&#45;&gt;236 -->
<g id="edge8" class="edge">
<title>&#45;1&#45;&gt;236</title>
<path fill="none" stroke="red" stroke-width="0.19" d="M722.07,-157.32C702.37,-150.05 664.34,-135.15 634.25,-118.02 632.5,-117.03 630.73,-115.96 628.97,-114.85"/>
<polygon fill="red" stroke="red" stroke-width="0.19" points="630.59,-111.72 620.34,-109.05 626.69,-117.53 630.59,-111.72"/>
</g>
<!-- 237 -->
<g id="node21" class="node">
<title>237</title>
<ellipse fill="white" stroke="black" cx="936.25" cy="-93.28" rx="25" ry="25"/>
<text text-anchor="middle" x="936.25" y="-91.08" font-family="Times-Roman" font-size="9.00">237</text>
</g>
<!-- &#45;1&#45;&gt;237 -->
<g id="edge9" class="edge">
<title>&#45;1&#45;&gt;237</title>
<path fill="none" stroke="red" stroke-width="0.47" d="M748.26,-159.27C782.6,-151.88 875.02,-131.32 903.25,-118.02 905.07,-117.17 906.89,-116.21 908.7,-115.18"/>
<polygon fill="red" stroke="red" stroke-width="0.47" points="910.9,-117.93 917.45,-109.6 907.13,-112.02 910.9,-117.93"/>
</g>
<!-- &#45;2 -->
<g id="node2" class="node">
<title>&#45;2</title>
<polygon fill="lightgray" stroke="black" points="815.25,-172.02 789.25,-172.02 789.25,-154.02 815.25,-154.02 815.25,-172.02"/>
<text text-anchor="middle" x="802.25" y="-160.82" font-family="Times-Roman" font-size="9.00">&#45;2</text>
</g>
<!-- &#45;2&#45;&gt;0 -->
<g id="edge116" class="edge">
<title>&#45;2&#45;&gt;0</title>
<path fill="none" stroke="red" stroke-width="0.21" d="M788.92,-159.2C780,-157.43 767.97,-155.25 757.25,-154.02 718.12,-149.57 76.38,-146.57 49.25,-118.02 34.09,-102.08 34.4,-84.76 49.25,-68.53 86.8,-27.49 491.08,-19.08 598.93,-17.57"/>
<polygon fill="red" stroke="red" stroke-width="0.21" points="599.02,-21.07 608.97,-17.44 598.92,-14.07 599.02,-21.07"/>
</g>
<!-- &#45;2&#45;&gt;1 -->
<g id="edge117" class="edge">
<title>&#45;2&#45;&gt;1</title>
<path fill="none" stroke="green" stroke-width="0.59" d="M815.37,-159.54C853.22,-152.24 960.56,-130.58 970.25,-118.02 983.69,-100.61 982.32,-86.92 970.25,-68.53 948.19,-34.91 923.1,-50.74 887.25,-32.53 886.1,-31.94 884.92,-31.32 883.74,-30.69"/>
<polygon fill="green" stroke="green" stroke-width="0.59" points="885.27,-27.53 874.84,-25.66 881.82,-33.63 885.27,-27.53"/>
</g>
<!-- &#45;2&#45;&gt;2 -->
<g id="edge118" class="edge">
<title>&#45;2&#45;&gt;2</title>
<path fill="none" stroke="green" stroke-width="0.22" d="M788.91,-159.31C779.98,-157.58 767.95,-155.41 757.25,-154.02 708.38,-147.71 348.65,-154.25 315.25,-118.02 300.34,-101.85 300.43,-84.79 315.25,-68.53 373.27,-4.84 617.94,-54.46 701.25,-32.53 704.73,-31.61 708.31,-30.37 711.78,-28.99"/>
<polygon fill="green" stroke="green" stroke-width="0.22" points="713.34,-32.13 721.07,-24.89 710.51,-25.72 713.34,-32.13"/>
</g>
<!-- &#45;2&#45;&gt;3 -->
<g id="edge119" class="edge">
<title>&#45;2&#45;&gt;3</title>
<path fill="none" stroke="green" stroke-width="0.32" d="M788.88,-159.52C779.94,-157.87 767.91,-155.72 757.25,-154.02 700.3,-144.98 538.09,-161.54 500.25,-118.02 485.81,-101.42 485.8,-85.11 500.25,-68.53 538.56,-24.54 703.64,-46.57 760.25,-32.53 765.99,-31.1 772.04,-29.17 777.7,-27.17"/>
<polygon fill="green" stroke="green" stroke-width="0.32" points="779.19,-30.35 787.33,-23.56 776.73,-23.79 779.19,-30.35"/>
</g>
<!-- &#45;2&#45;&gt;4 -->
<g id="edge120" class="edge">
<title>&#45;2&#45;&gt;4</title>
<path fill="none" stroke="green" stroke-width="0.2" d="M815.6,-159.36C824.53,-157.65 836.56,-155.49 847.25,-154.02 888.5,-148.38 1192.26,-148.85 1220.25,-118.02 1235.04,-101.74 1234.79,-85.04 1220.25,-68.53 1178.5,-21.11 998.04,-52.93 938.25,-32.53 937,-32.1 935.74,-31.61 934.48,-31.07"/>
<polygon fill="green" stroke="green" stroke-width="0.2" points="935.73,-27.77 925.25,-26.27 932.51,-33.99 935.73,-27.77"/>
</g>
<!-- &#45;2&#45;&gt;5 -->
<g id="edge121" class="edge">
<title>&#45;2&#45;&gt;5</title>
<path fill="none" stroke="green" stroke-width="0.43" d="M788.92,-159.24C780,-157.48 767.97,-155.3 757.25,-154.02 691.59,-146.22 208.57,-166.17 163.25,-118.02 148.17,-102.01 148.28,-84.65 163.25,-68.53 200.18,-28.77 598.45,-48.68 650.25,-32.53 651.52,-32.13 652.78,-31.67 654.04,-31.15"/>
<polygon fill="green" stroke="green" stroke-width="0.43" points="655.99,-34.09 663.3,-26.42 652.81,-27.85 655.99,-34.09"/>
</g>
<!-- &#45;2&#45;&gt;6 -->
<g id="edge122" class="edge">
<title>&#45;2&#45;&gt;6</title>
<path fill="none" stroke="red" stroke-width="0.2" d="M815.59,-159.35C824.52,-157.63 836.56,-155.46 847.25,-154.02 890.6,-148.19 1209.77,-150.34 1239.25,-118.02 1254.08,-101.77 1253.65,-85.15 1239.25,-68.53 1202.5,-26.1 1042.22,-51.08 989.25,-32.53 988,-32.09 986.74,-31.59 985.49,-31.04"/>
<polygon fill="red" stroke="red" stroke-width="0.2" points="986.75,-27.75 976.26,-26.23 983.51,-33.96 986.75,-27.75"/>
</g>
<!-- &#45;2&#45;&gt;7 -->
<g id="edge123" class="edge">
<title>&#45;2&#45;&gt;7</title>
<path fill="none" stroke="green" stroke-width="0.33" d="M815.59,-159.33C824.52,-157.61 836.55,-155.44 847.25,-154.02 892.7,-148.01 1227.28,-151.82 1258.25,-118.02 1273.11,-101.8 1272.11,-85.61 1258.25,-68.53 1231.02,-34.98 1097.88,-22.58 1040.57,-18.75"/>
<polygon fill="green" stroke="green" stroke-width="0.33" points="1040.68,-15.25 1030.48,-18.11 1040.24,-22.23 1040.68,-15.25"/>
</g>
<!-- &#45;2&#45;&gt;228 -->
<g id="edge10" class="edge">
<title>&#45;2&#45;&gt;228</title>
<path fill="none" stroke="green" stroke-width="0.49" d="M815.51,-159.52C847.82,-153.33 933.12,-136.48 1003.25,-118.02 1017.7,-114.22 1033.49,-109.46 1046.99,-105.2"/>
<polygon fill="green" stroke="green" stroke-width="0.49" points="1048.35,-108.44 1056.81,-102.07 1046.22,-101.77 1048.35,-108.44"/>
</g>
<!-- &#45;2&#45;&gt;229 -->
<g id="edge11" class="edge">
<title>&#45;2&#45;&gt;229</title>
<path fill="none" stroke="red" stroke-width="0.24" d="M815.61,-159.45C824.54,-157.77 836.58,-155.61 847.25,-154.02 980.08,-134.26 1020.35,-161.95 1147.25,-118.02 1150.75,-116.81 1154.28,-115.25 1157.7,-113.51"/>
<polygon fill="red" stroke="red" stroke-width="0.24" points="1159.43,-116.55 1166.42,-108.59 1155.99,-110.45 1159.43,-116.55"/>
</g>
<!-- &#45;2&#45;&gt;231 -->
<g id="edge12" class="edge">
<title>&#45;2&#45;&gt;231</title>
<path fill="none" stroke="green" stroke-width="0.22" d="M789.07,-157.32C769.37,-150.05 731.34,-135.15 701.25,-118.02 699.5,-117.03 697.73,-115.96 695.97,-114.85"/>
<polygon fill="green" stroke="green" stroke-width="0.22" points="697.59,-111.72 687.34,-109.05 693.69,-117.53 697.59,-111.72"/>
</g>
<!-- &#45;2&#45;&gt;232 -->
<g id="edge13" class="edge">
<title>&#45;2&#45;&gt;232</title>
<path fill="none" stroke="green" stroke-width="0.1" d="M788.94,-159.61C739.97,-150.73 572.46,-120.25 567.25,-118.02 565.4,-117.23 563.55,-116.32 561.73,-115.33"/>
<polygon fill="green" stroke="green" stroke-width="0.1" points="563.28,-112.17 552.94,-109.86 559.58,-118.11 563.28,-112.17"/>
</g>
<!-- &#45;2&#45;&gt;233 -->
<g id="edge14" class="edge">
<title>&#45;2&#45;&gt;233</title>
<path fill="none" stroke="green" stroke-width="0.33" d="M794.3,-153.99C785.75,-145.34 771.72,-131.15 759.48,-118.78"/>
<polygon fill="green" stroke="green" stroke-width="0.33" points="761.68,-116.02 752.16,-111.38 756.7,-120.95 761.68,-116.02"/>
</g>
<!-- &#45;2&#45;&gt;234 -->
<g id="edge15" class="edge">
<title>&#45;2&#45;&gt;234</title>
<path fill="none" stroke="green" stroke-width="0.39" d="M802.25,-153.99C802.25,-147.55 802.25,-138.05 802.25,-128.52"/>
<polygon fill="green" stroke="green" stroke-width="0.39" points="805.75,-128.3 802.25,-118.3 798.75,-128.3 805.75,-128.3"/>
</g>
<!-- &#45;2&#45;&gt;235 -->
<g id="edge16" class="edge">
<title>&#45;2&#45;&gt;235</title>
<path fill="none" stroke="red" stroke-width="0.53" d="M810.2,-153.99C818.75,-145.34 832.78,-131.15 845.02,-118.78"/>
<polygon fill="red" stroke="red" stroke-width="0.53" points="847.8,-120.95 852.34,-111.38 842.82,-116.02 847.8,-120.95"/>
</g>
<!-- &#45;2&#45;&gt;236 -->
<g id="edge17" class="edge">
<title>&#45;2&#45;&gt;236</title>
<path fill="none" stroke="green" stroke-width="0.4" d="M789.24,-159.27C754.9,-151.88 662.48,-131.32 634.25,-118.02 632.43,-117.17 630.61,-116.21 628.8,-115.18"/>
<polygon fill="green" stroke="green" stroke-width="0.4" points="630.37,-112.02 620.05,-109.6 626.6,-117.93 630.37,-112.02"/>
</g>
<!-- &#45;2&#45;&gt;237 -->
<g id="edge18" class="edge">
<title>&#45;2&#45;&gt;237</title>
<path fill="none" stroke="green" stroke-width="0.48" d="M815.43,-157.32C835.13,-150.05 873.16,-135.15 903.25,-118.02 905,-117.03 906.77,-115.96 908.53,-114.85"/>
<polygon fill="green" stroke="green" stroke-width="0.48" points="910.81,-117.53 917.16,-109.05 906.91,-111.72 910.81,-117.53"/>
</g>
<!-- &#45;3 -->
<g id="node3" class="node">
<title>&#45;3</title>
<polygon fill="lightgray" stroke="black" points="882.25,-172.02 856.25,-172.02 856.25,-154.02 882.25,-154.02 882.25,-172.02"/>
<text text-anchor="middle" x="869.25" y="-160.82" font-family="Times-Roman" font-size="9.00">&#45;3</text>
</g>
<!-- &#45;3&#45;&gt;0 -->
<g id="edge124" class="edge">
<title>&#45;3&#45;&gt;0</title>
<path fill="none" stroke="red" stroke-width="0.37" d="M855.9,-159.38C846.97,-157.68 834.94,-155.52 824.25,-154.02 746.38,-143.14 524.95,-176.38 472.25,-118.02 457.51,-101.7 459.4,-86.38 472.25,-68.53 501.17,-28.34 563.07,-19.21 598.64,-17.41"/>
<polygon fill="red" stroke="red" stroke-width="0.37" points="598.89,-20.9 608.76,-17.06 598.65,-13.9 598.89,-20.9"/>
</g>
<!-- &#45;3&#45;&gt;1 -->
<g id="edge125" class="edge">
<title>&#45;3&#45;&gt;1</title>
<path fill="none" stroke="green" stroke-width="0.18" d="M882.52,-160.85C945.18,-155.26 1208.8,-131 1220.25,-118.02 1234.81,-101.53 1234.95,-84.9 1220.25,-68.53 1170.53,-13.14 957.92,-55.89 887.25,-32.53 885.99,-32.11 884.73,-31.63 883.47,-31.1"/>
<polygon fill="green" stroke="green" stroke-width="0.18" points="884.72,-27.8 874.23,-26.33 881.51,-34.02 884.72,-27.8"/>
</g>
<!-- &#45;3&#45;&gt;2 -->
<g id="edge126" class="edge">
<title>&#45;3&#45;&gt;2</title>
<path fill="none" stroke="red" stroke-width="0.18" d="M855.9,-159.41C846.96,-157.73 834.93,-155.57 824.25,-154.02 752.55,-143.68 548.56,-172 500.25,-118.02 485.58,-101.63 486.13,-85.4 500.25,-68.53 558.49,1.07 614.54,-59.31 701.25,-32.53 704.69,-31.46 708.25,-30.14 711.7,-28.72"/>
<polygon fill="red" stroke="red" stroke-width="0.18" points="713.27,-31.85 720.99,-24.6 710.43,-25.45 713.27,-31.85"/>
</g>
<!-- &#45;3&#45;&gt;3 -->
<g id="edge127" class="edge">
<title>&#45;3&#45;&gt;3</title>
<path fill="none" stroke="green" stroke-width="0.47" d="M882.31,-160.77C904.83,-157.83 950.44,-148.26 970.25,-118.02 982.31,-99.62 983.64,-85.98 970.25,-68.53 932.73,-19.59 894.34,-53.22 836.25,-32.53 832.86,-31.32 829.33,-29.91 825.89,-28.45"/>
<polygon fill="green" stroke="green" stroke-width="0.47" points="827.16,-25.19 816.6,-24.32 824.31,-31.58 827.16,-25.19"/>
</g>
<!-- &#45;3&#45;&gt;4 -->
<g id="edge128" class="edge">
<title>&#45;3&#45;&gt;4</title>
<path fill="none" stroke="green" stroke-width="0.36" d="M882.33,-161.11C960.11,-155.66 1358.79,-127.27 1367.25,-118.02 1382.11,-101.8 1382.14,-84.72 1367.25,-68.53 1302.49,1.89 1029.44,-61.46 938.25,-32.53 936.99,-32.13 935.72,-31.66 934.46,-31.13"/>
<polygon fill="green" stroke="green" stroke-width="0.36" points="935.7,-27.84 925.21,-26.4 932.51,-34.07 935.7,-27.84"/>
</g>
<!-- &#45;3&#45;&gt;5 -->
<g id="edge129" class="edge">
<title>&#45;3&#45;&gt;5</title>
<path fill="none" stroke="red" stroke-width="0.28" stroke-dasharray="1,5" d="M855.9,-159.4C846.97,-157.7 834.93,-155.54 824.25,-154.02 749.46,-143.41 536.75,-174.19 486.25,-118.02 471.54,-101.67 472.46,-85.67 486.25,-68.53 533.02,-10.38 580.77,-59.75 650.25,-32.53 651.48,-32.04 652.73,-31.51 653.97,-30.93"/>
<polygon fill="red" stroke="red" stroke-width="0.28" points="655.99,-33.82 663.16,-26.03 652.69,-27.64 655.99,-33.82"/>
</g>
<!-- &#45;3&#45;&gt;6 -->
<g id="edge130" class="edge">
<title>&#45;3&#45;&gt;6</title>
<path fill="none" stroke="green" stroke-width="0.16" d="M882.59,-161.11C904.3,-159.62 948.67,-156.58 986.25,-154.02 1045.47,-150 1478.72,-161.39 1519.25,-118.02 1534.27,-101.95 1534.27,-84.6 1519.25,-68.53 1478.95,-25.4 1045.65,-49.93 989.25,-32.53 987.98,-32.14 986.71,-31.67 985.45,-31.16"/>
<polygon fill="green" stroke="green" stroke-width="0.16" points="986.69,-27.86 976.19,-26.44 983.52,-34.1 986.69,-27.86"/>
</g>
<!-- &#45;3&#45;&gt;7 -->
<g id="edge131" class="edge">
<title>&#45;3&#45;&gt;7</title>
<path fill="none" stroke="green" stroke-width="0.51" d="M882.58,-161.06C904.3,-159.5 948.66,-156.36 986.25,-154.02 1022.18,-151.8 1608.51,-144.18 1633.25,-118.02 1648.37,-102.04 1648.15,-84.71 1633.25,-68.53 1592.56,-24.33 1153.72,-18.23 1040.68,-17.4"/>
<polygon fill="green" stroke="green" stroke-width="0.51" points="1040.53,-13.9 1030.5,-17.33 1040.48,-20.9 1040.53,-13.9"/>
</g>
<!-- &#45;3&#45;&gt;228 -->
<g id="edge19" class="edge">
<title>&#45;3&#45;&gt;228</title>
<path fill="none" stroke="green" stroke-width="0.34" d="M882.63,-159.99C912.15,-155.22 984.72,-141.84 1041.25,-118.02 1044.67,-116.59 1048.13,-114.88 1051.52,-113.05"/>
<polygon fill="green" stroke="green" stroke-width="0.34" points="1053.3,-116.07 1060.21,-108.04 1049.8,-110.01 1053.3,-116.07"/>
</g>
<!-- &#45;3&#45;&gt;229 -->
<g id="edge20" class="edge">
<title>&#45;3&#45;&gt;229</title>
<path fill="none" stroke="green" stroke-width="0.3" d="M882.45,-161.74C923.17,-160.48 1050.01,-153.74 1147.25,-118.02 1150.73,-116.75 1154.24,-115.14 1157.65,-113.38"/>
<polygon fill="green" stroke="green" stroke-width="0.3" points="1159.4,-116.41 1166.37,-108.43 1155.94,-110.32 1159.4,-116.41"/>
</g>
<!-- &#45;3&#45;&gt;231 -->
<g id="edge21" class="edge">
<title>&#45;3&#45;&gt;231</title>
<path fill="none" stroke="red" stroke-width="0.16" d="M856.24,-159.27C821.9,-151.88 729.48,-131.32 701.25,-118.02 699.43,-117.17 697.61,-116.21 695.8,-115.18"/>
<polygon fill="red" stroke="red" stroke-width="0.16" points="697.37,-112.02 687.05,-109.6 693.6,-117.93 697.37,-112.02"/>
</g>
<!-- &#45;3&#45;&gt;232 -->
<g id="edge22" class="edge">
<title>&#45;3&#45;&gt;232</title>
<path fill="none" stroke="green" stroke-width="0.34" d="M855.88,-159.52C846.94,-157.87 834.91,-155.72 824.25,-154.02 710.34,-135.93 674.3,-160.96 567.25,-118.02 565.38,-117.28 563.52,-116.4 561.69,-115.43"/>
<polygon fill="green" stroke="green" stroke-width="0.34" points="563.22,-112.27 552.87,-110.03 559.57,-118.23 563.22,-112.27"/>
</g>
<!-- &#45;3&#45;&gt;233 -->
<g id="edge23" class="edge">
<title>&#45;3&#45;&gt;233</title>
<path fill="none" stroke="green" stroke-width="0.16" d="M856.07,-157.32C836.37,-150.05 798.34,-135.15 768.25,-118.02 766.5,-117.03 764.73,-115.96 762.97,-114.85"/>
<polygon fill="green" stroke="green" stroke-width="0.16" points="764.59,-111.72 754.34,-109.05 760.69,-117.53 764.59,-111.72"/>
</g>
<!-- &#45;3&#45;&gt;234 -->
<g id="edge24" class="edge">
<title>&#45;3&#45;&gt;234</title>
<path fill="none" stroke="red" stroke-width="0.72" d="M861.3,-153.99C852.75,-145.34 838.72,-131.15 826.48,-118.78"/>
<polygon fill="red" stroke="red" stroke-width="0.72" points="828.68,-116.02 819.16,-111.38 823.7,-120.95 828.68,-116.02"/>
</g>
<!-- &#45;3&#45;&gt;235 -->
<g id="edge25" class="edge">
<title>&#45;3&#45;&gt;235</title>
<path fill="none" stroke="red" stroke-width="0.92" d="M869.25,-153.99C869.25,-147.55 869.25,-138.05 869.25,-128.52"/>
<polygon fill="red" stroke="red" stroke-width="0.92" points="872.75,-128.3 869.25,-118.3 865.75,-128.3 872.75,-128.3"/>
</g>
<!-- &#45;3&#45;&gt;236 -->
<g id="edge26" class="edge">
<title>&#45;3&#45;&gt;236</title>
<path fill="none" stroke="green" stroke-width="0.59" d="M855.94,-159.61C806.97,-150.73 639.46,-120.25 634.25,-118.02 632.4,-117.23 630.55,-116.32 628.73,-115.33"/>
<polygon fill="green" stroke="green" stroke-width="0.59" points="630.28,-112.17 619.94,-109.86 626.58,-118.11 630.28,-112.17"/>
</g>
<!-- &#45;3&#45;&gt;237 -->
<g id="edge27" class="edge">
<title>&#45;3&#45;&gt;237</title>
<path fill="none" stroke="red" stroke-width="0.23" d="M877.2,-153.99C885.75,-145.34 899.78,-131.15 912.02,-118.78"/>
<polygon fill="red" stroke="red" stroke-width="0.23" points="914.8,-120.95 919.34,-111.38 909.82,-116.02 914.8,-120.95"/>
</g>
<!-- &#45;4 -->
<g id="node4" class="node">
<title>&#45;4</title>
<polygon fill="lightgray" stroke="black" points="1021.25,-172.02 995.25,-172.02 995.25,-154.02 1021.25,-154.02 1021.25,-172.02"/>
<text text-anchor="middle" x="1008.25" y="-160.82" font-family="Times-Roman" font-size="9.00">&#45;4</text>
</g>
<!-- &#45;4&#45;&gt;0 -->
<g id="edge132" class="edge">
<title>&#45;4&#45;&gt;0</title>
<path fill="none" stroke="red" stroke-width="0.36" d="M995.21,-161.05C914.88,-155 490.71,-122.87 486.25,-118.02 471.36,-101.83 473.67,-86.57 486.25,-68.53 511.62,-32.13 565.91,-21.51 598.63,-18.45"/>
<polygon fill="red" stroke="red" stroke-width="0.36" points="599.12,-21.92 608.83,-17.68 598.59,-14.94 599.12,-21.92"/>
</g>
<!-- &#45;4&#45;&gt;1 -->
<g id="edge133" class="edge">
<title>&#45;4&#45;&gt;1</title>
<path fill="none" stroke="red" stroke-width="0.34" d="M1021.68,-161.71C1091.86,-159.95 1414.24,-150.12 1443.25,-118.02 1458,-101.7 1458.3,-84.58 1443.25,-68.53 1400.91,-23.36 946.43,-50.69 887.25,-32.53 885.98,-32.14 884.71,-31.68 883.45,-31.16"/>
<polygon fill="red" stroke="red" stroke-width="0.34" points="884.69,-27.86 874.19,-26.45 881.52,-34.1 884.69,-27.86"/>
</g>
<!-- &#45;4&#45;&gt;2 -->
<g id="edge134" class="edge">
<title>&#45;4&#45;&gt;2</title>
<path fill="none" stroke="green" stroke-width="0.4" d="M1021.45,-161.38C1063.78,-159.01 1194.86,-149.22 1220.25,-118.02 1234.14,-100.96 1235.16,-84.7 1220.25,-68.53 1186.77,-32.22 825.5,-43.05 777.25,-32.53 771.47,-31.27 765.41,-29.4 759.74,-27.41"/>
<polygon fill="green" stroke="green" stroke-width="0.4" points="760.72,-24.03 750.12,-23.77 758.24,-30.58 760.72,-24.03"/>
</g>
<!-- &#45;4&#45;&gt;3 -->
<g id="edge135" class="edge">
<title>&#45;4&#45;&gt;3</title>
<path fill="none" stroke="green" stroke-width="0.18" d="M1021.39,-162.02C1086.8,-161.59 1370.96,-154.8 1291.25,-68.53 1256.83,-31.28 885.38,-45.1 836.25,-32.53 832.76,-31.63 829.18,-30.41 825.71,-29.03"/>
<polygon fill="green" stroke="green" stroke-width="0.18" points="826.98,-25.77 816.41,-24.93 824.15,-32.17 826.98,-25.77"/>
</g>
<!-- &#45;4&#45;&gt;4 -->
<g id="edge136" class="edge">
<title>&#45;4&#45;&gt;4</title>
<path fill="none" stroke="red" stroke-width="0.31" d="M1021.43,-162.08C1104.63,-162.31 1554.89,-161.52 1595.25,-118.02 1610.21,-101.9 1610.37,-84.5 1595.25,-68.53 1544.99,-15.44 1008.25,-53.63 938.25,-32.53 936.98,-32.14 935.71,-31.69 934.45,-31.18"/>
<polygon fill="red" stroke="red" stroke-width="0.31" points="935.68,-27.88 925.18,-26.48 932.52,-34.12 935.68,-27.88"/>
</g>
<!-- &#45;4&#45;&gt;5 -->
<g id="edge137" class="edge">
<title>&#45;4&#45;&gt;5</title>
<path fill="none" stroke="green" stroke-width="0.54" d="M995.17,-161.13C916.44,-155.75 508.9,-127.45 500.25,-118.02 485.38,-101.81 486.63,-85.8 500.25,-68.53 542.7,-14.69 586.66,-58.16 650.25,-32.53 651.48,-32.03 652.72,-31.48 653.96,-30.9"/>
<polygon fill="green" stroke="green" stroke-width="0.54" points="655.99,-33.78 663.14,-25.97 652.68,-27.62 655.99,-33.78"/>
</g>
<!-- &#45;4&#45;&gt;6 -->
<g id="edge138" class="edge">
<title>&#45;4&#45;&gt;6</title>
<path fill="none" stroke="green" stroke-width="0.21" d="M1021.36,-162.2C1110.48,-163.26 1625.19,-167.24 1671.25,-118.02 1686.28,-101.96 1686.39,-84.49 1671.25,-68.53 1619.03,-13.47 1061.93,-54.36 989.25,-32.53 987.98,-32.15 986.71,-31.69 985.45,-31.18"/>
<polygon fill="green" stroke="green" stroke-width="0.21" points="986.68,-27.88 976.18,-26.48 983.52,-34.13 986.68,-27.88"/>
</g>
<!-- &#45;4&#45;&gt;7 -->
<g id="edge139" class="edge">
<title>&#45;4&#45;&gt;7</title>
<path fill="none" stroke="green" stroke-width="0.1" d="M1021.52,-161.75C1118.99,-159.64 1721.33,-145.53 1747.25,-118.02 1762.34,-102.01 1762.25,-84.62 1747.25,-68.53 1698.22,-15.94 1167.07,-16.22 1040.99,-17.03"/>
<polygon fill="green" stroke="green" stroke-width="0.1" points="1040.68,-13.53 1030.7,-17.11 1040.73,-20.53 1040.68,-13.53"/>
</g>
<!-- &#45;4&#45;&gt;228 -->
<g id="edge28" class="edge">
<title>&#45;4&#45;&gt;228</title>
<path fill="none" stroke="red" stroke-width="0.42" d="M1016.79,-153.99C1026.2,-145.14 1041.75,-130.5 1055.11,-117.93"/>
<polygon fill="red" stroke="red" stroke-width="0.42" points="1057.77,-120.23 1062.66,-110.83 1052.98,-115.13 1057.77,-120.23"/>
</g>
<!-- &#45;4&#45;&gt;229 -->
<g id="edge29" class="edge">
<title>&#45;4&#45;&gt;229</title>
<path fill="none" stroke="green" stroke-width="0.39" d="M1021.28,-159.02C1046.36,-152.99 1102.78,-138.25 1147.25,-118.02 1150.62,-116.49 1154.07,-114.72 1157.44,-112.86"/>
<polygon fill="green" stroke="green" stroke-width="0.39" points="1159.24,-115.87 1166.11,-107.8 1155.71,-109.82 1159.24,-115.87"/>
</g>
<!-- &#45;4&#45;&gt;231 -->
<g id="edge30" class="edge">
<title>&#45;4&#45;&gt;231</title>
<path fill="none" stroke="red" stroke-width="0.16" d="M995,-160.97C943.43,-156.75 756.19,-140.16 701.25,-118.02 699.38,-117.27 697.53,-116.39 695.69,-115.43"/>
<polygon fill="red" stroke="red" stroke-width="0.16" points="697.23,-112.26 686.87,-110.01 693.57,-118.23 697.23,-112.26"/>
</g>
<!-- &#45;4&#45;&gt;233 -->
<g id="edge31" class="edge">
<title>&#45;4&#45;&gt;233</title>
<path fill="none" stroke="green" stroke-width="0.33" d="M995.19,-161.63C958.13,-160.09 849.71,-152.71 768.25,-118.02 766.4,-117.24 764.55,-116.33 762.73,-115.34"/>
<polygon fill="green" stroke="green" stroke-width="0.33" points="764.27,-112.18 753.93,-109.87 760.58,-118.12 764.27,-112.18"/>
</g>
<!-- &#45;4&#45;&gt;234 -->
<g id="edge32" class="edge">
<title>&#45;4&#45;&gt;234</title>
<path fill="none" stroke="red" stroke-width="0.1" d="M995.1,-160.39C965.42,-156.34 891.42,-144.22 835.25,-118.02 833.43,-117.17 831.6,-116.22 829.8,-115.19"/>
<polygon fill="red" stroke="red" stroke-width="0.1" points="831.36,-112.04 821.04,-109.62 827.6,-117.94 831.36,-112.04"/>
</g>
<!-- &#45;4&#45;&gt;235 -->
<g id="edge33" class="edge">
<title>&#45;4&#45;&gt;235</title>
<path fill="none" stroke="green" stroke-width="0.38" d="M995.08,-157.66C974.58,-150.64 934.1,-135.78 902.25,-118.02 900.49,-117.04 898.72,-115.99 896.95,-114.89"/>
<polygon fill="green" stroke="green" stroke-width="0.38" points="898.56,-111.75 888.3,-109.11 894.68,-117.58 898.56,-111.75"/>
</g>
<!-- &#45;4&#45;&gt;236 -->
<g id="edge34" class="edge">
<title>&#45;4&#45;&gt;236</title>
<path fill="none" stroke="red" stroke-width="0.5" d="M995.05,-160.87C932.63,-155.34 668.61,-131.37 634.25,-118.02 632.38,-117.3 630.51,-116.44 628.67,-115.48"/>
<polygon fill="red" stroke="red" stroke-width="0.5" points="630.2,-112.31 619.84,-110.11 626.56,-118.29 630.2,-112.31"/>
</g>
<!-- &#45;4&#45;&gt;237 -->
<g id="edge35" class="edge">
<title>&#45;4&#45;&gt;237</title>
<path fill="none" stroke="red" stroke-width="0.28" d="M999.71,-153.99C990.3,-145.14 974.75,-130.5 961.39,-117.93"/>
<polygon fill="red" stroke="red" stroke-width="0.28" points="963.52,-115.13 953.84,-110.83 958.73,-120.23 963.52,-115.13"/>
</g>
<!-- 228&#45;&gt;0 -->
<g id="edge36" class="edge">
<title>228&#45;&gt;0</title>
<path fill="none" stroke="red" stroke-width="0.21" d="M1056.35,-86.39C1034.16,-81.1 1000.13,-73.43 970.25,-68.53 829.45,-45.44 786.61,-77.63 651.25,-32.53 649.99,-32.11 648.73,-31.62 647.48,-31.09"/>
<polygon fill="red" stroke="red" stroke-width="0.21" points="648.72,-27.79 638.23,-26.32 645.51,-34.01 648.72,-27.79"/>
</g>
<!-- 228&#45;&gt;1 -->
<g id="edge37" class="edge">
<title>228&#45;&gt;1</title>
<path fill="none" stroke="red" stroke-width="0.23" d="M1060.25,-78.43C1054.33,-74.8 1047.71,-71.17 1041.25,-68.53 976.19,-41.91 952.52,-58.61 887.25,-32.53 886.02,-32.04 884.78,-31.49 883.54,-30.91"/>
<polygon fill="red" stroke="red" stroke-width="0.23" points="884.82,-27.63 874.35,-25.99 881.51,-33.8 884.82,-27.63"/>
</g>
<!-- 228&#45;&gt;2 -->
<g id="edge38" class="edge">
<title>228&#45;&gt;2</title>
<path fill="none" stroke="green" stroke-width="0.3" d="M1056.26,-86.89C1034,-81.95 999.94,-74.5 970.25,-68.53 884.71,-51.32 861.43,-55.51 777.25,-32.53 771.54,-30.97 765.51,-28.99 759.85,-26.97"/>
<polygon fill="green" stroke="green" stroke-width="0.3" points="760.81,-23.59 750.22,-23.38 758.37,-30.15 760.81,-23.59"/>
</g>
<!-- 228&#45;&gt;3 -->
<g id="edge39" class="edge">
<title>228&#45;&gt;3</title>
<path fill="none" stroke="green" stroke-width="0.11" d="M1060.34,-78.19C1054.43,-74.56 1047.78,-70.99 1041.25,-68.53 954.69,-35.9 924.68,-59.68 836.25,-32.53 832.81,-31.47 829.25,-30.15 825.8,-28.73"/>
<polygon fill="green" stroke="green" stroke-width="0.11" points="827.06,-25.47 816.5,-24.61 824.23,-31.86 827.06,-25.47"/>
</g>
<!-- 228&#45;&gt;4 -->
<g id="edge40" class="edge">
<title>228&#45;&gt;4</title>
<path fill="none" stroke="green" stroke-width="0.54" d="M1060.06,-78.87C1054.14,-75.25 1047.56,-71.51 1041.25,-68.53 997.41,-47.8 982.26,-52.9 938.25,-32.53 937.07,-31.98 935.88,-31.4 934.69,-30.79"/>
<polygon fill="green" stroke="green" stroke-width="0.54" points="936.19,-27.63 925.75,-25.86 932.81,-33.75 936.19,-27.63"/>
</g>
<!-- 228&#45;&gt;5 -->
<g id="edge41" class="edge">
<title>228&#45;&gt;5</title>
<path fill="none" stroke="green" stroke-width="0.37" d="M1056.32,-86.57C1034.11,-81.4 1000.07,-73.8 970.25,-68.53 855.38,-48.2 822.37,-64.74 710.25,-32.53 706.79,-31.53 703.22,-30.25 699.76,-28.85"/>
<polygon fill="green" stroke="green" stroke-width="0.37" points="701.03,-25.58 690.47,-24.73 698.2,-31.98 701.03,-25.58"/>
</g>
<!-- 228&#45;&gt;6 -->
<g id="edge42" class="edge">
<title>228&#45;&gt;6</title>
<path fill="none" stroke="green" stroke-width="0.19" d="M1059.87,-79.21C1038.9,-65.77 1006.36,-44.91 984.93,-31.16"/>
<polygon fill="green" stroke="green" stroke-width="0.19" points="986.8,-28.21 976.49,-25.75 983.02,-34.1 986.8,-28.21"/>
</g>
<!-- 228&#45;&gt;7 -->
<g id="edge43" class="edge">
<title>228&#45;&gt;7</title>
<path fill="none" stroke="green" stroke-width="0.11" d="M1064.27,-74.12C1054.33,-62.81 1041.54,-48.28 1031.38,-36.74"/>
<polygon fill="green" stroke="green" stroke-width="0.11" points="1033.76,-34.14 1024.53,-28.95 1028.51,-38.77 1033.76,-34.14"/>
</g>
<!-- 229&#45;&gt;0 -->
<g id="edge44" class="edge">
<title>229&#45;&gt;0</title>
<path fill="none" stroke="red" stroke-width="0.13" d="M1163.61,-83.25C1149.61,-78.06 1131.16,-71.92 1114.25,-68.53 911.89,-27.91 848.17,-94.35 651.25,-32.53 649.99,-32.13 648.72,-31.66 647.46,-31.14"/>
<polygon fill="red" stroke="red" stroke-width="0.13" points="648.7,-27.84 638.2,-26.41 645.51,-34.08 648.7,-27.84"/>
</g>
<!-- 229&#45;&gt;1 -->
<g id="edge45" class="edge">
<title>229&#45;&gt;1</title>
<path fill="none" stroke="red" stroke-width="0.47" d="M1163.18,-83.61C1149.19,-78.62 1130.88,-72.56 1114.25,-68.53 1014.98,-44.45 983.41,-66.98 887.25,-32.53 886,-32.08 884.75,-31.57 883.5,-31.02"/>
<polygon fill="red" stroke="red" stroke-width="0.47" points="884.76,-27.73 874.28,-26.19 881.51,-33.93 884.76,-27.73"/>
</g>
<!-- 229&#45;&gt;2 -->
<g id="edge46" class="edge">
<title>229&#45;&gt;2</title>
<path fill="none" stroke="green" stroke-width="0.22" d="M1163.25,-83.3C1149.28,-78.2 1130.98,-72.14 1114.25,-68.53 967.01,-36.76 924,-66.5 777.25,-32.53 771.49,-31.19 765.43,-29.3 759.77,-27.3"/>
<polygon fill="green" stroke="green" stroke-width="0.22" points="760.74,-23.92 750.15,-23.68 758.27,-30.47 760.74,-23.92"/>
</g>
<!-- 229&#45;&gt;3 -->
<g id="edge47" class="edge">
<title>229&#45;&gt;3</title>
<path fill="none" stroke="red" stroke-width="0.48" d="M1163.22,-83.44C1149.24,-78.39 1130.94,-72.32 1114.25,-68.53 992.77,-40.89 956.14,-66.4 836.25,-32.53 832.78,-31.55 829.22,-30.27 825.75,-28.87"/>
<polygon fill="red" stroke="red" stroke-width="0.48" points="827.02,-25.61 816.46,-24.76 824.19,-32.01 827.02,-25.61"/>
</g>
<!-- 229&#45;&gt;4 -->
<g id="edge48" class="edge">
<title>229&#45;&gt;4</title>
<path fill="none" stroke="green" stroke-width="0.34" d="M1166.35,-78.18C1160.43,-74.55 1153.78,-70.98 1147.25,-68.53 1059,-35.43 1026.77,-64.91 938.25,-32.53 937.01,-32.07 935.75,-31.56 934.51,-31"/>
<polygon fill="green" stroke="green" stroke-width="0.34" points="935.77,-27.71 925.29,-26.15 932.51,-33.9 935.77,-27.71"/>
</g>
<!-- 229&#45;&gt;5 -->
<g id="edge49" class="edge">
<title>229&#45;&gt;5</title>
<path fill="none" stroke="red" stroke-width="0.6" d="M1163.59,-83.31C1149.59,-78.15 1131.14,-72.02 1114.25,-68.53 937.71,-32.05 884.67,-78.07 710.25,-32.53 706.76,-31.62 703.19,-30.38 699.72,-29"/>
<polygon fill="red" stroke="red" stroke-width="0.6" points="700.98,-25.73 690.42,-24.9 698.16,-32.14 700.98,-25.73"/>
</g>
<!-- 229&#45;&gt;6 -->
<g id="edge50" class="edge">
<title>229&#45;&gt;6</title>
<path fill="none" stroke="red" stroke-width="0.37" d="M1166.26,-78.41C1160.34,-74.78 1153.71,-71.15 1147.25,-68.53 1080.51,-41.45 1056.2,-59.07 989.25,-32.53 988.02,-32.04 986.78,-31.5 985.54,-30.92"/>
<polygon fill="red" stroke="red" stroke-width="0.37" points="986.81,-27.63 976.35,-26 983.51,-33.81 986.81,-27.63"/>
</g>
<!-- 229&#45;&gt;7 -->
<g id="edge51" class="edge">
<title>229&#45;&gt;7</title>
<path fill="none" stroke="green" stroke-width="0.16" d="M1165.99,-79C1160.07,-75.38 1153.51,-71.61 1147.25,-68.53 1110.83,-50.6 1066.47,-34.6 1039.31,-25.42"/>
<polygon fill="green" stroke="green" stroke-width="0.16" points="1040.38,-22.08 1029.79,-22.24 1038.17,-28.72 1040.38,-22.08"/>
</g>
<!-- 231&#45;&gt;0 -->
<g id="edge52" class="edge">
<title>231&#45;&gt;0</title>
<path fill="none" stroke="red" stroke-width="0.29" d="M656.27,-71.38C650.62,-61.53 643.87,-49.75 638.12,-39.71"/>
<polygon fill="red" stroke="red" stroke-width="0.29" points="640.98,-37.66 632.97,-30.73 634.9,-41.14 640.98,-37.66"/>
</g>
<!-- 231&#45;&gt;1 -->
<g id="edge53" class="edge">
<title>231&#45;&gt;1</title>
<path fill="none" stroke="green" stroke-width="0.18" d="M687.09,-77.03C691.55,-73.91 696.42,-70.87 701.25,-68.53 753.67,-43.14 772.54,-52.5 827.25,-32.53 830.63,-31.29 834.16,-29.87 837.59,-28.4"/>
<polygon fill="green" stroke="green" stroke-width="0.18" points="839.17,-31.53 846.88,-24.27 836.32,-25.14 839.17,-31.53"/>
</g>
<!-- 231&#45;&gt;2 -->
<g id="edge54" class="edge">
<title>231&#45;&gt;2</title>
<path fill="none" stroke="green" stroke-width="0.14" d="M684.47,-74.12C694.57,-62.81 707.55,-48.28 717.86,-36.74"/>
<polygon fill="green" stroke="green" stroke-width="0.14" points="720.76,-38.74 724.81,-28.95 715.54,-34.07 720.76,-38.74"/>
</g>
<!-- 231&#45;&gt;3 -->
<g id="edge55" class="edge">
<title>231&#45;&gt;3</title>
<path fill="none" stroke="red" stroke-width="0.35" d="M687.81,-77.45C692.15,-74.37 696.79,-71.24 701.25,-68.53 726.77,-52.99 757.58,-37.84 778.4,-28.09"/>
<polygon fill="red" stroke="red" stroke-width="0.35" points="779.88,-31.26 787.49,-23.88 776.94,-24.91 779.88,-31.26"/>
</g>
<!-- 231&#45;&gt;4 -->
<g id="edge56" class="edge">
<title>231&#45;&gt;4</title>
<path fill="none" stroke="red" stroke-width="0.23" d="M686.95,-76.72C691.42,-73.61 696.33,-70.66 701.25,-68.53 778.14,-35.29 807.9,-62.15 886.25,-32.53 887.49,-32.06 888.74,-31.53 889.98,-30.97"/>
<polygon fill="red" stroke="red" stroke-width="0.23" points="891.99,-33.86 899.19,-26.09 888.71,-27.68 891.99,-33.86"/>
</g>
<!-- 231&#45;&gt;5 -->
<g id="edge57" class="edge">
<title>231&#45;&gt;5</title>
<path fill="none" stroke="green" stroke-width="0.15" d="M670.78,-68.54C671.66,-60.33 672.64,-51.1 673.53,-42.76"/>
<polygon fill="green" stroke="green" stroke-width="0.15" points="677.01,-43.12 674.59,-32.81 670.05,-42.38 677.01,-43.12"/>
</g>
<!-- 231&#45;&gt;6 -->
<g id="edge58" class="edge">
<title>231&#45;&gt;6</title>
<path fill="none" stroke="red" stroke-width="0.19" d="M686.89,-76.57C691.36,-73.47 696.28,-70.55 701.25,-68.53 799.48,-28.43 837.26,-68.02 937.25,-32.53 938.5,-32.08 939.75,-31.58 941,-31.03"/>
<polygon fill="red" stroke="red" stroke-width="0.19" points="942.99,-33.94 950.23,-26.21 939.75,-27.74 942.99,-33.94"/>
</g>
<!-- 231&#45;&gt;7 -->
<g id="edge59" class="edge">
<title>231&#45;&gt;7</title>
<path fill="none" stroke="green" stroke-width="0.47" d="M686.85,-76.47C691.32,-73.38 696.26,-70.49 701.25,-68.53 820.91,-21.53 866.54,-73.92 988.25,-32.53 989.5,-32.1 990.77,-31.61 992.02,-31.07"/>
<polygon fill="green" stroke="green" stroke-width="0.47" points="993.99,-33.99 1001.26,-26.28 990.77,-27.78 993.99,-33.99"/>
</g>
<!-- 232&#45;&gt;0 -->
<g id="edge60" class="edge">
<title>232&#45;&gt;0</title>
<path fill="none" stroke="green" stroke-width="0.15" d="M553.11,-76.73C568.3,-64.21 589.63,-46.63 605.15,-33.83"/>
<polygon fill="green" stroke="green" stroke-width="0.15" points="607.61,-36.34 613.1,-27.28 603.15,-30.94 607.61,-36.34"/>
</g>
<!-- 232&#45;&gt;1 -->
<g id="edge61" class="edge">
<title>232&#45;&gt;1</title>
<path fill="none" stroke="green" stroke-width="0.52" d="M552.87,-76.52C557.34,-73.42 562.27,-70.52 567.25,-68.53 675.56,-25.18 715.13,-64.74 827.25,-32.53 830.71,-31.53 834.28,-30.25 837.74,-28.85"/>
<polygon fill="green" stroke="green" stroke-width="0.52" points="839.3,-31.98 847.03,-24.73 836.47,-25.58 839.3,-31.98"/>
</g>
<!-- 232&#45;&gt;2 -->
<g id="edge62" class="edge">
<title>232&#45;&gt;2</title>
<path fill="none" stroke="green" stroke-width="0.28" d="M553.06,-76.97C557.53,-73.85 562.4,-70.83 567.25,-68.53 622.96,-42.09 643.16,-53.22 701.25,-32.53 704.64,-31.32 708.17,-29.91 711.61,-28.45"/>
<polygon fill="green" stroke="green" stroke-width="0.28" points="713.19,-31.58 720.9,-24.32 710.34,-25.19 713.19,-31.58"/>
</g>
<!-- 232&#45;&gt;3 -->
<g id="edge63" class="edge">
<title>232&#45;&gt;3</title>
<path fill="none" stroke="green" stroke-width="0.17" d="M552.94,-76.69C557.41,-73.59 562.32,-70.64 567.25,-68.53 647.48,-34.22 676.07,-55.51 760.25,-32.53 765.96,-30.97 771.99,-28.99 777.65,-26.97"/>
<polygon fill="green" stroke="green" stroke-width="0.17" points="779.13,-30.15 787.28,-23.38 776.69,-23.59 779.13,-30.15"/>
</g>
<!-- 232&#45;&gt;4 -->
<g id="edge64" class="edge">
<title>232&#45;&gt;4</title>
<path fill="none" stroke="red" stroke-width="0.25" d="M552.83,-76.43C557.3,-73.33 562.25,-70.46 567.25,-68.53 700.37,-17.19 750.89,-77.63 886.25,-32.53 887.51,-32.11 888.77,-31.62 890.02,-31.09"/>
<polygon fill="red" stroke="red" stroke-width="0.25" points="891.99,-34.01 899.27,-26.32 888.78,-27.79 891.99,-34.01"/>
</g>
<!-- 232&#45;&gt;5 -->
<g id="edge65" class="edge">
<title>232&#45;&gt;5</title>
<path fill="none" stroke="green" stroke-width="0.43" d="M553.33,-77.49C557.78,-74.35 562.59,-71.18 567.25,-68.53 602.21,-48.67 614.4,-50.74 650.25,-32.53 651.41,-31.94 652.58,-31.32 653.76,-30.69"/>
<polygon fill="green" stroke="green" stroke-width="0.43" points="655.68,-33.63 662.66,-25.66 652.23,-27.53 655.68,-33.63"/>
</g>
<!-- 232&#45;&gt;6 -->
<g id="edge66" class="edge">
<title>232&#45;&gt;6</title>
<path fill="none" stroke="red" stroke-width="0.39" d="M552.81,-76.37C557.28,-73.28 562.23,-70.42 567.25,-68.53 721.86,-10.26 780.1,-83.55 937.25,-32.53 938.51,-32.12 939.78,-31.64 941.03,-31.11"/>
<polygon fill="red" stroke="red" stroke-width="0.39" points="942.99,-34.04 950.28,-26.36 939.79,-27.82 942.99,-34.04"/>
</g>
<!-- 232&#45;&gt;7 -->
<g id="edge67" class="edge">
<title>232&#45;&gt;7</title>
<path fill="none" stroke="red" stroke-width="0.2" d="M552.79,-76.33C557.27,-73.24 562.22,-70.39 567.25,-68.53 743.36,-3.33 809.3,-89.47 988.25,-32.53 989.51,-32.13 990.78,-31.65 992.04,-31.13"/>
<polygon fill="red" stroke="red" stroke-width="0.2" points="993.99,-34.06 1001.29,-26.39 990.8,-27.83 993.99,-34.06"/>
</g>
<!-- 233&#45;&gt;0 -->
<g id="edge68" class="edge">
<title>233&#45;&gt;0</title>
<path fill="none" stroke="green" stroke-width="0.79" d="M715.44,-77.84C711.11,-74.74 706.54,-71.5 702.25,-68.53 683.71,-55.69 662.34,-41.51 646.82,-31.32"/>
<polygon fill="green" stroke="green" stroke-width="0.79" points="648.71,-28.38 638.43,-25.83 644.88,-34.23 648.71,-28.38"/>
</g>
<!-- 233&#45;&gt;1 -->
<g id="edge69" class="edge">
<title>233&#45;&gt;1</title>
<path fill="none" stroke="red" stroke-width="0.43" d="M754.88,-77.57C759.22,-74.48 763.84,-71.32 768.25,-68.53 791.34,-53.93 818.86,-39.06 837.94,-29.12"/>
<polygon fill="red" stroke="red" stroke-width="0.43" points="839.8,-32.09 847.08,-24.4 836.59,-25.87 839.8,-32.09"/>
</g>
<!-- 233&#45;&gt;2 -->
<g id="edge70" class="edge">
<title>233&#45;&gt;2</title>
<path fill="none" stroke="red" stroke-width="0.33" stroke-dasharray="1,5" d="M735.25,-68.13C735.25,-60.03 735.25,-50.97 735.25,-42.77"/>
<polygon fill="red" stroke="red" stroke-width="0.33" points="738.75,-42.64 735.25,-32.64 731.75,-42.64 738.75,-42.64"/>
</g>
<!-- 233&#45;&gt;3 -->
<g id="edge71" class="edge">
<title>233&#45;&gt;3</title>
<path fill="none" stroke="red" stroke-width="0.47" d="M751.47,-74.12C761.57,-62.81 774.55,-48.28 784.86,-36.74"/>
<polygon fill="red" stroke="red" stroke-width="0.47" points="787.76,-38.74 791.81,-28.95 782.54,-34.07 787.76,-38.74"/>
</g>
<!-- 233&#45;&gt;4 -->
<g id="edge72" class="edge">
<title>233&#45;&gt;4</title>
<path fill="none" stroke="red" stroke-width="0.33" d="M754.12,-77.1C758.58,-73.97 763.44,-70.91 768.25,-68.53 817.38,-44.19 836.04,-54.56 886.25,-32.53 887.46,-31.99 888.69,-31.42 889.92,-30.81"/>
<polygon fill="red" stroke="red" stroke-width="0.33" points="891.98,-33.67 899.07,-25.81 888.62,-27.53 891.98,-33.67"/>
</g>
<!-- 233&#45;&gt;5 -->
<g id="edge73" class="edge">
<title>233&#45;&gt;5</title>
<path fill="none" stroke="red" stroke-width="0.2" d="M720.36,-73.35C711.77,-62.42 700.96,-48.67 692.19,-37.53"/>
<polygon fill="red" stroke="red" stroke-width="0.2" points="694.89,-35.29 685.95,-29.6 689.38,-39.62 694.89,-35.29"/>
</g>
<!-- 233&#45;&gt;6 -->
<g id="edge74" class="edge">
<title>233&#45;&gt;6</title>
<path fill="none" stroke="red" stroke-width="0.4" d="M753.98,-76.78C758.44,-73.67 763.35,-70.7 768.25,-68.53 838.47,-37.43 865.66,-60.32 937.25,-32.53 938.49,-32.05 939.73,-31.51 940.97,-30.94"/>
<polygon fill="red" stroke="red" stroke-width="0.4" points="942.99,-33.83 950.17,-26.04 939.7,-27.65 942.99,-33.83"/>
</g>
<!-- 233&#45;&gt;7 -->
<g id="edge75" class="edge">
<title>233&#45;&gt;7</title>
<path fill="none" stroke="green" stroke-width="0.18" d="M753.9,-76.61C758.37,-73.51 763.29,-70.58 768.25,-68.53 859.78,-30.58 895.06,-66.18 988.25,-32.53 989.5,-32.08 990.75,-31.57 992,-31.01"/>
<polygon fill="green" stroke="green" stroke-width="0.18" points="993.99,-33.92 1001.22,-26.18 990.74,-27.72 993.99,-33.92"/>
</g>
<!-- 234&#45;&gt;0 -->
<g id="edge76" class="edge">
<title>234&#45;&gt;0</title>
<path fill="none" stroke="red" stroke-width="0.36" d="M783.38,-77.1C778.92,-73.97 774.06,-70.91 769.25,-68.53 720.12,-44.19 701.46,-54.56 651.25,-32.53 650.04,-31.99 648.81,-31.42 647.58,-30.81"/>
<polygon fill="red" stroke="red" stroke-width="0.36" points="648.88,-27.53 638.43,-25.81 645.52,-33.67 648.88,-27.53"/>
</g>
<!-- 234&#45;&gt;1 -->
<g id="edge77" class="edge">
<title>234&#45;&gt;1</title>
<path fill="none" stroke="green" stroke-width="0.1" d="M817.14,-73.35C825.73,-62.42 836.55,-48.67 845.31,-37.53"/>
<polygon fill="green" stroke="green" stroke-width="0.1" points="848.12,-39.62 851.55,-29.6 842.62,-35.29 848.12,-39.62"/>
</g>
<!-- 234&#45;&gt;2 -->
<g id="edge78" class="edge">
<title>234&#45;&gt;2</title>
<path fill="none" stroke="red" stroke-width="0.21" d="M786.03,-74.12C775.93,-62.81 762.95,-48.28 752.64,-36.74"/>
<polygon fill="red" stroke="red" stroke-width="0.21" points="754.96,-34.07 745.69,-28.95 749.74,-38.74 754.96,-34.07"/>
</g>
<!-- 234&#45;&gt;3 -->
<g id="edge79" class="edge">
<title>234&#45;&gt;3</title>
<path fill="none" stroke="green" stroke-width="0.3" d="M802.25,-68.13C802.25,-60.03 802.25,-50.97 802.25,-42.77"/>
<polygon fill="green" stroke="green" stroke-width="0.3" points="805.75,-42.64 802.25,-32.64 798.75,-42.64 805.75,-42.64"/>
</g>
<!-- 234&#45;&gt;4 -->
<g id="edge80" class="edge">
<title>234&#45;&gt;4</title>
<path fill="none" stroke="red" stroke-width="0.35" d="M822.06,-77.84C826.39,-74.74 830.96,-71.5 835.25,-68.53 853.79,-55.69 875.16,-41.51 890.68,-31.32"/>
<polygon fill="red" stroke="red" stroke-width="0.35" points="892.62,-34.23 899.07,-25.83 888.79,-28.38 892.62,-34.23"/>
</g>
<!-- 234&#45;&gt;5 -->
<g id="edge81" class="edge">
<title>234&#45;&gt;5</title>
<path fill="none" stroke="red" stroke-width="0.33" d="M782.62,-77.57C778.29,-74.48 773.67,-71.32 769.25,-68.53 746.16,-53.93 718.64,-39.06 699.56,-29.12"/>
<polygon fill="red" stroke="red" stroke-width="0.33" points="700.91,-25.87 690.42,-24.4 697.7,-32.09 700.91,-25.87"/>
</g>
<!-- 234&#45;&gt;6 -->
<g id="edge82" class="edge">
<title>234&#45;&gt;6</title>
<path fill="none" stroke="red" stroke-width="0.18" d="M821.2,-77.25C825.66,-74.11 830.5,-71.01 835.25,-68.53 877.86,-46.26 893.65,-52.79 937.25,-32.53 938.43,-31.98 939.62,-31.4 940.81,-30.79"/>
<polygon fill="red" stroke="red" stroke-width="0.18" points="942.69,-33.75 949.75,-25.85 939.31,-27.62 942.69,-33.75"/>
</g>
<!-- 234&#45;&gt;7 -->
<g id="edge83" class="edge">
<title>234&#45;&gt;7</title>
<path fill="none" stroke="green" stroke-width="0.18" d="M821.01,-76.86C825.48,-73.75 830.37,-70.75 835.25,-68.53 898.82,-39.57 923.4,-58.5 988.25,-32.53 989.48,-32.03 990.72,-31.49 991.96,-30.91"/>
<polygon fill="green" stroke="green" stroke-width="0.18" points="993.99,-33.79 1001.15,-25.98 990.68,-27.62 993.99,-33.79"/>
</g>
<!-- 235&#45;&gt;0 -->
<g id="edge84" class="edge">
<title>235&#45;&gt;0</title>
<path fill="none" stroke="red" stroke-width="0.17" d="M850.55,-76.72C846.08,-73.61 841.17,-70.66 836.25,-68.53 759.36,-35.29 729.6,-62.15 651.25,-32.53 650.01,-32.06 648.76,-31.53 647.52,-30.97"/>
<polygon fill="red" stroke="red" stroke-width="0.17" points="648.79,-27.68 638.31,-26.09 645.51,-33.86 648.79,-27.68"/>
</g>
<!-- 235&#45;&gt;1 -->
<g id="edge85" class="edge">
<title>235&#45;&gt;1</title>
<path fill="none" stroke="green" stroke-width="0.17" d="M866.72,-68.54C865.84,-60.33 864.86,-51.1 863.97,-42.76"/>
<polygon fill="green" stroke="green" stroke-width="0.17" points="867.45,-42.38 862.91,-32.81 860.49,-43.12 867.45,-42.38"/>
</g>
<!-- 235&#45;&gt;2 -->
<g id="edge86" class="edge">
<title>235&#45;&gt;2</title>
<path fill="none" stroke="green" stroke-width="0.51" d="M849.69,-77.45C845.35,-74.37 840.71,-71.24 836.25,-68.53 810.73,-52.99 779.92,-37.84 759.1,-28.09"/>
<polygon fill="green" stroke="green" stroke-width="0.51" points="760.56,-24.91 750.01,-23.88 757.62,-31.26 760.56,-24.91"/>
</g>
<!-- 235&#45;&gt;3 -->
<g id="edge87" class="edge">
<title>235&#45;&gt;3</title>
<path fill="none" stroke="green" stroke-width="0.64" d="M853.03,-74.12C842.93,-62.81 829.95,-48.28 819.64,-36.74"/>
<polygon fill="green" stroke="green" stroke-width="0.64" points="821.96,-34.07 812.69,-28.95 816.74,-38.74 821.96,-34.07"/>
</g>
<!-- 235&#45;&gt;4 -->
<g id="edge88" class="edge">
<title>235&#45;&gt;4</title>
<path fill="none" stroke="green" stroke-width="0.41" d="M881.23,-71.38C886.88,-61.53 893.63,-49.75 899.38,-39.71"/>
<polygon fill="green" stroke="green" stroke-width="0.41" points="902.6,-41.14 904.53,-30.73 896.52,-37.66 902.6,-41.14"/>
</g>
<!-- 235&#45;&gt;5 -->
<g id="edge89" class="edge">
<title>235&#45;&gt;5</title>
<path fill="none" stroke="red" stroke-width="0.83" d="M850.41,-77.03C845.95,-73.91 841.08,-70.87 836.25,-68.53 783.83,-43.14 764.96,-52.5 710.25,-32.53 706.87,-31.29 703.34,-29.87 699.91,-28.4"/>
<polygon fill="red" stroke="red" stroke-width="0.83" points="701.18,-25.14 690.62,-24.27 698.33,-31.53 701.18,-25.14"/>
</g>
<!-- 235&#45;&gt;6 -->
<g id="edge90" class="edge">
<title>235&#45;&gt;6</title>
<path fill="none" stroke="red" stroke-width="0.24" d="M888.27,-77.1C904.17,-64.41 926.78,-46.36 943.01,-33.41"/>
<polygon fill="red" stroke="red" stroke-width="0.24" points="945.21,-36.13 950.85,-27.16 940.85,-30.66 945.21,-36.13"/>
</g>
<!-- 235&#45;&gt;7 -->
<g id="edge91" class="edge">
<title>235&#45;&gt;7</title>
<path fill="none" stroke="red" stroke-width="0.35" d="M888.31,-77.45C892.76,-74.3 897.57,-71.15 902.25,-68.53 938.41,-48.29 951.19,-51.06 988.25,-32.53 989.41,-31.95 990.59,-31.34 991.77,-30.71"/>
<polygon fill="red" stroke="red" stroke-width="0.35" points="993.68,-33.65 1000.68,-25.69 990.25,-27.55 993.68,-33.65"/>
</g>
<!-- 236&#45;&gt;0 -->
<g id="edge92" class="edge">
<title>236&#45;&gt;0</title>
<path fill="none" stroke="green" stroke-width="0.29" d="M608.58,-69.36C611.36,-60.69 614.52,-50.79 617.35,-41.96"/>
<polygon fill="green" stroke="green" stroke-width="0.29" points="620.75,-42.82 620.46,-32.23 614.08,-40.69 620.75,-42.82"/>
</g>
<!-- 236&#45;&gt;1 -->
<g id="edge93" class="edge">
<title>236&#45;&gt;1</title>
<path fill="none" stroke="red" stroke-width="0.16" d="M619.94,-76.69C624.41,-73.59 629.32,-70.64 634.25,-68.53 714.48,-34.22 743.97,-58.58 827.25,-32.53 830.69,-31.45 834.24,-30.12 837.69,-28.7"/>
<polygon fill="red" stroke="red" stroke-width="0.16" points="839.26,-31.83 846.99,-24.58 836.43,-25.43 839.26,-31.83"/>
</g>
<!-- 236&#45;&gt;2 -->
<g id="edge94" class="edge">
<title>236&#45;&gt;2</title>
<path fill="none" stroke="red" stroke-width="0.24" d="M620.81,-77.45C625.15,-74.37 629.79,-71.24 634.25,-68.53 659.77,-52.99 690.58,-37.84 711.4,-28.09"/>
<polygon fill="red" stroke="red" stroke-width="0.24" points="712.88,-31.26 720.49,-23.88 709.94,-24.91 712.88,-31.26"/>
</g>
<!-- 236&#45;&gt;3 -->
<g id="edge95" class="edge">
<title>236&#45;&gt;3</title>
<path fill="none" stroke="red" stroke-width="0.16" d="M620.09,-77.03C624.55,-73.91 629.42,-70.87 634.25,-68.53 686.67,-43.14 704.85,-50.48 760.25,-32.53 765.88,-30.7 771.88,-28.61 777.53,-26.57"/>
<polygon fill="red" stroke="red" stroke-width="0.16" points="778.99,-29.76 787.18,-23.03 776.58,-23.19 778.99,-29.76"/>
</g>
<!-- 236&#45;&gt;4 -->
<g id="edge96" class="edge">
<title>236&#45;&gt;4</title>
<path fill="none" stroke="red" stroke-width="0.4" d="M619.87,-76.54C624.34,-73.44 629.27,-70.53 634.25,-68.53 739.2,-26.26 779.45,-69.87 886.25,-32.53 887.5,-32.09 888.76,-31.59 890.01,-31.04"/>
<polygon fill="red" stroke="red" stroke-width="0.4" points="891.99,-33.96 899.24,-26.23 888.76,-27.75 891.99,-33.96"/>
</g>
<!-- 236&#45;&gt;5 -->
<g id="edge97" class="edge">
<title>236&#45;&gt;5</title>
<path fill="none" stroke="red" stroke-width="0.4" d="M618.27,-75.25C630.04,-63.48 645.69,-47.83 657.77,-35.75"/>
<polygon fill="red" stroke="red" stroke-width="0.4" points="660.52,-37.95 665.11,-28.4 655.57,-33 660.52,-37.95"/>
</g>
<!-- 236&#45;&gt;6 -->
<g id="edge98" class="edge">
<title>236&#45;&gt;6</title>
<path fill="none" stroke="green" stroke-width="0.28" d="M619.84,-76.45C624.31,-73.36 629.25,-70.47 634.25,-68.53 760.64,-19.36 808.72,-75.77 937.25,-32.53 938.51,-32.1 939.77,-31.62 941.02,-31.08"/>
<polygon fill="green" stroke="green" stroke-width="0.28" points="942.99,-34 950.26,-26.3 939.77,-27.78 942.99,-34"/>
</g>
<!-- 236&#45;&gt;7 -->
<g id="edge99" class="edge">
<title>236&#45;&gt;7</title>
<path fill="none" stroke="green" stroke-width="0.32" d="M619.81,-76.39C624.29,-73.3 629.23,-70.43 634.25,-68.53 782.11,-12.44 837.94,-81.69 988.25,-32.53 989.51,-32.12 990.77,-31.64 992.03,-31.11"/>
<polygon fill="green" stroke="green" stroke-width="0.32" points="993.99,-34.03 1001.28,-26.35 990.79,-27.81 993.99,-34.03"/>
</g>
<!-- 237&#45;&gt;0 -->
<g id="edge100" class="edge">
<title>237&#45;&gt;0</title>
<path fill="none" stroke="red" stroke-width="0.24" d="M917.63,-76.54C913.16,-73.44 908.23,-70.53 903.25,-68.53 798.3,-26.26 758.05,-69.87 651.25,-32.53 650,-32.09 648.74,-31.59 647.49,-31.04"/>
<polygon fill="red" stroke="red" stroke-width="0.24" points="648.75,-27.75 638.26,-26.23 645.51,-33.96 648.75,-27.75"/>
</g>
<!-- 237&#45;&gt;1 -->
<g id="edge101" class="edge">
<title>237&#45;&gt;1</title>
<path fill="none" stroke="green" stroke-width="0.71" d="M919.23,-75.25C907.46,-63.48 891.81,-47.83 879.73,-35.75"/>
<polygon fill="green" stroke="green" stroke-width="0.71" points="881.94,-33 872.39,-28.4 876.99,-37.95 881.94,-33"/>
</g>
<!-- 237&#45;&gt;2 -->
<g id="edge102" class="edge">
<title>237&#45;&gt;2</title>
<path fill="none" stroke="green" stroke-width="0.32" d="M917.41,-77.03C912.95,-73.91 908.08,-70.87 903.25,-68.53 850.83,-43.14 832.65,-50.48 777.25,-32.53 771.62,-30.7 765.62,-28.61 759.97,-26.57"/>
<polygon fill="green" stroke="green" stroke-width="0.32" points="760.92,-23.19 750.33,-23.03 758.51,-29.76 760.92,-23.19"/>
</g>
<!-- 237&#45;&gt;3 -->
<g id="edge103" class="edge">
<title>237&#45;&gt;3</title>
<path fill="none" stroke="red" stroke-width="0.47" d="M916.69,-77.45C912.35,-74.37 907.71,-71.24 903.25,-68.53 877.73,-52.99 846.92,-37.84 826.1,-28.09"/>
<polygon fill="red" stroke="red" stroke-width="0.47" points="827.56,-24.91 817.01,-23.88 824.62,-31.26 827.56,-24.91"/>
</g>
<!-- 237&#45;&gt;4 -->
<g id="edge104" class="edge">
<title>237&#45;&gt;4</title>
<path fill="none" stroke="green" stroke-width="0.7" d="M928.92,-69.36C926.14,-60.69 922.98,-50.79 920.15,-41.96"/>
<polygon fill="green" stroke="green" stroke-width="0.7" points="923.42,-40.69 917.04,-32.23 916.75,-42.82 923.42,-40.69"/>
</g>
<!-- 237&#45;&gt;5 -->
<g id="edge105" class="edge">
<title>237&#45;&gt;5</title>
<path fill="none" stroke="green" stroke-width="0.52" d="M917.56,-76.69C913.1,-73.59 908.18,-70.64 903.25,-68.53 823.02,-34.22 793.53,-58.58 710.25,-32.53 706.81,-31.45 703.26,-30.12 699.81,-28.7"/>
<polygon fill="green" stroke="green" stroke-width="0.52" points="701.08,-25.43 690.52,-24.58 698.24,-31.83 701.08,-25.43"/>
</g>
<!-- 237&#45;&gt;6 -->
<g id="edge106" class="edge">
<title>237&#45;&gt;6</title>
<path fill="none" stroke="red" stroke-width="0.29" d="M944.35,-69.77C947.56,-60.86 951.25,-50.61 954.51,-41.54"/>
<polygon fill="red" stroke="red" stroke-width="0.29" points="957.88,-42.53 957.97,-31.94 951.29,-40.16 957.88,-42.53"/>
</g>
<!-- 237&#45;&gt;7 -->
<g id="edge107" class="edge">
<title>237&#45;&gt;7</title>
<path fill="none" stroke="red" stroke-width="0.4" d="M953.95,-75.25C966.31,-63.37 982.78,-47.53 995.39,-35.4"/>
<polygon fill="red" stroke="red" stroke-width="0.4" points="997.88,-37.86 1002.67,-28.4 993.03,-32.81 997.88,-37.86"/>
</g>
</g>
</svg>
