<?xml version="1.0" encoding="UTF-8" standalone="no"?>
<!DOCTYPE svg PUBLIC "-//W3C//DTD SVG 1.1//EN"
 "http://www.w3.org/Graphics/SVG/1.1/DTD/svg11.dtd">
<!-- Generated by graphviz version 2.44.0 (0)
 -->
<!-- Pages: 1 -->
<svg width="1776pt" height="180pt"
 viewBox="0.00 0.00 1775.57 180.02" xmlns="http://www.w3.org/2000/svg" xmlns:xlink="http://www.w3.org/1999/xlink">
<g id="graph0" class="graph" transform="scale(1 1) rotate(0) translate(4 176.02)">
<polygon fill="white" stroke="transparent" points="-4,4 -4,-176.02 1771.57,-176.02 1771.57,4 -4,4"/>
<!-- &#45;1 -->
<g id="node1" class="node">
<title>&#45;1</title>
<polygon fill="lightgray" stroke="black" points="797.29,-172.02 771.29,-172.02 771.29,-154.02 797.29,-154.02 797.29,-172.02"/>
<text text-anchor="middle" x="784.29" y="-160.82" font-family="Times-Roman" font-size="9.00">&#45;1</text>
</g>
<!-- 0 -->
<g id="node5" class="node">
<title>0</title>
<ellipse fill="lightblue" stroke="black" cx="981.29" cy="-16.26" rx="16.03" ry="16.03"/>
<text text-anchor="middle" x="981.29" y="-14.06" font-family="Times-Roman" font-size="9.00">0</text>
</g>
<!-- &#45;1&#45;&gt;0 -->
<g id="edge121" class="edge">
<title>&#45;1&#45;&gt;0</title>
<path fill="none" stroke="green" stroke-width="0.5" d="M771.02,-162.53C742.25,-162.81 674.29,-158.9 644.29,-118.02 631.28,-100.29 629.66,-84.95 644.29,-68.53 690.57,-16.58 889.32,-54.61 955.29,-32.53 956.55,-32.11 957.81,-31.62 959.07,-31.08"/>
<polygon fill="green" stroke="green" stroke-width="0.5" points="961.03,-34.01 968.31,-26.31 957.82,-27.79 961.03,-34.01"/>
</g>
<!-- 1 -->
<g id="node6" class="node">
<title>1</title>
<ellipse fill="lightblue" stroke="black" cx="777.29" cy="-16.26" rx="16.03" ry="16.03"/>
<text text-anchor="middle" x="777.29" y="-14.06" font-family="Times-Roman" font-size="9.00">1</text>
</g>
<!-- &#45;1&#45;&gt;1 -->
<g id="edge122" class="edge">
<title>&#45;1&#45;&gt;1</title>
<path fill="none" stroke="red" stroke-width="0.36" d="M771.19,-161.7C677.43,-159.33 111.65,-143.96 87.29,-118.02 72.24,-101.99 72.16,-84.5 87.29,-68.53 138.1,-14.89 680.55,-53.83 751.29,-32.53 752.56,-32.14 753.83,-31.69 755.1,-31.18"/>
<polygon fill="red" stroke="red" stroke-width="0.36" points="757.03,-34.12 764.36,-26.48 753.86,-27.88 757.03,-34.12"/>
</g>
<!-- 2 -->
<g id="node7" class="node">
<title>2</title>
<ellipse fill="lightblue" stroke="black" cx="1083.29" cy="-16.26" rx="16.03" ry="16.03"/>
<text text-anchor="middle" x="1083.29" y="-14.06" font-family="Times-Roman" font-size="9.00">2</text>
</g>
<!-- &#45;1&#45;&gt;2 -->
<g id="edge123" class="edge">
<title>&#45;1&#45;&gt;2</title>
<path fill="none" stroke="green" stroke-width="0.12" d="M797.36,-158.35C803.39,-156.79 810.66,-155.09 817.29,-154.02 866.82,-146.09 1233.27,-154.88 1267.29,-118.02 1282.22,-101.86 1280.6,-86.05 1267.29,-68.53 1248.21,-43.41 1155.87,-27.31 1109.7,-20.7"/>
<polygon fill="green" stroke="green" stroke-width="0.12" points="1109.93,-17.2 1099.54,-19.29 1108.97,-24.13 1109.93,-17.2"/>
</g>
<!-- 3 -->
<g id="node8" class="node">
<title>3</title>
<ellipse fill="lightblue" stroke="black" cx="828.29" cy="-16.26" rx="16.03" ry="16.03"/>
<text text-anchor="middle" x="828.29" y="-14.06" font-family="Times-Roman" font-size="9.00">3</text>
</g>
<!-- &#45;1&#45;&gt;3 -->
<g id="edge124" class="edge">
<title>&#45;1&#45;&gt;3</title>
<path fill="none" stroke="red" stroke-width="0.75" d="M770.99,-161.75C700.03,-160.15 368.14,-150.96 338.29,-118.02 323.52,-101.72 323.35,-84.67 338.29,-68.53 373.42,-30.57 752.96,-48.01 802.29,-32.53 803.56,-32.13 804.83,-31.66 806.09,-31.14"/>
<polygon fill="red" stroke="red" stroke-width="0.75" points="808.03,-34.08 815.34,-26.41 804.85,-27.84 808.03,-34.08"/>
</g>
<!-- 4 -->
<g id="node9" class="node">
<title>4</title>
<ellipse fill="lightblue" stroke="black" cx="879.29" cy="-16.26" rx="16.03" ry="16.03"/>
<text text-anchor="middle" x="879.29" y="-14.06" font-family="Times-Roman" font-size="9.00">4</text>
</g>
<!-- &#45;1&#45;&gt;4 -->
<g id="edge125" class="edge">
<title>&#45;1&#45;&gt;4</title>
<path fill="none" stroke="red" stroke-width="0.52" d="M771.03,-161.28C711.85,-157.83 473.75,-142.51 452.29,-118.02 437.8,-101.48 437.45,-84.76 452.29,-68.53 512.66,-2.49 768.09,-59.84 853.29,-32.53 854.56,-32.12 855.82,-31.65 857.08,-31.12"/>
<polygon fill="red" stroke="red" stroke-width="0.52" points="859.03,-34.06 866.33,-26.38 855.84,-27.83 859.03,-34.06"/>
</g>
<!-- 5 -->
<g id="node10" class="node">
<title>5</title>
<ellipse fill="lightblue" stroke="black" cx="726.29" cy="-16.26" rx="16.03" ry="16.03"/>
<text text-anchor="middle" x="726.29" y="-14.06" font-family="Times-Roman" font-size="9.00">5</text>
</g>
<!-- &#45;1&#45;&gt;5 -->
<g id="edge126" class="edge">
<title>&#45;1&#45;&gt;5</title>
<path fill="none" stroke="red" stroke-width="0.14" d="M771.06,-161.78C671.14,-159.89 38.5,-146.82 11.29,-118.02 -3.81,-102.03 -3.7,-84.63 11.29,-68.53 59.03,-17.24 576.1,-16.52 699.81,-17.08"/>
<polygon fill="red" stroke="red" stroke-width="0.14" points="699.9,-20.58 709.92,-17.14 699.93,-13.58 699.9,-20.58"/>
</g>
<!-- 6 -->
<g id="node11" class="node">
<title>6</title>
<ellipse fill="lightblue" stroke="black" cx="1032.29" cy="-16.26" rx="16.03" ry="16.03"/>
<text text-anchor="middle" x="1032.29" y="-14.06" font-family="Times-Roman" font-size="9.00">6</text>
</g>
<!-- &#45;1&#45;&gt;6 -->
<g id="edge127" class="edge">
<title>&#45;1&#45;&gt;6</title>
<path fill="none" stroke="green" stroke-width="0.36" d="M797.37,-158.36C803.39,-156.8 810.66,-155.1 817.29,-154.02 864.73,-146.34 1215.76,-153.39 1248.29,-118.02 1263.19,-101.83 1262.33,-85.47 1248.29,-68.53 1193.47,-2.34 1138.76,-62.73 1058.29,-32.53 1057.05,-32.06 1055.8,-31.54 1054.56,-30.97"/>
<polygon fill="green" stroke="green" stroke-width="0.36" points="1055.83,-27.69 1045.35,-26.11 1052.55,-33.87 1055.83,-27.69"/>
</g>
<!-- 7 -->
<g id="node12" class="node">
<title>7</title>
<ellipse fill="lightblue" stroke="black" cx="930.29" cy="-16.26" rx="16.03" ry="16.03"/>
<text text-anchor="middle" x="930.29" y="-14.06" font-family="Times-Roman" font-size="9.00">7</text>
</g>
<!-- &#45;1&#45;&gt;7 -->
<g id="edge128" class="edge">
<title>&#45;1&#45;&gt;7</title>
<path fill="none" stroke="red" stroke-width="0.4" d="M771.27,-161.93C723.16,-161.27 556.57,-156.23 524.29,-118.02 510.09,-101.22 509.49,-84.8 524.29,-68.53 581.37,-5.78 823.58,-58.62 904.29,-32.53 905.55,-32.12 906.82,-31.64 908.08,-31.12"/>
<polygon fill="red" stroke="red" stroke-width="0.4" points="910.03,-34.05 917.33,-26.37 906.83,-27.82 910.03,-34.05"/>
</g>
<!-- 388 -->
<g id="node13" class="node">
<title>388</title>
<ellipse fill="white" stroke="black" cx="1080.29" cy="-93.28" rx="25" ry="25"/>
<text text-anchor="middle" x="1080.29" y="-91.08" font-family="Times-Roman" font-size="9.00">388</text>
</g>
<!-- &#45;1&#45;&gt;388 -->
<g id="edge1" class="edge">
<title>&#45;1&#45;&gt;388</title>
<path fill="none" stroke="red" stroke-width="0.38" d="M797.41,-158.58C803.44,-157.07 810.7,-155.34 817.29,-154.02 918.77,-133.82 951.58,-157.32 1047.29,-118.02 1049.15,-117.26 1051.01,-116.37 1052.84,-115.4"/>
<polygon fill="red" stroke="red" stroke-width="0.38" points="1054.97,-118.19 1061.65,-109.97 1051.3,-112.23 1054.97,-118.19"/>
</g>
<!-- 389 -->
<g id="node14" class="node">
<title>389</title>
<ellipse fill="white" stroke="black" cx="1147.29" cy="-93.28" rx="25" ry="25"/>
<text text-anchor="middle" x="1147.29" y="-91.08" font-family="Times-Roman" font-size="9.00">389</text>
</g>
<!-- &#45;1&#45;&gt;389 -->
<g id="edge2" class="edge">
<title>&#45;1&#45;&gt;389</title>
<path fill="none" stroke="red" stroke-width="0.24" d="M797.39,-158.48C803.41,-156.94 810.68,-155.22 817.29,-154.02 948.13,-130.32 990.43,-166.38 1114.29,-118.02 1116.17,-117.29 1118.03,-116.43 1119.87,-115.47"/>
<polygon fill="red" stroke="red" stroke-width="0.24" points="1121.98,-118.28 1128.7,-110.09 1118.34,-112.31 1121.98,-118.28"/>
</g>
<!-- 390 -->
<g id="node15" class="node">
<title>390</title>
<ellipse fill="white" stroke="black" cx="1214.29" cy="-93.28" rx="25" ry="25"/>
<text text-anchor="middle" x="1214.29" y="-91.08" font-family="Times-Roman" font-size="9.00">390</text>
</g>
<!-- &#45;1&#45;&gt;390 -->
<g id="edge3" class="edge">
<title>&#45;1&#45;&gt;390</title>
<path fill="none" stroke="red" stroke-width="0.15" stroke-dasharray="1,5" d="M797.37,-158.41C803.4,-156.86 810.67,-155.15 817.29,-154.02 977.57,-126.81 1029.22,-175.47 1181.29,-118.02 1183.18,-117.31 1185.05,-116.47 1186.89,-115.52"/>
<polygon fill="red" stroke="red" stroke-width="0.15" points="1188.99,-118.34 1195.73,-110.18 1185.37,-112.35 1188.99,-118.34"/>
</g>
<!-- 391 -->
<g id="node16" class="node">
<title>391</title>
<ellipse fill="white" stroke="black" cx="572.29" cy="-93.28" rx="25" ry="25"/>
<text text-anchor="middle" x="572.29" y="-91.08" font-family="Times-Roman" font-size="9.00">391</text>
</g>
<!-- &#45;1&#45;&gt;391 -->
<g id="edge4" class="edge">
<title>&#45;1&#45;&gt;391</title>
<path fill="none" stroke="red" stroke-width="0.37" d="M771.28,-160.08C741.88,-155.39 668.43,-142.05 611.29,-118.02 607.88,-116.59 604.41,-114.88 601.02,-113.06"/>
<polygon fill="red" stroke="red" stroke-width="0.37" points="602.74,-110.01 592.33,-108.04 599.24,-116.07 602.74,-110.01"/>
</g>
<!-- 392 -->
<g id="node17" class="node">
<title>392</title>
<ellipse fill="white" stroke="black" cx="678.29" cy="-93.28" rx="25" ry="25"/>
<text text-anchor="middle" x="678.29" y="-91.08" font-family="Times-Roman" font-size="9.00">392</text>
</g>
<!-- &#45;1&#45;&gt;392 -->
<g id="edge5" class="edge">
<title>&#45;1&#45;&gt;392</title>
<path fill="none" stroke="green" stroke-width="0.16" d="M771.17,-154.55C756.41,-146.04 731.8,-131.55 711.29,-118.02 709.66,-116.95 707.99,-115.82 706.31,-114.68"/>
<polygon fill="green" stroke="green" stroke-width="0.16" points="708.2,-111.73 698,-108.86 704.19,-117.46 708.2,-111.73"/>
</g>
<!-- 393 -->
<g id="node18" class="node">
<title>393</title>
<ellipse fill="white" stroke="black" cx="745.29" cy="-93.28" rx="25" ry="25"/>
<text text-anchor="middle" x="745.29" y="-91.08" font-family="Times-Roman" font-size="9.00">393</text>
</g>
<!-- &#45;1&#45;&gt;393 -->
<g id="edge6" class="edge">
<title>&#45;1&#45;&gt;393</title>
<path fill="none" stroke="red" stroke-width="0.28" d="M779.67,-153.99C775.38,-146.54 768.73,-134.99 762.42,-124.02"/>
<polygon fill="red" stroke="red" stroke-width="0.28" points="765.28,-121.97 757.25,-115.05 759.21,-125.46 765.28,-121.97"/>
</g>
<!-- 394 -->
<g id="node19" class="node">
<title>394</title>
<ellipse fill="white" stroke="black" cx="812.29" cy="-93.28" rx="25" ry="25"/>
<text text-anchor="middle" x="812.29" y="-91.08" font-family="Times-Roman" font-size="9.00">394</text>
</g>
<!-- &#45;1&#45;&gt;394 -->
<g id="edge7" class="edge">
<title>&#45;1&#45;&gt;394</title>
<path fill="none" stroke="green" stroke-width="0.31" d="M787.62,-153.99C790.52,-146.96 794.94,-136.27 799.24,-125.87"/>
<polygon fill="green" stroke="green" stroke-width="0.31" points="802.52,-127.09 803.1,-116.51 796.05,-124.42 802.52,-127.09"/>
</g>
<!-- 395 -->
<g id="node20" class="node">
<title>395</title>
<ellipse fill="white" stroke="black" cx="879.29" cy="-93.28" rx="25" ry="25"/>
<text text-anchor="middle" x="879.29" y="-91.08" font-family="Times-Roman" font-size="9.00">395</text>
</g>
<!-- &#45;1&#45;&gt;395 -->
<g id="edge8" class="edge">
<title>&#45;1&#45;&gt;395</title>
<path fill="none" stroke="green" stroke-width="0.26" d="M795.74,-153.94C808.19,-145.13 828.68,-130.61 846.29,-118.02 847.89,-116.89 849.52,-115.71 851.17,-114.53"/>
<polygon fill="green" stroke="green" stroke-width="0.26" points="853.33,-117.29 859.42,-108.61 849.25,-111.6 853.33,-117.29"/>
</g>
<!-- 396 -->
<g id="node21" class="node">
<title>396</title>
<ellipse fill="white" stroke="black" cx="946.29" cy="-93.28" rx="25" ry="25"/>
<text text-anchor="middle" x="946.29" y="-91.08" font-family="Times-Roman" font-size="9.00">396</text>
</g>
<!-- &#45;1&#45;&gt;396 -->
<g id="edge9" class="edge">
<title>&#45;1&#45;&gt;396</title>
<path fill="none" stroke="green" stroke-width="0.53" d="M797.63,-158.87C821.63,-152.89 873.34,-138.64 913.29,-118.02 915.08,-117.1 916.88,-116.09 918.67,-115.02"/>
<polygon fill="green" stroke="green" stroke-width="0.53" points="920.9,-117.74 927.36,-109.34 917.08,-111.88 920.9,-117.74"/>
</g>
<!-- 397 -->
<g id="node22" class="node">
<title>397</title>
<ellipse fill="white" stroke="black" cx="1013.29" cy="-93.28" rx="25" ry="25"/>
<text text-anchor="middle" x="1013.29" y="-91.08" font-family="Times-Roman" font-size="9.00">397</text>
</g>
<!-- &#45;1&#45;&gt;397 -->
<g id="edge10" class="edge">
<title>&#45;1&#45;&gt;397</title>
<path fill="none" stroke="red" stroke-width="0.22" d="M797.45,-158.77C803.49,-157.29 810.75,-155.54 817.29,-154.02 889.57,-137.28 912.57,-148.32 980.29,-118.02 982.13,-117.2 983.97,-116.27 985.78,-115.26"/>
<polygon fill="red" stroke="red" stroke-width="0.22" points="987.96,-118.03 994.55,-109.74 984.23,-112.1 987.96,-118.03"/>
</g>
<!-- &#45;2 -->
<g id="node2" class="node">
<title>&#45;2</title>
<polygon fill="lightgray" stroke="black" points="852.29,-172.02 826.29,-172.02 826.29,-154.02 852.29,-154.02 852.29,-172.02"/>
<text text-anchor="middle" x="839.29" y="-160.82" font-family="Times-Roman" font-size="9.00">&#45;2</text>
</g>
<!-- &#45;2&#45;&gt;0 -->
<g id="edge129" class="edge">
<title>&#45;2&#45;&gt;0</title>
<path fill="none" stroke="green" stroke-width="0.17" d="M852.66,-160.83C922.38,-154.58 1241.49,-125.6 1248.29,-118.02 1262.99,-101.66 1262.65,-85.19 1248.29,-68.53 1212.95,-27.51 1058.35,-50.56 1007.29,-32.53 1006.04,-32.09 1004.79,-31.58 1003.54,-31.03"/>
<polygon fill="green" stroke="green" stroke-width="0.17" points="1004.79,-27.74 994.31,-26.21 1001.55,-33.95 1004.79,-27.74"/>
</g>
<!-- &#45;2&#45;&gt;1 -->
<g id="edge130" class="edge">
<title>&#45;2&#45;&gt;1</title>
<path fill="none" stroke="green" stroke-width="0.16" d="M826.22,-158.34C820.2,-156.78 812.93,-155.08 806.29,-154.02 754.78,-145.85 373.73,-156.29 338.29,-118.02 323.35,-101.88 323.43,-84.74 338.29,-68.53 400.54,-0.61 663.53,-60.53 751.29,-32.53 752.56,-32.12 753.82,-31.65 755.08,-31.13"/>
<polygon fill="green" stroke="green" stroke-width="0.16" points="757.03,-34.06 764.34,-26.39 753.84,-27.83 757.03,-34.06"/>
</g>
<!-- &#45;2&#45;&gt;2 -->
<g id="edge131" class="edge">
<title>&#45;2&#45;&gt;2</title>
<path fill="none" stroke="red" stroke-width="0.12" d="M852.55,-160.84C926.27,-154.24 1282.54,-122.17 1286.29,-118.02 1301.07,-101.72 1299.81,-85.88 1286.29,-68.53 1264.65,-40.74 1159.46,-25.65 1109.6,-19.95"/>
<polygon fill="red" stroke="red" stroke-width="0.12" points="1109.9,-16.46 1099.58,-18.85 1109.13,-23.42 1109.9,-16.46"/>
</g>
<!-- &#45;2&#45;&gt;3 -->
<g id="edge132" class="edge">
<title>&#45;2&#45;&gt;3</title>
<path fill="none" stroke="green" stroke-width="0.38" d="M826.22,-158.35C820.2,-156.79 812.93,-155.09 806.29,-154.02 756.43,-146.05 387.55,-155.11 353.29,-118.02 338.37,-101.86 338.37,-84.69 353.29,-68.53 421.19,5.03 706.83,-62.63 802.29,-32.53 803.56,-32.13 804.82,-31.66 806.08,-31.14"/>
<polygon fill="green" stroke="green" stroke-width="0.38" points="808.03,-34.07 815.34,-26.41 804.84,-27.84 808.03,-34.07"/>
</g>
<!-- &#45;2&#45;&gt;4 -->
<g id="edge133" class="edge">
<title>&#45;2&#45;&gt;4</title>
<path fill="none" stroke="green" stroke-width="0.21" d="M826.21,-158.43C820.18,-156.89 812.91,-155.17 806.29,-154.02 731.65,-141.07 517.95,-174.35 467.29,-118.02 452.58,-101.67 452.48,-84.79 467.29,-68.53 525.31,-4.84 771.3,-58.97 853.29,-32.53 854.55,-32.12 855.82,-31.64 857.08,-31.12"/>
<polygon fill="green" stroke="green" stroke-width="0.21" points="859.03,-34.05 866.33,-26.37 855.84,-27.82 859.03,-34.05"/>
</g>
<!-- &#45;2&#45;&gt;5 -->
<g id="edge134" class="edge">
<title>&#45;2&#45;&gt;5</title>
<path fill="none" stroke="green" stroke-width="0.43" d="M826.22,-158.34C820.2,-156.77 812.93,-155.07 806.29,-154.02 753.13,-145.66 359.91,-157.47 323.29,-118.02 308.33,-101.9 308.75,-85.03 323.29,-68.53 348.27,-40.17 613.92,-23.36 699.73,-18.64"/>
<polygon fill="green" stroke="green" stroke-width="0.43" points="699.92,-22.14 709.72,-18.1 699.54,-15.15 699.92,-22.14"/>
</g>
<!-- &#45;2&#45;&gt;6 -->
<g id="edge135" class="edge">
<title>&#45;2&#45;&gt;6</title>
<path fill="none" stroke="green" stroke-width="0.2" d="M852.33,-160.92C923.3,-154.91 1260.13,-125.96 1267.29,-118.02 1282.03,-101.69 1281.47,-85.35 1267.29,-68.53 1206.56,3.56 1146.81,-64.91 1058.29,-32.53 1057.05,-32.07 1055.8,-31.56 1054.55,-31"/>
<polygon fill="green" stroke="green" stroke-width="0.2" points="1055.81,-27.71 1045.33,-26.15 1052.55,-33.9 1055.81,-27.71"/>
</g>
<!-- &#45;2&#45;&gt;7 -->
<g id="edge136" class="edge">
<title>&#45;2&#45;&gt;7</title>
<path fill="none" stroke="red" stroke-width="0.33" d="M826.19,-158.52C820.16,-156.99 812.9,-155.27 806.29,-154.02 747.24,-142.93 577.85,-163.25 538.29,-118.02 523.81,-101.47 523.52,-84.83 538.29,-68.53 593.18,-7.98 826.57,-57.8 904.29,-32.53 905.55,-32.12 906.82,-31.64 908.08,-31.11"/>
<polygon fill="red" stroke="red" stroke-width="0.33" points="910.03,-34.04 917.33,-26.36 906.83,-27.81 910.03,-34.04"/>
</g>
<!-- &#45;2&#45;&gt;388 -->
<g id="edge11" class="edge">
<title>&#45;2&#45;&gt;388</title>
<path fill="none" stroke="red" stroke-width="0.46" d="M852.53,-161.12C886.34,-158.43 978.08,-148.61 1047.29,-118.02 1049.13,-117.21 1050.97,-116.28 1052.79,-115.28"/>
<polygon fill="red" stroke="red" stroke-width="0.46" points="1054.96,-118.05 1061.57,-109.77 1051.24,-112.12 1054.96,-118.05"/>
</g>
<!-- &#45;2&#45;&gt;389 -->
<g id="edge12" class="edge">
<title>&#45;2&#45;&gt;389</title>
<path fill="none" stroke="red" stroke-width="0.44" d="M852.45,-160.73C900.41,-155.9 1065.57,-138.12 1114.29,-118.02 1116.15,-117.26 1118.01,-116.37 1119.84,-115.39"/>
<polygon fill="red" stroke="red" stroke-width="0.44" points="1121.97,-118.18 1128.65,-109.95 1118.3,-112.23 1121.97,-118.18"/>
</g>
<!-- &#45;2&#45;&gt;390 -->
<g id="edge13" class="edge">
<title>&#45;2&#45;&gt;390</title>
<path fill="none" stroke="red" stroke-width="0.15" d="M852.53,-160.71C911.65,-154.79 1150.11,-130.33 1181.29,-118.02 1183.16,-117.29 1185.03,-116.42 1186.86,-115.46"/>
<polygon fill="red" stroke="red" stroke-width="0.15" points="1188.98,-118.26 1195.69,-110.07 1185.33,-112.29 1188.98,-118.26"/>
</g>
<!-- &#45;2&#45;&gt;391 -->
<g id="edge14" class="edge">
<title>&#45;2&#45;&gt;391</title>
<path fill="none" stroke="red" stroke-width="0.15" d="M826.14,-158.77C820.1,-157.3 812.84,-155.55 806.29,-154.02 734.45,-137.34 715.4,-137.6 644.29,-118.02 631.4,-114.48 617.41,-110.01 605.22,-105.9"/>
<polygon fill="red" stroke="red" stroke-width="0.15" points="606.05,-102.49 595.46,-102.57 603.79,-109.12 606.05,-102.49"/>
</g>
<!-- &#45;2&#45;&gt;392 -->
<g id="edge15" class="edge">
<title>&#45;2&#45;&gt;392</title>
<path fill="none" stroke="green" stroke-width="0.53" d="M826.06,-158.85C802.25,-152.84 750.95,-138.54 711.29,-118.02 709.51,-117.1 707.71,-116.09 705.92,-115.02"/>
<polygon fill="green" stroke="green" stroke-width="0.53" points="707.51,-111.87 697.23,-109.33 703.68,-117.73 707.51,-111.87"/>
</g>
<!-- &#45;2&#45;&gt;393 -->
<g id="edge16" class="edge">
<title>&#45;2&#45;&gt;393</title>
<path fill="none" stroke="green" stroke-width="0.35" d="M828.14,-153.99C814.77,-144.35 791.86,-127.84 773.52,-114.62"/>
<polygon fill="green" stroke="green" stroke-width="0.35" points="775.1,-111.44 764.94,-108.44 771.01,-117.12 775.1,-111.44"/>
</g>
<!-- &#45;2&#45;&gt;394 -->
<g id="edge17" class="edge">
<title>&#45;2&#45;&gt;394</title>
<path fill="none" stroke="green" stroke-width="0.47" d="M836.09,-153.99C833.29,-146.96 829.03,-136.27 824.88,-125.87"/>
<polygon fill="green" stroke="green" stroke-width="0.47" points="828.11,-124.51 821.16,-116.51 821.61,-127.1 828.11,-124.51"/>
</g>
<!-- &#45;2&#45;&gt;395 -->
<g id="edge18" class="edge">
<title>&#45;2&#45;&gt;395</title>
<path fill="none" stroke="green" stroke-width="0.19" d="M844.04,-153.99C848.48,-146.46 855.39,-134.76 861.92,-123.69"/>
<polygon fill="green" stroke="green" stroke-width="0.19" points="864.96,-125.44 867.03,-115.05 858.93,-121.88 864.96,-125.44"/>
</g>
<!-- &#45;2&#45;&gt;396 -->
<g id="edge19" class="edge">
<title>&#45;2&#45;&gt;396</title>
<path fill="none" stroke="red" stroke-width="0.99" d="M852.34,-154.73C867.29,-146.26 892.42,-131.71 913.29,-118.02 914.93,-116.95 916.6,-115.83 918.28,-114.69"/>
<polygon fill="red" stroke="red" stroke-width="0.99" points="920.4,-117.47 926.6,-108.88 916.39,-111.74 920.4,-117.47"/>
</g>
<!-- &#45;2&#45;&gt;397 -->
<g id="edge20" class="edge">
<title>&#45;2&#45;&gt;397</title>
<path fill="none" stroke="red" stroke-width="0.56" d="M852.66,-159.36C878.36,-153.92 936.02,-140.14 980.29,-118.02 982.09,-117.13 983.9,-116.13 985.69,-115.08"/>
<polygon fill="red" stroke="red" stroke-width="0.56" points="987.92,-117.81 994.41,-109.43 984.11,-111.93 987.92,-117.81"/>
</g>
<!-- &#45;3 -->
<g id="node3" class="node">
<title>&#45;3</title>
<polygon fill="lightgray" stroke="black" points="970.29,-172.02 944.29,-172.02 944.29,-154.02 970.29,-154.02 970.29,-172.02"/>
<text text-anchor="middle" x="957.29" y="-160.82" font-family="Times-Roman" font-size="9.00">&#45;3</text>
</g>
<!-- &#45;3&#45;&gt;0 -->
<g id="edge137" class="edge">
<title>&#45;3&#45;&gt;0</title>
<path fill="none" stroke="red" stroke-width="0.1" d="M970.44,-158.43C976.71,-156.84 984.34,-155.1 991.29,-154.02 1044.15,-145.87 1434.92,-157.23 1471.29,-118.02 1486.26,-101.9 1486.24,-84.67 1471.29,-68.53 1436.17,-30.57 1056.63,-48.01 1007.29,-32.53 1006.03,-32.13 1004.76,-31.66 1003.5,-31.14"/>
<polygon fill="red" stroke="red" stroke-width="0.1" points="1004.74,-27.84 994.24,-26.41 1001.56,-34.08 1004.74,-27.84"/>
</g>
<!-- &#45;3&#45;&gt;1 -->
<g id="edge138" class="edge">
<title>&#45;3&#45;&gt;1</title>
<path fill="none" stroke="green" stroke-width="0.74" d="M944.25,-160.91C925.79,-159.34 890.97,-156.4 861.29,-154.02 809.08,-149.85 426.89,-156.45 391.29,-118.02 376.34,-101.89 376.53,-84.84 391.29,-68.53 445.24,-8.91 674.86,-57.46 751.29,-32.53 752.55,-32.12 753.82,-31.64 755.07,-31.11"/>
<polygon fill="green" stroke="green" stroke-width="0.74" points="757.03,-34.04 764.32,-26.35 753.83,-27.81 757.03,-34.04"/>
</g>
<!-- &#45;3&#45;&gt;2 -->
<g id="edge139" class="edge">
<title>&#45;3&#45;&gt;2</title>
<path fill="none" stroke="red" stroke-width="0.12" d="M970.44,-158.41C976.71,-156.82 984.34,-155.08 991.29,-154.02 1048.34,-145.39 1469.94,-160.21 1509.29,-118.02 1524.3,-101.94 1523.89,-84.99 1509.29,-68.53 1482.66,-38.5 1198.97,-22.7 1109.89,-18.45"/>
<polygon fill="red" stroke="red" stroke-width="0.12" points="1109.95,-14.95 1099.8,-17.98 1109.62,-21.94 1109.95,-14.95"/>
</g>
<!-- &#45;3&#45;&gt;3 -->
<g id="edge140" class="edge">
<title>&#45;3&#45;&gt;3</title>
<path fill="none" stroke="green" stroke-width="0.26" d="M944.07,-160.88C873.61,-154.75 545.28,-125.79 538.29,-118.02 523.57,-101.68 523.83,-85.1 538.29,-68.53 577.23,-23.92 746.34,-51.89 802.29,-32.53 803.55,-32.09 804.8,-31.6 806.06,-31.05"/>
<polygon fill="green" stroke="green" stroke-width="0.26" points="808.03,-33.97 815.29,-26.25 804.8,-27.76 808.03,-33.97"/>
</g>
<!-- &#45;3&#45;&gt;4 -->
<g id="edge141" class="edge">
<title>&#45;3&#45;&gt;4</title>
<path fill="none" stroke="red" stroke-width="0.29" d="M970.47,-158.63C976.75,-157.08 984.38,-155.32 991.29,-154.02 1047.98,-143.41 1210.45,-161.54 1248.29,-118.02 1262.73,-101.42 1263.01,-84.87 1248.29,-68.53 1197.01,-11.58 978.1,-56.47 905.29,-32.53 904.03,-32.11 902.77,-31.63 901.52,-31.1"/>
<polygon fill="red" stroke="red" stroke-width="0.29" points="902.76,-27.8 892.27,-26.34 899.56,-34.03 902.76,-27.8"/>
</g>
<!-- &#45;3&#45;&gt;5 -->
<g id="edge142" class="edge">
<title>&#45;3&#45;&gt;5</title>
<path fill="none" stroke="green" stroke-width="0.56" d="M944.25,-160.9C925.79,-159.32 890.97,-156.36 861.29,-154.02 807.42,-149.78 413.06,-157.62 376.29,-118.02 282.35,-16.85 603.24,-14.96 699.69,-16.6"/>
<polygon fill="green" stroke="green" stroke-width="0.56" points="699.74,-20.1 709.81,-16.79 699.88,-13.1 699.74,-20.1"/>
</g>
<!-- &#45;3&#45;&gt;6 -->
<g id="edge143" class="edge">
<title>&#45;3&#45;&gt;6</title>
<path fill="none" stroke="green" stroke-width="0.12" d="M970.44,-158.42C976.71,-156.83 984.34,-155.09 991.29,-154.02 1046.24,-145.63 1452.43,-158.72 1490.29,-118.02 1505.28,-101.92 1505.19,-84.72 1490.29,-68.53 1425.07,2.36 1150.12,-61.64 1058.29,-32.53 1057.03,-32.13 1055.76,-31.66 1054.5,-31.13"/>
<polygon fill="green" stroke="green" stroke-width="0.12" points="1055.74,-27.84 1045.25,-26.4 1052.56,-34.07 1055.74,-27.84"/>
</g>
<!-- &#45;3&#45;&gt;7 -->
<g id="edge144" class="edge">
<title>&#45;3&#45;&gt;7</title>
<path fill="none" stroke="green" stroke-width="0.59" d="M970.46,-158.58C976.74,-157.02 984.37,-155.27 991.29,-154.02 1055.21,-142.57 1238.3,-166.69 1281.29,-118.02 1295.86,-101.54 1295.97,-84.92 1281.29,-68.53 1232.82,-14.39 1025.26,-55.42 956.29,-32.53 955.04,-32.11 953.77,-31.63 952.52,-31.09"/>
<polygon fill="green" stroke="green" stroke-width="0.59" points="953.76,-27.8 943.27,-26.32 950.55,-34.02 953.76,-27.8"/>
</g>
<!-- &#45;3&#45;&gt;388 -->
<g id="edge21" class="edge">
<title>&#45;3&#45;&gt;388</title>
<path fill="none" stroke="green" stroke-width="0.33" d="M970.47,-156.42C988.34,-148.65 1021.03,-133.74 1047.29,-118.02 1048.97,-117.02 1050.68,-115.95 1052.38,-114.85"/>
<polygon fill="green" stroke="green" stroke-width="0.33" points="1054.46,-117.67 1060.77,-109.15 1050.53,-111.88 1054.46,-117.67"/>
</g>
<!-- &#45;3&#45;&gt;389 -->
<g id="edge22" class="edge">
<title>&#45;3&#45;&gt;389</title>
<path fill="none" stroke="red" stroke-width="0.2" d="M970.39,-158.98C1003.2,-151.25 1088.15,-130.61 1114.29,-118.02 1116.11,-117.15 1117.92,-116.18 1119.72,-115.14"/>
<polygon fill="red" stroke="red" stroke-width="0.2" points="1121.93,-117.88 1128.46,-109.54 1118.15,-111.99 1121.93,-117.88"/>
</g>
<!-- &#45;3&#45;&gt;390 -->
<g id="edge23" class="edge">
<title>&#45;3&#45;&gt;390</title>
<path fill="none" stroke="green" stroke-width="0.31" d="M970.5,-158.77C976.79,-157.26 984.41,-155.49 991.29,-154.02 1075.37,-136.18 1102.32,-151.93 1181.29,-118.02 1183.14,-117.23 1184.99,-116.32 1186.81,-115.33"/>
<polygon fill="green" stroke="green" stroke-width="0.31" points="1188.97,-118.11 1195.6,-109.85 1185.26,-112.17 1188.97,-118.11"/>
</g>
<!-- &#45;3&#45;&gt;391 -->
<g id="edge24" class="edge">
<title>&#45;3&#45;&gt;391</title>
<path fill="none" stroke="green" stroke-width="0.82" d="M944.02,-161.01C900.54,-157.52 758.66,-144.7 644.29,-118.02 631.27,-114.99 617.25,-110.62 605.07,-106.46"/>
<polygon fill="green" stroke="green" stroke-width="0.82" points="605.93,-103.05 595.34,-103.05 603.62,-109.66 605.93,-103.05"/>
</g>
<!-- &#45;3&#45;&gt;392 -->
<g id="edge25" class="edge">
<title>&#45;3&#45;&gt;392</title>
<path fill="none" stroke="red" stroke-width="0.12" d="M944,-160.44C899.24,-154.97 754.34,-136.25 711.29,-118.02 709.44,-117.24 707.59,-116.34 705.77,-115.35"/>
<polygon fill="red" stroke="red" stroke-width="0.12" points="707.31,-112.19 696.97,-109.89 703.62,-118.13 707.31,-112.19"/>
</g>
<!-- &#45;3&#45;&gt;393 -->
<g id="edge26" class="edge">
<title>&#45;3&#45;&gt;393</title>
<path fill="none" stroke="green" stroke-width="0.61" d="M944.14,-160.54C913.74,-156.73 836.7,-144.98 778.29,-118.02 776.47,-117.18 774.64,-116.23 772.83,-115.21"/>
<polygon fill="green" stroke="green" stroke-width="0.61" points="774.39,-112.05 764.07,-109.65 770.64,-117.97 774.39,-112.05"/>
</g>
<!-- &#45;3&#45;&gt;394 -->
<g id="edge27" class="edge">
<title>&#45;3&#45;&gt;394</title>
<path fill="none" stroke="green" stroke-width="0.81" d="M944.06,-158.02C922.61,-151.26 879.23,-136.52 845.29,-118.02 843.53,-117.06 841.75,-116.02 839.97,-114.93"/>
<polygon fill="green" stroke="green" stroke-width="0.81" points="841.58,-111.79 831.31,-109.18 837.71,-117.62 841.58,-111.79"/>
</g>
<!-- &#45;3&#45;&gt;395 -->
<g id="edge28" class="edge">
<title>&#45;3&#45;&gt;395</title>
<path fill="none" stroke="green" stroke-width="0.15" d="M948.04,-153.99C937.62,-144.94 920.23,-129.83 905.54,-117.08"/>
<polygon fill="green" stroke="green" stroke-width="0.15" points="907.57,-114.2 897.73,-110.29 902.98,-119.49 907.57,-114.2"/>
</g>
<!-- &#45;3&#45;&gt;396 -->
<g id="edge29" class="edge">
<title>&#45;3&#45;&gt;396</title>
<path fill="none" stroke="red" stroke-width="0.27" d="M955.99,-153.99C954.92,-147.43 953.34,-137.7 951.77,-127.98"/>
<polygon fill="red" stroke="red" stroke-width="0.27" points="955.2,-127.31 950.15,-118 948.29,-128.43 955.2,-127.31"/>
</g>
<!-- &#45;3&#45;&gt;397 -->
<g id="edge30" class="edge">
<title>&#45;3&#45;&gt;397</title>
<path fill="none" stroke="green" stroke-width="0.46" d="M963.94,-153.99C970.72,-145.78 981.61,-132.61 991.44,-120.72"/>
<polygon fill="green" stroke="green" stroke-width="0.46" points="994.34,-122.7 998.01,-112.77 988.94,-118.24 994.34,-122.7"/>
</g>
<!-- &#45;4 -->
<g id="node4" class="node">
<title>&#45;4</title>
<polygon fill="lightgray" stroke="black" points="1026.29,-172.02 1000.29,-172.02 1000.29,-154.02 1026.29,-154.02 1026.29,-172.02"/>
<text text-anchor="middle" x="1013.29" y="-160.82" font-family="Times-Roman" font-size="9.00">&#45;4</text>
</g>
<!-- &#45;4&#45;&gt;0 -->
<g id="edge145" class="edge">
<title>&#45;4&#45;&gt;0</title>
<path fill="none" stroke="red" stroke-width="0.45" d="M1026.54,-161.84C1100.28,-160.69 1458.14,-153.28 1490.29,-118.02 1505.12,-101.77 1505.26,-84.65 1490.29,-68.53 1453.68,-29.08 1058.66,-48.57 1007.29,-32.53 1006.03,-32.13 1004.76,-31.67 1003.5,-31.15"/>
<polygon fill="red" stroke="red" stroke-width="0.45" points="1004.74,-27.85 994.24,-26.42 1001.56,-34.08 1004.74,-27.85"/>
</g>
<!-- &#45;4&#45;&gt;1 -->
<g id="edge146" class="edge">
<title>&#45;4&#45;&gt;1</title>
<path fill="none" stroke="red" stroke-width="0.31" d="M1000.14,-158.45C993.87,-156.86 986.24,-155.12 979.29,-154.02 930.73,-146.37 571.61,-154.17 538.29,-118.02 523.38,-101.85 524.09,-85.33 538.29,-68.53 600.27,4.8 661.08,-65.37 751.29,-32.53 752.54,-32.07 753.79,-31.56 755.04,-31"/>
<polygon fill="red" stroke="red" stroke-width="0.31" points="757.03,-33.91 764.26,-26.16 753.78,-27.71 757.03,-33.91"/>
</g>
<!-- &#45;4&#45;&gt;2 -->
<g id="edge147" class="edge">
<title>&#45;4&#45;&gt;2</title>
<path fill="none" stroke="red" stroke-width="0.12" d="M1026.32,-161.76C1123.35,-159.69 1730.2,-145.71 1756.29,-118.02 1771.38,-102.02 1771.25,-84.66 1756.29,-68.53 1711.64,-20.34 1228.8,-17.24 1109.72,-17.21"/>
<polygon fill="red" stroke="red" stroke-width="0.12" points="1109.66,-13.71 1099.66,-17.21 1109.66,-20.71 1109.66,-13.71"/>
</g>
<!-- &#45;4&#45;&gt;4 -->
<g id="edge148" class="edge">
<title>&#45;4&#45;&gt;4</title>
<path fill="none" stroke="red" stroke-width="0.89" d="M1026.35,-161.87C1073.78,-161.01 1235.88,-155.35 1267.29,-118.02 1281.46,-101.19 1282.06,-84.83 1267.29,-68.53 1213.03,-8.6 982.16,-57.57 905.29,-32.53 904.03,-32.12 902.77,-31.64 901.51,-31.11"/>
<polygon fill="red" stroke="red" stroke-width="0.89" points="902.76,-27.81 892.26,-26.35 899.56,-34.04 902.76,-27.81"/>
</g>
<!-- &#45;4&#45;&gt;5 -->
<g id="edge149" class="edge">
<title>&#45;4&#45;&gt;5</title>
<path fill="none" stroke="red" stroke-width="0.21" d="M1000.15,-158.44C993.88,-156.85 986.24,-155.11 979.29,-154.02 929.19,-146.19 558.71,-155.27 524.29,-118.02 509.36,-101.87 510.79,-85.89 524.29,-68.53 545.82,-40.86 650.5,-25.7 700.11,-19.97"/>
<polygon fill="red" stroke="red" stroke-width="0.21" points="700.54,-23.45 710.09,-18.86 699.76,-16.49 700.54,-23.45"/>
</g>
<!-- &#45;4&#45;&gt;6 -->
<g id="edge150" class="edge">
<title>&#45;4&#45;&gt;6</title>
<path fill="none" stroke="red" stroke-width="0.27" d="M1026.6,-161.73C1123.04,-159.52 1711.94,-144.96 1737.29,-118.02 1752.37,-102 1752.43,-84.49 1737.29,-68.53 1685.3,-13.71 1130.65,-54.27 1058.29,-32.53 1057.02,-32.15 1055.75,-31.69 1054.49,-31.18"/>
<polygon fill="red" stroke="red" stroke-width="0.27" points="1055.72,-27.88 1045.22,-26.48 1052.56,-34.13 1055.72,-27.88"/>
</g>
<!-- &#45;4&#45;&gt;7 -->
<g id="edge151" class="edge">
<title>&#45;4&#45;&gt;7</title>
<path fill="none" stroke="red" stroke-width="0.12" d="M1026.57,-162.1C1092.67,-162.07 1379.91,-156.91 1300.29,-68.53 1248.85,-11.42 1029.31,-56.53 956.29,-32.53 955.03,-32.11 953.77,-31.63 952.51,-31.1"/>
<polygon fill="red" stroke="red" stroke-width="0.12" points="953.76,-27.81 943.27,-26.34 950.56,-34.03 953.76,-27.81"/>
</g>
<!-- &#45;4&#45;&gt;388 -->
<g id="edge31" class="edge">
<title>&#45;4&#45;&gt;388</title>
<path fill="none" stroke="red" stroke-width="0.3" d="M1021.24,-153.99C1029.8,-145.34 1043.82,-131.15 1056.06,-118.78"/>
<polygon fill="red" stroke="red" stroke-width="0.3" points="1058.84,-120.95 1063.38,-111.38 1053.86,-116.02 1058.84,-120.95"/>
</g>
<!-- &#45;4&#45;&gt;389 -->
<g id="edge32" class="edge">
<title>&#45;4&#45;&gt;389</title>
<path fill="none" stroke="green" stroke-width="0.3" d="M1026.47,-157.32C1046.17,-150.05 1084.2,-135.15 1114.29,-118.02 1116.04,-117.03 1117.81,-115.96 1119.57,-114.85"/>
<polygon fill="green" stroke="green" stroke-width="0.3" points="1121.86,-117.53 1128.21,-109.05 1117.95,-111.72 1121.86,-117.53"/>
</g>
<!-- &#45;4&#45;&gt;390 -->
<g id="edge33" class="edge">
<title>&#45;4&#45;&gt;390</title>
<path fill="none" stroke="green" stroke-width="0.34" d="M1026.5,-160.25C1055.6,-155.99 1127.01,-143.58 1181.29,-118.02 1183.11,-117.17 1184.94,-116.21 1186.74,-115.18"/>
<polygon fill="green" stroke="green" stroke-width="0.34" points="1188.94,-117.93 1195.49,-109.6 1185.18,-112.02 1188.94,-117.93"/>
</g>
<!-- &#45;4&#45;&gt;391 -->
<g id="edge34" class="edge">
<title>&#45;4&#45;&gt;391</title>
<path fill="none" stroke="red" stroke-width="0.75" d="M1000.13,-158.53C993.86,-156.96 986.23,-155.21 979.29,-154.02 831.68,-128.83 790.66,-149.65 644.29,-118.02 631.23,-115.2 617.2,-110.88 605.02,-106.69"/>
<polygon fill="red" stroke="red" stroke-width="0.75" points="605.89,-103.29 595.29,-103.25 603.55,-109.89 605.89,-103.29"/>
</g>
<!-- &#45;4&#45;&gt;392 -->
<g id="edge35" class="edge">
<title>&#45;4&#45;&gt;392</title>
<path fill="none" stroke="green" stroke-width="0.22" d="M1000.12,-158.61C993.84,-157.06 986.21,-155.3 979.29,-154.02 861.1,-132.24 822.96,-162.45 711.29,-118.02 709.42,-117.28 707.56,-116.41 705.73,-115.44"/>
<polygon fill="green" stroke="green" stroke-width="0.22" points="707.26,-112.28 696.9,-110.05 703.61,-118.25 707.26,-112.28"/>
</g>
<!-- &#45;4&#45;&gt;393 -->
<g id="edge36" class="edge">
<title>&#45;4&#45;&gt;393</title>
<path fill="none" stroke="red" stroke-width="0.37" d="M1000.09,-158.74C993.81,-157.23 986.18,-155.45 979.29,-154.02 890.42,-135.62 861.87,-153.41 778.29,-118.02 776.44,-117.24 774.59,-116.34 772.77,-115.35"/>
<polygon fill="red" stroke="red" stroke-width="0.37" points="774.31,-112.19 763.97,-109.89 770.62,-118.13 774.31,-112.19"/>
</g>
<!-- &#45;4&#45;&gt;394 -->
<g id="edge37" class="edge">
<title>&#45;4&#45;&gt;394</title>
<path fill="none" stroke="red" stroke-width="0.33" d="M1000.09,-158.86C963,-149.94 859.58,-124.75 845.29,-118.02 843.47,-117.17 841.65,-116.21 839.85,-115.18"/>
<polygon fill="red" stroke="red" stroke-width="0.33" points="841.41,-112.02 831.1,-109.6 837.65,-117.93 841.41,-112.02"/>
</g>
<!-- &#45;4&#45;&gt;395 -->
<g id="edge38" class="edge">
<title>&#45;4&#45;&gt;395</title>
<path fill="none" stroke="green" stroke-width="0.18" d="M1000.11,-157.32C980.41,-150.05 942.38,-135.15 912.29,-118.02 910.54,-117.03 908.78,-115.96 907.02,-114.85"/>
<polygon fill="green" stroke="green" stroke-width="0.18" points="908.63,-111.72 898.38,-109.05 904.73,-117.53 908.63,-111.72"/>
</g>
<!-- &#45;4&#45;&gt;396 -->
<g id="edge39" class="edge">
<title>&#45;4&#45;&gt;396</title>
<path fill="none" stroke="green" stroke-width="0.23" d="M1005.34,-153.99C996.79,-145.34 982.76,-131.15 970.53,-118.78"/>
<polygon fill="green" stroke="green" stroke-width="0.23" points="972.72,-116.02 963.2,-111.38 967.75,-120.95 972.72,-116.02"/>
</g>
<!-- &#45;4&#45;&gt;397 -->
<g id="edge40" class="edge">
<title>&#45;4&#45;&gt;397</title>
<path fill="none" stroke="red" stroke-width="0.2" d="M1013.29,-153.99C1013.29,-147.55 1013.29,-138.05 1013.29,-128.52"/>
<polygon fill="red" stroke="red" stroke-width="0.2" points="1016.79,-128.3 1013.29,-118.3 1009.79,-128.3 1016.79,-128.3"/>
</g>
<!-- 388&#45;&gt;0 -->
<g id="edge41" class="edge">
<title>388&#45;&gt;0</title>
<path fill="none" stroke="green" stroke-width="0.41" d="M1060.73,-77.46C1043.84,-64.66 1019.5,-46.21 1002.22,-33.12"/>
<polygon fill="green" stroke="green" stroke-width="0.41" points="1003.99,-30.07 993.91,-26.82 999.76,-35.65 1003.99,-30.07"/>
</g>
<!-- 388&#45;&gt;1 -->
<g id="edge42" class="edge">
<title>388&#45;&gt;1</title>
<path fill="none" stroke="red" stroke-width="0.66" stroke-dasharray="1,5" d="M1061.67,-76.55C1057.19,-73.45 1052.26,-70.54 1047.29,-68.53 945.71,-27.34 906.69,-68.95 803.29,-32.53 802.04,-32.09 800.79,-31.58 799.54,-31.04"/>
<polygon fill="red" stroke="red" stroke-width="0.66" points="800.79,-27.74 790.31,-26.22 797.55,-33.95 800.79,-27.74"/>
</g>
<!-- 388&#45;&gt;2 -->
<g id="edge43" class="edge">
<title>388&#45;&gt;2</title>
<path fill="none" stroke="red" stroke-width="0.38" d="M1081.24,-68.54C1081.57,-60.42 1081.93,-51.31 1082.26,-43.04"/>
<polygon fill="red" stroke="red" stroke-width="0.38" points="1085.77,-42.94 1082.67,-32.81 1078.77,-42.66 1085.77,-42.94"/>
</g>
<!-- 388&#45;&gt;3 -->
<g id="edge44" class="edge">
<title>388&#45;&gt;3</title>
<path fill="none" stroke="red" stroke-width="0.24" d="M1061.61,-76.69C1057.14,-73.59 1052.23,-70.64 1047.29,-68.53 967.06,-34.22 936.03,-63.07 854.29,-32.53 853.05,-32.06 851.8,-31.54 850.56,-30.98"/>
<polygon fill="red" stroke="red" stroke-width="0.24" points="851.82,-27.69 841.35,-26.11 848.55,-33.88 851.82,-27.69"/>
</g>
<!-- 388&#45;&gt;4 -->
<g id="edge45" class="edge">
<title>388&#45;&gt;4</title>
<path fill="none" stroke="red" stroke-width="0.14" d="M1061.5,-76.92C1057.04,-73.81 1052.16,-70.79 1047.29,-68.53 988.28,-41.03 965.52,-57.25 905.29,-32.53 904.07,-32.02 902.83,-31.47 901.6,-30.88"/>
<polygon fill="red" stroke="red" stroke-width="0.14" points="902.88,-27.6 892.42,-25.94 899.56,-33.76 902.88,-27.6"/>
</g>
<!-- 388&#45;&gt;5 -->
<g id="edge46" class="edge">
<title>388&#45;&gt;5</title>
<path fill="none" stroke="red" stroke-width="0.29" d="M1061.7,-76.46C1057.23,-73.37 1052.29,-70.48 1047.29,-68.53 924.27,-20.44 877.41,-74.85 752.29,-32.53 751.04,-32.1 749.78,-31.61 748.52,-31.07"/>
<polygon fill="red" stroke="red" stroke-width="0.29" points="749.77,-27.78 739.28,-26.29 746.55,-34 749.77,-27.78"/>
</g>
<!-- 388&#45;&gt;6 -->
<g id="edge47" class="edge">
<title>388&#45;&gt;6</title>
<path fill="none" stroke="red" stroke-width="0.8" d="M1067.18,-71.78C1060.65,-61.58 1052.76,-49.25 1046.14,-38.9"/>
<polygon fill="red" stroke="red" stroke-width="0.8" points="1049.05,-36.95 1040.71,-30.42 1043.15,-40.73 1049.05,-36.95"/>
</g>
<!-- 388&#45;&gt;7 -->
<g id="edge48" class="edge">
<title>388&#45;&gt;7</title>
<path fill="none" stroke="red" stroke-width="0.22" d="M1061.27,-77.38C1056.82,-74.24 1052,-71.1 1047.29,-68.53 1009.13,-47.66 995.39,-51.59 956.29,-32.53 955.13,-31.96 953.95,-31.36 952.76,-30.74"/>
<polygon fill="red" stroke="red" stroke-width="0.22" points="954.28,-27.57 943.84,-25.75 950.86,-33.68 954.28,-27.57"/>
</g>
<!-- 389&#45;&gt;0 -->
<g id="edge49" class="edge">
<title>389&#45;&gt;0</title>
<path fill="none" stroke="red" stroke-width="0.18" d="M1128.37,-77.2C1123.91,-74.06 1119.07,-70.98 1114.29,-68.53 1069.65,-45.62 1052.95,-53.34 1007.29,-32.53 1006.11,-31.99 1004.92,-31.41 1003.73,-30.81"/>
<polygon fill="red" stroke="red" stroke-width="0.18" points="1005.22,-27.64 994.77,-25.89 1001.85,-33.77 1005.22,-27.64"/>
</g>
<!-- 389&#45;&gt;1 -->
<g id="edge50" class="edge">
<title>389&#45;&gt;1</title>
<path fill="none" stroke="green" stroke-width="0.18" d="M1128.71,-76.44C1124.24,-73.34 1119.3,-70.46 1114.29,-68.53 984.54,-18.27 935.24,-76.7 803.29,-32.53 802.04,-32.11 800.77,-31.62 799.52,-31.08"/>
<polygon fill="green" stroke="green" stroke-width="0.18" points="800.77,-27.79 790.28,-26.31 797.55,-34.01 800.77,-27.79"/>
</g>
<!-- 389&#45;&gt;2 -->
<g id="edge51" class="edge">
<title>389&#45;&gt;2</title>
<path fill="none" stroke="green" stroke-width="0.37" d="M1131.47,-73.73C1121.94,-62.56 1109.81,-48.34 1100.11,-36.97"/>
<polygon fill="green" stroke="green" stroke-width="0.37" points="1102.69,-34.61 1093.54,-29.27 1097.37,-39.15 1102.69,-34.61"/>
</g>
<!-- 389&#45;&gt;3 -->
<g id="edge52" class="edge">
<title>389&#45;&gt;3</title>
<path fill="none" stroke="red" stroke-width="0.12" d="M1128.68,-76.52C1124.21,-73.42 1119.27,-70.52 1114.29,-68.53 1005.99,-25.18 964.5,-70.79 854.29,-32.53 853.04,-32.09 851.78,-31.59 850.53,-31.05"/>
<polygon fill="red" stroke="red" stroke-width="0.12" points="851.79,-27.76 841.3,-26.24 848.55,-33.97 851.79,-27.76"/>
</g>
<!-- 389&#45;&gt;4 -->
<g id="edge53" class="edge">
<title>389&#45;&gt;4</title>
<path fill="none" stroke="green" stroke-width="0.27" d="M1128.63,-76.64C1124.16,-73.54 1119.24,-70.6 1114.29,-68.53 1027.37,-32.07 993.81,-64.91 905.29,-32.53 904.05,-32.07 902.8,-31.56 901.55,-31"/>
<polygon fill="green" stroke="green" stroke-width="0.27" points="902.81,-27.71 892.33,-26.15 899.55,-33.9 902.81,-27.71"/>
</g>
<!-- 389&#45;&gt;5 -->
<g id="edge54" class="edge">
<title>389&#45;&gt;5</title>
<path fill="none" stroke="green" stroke-width="0.21" d="M1128.73,-76.38C1124.26,-73.29 1119.31,-70.42 1114.29,-68.53 963.06,-11.35 906.02,-82.62 752.29,-32.53 751.03,-32.12 749.77,-31.64 748.51,-31.11"/>
<polygon fill="green" stroke="green" stroke-width="0.21" points="749.76,-27.81 739.26,-26.35 746.56,-34.04 749.76,-27.81"/>
</g>
<!-- 389&#45;&gt;6 -->
<g id="edge55" class="edge">
<title>389&#45;&gt;6</title>
<path fill="none" stroke="red" stroke-width="0.12" d="M1127.55,-77.75C1123.22,-74.65 1118.63,-71.44 1114.29,-68.53 1094.48,-55.23 1071.4,-40.9 1054.78,-30.78"/>
<polygon fill="red" stroke="red" stroke-width="0.12" points="1056.18,-27.53 1045.82,-25.35 1052.55,-33.52 1056.18,-27.53"/>
</g>
<!-- 389&#45;&gt;7 -->
<g id="edge56" class="edge">
<title>389&#45;&gt;7</title>
<path fill="none" stroke="red" stroke-width="0.19" d="M1128.54,-76.84C1124.08,-73.72 1119.18,-70.73 1114.29,-68.53 1048.65,-38.9 1023.25,-59.07 956.29,-32.53 955.06,-32.04 953.82,-31.5 952.58,-30.92"/>
<polygon fill="red" stroke="red" stroke-width="0.19" points="953.86,-27.63 943.39,-26 950.56,-33.81 953.86,-27.63"/>
</g>
<!-- 390&#45;&gt;0 -->
<g id="edge57" class="edge">
<title>390&#45;&gt;0</title>
<path fill="none" stroke="green" stroke-width="0.53" d="M1195.58,-76.76C1191.11,-73.65 1186.2,-70.68 1181.29,-68.53 1108.99,-36.77 1080.99,-60.89 1007.29,-32.53 1006.06,-32.05 1004.81,-31.52 1003.57,-30.95"/>
<polygon fill="green" stroke="green" stroke-width="0.53" points="1004.84,-27.66 994.37,-26.06 1001.55,-33.84 1004.84,-27.66"/>
</g>
<!-- 390&#45;&gt;1 -->
<g id="edge58" class="edge">
<title>390&#45;&gt;1</title>
<path fill="none" stroke="red" stroke-width="0.22" d="M1195.74,-76.36C1191.26,-73.27 1186.32,-70.41 1181.29,-68.53 1023.31,-9.18 963.86,-84.47 803.29,-32.53 802.03,-32.12 800.77,-31.64 799.51,-31.12"/>
<polygon fill="red" stroke="red" stroke-width="0.22" points="800.75,-27.82 790.26,-26.36 797.56,-34.05 800.75,-27.82"/>
</g>
<!-- 390&#45;&gt;2 -->
<g id="edge59" class="edge">
<title>390&#45;&gt;2</title>
<path fill="none" stroke="red" stroke-width="0.52" d="M1194.71,-77.49C1190.37,-74.41 1185.74,-71.27 1181.29,-68.53 1156.72,-53.36 1127.2,-38.32 1107.02,-28.5"/>
<polygon fill="red" stroke="red" stroke-width="0.52" points="1108.46,-25.3 1097.93,-24.11 1105.42,-31.61 1108.46,-25.3"/>
</g>
<!-- 390&#45;&gt;3 -->
<g id="edge60" class="edge">
<title>390&#45;&gt;3</title>
<path fill="none" stroke="green" stroke-width="0.17" d="M1195.72,-76.42C1191.24,-73.32 1186.3,-70.45 1181.29,-68.53 1044.8,-16.1 993.07,-78.55 854.29,-32.53 853.04,-32.11 851.77,-31.63 850.52,-31.09"/>
<polygon fill="green" stroke="green" stroke-width="0.17" points="851.76,-27.8 841.27,-26.32 848.55,-34.02 851.76,-27.8"/>
</g>
<!-- 390&#45;&gt;4 -->
<g id="edge61" class="edge">
<title>390&#45;&gt;4</title>
<path fill="none" stroke="red" stroke-width="0.26" d="M1195.69,-76.49C1191.22,-73.4 1186.28,-70.5 1181.29,-68.53 1066.26,-23.02 1022.31,-72.65 905.29,-32.53 904.04,-32.1 902.78,-31.6 901.53,-31.06"/>
<polygon fill="red" stroke="red" stroke-width="0.26" points="902.78,-27.77 892.29,-26.27 899.55,-33.98 902.78,-27.77"/>
</g>
<!-- 390&#45;&gt;5 -->
<g id="edge62" class="edge">
<title>390&#45;&gt;5</title>
<path fill="none" stroke="red" stroke-width="0.7" d="M1195.76,-76.32C1191.28,-73.23 1186.33,-70.39 1181.29,-68.53 1001.8,-2.24 934.67,-90.4 752.29,-32.53 751.03,-32.13 749.76,-31.66 748.5,-31.13"/>
<polygon fill="red" stroke="red" stroke-width="0.7" points="749.75,-27.84 739.25,-26.4 746.56,-34.07 749.75,-27.84"/>
</g>
<!-- 390&#45;&gt;6 -->
<g id="edge63" class="edge">
<title>390&#45;&gt;6</title>
<path fill="none" stroke="red" stroke-width="0.16" d="M1195.44,-77.05C1190.98,-73.93 1186.11,-70.88 1181.29,-68.53 1130.11,-43.53 1110.58,-55.12 1058.29,-32.53 1057.08,-32 1055.85,-31.43 1054.62,-30.83"/>
<polygon fill="red" stroke="red" stroke-width="0.16" points="1055.91,-27.55 1045.46,-25.84 1052.56,-33.7 1055.91,-27.55"/>
</g>
<!-- 390&#45;&gt;7 -->
<g id="edge64" class="edge">
<title>390&#45;&gt;7</title>
<path fill="none" stroke="red" stroke-width="0.34" d="M1195.65,-76.6C1191.18,-73.5 1186.25,-70.57 1181.29,-68.53 1087.67,-29.91 1051.61,-66.75 956.29,-32.53 955.05,-32.08 953.79,-31.57 952.54,-31.02"/>
<polygon fill="red" stroke="red" stroke-width="0.34" points="953.8,-27.73 943.32,-26.19 950.55,-33.93 953.8,-27.73"/>
</g>
<!-- 391&#45;&gt;0 -->
<g id="edge65" class="edge">
<title>391&#45;&gt;0</title>
<path fill="none" stroke="red" stroke-width="0.39" d="M592.1,-77.9C598.01,-74.26 604.68,-70.76 611.29,-68.53 756.94,-19.35 809.26,-80.53 955.29,-32.53 956.55,-32.11 957.82,-31.63 959.07,-31.1"/>
<polygon fill="red" stroke="red" stroke-width="0.39" points="961.03,-34.03 968.32,-26.34 957.83,-27.81 961.03,-34.03"/>
</g>
<!-- 391&#45;&gt;1 -->
<g id="edge66" class="edge">
<title>391&#45;&gt;1</title>
<path fill="none" stroke="green" stroke-width="0.37" d="M592.33,-78.52C598.25,-74.89 604.87,-71.24 611.29,-68.53 670.49,-43.55 691.9,-57.03 751.29,-32.53 752.52,-32.02 753.75,-31.47 754.99,-30.88"/>
<polygon fill="green" stroke="green" stroke-width="0.37" points="757.03,-33.76 764.17,-25.93 753.7,-27.59 757.03,-33.76"/>
</g>
<!-- 391&#45;&gt;2 -->
<g id="edge67" class="edge">
<title>391&#45;&gt;2</title>
<path fill="none" stroke="red" stroke-width="0.15" d="M594.95,-83.3C608.95,-78.14 627.4,-72 644.29,-68.53 824.77,-31.42 881.76,-88.54 1057.29,-32.53 1058.56,-32.12 1059.82,-31.65 1061.08,-31.13"/>
<polygon fill="red" stroke="red" stroke-width="0.15" points="1063.03,-34.06 1070.34,-26.39 1059.84,-27.83 1063.03,-34.06"/>
</g>
<!-- 391&#45;&gt;3 -->
<g id="edge68" class="edge">
<title>391&#45;&gt;3</title>
<path fill="none" stroke="green" stroke-width="0.24" d="M592.22,-78.25C598.14,-74.62 604.78,-71.03 611.29,-68.53 691.94,-37.56 721.4,-62.84 802.29,-32.53 803.53,-32.06 804.78,-31.54 806.03,-30.98"/>
<polygon fill="green" stroke="green" stroke-width="0.24" points="808.03,-33.88 815.24,-26.11 804.76,-27.69 808.03,-33.88"/>
</g>
<!-- 391&#45;&gt;4 -->
<g id="edge69" class="edge">
<title>391&#45;&gt;4</title>
<path fill="none" stroke="green" stroke-width="0.21" d="M592.16,-78.08C598.08,-74.45 604.73,-70.9 611.29,-68.53 713.54,-31.51 750.75,-68.71 853.29,-32.53 854.54,-32.09 855.8,-31.58 857.05,-31.03"/>
<polygon fill="green" stroke="green" stroke-width="0.21" points="859.03,-33.95 866.28,-26.22 855.79,-27.74 859.03,-33.95"/>
</g>
<!-- 391&#45;&gt;5 -->
<g id="edge70" class="edge">
<title>391&#45;&gt;5</title>
<path fill="none" stroke="green" stroke-width="0.57" d="M592.66,-79.2C598.58,-75.59 605.12,-71.77 611.29,-68.53 641.81,-52.52 678.36,-36.78 701.94,-27.06"/>
<polygon fill="green" stroke="green" stroke-width="0.57" points="703.55,-30.18 711.49,-23.15 700.91,-23.7 703.55,-30.18"/>
</g>
<!-- 391&#45;&gt;6 -->
<g id="edge71" class="edge">
<title>391&#45;&gt;6</title>
<path fill="none" stroke="green" stroke-width="0.4" d="M595.28,-83.26C609.25,-78.14 627.55,-72.07 644.29,-68.53 802.46,-35 852.57,-82.62 1006.29,-32.53 1007.55,-32.12 1008.82,-31.64 1010.07,-31.11"/>
<polygon fill="green" stroke="green" stroke-width="0.4" points="1012.03,-34.04 1019.32,-26.35 1008.83,-27.81 1012.03,-34.04"/>
</g>
<!-- 391&#45;&gt;7 -->
<g id="edge72" class="edge">
<title>391&#45;&gt;7</title>
<path fill="none" stroke="red" stroke-width="0.35" d="M592.12,-77.98C598.04,-74.34 604.7,-70.82 611.29,-68.53 735.22,-25.44 780.03,-74.61 904.29,-32.53 905.55,-32.1 906.81,-31.61 908.06,-31.07"/>
<polygon fill="red" stroke="red" stroke-width="0.35" points="910.03,-33.99 917.3,-26.29 906.81,-27.78 910.03,-33.99"/>
</g>
<!-- 392&#45;&gt;0 -->
<g id="edge73" class="edge">
<title>392&#45;&gt;0</title>
<path fill="none" stroke="green" stroke-width="0.12" d="M696.92,-76.55C701.39,-73.45 706.32,-70.54 711.29,-68.53 812.88,-27.34 851.9,-68.95 955.29,-32.53 956.54,-32.09 957.8,-31.58 959.05,-31.04"/>
<polygon fill="green" stroke="green" stroke-width="0.12" points="961.03,-33.95 968.28,-26.22 957.79,-27.74 961.03,-33.95"/>
</g>
<!-- 392&#45;&gt;1 -->
<g id="edge74" class="edge">
<title>392&#45;&gt;1</title>
<path fill="none" stroke="green" stroke-width="0.32" d="M697.85,-77.46C714.74,-64.66 739.09,-46.21 756.36,-33.12"/>
<polygon fill="green" stroke="green" stroke-width="0.32" points="758.82,-35.65 764.68,-26.82 754.6,-30.07 758.82,-35.65"/>
</g>
<!-- 392&#45;&gt;2 -->
<g id="edge75" class="edge">
<title>392&#45;&gt;2</title>
<path fill="none" stroke="red" stroke-width="0.47" d="M696.86,-76.39C701.33,-73.3 706.28,-70.44 711.29,-68.53 855.79,-13.52 910.4,-80.76 1057.29,-32.53 1058.55,-32.11 1059.82,-31.63 1061.07,-31.1"/>
<polygon fill="red" stroke="red" stroke-width="0.47" points="1063.03,-34.03 1070.32,-26.34 1059.83,-27.81 1063.03,-34.03"/>
</g>
<!-- 392&#45;&gt;3 -->
<g id="edge76" class="edge">
<title>392&#45;&gt;3</title>
<path fill="none" stroke="red" stroke-width="0.53" d="M697.31,-77.38C701.77,-74.24 706.59,-71.1 711.29,-68.53 749.46,-47.66 763.2,-51.59 802.29,-32.53 803.46,-31.96 804.64,-31.36 805.83,-30.74"/>
<polygon fill="red" stroke="red" stroke-width="0.53" points="807.73,-33.68 814.75,-25.75 804.31,-27.57 807.73,-33.68"/>
</g>
<!-- 392&#45;&gt;4 -->
<g id="edge77" class="edge">
<title>392&#45;&gt;4</title>
<path fill="none" stroke="green" stroke-width="0.27" d="M697.08,-76.92C701.55,-73.81 706.43,-70.79 711.29,-68.53 770.31,-41.03 793.06,-57.25 853.29,-32.53 854.52,-32.02 855.76,-31.47 856.99,-30.88"/>
<polygon fill="green" stroke="green" stroke-width="0.27" points="859.03,-33.76 866.17,-25.94 855.71,-27.6 859.03,-33.76"/>
</g>
<!-- 392&#45;&gt;5 -->
<g id="edge78" class="edge">
<title>392&#45;&gt;5</title>
<path fill="none" stroke="red" stroke-width="0.17" d="M691.41,-71.78C697.94,-61.58 705.83,-49.25 712.45,-38.9"/>
<polygon fill="red" stroke="red" stroke-width="0.17" points="715.44,-40.73 717.88,-30.42 709.54,-36.95 715.44,-40.73"/>
</g>
<!-- 392&#45;&gt;6 -->
<g id="edge79" class="edge">
<title>392&#45;&gt;6</title>
<path fill="none" stroke="red" stroke-width="0.18" d="M696.88,-76.46C701.36,-73.37 706.3,-70.48 711.29,-68.53 834.31,-20.44 881.17,-74.85 1006.29,-32.53 1007.55,-32.1 1008.81,-31.61 1010.06,-31.07"/>
<polygon fill="red" stroke="red" stroke-width="0.18" points="1012.03,-34 1019.3,-26.29 1008.81,-27.78 1012.03,-34"/>
</g>
<!-- 392&#45;&gt;7 -->
<g id="edge80" class="edge">
<title>392&#45;&gt;7</title>
<path fill="none" stroke="red" stroke-width="0.16" d="M696.98,-76.69C701.45,-73.59 706.36,-70.64 711.29,-68.53 791.52,-34.22 822.56,-63.07 904.29,-32.53 905.53,-32.06 906.78,-31.54 908.03,-30.98"/>
<polygon fill="red" stroke="red" stroke-width="0.16" points="910.03,-33.88 917.24,-26.11 906.76,-27.69 910.03,-33.88"/>
</g>
<!-- 393&#45;&gt;0 -->
<g id="edge81" class="edge">
<title>393&#45;&gt;0</title>
<path fill="none" stroke="red" stroke-width="0.72" d="M764.01,-76.75C768.47,-73.64 773.38,-70.68 778.29,-68.53 851.85,-36.36 880.33,-61.24 955.29,-32.53 956.53,-32.05 957.78,-31.52 959.02,-30.95"/>
<polygon fill="red" stroke="red" stroke-width="0.72" points="961.03,-33.85 968.22,-26.07 957.75,-27.67 961.03,-33.85"/>
</g>
<!-- 393&#45;&gt;1 -->
<g id="edge82" class="edge">
<title>393&#45;&gt;1</title>
<path fill="none" stroke="red" stroke-width="0.22" d="M754.72,-70.18C758.62,-61.03 763.15,-50.42 767.12,-41.1"/>
<polygon fill="red" stroke="red" stroke-width="0.22" points="770.46,-42.21 771.16,-31.64 764.02,-39.46 770.46,-42.21"/>
</g>
<!-- 393&#45;&gt;2 -->
<g id="edge83" class="edge">
<title>393&#45;&gt;2</title>
<path fill="none" stroke="red" stroke-width="0.19" d="M763.89,-76.49C768.37,-73.39 773.3,-70.5 778.29,-68.53 894.58,-22.61 938.99,-72.99 1057.29,-32.53 1058.55,-32.1 1059.81,-31.6 1061.06,-31.06"/>
<polygon fill="red" stroke="red" stroke-width="0.19" points="1063.03,-33.98 1070.3,-26.27 1059.81,-27.77 1063.03,-33.98"/>
</g>
<!-- 393&#45;&gt;3 -->
<g id="edge84" class="edge">
<title>393&#45;&gt;3</title>
<path fill="none" stroke="green" stroke-width="0.16" d="M763.3,-76C776.85,-63.75 795.39,-47 809.2,-34.52"/>
<polygon fill="green" stroke="green" stroke-width="0.16" points="811.63,-37.04 816.71,-27.74 806.94,-31.84 811.63,-37.04"/>
</g>
<!-- 393&#45;&gt;4 -->
<g id="edge85" class="edge">
<title>393&#45;&gt;4</title>
<path fill="none" stroke="green" stroke-width="0.36" d="M764.8,-77.38C769.15,-74.3 773.8,-71.19 778.29,-68.53 810.09,-49.65 820.66,-49.9 853.29,-32.53 854.44,-31.92 855.6,-31.28 856.77,-30.64"/>
<polygon fill="green" stroke="green" stroke-width="0.36" points="858.71,-33.56 865.65,-25.56 855.23,-27.49 858.71,-33.56"/>
</g>
<!-- 393&#45;&gt;5 -->
<g id="edge86" class="edge">
<title>393&#45;&gt;5</title>
<path fill="none" stroke="red" stroke-width="0.14" d="M739.39,-68.95C737.25,-60.51 734.83,-50.95 732.65,-42.37"/>
<polygon fill="red" stroke="red" stroke-width="0.14" points="736.01,-41.35 730.16,-32.52 729.22,-43.07 736.01,-41.35"/>
</g>
<!-- 393&#45;&gt;6 -->
<g id="edge87" class="edge">
<title>393&#45;&gt;6</title>
<path fill="none" stroke="green" stroke-width="0.11" d="M763.94,-76.59C768.41,-73.49 773.33,-70.57 778.29,-68.53 873.17,-29.5 909.71,-67.1 1006.29,-32.53 1007.54,-32.08 1008.8,-31.57 1010.04,-31.02"/>
<polygon fill="green" stroke="green" stroke-width="0.11" points="1012.03,-33.93 1019.27,-26.19 1008.79,-27.73 1012.03,-33.93"/>
</g>
<!-- 393&#45;&gt;7 -->
<g id="edge88" class="edge">
<title>393&#45;&gt;7</title>
<path fill="none" stroke="green" stroke-width="0.49" d="M764.13,-77.03C768.6,-73.91 773.47,-70.87 778.29,-68.53 830.71,-43.14 850.75,-55.45 904.29,-32.53 905.51,-32.01 906.74,-31.44 907.97,-30.84"/>
<polygon fill="green" stroke="green" stroke-width="0.49" points="910.02,-33.71 917.14,-25.85 906.68,-27.56 910.02,-33.71"/>
</g>
<!-- 394&#45;&gt;0 -->
<g id="edge89" class="edge">
<title>394&#45;&gt;0</title>
<path fill="none" stroke="green" stroke-width="0.69" d="M831.2,-77.17C835.66,-74.04 840.51,-70.96 845.29,-68.53 891.16,-45.23 908.4,-53.67 955.29,-32.53 956.47,-31.99 957.67,-31.42 958.87,-30.82"/>
<polygon fill="green" stroke="green" stroke-width="0.69" points="960.74,-33.79 967.82,-25.91 957.37,-27.65 960.74,-33.79"/>
</g>
<!-- 394&#45;&gt;1 -->
<g id="edge90" class="edge">
<title>394&#45;&gt;1</title>
<path fill="none" stroke="green" stroke-width="0.39" d="M802.17,-70.58C797.79,-61.2 792.67,-50.21 788.21,-40.65"/>
<polygon fill="green" stroke="green" stroke-width="0.39" points="791.26,-38.92 783.86,-31.34 784.92,-41.88 791.26,-38.92"/>
</g>
<!-- 394&#45;&gt;2 -->
<g id="edge91" class="edge">
<title>394&#45;&gt;2</title>
<path fill="none" stroke="red" stroke-width="0.46" d="M830.95,-76.63C835.42,-73.53 840.34,-70.6 845.29,-68.53 933.47,-31.66 967.5,-65.26 1057.29,-32.53 1058.54,-32.07 1059.79,-31.56 1061.04,-31"/>
<polygon fill="red" stroke="red" stroke-width="0.46" points="1063.03,-33.91 1070.26,-26.16 1059.78,-27.71 1063.03,-33.91"/>
</g>
<!-- 394&#45;&gt;3 -->
<g id="edge92" class="edge">
<title>394&#45;&gt;3</title>
<path fill="none" stroke="green" stroke-width="0.64" d="M817.27,-68.95C819.07,-60.51 821.11,-50.95 822.94,-42.37"/>
<polygon fill="green" stroke="green" stroke-width="0.64" points="826.38,-43.03 825.04,-32.52 819.53,-41.57 826.38,-43.03"/>
</g>
<!-- 394&#45;&gt;4 -->
<g id="edge93" class="edge">
<title>394&#45;&gt;4</title>
<path fill="none" stroke="red" stroke-width="0.31" d="M828.51,-74.12C838.61,-62.81 851.59,-48.28 861.9,-36.74"/>
<polygon fill="red" stroke="red" stroke-width="0.31" points="864.81,-38.74 868.86,-28.95 859.58,-34.07 864.81,-38.74"/>
</g>
<!-- 394&#45;&gt;5 -->
<g id="edge94" class="edge">
<title>394&#45;&gt;5</title>
<path fill="none" stroke="red" stroke-width="0.27" d="M794.06,-76.37C779.96,-64.07 760.48,-47.08 746.02,-34.47"/>
<polygon fill="red" stroke="red" stroke-width="0.27" points="748,-31.56 738.17,-27.62 743.4,-36.83 748,-31.56"/>
</g>
<!-- 394&#45;&gt;6 -->
<g id="edge95" class="edge">
<title>394&#45;&gt;6</title>
<path fill="none" stroke="green" stroke-width="0.43" d="M831.04,-76.82C835.5,-73.71 840.4,-70.72 845.29,-68.53 912.19,-38.5 938.08,-59.41 1006.29,-32.53 1007.53,-32.04 1008.77,-31.5 1010.01,-30.93"/>
<polygon fill="green" stroke="green" stroke-width="0.43" points="1012.03,-33.81 1019.2,-26.02 1008.73,-27.64 1012.03,-33.81"/>
</g>
<!-- 394&#45;&gt;7 -->
<g id="edge96" class="edge">
<title>394&#45;&gt;7</title>
<path fill="none" stroke="green" stroke-width="0.87" d="M832,-77.69C836.34,-74.6 840.93,-71.4 845.29,-68.53 856.76,-60.96 886.9,-42.94 908.02,-30.42"/>
<polygon fill="green" stroke="green" stroke-width="0.87" points="909.89,-33.38 916.71,-25.27 906.32,-27.36 909.89,-33.38"/>
</g>
<!-- 395&#45;&gt;0 -->
<g id="edge97" class="edge">
<title>395&#45;&gt;0</title>
<path fill="none" stroke="red" stroke-width="0.46" d="M898.96,-77.81C916.57,-64.86 942.32,-45.92 960.32,-32.69"/>
<polygon fill="red" stroke="red" stroke-width="0.46" points="962.48,-35.44 968.47,-26.7 958.34,-29.8 962.48,-35.44"/>
</g>
<!-- 395&#45;&gt;1 -->
<g id="edge98" class="edge">
<title>395&#45;&gt;1</title>
<path fill="none" stroke="red" stroke-width="0.2" d="M859.63,-77.81C842.02,-64.86 816.27,-45.92 798.27,-32.69"/>
<polygon fill="red" stroke="red" stroke-width="0.2" points="800.25,-29.8 790.12,-26.7 796.1,-35.44 800.25,-29.8"/>
</g>
<!-- 395&#45;&gt;2 -->
<g id="edge99" class="edge">
<title>395&#45;&gt;2</title>
<path fill="none" stroke="green" stroke-width="0.21" d="M898.07,-76.91C902.54,-73.79 907.43,-70.78 912.29,-68.53 972.55,-40.63 995.81,-57.59 1057.29,-32.53 1058.52,-32.03 1059.76,-31.48 1060.99,-30.89"/>
<polygon fill="green" stroke="green" stroke-width="0.21" points="1063.03,-33.77 1070.18,-25.95 1059.71,-27.61 1063.03,-33.77"/>
</g>
<!-- 395&#45;&gt;3 -->
<g id="edge100" class="edge">
<title>395&#45;&gt;3</title>
<path fill="none" stroke="green" stroke-width="0.18" d="M865.63,-72.17C858.53,-61.73 849.85,-48.98 842.66,-38.39"/>
<polygon fill="green" stroke="green" stroke-width="0.18" points="845.54,-36.4 837.02,-30.1 839.75,-40.34 845.54,-36.4"/>
</g>
<!-- 395&#45;&gt;4 -->
<g id="edge101" class="edge">
<title>395&#45;&gt;4</title>
<path fill="none" stroke="red" stroke-width="0.48" d="M879.29,-68.13C879.29,-60.03 879.29,-50.97 879.29,-42.77"/>
<polygon fill="red" stroke="red" stroke-width="0.48" points="882.79,-42.64 879.29,-32.64 875.79,-42.64 882.79,-42.64"/>
</g>
<!-- 395&#45;&gt;5 -->
<g id="edge102" class="edge">
<title>395&#45;&gt;5</title>
<path fill="none" stroke="green" stroke-width="0.21" d="M860.29,-77.34C855.84,-74.2 851.01,-71.07 846.29,-68.53 806.92,-47.28 792.61,-51.92 752.29,-32.53 751.13,-31.97 749.94,-31.37 748.75,-30.75"/>
<polygon fill="green" stroke="green" stroke-width="0.21" points="750.26,-27.59 739.83,-25.78 746.86,-33.7 750.26,-27.59"/>
</g>
<!-- 395&#45;&gt;6 -->
<g id="edge103" class="edge">
<title>395&#45;&gt;6</title>
<path fill="none" stroke="green" stroke-width="0.12" d="M898.29,-77.34C902.75,-74.2 907.57,-71.07 912.29,-68.53 951.67,-47.28 965.98,-51.92 1006.29,-32.53 1007.46,-31.97 1008.65,-31.37 1009.83,-30.75"/>
<polygon fill="green" stroke="green" stroke-width="0.12" points="1011.73,-33.7 1018.76,-25.78 1008.32,-27.59 1011.73,-33.7"/>
</g>
<!-- 395&#45;&gt;7 -->
<g id="edge104" class="edge">
<title>395&#45;&gt;7</title>
<path fill="none" stroke="red" stroke-width="0.17" d="M892.96,-72.17C900.06,-61.73 908.73,-48.98 915.93,-38.39"/>
<polygon fill="red" stroke="red" stroke-width="0.17" points="918.84,-40.34 921.56,-30.1 913.05,-36.4 918.84,-40.34"/>
</g>
<!-- 396&#45;&gt;0 -->
<g id="edge105" class="edge">
<title>396&#45;&gt;0</title>
<path fill="none" stroke="green" stroke-width="0.16" d="M956.42,-70.58C960.79,-61.2 965.92,-50.21 970.38,-40.65"/>
<polygon fill="green" stroke="green" stroke-width="0.16" points="973.67,-41.88 974.73,-31.34 967.33,-38.92 973.67,-41.88"/>
</g>
<!-- 396&#45;&gt;1 -->
<g id="edge106" class="edge">
<title>396&#45;&gt;1</title>
<path fill="none" stroke="red" stroke-width="0.33" d="M927.39,-77.17C922.93,-74.04 918.08,-70.96 913.29,-68.53 867.43,-45.23 850.19,-53.67 803.29,-32.53 802.11,-31.99 800.92,-31.42 799.72,-30.82"/>
<polygon fill="red" stroke="red" stroke-width="0.33" points="801.21,-27.65 790.76,-25.91 797.85,-33.79 801.21,-27.65"/>
</g>
<!-- 396&#45;&gt;2 -->
<g id="edge107" class="edge">
<title>396&#45;&gt;2</title>
<path fill="none" stroke="green" stroke-width="0.38" d="M965.42,-77.57C969.87,-74.42 974.66,-71.23 979.29,-68.53 1012.27,-49.29 1023.46,-50.21 1057.29,-32.53 1058.44,-31.93 1059.61,-31.3 1060.79,-30.66"/>
<polygon fill="green" stroke="green" stroke-width="0.38" points="1062.71,-33.59 1069.67,-25.6 1059.25,-27.5 1062.71,-33.59"/>
</g>
<!-- 396&#45;&gt;3 -->
<g id="edge108" class="edge">
<title>396&#45;&gt;3</title>
<path fill="none" stroke="red" stroke-width="0.1" d="M926.58,-77.69C922.25,-74.6 917.65,-71.4 913.29,-68.53 901.83,-60.96 871.68,-42.94 850.57,-30.42"/>
<polygon fill="red" stroke="red" stroke-width="0.1" points="852.26,-27.36 841.88,-25.27 848.7,-33.38 852.26,-27.36"/>
</g>
<!-- 396&#45;&gt;4 -->
<g id="edge109" class="edge">
<title>396&#45;&gt;4</title>
<path fill="none" stroke="red" stroke-width="0.42" d="M930.07,-74.12C919.98,-62.81 907,-48.28 896.69,-36.74"/>
<polygon fill="red" stroke="red" stroke-width="0.42" points="899,-34.07 889.73,-28.95 893.78,-38.74 899,-34.07"/>
</g>
<!-- 396&#45;&gt;5 -->
<g id="edge110" class="edge">
<title>396&#45;&gt;5</title>
<path fill="none" stroke="red" stroke-width="0.6" d="M927.55,-76.82C923.08,-73.71 918.19,-70.72 913.29,-68.53 846.4,-38.5 820.51,-59.41 752.29,-32.53 751.06,-32.04 749.82,-31.5 748.58,-30.93"/>
<polygon fill="red" stroke="red" stroke-width="0.6" points="749.85,-27.64 739.38,-26.02 746.56,-33.81 749.85,-27.64"/>
</g>
<!-- 396&#45;&gt;6 -->
<g id="edge111" class="edge">
<title>396&#45;&gt;6</title>
<path fill="none" stroke="red" stroke-width="0.56" d="M964.53,-76.37C978.63,-64.07 998.11,-47.08 1012.57,-34.47"/>
<polygon fill="red" stroke="red" stroke-width="0.56" points="1015.18,-36.83 1020.42,-27.62 1010.58,-31.56 1015.18,-36.83"/>
</g>
<!-- 396&#45;&gt;7 -->
<g id="edge112" class="edge">
<title>396&#45;&gt;7</title>
<path fill="none" stroke="red" stroke-width="0.17" d="M941.32,-68.95C939.52,-60.51 937.48,-50.95 935.65,-42.37"/>
<polygon fill="red" stroke="red" stroke-width="0.17" points="939.06,-41.57 933.55,-32.52 932.21,-43.03 939.06,-41.57"/>
</g>
<!-- 397&#45;&gt;0 -->
<g id="edge113" class="edge">
<title>397&#45;&gt;0</title>
<path fill="none" stroke="red" stroke-width="0.22" d="M1003.87,-70.18C999.97,-61.03 995.44,-50.42 991.46,-41.1"/>
<polygon fill="red" stroke="red" stroke-width="0.22" points="994.57,-39.46 987.43,-31.64 988.13,-42.21 994.57,-39.46"/>
</g>
<!-- 397&#45;&gt;1 -->
<g id="edge114" class="edge">
<title>397&#45;&gt;1</title>
<path fill="none" stroke="red" stroke-width="0.37" stroke-dasharray="1,5" d="M994.58,-76.75C990.11,-73.64 985.21,-70.68 980.29,-68.53 906.74,-36.36 878.26,-61.24 803.29,-32.53 802.06,-32.05 800.81,-31.52 799.57,-30.95"/>
<polygon fill="red" stroke="red" stroke-width="0.37" points="800.84,-27.67 790.36,-26.07 797.55,-33.85 800.84,-27.67"/>
</g>
<!-- 397&#45;&gt;2 -->
<g id="edge115" class="edge">
<title>397&#45;&gt;2</title>
<path fill="none" stroke="green" stroke-width="0.12" d="M1029.88,-74.5C1040.66,-62.95 1054.69,-47.92 1065.66,-36.16"/>
<polygon fill="green" stroke="green" stroke-width="0.12" points="1068.43,-38.32 1072.7,-28.62 1063.31,-33.54 1068.43,-38.32"/>
</g>
<!-- 397&#45;&gt;3 -->
<g id="edge116" class="edge">
<title>397&#45;&gt;3</title>
<path fill="none" stroke="green" stroke-width="0.36" d="M994.45,-77.03C989.99,-73.91 985.12,-70.87 980.29,-68.53 927.88,-43.14 907.83,-55.45 854.29,-32.53 853.08,-32.01 851.84,-31.44 850.61,-30.84"/>
<polygon fill="green" stroke="green" stroke-width="0.36" points="851.91,-27.56 841.45,-25.85 848.56,-33.71 851.91,-27.56"/>
</g>
<!-- 397&#45;&gt;4 -->
<g id="edge117" class="edge">
<title>397&#45;&gt;4</title>
<path fill="none" stroke="red" stroke-width="0.74" d="M993.78,-77.38C989.44,-74.3 984.79,-71.19 980.29,-68.53 948.5,-49.65 937.93,-49.9 905.29,-32.53 904.15,-31.92 902.98,-31.28 901.81,-30.64"/>
<polygon fill="red" stroke="red" stroke-width="0.74" points="903.35,-27.49 892.94,-25.56 899.88,-33.56 903.35,-27.49"/>
</g>
<!-- 397&#45;&gt;5 -->
<g id="edge118" class="edge">
<title>397&#45;&gt;5</title>
<path fill="none" stroke="green" stroke-width="0.25" d="M994.65,-76.59C990.18,-73.49 985.25,-70.57 980.29,-68.53 885.42,-29.5 848.88,-67.1 752.29,-32.53 751.05,-32.08 749.79,-31.57 748.54,-31.02"/>
<polygon fill="green" stroke="green" stroke-width="0.25" points="749.8,-27.73 739.32,-26.19 746.55,-33.93 749.8,-27.73"/>
</g>
<!-- 397&#45;&gt;6 -->
<g id="edge119" class="edge">
<title>397&#45;&gt;6</title>
<path fill="none" stroke="red" stroke-width="0.27" d="M1019.2,-68.95C1021.34,-60.51 1023.76,-50.95 1025.94,-42.37"/>
<polygon fill="red" stroke="red" stroke-width="0.27" points="1029.37,-43.07 1028.43,-32.52 1022.58,-41.35 1029.37,-43.07"/>
</g>
<!-- 397&#45;&gt;7 -->
<g id="edge120" class="edge">
<title>397&#45;&gt;7</title>
<path fill="none" stroke="red" stroke-width="0.71" d="M995.28,-76C981.73,-63.75 963.2,-47 949.39,-34.52"/>
<polygon fill="red" stroke="red" stroke-width="0.71" points="951.65,-31.84 941.88,-27.74 946.95,-37.04 951.65,-31.84"/>
</g>
</g>
</svg>
