<?xml version="1.0" encoding="UTF-8" standalone="no"?>
<!DOCTYPE svg PUBLIC "-//W3C//DTD SVG 1.1//EN"
 "http://www.w3.org/Graphics/SVG/1.1/DTD/svg11.dtd">
<!-- Generated by graphviz version 2.44.0 (0)
 -->
<!-- Pages: 1 -->
<svg width="1777pt" height="180pt"
 viewBox="0.00 0.00 1776.56 180.02" xmlns="http://www.w3.org/2000/svg" xmlns:xlink="http://www.w3.org/1999/xlink">
<g id="graph0" class="graph" transform="scale(1 1) rotate(0) translate(4 176.02)">
<polygon fill="white" stroke="transparent" points="-4,4 -4,-176.02 1772.56,-176.02 1772.56,4 -4,4"/>
<!-- &#45;1 -->
<g id="node1" class="node">
<title>&#45;1</title>
<polygon fill="lightgray" stroke="black" points="833.26,-172.02 807.26,-172.02 807.26,-154.02 833.26,-154.02 833.26,-172.02"/>
<text text-anchor="middle" x="820.26" y="-160.82" font-family="Times-Roman" font-size="9.00">&#45;1</text>
</g>
<!-- 0 -->
<g id="node5" class="node">
<title>0</title>
<ellipse fill="lightblue" stroke="black" cx="900.26" cy="-16.26" rx="16.03" ry="16.03"/>
<text text-anchor="middle" x="900.26" y="-14.06" font-family="Times-Roman" font-size="9.00">0</text>
</g>
<!-- &#45;1&#45;&gt;0 -->
<g id="edge120" class="edge">
<title>&#45;1&#45;&gt;0</title>
<path fill="none" stroke="red" stroke-width="0.17" d="M833.32,-157.2C836.54,-156.08 840.01,-154.95 843.26,-154.02 913.35,-134.02 957.73,-174.94 1003.26,-118.02 1017,-100.85 1014.84,-87.23 1003.26,-68.53 998.72,-61.2 953.46,-40.44 924.47,-27.7"/>
<polygon fill="red" stroke="red" stroke-width="0.17" points="925.55,-24.35 914.98,-23.56 922.75,-30.77 925.55,-24.35"/>
</g>
<!-- 1 -->
<g id="node6" class="node">
<title>1</title>
<ellipse fill="lightblue" stroke="black" cx="819.26" cy="-16.26" rx="16.03" ry="16.03"/>
<text text-anchor="middle" x="819.26" y="-14.06" font-family="Times-Roman" font-size="9.00">1</text>
</g>
<!-- &#45;1&#45;&gt;1 -->
<g id="edge121" class="edge">
<title>&#45;1&#45;&gt;1</title>
<path fill="none" stroke="red" stroke-width="0.16" d="M807.1,-158.54C800.82,-156.98 793.19,-155.22 786.26,-154.02 714.87,-141.71 510.58,-172 462.26,-118.02 447.59,-101.63 447.6,-84.93 462.26,-68.53 509.79,-15.33 712.09,-49.98 781.26,-32.53 785.88,-31.36 790.69,-29.76 795.27,-28.03"/>
<polygon fill="red" stroke="red" stroke-width="0.16" points="796.83,-31.17 804.77,-24.15 794.19,-24.69 796.83,-31.17"/>
</g>
<!-- 2 -->
<g id="node7" class="node">
<title>2</title>
<ellipse fill="lightblue" stroke="black" cx="756.26" cy="-16.26" rx="16.03" ry="16.03"/>
<text text-anchor="middle" x="756.26" y="-14.06" font-family="Times-Roman" font-size="9.00">2</text>
</g>
<!-- &#45;1&#45;&gt;2 -->
<g id="edge122" class="edge">
<title>&#45;1&#45;&gt;2</title>
<path fill="none" stroke="red" stroke-width="0.31" d="M807.11,-158.43C800.85,-156.84 793.21,-155.1 786.26,-154.02 734.39,-145.99 350.93,-156.53 315.26,-118.02 300.31,-101.89 300.41,-84.76 315.26,-68.53 375.94,-2.18 630.83,-53.51 718.26,-32.53 722.9,-31.41 727.71,-29.84 732.29,-28.12"/>
<polygon fill="red" stroke="red" stroke-width="0.31" points="733.86,-31.26 741.79,-24.24 731.21,-24.78 733.86,-31.26"/>
</g>
<!-- 3 -->
<g id="node8" class="node">
<title>3</title>
<ellipse fill="lightblue" stroke="black" cx="693.26" cy="-16.26" rx="16.03" ry="16.03"/>
<text text-anchor="middle" x="693.26" y="-14.06" font-family="Times-Roman" font-size="9.00">3</text>
</g>
<!-- &#45;1&#45;&gt;3 -->
<g id="edge123" class="edge">
<title>&#45;1&#45;&gt;3</title>
<path fill="none" stroke="red" stroke-width="0.16" d="M807.12,-158.37C800.86,-156.77 793.22,-155.04 786.26,-154.02 717.65,-144.05 210.86,-168.45 163.26,-118.02 148.16,-102.03 148.28,-84.64 163.26,-68.53 200.89,-28.07 605.69,-46.05 659.26,-32.53 662.76,-31.65 666.34,-30.42 669.81,-29.05"/>
<polygon fill="red" stroke="red" stroke-width="0.16" points="671.37,-32.19 679.1,-24.95 668.54,-25.79 671.37,-32.19"/>
</g>
<!-- 4 -->
<g id="node9" class="node">
<title>4</title>
<ellipse fill="lightblue" stroke="black" cx="965.26" cy="-16.26" rx="16.03" ry="16.03"/>
<text text-anchor="middle" x="965.26" y="-14.06" font-family="Times-Roman" font-size="9.00">4</text>
</g>
<!-- &#45;1&#45;&gt;4 -->
<g id="edge124" class="edge">
<title>&#45;1&#45;&gt;4</title>
<path fill="none" stroke="red" stroke-width="0.28" d="M833.72,-156.69C836.81,-155.65 840.12,-154.68 843.26,-154.02 895.85,-143.11 1288.73,-157.39 1325.26,-118.02 1340.23,-101.9 1339.94,-84.91 1325.26,-68.53 1276.48,-14.08 1068.69,-52.13 998.26,-32.53 995.04,-31.63 991.74,-30.45 988.52,-29.14"/>
<polygon fill="red" stroke="red" stroke-width="0.28" points="989.89,-25.92 979.33,-25 987.01,-32.3 989.89,-25.92"/>
</g>
<!-- 5 -->
<g id="node10" class="node">
<title>5</title>
<ellipse fill="lightblue" stroke="black" cx="1023.26" cy="-16.26" rx="16.03" ry="16.03"/>
<text text-anchor="middle" x="1023.26" y="-14.06" font-family="Times-Roman" font-size="9.00">5</text>
</g>
<!-- &#45;1&#45;&gt;5 -->
<g id="edge125" class="edge">
<title>&#45;1&#45;&gt;5</title>
<path fill="none" stroke="red" stroke-width="0.19" d="M833.72,-156.68C836.81,-155.64 840.11,-154.67 843.26,-154.02 897.92,-142.76 1306.24,-158.88 1344.26,-118.02 1359.25,-101.92 1358.83,-85.01 1344.26,-68.53 1301.11,-19.71 1115.57,-51.59 1053.26,-32.53 1050.82,-31.78 1048.33,-30.84 1045.89,-29.8"/>
<polygon fill="red" stroke="red" stroke-width="0.19" points="1047.41,-26.65 1036.88,-25.46 1044.37,-32.95 1047.41,-26.65"/>
</g>
<!-- 6 -->
<g id="node11" class="node">
<title>6</title>
<ellipse fill="lightblue" stroke="black" cx="1078.26" cy="-16.26" rx="16.03" ry="16.03"/>
<text text-anchor="middle" x="1078.26" y="-14.06" font-family="Times-Roman" font-size="9.00">6</text>
</g>
<!-- &#45;1&#45;&gt;6 -->
<g id="edge126" class="edge">
<title>&#45;1&#45;&gt;6</title>
<path fill="none" stroke="red" stroke-width="0.21" d="M833.72,-156.68C836.81,-155.64 840.11,-154.67 843.26,-154.02 900,-142.41 1323.75,-160.37 1363.26,-118.02 1439.93,-35.87 1188.98,-20.65 1104.81,-17.88"/>
<polygon fill="red" stroke="red" stroke-width="0.21" points="1104.84,-14.37 1094.74,-17.58 1104.64,-21.37 1104.84,-14.37"/>
</g>
<!-- 7 -->
<g id="node12" class="node">
<title>7</title>
<ellipse fill="lightblue" stroke="black" cx="634.26" cy="-16.26" rx="16.03" ry="16.03"/>
<text text-anchor="middle" x="634.26" y="-14.06" font-family="Times-Roman" font-size="9.00">7</text>
</g>
<!-- &#45;1&#45;&gt;7 -->
<g id="edge127" class="edge">
<title>&#45;1&#45;&gt;7</title>
<path fill="none" stroke="green" stroke-width="0.18" d="M807.13,-158.34C800.86,-156.74 793.23,-155.01 786.26,-154.02 705.08,-142.59 105.8,-177.39 49.26,-118.02 34.09,-102.09 34.4,-84.75 49.26,-68.53 87.47,-26.83 498.9,-18.9 607.89,-17.53"/>
<polygon fill="green" stroke="green" stroke-width="0.18" points="608.07,-21.03 618.02,-17.41 607.98,-14.03 608.07,-21.03"/>
</g>
<!-- 118 -->
<g id="node13" class="node">
<title>118</title>
<ellipse fill="white" stroke="black" cx="764.26" cy="-93.28" rx="25" ry="25"/>
<text text-anchor="middle" x="764.26" y="-91.08" font-family="Times-Roman" font-size="9.00">118</text>
</g>
<!-- &#45;1&#45;&gt;118 -->
<g id="edge1" class="edge">
<title>&#45;1&#45;&gt;118</title>
<path fill="none" stroke="green" stroke-width="0.18" d="M813.62,-153.99C806.84,-145.78 795.95,-132.61 786.12,-120.72"/>
<polygon fill="green" stroke="green" stroke-width="0.18" points="788.61,-118.24 779.55,-112.77 783.22,-122.7 788.61,-118.24"/>
</g>
<!-- 119 -->
<g id="node14" class="node">
<title>119</title>
<ellipse fill="white" stroke="black" cx="630.26" cy="-93.28" rx="25" ry="25"/>
<text text-anchor="middle" x="630.26" y="-91.08" font-family="Times-Roman" font-size="9.00">119</text>
</g>
<!-- &#45;1&#45;&gt;119 -->
<g id="edge2" class="edge">
<title>&#45;1&#45;&gt;119</title>
<path fill="none" stroke="green" stroke-width="0.63" d="M807.16,-158.98C774.36,-151.25 689.41,-130.61 663.26,-118.02 661.45,-117.15 659.63,-116.18 657.83,-115.14"/>
<polygon fill="green" stroke="green" stroke-width="0.63" points="659.4,-111.99 649.09,-109.54 655.62,-117.88 659.4,-111.99"/>
</g>
<!-- 120 -->
<g id="node15" class="node">
<title>120</title>
<ellipse fill="white" stroke="black" cx="831.26" cy="-93.28" rx="25" ry="25"/>
<text text-anchor="middle" x="831.26" y="-91.08" font-family="Times-Roman" font-size="9.00">120</text>
</g>
<!-- &#45;1&#45;&gt;120 -->
<g id="edge3" class="edge">
<title>&#45;1&#45;&gt;120</title>
<path fill="none" stroke="green" stroke-width="0.25" d="M821.57,-153.99C822.63,-147.43 824.21,-137.7 825.79,-127.98"/>
<polygon fill="green" stroke="green" stroke-width="0.25" points="829.26,-128.43 827.41,-118 822.35,-127.31 829.26,-128.43"/>
</g>
<!-- 121 -->
<g id="node16" class="node">
<title>121</title>
<ellipse fill="white" stroke="black" cx="1080.26" cy="-93.28" rx="25" ry="25"/>
<text text-anchor="middle" x="1080.26" y="-91.08" font-family="Times-Roman" font-size="9.00">121</text>
</g>
<!-- &#45;1&#45;&gt;121 -->
<g id="edge4" class="edge">
<title>&#45;1&#45;&gt;121</title>
<path fill="none" stroke="green" stroke-width="0.32" d="M833.29,-157.1C836.52,-155.99 839.99,-154.89 843.26,-154.02 929.76,-131.26 957.66,-149.82 1041.26,-118.02 1044.73,-116.71 1048.23,-115.08 1051.63,-113.3"/>
<polygon fill="green" stroke="green" stroke-width="0.32" points="1053.39,-116.32 1060.34,-108.33 1049.92,-110.24 1053.39,-116.32"/>
</g>
<!-- 122 -->
<g id="node17" class="node">
<title>122</title>
<ellipse fill="white" stroke="black" cx="1147.26" cy="-93.28" rx="25" ry="25"/>
<text text-anchor="middle" x="1147.26" y="-91.08" font-family="Times-Roman" font-size="9.00">122</text>
</g>
<!-- &#45;1&#45;&gt;122 -->
<g id="edge5" class="edge">
<title>&#45;1&#45;&gt;122</title>
<path fill="none" stroke="green" stroke-width="0.23" d="M833.75,-156.82C836.84,-155.77 840.14,-154.77 843.26,-154.02 961.47,-125.92 1001.33,-162.86 1114.26,-118.02 1116.13,-117.28 1117.99,-116.41 1119.83,-115.45"/>
<polygon fill="green" stroke="green" stroke-width="0.23" points="1121.95,-118.25 1128.65,-110.05 1118.3,-112.28 1121.95,-118.25"/>
</g>
<!-- 123 -->
<g id="node18" class="node">
<title>123</title>
<ellipse fill="white" stroke="black" cx="898.26" cy="-93.28" rx="25" ry="25"/>
<text text-anchor="middle" x="898.26" y="-91.08" font-family="Times-Roman" font-size="9.00">123</text>
</g>
<!-- &#45;1&#45;&gt;123 -->
<g id="edge6" class="edge">
<title>&#45;1&#45;&gt;123</title>
<path fill="none" stroke="red" stroke-width="0.24" d="M829.52,-153.99C839.93,-144.94 857.33,-129.83 872.01,-117.08"/>
<polygon fill="red" stroke="red" stroke-width="0.24" points="874.57,-119.49 879.83,-110.29 869.98,-114.2 874.57,-119.49"/>
</g>
<!-- 124 -->
<g id="node19" class="node">
<title>124</title>
<ellipse fill="white" stroke="black" cx="496.26" cy="-93.28" rx="25" ry="25"/>
<text text-anchor="middle" x="496.26" y="-91.08" font-family="Times-Roman" font-size="9.00">124</text>
</g>
<!-- &#45;1&#45;&gt;124 -->
<g id="edge7" class="edge">
<title>&#45;1&#45;&gt;124</title>
<path fill="none" stroke="red" stroke-width="0.28" d="M807.08,-158.63C800.8,-157.08 793.18,-155.32 786.26,-154.02 672.9,-132.79 636.31,-160.96 529.26,-118.02 527.39,-117.28 525.53,-116.4 523.7,-115.43"/>
<polygon fill="red" stroke="red" stroke-width="0.28" points="525.23,-112.27 514.88,-110.03 521.58,-118.23 525.23,-112.27"/>
</g>
<!-- 125 -->
<g id="node20" class="node">
<title>125</title>
<ellipse fill="white" stroke="black" cx="563.26" cy="-93.28" rx="25" ry="25"/>
<text text-anchor="middle" x="563.26" y="-91.08" font-family="Times-Roman" font-size="9.00">125</text>
</g>
<!-- &#45;1&#45;&gt;125 -->
<g id="edge8" class="edge">
<title>&#45;1&#45;&gt;125</title>
<path fill="none" stroke="red" stroke-width="0.18" d="M807.05,-158.77C800.77,-157.26 793.14,-155.49 786.26,-154.02 702.19,-136.18 675.24,-151.93 596.26,-118.02 594.41,-117.23 592.57,-116.32 590.75,-115.33"/>
<polygon fill="red" stroke="red" stroke-width="0.18" points="592.29,-112.17 581.95,-109.85 588.59,-118.11 592.29,-112.17"/>
</g>
<!-- 126 -->
<g id="node21" class="node">
<title>126</title>
<ellipse fill="white" stroke="black" cx="697.26" cy="-93.28" rx="25" ry="25"/>
<text text-anchor="middle" x="697.26" y="-91.08" font-family="Times-Roman" font-size="9.00">126</text>
</g>
<!-- &#45;1&#45;&gt;126 -->
<g id="edge9" class="edge">
<title>&#45;1&#45;&gt;126</title>
<path fill="none" stroke="green" stroke-width="0.18" d="M807.08,-156.42C789.22,-148.65 756.53,-133.74 730.26,-118.02 728.58,-117.02 726.88,-115.95 725.17,-114.85"/>
<polygon fill="green" stroke="green" stroke-width="0.18" points="727.03,-111.88 716.79,-109.15 723.09,-117.67 727.03,-111.88"/>
</g>
<!-- 127 -->
<g id="node22" class="node">
<title>127</title>
<ellipse fill="white" stroke="black" cx="1291.26" cy="-93.28" rx="25" ry="25"/>
<text text-anchor="middle" x="1291.26" y="-91.08" font-family="Times-Roman" font-size="9.00">127</text>
</g>
<!-- &#45;1&#45;&gt;127 -->
<g id="edge10" class="edge">
<title>&#45;1&#45;&gt;127</title>
<path fill="none" stroke="red" stroke-width="0.23" d="M833.73,-156.74C836.82,-155.7 840.12,-154.71 843.26,-154.02 1005.08,-118.56 1051.83,-150.6 1214.26,-118.02 1229.02,-115.06 1244.97,-110.4 1258.51,-105.98"/>
<polygon fill="red" stroke="red" stroke-width="0.23" points="1259.96,-109.19 1268.33,-102.69 1257.73,-102.55 1259.96,-109.19"/>
</g>
<!-- &#45;2 -->
<g id="node2" class="node">
<title>&#45;2</title>
<polygon fill="lightgray" stroke="black" points="777.26,-172.02 751.26,-172.02 751.26,-154.02 777.26,-154.02 777.26,-172.02"/>
<text text-anchor="middle" x="764.26" y="-160.82" font-family="Times-Roman" font-size="9.00">&#45;2</text>
</g>
<!-- &#45;2&#45;&gt;0 -->
<g id="edge128" class="edge">
<title>&#45;2&#45;&gt;0</title>
<path fill="none" stroke="red" stroke-width="0.19" d="M777.51,-158.78C816.74,-149.15 929.83,-121.18 932.26,-118.02 950.69,-94.14 932.27,-59.39 916.71,-37.58"/>
<polygon fill="red" stroke="red" stroke-width="0.19" points="919.35,-35.26 910.55,-29.36 913.75,-39.46 919.35,-35.26"/>
</g>
<!-- &#45;2&#45;&gt;1 -->
<g id="edge129" class="edge">
<title>&#45;2&#45;&gt;1</title>
<path fill="none" stroke="green" stroke-width="0.1" d="M751.08,-162.39C681.25,-163.92 360.93,-165.81 448.26,-68.53 497.98,-13.14 709.05,-50.57 781.26,-32.53 785.89,-31.37 790.7,-29.77 795.28,-28.04"/>
<polygon fill="green" stroke="green" stroke-width="0.1" points="796.84,-31.19 804.78,-24.17 794.19,-24.71 796.84,-31.19"/>
</g>
<!-- &#45;2&#45;&gt;2 -->
<g id="edge130" class="edge">
<title>&#45;2&#45;&gt;2</title>
<path fill="none" stroke="red" stroke-width="0.45" d="M751.23,-161.87C677.05,-160.86 310.19,-154.06 277.26,-118.02 262.42,-101.78 262.35,-84.7 277.26,-68.53 310.58,-32.38 670.41,-43.82 718.26,-32.53 722.9,-31.43 727.72,-29.86 732.3,-28.14"/>
<polygon fill="red" stroke="red" stroke-width="0.45" points="733.86,-31.29 741.8,-24.27 731.22,-24.81 733.86,-31.29"/>
</g>
<!-- &#45;2&#45;&gt;3 -->
<g id="edge131" class="edge">
<title>&#45;2&#45;&gt;3</title>
<path fill="none" stroke="green" stroke-width="0.12" d="M751.07,-162.17C663.6,-162.98 169.51,-165.42 125.26,-118.02 110.25,-101.94 110.24,-84.6 125.26,-68.53 165.87,-25.09 601.56,-46.93 659.26,-32.53 662.76,-31.65 666.34,-30.44 669.81,-29.07"/>
<polygon fill="green" stroke="green" stroke-width="0.12" points="671.37,-32.21 679.11,-24.97 668.55,-25.8 671.37,-32.21"/>
</g>
<!-- &#45;2&#45;&gt;4 -->
<g id="edge132" class="edge">
<title>&#45;2&#45;&gt;4</title>
<path fill="none" stroke="green" stroke-width="0.16" d="M777.42,-158.48C783.69,-156.91 791.32,-155.16 798.26,-154.02 840.44,-147.11 1152.49,-149.63 1181.26,-118.02 1196.07,-101.76 1195.24,-85.52 1181.26,-68.53 1128.61,-4.51 1077.11,-58.11 998.26,-32.53 995.08,-31.49 991.8,-30.24 988.6,-28.89"/>
<polygon fill="green" stroke="green" stroke-width="0.16" points="989.97,-25.67 979.42,-24.72 987.08,-32.04 989.97,-25.67"/>
</g>
<!-- &#45;2&#45;&gt;5 -->
<g id="edge133" class="edge">
<title>&#45;2&#45;&gt;5</title>
<path fill="none" stroke="green" stroke-width="0.2" d="M777.4,-158.4C783.67,-156.81 791.31,-155.07 798.26,-154.02 856.3,-145.27 1285.2,-160.92 1325.26,-118.02 1340.28,-101.95 1339.76,-85.07 1325.26,-68.53 1285.08,-22.67 1111.49,-50.61 1053.26,-32.53 1050.82,-31.77 1048.34,-30.82 1045.9,-29.78"/>
<polygon fill="green" stroke="green" stroke-width="0.2" points="1047.42,-26.62 1036.89,-25.43 1044.37,-32.93 1047.42,-26.62"/>
</g>
<!-- &#45;2&#45;&gt;6 -->
<g id="edge134" class="edge">
<title>&#45;2&#45;&gt;6</title>
<path fill="none" stroke="red" stroke-width="0.13" d="M777.4,-158.4C783.67,-156.81 791.3,-155.06 798.26,-154.02 858.39,-145.03 1302.71,-162.41 1344.26,-118.02 1415.98,-41.42 1185.34,-22.56 1104.9,-18.37"/>
<polygon fill="red" stroke="red" stroke-width="0.13" points="1104.75,-14.86 1094.59,-17.87 1104.41,-21.85 1104.75,-14.86"/>
</g>
<!-- &#45;2&#45;&gt;7 -->
<g id="edge135" class="edge">
<title>&#45;2&#45;&gt;7</title>
<path fill="none" stroke="red" stroke-width="0.25" d="M751.06,-161.76C652.73,-159.75 37.71,-146.07 11.26,-118.02 -3.83,-102.02 -3.64,-84.71 11.26,-68.53 52.22,-24.06 493.89,-18.16 607.66,-17.38"/>
<polygon fill="red" stroke="red" stroke-width="0.25" points="607.93,-20.88 617.9,-17.32 607.88,-13.88 607.93,-20.88"/>
</g>
<!-- &#45;2&#45;&gt;118 -->
<g id="edge11" class="edge">
<title>&#45;2&#45;&gt;118</title>
<path fill="none" stroke="red" stroke-width="0.22" d="M764.26,-153.99C764.26,-147.55 764.26,-138.05 764.26,-128.52"/>
<polygon fill="red" stroke="red" stroke-width="0.22" points="767.76,-128.3 764.26,-118.3 760.76,-128.3 767.76,-128.3"/>
</g>
<!-- &#45;2&#45;&gt;119 -->
<g id="edge12" class="edge">
<title>&#45;2&#45;&gt;119</title>
<path fill="none" stroke="green" stroke-width="0.19" d="M751.08,-157.32C731.38,-150.05 693.35,-135.15 663.26,-118.02 661.51,-117.03 659.75,-115.96 657.98,-114.85"/>
<polygon fill="green" stroke="green" stroke-width="0.19" points="659.6,-111.72 649.35,-109.05 655.7,-117.53 659.6,-111.72"/>
</g>
<!-- &#45;2&#45;&gt;120 -->
<g id="edge13" class="edge">
<title>&#45;2&#45;&gt;120</title>
<path fill="none" stroke="green" stroke-width="0.39" d="M772.21,-153.99C780.76,-145.34 794.79,-131.15 807.03,-118.78"/>
<polygon fill="green" stroke="green" stroke-width="0.39" points="809.81,-120.95 814.35,-111.38 804.83,-116.02 809.81,-120.95"/>
</g>
<!-- &#45;2&#45;&gt;121 -->
<g id="edge14" class="edge">
<title>&#45;2&#45;&gt;121</title>
<path fill="none" stroke="green" stroke-width="0.26" d="M777.46,-158.73C783.74,-157.21 791.37,-155.44 798.26,-154.02 888.88,-135.42 913.33,-139.7 1003.26,-118.02 1017.78,-114.52 1033.59,-109.81 1047.08,-105.51"/>
<polygon fill="green" stroke="green" stroke-width="0.26" points="1048.45,-108.74 1056.88,-102.32 1046.29,-102.08 1048.45,-108.74"/>
</g>
<!-- &#45;2&#45;&gt;122 -->
<g id="edge15" class="edge">
<title>&#45;2&#45;&gt;122</title>
<path fill="none" stroke="red" stroke-width="0.11" d="M777.43,-158.55C783.7,-156.99 791.33,-155.23 798.26,-154.02 937.52,-129.79 982.4,-168.96 1114.26,-118.02 1116.14,-117.3 1118.01,-116.44 1119.84,-115.49"/>
<polygon fill="red" stroke="red" stroke-width="0.11" points="1121.95,-118.3 1128.68,-110.12 1118.32,-112.32 1121.95,-118.3"/>
</g>
<!-- &#45;2&#45;&gt;123 -->
<g id="edge16" class="edge">
<title>&#45;2&#45;&gt;123</title>
<path fill="none" stroke="red" stroke-width="0.55" d="M777.44,-157.32C797.14,-150.05 835.17,-135.15 865.26,-118.02 867.01,-117.03 868.78,-115.96 870.54,-114.85"/>
<polygon fill="red" stroke="red" stroke-width="0.55" points="872.82,-117.53 879.18,-109.05 868.92,-111.72 872.82,-117.53"/>
</g>
<!-- &#45;2&#45;&gt;124 -->
<g id="edge17" class="edge">
<title>&#45;2&#45;&gt;124</title>
<path fill="none" stroke="red" stroke-width="0.11" d="M751.21,-161.56C714.67,-159.85 608.82,-152.08 529.26,-118.02 527.41,-117.23 525.57,-116.32 523.74,-115.33"/>
<polygon fill="red" stroke="red" stroke-width="0.11" points="525.29,-112.17 514.95,-109.86 521.59,-118.11 525.29,-112.17"/>
</g>
<!-- &#45;2&#45;&gt;125 -->
<g id="edge18" class="edge">
<title>&#45;2&#45;&gt;125</title>
<path fill="none" stroke="green" stroke-width="0.34" d="M751.06,-160.25C721.95,-155.99 650.55,-143.58 596.26,-118.02 594.44,-117.17 592.62,-116.21 590.81,-115.18"/>
<polygon fill="green" stroke="green" stroke-width="0.34" points="592.38,-112.02 582.06,-109.6 588.62,-117.93 592.38,-112.02"/>
</g>
<!-- &#45;2&#45;&gt;126 -->
<g id="edge19" class="edge">
<title>&#45;2&#45;&gt;126</title>
<path fill="none" stroke="red" stroke-width="0.11" d="M756.31,-153.99C747.76,-145.34 733.73,-131.15 721.5,-118.78"/>
<polygon fill="red" stroke="red" stroke-width="0.11" points="723.69,-116.02 714.17,-111.38 718.72,-120.95 723.69,-116.02"/>
</g>
<!-- &#45;3 -->
<g id="node3" class="node">
<title>&#45;3</title>
<polygon fill="lightgray" stroke="black" points="878.26,-172.02 852.26,-172.02 852.26,-154.02 878.26,-154.02 878.26,-172.02"/>
<text text-anchor="middle" x="865.26" y="-160.82" font-family="Times-Roman" font-size="9.00">&#45;3</text>
</g>
<!-- &#45;3&#45;&gt;0 -->
<g id="edge136" class="edge">
<title>&#45;3&#45;&gt;0</title>
<path fill="none" stroke="red" stroke-width="0.39" stroke-dasharray="1,5" d="M878.59,-156.54C881.41,-155.56 884.4,-154.65 887.26,-154.02 934.96,-143.59 1292.18,-153.94 1325.26,-118.02 1340.17,-101.84 1340.08,-84.79 1325.26,-68.53 1267.4,-5 1023.95,-52.02 940.26,-32.53 934.97,-31.29 929.43,-29.52 924.23,-27.61"/>
<polygon fill="red" stroke="red" stroke-width="0.39" points="925.37,-24.3 914.78,-23.9 922.8,-30.81 925.37,-24.3"/>
</g>
<!-- &#45;3&#45;&gt;1 -->
<g id="edge137" class="edge">
<title>&#45;3&#45;&gt;1</title>
<path fill="none" stroke="green" stroke-width="0.45" d="M878.49,-155.29C896.29,-145.94 926.38,-128.92 932.26,-118.02 942.71,-98.66 944.18,-87.02 932.26,-68.53 922.24,-52.98 874.8,-35.22 844.67,-25.21"/>
<polygon fill="green" stroke="green" stroke-width="0.45" points="845.41,-21.77 834.82,-22.01 843.25,-28.43 845.41,-21.77"/>
</g>
<!-- &#45;3&#45;&gt;2 -->
<g id="edge138" class="edge">
<title>&#45;3&#45;&gt;2</title>
<path fill="none" stroke="red" stroke-width="0.21" d="M851.8,-156.74C848.7,-155.69 845.4,-154.71 842.26,-154.02 759.38,-135.96 519.34,-180.77 462.26,-118.02 447.46,-101.75 447.83,-85.13 462.26,-68.53 499.95,-25.17 662.76,-47.34 718.26,-32.53 722.87,-31.3 727.67,-29.66 732.25,-27.92"/>
<polygon fill="red" stroke="red" stroke-width="0.21" points="733.8,-31.07 741.75,-24.06 731.17,-24.59 733.8,-31.07"/>
</g>
<!-- &#45;3&#45;&gt;3 -->
<g id="edge139" class="edge">
<title>&#45;3&#45;&gt;3</title>
<path fill="none" stroke="red" stroke-width="0.17" d="M851.8,-156.73C848.71,-155.68 845.4,-154.7 842.26,-154.02 756.33,-135.44 507.53,-182.96 448.26,-118.02 433.43,-101.78 434.07,-85.34 448.26,-68.53 478.94,-32.17 613.76,-46.38 659.26,-32.53 662.71,-31.48 666.26,-30.16 669.72,-28.75"/>
<polygon fill="red" stroke="red" stroke-width="0.17" points="671.29,-31.88 679.01,-24.63 668.45,-25.48 671.29,-31.88"/>
</g>
<!-- &#45;3&#45;&gt;4 -->
<g id="edge140" class="edge">
<title>&#45;3&#45;&gt;4</title>
<path fill="none" stroke="red" stroke-width="0.16" d="M878.59,-156.53C881.41,-155.55 884.4,-154.64 887.26,-154.02 937.04,-143.22 1309.69,-155.43 1344.26,-118.02 1359.19,-101.87 1358.99,-84.87 1344.26,-68.53 1292.51,-11.11 1072.8,-53.03 998.26,-32.53 995.04,-31.64 991.73,-30.47 988.52,-29.16"/>
<polygon fill="red" stroke="red" stroke-width="0.16" points="989.88,-25.94 979.33,-25.02 987.01,-32.32 989.88,-25.94"/>
</g>
<!-- &#45;3&#45;&gt;5 -->
<g id="edge141" class="edge">
<title>&#45;3&#45;&gt;5</title>
<path fill="none" stroke="red" stroke-width="0.26" d="M878.59,-156.52C881.41,-155.54 884.4,-154.64 887.26,-154.02 939.11,-142.86 1327.2,-156.92 1363.26,-118.02 1378.22,-101.89 1377.89,-84.96 1363.26,-68.53 1317.14,-16.74 1119.66,-52.57 1053.26,-32.53 1050.81,-31.79 1048.33,-30.86 1045.89,-29.82"/>
<polygon fill="red" stroke="red" stroke-width="0.26" points="1047.4,-26.66 1036.87,-25.48 1044.36,-32.97 1047.4,-26.66"/>
</g>
<!-- &#45;3&#45;&gt;6 -->
<g id="edge142" class="edge">
<title>&#45;3&#45;&gt;6</title>
<path fill="none" stroke="red" stroke-width="0.4" d="M878.59,-156.52C881.41,-155.54 884.4,-154.64 887.26,-154.02 941.19,-142.49 1344.71,-158.41 1382.26,-118.02 1463.78,-30.36 1193.18,-18.88 1105.06,-17.45"/>
<polygon fill="red" stroke="red" stroke-width="0.4" points="1104.84,-13.94 1094.8,-17.31 1104.75,-20.94 1104.84,-13.94"/>
</g>
<!-- &#45;3&#45;&gt;7 -->
<g id="edge143" class="edge">
<title>&#45;3&#45;&gt;7</title>
<path fill="none" stroke="red" stroke-width="0.5" d="M851.8,-156.72C848.71,-155.68 845.4,-154.7 842.26,-154.02 797.76,-144.48 464.99,-151.59 434.26,-118.02 419.41,-101.8 420.77,-85.91 434.26,-68.53 455.46,-41.21 558.28,-25.95 607.67,-20.09"/>
<polygon fill="red" stroke="red" stroke-width="0.5" points="608.36,-23.54 617.9,-18.92 607.57,-16.58 608.36,-23.54"/>
</g>
<!-- &#45;3&#45;&gt;118 -->
<g id="edge20" class="edge">
<title>&#45;3&#45;&gt;118</title>
<path fill="none" stroke="red" stroke-width="0.23" d="M852.35,-153.94C838.58,-145.25 816.19,-130.95 797.26,-118.02 795.64,-116.92 793.99,-115.78 792.32,-114.61"/>
<polygon fill="red" stroke="red" stroke-width="0.23" points="794.23,-111.67 784.04,-108.75 790.18,-117.39 794.23,-111.67"/>
</g>
<!-- &#45;3&#45;&gt;119 -->
<g id="edge21" class="edge">
<title>&#45;3&#45;&gt;119</title>
<path fill="none" stroke="red" stroke-width="0.26" d="M852.22,-157.14C848.99,-156.03 845.52,-154.92 842.26,-154.02 763.98,-132.65 737.65,-150.46 663.26,-118.02 661.42,-117.22 659.58,-116.3 657.76,-115.3"/>
<polygon fill="red" stroke="red" stroke-width="0.26" points="659.3,-112.14 648.97,-109.81 655.59,-118.08 659.3,-112.14"/>
</g>
<!-- &#45;3&#45;&gt;120 -->
<g id="edge22" class="edge">
<title>&#45;3&#45;&gt;120</title>
<path fill="none" stroke="red" stroke-width="0.19" d="M861.23,-153.99C857.58,-146.72 851.98,-135.55 846.6,-124.83"/>
<polygon fill="red" stroke="red" stroke-width="0.19" points="849.59,-123 841.98,-115.63 843.34,-126.14 849.59,-123"/>
</g>
<!-- &#45;3&#45;&gt;121 -->
<g id="edge23" class="edge">
<title>&#45;3&#45;&gt;121</title>
<path fill="none" stroke="red" stroke-width="0.48" d="M878.67,-156.86C881.49,-155.86 884.46,-154.86 887.26,-154.02 954.63,-133.98 976.2,-144.64 1041.26,-118.02 1044.69,-116.62 1048.17,-114.94 1051.56,-113.13"/>
<polygon fill="red" stroke="red" stroke-width="0.48" points="1053.34,-116.14 1060.26,-108.12 1049.85,-110.07 1053.34,-116.14"/>
</g>
<!-- &#45;3&#45;&gt;122 -->
<g id="edge24" class="edge">
<title>&#45;3&#45;&gt;122</title>
<path fill="none" stroke="green" stroke-width="0.25" d="M878.63,-156.7C881.45,-155.71 884.43,-154.76 887.26,-154.02 986.16,-128.45 1019.8,-156.91 1114.26,-118.02 1116.12,-117.26 1117.98,-116.37 1119.8,-115.39"/>
<polygon fill="green" stroke="green" stroke-width="0.25" points="1121.94,-118.19 1128.62,-109.96 1118.27,-112.23 1121.94,-118.19"/>
</g>
<!-- &#45;3&#45;&gt;123 -->
<g id="edge25" class="edge">
<title>&#45;3&#45;&gt;123</title>
<path fill="none" stroke="green" stroke-width="0.48" d="M869.18,-153.99C872.69,-146.78 878.08,-135.72 883.26,-125.07"/>
<polygon fill="green" stroke="green" stroke-width="0.48" points="886.48,-126.45 887.72,-115.93 880.19,-123.38 886.48,-126.45"/>
</g>
<!-- &#45;3&#45;&gt;124 -->
<g id="edge26" class="edge">
<title>&#45;3&#45;&gt;124</title>
<path fill="none" stroke="green" stroke-width="0.28" d="M851.79,-156.78C848.69,-155.74 845.39,-154.74 842.26,-154.02 705.75,-122.83 659.86,-168.55 529.26,-118.02 527.39,-117.3 525.52,-116.44 523.68,-115.49"/>
<polygon fill="green" stroke="green" stroke-width="0.28" points="525.21,-112.32 514.84,-110.12 521.57,-118.3 525.21,-112.32"/>
</g>
<!-- &#45;3&#45;&gt;125 -->
<g id="edge27" class="edge">
<title>&#45;3&#45;&gt;125</title>
<path fill="none" stroke="green" stroke-width="0.25" d="M852.25,-157.02C849.02,-155.91 845.55,-154.83 842.26,-154.02 734.93,-127.76 698.69,-159.48 596.26,-118.02 594.4,-117.27 592.54,-116.39 590.71,-115.42"/>
<polygon fill="green" stroke="green" stroke-width="0.25" points="592.24,-112.25 581.89,-110 588.58,-118.22 592.24,-112.25"/>
</g>
<!-- &#45;3&#45;&gt;126 -->
<g id="edge28" class="edge">
<title>&#45;3&#45;&gt;126</title>
<path fill="none" stroke="red" stroke-width="0.46" d="M852.14,-157.4C848.92,-156.28 845.47,-155.1 842.26,-154.02 792.68,-137.43 776.94,-141.58 730.26,-118.02 728.47,-117.12 726.66,-116.12 724.87,-115.06"/>
<polygon fill="red" stroke="red" stroke-width="0.46" points="726.45,-111.91 716.16,-109.4 722.64,-117.78 726.45,-111.91"/>
</g>
<!-- &#45;3&#45;&gt;127 -->
<g id="edge29" class="edge">
<title>&#45;3&#45;&gt;127</title>
<path fill="none" stroke="green" stroke-width="0.13" d="M878.6,-156.6C881.43,-155.61 884.41,-154.69 887.26,-154.02 1029.65,-120.8 1071.09,-147.7 1214.26,-118.02 1229,-114.97 1244.95,-110.29 1258.49,-105.89"/>
<polygon fill="green" stroke="green" stroke-width="0.13" points="1259.93,-109.09 1268.31,-102.61 1257.72,-102.45 1259.93,-109.09"/>
</g>
<!-- &#45;4 -->
<g id="node4" class="node">
<title>&#45;4</title>
<polygon fill="lightgray" stroke="black" points="922.26,-172.02 896.26,-172.02 896.26,-154.02 922.26,-154.02 922.26,-172.02"/>
<text text-anchor="middle" x="909.26" y="-160.82" font-family="Times-Roman" font-size="9.00">&#45;4</text>
</g>
<!-- &#45;4&#45;&gt;0 -->
<g id="edge144" class="edge">
<title>&#45;4&#45;&gt;0</title>
<path fill="none" stroke="red" stroke-width="0.12" d="M922.42,-162.04C1003.56,-161.98 1433.69,-159.73 1472.26,-118.02 1487.2,-101.87 1487.28,-84.6 1472.26,-68.53 1431.81,-25.24 998.13,-45.23 940.26,-32.53 934.95,-31.36 929.41,-29.62 924.21,-27.72"/>
<polygon fill="red" stroke="red" stroke-width="0.12" points="925.34,-24.4 914.76,-23.99 922.78,-30.92 925.34,-24.4"/>
</g>
<!-- &#45;4&#45;&gt;1 -->
<g id="edge145" class="edge">
<title>&#45;4&#45;&gt;1</title>
<path fill="none" stroke="green" stroke-width="0.13" d="M922.55,-161.65C990.58,-159.61 1297.63,-148.73 1325.26,-118.02 1339.98,-101.67 1340.18,-84.69 1325.26,-68.53 1291.24,-31.67 924.67,-41.16 875.26,-32.53 865.06,-30.74 854.02,-27.93 844.46,-25.2"/>
<polygon fill="green" stroke="green" stroke-width="0.13" points="845.36,-21.82 834.78,-22.33 843.37,-28.53 845.36,-21.82"/>
</g>
<!-- &#45;4&#45;&gt;2 -->
<g id="edge146" class="edge">
<title>&#45;4&#45;&gt;2</title>
<path fill="none" stroke="green" stroke-width="0.45" d="M922.3,-161.92C985.89,-160.98 1257.44,-152.12 1181.26,-68.53 1123.09,-4.69 878.21,-52.84 794.26,-32.53 789.63,-31.41 784.81,-29.82 780.23,-28.1"/>
<polygon fill="green" stroke="green" stroke-width="0.45" points="781.31,-24.76 770.73,-24.23 778.67,-31.24 781.31,-24.76"/>
</g>
<!-- &#45;4&#45;&gt;3 -->
<g id="edge147" class="edge">
<title>&#45;4&#45;&gt;3</title>
<path fill="none" stroke="red" stroke-width="0.69" d="M895.93,-156.54C893.11,-155.56 890.12,-154.65 887.26,-154.02 840.98,-143.84 494.33,-152.92 462.26,-118.02 447.38,-101.83 448.17,-85.42 462.26,-68.53 519.26,-0.17 574.27,-58.94 659.26,-32.53 662.7,-31.46 666.26,-30.13 669.71,-28.71"/>
<polygon fill="red" stroke="red" stroke-width="0.69" points="671.28,-31.84 679,-24.59 668.44,-25.44 671.28,-31.84"/>
</g>
<!-- &#45;4&#45;&gt;4 -->
<g id="edge148" class="edge">
<title>&#45;4&#45;&gt;4</title>
<path fill="none" stroke="red" stroke-width="0.21" d="M922.4,-161.72C1017.65,-159.47 1599.23,-144.64 1624.26,-118.02 1639.33,-102 1639.36,-84.52 1624.26,-68.53 1576.43,-17.87 1065.85,-49.45 998.26,-32.53 995.02,-31.71 991.7,-30.58 988.48,-29.3"/>
<polygon fill="red" stroke="red" stroke-width="0.21" points="989.84,-26.08 979.29,-25.17 986.97,-32.46 989.84,-26.08"/>
</g>
<!-- &#45;4&#45;&gt;5 -->
<g id="edge149" class="edge">
<title>&#45;4&#45;&gt;5</title>
<path fill="none" stroke="green" stroke-width="0.15" d="M922.45,-161.84C1026.28,-160.29 1708.94,-148.94 1738.26,-118.02 1753.4,-102.06 1753.4,-84.49 1738.26,-68.53 1685.8,-13.24 1126.89,-52.24 1053.26,-32.53 1050.88,-31.89 1048.47,-31.05 1046.1,-30.09"/>
<polygon fill="green" stroke="green" stroke-width="0.15" points="1047.35,-26.8 1036.82,-25.68 1044.35,-33.13 1047.35,-26.8"/>
</g>
<!-- &#45;4&#45;&gt;6 -->
<g id="edge150" class="edge">
<title>&#45;4&#45;&gt;6</title>
<path fill="none" stroke="red" stroke-width="0.27" d="M922.42,-161.85C1027.48,-160.41 1727.22,-149.66 1757.26,-118.02 1772.41,-102.07 1772.22,-84.66 1757.26,-68.53 1712.2,-19.93 1225.07,-17.14 1104.93,-17.19"/>
<polygon fill="red" stroke="red" stroke-width="0.27" points="1104.77,-13.69 1094.77,-17.2 1104.78,-20.69 1104.77,-13.69"/>
</g>
<!-- &#45;4&#45;&gt;7 -->
<g id="edge151" class="edge">
<title>&#45;4&#45;&gt;7</title>
<path fill="none" stroke="red" stroke-width="0.26" d="M895.93,-156.54C893.11,-155.56 890.12,-154.65 887.26,-154.02 839.45,-143.57 481.42,-154.02 448.26,-118.02 433.36,-101.85 434.93,-86.03 448.26,-68.53 467.66,-43.06 561.75,-27.05 608.21,-20.57"/>
<polygon fill="red" stroke="red" stroke-width="0.26" points="608.7,-24.03 618.14,-19.23 607.76,-17.1 608.7,-24.03"/>
</g>
<!-- &#45;4&#45;&gt;118 -->
<g id="edge30" class="edge">
<title>&#45;4&#45;&gt;118</title>
<path fill="none" stroke="red" stroke-width="0.32" d="M896.02,-157.03C868.37,-146.59 806.34,-122.97 797.26,-118.02 795.5,-117.06 793.71,-116.02 791.94,-114.93"/>
<polygon fill="red" stroke="red" stroke-width="0.32" points="793.55,-111.79 783.28,-109.18 789.68,-117.62 793.55,-111.79"/>
</g>
<!-- &#45;4&#45;&gt;119 -->
<g id="edge31" class="edge">
<title>&#45;4&#45;&gt;119</title>
<path fill="none" stroke="red" stroke-width="0.21" d="M895.89,-156.71C893.07,-155.71 890.09,-154.76 887.26,-154.02 789.67,-128.68 756.46,-156.51 663.26,-118.02 661.4,-117.26 659.55,-116.37 657.72,-115.39"/>
<polygon fill="red" stroke="red" stroke-width="0.21" points="659.26,-112.22 648.91,-109.95 655.58,-118.18 659.26,-112.22"/>
</g>
<!-- &#45;4&#45;&gt;120 -->
<g id="edge32" class="edge">
<title>&#45;4&#45;&gt;120</title>
<path fill="none" stroke="red" stroke-width="0.92" d="M900.01,-153.99C889.59,-144.94 872.2,-129.83 857.51,-117.08"/>
<polygon fill="red" stroke="red" stroke-width="0.92" points="859.54,-114.2 849.7,-110.29 854.95,-119.49 859.54,-114.2"/>
</g>
<!-- &#45;4&#45;&gt;121 -->
<g id="edge33" class="edge">
<title>&#45;4&#45;&gt;121</title>
<path fill="none" stroke="green" stroke-width="0.47" d="M922.37,-158.71C946.53,-152.38 999.41,-137.44 1041.26,-118.02 1044.62,-116.46 1048.06,-114.68 1051.43,-112.81"/>
<polygon fill="green" stroke="green" stroke-width="0.47" points="1053.23,-115.81 1060.09,-107.74 1049.7,-109.77 1053.23,-115.81"/>
</g>
<!-- &#45;4&#45;&gt;122 -->
<g id="edge34" class="edge">
<title>&#45;4&#45;&gt;122</title>
<path fill="none" stroke="green" stroke-width="0.53" stroke-dasharray="1,5" d="M922.31,-161.08C955.63,-158.3 1046.05,-148.29 1114.26,-118.02 1116.1,-117.21 1117.94,-116.28 1119.75,-115.27"/>
<polygon fill="green" stroke="green" stroke-width="0.53" points="1121.93,-118.04 1128.53,-109.76 1118.2,-112.12 1121.93,-118.04"/>
</g>
<!-- &#45;4&#45;&gt;123 -->
<g id="edge35" class="edge">
<title>&#45;4&#45;&gt;123</title>
<path fill="none" stroke="green" stroke-width="0.22" d="M907.96,-153.99C906.89,-147.43 905.31,-137.7 903.73,-127.98"/>
<polygon fill="green" stroke="green" stroke-width="0.22" points="907.17,-127.31 902.11,-118 900.26,-128.43 907.17,-127.31"/>
</g>
<!-- &#45;4&#45;&gt;124 -->
<g id="edge36" class="edge">
<title>&#45;4&#45;&gt;124</title>
<path fill="none" stroke="red" stroke-width="0.27" d="M895.92,-156.58C893.1,-155.59 890.11,-154.68 887.26,-154.02 731.36,-118.43 678.81,-174.66 529.26,-118.02 527.38,-117.31 525.51,-116.46 523.67,-115.52"/>
<polygon fill="red" stroke="red" stroke-width="0.27" points="525.19,-112.35 514.82,-110.17 521.57,-118.34 525.19,-112.35"/>
</g>
<!-- &#45;4&#45;&gt;125 -->
<g id="edge37" class="edge">
<title>&#45;4&#45;&gt;125</title>
<path fill="none" stroke="green" stroke-width="0.21" d="M895.91,-156.63C893.09,-155.64 890.11,-154.71 887.26,-154.02 760.55,-123.56 717.6,-165.57 596.26,-118.02 594.39,-117.29 592.52,-116.43 590.69,-115.47"/>
<polygon fill="green" stroke="green" stroke-width="0.21" points="592.22,-112.3 581.86,-110.09 588.57,-118.28 592.22,-112.3"/>
</g>
<!-- &#45;4&#45;&gt;126 -->
<g id="edge38" class="edge">
<title>&#45;4&#45;&gt;126</title>
<path fill="none" stroke="green" stroke-width="0.12" d="M895.85,-156.85C893.04,-155.85 890.07,-154.85 887.26,-154.02 818.6,-133.75 795.49,-147.52 730.26,-118.02 728.43,-117.2 726.59,-116.26 724.78,-115.24"/>
<polygon fill="green" stroke="green" stroke-width="0.12" points="726.34,-112.09 716.01,-109.71 722.6,-118.01 726.34,-112.09"/>
</g>
<!-- &#45;4&#45;&gt;127 -->
<g id="edge39" class="edge">
<title>&#45;4&#45;&gt;127</title>
<path fill="none" stroke="green" stroke-width="0.15" d="M922.48,-162.28C969.09,-162.77 1129.61,-161.04 1252.26,-118.02 1255.76,-116.8 1259.28,-115.23 1262.7,-113.48"/>
<polygon fill="green" stroke="green" stroke-width="0.15" points="1264.44,-116.52 1271.42,-108.55 1261,-110.42 1264.44,-116.52"/>
</g>
<!-- 118&#45;&gt;0 -->
<g id="edge40" class="edge">
<title>118&#45;&gt;0</title>
<path fill="none" stroke="red" stroke-width="0.12" d="M783.8,-77.42C788.14,-74.35 792.79,-71.22 797.26,-68.53 823.4,-52.76 855.03,-37.55 876.28,-27.85"/>
<polygon fill="red" stroke="red" stroke-width="0.12" points="877.86,-30.98 885.54,-23.68 874.98,-24.6 877.86,-30.98"/>
</g>
<!-- 118&#45;&gt;1 -->
<g id="edge41" class="edge">
<title>118&#45;&gt;1</title>
<path fill="none" stroke="red" stroke-width="0.49" d="M778.43,-72.96C786.26,-62.27 796,-48.98 804.01,-38.07"/>
<polygon fill="red" stroke="red" stroke-width="0.49" points="806.89,-40.05 809.98,-29.92 801.25,-35.91 806.89,-40.05"/>
</g>
<!-- 118&#45;&gt;2 -->
<g id="edge42" class="edge">
<title>118&#45;&gt;2</title>
<path fill="none" stroke="red" stroke-width="0.12" d="M761.73,-68.54C760.85,-60.33 759.87,-51.1 758.98,-42.76"/>
<polygon fill="red" stroke="red" stroke-width="0.12" points="762.46,-42.38 757.92,-32.81 755.5,-43.12 762.46,-42.38"/>
</g>
<!-- 118&#45;&gt;3 -->
<g id="edge43" class="edge">
<title>118&#45;&gt;3</title>
<path fill="none" stroke="red" stroke-width="0.4" d="M747.44,-74.5C736.51,-62.95 722.28,-47.92 711.15,-36.16"/>
<polygon fill="red" stroke="red" stroke-width="0.4" points="713.43,-33.48 704.01,-28.62 708.34,-38.29 713.43,-33.48"/>
</g>
<!-- 118&#45;&gt;4 -->
<g id="edge44" class="edge">
<title>118&#45;&gt;4</title>
<path fill="none" stroke="red" stroke-width="0.21" d="M783.1,-77.02C787.56,-73.89 792.43,-70.86 797.26,-68.53 850.5,-42.88 869.15,-51.08 925.26,-32.53 930.42,-30.82 935.9,-28.84 941.09,-26.89"/>
<polygon fill="red" stroke="red" stroke-width="0.21" points="942.49,-30.1 950.56,-23.24 939.97,-23.57 942.49,-30.1"/>
</g>
<!-- 118&#45;&gt;5 -->
<g id="edge45" class="edge">
<title>118&#45;&gt;5</title>
<path fill="none" stroke="green" stroke-width="0.19" d="M782.95,-76.69C787.42,-73.59 792.33,-70.64 797.26,-68.53 877.49,-34.22 907.13,-59.05 990.26,-32.53 993.45,-31.51 996.73,-30.26 999.93,-28.92"/>
<polygon fill="green" stroke="green" stroke-width="0.19" points="1001.46,-32.07 1009.12,-24.75 998.56,-25.69 1001.46,-32.07"/>
</g>
<!-- 118&#45;&gt;6 -->
<g id="edge46" class="edge">
<title>118&#45;&gt;6</title>
<path fill="none" stroke="red" stroke-width="0.37" d="M782.88,-76.54C787.36,-73.44 792.29,-70.53 797.26,-68.53 901.79,-26.4 940.82,-66.54 1048.26,-32.53 1050.7,-31.76 1053.18,-30.8 1055.62,-29.75"/>
<polygon fill="red" stroke="red" stroke-width="0.37" points="1057.15,-32.9 1064.62,-25.39 1054.1,-26.6 1057.15,-32.9"/>
</g>
<!-- 118&#45;&gt;7 -->
<g id="edge47" class="edge">
<title>118&#45;&gt;7</title>
<path fill="none" stroke="red" stroke-width="0.52" d="M744.67,-77.51C740.33,-74.42 735.7,-71.28 731.26,-68.53 706.92,-53.43 677.7,-38.38 657.74,-28.53"/>
<polygon fill="red" stroke="red" stroke-width="0.52" points="659.26,-25.38 648.74,-24.14 656.19,-31.67 659.26,-25.38"/>
</g>
<!-- 119&#45;&gt;0 -->
<g id="edge48" class="edge">
<title>119&#45;&gt;0</title>
<path fill="none" stroke="green" stroke-width="0.21" d="M648.97,-76.74C653.43,-73.63 658.34,-70.67 663.26,-68.53 738.48,-35.83 764.42,-51.32 844.26,-32.53 854.35,-30.15 865.36,-27.22 874.94,-24.57"/>
<polygon fill="green" stroke="green" stroke-width="0.21" points="875.97,-27.91 884.65,-21.83 874.07,-21.18 875.97,-27.91"/>
</g>
<!-- 119&#45;&gt;1 -->
<g id="edge49" class="edge">
<title>119&#45;&gt;1</title>
<path fill="none" stroke="green" stroke-width="0.15" d="M649.13,-77.1C653.59,-73.97 658.45,-70.91 663.26,-68.53 712.39,-44.19 729.55,-50.76 781.26,-32.53 785.76,-30.94 790.51,-29.14 795.07,-27.34"/>
<polygon fill="green" stroke="green" stroke-width="0.15" points="796.61,-30.49 804.58,-23.5 793.99,-24 796.61,-30.49"/>
</g>
<!-- 119&#45;&gt;2 -->
<g id="edge50" class="edge">
<title>119&#45;&gt;2</title>
<path fill="none" stroke="green" stroke-width="0.14" d="M649.89,-77.57C654.23,-74.48 658.85,-71.32 663.26,-68.53 686.35,-53.93 713.87,-39.06 732.95,-29.12"/>
<polygon fill="green" stroke="green" stroke-width="0.14" points="734.81,-32.09 742.09,-24.4 731.6,-25.87 734.81,-32.09"/>
</g>
<!-- 119&#45;&gt;3 -->
<g id="edge51" class="edge">
<title>119&#45;&gt;3</title>
<path fill="none" stroke="green" stroke-width="0.19" d="M645.83,-73.73C655.22,-62.56 667.16,-48.34 676.71,-36.97"/>
<polygon fill="green" stroke="green" stroke-width="0.19" points="679.42,-39.18 683.17,-29.27 674.06,-34.68 679.42,-39.18"/>
</g>
<!-- 119&#45;&gt;4 -->
<g id="edge52" class="edge">
<title>119&#45;&gt;4</title>
<path fill="none" stroke="red" stroke-width="0.36" d="M648.87,-76.52C653.35,-73.42 658.28,-70.52 663.26,-68.53 772.41,-24.91 811.39,-61.67 925.26,-32.53 930.53,-31.18 936.05,-29.36 941.25,-27.44"/>
<polygon fill="red" stroke="red" stroke-width="0.36" points="942.67,-30.64 950.71,-23.74 940.12,-24.12 942.67,-30.64"/>
</g>
<!-- 119&#45;&gt;5 -->
<g id="edge53" class="edge">
<title>119&#45;&gt;5</title>
<path fill="none" stroke="red" stroke-width="0.22" d="M648.84,-76.42C653.31,-73.32 658.25,-70.45 663.26,-68.53 799.75,-16.1 849.4,-71.73 990.26,-32.53 993.48,-31.63 996.79,-30.45 1000,-29.14"/>
<polygon fill="red" stroke="red" stroke-width="0.22" points="1001.51,-32.3 1009.19,-25 998.63,-25.92 1001.51,-32.3"/>
</g>
<!-- 119&#45;&gt;6 -->
<g id="edge54" class="edge">
<title>119&#45;&gt;6</title>
<path fill="none" stroke="green" stroke-width="0.23" d="M648.81,-76.36C653.29,-73.27 658.24,-70.41 663.26,-68.53 824.19,-8.22 883.19,-80.34 1048.26,-32.53 1050.72,-31.82 1053.21,-30.9 1055.65,-29.88"/>
<polygon fill="green" stroke="green" stroke-width="0.23" points="1057.17,-33.03 1064.67,-25.55 1054.14,-26.72 1057.17,-33.03"/>
</g>
<!-- 119&#45;&gt;7 -->
<g id="edge55" class="edge">
<title>119&#45;&gt;7</title>
<path fill="none" stroke="red" stroke-width="0.19" d="M631.53,-68.54C631.96,-60.42 632.45,-51.31 632.89,-43.04"/>
<polygon fill="red" stroke="red" stroke-width="0.19" points="636.4,-42.98 633.43,-32.81 629.41,-42.61 636.4,-42.98"/>
</g>
<!-- 120&#45;&gt;0 -->
<g id="edge56" class="edge">
<title>120&#45;&gt;0</title>
<path fill="none" stroke="green" stroke-width="0.49" d="M847.61,-74.5C858.1,-63.09 871.73,-48.29 882.48,-36.59"/>
<polygon fill="green" stroke="green" stroke-width="0.49" points="885.21,-38.8 889.4,-29.07 880.06,-34.06 885.21,-38.8"/>
</g>
<!-- 120&#45;&gt;1 -->
<g id="edge57" class="edge">
<title>120&#45;&gt;1</title>
<path fill="none" stroke="red" stroke-width="0.17" d="M827.46,-68.54C826.13,-60.21 824.63,-50.83 823.28,-42.39"/>
<polygon fill="red" stroke="red" stroke-width="0.17" points="826.71,-41.67 821.68,-32.35 819.8,-42.78 826.71,-41.67"/>
</g>
<!-- 120&#45;&gt;2 -->
<g id="edge58" class="edge">
<title>120&#45;&gt;2</title>
<path fill="none" stroke="red" stroke-width="0.31" d="M814.24,-75.25C802.47,-63.48 786.82,-47.83 774.74,-35.75"/>
<polygon fill="red" stroke="red" stroke-width="0.31" points="776.95,-33 767.4,-28.4 772,-37.95 776.95,-33"/>
</g>
<!-- 120&#45;&gt;3 -->
<g id="edge59" class="edge">
<title>120&#45;&gt;3</title>
<path fill="none" stroke="green" stroke-width="0.16" d="M811.74,-77.4C807.39,-74.32 802.74,-71.21 798.26,-68.53 771.51,-52.53 739.04,-37.27 717.36,-27.62"/>
<polygon fill="green" stroke="green" stroke-width="0.16" points="718.5,-24.3 707.93,-23.48 715.68,-30.71 718.5,-24.3"/>
</g>
<!-- 120&#45;&gt;4 -->
<g id="edge60" class="edge">
<title>120&#45;&gt;4</title>
<path fill="none" stroke="green" stroke-width="0.15" d="M850.82,-77.45C855.16,-74.37 859.8,-71.24 864.26,-68.53 889.78,-52.99 920.59,-37.84 941.41,-28.09"/>
<polygon fill="green" stroke="green" stroke-width="0.15" points="942.89,-31.26 950.5,-23.88 939.95,-24.91 942.89,-31.26"/>
</g>
<!-- 120&#45;&gt;5 -->
<g id="edge61" class="edge">
<title>120&#45;&gt;5</title>
<path fill="none" stroke="green" stroke-width="0.12" d="M850.1,-77.03C854.56,-73.91 859.43,-70.87 864.26,-68.53 916.68,-43.14 935.67,-52.81 990.26,-32.53 993.4,-31.36 996.65,-30.02 999.84,-28.64"/>
<polygon fill="green" stroke="green" stroke-width="0.12" points="1001.37,-31.78 1009.01,-24.44 998.46,-25.42 1001.37,-31.78"/>
</g>
<!-- 120&#45;&gt;6 -->
<g id="edge62" class="edge">
<title>120&#45;&gt;6</title>
<path fill="none" stroke="green" stroke-width="0.35" d="M849.96,-76.72C854.43,-73.62 859.34,-70.66 864.26,-68.53 940.73,-35.43 969.48,-59.68 1048.26,-32.53 1050.68,-31.69 1053.15,-30.7 1055.58,-29.62"/>
<polygon fill="green" stroke="green" stroke-width="0.35" points="1057.12,-32.77 1064.57,-25.24 1054.05,-26.47 1057.12,-32.77"/>
</g>
<!-- 120&#45;&gt;7 -->
<g id="edge63" class="edge">
<title>120&#45;&gt;7</title>
<path fill="none" stroke="green" stroke-width="0.29" d="M812.43,-77C807.97,-73.88 803.1,-70.85 798.26,-68.53 744.2,-42.61 724.66,-52.86 668.26,-32.53 664.87,-31.3 661.35,-29.89 657.91,-28.43"/>
<polygon fill="green" stroke="green" stroke-width="0.29" points="659.18,-25.16 648.62,-24.29 656.33,-31.56 659.18,-25.16"/>
</g>
<!-- 121&#45;&gt;0 -->
<g id="edge64" class="edge">
<title>121&#45;&gt;0</title>
<path fill="none" stroke="green" stroke-width="0.19" d="M1060.06,-78.89C1054.14,-75.27 1047.56,-71.53 1041.26,-68.53 998.24,-48.03 984.97,-49.02 940.26,-32.53 935.25,-30.68 929.89,-28.66 924.79,-26.72"/>
<polygon fill="green" stroke="green" stroke-width="0.19" points="926.02,-23.44 915.43,-23.14 923.52,-29.98 926.02,-23.44"/>
</g>
<!-- 121&#45;&gt;1 -->
<g id="edge65" class="edge">
<title>121&#45;&gt;1</title>
<path fill="none" stroke="red" stroke-width="0.13" d="M1056.64,-85.49C1007.55,-71.38 894.91,-39.01 844.48,-24.51"/>
<polygon fill="red" stroke="red" stroke-width="0.13" points="845.29,-21.1 834.71,-21.7 843.35,-27.83 845.29,-21.1"/>
</g>
<!-- 121&#45;&gt;2 -->
<g id="edge66" class="edge">
<title>121&#45;&gt;2</title>
<path fill="none" stroke="green" stroke-width="0.45" d="M1055.79,-88.66C1005.92,-80.95 889.17,-61.26 794.26,-32.53 789.7,-31.15 784.92,-29.44 780.35,-27.68"/>
<polygon fill="green" stroke="green" stroke-width="0.45" points="781.43,-24.34 770.84,-23.82 778.8,-30.82 781.43,-24.34"/>
</g>
<!-- 121&#45;&gt;3 -->
<g id="edge67" class="edge">
<title>121&#45;&gt;3</title>
<path fill="none" stroke="green" stroke-width="0.39" d="M1055.92,-88.42C981.9,-76.63 762.65,-41.41 731.26,-32.53 726.67,-31.23 721.88,-29.56 717.31,-27.81"/>
<polygon fill="green" stroke="green" stroke-width="0.39" points="718.39,-24.47 707.81,-23.95 715.75,-30.96 718.39,-24.47"/>
</g>
<!-- 121&#45;&gt;4 -->
<g id="edge68" class="edge">
<title>121&#45;&gt;4</title>
<path fill="none" stroke="red" stroke-width="0.26" d="M1059.97,-79.04C1039.52,-65.7 1008.08,-45.19 987.1,-31.51"/>
<polygon fill="red" stroke="red" stroke-width="0.26" points="988.83,-28.46 978.54,-25.93 985.01,-34.32 988.83,-28.46"/>
</g>
<!-- 121&#45;&gt;5 -->
<g id="edge69" class="edge">
<title>121&#45;&gt;5</title>
<path fill="none" stroke="red" stroke-width="0.21" d="M1065.58,-72.96C1057.46,-62.27 1047.37,-48.98 1039.07,-38.07"/>
<polygon fill="red" stroke="red" stroke-width="0.21" points="1041.72,-35.76 1032.88,-29.92 1036.14,-40 1041.72,-35.76"/>
</g>
<!-- 121&#45;&gt;6 -->
<g id="edge70" class="edge">
<title>121&#45;&gt;6</title>
<path fill="none" stroke="red" stroke-width="0.2" d="M1079.62,-68.13C1079.4,-60.03 1079.16,-50.97 1078.94,-42.77"/>
<polygon fill="red" stroke="red" stroke-width="0.2" points="1082.44,-42.54 1078.67,-32.64 1075.44,-42.73 1082.44,-42.54"/>
</g>
<!-- 121&#45;&gt;7 -->
<g id="edge71" class="edge">
<title>121&#45;&gt;7</title>
<path fill="none" stroke="red" stroke-width="0.2" d="M1055.93,-88.19C1026.63,-83.31 975.89,-75 932.26,-68.53 815.13,-51.14 782.11,-65.11 668.26,-32.53 664.8,-31.54 661.23,-30.25 657.77,-28.85"/>
<polygon fill="red" stroke="red" stroke-width="0.2" points="659.04,-25.59 648.48,-24.74 656.21,-31.99 659.04,-25.59"/>
</g>
<!-- 122&#45;&gt;0 -->
<g id="edge72" class="edge">
<title>122&#45;&gt;0</title>
<path fill="none" stroke="green" stroke-width="0.39" d="M1128.54,-76.76C1124.08,-73.65 1119.17,-70.68 1114.26,-68.53 1041.96,-36.77 1016.06,-54.68 940.26,-32.53 935.04,-31 929.54,-29.1 924.35,-27.17"/>
<polygon fill="green" stroke="green" stroke-width="0.39" points="925.47,-23.85 914.89,-23.49 922.94,-30.38 925.47,-23.85"/>
</g>
<!-- 122&#45;&gt;1 -->
<g id="edge73" class="edge">
<title>122&#45;&gt;1</title>
<path fill="none" stroke="green" stroke-width="0.32" d="M1128.63,-76.56C1124.16,-73.46 1119.23,-70.55 1114.26,-68.53 1014.77,-28.02 980.37,-54.69 875.26,-32.53 865.12,-30.39 854.1,-27.51 844.53,-24.82"/>
<polygon fill="green" stroke="green" stroke-width="0.32" points="845.41,-21.43 834.83,-22.03 843.47,-28.16 845.41,-21.43"/>
</g>
<!-- 122&#45;&gt;2 -->
<g id="edge74" class="edge">
<title>122&#45;&gt;2</title>
<path fill="none" stroke="green" stroke-width="0.11" d="M1128.68,-76.43C1124.21,-73.33 1119.27,-70.46 1114.26,-68.53 980.72,-17.05 933.04,-67.52 794.26,-32.53 789.64,-31.36 784.83,-29.76 780.25,-28.03"/>
<polygon fill="green" stroke="green" stroke-width="0.11" points="781.33,-24.69 770.75,-24.16 778.69,-31.17 781.33,-24.69"/>
</g>
<!-- 122&#45;&gt;3 -->
<g id="edge75" class="edge">
<title>122&#45;&gt;3</title>
<path fill="none" stroke="red" stroke-width="0.31" d="M1128.71,-76.36C1124.23,-73.27 1119.28,-70.41 1114.26,-68.53 954.17,-8.5 897.42,-72.81 731.26,-32.53 726.63,-31.4 721.81,-29.82 717.23,-28.1"/>
<polygon fill="red" stroke="red" stroke-width="0.31" points="718.32,-24.76 707.73,-24.22 715.67,-31.24 718.32,-24.76"/>
</g>
<!-- 122&#45;&gt;4 -->
<g id="edge76" class="edge">
<title>122&#45;&gt;4</title>
<path fill="none" stroke="green" stroke-width="0.19" d="M1128.38,-77.11C1123.92,-73.98 1119.06,-70.92 1114.26,-68.53 1065.95,-44.45 1048.65,-51.9 998.26,-32.53 995.14,-31.33 991.89,-29.97 988.71,-28.57"/>
<polygon fill="green" stroke="green" stroke-width="0.19" points="990.09,-25.35 979.54,-24.37 987.18,-31.72 990.09,-25.35"/>
</g>
<!-- 122&#45;&gt;5 -->
<g id="edge77" class="edge">
<title>122&#45;&gt;5</title>
<path fill="none" stroke="green" stroke-width="0.25" d="M1127.61,-77.6C1123.28,-74.51 1118.66,-71.34 1114.26,-68.53 1091.75,-54.15 1065.01,-39.34 1046.37,-29.36"/>
<polygon fill="green" stroke="green" stroke-width="0.25" points="1047.89,-26.21 1037.42,-24.61 1044.61,-32.39 1047.89,-26.21"/>
</g>
<!-- 122&#45;&gt;6 -->
<g id="edge78" class="edge">
<title>122&#45;&gt;6</title>
<path fill="none" stroke="red" stroke-width="0.47" d="M1130.91,-74.5C1120.42,-63.09 1106.8,-48.29 1096.04,-36.59"/>
<polygon fill="red" stroke="red" stroke-width="0.47" points="1098.47,-34.06 1089.12,-29.07 1093.32,-38.8 1098.47,-34.06"/>
</g>
<!-- 122&#45;&gt;7 -->
<g id="edge79" class="edge">
<title>122&#45;&gt;7</title>
<path fill="none" stroke="red" stroke-width="0.23" d="M1128.73,-76.31C1124.25,-73.22 1119.3,-70.38 1114.26,-68.53 927.6,0.07 860.88,-81.97 668.26,-32.53 664.77,-31.63 661.19,-30.4 657.72,-29.03"/>
<polygon fill="red" stroke="red" stroke-width="0.23" points="658.99,-25.76 648.43,-24.93 656.16,-32.17 658.99,-25.76"/>
</g>
<!-- 123&#45;&gt;0 -->
<g id="edge80" class="edge">
<title>123&#45;&gt;0</title>
<path fill="none" stroke="red" stroke-width="0.6" d="M898.91,-68.13C899.12,-60.03 899.36,-50.97 899.58,-42.77"/>
<polygon fill="red" stroke="red" stroke-width="0.6" points="903.08,-42.73 899.85,-32.64 896.09,-42.54 903.08,-42.73"/>
</g>
<!-- 123&#45;&gt;1 -->
<g id="edge81" class="edge">
<title>123&#45;&gt;1</title>
<path fill="none" stroke="green" stroke-width="0.3" d="M880.73,-75.63C868.08,-63.62 851.03,-47.42 838.09,-35.14"/>
<polygon fill="green" stroke="green" stroke-width="0.3" points="840.31,-32.42 830.64,-28.07 835.49,-37.49 840.31,-32.42"/>
</g>
<!-- 123&#45;&gt;2 -->
<g id="edge82" class="edge">
<title>123&#45;&gt;2</title>
<path fill="none" stroke="green" stroke-width="0.13" d="M878.77,-77.35C874.42,-74.28 869.76,-71.18 865.26,-68.53 837.28,-52.07 803.16,-36.72 780.63,-27.19"/>
<polygon fill="green" stroke="green" stroke-width="0.13" points="781.73,-23.86 771.16,-23.24 779.04,-30.32 781.73,-23.86"/>
</g>
<!-- 123&#45;&gt;3 -->
<g id="edge83" class="edge">
<title>123&#45;&gt;3</title>
<path fill="none" stroke="red" stroke-width="0.27" d="M879.45,-76.97C874.99,-73.85 870.11,-70.83 865.26,-68.53 809.55,-42.09 789.76,-52.05 731.26,-32.53 726.74,-31.02 721.98,-29.25 717.41,-27.47"/>
<polygon fill="red" stroke="red" stroke-width="0.27" points="718.49,-24.13 707.91,-23.62 715.87,-30.62 718.49,-24.13"/>
</g>
<!-- 123&#45;&gt;4 -->
<g id="edge84" class="edge">
<title>123&#45;&gt;4</title>
<path fill="none" stroke="green" stroke-width="0.12" d="M914.48,-74.12C924.58,-62.81 937.56,-48.28 947.87,-36.74"/>
<polygon fill="green" stroke="green" stroke-width="0.12" points="950.77,-38.74 954.83,-28.95 945.55,-34.07 950.77,-38.74"/>
</g>
<!-- 123&#45;&gt;5 -->
<g id="edge85" class="edge">
<title>123&#45;&gt;5</title>
<path fill="none" stroke="red" stroke-width="0.56" d="M919.18,-79.72C941.79,-66.16 977.66,-44.63 1000.83,-30.72"/>
<polygon fill="red" stroke="red" stroke-width="0.56" points="1002.85,-33.6 1009.62,-25.45 999.24,-27.59 1002.85,-33.6"/>
</g>
<!-- 123&#45;&gt;6 -->
<g id="edge86" class="edge">
<title>123&#45;&gt;6</title>
<path fill="none" stroke="red" stroke-width="0.15" d="M921.41,-83.81C951.11,-72.77 1004.08,-52.52 1048.26,-32.53 1050.46,-31.53 1052.74,-30.46 1055,-29.36"/>
<polygon fill="red" stroke="red" stroke-width="0.15" points="1056.67,-32.44 1064.05,-24.83 1053.54,-26.18 1056.67,-32.44"/>
</g>
<!-- 123&#45;&gt;7 -->
<g id="edge87" class="edge">
<title>123&#45;&gt;7</title>
<path fill="none" stroke="red" stroke-width="0.51" d="M879.58,-76.68C875.11,-73.57 870.2,-70.63 865.26,-68.53 783.36,-33.68 753.26,-58.94 668.26,-32.53 664.82,-31.46 661.27,-30.13 657.82,-28.71"/>
<polygon fill="red" stroke="red" stroke-width="0.51" points="659.08,-25.44 648.52,-24.59 656.25,-31.84 659.08,-25.44"/>
</g>
<!-- 124&#45;&gt;0 -->
<g id="edge88" class="edge">
<title>124&#45;&gt;0</title>
<path fill="none" stroke="green" stroke-width="0.24" d="M514.84,-76.43C519.32,-73.34 524.26,-70.46 529.26,-68.53 660.7,-17.73 705.88,-59.13 844.26,-32.53 854.44,-30.57 865.47,-27.72 875.03,-25.02"/>
<polygon fill="green" stroke="green" stroke-width="0.24" points="876.11,-28.35 884.72,-22.18 874.14,-21.63 876.11,-28.35"/>
</g>
<!-- 124&#45;&gt;1 -->
<g id="edge89" class="edge">
<title>124&#45;&gt;1</title>
<path fill="none" stroke="red" stroke-width="0.18" d="M514.88,-76.54C519.36,-73.44 524.29,-70.53 529.26,-68.53 634.21,-26.26 671.98,-61.82 781.26,-32.53 785.87,-31.29 790.67,-29.66 795.24,-27.92"/>
<polygon fill="red" stroke="red" stroke-width="0.18" points="796.8,-31.06 804.74,-24.05 794.16,-24.58 796.8,-31.06"/>
</g>
<!-- 124&#45;&gt;2 -->
<g id="edge90" class="edge">
<title>124&#45;&gt;2</title>
<path fill="none" stroke="green" stroke-width="0.4" d="M514.95,-76.71C519.42,-73.6 524.33,-70.65 529.26,-68.53 607.82,-34.75 636.2,-56.58 718.26,-32.53 722.84,-31.19 727.62,-29.5 732.2,-27.74"/>
<polygon fill="green" stroke="green" stroke-width="0.4" points="733.75,-30.89 741.7,-23.88 731.12,-24.4 733.75,-30.89"/>
</g>
<!-- 124&#45;&gt;3 -->
<g id="edge91" class="edge">
<title>124&#45;&gt;3</title>
<path fill="none" stroke="red" stroke-width="0.13" d="M515.09,-77C519.55,-73.88 524.42,-70.85 529.26,-68.53 583.32,-42.61 602.86,-52.86 659.26,-32.53 662.65,-31.3 666.17,-29.89 669.61,-28.43"/>
<polygon fill="red" stroke="red" stroke-width="0.13" points="671.19,-31.56 678.9,-24.29 668.34,-25.16 671.19,-31.56"/>
</g>
<!-- 124&#45;&gt;4 -->
<g id="edge92" class="edge">
<title>124&#45;&gt;4</title>
<path fill="none" stroke="green" stroke-width="0.62" d="M514.81,-76.35C519.29,-73.26 524.24,-70.4 529.26,-68.53 694.83,-6.73 753.09,-72.4 925.26,-32.53 930.56,-31.3 936.09,-29.53 941.29,-27.62"/>
<polygon fill="green" stroke="green" stroke-width="0.62" points="942.72,-30.82 950.75,-23.91 940.16,-24.31 942.72,-30.82"/>
</g>
<!-- 124&#45;&gt;5 -->
<g id="edge93" class="edge">
<title>124&#45;&gt;5</title>
<path fill="none" stroke="green" stroke-width="0.48" d="M514.79,-76.3C519.27,-73.21 524.22,-70.37 529.26,-68.53 722.25,2.11 791.42,-84.48 990.26,-32.53 993.5,-31.68 996.81,-30.53 1000.03,-29.24"/>
<polygon fill="green" stroke="green" stroke-width="0.48" points="1001.54,-32.4 1009.22,-25.1 998.66,-26.02 1001.54,-32.4"/>
</g>
<!-- 124&#45;&gt;6 -->
<g id="edge94" class="edge">
<title>124&#45;&gt;6</title>
<path fill="none" stroke="red" stroke-width="0.11" d="M514.78,-76.27C519.26,-73.18 524.22,-70.35 529.26,-68.53 746.74,10 825.41,-94.19 1048.26,-32.53 1050.64,-31.87 1053.05,-31.01 1055.41,-30.04"/>
<polygon fill="red" stroke="red" stroke-width="0.11" points="1057.17,-33.08 1064.69,-25.62 1054.16,-26.76 1057.17,-33.08"/>
</g>
<!-- 124&#45;&gt;7 -->
<g id="edge95" class="edge">
<title>124&#45;&gt;7</title>
<path fill="none" stroke="red" stroke-width="0.48" d="M515.79,-77.4C520.13,-74.32 524.78,-71.21 529.26,-68.53 556.01,-52.53 588.48,-37.27 610.16,-27.62"/>
<polygon fill="red" stroke="red" stroke-width="0.48" points="611.84,-30.71 619.59,-23.48 609.03,-24.3 611.84,-30.71"/>
</g>
<!-- 125&#45;&gt;0 -->
<g id="edge96" class="edge">
<title>125&#45;&gt;0</title>
<path fill="none" stroke="red" stroke-width="0.3" d="M581.89,-76.54C586.36,-73.45 591.29,-70.54 596.26,-68.53 699.53,-26.8 735.22,-55.21 844.26,-32.53 854.4,-30.42 865.43,-27.54 875,-24.85"/>
<polygon fill="red" stroke="red" stroke-width="0.3" points="876.06,-28.19 884.7,-22.06 874.12,-21.46 876.06,-28.19"/>
</g>
<!-- 125&#45;&gt;1 -->
<g id="edge97" class="edge">
<title>125&#45;&gt;1</title>
<path fill="none" stroke="green" stroke-width="0.27" d="M581.96,-76.72C586.43,-73.61 591.34,-70.66 596.26,-68.53 673.15,-35.29 700.92,-56.24 781.26,-32.53 785.83,-31.18 790.62,-29.49 795.19,-27.73"/>
<polygon fill="green" stroke="green" stroke-width="0.27" points="796.74,-30.87 804.69,-23.87 794.11,-24.39 796.74,-30.87"/>
</g>
<!-- 125&#45;&gt;2 -->
<g id="edge98" class="edge">
<title>125&#45;&gt;2</title>
<path fill="none" stroke="red" stroke-width="0.49" d="M582.12,-77.06C586.58,-73.94 591.44,-70.89 596.26,-68.53 647.03,-43.66 664.86,-51.08 718.26,-32.53 722.77,-30.96 727.52,-29.17 732.08,-27.38"/>
<polygon fill="red" stroke="red" stroke-width="0.49" points="733.62,-30.53 741.59,-23.54 731,-24.04 733.62,-30.53"/>
</g>
<!-- 125&#45;&gt;3 -->
<g id="edge99" class="edge">
<title>125&#45;&gt;3</title>
<path fill="none" stroke="red" stroke-width="0.14" d="M582.85,-77.51C587.19,-74.42 591.82,-71.28 596.26,-68.53 620.61,-53.43 649.82,-38.38 669.79,-28.53"/>
<polygon fill="red" stroke="red" stroke-width="0.14" points="671.33,-31.67 678.78,-24.14 668.26,-25.38 671.33,-31.67"/>
</g>
<!-- 125&#45;&gt;4 -->
<g id="edge100" class="edge">
<title>125&#45;&gt;4</title>
<path fill="none" stroke="green" stroke-width="0.16" d="M581.83,-76.41C586.31,-73.32 591.25,-70.45 596.26,-68.53 733.59,-15.83 782.27,-67.03 925.26,-32.53 930.55,-31.25 936.07,-29.46 941.28,-27.55"/>
<polygon fill="green" stroke="green" stroke-width="0.16" points="942.7,-30.75 950.73,-23.84 940.14,-24.24 942.7,-30.75"/>
</g>
<!-- 125&#45;&gt;5 -->
<g id="edge101" class="edge">
<title>125&#45;&gt;5</title>
<path fill="none" stroke="red" stroke-width="0.2" d="M581.81,-76.35C586.29,-73.26 591.24,-70.4 596.26,-68.53 760.99,-7 820.43,-78.1 990.26,-32.53 993.49,-31.66 996.8,-30.5 1000.01,-29.2"/>
<polygon fill="red" stroke="red" stroke-width="0.2" points="1001.53,-32.36 1009.21,-25.06 998.65,-25.98 1001.53,-32.36"/>
</g>
<!-- 125&#45;&gt;6 -->
<g id="edge102" class="edge">
<title>125&#45;&gt;6</title>
<path fill="none" stroke="green" stroke-width="0.24" d="M581.79,-76.3C586.27,-73.22 591.23,-70.37 596.26,-68.53 785.46,0.89 854.31,-87.26 1048.26,-32.53 1050.63,-31.86 1053.04,-30.99 1055.4,-30.02"/>
<polygon fill="green" stroke="green" stroke-width="0.24" points="1057.16,-33.06 1064.68,-25.59 1054.15,-26.74 1057.16,-33.06"/>
</g>
<!-- 125&#45;&gt;7 -->
<g id="edge103" class="edge">
<title>125&#45;&gt;7</title>
<path fill="none" stroke="green" stroke-width="0.39" d="M580.09,-74.5C591.02,-62.95 605.25,-47.92 616.38,-36.16"/>
<polygon fill="green" stroke="green" stroke-width="0.39" points="619.18,-38.29 623.51,-28.62 614.1,-33.48 619.18,-38.29"/>
</g>
<!-- 126&#45;&gt;0 -->
<g id="edge104" class="edge">
<title>126&#45;&gt;0</title>
<path fill="none" stroke="green" stroke-width="0.19" d="M716.13,-77.08C720.59,-73.96 725.45,-70.9 730.26,-68.53 743.41,-62.04 830.9,-36.88 874.98,-24.39"/>
<polygon fill="green" stroke="green" stroke-width="0.19" points="876.01,-27.73 884.68,-21.64 874.11,-21 876.01,-27.73"/>
</g>
<!-- 126&#45;&gt;1 -->
<g id="edge105" class="edge">
<title>126&#45;&gt;1</title>
<path fill="none" stroke="red" stroke-width="0.17" d="M716.93,-77.63C721.26,-74.54 725.87,-71.36 730.26,-68.53 752,-54.49 777.7,-39.9 795.87,-29.88"/>
<polygon fill="red" stroke="red" stroke-width="0.17" points="798.03,-32.69 805.13,-24.83 794.67,-26.55 798.03,-32.69"/>
</g>
<!-- 126&#45;&gt;2 -->
<g id="edge106" class="edge">
<title>126&#45;&gt;2</title>
<path fill="none" stroke="red" stroke-width="0.53" d="M712.15,-73.35C720.75,-62.42 731.56,-48.67 740.32,-37.53"/>
<polygon fill="red" stroke="red" stroke-width="0.53" points="743.13,-39.62 746.56,-29.6 737.63,-35.29 743.13,-39.62"/>
</g>
<!-- 126&#45;&gt;3 -->
<g id="edge107" class="edge">
<title>126&#45;&gt;3</title>
<path fill="none" stroke="red" stroke-width="0.42" d="M696,-68.54C695.56,-60.42 695.08,-51.31 694.64,-43.04"/>
<polygon fill="red" stroke="red" stroke-width="0.42" points="698.12,-42.61 694.09,-32.81 691.13,-42.98 698.12,-42.61"/>
</g>
<!-- 126&#45;&gt;4 -->
<g id="edge108" class="edge">
<title>126&#45;&gt;4</title>
<path fill="none" stroke="red" stroke-width="0.55" d="M715.94,-76.69C720.41,-73.58 725.33,-70.63 730.26,-68.53 811.33,-33.95 840.41,-56.34 925.26,-32.53 930.49,-31.06 936,-29.18 941.2,-27.25"/>
<polygon fill="red" stroke="red" stroke-width="0.55" points="942.61,-30.46 950.66,-23.57 940.07,-23.94 942.61,-30.46"/>
</g>
<!-- 126&#45;&gt;5 -->
<g id="edge109" class="edge">
<title>126&#45;&gt;5</title>
<path fill="none" stroke="green" stroke-width="0.27" d="M715.88,-76.52C720.35,-73.42 725.28,-70.52 730.26,-68.53 838.57,-25.18 878.32,-65.37 990.26,-32.53 993.47,-31.58 996.77,-30.38 999.97,-29.06"/>
<polygon fill="green" stroke="green" stroke-width="0.27" points="1001.49,-32.21 1009.16,-24.9 998.61,-25.83 1001.49,-32.21"/>
</g>
<!-- 126&#45;&gt;6 -->
<g id="edge110" class="edge">
<title>126&#45;&gt;6</title>
<path fill="none" stroke="red" stroke-width="0.7" d="M715.84,-76.43C720.32,-73.34 725.26,-70.46 730.26,-68.53 862.96,-17.32 912.03,-73.43 1048.26,-32.53 1050.71,-31.79 1053.2,-30.86 1055.64,-29.83"/>
<polygon fill="red" stroke="red" stroke-width="0.7" points="1057.16,-32.98 1064.65,-25.49 1054.12,-26.67 1057.16,-32.98"/>
</g>
<!-- 126&#45;&gt;7 -->
<g id="edge111" class="edge">
<title>126&#45;&gt;7</title>
<path fill="none" stroke="green" stroke-width="0.26" d="M681.69,-73.73C672.31,-62.56 660.36,-48.34 650.81,-36.97"/>
<polygon fill="green" stroke="green" stroke-width="0.26" points="653.46,-34.68 644.35,-29.27 648.1,-39.18 653.46,-34.68"/>
</g>
<!-- 127&#45;&gt;0 -->
<g id="edge112" class="edge">
<title>127&#45;&gt;0</title>
<path fill="none" stroke="green" stroke-width="0.13" d="M1271.44,-77.94C1265.53,-74.31 1258.86,-70.79 1252.26,-68.53 1120.25,-23.17 1075.86,-65.67 940.26,-32.53 934.98,-31.24 929.45,-29.44 924.25,-27.53"/>
<polygon fill="green" stroke="green" stroke-width="0.13" points="925.39,-24.21 914.8,-23.82 922.83,-30.73 925.39,-24.21"/>
</g>
<!-- 127&#45;&gt;1 -->
<g id="edge113" class="edge">
<title>127&#45;&gt;1</title>
<path fill="none" stroke="green" stroke-width="0.17" d="M1271.47,-77.86C1265.56,-74.22 1258.88,-70.73 1252.26,-68.53 1092.55,-15.41 1040.84,-62.77 875.26,-32.53 865.07,-30.67 854.03,-27.84 844.47,-25.12"/>
<polygon fill="green" stroke="green" stroke-width="0.17" points="845.37,-21.73 834.79,-22.26 843.39,-28.45 845.37,-21.73"/>
</g>
<!-- 127&#45;&gt;2 -->
<g id="edge114" class="edge">
<title>127&#45;&gt;2</title>
<path fill="none" stroke="red" stroke-width="0.17" d="M1271.49,-77.79C1265.58,-74.15 1258.9,-70.67 1252.26,-68.53 1057.98,-5.71 993.06,-79.11 794.26,-32.53 789.62,-31.44 784.8,-29.87 780.22,-28.16"/>
<polygon fill="red" stroke="red" stroke-width="0.17" points="781.3,-24.82 770.72,-24.28 778.66,-31.3 781.3,-24.82"/>
</g>
<!-- 127&#45;&gt;3 -->
<g id="edge115" class="edge">
<title>127&#45;&gt;3</title>
<path fill="none" stroke="green" stroke-width="0.3" d="M1267.4,-86.16C1245.23,-80.71 1211.22,-72.94 1181.26,-68.53 982.76,-39.29 926.58,-78.44 731.26,-32.53 726.62,-31.44 721.8,-29.87 717.22,-28.15"/>
<polygon fill="green" stroke="green" stroke-width="0.3" points="718.3,-24.81 707.72,-24.27 715.66,-31.29 718.3,-24.81"/>
</g>
<!-- 127&#45;&gt;4 -->
<g id="edge116" class="edge">
<title>127&#45;&gt;4</title>
<path fill="none" stroke="red" stroke-width="0.5" d="M1271.4,-78.06C1265.49,-74.42 1258.83,-70.88 1252.26,-68.53 1144.92,-30.09 1107.61,-64.8 998.26,-32.53 995.05,-31.58 991.76,-30.37 988.55,-29.05"/>
<polygon fill="red" stroke="red" stroke-width="0.5" points="989.92,-25.83 979.36,-24.89 987.03,-32.2 989.92,-25.83"/>
</g>
<!-- 127&#45;&gt;5 -->
<g id="edge117" class="edge">
<title>127&#45;&gt;5</title>
<path fill="none" stroke="red" stroke-width="0.24" d="M1271.34,-78.22C1265.43,-74.58 1258.78,-71 1252.26,-68.53 1168.24,-36.61 1138.44,-61.21 1053.26,-32.53 1050.84,-31.71 1048.37,-30.73 1045.94,-29.66"/>
<polygon fill="red" stroke="red" stroke-width="0.24" points="1047.46,-26.51 1036.94,-25.28 1044.4,-32.8 1047.46,-26.51"/>
</g>
<!-- 127&#45;&gt;6 -->
<g id="edge118" class="edge">
<title>127&#45;&gt;6</title>
<path fill="none" stroke="green" stroke-width="0.26" d="M1271.16,-78.66C1265.24,-75.04 1258.64,-71.35 1252.26,-68.53 1201.63,-46.12 1138.48,-30.31 1103.88,-22.6"/>
<polygon fill="green" stroke="green" stroke-width="0.26" points="1104.62,-19.18 1094.11,-20.48 1103.13,-26.02 1104.62,-19.18"/>
</g>
<!-- 127&#45;&gt;7 -->
<g id="edge119" class="edge">
<title>127&#45;&gt;7</title>
<path fill="none" stroke="green" stroke-width="0.35" d="M1267.41,-86.09C1245.24,-80.6 1211.24,-72.79 1181.26,-68.53 954.98,-36.33 889.94,-88.19 668.26,-32.53 664.77,-31.65 661.18,-30.43 657.72,-29.06"/>
<polygon fill="green" stroke="green" stroke-width="0.35" points="658.98,-25.79 648.42,-24.96 656.16,-32.2 658.98,-25.79"/>
</g>
</g>
</svg>
