<?xml version="1.0" encoding="UTF-8" standalone="no"?>
<!DOCTYPE svg PUBLIC "-//W3C//DTD SVG 1.1//EN"
 "http://www.w3.org/Graphics/SVG/1.1/DTD/svg11.dtd">
<!-- Generated by graphviz version 2.44.0 (0)
 -->
<!-- Pages: 1 -->
<svg width="1618pt" height="172pt"
 viewBox="0.00 0.00 1617.67 171.54" xmlns="http://www.w3.org/2000/svg" xmlns:xlink="http://www.w3.org/1999/xlink">
<g id="graph0" class="graph" transform="scale(1 1) rotate(0) translate(4 167.54)">
<polygon fill="white" stroke="transparent" points="-4,4 -4,-167.54 1613.67,-167.54 1613.67,4 -4,4"/>
<!-- &#45;1 -->
<g id="node1" class="node">
<title>&#45;1</title>
<polygon fill="lightgray" stroke="black" points="725.32,-163.54 699.32,-163.54 699.32,-145.54 725.32,-145.54 725.32,-163.54"/>
<text text-anchor="middle" x="712.32" y="-152.34" font-family="Times-Roman" font-size="9.00">&#45;1</text>
</g>
<!-- 0 -->
<g id="node5" class="node">
<title>0</title>
<ellipse fill="lightblue" stroke="black" cx="776.32" cy="-16.26" rx="16.03" ry="16.03"/>
<text text-anchor="middle" x="776.32" y="-14.06" font-family="Times-Roman" font-size="9.00">0</text>
</g>
<!-- &#45;1&#45;&gt;0 -->
<g id="edge121" class="edge">
<title>&#45;1&#45;&gt;0</title>
<path fill="none" stroke="red" stroke-width="0.5" d="M698.95,-153.18C641.96,-151.19 424.84,-138.95 486.32,-68.53 525.25,-23.92 694.36,-51.89 750.32,-32.53 751.57,-32.09 752.83,-31.6 754.08,-31.05"/>
<polygon fill="red" stroke="red" stroke-width="0.5" points="756.06,-33.97 763.31,-26.25 752.83,-27.76 756.06,-33.97"/>
</g>
<!-- 1 -->
<g id="node6" class="node">
<title>1</title>
<ellipse fill="lightblue" stroke="black" cx="980.32" cy="-16.26" rx="16.03" ry="16.03"/>
<text text-anchor="middle" x="980.32" y="-14.06" font-family="Times-Roman" font-size="9.00">1</text>
</g>
<!-- &#45;1&#45;&gt;1 -->
<g id="edge122" class="edge">
<title>&#45;1&#45;&gt;1</title>
<path fill="none" stroke="green" stroke-width="0.68" d="M725.48,-149.33C730.4,-147.91 736.07,-146.46 741.32,-145.54 792.25,-136.62 1170.19,-147.49 1205.32,-109.54 1265.19,-44.84 1077.75,-24.3 1006.57,-18.92"/>
<polygon fill="green" stroke="green" stroke-width="0.68" points="1006.8,-15.43 996.57,-18.21 1006.3,-22.41 1006.8,-15.43"/>
</g>
<!-- 2 -->
<g id="node7" class="node">
<title>2</title>
<ellipse fill="lightblue" stroke="black" cx="827.32" cy="-16.26" rx="16.03" ry="16.03"/>
<text text-anchor="middle" x="827.32" y="-14.06" font-family="Times-Roman" font-size="9.00">2</text>
</g>
<!-- &#45;1&#45;&gt;2 -->
<g id="edge123" class="edge">
<title>&#45;1&#45;&gt;2</title>
<path fill="none" stroke="green" stroke-width="0.16" d="M699.25,-152.97C644.51,-150.15 439.25,-135.03 498.32,-68.53 543.35,-17.83 737.05,-54.15 801.32,-32.53 802.57,-32.1 803.83,-31.62 805.09,-31.08"/>
<polygon fill="green" stroke="green" stroke-width="0.16" points="807.06,-34 814.33,-26.3 803.84,-27.78 807.06,-34"/>
</g>
<!-- 3 -->
<g id="node8" class="node">
<title>3</title>
<ellipse fill="lightblue" stroke="black" cx="674.32" cy="-16.26" rx="16.03" ry="16.03"/>
<text text-anchor="middle" x="674.32" y="-14.06" font-family="Times-Roman" font-size="9.00">3</text>
</g>
<!-- &#45;1&#45;&gt;3 -->
<g id="edge124" class="edge">
<title>&#45;1&#45;&gt;3</title>
<path fill="none" stroke="red" stroke-width="0.54" d="M699.09,-153.6C615.61,-153.85 163.82,-153.18 123.32,-109.54 110.92,-96.18 110.88,-81.85 123.32,-68.53 163.22,-25.79 592.45,-49.79 648.32,-32.53 649.58,-32.14 650.85,-31.67 652.11,-31.16"/>
<polygon fill="red" stroke="red" stroke-width="0.54" points="654.05,-34.1 661.37,-26.44 650.88,-27.86 654.05,-34.1"/>
</g>
<!-- 4 -->
<g id="node9" class="node">
<title>4</title>
<ellipse fill="lightblue" stroke="black" cx="878.32" cy="-16.26" rx="16.03" ry="16.03"/>
<text text-anchor="middle" x="878.32" y="-14.06" font-family="Times-Roman" font-size="9.00">4</text>
</g>
<!-- &#45;1&#45;&gt;4 -->
<g id="edge125" class="edge">
<title>&#45;1&#45;&gt;4</title>
<path fill="none" stroke="red" stroke-width="0.15" d="M725.49,-149.4C730.41,-147.99 736.08,-146.52 741.32,-145.54 819.91,-130.86 1045.68,-168.84 1099.32,-109.54 1111.54,-96.02 1110.98,-82.54 1099.32,-68.53 1042.94,-0.79 986.9,-63.3 904.32,-32.53 903.07,-32.06 901.82,-31.54 900.58,-30.98"/>
<polygon fill="red" stroke="red" stroke-width="0.15" points="901.84,-27.69 891.37,-26.12 898.58,-33.88 901.84,-27.69"/>
</g>
<!-- 5 -->
<g id="node10" class="node">
<title>5</title>
<ellipse fill="lightblue" stroke="black" cx="623.32" cy="-16.26" rx="16.03" ry="16.03"/>
<text text-anchor="middle" x="623.32" y="-14.06" font-family="Times-Roman" font-size="9.00">5</text>
</g>
<!-- &#45;1&#45;&gt;5 -->
<g id="edge126" class="edge">
<title>&#45;1&#45;&gt;5</title>
<path fill="none" stroke="red" stroke-width="0.11" d="M699.1,-153.22C604.53,-150.88 33.88,-135.69 9.32,-109.54 -3.16,-96.25 -3.02,-81.94 9.32,-68.53 49.62,-24.72 484.02,-18.34 596.73,-17.42"/>
<polygon fill="red" stroke="red" stroke-width="0.11" points="596.92,-20.92 606.89,-17.34 596.87,-13.92 596.92,-20.92"/>
</g>
<!-- 6 -->
<g id="node11" class="node">
<title>6</title>
<ellipse fill="lightblue" stroke="black" cx="725.32" cy="-16.26" rx="16.03" ry="16.03"/>
<text text-anchor="middle" x="725.32" y="-14.06" font-family="Times-Roman" font-size="9.00">6</text>
</g>
<!-- &#45;1&#45;&gt;6 -->
<g id="edge127" class="edge">
<title>&#45;1&#45;&gt;6</title>
<path fill="none" stroke="green" stroke-width="0.41" d="M699.28,-153.24C629.75,-151.53 304.53,-141.85 275.32,-109.54 263.09,-96.02 262.98,-81.95 275.32,-68.53 339.29,1.11 609.2,-61.17 699.32,-32.53 700.58,-32.13 701.85,-31.65 703.1,-31.13"/>
<polygon fill="green" stroke="green" stroke-width="0.41" points="705.05,-34.07 712.36,-26.39 701.86,-27.83 705.05,-34.07"/>
</g>
<!-- 7 -->
<g id="node12" class="node">
<title>7</title>
<ellipse fill="lightblue" stroke="black" cx="929.32" cy="-16.26" rx="16.03" ry="16.03"/>
<text text-anchor="middle" x="929.32" y="-14.06" font-family="Times-Roman" font-size="9.00">7</text>
</g>
<!-- &#45;1&#45;&gt;7 -->
<g id="edge128" class="edge">
<title>&#45;1&#45;&gt;7</title>
<path fill="none" stroke="green" stroke-width="0.45" d="M725.48,-149.34C730.4,-147.92 736.07,-146.47 741.32,-145.54 790.28,-136.89 1153.61,-146.08 1187.32,-109.54 1199.68,-96.14 1199.18,-82.37 1187.32,-68.53 1153.37,-28.91 1004.46,-50.04 955.32,-32.53 954.07,-32.08 952.81,-31.58 951.56,-31.03"/>
<polygon fill="green" stroke="green" stroke-width="0.45" points="952.82,-27.73 942.34,-26.2 949.58,-33.94 952.82,-27.73"/>
</g>
<!-- 8 -->
<g id="node13" class="node">
<title>8</title>
<ellipse fill="white" stroke="black" cx="1162.32" cy="-89.03" rx="16.03" ry="16.03"/>
<text text-anchor="middle" x="1162.32" y="-86.83" font-family="Times-Roman" font-size="9.00">8</text>
</g>
<!-- &#45;1&#45;&gt;8 -->
<g id="edge1" class="edge">
<title>&#45;1&#45;&gt;8</title>
<path fill="none" stroke="green" stroke-width="0.25" d="M725.48,-149.38C730.41,-147.96 736.08,-146.5 741.32,-145.54 912.99,-114.21 967.46,-166.78 1132.32,-109.54 1135.33,-108.49 1138.34,-107.08 1141.23,-105.49"/>
<polygon fill="green" stroke="green" stroke-width="0.25" points="1143.29,-108.33 1149.89,-100.05 1139.57,-102.41 1143.29,-108.33"/>
</g>
<!-- 9 -->
<g id="node14" class="node">
<title>9</title>
<ellipse fill="white" stroke="black" cx="583.32" cy="-89.03" rx="16.03" ry="16.03"/>
<text text-anchor="middle" x="583.32" y="-86.83" font-family="Times-Roman" font-size="9.00">9</text>
</g>
<!-- &#45;1&#45;&gt;9 -->
<g id="edge2" class="edge">
<title>&#45;1&#45;&gt;9</title>
<path fill="none" stroke="green" stroke-width="0.55" d="M699.31,-149.28C679.1,-142.39 639.25,-127.72 608.32,-109.54 606.78,-108.64 605.24,-107.65 603.71,-106.62"/>
<polygon fill="green" stroke="green" stroke-width="0.55" points="605.45,-103.55 595.32,-100.43 601.29,-109.18 605.45,-103.55"/>
</g>
<!-- 10 -->
<g id="node15" class="node">
<title>10</title>
<ellipse fill="white" stroke="black" cx="638.32" cy="-89.03" rx="20.51" ry="20.51"/>
<text text-anchor="middle" x="638.32" y="-86.83" font-family="Times-Roman" font-size="9.00">10</text>
</g>
<!-- &#45;1&#45;&gt;10 -->
<g id="edge3" class="edge">
<title>&#45;1&#45;&gt;10</title>
<path fill="none" stroke="green" stroke-width="0.16" d="M702.94,-145.5C692.54,-136.57 675.37,-121.83 661.34,-109.79"/>
<polygon fill="green" stroke="green" stroke-width="0.16" points="663.38,-106.93 653.51,-103.08 658.82,-112.24 663.38,-106.93"/>
</g>
<!-- 11 -->
<g id="node16" class="node">
<title>11</title>
<ellipse fill="white" stroke="black" cx="697.32" cy="-89.03" rx="20.51" ry="20.51"/>
<text text-anchor="middle" x="697.32" y="-86.83" font-family="Times-Roman" font-size="9.00">11</text>
</g>
<!-- &#45;1&#45;&gt;11 -->
<g id="edge4" class="edge">
<title>&#45;1&#45;&gt;11</title>
<path fill="none" stroke="red" stroke-width="0.17" d="M710.42,-145.5C708.83,-138.76 706.45,-128.71 704.16,-119.01"/>
<polygon fill="red" stroke="red" stroke-width="0.17" points="707.54,-118.11 701.84,-109.18 700.73,-119.72 707.54,-118.11"/>
</g>
<!-- 12 -->
<g id="node17" class="node">
<title>12</title>
<ellipse fill="white" stroke="black" cx="756.32" cy="-89.03" rx="20.51" ry="20.51"/>
<text text-anchor="middle" x="756.32" y="-86.83" font-family="Times-Roman" font-size="9.00">12</text>
</g>
<!-- &#45;1&#45;&gt;12 -->
<g id="edge5" class="edge">
<title>&#45;1&#45;&gt;12</title>
<path fill="none" stroke="green" stroke-width="0.24" d="M717.89,-145.5C723.25,-137.75 731.65,-125.64 739.22,-114.71"/>
<polygon fill="green" stroke="green" stroke-width="0.24" points="742.23,-116.51 745.05,-106.3 736.47,-112.53 742.23,-116.51"/>
</g>
<!-- 13 -->
<g id="node18" class="node">
<title>13</title>
<ellipse fill="white" stroke="black" cx="815.32" cy="-89.03" rx="20.51" ry="20.51"/>
<text text-anchor="middle" x="815.32" y="-86.83" font-family="Times-Roman" font-size="9.00">13</text>
</g>
<!-- &#45;1&#45;&gt;13 -->
<g id="edge6" class="edge">
<title>&#45;1&#45;&gt;13</title>
<path fill="none" stroke="red" stroke-width="0.26" d="M725.55,-145.97C740.46,-137.37 765.35,-122.81 786.32,-109.54 787.6,-108.73 788.91,-107.89 790.22,-107.04"/>
<polygon fill="red" stroke="red" stroke-width="0.26" points="792.44,-109.76 798.86,-101.33 788.58,-103.92 792.44,-109.76"/>
</g>
<!-- 14 -->
<g id="node19" class="node">
<title>14</title>
<ellipse fill="white" stroke="black" cx="874.32" cy="-89.03" rx="20.51" ry="20.51"/>
<text text-anchor="middle" x="874.32" y="-86.83" font-family="Times-Roman" font-size="9.00">14</text>
</g>
<!-- &#45;1&#45;&gt;14 -->
<g id="edge7" class="edge">
<title>&#45;1&#45;&gt;14</title>
<path fill="none" stroke="red" stroke-width="0.12" d="M725.49,-149.68C754.59,-141.08 823.48,-120.24 845.32,-109.54 846.68,-108.87 848.05,-108.15 849.42,-107.39"/>
<polygon fill="red" stroke="red" stroke-width="0.12" points="851.53,-110.2 858.22,-101.99 847.87,-104.23 851.53,-110.2"/>
</g>
<!-- 15 -->
<g id="node20" class="node">
<title>15</title>
<ellipse fill="white" stroke="black" cx="933.32" cy="-89.03" rx="20.51" ry="20.51"/>
<text text-anchor="middle" x="933.32" y="-86.83" font-family="Times-Roman" font-size="9.00">15</text>
</g>
<!-- &#45;1&#45;&gt;15 -->
<g id="edge8" class="edge">
<title>&#45;1&#45;&gt;15</title>
<path fill="none" stroke="green" stroke-width="0.51" d="M725.56,-149.73C730.49,-148.35 736.15,-146.82 741.32,-145.54 813.32,-127.67 836.12,-138.75 904.32,-109.54 905.71,-108.94 907.11,-108.28 908.5,-107.56"/>
<polygon fill="green" stroke="green" stroke-width="0.51" points="910.55,-110.41 917.37,-102.3 906.98,-104.39 910.55,-110.41"/>
</g>
<!-- 16 -->
<g id="node21" class="node">
<title>16</title>
<ellipse fill="white" stroke="black" cx="528.32" cy="-89.03" rx="20.51" ry="20.51"/>
<text text-anchor="middle" x="528.32" y="-86.83" font-family="Times-Roman" font-size="9.00">16</text>
</g>
<!-- &#45;1&#45;&gt;16 -->
<g id="edge9" class="edge">
<title>&#45;1&#45;&gt;16</title>
<path fill="none" stroke="red" stroke-width="0.38" d="M699.08,-151.14C671.84,-145.92 607.91,-132.13 558.32,-109.54 556.72,-108.81 555.12,-108.01 553.52,-107.16"/>
<polygon fill="red" stroke="red" stroke-width="0.38" points="555.02,-103.98 544.63,-101.89 551.45,-110 555.02,-103.98"/>
</g>
<!-- 17 -->
<g id="node22" class="node">
<title>17</title>
<ellipse fill="white" stroke="black" cx="1069.32" cy="-89.03" rx="20.51" ry="20.51"/>
<text text-anchor="middle" x="1069.32" y="-86.83" font-family="Times-Roman" font-size="9.00">17</text>
</g>
<!-- &#45;1&#45;&gt;17 -->
<g id="edge10" class="edge">
<title>&#45;1&#45;&gt;17</title>
<path fill="none" stroke="red" stroke-width="0.41" d="M725.52,-149.57C730.45,-148.18 736.11,-146.68 741.32,-145.54 838.97,-124.22 864.83,-126.59 963.32,-109.54 988.87,-105.12 1017.82,-99.77 1039,-95.79"/>
<polygon fill="red" stroke="red" stroke-width="0.41" points="1039.84,-99.19 1049.02,-93.9 1038.54,-92.31 1039.84,-99.19"/>
</g>
<!-- &#45;2 -->
<g id="node2" class="node">
<title>&#45;2</title>
<polygon fill="lightgray" stroke="black" points="776.32,-163.54 750.32,-163.54 750.32,-145.54 776.32,-145.54 776.32,-163.54"/>
<text text-anchor="middle" x="763.32" y="-152.34" font-family="Times-Roman" font-size="9.00">&#45;2</text>
</g>
<!-- &#45;2&#45;&gt;0 -->
<g id="edge129" class="edge">
<title>&#45;2&#45;&gt;0</title>
<path fill="none" stroke="red" stroke-width="0.16" d="M750.12,-149.54C745.19,-148.15 739.53,-146.65 734.32,-145.54 682.43,-134.47 532.89,-149.78 498.32,-109.54 486.44,-95.71 486.37,-82.3 498.32,-68.53 535.38,-25.79 696.92,-51.2 750.32,-32.53 751.57,-32.09 752.82,-31.59 754.08,-31.04"/>
<polygon fill="red" stroke="red" stroke-width="0.16" points="756.06,-33.96 763.31,-26.23 752.82,-27.75 756.06,-33.96"/>
</g>
<!-- &#45;2&#45;&gt;1 -->
<g id="edge130" class="edge">
<title>&#45;2&#45;&gt;1</title>
<path fill="none" stroke="green" stroke-width="0.1" d="M776.6,-150.24C783.61,-148.6 792.39,-146.73 800.32,-145.54 846.96,-138.54 1191.41,-144.28 1223.32,-109.54 1287.47,-39.69 1082.52,-22.34 1007.07,-18.36"/>
<polygon fill="green" stroke="green" stroke-width="0.1" points="1007.08,-14.86 996.92,-17.87 1006.74,-21.85 1007.08,-14.86"/>
</g>
<!-- &#45;2&#45;&gt;2 -->
<g id="edge131" class="edge">
<title>&#45;2&#45;&gt;2</title>
<path fill="none" stroke="green" stroke-width="0.4" d="M776.41,-150.69C820.82,-141.01 962.94,-110.01 963.32,-109.54 974.74,-95.33 974.01,-83.28 963.32,-68.53 933.12,-26.88 900.21,-53.67 853.32,-32.53 852.14,-31.99 850.94,-31.42 849.74,-30.82"/>
<polygon fill="green" stroke="green" stroke-width="0.4" points="851.24,-27.65 840.79,-25.91 847.87,-33.79 851.24,-27.65"/>
</g>
<!-- &#45;2&#45;&gt;3 -->
<g id="edge132" class="edge">
<title>&#45;2&#45;&gt;3</title>
<path fill="none" stroke="red" stroke-width="0.27" d="M750.16,-149.29C745.24,-147.87 739.57,-146.42 734.32,-145.54 671.4,-135 204.99,-156.04 161.32,-109.54 148.84,-96.25 148.91,-81.88 161.32,-68.53 198.24,-28.77 596.52,-48.68 648.32,-32.53 649.58,-32.13 650.85,-31.67 652.11,-31.15"/>
<polygon fill="red" stroke="red" stroke-width="0.27" points="654.05,-34.09 661.37,-26.42 650.87,-27.85 654.05,-34.09"/>
</g>
<!-- &#45;2&#45;&gt;4 -->
<g id="edge133" class="edge">
<title>&#45;2&#45;&gt;4</title>
<path fill="none" stroke="red" stroke-width="0.33" d="M776.6,-150.26C783.62,-148.63 792.39,-146.76 800.32,-145.54 843,-138.96 1158.23,-141.46 1187.32,-109.54 1199.59,-96.07 1199.36,-82.2 1187.32,-68.53 1145.41,-20.95 964.32,-52.99 904.32,-32.53 903.06,-32.1 901.8,-31.61 900.55,-31.07"/>
<polygon fill="red" stroke="red" stroke-width="0.33" points="901.8,-27.77 891.31,-26.28 898.58,-33.99 901.8,-27.77"/>
</g>
<!-- &#45;2&#45;&gt;5 -->
<g id="edge134" class="edge">
<title>&#45;2&#45;&gt;5</title>
<path fill="none" stroke="green" stroke-width="0.11" d="M750.17,-149.26C745.25,-147.84 739.58,-146.39 734.32,-145.54 658.86,-133.3 99.93,-164.99 47.32,-109.54 34.77,-96.32 35.01,-81.97 47.32,-68.53 84.87,-27.49 489.15,-19.08 597,-17.57"/>
<polygon fill="green" stroke="green" stroke-width="0.11" points="597.08,-21.07 607.04,-17.44 596.99,-14.07 597.08,-21.07"/>
</g>
<!-- &#45;2&#45;&gt;6 -->
<g id="edge135" class="edge">
<title>&#45;2&#45;&gt;6</title>
<path fill="none" stroke="green" stroke-width="0.13" d="M750.15,-149.36C745.23,-147.94 739.56,-146.48 734.32,-145.54 688.1,-137.26 345.07,-144.12 313.32,-109.54 300.99,-96.11 301.04,-82 313.32,-68.53 371.34,-4.84 617.32,-58.97 699.32,-32.53 700.58,-32.12 701.84,-31.64 703.1,-31.12"/>
<polygon fill="green" stroke="green" stroke-width="0.13" points="705.05,-34.05 712.35,-26.37 701.86,-27.82 705.05,-34.05"/>
</g>
<!-- &#45;2&#45;&gt;7 -->
<g id="edge136" class="edge">
<title>&#45;2&#45;&gt;7</title>
<path fill="none" stroke="red" stroke-width="0.34" d="M776.6,-150.25C783.61,-148.62 792.39,-146.74 800.32,-145.54 844.98,-138.75 1174.82,-142.87 1205.32,-109.54 1217.62,-96.09 1217.25,-82.3 1205.32,-68.53 1168.56,-26.1 1008.29,-51.08 955.32,-32.53 954.07,-32.09 952.81,-31.59 951.56,-31.04"/>
<polygon fill="red" stroke="red" stroke-width="0.34" points="952.81,-27.75 942.33,-26.23 949.58,-33.96 952.81,-27.75"/>
</g>
<!-- &#45;2&#45;&gt;8 -->
<g id="edge11" class="edge">
<title>&#45;2&#45;&gt;8</title>
<path fill="none" stroke="red" stroke-width="0.55" d="M776.61,-150.31C783.63,-148.7 792.4,-146.82 800.32,-145.54 946.83,-121.82 992.5,-159.35 1132.32,-109.54 1135.32,-108.47 1138.33,-107.04 1141.21,-105.45"/>
<polygon fill="red" stroke="red" stroke-width="0.55" points="1143.27,-108.29 1149.88,-100 1139.55,-102.36 1143.27,-108.29"/>
</g>
<!-- &#45;2&#45;&gt;9 -->
<g id="edge12" class="edge">
<title>&#45;2&#45;&gt;9</title>
<path fill="none" stroke="green" stroke-width="0.26" d="M750.16,-149.88C713.31,-139.61 611.58,-111.2 608.32,-109.54 606.55,-108.64 604.78,-107.61 603.06,-106.5"/>
<polygon fill="green" stroke="green" stroke-width="0.26" points="605.03,-103.61 594.88,-100.56 600.92,-109.27 605.03,-103.61"/>
</g>
<!-- &#45;2&#45;&gt;10 -->
<g id="edge13" class="edge">
<title>&#45;2&#45;&gt;10</title>
<path fill="none" stroke="green" stroke-width="0.37" d="M750.26,-148.35C731.47,-140.7 695.94,-125.59 667.32,-109.54 665.99,-108.8 664.65,-108.01 663.31,-107.21"/>
<polygon fill="green" stroke="green" stroke-width="0.37" points="664.9,-104.07 654.59,-101.65 661.14,-109.97 664.9,-104.07"/>
</g>
<!-- &#45;2&#45;&gt;11 -->
<g id="edge14" class="edge">
<title>&#45;2&#45;&gt;11</title>
<path fill="none" stroke="red" stroke-width="0.21" d="M754.96,-145.5C745.94,-136.82 731.21,-122.65 718.9,-110.8"/>
<polygon fill="red" stroke="red" stroke-width="0.21" points="721.26,-108.21 711.62,-103.8 716.4,-113.26 721.26,-108.21"/>
</g>
<!-- &#45;2&#45;&gt;12 -->
<g id="edge15" class="edge">
<title>&#45;2&#45;&gt;12</title>
<path fill="none" stroke="red" stroke-width="0.12" d="M762.43,-145.5C761.7,-138.88 760.62,-129.07 759.57,-119.53"/>
<polygon fill="red" stroke="red" stroke-width="0.12" points="763.03,-119.01 758.46,-109.45 756.07,-119.78 763.03,-119.01"/>
</g>
<!-- &#45;2&#45;&gt;13 -->
<g id="edge16" class="edge">
<title>&#45;2&#45;&gt;13</title>
<path fill="none" stroke="red" stroke-width="0.65" d="M769.9,-145.5C776.5,-137.44 786.97,-124.65 796.2,-113.38"/>
<polygon fill="red" stroke="red" stroke-width="0.65" points="799,-115.49 802.62,-105.54 793.58,-111.06 799,-115.49"/>
</g>
<!-- &#45;2&#45;&gt;14 -->
<g id="edge17" class="edge">
<title>&#45;2&#45;&gt;14</title>
<path fill="none" stroke="red" stroke-width="0.45" d="M776.32,-147.07C792.68,-138.81 821.52,-123.88 845.32,-109.54 846.62,-108.76 847.94,-107.94 849.27,-107.11"/>
<polygon fill="red" stroke="red" stroke-width="0.45" points="851.46,-109.85 857.94,-101.46 847.65,-103.98 851.46,-109.85"/>
</g>
<!-- &#45;2&#45;&gt;15 -->
<g id="edge18" class="edge">
<title>&#45;2&#45;&gt;15</title>
<path fill="none" stroke="green" stroke-width="0.24" d="M776.62,-150.75C802.21,-145.08 859.69,-130.95 904.32,-109.54 905.68,-108.88 907.06,-108.17 908.43,-107.41"/>
<polygon fill="green" stroke="green" stroke-width="0.24" points="910.53,-110.23 917.25,-102.04 906.89,-104.26 910.53,-110.23"/>
</g>
<!-- &#45;2&#45;&gt;16 -->
<g id="edge19" class="edge">
<title>&#45;2&#45;&gt;16</title>
<path fill="none" stroke="red" stroke-width="0.33" d="M750.08,-149.69C745.15,-148.3 739.5,-146.78 734.32,-145.54 656.68,-126.91 632.19,-139.83 558.32,-109.54 556.7,-108.87 555.07,-108.12 553.46,-107.3"/>
<polygon fill="red" stroke="red" stroke-width="0.33" points="554.93,-104.11 544.52,-102.14 551.43,-110.17 554.93,-104.11"/>
</g>
<!-- &#45;2&#45;&gt;17 -->
<g id="edge20" class="edge">
<title>&#45;2&#45;&gt;17</title>
<path fill="none" stroke="red" stroke-width="0.3" d="M776.65,-150.55C783.68,-149 792.45,-147.11 800.32,-145.54 887.17,-128.18 909.91,-128.99 996.32,-109.54 1010.76,-106.29 1026.65,-102.11 1039.91,-98.46"/>
<polygon fill="red" stroke="red" stroke-width="0.3" points="1041.21,-101.73 1049.9,-95.67 1039.33,-94.99 1041.21,-101.73"/>
</g>
<!-- &#45;3 -->
<g id="node3" class="node">
<title>&#45;3</title>
<polygon fill="lightgray" stroke="black" points="835.32,-163.54 809.32,-163.54 809.32,-145.54 835.32,-145.54 835.32,-163.54"/>
<text text-anchor="middle" x="822.32" y="-152.34" font-family="Times-Roman" font-size="9.00">&#45;3</text>
</g>
<!-- &#45;3&#45;&gt;0 -->
<g id="edge137" class="edge">
<title>&#45;3&#45;&gt;0</title>
<path fill="none" stroke="red" stroke-width="0.28" d="M835.49,-151.44C867.48,-146.04 947.82,-130.61 963.32,-109.54 974.12,-94.86 974.71,-82.75 963.32,-68.53 917.47,-11.3 870.53,-59.41 802.32,-32.53 801.08,-32.04 799.84,-31.5 798.6,-30.93"/>
<polygon fill="red" stroke="red" stroke-width="0.28" points="799.88,-27.64 789.41,-26.02 796.58,-33.81 799.88,-27.64"/>
</g>
<!-- &#45;3&#45;&gt;1 -->
<g id="edge138" class="edge">
<title>&#45;3&#45;&gt;1</title>
<path fill="none" stroke="green" stroke-width="0.14" d="M835.4,-151.44C847.33,-149.6 865.47,-147.01 881.32,-145.54 921.14,-141.85 1572.75,-138.52 1600.32,-109.54 1612.88,-96.33 1612.66,-81.94 1600.32,-68.53 1559.56,-24.26 1120.01,-18.22 1006.79,-17.39"/>
<polygon fill="green" stroke="green" stroke-width="0.14" points="1006.62,-13.89 996.6,-17.33 1006.57,-20.89 1006.62,-13.89"/>
</g>
<!-- &#45;3&#45;&gt;2 -->
<g id="edge139" class="edge">
<title>&#45;3&#45;&gt;2</title>
<path fill="none" stroke="green" stroke-width="0.41" d="M835.43,-151.69C847.38,-150.03 865.52,-147.54 881.32,-145.54 949.24,-136.94 1141.82,-160.7 1187.32,-109.54 1199.43,-95.92 1199.5,-82.09 1187.32,-68.53 1137.44,-12.98 924.2,-55.95 853.32,-32.53 852.06,-32.11 850.8,-31.63 849.54,-31.1"/>
<polygon fill="green" stroke="green" stroke-width="0.41" points="850.79,-27.8 840.29,-26.33 847.58,-34.02 850.79,-27.8"/>
</g>
<!-- &#45;3&#45;&gt;3 -->
<g id="edge140" class="edge">
<title>&#45;3&#45;&gt;3</title>
<path fill="none" stroke="red" stroke-width="0.24" d="M809.02,-150.35C802,-148.75 793.22,-146.87 785.32,-145.54 719.32,-134.46 530.72,-159.61 486.32,-109.54 474.22,-95.9 474.91,-82.75 486.32,-68.53 532.47,-10.99 579.68,-59.53 648.32,-32.53 649.55,-32.04 650.79,-31.5 652.03,-30.93"/>
<polygon fill="red" stroke="red" stroke-width="0.24" points="654.05,-33.82 661.23,-26.02 650.76,-27.64 654.05,-33.82"/>
</g>
<!-- &#45;3&#45;&gt;4 -->
<g id="edge141" class="edge">
<title>&#45;3&#45;&gt;4</title>
<path fill="none" stroke="red" stroke-width="0.4" d="M835.41,-151.55C847.35,-149.79 865.49,-147.24 881.32,-145.54 931.52,-140.14 1300.06,-146.63 1334.32,-109.54 1346.68,-96.15 1346.66,-81.94 1334.32,-68.53 1269.4,2.05 995.72,-61.52 904.32,-32.53 903.05,-32.13 901.79,-31.66 900.53,-31.13"/>
<polygon fill="red" stroke="red" stroke-width="0.4" points="901.77,-27.84 891.27,-26.4 898.58,-34.07 901.77,-27.84"/>
</g>
<!-- &#45;3&#45;&gt;5 -->
<g id="edge142" class="edge">
<title>&#45;3&#45;&gt;5</title>
<path fill="none" stroke="red" stroke-width="0.31" d="M809.02,-150.33C802,-148.73 793.23,-146.85 785.32,-145.54 716.68,-134.17 520.6,-161.49 474.32,-109.54 462.19,-95.93 463.73,-83.37 474.32,-68.53 502.13,-29.54 561.58,-19.9 596.39,-17.71"/>
<polygon fill="red" stroke="red" stroke-width="0.31" points="596.93,-21.18 606.75,-17.23 596.6,-14.19 596.93,-21.18"/>
</g>
<!-- &#45;3&#45;&gt;6 -->
<g id="edge143" class="edge">
<title>&#45;3&#45;&gt;6</title>
<path fill="none" stroke="green" stroke-width="0.3" d="M809.01,-150.37C801.99,-148.77 793.22,-146.89 785.32,-145.54 721.95,-134.74 540.85,-157.74 498.32,-109.54 486.26,-95.87 486.62,-82.51 498.32,-68.53 556.56,1.07 614.19,-63.99 699.32,-32.53 700.56,-32.07 701.81,-31.55 703.06,-30.99"/>
<polygon fill="green" stroke="green" stroke-width="0.3" points="705.06,-33.89 712.27,-26.13 701.79,-27.7 705.06,-33.89"/>
</g>
<!-- &#45;3&#45;&gt;7 -->
<g id="edge144" class="edge">
<title>&#45;3&#45;&gt;7</title>
<path fill="none" stroke="red" stroke-width="0.54" d="M835.41,-151.48C847.34,-149.66 865.47,-147.08 881.32,-145.54 948.34,-139.01 1440.14,-158.55 1486.32,-109.54 1498.82,-96.27 1498.76,-81.84 1486.32,-68.53 1445.94,-25.32 1011.82,-49.96 955.32,-32.53 954.05,-32.14 952.78,-31.67 951.52,-31.16"/>
<polygon fill="red" stroke="red" stroke-width="0.54" points="952.76,-27.86 942.26,-26.44 949.58,-34.1 952.76,-27.86"/>
</g>
<!-- &#45;3&#45;&gt;8 -->
<g id="edge21" class="edge">
<title>&#45;3&#45;&gt;8</title>
<path fill="none" stroke="green" stroke-width="0.4" d="M835.69,-151.72C894.23,-143.75 1125.21,-112.21 1132.32,-109.54 1135.3,-108.42 1138.3,-106.96 1141.18,-105.35"/>
<polygon fill="green" stroke="green" stroke-width="0.4" points="1143.24,-108.19 1149.84,-99.89 1139.51,-102.27 1143.24,-108.19"/>
</g>
<!-- &#45;3&#45;&gt;9 -->
<g id="edge22" class="edge">
<title>&#45;3&#45;&gt;9</title>
<path fill="none" stroke="green" stroke-width="0.14" d="M809.31,-150.69C802.22,-149.14 793.29,-147.21 785.32,-145.54 706.75,-129.06 681.23,-143.12 608.32,-109.54 606.52,-108.71 604.73,-107.73 602.98,-106.65"/>
<polygon fill="green" stroke="green" stroke-width="0.14" points="604.95,-103.76 594.78,-100.78 600.87,-109.45 604.95,-103.76"/>
</g>
<!-- &#45;3&#45;&gt;10 -->
<g id="edge23" class="edge">
<title>&#45;3&#45;&gt;10</title>
<path fill="none" stroke="red" stroke-width="0.17" d="M808.93,-150.32C776.26,-142.36 693.2,-121.55 667.32,-109.54 665.94,-108.9 664.56,-108.2 663.18,-107.46"/>
<polygon fill="red" stroke="red" stroke-width="0.17" points="664.72,-104.3 654.35,-102.12 661.09,-110.29 664.72,-104.3"/>
</g>
<!-- &#45;3&#45;&gt;11 -->
<g id="edge24" class="edge">
<title>&#45;3&#45;&gt;11</title>
<path fill="none" stroke="green" stroke-width="0.3" d="M809.26,-148.35C790.47,-140.7 754.94,-125.59 726.32,-109.54 724.99,-108.8 723.65,-108.01 722.31,-107.21"/>
<polygon fill="green" stroke="green" stroke-width="0.3" points="723.9,-104.07 713.59,-101.65 720.14,-109.97 723.9,-104.07"/>
</g>
<!-- &#45;3&#45;&gt;12 -->
<g id="edge25" class="edge">
<title>&#45;3&#45;&gt;12</title>
<path fill="none" stroke="red" stroke-width="0.47" d="M813.96,-145.5C804.94,-136.82 790.21,-122.65 777.9,-110.8"/>
<polygon fill="red" stroke="red" stroke-width="0.47" points="780.26,-108.21 770.62,-103.8 775.4,-113.26 780.26,-108.21"/>
</g>
<!-- &#45;3&#45;&gt;13 -->
<g id="edge26" class="edge">
<title>&#45;3&#45;&gt;13</title>
<path fill="none" stroke="green" stroke-width="0.81" d="M821.43,-145.5C820.7,-138.88 819.62,-129.07 818.57,-119.53"/>
<polygon fill="green" stroke="green" stroke-width="0.81" points="822.03,-119.01 817.46,-109.45 815.07,-119.78 822.03,-119.01"/>
</g>
<!-- &#45;3&#45;&gt;14 -->
<g id="edge27" class="edge">
<title>&#45;3&#45;&gt;14</title>
<path fill="none" stroke="green" stroke-width="0.22" d="M828.9,-145.5C835.5,-137.44 845.97,-124.65 855.2,-113.38"/>
<polygon fill="green" stroke="green" stroke-width="0.22" points="858,-115.49 861.62,-105.54 852.58,-111.06 858,-115.49"/>
</g>
<!-- &#45;3&#45;&gt;15 -->
<g id="edge28" class="edge">
<title>&#45;3&#45;&gt;15</title>
<path fill="none" stroke="red" stroke-width="0.22" d="M835.32,-147.07C851.68,-138.81 880.52,-123.88 904.32,-109.54 905.62,-108.76 906.94,-107.94 908.27,-107.11"/>
<polygon fill="red" stroke="red" stroke-width="0.22" points="910.46,-109.85 916.94,-101.46 906.65,-103.98 910.46,-109.85"/>
</g>
<!-- &#45;3&#45;&gt;16 -->
<g id="edge29" class="edge">
<title>&#45;3&#45;&gt;16</title>
<path fill="none" stroke="red" stroke-width="0.13" d="M808.99,-150.47C801.97,-148.9 793.2,-147.01 785.32,-145.54 684.91,-126.74 653.67,-146.18 558.32,-109.54 556.49,-108.84 554.66,-108.01 552.85,-107.11"/>
<polygon fill="red" stroke="red" stroke-width="0.13" points="554.56,-104.05 544.15,-102.08 551.06,-110.11 554.56,-104.05"/>
</g>
<!-- &#45;3&#45;&gt;17 -->
<g id="edge30" class="edge">
<title>&#45;3&#45;&gt;17</title>
<path fill="none" stroke="red" stroke-width="0.41" d="M835.36,-151.37C875.52,-144.59 996.89,-123.48 1034.32,-109.54 1037.28,-108.43 1040.3,-107.1 1043.26,-105.67"/>
<polygon fill="red" stroke="red" stroke-width="0.41" points="1045.17,-108.61 1052.37,-100.84 1041.89,-102.43 1045.17,-108.61"/>
</g>
<!-- &#45;4 -->
<g id="node4" class="node">
<title>&#45;4</title>
<polygon fill="lightgray" stroke="black" points="916.32,-163.54 890.32,-163.54 890.32,-145.54 916.32,-145.54 916.32,-163.54"/>
<text text-anchor="middle" x="903.32" y="-152.34" font-family="Times-Roman" font-size="9.00">&#45;4</text>
</g>
<!-- &#45;4&#45;&gt;0 -->
<g id="edge145" class="edge">
<title>&#45;4&#45;&gt;0</title>
<path fill="none" stroke="green" stroke-width="0.49" d="M916.65,-152.91C978.49,-149.87 1235.18,-135.72 1258.32,-109.54 1270.39,-95.88 1270.69,-81.91 1258.32,-68.53 1223.82,-31.2 850.8,-47.78 802.32,-32.53 801.05,-32.13 799.78,-31.66 798.53,-31.14"/>
<polygon fill="green" stroke="green" stroke-width="0.49" points="799.76,-27.84 789.27,-26.41 796.58,-34.08 799.76,-27.84"/>
</g>
<!-- &#45;4&#45;&gt;1 -->
<g id="edge146" class="edge">
<title>&#45;4&#45;&gt;1</title>
<path fill="none" stroke="green" stroke-width="0.25" d="M916.39,-153.21C1009.88,-150.83 1574.04,-135.41 1598.32,-109.54 1610.79,-96.25 1610.66,-81.94 1598.32,-68.53 1557.74,-24.45 1120.52,-18.27 1007.08,-17.4"/>
<polygon fill="green" stroke="green" stroke-width="0.25" points="1006.87,-13.9 996.85,-17.33 1006.82,-20.9 1006.87,-13.9"/>
</g>
<!-- &#45;4&#45;&gt;2 -->
<g id="edge147" class="edge">
<title>&#45;4&#45;&gt;2</title>
<path fill="none" stroke="green" stroke-width="0.34" d="M916.38,-153.43C992.43,-152.69 1375.91,-147.06 1410.32,-109.54 1422.64,-96.1 1422.78,-81.82 1410.32,-68.53 1367.9,-23.28 912.61,-50.72 853.32,-32.53 852.05,-32.14 850.78,-31.68 849.52,-31.16"/>
<polygon fill="green" stroke="green" stroke-width="0.34" points="850.75,-27.86 840.25,-26.45 847.58,-34.1 850.75,-27.86"/>
</g>
<!-- &#45;4&#45;&gt;3 -->
<g id="edge148" class="edge">
<title>&#45;4&#45;&gt;3</title>
<path fill="none" stroke="red" stroke-width="0.74" d="M890.21,-151.64C878.26,-149.94 860.12,-147.43 844.32,-145.54 805.94,-140.94 524.19,-138.25 498.32,-109.54 486.11,-96 487.03,-82.84 498.32,-68.53 540.76,-14.69 584.73,-58.16 648.32,-32.53 649.55,-32.03 650.79,-31.48 652.02,-30.9"/>
<polygon fill="red" stroke="red" stroke-width="0.74" points="654.05,-33.78 661.21,-25.97 650.74,-27.62 654.05,-33.78"/>
</g>
<!-- &#45;4&#45;&gt;4 -->
<g id="edge149" class="edge">
<title>&#45;4&#45;&gt;4</title>
<path fill="none" stroke="red" stroke-width="0.39" d="M916.35,-153.71C1004.93,-154.73 1516.54,-158.47 1562.32,-109.54 1574.77,-96.23 1574.85,-81.76 1562.32,-68.53 1511.98,-15.36 974.42,-53.66 904.32,-32.53 903.05,-32.14 901.78,-31.69 900.51,-31.18"/>
<polygon fill="red" stroke="red" stroke-width="0.39" points="901.75,-27.88 891.25,-26.48 898.58,-34.12 901.75,-27.88"/>
</g>
<!-- &#45;4&#45;&gt;5 -->
<g id="edge150" class="edge">
<title>&#45;4&#45;&gt;5</title>
<path fill="none" stroke="red" stroke-width="0.48" d="M890.21,-151.63C878.26,-149.92 860.13,-147.41 844.32,-145.54 804.61,-140.85 513.13,-139.19 486.32,-109.54 474.09,-96.02 475.93,-83.5 486.32,-68.53 511.28,-32.53 564.81,-21.77 597.07,-18.58"/>
<polygon fill="red" stroke="red" stroke-width="0.48" points="597.44,-22.06 607.12,-17.76 596.87,-15.08 597.44,-22.06"/>
</g>
<!-- &#45;4&#45;&gt;6 -->
<g id="edge151" class="edge">
<title>&#45;4&#45;&gt;6</title>
<path fill="none" stroke="red" stroke-width="0.41" d="M916.47,-153.82C981.95,-154.84 1266.46,-154.47 1187.32,-68.53 1121.46,2.99 844,-61.87 751.32,-32.53 750.05,-32.13 748.79,-31.66 747.53,-31.13"/>
<polygon fill="red" stroke="red" stroke-width="0.41" points="748.77,-27.84 738.27,-26.4 745.58,-34.07 748.77,-27.84"/>
</g>
<!-- &#45;4&#45;&gt;7 -->
<g id="edge152" class="edge">
<title>&#45;4&#45;&gt;7</title>
<path fill="none" stroke="green" stroke-width="0.82" d="M916.41,-153.73C1006.58,-154.94 1533.2,-159.82 1580.32,-109.54 1592.78,-96.24 1592.83,-81.78 1580.32,-68.53 1532.57,-17.95 1021.89,-52.7 955.32,-32.53 954.05,-32.14 952.78,-31.69 951.52,-31.17"/>
<polygon fill="green" stroke="green" stroke-width="0.82" points="952.75,-27.87 942.25,-26.47 949.58,-34.12 952.75,-27.87"/>
</g>
<!-- &#45;4&#45;&gt;8 -->
<g id="edge31" class="edge">
<title>&#45;4&#45;&gt;8</title>
<path fill="none" stroke="red" stroke-width="0.14" d="M916.47,-152.78C952.34,-150.35 1054.4,-140.95 1132.32,-109.54 1135.27,-108.35 1138.25,-106.85 1141.12,-105.21"/>
<polygon fill="red" stroke="red" stroke-width="0.14" points="1143.2,-108.04 1149.78,-99.74 1139.46,-102.13 1143.2,-108.04"/>
</g>
<!-- &#45;4&#45;&gt;9 -->
<g id="edge32" class="edge">
<title>&#45;4&#45;&gt;9</title>
<path fill="none" stroke="green" stroke-width="0.26" d="M890.16,-151.77C834.62,-144.26 621.55,-115.22 608.32,-109.54 606.5,-108.76 604.69,-107.81 602.94,-106.76"/>
<polygon fill="green" stroke="green" stroke-width="0.26" points="604.9,-103.86 594.71,-100.93 600.85,-109.57 604.9,-103.86"/>
</g>
<!-- &#45;4&#45;&gt;10 -->
<g id="edge33" class="edge">
<title>&#45;4&#45;&gt;10</title>
<path fill="none" stroke="red" stroke-width="0.54" d="M890.29,-151.82C847.06,-146.01 708.79,-126.5 667.32,-109.54 665.91,-108.96 664.51,-108.32 663.11,-107.61"/>
<polygon fill="red" stroke="red" stroke-width="0.54" points="664.62,-104.44 654.22,-102.41 661.08,-110.48 664.62,-104.44"/>
</g>
<!-- &#45;4&#45;&gt;11 -->
<g id="edge34" class="edge">
<title>&#45;4&#45;&gt;11</title>
<path fill="none" stroke="green" stroke-width="0.25" d="M889.92,-151.83C859.67,-147.64 784.2,-135.24 726.32,-109.54 724.93,-108.92 723.54,-108.24 722.15,-107.51"/>
<polygon fill="green" stroke="green" stroke-width="0.25" points="723.68,-104.35 713.3,-102.22 720.09,-110.36 723.68,-104.35"/>
</g>
<!-- &#45;4&#45;&gt;12 -->
<g id="edge35" class="edge">
<title>&#45;4&#45;&gt;12</title>
<path fill="none" stroke="red" stroke-width="0.28" d="M890.15,-149.74C867.88,-143.09 821.68,-128.22 785.32,-109.54 783.97,-108.85 782.6,-108.1 781.24,-107.32"/>
<polygon fill="red" stroke="red" stroke-width="0.28" points="782.81,-104.18 772.47,-101.87 779.11,-110.12 782.81,-104.18"/>
</g>
<!-- &#45;4&#45;&gt;13 -->
<g id="edge36" class="edge">
<title>&#45;4&#45;&gt;13</title>
<path fill="none" stroke="green" stroke-width="0.17" d="M892.17,-145.5C879.17,-136.12 857.29,-120.33 840.19,-107.99"/>
<polygon fill="green" stroke="green" stroke-width="0.17" points="841.92,-104.91 831.76,-101.9 837.82,-110.59 841.92,-104.91"/>
</g>
<!-- &#45;4&#45;&gt;14 -->
<g id="edge37" class="edge">
<title>&#45;4&#45;&gt;14</title>
<path fill="none" stroke="red" stroke-width="0.25" d="M899.64,-145.5C896.35,-138.29 891.33,-127.3 886.63,-117"/>
<polygon fill="red" stroke="red" stroke-width="0.25" points="889.79,-115.5 882.46,-107.86 883.43,-118.41 889.79,-115.5"/>
</g>
<!-- &#45;4&#45;&gt;15 -->
<g id="edge38" class="edge">
<title>&#45;4&#45;&gt;15</title>
<path fill="none" stroke="red" stroke-width="0.34" d="M907.12,-145.5C910.52,-138.29 915.71,-127.3 920.58,-117"/>
<polygon fill="red" stroke="red" stroke-width="0.34" points="923.79,-118.39 924.9,-107.86 917.46,-115.4 923.79,-118.39"/>
</g>
<!-- &#45;4&#45;&gt;16 -->
<g id="edge39" class="edge">
<title>&#45;4&#45;&gt;16</title>
<path fill="none" stroke="red" stroke-width="0.13" stroke-dasharray="1,5" d="M890.2,-151.72C878.25,-150.08 860.1,-147.6 844.32,-145.54 717.28,-128.93 678.63,-153.57 558.32,-109.54 556.48,-108.87 554.64,-108.06 552.83,-107.17"/>
<polygon fill="red" stroke="red" stroke-width="0.13" points="554.53,-104.12 544.11,-102.19 551.05,-110.19 554.53,-104.12"/>
</g>
<!-- &#45;4&#45;&gt;17 -->
<g id="edge40" class="edge">
<title>&#45;4&#45;&gt;17</title>
<path fill="none" stroke="green" stroke-width="0.11" d="M916.64,-149.95C940.66,-143.28 992.62,-127.97 1034.32,-109.54 1037.21,-108.26 1040.19,-106.82 1043.12,-105.31"/>
<polygon fill="green" stroke="green" stroke-width="0.11" points="1045.06,-108.24 1052.19,-100.4 1041.73,-102.08 1045.06,-108.24"/>
</g>
<!-- 8&#45;&gt;0 -->
<g id="edge41" class="edge">
<title>8&#45;&gt;0</title>
<path fill="none" stroke="red" stroke-width="0.22" d="M1147.24,-82.53C1134.61,-78.11 1116,-72.09 1099.32,-68.53 969.28,-40.75 928.29,-75.08 802.32,-32.53 801.06,-32.1 799.8,-31.61 798.55,-31.08"/>
<polygon fill="red" stroke="red" stroke-width="0.22" points="799.8,-27.78 789.31,-26.29 796.58,-34 799.8,-27.78"/>
</g>
<!-- 8&#45;&gt;1 -->
<g id="edge42" class="edge">
<title>8&#45;&gt;1</title>
<path fill="none" stroke="red" stroke-width="0.39" d="M1149.59,-78.75C1144.41,-75.23 1138.24,-71.4 1132.32,-68.53 1089.71,-47.9 1036.68,-32.07 1005.85,-23.75"/>
<polygon fill="red" stroke="red" stroke-width="0.39" points="1006.48,-20.3 995.92,-21.13 1004.69,-27.07 1006.48,-20.3"/>
</g>
<!-- 8&#45;&gt;2 -->
<g id="edge43" class="edge">
<title>8&#45;&gt;2</title>
<path fill="none" stroke="red" stroke-width="0.15" d="M1147.22,-82.63C1134.57,-78.29 1115.96,-72.3 1099.32,-68.53 991.55,-44.11 957.56,-69.18 853.32,-32.53 852.07,-32.09 850.81,-31.59 849.56,-31.04"/>
<polygon fill="red" stroke="red" stroke-width="0.15" points="850.81,-27.75 840.33,-26.22 847.58,-33.95 850.81,-27.75"/>
</g>
<!-- 8&#45;&gt;3 -->
<g id="edge44" class="edge">
<title>8&#45;&gt;3</title>
<path fill="none" stroke="red" stroke-width="0.3" d="M1147.27,-82.39C1134.65,-77.9 1116.05,-71.83 1099.32,-68.53 924.64,-34 869.86,-86.91 700.32,-32.53 699.05,-32.12 697.79,-31.65 696.53,-31.12"/>
<polygon fill="red" stroke="red" stroke-width="0.3" points="697.77,-27.83 687.28,-26.38 694.58,-34.06 697.77,-27.83"/>
</g>
<!-- 8&#45;&gt;4 -->
<g id="edge45" class="edge">
<title>8&#45;&gt;4</title>
<path fill="none" stroke="red" stroke-width="0.17" stroke-dasharray="1,5" d="M1149.82,-78.22C1144.66,-74.64 1138.46,-70.89 1132.32,-68.53 1036.54,-31.76 1000.9,-67.1 904.32,-32.53 903.07,-32.08 901.81,-31.57 900.57,-31.02"/>
<polygon fill="red" stroke="red" stroke-width="0.17" points="901.82,-27.73 891.34,-26.19 898.58,-33.93 901.82,-27.73"/>
</g>
<!-- 8&#45;&gt;5 -->
<g id="edge46" class="edge">
<title>8&#45;&gt;5</title>
<path fill="none" stroke="red" stroke-width="0.21" d="M1147.28,-82.35C1134.66,-77.83 1116.07,-71.75 1099.32,-68.53 902.29,-30.63 840.67,-92.84 649.32,-32.53 648.05,-32.13 646.78,-31.66 645.53,-31.14"/>
<polygon fill="red" stroke="red" stroke-width="0.21" points="646.77,-27.84 636.27,-26.41 643.58,-34.07 646.77,-27.84"/>
</g>
<!-- 8&#45;&gt;6 -->
<g id="edge47" class="edge">
<title>8&#45;&gt;6</title>
<path fill="none" stroke="red" stroke-width="0.48" d="M1147.26,-82.45C1134.63,-77.99 1116.03,-71.94 1099.32,-68.53 946.98,-37.38 899.06,-80.99 751.32,-32.53 750.06,-32.11 748.79,-31.63 747.54,-31.1"/>
<polygon fill="red" stroke="red" stroke-width="0.48" points="748.78,-27.81 738.29,-26.34 745.58,-34.03 748.78,-27.81"/>
</g>
<!-- 8&#45;&gt;7 -->
<g id="edge48" class="edge">
<title>8&#45;&gt;7</title>
<path fill="none" stroke="green" stroke-width="0.72" d="M1149.76,-78.36C1144.6,-74.8 1138.41,-71.02 1132.32,-68.53 1058.02,-38.11 1030.28,-61.24 955.32,-32.53 954.08,-32.05 952.83,-31.52 951.59,-30.95"/>
<polygon fill="green" stroke="green" stroke-width="0.72" points="952.86,-27.67 942.39,-26.07 949.58,-33.85 952.86,-27.67"/>
</g>
<!-- 9&#45;&gt;0 -->
<g id="edge49" class="edge">
<title>9&#45;&gt;0</title>
<path fill="none" stroke="green" stroke-width="0.1" d="M594.84,-77.42C598.87,-74.18 603.57,-70.85 608.32,-68.53 666.79,-39.89 690.09,-57.25 750.32,-32.53 751.54,-32.02 752.78,-31.47 754.01,-30.88"/>
<polygon fill="green" stroke="green" stroke-width="0.1" points="756.05,-33.76 763.19,-25.94 752.73,-27.6 756.05,-33.76"/>
</g>
<!-- 9&#45;&gt;1 -->
<g id="edge50" class="edge">
<title>9&#45;&gt;1</title>
<path fill="none" stroke="red" stroke-width="0.31" d="M594.66,-77.01C598.67,-73.74 603.41,-70.5 608.32,-68.53 751.72,-10.73 807.42,-80.76 954.32,-32.53 955.58,-32.11 956.84,-31.63 958.1,-31.1"/>
<polygon fill="red" stroke="red" stroke-width="0.31" points="960.05,-34.03 967.34,-26.34 956.85,-27.81 960.05,-34.03"/>
</g>
<!-- 9&#45;&gt;2 -->
<g id="edge51" class="edge">
<title>9&#45;&gt;2</title>
<path fill="none" stroke="red" stroke-width="0.25" d="M594.76,-77.24C598.78,-73.98 603.5,-70.7 608.32,-68.53 687.87,-32.67 719.58,-63.07 801.32,-32.53 802.56,-32.06 803.81,-31.54 805.05,-30.98"/>
<polygon fill="red" stroke="red" stroke-width="0.25" points="807.06,-33.88 814.26,-26.11 803.79,-27.69 807.06,-33.88"/>
</g>
<!-- 9&#45;&gt;3 -->
<g id="edge52" class="edge">
<title>9&#45;&gt;3</title>
<path fill="none" stroke="red" stroke-width="0.27" d="M595.77,-78.3C599.78,-75.18 604.23,-71.71 608.32,-68.53 623.39,-56.8 640.41,-43.58 653.39,-33.5"/>
<polygon fill="red" stroke="red" stroke-width="0.27" points="655.9,-35.98 661.66,-27.08 651.61,-30.45 655.9,-35.98"/>
</g>
<!-- 9&#45;&gt;4 -->
<g id="edge53" class="edge">
<title>9&#45;&gt;4</title>
<path fill="none" stroke="green" stroke-width="0.4" d="M594.71,-77.14C598.73,-73.87 603.46,-70.61 608.32,-68.53 709.09,-25.38 748.92,-68.95 852.32,-32.53 853.57,-32.09 854.82,-31.58 856.07,-31.04"/>
<polygon fill="green" stroke="green" stroke-width="0.4" points="858.06,-33.95 865.3,-26.22 854.82,-27.74 858.06,-33.95"/>
</g>
<!-- 9&#45;&gt;5 -->
<g id="edge54" class="edge">
<title>9&#45;&gt;5</title>
<path fill="none" stroke="red" stroke-width="0.18" d="M591.03,-74.39C596.56,-64.6 604.15,-51.18 610.57,-39.81"/>
<polygon fill="red" stroke="red" stroke-width="0.18" points="613.75,-41.29 615.63,-30.87 607.66,-37.85 613.75,-41.29"/>
</g>
<!-- 9&#45;&gt;6 -->
<g id="edge55" class="edge">
<title>9&#45;&gt;6</title>
<path fill="none" stroke="red" stroke-width="0.4" d="M595.28,-77.57C599.26,-74.41 603.82,-71.1 608.32,-68.53 646.07,-46.93 660.22,-51.59 699.32,-32.53 700.48,-31.96 701.66,-31.36 702.85,-30.74"/>
<polygon fill="red" stroke="red" stroke-width="0.4" points="704.75,-33.68 711.77,-25.75 701.33,-27.57 704.75,-33.68"/>
</g>
<!-- 9&#45;&gt;7 -->
<g id="edge56" class="edge">
<title>9&#45;&gt;7</title>
<path fill="none" stroke="red" stroke-width="0.63" d="M594.68,-77.06C598.7,-73.79 603.43,-70.55 608.32,-68.53 730.38,-18.07 778.2,-74.85 903.32,-32.53 904.57,-32.1 905.83,-31.61 907.09,-31.07"/>
<polygon fill="red" stroke="red" stroke-width="0.63" points="909.06,-34 916.33,-26.29 905.84,-27.78 909.06,-34"/>
</g>
<!-- 10&#45;&gt;0 -->
<g id="edge57" class="edge">
<title>10&#45;&gt;0</title>
<path fill="none" stroke="green" stroke-width="0.36" d="M654.55,-76.36C658.63,-73.64 663.06,-70.86 667.32,-68.53 702.59,-49.23 714.47,-50.74 750.32,-32.53 751.47,-31.94 752.65,-31.32 753.83,-30.69"/>
<polygon fill="green" stroke="green" stroke-width="0.36" points="755.74,-33.63 762.73,-25.66 752.3,-27.53 755.74,-33.63"/>
</g>
<!-- 10&#45;&gt;1 -->
<g id="edge58" class="edge">
<title>10&#45;&gt;1</title>
<path fill="none" stroke="red" stroke-width="0.85" d="M654.14,-75.47C658.23,-72.77 662.77,-70.23 667.32,-68.53 787.7,-23.43 832.61,-73.92 954.32,-32.53 955.57,-32.1 956.83,-31.61 958.08,-31.07"/>
<polygon fill="red" stroke="red" stroke-width="0.85" points="960.06,-33.99 967.32,-26.28 956.83,-27.78 960.06,-33.99"/>
</g>
<!-- 10&#45;&gt;2 -->
<g id="edge59" class="edge">
<title>10&#45;&gt;2</title>
<path fill="none" stroke="red" stroke-width="0.58" d="M654.33,-75.9C658.41,-73.2 662.9,-70.54 667.32,-68.53 723.44,-42.97 744.44,-56.35 801.32,-32.53 802.54,-32.02 803.77,-31.46 805.01,-30.86"/>
<polygon fill="red" stroke="red" stroke-width="0.58" points="807.05,-33.74 814.18,-25.9 803.72,-27.58 807.05,-33.74"/>
</g>
<!-- 10&#45;&gt;3 -->
<g id="edge60" class="edge">
<title>10&#45;&gt;3</title>
<path fill="none" stroke="red" stroke-width="0.1" d="M647.22,-70.54C651.84,-61.45 657.55,-50.23 662.53,-40.43"/>
<polygon fill="red" stroke="red" stroke-width="0.1" points="665.79,-41.74 667.21,-31.24 659.55,-38.57 665.79,-41.74"/>
</g>
<!-- 10&#45;&gt;4 -->
<g id="edge61" class="edge">
<title>10&#45;&gt;4</title>
<path fill="none" stroke="green" stroke-width="0.29" d="M654.23,-75.68C658.32,-72.98 662.83,-70.38 667.32,-68.53 744.72,-36.51 773.97,-62.15 852.32,-32.53 853.56,-32.06 854.8,-31.53 856.05,-30.97"/>
<polygon fill="green" stroke="green" stroke-width="0.29" points="858.06,-33.86 865.26,-26.09 854.78,-27.68 858.06,-33.86"/>
</g>
<!-- 10&#45;&gt;5 -->
<g id="edge62" class="edge">
<title>10&#45;&gt;5</title>
<path fill="none" stroke="red" stroke-width="0.12" d="M634.22,-68.69C632.49,-60.55 630.46,-50.96 628.62,-42.29"/>
<polygon fill="red" stroke="red" stroke-width="0.12" points="632,-41.37 626.51,-32.32 625.16,-42.82 632,-41.37"/>
</g>
<!-- 10&#45;&gt;6 -->
<g id="edge63" class="edge">
<title>10&#45;&gt;6</title>
<path fill="none" stroke="red" stroke-width="0.27" d="M653.87,-75.38C668.14,-63.77 689.36,-46.51 704.97,-33.81"/>
<polygon fill="red" stroke="red" stroke-width="0.27" points="707.44,-36.32 712.99,-27.29 703.02,-30.89 707.44,-36.32"/>
</g>
<!-- 10&#45;&gt;7 -->
<g id="edge64" class="edge">
<title>10&#45;&gt;7</title>
<path fill="none" stroke="green" stroke-width="0.34" d="M654.18,-75.55C658.27,-72.86 662.79,-70.29 667.32,-68.53 766.17,-29.99 803.33,-68.02 903.32,-32.53 904.57,-32.08 905.82,-31.58 907.07,-31.03"/>
<polygon fill="green" stroke="green" stroke-width="0.34" points="909.06,-33.94 916.3,-26.21 905.81,-27.74 909.06,-33.94"/>
</g>
<!-- 11&#45;&gt;0 -->
<g id="edge65" class="edge">
<title>11&#45;&gt;0</title>
<path fill="none" stroke="green" stroke-width="0.49" d="M712.18,-74.72C724.88,-63.34 743.24,-46.89 757.07,-34.5"/>
<polygon fill="green" stroke="green" stroke-width="0.49" points="759.5,-37.03 764.61,-27.75 754.83,-31.82 759.5,-37.03"/>
</g>
<!-- 11&#45;&gt;1 -->
<g id="edge66" class="edge">
<title>11&#45;&gt;1</title>
<path fill="none" stroke="red" stroke-width="0.26" d="M713.18,-75.57C717.27,-72.87 721.8,-70.3 726.32,-68.53 821.8,-31.01 857.73,-67.1 954.32,-32.53 955.56,-32.08 956.82,-31.57 958.07,-31.02"/>
<polygon fill="red" stroke="red" stroke-width="0.26" points="960.06,-33.93 967.29,-26.19 956.81,-27.73 960.06,-33.93"/>
</g>
<!-- 11&#45;&gt;2 -->
<g id="edge67" class="edge">
<title>11&#45;&gt;2</title>
<path fill="none" stroke="green" stroke-width="0.41" d="M713.62,-76.47C717.69,-73.75 722.1,-70.94 726.32,-68.53 758.41,-50.16 768.68,-49.9 801.32,-32.53 802.46,-31.92 803.63,-31.28 804.8,-30.64"/>
<polygon fill="green" stroke="green" stroke-width="0.41" points="806.73,-33.56 813.67,-25.56 803.26,-27.49 806.73,-33.56"/>
</g>
<!-- 11&#45;&gt;3 -->
<g id="edge68" class="edge">
<title>11&#45;&gt;3</title>
<path fill="none" stroke="red" stroke-width="0.44" d="M691.15,-69.07C688.41,-60.62 685.14,-50.57 682.22,-41.57"/>
<polygon fill="red" stroke="red" stroke-width="0.44" points="685.53,-40.44 679.11,-32.02 678.87,-42.61 685.53,-40.44"/>
</g>
<!-- 11&#45;&gt;4 -->
<g id="edge69" class="edge">
<title>11&#45;&gt;4</title>
<path fill="none" stroke="red" stroke-width="0.18" d="M713.35,-75.95C717.43,-73.25 721.91,-70.57 726.32,-68.53 779.13,-43.97 798.78,-55.45 852.32,-32.53 853.53,-32.01 854.77,-31.44 856,-30.84"/>
<polygon fill="red" stroke="red" stroke-width="0.18" points="858.05,-33.71 865.16,-25.85 854.7,-27.56 858.05,-33.71"/>
</g>
<!-- 11&#45;&gt;5 -->
<g id="edge70" class="edge">
<title>11&#45;&gt;5</title>
<path fill="none" stroke="green" stroke-width="0.33" d="M682.7,-74.05C671.12,-62.98 654.85,-47.42 642.27,-35.39"/>
<polygon fill="green" stroke="green" stroke-width="0.33" points="644.63,-32.81 634.99,-28.43 639.8,-37.87 644.63,-32.81"/>
</g>
<!-- 11&#45;&gt;6 -->
<g id="edge71" class="edge">
<title>11&#45;&gt;6</title>
<path fill="none" stroke="green" stroke-width="0.13" d="M704.53,-69.81C707.95,-61.15 712.1,-50.67 715.78,-41.37"/>
<polygon fill="green" stroke="green" stroke-width="0.13" points="719.12,-42.45 719.54,-31.86 712.61,-39.87 719.12,-42.45"/>
</g>
<!-- 11&#45;&gt;7 -->
<g id="edge72" class="edge">
<title>11&#45;&gt;7</title>
<path fill="none" stroke="green" stroke-width="0.14" d="M713.24,-75.71C717.33,-73.01 721.84,-70.4 726.32,-68.53 800.37,-37.53 828.35,-61.24 903.32,-32.53 904.55,-32.05 905.8,-31.52 907.04,-30.95"/>
<polygon fill="green" stroke="green" stroke-width="0.14" points="909.06,-33.85 916.25,-26.07 905.77,-27.67 909.06,-33.85"/>
</g>
<!-- 12&#45;&gt;0 -->
<g id="edge73" class="edge">
<title>12&#45;&gt;0</title>
<path fill="none" stroke="red" stroke-width="0.41" d="M761.68,-69.07C764.04,-60.71 766.84,-50.78 769.36,-41.87"/>
<polygon fill="red" stroke="red" stroke-width="0.41" points="772.8,-42.59 772.15,-32.02 766.06,-40.69 772.8,-42.59"/>
</g>
<!-- 12&#45;&gt;1 -->
<g id="edge74" class="edge">
<title>12&#45;&gt;1</title>
<path fill="none" stroke="red" stroke-width="0.31" d="M772.25,-75.74C776.34,-73.04 780.85,-70.42 785.32,-68.53 856.02,-38.55 882.73,-60.32 954.32,-32.53 955.55,-32.05 956.8,-31.51 958.04,-30.94"/>
<polygon fill="red" stroke="red" stroke-width="0.31" points="960.05,-33.83 967.24,-26.04 956.77,-27.65 960.05,-33.83"/>
</g>
<!-- 12&#45;&gt;2 -->
<g id="edge75" class="edge">
<title>12&#45;&gt;2</title>
<path fill="none" stroke="green" stroke-width="0.16" d="M770.34,-74.05C781.35,-63.08 796.77,-47.71 808.79,-35.73"/>
<polygon fill="green" stroke="green" stroke-width="0.16" points="811.51,-37.96 816.12,-28.43 806.56,-33.01 811.51,-37.96"/>
</g>
<!-- 12&#45;&gt;3 -->
<g id="edge76" class="edge">
<title>12&#45;&gt;3</title>
<path fill="none" stroke="red" stroke-width="0.5" d="M741.28,-75.05C728.06,-63.64 708.72,-46.96 694.23,-34.45"/>
<polygon fill="red" stroke="red" stroke-width="0.5" points="696.19,-31.52 686.33,-27.63 691.61,-36.82 696.19,-31.52"/>
</g>
<!-- 12&#45;&gt;4 -->
<g id="edge77" class="edge">
<title>12&#45;&gt;4</title>
<path fill="none" stroke="red" stroke-width="0.23" d="M772.7,-76.61C776.77,-73.88 781.16,-71.03 785.32,-68.53 814.27,-51.07 822.85,-49.09 852.32,-32.53 853.45,-31.89 854.6,-31.24 855.76,-30.57"/>
<polygon fill="red" stroke="red" stroke-width="0.23" points="857.72,-33.49 864.61,-25.44 854.2,-27.43 857.72,-33.49"/>
</g>
<!-- 12&#45;&gt;5 -->
<g id="edge78" class="edge">
<title>12&#45;&gt;5</title>
<path fill="none" stroke="green" stroke-width="0.39" d="M740.04,-76.42C735.97,-73.7 731.55,-70.91 727.32,-68.53 694.04,-49.81 683.15,-50.21 649.32,-32.53 648.17,-31.93 647,-31.3 645.82,-30.66"/>
<polygon fill="green" stroke="green" stroke-width="0.39" points="647.36,-27.5 636.94,-25.6 643.9,-33.59 647.36,-27.5"/>
</g>
<!-- 12&#45;&gt;6 -->
<g id="edge79" class="edge">
<title>12&#45;&gt;6</title>
<path fill="none" stroke="red" stroke-width="0.31" d="M748.33,-69.81C744.45,-60.93 739.73,-50.16 735.57,-40.68"/>
<polygon fill="red" stroke="red" stroke-width="0.31" points="738.73,-39.16 731.51,-31.41 732.32,-41.97 738.73,-39.16"/>
</g>
<!-- 12&#45;&gt;7 -->
<g id="edge80" class="edge">
<title>12&#45;&gt;7</title>
<path fill="none" stroke="red" stroke-width="0.25" d="M772.38,-76.01C776.46,-73.3 780.93,-70.61 785.32,-68.53 834.83,-44.97 853.11,-54.56 903.32,-32.53 904.53,-31.99 905.76,-31.42 906.98,-30.81"/>
<polygon fill="red" stroke="red" stroke-width="0.25" points="909.04,-33.67 916.14,-25.81 905.69,-27.53 909.04,-33.67"/>
</g>
<!-- 13&#45;&gt;0 -->
<g id="edge81" class="edge">
<title>13&#45;&gt;0</title>
<path fill="none" stroke="red" stroke-width="0.52" d="M805.68,-70.54C800.55,-61.23 794.19,-49.69 788.7,-39.73"/>
<polygon fill="red" stroke="red" stroke-width="0.52" points="791.66,-37.85 783.77,-30.79 785.53,-41.23 791.66,-37.85"/>
</g>
<!-- 13&#45;&gt;1 -->
<g id="edge82" class="edge">
<title>13&#45;&gt;1</title>
<path fill="none" stroke="green" stroke-width="0.29" d="M831.41,-76.07C835.49,-73.36 839.95,-70.66 844.32,-68.53 890.54,-45.96 907.42,-53.67 954.32,-32.53 955.5,-31.99 956.69,-31.42 957.89,-30.82"/>
<polygon fill="green" stroke="green" stroke-width="0.29" points="959.76,-33.79 966.85,-25.91 956.4,-27.65 959.76,-33.79"/>
</g>
<!-- 13&#45;&gt;2 -->
<g id="edge83" class="edge">
<title>13&#45;&gt;2</title>
<path fill="none" stroke="green" stroke-width="0.11" d="M818.6,-68.69C819.96,-60.66 821.56,-51.24 823.01,-42.66"/>
<polygon fill="green" stroke="green" stroke-width="0.11" points="826.47,-43.22 824.69,-32.77 819.56,-42.05 826.47,-43.22"/>
</g>
<!-- 13&#45;&gt;3 -->
<g id="edge84" class="edge">
<title>13&#45;&gt;3</title>
<path fill="none" stroke="red" stroke-width="0.72" d="M799.1,-76.32C795.02,-73.6 790.59,-70.83 786.32,-68.53 749.84,-48.87 737.38,-51.06 700.32,-32.53 699.16,-31.95 697.98,-31.34 696.8,-30.71"/>
<polygon fill="red" stroke="red" stroke-width="0.72" points="698.32,-27.55 687.89,-25.69 694.89,-33.65 698.32,-27.55"/>
</g>
<!-- 13&#45;&gt;4 -->
<g id="edge85" class="edge">
<title>13&#45;&gt;4</title>
<path fill="none" stroke="red" stroke-width="0.64" d="M828.68,-73.02C838.09,-62.45 850.79,-48.18 860.99,-36.73"/>
<polygon fill="red" stroke="red" stroke-width="0.64" points="863.85,-38.78 867.89,-28.98 858.62,-34.12 863.85,-38.78"/>
</g>
<!-- 13&#45;&gt;5 -->
<g id="edge86" class="edge">
<title>13&#45;&gt;5</title>
<path fill="none" stroke="green" stroke-width="0.34" d="M799.31,-75.89C795.23,-73.18 790.74,-70.53 786.32,-68.53 728.95,-42.6 707.45,-56.69 649.32,-32.53 648.09,-32.02 646.86,-31.46 645.62,-30.87"/>
<polygon fill="green" stroke="green" stroke-width="0.34" points="646.91,-27.59 636.45,-25.91 643.58,-33.75 646.91,-27.59"/>
</g>
<!-- 13&#45;&gt;6 -->
<g id="edge87" class="edge">
<title>13&#45;&gt;6</title>
<path fill="none" stroke="green" stroke-width="0.31" d="M799.64,-75.71C784.63,-63.9 761.91,-46.04 745.54,-33.17"/>
<polygon fill="green" stroke="green" stroke-width="0.31" points="747.66,-30.38 737.64,-26.95 743.33,-35.88 747.66,-30.38"/>
</g>
<!-- 13&#45;&gt;7 -->
<g id="edge88" class="edge">
<title>13&#45;&gt;7</title>
<path fill="none" stroke="red" stroke-width="0.72" d="M831.79,-76.75C835.86,-74.02 840.22,-71.14 844.32,-68.53 855.9,-61.14 886.02,-43.08 907.09,-30.5"/>
<polygon fill="red" stroke="red" stroke-width="0.72" points="908.97,-33.45 915.77,-25.32 905.39,-27.44 908.97,-33.45"/>
</g>
<!-- 14&#45;&gt;0 -->
<g id="edge89" class="edge">
<title>14&#45;&gt;0</title>
<path fill="none" stroke="red" stroke-width="0.24" d="M858.13,-76.35C841.5,-64.34 815.53,-45.58 797.32,-32.43"/>
<polygon fill="red" stroke="red" stroke-width="0.24" points="799.24,-29.5 789.08,-26.48 795.14,-35.18 799.24,-29.5"/>
</g>
<!-- 14&#45;&gt;1 -->
<g id="edge90" class="edge">
<title>14&#45;&gt;1</title>
<path fill="none" stroke="red" stroke-width="0.19" d="M890.87,-76.88C894.94,-74.14 899.28,-71.23 903.32,-68.53 922.06,-55.98 943.41,-41.77 958.87,-31.5"/>
<polygon fill="red" stroke="red" stroke-width="0.19" points="960.83,-34.4 967.22,-25.95 956.96,-28.57 960.83,-34.4"/>
</g>
<!-- 14&#45;&gt;2 -->
<g id="edge91" class="edge">
<title>14&#45;&gt;2</title>
<path fill="none" stroke="red" stroke-width="0.88" stroke-dasharray="1,5" d="M863.42,-71.62C856.96,-61.89 848.69,-49.45 841.7,-38.92"/>
<polygon fill="red" stroke="red" stroke-width="0.88" points="844.41,-36.68 835.96,-30.28 838.58,-40.55 844.41,-36.68"/>
</g>
<!-- 14&#45;&gt;3 -->
<g id="edge92" class="edge">
<title>14&#45;&gt;3</title>
<path fill="none" stroke="red" stroke-width="0.47" d="M858.33,-75.84C854.25,-73.14 849.75,-70.5 845.32,-68.53 784.63,-41.59 761.8,-57.59 700.32,-32.53 699.09,-32.03 697.85,-31.48 696.62,-30.89"/>
<polygon fill="red" stroke="red" stroke-width="0.47" points="697.9,-27.61 687.43,-25.95 694.58,-33.77 697.9,-27.61"/>
</g>
<!-- 14&#45;&gt;4 -->
<g id="edge93" class="edge">
<title>14&#45;&gt;4</title>
<path fill="none" stroke="red" stroke-width="0.16" d="M875.43,-68.32C875.88,-60.38 876.4,-51.13 876.88,-42.69"/>
<polygon fill="red" stroke="red" stroke-width="0.16" points="880.38,-42.79 877.45,-32.61 873.39,-42.4 880.38,-42.79"/>
</g>
<!-- 14&#45;&gt;5 -->
<g id="edge94" class="edge">
<title>14&#45;&gt;5</title>
<path fill="none" stroke="green" stroke-width="0.37" d="M858.42,-75.65C854.33,-72.95 849.81,-70.36 845.32,-68.53 763.29,-35.11 732.32,-63.42 649.32,-32.53 648.07,-32.06 646.82,-31.54 645.58,-30.98"/>
<polygon fill="green" stroke="green" stroke-width="0.37" points="646.84,-27.69 636.37,-26.12 643.58,-33.88 646.84,-27.69"/>
</g>
<!-- 14&#45;&gt;6 -->
<g id="edge95" class="edge">
<title>14&#45;&gt;6</title>
<path fill="none" stroke="red" stroke-width="0.15" d="M858.15,-76.22C854.07,-73.51 849.62,-70.76 845.32,-68.53 805.61,-47.91 791.63,-51.92 751.32,-32.53 750.15,-31.97 748.96,-31.37 747.78,-30.75"/>
<polygon fill="red" stroke="red" stroke-width="0.15" points="749.29,-27.59 738.85,-25.78 745.88,-33.7 749.29,-27.59"/>
</g>
<!-- 14&#45;&gt;7 -->
<g id="edge96" class="edge">
<title>14&#45;&gt;7</title>
<path fill="none" stroke="green" stroke-width="0.64" d="M886.52,-72.33C894.41,-62.17 904.77,-48.85 913.32,-37.85"/>
<polygon fill="green" stroke="green" stroke-width="0.64" points="916.33,-39.68 919.7,-29.64 910.8,-35.38 916.33,-39.68"/>
</g>
<!-- 15&#45;&gt;0 -->
<g id="edge97" class="edge">
<title>15&#45;&gt;0</title>
<path fill="none" stroke="green" stroke-width="0.18" d="M917.19,-76.14C913.11,-73.43 908.65,-70.71 904.32,-68.53 861.36,-46.94 845.91,-52.79 802.32,-32.53 801.14,-31.98 799.95,-31.4 798.76,-30.79"/>
<polygon fill="green" stroke="green" stroke-width="0.18" points="800.26,-27.62 789.82,-25.85 796.87,-33.75 800.26,-27.62"/>
</g>
<!-- 15&#45;&gt;1 -->
<g id="edge98" class="edge">
<title>15&#45;&gt;1</title>
<path fill="none" stroke="red" stroke-width="0.56" d="M944.22,-71.62C950.68,-61.89 958.94,-49.45 965.93,-38.92"/>
<polygon fill="red" stroke="red" stroke-width="0.56" points="969.05,-40.55 971.67,-30.28 963.22,-36.68 969.05,-40.55"/>
</g>
<!-- 15&#45;&gt;2 -->
<g id="edge99" class="edge">
<title>15&#45;&gt;2</title>
<path fill="none" stroke="red" stroke-width="0.52" d="M916.76,-76.88C912.7,-74.14 908.35,-71.23 904.32,-68.53 885.57,-55.98 864.22,-41.77 848.76,-31.5"/>
<polygon fill="red" stroke="red" stroke-width="0.52" points="850.67,-28.57 840.41,-25.95 846.8,-34.4 850.67,-28.57"/>
</g>
<!-- 15&#45;&gt;3 -->
<g id="edge100" class="edge">
<title>15&#45;&gt;3</title>
<path fill="none" stroke="red" stroke-width="0.36" d="M917.43,-75.63C913.34,-72.93 908.82,-70.34 904.32,-68.53 818.93,-34.09 786.71,-64.34 700.32,-32.53 699.07,-32.07 697.82,-31.55 696.58,-30.99"/>
<polygon fill="red" stroke="red" stroke-width="0.36" points="697.84,-27.7 687.36,-26.14 694.58,-33.9 697.84,-27.7"/>
</g>
<!-- 15&#45;&gt;4 -->
<g id="edge101" class="edge">
<title>15&#45;&gt;4</title>
<path fill="none" stroke="green" stroke-width="0.14" d="M921.11,-72.33C913.22,-62.17 902.86,-48.85 894.32,-37.85"/>
<polygon fill="green" stroke="green" stroke-width="0.14" points="896.83,-35.38 887.93,-29.64 891.31,-39.68 896.83,-35.38"/>
</g>
<!-- 15&#45;&gt;5 -->
<g id="edge102" class="edge">
<title>15&#45;&gt;5</title>
<path fill="none" stroke="red" stroke-width="0.49" d="M917.47,-75.52C913.38,-72.82 908.85,-70.26 904.32,-68.53 797.45,-27.55 757.39,-70.22 649.32,-32.53 648.07,-32.09 646.81,-31.59 645.56,-31.05"/>
<polygon fill="red" stroke="red" stroke-width="0.49" points="646.81,-27.75 636.32,-26.24 643.58,-33.96 646.81,-27.75"/>
</g>
<!-- 15&#45;&gt;6 -->
<g id="edge103" class="edge">
<title>15&#45;&gt;6</title>
<path fill="none" stroke="green" stroke-width="0.18" d="M917.35,-75.8C913.27,-73.1 908.77,-70.47 904.32,-68.53 840.29,-40.58 816.17,-58.5 751.32,-32.53 750.09,-32.03 748.85,-31.49 747.61,-30.91"/>
<polygon fill="green" stroke="green" stroke-width="0.18" points="748.89,-27.62 738.42,-25.98 745.58,-33.79 748.89,-27.62"/>
</g>
<!-- 15&#45;&gt;7 -->
<g id="edge104" class="edge">
<title>15&#45;&gt;7</title>
<path fill="none" stroke="green" stroke-width="0.2" d="M932.2,-68.32C931.75,-60.38 931.23,-51.13 930.75,-42.69"/>
<polygon fill="green" stroke="green" stroke-width="0.2" points="934.24,-42.4 930.18,-32.61 927.25,-42.79 934.24,-42.4"/>
</g>
<!-- 16&#45;&gt;0 -->
<g id="edge105" class="edge">
<title>16&#45;&gt;0</title>
<path fill="none" stroke="green" stroke-width="0.31" d="M544.5,-75.87C548.81,-73.1 553.59,-70.42 558.32,-68.53 638.91,-36.25 669,-62.96 750.32,-32.53 751.56,-32.06 752.81,-31.54 754.05,-30.98"/>
<polygon fill="green" stroke="green" stroke-width="0.31" points="756.06,-33.88 763.26,-26.11 752.79,-27.69 756.06,-33.88"/>
</g>
<!-- 16&#45;&gt;1 -->
<g id="edge106" class="edge">
<title>16&#45;&gt;1</title>
<path fill="none" stroke="green" stroke-width="0.52" d="M544.07,-75.76C548.46,-72.92 553.39,-70.24 558.32,-68.53 725.3,-10.66 786.06,-86.57 954.32,-32.53 955.58,-32.12 956.84,-31.65 958.1,-31.12"/>
<polygon fill="green" stroke="green" stroke-width="0.52" points="960.05,-34.05 967.36,-26.38 956.86,-27.83 960.05,-34.05"/>
</g>
<!-- 16&#45;&gt;2 -->
<g id="edge107" class="edge">
<title>16&#45;&gt;2</title>
<path fill="none" stroke="red" stroke-width="0.37" d="M544.14,-75.95C548.53,-73.11 553.44,-70.37 558.32,-68.53 660.43,-29.88 698.35,-68.83 801.32,-32.53 802.57,-32.09 803.82,-31.58 805.07,-31.04"/>
<polygon fill="red" stroke="red" stroke-width="0.37" points="807.06,-33.95 814.3,-26.22 803.82,-27.74 807.06,-33.95"/>
</g>
<!-- 16&#45;&gt;3 -->
<g id="edge108" class="edge">
<title>16&#45;&gt;3</title>
<path fill="none" stroke="green" stroke-width="0.33" d="M544.79,-76.5C549.09,-73.72 553.79,-70.87 558.32,-68.53 596.56,-48.69 609.63,-51.49 648.32,-32.53 649.48,-31.96 650.66,-31.35 651.85,-30.73"/>
<polygon fill="green" stroke="green" stroke-width="0.33" points="653.75,-33.68 660.76,-25.74 650.33,-27.57 653.75,-33.68"/>
</g>
<!-- 16&#45;&gt;4 -->
<g id="edge109" class="edge">
<title>16&#45;&gt;4</title>
<path fill="none" stroke="green" stroke-width="0.45" d="M544.11,-75.87C548.5,-73.03 553.41,-70.31 558.32,-68.53 682.01,-23.49 727.62,-74.73 852.32,-32.53 853.57,-32.1 854.83,-31.61 856.09,-31.07"/>
<polygon fill="green" stroke="green" stroke-width="0.45" points="858.06,-34 865.33,-26.29 854.84,-27.78 858.06,-34"/>
</g>
<!-- 16&#45;&gt;5 -->
<g id="edge110" class="edge">
<title>16&#45;&gt;5</title>
<path fill="none" stroke="green" stroke-width="0.24" d="M544.43,-76.03C560.3,-64.21 584.63,-46.09 602.07,-33.09"/>
<polygon fill="green" stroke="green" stroke-width="0.24" points="604.55,-35.61 610.48,-26.83 600.37,-29.99 604.55,-35.61"/>
</g>
<!-- 16&#45;&gt;6 -->
<g id="edge111" class="edge">
<title>16&#45;&gt;6</title>
<path fill="none" stroke="green" stroke-width="0.26" stroke-dasharray="1,5" d="M544.59,-76.08C548.9,-73.31 553.65,-70.57 558.32,-68.53 617.55,-42.55 639.51,-57.14 699.32,-32.53 700.54,-32.02 701.78,-31.47 703.01,-30.88"/>
<polygon fill="green" stroke="green" stroke-width="0.26" points="705.05,-33.76 712.19,-25.93 701.73,-27.6 705.05,-33.76"/>
</g>
<!-- 16&#45;&gt;7 -->
<g id="edge112" class="edge">
<title>16&#45;&gt;7</title>
<path fill="none" stroke="red" stroke-width="0.33" d="M544.08,-75.81C548.48,-72.97 553.4,-70.27 558.32,-68.53 703.64,-17.08 756.85,-80.64 903.32,-32.53 904.58,-32.11 905.84,-31.63 907.1,-31.1"/>
<polygon fill="red" stroke="red" stroke-width="0.33" points="909.05,-34.03 916.34,-26.34 905.85,-27.81 909.05,-34.03"/>
</g>
<!-- 17&#45;&gt;0 -->
<g id="edge113" class="edge">
<title>17&#45;&gt;0</title>
<path fill="none" stroke="red" stroke-width="0.17" d="M1052.44,-77.04C1046.86,-73.85 1040.5,-70.65 1034.32,-68.53 935.64,-34.6 900.6,-67.56 802.32,-32.53 801.07,-32.08 799.81,-31.58 798.56,-31.03"/>
<polygon fill="red" stroke="red" stroke-width="0.17" points="799.82,-27.73 789.34,-26.2 796.58,-33.94 799.82,-27.73"/>
</g>
<!-- 17&#45;&gt;1 -->
<g id="edge114" class="edge">
<title>17&#45;&gt;1</title>
<path fill="none" stroke="green" stroke-width="0.38" d="M1053.41,-75.38C1038.72,-63.71 1016.84,-46.31 1000.85,-33.59"/>
<polygon fill="green" stroke="green" stroke-width="0.38" points="1002.66,-30.56 992.65,-27.07 998.3,-36.04 1002.66,-30.56"/>
</g>
<!-- 17&#45;&gt;2 -->
<g id="edge115" class="edge">
<title>17&#45;&gt;2</title>
<path fill="none" stroke="green" stroke-width="0.52" d="M1052.38,-77.2C1046.8,-74.01 1040.45,-70.78 1034.32,-68.53 957.34,-40.22 929.97,-61.7 853.32,-32.53 852.08,-32.06 850.83,-31.53 849.59,-30.96"/>
<polygon fill="green" stroke="green" stroke-width="0.52" points="850.86,-27.67 840.38,-26.08 847.58,-33.86 850.86,-27.67"/>
</g>
<!-- 17&#45;&gt;3 -->
<g id="edge116" class="edge">
<title>17&#45;&gt;3</title>
<path fill="none" stroke="red" stroke-width="0.35" d="M1049.04,-84.02C1027.74,-79.86 993.25,-73.33 963.32,-68.53 846.83,-49.85 811.8,-71.14 700.32,-32.53 699.06,-32.09 697.81,-31.6 696.55,-31.05"/>
<polygon fill="red" stroke="red" stroke-width="0.35" points="697.81,-27.76 687.32,-26.25 694.58,-33.97 697.81,-27.76"/>
</g>
<!-- 17&#45;&gt;4 -->
<g id="edge117" class="edge">
<title>17&#45;&gt;4</title>
<path fill="none" stroke="red" stroke-width="0.15" d="M1052.28,-77.47C1046.69,-74.3 1040.37,-71.01 1034.32,-68.53 978.85,-45.77 959.52,-55.9 904.32,-32.53 903.1,-32.01 901.86,-31.45 900.63,-30.85"/>
<polygon fill="red" stroke="red" stroke-width="0.15" points="901.92,-27.57 891.46,-25.88 898.58,-33.72 901.92,-27.57"/>
</g>
<!-- 17&#45;&gt;5 -->
<g id="edge118" class="edge">
<title>17&#45;&gt;5</title>
<path fill="none" stroke="green" stroke-width="0.6" d="M1049.06,-83.88C1027.78,-79.62 993.3,-73 963.32,-68.53 824.38,-47.8 782.54,-77.05 649.32,-32.53 648.06,-32.11 646.8,-31.62 645.54,-31.09"/>
<polygon fill="green" stroke="green" stroke-width="0.6" points="646.79,-27.79 636.3,-26.31 643.58,-34.01 646.79,-27.79"/>
</g>
<!-- 17&#45;&gt;6 -->
<g id="edge119" class="edge">
<title>17&#45;&gt;6</title>
<path fill="none" stroke="red" stroke-width="0.33" d="M1049.01,-84.21C1027.69,-80.22 993.17,-73.81 963.32,-68.53 869.21,-51.88 841.11,-65.26 751.32,-32.53 750.07,-32.07 748.82,-31.56 747.57,-31"/>
<polygon fill="red" stroke="red" stroke-width="0.33" points="748.83,-27.71 738.35,-26.16 745.58,-33.91 748.83,-27.71"/>
</g>
<!-- 17&#45;&gt;7 -->
<g id="edge120" class="edge">
<title>17&#45;&gt;7</title>
<path fill="none" stroke="green" stroke-width="0.32" d="M1051.66,-77.83C1046.15,-74.75 1040.03,-71.41 1034.32,-68.53 999.88,-51.12 989.56,-50.32 955.32,-32.53 954.17,-31.93 953,-31.31 951.82,-30.66"/>
<polygon fill="green" stroke="green" stroke-width="0.32" points="953.35,-27.51 942.93,-25.61 949.9,-33.6 953.35,-27.51"/>
</g>
</g>
</svg>
