<?xml version="1.0" encoding="UTF-8" standalone="no"?>
<!DOCTYPE svg PUBLIC "-//W3C//DTD SVG 1.1//EN"
 "http://www.w3.org/Graphics/SVG/1.1/DTD/svg11.dtd">
<!-- Generated by graphviz version 2.44.0 (0)
 -->
<!-- Pages: 1 -->
<svg width="1072pt" height="180pt"
 viewBox="0.00 0.00 1072.06 180.02" xmlns="http://www.w3.org/2000/svg" xmlns:xlink="http://www.w3.org/1999/xlink">
<g id="graph0" class="graph" transform="scale(1 1) rotate(0) translate(4 176.02)">
<polygon fill="white" stroke="transparent" points="-4,4 -4,-176.02 1068.06,-176.02 1068.06,4 -4,4"/>
<!-- &#45;1 -->
<g id="node1" class="node">
<title>&#45;1</title>
<polygon fill="lightgray" stroke="black" points="512.01,-172.02 486.01,-172.02 486.01,-154.02 512.01,-154.02 512.01,-172.02"/>
<text text-anchor="middle" x="499.01" y="-160.82" font-family="Times-Roman" font-size="9.00">&#45;1</text>
</g>
<!-- 0 -->
<g id="node3" class="node">
<title>0</title>
<ellipse fill="lightblue" stroke="black" cx="382.01" cy="-16.26" rx="16.03" ry="16.03"/>
<text text-anchor="middle" x="382.01" y="-14.06" font-family="Times-Roman" font-size="9.00">0</text>
</g>
<!-- &#45;1&#45;&gt;0 -->
<g id="edge81" class="edge">
<title>&#45;1&#45;&gt;0</title>
<path fill="none" stroke="green" stroke-width="0.14" d="M485.95,-161.87C411.62,-160.87 44.01,-154.13 11.01,-118.02 -3.83,-101.79 -3.44,-85.11 11.01,-68.53 56,-16.9 278.13,-15.52 355.43,-16.66"/>
<polygon fill="green" stroke="green" stroke-width="0.14" points="355.69,-20.16 365.75,-16.84 355.81,-13.16 355.69,-20.16"/>
</g>
<!-- 1 -->
<g id="node4" class="node">
<title>1</title>
<ellipse fill="lightblue" stroke="black" cx="433.01" cy="-16.26" rx="16.03" ry="16.03"/>
<text text-anchor="middle" x="433.01" y="-14.06" font-family="Times-Roman" font-size="9.00">1</text>
</g>
<!-- &#45;1&#45;&gt;1 -->
<g id="edge82" class="edge">
<title>&#45;1&#45;&gt;1</title>
<path fill="none" stroke="red" stroke-width="0.44" d="M485.84,-161.64C418.47,-159.55 114.36,-148.45 87.01,-118.02 72.3,-101.66 72.35,-84.93 87.01,-68.53 134.7,-15.17 339.11,-55.13 407.01,-32.53 408.27,-32.11 409.53,-31.62 410.78,-31.09"/>
<polygon fill="red" stroke="red" stroke-width="0.44" points="412.75,-34.01 420.03,-26.32 409.54,-27.79 412.75,-34.01"/>
</g>
<!-- 2 -->
<g id="node5" class="node">
<title>2</title>
<ellipse fill="lightblue" stroke="black" cx="637.01" cy="-16.26" rx="16.03" ry="16.03"/>
<text text-anchor="middle" x="637.01" y="-14.06" font-family="Times-Roman" font-size="9.00">2</text>
</g>
<!-- &#45;1&#45;&gt;2 -->
<g id="edge83" class="edge">
<title>&#45;1&#45;&gt;2</title>
<path fill="none" stroke="green" stroke-width="0.4" d="M512.09,-158.39C518.11,-156.83 525.38,-155.13 532.01,-154.02 575.27,-146.84 895.45,-150.41 925.01,-118.02 1001.46,-34.25 748.56,-20.12 663.76,-17.74"/>
<polygon fill="green" stroke="green" stroke-width="0.4" points="663.7,-14.24 653.61,-17.49 663.53,-21.24 663.7,-14.24"/>
</g>
<!-- 3 -->
<g id="node6" class="node">
<title>3</title>
<ellipse fill="lightblue" stroke="black" cx="535.01" cy="-16.26" rx="16.03" ry="16.03"/>
<text text-anchor="middle" x="535.01" y="-14.06" font-family="Times-Roman" font-size="9.00">3</text>
</g>
<!-- &#45;1&#45;&gt;3 -->
<g id="edge84" class="edge">
<title>&#45;1&#45;&gt;3</title>
<path fill="none" stroke="red" stroke-width="0.35" d="M512.12,-158.58C518.15,-157.07 525.42,-155.34 532.01,-154.02 582.75,-143.92 728.38,-157.33 762.01,-118.02 776.31,-101.31 776.13,-85.4 762.01,-68.53 703.77,1.07 646.14,-63.99 561.01,-32.53 559.77,-32.07 558.52,-31.55 557.27,-30.99"/>
<polygon fill="red" stroke="red" stroke-width="0.35" points="558.53,-27.7 548.05,-26.13 555.27,-33.89 558.53,-27.7"/>
</g>
<!-- 4 -->
<g id="node7" class="node">
<title>4</title>
<ellipse fill="lightblue" stroke="black" cx="586.01" cy="-16.26" rx="16.03" ry="16.03"/>
<text text-anchor="middle" x="586.01" y="-14.06" font-family="Times-Roman" font-size="9.00">4</text>
</g>
<!-- &#45;1&#45;&gt;4 -->
<g id="edge85" class="edge">
<title>&#45;1&#45;&gt;4</title>
<path fill="none" stroke="red" stroke-width="0.63" d="M512.09,-158.4C518.11,-156.85 525.38,-155.14 532.01,-154.02 573.18,-147.09 877.94,-148.93 906.01,-118.02 920.8,-101.74 920.59,-85 906.01,-68.53 862.39,-19.24 674.36,-53.63 612.01,-32.53 610.75,-32.1 609.49,-31.61 608.24,-31.07"/>
<polygon fill="red" stroke="red" stroke-width="0.63" points="609.49,-27.78 599,-26.29 606.27,-34 609.49,-27.78"/>
</g>
<!-- 5 -->
<g id="node8" class="node">
<title>5</title>
<ellipse fill="lightblue" stroke="black" cx="484.01" cy="-16.26" rx="16.03" ry="16.03"/>
<text text-anchor="middle" x="484.01" y="-14.06" font-family="Times-Roman" font-size="9.00">5</text>
</g>
<!-- &#45;1&#45;&gt;5 -->
<g id="edge86" class="edge">
<title>&#45;1&#45;&gt;5</title>
<path fill="none" stroke="red" stroke-width="0.36" d="M485.8,-161.33C425.7,-158.05 180.13,-143.18 158.01,-118.02 143.48,-101.5 143.41,-84.98 158.01,-68.53 202.57,-18.3 394.38,-53.98 458.01,-32.53 459.26,-32.1 460.53,-31.61 461.78,-31.08"/>
<polygon fill="red" stroke="red" stroke-width="0.36" points="463.75,-34 471.02,-26.3 460.53,-27.78 463.75,-34"/>
</g>
<!-- 256 -->
<g id="node9" class="node">
<title>256</title>
<ellipse fill="white" stroke="black" cx="460.01" cy="-93.28" rx="25" ry="25"/>
<text text-anchor="middle" x="460.01" y="-91.08" font-family="Times-Roman" font-size="9.00">256</text>
</g>
<!-- &#45;1&#45;&gt;256 -->
<g id="edge1" class="edge">
<title>&#45;1&#45;&gt;256</title>
<path fill="none" stroke="green" stroke-width="0.16" d="M494.38,-153.99C490.09,-146.54 483.44,-134.99 477.13,-124.02"/>
<polygon fill="green" stroke="green" stroke-width="0.16" points="479.99,-121.97 471.97,-115.05 473.92,-125.46 479.99,-121.97"/>
</g>
<!-- 257 -->
<g id="node10" class="node">
<title>257</title>
<ellipse fill="white" stroke="black" cx="594.01" cy="-93.28" rx="25" ry="25"/>
<text text-anchor="middle" x="594.01" y="-91.08" font-family="Times-Roman" font-size="9.00">257</text>
</g>
<!-- &#45;1&#45;&gt;257 -->
<g id="edge2" class="edge">
<title>&#45;1&#45;&gt;257</title>
<path fill="none" stroke="green" stroke-width="0.14" d="M510.45,-153.94C522.91,-145.13 543.4,-130.61 561.01,-118.02 562.6,-116.89 564.24,-115.71 565.89,-114.53"/>
<polygon fill="green" stroke="green" stroke-width="0.14" points="568.05,-117.29 574.13,-108.61 563.97,-111.6 568.05,-117.29"/>
</g>
<!-- 258 -->
<g id="node11" class="node">
<title>258</title>
<ellipse fill="white" stroke="black" cx="527.01" cy="-93.28" rx="25" ry="25"/>
<text text-anchor="middle" x="527.01" y="-91.08" font-family="Times-Roman" font-size="9.00">258</text>
</g>
<!-- &#45;1&#45;&gt;258 -->
<g id="edge3" class="edge">
<title>&#45;1&#45;&gt;258</title>
<path fill="none" stroke="red" stroke-width="0.17" d="M502.33,-153.99C505.24,-146.96 509.65,-136.27 513.95,-125.87"/>
<polygon fill="red" stroke="red" stroke-width="0.17" points="517.23,-127.09 517.82,-116.51 510.76,-124.42 517.23,-127.09"/>
</g>
<!-- 259 -->
<g id="node12" class="node">
<title>259</title>
<ellipse fill="white" stroke="black" cx="728.01" cy="-93.28" rx="25" ry="25"/>
<text text-anchor="middle" x="728.01" y="-91.08" font-family="Times-Roman" font-size="9.00">259</text>
</g>
<!-- &#45;1&#45;&gt;259 -->
<g id="edge4" class="edge">
<title>&#45;1&#45;&gt;259</title>
<path fill="none" stroke="red" stroke-width="0.14" stroke-dasharray="1,5" d="M512.16,-158.77C518.2,-157.29 525.46,-155.54 532.01,-154.02 604.29,-137.28 627.28,-148.32 695.01,-118.02 696.85,-117.2 698.68,-116.27 700.5,-115.26"/>
<polygon fill="red" stroke="red" stroke-width="0.14" points="702.67,-118.03 709.27,-109.74 698.94,-112.1 702.67,-118.03"/>
</g>
<!-- 260 -->
<g id="node13" class="node">
<title>260</title>
<ellipse fill="white" stroke="black" cx="661.01" cy="-93.28" rx="25" ry="25"/>
<text text-anchor="middle" x="661.01" y="-91.08" font-family="Times-Roman" font-size="9.00">260</text>
</g>
<!-- &#45;1&#45;&gt;260 -->
<g id="edge5" class="edge">
<title>&#45;1&#45;&gt;260</title>
<path fill="none" stroke="green" stroke-width="0.17" d="M512.34,-158.87C536.35,-152.89 588.05,-138.64 628.01,-118.02 629.8,-117.1 631.6,-116.09 633.38,-115.02"/>
<polygon fill="green" stroke="green" stroke-width="0.17" points="635.62,-117.74 642.08,-109.34 631.79,-111.88 635.62,-117.74"/>
</g>
<!-- 261 -->
<g id="node14" class="node">
<title>261</title>
<ellipse fill="white" stroke="black" cx="872.01" cy="-93.28" rx="25" ry="25"/>
<text text-anchor="middle" x="872.01" y="-91.08" font-family="Times-Roman" font-size="9.00">261</text>
</g>
<!-- &#45;1&#45;&gt;261 -->
<g id="edge6" class="edge">
<title>&#45;1&#45;&gt;261</title>
<path fill="none" stroke="red" stroke-width="0.14" d="M512.11,-158.52C518.14,-157 525.41,-155.27 532.01,-154.02 647.93,-132.1 679.81,-143.49 795.01,-118.02 809.59,-114.8 825.41,-110.13 838.89,-105.79"/>
<polygon fill="red" stroke="red" stroke-width="0.14" points="840.28,-109.01 848.69,-102.56 838.09,-102.37 840.28,-109.01"/>
</g>
<!-- 262 -->
<g id="node15" class="node">
<title>262</title>
<ellipse fill="white" stroke="black" cx="192.01" cy="-93.28" rx="25" ry="25"/>
<text text-anchor="middle" x="192.01" y="-91.08" font-family="Times-Roman" font-size="9.00">262</text>
</g>
<!-- &#45;1&#45;&gt;262 -->
<g id="edge7" class="edge">
<title>&#45;1&#45;&gt;262</title>
<path fill="none" stroke="green" stroke-width="0.43" d="M485.88,-162.03C445.37,-161.6 319.42,-157 225.01,-118.02 223.15,-117.26 221.3,-116.37 219.47,-115.39"/>
<polygon fill="green" stroke="green" stroke-width="0.43" points="221,-112.22 210.66,-109.95 217.33,-118.18 221,-112.22"/>
</g>
<!-- 263 -->
<g id="node16" class="node">
<title>263</title>
<ellipse fill="white" stroke="black" cx="259.01" cy="-93.28" rx="25" ry="25"/>
<text text-anchor="middle" x="259.01" y="-91.08" font-family="Times-Roman" font-size="9.00">263</text>
</g>
<!-- &#45;1&#45;&gt;263 -->
<g id="edge8" class="edge">
<title>&#45;1&#45;&gt;263</title>
<path fill="none" stroke="red" stroke-width="0.14" stroke-dasharray="1,5" d="M485.84,-161.11C452.19,-158.38 360.88,-148.5 292.01,-118.02 290.17,-117.21 288.33,-116.28 286.51,-115.28"/>
<polygon fill="red" stroke="red" stroke-width="0.14" points="288.07,-112.12 277.73,-109.77 284.34,-118.05 288.07,-112.12"/>
</g>
<!-- 264 -->
<g id="node17" class="node">
<title>264</title>
<ellipse fill="white" stroke="black" cx="326.01" cy="-93.28" rx="25" ry="25"/>
<text text-anchor="middle" x="326.01" y="-91.08" font-family="Times-Roman" font-size="9.00">264</text>
</g>
<!-- &#45;1&#45;&gt;264 -->
<g id="edge9" class="edge">
<title>&#45;1&#45;&gt;264</title>
<path fill="none" stroke="green" stroke-width="0.14" d="M485.73,-159.34C460.22,-153.87 402.98,-140.04 359.01,-118.02 357.21,-117.12 355.4,-116.13 353.61,-115.07"/>
<polygon fill="green" stroke="green" stroke-width="0.14" points="355.19,-111.93 344.9,-109.43 351.38,-117.8 355.19,-111.93"/>
</g>
<!-- 265 -->
<g id="node18" class="node">
<title>265</title>
<ellipse fill="white" stroke="black" cx="393.01" cy="-93.28" rx="25" ry="25"/>
<text text-anchor="middle" x="393.01" y="-91.08" font-family="Times-Roman" font-size="9.00">265</text>
</g>
<!-- &#45;1&#45;&gt;265 -->
<g id="edge10" class="edge">
<title>&#45;1&#45;&gt;265</title>
<path fill="none" stroke="red" stroke-width="0.28" d="M485.89,-154.55C471.12,-146.04 446.51,-131.55 426.01,-118.02 424.37,-116.95 422.71,-115.82 421.03,-114.68"/>
<polygon fill="red" stroke="red" stroke-width="0.28" points="422.92,-111.73 412.72,-108.86 418.9,-117.46 422.92,-111.73"/>
</g>
<!-- &#45;2 -->
<g id="node2" class="node">
<title>&#45;2</title>
<polygon fill="lightgray" stroke="black" points="567.01,-172.02 541.01,-172.02 541.01,-154.02 567.01,-154.02 567.01,-172.02"/>
<text text-anchor="middle" x="554.01" y="-160.82" font-family="Times-Roman" font-size="9.00">&#45;2</text>
</g>
<!-- &#45;2&#45;&gt;0 -->
<g id="edge87" class="edge">
<title>&#45;2&#45;&gt;0</title>
<path fill="none" stroke="red" stroke-width="0.35" d="M540.93,-158.4C534.91,-156.85 527.64,-155.14 521.01,-154.02 479.51,-147.05 172.31,-149.16 144.01,-118.02 129.21,-101.75 130.19,-85.64 144.01,-68.53 170.4,-35.85 299.27,-23.01 355.58,-18.91"/>
<polygon fill="red" stroke="red" stroke-width="0.35" points="356.09,-22.38 365.83,-18.2 355.61,-15.4 356.09,-22.38"/>
</g>
<!-- &#45;2&#45;&gt;1 -->
<g id="edge88" class="edge">
<title>&#45;2&#45;&gt;1</title>
<path fill="none" stroke="red" stroke-width="0.92" d="M540.93,-158.41C534.9,-156.86 527.63,-155.15 521.01,-154.02 441.09,-140.44 212.43,-178.11 158.01,-118.02 143.24,-101.72 143.61,-85.16 158.01,-68.53 194.6,-26.26 354.25,-51.02 407.01,-32.53 408.26,-32.09 409.52,-31.59 410.77,-31.04"/>
<polygon fill="red" stroke="red" stroke-width="0.92" points="412.75,-33.95 420,-26.23 409.51,-27.75 412.75,-33.95"/>
</g>
<!-- &#45;2&#45;&gt;2 -->
<g id="edge89" class="edge">
<title>&#45;2&#45;&gt;2</title>
<path fill="none" stroke="red" stroke-width="0.34" d="M567.36,-161.9C643.36,-161.03 1019.24,-154.9 1053.01,-118.02 1067.87,-101.8 1067.58,-85.01 1053.01,-68.53 1027.12,-39.25 751.77,-23.01 663.84,-18.54"/>
<polygon fill="red" stroke="red" stroke-width="0.34" points="663.78,-15.04 653.62,-18.04 663.43,-22.03 663.78,-15.04"/>
</g>
<!-- &#45;2&#45;&gt;3 -->
<g id="edge90" class="edge">
<title>&#45;2&#45;&gt;3</title>
<path fill="none" stroke="green" stroke-width="0.29" d="M567.24,-161.39C628.54,-158.3 883.08,-144 906.01,-118.02 920.57,-101.53 920.74,-84.87 906.01,-68.53 854.41,-11.26 634.24,-56.58 561.01,-32.53 559.75,-32.11 558.49,-31.63 557.23,-31.1"/>
<polygon fill="green" stroke="green" stroke-width="0.29" points="558.48,-27.81 547.98,-26.34 555.27,-34.03 558.48,-27.81"/>
</g>
<!-- &#45;2&#45;&gt;4 -->
<g id="edge91" class="edge">
<title>&#45;2&#45;&gt;4</title>
<path fill="none" stroke="green" stroke-width="0.17" d="M567.07,-161.68C635.32,-159.76 948.83,-149.28 977.01,-118.02 991.74,-101.68 991.78,-84.83 977.01,-68.53 922.28,-8.13 689.51,-57.75 612.01,-32.53 610.75,-32.12 609.48,-31.64 608.23,-31.11"/>
<polygon fill="green" stroke="green" stroke-width="0.17" points="609.47,-27.81 598.98,-26.36 606.27,-34.04 609.47,-27.81"/>
</g>
<!-- &#45;2&#45;&gt;5 -->
<g id="edge92" class="edge">
<title>&#45;2&#45;&gt;5</title>
<path fill="none" stroke="green" stroke-width="0.11" d="M567.25,-161.32C609.1,-158.79 737.2,-148.63 762.01,-118.02 775.86,-100.93 776.42,-85.15 762.01,-68.53 724.95,-25.79 563.41,-51.2 510.01,-32.53 508.76,-32.09 507.5,-31.59 506.25,-31.04"/>
<polygon fill="green" stroke="green" stroke-width="0.11" points="507.5,-27.75 497.02,-26.23 504.27,-33.96 507.5,-27.75"/>
</g>
<!-- &#45;2&#45;&gt;256 -->
<g id="edge11" class="edge">
<title>&#45;2&#45;&gt;256</title>
<path fill="none" stroke="red" stroke-width="0.25" d="M542.86,-153.99C529.48,-144.35 506.58,-127.84 488.23,-114.62"/>
<polygon fill="red" stroke="red" stroke-width="0.25" points="489.82,-111.44 479.66,-108.44 485.72,-117.12 489.82,-111.44"/>
</g>
<!-- &#45;2&#45;&gt;257 -->
<g id="edge12" class="edge">
<title>&#45;2&#45;&gt;257</title>
<path fill="none" stroke="red" stroke-width="0.31" d="M558.75,-153.99C563.2,-146.46 570.11,-134.76 576.64,-123.69"/>
<polygon fill="red" stroke="red" stroke-width="0.31" points="579.67,-125.44 581.74,-115.05 573.64,-121.88 579.67,-125.44"/>
</g>
<!-- &#45;2&#45;&gt;258 -->
<g id="edge13" class="edge">
<title>&#45;2&#45;&gt;258</title>
<path fill="none" stroke="green" stroke-width="0.43" d="M550.81,-153.99C548,-146.96 543.74,-136.27 539.6,-125.87"/>
<polygon fill="green" stroke="green" stroke-width="0.43" points="542.82,-124.51 535.87,-116.51 536.32,-127.1 542.82,-124.51"/>
</g>
<!-- &#45;2&#45;&gt;259 -->
<g id="edge14" class="edge">
<title>&#45;2&#45;&gt;259</title>
<path fill="none" stroke="red" stroke-width="0.36" d="M567.38,-159.36C593.08,-153.92 650.73,-140.14 695.01,-118.02 696.81,-117.13 698.62,-116.13 700.41,-115.08"/>
<polygon fill="red" stroke="red" stroke-width="0.36" points="702.63,-117.81 709.13,-109.43 698.83,-111.93 702.63,-117.81"/>
</g>
<!-- &#45;2&#45;&gt;260 -->
<g id="edge15" class="edge">
<title>&#45;2&#45;&gt;260</title>
<path fill="none" stroke="red" stroke-width="0.36" d="M567.05,-154.73C582,-146.26 607.13,-131.71 628.01,-118.02 629.65,-116.95 631.32,-115.83 633,-114.69"/>
<polygon fill="red" stroke="red" stroke-width="0.36" points="635.12,-117.47 641.31,-108.88 631.11,-111.74 635.12,-117.47"/>
</g>
<!-- &#45;2&#45;&gt;261 -->
<g id="edge16" class="edge">
<title>&#45;2&#45;&gt;261</title>
<path fill="none" stroke="red" stroke-width="0.33" d="M567.25,-161.75C608.13,-160.51 735.42,-153.84 833.01,-118.02 836.49,-116.75 840,-115.15 843.41,-113.38"/>
<polygon fill="red" stroke="red" stroke-width="0.33" points="845.16,-116.41 852.13,-108.43 841.7,-110.32 845.16,-116.41"/>
</g>
<!-- &#45;2&#45;&gt;262 -->
<g id="edge17" class="edge">
<title>&#45;2&#45;&gt;262</title>
<path fill="none" stroke="red" stroke-width="0.55" d="M540.92,-158.48C534.89,-156.94 527.62,-155.22 521.01,-154.02 390.61,-130.37 348.45,-166.25 225.01,-118.02 223.14,-117.29 221.27,-116.43 219.43,-115.47"/>
<polygon fill="red" stroke="red" stroke-width="0.55" points="220.96,-112.3 210.6,-110.09 217.32,-118.28 220.96,-112.3"/>
</g>
<!-- &#45;2&#45;&gt;263 -->
<g id="edge18" class="edge">
<title>&#45;2&#45;&gt;263</title>
<path fill="none" stroke="red" stroke-width="0.54" d="M540.9,-158.58C534.86,-157.07 527.6,-155.34 521.01,-154.02 419.97,-133.87 387.31,-157.18 292.01,-118.02 290.15,-117.26 288.29,-116.37 286.46,-115.4"/>
<polygon fill="red" stroke="red" stroke-width="0.54" points="288,-112.23 277.65,-109.96 284.33,-118.19 288,-112.23"/>
</g>
<!-- &#45;2&#45;&gt;264 -->
<g id="edge19" class="edge">
<title>&#45;2&#45;&gt;264</title>
<path fill="none" stroke="red" stroke-width="0.36" d="M540.86,-158.77C534.82,-157.3 527.56,-155.55 521.01,-154.02 449.17,-137.34 426.32,-148.18 359.01,-118.02 357.17,-117.2 355.34,-116.27 353.52,-115.26"/>
<polygon fill="red" stroke="red" stroke-width="0.36" points="355.08,-112.1 344.75,-109.73 351.35,-118.02 355.08,-112.1"/>
</g>
<!-- &#45;2&#45;&gt;265 -->
<g id="edge20" class="edge">
<title>&#45;2&#45;&gt;265</title>
<path fill="none" stroke="red" stroke-width="0.16" d="M540.78,-158.85C516.96,-152.84 465.66,-138.54 426.01,-118.02 424.22,-117.1 422.42,-116.09 420.64,-115.02"/>
<polygon fill="red" stroke="red" stroke-width="0.16" points="422.23,-111.87 411.94,-109.33 418.4,-117.73 422.23,-111.87"/>
</g>
<!-- 256&#45;&gt;0 -->
<g id="edge21" class="edge">
<title>256&#45;&gt;0</title>
<path fill="none" stroke="red" stroke-width="0.44" d="M442.31,-75.25C429.95,-63.37 413.48,-47.53 400.87,-35.4"/>
<polygon fill="red" stroke="red" stroke-width="0.44" points="403.23,-32.81 393.59,-28.4 398.38,-37.86 403.23,-32.81"/>
</g>
<!-- 256&#45;&gt;1 -->
<g id="edge22" class="edge">
<title>256&#45;&gt;1</title>
<path fill="none" stroke="green" stroke-width="0.52" d="M451.91,-69.77C448.7,-60.86 445.01,-50.61 441.75,-41.54"/>
<polygon fill="green" stroke="green" stroke-width="0.52" points="444.97,-40.16 438.29,-31.94 438.38,-42.53 444.97,-40.16"/>
</g>
<!-- 256&#45;&gt;2 -->
<g id="edge23" class="edge">
<title>256&#45;&gt;2</title>
<path fill="none" stroke="red" stroke-width="0.16" d="M478.88,-77.1C483.34,-73.97 488.2,-70.91 493.01,-68.53 542.14,-44.19 560.8,-54.56 611.01,-32.53 612.22,-31.99 613.45,-31.42 614.68,-30.81"/>
<polygon fill="red" stroke="red" stroke-width="0.16" points="616.74,-33.67 623.83,-25.81 613.38,-27.53 616.74,-33.67"/>
</g>
<!-- 256&#45;&gt;3 -->
<g id="edge24" class="edge">
<title>256&#45;&gt;3</title>
<path fill="none" stroke="green" stroke-width="0.24" d="M477.03,-75.25C488.8,-63.48 504.45,-47.83 516.53,-35.75"/>
<polygon fill="green" stroke="green" stroke-width="0.24" points="519.27,-37.95 523.87,-28.4 514.32,-33 519.27,-37.95"/>
</g>
<!-- 256&#45;&gt;4 -->
<g id="edge25" class="edge">
<title>256&#45;&gt;4</title>
<path fill="none" stroke="red" stroke-width="0.15" d="M479.61,-77.53C483.95,-74.45 488.58,-71.29 493.01,-68.53 521.68,-50.62 530.54,-49.09 560.01,-32.53 561.14,-31.89 562.29,-31.24 563.46,-30.57"/>
<polygon fill="red" stroke="red" stroke-width="0.15" points="565.41,-33.49 572.3,-25.44 561.9,-27.43 565.41,-33.49"/>
</g>
<!-- 256&#45;&gt;5 -->
<g id="edge26" class="edge">
<title>256&#45;&gt;5</title>
<path fill="none" stroke="red" stroke-width="0.35" d="M467.34,-69.36C470.11,-60.69 473.28,-50.79 476.11,-41.96"/>
<polygon fill="red" stroke="red" stroke-width="0.35" points="479.51,-42.82 479.22,-32.23 472.84,-40.69 479.51,-42.82"/>
</g>
<!-- 257&#45;&gt;0 -->
<g id="edge27" class="edge">
<title>257&#45;&gt;0</title>
<path fill="none" stroke="red" stroke-width="0.33" d="M575.25,-76.86C570.78,-73.75 565.89,-70.75 561.01,-68.53 497.44,-39.57 472.86,-58.5 408.01,-32.53 406.78,-32.03 405.54,-31.49 404.3,-30.91"/>
<polygon fill="red" stroke="red" stroke-width="0.33" points="405.58,-27.62 395.11,-25.98 402.27,-33.79 405.58,-27.62"/>
</g>
<!-- 257&#45;&gt;1 -->
<g id="edge28" class="edge">
<title>257&#45;&gt;1</title>
<path fill="none" stroke="red" stroke-width="0.24" d="M575.06,-77.25C570.6,-74.11 565.76,-71.01 561.01,-68.53 518.4,-46.26 502.6,-52.79 459.01,-32.53 457.83,-31.98 456.64,-31.4 455.45,-30.79"/>
<polygon fill="red" stroke="red" stroke-width="0.24" points="456.95,-27.62 446.51,-25.85 453.57,-33.75 456.95,-27.62"/>
</g>
<!-- 257&#45;&gt;2 -->
<g id="edge29" class="edge">
<title>257&#45;&gt;2</title>
<path fill="none" stroke="green" stroke-width="0.32" d="M605.99,-71.38C611.64,-61.53 618.39,-49.75 624.14,-39.71"/>
<polygon fill="green" stroke="green" stroke-width="0.32" points="627.36,-41.14 629.29,-30.73 621.28,-37.66 627.36,-41.14"/>
</g>
<!-- 257&#45;&gt;3 -->
<g id="edge30" class="edge">
<title>257&#45;&gt;3</title>
<path fill="none" stroke="green" stroke-width="0.25" d="M579.12,-73.35C570.52,-62.42 559.71,-48.67 550.95,-37.53"/>
<polygon fill="green" stroke="green" stroke-width="0.25" points="553.64,-35.29 544.71,-29.6 548.14,-39.62 553.64,-35.29"/>
</g>
<!-- 257&#45;&gt;4 -->
<g id="edge31" class="edge">
<title>257&#45;&gt;4</title>
<path fill="none" stroke="green" stroke-width="0.16" d="M591.48,-68.54C590.6,-60.33 589.62,-51.1 588.73,-42.76"/>
<polygon fill="green" stroke="green" stroke-width="0.16" points="592.21,-42.38 587.67,-32.81 585.25,-43.12 592.21,-42.38"/>
</g>
<!-- 257&#45;&gt;5 -->
<g id="edge32" class="edge">
<title>257&#45;&gt;5</title>
<path fill="none" stroke="green" stroke-width="0.41" d="M574.2,-77.84C569.87,-74.74 565.3,-71.5 561.01,-68.53 542.47,-55.69 521.1,-41.51 505.58,-31.32"/>
<polygon fill="green" stroke="green" stroke-width="0.41" points="507.47,-28.38 497.19,-25.83 503.64,-34.23 507.47,-28.38"/>
</g>
<!-- 258&#45;&gt;0 -->
<g id="edge33" class="edge">
<title>258&#45;&gt;0</title>
<path fill="none" stroke="green" stroke-width="0.11" d="M507.95,-77.45C503.5,-74.3 498.69,-71.15 494.01,-68.53 457.85,-48.29 445.07,-51.06 408.01,-32.53 406.85,-31.95 405.67,-31.34 404.49,-30.71"/>
<polygon fill="green" stroke="green" stroke-width="0.11" points="406.01,-27.55 395.58,-25.69 402.58,-33.65 406.01,-27.55"/>
</g>
<!-- 258&#45;&gt;1 -->
<g id="edge34" class="edge">
<title>258&#45;&gt;1</title>
<path fill="none" stroke="green" stroke-width="0.37" d="M507.99,-77.1C492.09,-64.41 469.48,-46.36 453.25,-33.41"/>
<polygon fill="green" stroke="green" stroke-width="0.37" points="455.41,-30.66 445.41,-27.16 451.05,-36.13 455.41,-30.66"/>
</g>
<!-- 258&#45;&gt;2 -->
<g id="edge35" class="edge">
<title>258&#45;&gt;2</title>
<path fill="none" stroke="red" stroke-width="1.01" d="M546.82,-77.84C551.15,-74.74 555.71,-71.5 560.01,-68.53 578.55,-55.69 599.92,-41.51 615.44,-31.32"/>
<polygon fill="red" stroke="red" stroke-width="1.01" points="617.38,-34.23 623.83,-25.83 613.55,-28.38 617.38,-34.23"/>
</g>
<!-- 258&#45;&gt;3 -->
<g id="edge36" class="edge">
<title>258&#45;&gt;3</title>
<path fill="none" stroke="green" stroke-width="0.43" d="M529.54,-68.54C530.42,-60.33 531.4,-51.1 532.29,-42.76"/>
<polygon fill="green" stroke="green" stroke-width="0.43" points="535.77,-43.12 533.35,-32.81 528.81,-42.38 535.77,-43.12"/>
</g>
<!-- 258&#45;&gt;4 -->
<g id="edge37" class="edge">
<title>258&#45;&gt;4</title>
<path fill="none" stroke="red" stroke-width="0.42" d="M541.9,-73.35C550.49,-62.42 561.3,-48.67 570.07,-37.53"/>
<polygon fill="red" stroke="red" stroke-width="0.42" points="572.88,-39.62 576.31,-29.6 567.37,-35.29 572.88,-39.62"/>
</g>
<!-- 258&#45;&gt;5 -->
<g id="edge38" class="edge">
<title>258&#45;&gt;5</title>
<path fill="none" stroke="green" stroke-width="0.27" d="M515.03,-71.38C509.38,-61.53 502.63,-49.75 496.87,-39.71"/>
<polygon fill="green" stroke="green" stroke-width="0.27" points="499.74,-37.66 491.73,-30.73 493.66,-41.14 499.74,-37.66"/>
</g>
<!-- 259&#45;&gt;0 -->
<g id="edge39" class="edge">
<title>259&#45;&gt;0</title>
<path fill="none" stroke="red" stroke-width="0.22" d="M709.41,-76.47C704.94,-73.38 700,-70.49 695.01,-68.53 575.35,-21.53 529.72,-73.92 408.01,-32.53 406.75,-32.1 405.49,-31.61 404.24,-31.07"/>
<polygon fill="red" stroke="red" stroke-width="0.22" points="405.49,-27.78 395,-26.28 402.27,-33.99 405.49,-27.78"/>
</g>
<!-- 259&#45;&gt;1 -->
<g id="edge40" class="edge">
<title>259&#45;&gt;1</title>
<path fill="none" stroke="green" stroke-width="0.54" d="M709.37,-76.57C704.9,-73.47 699.98,-70.55 695.01,-68.53 596.78,-28.43 559,-68.02 459.01,-32.53 457.76,-32.08 456.5,-31.58 455.26,-31.03"/>
<polygon fill="green" stroke="green" stroke-width="0.54" points="456.51,-27.74 446.03,-26.21 453.27,-33.94 456.51,-27.74"/>
</g>
<!-- 259&#45;&gt;2 -->
<g id="edge41" class="edge">
<title>259&#45;&gt;2</title>
<path fill="none" stroke="red" stroke-width="0.53" d="M709.15,-76.73C693.96,-64.21 672.63,-46.63 657.11,-33.83"/>
<polygon fill="red" stroke="red" stroke-width="0.53" points="659.1,-30.94 649.16,-27.28 654.65,-36.34 659.1,-30.94"/>
</g>
<!-- 259&#45;&gt;3 -->
<g id="edge42" class="edge">
<title>259&#45;&gt;3</title>
<path fill="none" stroke="red" stroke-width="0.14" d="M709.2,-76.97C704.73,-73.85 699.86,-70.83 695.01,-68.53 639.3,-42.09 617.89,-56.35 561.01,-32.53 559.79,-32.02 558.55,-31.46 557.32,-30.86"/>
<polygon fill="red" stroke="red" stroke-width="0.14" points="558.61,-27.58 548.15,-25.9 555.28,-33.74 558.61,-27.58"/>
</g>
<!-- 259&#45;&gt;4 -->
<g id="edge43" class="edge">
<title>259&#45;&gt;4</title>
<path fill="none" stroke="red" stroke-width="0.12" d="M708.93,-77.49C704.48,-74.35 699.67,-71.18 695.01,-68.53 660.05,-48.67 647.86,-50.74 612.01,-32.53 610.85,-31.94 609.68,-31.32 608.5,-30.69"/>
<polygon fill="red" stroke="red" stroke-width="0.12" points="610.03,-27.53 599.6,-25.66 606.58,-33.63 610.03,-27.53"/>
</g>
<!-- 259&#45;&gt;5 -->
<g id="edge44" class="edge">
<title>259&#45;&gt;5</title>
<path fill="none" stroke="green" stroke-width="0.35" d="M709.31,-76.72C704.84,-73.61 699.93,-70.66 695.01,-68.53 618.12,-35.29 588.36,-62.15 510.01,-32.53 508.77,-32.06 507.52,-31.53 506.28,-30.97"/>
<polygon fill="green" stroke="green" stroke-width="0.35" points="507.55,-27.68 497.07,-26.09 504.27,-33.86 507.55,-27.68"/>
</g>
<!-- 260&#45;&gt;0 -->
<g id="edge45" class="edge">
<title>260&#45;&gt;0</title>
<path fill="none" stroke="red" stroke-width="0.25" d="M642.36,-76.61C637.89,-73.51 632.96,-70.58 628.01,-68.53 536.48,-30.58 501.2,-66.18 408.01,-32.53 406.76,-32.08 405.51,-31.57 404.26,-31.01"/>
<polygon fill="red" stroke="red" stroke-width="0.25" points="405.52,-27.72 395.04,-26.18 402.27,-33.92 405.52,-27.72"/>
</g>
<!-- 260&#45;&gt;1 -->
<g id="edge46" class="edge">
<title>260&#45;&gt;1</title>
<path fill="none" stroke="red" stroke-width="0.35" d="M642.28,-76.78C637.82,-73.67 632.91,-70.7 628.01,-68.53 557.79,-37.43 530.6,-60.32 459.01,-32.53 457.77,-32.05 456.53,-31.51 455.29,-30.94"/>
<polygon fill="red" stroke="red" stroke-width="0.35" points="456.56,-27.65 446.09,-26.04 453.27,-33.83 456.56,-27.65"/>
</g>
<!-- 260&#45;&gt;2 -->
<g id="edge47" class="edge">
<title>260&#45;&gt;2</title>
<path fill="none" stroke="green" stroke-width="0.31" d="M653.68,-69.36C650.9,-60.69 647.73,-50.79 644.91,-41.96"/>
<polygon fill="green" stroke="green" stroke-width="0.31" points="648.18,-40.69 641.8,-32.23 641.51,-42.82 648.18,-40.69"/>
</g>
<!-- 260&#45;&gt;3 -->
<g id="edge48" class="edge">
<title>260&#45;&gt;3</title>
<path fill="none" stroke="green" stroke-width="0.43" d="M641.4,-77.53C637.07,-74.45 632.44,-71.29 628.01,-68.53 599.34,-50.62 590.48,-49.09 561.01,-32.53 559.88,-31.89 558.73,-31.24 557.56,-30.57"/>
<polygon fill="green" stroke="green" stroke-width="0.43" points="559.12,-27.43 548.72,-25.44 555.61,-33.49 559.12,-27.43"/>
</g>
<!-- 260&#45;&gt;4 -->
<g id="edge49" class="edge">
<title>260&#45;&gt;4</title>
<path fill="none" stroke="green" stroke-width="0.17" d="M643.99,-75.25C632.22,-63.48 616.57,-47.83 604.49,-35.75"/>
<polygon fill="green" stroke="green" stroke-width="0.17" points="606.69,-33 597.15,-28.4 601.74,-37.95 606.69,-33"/>
</g>
<!-- 260&#45;&gt;5 -->
<g id="edge50" class="edge">
<title>260&#45;&gt;5</title>
<path fill="none" stroke="red" stroke-width="0.38" d="M642.14,-77.1C637.68,-73.97 632.82,-70.91 628.01,-68.53 578.88,-44.19 560.22,-54.56 510.01,-32.53 508.8,-31.99 507.57,-31.42 506.34,-30.81"/>
<polygon fill="red" stroke="red" stroke-width="0.38" points="507.64,-27.53 497.19,-25.81 504.28,-33.67 507.64,-27.53"/>
</g>
<!-- 261&#45;&gt;0 -->
<g id="edge51" class="edge">
<title>261&#45;&gt;0</title>
<path fill="none" stroke="red" stroke-width="0.54" d="M848.12,-86.31C825.94,-80.97 791.92,-73.26 762.01,-68.53 605.81,-43.8 558.32,-81.69 408.01,-32.53 406.75,-32.12 405.49,-31.64 404.23,-31.11"/>
<polygon fill="red" stroke="red" stroke-width="0.54" points="405.47,-27.81 394.98,-26.35 402.27,-34.03 405.47,-27.81"/>
</g>
<!-- 261&#45;&gt;1 -->
<g id="edge52" class="edge">
<title>261&#45;&gt;1</title>
<path fill="none" stroke="red" stroke-width="0.59" d="M848.1,-86.43C825.9,-81.17 791.88,-73.51 762.01,-68.53 628.25,-46.19 587.54,-75.77 459.01,-32.53 457.75,-32.1 456.49,-31.62 455.24,-31.08"/>
<polygon fill="red" stroke="red" stroke-width="0.59" points="456.49,-27.78 446,-26.3 453.27,-34 456.49,-27.78"/>
</g>
<!-- 261&#45;&gt;2 -->
<g id="edge53" class="edge">
<title>261&#45;&gt;2</title>
<path fill="none" stroke="green" stroke-width="0.3" d="M851.96,-78.54C846.05,-74.91 839.43,-71.25 833.01,-68.53 774.81,-43.83 701.71,-28.54 663.32,-21.62"/>
<polygon fill="green" stroke="green" stroke-width="0.3" points="663.47,-18.1 653.02,-19.82 662.27,-24.99 663.47,-18.1"/>
</g>
<!-- 261&#45;&gt;3 -->
<g id="edge54" class="edge">
<title>261&#45;&gt;3</title>
<path fill="none" stroke="green" stroke-width="0.11" d="M852.17,-78.02C846.25,-74.38 839.59,-70.85 833.01,-68.53 718.02,-27.94 676.32,-72.18 561.01,-32.53 559.76,-32.1 558.5,-31.6 557.24,-31.06"/>
<polygon fill="green" stroke="green" stroke-width="0.11" points="558.5,-27.77 548.01,-26.26 555.27,-33.98 558.5,-27.77"/>
</g>
<!-- 261&#45;&gt;4 -->
<g id="edge55" class="edge">
<title>261&#45;&gt;4</title>
<path fill="none" stroke="green" stroke-width="0.33" d="M852.12,-78.14C846.21,-74.51 839.55,-70.95 833.01,-68.53 739.67,-34.01 705.62,-66.29 612.01,-32.53 610.76,-32.08 609.51,-31.57 608.26,-31.01"/>
<polygon fill="green" stroke="green" stroke-width="0.33" points="609.52,-27.72 599.04,-26.18 606.27,-33.92 609.52,-27.72"/>
</g>
<!-- 261&#45;&gt;5 -->
<g id="edge56" class="edge">
<title>261&#45;&gt;5</title>
<path fill="none" stroke="red" stroke-width="0.23" d="M852.2,-77.93C846.28,-74.29 839.61,-70.78 833.01,-68.53 696.31,-21.86 647.08,-78.09 510.01,-32.53 508.75,-32.11 507.49,-31.62 506.23,-31.09"/>
<polygon fill="red" stroke="red" stroke-width="0.23" points="507.48,-27.8 496.99,-26.32 504.27,-34.02 507.48,-27.8"/>
</g>
<!-- 262&#45;&gt;0 -->
<g id="edge57" class="edge">
<title>262&#45;&gt;0</title>
<path fill="none" stroke="red" stroke-width="0.21" d="M210.92,-77.16C215.37,-74.03 220.23,-70.95 225.01,-68.53 268.88,-46.26 324.48,-30.81 356.37,-23.04"/>
<polygon fill="red" stroke="red" stroke-width="0.21" points="357.31,-26.42 366.23,-20.71 355.69,-19.61 357.31,-26.42"/>
</g>
<!-- 262&#45;&gt;1 -->
<g id="edge58" class="edge">
<title>262&#45;&gt;1</title>
<path fill="none" stroke="green" stroke-width="0.25" stroke-dasharray="1,5" d="M210.71,-76.73C215.18,-73.62 220.09,-70.66 225.01,-68.53 300.65,-35.69 329.93,-61.81 407.01,-32.53 408.25,-32.06 409.5,-31.53 410.74,-30.96"/>
<polygon fill="green" stroke="green" stroke-width="0.25" points="412.75,-33.86 419.94,-26.08 409.47,-27.67 412.75,-33.86"/>
</g>
<!-- 262&#45;&gt;2 -->
<g id="edge59" class="edge">
<title>262&#45;&gt;2</title>
<path fill="none" stroke="green" stroke-width="0.18" stroke-dasharray="1,5" d="M210.56,-76.35C215.04,-73.27 219.99,-70.41 225.01,-68.53 386.36,-8.09 447.02,-85.4 611.01,-32.53 612.27,-32.12 613.54,-31.64 614.79,-31.12"/>
<polygon fill="green" stroke="green" stroke-width="0.18" points="616.75,-34.05 624.05,-26.37 613.55,-27.82 616.75,-34.05"/>
</g>
<!-- 262&#45;&gt;3 -->
<g id="edge60" class="edge">
<title>262&#45;&gt;3</title>
<path fill="none" stroke="red" stroke-width="0.19" d="M210.61,-76.48C215.08,-73.38 220.02,-70.49 225.01,-68.53 343.4,-21.93 388.58,-73.57 509.01,-32.53 510.26,-32.1 511.52,-31.61 512.78,-31.07"/>
<polygon fill="red" stroke="red" stroke-width="0.19" points="514.75,-33.99 522.01,-26.28 511.53,-27.77 514.75,-33.99"/>
</g>
<!-- 262&#45;&gt;4 -->
<g id="edge61" class="edge">
<title>262&#45;&gt;4</title>
<path fill="none" stroke="red" stroke-width="0.56" d="M210.58,-76.41C215.05,-73.32 220,-70.44 225.01,-68.53 364.87,-15.02 417.82,-79.48 560.01,-32.53 561.27,-32.11 562.53,-31.63 563.79,-31.1"/>
<polygon fill="red" stroke="red" stroke-width="0.56" points="565.75,-34.02 573.03,-26.33 562.54,-27.8 565.75,-34.02"/>
</g>
<!-- 262&#45;&gt;5 -->
<g id="edge62" class="edge">
<title>262&#45;&gt;5</title>
<path fill="none" stroke="red" stroke-width="0.14" d="M210.65,-76.58C215.12,-73.48 220.04,-70.56 225.01,-68.53 321.98,-28.83 359.3,-67.68 458.01,-32.53 459.26,-32.08 460.51,-31.58 461.76,-31.03"/>
<polygon fill="red" stroke="red" stroke-width="0.14" points="463.75,-33.94 470.99,-26.2 460.5,-27.73 463.75,-33.94"/>
</g>
<!-- 263&#45;&gt;0 -->
<g id="edge63" class="edge">
<title>263&#45;&gt;0</title>
<path fill="none" stroke="red" stroke-width="0.36" d="M278.67,-77.61C283,-74.52 287.61,-71.35 292.01,-68.53 314.3,-54.21 340.74,-39.4 359.17,-29.4"/>
<polygon fill="red" stroke="red" stroke-width="0.36" points="360.87,-32.46 368.02,-24.63 357.55,-26.29 360.87,-32.46"/>
</g>
<!-- 263&#45;&gt;1 -->
<g id="edge64" class="edge">
<title>263&#45;&gt;1</title>
<path fill="none" stroke="green" stroke-width="0.28" d="M277.89,-77.12C282.35,-73.99 287.21,-70.93 292.01,-68.53 339.91,-44.58 358.04,-54.22 407.01,-32.53 408.22,-31.99 409.45,-31.41 410.67,-30.8"/>
<polygon fill="green" stroke="green" stroke-width="0.28" points="412.74,-33.66 419.82,-25.79 409.37,-27.52 412.74,-33.66"/>
</g>
<!-- 263&#45;&gt;2 -->
<g id="edge65" class="edge">
<title>263&#45;&gt;2</title>
<path fill="none" stroke="green" stroke-width="0.39" d="M277.59,-76.43C282.06,-73.33 287,-70.46 292.01,-68.53 425.13,-17.19 475.65,-77.63 611.01,-32.53 612.27,-32.11 613.53,-31.62 614.78,-31.09"/>
<polygon fill="green" stroke="green" stroke-width="0.39" points="616.75,-34.01 624.03,-26.32 613.54,-27.79 616.75,-34.01"/>
</g>
<!-- 263&#45;&gt;3 -->
<g id="edge66" class="edge">
<title>263&#45;&gt;3</title>
<path fill="none" stroke="red" stroke-width="0.12" d="M277.66,-76.62C282.14,-73.52 287.06,-70.59 292.01,-68.53 382.28,-30.99 417.09,-65.83 509.01,-32.53 510.25,-32.08 511.51,-31.56 512.76,-31.01"/>
<polygon fill="red" stroke="red" stroke-width="0.12" points="514.75,-33.92 521.98,-26.17 511.5,-27.72 514.75,-33.92"/>
</g>
<!-- 263&#45;&gt;4 -->
<g id="edge67" class="edge">
<title>263&#45;&gt;4</title>
<path fill="none" stroke="red" stroke-width="0.26" d="M277.62,-76.5C282.09,-73.41 287.02,-70.51 292.01,-68.53 403.68,-24.1 446.4,-71.72 560.01,-32.53 561.26,-32.09 562.52,-31.6 563.77,-31.06"/>
<polygon fill="red" stroke="red" stroke-width="0.26" points="565.75,-33.97 573.01,-26.26 562.52,-27.76 565.75,-33.97"/>
</g>
<!-- 263&#45;&gt;5 -->
<g id="edge68" class="edge">
<title>263&#45;&gt;5</title>
<path fill="none" stroke="red" stroke-width="0.28" d="M277.74,-76.8C282.21,-73.69 287.11,-70.71 292.01,-68.53 360.98,-37.84 387.69,-59.98 458.01,-32.53 459.24,-32.05 460.49,-31.51 461.73,-30.93"/>
<polygon fill="red" stroke="red" stroke-width="0.28" points="463.75,-33.83 470.93,-26.03 460.45,-27.65 463.75,-33.83"/>
</g>
<!-- 264&#45;&gt;0 -->
<g id="edge69" class="edge">
<title>264&#45;&gt;0</title>
<path fill="none" stroke="red" stroke-width="0.22" d="M340.43,-72.96C348.41,-62.27 358.33,-48.98 366.48,-38.07"/>
<polygon fill="red" stroke="red" stroke-width="0.22" points="369.38,-40.03 372.56,-29.92 363.77,-35.84 369.38,-40.03"/>
</g>
<!-- 264&#45;&gt;1 -->
<g id="edge70" class="edge">
<title>264&#45;&gt;1</title>
<path fill="none" stroke="green" stroke-width="0.67" d="M345.86,-77.9C350.18,-74.8 354.74,-71.54 359.01,-68.53 376.56,-56.13 396.6,-42.27 411.39,-32.09"/>
<polygon fill="green" stroke="green" stroke-width="0.67" points="413.6,-34.82 419.86,-26.27 409.64,-29.05 413.6,-34.82"/>
</g>
<!-- 264&#45;&gt;2 -->
<g id="edge71" class="edge">
<title>264&#45;&gt;2</title>
<path fill="none" stroke="green" stroke-width="0.27" stroke-dasharray="1,5" d="M344.63,-76.54C349.1,-73.44 354.03,-70.53 359.01,-68.53 463.96,-26.26 504.21,-69.87 611.01,-32.53 612.26,-32.09 613.52,-31.59 614.77,-31.04"/>
<polygon fill="green" stroke="green" stroke-width="0.27" points="616.75,-33.96 624,-26.23 613.51,-27.75 616.75,-33.96"/>
</g>
<!-- 264&#45;&gt;3 -->
<g id="edge72" class="edge">
<title>264&#45;&gt;3</title>
<path fill="none" stroke="red" stroke-width="0.26" d="M344.78,-76.88C349.24,-73.76 354.13,-70.76 359.01,-68.53 421.34,-39.97 445.42,-58.16 509.01,-32.53 510.24,-32.03 511.48,-31.48 512.71,-30.9"/>
<polygon fill="red" stroke="red" stroke-width="0.26" points="514.74,-33.78 521.9,-25.97 511.43,-27.62 514.74,-33.78"/>
</g>
<!-- 264&#45;&gt;4 -->
<g id="edge73" class="edge">
<title>264&#45;&gt;4</title>
<path fill="none" stroke="red" stroke-width="0.15" d="M344.68,-76.67C349.15,-73.56 354.07,-70.62 359.01,-68.53 442.58,-33.14 474.88,-63.99 560.01,-32.53 561.25,-32.07 562.5,-31.55 563.75,-30.99"/>
<polygon fill="red" stroke="red" stroke-width="0.15" points="565.75,-33.89 572.96,-26.13 562.49,-27.7 565.75,-33.89"/>
</g>
<!-- 264&#45;&gt;5 -->
<g id="edge74" class="edge">
<title>264&#45;&gt;5</title>
<path fill="none" stroke="red" stroke-width="0.24" d="M344.98,-77.28C349.43,-74.15 354.27,-71.03 359.01,-68.53 400.4,-46.65 415.65,-52.46 458.01,-32.53 459.18,-31.98 460.37,-31.39 461.56,-30.78"/>
<polygon fill="red" stroke="red" stroke-width="0.24" points="463.45,-33.73 470.5,-25.82 460.06,-27.61 463.45,-33.73"/>
</g>
<!-- 265&#45;&gt;0 -->
<g id="edge75" class="edge">
<title>265&#45;&gt;0</title>
<path fill="none" stroke="green" stroke-width="0.43" d="M389.53,-68.54C388.32,-60.33 386.97,-51.1 385.75,-42.76"/>
<polygon fill="green" stroke="green" stroke-width="0.43" points="389.2,-42.19 384.29,-32.81 382.28,-43.21 389.2,-42.19"/>
</g>
<!-- 265&#45;&gt;1 -->
<g id="edge76" class="edge">
<title>265&#45;&gt;1</title>
<path fill="none" stroke="green" stroke-width="0.1" d="M404.36,-70.98C409.55,-61.26 415.68,-49.75 420.95,-39.88"/>
<polygon fill="green" stroke="green" stroke-width="0.1" points="424.05,-41.5 425.67,-31.03 417.87,-38.21 424.05,-41.5"/>
</g>
<!-- 265&#45;&gt;2 -->
<g id="edge77" class="edge">
<title>265&#45;&gt;2</title>
<path fill="none" stroke="red" stroke-width="0.13" d="M411.71,-76.72C416.18,-73.61 421.08,-70.66 426.01,-68.53 502.9,-35.29 532.66,-62.15 611.01,-32.53 612.25,-32.06 613.5,-31.53 614.74,-30.97"/>
<polygon fill="red" stroke="red" stroke-width="0.13" points="616.75,-33.86 623.95,-26.09 613.47,-27.68 616.75,-33.86"/>
</g>
<!-- 265&#45;&gt;3 -->
<g id="edge78" class="edge">
<title>265&#45;&gt;3</title>
<path fill="none" stroke="red" stroke-width="0.32" d="M412.09,-77.49C416.54,-74.35 421.34,-71.18 426.01,-68.53 460.97,-48.67 473.16,-50.74 509.01,-32.53 510.16,-31.94 511.34,-31.32 512.52,-30.69"/>
<polygon fill="red" stroke="red" stroke-width="0.32" points="514.43,-33.63 521.42,-25.66 510.99,-27.53 514.43,-33.63"/>
</g>
<!-- 265&#45;&gt;4 -->
<g id="edge79" class="edge">
<title>265&#45;&gt;4</title>
<path fill="none" stroke="green" stroke-width="0.14" d="M411.82,-76.97C416.29,-73.85 421.16,-70.83 426.01,-68.53 481.72,-42.09 503.13,-56.35 560.01,-32.53 561.23,-32.02 562.47,-31.46 563.7,-30.86"/>
<polygon fill="green" stroke="green" stroke-width="0.14" points="565.74,-33.74 572.87,-25.9 562.41,-27.58 565.74,-33.74"/>
</g>
<!-- 265&#45;&gt;5 -->
<g id="edge80" class="edge">
<title>265&#45;&gt;5</title>
<path fill="none" stroke="green" stroke-width="0.16" d="M411.86,-76.73C427.06,-64.21 448.38,-46.63 463.91,-33.83"/>
<polygon fill="green" stroke="green" stroke-width="0.16" points="466.37,-36.34 471.86,-27.28 461.91,-30.94 466.37,-36.34"/>
</g>
</g>
</svg>
