<?xml version="1.0" encoding="UTF-8" standalone="no"?>
<!DOCTYPE svg PUBLIC "-//W3C//DTD SVG 1.1//EN"
 "http://www.w3.org/Graphics/SVG/1.1/DTD/svg11.dtd">
<!-- Generated by graphviz version 2.44.0 (0)
 -->
<!-- Pages: 1 -->
<svg width="1041pt" height="266pt"
 viewBox="0.00 0.00 1040.88 265.52" xmlns="http://www.w3.org/2000/svg" xmlns:xlink="http://www.w3.org/1999/xlink">
<g id="graph0" class="graph" transform="scale(1 1) rotate(0) translate(4 261.52)">
<polygon fill="white" stroke="transparent" points="-4,4 -4,-261.52 1036.88,-261.52 1036.88,4 -4,4"/>
<!-- &#45;1 -->
<g id="node1" class="node">
<title>&#45;1</title>
<polygon fill="lightgray" stroke="black" points="606.12,-257.52 580.12,-257.52 580.12,-239.52 606.12,-239.52 606.12,-257.52"/>
<text text-anchor="middle" x="593.12" y="-246.32" font-family="Times-Roman" font-size="9.00">&#45;1</text>
</g>
<!-- 0 -->
<g id="node3" class="node">
<title>0</title>
<ellipse fill="lightblue" stroke="black" cx="677.12" cy="-93.28" rx="16.03" ry="16.03"/>
<text text-anchor="middle" x="677.12" y="-91.08" font-family="Times-Roman" font-size="9.00">0</text>
</g>
<!-- &#45;1&#45;&gt;0 -->
<g id="edge81" class="edge">
<title>&#45;1&#45;&gt;0</title>
<path fill="none" stroke="green" stroke-width="0.3" d="M606.51,-247.11C673.61,-244.89 971.32,-233.4 998.12,-203.52 1012.81,-187.15 1012.18,-170.94 998.12,-154.02 988.61,-142.57 778.37,-109.65 703.39,-98.23"/>
<polygon fill="green" stroke="green" stroke-width="0.3" points="703.77,-94.75 693.35,-96.71 702.72,-101.67 703.77,-94.75"/>
</g>
<!-- 1 -->
<g id="node4" class="node">
<title>1</title>
<ellipse fill="lightblue" stroke="black" cx="399.12" cy="-93.28" rx="16.03" ry="16.03"/>
<text text-anchor="middle" x="399.12" y="-91.08" font-family="Times-Roman" font-size="9.00">1</text>
</g>
<!-- &#45;1&#45;&gt;1 -->
<g id="edge82" class="edge">
<title>&#45;1&#45;&gt;1</title>
<path fill="none" stroke="green" stroke-width="0.85" d="M579.98,-246.59C502.69,-241.07 110.45,-212.63 102.12,-203.52 22.48,-116.43 285.62,-98.58 372.35,-95.09"/>
<polygon fill="green" stroke="green" stroke-width="0.85" points="372.6,-98.58 382.47,-94.71 372.35,-91.58 372.6,-98.58"/>
</g>
<!-- 2 -->
<g id="node5" class="node">
<title>2</title>
<ellipse fill="lightblue" stroke="black" cx="538.12" cy="-93.28" rx="16.03" ry="16.03"/>
<text text-anchor="middle" x="538.12" y="-91.08" font-family="Times-Roman" font-size="9.00">2</text>
</g>
<!-- &#45;1&#45;&gt;2 -->
<g id="edge83" class="edge">
<title>&#45;1&#45;&gt;2</title>
<path fill="none" stroke="red" stroke-width="0.31" d="M593.53,-239.43C594.08,-222.8 593.88,-183.82 582.12,-154.02 576.17,-138.94 565.43,-124.24 556.05,-113.19"/>
<polygon fill="red" stroke="red" stroke-width="0.31" points="558.5,-110.68 549.25,-105.52 553.26,-115.32 558.5,-110.68"/>
</g>
<!-- 3 -->
<g id="node6" class="node">
<title>3</title>
<ellipse fill="lightblue" stroke="black" cx="626.12" cy="-93.28" rx="16.03" ry="16.03"/>
<text text-anchor="middle" x="626.12" y="-91.08" font-family="Times-Roman" font-size="9.00">3</text>
</g>
<!-- &#45;1&#45;&gt;3 -->
<g id="edge84" class="edge">
<title>&#45;1&#45;&gt;3</title>
<path fill="none" stroke="red" stroke-width="0.37" d="M606.46,-246.79C666.01,-243.37 905.53,-228.15 927.12,-203.52 941.63,-186.98 941.63,-170.56 927.12,-154.02 886.47,-107.7 708.01,-144.01 652.12,-118.02 649.22,-116.68 646.42,-114.89 643.8,-112.89"/>
<polygon fill="red" stroke="red" stroke-width="0.37" points="645.95,-110.12 636.14,-106.12 641.31,-115.37 645.95,-110.12"/>
</g>
<!-- 4 -->
<g id="node7" class="node">
<title>4</title>
<ellipse fill="lightblue" stroke="black" cx="582.12" cy="-16.26" rx="16.03" ry="16.03"/>
<text text-anchor="middle" x="582.12" y="-14.06" font-family="Times-Roman" font-size="9.00">4</text>
</g>
<!-- &#45;1&#45;&gt;4 -->
<g id="edge85" class="edge">
<title>&#45;1&#45;&gt;4</title>
<path fill="none" stroke="red" stroke-width="0.54" d="M606.22,-247.18C674.62,-245.28 988.88,-234.85 1017.12,-203.52 1078.31,-135.66 941.59,-76.45 925.12,-68.53 868.99,-41.51 679.49,-24.68 608.91,-19.21"/>
<polygon fill="red" stroke="red" stroke-width="0.54" points="608.88,-15.7 598.64,-18.44 608.35,-22.68 608.88,-15.7"/>
</g>
<!-- 5 -->
<g id="node8" class="node">
<title>5</title>
<ellipse fill="lightblue" stroke="black" cx="450.12" cy="-93.28" rx="16.03" ry="16.03"/>
<text text-anchor="middle" x="450.12" y="-91.08" font-family="Times-Roman" font-size="9.00">5</text>
</g>
<!-- &#45;1&#45;&gt;5 -->
<g id="edge86" class="edge">
<title>&#45;1&#45;&gt;5</title>
<path fill="none" stroke="green" stroke-width="0.17" d="M579.84,-246.44C526.63,-241.96 330.79,-224.18 313.12,-203.52 298.83,-186.8 300.19,-171.82 313.12,-154.02 343.62,-112.07 379.29,-144.1 424.12,-118.02 426.75,-116.5 429.33,-114.67 431.8,-112.71"/>
<polygon fill="green" stroke="green" stroke-width="0.17" points="434.41,-115.07 439.57,-105.82 429.77,-109.83 434.41,-115.07"/>
</g>
<!-- 236 -->
<g id="node9" class="node">
<title>236</title>
<ellipse fill="white" stroke="black" cx="759.12" cy="-178.77" rx="25" ry="25"/>
<text text-anchor="middle" x="759.12" y="-176.57" font-family="Times-Roman" font-size="9.00">236</text>
</g>
<!-- &#45;1&#45;&gt;236 -->
<g id="edge1" class="edge">
<title>&#45;1&#45;&gt;236</title>
<path fill="none" stroke="green" stroke-width="0.35" d="M606.49,-244.53C631.07,-238.73 684.74,-224.63 726.12,-203.52 727.92,-202.61 729.72,-201.6 731.51,-200.54"/>
<polygon fill="green" stroke="green" stroke-width="0.35" points="733.74,-203.26 740.21,-194.87 729.92,-197.39 733.74,-203.26"/>
</g>
<!-- 237 -->
<g id="node10" class="node">
<title>237</title>
<ellipse fill="white" stroke="black" cx="826.12" cy="-178.77" rx="25" ry="25"/>
<text text-anchor="middle" x="826.12" y="-176.57" font-family="Times-Roman" font-size="9.00">237</text>
</g>
<!-- &#45;1&#45;&gt;237 -->
<g id="edge2" class="edge">
<title>&#45;1&#45;&gt;237</title>
<path fill="none" stroke="red" stroke-width="0.77" d="M606.33,-246.48C639.22,-243.48 726.9,-233.11 793.12,-203.52 794.96,-202.7 796.8,-201.77 798.61,-200.76"/>
<polygon fill="red" stroke="red" stroke-width="0.77" points="800.79,-203.53 807.39,-195.24 797.06,-197.6 800.79,-203.53"/>
</g>
<!-- 238 -->
<g id="node11" class="node">
<title>238</title>
<ellipse fill="white" stroke="black" cx="692.12" cy="-178.77" rx="25" ry="25"/>
<text text-anchor="middle" x="692.12" y="-176.57" font-family="Times-Roman" font-size="9.00">238</text>
</g>
<!-- &#45;1&#45;&gt;238 -->
<g id="edge3" class="edge">
<title>&#45;1&#45;&gt;238</title>
<path fill="none" stroke="red" stroke-width="0.58" d="M604.87,-239.48C619.24,-229.65 644.05,-212.67 663.55,-199.33"/>
<polygon fill="red" stroke="red" stroke-width="0.58" points="665.53,-202.21 671.81,-193.68 661.58,-196.44 665.53,-202.21"/>
</g>
<!-- 239 -->
<g id="node12" class="node">
<title>239</title>
<ellipse fill="white" stroke="black" cx="548.12" cy="-178.77" rx="25" ry="25"/>
<text text-anchor="middle" x="548.12" y="-176.57" font-family="Times-Roman" font-size="9.00">239</text>
</g>
<!-- &#45;1&#45;&gt;239 -->
<g id="edge4" class="edge">
<title>&#45;1&#45;&gt;239</title>
<path fill="none" stroke="red" stroke-width="0.43" d="M587.78,-239.48C582.66,-231.78 574.62,-219.67 567.12,-208.37"/>
<polygon fill="red" stroke="red" stroke-width="0.43" points="569.99,-206.36 561.54,-199.97 564.16,-210.24 569.99,-206.36"/>
</g>
<!-- 240 -->
<g id="node13" class="node">
<title>240</title>
<ellipse fill="white" stroke="black" cx="893.12" cy="-178.77" rx="25" ry="25"/>
<text text-anchor="middle" x="893.12" y="-176.57" font-family="Times-Roman" font-size="9.00">240</text>
</g>
<!-- &#45;1&#45;&gt;240 -->
<g id="edge5" class="edge">
<title>&#45;1&#45;&gt;240</title>
<path fill="none" stroke="green" stroke-width="0.32" d="M606.2,-247.45C645.98,-246.8 768.36,-241.63 860.12,-203.52 861.98,-202.75 863.83,-201.86 865.66,-200.88"/>
<polygon fill="green" stroke="green" stroke-width="0.32" points="867.8,-203.67 874.47,-195.43 864.12,-197.71 867.8,-203.67"/>
</g>
<!-- 241 -->
<g id="node14" class="node">
<title>241</title>
<ellipse fill="white" stroke="black" cx="203.12" cy="-178.77" rx="25" ry="25"/>
<text text-anchor="middle" x="203.12" y="-176.57" font-family="Times-Roman" font-size="9.00">241</text>
</g>
<!-- &#45;1&#45;&gt;241 -->
<g id="edge6" class="edge">
<title>&#45;1&#45;&gt;241</title>
<path fill="none" stroke="red" stroke-width="0.15" d="M579.87,-246.42C536.45,-242.66 394.74,-229.08 280.12,-203.52 265.54,-200.27 249.73,-195.6 236.25,-191.26"/>
<polygon fill="red" stroke="red" stroke-width="0.15" points="237.05,-187.84 226.45,-188.03 234.86,-194.49 237.05,-187.84"/>
</g>
<!-- 242 -->
<g id="node15" class="node">
<title>242</title>
<ellipse fill="white" stroke="black" cx="414.12" cy="-178.77" rx="25" ry="25"/>
<text text-anchor="middle" x="414.12" y="-176.57" font-family="Times-Roman" font-size="9.00">242</text>
</g>
<!-- &#45;1&#45;&gt;242 -->
<g id="edge7" class="edge">
<title>&#45;1&#45;&gt;242</title>
<path fill="none" stroke="green" stroke-width="0.1" d="M580.09,-245.11C553.9,-239.93 493.42,-226.36 447.12,-203.52 445.32,-202.63 443.51,-201.65 441.71,-200.6"/>
<polygon fill="green" stroke="green" stroke-width="0.1" points="443.29,-197.45 432.99,-194.97 439.49,-203.33 443.29,-197.45"/>
</g>
<!-- 243 -->
<g id="node16" class="node">
<title>243</title>
<ellipse fill="white" stroke="black" cx="481.12" cy="-178.77" rx="25" ry="25"/>
<text text-anchor="middle" x="481.12" y="-176.57" font-family="Times-Roman" font-size="9.00">243</text>
</g>
<!-- &#45;1&#45;&gt;243 -->
<g id="edge8" class="edge">
<title>&#45;1&#45;&gt;243</title>
<path fill="none" stroke="green" stroke-width="0.48" d="M579.99,-240.81C564.1,-232.54 536.65,-217.83 514.12,-203.52 512.47,-202.47 510.79,-201.37 509.1,-200.24"/>
<polygon fill="green" stroke="green" stroke-width="0.48" points="510.98,-197.28 500.76,-194.47 506.99,-203.04 510.98,-197.28"/>
</g>
<!-- 244 -->
<g id="node17" class="node">
<title>244</title>
<ellipse fill="white" stroke="black" cx="136.12" cy="-178.77" rx="25" ry="25"/>
<text text-anchor="middle" x="136.12" y="-176.57" font-family="Times-Roman" font-size="9.00">244</text>
</g>
<!-- &#45;1&#45;&gt;244 -->
<g id="edge9" class="edge">
<title>&#45;1&#45;&gt;244</title>
<path fill="none" stroke="green" stroke-width="0.26" d="M579.99,-246.56C512.73,-241.6 208.46,-218.49 169.12,-203.52 167.24,-202.81 165.37,-201.96 163.53,-201.01"/>
<polygon fill="green" stroke="green" stroke-width="0.26" points="165.06,-197.84 154.69,-195.66 161.43,-203.83 165.06,-197.84"/>
</g>
<!-- 245 -->
<g id="node18" class="node">
<title>245</title>
<ellipse fill="white" stroke="black" cx="347.12" cy="-178.77" rx="25" ry="25"/>
<text text-anchor="middle" x="347.12" y="-176.57" font-family="Times-Roman" font-size="9.00">245</text>
</g>
<!-- &#45;1&#45;&gt;245 -->
<g id="edge10" class="edge">
<title>&#45;1&#45;&gt;245</title>
<path fill="none" stroke="green" stroke-width="0.2" d="M580.07,-246.72C545.87,-244.23 451.35,-234.8 380.12,-203.52 378.28,-202.71 376.44,-201.79 374.62,-200.79"/>
<polygon fill="green" stroke="green" stroke-width="0.2" points="376.17,-197.63 365.84,-195.29 372.46,-203.56 376.17,-197.63"/>
</g>
<!-- &#45;2 -->
<g id="node2" class="node">
<title>&#45;2</title>
<polygon fill="lightgray" stroke="black" points="461.12,-257.52 435.12,-257.52 435.12,-239.52 461.12,-239.52 461.12,-257.52"/>
<text text-anchor="middle" x="448.12" y="-246.32" font-family="Times-Roman" font-size="9.00">&#45;2</text>
</g>
<!-- &#45;2&#45;&gt;0 -->
<g id="edge87" class="edge">
<title>&#45;2&#45;&gt;0</title>
<path fill="none" stroke="green" stroke-width="0.39" d="M461.19,-246.56C537.18,-240.96 919.01,-212.41 927.12,-203.52 994.52,-129.65 780.73,-103.32 703.7,-96.36"/>
<polygon fill="green" stroke="green" stroke-width="0.39" points="703.64,-92.84 693.37,-95.47 703.04,-99.82 703.64,-92.84"/>
</g>
<!-- &#45;2&#45;&gt;1 -->
<g id="edge88" class="edge">
<title>&#45;2&#45;&gt;1</title>
<path fill="none" stroke="green" stroke-width="0.14" d="M434.8,-247.15C366.61,-245.12 58.82,-234.3 31.12,-203.52 -66.64,-94.9 273.08,-92.21 372.55,-93.67"/>
<polygon fill="green" stroke="green" stroke-width="0.14" points="372.63,-97.17 382.68,-93.85 372.75,-90.17 372.63,-97.17"/>
</g>
<!-- &#45;2&#45;&gt;2 -->
<g id="edge89" class="edge">
<title>&#45;2&#45;&gt;2</title>
<path fill="none" stroke="red" stroke-width="0.33" d="M434.89,-247.85C406.87,-247.74 341.79,-243.02 313.12,-203.52 300.2,-185.72 299.36,-171.18 313.12,-154.02 359.27,-96.49 404.44,-139.09 475.12,-118.02 488.12,-114.15 502.28,-108.91 513.87,-104.34"/>
<polygon fill="red" stroke="red" stroke-width="0.33" points="515.34,-107.52 523.31,-100.54 512.72,-101.03 515.34,-107.52"/>
</g>
<!-- &#45;2&#45;&gt;3 -->
<g id="edge90" class="edge">
<title>&#45;2&#45;&gt;3</title>
<path fill="none" stroke="red" stroke-width="0.45" d="M461.39,-246.78C487.77,-244.6 547.27,-236.16 582.12,-203.52 605.91,-181.24 617.14,-144.35 622.22,-119.68"/>
<polygon fill="red" stroke="red" stroke-width="0.45" points="625.7,-120.09 624.09,-109.62 618.82,-118.81 625.7,-120.09"/>
</g>
<!-- &#45;2&#45;&gt;4 -->
<g id="edge91" class="edge">
<title>&#45;2&#45;&gt;4</title>
<path fill="none" stroke="red" stroke-width="0.33" d="M435.06,-247.23C365.37,-245.53 39.41,-235.9 10.12,-203.52 -4.63,-187.21 -1.61,-172.63 10.12,-154.02 57.15,-79.45 104.58,-93.54 189.12,-68.53 322.91,-28.94 491.32,-19.9 555.57,-17.86"/>
<polygon fill="red" stroke="red" stroke-width="0.33" points="555.75,-21.35 565.65,-17.57 555.55,-14.36 555.75,-21.35"/>
</g>
<!-- &#45;2&#45;&gt;5 -->
<g id="edge92" class="edge">
<title>&#45;2&#45;&gt;5</title>
<path fill="none" stroke="green" stroke-width="0.32" d="M435.12,-246.87C374.85,-243.7 124.64,-229.08 102.12,-203.52 87.58,-187.01 87.46,-170.42 102.12,-154.02 150.12,-100.36 358.55,-147.76 424.12,-118.02 427.04,-116.7 429.84,-114.93 432.47,-112.95"/>
<polygon fill="green" stroke="green" stroke-width="0.32" points="434.95,-115.42 440.13,-106.18 430.32,-110.17 434.95,-115.42"/>
</g>
<!-- &#45;2&#45;&gt;236 -->
<g id="edge11" class="edge">
<title>&#45;2&#45;&gt;236</title>
<path fill="none" stroke="green" stroke-width="0.5" d="M461.43,-246.24C509.91,-241.45 676.87,-223.79 726.12,-203.52 727.98,-202.76 729.84,-201.87 731.67,-200.89"/>
<polygon fill="green" stroke="green" stroke-width="0.5" points="733.8,-203.68 740.48,-195.46 730.13,-197.73 733.8,-203.68"/>
</g>
<!-- &#45;2&#45;&gt;237 -->
<g id="edge12" class="edge">
<title>&#45;2&#45;&gt;237</title>
<path fill="none" stroke="green" stroke-width="0.29" d="M461.46,-246.7C517.11,-243.14 730.77,-228.09 793.12,-203.52 794.99,-202.78 796.86,-201.92 798.69,-200.96"/>
<polygon fill="green" stroke="green" stroke-width="0.29" points="800.81,-203.77 807.52,-195.57 797.16,-197.79 800.81,-203.77"/>
</g>
<!-- &#45;2&#45;&gt;238 -->
<g id="edge13" class="edge">
<title>&#45;2&#45;&gt;238</title>
<path fill="none" stroke="green" stroke-width="0.46" d="M461.17,-244.28C489.36,-237.24 558.04,-219.84 615.12,-203.52 629.49,-199.42 645.26,-194.6 658.78,-190.39"/>
<polygon fill="green" stroke="green" stroke-width="0.46" points="660.12,-193.64 668.61,-187.3 658.02,-186.96 660.12,-193.64"/>
</g>
<!-- &#45;2&#45;&gt;239 -->
<g id="edge14" class="edge">
<title>&#45;2&#45;&gt;239</title>
<path fill="none" stroke="red" stroke-width="0.33" d="M461.08,-239.25C474.65,-230.52 496.55,-216.3 515.12,-203.52 516.74,-202.41 518.39,-201.26 520.05,-200.1"/>
<polygon fill="red" stroke="red" stroke-width="0.33" points="522.2,-202.87 528.33,-194.23 518.15,-197.16 522.2,-202.87"/>
</g>
<!-- &#45;2&#45;&gt;240 -->
<g id="edge15" class="edge">
<title>&#45;2&#45;&gt;240</title>
<path fill="none" stroke="green" stroke-width="0.3" stroke-dasharray="1,5" d="M461.32,-246.52C527.54,-241.42 821.99,-218.1 860.12,-203.52 862,-202.8 863.87,-201.95 865.71,-201"/>
<polygon fill="green" stroke="green" stroke-width="0.3" points="867.82,-203.82 874.55,-195.64 864.19,-197.83 867.82,-203.82"/>
</g>
<!-- &#45;2&#45;&gt;241 -->
<g id="edge16" class="edge">
<title>&#45;2&#45;&gt;241</title>
<path fill="none" stroke="green" stroke-width="0.27" d="M434.66,-246.23C401.1,-242.67 311.44,-231.1 242.12,-203.52 238.68,-202.15 235.19,-200.49 231.79,-198.69"/>
<polygon fill="green" stroke="green" stroke-width="0.27" points="233.51,-195.64 223.09,-193.7 230.03,-201.71 233.51,-195.64"/>
</g>
<!-- &#45;2&#45;&gt;242 -->
<g id="edge17" class="edge">
<title>&#45;2&#45;&gt;242</title>
<path fill="none" stroke="green" stroke-width="0.52" d="M444.09,-239.48C440.44,-232.22 434.84,-221.05 429.46,-210.33"/>
<polygon fill="green" stroke="green" stroke-width="0.52" points="432.46,-208.5 424.84,-201.13 426.2,-211.64 432.46,-208.5"/>
</g>
<!-- &#45;2&#45;&gt;243 -->
<g id="edge18" class="edge">
<title>&#45;2&#45;&gt;243</title>
<path fill="none" stroke="red" stroke-width="0.48" d="M452.04,-239.48C455.55,-232.27 460.94,-221.22 466.12,-210.57"/>
<polygon fill="red" stroke="red" stroke-width="0.48" points="469.35,-211.95 470.58,-201.42 463.05,-208.88 469.35,-211.95"/>
</g>
<!-- &#45;2&#45;&gt;244 -->
<g id="edge19" class="edge">
<title>&#45;2&#45;&gt;244</title>
<path fill="none" stroke="red" stroke-width="0.11" d="M435.04,-247.57C394.11,-247.31 265.5,-243.15 169.12,-203.52 167.26,-202.76 165.41,-201.87 163.58,-200.89"/>
<polygon fill="red" stroke="red" stroke-width="0.11" points="165.12,-197.73 154.77,-195.46 161.44,-203.69 165.12,-197.73"/>
</g>
<!-- &#45;2&#45;&gt;245 -->
<g id="edge20" class="edge">
<title>&#45;2&#45;&gt;245</title>
<path fill="none" stroke="red" stroke-width="0.21" d="M435.22,-239.44C421.44,-230.75 399.05,-216.45 380.12,-203.52 378.51,-202.42 376.85,-201.27 375.19,-200.11"/>
<polygon fill="red" stroke="red" stroke-width="0.21" points="377.09,-197.17 366.9,-194.25 373.05,-202.88 377.09,-197.17"/>
</g>
<!-- 236&#45;&gt;0 -->
<g id="edge21" class="edge">
<title>236&#45;&gt;0</title>
<path fill="none" stroke="green" stroke-width="0.11" d="M742.13,-160.47C728.52,-146.61 709.45,-127.19 695.48,-112.97"/>
<polygon fill="green" stroke="green" stroke-width="0.11" points="697.82,-110.35 688.32,-105.67 692.83,-115.26 697.82,-110.35"/>
</g>
<!-- 236&#45;&gt;1 -->
<g id="edge22" class="edge">
<title>236&#45;&gt;1</title>
<path fill="none" stroke="red" stroke-width="0.13" d="M740.54,-161.95C736.06,-158.86 731.12,-155.97 726.12,-154.02 600.58,-105.13 547.61,-174.14 425.12,-118.02 422.22,-116.69 419.41,-114.91 416.79,-112.92"/>
<polygon fill="red" stroke="red" stroke-width="0.13" points="418.94,-110.15 409.13,-106.15 414.3,-115.4 418.94,-110.15"/>
</g>
<!-- 236&#45;&gt;2 -->
<g id="edge23" class="edge">
<title>236&#45;&gt;2</title>
<path fill="none" stroke="red" stroke-width="0.27" d="M740.28,-162.54C735.82,-159.41 730.95,-156.37 726.12,-154.02 674.12,-128.77 655.99,-136.24 601.12,-118.02 588.25,-113.75 574.11,-108.48 562.49,-103.98"/>
<polygon fill="red" stroke="red" stroke-width="0.27" points="563.61,-100.66 553.02,-100.28 561.06,-107.18 563.61,-100.66"/>
</g>
<!-- 236&#45;&gt;3 -->
<g id="edge24" class="edge">
<title>236&#45;&gt;3</title>
<path fill="none" stroke="red" stroke-width="0.2" d="M739.6,-162.89C735.26,-159.82 730.61,-156.7 726.12,-154.02 694.72,-135.27 682.38,-138.57 652.12,-118.02 649.66,-116.35 647.19,-114.45 644.81,-112.48"/>
<polygon fill="red" stroke="red" stroke-width="0.2" points="646.97,-109.71 637.17,-105.67 642.31,-114.94 646.97,-109.71"/>
</g>
<!-- 236&#45;&gt;4 -->
<g id="edge25" class="edge">
<title>236&#45;&gt;4</title>
<path fill="none" stroke="green" stroke-width="0.2" d="M756.48,-153.79C752.57,-129.32 743.04,-91.74 720.12,-68.53 689.77,-37.78 639.32,-25.28 608.55,-20.35"/>
<polygon fill="green" stroke="green" stroke-width="0.2" points="608.96,-16.87 598.56,-18.9 607.95,-23.8 608.96,-16.87"/>
</g>
<!-- 236&#45;&gt;5 -->
<g id="edge26" class="edge">
<title>236&#45;&gt;5</title>
<path fill="none" stroke="red" stroke-width="0.28" d="M740.46,-162.13C735.99,-159.02 731.07,-156.09 726.12,-154.02 637.53,-117.02 605.81,-143.07 513.12,-118.02 499.94,-114.46 485.68,-109.21 474.06,-104.55"/>
<polygon fill="red" stroke="red" stroke-width="0.28" points="475.2,-101.23 464.63,-100.66 472.54,-107.7 475.2,-101.23"/>
</g>
<!-- 237&#45;&gt;0 -->
<g id="edge27" class="edge">
<title>237&#45;&gt;0</title>
<path fill="none" stroke="green" stroke-width="0.17" d="M806.55,-162.97C802.21,-159.89 797.58,-156.75 793.12,-154.02 762.36,-135.18 724.98,-116.66 701.12,-105.35"/>
<polygon fill="green" stroke="green" stroke-width="0.17" points="702.32,-102.05 691.79,-100.97 699.35,-108.38 702.32,-102.05"/>
</g>
<!-- 237&#45;&gt;1 -->
<g id="edge28" class="edge">
<title>237&#45;&gt;1</title>
<path fill="none" stroke="red" stroke-width="0.52" d="M807.57,-161.87C803.09,-158.78 798.14,-155.92 793.12,-154.02 639.36,-96.03 575.25,-184.86 425.12,-118.02 422.2,-116.72 419.39,-114.96 416.76,-112.98"/>
<polygon fill="red" stroke="red" stroke-width="0.52" points="418.91,-110.21 409.1,-106.22 414.28,-115.46 418.91,-110.21"/>
</g>
<!-- 237&#45;&gt;2 -->
<g id="edge29" class="edge">
<title>237&#45;&gt;2</title>
<path fill="none" stroke="red" stroke-width="0.19" d="M807.44,-162.19C802.97,-159.09 798.05,-156.14 793.12,-154.02 713.31,-119.85 684.73,-141.43 601.12,-118.02 588.06,-114.37 573.9,-109.15 562.32,-104.53"/>
<polygon fill="red" stroke="red" stroke-width="0.19" points="563.48,-101.23 552.9,-100.69 560.83,-107.71 563.48,-101.23"/>
</g>
<!-- 237&#45;&gt;3 -->
<g id="edge30" class="edge">
<title>237&#45;&gt;3</title>
<path fill="none" stroke="green" stroke-width="0.11" d="M807.33,-162.43C802.87,-159.31 797.98,-156.29 793.12,-154.02 734.52,-126.66 709.03,-148.75 652.12,-118.02 649.5,-116.61 646.93,-114.87 644.5,-112.98"/>
<polygon fill="green" stroke="green" stroke-width="0.11" points="646.65,-110.21 636.82,-106.26 642.03,-115.48 646.65,-110.21"/>
</g>
<!-- 237&#45;&gt;4 -->
<g id="edge31" class="edge">
<title>237&#45;&gt;4</title>
<path fill="none" stroke="green" stroke-width="0.38" d="M815.86,-156.05C803.1,-131.35 779.06,-91.47 747.12,-68.53 704.7,-38.05 643.64,-25.31 608.93,-20.29"/>
<polygon fill="green" stroke="green" stroke-width="0.38" points="609.02,-16.77 598.64,-18.91 608.09,-23.71 609.02,-16.77"/>
</g>
<!-- 237&#45;&gt;5 -->
<g id="edge32" class="edge">
<title>237&#45;&gt;5</title>
<path fill="none" stroke="red" stroke-width="0.21" d="M807.52,-161.98C803.05,-158.89 798.11,-155.99 793.12,-154.02 676.41,-107.97 634.87,-148.36 513.12,-118.02 499.88,-114.72 485.6,-109.49 474,-104.78"/>
<polygon fill="red" stroke="red" stroke-width="0.21" points="475.16,-101.47 464.58,-100.83 472.45,-107.92 475.16,-101.47"/>
</g>
<!-- 238&#45;&gt;0 -->
<g id="edge33" class="edge">
<title>238&#45;&gt;0</title>
<path fill="none" stroke="green" stroke-width="0.29" d="M687.87,-154.07C685.91,-143.18 683.59,-130.27 681.61,-119.23"/>
<polygon fill="green" stroke="green" stroke-width="0.29" points="685.04,-118.57 679.83,-109.35 678.15,-119.81 685.04,-118.57"/>
</g>
<!-- 238&#45;&gt;1 -->
<g id="edge34" class="edge">
<title>238&#45;&gt;1</title>
<path fill="none" stroke="red" stroke-width="0.46" d="M668.06,-172.56C603.44,-158.54 430.6,-120.88 425.12,-118.02 422.48,-116.65 419.9,-114.93 417.46,-113.06"/>
<polygon fill="red" stroke="red" stroke-width="0.46" points="419.61,-110.29 409.77,-106.34 415,-115.56 419.61,-110.29"/>
</g>
<!-- 238&#45;&gt;2 -->
<g id="edge35" class="edge">
<title>238&#45;&gt;2</title>
<path fill="none" stroke="green" stroke-width="0.36" d="M671.23,-164.69C665.41,-161.15 659.06,-157.37 653.12,-154.02 621.91,-136.44 585.03,-117.61 561.61,-105.89"/>
<polygon fill="green" stroke="green" stroke-width="0.36" points="562.96,-102.66 552.45,-101.33 559.84,-108.92 562.96,-102.66"/>
</g>
<!-- 238&#45;&gt;3 -->
<g id="edge36" class="edge">
<title>238&#45;&gt;3</title>
<path fill="none" stroke="red" stroke-width="0.4" d="M677.15,-158.83C666.73,-145.64 652.85,-128.08 642.2,-114.61"/>
<polygon fill="red" stroke="red" stroke-width="0.4" points="644.68,-112.1 635.73,-106.43 639.19,-116.45 644.68,-112.1"/>
</g>
<!-- 238&#45;&gt;4 -->
<g id="edge37" class="edge">
<title>238&#45;&gt;4</title>
<path fill="none" stroke="green" stroke-width="0.4" d="M701.74,-155.69C710.39,-132.1 719.33,-94.59 702.12,-68.53 681.43,-37.18 637.2,-24.93 608.6,-20.2"/>
<polygon fill="green" stroke="green" stroke-width="0.4" points="608.89,-16.7 598.49,-18.72 607.88,-23.63 608.89,-16.7"/>
</g>
<!-- 238&#45;&gt;5 -->
<g id="edge38" class="edge">
<title>238&#45;&gt;5</title>
<path fill="none" stroke="red" stroke-width="0.15" d="M668.85,-170.32C634.61,-159.28 568.69,-137.76 513.12,-118.02 500.34,-113.49 486.21,-108.18 474.57,-103.74"/>
<polygon fill="red" stroke="red" stroke-width="0.15" points="475.67,-100.42 465.08,-100.1 473.17,-106.95 475.67,-100.42"/>
</g>
<!-- 239&#45;&gt;0 -->
<g id="edge39" class="edge">
<title>239&#45;&gt;0</title>
<path fill="none" stroke="green" stroke-width="0.53" d="M569.86,-166.91C591.31,-155.81 624.62,-137.47 651.12,-118.02 653.53,-116.26 655.96,-114.31 658.32,-112.3"/>
<polygon fill="green" stroke="green" stroke-width="0.53" points="660.82,-114.76 665.93,-105.47 656.15,-109.54 660.82,-114.76"/>
</g>
<!-- 239&#45;&gt;1 -->
<g id="edge40" class="edge">
<title>239&#45;&gt;1</title>
<path fill="none" stroke="red" stroke-width="0.46" d="M529.1,-162.89C524.64,-159.75 519.83,-156.61 515.12,-154.02 477.36,-133.29 461.62,-140.92 425.12,-118.02 422.55,-116.41 420,-114.53 417.55,-112.54"/>
<polygon fill="red" stroke="red" stroke-width="0.46" points="419.59,-109.67 409.79,-105.63 414.93,-114.9 419.59,-109.67"/>
</g>
<!-- 239&#45;&gt;2 -->
<g id="edge41" class="edge">
<title>239&#45;&gt;2</title>
<path fill="none" stroke="green" stroke-width="0.25" d="M545.28,-154.07C544,-143.37 542.49,-130.7 541.18,-119.79"/>
<polygon fill="green" stroke="green" stroke-width="0.25" points="544.62,-119.12 539.96,-109.6 537.67,-119.95 544.62,-119.12"/>
</g>
<!-- 239&#45;&gt;3 -->
<g id="edge42" class="edge">
<title>239&#45;&gt;3</title>
<path fill="none" stroke="green" stroke-width="0.2" d="M564.67,-160.07C577.38,-146.46 594.91,-127.69 608,-113.67"/>
<polygon fill="green" stroke="green" stroke-width="0.2" points="610.85,-115.75 615.12,-106.05 605.74,-110.97 610.85,-115.75"/>
</g>
<!-- 239&#45;&gt;4 -->
<g id="edge43" class="edge">
<title>239&#45;&gt;4</title>
<path fill="none" stroke="green" stroke-width="0.31" d="M554.29,-154.58C557.13,-143.55 560.46,-130.14 563.12,-118.02 568.76,-92.38 574.2,-62.84 577.81,-42.4"/>
<polygon fill="green" stroke="green" stroke-width="0.31" points="581.3,-42.8 579.57,-32.34 574.4,-41.59 581.3,-42.8"/>
</g>
<!-- 239&#45;&gt;5 -->
<g id="edge44" class="edge">
<title>239&#45;&gt;5</title>
<path fill="none" stroke="red" stroke-width="0.17" d="M529.69,-162.07C512.63,-147.53 487.34,-125.99 469.88,-111.11"/>
<polygon fill="red" stroke="red" stroke-width="0.17" points="471.88,-108.22 462,-104.4 467.34,-113.55 471.88,-108.22"/>
</g>
<!-- 240&#45;&gt;0 -->
<g id="edge45" class="edge">
<title>240&#45;&gt;0</title>
<path fill="none" stroke="red" stroke-width="0.52" d="M874.22,-162.66C869.76,-159.53 864.91,-156.45 860.12,-154.02 806.96,-127.04 739.03,-108.65 702.72,-99.98"/>
<polygon fill="red" stroke="red" stroke-width="0.52" points="703.48,-96.56 692.94,-97.7 701.89,-103.38 703.48,-96.56"/>
</g>
<!-- 240&#45;&gt;1 -->
<g id="edge46" class="edge">
<title>240&#45;&gt;1</title>
<path fill="none" stroke="green" stroke-width="0.12" d="M874.59,-161.81C870.11,-158.73 865.16,-155.88 860.12,-154.02 678.1,-86.92 602.93,-195.6 425.12,-118.02 422.19,-116.75 419.37,-115 416.74,-113.03"/>
<polygon fill="green" stroke="green" stroke-width="0.12" points="418.89,-110.25 409.08,-106.26 414.26,-115.5 418.89,-110.25"/>
</g>
<!-- 240&#45;&gt;2 -->
<g id="edge47" class="edge">
<title>240&#45;&gt;2</title>
<path fill="none" stroke="green" stroke-width="0.1" stroke-dasharray="1,5" d="M874.51,-162.02C870.03,-158.92 865.1,-156.02 860.12,-154.02 752.24,-110.81 713.75,-146.7 601.12,-118.02 587.89,-114.66 573.62,-109.42 562.02,-104.72"/>
<polygon fill="green" stroke="green" stroke-width="0.1" points="563.17,-101.41 552.59,-100.79 560.47,-107.87 563.17,-101.41"/>
</g>
<!-- 240&#45;&gt;3 -->
<g id="edge48" class="edge">
<title>240&#45;&gt;3</title>
<path fill="none" stroke="green" stroke-width="0.41" d="M874.46,-162.14C869.99,-159.04 865.07,-156.1 860.12,-154.02 773.62,-117.7 736.37,-159.32 652.12,-118.02 649.45,-116.71 646.85,-115.04 644.39,-113.19"/>
<polygon fill="green" stroke="green" stroke-width="0.41" points="646.54,-110.42 636.7,-106.49 641.94,-115.7 646.54,-110.42"/>
</g>
<!-- 240&#45;&gt;4 -->
<g id="edge49" class="edge">
<title>240&#45;&gt;4</title>
<path fill="none" stroke="green" stroke-width="0.23" stroke-dasharray="1,5" d="M878.71,-158.01C859.62,-133.31 823.63,-91.49 783.12,-68.53 726.02,-36.15 648.33,-23.89 608.32,-19.51"/>
<polygon fill="green" stroke="green" stroke-width="0.23" points="608.61,-16.02 598.31,-18.5 607.9,-22.99 608.61,-16.02"/>
</g>
<!-- 240&#45;&gt;5 -->
<g id="edge50" class="edge">
<title>240&#45;&gt;5</title>
<path fill="none" stroke="green" stroke-width="0.17" d="M874.56,-161.89C870.08,-158.8 865.14,-155.93 860.12,-154.02 715.21,-98.88 664.02,-153.66 513.12,-118.02 499.84,-114.89 485.56,-109.67 473.96,-104.92"/>
<polygon fill="green" stroke="green" stroke-width="0.17" points="475.13,-101.61 464.56,-100.94 472.4,-108.06 475.13,-101.61"/>
</g>
<!-- 534 -->
<g id="node19" class="node">
<title>534</title>
<ellipse fill="white" stroke="black" cx="891.12" cy="-93.28" rx="25" ry="25"/>
<text text-anchor="middle" x="891.12" y="-91.08" font-family="Times-Roman" font-size="9.00">534</text>
</g>
<!-- 240&#45;&gt;534 -->
<g id="edge93" class="edge">
<title>240&#45;&gt;534</title>
<path fill="none" stroke="green" stroke-width="0.16" d="M892.54,-153.62C892.35,-145.68 892.14,-136.69 891.94,-128.16"/>
<polygon fill="green" stroke="green" stroke-width="0.16" points="895.43,-128 891.69,-118.08 888.43,-128.16 895.43,-128"/>
</g>
<!-- 241&#45;&gt;0 -->
<g id="edge51" class="edge">
<title>241&#45;&gt;0</title>
<path fill="none" stroke="red" stroke-width="0.36" d="M227.02,-171.84C249.21,-166.52 283.22,-158.83 313.12,-154.02 462.28,-130.05 513.38,-180.06 651.12,-118.02 654.04,-116.71 656.85,-114.94 659.47,-112.96"/>
<polygon fill="red" stroke="red" stroke-width="0.36" points="661.96,-115.44 667.14,-106.19 657.33,-110.19 661.96,-115.44"/>
</g>
<!-- 241&#45;&gt;1 -->
<g id="edge52" class="edge">
<title>241&#45;&gt;1</title>
<path fill="none" stroke="green" stroke-width="0.5" d="M223.37,-164.48C229.29,-160.86 235.86,-157.09 242.12,-154.02 287.07,-132.02 342.3,-112.67 373.84,-102.3"/>
<polygon fill="green" stroke="green" stroke-width="0.5" points="375.14,-105.56 383.57,-99.14 372.98,-98.9 375.14,-105.56"/>
</g>
<!-- 241&#45;&gt;2 -->
<g id="edge53" class="edge">
<title>241&#45;&gt;2</title>
<path fill="none" stroke="green" stroke-width="0.18" d="M223,-163.61C228.91,-159.97 235.57,-156.42 242.12,-154.02 340.55,-118.08 373.78,-144.65 475.12,-118.02 488.33,-114.56 502.59,-109.31 514.21,-104.63"/>
<polygon fill="green" stroke="green" stroke-width="0.18" points="515.74,-107.78 523.64,-100.72 513.06,-101.32 515.74,-107.78"/>
</g>
<!-- 241&#45;&gt;3 -->
<g id="edge54" class="edge">
<title>241&#45;&gt;3</title>
<path fill="none" stroke="red" stroke-width="0.36" d="M227.06,-172.1C249.28,-166.96 283.32,-159.38 313.12,-154.02 423.61,-134.17 454.4,-145.99 563.12,-118.02 576.34,-114.62 590.61,-109.38 602.22,-104.69"/>
<polygon fill="red" stroke="red" stroke-width="0.36" points="603.76,-107.84 611.65,-100.77 601.07,-101.38 603.76,-107.84"/>
</g>
<!-- 241&#45;&gt;4 -->
<g id="edge55" class="edge">
<title>241&#45;&gt;4</title>
<path fill="none" stroke="red" stroke-width="0.19" d="M219.74,-159.95C243.68,-135.4 290.4,-91.6 339.12,-68.53 412.72,-33.67 509.98,-22.34 555.93,-18.8"/>
<polygon fill="red" stroke="red" stroke-width="0.19" points="556.23,-22.29 565.96,-18.09 555.74,-15.31 556.23,-22.29"/>
</g>
<!-- 241&#45;&gt;5 -->
<g id="edge56" class="edge">
<title>241&#45;&gt;5</title>
<path fill="none" stroke="red" stroke-width="0.17" d="M223.07,-163.78C228.98,-160.15 235.62,-156.55 242.12,-154.02 318.97,-124.12 350.52,-155.2 424.12,-118.02 426.78,-116.68 429.37,-114.99 431.82,-113.13"/>
<polygon fill="red" stroke="red" stroke-width="0.17" points="434.28,-115.63 439.51,-106.42 429.68,-110.36 434.28,-115.63"/>
</g>
<!-- 242&#45;&gt;0 -->
<g id="edge57" class="edge">
<title>242&#45;&gt;0</title>
<path fill="none" stroke="green" stroke-width="0.63" d="M432.79,-162.15C437.26,-159.05 442.18,-156.11 447.12,-154.02 531.95,-118.24 568.52,-158.69 651.12,-118.02 653.8,-116.71 656.4,-115.03 658.85,-113.18"/>
<polygon fill="green" stroke="green" stroke-width="0.63" points="661.3,-115.69 666.54,-106.48 656.7,-110.41 661.3,-115.69"/>
</g>
<!-- 242&#45;&gt;1 -->
<g id="edge58" class="edge">
<title>242&#45;&gt;1</title>
<path fill="none" stroke="green" stroke-width="0.21" d="M409.87,-154.07C407.91,-143.18 405.59,-130.27 403.61,-119.23"/>
<polygon fill="green" stroke="green" stroke-width="0.21" points="407.04,-118.57 401.83,-109.35 400.15,-119.81 407.04,-118.57"/>
</g>
<!-- 242&#45;&gt;2 -->
<g id="edge59" class="edge">
<title>242&#45;&gt;2</title>
<path fill="none" stroke="red" stroke-width="0.71" d="M433.92,-163.32C438.25,-160.22 442.82,-156.98 447.12,-154.02 470.44,-137.99 497.6,-120.28 516.14,-108.33"/>
<polygon fill="red" stroke="red" stroke-width="0.71" points="518.22,-111.16 524.74,-102.81 514.44,-105.27 518.22,-111.16"/>
</g>
<!-- 242&#45;&gt;3 -->
<g id="edge60" class="edge">
<title>242&#45;&gt;3</title>
<path fill="none" stroke="green" stroke-width="0.17" d="M433,-162.61C437.46,-159.48 442.32,-156.42 447.12,-154.02 495.44,-129.95 512.07,-135.55 563.12,-118.02 575.95,-113.62 590.09,-108.33 601.72,-103.86"/>
<polygon fill="green" stroke="green" stroke-width="0.17" points="603.13,-107.07 611.19,-100.19 600.6,-100.54 603.13,-107.07"/>
</g>
<!-- 242&#45;&gt;4 -->
<g id="edge61" class="edge">
<title>242&#45;&gt;4</title>
<path fill="none" stroke="red" stroke-width="0.67" d="M397.77,-159.84C378.72,-136.72 352.45,-96.19 374.12,-68.53 396.4,-40.09 504.63,-25.29 555.54,-19.81"/>
<polygon fill="red" stroke="red" stroke-width="0.67" points="556.18,-23.26 565.77,-18.75 555.46,-16.3 556.18,-23.26"/>
</g>
<!-- 242&#45;&gt;5 -->
<g id="edge62" class="edge">
<title>242&#45;&gt;5</title>
<path fill="none" stroke="green" stroke-width="0.17" d="M423.58,-155.84C428.63,-144.13 434.84,-129.73 439.98,-117.79"/>
<polygon fill="green" stroke="green" stroke-width="0.17" points="443.26,-119.04 444,-108.47 436.83,-116.26 443.26,-119.04"/>
</g>
<!-- 243&#45;&gt;0 -->
<g id="edge63" class="edge">
<title>243&#45;&gt;0</title>
<path fill="none" stroke="red" stroke-width="0.17" d="M499.93,-162.45C504.39,-159.33 509.27,-156.31 514.12,-154.02 571.07,-127.19 595.83,-148.13 651.12,-118.02 653.74,-116.6 656.3,-114.86 658.74,-112.97"/>
<polygon fill="red" stroke="red" stroke-width="0.17" points="661.2,-115.46 666.42,-106.24 656.59,-110.2 661.2,-115.46"/>
</g>
<!-- 243&#45;&gt;1 -->
<g id="edge64" class="edge">
<title>243&#45;&gt;1</title>
<path fill="none" stroke="red" stroke-width="0.11" d="M464.13,-160.47C450.52,-146.61 431.45,-127.19 417.48,-112.97"/>
<polygon fill="red" stroke="red" stroke-width="0.11" points="419.82,-110.35 410.32,-105.67 414.83,-115.26 419.82,-110.35"/>
</g>
<!-- 243&#45;&gt;2 -->
<g id="edge65" class="edge">
<title>243&#45;&gt;2</title>
<path fill="none" stroke="green" stroke-width="0.34" d="M494.63,-157.99C503.3,-145.29 514.55,-128.81 523.44,-115.79"/>
<polygon fill="green" stroke="green" stroke-width="0.34" points="526.4,-117.65 529.15,-107.42 520.62,-113.7 526.4,-117.65"/>
</g>
<!-- 243&#45;&gt;3 -->
<g id="edge66" class="edge">
<title>243&#45;&gt;3</title>
<path fill="none" stroke="green" stroke-width="0.15" d="M500.72,-163.02C505.06,-159.93 509.69,-156.79 514.12,-154.02 543.75,-135.58 579.59,-117.09 602.61,-105.67"/>
<polygon fill="green" stroke="green" stroke-width="0.15" points="604.21,-108.78 611.64,-101.23 601.12,-102.5 604.21,-108.78"/>
</g>
<!-- 243&#45;&gt;4 -->
<g id="edge67" class="edge">
<title>243&#45;&gt;4</title>
<path fill="none" stroke="red" stroke-width="0.68" d="M483.69,-153.71C487.17,-130.21 495.16,-94.31 513.12,-68.53 524.85,-51.69 543.88,-38.16 558.99,-29.23"/>
<polygon fill="red" stroke="red" stroke-width="0.68" points="560.79,-32.23 567.79,-24.28 557.35,-26.13 560.79,-32.23"/>
</g>
<!-- 243&#45;&gt;5 -->
<g id="edge68" class="edge">
<title>243&#45;&gt;5</title>
<path fill="none" stroke="green" stroke-width="0.14" d="M472.82,-155.4C468.6,-144.04 463.47,-130.22 459.15,-118.6"/>
<polygon fill="green" stroke="green" stroke-width="0.14" points="462.38,-117.23 455.62,-109.07 455.82,-119.66 462.38,-117.23"/>
</g>
<!-- 244&#45;&gt;0 -->
<g id="edge69" class="edge">
<title>244&#45;&gt;0</title>
<path fill="none" stroke="green" stroke-width="0.51" d="M154.65,-161.78C159.13,-158.7 164.08,-155.86 169.12,-154.02 370.98,-80.53 453.88,-203.13 651.12,-118.02 654.06,-116.76 656.88,-115.02 659.51,-113.05"/>
<polygon fill="green" stroke="green" stroke-width="0.51" points="661.99,-115.53 667.18,-106.29 657.36,-110.28 661.99,-115.53"/>
</g>
<!-- 244&#45;&gt;1 -->
<g id="edge70" class="edge">
<title>244&#45;&gt;1</title>
<path fill="none" stroke="green" stroke-width="0.34" d="M154.92,-162.44C159.39,-159.32 164.27,-156.3 169.12,-154.02 238.84,-121.29 329.18,-104.53 373,-97.85"/>
<polygon fill="green" stroke="green" stroke-width="0.34" points="373.71,-101.28 383.09,-96.36 372.69,-94.35 373.71,-101.28"/>
</g>
<!-- 244&#45;&gt;2 -->
<g id="edge71" class="edge">
<title>244&#45;&gt;2</title>
<path fill="none" stroke="green" stroke-width="0.25" d="M154.71,-161.94C159.18,-158.85 164.12,-155.97 169.12,-154.02 296.77,-104.45 342.07,-150.42 475.12,-118.02 488.39,-114.8 502.66,-109.57 514.26,-104.84"/>
<polygon fill="green" stroke="green" stroke-width="0.25" points="515.82,-107.98 523.68,-100.88 513.1,-101.53 515.82,-107.98"/>
</g>
<!-- 244&#45;&gt;3 -->
<g id="edge72" class="edge">
<title>244&#45;&gt;3</title>
<path fill="none" stroke="green" stroke-width="0.51" d="M154.67,-161.84C159.15,-158.76 164.1,-155.9 169.12,-154.02 333.85,-92.5 391.75,-157.39 563.12,-118.02 576.43,-114.97 590.71,-109.76 602.3,-104.99"/>
<polygon fill="green" stroke="green" stroke-width="0.51" points="603.87,-108.13 611.7,-100.99 601.13,-101.69 603.87,-108.13"/>
</g>
<!-- 244&#45;&gt;4 -->
<g id="edge73" class="edge">
<title>244&#45;&gt;4</title>
<path fill="none" stroke="green" stroke-width="0.61" d="M151.76,-159.18C173.97,-134.15 217.19,-90.23 264.12,-68.53 364.29,-22.2 498.99,-16.84 555.47,-16.81"/>
<polygon fill="green" stroke="green" stroke-width="0.61" points="555.66,-20.31 565.68,-16.86 555.7,-13.31 555.66,-20.31"/>
</g>
<!-- 244&#45;&gt;5 -->
<g id="edge74" class="edge">
<title>244&#45;&gt;5</title>
<path fill="none" stroke="green" stroke-width="0.19" d="M154.74,-162.03C159.21,-158.93 164.15,-156.02 169.12,-154.02 275.33,-111.35 320.58,-166.8 424.12,-118.02 427.02,-116.66 429.81,-114.86 432.43,-112.87"/>
<polygon fill="green" stroke="green" stroke-width="0.19" points="434.92,-115.34 440.09,-106.09 430.28,-110.09 434.92,-115.34"/>
</g>
<!-- 245&#45;&gt;0 -->
<g id="edge75" class="edge">
<title>245&#45;&gt;0</title>
<path fill="none" stroke="red" stroke-width="0.61" d="M365.73,-162C370.2,-158.9 375.14,-156 380.12,-154.02 493.05,-109.19 540.99,-169.35 651.12,-118.02 654.02,-116.67 656.82,-114.88 659.44,-112.89"/>
<polygon fill="red" stroke="red" stroke-width="0.61" points="661.93,-115.36 667.1,-106.11 657.29,-110.12 661.93,-115.36"/>
</g>
<!-- 245&#45;&gt;1 -->
<g id="edge76" class="edge">
<title>245&#45;&gt;1</title>
<path fill="none" stroke="green" stroke-width="0.6" d="M359.98,-157.13C367.72,-144.7 377.58,-128.87 385.46,-116.21"/>
<polygon fill="green" stroke="green" stroke-width="0.6" points="388.48,-117.98 390.8,-107.64 382.54,-114.28 388.48,-117.98"/>
</g>
<!-- 245&#45;&gt;2 -->
<g id="edge77" class="edge">
<title>245&#45;&gt;2</title>
<path fill="none" stroke="red" stroke-width="0.35" d="M366.11,-162.82C370.57,-159.69 375.4,-156.56 380.12,-154.02 380.9,-153.61 469.42,-120.19 513.61,-103.52"/>
<polygon fill="red" stroke="red" stroke-width="0.35" points="514.94,-106.76 523.07,-99.96 512.47,-100.21 514.94,-106.76"/>
</g>
<!-- 245&#45;&gt;3 -->
<g id="edge78" class="edge">
<title>245&#45;&gt;3</title>
<path fill="none" stroke="red" stroke-width="0.33" d="M365.82,-162.23C370.29,-159.12 375.2,-156.16 380.12,-154.02 456.18,-121.06 483.4,-140.72 563.12,-118.02 576.17,-114.31 590.33,-109.09 601.91,-104.48"/>
<polygon fill="red" stroke="red" stroke-width="0.33" points="603.39,-107.66 611.34,-100.65 600.76,-101.17 603.39,-107.66"/>
</g>
<!-- 245&#45;&gt;4 -->
<g id="edge79" class="edge">
<title>245&#45;&gt;4</title>
<path fill="none" stroke="red" stroke-width="0.46" d="M343.3,-154.13C340.77,-129.57 341.1,-91.59 362.12,-68.53 387.96,-40.18 502.74,-25.23 555.47,-19.75"/>
<polygon fill="red" stroke="red" stroke-width="0.46" points="556.12,-23.2 565.72,-18.72 555.42,-16.23 556.12,-23.2"/>
</g>
<!-- 245&#45;&gt;5 -->
<g id="edge80" class="edge">
<title>245&#45;&gt;5</title>
<path fill="none" stroke="green" stroke-width="0.24" d="M366.77,-163.22C382.53,-151.37 405.1,-134.05 424.12,-118.02 426.4,-116.1 428.76,-114.05 431.07,-111.99"/>
<polygon fill="green" stroke="green" stroke-width="0.24" points="433.6,-114.43 438.65,-105.12 428.89,-109.25 433.6,-114.43"/>
</g>
<!-- 534&#45;&gt;4 -->
<g id="edge94" class="edge">
<title>534&#45;&gt;4</title>
<path fill="none" stroke="green" stroke-width="0.29" d="M871.05,-78.52C864.88,-74.8 857.92,-71.1 851.12,-68.53 765.98,-36.28 657.68,-23.59 608.52,-19.24"/>
<polygon fill="green" stroke="green" stroke-width="0.29" points="608.68,-15.74 598.42,-18.4 608.09,-22.72 608.68,-15.74"/>
</g>
</g>
</svg>
