<?xml version="1.0" encoding="UTF-8" standalone="no"?>
<!DOCTYPE svg PUBLIC "-//W3C//DTD SVG 1.1//EN"
 "http://www.w3.org/Graphics/SVG/1.1/DTD/svg11.dtd">
<!-- Generated by graphviz version 2.44.0 (0)
 -->
<!-- Pages: 1 -->
<svg width="2576pt" height="266pt"
 viewBox="0.00 0.00 2575.76 265.52" xmlns="http://www.w3.org/2000/svg" xmlns:xlink="http://www.w3.org/1999/xlink">
<g id="graph0" class="graph" transform="scale(1 1) rotate(0) translate(4 261.52)">
<polygon fill="white" stroke="transparent" points="-4,4 -4,-261.52 2571.76,-261.52 2571.76,4 -4,4"/>
<!-- &#45;1 -->
<g id="node1" class="node">
<title>&#45;1</title>
<polygon fill="lightgray" stroke="black" points="1028.64,-257.52 1002.64,-257.52 1002.64,-239.52 1028.64,-239.52 1028.64,-257.52"/>
<text text-anchor="middle" x="1015.64" y="-246.32" font-family="Times-Roman" font-size="9.00">&#45;1</text>
</g>
<!-- 0 -->
<g id="node5" class="node">
<title>0</title>
<ellipse fill="lightblue" stroke="black" cx="979.64" cy="-16.26" rx="16.03" ry="16.03"/>
<text text-anchor="middle" x="979.64" y="-14.06" font-family="Times-Roman" font-size="9.00">0</text>
</g>
<!-- &#45;1&#45;&gt;0 -->
<g id="edge121" class="edge">
<title>&#45;1&#45;&gt;0</title>
<path fill="none" stroke="red" stroke-width="0.28" d="M1002.49,-247.38C889.33,-246.06 83.26,-235.6 44.64,-203.52 -2.01,-164.77 -17.08,-112.55 24.64,-68.53 57.48,-33.88 802.14,-20.11 953.1,-17.67"/>
<polygon fill="red" stroke="red" stroke-width="0.28" points="953.35,-21.17 963.29,-17.51 953.24,-14.17 953.35,-21.17"/>
</g>
<!-- 1 -->
<g id="node6" class="node">
<title>1</title>
<ellipse fill="lightblue" stroke="black" cx="1031.64" cy="-16.26" rx="16.03" ry="16.03"/>
<text text-anchor="middle" x="1031.64" y="-14.06" font-family="Times-Roman" font-size="9.00">1</text>
</g>
<!-- &#45;1&#45;&gt;1 -->
<g id="edge122" class="edge">
<title>&#45;1&#45;&gt;1</title>
<path fill="none" stroke="red" stroke-width="0.32" d="M1002.32,-247.43C889.46,-246.55 96.64,-239.12 62.64,-203.52 7.31,-145.57 126.71,-74.19 138.64,-68.53 312.67,14.01 819.43,-85.39 1004.64,-32.53 1006.32,-32.05 1008,-31.45 1009.66,-30.76"/>
<polygon fill="red" stroke="red" stroke-width="0.32" points="1011.38,-33.82 1018.74,-26.2 1008.23,-27.56 1011.38,-33.82"/>
</g>
<!-- 2 -->
<g id="node7" class="node">
<title>2</title>
<ellipse fill="lightblue" stroke="black" cx="1083.64" cy="-16.26" rx="16.03" ry="16.03"/>
<text text-anchor="middle" x="1083.64" y="-14.06" font-family="Times-Roman" font-size="9.00">2</text>
</g>
<!-- &#45;1&#45;&gt;2 -->
<g id="edge123" class="edge">
<title>&#45;1&#45;&gt;2</title>
<path fill="none" stroke="red" stroke-width="0.54" d="M1002.51,-247.4C892.88,-246.33 133.22,-237.7 100.64,-203.52 85.47,-187.6 88.7,-172.5 100.64,-154.02 150.92,-76.26 200.59,-90.08 290.64,-68.53 622.1,10.8 729.17,-126.96 1056.64,-32.53 1058.32,-32.04 1060,-31.44 1061.65,-30.75"/>
<polygon fill="red" stroke="red" stroke-width="0.54" points="1063.38,-33.81 1070.73,-26.18 1060.23,-27.55 1063.38,-33.81"/>
</g>
<!-- 3 -->
<g id="node8" class="node">
<title>3</title>
<ellipse fill="lightblue" stroke="black" cx="1161.64" cy="-16.26" rx="16.03" ry="16.03"/>
<text text-anchor="middle" x="1161.64" y="-14.06" font-family="Times-Roman" font-size="9.00">3</text>
</g>
<!-- &#45;1&#45;&gt;3 -->
<g id="edge124" class="edge">
<title>&#45;1&#45;&gt;3</title>
<path fill="none" stroke="green" stroke-width="0.45" d="M1002.43,-247.22C910.81,-244.76 377.78,-223.64 523.64,-68.53 568.26,-21.08 1044.47,-43.6 1108.64,-32.53 1118,-30.91 1128.07,-28.26 1136.88,-25.61"/>
<polygon fill="green" stroke="green" stroke-width="0.45" points="1138.05,-28.91 1146.54,-22.57 1135.95,-22.23 1138.05,-28.91"/>
</g>
<!-- 4 -->
<g id="node9" class="node">
<title>4</title>
<ellipse fill="lightblue" stroke="black" cx="1401.64" cy="-16.26" rx="16.03" ry="16.03"/>
<text text-anchor="middle" x="1401.64" y="-14.06" font-family="Times-Roman" font-size="9.00">4</text>
</g>
<!-- &#45;1&#45;&gt;4 -->
<g id="edge125" class="edge">
<title>&#45;1&#45;&gt;4</title>
<path fill="none" stroke="red" stroke-width="0.4" d="M1028.67,-246.77C1070.07,-244.14 1202.1,-233.77 1306.64,-203.52 1397.55,-177.22 1449.88,-197.24 1501.64,-118.02 1513.68,-99.61 1513.11,-87.3 1501.64,-68.53 1497.28,-61.38 1453.76,-40.75 1425.59,-27.94"/>
<polygon fill="red" stroke="red" stroke-width="0.4" points="1426.91,-24.7 1416.35,-23.78 1424.03,-31.08 1426.91,-24.7"/>
</g>
<!-- 5 -->
<g id="node10" class="node">
<title>5</title>
<ellipse fill="lightblue" stroke="black" cx="1460.64" cy="-16.26" rx="16.03" ry="16.03"/>
<text text-anchor="middle" x="1460.64" y="-14.06" font-family="Times-Roman" font-size="9.00">5</text>
</g>
<!-- &#45;1&#45;&gt;5 -->
<g id="edge126" class="edge">
<title>&#45;1&#45;&gt;5</title>
<path fill="none" stroke="red" stroke-width="0.32" d="M1028.77,-246.73C1115.71,-241.43 1605.46,-211.28 1618.64,-203.52 1674.63,-170.58 1715.88,-118.72 1674.64,-68.53 1622.3,-4.82 1570.91,-58.48 1492.64,-32.53 1489.8,-31.58 1486.87,-30.44 1484,-29.22"/>
<polygon fill="red" stroke="red" stroke-width="0.32" points="1485.21,-25.92 1474.66,-24.89 1482.26,-32.27 1485.21,-25.92"/>
</g>
<!-- 6 -->
<g id="node11" class="node">
<title>6</title>
<ellipse fill="lightblue" stroke="black" cx="1517.64" cy="-16.26" rx="16.03" ry="16.03"/>
<text text-anchor="middle" x="1517.64" y="-14.06" font-family="Times-Roman" font-size="9.00">6</text>
</g>
<!-- &#45;1&#45;&gt;6 -->
<g id="edge127" class="edge">
<title>&#45;1&#45;&gt;6</title>
<path fill="none" stroke="red" stroke-width="0.14" d="M1028.82,-246.82C1119.47,-241.96 1647.43,-213.26 1660.64,-203.52 1710.36,-166.87 1731.77,-117.12 1693.64,-68.53 1652.12,-15.61 1609.54,-56.37 1546.64,-32.53 1544.53,-31.72 1542.36,-30.8 1540.23,-29.82"/>
<polygon fill="red" stroke="red" stroke-width="0.14" points="1541.7,-26.64 1531.19,-25.27 1538.55,-32.89 1541.7,-26.64"/>
</g>
<!-- 7 -->
<g id="node12" class="node">
<title>7</title>
<ellipse fill="lightblue" stroke="black" cx="1571.64" cy="-16.26" rx="16.03" ry="16.03"/>
<text text-anchor="middle" x="1571.64" y="-14.06" font-family="Times-Roman" font-size="9.00">7</text>
</g>
<!-- &#45;1&#45;&gt;7 -->
<g id="edge128" class="edge">
<title>&#45;1&#45;&gt;7</title>
<path fill="none" stroke="green" stroke-width="0.6" d="M1028.81,-246.78C1122.93,-241.48 1690.14,-209.29 1696.64,-203.52 1741.86,-163.45 1747.31,-118.01 1712.64,-68.53 1686.87,-31.73 1631.81,-21.24 1598.63,-18.32"/>
<polygon fill="green" stroke="green" stroke-width="0.6" points="1598.52,-14.8 1588.29,-17.59 1598.02,-21.79 1598.52,-14.8"/>
</g>
<!-- 298 -->
<g id="node13" class="node">
<title>298</title>
<ellipse fill="white" stroke="black" cx="1294.64" cy="-93.28" rx="25" ry="25"/>
<text text-anchor="middle" x="1294.64" y="-91.08" font-family="Times-Roman" font-size="9.00">298</text>
</g>
<!-- &#45;1&#45;&gt;298 -->
<g id="edge1" class="edge">
<title>&#45;1&#45;&gt;298</title>
<path fill="none" stroke="red" stroke-width="0.86" d="M1019.22,-239.3C1027.62,-220.97 1050.46,-176.61 1083.64,-154.02 1136.4,-118.11 1161.42,-136.03 1222.64,-118.02 1235.47,-114.25 1249.45,-109.74 1261.65,-105.66"/>
<polygon fill="red" stroke="red" stroke-width="0.86" points="1263.06,-108.88 1271.42,-102.36 1260.82,-102.24 1263.06,-108.88"/>
</g>
<!-- 299 -->
<g id="node14" class="node">
<title>299</title>
<ellipse fill="white" stroke="black" cx="1573.64" cy="-93.28" rx="25" ry="25"/>
<text text-anchor="middle" x="1573.64" y="-91.08" font-family="Times-Roman" font-size="9.00">299</text>
</g>
<!-- &#45;1&#45;&gt;299 -->
<g id="edge2" class="edge">
<title>&#45;1&#45;&gt;299</title>
<path fill="none" stroke="red" stroke-width="0.17" d="M1028.69,-246.71C1110.96,-241.56 1554.82,-213.33 1564.64,-203.52 1584.09,-184.12 1584.47,-151.85 1581.1,-127.4"/>
<polygon fill="red" stroke="red" stroke-width="0.17" points="1584.54,-126.77 1579.47,-117.47 1577.63,-127.9 1584.54,-126.77"/>
</g>
<!-- 300 -->
<g id="node15" class="node">
<title>300</title>
<ellipse fill="white" stroke="black" cx="1640.64" cy="-93.28" rx="25" ry="25"/>
<text text-anchor="middle" x="1640.64" y="-91.08" font-family="Times-Roman" font-size="9.00">300</text>
</g>
<!-- &#45;1&#45;&gt;300 -->
<g id="edge3" class="edge">
<title>&#45;1&#45;&gt;300</title>
<path fill="none" stroke="red" stroke-width="0.61" d="M1028.86,-246.87C1112.24,-242.74 1562.73,-219.68 1586.64,-203.52 1612.22,-186.24 1626.18,-153.17 1633.46,-127.93"/>
<polygon fill="red" stroke="red" stroke-width="0.61" points="1636.91,-128.56 1636.1,-118 1630.15,-126.76 1636.91,-128.56"/>
</g>
<!-- 301 -->
<g id="node16" class="node">
<title>301</title>
<ellipse fill="white" stroke="black" cx="910.64" cy="-93.28" rx="25" ry="25"/>
<text text-anchor="middle" x="910.64" y="-91.08" font-family="Times-Roman" font-size="9.00">301</text>
</g>
<!-- &#45;1&#45;&gt;301 -->
<g id="edge4" class="edge">
<title>&#45;1&#45;&gt;301</title>
<path fill="none" stroke="red" stroke-width="0.26" d="M1002.53,-247.74C949.84,-248.31 754.54,-247.4 716.64,-203.52 702.26,-186.87 703.58,-171.72 716.64,-154.02 753.27,-104.42 830.46,-94.71 875.65,-93.53"/>
<polygon fill="red" stroke="red" stroke-width="0.26" points="875.91,-97.03 885.86,-93.4 875.82,-90.03 875.91,-97.03"/>
</g>
<!-- 302 -->
<g id="node17" class="node">
<title>302</title>
<ellipse fill="white" stroke="black" cx="977.64" cy="-93.28" rx="25" ry="25"/>
<text text-anchor="middle" x="977.64" y="-91.08" font-family="Times-Roman" font-size="9.00">302</text>
</g>
<!-- &#45;1&#45;&gt;302 -->
<g id="edge5" class="edge">
<title>&#45;1&#45;&gt;302</title>
<path fill="none" stroke="red" stroke-width="0.2" d="M1002.45,-247.64C951.21,-247.78 766.49,-245.33 730.64,-203.52 716.32,-186.82 716.44,-170.82 730.64,-154.02 792.93,-80.39 855.63,-155.16 944.64,-118.02 946.5,-117.25 948.35,-116.35 950.18,-115.37"/>
<polygon fill="red" stroke="red" stroke-width="0.2" points="952.32,-118.16 958.98,-109.92 948.64,-112.21 952.32,-118.16"/>
</g>
<!-- 303 -->
<g id="node18" class="node">
<title>303</title>
<ellipse fill="white" stroke="black" cx="1044.64" cy="-93.28" rx="25" ry="25"/>
<text text-anchor="middle" x="1044.64" y="-91.08" font-family="Times-Roman" font-size="9.00">303</text>
</g>
<!-- &#45;1&#45;&gt;303 -->
<g id="edge6" class="edge">
<title>&#45;1&#45;&gt;303</title>
<path fill="none" stroke="red" stroke-width="0.44" d="M1002.4,-247.44C939.06,-246.62 673.14,-238.19 746.64,-154.02 785.74,-109.26 956.44,-140.04 1011.64,-118.02 1013.51,-117.28 1015.37,-116.41 1017.21,-115.44"/>
<polygon fill="red" stroke="red" stroke-width="0.44" points="1019.33,-118.25 1026.03,-110.04 1015.68,-112.28 1019.33,-118.25"/>
</g>
<!-- 304 -->
<g id="node19" class="node">
<title>304</title>
<ellipse fill="white" stroke="black" cx="1188.64" cy="-93.28" rx="25" ry="25"/>
<text text-anchor="middle" x="1188.64" y="-91.08" font-family="Times-Roman" font-size="9.00">304</text>
</g>
<!-- &#45;1&#45;&gt;304 -->
<g id="edge7" class="edge">
<title>&#45;1&#45;&gt;304</title>
<path fill="none" stroke="green" stroke-width="0.51" d="M1002.6,-247.12C977.44,-245.56 922.61,-238.14 898.64,-203.52 886.12,-185.43 884.7,-171.04 898.64,-154.02 950.37,-90.93 998.77,-134.63 1078.64,-118.02 1104.12,-112.73 1132.87,-106.51 1154.58,-101.77"/>
<polygon fill="green" stroke="green" stroke-width="0.51" points="1155.61,-105.13 1164.63,-99.57 1154.12,-98.29 1155.61,-105.13"/>
</g>
<!-- 305 -->
<g id="node20" class="node">
<title>305</title>
<ellipse fill="white" stroke="black" cx="1400.64" cy="-93.28" rx="25" ry="25"/>
<text text-anchor="middle" x="1400.64" y="-91.08" font-family="Times-Roman" font-size="9.00">305</text>
</g>
<!-- &#45;1&#45;&gt;305 -->
<g id="edge8" class="edge">
<title>&#45;1&#45;&gt;305</title>
<path fill="none" stroke="green" stroke-width="0.2" d="M1028.95,-243.76C1053.49,-236.71 1107.45,-220.64 1151.64,-203.52 1201.26,-184.3 1211.32,-173.97 1260.64,-154.02 1304.82,-136.16 1318.62,-138.52 1361.64,-118.02 1364.99,-116.43 1368.41,-114.63 1371.78,-112.74"/>
<polygon fill="green" stroke="green" stroke-width="0.2" points="1373.59,-115.74 1380.44,-107.66 1370.04,-109.7 1373.59,-115.74"/>
</g>
<!-- 306 -->
<g id="node21" class="node">
<title>306</title>
<ellipse fill="white" stroke="black" cx="1467.64" cy="-93.28" rx="25" ry="25"/>
<text text-anchor="middle" x="1467.64" y="-91.08" font-family="Times-Roman" font-size="9.00">306</text>
</g>
<!-- &#45;1&#45;&gt;306 -->
<g id="edge9" class="edge">
<title>&#45;1&#45;&gt;306</title>
<path fill="none" stroke="red" stroke-width="0.15" d="M1028.79,-245.49C1061.61,-240.26 1149.61,-225.17 1220.64,-203.52 1318.62,-173.67 1344.86,-167.3 1434.64,-118.02 1436.41,-117.06 1438.19,-116.01 1439.96,-114.91"/>
<polygon fill="red" stroke="red" stroke-width="0.15" points="1442.22,-117.61 1448.62,-109.16 1438.35,-111.78 1442.22,-117.61"/>
</g>
<!-- 307 -->
<g id="node22" class="node">
<title>307</title>
<ellipse fill="white" stroke="black" cx="1117.64" cy="-178.77" rx="25" ry="25"/>
<text text-anchor="middle" x="1117.64" y="-176.57" font-family="Times-Roman" font-size="9.00">307</text>
</g>
<!-- &#45;1&#45;&gt;307 -->
<g id="edge10" class="edge">
<title>&#45;1&#45;&gt;307</title>
<path fill="none" stroke="green" stroke-width="0.22" d="M1027.74,-239.48C1042.73,-229.53 1068.75,-212.25 1088.95,-198.83"/>
<polygon fill="green" stroke="green" stroke-width="0.22" points="1091.09,-201.61 1097.48,-193.16 1087.22,-195.78 1091.09,-201.61"/>
</g>
<!-- &#45;2 -->
<g id="node2" class="node">
<title>&#45;2</title>
<polygon fill="lightgray" stroke="black" points="1204.64,-257.52 1178.64,-257.52 1178.64,-239.52 1204.64,-239.52 1204.64,-257.52"/>
<text text-anchor="middle" x="1191.64" y="-246.32" font-family="Times-Roman" font-size="9.00">&#45;2</text>
</g>
<!-- &#45;2&#45;&gt;0 -->
<g id="edge129" class="edge">
<title>&#45;2&#45;&gt;0</title>
<path fill="none" stroke="green" stroke-width="0.17" d="M1178.46,-246.82C1151.85,-245.4 1089.78,-242.12 1037.64,-239.52 869.88,-231.16 446.95,-238.4 282.64,-203.52 180.03,-181.74 121.88,-204.6 62.64,-118.02 50.22,-99.87 47.53,-84.51 62.64,-68.53 94.04,-35.32 804.74,-20.48 952.78,-17.74"/>
<polygon fill="green" stroke="green" stroke-width="0.17" points="953.25,-21.23 963.18,-17.55 953.12,-14.23 953.25,-21.23"/>
</g>
<!-- &#45;2&#45;&gt;1 -->
<g id="edge130" class="edge">
<title>&#45;2&#45;&gt;1</title>
<path fill="none" stroke="red" stroke-width="0.17" d="M1178.46,-246.79C1085.33,-241.64 529.47,-210.63 494.64,-203.52 382.88,-180.71 318.51,-211.16 252.64,-118.02 239.94,-100.06 237.46,-84.45 252.64,-68.53 310.36,-7.98 924.28,-55.74 1004.64,-32.53 1006.31,-32.04 1007.99,-31.44 1009.65,-30.75"/>
<polygon fill="red" stroke="red" stroke-width="0.17" points="1011.38,-33.8 1018.73,-26.18 1008.23,-27.55 1011.38,-33.8"/>
</g>
<!-- &#45;2&#45;&gt;2 -->
<g id="edge131" class="edge">
<title>&#45;2&#45;&gt;2</title>
<path fill="none" stroke="red" stroke-width="0.16" d="M1178.37,-246.79C1083.48,-241.58 511.63,-209.91 505.64,-203.52 483.89,-180.33 513.77,-77.1 523.64,-68.53 568.45,-29.59 999.78,-49.56 1056.64,-32.53 1058.13,-32.08 1059.62,-31.55 1061.09,-30.94"/>
<polygon fill="red" stroke="red" stroke-width="0.16" points="1063.06,-33.88 1070.44,-26.28 1059.93,-27.61 1063.06,-33.88"/>
</g>
<!-- &#45;2&#45;&gt;3 -->
<g id="edge132" class="edge">
<title>&#45;2&#45;&gt;3</title>
<path fill="none" stroke="red" stroke-width="0.23" d="M1178.62,-246.79C1085.53,-241.56 524.52,-209.79 518.64,-203.52 485.43,-168.06 553.46,-70.75 556.64,-68.53 607.06,-33.37 1048.09,-43.09 1108.64,-32.53 1118,-30.89 1128.06,-28.24 1136.88,-25.59"/>
<polygon fill="red" stroke="red" stroke-width="0.23" points="1138.05,-28.89 1146.54,-22.55 1135.95,-22.21 1138.05,-28.89"/>
</g>
<!-- &#45;2&#45;&gt;4 -->
<g id="edge133" class="edge">
<title>&#45;2&#45;&gt;4</title>
<path fill="none" stroke="green" stroke-width="0.19" d="M1205.02,-245.11C1215.29,-243.34 1229.82,-240.99 1242.64,-239.52 1297.1,-233.27 1697.33,-243.67 1734.64,-203.52 1780.1,-154.62 1677.92,-70.56 1674.64,-68.53 1583.3,-12 1538.71,-62.8 1435.64,-32.53 1432.19,-31.51 1428.62,-30.22 1425.17,-28.81"/>
<polygon fill="green" stroke="green" stroke-width="0.19" points="1426.43,-25.54 1415.87,-24.69 1423.6,-31.94 1426.43,-25.54"/>
</g>
<!-- &#45;2&#45;&gt;5 -->
<g id="edge134" class="edge">
<title>&#45;2&#45;&gt;5</title>
<path fill="none" stroke="red" stroke-width="0.28" d="M1205.02,-245.1C1215.29,-243.33 1229.82,-240.98 1242.64,-239.52 1299.2,-233.11 1714.84,-245.16 1753.64,-203.52 1789,-165.59 1713.99,-70.27 1711.64,-68.53 1632.44,-9.73 1586.76,-62.05 1492.64,-32.53 1489.78,-31.63 1486.85,-30.52 1483.97,-29.31"/>
<polygon fill="red" stroke="red" stroke-width="0.28" points="1485.18,-26.01 1474.63,-24.99 1482.24,-32.36 1485.18,-26.01"/>
</g>
<!-- &#45;2&#45;&gt;6 -->
<g id="edge135" class="edge">
<title>&#45;2&#45;&gt;6</title>
<path fill="none" stroke="green" stroke-width="0.33" d="M1205.02,-245.09C1215.28,-243.31 1229.82,-240.96 1242.64,-239.52 1301.19,-232.95 1731.42,-246.57 1771.64,-203.52 1800.07,-173.09 1746.4,-72.6 1741.64,-68.53 1674.69,-11.22 1629.92,-61.38 1546.64,-32.53 1544.5,-31.79 1542.33,-30.91 1540.18,-29.95"/>
<polygon fill="green" stroke="green" stroke-width="0.33" points="1541.64,-26.77 1531.13,-25.44 1538.52,-33.03 1541.64,-26.77"/>
</g>
<!-- &#45;2&#45;&gt;7 -->
<g id="edge136" class="edge">
<title>&#45;2&#45;&gt;7</title>
<path fill="none" stroke="green" stroke-width="0.15" d="M1205.02,-245.09C1215.28,-243.3 1229.82,-240.95 1242.64,-239.52 1303.18,-232.8 1748.01,-247.98 1789.64,-203.52 1813.87,-177.65 1773.6,-75.44 1766.64,-68.53 1720.96,-23.1 1640.17,-16.5 1598.37,-16.37"/>
<polygon fill="green" stroke="green" stroke-width="0.15" points="1598.11,-12.87 1588.15,-16.47 1598.18,-19.87 1598.11,-12.87"/>
</g>
<!-- &#45;2&#45;&gt;298 -->
<g id="edge11" class="edge">
<title>&#45;2&#45;&gt;298</title>
<path fill="none" stroke="red" stroke-width="0.15" d="M1197.18,-239.28C1211.7,-217.68 1251.42,-158.59 1275.43,-122.86"/>
<polygon fill="red" stroke="red" stroke-width="0.15" points="1278.5,-124.57 1281.17,-114.31 1272.69,-120.66 1278.5,-124.57"/>
</g>
<!-- &#45;2&#45;&gt;299 -->
<g id="edge12" class="edge">
<title>&#45;2&#45;&gt;299</title>
<path fill="none" stroke="green" stroke-width="0.16" d="M1205.04,-245.21C1215.31,-243.49 1229.84,-241.16 1242.64,-239.52 1282.52,-234.41 1575.67,-233.33 1602.64,-203.52 1622.81,-181.23 1608.46,-146.5 1593.68,-122.2"/>
<polygon fill="green" stroke="green" stroke-width="0.16" points="1596.62,-120.3 1588.28,-113.76 1590.72,-124.07 1596.62,-120.3"/>
</g>
<!-- &#45;2&#45;&gt;300 -->
<g id="edge13" class="edge">
<title>&#45;2&#45;&gt;300</title>
<path fill="none" stroke="red" stroke-width="0.27" d="M1205.03,-245.12C1215.29,-243.36 1229.82,-241.01 1242.64,-239.52 1295.11,-233.42 1680.74,-242.26 1716.64,-203.52 1731.6,-187.39 1726.26,-173.81 1716.64,-154.02 1707.3,-134.79 1688.43,-119.9 1671.83,-109.8"/>
<polygon fill="red" stroke="red" stroke-width="0.27" points="1673.34,-106.63 1662.92,-104.68 1669.85,-112.7 1673.34,-106.63"/>
</g>
<!-- &#45;2&#45;&gt;301 -->
<g id="edge14" class="edge">
<title>&#45;2&#45;&gt;301</title>
<path fill="none" stroke="green" stroke-width="0.32" d="M1178.62,-246.74C1095.49,-241.72 642.25,-213.91 632.64,-203.52 559.92,-124.85 785.64,-102.01 875.46,-96.12"/>
<polygon fill="green" stroke="green" stroke-width="0.32" points="875.95,-99.6 885.71,-95.48 875.51,-92.61 875.95,-99.6"/>
</g>
<!-- &#45;2&#45;&gt;302 -->
<g id="edge15" class="edge">
<title>&#45;2&#45;&gt;302</title>
<path fill="none" stroke="green" stroke-width="0.62" d="M1178.55,-246.64C1151.19,-244.19 1087.05,-235.22 1045.64,-203.52 1019.65,-183.62 1001.13,-150.7 990.05,-126.2"/>
<polygon fill="green" stroke="green" stroke-width="0.62" points="993.22,-124.71 986.03,-116.93 986.8,-127.5 993.22,-124.71"/>
</g>
<!-- &#45;2&#45;&gt;303 -->
<g id="edge16" class="edge">
<title>&#45;2&#45;&gt;303</title>
<path fill="none" stroke="green" stroke-width="0.16" d="M1178.61,-246.63C1153.92,-244.23 1100.23,-235.41 1071.64,-203.52 1053.24,-182.99 1046.92,-151.9 1044.96,-128.13"/>
<polygon fill="green" stroke="green" stroke-width="0.16" points="1048.45,-127.88 1044.35,-118.11 1041.46,-128.31 1048.45,-127.88"/>
</g>
<!-- &#45;2&#45;&gt;304 -->
<g id="edge17" class="edge">
<title>&#45;2&#45;&gt;304</title>
<path fill="none" stroke="green" stroke-width="0.33" d="M1178.46,-246.66C1154.72,-244.31 1105.22,-235.61 1083.64,-203.52 1071.37,-185.27 1072.58,-173.04 1083.64,-154.02 1098.93,-127.73 1130.6,-112.05 1155.17,-103.4"/>
<polygon fill="green" stroke="green" stroke-width="0.33" points="1156.46,-106.66 1164.87,-100.22 1154.27,-100.01 1156.46,-106.66"/>
</g>
<!-- &#45;2&#45;&gt;305 -->
<g id="edge18" class="edge">
<title>&#45;2&#45;&gt;305</title>
<path fill="none" stroke="green" stroke-width="0.18" d="M1202.59,-239.5C1234.13,-216.37 1325.99,-149.01 1372.69,-114.77"/>
<polygon fill="green" stroke="green" stroke-width="0.18" points="1374.86,-117.52 1380.86,-108.78 1370.72,-111.87 1374.86,-117.52"/>
</g>
<!-- &#45;2&#45;&gt;306 -->
<g id="edge19" class="edge">
<title>&#45;2&#45;&gt;306</title>
<path fill="none" stroke="green" stroke-width="0.4" d="M1204.88,-245.22C1251.28,-237.09 1404.2,-209.95 1412.64,-203.52 1437.15,-184.87 1451.54,-152.3 1459.41,-127.55"/>
<polygon fill="green" stroke="green" stroke-width="0.4" points="1462.81,-128.41 1462.3,-117.83 1456.1,-126.42 1462.81,-128.41"/>
</g>
<!-- &#45;2&#45;&gt;307 -->
<g id="edge20" class="edge">
<title>&#45;2&#45;&gt;307</title>
<path fill="none" stroke="green" stroke-width="0.34" d="M1182.86,-239.48C1173.04,-230.49 1156.69,-215.53 1142.82,-202.82"/>
<polygon fill="green" stroke="green" stroke-width="0.34" points="1145.17,-200.23 1135.43,-196.05 1140.44,-205.39 1145.17,-200.23"/>
</g>
<!-- &#45;3 -->
<g id="node3" class="node">
<title>&#45;3</title>
<polygon fill="lightgray" stroke="black" points="1601.64,-257.52 1575.64,-257.52 1575.64,-239.52 1601.64,-239.52 1601.64,-257.52"/>
<text text-anchor="middle" x="1588.64" y="-246.32" font-family="Times-Roman" font-size="9.00">&#45;3</text>
</g>
<!-- &#45;3&#45;&gt;0 -->
<g id="edge137" class="edge">
<title>&#45;3&#45;&gt;0</title>
<path fill="none" stroke="red" stroke-width="0.11" d="M1575.49,-247.26C1477.55,-245.23 864.99,-231.46 838.64,-203.52 821.92,-185.79 837.99,-83.49 849.64,-68.53 874.73,-36.3 923.03,-24.29 953.17,-19.85"/>
<polygon fill="red" stroke="red" stroke-width="0.11" points="953.91,-23.28 963.38,-18.53 953.01,-16.34 953.91,-23.28"/>
</g>
<!-- &#45;3&#45;&gt;1 -->
<g id="edge138" class="edge">
<title>&#45;3&#45;&gt;1</title>
<path fill="none" stroke="red" stroke-width="0.36" d="M1575.6,-247.17C1481.05,-244.6 903.63,-227.92 876.64,-203.52 831.9,-163.07 825.6,-116.13 862.64,-68.53 902.63,-17.14 944.21,-56.76 1004.64,-32.53 1006.08,-31.95 1007.53,-31.31 1008.99,-30.63"/>
<polygon fill="red" stroke="red" stroke-width="0.36" points="1011.03,-33.51 1018.26,-25.76 1007.78,-27.31 1011.03,-33.51"/>
</g>
<!-- &#45;3&#45;&gt;2 -->
<g id="edge139" class="edge">
<title>&#45;3&#45;&gt;2</title>
<path fill="none" stroke="green" stroke-width="0.26" d="M1575.64,-247.27C1489.38,-245.49 1001.48,-234.16 943.64,-203.52 884.45,-172.17 834.18,-120.33 876.64,-68.53 928.37,-5.43 980.17,-60.96 1056.64,-32.53 1058.09,-31.99 1059.56,-31.38 1061.02,-30.72"/>
<polygon fill="green" stroke="green" stroke-width="0.26" points="1063.04,-33.61 1070.32,-25.9 1059.83,-27.39 1063.04,-33.61"/>
</g>
<!-- &#45;3&#45;&gt;3 -->
<g id="edge140" class="edge">
<title>&#45;3&#45;&gt;3</title>
<path fill="none" stroke="red" stroke-width="0.4" d="M1601.75,-247.57C1684.53,-247.77 2132.5,-246.81 2172.64,-203.52 2187.6,-187.39 2187.12,-170.59 2172.64,-154.02 2133.39,-109.11 1965.41,-128.25 1906.64,-118.02 1802.77,-99.94 1778.81,-84.79 1674.64,-68.53 1489.63,-39.64 1264.4,-23.73 1188.25,-18.88"/>
<polygon fill="red" stroke="red" stroke-width="0.4" points="1188.32,-15.38 1178.12,-18.24 1187.88,-22.36 1188.32,-15.38"/>
</g>
<!-- &#45;3&#45;&gt;4 -->
<g id="edge141" class="edge">
<title>&#45;3&#45;&gt;4</title>
<path fill="none" stroke="green" stroke-width="0.29" d="M1601.86,-247.24C1698.94,-245.12 2298.83,-230.92 2324.64,-203.52 2339.73,-187.51 2339.12,-170.59 2324.64,-154.02 2285.39,-109.11 2117.29,-128.91 2058.64,-118.02 1964.79,-100.6 1943.89,-83.7 1849.64,-68.53 1667.3,-39.17 1614.4,-79 1435.64,-32.53 1432.16,-31.62 1428.58,-30.39 1425.11,-29.01"/>
<polygon fill="green" stroke="green" stroke-width="0.29" points="1426.38,-25.74 1415.81,-24.91 1423.55,-32.15 1426.38,-25.74"/>
</g>
<!-- &#45;3&#45;&gt;5 -->
<g id="edge142" class="edge">
<title>&#45;3&#45;&gt;5</title>
<path fill="none" stroke="green" stroke-width="0.13" d="M1601.83,-247.35C1707.14,-245.92 2408.53,-235.23 2438.64,-203.52 2453.79,-187.57 2452.71,-170.94 2438.64,-154.02 2410.61,-120.31 2287.42,-127.67 2244.64,-118.02 2161.19,-99.21 2143.07,-82.31 2058.64,-68.53 1809.87,-27.92 1736.6,-95.94 1492.64,-32.53 1489.74,-31.77 1486.78,-30.75 1483.89,-29.59"/>
<polygon fill="green" stroke="green" stroke-width="0.13" points="1485.09,-26.29 1474.54,-25.31 1482.18,-32.66 1485.09,-26.29"/>
</g>
<!-- &#45;3&#45;&gt;6 -->
<g id="edge143" class="edge">
<title>&#45;3&#45;&gt;6</title>
<path fill="none" stroke="green" stroke-width="0.35" d="M1601.94,-247.41C1712.88,-246.39 2481.67,-238.1 2514.64,-203.52 2529.83,-187.6 2527.6,-171.8 2514.64,-154.02 2478.07,-103.85 2309.72,-79.71 2248.64,-68.53 1941.34,-12.25 1847.91,-115.21 1546.64,-32.53 1544.46,-31.93 1542.25,-31.15 1540.08,-30.25"/>
<polygon fill="green" stroke="green" stroke-width="0.35" points="1541.53,-27.06 1531,-25.84 1538.47,-33.36 1541.53,-27.06"/>
</g>
<!-- &#45;3&#45;&gt;7 -->
<g id="edge144" class="edge">
<title>&#45;3&#45;&gt;7</title>
<path fill="none" stroke="red" stroke-width="0.22" d="M1601.76,-247.43C1714.6,-246.62 2518.21,-239.56 2552.64,-203.52 2607.97,-145.62 2488.55,-74.29 2476.64,-68.53 2395.77,-29.43 1739.3,-19.29 1598.27,-17.56"/>
<polygon fill="red" stroke="red" stroke-width="0.22" points="1598,-14.06 1587.96,-17.44 1597.92,-21.06 1598,-14.06"/>
</g>
<!-- &#45;3&#45;&gt;298 -->
<g id="edge21" class="edge">
<title>&#45;3&#45;&gt;298</title>
<path fill="none" stroke="green" stroke-width="0.33" d="M1575.63,-240.74C1531.87,-217.93 1389.21,-143.57 1325.67,-110.45"/>
<polygon fill="green" stroke="green" stroke-width="0.33" points="1327.01,-107.2 1316.53,-105.68 1323.78,-113.41 1327.01,-107.2"/>
</g>
<!-- &#45;3&#45;&gt;299 -->
<g id="edge22" class="edge">
<title>&#45;3&#45;&gt;299</title>
<path fill="none" stroke="red" stroke-width="0.21" d="M1601.66,-247.5C1681.01,-247.25 2097.32,-243.97 2134.64,-203.52 2149.56,-187.35 2149.66,-170.1 2134.64,-154.02 2094.5,-111.05 1661.96,-137.96 1606.64,-118.02 1604.75,-117.34 1602.87,-116.52 1601.02,-115.59"/>
<polygon fill="red" stroke="red" stroke-width="0.21" points="1602.54,-112.42 1592.16,-110.29 1598.95,-118.43 1602.54,-112.42"/>
</g>
<!-- &#45;3&#45;&gt;300 -->
<g id="edge23" class="edge">
<title>&#45;3&#45;&gt;300</title>
<path fill="none" stroke="red" stroke-width="0.23" d="M1601.85,-247.54C1683.28,-247.51 2114.93,-245.36 2153.64,-203.52 2168.58,-187.37 2168.27,-170.46 2153.64,-154.02 2145.64,-145.03 1789.83,-109.06 1675.57,-97.72"/>
<polygon fill="red" stroke="red" stroke-width="0.23" points="1675.59,-94.2 1665.29,-96.7 1674.9,-101.17 1675.59,-94.2"/>
</g>
<!-- &#45;3&#45;&gt;301 -->
<g id="edge24" class="edge">
<title>&#45;3&#45;&gt;301</title>
<path fill="none" stroke="green" stroke-width="0.47" d="M1575.5,-247.15C1493.45,-244.78 1053.36,-230.84 1000.64,-203.52 967.27,-186.22 941.65,-150.59 926.43,-124.71"/>
<polygon fill="green" stroke="green" stroke-width="0.47" points="929.47,-122.98 921.48,-116.01 923.38,-126.44 929.47,-122.98"/>
</g>
<!-- &#45;3&#45;&gt;302 -->
<g id="edge25" class="edge">
<title>&#45;3&#45;&gt;302</title>
<path fill="none" stroke="green" stroke-width="0.39" d="M1575.56,-247.14C1497.62,-244.74 1096.29,-231.15 1049.64,-203.52 1020.36,-186.17 1000.69,-151.7 989.41,-126.1"/>
<polygon fill="green" stroke="green" stroke-width="0.39" points="992.59,-124.64 985.49,-116.77 986.14,-127.35 992.59,-124.64"/>
</g>
<!-- &#45;3&#45;&gt;303 -->
<g id="edge26" class="edge">
<title>&#45;3&#45;&gt;303</title>
<path fill="none" stroke="red" stroke-width="0.34" d="M1575.31,-247.21C1499.41,-245.32 1123.7,-234.44 1083.64,-203.52 1060.63,-185.75 1051.17,-153.28 1047.29,-128.34"/>
<polygon fill="red" stroke="red" stroke-width="0.34" points="1050.73,-127.63 1045.95,-118.18 1043.79,-128.55 1050.73,-127.63"/>
</g>
<!-- &#45;3&#45;&gt;304 -->
<g id="edge27" class="edge">
<title>&#45;3&#45;&gt;304</title>
<path fill="none" stroke="green" stroke-width="0.19" d="M1575.4,-245.26C1545.45,-239.92 1470.45,-225.34 1410.64,-203.52 1339.17,-177.45 1260.34,-135.16 1218.54,-111.58"/>
<polygon fill="green" stroke="green" stroke-width="0.19" points="1220.13,-108.46 1209.71,-106.56 1216.67,-114.55 1220.13,-108.46"/>
</g>
<!-- &#45;3&#45;&gt;305 -->
<g id="edge28" class="edge">
<title>&#45;3&#45;&gt;305</title>
<path fill="none" stroke="green" stroke-width="0.4" d="M1585.28,-239.29C1577.56,-221.34 1556.85,-178.31 1526.64,-154.02 1492.1,-126.25 1472.61,-139.14 1433.64,-118.02 1431.87,-117.07 1430.09,-116.03 1428.32,-114.94"/>
<polygon fill="green" stroke="green" stroke-width="0.4" points="1429.92,-111.8 1419.65,-109.2 1426.06,-117.64 1429.92,-111.8"/>
</g>
<!-- &#45;3&#45;&gt;306 -->
<g id="edge29" class="edge">
<title>&#45;3&#45;&gt;306</title>
<path fill="none" stroke="red" stroke-width="0.39" d="M1601.92,-246.76C1643.28,-244.07 1768.41,-233.55 1792.64,-203.52 1806.46,-186.4 1807.06,-170.64 1792.64,-154.02 1755.42,-111.13 1594.94,-130.97 1539.64,-118.02 1526.63,-114.98 1512.61,-110.61 1500.43,-106.45"/>
<polygon fill="red" stroke="red" stroke-width="0.39" points="1501.29,-103.04 1490.69,-103.04 1498.97,-109.65 1501.29,-103.04"/>
</g>
<!-- &#45;3&#45;&gt;307 -->
<g id="edge30" class="edge">
<title>&#45;3&#45;&gt;307</title>
<path fill="none" stroke="red" stroke-width="0.16" d="M1575.58,-246.95C1525.64,-244.6 1342.21,-234.23 1194.64,-203.52 1179.91,-200.46 1163.96,-195.77 1150.42,-191.37"/>
<polygon fill="red" stroke="red" stroke-width="0.16" points="1151.19,-187.94 1140.6,-188.1 1148.97,-194.58 1151.19,-187.94"/>
</g>
<!-- &#45;4 -->
<g id="node4" class="node">
<title>&#45;4</title>
<polygon fill="lightgray" stroke="black" points="1277.64,-257.52 1251.64,-257.52 1251.64,-239.52 1277.64,-239.52 1277.64,-257.52"/>
<text text-anchor="middle" x="1264.64" y="-246.32" font-family="Times-Roman" font-size="9.00">&#45;4</text>
</g>
<!-- &#45;4&#45;&gt;0 -->
<g id="edge145" class="edge">
<title>&#45;4&#45;&gt;0</title>
<path fill="none" stroke="green" stroke-width="0.14" d="M1251.28,-244.98C1241.02,-243.13 1226.49,-240.76 1213.64,-239.52 1158.36,-234.21 260.66,-234.62 214.64,-203.52 180.19,-180.24 185.28,-158.7 176.64,-118.02 172.08,-96.5 161.59,-84.57 176.64,-68.53 203.81,-39.57 816.09,-21.61 952.76,-17.96"/>
<polygon fill="green" stroke="green" stroke-width="0.14" points="953.23,-21.45 963.13,-17.68 953.04,-14.45 953.23,-21.45"/>
</g>
<!-- &#45;4&#45;&gt;1 -->
<g id="edge146" class="edge">
<title>&#45;4&#45;&gt;1</title>
<path fill="none" stroke="red" stroke-width="0.44" d="M1251.27,-245C1241.02,-243.17 1226.49,-240.8 1213.64,-239.52 1166.78,-234.87 399.23,-237.52 366.64,-203.52 332.96,-168.38 400.58,-71.35 404.64,-68.53 514.41,7.58 876.54,-70.37 1004.64,-32.53 1006.31,-32.03 1007.99,-31.42 1009.65,-30.73"/>
<polygon fill="red" stroke="red" stroke-width="0.44" points="1011.38,-33.78 1018.72,-26.14 1008.22,-27.53 1011.38,-33.78"/>
</g>
<!-- &#45;4&#45;&gt;2 -->
<g id="edge147" class="edge">
<title>&#45;4&#45;&gt;2</title>
<path fill="none" stroke="red" stroke-width="0.17" d="M1251.26,-245.16C1240.99,-243.41 1226.46,-241.07 1213.64,-239.52 1167.15,-233.89 825.32,-238.03 793.64,-203.52 767.76,-175.32 813.98,-73.43 819.64,-68.53 900.22,1.18 955.94,-67.32 1056.64,-32.53 1058.11,-32.02 1059.58,-31.44 1061.05,-30.8"/>
<polygon fill="red" stroke="red" stroke-width="0.17" points="1063.05,-33.7 1070.36,-26.04 1059.87,-27.47 1063.05,-33.7"/>
</g>
<!-- &#45;4&#45;&gt;3 -->
<g id="edge148" class="edge">
<title>&#45;4&#45;&gt;3</title>
<path fill="none" stroke="green" stroke-width="0.14" d="M1251.26,-245.17C1240.99,-243.43 1226.45,-241.1 1213.64,-239.52 1168.91,-234.03 840.06,-236.77 809.64,-203.52 760.86,-150.2 872.49,-70.96 876.64,-68.53 966.67,-15.77 1006.75,-55.01 1108.64,-32.53 1117.92,-30.48 1127.96,-27.73 1136.79,-25.12"/>
<polygon fill="green" stroke="green" stroke-width="0.14" points="1137.91,-28.44 1146.47,-22.19 1135.88,-21.74 1137.91,-28.44"/>
</g>
<!-- &#45;4&#45;&gt;4 -->
<g id="edge149" class="edge">
<title>&#45;4&#45;&gt;4</title>
<path fill="none" stroke="red" stroke-width="0.34" d="M1277.78,-246.72C1356.15,-241.66 1760.79,-211.17 1830.64,-118.02 1843.84,-100.42 1845.48,-84.77 1830.64,-68.53 1771.21,-3.43 1520.9,-54.88 1435.64,-32.53 1432.16,-31.61 1428.58,-30.37 1425.11,-29"/>
<polygon fill="red" stroke="red" stroke-width="0.34" points="1426.38,-25.73 1415.82,-24.89 1423.55,-32.13 1426.38,-25.73"/>
</g>
<!-- &#45;4&#45;&gt;5 -->
<g id="edge150" class="edge">
<title>&#45;4&#45;&gt;5</title>
<path fill="none" stroke="red" stroke-width="0.33" d="M1277.71,-247.47C1367.79,-246.84 1895.61,-237.97 1982.64,-118.02 1995.56,-100.22 1997.62,-84.64 1982.64,-68.53 1945.48,-28.54 1545.41,-46.52 1492.64,-32.53 1489.74,-31.76 1486.79,-30.73 1483.9,-29.57"/>
<polygon fill="red" stroke="red" stroke-width="0.33" points="1485.1,-26.26 1474.55,-25.28 1482.18,-32.63 1485.1,-26.26"/>
</g>
<!-- &#45;4&#45;&gt;6 -->
<g id="edge151" class="edge">
<title>&#45;4&#45;&gt;6</title>
<path fill="none" stroke="red" stroke-width="0.48" d="M1277.71,-247.46C1342.94,-246.95 1639.74,-242.52 1878.64,-203.52 2029.02,-178.98 2117.3,-238.45 2210.64,-118.02 2224.12,-100.64 2225.77,-84.5 2210.64,-68.53 2159.83,-14.89 1617.87,-52.19 1546.64,-32.53 1544.46,-31.92 1542.25,-31.14 1540.09,-30.24"/>
<polygon fill="red" stroke="red" stroke-width="0.48" points="1541.53,-27.06 1531.01,-25.83 1538.47,-33.35 1541.53,-27.06"/>
</g>
<!-- &#45;4&#45;&gt;7 -->
<g id="edge152" class="edge">
<title>&#45;4&#45;&gt;7</title>
<path fill="none" stroke="red" stroke-width="0.13" d="M1277.7,-247.28C1366.78,-245.53 1885.94,-234.17 2040.64,-203.52 2154.19,-181.03 2219.56,-212.35 2286.64,-118.02 2299.39,-100.1 2301.63,-84.63 2286.64,-68.53 2238.9,-17.24 1721.84,-16.52 1598.12,-17.08"/>
<polygon fill="red" stroke="red" stroke-width="0.13" points="1598,-13.58 1588.02,-17.14 1598.04,-20.58 1598,-13.58"/>
</g>
<!-- &#45;4&#45;&gt;298 -->
<g id="edge31" class="edge">
<title>&#45;4&#45;&gt;298</title>
<path fill="none" stroke="green" stroke-width="0.44" d="M1273.61,-239.46C1281.92,-231.33 1293.72,-217.96 1298.64,-203.52 1307.01,-179.02 1305.32,-149.62 1301.92,-127.49"/>
<polygon fill="green" stroke="green" stroke-width="0.44" points="1305.36,-126.83 1300.21,-117.57 1298.46,-128.02 1305.36,-126.83"/>
</g>
<!-- &#45;4&#45;&gt;299 -->
<g id="edge32" class="edge">
<title>&#45;4&#45;&gt;299</title>
<path fill="none" stroke="red" stroke-width="0.84" d="M1278,-245.92C1307.43,-242.01 1379.55,-230.23 1433.64,-203.52 1478.68,-181.28 1523.09,-143.11 1549.44,-118.28"/>
<polygon fill="red" stroke="red" stroke-width="0.84" points="1551.88,-120.79 1556.7,-111.35 1547.05,-115.73 1551.88,-120.79"/>
</g>
<!-- &#45;4&#45;&gt;300 -->
<g id="edge33" class="edge">
<title>&#45;4&#45;&gt;300</title>
<path fill="none" stroke="green" stroke-width="0.12" d="M1277.77,-246.73C1312.63,-244.24 1409.91,-234.78 1483.64,-203.52 1534.5,-181.96 1585.56,-142.29 1615.08,-117.15"/>
<polygon fill="green" stroke="green" stroke-width="0.12" points="1617.54,-119.65 1622.82,-110.47 1612.96,-114.35 1617.54,-119.65"/>
</g>
<!-- &#45;4&#45;&gt;301 -->
<g id="edge34" class="edge">
<title>&#45;4&#45;&gt;301</title>
<path fill="none" stroke="red" stroke-width="0.26" d="M1251.25,-245.18C1240.99,-243.45 1226.45,-241.11 1213.64,-239.52 1170.35,-234.14 852.04,-235.75 822.64,-203.52 807.82,-187.27 812.35,-173.46 822.64,-154.02 834.36,-131.91 858.34,-116.46 878.31,-106.82"/>
<polygon fill="red" stroke="red" stroke-width="0.26" points="879.77,-110 887.43,-102.68 876.88,-103.63 879.77,-110"/>
</g>
<!-- &#45;4&#45;&gt;302 -->
<g id="edge35" class="edge">
<title>&#45;4&#45;&gt;302</title>
<path fill="none" stroke="green" stroke-width="0.43" d="M1251.22,-245.39C1240.94,-243.77 1226.4,-241.48 1213.64,-239.52 1160.56,-231.36 1009.68,-244.23 974.64,-203.52 956.77,-182.76 960.01,-150.67 966.24,-126.63"/>
<polygon fill="green" stroke="green" stroke-width="0.43" points="969.64,-127.46 969.03,-116.88 962.91,-125.53 969.64,-127.46"/>
</g>
<!-- &#45;4&#45;&gt;303 -->
<g id="edge36" class="edge">
<title>&#45;4&#45;&gt;303</title>
<path fill="none" stroke="green" stroke-width="0.18" d="M1251.41,-245.26C1205.77,-237.39 1057.35,-211.3 1050.64,-203.52 1032.93,-182.97 1033.11,-151.33 1036.74,-127.39"/>
<polygon fill="green" stroke="green" stroke-width="0.18" points="1040.23,-127.78 1038.53,-117.32 1033.33,-126.55 1040.23,-127.78"/>
</g>
<!-- &#45;4&#45;&gt;304 -->
<g id="edge37" class="edge">
<title>&#45;4&#45;&gt;304</title>
<path fill="none" stroke="red" stroke-width="0.59" d="M1251.6,-243.49C1235.1,-237.64 1207.32,-225.04 1194.64,-203.52 1181.27,-180.81 1180.63,-150.63 1182.85,-127.74"/>
<polygon fill="red" stroke="red" stroke-width="0.59" points="1186.33,-128.14 1184.04,-117.79 1179.38,-127.31 1186.33,-128.14"/>
</g>
<!-- &#45;4&#45;&gt;305 -->
<g id="edge38" class="edge">
<title>&#45;4&#45;&gt;305</title>
<path fill="none" stroke="red" stroke-width="0.35" d="M1277.72,-246.16C1300.89,-243.01 1349.11,-233.11 1374.64,-203.52 1392.43,-182.91 1398.55,-152.29 1400.43,-128.71"/>
<polygon fill="red" stroke="red" stroke-width="0.35" points="1403.95,-128.61 1401.03,-118.43 1396.96,-128.21 1403.95,-128.61"/>
</g>
<!-- &#45;4&#45;&gt;306 -->
<g id="edge39" class="edge">
<title>&#45;4&#45;&gt;306</title>
<path fill="none" stroke="red" stroke-width="0.43" d="M1277.94,-246.22C1303.88,-243.08 1362,-233.01 1399.64,-203.52 1425.42,-183.33 1443.96,-150.46 1455.11,-126.04"/>
<polygon fill="red" stroke="red" stroke-width="0.43" points="1458.35,-127.37 1459.16,-116.81 1451.94,-124.56 1458.35,-127.37"/>
</g>
<!-- &#45;4&#45;&gt;307 -->
<g id="edge40" class="edge">
<title>&#45;4&#45;&gt;307</title>
<path fill="none" stroke="red" stroke-width="0.29" d="M1251.38,-242.9C1230.7,-235.52 1189.73,-220.2 1156.64,-203.52 1153.33,-201.85 1149.93,-200 1146.58,-198.09"/>
<polygon fill="red" stroke="red" stroke-width="0.29" points="1148.33,-195.06 1137.94,-192.98 1144.76,-201.08 1148.33,-195.06"/>
</g>
<!-- 298&#45;&gt;0 -->
<g id="edge41" class="edge">
<title>298&#45;&gt;0</title>
<path fill="none" stroke="red" stroke-width="0.27" d="M1271.56,-83.66C1257.56,-78.69 1239.26,-72.63 1222.64,-68.53 1128.15,-45.22 1098.4,-64.97 1006.64,-32.53 1005.18,-32.01 1003.71,-31.42 1002.25,-30.77"/>
<polygon fill="red" stroke="red" stroke-width="0.27" points="1003.43,-27.45 992.94,-26 1000.24,-33.68 1003.43,-27.45"/>
</g>
<!-- 298&#45;&gt;1 -->
<g id="edge42" class="edge">
<title>298&#45;&gt;1</title>
<path fill="none" stroke="green" stroke-width="0.55" stroke-dasharray="1,5" d="M1271.48,-83.96C1257.46,-79.1 1239.15,-73.05 1222.64,-68.53 1150.67,-48.81 1128.34,-59.19 1058.64,-32.53 1057.2,-31.97 1055.74,-31.35 1054.28,-30.69"/>
<polygon fill="green" stroke="green" stroke-width="0.55" points="1055.48,-27.36 1044.99,-25.85 1052.25,-33.57 1055.48,-27.36"/>
</g>
<!-- 298&#45;&gt;2 -->
<g id="edge43" class="edge">
<title>298&#45;&gt;2</title>
<path fill="none" stroke="red" stroke-width="0.17" d="M1271.26,-83.96C1231.1,-69.68 1149.39,-40.64 1108.35,-26.05"/>
<polygon fill="red" stroke="red" stroke-width="0.17" points="1109.43,-22.72 1098.84,-22.66 1107.09,-29.31 1109.43,-22.72"/>
</g>
<!-- 298&#45;&gt;3 -->
<g id="edge44" class="edge">
<title>298&#45;&gt;3</title>
<path fill="none" stroke="green" stroke-width="0.3" d="M1273.27,-80.22C1248.92,-66.49 1209.28,-44.13 1184.38,-30.09"/>
<polygon fill="green" stroke="green" stroke-width="0.3" points="1186.05,-27.01 1175.62,-25.14 1182.61,-33.1 1186.05,-27.01"/>
</g>
<!-- 298&#45;&gt;4 -->
<g id="edge45" class="edge">
<title>298&#45;&gt;4</title>
<path fill="none" stroke="green" stroke-width="0.36" d="M1314.52,-78.34C1333.2,-65.25 1361.07,-45.71 1380.23,-32.27"/>
<polygon fill="green" stroke="green" stroke-width="0.36" points="1382.43,-35.01 1388.61,-26.4 1378.41,-29.27 1382.43,-35.01"/>
</g>
<!-- 298&#45;&gt;5 -->
<g id="edge46" class="edge">
<title>298&#45;&gt;5</title>
<path fill="none" stroke="red" stroke-width="0.37" d="M1314.9,-79C1320.82,-75.38 1327.39,-71.61 1333.64,-68.53 1373.39,-48.92 1385.75,-49.61 1426.64,-32.53 1429.97,-31.14 1433.46,-29.63 1436.88,-28.12"/>
<polygon fill="red" stroke="red" stroke-width="0.37" points="1438.46,-31.25 1446.16,-23.97 1435.6,-24.86 1438.46,-31.25"/>
</g>
<!-- 298&#45;&gt;6 -->
<g id="edge47" class="edge">
<title>298&#45;&gt;6</title>
<path fill="none" stroke="green" stroke-width="0.2" d="M1317.94,-84.43C1332.02,-79.73 1350.33,-73.68 1366.64,-68.53 1419.33,-51.87 1434.11,-52.48 1485.64,-32.53 1488.44,-31.44 1491.33,-30.22 1494.18,-28.95"/>
<polygon fill="green" stroke="green" stroke-width="0.2" points="1495.94,-31.99 1503.51,-24.57 1492.97,-25.65 1495.94,-31.99"/>
</g>
<!-- 298&#45;&gt;7 -->
<g id="edge48" class="edge">
<title>298&#45;&gt;7</title>
<path fill="none" stroke="green" stroke-width="0.29" d="M1317.78,-83.88C1331.8,-78.98 1350.11,-72.93 1366.64,-68.53 1443.8,-47.99 1467.46,-59.39 1542.64,-32.53 1544.78,-31.76 1546.95,-30.87 1549.09,-29.9"/>
<polygon fill="green" stroke="green" stroke-width="0.29" points="1550.76,-32.99 1558.14,-25.39 1547.63,-26.72 1550.76,-32.99"/>
</g>
<!-- 299&#45;&gt;0 -->
<g id="edge49" class="edge">
<title>299&#45;&gt;0</title>
<path fill="none" stroke="red" stroke-width="0.29" d="M1551.01,-83.22C1537.01,-78.02 1518.56,-71.88 1501.64,-68.53 1285.27,-25.66 1217.79,-96.35 1006.64,-32.53 1005.16,-32.08 1003.67,-31.54 1002.2,-30.93"/>
<polygon fill="red" stroke="red" stroke-width="0.29" points="1003.36,-27.6 992.85,-26.27 1000.23,-33.87 1003.36,-27.6"/>
</g>
<!-- 299&#45;&gt;1 -->
<g id="edge50" class="edge">
<title>299&#45;&gt;1</title>
<path fill="none" stroke="green" stroke-width="0.15" d="M1551,-83.27C1537,-78.09 1518.54,-71.95 1501.64,-68.53 1308.04,-29.31 1247.49,-90.49 1058.64,-32.53 1057.16,-32.07 1055.68,-31.53 1054.2,-30.92"/>
<polygon fill="green" stroke="green" stroke-width="0.15" points="1055.37,-27.59 1044.86,-26.24 1052.23,-33.85 1055.37,-27.59"/>
</g>
<!-- 299&#45;&gt;2 -->
<g id="edge51" class="edge">
<title>299&#45;&gt;2</title>
<path fill="none" stroke="green" stroke-width="0.31" d="M1550.65,-83.25C1536.69,-78.14 1518.38,-72.07 1501.64,-68.53 1342.16,-34.79 1296.74,-63.21 1136.64,-32.53 1127.32,-30.74 1117.26,-28.05 1108.44,-25.42"/>
<polygon fill="green" stroke="green" stroke-width="0.31" points="1109.36,-22.04 1098.77,-22.42 1107.29,-28.72 1109.36,-22.04"/>
</g>
<!-- 299&#45;&gt;3 -->
<g id="edge52" class="edge">
<title>299&#45;&gt;3</title>
<path fill="none" stroke="green" stroke-width="0.44" d="M1550.58,-83.56C1536.59,-78.56 1518.29,-72.5 1501.64,-68.53 1386.27,-41.01 1245.17,-25.33 1187.78,-19.68"/>
<polygon fill="green" stroke="green" stroke-width="0.44" points="1188.05,-16.19 1177.76,-18.72 1187.38,-23.16 1188.05,-16.19"/>
</g>
<!-- 299&#45;&gt;4 -->
<g id="edge53" class="edge">
<title>299&#45;&gt;4</title>
<path fill="none" stroke="red" stroke-width="0.42" d="M1553.42,-78.92C1547.5,-75.3 1540.93,-71.55 1534.64,-68.53 1492.44,-48.25 1479.03,-50.13 1435.64,-32.53 1432.3,-31.17 1428.81,-29.69 1425.38,-28.19"/>
<polygon fill="red" stroke="red" stroke-width="0.42" points="1426.66,-24.92 1416.1,-24.04 1423.8,-31.31 1426.66,-24.92"/>
</g>
<!-- 299&#45;&gt;5 -->
<g id="edge54" class="edge">
<title>299&#45;&gt;5</title>
<path fill="none" stroke="red" stroke-width="0.36" d="M1553.44,-78.86C1533.42,-65.58 1502.86,-45.29 1482.34,-31.67"/>
<polygon fill="red" stroke="red" stroke-width="0.36" points="1484.22,-28.71 1473.95,-26.1 1480.35,-34.55 1484.22,-28.71"/>
</g>
<!-- 299&#45;&gt;6 -->
<g id="edge55" class="edge">
<title>299&#45;&gt;6</title>
<path fill="none" stroke="red" stroke-width="0.64" d="M1559.22,-72.96C1551.24,-62.27 1541.32,-48.98 1533.18,-38.07"/>
<polygon fill="red" stroke="red" stroke-width="0.64" points="1535.88,-35.84 1527.09,-29.92 1530.27,-40.03 1535.88,-35.84"/>
</g>
<!-- 299&#45;&gt;7 -->
<g id="edge56" class="edge">
<title>299&#45;&gt;7</title>
<path fill="none" stroke="red" stroke-width="0.36" d="M1573,-68.13C1572.78,-60.03 1572.54,-50.97 1572.32,-42.77"/>
<polygon fill="red" stroke="red" stroke-width="0.36" points="1575.82,-42.54 1572.05,-32.64 1568.82,-42.73 1575.82,-42.54"/>
</g>
<!-- 300&#45;&gt;0 -->
<g id="edge57" class="edge">
<title>300&#45;&gt;0</title>
<path fill="none" stroke="red" stroke-width="0.46" d="M1622.14,-76.23C1617.66,-73.15 1612.7,-70.33 1607.64,-68.53 1355.53,21.17 1263.27,-108.32 1006.64,-32.53 1004.97,-32.03 1003.3,-31.42 1001.64,-30.73"/>
<polygon fill="red" stroke="red" stroke-width="0.46" points="1003.07,-27.53 992.56,-26.14 999.91,-33.78 1003.07,-27.53"/>
</g>
<!-- 300&#45;&gt;1 -->
<g id="edge58" class="edge">
<title>300&#45;&gt;1</title>
<path fill="none" stroke="green" stroke-width="0.56" d="M1622.13,-76.25C1617.65,-73.17 1612.69,-70.34 1607.64,-68.53 1377.5,14.09 1292.96,-102.45 1058.64,-32.53 1057.16,-32.08 1055.67,-31.55 1054.19,-30.95"/>
<polygon fill="green" stroke="green" stroke-width="0.56" points="1055.36,-27.62 1044.84,-26.29 1052.23,-33.88 1055.36,-27.62"/>
</g>
<!-- 300&#45;&gt;2 -->
<g id="edge59" class="edge">
<title>300&#45;&gt;2</title>
<path fill="none" stroke="red" stroke-width="0.17" d="M1622.12,-76.29C1617.64,-73.21 1612.68,-70.37 1607.64,-68.53 1410.43,3.47 1343.26,-69.77 1136.64,-32.53 1127.3,-30.84 1117.24,-28.17 1108.42,-25.53"/>
<polygon fill="red" stroke="red" stroke-width="0.17" points="1109.34,-22.15 1098.76,-22.51 1107.25,-28.83 1109.34,-22.15"/>
</g>
<!-- 300&#45;&gt;3 -->
<g id="edge60" class="edge">
<title>300&#45;&gt;3</title>
<path fill="none" stroke="red" stroke-width="0.21" d="M1622.06,-76.43C1617.59,-73.34 1612.65,-70.46 1607.64,-68.53 1568.39,-53.34 1277.89,-27.29 1188.04,-19.52"/>
<polygon fill="red" stroke="red" stroke-width="0.21" points="1188.14,-16.01 1177.88,-18.64 1187.54,-22.99 1188.14,-16.01"/>
</g>
<!-- 300&#45;&gt;4 -->
<g id="edge61" class="edge">
<title>300&#45;&gt;4</title>
<path fill="none" stroke="green" stroke-width="0.77" d="M1621.92,-76.77C1617.46,-73.66 1612.55,-70.69 1607.64,-68.53 1536.17,-37.03 1509.92,-56.66 1435.64,-32.53 1432.22,-31.41 1428.67,-30.06 1425.22,-28.63"/>
<polygon fill="green" stroke="green" stroke-width="0.77" points="1426.49,-25.36 1415.93,-24.5 1423.65,-31.76 1426.49,-25.36"/>
</g>
<!-- 300&#45;&gt;5 -->
<g id="edge62" class="edge">
<title>300&#45;&gt;5</title>
<path fill="none" stroke="red" stroke-width="0.35" d="M1621.76,-77.12C1617.3,-73.99 1612.44,-70.93 1607.64,-68.53 1559.74,-44.58 1542.49,-52.1 1492.64,-32.53 1489.85,-31.43 1486.96,-30.2 1484.11,-28.92"/>
<polygon fill="red" stroke="red" stroke-width="0.35" points="1485.33,-25.62 1474.79,-24.54 1482.35,-31.96 1485.33,-25.62"/>
</g>
<!-- 300&#45;&gt;6 -->
<g id="edge63" class="edge">
<title>300&#45;&gt;6</title>
<path fill="none" stroke="red" stroke-width="0.19" d="M1620.99,-77.61C1616.65,-74.52 1612.04,-71.35 1607.64,-68.53 1585.35,-54.21 1558.91,-39.4 1540.48,-29.4"/>
<polygon fill="red" stroke="red" stroke-width="0.19" points="1542.1,-26.29 1531.64,-24.63 1538.78,-32.46 1542.1,-26.29"/>
</g>
<!-- 300&#45;&gt;7 -->
<g id="edge64" class="edge">
<title>300&#45;&gt;7</title>
<path fill="none" stroke="green" stroke-width="0.11" d="M1624.29,-74.5C1613.8,-63.09 1600.18,-48.29 1589.42,-36.59"/>
<polygon fill="green" stroke="green" stroke-width="0.11" points="1591.85,-34.06 1582.5,-29.07 1586.7,-38.8 1591.85,-34.06"/>
</g>
<!-- 301&#45;&gt;0 -->
<g id="edge65" class="edge">
<title>301&#45;&gt;0</title>
<path fill="none" stroke="green" stroke-width="0.57" d="M927,-74.5C937.49,-63.09 951.11,-48.29 961.87,-36.59"/>
<polygon fill="green" stroke="green" stroke-width="0.57" points="964.59,-38.8 968.78,-29.07 959.44,-34.06 964.59,-38.8"/>
</g>
<!-- 301&#45;&gt;1 -->
<g id="edge66" class="edge">
<title>301&#45;&gt;1</title>
<path fill="none" stroke="green" stroke-width="0.36" d="M930.32,-77.64C934.66,-74.55 939.26,-71.37 943.64,-68.53 955.58,-60.78 987.31,-42.5 1009.21,-30"/>
<polygon fill="green" stroke="green" stroke-width="0.36" points="1010.96,-33.04 1017.91,-25.05 1007.49,-26.95 1010.96,-33.04"/>
</g>
<!-- 301&#45;&gt;2 -->
<g id="edge67" class="edge">
<title>301&#45;&gt;2</title>
<path fill="none" stroke="green" stroke-width="0.31" d="M929.54,-77.14C934,-74.01 938.85,-70.94 943.64,-68.53 990.73,-44.84 1008.33,-53.61 1056.64,-32.53 1058.2,-31.85 1059.79,-31.1 1061.37,-30.32"/>
<polygon fill="green" stroke="green" stroke-width="0.31" points="1063.03,-33.4 1070.19,-25.59 1059.72,-27.23 1063.03,-33.4"/>
</g>
<!-- 301&#45;&gt;3 -->
<g id="edge68" class="edge">
<title>301&#45;&gt;3</title>
<path fill="none" stroke="green" stroke-width="0.11" d="M929.38,-76.8C933.84,-73.69 938.74,-70.71 943.64,-68.53 1012.2,-37.97 1035.87,-50.92 1108.64,-32.53 1117.72,-30.23 1127.59,-27.47 1136.33,-24.92"/>
<polygon fill="green" stroke="green" stroke-width="0.11" points="1137.35,-28.27 1145.95,-22.08 1135.36,-21.56 1137.35,-28.27"/>
</g>
<!-- 301&#45;&gt;4 -->
<g id="edge69" class="edge">
<title>301&#45;&gt;4</title>
<path fill="none" stroke="red" stroke-width="0.26" d="M929.22,-76.42C933.7,-73.33 938.64,-70.45 943.64,-68.53 984.09,-52.95 1284.21,-27.01 1375.43,-19.42"/>
<polygon fill="red" stroke="red" stroke-width="0.26" points="1375.81,-22.9 1385.48,-18.58 1375.23,-15.92 1375.81,-22.9"/>
</g>
<!-- 301&#45;&gt;5 -->
<g id="edge70" class="edge">
<title>301&#45;&gt;5</title>
<path fill="none" stroke="red" stroke-width="0.19" d="M929.17,-76.28C933.65,-73.2 938.6,-70.36 943.64,-68.53 1145.92,5.1 1217.98,-85.4 1426.64,-32.53 1430.14,-31.64 1433.72,-30.42 1437.19,-29.05"/>
<polygon fill="red" stroke="red" stroke-width="0.19" points="1438.75,-32.19 1446.48,-24.95 1435.92,-25.78 1438.75,-32.19"/>
</g>
<!-- 301&#45;&gt;6 -->
<g id="edge71" class="edge">
<title>301&#45;&gt;6</title>
<path fill="none" stroke="green" stroke-width="0.32" d="M929.16,-76.25C933.64,-73.17 938.6,-70.34 943.64,-68.53 1170.83,13.13 1252.07,-93.59 1485.64,-32.53 1488.55,-31.77 1491.5,-30.74 1494.39,-29.59"/>
<polygon fill="green" stroke="green" stroke-width="0.32" points="1496.11,-32.65 1503.75,-25.3 1493.2,-26.28 1496.11,-32.65"/>
</g>
<!-- 301&#45;&gt;7 -->
<g id="edge72" class="edge">
<title>301&#45;&gt;7</title>
<path fill="none" stroke="green" stroke-width="0.2" d="M929.15,-76.23C933.63,-73.15 938.59,-70.33 943.64,-68.53 1194.91,20.9 1285.76,-104.24 1542.64,-32.53 1544.83,-31.92 1547.03,-31.13 1549.2,-30.23"/>
<polygon fill="green" stroke="green" stroke-width="0.2" points="1550.81,-33.34 1558.28,-25.82 1547.75,-27.04 1550.81,-33.34"/>
</g>
<!-- 302&#45;&gt;0 -->
<g id="edge73" class="edge">
<title>302&#45;&gt;0</title>
<path fill="none" stroke="green" stroke-width="0.33" d="M978.29,-68.13C978.5,-60.03 978.74,-50.97 978.96,-42.77"/>
<polygon fill="green" stroke="green" stroke-width="0.33" points="982.47,-42.73 979.23,-32.64 975.47,-42.54 982.47,-42.73"/>
</g>
<!-- 302&#45;&gt;1 -->
<g id="edge74" class="edge">
<title>302&#45;&gt;1</title>
<path fill="none" stroke="red" stroke-width="0.13" d="M991.83,-72.57C999.35,-62.12 1008.6,-49.28 1016.28,-38.6"/>
<polygon fill="red" stroke="red" stroke-width="0.13" points="1019.3,-40.4 1022.3,-30.24 1013.62,-36.31 1019.3,-40.4"/>
</g>
<!-- 302&#45;&gt;2 -->
<g id="edge75" class="edge">
<title>302&#45;&gt;2</title>
<path fill="none" stroke="red" stroke-width="0.78" d="M997.51,-77.92C1001.83,-74.81 1006.39,-71.55 1010.64,-68.53 1027.99,-56.19 1047.76,-42.32 1062.35,-32.12"/>
<polygon fill="red" stroke="red" stroke-width="0.78" points="1064.5,-34.89 1070.69,-26.29 1060.49,-29.15 1064.5,-34.89"/>
</g>
<!-- 302&#45;&gt;3 -->
<g id="edge76" class="edge">
<title>302&#45;&gt;3</title>
<path fill="none" stroke="green" stroke-width="0.57" d="M996.57,-77.21C1001.03,-74.07 1005.87,-70.98 1010.64,-68.53 1032.93,-57.05 1099.27,-36.15 1136.17,-24.91"/>
<polygon fill="green" stroke="green" stroke-width="0.57" points="1137.61,-28.13 1146.16,-21.88 1135.58,-21.43 1137.61,-28.13"/>
</g>
<!-- 302&#45;&gt;4 -->
<g id="edge77" class="edge">
<title>302&#45;&gt;4</title>
<path fill="none" stroke="red" stroke-width="0.53" d="M996.25,-76.49C1000.72,-73.4 1005.66,-70.5 1010.64,-68.53 1077.53,-42.04 1298.12,-24.49 1374.96,-19.06"/>
<polygon fill="red" stroke="red" stroke-width="0.53" points="1375.49,-22.53 1385.22,-18.34 1375,-15.55 1375.49,-22.53"/>
</g>
<!-- 302&#45;&gt;5 -->
<g id="edge78" class="edge">
<title>302&#45;&gt;5</title>
<path fill="none" stroke="red" stroke-width="0.42" d="M996.18,-76.33C1000.66,-73.24 1005.61,-70.39 1010.64,-68.53 1184.65,-4.01 1247.02,-79.18 1426.64,-32.53 1430.13,-31.62 1433.71,-30.39 1437.18,-29.01"/>
<polygon fill="red" stroke="red" stroke-width="0.42" points="1438.74,-32.15 1446.47,-24.91 1435.91,-25.74 1438.74,-32.15"/>
</g>
<!-- 302&#45;&gt;6 -->
<g id="edge79" class="edge">
<title>302&#45;&gt;6</title>
<path fill="none" stroke="green" stroke-width="0.39" d="M996.17,-76.29C1000.65,-73.2 1005.6,-70.36 1010.64,-68.53 1209.54,4.01 1281.06,-87.03 1485.64,-32.53 1488.54,-31.75 1491.5,-30.72 1494.38,-29.56"/>
<polygon fill="green" stroke="green" stroke-width="0.39" points="1496.1,-32.62 1503.74,-25.27 1493.19,-26.26 1496.1,-32.62"/>
</g>
<!-- 302&#45;&gt;7 -->
<g id="edge80" class="edge">
<title>302&#45;&gt;7</title>
<path fill="none" stroke="green" stroke-width="0.49" d="M996.16,-76.26C1000.64,-73.18 1005.6,-70.34 1010.64,-68.53 1233.61,11.77 1314.63,-97.11 1542.64,-32.53 1544.82,-31.91 1547.03,-31.12 1549.19,-30.21"/>
<polygon fill="green" stroke="green" stroke-width="0.49" points="1550.81,-33.32 1558.27,-25.79 1547.75,-27.02 1550.81,-33.32"/>
</g>
<!-- 303&#45;&gt;0 -->
<g id="edge81" class="edge">
<title>303&#45;&gt;0</title>
<path fill="none" stroke="red" stroke-width="0.61" d="M1028.91,-74.12C1019.23,-62.95 1006.83,-48.64 996.89,-37.16"/>
<polygon fill="red" stroke="red" stroke-width="0.61" points="999.35,-34.66 990.16,-29.4 994.06,-39.25 999.35,-34.66"/>
</g>
<!-- 303&#45;&gt;1 -->
<g id="edge82" class="edge">
<title>303&#45;&gt;1</title>
<path fill="none" stroke="red" stroke-width="0.26" d="M1040.53,-68.54C1039.09,-60.21 1037.46,-50.83 1036,-42.39"/>
<polygon fill="red" stroke="red" stroke-width="0.26" points="1039.41,-41.61 1034.26,-32.35 1032.52,-42.8 1039.41,-41.61"/>
</g>
<!-- 303&#45;&gt;2 -->
<g id="edge83" class="edge">
<title>303&#45;&gt;2</title>
<path fill="none" stroke="red" stroke-width="0.11" d="M1055.71,-70.98C1060.71,-61.37 1066.63,-49.99 1071.73,-40.19"/>
<polygon fill="red" stroke="red" stroke-width="0.11" points="1074.98,-41.52 1076.48,-31.03 1068.77,-38.29 1074.98,-41.52"/>
</g>
<!-- 303&#45;&gt;3 -->
<g id="edge84" class="edge">
<title>303&#45;&gt;3</title>
<path fill="none" stroke="green" stroke-width="0.23" d="M1065.02,-79.21C1085.99,-65.77 1118.53,-44.91 1139.96,-31.16"/>
<polygon fill="green" stroke="green" stroke-width="0.23" points="1141.87,-34.1 1148.4,-25.75 1138.09,-28.21 1141.87,-34.1"/>
</g>
<!-- 303&#45;&gt;4 -->
<g id="edge85" class="edge">
<title>303&#45;&gt;4</title>
<path fill="none" stroke="red" stroke-width="0.29" d="M1068.66,-87.03C1090.94,-82.18 1125.02,-74.8 1154.64,-68.53 1235.19,-51.47 1330.64,-31.82 1375.67,-22.58"/>
<polygon fill="red" stroke="red" stroke-width="0.29" points="1376.65,-25.96 1385.74,-20.52 1375.24,-19.1 1376.65,-25.96"/>
</g>
<!-- 303&#45;&gt;5 -->
<g id="edge86" class="edge">
<title>303&#45;&gt;5</title>
<path fill="none" stroke="red" stroke-width="0.37" d="M1068.57,-86.52C1090.78,-81.33 1124.81,-73.71 1154.64,-68.53 1274.78,-47.64 1309.34,-65.85 1426.64,-32.53 1430.11,-31.54 1433.68,-30.26 1437.14,-28.87"/>
<polygon fill="red" stroke="red" stroke-width="0.37" points="1438.7,-32 1446.43,-24.75 1435.87,-25.6 1438.7,-32"/>
</g>
<!-- 303&#45;&gt;6 -->
<g id="edge87" class="edge">
<title>303&#45;&gt;6</title>
<path fill="none" stroke="red" stroke-width="0.25" d="M1068.54,-86.36C1090.73,-81.05 1124.75,-73.37 1154.64,-68.53 1300.72,-44.88 1343.29,-72.95 1485.64,-32.53 1488.53,-31.71 1491.48,-30.65 1494.36,-29.47"/>
<polygon fill="red" stroke="red" stroke-width="0.25" points="1496.08,-32.52 1503.71,-25.17 1493.16,-26.16 1496.08,-32.52"/>
</g>
<!-- 303&#45;&gt;7 -->
<g id="edge88" class="edge">
<title>303&#45;&gt;7</title>
<path fill="none" stroke="red" stroke-width="0.19" d="M1068.52,-86.25C1090.7,-80.86 1124.71,-73.13 1154.64,-68.53 1325.82,-42.21 1376.62,-81.8 1542.64,-32.53 1544.81,-31.88 1547.01,-31.07 1549.18,-30.16"/>
<polygon fill="red" stroke="red" stroke-width="0.19" points="1550.8,-33.26 1558.25,-25.72 1547.73,-26.97 1550.8,-33.26"/>
</g>
<!-- 304&#45;&gt;0 -->
<g id="edge89" class="edge">
<title>304&#45;&gt;0</title>
<path fill="none" stroke="green" stroke-width="0.58" d="M1164.82,-86.08C1129.51,-76.53 1061.55,-56.78 1006.64,-32.53 1005.09,-31.84 1003.5,-31.09 1001.92,-30.3"/>
<polygon fill="green" stroke="green" stroke-width="0.58" points="1003.57,-27.22 993.11,-25.57 1000.26,-33.38 1003.57,-27.22"/>
</g>
<!-- 304&#45;&gt;1 -->
<g id="edge90" class="edge">
<title>304&#45;&gt;1</title>
<path fill="none" stroke="red" stroke-width="0.25" d="M1165.82,-82.48C1139.65,-71.08 1095.58,-51.41 1058.64,-32.53 1057.13,-31.75 1055.57,-30.93 1054.01,-30.1"/>
<polygon fill="red" stroke="red" stroke-width="0.25" points="1055.7,-27.03 1045.26,-25.25 1052.31,-33.16 1055.7,-27.03"/>
</g>
<!-- 304&#45;&gt;2 -->
<g id="edge91" class="edge">
<title>304&#45;&gt;2</title>
<path fill="none" stroke="red" stroke-width="0.59" d="M1168.89,-78.17C1150.64,-65.12 1123.58,-45.8 1104.87,-32.43"/>
<polygon fill="red" stroke="red" stroke-width="0.59" points="1106.84,-29.54 1096.67,-26.57 1102.78,-35.23 1106.84,-29.54"/>
</g>
<!-- 304&#45;&gt;3 -->
<g id="edge92" class="edge">
<title>304&#45;&gt;3</title>
<path fill="none" stroke="green" stroke-width="0.35" d="M1180.54,-69.77C1177.34,-60.86 1173.65,-50.61 1170.38,-41.54"/>
<polygon fill="green" stroke="green" stroke-width="0.35" points="1173.6,-40.16 1166.92,-31.94 1167.02,-42.53 1173.6,-40.16"/>
</g>
<!-- 304&#45;&gt;4 -->
<g id="edge93" class="edge">
<title>304&#45;&gt;4</title>
<path fill="none" stroke="green" stroke-width="0.28" d="M1208.74,-78.66C1214.66,-75.04 1221.26,-71.35 1227.64,-68.53 1278.27,-46.12 1341.43,-30.31 1376.02,-22.6"/>
<polygon fill="green" stroke="green" stroke-width="0.28" points="1376.77,-26.02 1385.8,-20.48 1375.28,-19.18 1376.77,-26.02"/>
</g>
<!-- 304&#45;&gt;5 -->
<g id="edge94" class="edge">
<title>304&#45;&gt;5</title>
<path fill="none" stroke="green" stroke-width="0.47" d="M1211.8,-83.95C1225.83,-79.08 1244.13,-73.03 1260.64,-68.53 1333.48,-48.68 1354.93,-56.11 1426.64,-32.53 1430.07,-31.4 1433.61,-30.04 1437.06,-28.61"/>
<polygon fill="green" stroke="green" stroke-width="0.47" points="1438.63,-31.74 1446.35,-24.48 1435.79,-25.34 1438.63,-31.74"/>
</g>
<!-- 304&#45;&gt;6 -->
<g id="edge95" class="edge">
<title>304&#45;&gt;6</title>
<path fill="none" stroke="green" stroke-width="0.49" d="M1211.72,-83.62C1225.71,-78.63 1244.02,-72.57 1260.64,-68.53 1359.05,-44.59 1388.95,-62.63 1485.64,-32.53 1488.51,-31.63 1491.44,-30.53 1494.32,-29.32"/>
<polygon fill="green" stroke="green" stroke-width="0.49" points="1496.05,-32.38 1503.66,-25 1493.11,-26.02 1496.05,-32.38"/>
</g>
<!-- 304&#45;&gt;7 -->
<g id="edge96" class="edge">
<title>304&#45;&gt;7</title>
<path fill="none" stroke="green" stroke-width="0.13" d="M1211.67,-83.43C1225.65,-78.37 1243.96,-72.31 1260.64,-68.53 1383.87,-40.61 1422.15,-70.56 1542.64,-32.53 1544.8,-31.85 1546.99,-31.01 1549.15,-30.08"/>
<polygon fill="green" stroke="green" stroke-width="0.13" points="1550.79,-33.17 1558.22,-25.61 1547.7,-26.89 1550.79,-33.17"/>
</g>
<!-- 305&#45;&gt;0 -->
<g id="edge97" class="edge">
<title>305&#45;&gt;0</title>
<path fill="none" stroke="green" stroke-width="0.28" d="M1377.64,-83.33C1363.67,-78.24 1345.36,-72.18 1328.64,-68.53 1187.96,-37.81 1143.65,-76.86 1006.64,-32.53 1005.17,-32.05 1003.69,-31.49 1002.22,-30.87"/>
<polygon fill="green" stroke="green" stroke-width="0.28" points="1003.39,-27.54 992.89,-26.15 1000.23,-33.79 1003.39,-27.54"/>
</g>
<!-- 305&#45;&gt;1 -->
<g id="edge98" class="edge">
<title>305&#45;&gt;1</title>
<path fill="none" stroke="red" stroke-width="0.47" d="M1377.61,-83.46C1363.63,-78.42 1345.32,-72.35 1328.64,-68.53 1210.65,-41.45 1173.42,-71.02 1058.64,-32.53 1057.18,-32.03 1055.7,-31.46 1054.23,-30.83"/>
<polygon fill="red" stroke="red" stroke-width="0.47" points="1055.41,-27.5 1044.91,-26.09 1052.23,-33.74 1055.41,-27.5"/>
</g>
<!-- 305&#45;&gt;2 -->
<g id="edge99" class="edge">
<title>305&#45;&gt;2</title>
<path fill="none" stroke="green" stroke-width="0.56" d="M1377.53,-83.78C1363.52,-78.85 1345.21,-72.79 1328.64,-68.53 1244.56,-46.88 1221.12,-52.56 1136.64,-32.53 1127.4,-30.34 1117.37,-27.55 1108.54,-24.96"/>
<polygon fill="green" stroke="green" stroke-width="0.56" points="1109.43,-21.58 1098.85,-22.06 1107.42,-28.28 1109.43,-21.58"/>
</g>
<!-- 305&#45;&gt;3 -->
<g id="edge100" class="edge">
<title>305&#45;&gt;3</title>
<path fill="none" stroke="green" stroke-width="0.38" d="M1377.34,-84.45C1363.26,-79.76 1344.95,-73.72 1328.64,-68.53 1278.58,-52.59 1219.79,-34.74 1187.02,-24.87"/>
<polygon fill="green" stroke="green" stroke-width="0.38" points="1187.92,-21.49 1177.33,-21.96 1185.9,-28.19 1187.92,-21.49"/>
</g>
<!-- 305&#45;&gt;4 -->
<g id="edge101" class="edge">
<title>305&#45;&gt;4</title>
<path fill="none" stroke="red" stroke-width="0.25" d="M1400.97,-68.13C1401.07,-60.03 1401.19,-50.97 1401.3,-42.77"/>
<polygon fill="red" stroke="red" stroke-width="0.25" points="1404.8,-42.68 1401.44,-32.64 1397.81,-42.59 1404.8,-42.68"/>
</g>
<!-- 305&#45;&gt;5 -->
<g id="edge102" class="edge">
<title>305&#45;&gt;5</title>
<path fill="none" stroke="red" stroke-width="0.22" d="M1415.78,-73.35C1424.53,-62.42 1435.52,-48.67 1444.44,-37.53"/>
<polygon fill="red" stroke="red" stroke-width="0.22" points="1447.26,-39.59 1450.78,-29.6 1441.8,-35.22 1447.26,-39.59"/>
</g>
<!-- 305&#45;&gt;6 -->
<g id="edge103" class="edge">
<title>305&#45;&gt;6</title>
<path fill="none" stroke="red" stroke-width="0.14" d="M1420.37,-77.71C1424.7,-74.62 1429.29,-71.42 1433.64,-68.53 1454.06,-54.98 1477.97,-40.52 1495.05,-30.42"/>
<polygon fill="red" stroke="red" stroke-width="0.14" points="1496.92,-33.38 1503.77,-25.3 1493.37,-27.35 1496.92,-33.38"/>
</g>
<!-- 305&#45;&gt;7 -->
<g id="edge104" class="edge">
<title>305&#45;&gt;7</title>
<path fill="none" stroke="red" stroke-width="0.79" d="M1419.56,-77.18C1424.01,-74.05 1428.86,-70.96 1433.64,-68.53 1479.1,-45.36 1495.69,-52.48 1542.64,-32.53 1544.53,-31.73 1546.46,-30.85 1548.38,-29.93"/>
<polygon fill="red" stroke="red" stroke-width="0.79" points="1550.38,-32.84 1557.71,-25.19 1547.21,-26.6 1550.38,-32.84"/>
</g>
<!-- 306&#45;&gt;0 -->
<g id="edge105" class="edge">
<title>306&#45;&gt;0</title>
<path fill="none" stroke="red" stroke-width="0.13" d="M1449.11,-76.32C1444.63,-73.23 1439.68,-70.39 1434.64,-68.53 1255.58,-2.38 1189.06,-88.8 1006.64,-32.53 1005.16,-32.07 1003.68,-31.52 1002.2,-30.91"/>
<polygon fill="red" stroke="red" stroke-width="0.13" points="1003.37,-27.58 992.86,-26.23 1000.23,-33.84 1003.37,-27.58"/>
</g>
<!-- 306&#45;&gt;1 -->
<g id="edge106" class="edge">
<title>306&#45;&gt;1</title>
<path fill="none" stroke="green" stroke-width="0.53" d="M1449.09,-76.36C1444.61,-73.27 1439.66,-70.41 1434.64,-68.53 1277.51,-9.45 1218.77,-82.94 1058.64,-32.53 1057.17,-32.06 1055.68,-31.51 1054.21,-30.89"/>
<polygon fill="green" stroke="green" stroke-width="0.53" points="1055.38,-27.56 1044.87,-26.2 1052.23,-33.82 1055.38,-27.56"/>
</g>
<!-- 306&#45;&gt;2 -->
<g id="edge107" class="edge">
<title>306&#45;&gt;2</title>
<path fill="none" stroke="green" stroke-width="0.38" d="M1449.05,-76.46C1444.58,-73.36 1439.64,-70.48 1434.64,-68.53 1310.36,-20.03 1267.38,-59.07 1136.64,-32.53 1127.34,-30.64 1117.28,-27.92 1108.46,-25.3"/>
<polygon fill="green" stroke="green" stroke-width="0.38" points="1109.38,-21.92 1098.79,-22.33 1107.32,-28.61 1109.38,-21.92"/>
</g>
<!-- 306&#45;&gt;3 -->
<g id="edge108" class="edge">
<title>306&#45;&gt;3</title>
<path fill="none" stroke="green" stroke-width="0.34" d="M1448.96,-76.7C1444.49,-73.59 1439.57,-70.64 1434.64,-68.53 1349.36,-32 1238.08,-21.42 1188.04,-18.42"/>
<polygon fill="green" stroke="green" stroke-width="0.34" points="1188.23,-14.92 1178.05,-17.87 1187.84,-21.91 1188.23,-14.92"/>
</g>
<!-- 306&#45;&gt;4 -->
<g id="edge109" class="edge">
<title>306&#45;&gt;4</title>
<path fill="none" stroke="green" stroke-width="0.44" d="M1451.67,-74.12C1441.72,-62.81 1428.93,-48.28 1418.78,-36.74"/>
<polygon fill="green" stroke="green" stroke-width="0.44" points="1421.16,-34.14 1411.92,-28.95 1415.9,-38.77 1421.16,-34.14"/>
</g>
<!-- 306&#45;&gt;5 -->
<g id="edge110" class="edge">
<title>306&#45;&gt;5</title>
<path fill="none" stroke="red" stroke-width="0.26" d="M1465.43,-68.54C1464.67,-60.42 1463.82,-51.31 1463.05,-43.04"/>
<polygon fill="red" stroke="red" stroke-width="0.26" points="1466.51,-42.44 1462.09,-32.81 1459.54,-43.09 1466.51,-42.44"/>
</g>
<!-- 306&#45;&gt;6 -->
<g id="edge111" class="edge">
<title>306&#45;&gt;6</title>
<path fill="none" stroke="red" stroke-width="0.17" d="M1481.04,-72.17C1487.93,-61.84 1496.34,-49.23 1503.35,-38.71"/>
<polygon fill="red" stroke="red" stroke-width="0.17" points="1506.45,-40.36 1509.09,-30.1 1500.63,-36.48 1506.45,-40.36"/>
</g>
<!-- 306&#45;&gt;7 -->
<g id="edge112" class="edge">
<title>306&#45;&gt;7</title>
<path fill="none" stroke="green" stroke-width="0.57" d="M1487.7,-77.81C1505.75,-64.79 1532.2,-45.71 1550.57,-32.46"/>
<polygon fill="green" stroke="green" stroke-width="0.57" points="1552.8,-35.17 1558.86,-26.48 1548.71,-29.49 1552.8,-35.17"/>
</g>
<!-- 307&#45;&gt;0 -->
<g id="edge113" class="edge">
<title>307&#45;&gt;0</title>
<path fill="none" stroke="green" stroke-width="0.38" d="M1093.07,-175.8C1034.86,-170.57 891.31,-154.19 862.64,-118.02 848.98,-100.79 850.61,-86.94 862.64,-68.53 882.65,-37.91 925.44,-25.47 953.36,-20.49"/>
<polygon fill="green" stroke="green" stroke-width="0.38" points="953.92,-23.94 963.25,-18.92 952.82,-17.03 953.92,-23.94"/>
</g>
<!-- 307&#45;&gt;1 -->
<g id="edge114" class="edge">
<title>307&#45;&gt;1</title>
<path fill="none" stroke="green" stroke-width="0.52" d="M1092.75,-175.41C1036.68,-169.52 903.34,-152.15 876.64,-118.02 863.09,-100.7 863.36,-86.06 876.64,-68.53 912.33,-21.42 950.08,-55.23 1004.64,-32.53 1006.07,-31.93 1007.52,-31.28 1008.97,-30.59"/>
<polygon fill="green" stroke="green" stroke-width="0.52" points="1011.03,-33.46 1018.23,-25.69 1007.75,-27.27 1011.03,-33.46"/>
</g>
<!-- 307&#45;&gt;2 -->
<g id="edge115" class="edge">
<title>307&#45;&gt;2</title>
<path fill="none" stroke="green" stroke-width="0.27" d="M1112.7,-154.43C1106.37,-124.57 1095.46,-73.03 1088.96,-42.35"/>
<polygon fill="green" stroke="green" stroke-width="0.27" points="1092.35,-41.49 1086.86,-32.44 1085.51,-42.94 1092.35,-41.49"/>
</g>
<!-- 307&#45;&gt;3 -->
<g id="edge116" class="edge">
<title>307&#45;&gt;3</title>
<path fill="none" stroke="red" stroke-width="0.49" d="M1123.95,-154.78C1132.15,-124.84 1146.43,-72.74 1154.87,-41.99"/>
<polygon fill="red" stroke="red" stroke-width="0.49" points="1158.32,-42.64 1157.58,-32.07 1151.57,-40.79 1158.32,-42.64"/>
</g>
<!-- 307&#45;&gt;4 -->
<g id="edge117" class="edge">
<title>307&#45;&gt;4</title>
<path fill="none" stroke="green" stroke-width="0.26" d="M1140.19,-168.17C1162.65,-157.9 1197.34,-140.07 1222.64,-118.02 1243.55,-99.81 1238.27,-84.92 1260.64,-68.53 1295.82,-42.75 1345.3,-28.76 1375.32,-22.17"/>
<polygon fill="green" stroke="green" stroke-width="0.26" points="1376.36,-25.53 1385.44,-20.07 1374.94,-18.67 1376.36,-25.53"/>
</g>
<!-- 307&#45;&gt;5 -->
<g id="edge118" class="edge">
<title>307&#45;&gt;5</title>
<path fill="none" stroke="red" stroke-width="0.18" d="M1141.89,-172.92C1190.48,-162.87 1297.77,-138.97 1328.64,-118.02 1351.6,-102.46 1345.57,-86.56 1366.64,-68.53 1378.19,-58.65 1413.32,-40.48 1437.21,-28.64"/>
<polygon fill="red" stroke="red" stroke-width="0.18" points="1438.92,-31.7 1446.35,-24.15 1435.83,-25.42 1438.92,-31.7"/>
</g>
<!-- 307&#45;&gt;6 -->
<g id="edge119" class="edge">
<title>307&#45;&gt;6</title>
<path fill="none" stroke="green" stroke-width="0.34" d="M1142.6,-177.02C1246.19,-173.62 1638.57,-158.18 1674.64,-118.02 1689.35,-101.66 1687.93,-86.06 1674.64,-68.53 1638.96,-21.42 1601.54,-54.41 1546.64,-32.53 1544.74,-31.77 1542.8,-30.92 1540.87,-30.03"/>
<polygon fill="green" stroke="green" stroke-width="0.34" points="1542.03,-26.69 1531.52,-25.33 1538.88,-32.95 1542.03,-26.69"/>
</g>
<!-- 307&#45;&gt;7 -->
<g id="edge120" class="edge">
<title>307&#45;&gt;7</title>
<path fill="none" stroke="red" stroke-width="0.47" d="M1142.37,-177.12C1247.81,-174.06 1656.15,-159.6 1693.64,-118.02 1708.37,-101.69 1705.82,-86.85 1693.64,-68.53 1672.45,-36.63 1627.12,-24.54 1598.08,-19.98"/>
<polygon fill="red" stroke="red" stroke-width="0.47" points="1598.22,-16.47 1587.83,-18.58 1597.27,-23.4 1598.22,-16.47"/>
</g>
<!-- 307&#45;&gt;304 -->
<g id="edge153" class="edge">
<title>307&#45;&gt;304</title>
<path fill="none" stroke="green" stroke-width="0.1" d="M1133.4,-159.24C1143.05,-147.89 1155.56,-133.18 1166.23,-120.63"/>
<polygon fill="green" stroke="green" stroke-width="0.1" points="1169.12,-122.64 1172.93,-112.75 1163.79,-118.11 1169.12,-122.64"/>
</g>
</g>
</svg>
