<?xml version="1.0" encoding="UTF-8" standalone="no"?>
<!DOCTYPE svg PUBLIC "-//W3C//DTD SVG 1.1//EN"
 "http://www.w3.org/Graphics/SVG/1.1/DTD/svg11.dtd">
<!-- Generated by graphviz version 2.44.0 (0)
 -->
<!-- Pages: 1 -->
<svg width="1772pt" height="180pt"
 viewBox="0.00 0.00 1771.56 180.02" xmlns="http://www.w3.org/2000/svg" xmlns:xlink="http://www.w3.org/1999/xlink">
<g id="graph0" class="graph" transform="scale(1 1) rotate(0) translate(4 176.02)">
<polygon fill="white" stroke="transparent" points="-4,4 -4,-176.02 1767.56,-176.02 1767.56,4 -4,4"/>
<!-- &#45;1 -->
<g id="node1" class="node">
<title>&#45;1</title>
<polygon fill="lightgray" stroke="black" points="769.28,-172.02 743.28,-172.02 743.28,-154.02 769.28,-154.02 769.28,-172.02"/>
<text text-anchor="middle" x="756.28" y="-160.82" font-family="Times-Roman" font-size="9.00">&#45;1</text>
</g>
<!-- 0 -->
<g id="node5" class="node">
<title>0</title>
<ellipse fill="lightblue" stroke="black" cx="695.28" cy="-16.26" rx="16.03" ry="16.03"/>
<text text-anchor="middle" x="695.28" y="-14.06" font-family="Times-Roman" font-size="9.00">0</text>
</g>
<!-- &#45;1&#45;&gt;0 -->
<g id="edge120" class="edge">
<title>&#45;1&#45;&gt;0</title>
<path fill="none" stroke="red" stroke-width="0.29" d="M743.21,-161.76C645.93,-159.7 37.44,-145.78 11.28,-118.02 -3.81,-102.02 -3.69,-84.65 11.28,-68.53 56.74,-19.53 548.46,-17.05 668.81,-17.18"/>
<polygon fill="red" stroke="red" stroke-width="0.29" points="668.96,-20.68 678.97,-17.19 668.98,-13.68 668.96,-20.68"/>
</g>
<!-- 1 -->
<g id="node6" class="node">
<title>1</title>
<ellipse fill="lightblue" stroke="black" cx="860.28" cy="-16.26" rx="16.03" ry="16.03"/>
<text text-anchor="middle" x="860.28" y="-14.06" font-family="Times-Roman" font-size="9.00">1</text>
</g>
<!-- &#45;1&#45;&gt;1 -->
<g id="edge121" class="edge">
<title>&#45;1&#45;&gt;1</title>
<path fill="none" stroke="red" stroke-width="0.34" d="M743.18,-161.88C695.56,-161.05 532.82,-155.48 501.28,-118.02 487.11,-101.2 486.61,-84.93 501.28,-68.53 549.12,-15.02 752.67,-50.06 822.28,-32.53 826.9,-31.36 831.71,-29.76 836.29,-28.03"/>
<polygon fill="red" stroke="red" stroke-width="0.34" points="837.85,-31.17 845.79,-24.16 835.21,-24.69 837.85,-31.17"/>
</g>
<!-- 2 -->
<g id="node7" class="node">
<title>2</title>
<ellipse fill="lightblue" stroke="black" cx="1021.28" cy="-16.26" rx="16.03" ry="16.03"/>
<text text-anchor="middle" x="1021.28" y="-14.06" font-family="Times-Roman" font-size="9.00">2</text>
</g>
<!-- &#45;1&#45;&gt;2 -->
<g id="edge122" class="edge">
<title>&#45;1&#45;&gt;2</title>
<path fill="none" stroke="red" stroke-width="0.68" d="M769.69,-160.89C845.9,-154.42 1221.32,-122.37 1225.28,-118.02 1240.09,-101.76 1239.21,-85.55 1225.28,-68.53 1174.17,-6.05 1122.67,-61.35 1047.28,-32.53 1046.04,-32.05 1044.79,-31.52 1043.55,-30.96"/>
<polygon fill="red" stroke="red" stroke-width="0.68" points="1044.82,-27.67 1034.35,-26.07 1041.54,-33.85 1044.82,-27.67"/>
</g>
<!-- 3 -->
<g id="node8" class="node">
<title>3</title>
<ellipse fill="lightblue" stroke="black" cx="1072.28" cy="-16.26" rx="16.03" ry="16.03"/>
<text text-anchor="middle" x="1072.28" y="-14.06" font-family="Times-Roman" font-size="9.00">3</text>
</g>
<!-- &#45;1&#45;&gt;3 -->
<g id="edge123" class="edge">
<title>&#45;1&#45;&gt;3</title>
<path fill="none" stroke="red" stroke-width="0.17" d="M769.52,-160.89C847.39,-154.22 1242.21,-120.29 1244.28,-118.02 1259.12,-101.79 1257.43,-86.16 1244.28,-68.53 1226.73,-44.99 1141.8,-28.32 1098.21,-21.17"/>
<polygon fill="red" stroke="red" stroke-width="0.17" points="1098.76,-17.71 1088.33,-19.6 1097.66,-24.63 1098.76,-17.71"/>
</g>
<!-- 4 -->
<g id="node9" class="node">
<title>4</title>
<ellipse fill="lightblue" stroke="black" cx="970.28" cy="-16.26" rx="16.03" ry="16.03"/>
<text text-anchor="middle" x="970.28" y="-14.06" font-family="Times-Roman" font-size="9.00">4</text>
</g>
<!-- &#45;1&#45;&gt;4 -->
<g id="edge124" class="edge">
<title>&#45;1&#45;&gt;4</title>
<path fill="none" stroke="green" stroke-width="0.23" d="M743.04,-162.35C715.03,-162.24 649.95,-157.52 621.28,-118.02 608.36,-100.22 606.61,-84.92 621.28,-68.53 669.44,-14.7 875.74,-55.31 944.28,-32.53 945.54,-32.11 946.8,-31.62 948.05,-31.09"/>
<polygon fill="green" stroke="green" stroke-width="0.23" points="950.02,-34.02 957.3,-26.32 946.81,-27.8 950.02,-34.02"/>
</g>
<!-- 5 -->
<g id="node10" class="node">
<title>5</title>
<ellipse fill="lightblue" stroke="black" cx="746.28" cy="-16.26" rx="16.03" ry="16.03"/>
<text text-anchor="middle" x="746.28" y="-14.06" font-family="Times-Roman" font-size="9.00">5</text>
</g>
<!-- &#45;1&#45;&gt;5 -->
<g id="edge125" class="edge">
<title>&#45;1&#45;&gt;5</title>
<path fill="none" stroke="red" stroke-width="0.41" d="M743.17,-161.74C646.88,-159.59 51.87,-145.21 26.28,-118.02 11.2,-102.01 11.13,-84.48 26.28,-68.53 79.44,-12.53 646.32,-54.71 720.28,-32.53 721.55,-32.15 722.82,-31.69 724.08,-31.18"/>
<polygon fill="red" stroke="red" stroke-width="0.41" points="726.01,-34.13 733.35,-26.49 722.85,-27.88 726.01,-34.13"/>
</g>
<!-- 6 -->
<g id="node11" class="node">
<title>6</title>
<ellipse fill="lightblue" stroke="black" cx="919.28" cy="-16.26" rx="16.03" ry="16.03"/>
<text text-anchor="middle" x="919.28" y="-14.06" font-family="Times-Roman" font-size="9.00">6</text>
</g>
<!-- &#45;1&#45;&gt;6 -->
<g id="edge126" class="edge">
<title>&#45;1&#45;&gt;6</title>
<path fill="none" stroke="red" stroke-width="0.1" d="M743.26,-161.74C697.45,-160.44 544.83,-153.46 515.28,-118.02 501.19,-101.13 500.49,-84.82 515.28,-68.53 570.79,-7.35 805.43,-53.72 885.28,-32.53 888.76,-31.6 892.34,-30.36 895.8,-28.98"/>
<polygon fill="red" stroke="red" stroke-width="0.1" points="897.36,-32.11 905.1,-24.87 894.54,-25.71 897.36,-32.11"/>
</g>
<!-- 7 -->
<g id="node12" class="node">
<title>7</title>
<ellipse fill="lightblue" stroke="black" cx="797.28" cy="-16.26" rx="16.03" ry="16.03"/>
<text text-anchor="middle" x="797.28" y="-14.06" font-family="Times-Roman" font-size="9.00">7</text>
</g>
<!-- &#45;1&#45;&gt;7 -->
<g id="edge127" class="edge">
<title>&#45;1&#45;&gt;7</title>
<path fill="none" stroke="red" stroke-width="0.11" d="M743.01,-162.13C657.19,-162.69 182.79,-163.68 140.28,-118.02 125.29,-101.92 125.17,-84.52 140.28,-68.53 188.5,-17.48 704.06,-52.87 771.28,-32.53 772.55,-32.14 773.82,-31.69 775.08,-31.17"/>
<polygon fill="red" stroke="red" stroke-width="0.11" points="777.01,-34.12 784.35,-26.47 773.84,-27.88 777.01,-34.12"/>
</g>
<!-- 458 -->
<g id="node13" class="node">
<title>458</title>
<ellipse fill="white" stroke="black" cx="789.28" cy="-93.28" rx="25" ry="25"/>
<text text-anchor="middle" x="789.28" y="-91.08" font-family="Times-Roman" font-size="9.00">458</text>
</g>
<!-- &#45;1&#45;&gt;458 -->
<g id="edge1" class="edge">
<title>&#45;1&#45;&gt;458</title>
<path fill="none" stroke="red" stroke-width="0.2" d="M760.19,-153.99C763.71,-146.78 769.09,-135.72 774.28,-125.07"/>
<polygon fill="red" stroke="red" stroke-width="0.2" points="777.5,-126.45 778.73,-115.93 771.21,-123.38 777.5,-126.45"/>
</g>
<!-- 459 -->
<g id="node14" class="node">
<title>459</title>
<ellipse fill="white" stroke="black" cx="856.28" cy="-93.28" rx="25" ry="25"/>
<text text-anchor="middle" x="856.28" y="-91.08" font-family="Times-Roman" font-size="9.00">459</text>
</g>
<!-- &#45;1&#45;&gt;459 -->
<g id="edge2" class="edge">
<title>&#45;1&#45;&gt;459</title>
<path fill="none" stroke="red" stroke-width="0.32" d="M769.23,-153.75C782.81,-145.03 804.7,-130.8 823.28,-118.02 824.89,-116.91 826.54,-115.77 828.21,-114.6"/>
<polygon fill="red" stroke="red" stroke-width="0.32" points="830.35,-117.37 836.48,-108.73 826.3,-111.66 830.35,-117.37"/>
</g>
<!-- 460 -->
<g id="node15" class="node">
<title>460</title>
<ellipse fill="white" stroke="black" cx="923.28" cy="-93.28" rx="25" ry="25"/>
<text text-anchor="middle" x="923.28" y="-91.08" font-family="Times-Roman" font-size="9.00">460</text>
</g>
<!-- &#45;1&#45;&gt;460 -->
<g id="edge3" class="edge">
<title>&#45;1&#45;&gt;460</title>
<path fill="none" stroke="green" stroke-width="0.23" d="M769.36,-159.15C793.95,-153.43 848.37,-139.34 890.28,-118.02 892.07,-117.11 893.87,-116.11 895.66,-115.05"/>
<polygon fill="green" stroke="green" stroke-width="0.23" points="897.9,-117.77 904.37,-109.38 894.08,-111.9 897.9,-117.77"/>
</g>
<!-- 461 -->
<g id="node16" class="node">
<title>461</title>
<ellipse fill="white" stroke="black" cx="990.28" cy="-93.28" rx="25" ry="25"/>
<text text-anchor="middle" x="990.28" y="-91.08" font-family="Times-Roman" font-size="9.00">461</text>
</g>
<!-- &#45;1&#45;&gt;461 -->
<g id="edge4" class="edge">
<title>&#45;1&#45;&gt;461</title>
<path fill="none" stroke="green" stroke-width="0.39" d="M769.55,-160.99C802.6,-158.03 890.73,-147.72 957.28,-118.02 959.11,-117.2 960.95,-116.27 962.77,-115.26"/>
<polygon fill="green" stroke="green" stroke-width="0.39" points="964.94,-118.03 971.54,-109.75 961.21,-112.11 964.94,-118.03"/>
</g>
<!-- 462 -->
<g id="node17" class="node">
<title>462</title>
<ellipse fill="white" stroke="black" cx="1057.28" cy="-93.28" rx="25" ry="25"/>
<text text-anchor="middle" x="1057.28" y="-91.08" font-family="Times-Roman" font-size="9.00">462</text>
</g>
<!-- &#45;1&#45;&gt;462 -->
<g id="edge5" class="edge">
<title>&#45;1&#45;&gt;462</title>
<path fill="none" stroke="green" stroke-width="0.17" d="M769.43,-160.67C816.58,-155.7 976.92,-137.67 1024.28,-118.02 1026.14,-117.25 1027.99,-116.36 1029.82,-115.38"/>
<polygon fill="green" stroke="green" stroke-width="0.17" points="1031.96,-118.17 1038.63,-109.94 1028.28,-112.22 1031.96,-118.17"/>
</g>
<!-- 463 -->
<g id="node18" class="node">
<title>463</title>
<ellipse fill="white" stroke="black" cx="549.28" cy="-93.28" rx="25" ry="25"/>
<text text-anchor="middle" x="549.28" y="-91.08" font-family="Times-Roman" font-size="9.00">463</text>
</g>
<!-- &#45;1&#45;&gt;463 -->
<g id="edge6" class="edge">
<title>&#45;1&#45;&gt;463</title>
<path fill="none" stroke="green" stroke-width="0.39" d="M743.21,-159.94C714.39,-155.06 643.5,-141.48 588.28,-118.02 584.87,-116.58 581.4,-114.86 578.01,-113.03"/>
<polygon fill="green" stroke="green" stroke-width="0.39" points="579.73,-109.99 569.32,-108.01 576.23,-116.05 579.73,-109.99"/>
</g>
<!-- 464 -->
<g id="node19" class="node">
<title>464</title>
<ellipse fill="white" stroke="black" cx="1124.28" cy="-93.28" rx="25" ry="25"/>
<text text-anchor="middle" x="1124.28" y="-91.08" font-family="Times-Roman" font-size="9.00">464</text>
</g>
<!-- &#45;1&#45;&gt;464 -->
<g id="edge7" class="edge">
<title>&#45;1&#45;&gt;464</title>
<path fill="none" stroke="red" stroke-width="0.32" d="M769.63,-160.66C828.2,-154.63 1060.81,-130.1 1091.28,-118.02 1093.15,-117.28 1095.01,-116.41 1096.84,-115.45"/>
<polygon fill="red" stroke="red" stroke-width="0.32" points="1098.96,-118.26 1105.67,-110.06 1095.32,-112.28 1098.96,-118.26"/>
</g>
<!-- 465 -->
<g id="node20" class="node">
<title>465</title>
<ellipse fill="white" stroke="black" cx="1191.28" cy="-93.28" rx="25" ry="25"/>
<text text-anchor="middle" x="1191.28" y="-91.08" font-family="Times-Roman" font-size="9.00">465</text>
</g>
<!-- &#45;1&#45;&gt;465 -->
<g id="edge8" class="edge">
<title>&#45;1&#45;&gt;465</title>
<path fill="none" stroke="red" stroke-width="0.31" d="M769.42,-160.78C836.65,-154.37 1139.64,-125.18 1158.28,-118.02 1160.16,-117.3 1162.02,-116.45 1163.86,-115.5"/>
<polygon fill="red" stroke="red" stroke-width="0.31" points="1165.97,-118.32 1172.7,-110.14 1162.34,-112.33 1165.97,-118.32"/>
</g>
<!-- 466 -->
<g id="node21" class="node">
<title>466</title>
<ellipse fill="white" stroke="black" cx="655.28" cy="-93.28" rx="25" ry="25"/>
<text text-anchor="middle" x="655.28" y="-91.08" font-family="Times-Roman" font-size="9.00">466</text>
</g>
<!-- &#45;1&#45;&gt;466 -->
<g id="edge9" class="edge">
<title>&#45;1&#45;&gt;466</title>
<path fill="none" stroke="red" stroke-width="0.24" d="M743.37,-153.94C729.6,-145.25 707.21,-130.95 688.28,-118.02 686.66,-116.92 685.01,-115.78 683.34,-114.61"/>
<polygon fill="red" stroke="red" stroke-width="0.24" points="685.24,-111.67 675.06,-108.75 681.2,-117.39 685.24,-111.67"/>
</g>
<!-- 467 -->
<g id="node22" class="node">
<title>467</title>
<ellipse fill="white" stroke="black" cx="722.28" cy="-93.28" rx="25" ry="25"/>
<text text-anchor="middle" x="722.28" y="-91.08" font-family="Times-Roman" font-size="9.00">467</text>
</g>
<!-- &#45;1&#45;&gt;467 -->
<g id="edge10" class="edge">
<title>&#45;1&#45;&gt;467</title>
<path fill="none" stroke="red" stroke-width="0.58" d="M752.24,-153.99C748.6,-146.72 742.99,-135.55 737.61,-124.83"/>
<polygon fill="red" stroke="red" stroke-width="0.58" points="740.61,-123 733,-115.63 734.35,-126.14 740.61,-123"/>
</g>
<!-- &#45;2 -->
<g id="node2" class="node">
<title>&#45;2</title>
<polygon fill="lightgray" stroke="black" points="947.28,-172.02 921.28,-172.02 921.28,-154.02 947.28,-154.02 947.28,-172.02"/>
<text text-anchor="middle" x="934.28" y="-160.82" font-family="Times-Roman" font-size="9.00">&#45;2</text>
</g>
<!-- &#45;2&#45;&gt;0 -->
<g id="edge128" class="edge">
<title>&#45;2&#45;&gt;0</title>
<path fill="none" stroke="red" stroke-width="0.39" d="M921,-158.79C913.5,-157.09 903.92,-155.13 895.28,-154.02 820.34,-144.41 268.27,-172.84 216.28,-118.02 201.14,-102.06 201.57,-84.89 216.28,-68.53 246.76,-34.61 572.96,-21.28 668.89,-18.07"/>
<polygon fill="red" stroke="red" stroke-width="0.39" points="669.04,-21.57 678.92,-17.75 668.81,-14.57 669.04,-21.57"/>
</g>
<!-- &#45;2&#45;&gt;1 -->
<g id="edge129" class="edge">
<title>&#45;2&#45;&gt;1</title>
<path fill="none" stroke="red" stroke-width="0.15" d="M947.46,-158.63C953.73,-157.08 961.36,-155.32 968.28,-154.02 1024.96,-143.41 1187.43,-161.54 1225.28,-118.02 1239.71,-101.42 1239.97,-84.9 1225.28,-68.53 1175.87,-13.45 965.68,-51.92 894.28,-32.53 890.8,-31.58 887.23,-30.33 883.76,-28.94"/>
<polygon fill="red" stroke="red" stroke-width="0.15" points="885.03,-25.67 874.47,-24.83 882.2,-32.08 885.03,-25.67"/>
</g>
<!-- &#45;2&#45;&gt;2 -->
<g id="edge130" class="edge">
<title>&#45;2&#45;&gt;2</title>
<path fill="none" stroke="green" stroke-width="0.23" d="M947.42,-158.39C953.69,-156.8 961.32,-155.06 968.28,-154.02 1029.51,-144.9 1481.94,-163.19 1524.28,-118.02 1539.32,-101.97 1539.24,-84.66 1524.28,-68.53 1488.14,-29.56 1098.01,-48.39 1047.28,-32.53 1046.01,-32.13 1044.74,-31.66 1043.49,-31.15"/>
<polygon fill="green" stroke="green" stroke-width="0.23" points="1044.72,-27.85 1034.23,-26.42 1041.54,-34.08 1044.72,-27.85"/>
</g>
<!-- &#45;2&#45;&gt;3 -->
<g id="edge131" class="edge">
<title>&#45;2&#45;&gt;3</title>
<path fill="none" stroke="green" stroke-width="0.21" stroke-dasharray="1,5" d="M947.41,-158.36C953.68,-156.76 961.31,-155.02 968.28,-154.02 1042.08,-143.45 1587,-172.14 1638.28,-118.02 1653.41,-102.06 1653.12,-84.77 1638.28,-68.53 1601.48,-28.25 1205.79,-19.3 1098.81,-17.62"/>
<polygon fill="green" stroke="green" stroke-width="0.21" points="1098.62,-14.11 1088.57,-17.46 1098.51,-21.11 1098.62,-14.11"/>
</g>
<!-- &#45;2&#45;&gt;4 -->
<g id="edge132" class="edge">
<title>&#45;2&#45;&gt;4</title>
<path fill="none" stroke="green" stroke-width="0.19" d="M947.43,-158.45C953.7,-156.86 961.33,-155.12 968.28,-154.02 1016.95,-146.36 1376.88,-154.25 1410.28,-118.02 1425.19,-101.85 1425.14,-84.74 1410.28,-68.53 1347.87,-0.46 1084.26,-60.59 996.28,-32.53 995.02,-32.12 993.75,-31.65 992.49,-31.13"/>
<polygon fill="green" stroke="green" stroke-width="0.19" points="993.73,-27.83 983.24,-26.39 990.54,-34.06 993.73,-27.83"/>
</g>
<!-- &#45;2&#45;&gt;5 -->
<g id="edge133" class="edge">
<title>&#45;2&#45;&gt;5</title>
<path fill="none" stroke="red" stroke-width="0.11" d="M921,-158.84C913.49,-157.16 903.91,-155.2 895.28,-154.02 837.12,-146.11 408.34,-160.92 368.28,-118.02 353.26,-101.95 353.53,-84.85 368.28,-68.53 420.97,-10.17 645.55,-56.99 720.28,-32.53 721.54,-32.11 722.8,-31.63 724.06,-31.1"/>
<polygon fill="red" stroke="red" stroke-width="0.11" points="726.02,-34.03 733.31,-26.35 722.81,-27.81 726.02,-34.03"/>
</g>
<!-- &#45;2&#45;&gt;6 -->
<g id="edge134" class="edge">
<title>&#45;2&#45;&gt;6</title>
<path fill="none" stroke="green" stroke-width="0.68" stroke-dasharray="1,5" d="M947.44,-158.53C953.71,-156.97 961.35,-155.22 968.28,-154.02 1040.54,-141.6 1247.34,-172.63 1296.28,-118.02 1310.96,-101.64 1311.02,-84.86 1296.28,-68.53 1243.74,-10.32 1019.79,-56.93 945.28,-32.53 944.02,-32.11 942.75,-31.63 941.5,-31.1"/>
<polygon fill="green" stroke="green" stroke-width="0.68" points="942.74,-27.81 932.25,-26.34 939.54,-34.03 942.74,-27.81"/>
</g>
<!-- &#45;2&#45;&gt;7 -->
<g id="edge135" class="edge">
<title>&#45;2&#45;&gt;7</title>
<path fill="none" stroke="green" stroke-width="0.3" d="M920.99,-158.9C913.48,-157.24 903.9,-155.28 895.28,-154.02 849.7,-147.39 513.4,-151.98 482.28,-118.02 467.41,-101.81 467.72,-85.02 482.28,-68.53 525.12,-20.02 710,-53.34 771.28,-32.53 772.53,-32.1 773.79,-31.61 775.05,-31.07"/>
<polygon fill="green" stroke="green" stroke-width="0.3" points="777.02,-33.99 784.29,-26.28 773.8,-27.78 777.02,-33.99"/>
</g>
<!-- &#45;2&#45;&gt;458 -->
<g id="edge11" class="edge">
<title>&#45;2&#45;&gt;458</title>
<path fill="none" stroke="green" stroke-width="0.41" d="M921.04,-158.02C899.59,-151.26 856.21,-136.52 822.28,-118.02 820.51,-117.06 818.73,-116.02 816.96,-114.93"/>
<polygon fill="green" stroke="green" stroke-width="0.41" points="818.56,-111.79 808.29,-109.18 814.69,-117.62 818.56,-111.79"/>
</g>
<!-- &#45;2&#45;&gt;459 -->
<g id="edge12" class="edge">
<title>&#45;2&#45;&gt;459</title>
<path fill="none" stroke="red" stroke-width="0.42" d="M925.02,-153.99C914.6,-144.94 897.21,-129.83 882.53,-117.08"/>
<polygon fill="red" stroke="red" stroke-width="0.42" points="884.56,-114.2 874.71,-110.29 879.97,-119.49 884.56,-114.2"/>
</g>
<!-- &#45;2&#45;&gt;460 -->
<g id="edge13" class="edge">
<title>&#45;2&#45;&gt;460</title>
<path fill="none" stroke="green" stroke-width="0.44" d="M932.97,-153.99C931.91,-147.43 930.33,-137.7 928.75,-127.98"/>
<polygon fill="green" stroke="green" stroke-width="0.44" points="932.19,-127.31 927.13,-118 925.28,-128.43 932.19,-127.31"/>
</g>
<!-- &#45;2&#45;&gt;461 -->
<g id="edge14" class="edge">
<title>&#45;2&#45;&gt;461</title>
<path fill="none" stroke="red" stroke-width="0.83" d="M940.92,-153.99C947.7,-145.78 958.59,-132.61 968.42,-120.72"/>
<polygon fill="red" stroke="red" stroke-width="0.83" points="971.32,-122.7 974.99,-112.77 965.93,-118.24 971.32,-122.7"/>
</g>
<!-- &#45;2&#45;&gt;462 -->
<g id="edge15" class="edge">
<title>&#45;2&#45;&gt;462</title>
<path fill="none" stroke="green" stroke-width="0.21" d="M947.46,-156.42C965.32,-148.65 998.01,-133.74 1024.28,-118.02 1025.96,-117.02 1027.66,-115.95 1029.37,-114.85"/>
<polygon fill="green" stroke="green" stroke-width="0.21" points="1031.45,-117.67 1037.75,-109.15 1027.51,-111.88 1031.45,-117.67"/>
</g>
<!-- &#45;2&#45;&gt;463 -->
<g id="edge16" class="edge">
<title>&#45;2&#45;&gt;463</title>
<path fill="none" stroke="red" stroke-width="0.47" d="M920.97,-159.05C913.45,-157.43 903.87,-155.47 895.28,-154.02 774.15,-133.67 741.02,-145.38 621.28,-118.02 608.25,-115.05 594.22,-110.69 582.04,-106.53"/>
<polygon fill="red" stroke="red" stroke-width="0.47" points="582.91,-103.12 572.31,-103.1 580.58,-109.72 582.91,-103.12"/>
</g>
<!-- &#45;2&#45;&gt;464 -->
<g id="edge17" class="edge">
<title>&#45;2&#45;&gt;464</title>
<path fill="none" stroke="green" stroke-width="0.81" d="M947.38,-158.98C980.18,-151.25 1065.13,-130.61 1091.28,-118.02 1093.09,-117.15 1094.91,-116.18 1096.71,-115.14"/>
<polygon fill="green" stroke="green" stroke-width="0.81" points="1098.92,-117.88 1105.45,-109.54 1095.14,-111.99 1098.92,-117.88"/>
</g>
<!-- &#45;2&#45;&gt;465 -->
<g id="edge18" class="edge">
<title>&#45;2&#45;&gt;465</title>
<path fill="none" stroke="red" stroke-width="0.64" d="M947.49,-158.77C953.77,-157.26 961.4,-155.49 968.28,-154.02 1052.35,-136.18 1079.3,-151.93 1158.28,-118.02 1160.13,-117.23 1161.97,-116.32 1163.79,-115.33"/>
<polygon fill="red" stroke="red" stroke-width="0.64" points="1165.95,-118.11 1172.59,-109.85 1162.25,-112.17 1165.95,-118.11"/>
</g>
<!-- &#45;2&#45;&gt;466 -->
<g id="edge19" class="edge">
<title>&#45;2&#45;&gt;466</title>
<path fill="none" stroke="red" stroke-width="0.15" d="M920.94,-159.18C913.42,-157.61 903.83,-155.65 895.28,-154.02 803.53,-136.64 774.36,-154.22 688.28,-118.02 686.42,-117.24 684.57,-116.34 682.75,-115.36"/>
<polygon fill="red" stroke="red" stroke-width="0.15" points="684.29,-112.2 673.94,-109.9 680.6,-118.15 684.29,-112.2"/>
</g>
<!-- &#45;2&#45;&gt;467 -->
<g id="edge20" class="edge">
<title>&#45;2&#45;&gt;467</title>
<path fill="none" stroke="green" stroke-width="0.95" d="M921.05,-159.08C882.27,-150.4 770.6,-125.1 755.28,-118.02 753.45,-117.18 751.62,-116.23 749.81,-115.21"/>
<polygon fill="green" stroke="green" stroke-width="0.95" points="751.37,-112.05 741.06,-109.65 747.63,-117.97 751.37,-112.05"/>
</g>
<!-- &#45;3 -->
<g id="node3" class="node">
<title>&#45;3</title>
<polygon fill="lightgray" stroke="black" points="1003.28,-172.02 977.28,-172.02 977.28,-154.02 1003.28,-154.02 1003.28,-172.02"/>
<text text-anchor="middle" x="990.28" y="-160.82" font-family="Times-Roman" font-size="9.00">&#45;3</text>
</g>
<!-- &#45;3&#45;&gt;0 -->
<g id="edge136" class="edge">
<title>&#45;3&#45;&gt;0</title>
<path fill="none" stroke="green" stroke-width="0.51" d="M977.13,-158.43C970.86,-156.85 963.23,-155.1 956.28,-154.02 904.52,-146 521.87,-156.45 486.28,-118.02 471.33,-101.89 472.7,-85.84 486.28,-68.53 508.73,-39.91 617.93,-25.17 668.94,-19.75"/>
<polygon fill="green" stroke="green" stroke-width="0.51" points="669.57,-23.2 679.17,-18.71 668.86,-16.24 669.57,-23.2"/>
</g>
<!-- &#45;3&#45;&gt;1 -->
<g id="edge137" class="edge">
<title>&#45;3&#45;&gt;1</title>
<path fill="none" stroke="red" stroke-width="0.49" d="M1003.33,-161.87C1050.76,-161.01 1212.87,-155.35 1244.28,-118.02 1258.44,-101.19 1259.02,-84.86 1244.28,-68.53 1191.9,-10.48 969.79,-52.8 894.28,-32.53 890.8,-31.59 887.22,-30.34 883.76,-28.96"/>
<polygon fill="red" stroke="red" stroke-width="0.49" points="885.02,-25.69 874.46,-24.85 882.2,-32.09 885.02,-25.69"/>
</g>
<!-- &#45;3&#45;&gt;2 -->
<g id="edge138" class="edge">
<title>&#45;3&#45;&gt;2</title>
<path fill="none" stroke="green" stroke-width="0.56" d="M1003.31,-161.76C1100.33,-159.69 1707.19,-145.71 1733.28,-118.02 1748.37,-102.02 1748.42,-84.48 1733.28,-68.53 1680.74,-13.16 1120.38,-54.47 1047.28,-32.53 1046.01,-32.15 1044.74,-31.69 1043.47,-31.18"/>
<polygon fill="green" stroke="green" stroke-width="0.56" points="1044.71,-27.88 1034.21,-26.49 1041.54,-34.13 1044.71,-27.88"/>
</g>
<!-- &#45;3&#45;&gt;3 -->
<g id="edge139" class="edge">
<title>&#45;3&#45;&gt;3</title>
<path fill="none" stroke="red" stroke-width="0.72" d="M1003.32,-161.78C1101.82,-159.83 1725.47,-146.42 1752.28,-118.02 1767.38,-102.03 1767.24,-84.66 1752.28,-68.53 1707.14,-19.86 1219.3,-17.12 1098.98,-17.19"/>
<polygon fill="red" stroke="red" stroke-width="0.72" points="1098.81,-13.69 1088.81,-17.2 1098.82,-20.69 1098.81,-13.69"/>
</g>
<!-- &#45;3&#45;&gt;4 -->
<g id="edge140" class="edge">
<title>&#45;3&#45;&gt;4</title>
<path fill="none" stroke="green" stroke-width="0.28" d="M1003.58,-161.73C1100.03,-159.52 1688.93,-144.96 1714.28,-118.02 1729.35,-102 1729.44,-84.47 1714.28,-68.53 1659.23,-10.65 1072.81,-55.4 996.28,-32.53 995.01,-32.15 993.74,-31.69 992.47,-31.18"/>
<polygon fill="green" stroke="green" stroke-width="0.28" points="993.71,-27.89 983.2,-26.49 990.54,-34.13 993.71,-27.89"/>
</g>
<!-- &#45;3&#45;&gt;5 -->
<g id="edge141" class="edge">
<title>&#45;3&#45;&gt;5</title>
<path fill="none" stroke="red" stroke-width="0.71" d="M977.13,-158.44C970.86,-156.85 963.23,-155.11 956.28,-154.02 906.06,-146.18 534.77,-155.35 500.28,-118.02 485.35,-101.87 486.03,-85.29 500.28,-68.53 564.43,6.98 627.09,-66.18 720.28,-32.53 721.52,-32.08 722.78,-31.57 724.03,-31.01"/>
<polygon fill="red" stroke="red" stroke-width="0.71" points="726.02,-33.92 733.25,-26.18 722.77,-27.72 726.02,-33.92"/>
</g>
<!-- &#45;3&#45;&gt;6 -->
<g id="edge142" class="edge">
<title>&#45;3&#45;&gt;6</title>
<path fill="none" stroke="green" stroke-width="0.16" d="M1003.38,-162.05C1085.14,-162.11 1523.03,-160.41 1562.28,-118.02 1577.22,-101.88 1577.37,-84.53 1562.28,-68.53 1515.15,-18.57 1010.99,-52.46 945.28,-32.53 944.01,-32.14 942.74,-31.68 941.48,-31.17"/>
<polygon fill="green" stroke="green" stroke-width="0.16" points="942.71,-27.87 932.21,-26.47 939.54,-34.12 942.71,-27.87"/>
</g>
<!-- &#45;3&#45;&gt;7 -->
<g id="edge143" class="edge">
<title>&#45;3&#45;&gt;7</title>
<path fill="none" stroke="green" stroke-width="0.53" d="M977.13,-158.45C970.86,-156.86 963.23,-155.12 956.28,-154.02 907.71,-146.37 548.6,-154.17 515.28,-118.02 500.37,-101.85 500.85,-85.13 515.28,-68.53 552.97,-25.17 717.03,-51.43 771.28,-32.53 772.53,-32.09 773.79,-31.59 775.04,-31.05"/>
<polygon fill="green" stroke="green" stroke-width="0.53" points="777.02,-33.96 784.27,-26.24 773.78,-27.75 777.02,-33.96"/>
</g>
<!-- &#45;3&#45;&gt;458 -->
<g id="edge21" class="edge">
<title>&#45;3&#45;&gt;458</title>
<path fill="none" stroke="green" stroke-width="0.17" d="M977.08,-158.86C939.98,-149.94 836.57,-124.75 822.28,-118.02 820.46,-117.17 818.63,-116.21 816.83,-115.18"/>
<polygon fill="green" stroke="green" stroke-width="0.17" points="818.39,-112.02 808.08,-109.6 814.63,-117.93 818.39,-112.02"/>
</g>
<!-- &#45;3&#45;&gt;459 -->
<g id="edge22" class="edge">
<title>&#45;3&#45;&gt;459</title>
<path fill="none" stroke="green" stroke-width="0.54" d="M977.1,-157.32C957.4,-150.05 919.37,-135.15 889.28,-118.02 887.53,-117.03 885.76,-115.96 884,-114.85"/>
<polygon fill="green" stroke="green" stroke-width="0.54" points="885.62,-111.72 875.36,-109.05 881.72,-117.53 885.62,-111.72"/>
</g>
<!-- &#45;3&#45;&gt;460 -->
<g id="edge23" class="edge">
<title>&#45;3&#45;&gt;460</title>
<path fill="none" stroke="green" stroke-width="0.12" d="M982.33,-153.99C973.77,-145.34 959.75,-131.15 947.51,-118.78"/>
<polygon fill="green" stroke="green" stroke-width="0.12" points="949.71,-116.02 940.19,-111.38 944.73,-120.95 949.71,-116.02"/>
</g>
<!-- &#45;3&#45;&gt;461 -->
<g id="edge24" class="edge">
<title>&#45;3&#45;&gt;461</title>
<path fill="none" stroke="red" stroke-width="0.29" d="M990.28,-153.99C990.28,-147.55 990.28,-138.05 990.28,-128.52"/>
<polygon fill="red" stroke="red" stroke-width="0.29" points="993.78,-128.3 990.28,-118.3 986.78,-128.3 993.78,-128.3"/>
</g>
<!-- &#45;3&#45;&gt;462 -->
<g id="edge25" class="edge">
<title>&#45;3&#45;&gt;462</title>
<path fill="none" stroke="green" stroke-width="0.68" d="M998.23,-153.99C1006.78,-145.34 1020.81,-131.15 1033.04,-118.78"/>
<polygon fill="green" stroke="green" stroke-width="0.68" points="1035.82,-120.95 1040.37,-111.38 1030.85,-116.02 1035.82,-120.95"/>
</g>
<!-- &#45;3&#45;&gt;464 -->
<g id="edge26" class="edge">
<title>&#45;3&#45;&gt;464</title>
<path fill="none" stroke="green" stroke-width="0.55" d="M1003.46,-157.32C1023.16,-150.05 1061.19,-135.15 1091.28,-118.02 1093.03,-117.03 1094.79,-115.96 1096.56,-114.85"/>
<polygon fill="green" stroke="green" stroke-width="0.55" points="1098.84,-117.53 1105.19,-109.05 1094.94,-111.72 1098.84,-117.53"/>
</g>
<!-- &#45;3&#45;&gt;465 -->
<g id="edge27" class="edge">
<title>&#45;3&#45;&gt;465</title>
<path fill="none" stroke="red" stroke-width="0.21" stroke-dasharray="1,5" d="M1003.48,-160.25C1032.59,-155.99 1103.99,-143.58 1158.28,-118.02 1160.1,-117.17 1161.92,-116.21 1163.73,-115.18"/>
<polygon fill="red" stroke="red" stroke-width="0.21" points="1165.92,-117.93 1172.47,-109.6 1162.16,-112.02 1165.92,-117.93"/>
</g>
<!-- &#45;3&#45;&gt;466 -->
<g id="edge28" class="edge">
<title>&#45;3&#45;&gt;466</title>
<path fill="none" stroke="green" stroke-width="0.24" stroke-dasharray="1,5" d="M977.1,-158.61C970.82,-157.06 963.2,-155.3 956.28,-154.02 838.09,-132.24 799.95,-162.45 688.28,-118.02 686.41,-117.28 684.55,-116.41 682.71,-115.44"/>
<polygon fill="green" stroke="green" stroke-width="0.24" points="684.24,-112.28 673.89,-110.05 680.59,-118.25 684.24,-112.28"/>
</g>
<!-- &#45;3&#45;&gt;467 -->
<g id="edge29" class="edge">
<title>&#45;3&#45;&gt;467</title>
<path fill="none" stroke="red" stroke-width="0.21" d="M977.07,-158.74C970.79,-157.23 963.17,-155.45 956.28,-154.02 867.41,-135.62 838.85,-153.41 755.28,-118.02 753.43,-117.24 751.58,-116.34 749.75,-115.35"/>
<polygon fill="red" stroke="red" stroke-width="0.21" points="751.29,-112.19 740.95,-109.89 747.6,-118.13 751.29,-112.19"/>
</g>
<!-- &#45;4 -->
<g id="node4" class="node">
<title>&#45;4</title>
<polygon fill="lightgray" stroke="black" points="886.28,-172.02 860.28,-172.02 860.28,-154.02 886.28,-154.02 886.28,-172.02"/>
<text text-anchor="middle" x="873.28" y="-160.82" font-family="Times-Roman" font-size="9.00">&#45;4</text>
</g>
<!-- &#45;4&#45;&gt;0 -->
<g id="edge144" class="edge">
<title>&#45;4&#45;&gt;0</title>
<path fill="none" stroke="red" stroke-width="0.15" d="M860.21,-160.83C792.02,-154.55 479.92,-125.44 473.28,-118.02 458.6,-101.64 459.58,-85.74 473.28,-68.53 497.47,-38.12 615.28,-24.19 668.77,-19.36"/>
<polygon fill="red" stroke="red" stroke-width="0.15" points="669.19,-22.83 678.85,-18.49 668.59,-15.86 669.19,-22.83"/>
</g>
<!-- &#45;4&#45;&gt;1 -->
<g id="edge145" class="edge">
<title>&#45;4&#45;&gt;1</title>
<path fill="none" stroke="green" stroke-width="0.26" d="M860.16,-160.9C797.04,-155.42 527,-131.27 515.28,-118.02 500.7,-101.55 500.66,-84.96 515.28,-68.53 560.93,-17.21 755.71,-49.48 822.28,-32.53 826.9,-31.35 831.71,-29.74 836.28,-28.01"/>
<polygon fill="green" stroke="green" stroke-width="0.26" points="837.84,-31.15 845.78,-24.14 835.2,-24.67 837.84,-31.15"/>
</g>
<!-- &#45;4&#45;&gt;2 -->
<g id="edge146" class="edge">
<title>&#45;4&#45;&gt;2</title>
<path fill="none" stroke="green" stroke-width="0.39" d="M886.58,-158.95C894.09,-157.3 903.67,-155.35 912.28,-154.02 989.78,-142.13 1210.74,-176.23 1263.28,-118.02 1278.02,-101.69 1277.5,-85.31 1263.28,-68.53 1200.37,5.73 1138.77,-65.72 1047.28,-32.53 1046.03,-32.08 1044.78,-31.56 1043.53,-31.01"/>
<polygon fill="green" stroke="green" stroke-width="0.39" points="1044.79,-27.72 1034.31,-26.17 1041.54,-33.91 1044.79,-27.72"/>
</g>
<!-- &#45;4&#45;&gt;3 -->
<g id="edge147" class="edge">
<title>&#45;4&#45;&gt;3</title>
<path fill="none" stroke="green" stroke-width="0.15" d="M886.57,-158.94C894.08,-157.28 903.67,-155.32 912.28,-154.02 953.12,-147.87 1254.52,-148.61 1282.28,-118.02 1297.06,-101.73 1295.86,-85.83 1282.28,-68.53 1259.67,-39.73 1149.53,-25.05 1098.42,-19.7"/>
<polygon fill="green" stroke="green" stroke-width="0.15" points="1098.77,-16.21 1088.46,-18.69 1098.06,-23.18 1098.77,-16.21"/>
</g>
<!-- &#45;4&#45;&gt;4 -->
<g id="edge148" class="edge">
<title>&#45;4&#45;&gt;4</title>
<path fill="none" stroke="red" stroke-width="0.5" stroke-dasharray="1,5" d="M886.58,-158.97C894.09,-157.33 903.67,-155.37 912.28,-154.02 985.6,-142.56 1194.71,-173.26 1244.28,-118.02 1258.97,-101.65 1258.67,-85.16 1244.28,-68.53 1207.84,-26.42 1048.82,-50.97 996.28,-32.53 995.03,-32.09 993.77,-31.59 992.52,-31.04"/>
<polygon fill="red" stroke="red" stroke-width="0.5" points="993.77,-27.75 983.29,-26.23 990.54,-33.95 993.77,-27.75"/>
</g>
<!-- &#45;4&#45;&gt;5 -->
<g id="edge149" class="edge">
<title>&#45;4&#45;&gt;5</title>
<path fill="none" stroke="red" stroke-width="0.64" d="M860.23,-160.78C793.54,-154.37 493.66,-125.18 487.28,-118.02 472.63,-101.61 472.96,-85.23 487.28,-68.53 521.38,-28.75 670.92,-50.1 720.28,-32.53 721.53,-32.08 722.78,-31.58 724.03,-31.03"/>
<polygon fill="red" stroke="red" stroke-width="0.64" points="726.02,-33.94 733.26,-26.2 722.77,-27.73 726.02,-33.94"/>
</g>
<!-- &#45;4&#45;&gt;6 -->
<g id="edge150" class="edge">
<title>&#45;4&#45;&gt;6</title>
<path fill="none" stroke="green" stroke-width="0.41" d="M886.58,-158.99C894.1,-157.36 903.68,-155.4 912.28,-154.02 981.42,-142.98 1178.68,-170.28 1225.28,-118.02 1239.92,-101.6 1239.81,-85.04 1225.28,-68.53 1183.84,-21.42 1004.64,-52.82 945.28,-32.53 944.02,-32.1 942.76,-31.61 941.51,-31.06"/>
<polygon fill="green" stroke="green" stroke-width="0.41" points="942.76,-27.77 932.27,-26.27 939.54,-33.98 942.76,-27.77"/>
</g>
<!-- &#45;4&#45;&gt;7 -->
<g id="edge151" class="edge">
<title>&#45;4&#45;&gt;7</title>
<path fill="none" stroke="red" stroke-width="0.12" d="M860.08,-160.95C795.3,-155.64 513.51,-131.79 501.28,-118.02 486.66,-101.58 486.79,-85.08 501.28,-68.53 541.15,-22.98 714.05,-52.24 771.28,-32.53 772.53,-32.1 773.79,-31.6 775.04,-31.06"/>
<polygon fill="red" stroke="red" stroke-width="0.12" points="777.02,-33.98 784.28,-26.26 773.79,-27.76 777.02,-33.98"/>
</g>
<!-- &#45;4&#45;&gt;458 -->
<g id="edge30" class="edge">
<title>&#45;4&#45;&gt;458</title>
<path fill="none" stroke="green" stroke-width="0.3" d="M863.31,-153.99C851.77,-144.67 832.27,-128.95 816.18,-115.97"/>
<polygon fill="green" stroke="green" stroke-width="0.3" points="818.12,-113.04 808.14,-109.49 813.72,-118.49 818.12,-113.04"/>
</g>
<!-- &#45;4&#45;&gt;459 -->
<g id="edge31" class="edge">
<title>&#45;4&#45;&gt;459</title>
<path fill="none" stroke="red" stroke-width="0.29" d="M871.26,-153.99C869.57,-147.26 867.04,-137.18 864.54,-127.21"/>
<polygon fill="red" stroke="red" stroke-width="0.29" points="867.91,-126.25 862.08,-117.4 861.12,-127.95 867.91,-126.25"/>
</g>
<!-- &#45;4&#45;&gt;460 -->
<g id="edge32" class="edge">
<title>&#45;4&#45;&gt;460</title>
<path fill="none" stroke="green" stroke-width="0.15" d="M879.21,-153.99C885.08,-146.03 894.4,-133.4 902.97,-121.8"/>
<polygon fill="green" stroke="green" stroke-width="0.15" points="905.88,-123.74 909.01,-113.61 900.25,-119.58 905.88,-123.74"/>
</g>
<!-- &#45;4&#45;&gt;461 -->
<g id="edge33" class="edge">
<title>&#45;4&#45;&gt;461</title>
<path fill="none" stroke="red" stroke-width="0.17" d="M886.4,-155.87C903.2,-147.82 933.04,-132.99 957.28,-118.02 958.94,-117 960.64,-115.91 962.33,-114.79"/>
<polygon fill="red" stroke="red" stroke-width="0.17" points="964.43,-117.6 970.69,-109.06 960.47,-111.83 964.43,-117.6"/>
</g>
<!-- &#45;4&#45;&gt;462 -->
<g id="edge34" class="edge">
<title>&#45;4&#45;&gt;462</title>
<path fill="none" stroke="red" stroke-width="0.11" d="M886.34,-158.83C918.22,-150.92 999.24,-130.23 1024.28,-118.02 1026.09,-117.14 1027.9,-116.16 1029.7,-115.12"/>
<polygon fill="red" stroke="red" stroke-width="0.11" points="1031.91,-117.86 1038.43,-109.5 1028.12,-111.97 1031.91,-117.86"/>
</g>
<!-- &#45;4&#45;&gt;463 -->
<g id="edge35" class="edge">
<title>&#45;4&#45;&gt;463</title>
<path fill="none" stroke="red" stroke-width="0.34" d="M860.02,-160.4C822.3,-155.64 711.31,-140.6 621.28,-118.02 608.31,-114.77 594.3,-110.36 582.12,-106.23"/>
<polygon fill="red" stroke="red" stroke-width="0.34" points="582.97,-102.82 572.37,-102.85 580.67,-109.43 582.97,-102.82"/>
</g>
<!-- &#45;4&#45;&gt;464 -->
<g id="edge36" class="edge">
<title>&#45;4&#45;&gt;464</title>
<path fill="none" stroke="red" stroke-width="0.2" d="M886.63,-159.27C894.16,-157.72 903.74,-155.76 912.28,-154.02 991.8,-137.87 1016.89,-150.46 1091.28,-118.02 1093.12,-117.22 1094.96,-116.3 1096.78,-115.3"/>
<polygon fill="red" stroke="red" stroke-width="0.2" points="1098.95,-118.08 1105.57,-109.81 1095.24,-112.14 1098.95,-118.08"/>
</g>
<!-- &#45;4&#45;&gt;465 -->
<g id="edge37" class="edge">
<title>&#45;4&#45;&gt;465</title>
<path fill="none" stroke="red" stroke-width="0.21" d="M886.6,-159.1C894.12,-157.49 903.7,-155.53 912.28,-154.02 1021.11,-134.91 1055.85,-159.48 1158.28,-118.02 1160.14,-117.27 1162,-116.39 1163.83,-115.42"/>
<polygon fill="red" stroke="red" stroke-width="0.21" points="1165.96,-118.22 1172.65,-110 1162.3,-112.25 1165.96,-118.22"/>
</g>
<!-- &#45;4&#45;&gt;466 -->
<g id="edge38" class="edge">
<title>&#45;4&#45;&gt;466</title>
<path fill="none" stroke="green" stroke-width="0.48" d="M860.15,-160.68C829.05,-157.11 748.93,-145.74 688.28,-118.02 686.45,-117.19 684.62,-116.24 682.81,-115.23"/>
<polygon fill="green" stroke="green" stroke-width="0.48" points="684.36,-112.07 674.04,-109.68 680.62,-117.99 684.36,-112.07"/>
</g>
<!-- &#45;4&#45;&gt;467 -->
<g id="edge39" class="edge">
<title>&#45;4&#45;&gt;467</title>
<path fill="none" stroke="red" stroke-width="0.39" d="M860.04,-158.35C837.68,-151.88 791.35,-137.28 755.28,-118.02 753.5,-117.08 751.71,-116.05 749.94,-114.96"/>
<polygon fill="red" stroke="red" stroke-width="0.39" points="751.54,-111.82 741.26,-109.24 747.68,-117.67 751.54,-111.82"/>
</g>
<!-- 458&#45;&gt;0 -->
<g id="edge40" class="edge">
<title>458&#45;&gt;0</title>
<path fill="none" stroke="green" stroke-width="0.15" d="M770.26,-77.1C754.36,-64.41 731.75,-46.36 715.52,-33.41"/>
<polygon fill="green" stroke="green" stroke-width="0.15" points="717.68,-30.66 707.68,-27.16 713.31,-36.13 717.68,-30.66"/>
</g>
<!-- 458&#45;&gt;1 -->
<g id="edge41" class="edge">
<title>458&#45;&gt;1</title>
<path fill="none" stroke="green" stroke-width="0.18" d="M806.1,-74.5C817.03,-62.95 831.26,-47.92 842.39,-36.16"/>
<polygon fill="green" stroke="green" stroke-width="0.18" points="845.2,-38.29 849.53,-28.62 840.11,-33.48 845.2,-38.29"/>
</g>
<!-- 458&#45;&gt;2 -->
<g id="edge42" class="edge">
<title>458&#45;&gt;2</title>
<path fill="none" stroke="green" stroke-width="0.39" d="M808,-76.77C812.46,-73.66 817.37,-70.69 822.28,-68.53 894.16,-36.9 922,-60.78 995.28,-32.53 996.51,-32.05 997.76,-31.52 999,-30.95"/>
<polygon fill="green" stroke="green" stroke-width="0.39" points="1001.02,-33.84 1008.2,-26.06 997.73,-27.66 1001.02,-33.84"/>
</g>
<!-- 458&#45;&gt;3 -->
<g id="edge43" class="edge">
<title>458&#45;&gt;3</title>
<path fill="none" stroke="red" stroke-width="0.52" d="M807.93,-76.6C812.4,-73.5 817.32,-70.57 822.28,-68.53 915.48,-30.04 951.39,-66.64 1046.28,-32.53 1047.52,-32.08 1048.78,-31.57 1050.03,-31.02"/>
<polygon fill="red" stroke="red" stroke-width="0.52" points="1052.02,-33.93 1059.25,-26.18 1048.77,-27.73 1052.02,-33.93"/>
</g>
<!-- 458&#45;&gt;4 -->
<g id="edge44" class="edge">
<title>458&#45;&gt;4</title>
<path fill="none" stroke="red" stroke-width="0.1" d="M808.13,-77.06C812.59,-73.94 817.46,-70.89 822.28,-68.53 873.05,-43.66 892.4,-55 944.28,-32.53 945.49,-32 946.72,-31.43 947.95,-30.83"/>
<polygon fill="red" stroke="red" stroke-width="0.1" points="950.01,-33.69 957.11,-25.83 946.66,-27.55 950.01,-33.69"/>
</g>
<!-- 458&#45;&gt;5 -->
<g id="edge45" class="edge">
<title>458&#45;&gt;5</title>
<path fill="none" stroke="red" stroke-width="0.48" d="M777.3,-71.38C771.65,-61.53 764.9,-49.75 759.14,-39.71"/>
<polygon fill="red" stroke="red" stroke-width="0.48" points="762,-37.66 753.99,-30.73 755.93,-41.14 762,-37.66"/>
</g>
<!-- 458&#45;&gt;6 -->
<g id="edge46" class="edge">
<title>458&#45;&gt;6</title>
<path fill="none" stroke="green" stroke-width="0.18" d="M808.87,-77.51C813.21,-74.42 817.84,-71.28 822.28,-68.53 846.62,-53.43 875.84,-38.38 895.8,-28.53"/>
<polygon fill="green" stroke="green" stroke-width="0.18" points="897.35,-31.67 904.8,-24.14 894.28,-25.38 897.35,-31.67"/>
</g>
<!-- 458&#45;&gt;7 -->
<g id="edge47" class="edge">
<title>458&#45;&gt;7</title>
<path fill="none" stroke="green" stroke-width="0.17" d="M791.81,-68.54C792.68,-60.33 793.67,-51.1 794.56,-42.76"/>
<polygon fill="green" stroke="green" stroke-width="0.17" points="798.04,-43.12 795.62,-32.81 791.08,-42.38 798.04,-43.12"/>
</g>
<!-- 459&#45;&gt;0 -->
<g id="edge48" class="edge">
<title>459&#45;&gt;0</title>
<path fill="none" stroke="green" stroke-width="0.14" d="M837.33,-77.25C832.87,-74.11 828.03,-71.01 823.28,-68.53 780.67,-46.26 764.87,-52.79 721.28,-32.53 720.1,-31.98 718.91,-31.4 717.72,-30.79"/>
<polygon fill="green" stroke="green" stroke-width="0.14" points="719.22,-27.62 708.78,-25.85 715.84,-33.75 719.22,-27.62"/>
</g>
<!-- 459&#45;&gt;1 -->
<g id="edge49" class="edge">
<title>459&#45;&gt;1</title>
<path fill="none" stroke="green" stroke-width="0.21" d="M857.54,-68.54C857.98,-60.42 858.46,-51.31 858.9,-43.04"/>
<polygon fill="green" stroke="green" stroke-width="0.21" points="862.41,-42.98 859.45,-32.81 855.42,-42.61 862.41,-42.98"/>
</g>
<!-- 459&#45;&gt;2 -->
<g id="edge50" class="edge">
<title>459&#45;&gt;2</title>
<path fill="none" stroke="red" stroke-width="0.33" d="M875.21,-77.21C879.66,-74.07 884.51,-70.98 889.28,-68.53 933.51,-45.75 950.04,-53.23 995.28,-32.53 996.46,-31.99 997.65,-31.41 998.84,-30.81"/>
<polygon fill="red" stroke="red" stroke-width="0.33" points="1000.72,-33.77 1007.79,-25.88 997.35,-27.64 1000.72,-33.77"/>
</g>
<!-- 459&#45;&gt;3 -->
<g id="edge51" class="edge">
<title>459&#45;&gt;3</title>
<path fill="none" stroke="red" stroke-width="0.55" d="M875.03,-76.84C879.5,-73.73 884.39,-70.74 889.28,-68.53 954.51,-39.04 979.75,-58.96 1046.28,-32.53 1047.51,-32.04 1048.75,-31.5 1049.99,-30.92"/>
<polygon fill="red" stroke="red" stroke-width="0.55" points="1052.01,-33.8 1059.18,-26 1048.71,-27.63 1052.01,-33.8"/>
</g>
<!-- 459&#45;&gt;4 -->
<g id="edge52" class="edge">
<title>459&#45;&gt;4</title>
<path fill="none" stroke="green" stroke-width="0.32" d="M876.04,-77.77C880.37,-74.67 884.95,-71.45 889.28,-68.53 908.76,-55.37 931.41,-41.12 947.79,-30.99"/>
<polygon fill="green" stroke="green" stroke-width="0.32" points="949.96,-33.77 956.65,-25.55 946.3,-27.81 949.96,-33.77"/>
</g>
<!-- 459&#45;&gt;5 -->
<g id="edge53" class="edge">
<title>459&#45;&gt;5</title>
<path fill="none" stroke="green" stroke-width="0.27" d="M836.47,-77.84C832.14,-74.74 827.57,-71.5 823.28,-68.53 804.73,-55.69 783.36,-41.51 767.85,-31.32"/>
<polygon fill="green" stroke="green" stroke-width="0.27" points="769.74,-28.38 759.45,-25.83 765.9,-34.23 769.74,-28.38"/>
</g>
<!-- 459&#45;&gt;6 -->
<g id="edge54" class="edge">
<title>459&#45;&gt;6</title>
<path fill="none" stroke="red" stroke-width="0.24" d="M871.85,-73.73C881.23,-62.56 893.17,-48.34 902.73,-36.97"/>
<polygon fill="red" stroke="red" stroke-width="0.24" points="905.44,-39.18 909.19,-29.27 900.08,-34.68 905.44,-39.18"/>
</g>
<!-- 459&#45;&gt;7 -->
<g id="edge55" class="edge">
<title>459&#45;&gt;7</title>
<path fill="none" stroke="green" stroke-width="0.2" d="M841.39,-73.35C832.79,-62.42 821.98,-48.67 813.22,-37.53"/>
<polygon fill="green" stroke="green" stroke-width="0.2" points="815.91,-35.29 806.98,-29.6 810.41,-39.62 815.91,-35.29"/>
</g>
<!-- 460&#45;&gt;0 -->
<g id="edge56" class="edge">
<title>460&#45;&gt;0</title>
<path fill="none" stroke="green" stroke-width="0.24" d="M904.55,-76.78C900.08,-73.67 895.18,-70.7 890.28,-68.53 820.06,-37.43 792.87,-60.32 721.28,-32.53 720.04,-32.05 718.8,-31.51 717.56,-30.94"/>
<polygon fill="green" stroke="green" stroke-width="0.24" points="718.83,-27.65 708.36,-26.04 715.54,-33.83 718.83,-27.65"/>
</g>
<!-- 460&#45;&gt;1 -->
<g id="edge57" class="edge">
<title>460&#45;&gt;1</title>
<path fill="none" stroke="green" stroke-width="0.19" d="M907.7,-73.73C898.32,-62.56 886.38,-48.34 876.83,-36.97"/>
<polygon fill="green" stroke="green" stroke-width="0.19" points="879.48,-34.68 870.36,-29.27 874.12,-39.18 879.48,-34.68"/>
</g>
<!-- 460&#45;&gt;2 -->
<g id="edge58" class="edge">
<title>460&#45;&gt;2</title>
<path fill="none" stroke="green" stroke-width="0.3" d="M942.64,-77.46C959.36,-64.66 983.46,-46.21 1000.56,-33.12"/>
<polygon fill="green" stroke="green" stroke-width="0.3" points="1002.98,-35.68 1008.79,-26.82 998.72,-30.12 1002.98,-35.68"/>
</g>
<!-- 460&#45;&gt;3 -->
<g id="edge59" class="edge">
<title>460&#45;&gt;3</title>
<path fill="none" stroke="red" stroke-width="0.49" d="M942.31,-77.39C946.76,-74.25 951.58,-71.11 956.28,-68.53 994.04,-47.79 1007.59,-51.49 1046.28,-32.53 1047.44,-31.96 1048.62,-31.35 1049.81,-30.73"/>
<polygon fill="red" stroke="red" stroke-width="0.49" points="1051.71,-33.68 1058.73,-25.74 1048.29,-27.57 1051.71,-33.68"/>
</g>
<!-- 460&#45;&gt;4 -->
<g id="edge60" class="edge">
<title>460&#45;&gt;4</title>
<path fill="none" stroke="red" stroke-width="0.12" d="M936.12,-71.78C942.51,-61.58 950.24,-49.25 956.72,-38.9"/>
<polygon fill="red" stroke="red" stroke-width="0.12" points="959.69,-40.75 962.04,-30.42 953.76,-37.03 959.69,-40.75"/>
</g>
<!-- 460&#45;&gt;5 -->
<g id="edge61" class="edge">
<title>460&#45;&gt;5</title>
<path fill="none" stroke="red" stroke-width="0.37" d="M904.41,-77.1C899.95,-73.97 895.08,-70.91 890.28,-68.53 841.15,-44.19 822.49,-54.56 772.28,-32.53 771.06,-31.99 769.84,-31.42 768.61,-30.81"/>
<polygon fill="red" stroke="red" stroke-width="0.37" points="769.91,-27.53 759.46,-25.81 766.55,-33.67 769.91,-27.53"/>
</g>
<!-- 460&#45;&gt;6 -->
<g id="edge62" class="edge">
<title>460&#45;&gt;6</title>
<path fill="none" stroke="green" stroke-width="0.72" d="M922.01,-68.54C921.58,-60.42 921.09,-51.31 920.65,-43.04"/>
<polygon fill="green" stroke="green" stroke-width="0.72" points="924.13,-42.61 920.11,-32.81 917.14,-42.98 924.13,-42.61"/>
</g>
<!-- 460&#45;&gt;7 -->
<g id="edge63" class="edge">
<title>460&#45;&gt;7</title>
<path fill="none" stroke="red" stroke-width="0.83" d="M903.65,-77.57C899.31,-74.48 894.69,-71.32 890.28,-68.53 867.19,-53.93 839.67,-39.06 820.59,-29.12"/>
<polygon fill="red" stroke="red" stroke-width="0.83" points="821.94,-25.87 811.44,-24.4 818.72,-32.09 821.94,-25.87"/>
</g>
<!-- 461&#45;&gt;0 -->
<g id="edge64" class="edge">
<title>461&#45;&gt;0</title>
<path fill="none" stroke="green" stroke-width="0.58" d="M971.64,-76.57C967.17,-73.47 962.24,-70.55 957.28,-68.53 859.05,-28.43 821.27,-68.02 721.28,-32.53 720.03,-32.08 718.77,-31.58 717.52,-31.03"/>
<polygon fill="green" stroke="green" stroke-width="0.58" points="718.78,-27.74 708.3,-26.21 715.54,-33.94 718.78,-27.74"/>
</g>
<!-- 461&#45;&gt;1 -->
<g id="edge65" class="edge">
<title>461&#45;&gt;1</title>
<path fill="none" stroke="red" stroke-width="0.38" d="M970.69,-77.51C966.35,-74.42 961.72,-71.28 957.28,-68.53 932.93,-53.43 903.71,-38.38 883.75,-28.53"/>
<polygon fill="red" stroke="red" stroke-width="0.38" points="885.28,-25.38 874.76,-24.14 882.21,-31.67 885.28,-25.38"/>
</g>
<!-- 461&#45;&gt;2 -->
<g id="edge66" class="edge">
<title>461&#45;&gt;2</title>
<path fill="none" stroke="red" stroke-width="0.24" d="M999.41,-70.18C1003.19,-61.03 1007.58,-50.42 1011.43,-41.1"/>
<polygon fill="red" stroke="red" stroke-width="0.24" points="1014.75,-42.22 1015.34,-31.64 1008.28,-39.54 1014.75,-42.22"/>
</g>
<!-- 461&#45;&gt;3 -->
<g id="edge67" class="edge">
<title>461&#45;&gt;3</title>
<path fill="none" stroke="green" stroke-width="0.82" d="M1008.07,-76C1021.3,-63.9 1039.34,-47.4 1052.93,-34.97"/>
<polygon fill="green" stroke="green" stroke-width="0.82" points="1055.33,-37.51 1060.34,-28.18 1050.6,-32.35 1055.33,-37.51"/>
</g>
<!-- 461&#45;&gt;4 -->
<g id="edge68" class="edge">
<title>461&#45;&gt;4</title>
<path fill="none" stroke="red" stroke-width="0.39" d="M984.06,-68.95C981.78,-60.39 979.19,-50.67 976.87,-41.99"/>
<polygon fill="red" stroke="red" stroke-width="0.39" points="980.18,-40.83 974.22,-32.07 973.42,-42.63 980.18,-40.83"/>
</g>
<!-- 461&#45;&gt;5 -->
<g id="edge69" class="edge">
<title>461&#45;&gt;5</title>
<path fill="none" stroke="red" stroke-width="0.33" d="M971.58,-76.72C967.11,-73.61 962.2,-70.66 957.28,-68.53 880.39,-35.29 850.63,-62.15 772.28,-32.53 771.04,-32.06 769.79,-31.53 768.55,-30.97"/>
<polygon fill="red" stroke="red" stroke-width="0.33" points="769.81,-27.68 759.34,-26.09 766.54,-33.86 769.81,-27.68"/>
</g>
<!-- 461&#45;&gt;6 -->
<g id="edge70" class="edge">
<title>461&#45;&gt;6</title>
<path fill="none" stroke="green" stroke-width="0.36" stroke-dasharray="1,5" d="M973.45,-74.5C962.52,-62.95 948.29,-47.92 937.16,-36.16"/>
<polygon fill="green" stroke="green" stroke-width="0.36" points="939.44,-33.48 930.03,-28.62 934.36,-38.29 939.44,-33.48"/>
</g>
<!-- 461&#45;&gt;7 -->
<g id="edge71" class="edge">
<title>461&#45;&gt;7</title>
<path fill="none" stroke="green" stroke-width="0.42" d="M971.42,-77.06C966.96,-73.94 962.1,-70.89 957.28,-68.53 906.51,-43.66 888.68,-51.08 835.28,-32.53 830.77,-30.96 826.02,-29.17 821.46,-27.38"/>
<polygon fill="green" stroke="green" stroke-width="0.42" points="822.54,-24.04 811.95,-23.54 819.91,-30.53 822.54,-24.04"/>
</g>
<!-- 462&#45;&gt;0 -->
<g id="edge72" class="edge">
<title>462&#45;&gt;0</title>
<path fill="none" stroke="green" stroke-width="0.28" d="M1038.69,-76.45C1034.22,-73.36 1029.28,-70.47 1024.28,-68.53 897.89,-19.36 849.81,-75.77 721.28,-32.53 720.02,-32.1 718.76,-31.62 717.51,-31.08"/>
<polygon fill="green" stroke="green" stroke-width="0.28" points="718.75,-27.78 708.26,-26.3 715.54,-34 718.75,-27.78"/>
</g>
<!-- 462&#45;&gt;1 -->
<g id="edge73" class="edge">
<title>462&#45;&gt;1</title>
<path fill="none" stroke="red" stroke-width="0.95" d="M1038.45,-77C1033.99,-73.88 1029.12,-70.85 1024.28,-68.53 970.22,-42.61 950.68,-52.86 894.28,-32.53 890.89,-31.3 887.36,-29.89 883.93,-28.43"/>
<polygon fill="red" stroke="red" stroke-width="0.95" points="885.2,-25.16 874.64,-24.29 882.35,-31.56 885.2,-25.16"/>
</g>
<!-- 462&#45;&gt;2 -->
<g id="edge74" class="edge">
<title>462&#45;&gt;2</title>
<path fill="none" stroke="red" stroke-width="0.24" d="M1046.87,-70.58C1042.36,-61.2 1037.09,-50.21 1032.5,-40.65"/>
<polygon fill="red" stroke="red" stroke-width="0.24" points="1035.51,-38.84 1028.03,-31.34 1029.2,-41.87 1035.51,-38.84"/>
</g>
<!-- 462&#45;&gt;3 -->
<g id="edge75" class="edge">
<title>462&#45;&gt;3</title>
<path fill="none" stroke="red" stroke-width="0.64" d="M1061.94,-68.95C1063.63,-60.51 1065.54,-50.95 1067.26,-42.37"/>
<polygon fill="red" stroke="red" stroke-width="0.64" points="1070.7,-43.01 1069.23,-32.52 1063.83,-41.64 1070.7,-43.01"/>
</g>
<!-- 462&#45;&gt;4 -->
<g id="edge76" class="edge">
<title>462&#45;&gt;4</title>
<path fill="none" stroke="green" stroke-width="0.16" d="M1038.83,-76.37C1024.57,-64.07 1004.86,-47.08 990.23,-34.47"/>
<polygon fill="green" stroke="green" stroke-width="0.16" points="992.15,-31.5 982.29,-27.62 987.58,-36.8 992.15,-31.5"/>
</g>
<!-- 462&#45;&gt;5 -->
<g id="edge77" class="edge">
<title>462&#45;&gt;5</title>
<path fill="none" stroke="green" stroke-width="0.41" d="M1038.66,-76.54C1034.18,-73.44 1029.25,-70.53 1024.28,-68.53 919.33,-26.26 879.07,-69.87 772.28,-32.53 771.03,-32.09 769.77,-31.59 768.52,-31.04"/>
<polygon fill="green" stroke="green" stroke-width="0.41" points="769.77,-27.75 759.29,-26.23 766.54,-33.96 769.77,-27.75"/>
</g>
<!-- 462&#45;&gt;6 -->
<g id="edge78" class="edge">
<title>462&#45;&gt;6</title>
<path fill="none" stroke="green" stroke-width="0.31" d="M1038.16,-77.56C1033.71,-74.41 1028.92,-71.22 1024.28,-68.53 990.9,-49.16 979.52,-50.32 945.28,-32.53 944.13,-31.93 942.96,-31.31 941.78,-30.66"/>
<polygon fill="green" stroke="green" stroke-width="0.31" points="943.32,-27.51 932.89,-25.61 939.86,-33.6 943.32,-27.51"/>
</g>
<!-- 462&#45;&gt;7 -->
<g id="edge79" class="edge">
<title>462&#45;&gt;7</title>
<path fill="none" stroke="red" stroke-width="0.37" d="M1038.59,-76.71C1034.12,-73.6 1029.21,-70.65 1024.28,-68.53 945.72,-34.75 917.34,-56.58 835.28,-32.53 830.7,-31.19 825.92,-29.5 821.34,-27.74"/>
<polygon fill="red" stroke="red" stroke-width="0.37" points="822.42,-24.4 811.84,-23.88 819.79,-30.89 822.42,-24.4"/>
</g>
<!-- 463&#45;&gt;0 -->
<g id="edge80" class="edge">
<title>463&#45;&gt;0</title>
<path fill="none" stroke="green" stroke-width="0.34" d="M570.1,-79.07C575.92,-75.52 582.28,-71.78 588.28,-68.53 616.23,-53.37 649.37,-37.85 671.29,-27.92"/>
<polygon fill="green" stroke="green" stroke-width="0.34" points="672.82,-31.07 680.51,-23.77 669.95,-24.69 672.82,-31.07"/>
</g>
<!-- 463&#45;&gt;1 -->
<g id="edge81" class="edge">
<title>463&#45;&gt;1</title>
<path fill="none" stroke="green" stroke-width="0.45" d="M569.15,-78.11C575.07,-74.47 581.72,-70.92 588.28,-68.53 687.13,-32.46 720.79,-60.32 822.28,-32.53 826.88,-31.27 831.67,-29.62 836.25,-27.88"/>
<polygon fill="green" stroke="green" stroke-width="0.45" points="837.81,-31.02 845.75,-24.01 835.17,-24.54 837.81,-31.02"/>
</g>
<!-- 463&#45;&gt;2 -->
<g id="edge82" class="edge">
<title>463&#45;&gt;2</title>
<path fill="none" stroke="red" stroke-width="0.61" d="M572.26,-83.24C586.23,-78.12 604.53,-72.05 621.28,-68.53 784.69,-34.16 836.42,-84.01 995.28,-32.53 996.54,-32.12 997.8,-31.64 999.06,-31.11"/>
<polygon fill="red" stroke="red" stroke-width="0.61" points="1001.02,-34.04 1008.31,-26.36 997.82,-27.82 1001.02,-34.04"/>
</g>
<!-- 463&#45;&gt;3 -->
<g id="edge83" class="edge">
<title>463&#45;&gt;3</title>
<path fill="none" stroke="green" stroke-width="0.71" d="M571.93,-83.29C585.93,-78.12 604.38,-71.98 621.28,-68.53 807.01,-30.58 865.61,-89.94 1046.28,-32.53 1047.54,-32.13 1048.81,-31.65 1050.07,-31.13"/>
<polygon fill="green" stroke="green" stroke-width="0.71" points="1052.01,-34.07 1059.32,-26.39 1048.83,-27.83 1052.01,-34.07"/>
</g>
<!-- 463&#45;&gt;4 -->
<g id="edge84" class="edge">
<title>463&#45;&gt;4</title>
<path fill="none" stroke="red" stroke-width="0.41" d="M569.08,-77.88C574.99,-74.25 581.66,-70.75 588.28,-68.53 739.04,-17.92 793.11,-81.92 944.28,-32.53 945.54,-32.12 946.8,-31.64 948.06,-31.11"/>
<polygon fill="red" stroke="red" stroke-width="0.41" points="950.02,-34.04 957.31,-26.35 946.81,-27.81 950.02,-34.04"/>
</g>
<!-- 463&#45;&gt;5 -->
<g id="edge85" class="edge">
<title>463&#45;&gt;5</title>
<path fill="none" stroke="red" stroke-width="0.23" d="M569.34,-78.58C575.26,-74.95 581.87,-71.29 588.28,-68.53 644.13,-44.48 664.23,-56.13 720.28,-32.53 721.5,-32.01 722.73,-31.45 723.96,-30.86"/>
<polygon fill="red" stroke="red" stroke-width="0.23" points="726.01,-33.73 733.14,-25.89 722.68,-27.57 726.01,-33.73"/>
</g>
<!-- 463&#45;&gt;6 -->
<g id="edge86" class="edge">
<title>463&#45;&gt;6</title>
<path fill="none" stroke="red" stroke-width="0.12" stroke-dasharray="1,5" d="M569.11,-77.97C575.02,-74.33 581.69,-70.81 588.28,-68.53 713.9,-24.96 757.17,-68.16 885.28,-32.53 888.75,-31.56 892.32,-30.29 895.78,-28.9"/>
<polygon fill="red" stroke="red" stroke-width="0.12" points="897.35,-32.04 905.08,-24.79 894.51,-25.63 897.35,-32.04"/>
</g>
<!-- 463&#45;&gt;7 -->
<g id="edge87" class="edge">
<title>463&#45;&gt;7</title>
<path fill="none" stroke="red" stroke-width="0.43" d="M569.22,-78.28C575.13,-74.65 581.78,-71.05 588.28,-68.53 665.54,-38.51 693.77,-61.92 771.28,-32.53 772.52,-32.06 773.76,-31.53 775.01,-30.96"/>
<polygon fill="red" stroke="red" stroke-width="0.43" points="777.02,-33.86 784.21,-26.09 773.74,-27.68 777.02,-33.86"/>
</g>
<!-- 464&#45;&gt;0 -->
<g id="edge88" class="edge">
<title>464&#45;&gt;0</title>
<path fill="none" stroke="green" stroke-width="0.2" d="M1105.72,-76.37C1101.25,-73.28 1096.3,-70.42 1091.28,-68.53 936.67,-10.26 878.42,-83.55 721.28,-32.53 720.02,-32.12 718.75,-31.64 717.5,-31.11"/>
<polygon fill="green" stroke="green" stroke-width="0.2" points="718.74,-27.82 708.24,-26.36 715.54,-34.04 718.74,-27.82"/>
</g>
<!-- 464&#45;&gt;1 -->
<g id="edge89" class="edge">
<title>464&#45;&gt;1</title>
<path fill="none" stroke="red" stroke-width="0.45" d="M1105.6,-76.68C1101.13,-73.57 1096.21,-70.63 1091.28,-68.53 1009.38,-33.68 979.27,-58.94 894.28,-32.53 890.84,-31.46 887.28,-30.13 883.83,-28.71"/>
<polygon fill="red" stroke="red" stroke-width="0.45" points="885.1,-25.44 874.54,-24.59 882.26,-31.84 885.1,-25.44"/>
</g>
<!-- 464&#45;&gt;2 -->
<g id="edge90" class="edge">
<title>464&#45;&gt;2</title>
<path fill="none" stroke="red" stroke-width="0.16" d="M1104.42,-77.81C1086.53,-64.79 1060.34,-45.71 1042.15,-32.46"/>
<polygon fill="red" stroke="red" stroke-width="0.16" points="1044.08,-29.54 1033.93,-26.48 1039.96,-35.2 1044.08,-29.54"/>
</g>
<!-- 464&#45;&gt;3 -->
<g id="edge91" class="edge">
<title>464&#45;&gt;3</title>
<path fill="none" stroke="green" stroke-width="0.15" d="M1110.62,-72.57C1103.37,-62.12 1094.47,-49.28 1087.07,-38.6"/>
<polygon fill="green" stroke="green" stroke-width="0.15" points="1089.85,-36.46 1081.27,-30.24 1084.09,-40.45 1089.85,-36.46"/>
</g>
<!-- 464&#45;&gt;4 -->
<g id="edge92" class="edge">
<title>464&#45;&gt;4</title>
<path fill="none" stroke="green" stroke-width="0.1" d="M1105.29,-77.33C1100.83,-74.19 1096,-71.07 1091.28,-68.53 1051.5,-47.16 1037,-52.03 996.28,-32.53 995.11,-31.97 993.92,-31.37 992.74,-30.76"/>
<polygon fill="green" stroke="green" stroke-width="0.1" points="994.25,-27.59 983.81,-25.79 990.84,-33.71 994.25,-27.59"/>
</g>
<!-- 464&#45;&gt;5 -->
<g id="edge93" class="edge">
<title>464&#45;&gt;5</title>
<path fill="none" stroke="red" stroke-width="0.18" d="M1105.7,-76.43C1101.22,-73.33 1096.28,-70.46 1091.28,-68.53 958.16,-17.19 907.64,-77.63 772.28,-32.53 771.02,-32.11 769.76,-31.62 768.5,-31.09"/>
<polygon fill="red" stroke="red" stroke-width="0.18" points="769.75,-27.79 759.26,-26.32 766.54,-34.01 769.75,-27.79"/>
</g>
<!-- 464&#45;&gt;6 -->
<g id="edge94" class="edge">
<title>464&#45;&gt;6</title>
<path fill="none" stroke="green" stroke-width="0.52" d="M1105.5,-76.9C1101.03,-73.78 1096.15,-70.78 1091.28,-68.53 1030.61,-40.5 1007.19,-57.71 945.28,-32.53 944.05,-32.03 942.81,-31.48 941.58,-30.89"/>
<polygon fill="green" stroke="green" stroke-width="0.52" points="942.86,-27.61 932.39,-25.96 939.54,-33.77 942.86,-27.61"/>
</g>
<!-- 464&#45;&gt;7 -->
<g id="edge95" class="edge">
<title>464&#45;&gt;7</title>
<path fill="none" stroke="green" stroke-width="0.43" d="M1105.66,-76.53C1101.19,-73.43 1096.26,-70.53 1091.28,-68.53 984.65,-25.72 946.29,-62.16 835.28,-32.53 830.67,-31.3 825.87,-29.66 821.29,-27.92"/>
<polygon fill="green" stroke="green" stroke-width="0.43" points="822.37,-24.59 811.79,-24.06 819.74,-31.07 822.37,-24.59"/>
</g>
<!-- 465&#45;&gt;0 -->
<g id="edge96" class="edge">
<title>465&#45;&gt;0</title>
<path fill="none" stroke="red" stroke-width="0.52" d="M1172.74,-76.31C1168.26,-73.23 1163.31,-70.38 1158.28,-68.53 975.41,-1.15 907.07,-91.33 721.28,-32.53 720.01,-32.13 718.75,-31.66 717.49,-31.13"/>
<polygon fill="red" stroke="red" stroke-width="0.52" points="718.73,-27.84 708.23,-26.4 715.54,-34.07 718.73,-27.84"/>
</g>
<!-- 465&#45;&gt;1 -->
<g id="edge97" class="edge">
<title>465&#45;&gt;1</title>
<path fill="none" stroke="red" stroke-width="0.18" d="M1172.67,-76.51C1168.19,-73.42 1163.26,-70.52 1158.28,-68.53 1048.29,-24.64 1008.13,-65.11 894.28,-32.53 890.81,-31.54 887.25,-30.25 883.79,-28.85"/>
<polygon fill="red" stroke="red" stroke-width="0.18" points="885.05,-25.59 874.49,-24.74 882.22,-31.99 885.05,-25.59"/>
</g>
<!-- 465&#45;&gt;2 -->
<g id="edge98" class="edge">
<title>465&#45;&gt;2</title>
<path fill="none" stroke="red" stroke-width="0.62" d="M1172.37,-77.16C1167.92,-74.03 1163.06,-70.95 1158.28,-68.53 1112.01,-45.1 1094.59,-53.78 1047.28,-32.53 1046.1,-32 1044.9,-31.43 1043.7,-30.83"/>
<polygon fill="red" stroke="red" stroke-width="0.62" points="1045.2,-27.65 1034.74,-25.92 1041.83,-33.79 1045.2,-27.65"/>
</g>
<!-- 465&#45;&gt;3 -->
<g id="edge99" class="edge">
<title>465&#45;&gt;3</title>
<path fill="none" stroke="red" stroke-width="0.28" d="M1171.58,-77.68C1167.24,-74.59 1162.65,-71.39 1158.28,-68.53 1137.31,-54.77 1112.66,-40.24 1095.14,-30.17"/>
<polygon fill="red" stroke="red" stroke-width="0.28" points="1096.63,-26.99 1086.21,-25.07 1093.16,-33.07 1096.63,-26.99"/>
</g>
<!-- 465&#45;&gt;4 -->
<g id="edge100" class="edge">
<title>465&#45;&gt;4</title>
<path fill="none" stroke="red" stroke-width="0.11" d="M1172.54,-76.82C1168.07,-73.7 1163.17,-70.72 1158.28,-68.53 1090.97,-38.37 1064.92,-59.53 996.28,-32.53 995.04,-32.04 993.8,-31.5 992.56,-30.93"/>
<polygon fill="red" stroke="red" stroke-width="0.11" points="993.84,-27.64 983.37,-26.02 990.54,-33.82 993.84,-27.64"/>
</g>
<!-- 465&#45;&gt;5 -->
<g id="edge101" class="edge">
<title>465&#45;&gt;5</title>
<path fill="none" stroke="green" stroke-width="0.5" d="M1172.73,-76.35C1168.25,-73.27 1163.3,-70.41 1158.28,-68.53 996.93,-8.09 936.26,-85.4 772.28,-32.53 771.02,-32.12 769.75,-31.64 768.49,-31.12"/>
<polygon fill="green" stroke="green" stroke-width="0.5" points="769.74,-27.82 759.24,-26.37 766.54,-34.05 769.74,-27.82"/>
</g>
<!-- 465&#45;&gt;6 -->
<g id="edge102" class="edge">
<title>465&#45;&gt;6</title>
<path fill="none" stroke="red" stroke-width="0.26" d="M1172.62,-76.63C1168.15,-73.53 1163.23,-70.59 1158.28,-68.53 1069.68,-31.53 1035.49,-65.37 945.28,-32.53 944.03,-32.07 942.78,-31.56 941.53,-31"/>
<polygon fill="red" stroke="red" stroke-width="0.26" points="942.79,-27.71 932.31,-26.16 939.54,-33.91 942.79,-27.71"/>
</g>
<!-- 465&#45;&gt;7 -->
<g id="edge103" class="edge">
<title>465&#45;&gt;7</title>
<path fill="none" stroke="green" stroke-width="0.31" d="M1172.7,-76.42C1168.23,-73.33 1163.28,-70.45 1158.28,-68.53 1023.47,-16.64 975.36,-67.77 835.28,-32.53 830.65,-31.36 825.85,-29.76 821.27,-28.03"/>
<polygon fill="green" stroke="green" stroke-width="0.31" points="822.35,-24.69 811.77,-24.16 819.7,-31.18 822.35,-24.69"/>
</g>
<!-- 466&#45;&gt;0 -->
<g id="edge104" class="edge">
<title>466&#45;&gt;0</title>
<path fill="none" stroke="red" stroke-width="0.92" d="M666.63,-70.98C671.81,-61.26 677.95,-49.75 683.22,-39.88"/>
<polygon fill="red" stroke="red" stroke-width="0.92" points="686.32,-41.5 687.94,-31.03 680.14,-38.21 686.32,-41.5"/>
</g>
<!-- 466&#45;&gt;1 -->
<g id="edge105" class="edge">
<title>466&#45;&gt;1</title>
<path fill="none" stroke="red" stroke-width="0.58" d="M674.09,-76.97C678.55,-73.85 683.43,-70.83 688.28,-68.53 743.99,-42.09 763.78,-52.05 822.28,-32.53 826.8,-31.02 831.56,-29.25 836.12,-27.47"/>
<polygon fill="red" stroke="red" stroke-width="0.58" points="837.67,-30.62 845.63,-23.62 835.05,-24.13 837.67,-30.62"/>
</g>
<!-- 466&#45;&gt;2 -->
<g id="edge106" class="edge">
<title>466&#45;&gt;2</title>
<path fill="none" stroke="green" stroke-width="0.18" d="M673.86,-76.44C678.34,-73.35 683.28,-70.47 688.28,-68.53 816.35,-18.81 865.04,-76.24 995.28,-32.53 996.53,-32.11 997.8,-31.62 999.05,-31.08"/>
<polygon fill="green" stroke="green" stroke-width="0.18" points="1001.02,-34.01 1008.29,-26.3 997.8,-27.79 1001.02,-34.01"/>
</g>
<!-- 466&#45;&gt;3 -->
<g id="edge107" class="edge">
<title>466&#45;&gt;3</title>
<path fill="none" stroke="green" stroke-width="0.56" d="M673.84,-76.38C678.31,-73.29 683.26,-70.43 688.28,-68.53 837.83,-11.89 894.26,-82.15 1046.28,-32.53 1047.54,-32.12 1048.8,-31.64 1050.06,-31.11"/>
<polygon fill="green" stroke="green" stroke-width="0.56" points="1052.02,-34.04 1059.31,-26.35 1048.81,-27.81 1052.02,-34.04"/>
</g>
<!-- 466&#45;&gt;4 -->
<g id="edge108" class="edge">
<title>466&#45;&gt;4</title>
<path fill="none" stroke="red" stroke-width="0.18" d="M673.9,-76.53C678.37,-73.43 683.3,-70.53 688.28,-68.53 794.9,-25.72 835.78,-70.33 944.28,-32.53 945.53,-32.09 946.79,-31.59 948.04,-31.05"/>
<polygon fill="red" stroke="red" stroke-width="0.18" points="950.02,-33.96 957.27,-26.24 946.78,-27.75 950.02,-33.96"/>
</g>
<!-- 466&#45;&gt;5 -->
<g id="edge109" class="edge">
<title>466&#45;&gt;5</title>
<path fill="none" stroke="red" stroke-width="0.15" d="M674.13,-76.73C689.33,-64.21 710.65,-46.63 726.17,-33.83"/>
<polygon fill="red" stroke="red" stroke-width="0.15" points="728.63,-36.34 734.12,-27.28 724.18,-30.94 728.63,-36.34"/>
</g>
<!-- 466&#45;&gt;6 -->
<g id="edge110" class="edge">
<title>466&#45;&gt;6</title>
<path fill="none" stroke="green" stroke-width="0.16" d="M673.96,-76.68C678.43,-73.57 683.34,-70.63 688.28,-68.53 770.18,-33.68 800.28,-58.94 885.28,-32.53 888.72,-31.46 892.27,-30.13 895.72,-28.71"/>
<polygon fill="green" stroke="green" stroke-width="0.16" points="897.29,-31.84 905.02,-24.59 894.46,-25.44 897.29,-31.84"/>
</g>
<!-- 466&#45;&gt;7 -->
<g id="edge111" class="edge">
<title>466&#45;&gt;7</title>
<path fill="none" stroke="red" stroke-width="0.32" d="M674.36,-77.49C678.81,-74.35 683.61,-71.18 688.28,-68.53 723.24,-48.67 735.43,-50.74 771.28,-32.53 772.43,-31.94 773.61,-31.32 774.79,-30.69"/>
<polygon fill="red" stroke="red" stroke-width="0.32" points="776.7,-33.63 783.69,-25.66 773.26,-27.53 776.7,-33.63"/>
</g>
<!-- 467&#45;&gt;0 -->
<g id="edge112" class="edge">
<title>467&#45;&gt;0</title>
<path fill="none" stroke="green" stroke-width="0.11" d="M714.18,-69.77C710.97,-60.86 707.28,-50.61 704.02,-41.54"/>
<polygon fill="green" stroke="green" stroke-width="0.11" points="707.24,-40.16 700.56,-31.94 700.65,-42.53 707.24,-40.16"/>
</g>
<!-- 467&#45;&gt;1 -->
<g id="edge113" class="edge">
<title>467&#45;&gt;1</title>
<path fill="none" stroke="green" stroke-width="0.2" d="M741.8,-77.4C746.15,-74.32 750.8,-71.21 755.28,-68.53 782.03,-52.53 814.5,-37.27 836.18,-27.62"/>
<polygon fill="green" stroke="green" stroke-width="0.2" points="837.86,-30.71 845.61,-23.48 835.04,-24.3 837.86,-30.71"/>
</g>
<!-- 467&#45;&gt;2 -->
<g id="edge114" class="edge">
<title>467&#45;&gt;2</title>
<path fill="none" stroke="green" stroke-width="0.36" d="M740.91,-76.56C745.38,-73.46 750.31,-70.55 755.28,-68.53 855.19,-27.88 893.59,-68.48 995.28,-32.53 996.53,-32.09 997.78,-31.58 999.03,-31.03"/>
<polygon fill="green" stroke="green" stroke-width="0.36" points="1001.02,-33.94 1008.26,-26.21 997.78,-27.74 1001.02,-33.94"/>
</g>
<!-- 467&#45;&gt;3 -->
<g id="edge115" class="edge">
<title>467&#45;&gt;3</title>
<path fill="none" stroke="green" stroke-width="0.16" d="M740.87,-76.47C745.35,-73.37 750.28,-70.48 755.28,-68.53 876.62,-20.98 922.86,-74.38 1046.28,-32.53 1047.53,-32.1 1048.79,-31.61 1050.05,-31.07"/>
<polygon fill="green" stroke="green" stroke-width="0.16" points="1052.02,-33.99 1059.29,-26.29 1048.8,-27.78 1052.02,-33.99"/>
</g>
<!-- 467&#45;&gt;4 -->
<g id="edge116" class="edge">
<title>467&#45;&gt;4</title>
<path fill="none" stroke="green" stroke-width="0.14" d="M740.97,-76.71C745.44,-73.6 750.35,-70.65 755.28,-68.53 833.84,-34.75 864.24,-62.61 944.28,-32.53 945.52,-32.06 946.77,-31.54 948.01,-30.97"/>
<polygon fill="green" stroke="green" stroke-width="0.14" points="950.02,-33.87 957.22,-26.1 946.74,-27.68 950.02,-33.87"/>
</g>
<!-- 467&#45;&gt;5 -->
<g id="edge117" class="edge">
<title>467&#45;&gt;5</title>
<path fill="none" stroke="red" stroke-width="0.26" d="M729.61,-69.36C732.38,-60.69 735.55,-50.79 738.38,-41.96"/>
<polygon fill="red" stroke="red" stroke-width="0.26" points="741.78,-42.82 741.49,-32.23 735.11,-40.69 741.78,-42.82"/>
</g>
<!-- 467&#45;&gt;6 -->
<g id="edge118" class="edge">
<title>467&#45;&gt;6</title>
<path fill="none" stroke="green" stroke-width="0.57" d="M741.1,-77C745.57,-73.88 750.44,-70.85 755.28,-68.53 809.34,-42.61 828.88,-52.86 885.28,-32.53 888.67,-31.3 892.19,-29.89 895.63,-28.43"/>
<polygon fill="green" stroke="green" stroke-width="0.57" points="897.21,-31.56 904.92,-24.29 894.36,-25.16 897.21,-31.56"/>
</g>
<!-- 467&#45;&gt;7 -->
<g id="edge119" class="edge">
<title>467&#45;&gt;7</title>
<path fill="none" stroke="green" stroke-width="0.22" d="M739.3,-75.25C751.07,-63.48 766.72,-47.83 778.8,-35.75"/>
<polygon fill="green" stroke="green" stroke-width="0.22" points="781.54,-37.95 786.14,-28.4 776.59,-33 781.54,-37.95"/>
</g>
</g>
</svg>
