<?xml version="1.0" encoding="UTF-8" standalone="no"?>
<!DOCTYPE svg PUBLIC "-//W3C//DTD SVG 1.1//EN"
 "http://www.w3.org/Graphics/SVG/1.1/DTD/svg11.dtd">
<!-- Generated by graphviz version 2.44.0 (0)
 -->
<!-- Pages: 1 -->
<svg width="1433pt" height="266pt"
 viewBox="0.00 0.00 1433.47 265.52" xmlns="http://www.w3.org/2000/svg" xmlns:xlink="http://www.w3.org/1999/xlink">
<g id="graph0" class="graph" transform="scale(1 1) rotate(0) translate(4 261.52)">
<polygon fill="white" stroke="transparent" points="-4,4 -4,-261.52 1429.47,-261.52 1429.47,4 -4,4"/>
<!-- &#45;1 -->
<g id="node1" class="node">
<title>&#45;1</title>
<polygon fill="lightgray" stroke="black" points="589.41,-257.52 563.41,-257.52 563.41,-239.52 589.41,-239.52 589.41,-257.52"/>
<text text-anchor="middle" x="576.41" y="-246.32" font-family="Times-Roman" font-size="9.00">&#45;1</text>
</g>
<!-- 0 -->
<g id="node5" class="node">
<title>0</title>
<ellipse fill="lightblue" stroke="black" cx="943.41" cy="-93.28" rx="16.03" ry="16.03"/>
<text text-anchor="middle" x="943.41" y="-91.08" font-family="Times-Roman" font-size="9.00">0</text>
</g>
<!-- &#45;1&#45;&gt;0 -->
<g id="edge100" class="edge">
<title>&#45;1&#45;&gt;0</title>
<path fill="none" stroke="green" stroke-width="0.23" d="M589.47,-245.46C600.19,-243.8 615.77,-241.42 629.41,-239.52 692.21,-230.79 864.35,-244.87 912.41,-203.52 936.37,-182.91 942.48,-145.29 943.7,-120.03"/>
<polygon fill="green" stroke="green" stroke-width="0.23" points="947.21,-119.81 943.96,-109.73 940.21,-119.63 947.21,-119.81"/>
</g>
<!-- 1 -->
<g id="node6" class="node">
<title>1</title>
<ellipse fill="lightblue" stroke="black" cx="667.41" cy="-16.26" rx="16.03" ry="16.03"/>
<text text-anchor="middle" x="667.41" y="-14.06" font-family="Times-Roman" font-size="9.00">1</text>
</g>
<!-- &#45;1&#45;&gt;1 -->
<g id="edge101" class="edge">
<title>&#45;1&#45;&gt;1</title>
<path fill="none" stroke="green" stroke-width="0.24" d="M563.18,-247.54C481.61,-247.52 49.2,-245.44 10.41,-203.52 -4.53,-187.37 -1.99,-172.19 10.41,-154.02 83.63,-46.84 527.16,-22.63 640.87,-18.16"/>
<polygon fill="green" stroke="green" stroke-width="0.24" points="641.24,-21.65 651.11,-17.77 640.98,-14.65 641.24,-21.65"/>
</g>
<!-- 2 -->
<g id="node7" class="node">
<title>2</title>
<ellipse fill="lightblue" stroke="black" cx="535.41" cy="-93.28" rx="16.03" ry="16.03"/>
<text text-anchor="middle" x="535.41" y="-91.08" font-family="Times-Roman" font-size="9.00">2</text>
</g>
<!-- &#45;1&#45;&gt;2 -->
<g id="edge102" class="edge">
<title>&#45;1&#45;&gt;2</title>
<path fill="none" stroke="red" stroke-width="0.19" d="M563.28,-247.51C483.21,-247.31 63.09,-244.33 25.41,-203.52 10.49,-187.36 10.6,-170.29 25.41,-154.02 54.42,-122.18 368.77,-124.08 411.41,-118.02 445.59,-113.17 484.65,-105.3 509.65,-99.96"/>
<polygon fill="red" stroke="red" stroke-width="0.19" points="510.41,-103.38 519.45,-97.84 508.93,-96.54 510.41,-103.38"/>
</g>
<!-- 3 -->
<g id="node8" class="node">
<title>3</title>
<ellipse fill="lightblue" stroke="black" cx="623.41" cy="-93.28" rx="16.03" ry="16.03"/>
<text text-anchor="middle" x="623.41" y="-91.08" font-family="Times-Roman" font-size="9.00">3</text>
</g>
<!-- &#45;1&#45;&gt;3 -->
<g id="edge103" class="edge">
<title>&#45;1&#45;&gt;3</title>
<path fill="none" stroke="green" stroke-width="0.53" d="M563.12,-246.84C502.68,-243.59 255.67,-228.82 233.41,-203.52 218.88,-187.01 218.73,-170.41 233.41,-154.02 282.2,-99.58 489.32,-135.05 560.41,-118.02 573.69,-114.84 587.96,-109.62 599.56,-104.89"/>
<polygon fill="green" stroke="green" stroke-width="0.53" points="601.13,-108.02 608.98,-100.91 598.4,-101.58 601.13,-108.02"/>
</g>
<!-- 4 -->
<g id="node9" class="node">
<title>4</title>
<ellipse fill="lightblue" stroke="black" cx="823.41" cy="-93.28" rx="16.03" ry="16.03"/>
<text text-anchor="middle" x="823.41" y="-91.08" font-family="Times-Roman" font-size="9.00">4</text>
</g>
<!-- &#45;1&#45;&gt;4 -->
<g id="edge104" class="edge">
<title>&#45;1&#45;&gt;4</title>
<path fill="none" stroke="red" stroke-width="0.34" d="M589.51,-245.41C613.47,-241.04 665.12,-229.17 700.41,-203.52 722.85,-187.22 718.4,-173.22 738.41,-154.02 757.6,-135.63 782.85,-118.62 800.83,-107.49"/>
<polygon fill="red" stroke="red" stroke-width="0.34" points="802.77,-110.41 809.51,-102.23 799.14,-104.43 802.77,-110.41"/>
</g>
<!-- 5 -->
<g id="node10" class="node">
<title>5</title>
<ellipse fill="lightblue" stroke="black" cx="720.41" cy="-93.28" rx="16.03" ry="16.03"/>
<text text-anchor="middle" x="720.41" y="-91.08" font-family="Times-Roman" font-size="9.00">5</text>
</g>
<!-- &#45;1&#45;&gt;5 -->
<g id="edge105" class="edge">
<title>&#45;1&#45;&gt;5</title>
<path fill="none" stroke="red" stroke-width="0.13" d="M563.2,-247.93C507.2,-249.35 290.5,-251.63 248.41,-203.52 233.93,-186.96 233.57,-170.26 248.41,-154.02 278.52,-121.09 604.72,-127.07 648.41,-118.02 664.54,-114.69 682.1,-108.94 695.84,-103.93"/>
<polygon fill="red" stroke="red" stroke-width="0.13" points="697.38,-107.09 705.52,-100.3 694.93,-100.54 697.38,-107.09"/>
</g>
<!-- 396 -->
<g id="node12" class="node">
<title>396</title>
<ellipse fill="white" stroke="black" cx="1195.41" cy="-178.77" rx="25" ry="25"/>
<text text-anchor="middle" x="1195.41" y="-176.57" font-family="Times-Roman" font-size="9.00">396</text>
</g>
<!-- &#45;1&#45;&gt;396 -->
<g id="edge1" class="edge">
<title>&#45;1&#45;&gt;396</title>
<path fill="none" stroke="green" stroke-width="1.08" d="M589.44,-245.25C600.15,-243.46 615.72,-241.01 629.41,-239.52 747.43,-226.65 1050.72,-243.74 1162.41,-203.52 1164.31,-202.84 1166.19,-202.02 1168.03,-201.09"/>
<polygon fill="green" stroke="green" stroke-width="1.08" points="1170.11,-203.93 1176.9,-195.79 1166.52,-197.92 1170.11,-203.93"/>
</g>
<!-- 397 -->
<g id="node13" class="node">
<title>397</title>
<ellipse fill="white" stroke="black" cx="560.41" cy="-178.77" rx="25" ry="25"/>
<text text-anchor="middle" x="560.41" y="-176.57" font-family="Times-Roman" font-size="9.00">397</text>
</g>
<!-- &#45;1&#45;&gt;397 -->
<g id="edge2" class="edge">
<title>&#45;1&#45;&gt;397</title>
<path fill="none" stroke="red" stroke-width="0.25" d="M574.52,-239.48C572.94,-232.81 570.58,-222.83 568.25,-212.94"/>
<polygon fill="red" stroke="red" stroke-width="0.25" points="571.65,-212.12 565.95,-203.2 564.84,-213.73 571.65,-212.12"/>
</g>
<!-- 398 -->
<g id="node14" class="node">
<title>398</title>
<ellipse fill="white" stroke="black" cx="493.41" cy="-178.77" rx="25" ry="25"/>
<text text-anchor="middle" x="493.41" y="-176.57" font-family="Times-Roman" font-size="9.00">398</text>
</g>
<!-- &#45;1&#45;&gt;398 -->
<g id="edge3" class="edge">
<title>&#45;1&#45;&gt;398</title>
<path fill="none" stroke="red" stroke-width="0.4" d="M566.57,-239.48C555.23,-230.23 536.14,-214.65 520.3,-201.72"/>
<polygon fill="red" stroke="red" stroke-width="0.4" points="522.33,-198.86 512.37,-195.25 517.91,-204.28 522.33,-198.86"/>
</g>
<!-- 399 -->
<g id="node15" class="node">
<title>399</title>
<ellipse fill="white" stroke="black" cx="666.41" cy="-178.77" rx="25" ry="25"/>
<text text-anchor="middle" x="666.41" y="-176.57" font-family="Times-Roman" font-size="9.00">399</text>
</g>
<!-- &#45;1&#45;&gt;399 -->
<g id="edge4" class="edge">
<title>&#45;1&#45;&gt;399</title>
<path fill="none" stroke="green" stroke-width="0.52" d="M587.09,-239.48C599.74,-229.97 621.28,-213.75 638.73,-200.61"/>
<polygon fill="green" stroke="green" stroke-width="0.52" points="641.03,-203.27 646.91,-194.46 636.82,-197.67 641.03,-203.27"/>
</g>
<!-- 400 -->
<g id="node16" class="node">
<title>400</title>
<ellipse fill="white" stroke="black" cx="1128.41" cy="-178.77" rx="25" ry="25"/>
<text text-anchor="middle" x="1128.41" y="-176.57" font-family="Times-Roman" font-size="9.00">400</text>
</g>
<!-- &#45;1&#45;&gt;400 -->
<g id="edge5" class="edge">
<title>&#45;1&#45;&gt;400</title>
<path fill="none" stroke="red" stroke-width="0.31" d="M589.45,-245.31C600.16,-243.55 615.74,-241.13 629.41,-239.52 818.56,-217.3 869.81,-241.61 1056.41,-203.52 1069.61,-200.83 1083.77,-196.49 1096,-192.26"/>
<polygon fill="red" stroke="red" stroke-width="0.31" points="1097.53,-195.43 1105.76,-188.76 1095.17,-188.84 1097.53,-195.43"/>
</g>
<!-- 401 -->
<g id="node17" class="node">
<title>401</title>
<ellipse fill="white" stroke="black" cx="1022.41" cy="-178.77" rx="25" ry="25"/>
<text text-anchor="middle" x="1022.41" y="-176.57" font-family="Times-Roman" font-size="9.00">401</text>
</g>
<!-- &#45;1&#45;&gt;401 -->
<g id="edge6" class="edge">
<title>&#45;1&#45;&gt;401</title>
<path fill="none" stroke="green" stroke-width="0.11" d="M589.46,-245.37C600.17,-243.65 615.75,-241.25 629.41,-239.52 786.31,-219.71 833.51,-253.89 983.41,-203.52 986.93,-202.34 990.46,-200.8 993.88,-199.07"/>
<polygon fill="green" stroke="green" stroke-width="0.11" points="995.61,-202.11 1002.61,-194.16 992.18,-196.01 995.61,-202.11"/>
</g>
<!-- 402 -->
<g id="node18" class="node">
<title>402</title>
<ellipse fill="white" stroke="black" cx="878.41" cy="-178.77" rx="25" ry="25"/>
<text text-anchor="middle" x="878.41" y="-176.57" font-family="Times-Roman" font-size="9.00">402</text>
</g>
<!-- &#45;1&#45;&gt;402 -->
<g id="edge7" class="edge">
<title>&#45;1&#45;&gt;402</title>
<path fill="none" stroke="red" stroke-width="0.12" d="M589.51,-245.63C624.85,-240.38 724.96,-224.65 806.41,-203.52 819.35,-200.17 833.36,-195.73 845.55,-191.61"/>
<polygon fill="red" stroke="red" stroke-width="0.12" points="846.98,-194.82 855.29,-188.25 844.7,-188.2 846.98,-194.82"/>
</g>
<!-- 403 -->
<g id="node19" class="node">
<title>403</title>
<ellipse fill="white" stroke="black" cx="282.41" cy="-178.77" rx="25" ry="25"/>
<text text-anchor="middle" x="282.41" y="-176.57" font-family="Times-Roman" font-size="9.00">403</text>
</g>
<!-- &#45;1&#45;&gt;403 -->
<g id="edge8" class="edge">
<title>&#45;1&#45;&gt;403</title>
<path fill="none" stroke="red" stroke-width="0.31" d="M563.23,-246.98C524.75,-245.04 409.75,-236.66 321.41,-203.52 317.94,-202.22 314.44,-200.6 311.03,-198.83"/>
<polygon fill="red" stroke="red" stroke-width="0.31" points="312.74,-195.77 302.32,-193.87 309.28,-201.85 312.74,-195.77"/>
</g>
<!-- 404 -->
<g id="node20" class="node">
<title>404</title>
<ellipse fill="white" stroke="black" cx="772.41" cy="-178.77" rx="25" ry="25"/>
<text text-anchor="middle" x="772.41" y="-176.57" font-family="Times-Roman" font-size="9.00">404</text>
</g>
<!-- &#45;1&#45;&gt;404 -->
<g id="edge9" class="edge">
<title>&#45;1&#45;&gt;404</title>
<path fill="none" stroke="red" stroke-width="0.16" d="M589.44,-245.13C616.87,-239.83 682.27,-225.76 733.41,-203.52 736.81,-202.04 740.27,-200.31 743.65,-198.47"/>
<polygon fill="red" stroke="red" stroke-width="0.16" points="745.44,-201.48 752.34,-193.44 741.93,-195.43 745.44,-201.48"/>
</g>
<!-- 405 -->
<g id="node21" class="node">
<title>405</title>
<ellipse fill="white" stroke="black" cx="426.41" cy="-178.77" rx="25" ry="25"/>
<text text-anchor="middle" x="426.41" y="-176.57" font-family="Times-Roman" font-size="9.00">405</text>
</g>
<!-- &#45;1&#45;&gt;405 -->
<g id="edge10" class="edge">
<title>&#45;1&#45;&gt;405</title>
<path fill="none" stroke="red" stroke-width="0.4" d="M563.29,-243.83C541.13,-237.33 495.19,-222.68 459.41,-203.52 457.64,-202.57 455.85,-201.54 454.08,-200.45"/>
<polygon fill="red" stroke="red" stroke-width="0.4" points="455.68,-197.32 445.4,-194.73 451.82,-203.16 455.68,-197.32"/>
</g>
<!-- &#45;2 -->
<g id="node2" class="node">
<title>&#45;2</title>
<polygon fill="lightgray" stroke="black" points="917.41,-257.52 891.41,-257.52 891.41,-239.52 917.41,-239.52 917.41,-257.52"/>
<text text-anchor="middle" x="904.41" y="-246.32" font-family="Times-Roman" font-size="9.00">&#45;2</text>
</g>
<!-- &#45;2&#45;&gt;0 -->
<g id="edge106" class="edge">
<title>&#45;2&#45;&gt;0</title>
<path fill="none" stroke="green" stroke-width="0.14" stroke-dasharray="1,5" d="M917.56,-247.42C994.06,-246.71 1379.79,-241.26 1414.41,-203.52 1429.29,-187.31 1428.96,-170.53 1414.41,-154.02 1384.77,-120.38 1065.13,-100.76 969.98,-95.63"/>
<polygon fill="green" stroke="green" stroke-width="0.14" points="969.94,-92.13 959.77,-95.09 969.57,-99.12 969.94,-92.13"/>
</g>
<!-- &#45;2&#45;&gt;1 -->
<g id="edge107" class="edge">
<title>&#45;2&#45;&gt;1</title>
<path fill="none" stroke="green" stroke-width="0.22" d="M917.45,-247.23C986.98,-245.52 1312.2,-235.83 1341.41,-203.52 1356.17,-187.21 1351.41,-173.62 1341.41,-154.02 1311.97,-96.34 1284.04,-91.31 1223.41,-68.53 1124.46,-31.34 790.57,-20.31 693.87,-17.86"/>
<polygon fill="green" stroke="green" stroke-width="0.22" points="693.85,-14.36 683.77,-17.61 693.68,-21.35 693.85,-14.36"/>
</g>
<!-- &#45;2&#45;&gt;2 -->
<g id="edge108" class="edge">
<title>&#45;2&#45;&gt;2</title>
<path fill="none" stroke="red" stroke-width="0.99" d="M891.32,-246.23C874.8,-244.61 845.51,-241.77 820.41,-239.52 772.88,-235.26 424.71,-238.65 392.41,-203.52 377.52,-187.33 380.22,-172.33 392.41,-154.02 418.39,-115.02 475.2,-101.44 508.87,-96.73"/>
<polygon fill="red" stroke="red" stroke-width="0.99" points="509.43,-100.19 518.93,-95.5 508.57,-93.24 509.43,-100.19"/>
</g>
<!-- &#45;2&#45;&gt;3 -->
<g id="edge109" class="edge">
<title>&#45;2&#45;&gt;3</title>
<path fill="none" stroke="red" stroke-width="0.12" d="M908.55,-239.36C916.92,-221.53 933.38,-178.75 912.41,-154.02 880.8,-116.74 742.88,-129.71 695.41,-118.02 679.42,-114.09 661.87,-108.32 648.09,-103.46"/>
<polygon fill="red" stroke="red" stroke-width="0.12" points="648.98,-100.06 638.39,-99.97 646.61,-106.65 648.98,-100.06"/>
</g>
<!-- &#45;2&#45;&gt;4 -->
<g id="edge110" class="edge">
<title>&#45;2&#45;&gt;4</title>
<path fill="none" stroke="green" stroke-width="0.21" d="M917.82,-247.21C987.83,-245.43 1309.47,-235.55 1338.41,-203.52 1353.16,-187.2 1353.29,-170.23 1338.41,-154.02 1306.74,-119.52 964.61,-125.73 918.41,-118.02 894.36,-114.01 867.44,-107.04 848.41,-101.69"/>
<polygon fill="green" stroke="green" stroke-width="0.21" points="849.3,-98.3 838.72,-98.91 847.37,-105.03 849.3,-98.3"/>
</g>
<!-- &#45;2&#45;&gt;5 -->
<g id="edge111" class="edge">
<title>&#45;2&#45;&gt;5</title>
<path fill="none" stroke="red" stroke-width="0.14" d="M917.53,-247.92C988.56,-249.71 1320.44,-252.97 1229.41,-154.02 1196.88,-118.66 845.61,-127.07 798.41,-118.02 780.23,-114.54 760.26,-108.41 745.08,-103.26"/>
<polygon fill="red" stroke="red" stroke-width="0.14" points="746.01,-99.88 735.42,-99.89 743.71,-106.48 746.01,-99.88"/>
</g>
<!-- &#45;2&#45;&gt;396 -->
<g id="edge11" class="edge">
<title>&#45;2&#45;&gt;396</title>
<path fill="none" stroke="red" stroke-width="0.11" d="M917.61,-247.35C956.61,-246.4 1074.18,-240.45 1162.41,-203.52 1164.27,-202.75 1166.12,-201.85 1167.95,-200.86"/>
<polygon fill="red" stroke="red" stroke-width="0.11" points="1170.09,-203.65 1176.75,-195.41 1166.41,-197.7 1170.09,-203.65"/>
</g>
<!-- &#45;2&#45;&gt;397 -->
<g id="edge12" class="edge">
<title>&#45;2&#45;&gt;397</title>
<path fill="none" stroke="green" stroke-width="0.49" d="M891.24,-246.14C851.67,-241.83 730.47,-227.46 632.41,-203.52 619.43,-200.35 605.41,-195.96 593.23,-191.81"/>
<polygon fill="green" stroke="green" stroke-width="0.49" points="594.08,-188.4 583.49,-188.42 591.78,-195.01 594.08,-188.4"/>
</g>
<!-- &#45;2&#45;&gt;398 -->
<g id="edge13" class="edge">
<title>&#45;2&#45;&gt;398</title>
<path fill="none" stroke="green" stroke-width="0.34" d="M891.21,-246.17C826.34,-239.52 543.85,-210.28 526.41,-203.52 524.54,-202.79 522.67,-201.94 520.83,-200.98"/>
<polygon fill="green" stroke="green" stroke-width="0.34" points="522.36,-197.81 512,-195.61 518.72,-203.79 522.36,-197.81"/>
</g>
<!-- &#45;2&#45;&gt;399 -->
<g id="edge14" class="edge">
<title>&#45;2&#45;&gt;399</title>
<path fill="none" stroke="green" stroke-width="0.14" d="M891,-244.25C862.67,-237.29 794.72,-220.25 738.41,-203.52 725.6,-199.71 711.62,-195.19 699.42,-191.12"/>
<polygon fill="green" stroke="green" stroke-width="0.14" points="700.24,-187.7 689.65,-187.83 698.01,-194.34 700.24,-187.7"/>
</g>
<!-- &#45;2&#45;&gt;400 -->
<g id="edge15" class="edge">
<title>&#45;2&#45;&gt;400</title>
<path fill="none" stroke="red" stroke-width="0.31" d="M917.86,-245.8C949,-241.49 1028.04,-228.76 1089.41,-203.52 1092.84,-202.11 1096.32,-200.43 1099.71,-198.61"/>
<polygon fill="red" stroke="red" stroke-width="0.31" points="1101.49,-201.63 1108.41,-193.6 1097.99,-195.56 1101.49,-201.63"/>
</g>
<!-- &#45;2&#45;&gt;401 -->
<g id="edge16" class="edge">
<title>&#45;2&#45;&gt;401</title>
<path fill="none" stroke="red" stroke-width="0.74" d="M917.64,-240.36C933.4,-231.78 960.49,-216.88 983.41,-203.52 986.45,-201.75 989.61,-199.88 992.75,-198"/>
<polygon fill="red" stroke="red" stroke-width="0.74" points="994.7,-200.91 1001.45,-192.74 991.08,-194.92 994.7,-200.91"/>
</g>
<!-- &#45;2&#45;&gt;402 -->
<g id="edge17" class="edge">
<title>&#45;2&#45;&gt;402</title>
<path fill="none" stroke="red" stroke-width="0.15" d="M901.33,-239.48C898.63,-232.45 894.53,-221.77 890.54,-211.37"/>
<polygon fill="red" stroke="red" stroke-width="0.15" points="893.8,-210.09 886.95,-202.01 887.26,-212.6 893.8,-210.09"/>
</g>
<!-- &#45;2&#45;&gt;403 -->
<g id="edge18" class="edge">
<title>&#45;2&#45;&gt;403</title>
<path fill="none" stroke="red" stroke-width="0.16" d="M891.33,-246.21C874.81,-244.56 845.52,-241.7 820.41,-239.52 615.67,-221.78 561.28,-242.04 359.41,-203.52 344.63,-200.7 328.68,-196.06 315.14,-191.62"/>
<polygon fill="red" stroke="red" stroke-width="0.16" points="315.92,-188.19 305.33,-188.3 313.68,-194.82 315.92,-188.19"/>
</g>
<!-- &#45;2&#45;&gt;404 -->
<g id="edge19" class="edge">
<title>&#45;2&#45;&gt;404</title>
<path fill="none" stroke="red" stroke-width="0.29" d="M891.27,-240.78C870.89,-230.31 831.08,-209.88 803.17,-195.56"/>
<polygon fill="red" stroke="red" stroke-width="0.29" points="804.7,-192.41 794.2,-190.96 801.5,-198.64 804.7,-192.41"/>
</g>
<!-- &#45;2&#45;&gt;405 -->
<g id="edge20" class="edge">
<title>&#45;2&#45;&gt;405</title>
<path fill="none" stroke="red" stroke-width="0.12" stroke-dasharray="1,5" d="M891.26,-246.27C818.13,-239.29 464.62,-205.49 459.41,-203.52 457.53,-202.81 455.66,-201.96 453.82,-201.02"/>
<polygon fill="red" stroke="red" stroke-width="0.12" points="455.34,-197.85 444.97,-195.67 451.72,-203.84 455.34,-197.85"/>
</g>
<!-- &#45;3 -->
<g id="node3" class="node">
<title>&#45;3</title>
<polygon fill="lightgray" stroke="black" points="811.41,-257.52 785.41,-257.52 785.41,-239.52 811.41,-239.52 811.41,-257.52"/>
<text text-anchor="middle" x="798.41" y="-246.32" font-family="Times-Roman" font-size="9.00">&#45;3</text>
</g>
<!-- &#45;3&#45;&gt;0 -->
<g id="edge112" class="edge">
<title>&#45;3&#45;&gt;0</title>
<path fill="none" stroke="green" stroke-width="0.12" d="M811.51,-246.24C828.03,-244.63 857.32,-241.8 882.41,-239.52 928.84,-235.31 1268.9,-237.87 1300.41,-203.52 1396.3,-99.02 1067.44,-93.35 969.89,-93.91"/>
<polygon fill="green" stroke="green" stroke-width="0.12" points="969.65,-90.41 959.68,-93.99 969.71,-97.41 969.65,-90.41"/>
</g>
<!-- &#45;3&#45;&gt;1 -->
<g id="edge113" class="edge">
<title>&#45;3&#45;&gt;1</title>
<path fill="none" stroke="green" stroke-width="0.38" d="M811.5,-246.22C828.02,-244.59 857.32,-241.74 882.41,-239.52 931.28,-235.2 1289.17,-239.59 1322.41,-203.52 1337.32,-187.34 1334.84,-172.18 1322.41,-154.02 1249.33,-47.21 807.22,-22.73 693.87,-18.18"/>
<polygon fill="green" stroke="green" stroke-width="0.38" points="693.8,-14.67 683.67,-17.79 693.53,-21.67 693.8,-14.67"/>
</g>
<!-- &#45;3&#45;&gt;2 -->
<g id="edge114" class="edge">
<title>&#45;3&#45;&gt;2</title>
<path fill="none" stroke="green" stroke-width="0.51" d="M785.21,-246.59C701.97,-240.68 253.13,-208.63 248.41,-203.52 233.49,-187.36 234.53,-171.09 248.41,-154.02 252.59,-148.89 439.23,-112.7 509.25,-99.27"/>
<polygon fill="green" stroke="green" stroke-width="0.51" points="510.27,-102.64 519.44,-97.32 508.96,-95.76 510.27,-102.64"/>
</g>
<!-- &#45;3&#45;&gt;3 -->
<g id="edge115" class="edge">
<title>&#45;3&#45;&gt;3</title>
<path fill="none" stroke="red" stroke-width="0.23" d="M785.19,-245.97C749.46,-241.48 652.32,-227.3 632.41,-203.52 612.94,-180.26 614.23,-143.61 617.97,-119.26"/>
<polygon fill="red" stroke="red" stroke-width="0.23" points="621.43,-119.8 619.74,-109.34 614.54,-118.58 621.43,-119.8"/>
</g>
<!-- &#45;3&#45;&gt;4 -->
<g id="edge116" class="edge">
<title>&#45;3&#45;&gt;4</title>
<path fill="none" stroke="green" stroke-width="0.61" d="M811.73,-246.22C884.15,-239.15 1227.61,-205.52 1229.41,-203.52 1392.07,-23.42 1510.69,-225.86 918.41,-118.02 894.42,-113.66 867.49,-106.73 848.45,-101.48"/>
<polygon fill="green" stroke="green" stroke-width="0.61" points="849.32,-98.09 838.75,-98.76 847.43,-104.83 849.32,-98.09"/>
</g>
<!-- &#45;3&#45;&gt;5 -->
<g id="edge117" class="edge">
<title>&#45;3&#45;&gt;5</title>
<path fill="none" stroke="red" stroke-width="0.15" d="M801.86,-239.44C808.53,-222.5 821.29,-182.47 806.41,-154.02 793.6,-129.52 765.65,-113.04 745.08,-103.7"/>
<polygon fill="red" stroke="red" stroke-width="0.15" points="746.24,-100.39 735.67,-99.69 743.49,-106.83 746.24,-100.39"/>
</g>
<!-- &#45;3&#45;&gt;396 -->
<g id="edge21" class="edge">
<title>&#45;3&#45;&gt;396</title>
<path fill="none" stroke="green" stroke-width="0.19" d="M811.55,-246.12C874.8,-239.35 1145.66,-210.06 1162.41,-203.52 1164.29,-202.79 1166.15,-201.93 1167.99,-200.97"/>
<polygon fill="green" stroke="green" stroke-width="0.19" points="1170.1,-203.78 1176.82,-195.59 1166.46,-197.8 1170.1,-203.78"/>
</g>
<!-- &#45;3&#45;&gt;397 -->
<g id="edge22" class="edge">
<title>&#45;3&#45;&gt;397</title>
<path fill="none" stroke="green" stroke-width="0.51" d="M785.41,-246.15C752.99,-242.4 666.39,-230.45 599.41,-203.52 595.98,-202.14 592.49,-200.47 589.1,-198.66"/>
<polygon fill="green" stroke="green" stroke-width="0.51" points="590.81,-195.61 580.39,-193.67 587.33,-201.68 590.81,-195.61"/>
</g>
<!-- &#45;3&#45;&gt;398 -->
<g id="edge23" class="edge">
<title>&#45;3&#45;&gt;398</title>
<path fill="none" stroke="red" stroke-width="0.24" d="M785.4,-246.22C737.96,-241.34 574.6,-223.45 526.41,-203.52 524.56,-202.75 522.7,-201.86 520.87,-200.88"/>
<polygon fill="red" stroke="red" stroke-width="0.24" points="522.41,-197.72 512.06,-195.45 518.73,-203.68 522.41,-197.72"/>
</g>
<!-- &#45;3&#45;&gt;399 -->
<g id="edge24" class="edge">
<title>&#45;3&#45;&gt;399</title>
<path fill="none" stroke="red" stroke-width="0.23" d="M785.27,-240.78C764.89,-230.31 725.08,-209.88 697.17,-195.56"/>
<polygon fill="red" stroke="red" stroke-width="0.23" points="698.7,-192.41 688.2,-190.96 695.5,-198.64 698.7,-192.41"/>
</g>
<!-- &#45;3&#45;&gt;400 -->
<g id="edge25" class="edge">
<title>&#45;3&#45;&gt;400</title>
<path fill="none" stroke="green" stroke-width="0.43" d="M811.6,-246.23C861.25,-241.25 1036.83,-222.63 1089.41,-203.52 1092.9,-202.26 1096.41,-200.66 1099.82,-198.9"/>
<polygon fill="green" stroke="green" stroke-width="0.43" points="1101.57,-201.93 1108.54,-193.95 1098.12,-195.84 1101.57,-201.93"/>
</g>
<!-- &#45;3&#45;&gt;401 -->
<g id="edge26" class="edge">
<title>&#45;3&#45;&gt;401</title>
<path fill="none" stroke="green" stroke-width="0.49" d="M811.86,-245.8C843,-241.49 922.04,-228.76 983.41,-203.52 986.84,-202.11 990.32,-200.43 993.71,-198.61"/>
<polygon fill="green" stroke="green" stroke-width="0.49" points="995.49,-201.63 1002.41,-193.6 991.99,-195.56 995.49,-201.63"/>
</g>
<!-- &#45;3&#45;&gt;402 -->
<g id="edge27" class="edge">
<title>&#45;3&#45;&gt;402</title>
<path fill="none" stroke="red" stroke-width="0.15" d="M807.91,-239.48C818.66,-230.38 836.66,-215.13 851.78,-202.32"/>
<polygon fill="red" stroke="red" stroke-width="0.15" points="854.46,-204.65 859.82,-195.52 849.93,-199.31 854.46,-204.65"/>
</g>
<!-- &#45;3&#45;&gt;403 -->
<g id="edge28" class="edge">
<title>&#45;3&#45;&gt;403</title>
<path fill="none" stroke="green" stroke-width="0.46" d="M785.24,-246.56C721.44,-241.83 444.25,-220.68 359.41,-203.52 344.66,-200.54 328.71,-195.87 315.17,-191.46"/>
<polygon fill="green" stroke="green" stroke-width="0.46" points="315.95,-188.02 305.35,-188.17 313.72,-194.66 315.95,-188.02"/>
</g>
<!-- &#45;3&#45;&gt;404 -->
<g id="edge29" class="edge">
<title>&#45;3&#45;&gt;404</title>
<path fill="none" stroke="red" stroke-width="0.38" d="M795.33,-239.48C792.63,-232.45 788.53,-221.77 784.54,-211.37"/>
<polygon fill="red" stroke="red" stroke-width="0.38" points="787.8,-210.09 780.95,-202.01 781.26,-212.6 787.8,-210.09"/>
</g>
<!-- &#45;3&#45;&gt;405 -->
<g id="edge30" class="edge">
<title>&#45;3&#45;&gt;405</title>
<path fill="none" stroke="red" stroke-width="0.31" d="M785.31,-246.68C730.62,-243.04 520.68,-227.74 459.41,-203.52 457.54,-202.78 455.68,-201.91 453.85,-200.95"/>
<polygon fill="red" stroke="red" stroke-width="0.31" points="455.38,-197.79 445.02,-195.56 451.73,-203.76 455.38,-197.79"/>
</g>
<!-- &#45;4 -->
<g id="node4" class="node">
<title>&#45;4</title>
<polygon fill="lightgray" stroke="black" points="664.41,-257.52 638.41,-257.52 638.41,-239.52 664.41,-239.52 664.41,-257.52"/>
<text text-anchor="middle" x="651.41" y="-246.32" font-family="Times-Roman" font-size="9.00">&#45;4</text>
</g>
<!-- &#45;4&#45;&gt;0 -->
<g id="edge118" class="edge">
<title>&#45;4&#45;&gt;0</title>
<path fill="none" stroke="red" stroke-width="0.24" d="M664.45,-246.65C749.71,-240.94 1224.43,-208.9 1229.41,-203.52 1306.77,-120.05 1054.66,-99.79 970.09,-95.39"/>
<polygon fill="red" stroke="red" stroke-width="0.24" points="970.13,-91.89 959.98,-94.9 969.8,-98.88 970.13,-91.89"/>
</g>
<!-- &#45;4&#45;&gt;1 -->
<g id="edge119" class="edge">
<title>&#45;4&#45;&gt;1</title>
<path fill="none" stroke="green" stroke-width="0.17" d="M638.37,-245.35C627.66,-243.61 612.08,-241.2 598.41,-239.52 556.43,-234.36 247.88,-234.82 219.41,-203.52 163.44,-141.98 290.36,-73.71 300.41,-68.53 360.12,-37.78 566.54,-23.09 640.66,-18.71"/>
<polygon fill="green" stroke="green" stroke-width="0.17" points="641.2,-22.19 650.99,-18.12 640.8,-15.2 641.2,-22.19"/>
</g>
<!-- &#45;4&#45;&gt;2 -->
<g id="edge120" class="edge">
<title>&#45;4&#45;&gt;2</title>
<path fill="none" stroke="red" stroke-width="0.16" d="M638.37,-245.36C627.66,-243.63 612.08,-241.23 598.41,-239.52 557.98,-234.48 260.78,-233.72 233.41,-203.52 218.64,-187.22 219.45,-171.02 233.41,-154.02 234.52,-152.67 435.61,-113.61 509,-99.39"/>
<polygon fill="red" stroke="red" stroke-width="0.16" points="510.09,-102.74 519.25,-97.4 508.76,-95.87 510.09,-102.74"/>
</g>
<!-- &#45;4&#45;&gt;3 -->
<g id="edge121" class="edge">
<title>&#45;4&#45;&gt;3</title>
<path fill="none" stroke="red" stroke-width="0.38" d="M638.37,-245.38C627.66,-243.66 612.08,-241.25 598.41,-239.52 559.63,-234.6 274.61,-232.55 248.41,-203.52 233.68,-187.19 233.78,-170.45 248.41,-154.02 294.85,-101.92 492.58,-134.46 560.41,-118.02 573.68,-114.81 587.96,-109.59 599.56,-104.85"/>
<polygon fill="red" stroke="red" stroke-width="0.38" points="601.11,-108 608.97,-100.89 598.4,-101.55 601.11,-108"/>
</g>
<!-- &#45;4&#45;&gt;4 -->
<g id="edge122" class="edge">
<title>&#45;4&#45;&gt;4</title>
<path fill="none" stroke="green" stroke-width="0.12" d="M664.86,-246.56C733.58,-241.6 1042.98,-218.49 1056.41,-203.52 1071.11,-187.15 1069.9,-171.4 1056.41,-154.02 1055.6,-152.98 909.14,-115.91 848.87,-100.7"/>
<polygon fill="green" stroke="green" stroke-width="0.12" points="849.55,-97.26 839,-98.21 847.84,-104.05 849.55,-97.26"/>
</g>
<!-- &#45;4&#45;&gt;5 -->
<g id="edge123" class="edge">
<title>&#45;4&#45;&gt;5</title>
<path fill="none" stroke="red" stroke-width="0.15" d="M638.09,-245.5C585.69,-237.5 396.47,-208.32 392.41,-203.52 378.22,-186.71 377.98,-170.63 392.41,-154.02 430.1,-110.67 592.47,-131.07 648.41,-118.02 664.45,-114.28 682.01,-108.53 695.77,-103.62"/>
<polygon fill="red" stroke="red" stroke-width="0.15" points="697.28,-106.8 705.47,-100.08 694.87,-100.22 697.28,-106.8"/>
</g>
<!-- &#45;4&#45;&gt;396 -->
<g id="edge31" class="edge">
<title>&#45;4&#45;&gt;396</title>
<path fill="none" stroke="green" stroke-width="0.11" d="M664.64,-246.58C742.49,-241.03 1138.33,-212.45 1162.41,-203.52 1164.3,-202.82 1166.18,-201.99 1168.02,-201.05"/>
<polygon fill="green" stroke="green" stroke-width="0.11" points="1170.11,-203.88 1176.87,-195.72 1166.5,-197.88 1170.11,-203.88"/>
</g>
<!-- &#45;4&#45;&gt;397 -->
<g id="edge32" class="edge">
<title>&#45;4&#45;&gt;397</title>
<path fill="none" stroke="red" stroke-width="0.4" d="M640.62,-239.48C627.75,-229.91 605.77,-213.54 588.07,-200.36"/>
<polygon fill="red" stroke="red" stroke-width="0.4" points="589.9,-197.36 579.78,-194.19 585.72,-202.97 589.9,-197.36"/>
</g>
<!-- &#45;4&#45;&gt;398 -->
<g id="edge33" class="edge">
<title>&#45;4&#45;&gt;398</title>
<path fill="none" stroke="red" stroke-width="0.39" d="M638.13,-244.19C614.72,-238.04 564.96,-223.64 526.41,-203.52 524.63,-202.59 522.84,-201.57 521.05,-200.5"/>
<polygon fill="red" stroke="red" stroke-width="0.39" points="522.65,-197.36 512.36,-194.8 518.81,-203.21 522.65,-197.36"/>
</g>
<!-- &#45;4&#45;&gt;399 -->
<g id="edge34" class="edge">
<title>&#45;4&#45;&gt;399</title>
<path fill="none" stroke="green" stroke-width="0.42" d="M653.19,-239.48C654.66,-232.88 656.83,-223.04 659,-213.25"/>
<polygon fill="green" stroke="green" stroke-width="0.42" points="662.48,-213.72 661.23,-203.2 655.65,-212.2 662.48,-213.72"/>
</g>
<!-- &#45;4&#45;&gt;400 -->
<g id="edge35" class="edge">
<title>&#45;4&#45;&gt;400</title>
<path fill="none" stroke="red" stroke-width="0.45" d="M664.51,-246.55C732.95,-241.45 1048.11,-217.37 1089.41,-203.52 1092.93,-202.34 1096.46,-200.8 1099.88,-199.07"/>
<polygon fill="red" stroke="red" stroke-width="0.45" points="1101.61,-202.12 1108.62,-194.17 1098.18,-196.01 1101.61,-202.12"/>
</g>
<!-- &#45;4&#45;&gt;401 -->
<g id="edge36" class="edge">
<title>&#45;4&#45;&gt;401</title>
<path fill="none" stroke="red" stroke-width="0.42" d="M664.57,-246.51C718.5,-242.24 922.69,-224.96 983.41,-203.52 986.91,-202.29 990.43,-200.71 993.85,-198.96"/>
<polygon fill="red" stroke="red" stroke-width="0.42" points="995.59,-202 1002.57,-194.03 992.14,-195.9 995.59,-202"/>
</g>
<!-- &#45;4&#45;&gt;402 -->
<g id="edge37" class="edge">
<title>&#45;4&#45;&gt;402</title>
<path fill="none" stroke="green" stroke-width="0.55" d="M664.74,-243.94C691.63,-236.67 754.26,-219.52 806.41,-203.52 819.19,-199.6 833.17,-195.05 845.37,-190.99"/>
<polygon fill="green" stroke="green" stroke-width="0.55" points="846.77,-194.22 855.15,-187.72 844.55,-187.58 846.77,-194.22"/>
</g>
<!-- &#45;4&#45;&gt;403 -->
<g id="edge38" class="edge">
<title>&#45;4&#45;&gt;403</title>
<path fill="none" stroke="red" stroke-width="0.23" d="M638.36,-245.47C627.64,-243.81 612.05,-241.44 598.41,-239.52 475.47,-222.26 438.53,-244.7 321.41,-203.52 317.92,-202.29 314.4,-200.72 310.98,-198.97"/>
<polygon fill="red" stroke="red" stroke-width="0.23" points="312.68,-195.91 302.25,-194.04 309.24,-202.01 312.68,-195.91"/>
</g>
<!-- &#45;4&#45;&gt;404 -->
<g id="edge39" class="edge">
<title>&#45;4&#45;&gt;404</title>
<path fill="none" stroke="green" stroke-width="0.36" d="M664.6,-240.73C680.9,-232.27 709.44,-217.24 733.41,-203.52 736.47,-201.78 739.63,-199.92 742.78,-198.05"/>
<polygon fill="green" stroke="green" stroke-width="0.36" points="744.73,-200.96 751.49,-192.8 741.12,-194.96 744.73,-200.96"/>
</g>
<!-- &#45;4&#45;&gt;405 -->
<g id="edge40" class="edge">
<title>&#45;4&#45;&gt;405</title>
<path fill="none" stroke="red" stroke-width="0.17" stroke-dasharray="1,5" d="M638.21,-245.2C600.37,-238.45 492.13,-218.31 459.41,-203.52 457.58,-202.69 455.75,-201.75 453.94,-200.74"/>
<polygon fill="red" stroke="red" stroke-width="0.17" points="455.49,-197.58 445.17,-195.21 451.76,-203.5 455.49,-197.58"/>
</g>
<!-- 518 -->
<g id="node11" class="node">
<title>518</title>
<ellipse fill="white" stroke="black" cx="377.41" cy="-93.28" rx="25" ry="25"/>
<text text-anchor="middle" x="377.41" y="-91.08" font-family="Times-Roman" font-size="9.00">518</text>
</g>
<!-- 518&#45;&gt;1 -->
<g id="edge125" class="edge">
<title>518&#45;&gt;1</title>
<path fill="none" stroke="green" stroke-width="0.21" d="M398.9,-80.21C407.02,-76.04 416.46,-71.64 425.41,-68.53 501.5,-42.12 595.98,-26.89 641.07,-20.63"/>
<polygon fill="green" stroke="green" stroke-width="0.21" points="641.74,-24.08 651.18,-19.27 640.8,-17.14 641.74,-24.08"/>
</g>
<!-- 396&#45;&gt;0 -->
<g id="edge41" class="edge">
<title>396&#45;&gt;0</title>
<path fill="none" stroke="red" stroke-width="0.42" d="M1176.59,-162.49C1172.13,-159.37 1167.26,-156.33 1162.41,-154.02 1096.64,-122.65 1011.63,-105.43 969.49,-98.28"/>
<polygon fill="red" stroke="red" stroke-width="0.42" points="969.93,-94.81 959.5,-96.64 968.8,-101.72 969.93,-94.81"/>
</g>
<!-- 396&#45;&gt;1 -->
<g id="edge42" class="edge">
<title>396&#45;&gt;1</title>
<path fill="none" stroke="green" stroke-width="1.05" d="M1178.26,-160.31C1152.57,-135.34 1101.43,-90.1 1048.41,-68.53 983.6,-42.15 769.35,-24.59 693.95,-19.1"/>
<polygon fill="green" stroke="green" stroke-width="1.05" points="694.09,-15.6 683.86,-18.38 693.59,-22.58 694.09,-15.6"/>
</g>
<!-- 396&#45;&gt;3 -->
<g id="edge43" class="edge">
<title>396&#45;&gt;3</title>
<path fill="none" stroke="green" stroke-width="0.25" d="M1176.89,-161.79C1172.41,-158.71 1167.45,-155.87 1162.41,-154.02 966.89,-82.57 899.53,-158.93 695.41,-118.02 679.27,-114.79 661.71,-109.04 647.97,-104.01"/>
<polygon fill="green" stroke="green" stroke-width="0.25" points="648.89,-100.62 638.3,-100.36 646.42,-107.17 648.89,-100.62"/>
</g>
<!-- 396&#45;&gt;4 -->
<g id="edge44" class="edge">
<title>396&#45;&gt;4</title>
<path fill="none" stroke="red" stroke-width="0.6" d="M1176.79,-162.05C1172.31,-158.95 1167.39,-156.04 1162.41,-154.02 1060.83,-112.84 1025.94,-139.34 918.41,-118.02 894.64,-113.31 867.87,-106.48 848.83,-101.35"/>
<polygon fill="red" stroke="red" stroke-width="0.6" points="849.68,-97.96 839.11,-98.7 847.84,-104.71 849.68,-97.96"/>
</g>
<!-- 396&#45;&gt;5 -->
<g id="edge45" class="edge">
<title>396&#45;&gt;5</title>
<path fill="none" stroke="green" stroke-width="0.68" d="M1176.86,-161.87C1172.38,-158.78 1167.43,-155.92 1162.41,-154.02 1010.34,-96.58 957.83,-149.85 798.41,-118.02 780.26,-114.4 760.29,-108.28 745.1,-103.16"/>
<polygon fill="green" stroke="green" stroke-width="0.68" points="746.03,-99.77 735.43,-99.82 743.74,-106.39 746.03,-99.77"/>
</g>
<!-- 397&#45;&gt;0 -->
<g id="edge46" class="edge">
<title>397&#45;&gt;0</title>
<path fill="none" stroke="green" stroke-width="0.81" d="M583.5,-169.16C597.49,-164.18 615.8,-158.12 632.41,-154.02 726.91,-130.71 753.13,-137.84 848.41,-118.02 872.15,-113.09 898.92,-106.28 917.98,-101.22"/>
<polygon fill="green" stroke="green" stroke-width="0.81" points="918.95,-104.58 927.7,-98.61 917.14,-97.82 918.95,-104.58"/>
</g>
<!-- 397&#45;&gt;1 -->
<g id="edge47" class="edge">
<title>397&#45;&gt;1</title>
<path fill="none" stroke="red" stroke-width="0.32" d="M564.42,-154.13C569.31,-130.63 579.4,-94.43 598.41,-68.53 610.55,-51.99 629.55,-38.43 644.54,-29.42"/>
<polygon fill="red" stroke="red" stroke-width="0.32" points="646.33,-32.43 653.26,-24.41 642.85,-26.36 646.33,-32.43"/>
</g>
<!-- 397&#45;&gt;2 -->
<g id="edge48" class="edge">
<title>397&#45;&gt;2</title>
<path fill="none" stroke="green" stroke-width="0.36" d="M553.58,-154.96C550.24,-143.79 546.21,-130.34 542.8,-118.94"/>
<polygon fill="green" stroke="green" stroke-width="0.36" points="546.09,-117.74 539.87,-109.17 539.39,-119.75 546.09,-117.74"/>
</g>
<!-- 397&#45;&gt;3 -->
<g id="edge49" class="edge">
<title>397&#45;&gt;3</title>
<path fill="none" stroke="red" stroke-width="0.29" d="M575.03,-158.41C584.81,-145.44 597.67,-128.4 607.68,-115.13"/>
<polygon fill="red" stroke="red" stroke-width="0.29" points="610.55,-117.14 613.78,-107.05 604.96,-112.92 610.55,-117.14"/>
</g>
<!-- 397&#45;&gt;4 -->
<g id="edge50" class="edge">
<title>397&#45;&gt;4</title>
<path fill="none" stroke="green" stroke-width="0.77" d="M583.73,-169.98C597.81,-165.3 616.12,-159.26 632.41,-154.02 691.72,-134.97 761.65,-113.3 798.22,-102.02"/>
<polygon fill="green" stroke="green" stroke-width="0.77" points="799.51,-105.29 808.04,-99 797.45,-98.6 799.51,-105.29"/>
</g>
<!-- 397&#45;&gt;5 -->
<g id="edge51" class="edge">
<title>397&#45;&gt;5</title>
<path fill="none" stroke="red" stroke-width="0.21" d="M581.99,-166.51C612.01,-150.85 666.16,-122.59 697.08,-106.45"/>
<polygon fill="red" stroke="red" stroke-width="0.21" points="699,-109.4 706.25,-101.67 695.76,-103.19 699,-109.4"/>
</g>
<!-- 398&#45;&gt;0 -->
<g id="edge52" class="edge">
<title>398&#45;&gt;0</title>
<path fill="none" stroke="green" stroke-width="0.15" d="M511.99,-161.92C516.47,-158.83 521.41,-155.95 526.41,-154.02 660.8,-102.28 706.69,-143.54 848.41,-118.02 872.41,-113.7 899.34,-106.77 918.39,-101.51"/>
<polygon fill="green" stroke="green" stroke-width="0.15" points="919.4,-104.86 928.08,-98.78 917.51,-98.12 919.4,-104.86"/>
</g>
<!-- 398&#45;&gt;1 -->
<g id="edge53" class="edge">
<title>398&#45;&gt;1</title>
<path fill="none" stroke="green" stroke-width="0.42" d="M490.46,-153.98C488.81,-129.67 490.27,-92.21 510.41,-68.53 543.24,-29.93 605.56,-20.19 641.01,-17.86"/>
<polygon fill="green" stroke="green" stroke-width="0.42" points="641.28,-21.35 651.09,-17.35 640.93,-14.36 641.28,-21.35"/>
</g>
<!-- 398&#45;&gt;2 -->
<g id="edge54" class="edge">
<title>398&#45;&gt;2</title>
<path fill="none" stroke="red" stroke-width="0.37" d="M504.23,-156.27C510.25,-144.3 517.75,-129.4 523.88,-117.2"/>
<polygon fill="red" stroke="red" stroke-width="0.37" points="527.09,-118.62 528.45,-108.11 520.83,-115.47 527.09,-118.62"/>
</g>
<!-- 398&#45;&gt;3 -->
<g id="edge55" class="edge">
<title>398&#45;&gt;3</title>
<path fill="none" stroke="red" stroke-width="0.2" d="M513.15,-163.22C517.48,-160.13 522.07,-156.92 526.41,-154.02 551.56,-137.26 581.25,-119.22 601.09,-107.4"/>
<polygon fill="red" stroke="red" stroke-width="0.2" points="602.91,-110.4 609.73,-102.29 599.34,-104.38 602.91,-110.4"/>
</g>
<!-- 398&#45;&gt;4 -->
<g id="edge56" class="edge">
<title>398&#45;&gt;4</title>
<path fill="none" stroke="red" stroke-width="0.39" d="M512.07,-162.11C516.54,-159.01 521.46,-156.08 526.41,-154.02 617.52,-116.22 649.36,-140.44 745.41,-118.02 763.45,-113.82 783.42,-107.71 798.64,-102.74"/>
<polygon fill="red" stroke="red" stroke-width="0.39" points="799.94,-105.99 808.33,-99.52 797.74,-99.35 799.94,-105.99"/>
</g>
<!-- 398&#45;&gt;5 -->
<g id="edge57" class="edge">
<title>398&#45;&gt;5</title>
<path fill="none" stroke="red" stroke-width="0.33" d="M512.27,-162.56C516.73,-159.44 521.6,-156.38 526.41,-154.02 577.19,-129.16 594.45,-134.88 648.41,-118.02 664.13,-113.11 681.68,-107.33 695.52,-102.7"/>
<polygon fill="red" stroke="red" stroke-width="0.33" points="696.92,-105.92 705.29,-99.42 694.69,-99.29 696.92,-105.92"/>
</g>
<!-- 399&#45;&gt;0 -->
<g id="edge58" class="edge">
<title>399&#45;&gt;0</title>
<path fill="none" stroke="red" stroke-width="0.54" d="M689.69,-169.87C703.76,-165.14 722.07,-159.1 738.41,-154.02 802.81,-134.03 879.19,-112.28 918.02,-101.37"/>
<polygon fill="red" stroke="red" stroke-width="0.54" points="919.25,-104.66 927.93,-98.59 917.36,-97.92 919.25,-104.66"/>
</g>
<!-- 399&#45;&gt;1 -->
<g id="edge59" class="edge">
<title>399&#45;&gt;1</title>
<path fill="none" stroke="green" stroke-width="0.56" d="M666.56,-153.74C666.75,-123.99 667.06,-73.52 667.25,-43"/>
<polygon fill="green" stroke="green" stroke-width="0.56" points="670.76,-42.75 667.32,-32.73 663.76,-42.71 670.76,-42.75"/>
</g>
<!-- 399&#45;&gt;2 -->
<g id="edge60" class="edge">
<title>399&#45;&gt;2</title>
<path fill="none" stroke="red" stroke-width="0.12" d="M645.95,-164.73C621.95,-149.43 582.34,-124.18 557.62,-108.43"/>
<polygon fill="red" stroke="red" stroke-width="0.12" points="559.25,-105.32 548.94,-102.9 555.49,-111.22 559.25,-105.32"/>
</g>
<!-- 399&#45;&gt;3 -->
<g id="edge61" class="edge">
<title>399&#45;&gt;3</title>
<path fill="none" stroke="green" stroke-width="0.12" d="M655.34,-156.27C649.18,-144.3 641.5,-129.4 635.22,-117.2"/>
<polygon fill="green" stroke="green" stroke-width="0.12" points="638.23,-115.4 630.54,-108.11 632.01,-118.6 638.23,-115.4"/>
</g>
<!-- 399&#45;&gt;4 -->
<g id="edge62" class="edge">
<title>399&#45;&gt;4</title>
<path fill="none" stroke="red" stroke-width="0.33" d="M687.29,-164.65C693.1,-161.11 699.46,-157.34 705.41,-154.02 737.69,-136.06 775.99,-117.09 800,-105.46"/>
<polygon fill="red" stroke="red" stroke-width="0.33" points="801.57,-108.59 809.06,-101.1 798.53,-102.28 801.57,-108.59"/>
</g>
<!-- 399&#45;&gt;5 -->
<g id="edge63" class="edge">
<title>399&#45;&gt;5</title>
<path fill="none" stroke="green" stroke-width="0.45" d="M679.49,-157.56C687.62,-144.98 698.09,-128.8 706.4,-115.95"/>
<polygon fill="green" stroke="green" stroke-width="0.45" points="709.51,-117.58 712,-107.28 703.63,-113.78 709.51,-117.58"/>
</g>
<!-- 400&#45;&gt;0 -->
<g id="edge64" class="edge">
<title>400&#45;&gt;0</title>
<path fill="none" stroke="red" stroke-width="0.84" d="M1108.12,-164.58C1102.2,-160.96 1095.64,-157.17 1089.41,-154.02 1048.08,-133.15 997.67,-113.79 968.19,-103.04"/>
<polygon fill="red" stroke="red" stroke-width="0.84" points="969.28,-99.72 958.69,-99.62 966.91,-106.3 969.28,-99.72"/>
</g>
<!-- 400&#45;&gt;1 -->
<g id="edge65" class="edge">
<title>400&#45;&gt;1</title>
<path fill="none" stroke="red" stroke-width="0.29" d="M1112.64,-159.14C1090.25,-134.06 1046.68,-90.08 999.41,-68.53 893.98,-20.44 752.21,-16.12 694.03,-16.59"/>
<polygon fill="red" stroke="red" stroke-width="0.29" points="693.8,-13.09 683.85,-16.73 693.9,-20.09 693.8,-13.09"/>
</g>
<!-- 400&#45;&gt;2 -->
<g id="edge66" class="edge">
<title>400&#45;&gt;2</title>
<path fill="none" stroke="red" stroke-width="0.48" d="M1105.77,-168.75C1091.78,-163.56 1073.32,-157.43 1056.41,-154.02 856.24,-113.75 797.7,-162.48 598.41,-118.02 585.09,-115.05 570.81,-109.85 559.22,-105.07"/>
<polygon fill="red" stroke="red" stroke-width="0.48" points="560.39,-101.76 549.82,-101.04 557.64,-108.2 560.39,-101.76"/>
</g>
<!-- 400&#45;&gt;3 -->
<g id="edge67" class="edge">
<title>400&#45;&gt;3</title>
<path fill="none" stroke="green" stroke-width="0.35" d="M1105.42,-168.76C1091.46,-163.64 1073.15,-157.57 1056.41,-154.02 898.68,-120.57 853.15,-151.48 695.41,-118.02 679.31,-114.61 661.75,-108.86 648,-103.87"/>
<polygon fill="green" stroke="green" stroke-width="0.35" points="648.91,-100.48 638.32,-100.26 646.46,-107.04 648.91,-100.48"/>
</g>
<!-- 400&#45;&gt;4 -->
<g id="edge68" class="edge">
<title>400&#45;&gt;4</title>
<path fill="none" stroke="green" stroke-width="0.51" d="M1108.45,-163.83C1102.53,-160.2 1095.9,-156.59 1089.41,-154.02 1017.21,-125.42 994.1,-135.45 918.41,-118.02 894.79,-112.59 868.01,-105.84 848.92,-100.93"/>
<polygon fill="green" stroke="green" stroke-width="0.51" points="849.73,-97.52 839.17,-98.41 847.98,-104.3 849.73,-97.52"/>
</g>
<!-- 400&#45;&gt;5 -->
<g id="edge69" class="edge">
<title>400&#45;&gt;5</title>
<path fill="none" stroke="red" stroke-width="0.13" d="M1105.37,-169C1091.39,-163.97 1073.08,-157.9 1056.41,-154.02 943.65,-127.78 911.47,-142.96 798.41,-118.02 780.33,-114.04 760.36,-107.92 745.16,-102.9"/>
<polygon fill="red" stroke="red" stroke-width="0.13" points="746.07,-99.51 735.47,-99.63 743.83,-106.14 746.07,-99.51"/>
</g>
<!-- 401&#45;&gt;0 -->
<g id="edge70" class="edge">
<title>401&#45;&gt;0</title>
<path fill="none" stroke="green" stroke-width="0.95" d="M1005.66,-160.07C992.64,-146.3 974.61,-127.24 961.3,-113.18"/>
<polygon fill="green" stroke="green" stroke-width="0.95" points="963.5,-110.42 954.09,-105.56 958.42,-115.23 963.5,-110.42"/>
</g>
<!-- 401&#45;&gt;1 -->
<g id="edge71" class="edge">
<title>401&#45;&gt;1</title>
<path fill="none" stroke="green" stroke-width="0.11" d="M1017.41,-154.08C1010.75,-128.74 996.41,-89.38 968.41,-68.53 925.01,-36.2 759.36,-22.83 694.08,-18.74"/>
<polygon fill="green" stroke="green" stroke-width="0.11" points="693.99,-15.23 683.8,-18.12 693.57,-22.22 693.99,-15.23"/>
</g>
<!-- 401&#45;&gt;2 -->
<g id="edge72" class="edge">
<title>401&#45;&gt;2</title>
<path fill="none" stroke="green" stroke-width="0.17" d="M998.51,-171.9C976.32,-166.62 942.29,-158.95 912.41,-154.02 773.82,-131.17 734.95,-151.05 598.41,-118.02 585.15,-114.81 570.87,-109.59 559.27,-104.86"/>
<polygon fill="green" stroke="green" stroke-width="0.17" points="560.43,-101.55 549.86,-100.89 557.71,-108 560.43,-101.55"/>
</g>
<!-- 401&#45;&gt;3 -->
<g id="edge73" class="edge">
<title>401&#45;&gt;3</title>
<path fill="none" stroke="green" stroke-width="0.42" d="M999.08,-169.53C983.94,-164.45 963.7,-158.14 945.41,-154.02 835.89,-129.41 804.69,-143.71 695.41,-118.02 679.38,-114.26 661.83,-108.5 648.06,-103.6"/>
<polygon fill="green" stroke="green" stroke-width="0.42" points="648.96,-100.2 638.36,-100.06 646.56,-106.78 648.96,-100.2"/>
</g>
<!-- 401&#45;&gt;4 -->
<g id="edge74" class="edge">
<title>401&#45;&gt;4</title>
<path fill="none" stroke="red" stroke-width="0.11" d="M999.59,-168.19C961.72,-152.31 886.28,-120.65 847.56,-104.41"/>
<polygon fill="red" stroke="red" stroke-width="0.11" points="848.69,-101.09 838.12,-100.45 845.98,-107.54 848.69,-101.09"/>
</g>
<!-- 401&#45;&gt;5 -->
<g id="edge75" class="edge">
<title>401&#45;&gt;5</title>
<path fill="none" stroke="red" stroke-width="0.4" d="M998.93,-170.14C983.73,-165.29 963.48,-159.02 945.41,-154.02 880.58,-136.1 863.28,-135.83 798.41,-118.02 780.56,-113.12 760.58,-107.03 745.32,-102.24"/>
<polygon fill="red" stroke="red" stroke-width="0.4" points="746.18,-98.84 735.59,-99.17 744.07,-105.52 746.18,-98.84"/>
</g>
<!-- 402&#45;&gt;0 -->
<g id="edge76" class="edge">
<title>402&#45;&gt;0</title>
<path fill="none" stroke="green" stroke-width="0.35" d="M893.16,-158.83C903.36,-145.72 916.93,-128.29 927.4,-114.85"/>
<polygon fill="green" stroke="green" stroke-width="0.35" points="930.38,-116.72 933.76,-106.68 924.86,-112.42 930.38,-116.72"/>
</g>
<!-- 402&#45;&gt;1 -->
<g id="edge77" class="edge">
<title>402&#45;&gt;1</title>
<path fill="none" stroke="green" stroke-width="0.25" d="M878.35,-154.01C876.98,-129.35 870.99,-91.29 848.41,-68.53 806.68,-26.46 733.18,-18.27 693.91,-17.07"/>
<polygon fill="green" stroke="green" stroke-width="0.25" points="693.86,-13.57 683.8,-16.89 693.73,-20.57 693.86,-13.57"/>
</g>
<!-- 402&#45;&gt;2 -->
<g id="edge78" class="edge">
<title>402&#45;&gt;2</title>
<path fill="none" stroke="green" stroke-width="0.63" d="M855.32,-169.19C841.32,-164.23 823.01,-158.17 806.41,-154.02 715.4,-131.27 688.94,-142.68 598.41,-118.02 585.24,-114.44 570.98,-109.18 559.36,-104.52"/>
<polygon fill="green" stroke="green" stroke-width="0.63" points="560.5,-101.21 549.92,-100.64 557.84,-107.68 560.5,-101.21"/>
</g>
<!-- 402&#45;&gt;3 -->
<g id="edge79" class="edge">
<title>402&#45;&gt;3</title>
<path fill="none" stroke="red" stroke-width="0.16" d="M855.08,-170.04C840.99,-165.38 822.68,-159.34 806.41,-154.02 757.12,-137.9 744.71,-134.15 695.41,-118.02 679.76,-112.91 662.21,-107.12 648.36,-102.54"/>
<polygon fill="red" stroke="red" stroke-width="0.16" points="649.17,-99.12 638.58,-99.3 646.97,-105.77 649.17,-99.12"/>
</g>
<!-- 402&#45;&gt;4 -->
<g id="edge80" class="edge">
<title>402&#45;&gt;4</title>
<path fill="none" stroke="red" stroke-width="0.28" d="M865.1,-157.56C856.81,-144.98 846.16,-128.8 837.69,-115.95"/>
<polygon fill="red" stroke="red" stroke-width="0.28" points="840.41,-113.71 831.98,-107.28 834.56,-117.56 840.41,-113.71"/>
</g>
<!-- 402&#45;&gt;5 -->
<g id="edge81" class="edge">
<title>402&#45;&gt;5</title>
<path fill="none" stroke="green" stroke-width="0.27" d="M857.55,-164.64C851.73,-161.09 845.38,-157.33 839.41,-154.02 806.89,-136 768.26,-117.04 744.04,-105.43"/>
<polygon fill="green" stroke="green" stroke-width="0.27" points="745.43,-102.22 734.9,-101.08 742.42,-108.54 745.43,-102.22"/>
</g>
<!-- 403&#45;&gt;0 -->
<g id="edge82" class="edge">
<title>403&#45;&gt;0</title>
<path fill="none" stroke="red" stroke-width="0.41" d="M306.28,-171.65C328.45,-166.2 362.45,-158.42 392.41,-154.02 593.56,-124.51 647.77,-150.79 848.41,-118.02 872.48,-114.09 899.4,-107.11 918.42,-101.73"/>
<polygon fill="red" stroke="red" stroke-width="0.41" points="919.47,-105.07 928.11,-98.94 917.53,-98.35 919.47,-105.07"/>
</g>
<!-- 403&#45;&gt;1 -->
<g id="edge83" class="edge">
<title>403&#45;&gt;1</title>
<path fill="none" stroke="green" stroke-width="0.24" stroke-dasharray="1,5" d="M288.77,-154.41C296.97,-128.97 313.84,-89.16 343.41,-68.53 391.53,-34.96 572.06,-22.22 640.7,-18.52"/>
<polygon fill="green" stroke="green" stroke-width="0.24" points="641.27,-22 651.08,-17.99 640.91,-15.01 641.27,-22"/>
</g>
<!-- 403&#45;&gt;2 -->
<g id="edge84" class="edge">
<title>403&#45;&gt;2</title>
<path fill="none" stroke="red" stroke-width="0.16" d="M302.49,-164.1C308.41,-160.48 315.02,-156.8 321.41,-154.02 386.54,-125.75 468.64,-107.25 509.64,-99.08"/>
<polygon fill="red" stroke="red" stroke-width="0.16" points="510.46,-102.49 519.6,-97.14 509.12,-95.62 510.46,-102.49"/>
</g>
<!-- 403&#45;&gt;3 -->
<g id="edge85" class="edge">
<title>403&#45;&gt;3</title>
<path fill="none" stroke="green" stroke-width="0.3" d="M302.29,-163.59C308.2,-159.96 314.86,-156.4 321.41,-154.02 422.39,-117.37 456.47,-145.12 560.41,-118.02 573.62,-114.58 587.89,-109.34 599.51,-104.65"/>
<polygon fill="green" stroke="green" stroke-width="0.3" points="601.04,-107.8 608.93,-100.74 598.36,-101.34 601.04,-107.8"/>
</g>
<!-- 403&#45;&gt;4 -->
<g id="edge86" class="edge">
<title>403&#45;&gt;4</title>
<path fill="none" stroke="green" stroke-width="0.12" stroke-dasharray="1,5" d="M306.3,-171.81C328.49,-166.47 362.5,-158.76 392.41,-154.02 548.17,-129.35 590.81,-149.14 745.41,-118.02 763.57,-114.37 783.53,-108.25 798.72,-103.14"/>
<polygon fill="green" stroke="green" stroke-width="0.12" points="800.08,-106.37 808.39,-99.8 797.8,-99.75 800.08,-106.37"/>
</g>
<!-- 403&#45;&gt;5 -->
<g id="edge87" class="edge">
<title>403&#45;&gt;5</title>
<path fill="none" stroke="green" stroke-width="0.34" d="M302.23,-163.42C308.14,-159.78 314.81,-156.27 321.41,-154.02 459.82,-106.88 505.54,-149.09 648.41,-118.02 664.51,-114.53 682.07,-108.77 695.81,-103.81"/>
<polygon fill="green" stroke="green" stroke-width="0.34" points="697.34,-106.97 705.5,-100.21 694.91,-100.41 697.34,-106.97"/>
</g>
<!-- 403&#45;&gt;518 -->
<g id="edge124" class="edge">
<title>403&#45;&gt;518</title>
<path fill="none" stroke="green" stroke-width="0.29" d="M300.73,-161.67C315.19,-148.97 335.53,-131.09 351.63,-116.93"/>
<polygon fill="green" stroke="green" stroke-width="0.29" points="353.95,-119.56 359.15,-110.33 349.33,-114.3 353.95,-119.56"/>
</g>
<!-- 404&#45;&gt;0 -->
<g id="edge88" class="edge">
<title>404&#45;&gt;0</title>
<path fill="none" stroke="red" stroke-width="0.2" d="M794.42,-167.03C826.63,-151.3 886.38,-122.13 919.59,-105.91"/>
<polygon fill="red" stroke="red" stroke-width="0.2" points="921.53,-108.85 928.98,-101.32 918.46,-102.56 921.53,-108.85"/>
</g>
<!-- 404&#45;&gt;1 -->
<g id="edge89" class="edge">
<title>404&#45;&gt;1</title>
<path fill="none" stroke="red" stroke-width="0.32" d="M771.49,-153.97C769.5,-130.34 763.47,-94.04 745.41,-68.53 732.11,-49.73 709.54,-36 692.09,-27.51"/>
<polygon fill="red" stroke="red" stroke-width="0.32" points="693.07,-24.11 682.52,-23.12 690.15,-30.47 693.07,-24.11"/>
</g>
<!-- 404&#45;&gt;2 -->
<g id="edge90" class="edge">
<title>404&#45;&gt;2</title>
<path fill="none" stroke="red" stroke-width="0.18" d="M748.98,-169.97C715.49,-158.77 652.05,-137.34 598.41,-118.02 585.66,-113.43 571.52,-108.12 559.88,-103.69"/>
<polygon fill="red" stroke="red" stroke-width="0.18" points="560.98,-100.36 550.39,-100.06 558.48,-106.9 560.98,-100.36"/>
</g>
<!-- 404&#45;&gt;3 -->
<g id="edge91" class="edge">
<title>404&#45;&gt;3</title>
<path fill="none" stroke="green" stroke-width="0.34" d="M751.07,-165.81C723.16,-150.17 674.49,-122.9 645.99,-106.93"/>
<polygon fill="green" stroke="green" stroke-width="0.34" points="647.59,-103.81 637.16,-101.98 644.17,-109.92 647.59,-103.81"/>
</g>
<!-- 404&#45;&gt;4 -->
<g id="edge92" class="edge">
<title>404&#45;&gt;4</title>
<path fill="none" stroke="green" stroke-width="0.21" d="M785.02,-157.13C792.62,-144.7 802.28,-128.87 810.02,-116.21"/>
<polygon fill="green" stroke="green" stroke-width="0.21" points="813.02,-118 815.25,-107.64 807.05,-114.35 813.02,-118"/>
</g>
<!-- 404&#45;&gt;5 -->
<g id="edge93" class="edge">
<title>404&#45;&gt;5</title>
<path fill="none" stroke="green" stroke-width="0.46" d="M759.56,-157.13C751.82,-144.7 741.96,-128.87 734.07,-116.21"/>
<polygon fill="green" stroke="green" stroke-width="0.46" points="737,-114.28 728.74,-107.64 731.06,-117.98 737,-114.28"/>
</g>
<!-- 405&#45;&gt;0 -->
<g id="edge94" class="edge">
<title>405&#45;&gt;0</title>
<path fill="none" stroke="red" stroke-width="0.26" d="M444.96,-161.85C449.44,-158.76 454.39,-155.9 459.41,-154.02 622.03,-93.18 677.25,-147.16 848.41,-118.02 872.45,-113.93 899.38,-106.97 918.41,-101.64"/>
<polygon fill="red" stroke="red" stroke-width="0.26" points="919.44,-104.98 928.1,-98.87 917.52,-98.25 919.44,-104.98"/>
</g>
<!-- 405&#45;&gt;1 -->
<g id="edge95" class="edge">
<title>405&#45;&gt;1</title>
<path fill="none" stroke="red" stroke-width="0.33" d="M433.4,-154.61C442.09,-129.72 459.31,-90.77 487.41,-68.53 533.1,-32.37 603.09,-21.71 640.93,-18.57"/>
<polygon fill="red" stroke="red" stroke-width="0.33" points="641.41,-22.05 651.14,-17.85 640.91,-15.07 641.41,-22.05"/>
</g>
<!-- 405&#45;&gt;2 -->
<g id="edge96" class="edge">
<title>405&#45;&gt;2</title>
<path fill="none" stroke="red" stroke-width="0.29" d="M445.65,-163.04C465.03,-148.19 494.83,-125.36 514.72,-110.13"/>
<polygon fill="red" stroke="red" stroke-width="0.29" points="517.02,-112.78 522.83,-103.92 512.76,-107.22 517.02,-112.78"/>
</g>
<!-- 405&#45;&gt;3 -->
<g id="edge97" class="edge">
<title>405&#45;&gt;3</title>
<path fill="none" stroke="green" stroke-width="0.52" d="M445.37,-162.76C449.83,-159.62 454.66,-156.52 459.41,-154.02 501.62,-131.89 515.67,-134.43 560.41,-118.02 573.15,-113.36 587.28,-108.04 598.92,-103.63"/>
<polygon fill="green" stroke="green" stroke-width="0.52" points="600.32,-106.84 608.42,-100.01 597.83,-100.3 600.32,-106.84"/>
</g>
<!-- 405&#45;&gt;4 -->
<g id="edge98" class="edge">
<title>405&#45;&gt;4</title>
<path fill="none" stroke="red" stroke-width="0.11" d="M445.01,-161.97C449.48,-158.88 454.42,-155.99 459.41,-154.02 578.65,-107.16 620.12,-144.78 745.41,-118.02 763.52,-114.16 783.49,-108.04 798.69,-102.98"/>
<polygon fill="red" stroke="red" stroke-width="0.11" points="800.03,-106.23 808.37,-99.69 797.78,-99.6 800.03,-106.23"/>
</g>
<!-- 405&#45;&gt;5 -->
<g id="edge99" class="edge">
<title>405&#45;&gt;5</title>
<path fill="none" stroke="green" stroke-width="0.71" d="M445.11,-162.2C449.58,-159.1 454.49,-156.14 459.41,-154.02 537.97,-120.25 565.64,-139.46 648.41,-118.02 664.36,-113.9 681.91,-108.13 695.7,-103.31"/>
<polygon fill="green" stroke="green" stroke-width="0.71" points="697.17,-106.51 705.41,-99.86 694.82,-99.91 697.17,-106.51"/>
</g>
</g>
</svg>
