<?xml version="1.0" encoding="UTF-8" standalone="no"?>
<!DOCTYPE svg PUBLIC "-//W3C//DTD SVG 1.1//EN"
 "http://www.w3.org/Graphics/SVG/1.1/DTD/svg11.dtd">
<!-- Generated by graphviz version 2.44.0 (0)
 -->
<!-- Pages: 1 -->
<svg width="1919pt" height="180pt"
 viewBox="0.00 0.00 1918.52 180.02" xmlns="http://www.w3.org/2000/svg" xmlns:xlink="http://www.w3.org/1999/xlink">
<g id="graph0" class="graph" transform="scale(1 1) rotate(0) translate(4 176.02)">
<polygon fill="white" stroke="transparent" points="-4,4 -4,-176.02 1914.52,-176.02 1914.52,4 -4,4"/>
<!-- &#45;1 -->
<g id="node1" class="node">
<title>&#45;1</title>
<polygon fill="lightgray" stroke="black" points="1080.22,-172.02 1054.22,-172.02 1054.22,-154.02 1080.22,-154.02 1080.22,-172.02"/>
<text text-anchor="middle" x="1067.22" y="-160.82" font-family="Times-Roman" font-size="9.00">&#45;1</text>
</g>
<!-- 0 -->
<g id="node7" class="node">
<title>0</title>
<ellipse fill="lightblue" stroke="black" cx="563.22" cy="-16.26" rx="16.03" ry="16.03"/>
<text text-anchor="middle" x="563.22" y="-14.06" font-family="Times-Roman" font-size="9.00">0</text>
</g>
<!-- &#45;1&#45;&gt;0 -->
<g id="edge108" class="edge">
<title>&#45;1&#45;&gt;0</title>
<path fill="none" stroke="green" stroke-width="0.21" d="M1054.09,-161.51C955.04,-157.56 328.44,-132.04 315.22,-118.02 300.12,-102.02 301.32,-85.58 315.22,-68.53 342.93,-34.5 478.23,-22.37 536.47,-18.68"/>
<polygon fill="green" stroke="green" stroke-width="0.21" points="536.95,-22.15 546.72,-18.06 536.53,-15.17 536.95,-22.15"/>
</g>
<!-- 1 -->
<g id="node8" class="node">
<title>1</title>
<ellipse fill="lightblue" stroke="black" cx="697.22" cy="-16.26" rx="16.03" ry="16.03"/>
<text text-anchor="middle" x="697.22" y="-14.06" font-family="Times-Roman" font-size="9.00">1</text>
</g>
<!-- &#45;1&#45;&gt;1 -->
<g id="edge109" class="edge">
<title>&#45;1&#45;&gt;1</title>
<path fill="none" stroke="green" stroke-width="0.3" d="M1080.24,-157.27C1083.19,-156.2 1086.31,-155.07 1089.22,-154.02 1134.05,-137.88 1162.75,-156.97 1190.22,-118.02 1202.89,-100.05 1205.14,-84.69 1190.22,-68.53 1156.11,-31.59 788.34,-43.21 739.22,-32.53 733.43,-31.27 727.37,-29.41 721.71,-27.41"/>
<polygon fill="green" stroke="green" stroke-width="0.3" points="722.68,-24.04 712.09,-23.78 720.21,-30.59 722.68,-24.04"/>
</g>
<!-- 2 -->
<g id="node9" class="node">
<title>2</title>
<ellipse fill="lightblue" stroke="black" cx="931.22" cy="-16.26" rx="16.03" ry="16.03"/>
<text text-anchor="middle" x="931.22" y="-14.06" font-family="Times-Roman" font-size="9.00">2</text>
</g>
<!-- &#45;1&#45;&gt;2 -->
<g id="edge110" class="edge">
<title>&#45;1&#45;&gt;2</title>
<path fill="none" stroke="red" stroke-width="0.12" d="M1080.57,-156.65C1083.39,-155.67 1086.37,-154.73 1089.22,-154.02 1146.7,-139.83 1314.28,-162.63 1353.22,-118.02 1367.68,-101.45 1367.8,-84.99 1353.22,-68.53 1351.56,-66.65 1049.68,-31.14 957.58,-20.35"/>
<polygon fill="red" stroke="red" stroke-width="0.12" points="957.77,-16.85 947.43,-19.16 956.95,-23.8 957.77,-16.85"/>
</g>
<!-- 3 -->
<g id="node10" class="node">
<title>3</title>
<ellipse fill="lightblue" stroke="black" cx="764.22" cy="-16.26" rx="16.03" ry="16.03"/>
<text text-anchor="middle" x="764.22" y="-14.06" font-family="Times-Roman" font-size="9.00">3</text>
</g>
<!-- &#45;1&#45;&gt;3 -->
<g id="edge111" class="edge">
<title>&#45;1&#45;&gt;3</title>
<path fill="none" stroke="red" stroke-width="0.36" d="M1080.58,-156.68C1083.4,-155.69 1086.38,-154.74 1089.22,-154.02 1142.57,-140.55 1298.24,-159.67 1334.22,-118.02 1348.6,-101.38 1349.1,-84.72 1334.22,-68.53 1301.91,-33.4 953.72,-37.08 906.22,-32.53 865.73,-28.65 818.82,-23.47 790.35,-20.26"/>
<polygon fill="red" stroke="red" stroke-width="0.36" points="790.72,-16.78 780.39,-19.13 789.93,-23.73 790.72,-16.78"/>
</g>
<!-- 4 -->
<g id="node11" class="node">
<title>4</title>
<ellipse fill="lightblue" stroke="black" cx="1089.22" cy="-16.26" rx="16.03" ry="16.03"/>
<text text-anchor="middle" x="1089.22" y="-14.06" font-family="Times-Roman" font-size="9.00">4</text>
</g>
<!-- &#45;1&#45;&gt;4 -->
<g id="edge112" class="edge">
<title>&#45;1&#45;&gt;4</title>
<path fill="none" stroke="red" stroke-width="0.19" stroke-dasharray="1,5" d="M1080.53,-156.48C1083.36,-155.51 1086.35,-154.62 1089.22,-154.02 1156.8,-140.09 1661.86,-168.21 1709.22,-118.02 1724.31,-102.02 1724.28,-84.56 1709.22,-68.53 1665.15,-21.63 1194.21,-45.65 1131.22,-32.53 1125.33,-31.3 1119.16,-29.42 1113.41,-27.39"/>
<polygon fill="red" stroke="red" stroke-width="0.19" points="1114.28,-23.97 1103.69,-23.69 1111.79,-30.52 1114.28,-23.97"/>
</g>
<!-- 5 -->
<g id="node12" class="node">
<title>5</title>
<ellipse fill="lightblue" stroke="black" cx="1156.22" cy="-16.26" rx="16.03" ry="16.03"/>
<text text-anchor="middle" x="1156.22" y="-14.06" font-family="Times-Roman" font-size="9.00">5</text>
</g>
<!-- &#45;1&#45;&gt;5 -->
<g id="edge113" class="edge">
<title>&#45;1&#45;&gt;5</title>
<path fill="none" stroke="red" stroke-width="0.16" d="M1080.53,-156.48C1083.35,-155.5 1086.35,-154.61 1089.22,-154.02 1158.87,-139.72 1679.37,-169.7 1728.22,-118.02 1743.33,-102.04 1743.06,-84.76 1728.22,-68.53 1690.98,-27.8 1290.33,-19.18 1182.7,-17.59"/>
<polygon fill="red" stroke="red" stroke-width="0.16" points="1182.72,-14.09 1172.68,-17.45 1182.63,-21.09 1182.72,-14.09"/>
</g>
<!-- 226 -->
<g id="node13" class="node">
<title>226</title>
<ellipse fill="white" stroke="black" cx="496.22" cy="-93.28" rx="25" ry="25"/>
<text text-anchor="middle" x="496.22" y="-91.08" font-family="Times-Roman" font-size="9.00">226</text>
</g>
<!-- &#45;1&#45;&gt;226 -->
<g id="edge1" class="edge">
<title>&#45;1&#45;&gt;226</title>
<path fill="none" stroke="red" stroke-width="0.2" d="M1054.03,-161.37C976.33,-157.46 579.95,-136.7 529.22,-118.02 527.33,-117.33 525.45,-116.49 523.61,-115.56"/>
<polygon fill="red" stroke="red" stroke-width="0.2" points="525.12,-112.39 514.75,-110.24 521.52,-118.39 525.12,-112.39"/>
</g>
<!-- 228 -->
<g id="node14" class="node">
<title>228</title>
<ellipse fill="white" stroke="black" cx="563.22" cy="-93.28" rx="25" ry="25"/>
<text text-anchor="middle" x="563.22" y="-91.08" font-family="Times-Roman" font-size="9.00">228</text>
</g>
<!-- &#45;1&#45;&gt;228 -->
<g id="edge2" class="edge">
<title>&#45;1&#45;&gt;228</title>
<path fill="none" stroke="green" stroke-width="0.21" d="M1053.81,-161.72C986.32,-160.03 683.5,-150.73 596.22,-118.02 594.33,-117.32 592.46,-116.48 590.62,-115.53"/>
<polygon fill="green" stroke="green" stroke-width="0.21" points="592.14,-112.36 581.77,-110.2 588.52,-118.36 592.14,-112.36"/>
</g>
<!-- 229 -->
<g id="node15" class="node">
<title>229</title>
<ellipse fill="white" stroke="black" cx="1156.22" cy="-93.28" rx="25" ry="25"/>
<text text-anchor="middle" x="1156.22" y="-91.08" font-family="Times-Roman" font-size="9.00">229</text>
</g>
<!-- &#45;1&#45;&gt;229 -->
<g id="edge3" class="edge">
<title>&#45;1&#45;&gt;229</title>
<path fill="none" stroke="green" stroke-width="0.32" d="M1077.77,-153.99C1090.28,-144.47 1111.59,-128.25 1128.84,-115.11"/>
<polygon fill="green" stroke="green" stroke-width="0.32" points="1131.09,-117.8 1136.93,-108.96 1126.85,-112.23 1131.09,-117.8"/>
</g>
<!-- 230 -->
<g id="node16" class="node">
<title>230</title>
<ellipse fill="white" stroke="black" cx="697.22" cy="-93.28" rx="25" ry="25"/>
<text text-anchor="middle" x="697.22" y="-91.08" font-family="Times-Roman" font-size="9.00">230</text>
</g>
<!-- &#45;1&#45;&gt;230 -->
<g id="edge4" class="edge">
<title>&#45;1&#45;&gt;230</title>
<path fill="none" stroke="green" stroke-width="0.97" d="M1054.18,-161.18C999.82,-157.51 791.11,-142.12 730.22,-118.02 728.34,-117.28 726.48,-116.41 724.65,-115.45"/>
<polygon fill="green" stroke="green" stroke-width="0.97" points="726.18,-112.29 715.82,-110.06 722.53,-118.26 726.18,-112.29"/>
</g>
<!-- 231 -->
<g id="node17" class="node">
<title>231</title>
<ellipse fill="white" stroke="black" cx="764.22" cy="-93.28" rx="25" ry="25"/>
<text text-anchor="middle" x="764.22" y="-91.08" font-family="Times-Roman" font-size="9.00">231</text>
</g>
<!-- &#45;1&#45;&gt;231 -->
<g id="edge5" class="edge">
<title>&#45;1&#45;&gt;231</title>
<path fill="none" stroke="green" stroke-width="0.29" d="M1054.2,-159.11C1010,-149.23 864.8,-116.76 798.17,-101.87"/>
<polygon fill="green" stroke="green" stroke-width="0.29" points="798.7,-98.4 788.18,-99.63 797.18,-105.23 798.7,-98.4"/>
</g>
<!-- 232 -->
<g id="node18" class="node">
<title>232</title>
<ellipse fill="white" stroke="black" cx="630.22" cy="-93.28" rx="25" ry="25"/>
<text text-anchor="middle" x="630.22" y="-91.08" font-family="Times-Roman" font-size="9.00">232</text>
</g>
<!-- &#45;1&#45;&gt;232 -->
<g id="edge6" class="edge">
<title>&#45;1&#45;&gt;232</title>
<path fill="none" stroke="green" stroke-width="0.13" d="M1054.14,-161.5C993.24,-158.9 737.33,-146.44 663.22,-118.02 661.34,-117.3 659.47,-116.45 657.63,-115.5"/>
<polygon fill="green" stroke="green" stroke-width="0.13" points="659.15,-112.33 648.79,-110.14 655.52,-118.32 659.15,-112.33"/>
</g>
<!-- 233 -->
<g id="node19" class="node">
<title>233</title>
<ellipse fill="white" stroke="black" cx="1022.22" cy="-93.28" rx="25" ry="25"/>
<text text-anchor="middle" x="1022.22" y="-91.08" font-family="Times-Roman" font-size="9.00">233</text>
</g>
<!-- &#45;1&#45;&gt;233 -->
<g id="edge7" class="edge">
<title>&#45;1&#45;&gt;233</title>
<path fill="none" stroke="green" stroke-width="0.43" d="M1061.88,-153.99C1056.76,-146.28 1048.72,-134.17 1041.21,-122.87"/>
<polygon fill="green" stroke="green" stroke-width="0.43" points="1044.08,-120.87 1035.63,-114.47 1038.25,-124.74 1044.08,-120.87"/>
</g>
<!-- 234 -->
<g id="node20" class="node">
<title>234</title>
<ellipse fill="white" stroke="black" cx="1300.22" cy="-93.28" rx="25" ry="25"/>
<text text-anchor="middle" x="1300.22" y="-91.08" font-family="Times-Roman" font-size="9.00">234</text>
</g>
<!-- &#45;1&#45;&gt;234 -->
<g id="edge8" class="edge">
<title>&#45;1&#45;&gt;234</title>
<path fill="none" stroke="red" stroke-width="0.29" d="M1080.61,-156.81C1083.43,-155.81 1086.4,-154.83 1089.22,-154.02 1164.33,-132.62 1188.59,-146.75 1261.22,-118.02 1264.66,-116.66 1268.15,-115 1271.55,-113.21"/>
<polygon fill="red" stroke="red" stroke-width="0.29" points="1273.32,-116.23 1280.25,-108.22 1269.84,-110.15 1273.32,-116.23"/>
</g>
<!-- 235 -->
<g id="node21" class="node">
<title>235</title>
<ellipse fill="white" stroke="black" cx="1089.22" cy="-93.28" rx="25" ry="25"/>
<text text-anchor="middle" x="1089.22" y="-91.08" font-family="Times-Roman" font-size="9.00">235</text>
</g>
<!-- &#45;1&#45;&gt;235 -->
<g id="edge9" class="edge">
<title>&#45;1&#45;&gt;235</title>
<path fill="none" stroke="green" stroke-width="0.26" d="M1069.83,-153.99C1072.05,-147.13 1075.4,-136.81 1078.7,-126.66"/>
<polygon fill="green" stroke="green" stroke-width="0.26" points="1082.04,-127.7 1081.8,-117.1 1075.38,-125.53 1082.04,-127.7"/>
</g>
<!-- &#45;2 -->
<g id="node2" class="node">
<title>&#45;2</title>
<polygon fill="lightgray" stroke="black" points="798.22,-172.02 772.22,-172.02 772.22,-154.02 798.22,-154.02 798.22,-172.02"/>
<text text-anchor="middle" x="785.22" y="-160.82" font-family="Times-Roman" font-size="9.00">&#45;2</text>
</g>
<!-- &#45;2&#45;&gt;0 -->
<g id="edge114" class="edge">
<title>&#45;2&#45;&gt;0</title>
<path fill="none" stroke="green" stroke-width="0.68" d="M771.9,-156.47C769.08,-155.5 766.08,-154.61 763.22,-154.02 689.51,-139.01 138.97,-172.61 87.22,-118.02 72.08,-102.06 72.52,-84.89 87.22,-68.53 117.47,-34.84 441,-21.36 536.7,-18.09"/>
<polygon fill="green" stroke="green" stroke-width="0.68" points="537.08,-21.58 546.96,-17.75 536.85,-14.59 537.08,-21.58"/>
</g>
<!-- &#45;2&#45;&gt;1 -->
<g id="edge115" class="edge">
<title>&#45;2&#45;&gt;1</title>
<path fill="none" stroke="green" stroke-width="0.19" d="M771.89,-156.51C769.07,-155.53 766.08,-154.63 763.22,-154.02 706.12,-141.93 279.04,-160.68 239.22,-118.02 145.64,-17.8 168.54,-83.54 588.22,-32.53 616.58,-29.08 649,-24.45 671.05,-21.2"/>
<polygon fill="green" stroke="green" stroke-width="0.19" points="671.61,-24.65 680.99,-19.72 670.58,-17.73 671.61,-24.65"/>
</g>
<!-- &#45;2&#45;&gt;2 -->
<g id="edge116" class="edge">
<title>&#45;2&#45;&gt;2</title>
<path fill="none" stroke="red" stroke-width="0.16" d="M798.24,-157.28C801.19,-156.21 804.31,-155.08 807.22,-154.02 851.63,-137.95 875.73,-153.24 907.22,-118.02 925.65,-97.4 930.6,-65.18 931.61,-42.75"/>
<polygon fill="red" stroke="red" stroke-width="0.16" points="935.11,-42.69 931.83,-32.61 928.11,-42.54 935.11,-42.69"/>
</g>
<!-- &#45;2&#45;&gt;3 -->
<g id="edge117" class="edge">
<title>&#45;2&#45;&gt;3</title>
<path fill="none" stroke="red" stroke-width="0.16" d="M771.87,-156.62C769.05,-155.63 766.06,-154.7 763.22,-154.02 697.68,-138.41 506.93,-168.41 462.22,-118.02 447.61,-101.57 447.77,-85.11 462.22,-68.53 500.53,-24.54 665.6,-46.57 722.22,-32.53 727.96,-31.1 734,-29.17 739.67,-27.17"/>
<polygon fill="red" stroke="red" stroke-width="0.16" points="741.15,-30.35 749.29,-23.56 738.7,-23.79 741.15,-30.35"/>
</g>
<!-- &#45;2&#45;&gt;4 -->
<g id="edge118" class="edge">
<title>&#45;2&#45;&gt;4</title>
<path fill="none" stroke="green" stroke-width="0.32" d="M798.54,-156.51C801.36,-155.53 804.35,-154.63 807.22,-154.02 864.64,-141.88 1294.15,-160.92 1334.22,-118.02 1349.23,-101.95 1348.35,-85.39 1334.22,-68.53 1304.78,-33.42 1175.47,-44.4 1131.22,-32.53 1125.5,-30.99 1119.47,-29.02 1113.81,-27"/>
<polygon fill="green" stroke="green" stroke-width="0.32" points="1114.77,-23.63 1104.18,-23.42 1112.32,-30.19 1114.77,-23.63"/>
</g>
<!-- &#45;2&#45;&gt;5 -->
<g id="edge119" class="edge">
<title>&#45;2&#45;&gt;5</title>
<path fill="none" stroke="red" stroke-width="0.1" d="M798.54,-156.5C801.36,-155.52 804.35,-154.63 807.22,-154.02 866.71,-141.51 1311.66,-162.41 1353.22,-118.02 1368.25,-101.97 1366.67,-85.93 1353.22,-68.53 1332.37,-41.56 1231.07,-26.12 1182.41,-20.16"/>
<polygon fill="red" stroke="red" stroke-width="0.1" points="1182.68,-16.66 1172.33,-18.96 1181.85,-23.61 1182.68,-16.66"/>
</g>
<!-- &#45;2&#45;&gt;226 -->
<g id="edge10" class="edge">
<title>&#45;2&#45;&gt;226</title>
<path fill="none" stroke="green" stroke-width="0.38" d="M771.85,-156.69C769.03,-155.7 766.05,-154.75 763.22,-154.02 661.28,-127.92 626.61,-157.86 529.22,-118.02 527.35,-117.26 525.5,-116.38 523.67,-115.4"/>
<polygon fill="green" stroke="green" stroke-width="0.38" points="525.2,-112.24 514.85,-109.98 521.53,-118.2 525.2,-112.24"/>
</g>
<!-- &#45;2&#45;&gt;228 -->
<g id="edge11" class="edge">
<title>&#45;2&#45;&gt;228</title>
<path fill="none" stroke="red" stroke-width="0.78" d="M771.81,-156.82C769,-155.82 766.03,-154.83 763.22,-154.02 690.26,-133 665.6,-148.85 596.22,-118.02 594.38,-117.21 592.54,-116.28 590.72,-115.27"/>
<polygon fill="red" stroke="red" stroke-width="0.78" points="592.28,-112.11 581.95,-109.76 588.55,-118.04 592.28,-112.11"/>
</g>
<!-- &#45;2&#45;&gt;229 -->
<g id="edge12" class="edge">
<title>&#45;2&#45;&gt;229</title>
<path fill="none" stroke="red" stroke-width="0.17" d="M798.56,-156.61C801.38,-155.62 804.37,-154.69 807.22,-154.02 944.81,-121.65 991.36,-168.96 1123.22,-118.02 1125.09,-117.3 1126.96,-116.44 1128.8,-115.49"/>
<polygon fill="red" stroke="red" stroke-width="0.17" points="1130.91,-118.3 1137.64,-110.12 1127.27,-112.32 1130.91,-118.3"/>
</g>
<!-- &#45;2&#45;&gt;230 -->
<g id="edge13" class="edge">
<title>&#45;2&#45;&gt;230</title>
<path fill="none" stroke="green" stroke-width="0.33" d="M774.77,-153.99C762.49,-144.53 741.61,-128.45 724.61,-115.36"/>
<polygon fill="green" stroke="green" stroke-width="0.33" points="726.69,-112.55 716.63,-109.22 722.42,-118.09 726.69,-112.55"/>
</g>
<!-- &#45;2&#45;&gt;231 -->
<g id="edge14" class="edge">
<title>&#45;2&#45;&gt;231</title>
<path fill="none" stroke="red" stroke-width="0.17" d="M782.72,-153.99C780.6,-147.13 777.4,-136.81 774.25,-126.66"/>
<polygon fill="red" stroke="red" stroke-width="0.17" points="777.6,-125.62 771.29,-117.1 770.91,-127.69 777.6,-125.62"/>
</g>
<!-- &#45;2&#45;&gt;232 -->
<g id="edge15" class="edge">
<title>&#45;2&#45;&gt;232</title>
<path fill="none" stroke="red" stroke-width="0.25" d="M772.19,-157.28C769.24,-156.21 766.12,-155.08 763.22,-154.02 718.8,-137.95 705.01,-140.03 663.22,-118.02 661.44,-117.09 659.64,-116.06 657.86,-114.99"/>
<polygon fill="red" stroke="red" stroke-width="0.25" points="659.46,-111.85 649.18,-109.28 655.61,-117.7 659.46,-111.85"/>
</g>
<!-- &#45;2&#45;&gt;233 -->
<g id="edge16" class="edge">
<title>&#45;2&#45;&gt;233</title>
<path fill="none" stroke="red" stroke-width="0.78" d="M798.61,-156.8C801.43,-155.8 804.4,-154.82 807.22,-154.02 884.05,-132.32 908.9,-147.22 983.22,-118.02 986.66,-116.67 990.15,-115.02 993.56,-113.22"/>
<polygon fill="red" stroke="red" stroke-width="0.78" points="995.32,-116.24 1002.26,-108.24 991.84,-110.17 995.32,-116.24"/>
</g>
<!-- &#45;2&#45;&gt;234 -->
<g id="edge17" class="edge">
<title>&#45;2&#45;&gt;234</title>
<path fill="none" stroke="green" stroke-width="0.23" d="M798.55,-156.55C801.37,-155.57 804.36,-154.66 807.22,-154.02 988.42,-113.97 1041.07,-153.57 1223.22,-118.02 1237.99,-115.14 1253.94,-110.49 1267.47,-106.06"/>
<polygon fill="green" stroke="green" stroke-width="0.23" points="1268.93,-109.26 1277.29,-102.75 1266.7,-102.63 1268.93,-109.26"/>
</g>
<!-- &#45;2&#45;&gt;235 -->
<g id="edge18" class="edge">
<title>&#45;2&#45;&gt;235</title>
<path fill="none" stroke="green" stroke-width="0.37" d="M798.57,-156.67C801.4,-155.68 804.38,-154.74 807.22,-154.02 915.66,-126.77 952.53,-159.88 1056.22,-118.02 1058.08,-117.27 1059.94,-116.39 1061.77,-115.42"/>
<polygon fill="green" stroke="green" stroke-width="0.37" points="1063.9,-118.22 1070.59,-110.01 1060.24,-112.26 1063.9,-118.22"/>
</g>
<!-- &#45;3 -->
<g id="node3" class="node">
<title>&#45;3</title>
<polygon fill="lightgray" stroke="black" points="754.22,-172.02 728.22,-172.02 728.22,-154.02 754.22,-154.02 754.22,-172.02"/>
<text text-anchor="middle" x="741.22" y="-160.82" font-family="Times-Roman" font-size="9.00">&#45;3</text>
</g>
<!-- &#45;3&#45;&gt;0 -->
<g id="edge120" class="edge">
<title>&#45;3&#45;&gt;0</title>
<path fill="none" stroke="green" stroke-width="0.22" d="M727.9,-156.47C725.08,-155.5 722.08,-154.61 719.22,-154.02 646.17,-139.12 100.5,-172.14 49.22,-118.02 34.08,-102.06 34.45,-84.84 49.22,-68.53 82.21,-32.08 435.8,-20.46 536.56,-17.88"/>
<polygon fill="green" stroke="green" stroke-width="0.22" points="536.88,-21.37 546.79,-17.62 536.71,-14.37 536.88,-21.37"/>
</g>
<!-- &#45;3&#45;&gt;1 -->
<g id="edge121" class="edge">
<title>&#45;3&#45;&gt;1</title>
<path fill="none" stroke="green" stroke-width="0.34" d="M727.89,-156.51C725.07,-155.53 722.08,-154.63 719.22,-154.02 662.78,-142.05 240.57,-160.21 201.22,-118.02 100.09,-9.63 63.11,-93.68 588.22,-32.53 616.6,-29.22 649.01,-24.57 671.06,-21.27"/>
<polygon fill="green" stroke="green" stroke-width="0.34" points="671.63,-24.73 680.99,-19.77 670.58,-17.81 671.63,-24.73"/>
</g>
<!-- &#45;3&#45;&gt;2 -->
<g id="edge122" class="edge">
<title>&#45;3&#45;&gt;2</title>
<path fill="none" stroke="red" stroke-width="0.47" d="M754.23,-157.24C757.18,-156.17 760.3,-155.05 763.22,-154.02 810.15,-137.52 830.32,-149.05 869.22,-118.02 882.87,-107.13 905.76,-66.22 919.57,-40"/>
<polygon fill="red" stroke="red" stroke-width="0.47" points="922.7,-41.57 924.22,-31.09 916.49,-38.34 922.7,-41.57"/>
</g>
<!-- &#45;3&#45;&gt;3 -->
<g id="edge123" class="edge">
<title>&#45;3&#45;&gt;3</title>
<path fill="none" stroke="red" stroke-width="0.1" d="M727.86,-156.65C725.04,-155.66 722.06,-154.72 719.22,-154.02 660.21,-139.56 488.24,-163.72 448.22,-118.02 433.72,-101.48 433.71,-85.06 448.22,-68.53 488.71,-22.36 662.56,-47.1 722.22,-32.53 727.96,-31.12 734.01,-29.2 739.67,-27.19"/>
<polygon fill="red" stroke="red" stroke-width="0.1" points="741.16,-30.37 749.3,-23.59 738.7,-23.82 741.16,-30.37"/>
</g>
<!-- &#45;3&#45;&gt;4 -->
<g id="edge124" class="edge">
<title>&#45;3&#45;&gt;4</title>
<path fill="none" stroke="green" stroke-width="0.13" d="M754.54,-156.54C757.37,-155.56 760.36,-154.65 763.22,-154.02 809.72,-143.8 1157.99,-153.08 1190.22,-118.02 1205.1,-101.83 1201.72,-87.28 1190.22,-68.53 1181.59,-54.48 1140.98,-36.86 1113.95,-26.36"/>
<polygon fill="green" stroke="green" stroke-width="0.13" points="1114.94,-22.99 1104.35,-22.71 1112.45,-29.53 1114.94,-22.99"/>
</g>
<!-- &#45;3&#45;&gt;5 -->
<g id="edge125" class="edge">
<title>&#45;3&#45;&gt;5</title>
<path fill="none" stroke="green" stroke-width="0.11" d="M754.53,-156.47C757.35,-155.5 760.35,-154.61 763.22,-154.02 837.36,-138.93 1391.15,-172.92 1443.22,-118.02 1521.03,-35.99 1267.91,-20.69 1183,-17.88"/>
<polygon fill="green" stroke="green" stroke-width="0.11" points="1182.94,-14.38 1172.84,-17.58 1182.74,-21.38 1182.94,-14.38"/>
</g>
<!-- &#45;3&#45;&gt;226 -->
<g id="edge19" class="edge">
<title>&#45;3&#45;&gt;226</title>
<path fill="none" stroke="red" stroke-width="0.37" d="M727.83,-156.77C725.01,-155.77 722.04,-154.8 719.22,-154.02 636.34,-131.26 608.19,-151.93 529.22,-118.02 527.37,-117.23 525.52,-116.32 523.7,-115.33"/>
<polygon fill="red" stroke="red" stroke-width="0.37" points="525.24,-112.17 514.91,-109.85 521.54,-118.11 525.24,-112.17"/>
</g>
<!-- &#45;3&#45;&gt;228 -->
<g id="edge20" class="edge">
<title>&#45;3&#45;&gt;228</title>
<path fill="none" stroke="green" stroke-width="0.52" d="M727.77,-156.98C724.95,-155.97 722,-154.94 719.22,-154.02 665.09,-136.28 647.4,-143.02 596.22,-118.02 594.41,-117.14 592.59,-116.16 590.8,-115.12"/>
<polygon fill="green" stroke="green" stroke-width="0.52" points="592.37,-111.97 582.07,-109.5 588.58,-117.85 592.37,-111.97"/>
</g>
<!-- &#45;3&#45;&gt;229 -->
<g id="edge21" class="edge">
<title>&#45;3&#45;&gt;229</title>
<path fill="none" stroke="red" stroke-width="0.4" d="M754.55,-156.58C757.37,-155.59 760.36,-154.68 763.22,-154.02 919.99,-118.27 972.82,-174.93 1123.22,-118.02 1125.1,-117.31 1126.97,-116.46 1128.81,-115.52"/>
<polygon fill="red" stroke="red" stroke-width="0.4" points="1130.91,-118.34 1137.65,-110.17 1127.29,-112.35 1130.91,-118.34"/>
</g>
<!-- &#45;3&#45;&gt;230 -->
<g id="edge22" class="edge">
<title>&#45;3&#45;&gt;230</title>
<path fill="none" stroke="red" stroke-width="0.16" d="M735.99,-153.99C730.99,-146.28 723.13,-134.17 715.79,-122.87"/>
<polygon fill="red" stroke="red" stroke-width="0.16" points="718.71,-120.95 710.33,-114.47 712.84,-124.77 718.71,-120.95"/>
</g>
<!-- &#45;3&#45;&gt;231 -->
<g id="edge23" class="edge">
<title>&#45;3&#45;&gt;231</title>
<path fill="none" stroke="red" stroke-width="0.21" d="M743.94,-153.99C746.27,-147.13 749.78,-136.81 753.22,-126.66"/>
<polygon fill="red" stroke="red" stroke-width="0.21" points="756.56,-127.7 756.46,-117.1 749.94,-125.45 756.56,-127.7"/>
</g>
<!-- &#45;3&#45;&gt;232 -->
<g id="edge24" class="edge">
<title>&#45;3&#45;&gt;232</title>
<path fill="none" stroke="red" stroke-width="0.31" d="M727.98,-155.14C712.26,-146.82 685.35,-132.17 663.22,-118.02 661.56,-116.97 659.88,-115.86 658.2,-114.73"/>
<polygon fill="red" stroke="red" stroke-width="0.31" points="660.08,-111.77 649.86,-108.95 656.09,-117.53 660.08,-111.77"/>
</g>
<!-- &#45;3&#45;&gt;233 -->
<g id="edge25" class="edge">
<title>&#45;3&#45;&gt;233</title>
<path fill="none" stroke="green" stroke-width="0.12" d="M754.59,-156.71C757.4,-155.72 760.38,-154.76 763.22,-154.02 859.08,-128.99 890.3,-152.42 983.22,-118.02 986.69,-116.74 990.2,-115.13 993.61,-113.36"/>
<polygon fill="green" stroke="green" stroke-width="0.12" points="995.36,-116.39 1002.32,-108.41 991.9,-110.3 995.36,-116.39"/>
</g>
<!-- &#45;3&#45;&gt;234 -->
<g id="edge26" class="edge">
<title>&#45;3&#45;&gt;234</title>
<path fill="none" stroke="green" stroke-width="0.35" d="M754.54,-156.53C757.36,-155.55 760.36,-154.64 763.22,-154.02 963.63,-110.59 1021.78,-156.48 1223.22,-118.02 1238,-115.2 1253.95,-110.56 1267.49,-106.12"/>
<polygon fill="green" stroke="green" stroke-width="0.35" points="1268.95,-109.32 1277.3,-102.8 1266.71,-102.69 1268.95,-109.32"/>
</g>
<!-- &#45;3&#45;&gt;235 -->
<g id="edge27" class="edge">
<title>&#45;3&#45;&gt;235</title>
<path fill="none" stroke="red" stroke-width="0.27" stroke-dasharray="1,5" d="M754.56,-156.63C757.38,-155.64 760.37,-154.71 763.22,-154.02 890.79,-123.41 934.04,-165.84 1056.22,-118.02 1058.09,-117.29 1059.95,-116.43 1061.79,-115.47"/>
<polygon fill="red" stroke="red" stroke-width="0.27" points="1063.9,-118.28 1070.62,-110.09 1060.26,-112.3 1063.9,-118.28"/>
</g>
<!-- &#45;4 -->
<g id="node4" class="node">
<title>&#45;4</title>
<polygon fill="lightgray" stroke="black" points="842.22,-172.02 816.22,-172.02 816.22,-154.02 842.22,-154.02 842.22,-172.02"/>
<text text-anchor="middle" x="829.22" y="-160.82" font-family="Times-Roman" font-size="9.00">&#45;4</text>
</g>
<!-- &#45;4&#45;&gt;0 -->
<g id="edge126" class="edge">
<title>&#45;4&#45;&gt;0</title>
<path fill="none" stroke="red" stroke-width="0.11" d="M815.88,-156.58C813.06,-155.59 810.07,-154.68 807.22,-154.02 729.05,-136.19 502.01,-177.48 448.22,-118.02 433.46,-101.71 436.24,-86.98 448.22,-68.53 467.76,-38.42 509.54,-25.84 537,-20.7"/>
<polygon fill="red" stroke="red" stroke-width="0.11" points="537.8,-24.11 547.09,-19.02 536.65,-17.21 537.8,-24.11"/>
</g>
<!-- &#45;4&#45;&gt;1 -->
<g id="edge127" class="edge">
<title>&#45;4&#45;&gt;1</title>
<path fill="none" stroke="red" stroke-width="0.49" d="M815.88,-156.58C813.05,-155.6 810.07,-154.68 807.22,-154.02 732.1,-136.72 513.82,-175.29 462.22,-118.02 447.49,-101.68 448.42,-85.66 462.22,-68.53 475.38,-52.19 612.73,-29.9 671.15,-21.08"/>
<polygon fill="red" stroke="red" stroke-width="0.49" points="671.72,-24.54 681.09,-19.6 670.68,-17.61 671.72,-24.54"/>
</g>
<!-- &#45;4&#45;&gt;2 -->
<g id="edge128" class="edge">
<title>&#45;4&#45;&gt;2</title>
<path fill="none" stroke="green" stroke-width="0.15" d="M842.23,-161.38C919.68,-157.51 1317.04,-136.76 1334.22,-118.02 1349.08,-101.81 1348.76,-85.03 1334.22,-68.53 1331.07,-64.95 1046.35,-30.92 957.44,-20.37"/>
<polygon fill="green" stroke="green" stroke-width="0.15" points="957.71,-16.87 947.37,-19.17 956.89,-23.83 957.71,-16.87"/>
</g>
<!-- &#45;4&#45;&gt;3 -->
<g id="edge129" class="edge">
<title>&#45;4&#45;&gt;3</title>
<path fill="none" stroke="green" stroke-width="0.43" d="M827.32,-153.99C823.26,-137.46 812.88,-98.67 798.22,-68.53 793.1,-58.01 786.14,-47.11 779.85,-38.08"/>
<polygon fill="green" stroke="green" stroke-width="0.43" points="782.55,-35.84 773.87,-29.76 776.86,-39.92 782.55,-35.84"/>
</g>
<!-- &#45;4&#45;&gt;4 -->
<g id="edge130" class="edge">
<title>&#45;4&#45;&gt;4</title>
<path fill="none" stroke="red" stroke-width="0.1" d="M842.46,-161.41C922.18,-157.68 1335.35,-137.45 1353.22,-118.02 1368.11,-101.83 1367.47,-85.28 1353.22,-68.53 1320.83,-30.46 1179.58,-45.12 1131.22,-32.53 1125.49,-31.04 1119.45,-29.08 1113.79,-27.07"/>
<polygon fill="red" stroke="red" stroke-width="0.1" points="1114.75,-23.69 1104.16,-23.47 1112.31,-30.25 1114.75,-23.69"/>
</g>
<!-- &#45;4&#45;&gt;5 -->
<g id="edge131" class="edge">
<title>&#45;4&#45;&gt;5</title>
<path fill="none" stroke="green" stroke-width="0.3" d="M842.41,-161.46C923.7,-157.9 1353.64,-138.17 1372.22,-118.02 1387.13,-101.85 1385.86,-85.79 1372.22,-68.53 1348.84,-38.96 1235.1,-24.65 1182.72,-19.54"/>
<polygon fill="green" stroke="green" stroke-width="0.3" points="1182.81,-16.03 1172.53,-18.59 1182.16,-23 1182.81,-16.03"/>
</g>
<!-- &#45;4&#45;&gt;226 -->
<g id="edge28" class="edge">
<title>&#45;4&#45;&gt;226</title>
<path fill="none" stroke="red" stroke-width="0.3" d="M815.86,-156.64C813.04,-155.65 810.06,-154.72 807.22,-154.02 686.16,-124.56 645.09,-163.81 529.22,-118.02 527.34,-117.29 525.48,-116.42 523.65,-115.46"/>
<polygon fill="red" stroke="red" stroke-width="0.3" points="525.18,-112.29 514.82,-110.06 521.53,-118.26 525.18,-112.29"/>
</g>
<!-- &#45;4&#45;&gt;228 -->
<g id="edge29" class="edge">
<title>&#45;4&#45;&gt;228</title>
<path fill="none" stroke="red" stroke-width="0.32" d="M815.84,-156.73C813.02,-155.73 810.04,-154.77 807.22,-154.02 715.25,-129.67 683.97,-154.75 596.22,-118.02 594.36,-117.25 592.51,-116.35 590.68,-115.37"/>
<polygon fill="red" stroke="red" stroke-width="0.32" points="592.22,-112.2 581.88,-109.92 588.54,-118.16 592.22,-112.2"/>
</g>
<!-- &#45;4&#45;&gt;229 -->
<g id="edge30" class="edge">
<title>&#45;4&#45;&gt;229</title>
<path fill="none" stroke="green" stroke-width="0.42" d="M842.39,-162.22C884.84,-162.41 1021.14,-159.53 1123.22,-118.02 1125.08,-117.27 1126.94,-116.38 1128.77,-115.41"/>
<polygon fill="green" stroke="green" stroke-width="0.42" points="1130.9,-118.21 1137.58,-109.99 1127.23,-112.25 1130.9,-118.21"/>
</g>
<!-- &#45;4&#45;&gt;230 -->
<g id="edge31" class="edge">
<title>&#45;4&#45;&gt;230</title>
<path fill="none" stroke="red" stroke-width="0.15" d="M815.98,-157.15C796.59,-149.78 759.58,-134.88 730.22,-118.02 728.47,-117.02 726.71,-115.95 724.95,-114.83"/>
<polygon fill="red" stroke="red" stroke-width="0.15" points="726.57,-111.71 716.32,-109.03 722.66,-117.51 726.57,-111.71"/>
</g>
<!-- &#45;4&#45;&gt;231 -->
<g id="edge32" class="edge">
<title>&#45;4&#45;&gt;231</title>
<path fill="none" stroke="red" stroke-width="0.23" d="M821.5,-153.99C813.26,-145.39 799.78,-131.34 787.96,-119.03"/>
<polygon fill="red" stroke="red" stroke-width="0.23" points="790.33,-116.44 780.89,-111.65 785.28,-121.29 790.33,-116.44"/>
</g>
<!-- &#45;4&#45;&gt;232 -->
<g id="edge33" class="edge">
<title>&#45;4&#45;&gt;232</title>
<path fill="none" stroke="green" stroke-width="0.12" d="M815.79,-156.89C812.98,-155.89 810.01,-154.88 807.22,-154.02 744.13,-134.73 723.06,-145.79 663.22,-118.02 661.39,-117.18 659.56,-116.23 657.76,-115.2"/>
<polygon fill="green" stroke="green" stroke-width="0.12" points="659.32,-112.05 649,-109.64 655.56,-117.96 659.32,-112.05"/>
</g>
<!-- &#45;4&#45;&gt;233 -->
<g id="edge34" class="edge">
<title>&#45;4&#45;&gt;233</title>
<path fill="none" stroke="red" stroke-width="0.25" d="M842.4,-159.51C869.54,-154.06 933.29,-139.88 983.22,-118.02 986.61,-116.54 990.07,-114.8 993.45,-112.96"/>
<polygon fill="red" stroke="red" stroke-width="0.25" points="995.24,-115.97 1002.13,-107.92 991.72,-109.91 995.24,-115.97"/>
</g>
<!-- &#45;4&#45;&gt;234 -->
<g id="edge35" class="edge">
<title>&#45;4&#45;&gt;234</title>
<path fill="none" stroke="green" stroke-width="0.37" d="M842.28,-161.46C892.22,-159.1 1075.64,-148.74 1223.22,-118.02 1237.95,-114.96 1253.9,-110.27 1267.44,-105.88"/>
<polygon fill="green" stroke="green" stroke-width="0.37" points="1268.88,-109.08 1277.26,-102.6 1266.67,-102.44 1268.88,-109.08"/>
</g>
<!-- &#45;4&#45;&gt;235 -->
<g id="edge36" class="edge">
<title>&#45;4&#45;&gt;235</title>
<path fill="none" stroke="red" stroke-width="0.23" d="M842.34,-161.44C878.1,-159.44 979.74,-151.05 1056.22,-118.02 1058.06,-117.23 1059.91,-116.31 1061.73,-115.32"/>
<polygon fill="red" stroke="red" stroke-width="0.23" points="1063.89,-118.1 1070.52,-109.83 1060.18,-112.16 1063.89,-118.1"/>
</g>
<!-- &#45;5 -->
<g id="node5" class="node">
<title>&#45;5</title>
<polygon fill="lightgray" stroke="black" points="710.22,-172.02 684.22,-172.02 684.22,-154.02 710.22,-154.02 710.22,-172.02"/>
<text text-anchor="middle" x="697.22" y="-160.82" font-family="Times-Roman" font-size="9.00">&#45;5</text>
</g>
<!-- &#45;5&#45;&gt;0 -->
<g id="edge132" class="edge">
<title>&#45;5&#45;&gt;0</title>
<path fill="none" stroke="red" stroke-width="0.16" d="M684.02,-161.69C590.85,-159.23 35.15,-143.54 11.22,-118.02 -3.83,-101.98 -3.6,-84.79 11.22,-68.53 46.99,-29.28 431.31,-19.6 536.65,-17.68"/>
<polygon fill="red" stroke="red" stroke-width="0.16" points="536.82,-21.18 546.76,-17.5 536.7,-14.18 536.82,-21.18"/>
</g>
<!-- &#45;5&#45;&gt;1 -->
<g id="edge133" class="edge">
<title>&#45;5&#45;&gt;1</title>
<path fill="none" stroke="green" stroke-width="0.19" d="M683.97,-161.98C605.12,-161.57 199.61,-157.54 163.22,-118.02 55.77,-1.37 -43.32,-103.44 588.22,-32.53 616.61,-29.34 649.02,-24.67 671.07,-21.33"/>
<polygon fill="green" stroke="green" stroke-width="0.19" points="671.64,-24.79 681,-19.82 670.59,-17.87 671.64,-24.79"/>
</g>
<!-- &#45;5&#45;&gt;2 -->
<g id="edge134" class="edge">
<title>&#45;5&#45;&gt;2</title>
<path fill="none" stroke="green" stroke-width="0.14" d="M710.39,-156.74C733.99,-147.2 782.45,-127.25 798.22,-118.02 821.18,-104.58 879.69,-58.53 910.89,-33.61"/>
<polygon fill="green" stroke="green" stroke-width="0.14" points="913.3,-36.16 918.92,-27.18 908.92,-30.7 913.3,-36.16"/>
</g>
<!-- &#45;5&#45;&gt;3 -->
<g id="edge135" class="edge">
<title>&#45;5&#45;&gt;3</title>
<path fill="none" stroke="red" stroke-width="0.22" d="M684.04,-161.95C635.38,-161.39 466.89,-156.63 434.22,-118.02 420,-101.23 419.66,-85.02 434.22,-68.53 476.9,-20.17 659.51,-47.64 722.22,-32.53 727.97,-31.14 734.02,-29.23 739.68,-27.22"/>
<polygon fill="red" stroke="red" stroke-width="0.22" points="741.17,-30.4 749.3,-23.61 738.71,-23.85 741.17,-30.4"/>
</g>
<!-- &#45;5&#45;&gt;4 -->
<g id="edge136" class="edge">
<title>&#45;5&#45;&gt;4</title>
<path fill="none" stroke="red" stroke-width="0.45" d="M710.66,-156.96C713.47,-155.95 716.43,-154.92 719.22,-154.02 775.04,-135.99 790.8,-137.29 846.22,-118.02 928.26,-89.5 1022.51,-47.74 1065.56,-28.16"/>
<polygon fill="red" stroke="red" stroke-width="0.45" points="1067.01,-31.35 1074.65,-24.01 1064.1,-24.98 1067.01,-31.35"/>
</g>
<!-- &#45;5&#45;&gt;5 -->
<g id="edge137" class="edge">
<title>&#45;5&#45;&gt;5</title>
<path fill="none" stroke="red" stroke-width="0.12" d="M710.53,-156.48C713.36,-155.51 716.35,-154.62 719.22,-154.02 786.25,-140.18 1287.25,-167.82 1334.22,-118.02 1349.31,-102.02 1347.44,-86.1 1334.22,-68.53 1315.9,-44.2 1227.27,-27.81 1182.38,-20.93"/>
<polygon fill="red" stroke="red" stroke-width="0.12" points="1182.64,-17.43 1172.23,-19.42 1181.61,-24.35 1182.64,-17.43"/>
</g>
<!-- &#45;5&#45;&gt;226 -->
<g id="edge37" class="edge">
<title>&#45;5&#45;&gt;226</title>
<path fill="none" stroke="red" stroke-width="0.49" d="M684.01,-160.25C654.91,-155.99 583.5,-143.58 529.22,-118.02 527.39,-117.17 525.57,-116.21 523.77,-115.18"/>
<polygon fill="red" stroke="red" stroke-width="0.49" points="525.33,-112.02 515.02,-109.6 521.57,-117.93 525.33,-112.02"/>
</g>
<!-- &#45;5&#45;&gt;228 -->
<g id="edge38" class="edge">
<title>&#45;5&#45;&gt;228</title>
<path fill="none" stroke="green" stroke-width="0.18" d="M684.04,-157.32C664.33,-150.05 626.3,-135.15 596.22,-118.02 594.47,-117.03 592.7,-115.96 590.94,-114.85"/>
<polygon fill="green" stroke="green" stroke-width="0.18" points="592.55,-111.72 582.3,-109.05 588.65,-117.53 592.55,-111.72"/>
</g>
<!-- &#45;5&#45;&gt;229 -->
<g id="edge39" class="edge">
<title>&#45;5&#45;&gt;229</title>
<path fill="none" stroke="red" stroke-width="0.32" d="M710.55,-156.55C713.37,-155.57 716.36,-154.66 719.22,-154.02 895.18,-114.89 954.27,-180.91 1123.22,-118.02 1125.1,-117.32 1126.97,-116.48 1128.82,-115.54"/>
<polygon fill="red" stroke="red" stroke-width="0.32" points="1130.91,-118.37 1137.67,-110.21 1127.3,-112.37 1130.91,-118.37"/>
</g>
<!-- &#45;5&#45;&gt;230 -->
<g id="edge40" class="edge">
<title>&#45;5&#45;&gt;230</title>
<path fill="none" stroke="red" stroke-width="0.44" d="M697.22,-153.99C697.22,-147.55 697.22,-138.05 697.22,-128.52"/>
<polygon fill="red" stroke="red" stroke-width="0.44" points="700.72,-128.3 697.22,-118.3 693.72,-128.3 700.72,-128.3"/>
</g>
<!-- &#45;5&#45;&gt;231 -->
<g id="edge41" class="edge">
<title>&#45;5&#45;&gt;231</title>
<path fill="none" stroke="red" stroke-width="0.21" d="M705.16,-153.99C713.72,-145.34 727.74,-131.15 739.98,-118.78"/>
<polygon fill="red" stroke="red" stroke-width="0.21" points="742.76,-120.95 747.3,-111.38 737.78,-116.02 742.76,-120.95"/>
</g>
<!-- &#45;5&#45;&gt;232 -->
<g id="edge42" class="edge">
<title>&#45;5&#45;&gt;232</title>
<path fill="none" stroke="green" stroke-width="0.68" d="M689.27,-153.99C680.71,-145.34 666.69,-131.15 654.45,-118.78"/>
<polygon fill="green" stroke="green" stroke-width="0.68" points="656.65,-116.02 647.13,-111.38 651.67,-120.95 656.65,-116.02"/>
</g>
<!-- &#45;5&#45;&gt;233 -->
<g id="edge43" class="edge">
<title>&#45;5&#45;&gt;233</title>
<path fill="none" stroke="green" stroke-width="0.52" d="M710.57,-156.65C713.39,-155.67 716.37,-154.73 719.22,-154.02 834.18,-125.63 871.62,-157.65 983.22,-118.02 986.71,-116.78 990.22,-115.2 993.64,-113.45"/>
<polygon fill="green" stroke="green" stroke-width="0.52" points="995.38,-116.49 1002.37,-108.52 991.94,-110.39 995.38,-116.49"/>
</g>
<!-- &#45;5&#45;&gt;235 -->
<g id="edge44" class="edge">
<title>&#45;5&#45;&gt;235</title>
<path fill="none" stroke="red" stroke-width="0.56" d="M710.56,-156.59C713.38,-155.61 716.36,-154.68 719.22,-154.02 865.96,-120.04 915.51,-171.81 1056.22,-118.02 1058.09,-117.31 1059.96,-116.45 1061.8,-115.51"/>
<polygon fill="red" stroke="red" stroke-width="0.56" points="1063.91,-118.32 1070.65,-110.15 1060.28,-112.34 1063.91,-118.32"/>
</g>
<!-- &#45;6 -->
<g id="node6" class="node">
<title>&#45;6</title>
<polygon fill="lightgray" stroke="black" points="1124.22,-172.02 1098.22,-172.02 1098.22,-154.02 1124.22,-154.02 1124.22,-172.02"/>
<text text-anchor="middle" x="1111.22" y="-160.82" font-family="Times-Roman" font-size="9.00">&#45;6</text>
</g>
<!-- &#45;6&#45;&gt;0 -->
<g id="edge138" class="edge">
<title>&#45;6&#45;&gt;0</title>
<path fill="none" stroke="green" stroke-width="0.22" d="M1097.9,-156.48C1095.08,-155.51 1092.08,-154.61 1089.22,-154.02 1020.87,-139.95 510.12,-168.76 462.22,-118.02 447.11,-102.03 450.71,-87.28 462.22,-68.53 478.44,-42.1 512.99,-28.78 537.14,-22.45"/>
<polygon fill="green" stroke="green" stroke-width="0.22" points="538.17,-25.8 547.08,-20.07 536.54,-18.99 538.17,-25.8"/>
</g>
<!-- &#45;6&#45;&gt;1 -->
<g id="edge139" class="edge">
<title>&#45;6&#45;&gt;1</title>
<path fill="none" stroke="green" stroke-width="0.17" d="M1124.47,-161.52C1168.3,-159.56 1307.28,-150.8 1334.22,-118.02 1348.18,-101.03 1349.29,-84.55 1334.22,-68.53 1288.82,-20.3 804.07,-45.98 739.22,-32.53 733.33,-31.31 727.16,-29.43 721.41,-27.4"/>
<polygon fill="green" stroke="green" stroke-width="0.17" points="722.28,-23.98 711.69,-23.69 719.79,-30.52 722.28,-23.98"/>
</g>
<!-- &#45;6&#45;&gt;2 -->
<g id="edge140" class="edge">
<title>&#45;6&#45;&gt;2</title>
<path fill="none" stroke="red" stroke-width="0.44" d="M1124.41,-161.95C1202.11,-161.39 1597.71,-156.65 1633.22,-118.02 1648.1,-101.83 1648.27,-84.57 1633.22,-68.53 1589.86,-22.34 1127.31,-38.14 1064.22,-32.53 1027.18,-29.23 984.5,-24.1 957.69,-20.71"/>
<polygon fill="red" stroke="red" stroke-width="0.44" points="957.93,-17.21 947.57,-19.41 957.04,-24.15 957.93,-17.21"/>
</g>
<!-- &#45;6&#45;&gt;3 -->
<g id="edge141" class="edge">
<title>&#45;6&#45;&gt;3</title>
<path fill="none" stroke="red" stroke-width="0.15" d="M1124.42,-162.12C1191.51,-162.23 1488.22,-157.73 1405.22,-68.53 1367.35,-27.83 961.58,-37.5 906.22,-32.53 865.7,-28.89 818.8,-23.65 790.34,-20.35"/>
<polygon fill="red" stroke="red" stroke-width="0.15" points="790.72,-16.87 780.38,-19.19 789.91,-23.82 790.72,-16.87"/>
</g>
<!-- &#45;6&#45;&gt;4 -->
<g id="edge142" class="edge">
<title>&#45;6&#45;&gt;4</title>
<path fill="none" stroke="green" stroke-width="0.51" stroke-dasharray="1,5" d="M1124.23,-162.13C1209.44,-162.7 1685.58,-163.8 1728.22,-118.02 1743.21,-101.93 1743.3,-84.54 1728.22,-68.53 1682.66,-20.14 1196.29,-46.02 1131.22,-32.53 1125.33,-31.31 1119.16,-29.43 1113.41,-27.4"/>
<polygon fill="green" stroke="green" stroke-width="0.51" points="1114.28,-23.98 1103.69,-23.7 1111.79,-30.52 1114.28,-23.98"/>
</g>
<!-- &#45;6&#45;&gt;5 -->
<g id="edge143" class="edge">
<title>&#45;6&#45;&gt;5</title>
<path fill="none" stroke="red" stroke-width="0.2" d="M1124.38,-161.8C1225.19,-160.01 1871.44,-147.39 1899.22,-118.02 1914.33,-102.04 1914.23,-84.61 1899.22,-68.53 1849.44,-15.2 1309.96,-16.05 1182.9,-17.01"/>
<polygon fill="red" stroke="red" stroke-width="0.2" points="1182.52,-13.51 1172.55,-17.09 1182.58,-20.51 1182.52,-13.51"/>
</g>
<!-- &#45;6&#45;&gt;226 -->
<g id="edge45" class="edge">
<title>&#45;6&#45;&gt;226</title>
<path fill="none" stroke="red" stroke-width="0.34" d="M1097.9,-156.5C1095.07,-155.52 1092.08,-154.62 1089.22,-154.02 845.11,-102.89 764.01,-202.14 529.22,-118.02 527.32,-117.35 525.44,-116.52 523.59,-115.6"/>
<polygon fill="red" stroke="red" stroke-width="0.34" points="525.11,-112.43 514.73,-110.3 521.52,-118.44 525.11,-112.43"/>
</g>
<!-- &#45;6&#45;&gt;228 -->
<g id="edge46" class="edge">
<title>&#45;6&#45;&gt;228</title>
<path fill="none" stroke="red" stroke-width="0.41" d="M1097.89,-156.52C1095.07,-155.54 1092.08,-154.64 1089.22,-154.02 874.39,-108.05 802.71,-193.02 596.22,-118.02 594.32,-117.34 592.45,-116.51 590.6,-115.58"/>
<polygon fill="red" stroke="red" stroke-width="0.41" points="592.12,-112.41 581.74,-110.27 588.52,-118.41 592.12,-112.41"/>
</g>
<!-- &#45;6&#45;&gt;229 -->
<g id="edge47" class="edge">
<title>&#45;6&#45;&gt;229</title>
<path fill="none" stroke="red" stroke-width="0.25" d="M1116.55,-153.99C1121.67,-146.28 1129.71,-134.17 1137.22,-122.87"/>
<polygon fill="red" stroke="red" stroke-width="0.25" points="1140.18,-124.74 1142.8,-114.47 1134.35,-120.87 1140.18,-124.74"/>
</g>
<!-- &#45;6&#45;&gt;230 -->
<g id="edge48" class="edge">
<title>&#45;6&#45;&gt;230</title>
<path fill="none" stroke="red" stroke-width="0.32" d="M1097.88,-156.58C1095.06,-155.59 1092.07,-154.68 1089.22,-154.02 932.88,-118.35 880.19,-174.79 730.22,-118.02 728.33,-117.31 726.46,-116.46 724.62,-115.52"/>
<polygon fill="red" stroke="red" stroke-width="0.32" points="726.14,-112.35 715.78,-110.17 722.52,-118.34 726.14,-112.35"/>
</g>
<!-- &#45;6&#45;&gt;231 -->
<g id="edge49" class="edge">
<title>&#45;6&#45;&gt;231</title>
<path fill="none" stroke="red" stroke-width="0.39" d="M1097.83,-156.76C1095.01,-155.76 1092.04,-154.79 1089.22,-154.02 985.28,-125.79 859.01,-106.83 799.05,-98.73"/>
<polygon fill="red" stroke="red" stroke-width="0.39" points="799.37,-95.24 788.99,-97.39 798.44,-102.18 799.37,-95.24"/>
</g>
<!-- &#45;6&#45;&gt;232 -->
<g id="edge50" class="edge">
<title>&#45;6&#45;&gt;232</title>
<path fill="none" stroke="green" stroke-width="0.42" d="M1097.89,-156.54C1095.06,-155.56 1092.07,-154.65 1089.22,-154.02 903.64,-113.2 841.44,-183.9 663.22,-118.02 661.33,-117.33 659.45,-116.49 657.61,-115.55"/>
<polygon fill="green" stroke="green" stroke-width="0.42" points="659.13,-112.38 648.75,-110.23 655.52,-118.38 659.13,-112.38"/>
</g>
<!-- &#45;6&#45;&gt;233 -->
<g id="edge51" class="edge">
<title>&#45;6&#45;&gt;233</title>
<path fill="none" stroke="green" stroke-width="0.36" d="M1100.66,-153.99C1088.15,-144.47 1066.85,-128.25 1049.59,-115.11"/>
<polygon fill="green" stroke="green" stroke-width="0.36" points="1051.58,-112.23 1041.5,-108.96 1047.34,-117.8 1051.58,-112.23"/>
</g>
<!-- &#45;6&#45;&gt;234 -->
<g id="edge52" class="edge">
<title>&#45;6&#45;&gt;234</title>
<path fill="none" stroke="red" stroke-width="0.14" d="M1124.46,-159.36C1151.12,-153.75 1212.81,-139.42 1261.22,-118.02 1264.6,-116.53 1268.06,-114.78 1271.44,-112.93"/>
<polygon fill="red" stroke="red" stroke-width="0.14" points="1273.23,-115.94 1280.12,-107.89 1269.71,-109.89 1273.23,-115.94"/>
</g>
<!-- &#45;6&#45;&gt;235 -->
<g id="edge53" class="edge">
<title>&#45;6&#45;&gt;235</title>
<path fill="none" stroke="red" stroke-width="0.49" d="M1108.6,-153.99C1106.38,-147.13 1103.03,-136.81 1099.73,-126.66"/>
<polygon fill="red" stroke="red" stroke-width="0.49" points="1103.05,-125.53 1096.63,-117.1 1096.39,-127.7 1103.05,-125.53"/>
</g>
<!-- 226&#45;&gt;0 -->
<g id="edge54" class="edge">
<title>226&#45;&gt;0</title>
<path fill="none" stroke="green" stroke-width="0.35" d="M512.43,-74.12C522.53,-62.81 535.51,-48.28 545.82,-36.74"/>
<polygon fill="green" stroke="green" stroke-width="0.35" points="548.73,-38.74 552.78,-28.95 543.51,-34.07 548.73,-38.74"/>
</g>
<!-- 226&#45;&gt;1 -->
<g id="edge55" class="edge">
<title>226&#45;&gt;1</title>
<path fill="none" stroke="red" stroke-width="0.47" d="M515.09,-77.1C519.55,-73.97 524.41,-70.91 529.22,-68.53 576.8,-44.95 637.39,-29.73 671.27,-22.4"/>
<polygon fill="red" stroke="red" stroke-width="0.47" points="672.21,-25.78 681.28,-20.3 670.78,-18.93 672.21,-25.78"/>
</g>
<!-- 226&#45;&gt;2 -->
<g id="edge56" class="edge">
<title>226&#45;&gt;2</title>
<path fill="none" stroke="green" stroke-width="0.21" d="M514.81,-76.48C519.29,-73.39 524.22,-70.49 529.22,-68.53 546.79,-61.6 817.92,-30.2 904.71,-20.28"/>
<polygon fill="green" stroke="green" stroke-width="0.21" points="905.26,-23.74 914.8,-19.13 904.47,-16.78 905.26,-23.74"/>
</g>
<!-- 226&#45;&gt;3 -->
<g id="edge57" class="edge">
<title>226&#45;&gt;3</title>
<path fill="none" stroke="red" stroke-width="0.11" d="M514.9,-76.69C519.37,-73.59 524.28,-70.64 529.22,-68.53 609.44,-34.22 638.04,-55.51 722.22,-32.53 727.92,-30.97 733.96,-28.99 739.61,-26.97"/>
<polygon fill="red" stroke="red" stroke-width="0.11" points="741.09,-30.15 749.24,-23.38 738.65,-23.59 741.09,-30.15"/>
</g>
<!-- 226&#45;&gt;4 -->
<g id="edge58" class="edge">
<title>226&#45;&gt;4</title>
<path fill="none" stroke="green" stroke-width="0.44" d="M514.75,-76.32C519.23,-73.23 524.18,-70.39 529.22,-68.53 707.86,-2.51 766.7,-51.39 956.22,-32.53 993.21,-28.85 1035.9,-23.81 1062.72,-20.54"/>
<polygon fill="green" stroke="green" stroke-width="0.44" points="1063.35,-23.99 1072.85,-19.3 1062.5,-17.04 1063.35,-23.99"/>
</g>
<!-- 226&#45;&gt;5 -->
<g id="edge59" class="edge">
<title>226&#45;&gt;5</title>
<path fill="none" stroke="red" stroke-width="0.26" d="M514.72,-76.24C519.2,-73.15 524.16,-70.33 529.22,-68.53 651.89,-24.77 986.7,-59.04 1114.22,-32.53 1120.1,-31.3 1126.27,-29.42 1132.02,-27.39"/>
<polygon fill="red" stroke="red" stroke-width="0.26" points="1133.64,-30.52 1141.74,-23.69 1131.15,-23.98 1133.64,-30.52"/>
</g>
<!-- 228&#45;&gt;0 -->
<g id="edge60" class="edge">
<title>228&#45;&gt;0</title>
<path fill="none" stroke="red" stroke-width="0.5" d="M563.22,-68.13C563.22,-60.03 563.22,-50.97 563.22,-42.77"/>
<polygon fill="red" stroke="red" stroke-width="0.5" points="566.72,-42.64 563.22,-32.64 559.72,-42.64 566.72,-42.64"/>
</g>
<!-- 228&#45;&gt;1 -->
<g id="edge61" class="edge">
<title>228&#45;&gt;1</title>
<path fill="none" stroke="green" stroke-width="0.13" d="M582.77,-77.45C587.11,-74.37 591.75,-71.24 596.22,-68.53 621.74,-52.99 652.54,-37.84 673.37,-28.09"/>
<polygon fill="green" stroke="green" stroke-width="0.13" points="674.85,-31.26 682.45,-23.88 671.91,-24.91 674.85,-31.26"/>
</g>
<!-- 228&#45;&gt;2 -->
<g id="edge62" class="edge">
<title>228&#45;&gt;2</title>
<path fill="none" stroke="red" stroke-width="0.38" d="M581.85,-76.57C586.32,-73.47 591.25,-70.56 596.22,-68.53 624.71,-56.89 830.46,-30.02 904.64,-20.6"/>
<polygon fill="red" stroke="red" stroke-width="0.38" points="905.5,-24.02 914.98,-19.29 904.62,-17.08 905.5,-24.02"/>
</g>
<!-- 228&#45;&gt;3 -->
<g id="edge63" class="edge">
<title>228&#45;&gt;3</title>
<path fill="none" stroke="red" stroke-width="0.44" d="M582.06,-77.03C586.52,-73.91 591.39,-70.87 596.22,-68.53 648.63,-43.14 666.81,-50.48 722.22,-32.53 727.84,-30.7 733.84,-28.61 739.5,-26.57"/>
<polygon fill="red" stroke="red" stroke-width="0.44" points="740.96,-29.76 749.14,-23.03 738.55,-23.19 740.96,-29.76"/>
</g>
<!-- 228&#45;&gt;4 -->
<g id="edge64" class="edge">
<title>228&#45;&gt;4</title>
<path fill="none" stroke="green" stroke-width="0.13" d="M581.78,-76.38C586.25,-73.29 591.2,-70.43 596.22,-68.53 746.61,-11.62 796.34,-49.69 956.22,-32.53 993.18,-28.56 1035.88,-23.59 1062.71,-20.42"/>
<polygon fill="green" stroke="green" stroke-width="0.13" points="1063.32,-23.87 1072.84,-19.22 1062.5,-16.92 1063.32,-23.87"/>
</g>
<!-- 228&#45;&gt;5 -->
<g id="edge65" class="edge">
<title>228&#45;&gt;5</title>
<path fill="none" stroke="green" stroke-width="0.41" d="M581.73,-76.27C586.21,-73.18 591.17,-70.35 596.22,-68.53 813.27,9.87 888.46,-80.4 1114.22,-32.53 1120,-31.3 1126.07,-29.45 1131.73,-27.46"/>
<polygon fill="green" stroke="green" stroke-width="0.41" points="1133.24,-30.63 1141.35,-23.82 1130.76,-24.08 1133.24,-30.63"/>
</g>
<!-- 229&#45;&gt;0 -->
<g id="edge66" class="edge">
<title>229&#45;&gt;0</title>
<path fill="none" stroke="red" stroke-width="0.28" d="M1137.68,-76.3C1133.21,-73.22 1128.25,-70.38 1123.22,-68.53 1028.83,-33.89 772.16,-43.5 672.22,-32.53 643.81,-29.41 611.4,-24.72 589.36,-21.37"/>
<polygon fill="red" stroke="red" stroke-width="0.28" points="589.84,-17.9 579.43,-19.84 588.78,-24.82 589.84,-17.9"/>
</g>
<!-- 229&#45;&gt;1 -->
<g id="edge67" class="edge">
<title>229&#45;&gt;1</title>
<path fill="none" stroke="green" stroke-width="0.26" d="M1137.66,-76.36C1133.19,-73.27 1128.24,-70.41 1123.22,-68.53 962.71,-8.36 906.46,-70.11 739.22,-32.53 733.44,-31.23 727.38,-29.35 721.72,-27.35"/>
<polygon fill="green" stroke="green" stroke-width="0.26" points="722.69,-23.98 712.1,-23.73 720.22,-30.53 722.69,-23.98"/>
</g>
<!-- 229&#45;&gt;2 -->
<g id="edge68" class="edge">
<title>229&#45;&gt;2</title>
<path fill="none" stroke="green" stroke-width="0.12" d="M1137.4,-76.97C1132.94,-73.85 1128.06,-70.82 1123.22,-68.53 1067.31,-42.05 995.53,-27.51 957.54,-21.18"/>
<polygon fill="green" stroke="green" stroke-width="0.12" points="957.75,-17.67 947.32,-19.54 956.64,-24.58 957.75,-17.67"/>
</g>
<!-- 229&#45;&gt;3 -->
<g id="edge69" class="edge">
<title>229&#45;&gt;3</title>
<path fill="none" stroke="red" stroke-width="0.23" d="M1137.59,-76.54C1133.12,-73.44 1128.19,-70.53 1123.22,-68.53 1092.39,-56.11 868.25,-29.31 790.61,-20.29"/>
<polygon fill="red" stroke="red" stroke-width="0.23" points="790.59,-16.77 780.26,-19.1 789.79,-23.72 790.59,-16.77"/>
</g>
<!-- 229&#45;&gt;4 -->
<g id="edge70" class="edge">
<title>229&#45;&gt;4</title>
<path fill="none" stroke="green" stroke-width="0.13" d="M1140,-74.12C1129.9,-62.81 1116.92,-48.28 1106.61,-36.74"/>
<polygon fill="green" stroke="green" stroke-width="0.13" points="1108.92,-34.07 1099.65,-28.95 1103.7,-38.74 1108.92,-34.07"/>
</g>
<!-- 229&#45;&gt;5 -->
<g id="edge71" class="edge">
<title>229&#45;&gt;5</title>
<path fill="none" stroke="green" stroke-width="0.24" d="M1156.22,-68.13C1156.22,-60.03 1156.22,-50.97 1156.22,-42.77"/>
<polygon fill="green" stroke="green" stroke-width="0.24" points="1159.72,-42.64 1156.22,-32.64 1152.72,-42.64 1159.72,-42.64"/>
</g>
<!-- 230&#45;&gt;0 -->
<g id="edge72" class="edge">
<title>230&#45;&gt;0</title>
<path fill="none" stroke="red" stroke-width="0.21" d="M677.66,-77.45C673.32,-74.37 668.68,-71.24 664.22,-68.53 638.69,-52.99 607.89,-37.84 587.06,-28.09"/>
<polygon fill="red" stroke="red" stroke-width="0.21" points="588.52,-24.91 577.98,-23.88 585.58,-31.26 588.52,-24.91"/>
</g>
<!-- 230&#45;&gt;1 -->
<g id="edge73" class="edge">
<title>230&#45;&gt;1</title>
<path fill="none" stroke="green" stroke-width="0.4" d="M697.22,-68.13C697.22,-60.03 697.22,-50.97 697.22,-42.77"/>
<polygon fill="green" stroke="green" stroke-width="0.4" points="700.72,-42.64 697.22,-32.64 693.72,-42.64 700.72,-42.64"/>
</g>
<!-- 230&#45;&gt;2 -->
<g id="edge74" class="edge">
<title>230&#45;&gt;2</title>
<path fill="none" stroke="red" stroke-width="0.15" d="M716.01,-76.93C720.47,-73.81 725.35,-70.8 730.22,-68.53 789.42,-40.89 865.67,-26.68 905.06,-20.74"/>
<polygon fill="red" stroke="red" stroke-width="0.15" points="905.76,-24.18 915.15,-19.28 904.75,-17.25 905.76,-24.18"/>
</g>
<!-- 230&#45;&gt;3 -->
<g id="edge75" class="edge">
<title>230&#45;&gt;3</title>
<path fill="none" stroke="green" stroke-width="0.3" d="M713.43,-74.12C723.53,-62.81 736.51,-48.28 746.82,-36.74"/>
<polygon fill="green" stroke="green" stroke-width="0.3" points="749.73,-38.74 753.78,-28.95 744.51,-34.07 749.73,-38.74"/>
</g>
<!-- 230&#45;&gt;4 -->
<g id="edge76" class="edge">
<title>230&#45;&gt;4</title>
<path fill="none" stroke="red" stroke-width="0.35" d="M715.84,-76.54C720.31,-73.44 725.24,-70.53 730.22,-68.53 761.04,-56.11 985.18,-29.31 1062.82,-20.29"/>
<polygon fill="red" stroke="red" stroke-width="0.35" points="1063.64,-23.72 1073.17,-19.1 1062.84,-16.77 1063.64,-23.72"/>
</g>
<!-- 230&#45;&gt;5 -->
<g id="edge77" class="edge">
<title>230&#45;&gt;5</title>
<path fill="none" stroke="green" stroke-width="0.17" d="M715.77,-76.36C720.24,-73.27 725.19,-70.41 730.22,-68.53 890.72,-8.36 946.97,-70.11 1114.22,-32.53 1119.99,-31.23 1126.05,-29.35 1131.71,-27.35"/>
<polygon fill="green" stroke="green" stroke-width="0.17" points="1133.21,-30.53 1141.33,-23.73 1130.74,-23.98 1133.21,-30.53"/>
</g>
<!-- 231&#45;&gt;0 -->
<g id="edge78" class="edge">
<title>231&#45;&gt;0</title>
<path fill="none" stroke="green" stroke-width="0.19" d="M745.34,-77.1C740.88,-73.97 736.02,-70.91 731.22,-68.53 683.63,-44.95 623.04,-29.73 589.16,-22.4"/>
<polygon fill="green" stroke="green" stroke-width="0.19" points="589.65,-18.93 579.15,-20.3 588.22,-25.78 589.65,-18.93"/>
</g>
<!-- 231&#45;&gt;1 -->
<g id="edge79" class="edge">
<title>231&#45;&gt;1</title>
<path fill="none" stroke="green" stroke-width="0.27" d="M748,-74.12C737.9,-62.81 724.92,-48.28 714.61,-36.74"/>
<polygon fill="green" stroke="green" stroke-width="0.27" points="716.92,-34.07 707.65,-28.95 711.7,-38.74 716.92,-34.07"/>
</g>
<!-- 231&#45;&gt;2 -->
<g id="edge80" class="edge">
<title>231&#45;&gt;2</title>
<path fill="none" stroke="red" stroke-width="0.17" d="M786.74,-82.16C818.2,-68.03 875.07,-42.48 907.28,-28.01"/>
<polygon fill="red" stroke="red" stroke-width="0.17" points="908.74,-31.2 916.43,-23.9 905.87,-24.81 908.74,-31.2"/>
</g>
<!-- 231&#45;&gt;3 -->
<g id="edge81" class="edge">
<title>231&#45;&gt;3</title>
<path fill="none" stroke="green" stroke-width="0.43" d="M764.22,-68.13C764.22,-60.03 764.22,-50.97 764.22,-42.77"/>
<polygon fill="green" stroke="green" stroke-width="0.43" points="767.72,-42.64 764.22,-32.64 760.72,-42.64 767.72,-42.64"/>
</g>
<!-- 231&#45;&gt;4 -->
<g id="edge82" class="edge">
<title>231&#45;&gt;4</title>
<path fill="none" stroke="red" stroke-width="0.16" d="M788.11,-86.76C847.58,-73.04 1001.82,-37.44 1063.33,-23.24"/>
<polygon fill="red" stroke="red" stroke-width="0.16" points="1064.41,-26.58 1073.37,-20.92 1062.84,-19.76 1064.41,-26.58"/>
</g>
<!-- 231&#45;&gt;5 -->
<g id="edge83" class="edge">
<title>231&#45;&gt;5</title>
<path fill="none" stroke="red" stroke-width="0.28" d="M788.72,-89.63C846.25,-83.08 994.14,-64.32 1114.22,-32.53 1119.93,-31.01 1125.97,-29.05 1131.63,-27.03"/>
<polygon fill="red" stroke="red" stroke-width="0.28" points="1133.11,-30.21 1141.26,-23.44 1130.67,-23.66 1133.11,-30.21"/>
</g>
<!-- 232&#45;&gt;0 -->
<g id="edge84" class="edge">
<title>232&#45;&gt;0</title>
<path fill="none" stroke="red" stroke-width="0.16" d="M614,-74.12C603.9,-62.81 590.92,-48.28 580.61,-36.74"/>
<polygon fill="red" stroke="red" stroke-width="0.16" points="582.92,-34.07 573.65,-28.95 577.7,-38.74 582.92,-34.07"/>
</g>
<!-- 232&#45;&gt;1 -->
<g id="edge85" class="edge">
<title>232&#45;&gt;1</title>
<path fill="none" stroke="green" stroke-width="0.64" d="M646.43,-74.12C656.53,-62.81 669.51,-48.28 679.82,-36.74"/>
<polygon fill="green" stroke="green" stroke-width="0.64" points="682.73,-38.74 686.78,-28.95 677.51,-34.07 682.73,-38.74"/>
</g>
<!-- 232&#45;&gt;2 -->
<g id="edge86" class="edge">
<title>232&#45;&gt;2</title>
<path fill="none" stroke="red" stroke-width="0.19" d="M648.91,-76.71C653.38,-73.6 658.29,-70.65 663.22,-68.53 746.55,-32.66 855.19,-21.77 904.63,-18.56"/>
<polygon fill="red" stroke="red" stroke-width="0.19" points="905.02,-22.04 914.8,-17.95 904.61,-15.05 905.02,-22.04"/>
</g>
<!-- 232&#45;&gt;3 -->
<g id="edge87" class="edge">
<title>232&#45;&gt;3</title>
<path fill="none" stroke="red" stroke-width="0.26" d="M649.77,-77.45C654.11,-74.37 658.75,-71.24 663.22,-68.53 688.74,-52.99 719.54,-37.84 740.37,-28.09"/>
<polygon fill="red" stroke="red" stroke-width="0.26" points="741.85,-31.26 749.45,-23.88 738.91,-24.91 741.85,-31.26"/>
</g>
<!-- 232&#45;&gt;4 -->
<g id="edge88" class="edge">
<title>232&#45;&gt;4</title>
<path fill="none" stroke="red" stroke-width="0.2" d="M648.8,-76.45C653.28,-73.36 658.22,-70.48 663.22,-68.53 667.92,-66.69 970.55,-31.16 1062.81,-20.35"/>
<polygon fill="red" stroke="red" stroke-width="0.2" points="1063.46,-23.8 1072.98,-19.16 1062.64,-16.85 1063.46,-23.8"/>
</g>
<!-- 232&#45;&gt;5 -->
<g id="edge89" class="edge">
<title>232&#45;&gt;5</title>
<path fill="none" stroke="green" stroke-width="0.19" d="M648.75,-76.3C653.22,-73.22 658.18,-70.38 663.22,-68.53 851.99,0.75 917.72,-75.25 1114.22,-32.53 1120,-31.27 1126.06,-29.41 1131.72,-27.41"/>
<polygon fill="green" stroke="green" stroke-width="0.19" points="1133.22,-30.59 1141.34,-23.78 1130.75,-24.04 1133.22,-30.59"/>
</g>
<!-- 233&#45;&gt;0 -->
<g id="edge90" class="edge">
<title>233&#45;&gt;0</title>
<path fill="none" stroke="red" stroke-width="0.64" d="M997.86,-88.3C918.93,-75.4 670.58,-34.81 589.27,-21.52"/>
<polygon fill="red" stroke="red" stroke-width="0.64" points="589.79,-18.06 579.36,-19.9 588.66,-24.97 589.79,-18.06"/>
</g>
<!-- 233&#45;&gt;1 -->
<g id="edge91" class="edge">
<title>233&#45;&gt;1</title>
<path fill="none" stroke="green" stroke-width="0.37" d="M997.71,-88.3C948.28,-80.01 833.37,-59.43 739.22,-32.53 733.53,-30.9 727.5,-28.89 721.84,-26.87"/>
<polygon fill="green" stroke="green" stroke-width="0.37" points="722.8,-23.49 712.21,-23.29 720.37,-30.05 722.8,-23.49"/>
</g>
<!-- 233&#45;&gt;2 -->
<g id="edge92" class="edge">
<title>233&#45;&gt;2</title>
<path fill="none" stroke="green" stroke-width="0.16" d="M1003.36,-76.73C988.16,-64.21 966.84,-46.63 951.32,-33.83"/>
<polygon fill="green" stroke="green" stroke-width="0.16" points="953.31,-30.94 943.37,-27.28 948.86,-36.34 953.31,-30.94"/>
</g>
<!-- 233&#45;&gt;3 -->
<g id="edge93" class="edge">
<title>233&#45;&gt;3</title>
<path fill="none" stroke="green" stroke-width="0.39" d="M998.41,-85.35C949.72,-71.2 839.2,-39.07 789.39,-24.58"/>
<polygon fill="green" stroke="green" stroke-width="0.39" points="790.3,-21.2 779.73,-21.77 788.35,-27.93 790.3,-21.2"/>
</g>
<!-- 233&#45;&gt;4 -->
<g id="edge94" class="edge">
<title>233&#45;&gt;4</title>
<path fill="none" stroke="green" stroke-width="0.25" d="M1038.43,-74.12C1048.53,-62.81 1061.51,-48.28 1071.82,-36.74"/>
<polygon fill="green" stroke="green" stroke-width="0.25" points="1074.73,-38.74 1078.78,-28.95 1069.51,-34.07 1074.73,-38.74"/>
</g>
<!-- 233&#45;&gt;5 -->
<g id="edge95" class="edge">
<title>233&#45;&gt;5</title>
<path fill="none" stroke="green" stroke-width="0.36" d="M1041.77,-77.45C1046.11,-74.37 1050.75,-71.24 1055.22,-68.53 1080.74,-52.99 1111.54,-37.84 1132.37,-28.09"/>
<polygon fill="green" stroke="green" stroke-width="0.36" points="1133.85,-31.26 1141.45,-23.88 1130.91,-24.91 1133.85,-31.26"/>
</g>
<!-- 234&#45;&gt;0 -->
<g id="edge96" class="edge">
<title>234&#45;&gt;0</title>
<path fill="none" stroke="red" stroke-width="0.35" d="M1276.36,-86.09C1254.2,-80.59 1220.2,-72.78 1190.22,-68.53 961.73,-36.09 901.74,-56.54 672.22,-32.53 643.8,-29.55 611.39,-24.85 589.35,-21.44"/>
<polygon fill="red" stroke="red" stroke-width="0.35" points="589.84,-17.98 579.42,-19.89 588.76,-24.9 589.84,-17.98"/>
</g>
<!-- 234&#45;&gt;1 -->
<g id="edge97" class="edge">
<title>234&#45;&gt;1</title>
<path fill="none" stroke="red" stroke-width="0.41" d="M1280.46,-77.75C1274.55,-74.11 1267.86,-70.64 1261.22,-68.53 1039.6,1.95 966.72,-80.71 739.22,-32.53 733.43,-31.3 727.36,-29.45 721.7,-27.46"/>
<polygon fill="red" stroke="red" stroke-width="0.41" points="722.67,-24.08 712.08,-23.82 720.19,-30.63 722.67,-24.08"/>
</g>
<!-- 234&#45;&gt;2 -->
<g id="edge98" class="edge">
<title>234&#45;&gt;2</title>
<path fill="none" stroke="green" stroke-width="0.15" d="M1280.34,-78.11C1274.42,-74.48 1267.77,-70.92 1261.22,-68.53 1205.12,-48.02 1025.57,-27.32 957.61,-20.02"/>
<polygon fill="green" stroke="green" stroke-width="0.15" points="957.66,-16.5 947.34,-18.92 956.92,-23.46 957.66,-16.5"/>
</g>
<!-- 234&#45;&gt;3 -->
<g id="edge99" class="edge">
<title>234&#45;&gt;3</title>
<path fill="none" stroke="green" stroke-width="0.26" d="M1280.42,-77.89C1274.5,-74.25 1267.83,-70.75 1261.22,-68.53 1110.88,-18.04 1063.94,-49 906.22,-32.53 865.76,-28.3 818.84,-23.22 790.36,-20.12"/>
<polygon fill="green" stroke="green" stroke-width="0.26" points="790.72,-16.64 780.4,-19.03 789.96,-23.6 790.72,-16.64"/>
</g>
<!-- 234&#45;&gt;4 -->
<g id="edge100" class="edge">
<title>234&#45;&gt;4</title>
<path fill="none" stroke="red" stroke-width="0.55" d="M1280.14,-78.6C1274.23,-74.97 1267.62,-71.3 1261.22,-68.53 1206.2,-44.71 1188.32,-50.78 1131.22,-32.53 1125.58,-30.73 1119.58,-28.64 1113.92,-26.61"/>
<polygon fill="red" stroke="red" stroke-width="0.55" points="1114.87,-23.23 1104.28,-23.06 1112.46,-29.8 1114.87,-23.23"/>
</g>
<!-- 234&#45;&gt;5 -->
<g id="edge101" class="edge">
<title>234&#45;&gt;5</title>
<path fill="none" stroke="green" stroke-width="0.24" d="M1279.37,-79.1C1273.56,-75.55 1267.2,-71.8 1261.22,-68.53 1233.87,-53.57 1201.52,-38.1 1180.03,-28.12"/>
<polygon fill="green" stroke="green" stroke-width="0.24" points="1181.24,-24.82 1170.7,-23.81 1178.31,-31.18 1181.24,-24.82"/>
</g>
<!-- 235&#45;&gt;0 -->
<g id="edge102" class="edge">
<title>235&#45;&gt;0</title>
<path fill="none" stroke="green" stroke-width="0.13" d="M1070.66,-76.36C1066.19,-73.27 1061.24,-70.41 1056.22,-68.53 895.71,-8.36 842.47,-52.42 672.22,-32.53 643.84,-29.21 611.42,-24.56 589.37,-21.27"/>
<polygon fill="green" stroke="green" stroke-width="0.13" points="589.85,-17.8 579.44,-19.77 588.8,-24.72 589.85,-17.8"/>
</g>
<!-- 235&#45;&gt;1 -->
<g id="edge103" class="edge">
<title>235&#45;&gt;1</title>
<path fill="none" stroke="green" stroke-width="0.38" d="M1070.64,-76.43C1066.16,-73.34 1061.22,-70.46 1056.22,-68.53 923.94,-17.46 877.25,-64.97 739.22,-32.53 733.46,-31.17 727.4,-29.27 721.74,-27.27"/>
<polygon fill="green" stroke="green" stroke-width="0.38" points="722.71,-23.9 712.12,-23.65 720.25,-30.45 722.71,-23.9"/>
</g>
<!-- 235&#45;&gt;2 -->
<g id="edge104" class="edge">
<title>235&#45;&gt;2</title>
<path fill="none" stroke="green" stroke-width="0.23" d="M1070.17,-77.42C1065.72,-74.28 1060.91,-71.13 1056.22,-68.53 1023.23,-50.23 982.35,-34.69 956.52,-25.66"/>
<polygon fill="green" stroke="green" stroke-width="0.23" points="957.35,-22.25 946.75,-22.31 955.08,-28.87 957.35,-22.25"/>
</g>
<!-- 235&#45;&gt;3 -->
<g id="edge105" class="edge">
<title>235&#45;&gt;3</title>
<path fill="none" stroke="green" stroke-width="0.36" d="M1070.55,-76.65C1066.08,-73.55 1061.16,-70.61 1056.22,-68.53 1008.11,-48.26 852.94,-27.93 790.55,-20.36"/>
<polygon fill="green" stroke="green" stroke-width="0.36" points="790.71,-16.85 780.36,-19.13 789.87,-23.8 790.71,-16.85"/>
</g>
<!-- 235&#45;&gt;4 -->
<g id="edge106" class="edge">
<title>235&#45;&gt;4</title>
<path fill="none" stroke="green" stroke-width="0.53" d="M1089.22,-68.13C1089.22,-60.03 1089.22,-50.97 1089.22,-42.77"/>
<polygon fill="green" stroke="green" stroke-width="0.53" points="1092.72,-42.64 1089.22,-32.64 1085.72,-42.64 1092.72,-42.64"/>
</g>
<!-- 235&#45;&gt;5 -->
<g id="edge107" class="edge">
<title>235&#45;&gt;5</title>
<path fill="none" stroke="red" stroke-width="0.28" d="M1105.43,-74.12C1115.53,-62.81 1128.51,-48.28 1138.82,-36.74"/>
<polygon fill="red" stroke="red" stroke-width="0.28" points="1141.73,-38.74 1145.78,-28.95 1136.51,-34.07 1141.73,-38.74"/>
</g>
</g>
</svg>
