<?xml version="1.0" encoding="utf-8" standalone="no"?>
<!DOCTYPE svg PUBLIC "-//W3C//DTD SVG 1.1//EN"
  "http://www.w3.org/Graphics/SVG/1.1/DTD/svg11.dtd">
<svg xmlns:xlink="http://www.w3.org/1999/xlink" width="460.8pt" height="345.6pt" viewBox="0 0 460.8 345.6" xmlns="http://www.w3.org/2000/svg" version="1.1">
 <metadata>
  <rdf:RDF xmlns:dc="http://purl.org/dc/elements/1.1/" xmlns:cc="http://creativecommons.org/ns#" xmlns:rdf="http://www.w3.org/1999/02/22-rdf-syntax-ns#">
   <cc:Work>
    <dc:type rdf:resource="http://purl.org/dc/dcmitype/StillImage"/>
    <dc:date>2023-06-22T06:41:32.023542</dc:date>
    <dc:format>image/svg+xml</dc:format>
    <dc:creator>
     <cc:Agent>
      <dc:title>Matplotlib v3.6.3, https://matplotlib.org/</dc:title>
     </cc:Agent>
    </dc:creator>
   </cc:Work>
  </rdf:RDF>
 </metadata>
 <defs>
  <style type="text/css">*{stroke-linejoin: round; stroke-linecap: butt}</style>
 </defs>
 <g id="figure_1">
  <g id="patch_1">
   <path d="M 0 345.6 
L 460.8 345.6 
L 460.8 0 
L 0 0 
z
" style="fill: #ffffff"/>
  </g>
  <g id="axes_1">
   <g id="patch_2">
    <path d="M 57.6 307.584 
L 414.72 307.584 
L 414.72 41.472 
L 57.6 41.472 
z
" style="fill: #ffffff"/>
   </g>
   <g id="PolyCollection_1">
    <path d="M 73.832727 300.73427 
L 73.832727 307.584 
L 82.157203 307.584 
L 90.481678 307.584 
L 98.806154 307.584 
L 107.130629 307.584 
L 115.455105 307.584 
L 123.77958 307.584 
L 132.104056 307.584 
L 140.428531 307.584 
L 148.753007 307.584 
L 157.077483 307.584 
L 165.401958 307.584 
L 173.726434 307.584 
L 182.050909 307.584 
L 190.375385 307.584 
L 198.69986 307.584 
L 207.024336 307.584 
L 215.348811 307.584 
L 223.673287 307.584 
L 231.997762 307.584 
L 240.322238 307.584 
L 248.646713 307.584 
L 256.971189 307.584 
L 265.295664 307.584 
L 273.62014 307.584 
L 281.944615 307.584 
L 290.269091 307.584 
L 298.593566 307.584 
L 306.918042 307.584 
L 315.242517 307.584 
L 323.566993 307.584 
L 331.891469 307.584 
L 340.215944 307.584 
L 348.54042 307.584 
L 356.864895 307.584 
L 365.189371 307.584 
L 373.513846 307.584 
L 381.838322 307.584 
L 390.162797 307.584 
L 398.487273 307.584 
L 398.487273 307.584 
L 398.487273 307.584 
L 390.162797 307.584 
L 381.838322 307.584 
L 373.513846 307.584 
L 365.189371 307.584 
L 356.864895 307.584 
L 348.54042 307.584 
L 340.215944 307.584 
L 331.891469 307.584 
L 323.566993 307.584 
L 315.242517 307.584 
L 306.918042 307.584 
L 298.593566 307.584 
L 290.269091 307.584 
L 281.944615 307.584 
L 273.62014 307.584 
L 265.295664 307.584 
L 256.971189 307.584 
L 248.646713 307.584 
L 240.322238 300.73427 
L 231.997762 300.73427 
L 223.673287 300.73427 
L 215.348811 300.73427 
L 207.024336 300.73427 
L 198.69986 300.73427 
L 190.375385 300.73427 
L 182.050909 300.73427 
L 173.726434 300.73427 
L 165.401958 300.73427 
L 157.077483 300.73427 
L 148.753007 300.73427 
L 140.428531 300.73427 
L 132.104056 300.73427 
L 123.77958 300.73427 
L 115.455105 300.73427 
L 107.130629 300.73427 
L 98.806154 300.73427 
L 90.481678 300.73427 
L 82.157203 300.73427 
L 73.832727 300.73427 
z
" clip-path="url(#p480b6e2405)" style="fill: #1f77b4"/>
   </g>
   <g id="PolyCollection_2">
    <path d="M 73.832727 293.884541 
L 73.832727 300.73427 
L 82.157203 300.73427 
L 90.481678 300.73427 
L 98.806154 300.73427 
L 107.130629 300.73427 
L 115.455105 300.73427 
L 123.77958 300.73427 
L 132.104056 300.73427 
L 140.428531 300.73427 
L 148.753007 300.73427 
L 157.077483 300.73427 
L 165.401958 300.73427 
L 173.726434 300.73427 
L 182.050909 300.73427 
L 190.375385 300.73427 
L 198.69986 300.73427 
L 207.024336 300.73427 
L 215.348811 300.73427 
L 223.673287 300.73427 
L 231.997762 300.73427 
L 240.322238 300.73427 
L 248.646713 307.584 
L 256.971189 307.584 
L 265.295664 307.584 
L 273.62014 307.584 
L 281.944615 307.584 
L 290.269091 307.584 
L 298.593566 307.584 
L 306.918042 307.584 
L 315.242517 307.584 
L 323.566993 307.584 
L 331.891469 307.584 
L 340.215944 307.584 
L 348.54042 307.584 
L 356.864895 307.584 
L 365.189371 307.584 
L 373.513846 307.584 
L 381.838322 307.584 
L 390.162797 307.584 
L 398.487273 307.584 
L 398.487273 307.584 
L 398.487273 307.584 
L 390.162797 307.584 
L 381.838322 307.584 
L 373.513846 307.584 
L 365.189371 307.584 
L 356.864895 307.584 
L 348.54042 307.584 
L 340.215944 307.584 
L 331.891469 307.584 
L 323.566993 307.584 
L 315.242517 307.584 
L 306.918042 307.584 
L 298.593566 307.584 
L 290.269091 307.584 
L 281.944615 307.584 
L 273.62014 307.584 
L 265.295664 307.584 
L 256.971189 307.584 
L 248.646713 307.584 
L 240.322238 293.884541 
L 231.997762 293.884541 
L 223.673287 293.884541 
L 215.348811 293.884541 
L 207.024336 293.884541 
L 198.69986 293.884541 
L 190.375385 293.884541 
L 182.050909 293.884541 
L 173.726434 293.884541 
L 165.401958 293.884541 
L 157.077483 293.884541 
L 148.753007 293.884541 
L 140.428531 293.884541 
L 132.104056 293.884541 
L 123.77958 293.884541 
L 115.455105 293.884541 
L 107.130629 293.884541 
L 98.806154 293.884541 
L 90.481678 293.884541 
L 82.157203 293.884541 
L 73.832727 293.884541 
z
" clip-path="url(#p480b6e2405)" style="fill: #ff7f0e"/>
   </g>
   <g id="PolyCollection_3">
    <path d="M 73.832727 290.459676 
L 73.832727 293.884541 
L 82.157203 293.884541 
L 90.481678 293.884541 
L 98.806154 293.884541 
L 107.130629 293.884541 
L 115.455105 293.884541 
L 123.77958 293.884541 
L 132.104056 293.884541 
L 140.428531 293.884541 
L 148.753007 293.884541 
L 157.077483 293.884541 
L 165.401958 293.884541 
L 173.726434 293.884541 
L 182.050909 293.884541 
L 190.375385 293.884541 
L 198.69986 293.884541 
L 207.024336 293.884541 
L 215.348811 293.884541 
L 223.673287 293.884541 
L 231.997762 293.884541 
L 240.322238 293.884541 
L 248.646713 307.584 
L 256.971189 307.584 
L 265.295664 307.584 
L 273.62014 307.584 
L 281.944615 307.584 
L 290.269091 307.584 
L 298.593566 307.584 
L 306.918042 307.584 
L 315.242517 307.584 
L 323.566993 307.584 
L 331.891469 307.584 
L 340.215944 307.584 
L 348.54042 307.584 
L 356.864895 307.584 
L 365.189371 307.584 
L 373.513846 307.584 
L 381.838322 307.584 
L 390.162797 307.584 
L 398.487273 307.584 
L 398.487273 307.584 
L 398.487273 307.584 
L 390.162797 307.584 
L 381.838322 307.584 
L 373.513846 307.584 
L 365.189371 307.584 
L 356.864895 307.584 
L 348.54042 307.584 
L 340.215944 307.584 
L 331.891469 307.584 
L 323.566993 307.584 
L 315.242517 307.584 
L 306.918042 307.584 
L 298.593566 307.584 
L 290.269091 307.584 
L 281.944615 307.584 
L 273.62014 307.584 
L 265.295664 307.584 
L 256.971189 307.584 
L 248.646713 300.73427 
L 240.322238 287.034811 
L 231.997762 287.034811 
L 223.673287 287.034811 
L 215.348811 287.034811 
L 207.024336 287.034811 
L 198.69986 287.034811 
L 190.375385 287.034811 
L 182.050909 287.034811 
L 173.726434 287.034811 
L 165.401958 287.034811 
L 157.077483 287.034811 
L 148.753007 287.034811 
L 140.428531 287.034811 
L 132.104056 287.034811 
L 123.77958 287.034811 
L 115.455105 287.034811 
L 107.130629 287.034811 
L 98.806154 287.034811 
L 90.481678 287.034811 
L 82.157203 287.034811 
L 73.832727 290.459676 
z
" clip-path="url(#p480b6e2405)" style="fill: #2ca02c"/>
   </g>
   <g id="PolyCollection_4">
    <path d="M 73.832727 269.910486 
L 73.832727 290.459676 
L 82.157203 287.034811 
L 90.481678 287.034811 
L 98.806154 287.034811 
L 107.130629 287.034811 
L 115.455105 287.034811 
L 123.77958 287.034811 
L 132.104056 287.034811 
L 140.428531 287.034811 
L 148.753007 287.034811 
L 157.077483 287.034811 
L 165.401958 287.034811 
L 173.726434 287.034811 
L 182.050909 287.034811 
L 190.375385 287.034811 
L 198.69986 287.034811 
L 207.024336 287.034811 
L 215.348811 287.034811 
L 223.673287 287.034811 
L 231.997762 287.034811 
L 240.322238 287.034811 
L 248.646713 300.73427 
L 256.971189 307.584 
L 265.295664 307.584 
L 273.62014 307.584 
L 281.944615 307.584 
L 290.269091 307.584 
L 298.593566 307.584 
L 306.918042 307.584 
L 315.242517 307.584 
L 323.566993 307.584 
L 331.891469 307.584 
L 340.215944 307.584 
L 348.54042 307.584 
L 356.864895 307.584 
L 365.189371 307.584 
L 373.513846 307.584 
L 381.838322 307.584 
L 390.162797 307.584 
L 398.487273 307.584 
L 398.487273 242.511568 
L 398.487273 242.511568 
L 390.162797 235.661838 
L 381.838322 245.936432 
L 373.513846 242.511568 
L 365.189371 235.661838 
L 356.864895 239.086703 
L 348.54042 232.236973 
L 340.215944 239.086703 
L 331.891469 235.661838 
L 323.566993 239.086703 
L 315.242517 245.936432 
L 306.918042 242.511568 
L 298.593566 232.236973 
L 290.269091 225.387243 
L 281.944615 228.812108 
L 273.62014 235.661838 
L 265.295664 245.936432 
L 256.971189 239.086703 
L 248.646713 283.609946 
L 240.322238 280.185081 
L 231.997762 280.185081 
L 223.673287 280.185081 
L 215.348811 280.185081 
L 207.024336 280.185081 
L 198.69986 280.185081 
L 190.375385 280.185081 
L 182.050909 280.185081 
L 173.726434 280.185081 
L 165.401958 280.185081 
L 157.077483 280.185081 
L 148.753007 280.185081 
L 140.428531 280.185081 
L 132.104056 280.185081 
L 123.77958 280.185081 
L 115.455105 280.185081 
L 107.130629 280.185081 
L 98.806154 280.185081 
L 90.481678 280.185081 
L 82.157203 283.609946 
L 73.832727 269.910486 
z
" clip-path="url(#p480b6e2405)" style="fill: #d62728"/>
   </g>
   <g id="PolyCollection_5">
    <path d="M 73.832727 263.060757 
L 73.832727 269.910486 
L 82.157203 283.609946 
L 90.481678 280.185081 
L 98.806154 280.185081 
L 107.130629 280.185081 
L 115.455105 280.185081 
L 123.77958 280.185081 
L 132.104056 280.185081 
L 140.428531 280.185081 
L 148.753007 280.185081 
L 157.077483 280.185081 
L 165.401958 280.185081 
L 173.726434 280.185081 
L 182.050909 280.185081 
L 190.375385 280.185081 
L 198.69986 280.185081 
L 207.024336 280.185081 
L 215.348811 280.185081 
L 223.673287 280.185081 
L 231.997762 280.185081 
L 240.322238 280.185081 
L 248.646713 283.609946 
L 256.971189 239.086703 
L 265.295664 245.936432 
L 273.62014 235.661838 
L 281.944615 228.812108 
L 290.269091 225.387243 
L 298.593566 232.236973 
L 306.918042 242.511568 
L 315.242517 245.936432 
L 323.566993 239.086703 
L 331.891469 235.661838 
L 340.215944 239.086703 
L 348.54042 232.236973 
L 356.864895 239.086703 
L 365.189371 235.661838 
L 373.513846 242.511568 
L 381.838322 245.936432 
L 390.162797 235.661838 
L 398.487273 242.511568 
L 398.487273 242.511568 
L 398.487273 242.511568 
L 390.162797 235.661838 
L 381.838322 245.936432 
L 373.513846 242.511568 
L 365.189371 235.661838 
L 356.864895 239.086703 
L 348.54042 232.236973 
L 340.215944 239.086703 
L 331.891469 235.661838 
L 323.566993 239.086703 
L 315.242517 245.936432 
L 306.918042 242.511568 
L 298.593566 232.236973 
L 290.269091 225.387243 
L 281.944615 228.812108 
L 273.62014 235.661838 
L 265.295664 245.936432 
L 256.971189 239.086703 
L 248.646713 283.609946 
L 240.322238 273.335351 
L 231.997762 273.335351 
L 223.673287 273.335351 
L 215.348811 273.335351 
L 207.024336 273.335351 
L 198.69986 273.335351 
L 190.375385 273.335351 
L 182.050909 273.335351 
L 173.726434 273.335351 
L 165.401958 273.335351 
L 157.077483 273.335351 
L 148.753007 273.335351 
L 140.428531 273.335351 
L 132.104056 273.335351 
L 123.77958 273.335351 
L 115.455105 273.335351 
L 107.130629 273.335351 
L 98.806154 273.335351 
L 90.481678 273.335351 
L 82.157203 276.760216 
L 73.832727 263.060757 
z
" clip-path="url(#p480b6e2405)" style="fill: #9467bd"/>
   </g>
   <g id="PolyCollection_6">
    <path d="M 73.832727 259.635892 
L 73.832727 263.060757 
L 82.157203 276.760216 
L 90.481678 273.335351 
L 98.806154 273.335351 
L 107.130629 273.335351 
L 115.455105 273.335351 
L 123.77958 273.335351 
L 132.104056 273.335351 
L 140.428531 273.335351 
L 148.753007 273.335351 
L 157.077483 273.335351 
L 165.401958 273.335351 
L 173.726434 273.335351 
L 182.050909 273.335351 
L 190.375385 273.335351 
L 198.69986 273.335351 
L 207.024336 273.335351 
L 215.348811 273.335351 
L 223.673287 273.335351 
L 231.997762 273.335351 
L 240.322238 273.335351 
L 248.646713 283.609946 
L 256.971189 239.086703 
L 265.295664 245.936432 
L 273.62014 235.661838 
L 281.944615 228.812108 
L 290.269091 225.387243 
L 298.593566 232.236973 
L 306.918042 242.511568 
L 315.242517 245.936432 
L 323.566993 239.086703 
L 331.891469 235.661838 
L 340.215944 239.086703 
L 348.54042 232.236973 
L 356.864895 239.086703 
L 365.189371 235.661838 
L 373.513846 242.511568 
L 381.838322 245.936432 
L 390.162797 235.661838 
L 398.487273 242.511568 
L 398.487273 242.511568 
L 398.487273 242.511568 
L 390.162797 235.661838 
L 381.838322 245.936432 
L 373.513846 242.511568 
L 365.189371 235.661838 
L 356.864895 239.086703 
L 348.54042 232.236973 
L 340.215944 239.086703 
L 331.891469 235.661838 
L 323.566993 239.086703 
L 315.242517 245.936432 
L 306.918042 242.511568 
L 298.593566 232.236973 
L 290.269091 225.387243 
L 281.944615 228.812108 
L 273.62014 235.661838 
L 265.295664 245.936432 
L 256.971189 239.086703 
L 248.646713 283.609946 
L 240.322238 266.485622 
L 231.997762 266.485622 
L 223.673287 266.485622 
L 215.348811 266.485622 
L 207.024336 266.485622 
L 198.69986 266.485622 
L 190.375385 266.485622 
L 182.050909 266.485622 
L 173.726434 266.485622 
L 165.401958 266.485622 
L 157.077483 266.485622 
L 148.753007 266.485622 
L 140.428531 266.485622 
L 132.104056 266.485622 
L 123.77958 266.485622 
L 115.455105 266.485622 
L 107.130629 266.485622 
L 98.806154 266.485622 
L 90.481678 266.485622 
L 82.157203 269.910486 
L 73.832727 259.635892 
z
" clip-path="url(#p480b6e2405)" style="fill: #8c564b"/>
   </g>
   <g id="PolyCollection_7">
    <path d="M 73.832727 256.211027 
L 73.832727 259.635892 
L 82.157203 269.910486 
L 90.481678 266.485622 
L 98.806154 266.485622 
L 107.130629 266.485622 
L 115.455105 266.485622 
L 123.77958 266.485622 
L 132.104056 266.485622 
L 140.428531 266.485622 
L 148.753007 266.485622 
L 157.077483 266.485622 
L 165.401958 266.485622 
L 173.726434 266.485622 
L 182.050909 266.485622 
L 190.375385 266.485622 
L 198.69986 266.485622 
L 207.024336 266.485622 
L 215.348811 266.485622 
L 223.673287 266.485622 
L 231.997762 266.485622 
L 240.322238 266.485622 
L 248.646713 283.609946 
L 256.971189 239.086703 
L 265.295664 245.936432 
L 273.62014 235.661838 
L 281.944615 228.812108 
L 290.269091 225.387243 
L 298.593566 232.236973 
L 306.918042 242.511568 
L 315.242517 245.936432 
L 323.566993 239.086703 
L 331.891469 235.661838 
L 340.215944 239.086703 
L 348.54042 232.236973 
L 356.864895 239.086703 
L 365.189371 235.661838 
L 373.513846 242.511568 
L 381.838322 245.936432 
L 390.162797 235.661838 
L 398.487273 242.511568 
L 398.487273 242.511568 
L 398.487273 242.511568 
L 390.162797 235.661838 
L 381.838322 245.936432 
L 373.513846 242.511568 
L 365.189371 235.661838 
L 356.864895 239.086703 
L 348.54042 232.236973 
L 340.215944 239.086703 
L 331.891469 235.661838 
L 323.566993 239.086703 
L 315.242517 245.936432 
L 306.918042 242.511568 
L 298.593566 232.236973 
L 290.269091 225.387243 
L 281.944615 228.812108 
L 273.62014 235.661838 
L 265.295664 245.936432 
L 256.971189 239.086703 
L 248.646713 283.609946 
L 240.322238 259.635892 
L 231.997762 259.635892 
L 223.673287 259.635892 
L 215.348811 259.635892 
L 207.024336 259.635892 
L 198.69986 259.635892 
L 190.375385 259.635892 
L 182.050909 259.635892 
L 173.726434 259.635892 
L 165.401958 259.635892 
L 157.077483 259.635892 
L 148.753007 259.635892 
L 140.428531 259.635892 
L 132.104056 259.635892 
L 123.77958 259.635892 
L 115.455105 259.635892 
L 107.130629 259.635892 
L 98.806154 259.635892 
L 90.481678 259.635892 
L 82.157203 259.635892 
L 73.832727 256.211027 
z
" clip-path="url(#p480b6e2405)" style="fill: #e377c2"/>
   </g>
   <g id="PolyCollection_8">
    <path d="M 73.832727 252.786162 
L 73.832727 256.211027 
L 82.157203 259.635892 
L 90.481678 259.635892 
L 98.806154 259.635892 
L 107.130629 259.635892 
L 115.455105 259.635892 
L 123.77958 259.635892 
L 132.104056 259.635892 
L 140.428531 259.635892 
L 148.753007 259.635892 
L 157.077483 259.635892 
L 165.401958 259.635892 
L 173.726434 259.635892 
L 182.050909 259.635892 
L 190.375385 259.635892 
L 198.69986 259.635892 
L 207.024336 259.635892 
L 215.348811 259.635892 
L 223.673287 259.635892 
L 231.997762 259.635892 
L 240.322238 259.635892 
L 248.646713 283.609946 
L 256.971189 239.086703 
L 265.295664 245.936432 
L 273.62014 235.661838 
L 281.944615 228.812108 
L 290.269091 225.387243 
L 298.593566 232.236973 
L 306.918042 242.511568 
L 315.242517 245.936432 
L 323.566993 239.086703 
L 331.891469 235.661838 
L 340.215944 239.086703 
L 348.54042 232.236973 
L 356.864895 239.086703 
L 365.189371 235.661838 
L 373.513846 242.511568 
L 381.838322 245.936432 
L 390.162797 235.661838 
L 398.487273 242.511568 
L 398.487273 242.511568 
L 398.487273 242.511568 
L 390.162797 235.661838 
L 381.838322 245.936432 
L 373.513846 242.511568 
L 365.189371 235.661838 
L 356.864895 239.086703 
L 348.54042 232.236973 
L 340.215944 239.086703 
L 331.891469 235.661838 
L 323.566993 239.086703 
L 315.242517 245.936432 
L 306.918042 242.511568 
L 298.593566 232.236973 
L 290.269091 225.387243 
L 281.944615 228.812108 
L 273.62014 235.661838 
L 265.295664 245.936432 
L 256.971189 239.086703 
L 248.646713 276.760216 
L 240.322238 252.786162 
L 231.997762 252.786162 
L 223.673287 252.786162 
L 215.348811 252.786162 
L 207.024336 252.786162 
L 198.69986 252.786162 
L 190.375385 252.786162 
L 182.050909 252.786162 
L 173.726434 252.786162 
L 165.401958 252.786162 
L 157.077483 252.786162 
L 148.753007 252.786162 
L 140.428531 252.786162 
L 132.104056 252.786162 
L 123.77958 252.786162 
L 115.455105 252.786162 
L 107.130629 252.786162 
L 98.806154 252.786162 
L 90.481678 252.786162 
L 82.157203 252.786162 
L 73.832727 252.786162 
z
" clip-path="url(#p480b6e2405)" style="fill: #7f7f7f"/>
   </g>
   <g id="PolyCollection_9">
    <path d="M 73.832727 249.361297 
L 73.832727 252.786162 
L 82.157203 252.786162 
L 90.481678 252.786162 
L 98.806154 252.786162 
L 107.130629 252.786162 
L 115.455105 252.786162 
L 123.77958 252.786162 
L 132.104056 252.786162 
L 140.428531 252.786162 
L 148.753007 252.786162 
L 157.077483 252.786162 
L 165.401958 252.786162 
L 173.726434 252.786162 
L 182.050909 252.786162 
L 190.375385 252.786162 
L 198.69986 252.786162 
L 207.024336 252.786162 
L 215.348811 252.786162 
L 223.673287 252.786162 
L 231.997762 252.786162 
L 240.322238 252.786162 
L 248.646713 276.760216 
L 256.971189 239.086703 
L 265.295664 245.936432 
L 273.62014 235.661838 
L 281.944615 228.812108 
L 290.269091 225.387243 
L 298.593566 232.236973 
L 306.918042 242.511568 
L 315.242517 245.936432 
L 323.566993 239.086703 
L 331.891469 235.661838 
L 340.215944 239.086703 
L 348.54042 232.236973 
L 356.864895 239.086703 
L 365.189371 235.661838 
L 373.513846 242.511568 
L 381.838322 245.936432 
L 390.162797 235.661838 
L 398.487273 242.511568 
L 398.487273 242.511568 
L 398.487273 242.511568 
L 390.162797 235.661838 
L 381.838322 245.936432 
L 373.513846 242.511568 
L 365.189371 235.661838 
L 356.864895 239.086703 
L 348.54042 232.236973 
L 340.215944 239.086703 
L 331.891469 235.661838 
L 323.566993 239.086703 
L 315.242517 245.936432 
L 306.918042 242.511568 
L 298.593566 232.236973 
L 290.269091 225.387243 
L 281.944615 228.812108 
L 273.62014 235.661838 
L 265.295664 245.936432 
L 256.971189 239.086703 
L 248.646713 263.060757 
L 240.322238 245.936432 
L 231.997762 245.936432 
L 223.673287 245.936432 
L 215.348811 245.936432 
L 207.024336 245.936432 
L 198.69986 245.936432 
L 190.375385 245.936432 
L 182.050909 245.936432 
L 173.726434 245.936432 
L 165.401958 245.936432 
L 157.077483 245.936432 
L 148.753007 245.936432 
L 140.428531 245.936432 
L 132.104056 245.936432 
L 123.77958 245.936432 
L 115.455105 245.936432 
L 107.130629 245.936432 
L 98.806154 245.936432 
L 90.481678 245.936432 
L 82.157203 245.936432 
L 73.832727 249.361297 
z
" clip-path="url(#p480b6e2405)" style="fill: #bcbd22"/>
   </g>
   <g id="PolyCollection_10">
    <path d="M 73.832727 245.936432 
L 73.832727 249.361297 
L 82.157203 245.936432 
L 90.481678 245.936432 
L 98.806154 245.936432 
L 107.130629 245.936432 
L 115.455105 245.936432 
L 123.77958 245.936432 
L 132.104056 245.936432 
L 140.428531 245.936432 
L 148.753007 245.936432 
L 157.077483 245.936432 
L 165.401958 245.936432 
L 173.726434 245.936432 
L 182.050909 245.936432 
L 190.375385 245.936432 
L 198.69986 245.936432 
L 207.024336 245.936432 
L 215.348811 245.936432 
L 223.673287 245.936432 
L 231.997762 245.936432 
L 240.322238 245.936432 
L 248.646713 263.060757 
L 256.971189 239.086703 
L 265.295664 245.936432 
L 273.62014 235.661838 
L 281.944615 228.812108 
L 290.269091 225.387243 
L 298.593566 232.236973 
L 306.918042 242.511568 
L 315.242517 245.936432 
L 323.566993 239.086703 
L 331.891469 235.661838 
L 340.215944 239.086703 
L 348.54042 232.236973 
L 356.864895 239.086703 
L 365.189371 235.661838 
L 373.513846 242.511568 
L 381.838322 245.936432 
L 390.162797 235.661838 
L 398.487273 242.511568 
L 398.487273 242.511568 
L 398.487273 242.511568 
L 390.162797 235.661838 
L 381.838322 245.936432 
L 373.513846 242.511568 
L 365.189371 235.661838 
L 356.864895 239.086703 
L 348.54042 232.236973 
L 340.215944 239.086703 
L 331.891469 235.661838 
L 323.566993 239.086703 
L 315.242517 245.936432 
L 306.918042 242.511568 
L 298.593566 232.236973 
L 290.269091 225.387243 
L 281.944615 228.812108 
L 273.62014 235.661838 
L 265.295664 245.936432 
L 256.971189 239.086703 
L 248.646713 263.060757 
L 240.322238 239.086703 
L 231.997762 239.086703 
L 223.673287 239.086703 
L 215.348811 239.086703 
L 207.024336 239.086703 
L 198.69986 239.086703 
L 190.375385 239.086703 
L 182.050909 239.086703 
L 173.726434 239.086703 
L 165.401958 239.086703 
L 157.077483 239.086703 
L 148.753007 239.086703 
L 140.428531 239.086703 
L 132.104056 239.086703 
L 123.77958 239.086703 
L 115.455105 239.086703 
L 107.130629 239.086703 
L 98.806154 239.086703 
L 90.481678 239.086703 
L 82.157203 239.086703 
L 73.832727 245.936432 
z
" clip-path="url(#p480b6e2405)" style="fill: #17becf"/>
   </g>
   <g id="PolyCollection_11">
    <path d="M 73.832727 242.511568 
L 73.832727 245.936432 
L 82.157203 239.086703 
L 90.481678 239.086703 
L 98.806154 239.086703 
L 107.130629 239.086703 
L 115.455105 239.086703 
L 123.77958 239.086703 
L 132.104056 239.086703 
L 140.428531 239.086703 
L 148.753007 239.086703 
L 157.077483 239.086703 
L 165.401958 239.086703 
L 173.726434 239.086703 
L 182.050909 239.086703 
L 190.375385 239.086703 
L 198.69986 239.086703 
L 207.024336 239.086703 
L 215.348811 239.086703 
L 223.673287 239.086703 
L 231.997762 239.086703 
L 240.322238 239.086703 
L 248.646713 263.060757 
L 256.971189 239.086703 
L 265.295664 245.936432 
L 273.62014 235.661838 
L 281.944615 228.812108 
L 290.269091 225.387243 
L 298.593566 232.236973 
L 306.918042 242.511568 
L 315.242517 245.936432 
L 323.566993 239.086703 
L 331.891469 235.661838 
L 340.215944 239.086703 
L 348.54042 232.236973 
L 356.864895 239.086703 
L 365.189371 235.661838 
L 373.513846 242.511568 
L 381.838322 245.936432 
L 390.162797 235.661838 
L 398.487273 242.511568 
L 398.487273 242.511568 
L 398.487273 242.511568 
L 390.162797 235.661838 
L 381.838322 245.936432 
L 373.513846 242.511568 
L 365.189371 235.661838 
L 356.864895 239.086703 
L 348.54042 232.236973 
L 340.215944 239.086703 
L 331.891469 235.661838 
L 323.566993 239.086703 
L 315.242517 245.936432 
L 306.918042 242.511568 
L 298.593566 232.236973 
L 290.269091 225.387243 
L 281.944615 228.812108 
L 273.62014 235.661838 
L 265.295664 245.936432 
L 256.971189 239.086703 
L 248.646713 263.060757 
L 240.322238 232.236973 
L 231.997762 232.236973 
L 223.673287 232.236973 
L 215.348811 232.236973 
L 207.024336 232.236973 
L 198.69986 232.236973 
L 190.375385 232.236973 
L 182.050909 232.236973 
L 173.726434 232.236973 
L 165.401958 232.236973 
L 157.077483 232.236973 
L 148.753007 232.236973 
L 140.428531 232.236973 
L 132.104056 232.236973 
L 123.77958 232.236973 
L 115.455105 232.236973 
L 107.130629 232.236973 
L 98.806154 232.236973 
L 90.481678 232.236973 
L 82.157203 232.236973 
L 73.832727 242.511568 
z
" clip-path="url(#p480b6e2405)" style="fill: #1f77b4"/>
   </g>
   <g id="PolyCollection_12">
    <path d="M 73.832727 235.661838 
L 73.832727 242.511568 
L 82.157203 232.236973 
L 90.481678 232.236973 
L 98.806154 232.236973 
L 107.130629 232.236973 
L 115.455105 232.236973 
L 123.77958 232.236973 
L 132.104056 232.236973 
L 140.428531 232.236973 
L 148.753007 232.236973 
L 157.077483 232.236973 
L 165.401958 232.236973 
L 173.726434 232.236973 
L 182.050909 232.236973 
L 190.375385 232.236973 
L 198.69986 232.236973 
L 207.024336 232.236973 
L 215.348811 232.236973 
L 223.673287 232.236973 
L 231.997762 232.236973 
L 240.322238 232.236973 
L 248.646713 263.060757 
L 256.971189 239.086703 
L 265.295664 245.936432 
L 273.62014 235.661838 
L 281.944615 228.812108 
L 290.269091 225.387243 
L 298.593566 232.236973 
L 306.918042 242.511568 
L 315.242517 245.936432 
L 323.566993 239.086703 
L 331.891469 235.661838 
L 340.215944 239.086703 
L 348.54042 232.236973 
L 356.864895 239.086703 
L 365.189371 235.661838 
L 373.513846 242.511568 
L 381.838322 245.936432 
L 390.162797 235.661838 
L 398.487273 242.511568 
L 398.487273 242.511568 
L 398.487273 242.511568 
L 390.162797 235.661838 
L 381.838322 245.936432 
L 373.513846 242.511568 
L 365.189371 235.661838 
L 356.864895 239.086703 
L 348.54042 232.236973 
L 340.215944 239.086703 
L 331.891469 235.661838 
L 323.566993 239.086703 
L 315.242517 245.936432 
L 306.918042 242.511568 
L 298.593566 232.236973 
L 290.269091 225.387243 
L 281.944615 228.812108 
L 273.62014 235.661838 
L 265.295664 245.936432 
L 256.971189 239.086703 
L 248.646713 263.060757 
L 240.322238 225.387243 
L 231.997762 225.387243 
L 223.673287 225.387243 
L 215.348811 225.387243 
L 207.024336 225.387243 
L 198.69986 225.387243 
L 190.375385 225.387243 
L 182.050909 225.387243 
L 173.726434 225.387243 
L 165.401958 225.387243 
L 157.077483 225.387243 
L 148.753007 225.387243 
L 140.428531 225.387243 
L 132.104056 225.387243 
L 123.77958 225.387243 
L 115.455105 225.387243 
L 107.130629 225.387243 
L 98.806154 225.387243 
L 90.481678 225.387243 
L 82.157203 225.387243 
L 73.832727 235.661838 
z
" clip-path="url(#p480b6e2405)" style="fill: #ff7f0e"/>
   </g>
   <g id="PolyCollection_13">
    <path d="M 73.832727 232.236973 
L 73.832727 235.661838 
L 82.157203 225.387243 
L 90.481678 225.387243 
L 98.806154 225.387243 
L 107.130629 225.387243 
L 115.455105 225.387243 
L 123.77958 225.387243 
L 132.104056 225.387243 
L 140.428531 225.387243 
L 148.753007 225.387243 
L 157.077483 225.387243 
L 165.401958 225.387243 
L 173.726434 225.387243 
L 182.050909 225.387243 
L 190.375385 225.387243 
L 198.69986 225.387243 
L 207.024336 225.387243 
L 215.348811 225.387243 
L 223.673287 225.387243 
L 231.997762 225.387243 
L 240.322238 225.387243 
L 248.646713 263.060757 
L 256.971189 239.086703 
L 265.295664 245.936432 
L 273.62014 235.661838 
L 281.944615 228.812108 
L 290.269091 225.387243 
L 298.593566 232.236973 
L 306.918042 242.511568 
L 315.242517 245.936432 
L 323.566993 239.086703 
L 331.891469 235.661838 
L 340.215944 239.086703 
L 348.54042 232.236973 
L 356.864895 239.086703 
L 365.189371 235.661838 
L 373.513846 242.511568 
L 381.838322 245.936432 
L 390.162797 235.661838 
L 398.487273 242.511568 
L 398.487273 242.511568 
L 398.487273 242.511568 
L 390.162797 235.661838 
L 381.838322 245.936432 
L 373.513846 242.511568 
L 365.189371 235.661838 
L 356.864895 239.086703 
L 348.54042 232.236973 
L 340.215944 239.086703 
L 331.891469 235.661838 
L 323.566993 239.086703 
L 315.242517 245.936432 
L 306.918042 242.511568 
L 298.593566 232.236973 
L 290.269091 225.387243 
L 281.944615 228.812108 
L 273.62014 235.661838 
L 265.295664 245.936432 
L 256.971189 239.086703 
L 248.646713 263.060757 
L 240.322238 218.537514 
L 231.997762 218.537514 
L 223.673287 218.537514 
L 215.348811 218.537514 
L 207.024336 218.537514 
L 198.69986 218.537514 
L 190.375385 218.537514 
L 182.050909 218.537514 
L 173.726434 218.537514 
L 165.401958 218.537514 
L 157.077483 218.537514 
L 148.753007 218.537514 
L 140.428531 218.537514 
L 132.104056 218.537514 
L 123.77958 218.537514 
L 115.455105 218.537514 
L 107.130629 218.537514 
L 98.806154 218.537514 
L 90.481678 218.537514 
L 82.157203 218.537514 
L 73.832727 232.236973 
z
" clip-path="url(#p480b6e2405)" style="fill: #2ca02c"/>
   </g>
   <g id="PolyCollection_14">
    <path d="M 73.832727 228.812108 
L 73.832727 232.236973 
L 82.157203 218.537514 
L 90.481678 218.537514 
L 98.806154 218.537514 
L 107.130629 218.537514 
L 115.455105 218.537514 
L 123.77958 218.537514 
L 132.104056 218.537514 
L 140.428531 218.537514 
L 148.753007 218.537514 
L 157.077483 218.537514 
L 165.401958 218.537514 
L 173.726434 218.537514 
L 182.050909 218.537514 
L 190.375385 218.537514 
L 198.69986 218.537514 
L 207.024336 218.537514 
L 215.348811 218.537514 
L 223.673287 218.537514 
L 231.997762 218.537514 
L 240.322238 218.537514 
L 248.646713 263.060757 
L 256.971189 239.086703 
L 265.295664 245.936432 
L 273.62014 235.661838 
L 281.944615 228.812108 
L 290.269091 225.387243 
L 298.593566 232.236973 
L 306.918042 242.511568 
L 315.242517 245.936432 
L 323.566993 239.086703 
L 331.891469 235.661838 
L 340.215944 239.086703 
L 348.54042 232.236973 
L 356.864895 239.086703 
L 365.189371 235.661838 
L 373.513846 242.511568 
L 381.838322 245.936432 
L 390.162797 235.661838 
L 398.487273 242.511568 
L 398.487273 242.511568 
L 398.487273 242.511568 
L 390.162797 235.661838 
L 381.838322 245.936432 
L 373.513846 242.511568 
L 365.189371 235.661838 
L 356.864895 239.086703 
L 348.54042 232.236973 
L 340.215944 239.086703 
L 331.891469 235.661838 
L 323.566993 239.086703 
L 315.242517 245.936432 
L 306.918042 242.511568 
L 298.593566 232.236973 
L 290.269091 225.387243 
L 281.944615 228.812108 
L 273.62014 235.661838 
L 265.295664 245.936432 
L 256.971189 239.086703 
L 248.646713 256.211027 
L 240.322238 211.687784 
L 231.997762 211.687784 
L 223.673287 211.687784 
L 215.348811 211.687784 
L 207.024336 211.687784 
L 198.69986 211.687784 
L 190.375385 211.687784 
L 182.050909 211.687784 
L 173.726434 211.687784 
L 165.401958 211.687784 
L 157.077483 211.687784 
L 148.753007 211.687784 
L 140.428531 211.687784 
L 132.104056 211.687784 
L 123.77958 211.687784 
L 115.455105 211.687784 
L 107.130629 211.687784 
L 98.806154 211.687784 
L 90.481678 211.687784 
L 82.157203 211.687784 
L 73.832727 228.812108 
z
" clip-path="url(#p480b6e2405)" style="fill: #d62728"/>
   </g>
   <g id="PolyCollection_15">
    <path d="M 73.832727 218.537514 
L 73.832727 228.812108 
L 82.157203 211.687784 
L 90.481678 211.687784 
L 98.806154 211.687784 
L 107.130629 211.687784 
L 115.455105 211.687784 
L 123.77958 211.687784 
L 132.104056 211.687784 
L 140.428531 211.687784 
L 148.753007 211.687784 
L 157.077483 211.687784 
L 165.401958 211.687784 
L 173.726434 211.687784 
L 182.050909 211.687784 
L 190.375385 211.687784 
L 198.69986 211.687784 
L 207.024336 211.687784 
L 215.348811 211.687784 
L 223.673287 211.687784 
L 231.997762 211.687784 
L 240.322238 211.687784 
L 248.646713 256.211027 
L 256.971189 239.086703 
L 265.295664 245.936432 
L 273.62014 235.661838 
L 281.944615 228.812108 
L 290.269091 225.387243 
L 298.593566 232.236973 
L 306.918042 242.511568 
L 315.242517 245.936432 
L 323.566993 239.086703 
L 331.891469 235.661838 
L 340.215944 239.086703 
L 348.54042 232.236973 
L 356.864895 239.086703 
L 365.189371 235.661838 
L 373.513846 242.511568 
L 381.838322 245.936432 
L 390.162797 235.661838 
L 398.487273 242.511568 
L 398.487273 242.511568 
L 398.487273 242.511568 
L 390.162797 235.661838 
L 381.838322 245.936432 
L 373.513846 242.511568 
L 365.189371 235.661838 
L 356.864895 239.086703 
L 348.54042 232.236973 
L 340.215944 239.086703 
L 331.891469 235.661838 
L 323.566993 239.086703 
L 315.242517 245.936432 
L 306.918042 242.511568 
L 298.593566 232.236973 
L 290.269091 225.387243 
L 281.944615 228.812108 
L 273.62014 235.661838 
L 265.295664 245.936432 
L 256.971189 239.086703 
L 248.646713 256.211027 
L 240.322238 204.838054 
L 231.997762 204.838054 
L 223.673287 204.838054 
L 215.348811 204.838054 
L 207.024336 204.838054 
L 198.69986 204.838054 
L 190.375385 204.838054 
L 182.050909 204.838054 
L 173.726434 204.838054 
L 165.401958 204.838054 
L 157.077483 204.838054 
L 148.753007 204.838054 
L 140.428531 204.838054 
L 132.104056 204.838054 
L 123.77958 204.838054 
L 115.455105 204.838054 
L 107.130629 204.838054 
L 98.806154 204.838054 
L 90.481678 204.838054 
L 82.157203 204.838054 
L 73.832727 218.537514 
z
" clip-path="url(#p480b6e2405)" style="fill: #9467bd"/>
   </g>
   <g id="PolyCollection_16">
    <path d="M 73.832727 211.687784 
L 73.832727 218.537514 
L 82.157203 204.838054 
L 90.481678 204.838054 
L 98.806154 204.838054 
L 107.130629 204.838054 
L 115.455105 204.838054 
L 123.77958 204.838054 
L 132.104056 204.838054 
L 140.428531 204.838054 
L 148.753007 204.838054 
L 157.077483 204.838054 
L 165.401958 204.838054 
L 173.726434 204.838054 
L 182.050909 204.838054 
L 190.375385 204.838054 
L 198.69986 204.838054 
L 207.024336 204.838054 
L 215.348811 204.838054 
L 223.673287 204.838054 
L 231.997762 204.838054 
L 240.322238 204.838054 
L 248.646713 256.211027 
L 256.971189 239.086703 
L 265.295664 245.936432 
L 273.62014 235.661838 
L 281.944615 228.812108 
L 290.269091 225.387243 
L 298.593566 232.236973 
L 306.918042 242.511568 
L 315.242517 245.936432 
L 323.566993 239.086703 
L 331.891469 235.661838 
L 340.215944 239.086703 
L 348.54042 232.236973 
L 356.864895 239.086703 
L 365.189371 235.661838 
L 373.513846 242.511568 
L 381.838322 245.936432 
L 390.162797 235.661838 
L 398.487273 242.511568 
L 398.487273 242.511568 
L 398.487273 242.511568 
L 390.162797 235.661838 
L 381.838322 245.936432 
L 373.513846 242.511568 
L 365.189371 235.661838 
L 356.864895 239.086703 
L 348.54042 232.236973 
L 340.215944 239.086703 
L 331.891469 235.661838 
L 323.566993 239.086703 
L 315.242517 245.936432 
L 306.918042 242.511568 
L 298.593566 232.236973 
L 290.269091 225.387243 
L 281.944615 228.812108 
L 273.62014 235.661838 
L 265.295664 245.936432 
L 256.971189 239.086703 
L 248.646713 256.211027 
L 240.322238 197.988324 
L 231.997762 197.988324 
L 223.673287 197.988324 
L 215.348811 197.988324 
L 207.024336 197.988324 
L 198.69986 197.988324 
L 190.375385 197.988324 
L 182.050909 197.988324 
L 173.726434 197.988324 
L 165.401958 197.988324 
L 157.077483 197.988324 
L 148.753007 197.988324 
L 140.428531 197.988324 
L 132.104056 197.988324 
L 123.77958 197.988324 
L 115.455105 197.988324 
L 107.130629 197.988324 
L 98.806154 197.988324 
L 90.481678 197.988324 
L 82.157203 197.988324 
L 73.832727 211.687784 
z
" clip-path="url(#p480b6e2405)" style="fill: #8c564b"/>
   </g>
   <g id="PolyCollection_17">
    <path d="M 73.832727 208.262919 
L 73.832727 211.687784 
L 82.157203 197.988324 
L 90.481678 197.988324 
L 98.806154 197.988324 
L 107.130629 197.988324 
L 115.455105 197.988324 
L 123.77958 197.988324 
L 132.104056 197.988324 
L 140.428531 197.988324 
L 148.753007 197.988324 
L 157.077483 197.988324 
L 165.401958 197.988324 
L 173.726434 197.988324 
L 182.050909 197.988324 
L 190.375385 197.988324 
L 198.69986 197.988324 
L 207.024336 197.988324 
L 215.348811 197.988324 
L 223.673287 197.988324 
L 231.997762 197.988324 
L 240.322238 197.988324 
L 248.646713 256.211027 
L 256.971189 239.086703 
L 265.295664 245.936432 
L 273.62014 235.661838 
L 281.944615 228.812108 
L 290.269091 225.387243 
L 298.593566 232.236973 
L 306.918042 242.511568 
L 315.242517 245.936432 
L 323.566993 239.086703 
L 331.891469 235.661838 
L 340.215944 239.086703 
L 348.54042 232.236973 
L 356.864895 239.086703 
L 365.189371 235.661838 
L 373.513846 242.511568 
L 381.838322 245.936432 
L 390.162797 235.661838 
L 398.487273 242.511568 
L 398.487273 242.511568 
L 398.487273 242.511568 
L 390.162797 235.661838 
L 381.838322 245.936432 
L 373.513846 242.511568 
L 365.189371 235.661838 
L 356.864895 239.086703 
L 348.54042 232.236973 
L 340.215944 239.086703 
L 331.891469 235.661838 
L 323.566993 239.086703 
L 315.242517 245.936432 
L 306.918042 242.511568 
L 298.593566 232.236973 
L 290.269091 225.387243 
L 281.944615 228.812108 
L 273.62014 235.661838 
L 265.295664 245.936432 
L 256.971189 239.086703 
L 248.646713 256.211027 
L 240.322238 191.138595 
L 231.997762 191.138595 
L 223.673287 191.138595 
L 215.348811 191.138595 
L 207.024336 191.138595 
L 198.69986 191.138595 
L 190.375385 191.138595 
L 182.050909 191.138595 
L 173.726434 191.138595 
L 165.401958 191.138595 
L 157.077483 191.138595 
L 148.753007 191.138595 
L 140.428531 191.138595 
L 132.104056 191.138595 
L 123.77958 191.138595 
L 115.455105 191.138595 
L 107.130629 191.138595 
L 98.806154 191.138595 
L 90.481678 191.138595 
L 82.157203 191.138595 
L 73.832727 208.262919 
z
" clip-path="url(#p480b6e2405)" style="fill: #e377c2"/>
   </g>
   <g id="PolyCollection_18">
    <path d="M 73.832727 204.838054 
L 73.832727 208.262919 
L 82.157203 191.138595 
L 90.481678 191.138595 
L 98.806154 191.138595 
L 107.130629 191.138595 
L 115.455105 191.138595 
L 123.77958 191.138595 
L 132.104056 191.138595 
L 140.428531 191.138595 
L 148.753007 191.138595 
L 157.077483 191.138595 
L 165.401958 191.138595 
L 173.726434 191.138595 
L 182.050909 191.138595 
L 190.375385 191.138595 
L 198.69986 191.138595 
L 207.024336 191.138595 
L 215.348811 191.138595 
L 223.673287 191.138595 
L 231.997762 191.138595 
L 240.322238 191.138595 
L 248.646713 256.211027 
L 256.971189 239.086703 
L 265.295664 245.936432 
L 273.62014 235.661838 
L 281.944615 228.812108 
L 290.269091 225.387243 
L 298.593566 232.236973 
L 306.918042 242.511568 
L 315.242517 245.936432 
L 323.566993 239.086703 
L 331.891469 235.661838 
L 340.215944 239.086703 
L 348.54042 232.236973 
L 356.864895 239.086703 
L 365.189371 235.661838 
L 373.513846 242.511568 
L 381.838322 245.936432 
L 390.162797 235.661838 
L 398.487273 242.511568 
L 398.487273 136.340757 
L 398.487273 136.340757 
L 390.162797 136.340757 
L 381.838322 136.340757 
L 373.513846 136.340757 
L 365.189371 136.340757 
L 356.864895 136.340757 
L 348.54042 136.340757 
L 340.215944 136.340757 
L 331.891469 136.340757 
L 323.566993 136.340757 
L 315.242517 136.340757 
L 306.918042 136.340757 
L 298.593566 136.340757 
L 290.269091 136.340757 
L 281.944615 136.340757 
L 273.62014 136.340757 
L 265.295664 136.340757 
L 256.971189 136.340757 
L 248.646713 239.086703 
L 240.322238 184.288865 
L 231.997762 184.288865 
L 223.673287 184.288865 
L 215.348811 184.288865 
L 207.024336 184.288865 
L 198.69986 184.288865 
L 190.375385 184.288865 
L 182.050909 184.288865 
L 173.726434 184.288865 
L 165.401958 184.288865 
L 157.077483 184.288865 
L 148.753007 184.288865 
L 140.428531 184.288865 
L 132.104056 184.288865 
L 123.77958 184.288865 
L 115.455105 184.288865 
L 107.130629 184.288865 
L 98.806154 184.288865 
L 90.481678 184.288865 
L 82.157203 184.288865 
L 73.832727 204.838054 
z
" clip-path="url(#p480b6e2405)" style="fill: #7f7f7f"/>
   </g>
   <g id="PolyCollection_19">
    <path d="M 73.832727 201.413189 
L 73.832727 204.838054 
L 82.157203 184.288865 
L 90.481678 184.288865 
L 98.806154 184.288865 
L 107.130629 184.288865 
L 115.455105 184.288865 
L 123.77958 184.288865 
L 132.104056 184.288865 
L 140.428531 184.288865 
L 148.753007 184.288865 
L 157.077483 184.288865 
L 165.401958 184.288865 
L 173.726434 184.288865 
L 182.050909 184.288865 
L 190.375385 184.288865 
L 198.69986 184.288865 
L 207.024336 184.288865 
L 215.348811 184.288865 
L 223.673287 184.288865 
L 231.997762 184.288865 
L 240.322238 184.288865 
L 248.646713 239.086703 
L 256.971189 136.340757 
L 265.295664 136.340757 
L 273.62014 136.340757 
L 281.944615 136.340757 
L 290.269091 136.340757 
L 298.593566 136.340757 
L 306.918042 136.340757 
L 315.242517 136.340757 
L 323.566993 136.340757 
L 331.891469 136.340757 
L 340.215944 136.340757 
L 348.54042 136.340757 
L 356.864895 136.340757 
L 365.189371 136.340757 
L 373.513846 136.340757 
L 381.838322 136.340757 
L 390.162797 136.340757 
L 398.487273 136.340757 
L 398.487273 136.340757 
L 398.487273 136.340757 
L 390.162797 136.340757 
L 381.838322 136.340757 
L 373.513846 136.340757 
L 365.189371 136.340757 
L 356.864895 136.340757 
L 348.54042 136.340757 
L 340.215944 136.340757 
L 331.891469 136.340757 
L 323.566993 136.340757 
L 315.242517 136.340757 
L 306.918042 136.340757 
L 298.593566 136.340757 
L 290.269091 136.340757 
L 281.944615 136.340757 
L 273.62014 136.340757 
L 265.295664 136.340757 
L 256.971189 136.340757 
L 248.646713 239.086703 
L 240.322238 177.439135 
L 231.997762 177.439135 
L 223.673287 177.439135 
L 215.348811 177.439135 
L 207.024336 177.439135 
L 198.69986 177.439135 
L 190.375385 177.439135 
L 182.050909 177.439135 
L 173.726434 177.439135 
L 165.401958 177.439135 
L 157.077483 177.439135 
L 148.753007 177.439135 
L 140.428531 177.439135 
L 132.104056 177.439135 
L 123.77958 177.439135 
L 115.455105 177.439135 
L 107.130629 177.439135 
L 98.806154 177.439135 
L 90.481678 177.439135 
L 82.157203 177.439135 
L 73.832727 201.413189 
z
" clip-path="url(#p480b6e2405)" style="fill: #bcbd22"/>
   </g>
   <g id="PolyCollection_20">
    <path d="M 73.832727 197.988324 
L 73.832727 201.413189 
L 82.157203 177.439135 
L 90.481678 177.439135 
L 98.806154 177.439135 
L 107.130629 177.439135 
L 115.455105 177.439135 
L 123.77958 177.439135 
L 132.104056 177.439135 
L 140.428531 177.439135 
L 148.753007 177.439135 
L 157.077483 177.439135 
L 165.401958 177.439135 
L 173.726434 177.439135 
L 182.050909 177.439135 
L 190.375385 177.439135 
L 198.69986 177.439135 
L 207.024336 177.439135 
L 215.348811 177.439135 
L 223.673287 177.439135 
L 231.997762 177.439135 
L 240.322238 177.439135 
L 248.646713 239.086703 
L 256.971189 136.340757 
L 265.295664 136.340757 
L 273.62014 136.340757 
L 281.944615 136.340757 
L 290.269091 136.340757 
L 298.593566 136.340757 
L 306.918042 136.340757 
L 315.242517 136.340757 
L 323.566993 136.340757 
L 331.891469 136.340757 
L 340.215944 136.340757 
L 348.54042 136.340757 
L 356.864895 136.340757 
L 365.189371 136.340757 
L 373.513846 136.340757 
L 381.838322 136.340757 
L 390.162797 136.340757 
L 398.487273 136.340757 
L 398.487273 136.340757 
L 398.487273 136.340757 
L 390.162797 136.340757 
L 381.838322 136.340757 
L 373.513846 136.340757 
L 365.189371 136.340757 
L 356.864895 136.340757 
L 348.54042 136.340757 
L 340.215944 136.340757 
L 331.891469 136.340757 
L 323.566993 136.340757 
L 315.242517 136.340757 
L 306.918042 136.340757 
L 298.593566 136.340757 
L 290.269091 136.340757 
L 281.944615 136.340757 
L 273.62014 136.340757 
L 265.295664 136.340757 
L 256.971189 136.340757 
L 248.646713 239.086703 
L 240.322238 170.589405 
L 231.997762 170.589405 
L 223.673287 170.589405 
L 215.348811 170.589405 
L 207.024336 170.589405 
L 198.69986 170.589405 
L 190.375385 170.589405 
L 182.050909 170.589405 
L 173.726434 170.589405 
L 165.401958 170.589405 
L 157.077483 170.589405 
L 148.753007 170.589405 
L 140.428531 170.589405 
L 132.104056 170.589405 
L 123.77958 170.589405 
L 115.455105 170.589405 
L 107.130629 170.589405 
L 98.806154 170.589405 
L 90.481678 170.589405 
L 82.157203 170.589405 
L 73.832727 197.988324 
z
" clip-path="url(#p480b6e2405)" style="fill: #17becf"/>
   </g>
   <g id="PolyCollection_21">
    <path d="M 73.832727 187.71373 
L 73.832727 197.988324 
L 82.157203 170.589405 
L 90.481678 170.589405 
L 98.806154 170.589405 
L 107.130629 170.589405 
L 115.455105 170.589405 
L 123.77958 170.589405 
L 132.104056 170.589405 
L 140.428531 170.589405 
L 148.753007 170.589405 
L 157.077483 170.589405 
L 165.401958 170.589405 
L 173.726434 170.589405 
L 182.050909 170.589405 
L 190.375385 170.589405 
L 198.69986 170.589405 
L 207.024336 170.589405 
L 215.348811 170.589405 
L 223.673287 170.589405 
L 231.997762 170.589405 
L 240.322238 170.589405 
L 248.646713 239.086703 
L 256.971189 136.340757 
L 265.295664 136.340757 
L 273.62014 136.340757 
L 281.944615 136.340757 
L 290.269091 136.340757 
L 298.593566 136.340757 
L 306.918042 136.340757 
L 315.242517 136.340757 
L 323.566993 136.340757 
L 331.891469 136.340757 
L 340.215944 136.340757 
L 348.54042 136.340757 
L 356.864895 136.340757 
L 365.189371 136.340757 
L 373.513846 136.340757 
L 381.838322 136.340757 
L 390.162797 136.340757 
L 398.487273 136.340757 
L 398.487273 136.340757 
L 398.487273 136.340757 
L 390.162797 136.340757 
L 381.838322 136.340757 
L 373.513846 136.340757 
L 365.189371 136.340757 
L 356.864895 136.340757 
L 348.54042 136.340757 
L 340.215944 136.340757 
L 331.891469 136.340757 
L 323.566993 136.340757 
L 315.242517 136.340757 
L 306.918042 136.340757 
L 298.593566 136.340757 
L 290.269091 136.340757 
L 281.944615 136.340757 
L 273.62014 136.340757 
L 265.295664 136.340757 
L 256.971189 136.340757 
L 248.646713 239.086703 
L 240.322238 163.739676 
L 231.997762 163.739676 
L 223.673287 163.739676 
L 215.348811 163.739676 
L 207.024336 163.739676 
L 198.69986 163.739676 
L 190.375385 163.739676 
L 182.050909 163.739676 
L 173.726434 163.739676 
L 165.401958 163.739676 
L 157.077483 163.739676 
L 148.753007 163.739676 
L 140.428531 163.739676 
L 132.104056 163.739676 
L 123.77958 163.739676 
L 115.455105 163.739676 
L 107.130629 163.739676 
L 98.806154 163.739676 
L 90.481678 163.739676 
L 82.157203 167.164541 
L 73.832727 187.71373 
z
" clip-path="url(#p480b6e2405)" style="fill: #1f77b4"/>
   </g>
   <g id="PolyCollection_22">
    <path d="M 73.832727 184.288865 
L 73.832727 187.71373 
L 82.157203 167.164541 
L 90.481678 163.739676 
L 98.806154 163.739676 
L 107.130629 163.739676 
L 115.455105 163.739676 
L 123.77958 163.739676 
L 132.104056 163.739676 
L 140.428531 163.739676 
L 148.753007 163.739676 
L 157.077483 163.739676 
L 165.401958 163.739676 
L 173.726434 163.739676 
L 182.050909 163.739676 
L 190.375385 163.739676 
L 198.69986 163.739676 
L 207.024336 163.739676 
L 215.348811 163.739676 
L 223.673287 163.739676 
L 231.997762 163.739676 
L 240.322238 163.739676 
L 248.646713 239.086703 
L 256.971189 136.340757 
L 265.295664 136.340757 
L 273.62014 136.340757 
L 281.944615 136.340757 
L 290.269091 136.340757 
L 298.593566 136.340757 
L 306.918042 136.340757 
L 315.242517 136.340757 
L 323.566993 136.340757 
L 331.891469 136.340757 
L 340.215944 136.340757 
L 348.54042 136.340757 
L 356.864895 136.340757 
L 365.189371 136.340757 
L 373.513846 136.340757 
L 381.838322 136.340757 
L 390.162797 136.340757 
L 398.487273 136.340757 
L 398.487273 136.340757 
L 398.487273 136.340757 
L 390.162797 136.340757 
L 381.838322 136.340757 
L 373.513846 136.340757 
L 365.189371 136.340757 
L 356.864895 136.340757 
L 348.54042 136.340757 
L 340.215944 136.340757 
L 331.891469 136.340757 
L 323.566993 136.340757 
L 315.242517 136.340757 
L 306.918042 136.340757 
L 298.593566 136.340757 
L 290.269091 136.340757 
L 281.944615 136.340757 
L 273.62014 136.340757 
L 265.295664 136.340757 
L 256.971189 136.340757 
L 248.646713 232.236973 
L 240.322238 156.889946 
L 231.997762 156.889946 
L 223.673287 156.889946 
L 215.348811 156.889946 
L 207.024336 156.889946 
L 198.69986 156.889946 
L 190.375385 156.889946 
L 182.050909 156.889946 
L 173.726434 156.889946 
L 165.401958 156.889946 
L 157.077483 156.889946 
L 148.753007 156.889946 
L 140.428531 156.889946 
L 132.104056 156.889946 
L 123.77958 156.889946 
L 115.455105 156.889946 
L 107.130629 156.889946 
L 98.806154 156.889946 
L 90.481678 156.889946 
L 82.157203 160.314811 
L 73.832727 184.288865 
z
" clip-path="url(#p480b6e2405)" style="fill: #ff7f0e"/>
   </g>
   <g id="PolyCollection_23">
    <path d="M 73.832727 180.864 
L 73.832727 184.288865 
L 82.157203 160.314811 
L 90.481678 156.889946 
L 98.806154 156.889946 
L 107.130629 156.889946 
L 115.455105 156.889946 
L 123.77958 156.889946 
L 132.104056 156.889946 
L 140.428531 156.889946 
L 148.753007 156.889946 
L 157.077483 156.889946 
L 165.401958 156.889946 
L 173.726434 156.889946 
L 182.050909 156.889946 
L 190.375385 156.889946 
L 198.69986 156.889946 
L 207.024336 156.889946 
L 215.348811 156.889946 
L 223.673287 156.889946 
L 231.997762 156.889946 
L 240.322238 156.889946 
L 248.646713 232.236973 
L 256.971189 136.340757 
L 265.295664 136.340757 
L 273.62014 136.340757 
L 281.944615 136.340757 
L 290.269091 136.340757 
L 298.593566 136.340757 
L 306.918042 136.340757 
L 315.242517 136.340757 
L 323.566993 136.340757 
L 331.891469 136.340757 
L 340.215944 136.340757 
L 348.54042 136.340757 
L 356.864895 136.340757 
L 365.189371 136.340757 
L 373.513846 136.340757 
L 381.838322 136.340757 
L 390.162797 136.340757 
L 398.487273 136.340757 
L 398.487273 136.340757 
L 398.487273 136.340757 
L 390.162797 136.340757 
L 381.838322 136.340757 
L 373.513846 136.340757 
L 365.189371 136.340757 
L 356.864895 136.340757 
L 348.54042 136.340757 
L 340.215944 136.340757 
L 331.891469 136.340757 
L 323.566993 136.340757 
L 315.242517 136.340757 
L 306.918042 136.340757 
L 298.593566 136.340757 
L 290.269091 136.340757 
L 281.944615 136.340757 
L 273.62014 136.340757 
L 265.295664 136.340757 
L 256.971189 136.340757 
L 248.646713 218.537514 
L 240.322238 150.040216 
L 231.997762 150.040216 
L 223.673287 150.040216 
L 215.348811 150.040216 
L 207.024336 150.040216 
L 198.69986 150.040216 
L 190.375385 150.040216 
L 182.050909 150.040216 
L 173.726434 150.040216 
L 165.401958 150.040216 
L 157.077483 150.040216 
L 148.753007 150.040216 
L 140.428531 150.040216 
L 132.104056 150.040216 
L 123.77958 150.040216 
L 115.455105 150.040216 
L 107.130629 150.040216 
L 98.806154 150.040216 
L 90.481678 150.040216 
L 82.157203 153.465081 
L 73.832727 180.864 
z
" clip-path="url(#p480b6e2405)" style="fill: #2ca02c"/>
   </g>
   <g id="PolyCollection_24">
    <path d="M 73.832727 177.439135 
L 73.832727 180.864 
L 82.157203 153.465081 
L 90.481678 150.040216 
L 98.806154 150.040216 
L 107.130629 150.040216 
L 115.455105 150.040216 
L 123.77958 150.040216 
L 132.104056 150.040216 
L 140.428531 150.040216 
L 148.753007 150.040216 
L 157.077483 150.040216 
L 165.401958 150.040216 
L 173.726434 150.040216 
L 182.050909 150.040216 
L 190.375385 150.040216 
L 198.69986 150.040216 
L 207.024336 150.040216 
L 215.348811 150.040216 
L 223.673287 150.040216 
L 231.997762 150.040216 
L 240.322238 150.040216 
L 248.646713 218.537514 
L 256.971189 136.340757 
L 265.295664 136.340757 
L 273.62014 136.340757 
L 281.944615 136.340757 
L 290.269091 136.340757 
L 298.593566 136.340757 
L 306.918042 136.340757 
L 315.242517 136.340757 
L 323.566993 136.340757 
L 331.891469 136.340757 
L 340.215944 136.340757 
L 348.54042 136.340757 
L 356.864895 136.340757 
L 365.189371 136.340757 
L 373.513846 136.340757 
L 381.838322 136.340757 
L 390.162797 136.340757 
L 398.487273 136.340757 
L 398.487273 136.340757 
L 398.487273 136.340757 
L 390.162797 136.340757 
L 381.838322 136.340757 
L 373.513846 136.340757 
L 365.189371 136.340757 
L 356.864895 136.340757 
L 348.54042 136.340757 
L 340.215944 136.340757 
L 331.891469 136.340757 
L 323.566993 136.340757 
L 315.242517 136.340757 
L 306.918042 136.340757 
L 298.593566 136.340757 
L 290.269091 136.340757 
L 281.944615 136.340757 
L 273.62014 136.340757 
L 265.295664 136.340757 
L 256.971189 136.340757 
L 248.646713 218.537514 
L 240.322238 143.190486 
L 231.997762 143.190486 
L 223.673287 143.190486 
L 215.348811 143.190486 
L 207.024336 143.190486 
L 198.69986 143.190486 
L 190.375385 143.190486 
L 182.050909 143.190486 
L 173.726434 143.190486 
L 165.401958 143.190486 
L 157.077483 143.190486 
L 148.753007 143.190486 
L 140.428531 143.190486 
L 132.104056 143.190486 
L 123.77958 143.190486 
L 115.455105 143.190486 
L 107.130629 143.190486 
L 98.806154 143.190486 
L 90.481678 143.190486 
L 82.157203 146.615351 
L 73.832727 177.439135 
z
" clip-path="url(#p480b6e2405)" style="fill: #d62728"/>
   </g>
   <g id="PolyCollection_25">
    <path d="M 73.832727 170.589405 
L 73.832727 177.439135 
L 82.157203 146.615351 
L 90.481678 143.190486 
L 98.806154 143.190486 
L 107.130629 143.190486 
L 115.455105 143.190486 
L 123.77958 143.190486 
L 132.104056 143.190486 
L 140.428531 143.190486 
L 148.753007 143.190486 
L 157.077483 143.190486 
L 165.401958 143.190486 
L 173.726434 143.190486 
L 182.050909 143.190486 
L 190.375385 143.190486 
L 198.69986 143.190486 
L 207.024336 143.190486 
L 215.348811 143.190486 
L 223.673287 143.190486 
L 231.997762 143.190486 
L 240.322238 143.190486 
L 248.646713 218.537514 
L 256.971189 136.340757 
L 265.295664 136.340757 
L 273.62014 136.340757 
L 281.944615 136.340757 
L 290.269091 136.340757 
L 298.593566 136.340757 
L 306.918042 136.340757 
L 315.242517 136.340757 
L 323.566993 136.340757 
L 331.891469 136.340757 
L 340.215944 136.340757 
L 348.54042 136.340757 
L 356.864895 136.340757 
L 365.189371 136.340757 
L 373.513846 136.340757 
L 381.838322 136.340757 
L 390.162797 136.340757 
L 398.487273 136.340757 
L 398.487273 136.340757 
L 398.487273 136.340757 
L 390.162797 136.340757 
L 381.838322 136.340757 
L 373.513846 136.340757 
L 365.189371 136.340757 
L 356.864895 136.340757 
L 348.54042 136.340757 
L 340.215944 136.340757 
L 331.891469 136.340757 
L 323.566993 136.340757 
L 315.242517 136.340757 
L 306.918042 136.340757 
L 298.593566 136.340757 
L 290.269091 136.340757 
L 281.944615 136.340757 
L 273.62014 136.340757 
L 265.295664 136.340757 
L 256.971189 136.340757 
L 248.646713 218.537514 
L 240.322238 136.340757 
L 231.997762 136.340757 
L 223.673287 136.340757 
L 215.348811 136.340757 
L 207.024336 136.340757 
L 198.69986 136.340757 
L 190.375385 136.340757 
L 182.050909 136.340757 
L 173.726434 136.340757 
L 165.401958 136.340757 
L 157.077483 136.340757 
L 148.753007 136.340757 
L 140.428531 136.340757 
L 132.104056 136.340757 
L 123.77958 136.340757 
L 115.455105 136.340757 
L 107.130629 136.340757 
L 98.806154 136.340757 
L 90.481678 136.340757 
L 82.157203 143.190486 
L 73.832727 170.589405 
z
" clip-path="url(#p480b6e2405)" style="fill: #9467bd"/>
   </g>
   <g id="PolyCollection_26">
    <path d="M 73.832727 167.164541 
L 73.832727 170.589405 
L 82.157203 143.190486 
L 90.481678 136.340757 
L 98.806154 136.340757 
L 107.130629 136.340757 
L 115.455105 136.340757 
L 123.77958 136.340757 
L 132.104056 136.340757 
L 140.428531 136.340757 
L 148.753007 136.340757 
L 157.077483 136.340757 
L 165.401958 136.340757 
L 173.726434 136.340757 
L 182.050909 136.340757 
L 190.375385 136.340757 
L 198.69986 136.340757 
L 207.024336 136.340757 
L 215.348811 136.340757 
L 223.673287 136.340757 
L 231.997762 136.340757 
L 240.322238 136.340757 
L 248.646713 218.537514 
L 256.971189 136.340757 
L 265.295664 136.340757 
L 273.62014 136.340757 
L 281.944615 136.340757 
L 290.269091 136.340757 
L 298.593566 136.340757 
L 306.918042 136.340757 
L 315.242517 136.340757 
L 323.566993 136.340757 
L 331.891469 136.340757 
L 340.215944 136.340757 
L 348.54042 136.340757 
L 356.864895 136.340757 
L 365.189371 136.340757 
L 373.513846 136.340757 
L 381.838322 136.340757 
L 390.162797 136.340757 
L 398.487273 136.340757 
L 398.487273 136.340757 
L 398.487273 136.340757 
L 390.162797 136.340757 
L 381.838322 136.340757 
L 373.513846 136.340757 
L 365.189371 136.340757 
L 356.864895 136.340757 
L 348.54042 136.340757 
L 340.215944 136.340757 
L 331.891469 136.340757 
L 323.566993 136.340757 
L 315.242517 136.340757 
L 306.918042 136.340757 
L 298.593566 136.340757 
L 290.269091 136.340757 
L 281.944615 136.340757 
L 273.62014 136.340757 
L 265.295664 136.340757 
L 256.971189 136.340757 
L 248.646713 211.687784 
L 240.322238 129.491027 
L 231.997762 129.491027 
L 223.673287 129.491027 
L 215.348811 129.491027 
L 207.024336 129.491027 
L 198.69986 129.491027 
L 190.375385 129.491027 
L 182.050909 129.491027 
L 173.726434 129.491027 
L 165.401958 129.491027 
L 157.077483 129.491027 
L 148.753007 129.491027 
L 140.428531 129.491027 
L 132.104056 129.491027 
L 123.77958 129.491027 
L 115.455105 129.491027 
L 107.130629 129.491027 
L 98.806154 129.491027 
L 90.481678 129.491027 
L 82.157203 136.340757 
L 73.832727 167.164541 
z
" clip-path="url(#p480b6e2405)" style="fill: #8c564b"/>
   </g>
   <g id="PolyCollection_27">
    <path d="M 73.832727 163.739676 
L 73.832727 167.164541 
L 82.157203 136.340757 
L 90.481678 129.491027 
L 98.806154 129.491027 
L 107.130629 129.491027 
L 115.455105 129.491027 
L 123.77958 129.491027 
L 132.104056 129.491027 
L 140.428531 129.491027 
L 148.753007 129.491027 
L 157.077483 129.491027 
L 165.401958 129.491027 
L 173.726434 129.491027 
L 182.050909 129.491027 
L 190.375385 129.491027 
L 198.69986 129.491027 
L 207.024336 129.491027 
L 215.348811 129.491027 
L 223.673287 129.491027 
L 231.997762 129.491027 
L 240.322238 129.491027 
L 248.646713 211.687784 
L 256.971189 136.340757 
L 265.295664 136.340757 
L 273.62014 136.340757 
L 281.944615 136.340757 
L 290.269091 136.340757 
L 298.593566 136.340757 
L 306.918042 136.340757 
L 315.242517 136.340757 
L 323.566993 136.340757 
L 331.891469 136.340757 
L 340.215944 136.340757 
L 348.54042 136.340757 
L 356.864895 136.340757 
L 365.189371 136.340757 
L 373.513846 136.340757 
L 381.838322 136.340757 
L 390.162797 136.340757 
L 398.487273 136.340757 
L 398.487273 136.340757 
L 398.487273 136.340757 
L 390.162797 136.340757 
L 381.838322 136.340757 
L 373.513846 136.340757 
L 365.189371 136.340757 
L 356.864895 136.340757 
L 348.54042 136.340757 
L 340.215944 136.340757 
L 331.891469 136.340757 
L 323.566993 136.340757 
L 315.242517 136.340757 
L 306.918042 136.340757 
L 298.593566 136.340757 
L 290.269091 136.340757 
L 281.944615 136.340757 
L 273.62014 136.340757 
L 265.295664 136.340757 
L 256.971189 136.340757 
L 248.646713 204.838054 
L 240.322238 122.641297 
L 231.997762 122.641297 
L 223.673287 122.641297 
L 215.348811 122.641297 
L 207.024336 122.641297 
L 198.69986 122.641297 
L 190.375385 122.641297 
L 182.050909 122.641297 
L 173.726434 122.641297 
L 165.401958 122.641297 
L 157.077483 122.641297 
L 148.753007 122.641297 
L 140.428531 122.641297 
L 132.104056 122.641297 
L 123.77958 122.641297 
L 115.455105 122.641297 
L 107.130629 122.641297 
L 98.806154 122.641297 
L 90.481678 122.641297 
L 82.157203 129.491027 
L 73.832727 163.739676 
z
" clip-path="url(#p480b6e2405)" style="fill: #e377c2"/>
   </g>
   <g id="PolyCollection_28">
    <path d="M 73.832727 160.314811 
L 73.832727 163.739676 
L 82.157203 129.491027 
L 90.481678 122.641297 
L 98.806154 122.641297 
L 107.130629 122.641297 
L 115.455105 122.641297 
L 123.77958 122.641297 
L 132.104056 122.641297 
L 140.428531 122.641297 
L 148.753007 122.641297 
L 157.077483 122.641297 
L 165.401958 122.641297 
L 173.726434 122.641297 
L 182.050909 122.641297 
L 190.375385 122.641297 
L 198.69986 122.641297 
L 207.024336 122.641297 
L 215.348811 122.641297 
L 223.673287 122.641297 
L 231.997762 122.641297 
L 240.322238 122.641297 
L 248.646713 204.838054 
L 256.971189 136.340757 
L 265.295664 136.340757 
L 273.62014 136.340757 
L 281.944615 136.340757 
L 290.269091 136.340757 
L 298.593566 136.340757 
L 306.918042 136.340757 
L 315.242517 136.340757 
L 323.566993 136.340757 
L 331.891469 136.340757 
L 340.215944 136.340757 
L 348.54042 136.340757 
L 356.864895 136.340757 
L 365.189371 136.340757 
L 373.513846 136.340757 
L 381.838322 136.340757 
L 390.162797 136.340757 
L 398.487273 136.340757 
L 398.487273 136.340757 
L 398.487273 136.340757 
L 390.162797 136.340757 
L 381.838322 136.340757 
L 373.513846 136.340757 
L 365.189371 136.340757 
L 356.864895 136.340757 
L 348.54042 136.340757 
L 340.215944 136.340757 
L 331.891469 136.340757 
L 323.566993 136.340757 
L 315.242517 136.340757 
L 306.918042 136.340757 
L 298.593566 136.340757 
L 290.269091 136.340757 
L 281.944615 136.340757 
L 273.62014 136.340757 
L 265.295664 136.340757 
L 256.971189 136.340757 
L 248.646713 197.988324 
L 240.322238 115.791568 
L 231.997762 115.791568 
L 223.673287 115.791568 
L 215.348811 115.791568 
L 207.024336 115.791568 
L 198.69986 115.791568 
L 190.375385 115.791568 
L 182.050909 115.791568 
L 173.726434 115.791568 
L 165.401958 115.791568 
L 157.077483 115.791568 
L 148.753007 115.791568 
L 140.428531 115.791568 
L 132.104056 115.791568 
L 123.77958 115.791568 
L 115.455105 115.791568 
L 107.130629 115.791568 
L 98.806154 115.791568 
L 90.481678 115.791568 
L 82.157203 122.641297 
L 73.832727 160.314811 
z
" clip-path="url(#p480b6e2405)" style="fill: #7f7f7f"/>
   </g>
   <g id="PolyCollection_29">
    <path d="M 73.832727 156.889946 
L 73.832727 160.314811 
L 82.157203 122.641297 
L 90.481678 115.791568 
L 98.806154 115.791568 
L 107.130629 115.791568 
L 115.455105 115.791568 
L 123.77958 115.791568 
L 132.104056 115.791568 
L 140.428531 115.791568 
L 148.753007 115.791568 
L 157.077483 115.791568 
L 165.401958 115.791568 
L 173.726434 115.791568 
L 182.050909 115.791568 
L 190.375385 115.791568 
L 198.69986 115.791568 
L 207.024336 115.791568 
L 215.348811 115.791568 
L 223.673287 115.791568 
L 231.997762 115.791568 
L 240.322238 115.791568 
L 248.646713 197.988324 
L 256.971189 136.340757 
L 265.295664 136.340757 
L 273.62014 136.340757 
L 281.944615 136.340757 
L 290.269091 136.340757 
L 298.593566 136.340757 
L 306.918042 136.340757 
L 315.242517 136.340757 
L 323.566993 136.340757 
L 331.891469 136.340757 
L 340.215944 136.340757 
L 348.54042 136.340757 
L 356.864895 136.340757 
L 365.189371 136.340757 
L 373.513846 136.340757 
L 381.838322 136.340757 
L 390.162797 136.340757 
L 398.487273 136.340757 
L 398.487273 136.340757 
L 398.487273 136.340757 
L 390.162797 136.340757 
L 381.838322 136.340757 
L 373.513846 136.340757 
L 365.189371 136.340757 
L 356.864895 136.340757 
L 348.54042 136.340757 
L 340.215944 136.340757 
L 331.891469 136.340757 
L 323.566993 136.340757 
L 315.242517 136.340757 
L 306.918042 136.340757 
L 298.593566 136.340757 
L 290.269091 136.340757 
L 281.944615 136.340757 
L 273.62014 136.340757 
L 265.295664 136.340757 
L 256.971189 136.340757 
L 248.646713 197.988324 
L 240.322238 108.941838 
L 231.997762 108.941838 
L 223.673287 108.941838 
L 215.348811 108.941838 
L 207.024336 108.941838 
L 198.69986 108.941838 
L 190.375385 108.941838 
L 182.050909 108.941838 
L 173.726434 108.941838 
L 165.401958 108.941838 
L 157.077483 108.941838 
L 148.753007 108.941838 
L 140.428531 108.941838 
L 132.104056 108.941838 
L 123.77958 108.941838 
L 115.455105 108.941838 
L 107.130629 108.941838 
L 98.806154 108.941838 
L 90.481678 108.941838 
L 82.157203 115.791568 
L 73.832727 156.889946 
z
" clip-path="url(#p480b6e2405)" style="fill: #bcbd22"/>
   </g>
   <g id="PolyCollection_30">
    <path d="M 73.832727 153.465081 
L 73.832727 156.889946 
L 82.157203 115.791568 
L 90.481678 108.941838 
L 98.806154 108.941838 
L 107.130629 108.941838 
L 115.455105 108.941838 
L 123.77958 108.941838 
L 132.104056 108.941838 
L 140.428531 108.941838 
L 148.753007 108.941838 
L 157.077483 108.941838 
L 165.401958 108.941838 
L 173.726434 108.941838 
L 182.050909 108.941838 
L 190.375385 108.941838 
L 198.69986 108.941838 
L 207.024336 108.941838 
L 215.348811 108.941838 
L 223.673287 108.941838 
L 231.997762 108.941838 
L 240.322238 108.941838 
L 248.646713 197.988324 
L 256.971189 136.340757 
L 265.295664 136.340757 
L 273.62014 136.340757 
L 281.944615 136.340757 
L 290.269091 136.340757 
L 298.593566 136.340757 
L 306.918042 136.340757 
L 315.242517 136.340757 
L 323.566993 136.340757 
L 331.891469 136.340757 
L 340.215944 136.340757 
L 348.54042 136.340757 
L 356.864895 136.340757 
L 365.189371 136.340757 
L 373.513846 136.340757 
L 381.838322 136.340757 
L 390.162797 136.340757 
L 398.487273 136.340757 
L 398.487273 136.340757 
L 398.487273 136.340757 
L 390.162797 136.340757 
L 381.838322 136.340757 
L 373.513846 136.340757 
L 365.189371 136.340757 
L 356.864895 136.340757 
L 348.54042 136.340757 
L 340.215944 136.340757 
L 331.891469 136.340757 
L 323.566993 136.340757 
L 315.242517 136.340757 
L 306.918042 136.340757 
L 298.593566 136.340757 
L 290.269091 136.340757 
L 281.944615 136.340757 
L 273.62014 136.340757 
L 265.295664 136.340757 
L 256.971189 136.340757 
L 248.646713 187.71373 
L 240.322238 102.092108 
L 231.997762 102.092108 
L 223.673287 102.092108 
L 215.348811 102.092108 
L 207.024336 102.092108 
L 198.69986 102.092108 
L 190.375385 102.092108 
L 182.050909 102.092108 
L 173.726434 102.092108 
L 165.401958 102.092108 
L 157.077483 102.092108 
L 148.753007 102.092108 
L 140.428531 102.092108 
L 132.104056 102.092108 
L 123.77958 102.092108 
L 115.455105 102.092108 
L 107.130629 102.092108 
L 98.806154 102.092108 
L 90.481678 102.092108 
L 82.157203 108.941838 
L 73.832727 153.465081 
z
" clip-path="url(#p480b6e2405)" style="fill: #17becf"/>
   </g>
   <g id="PolyCollection_31">
    <path d="M 73.832727 150.040216 
L 73.832727 153.465081 
L 82.157203 108.941838 
L 90.481678 102.092108 
L 98.806154 102.092108 
L 107.130629 102.092108 
L 115.455105 102.092108 
L 123.77958 102.092108 
L 132.104056 102.092108 
L 140.428531 102.092108 
L 148.753007 102.092108 
L 157.077483 102.092108 
L 165.401958 102.092108 
L 173.726434 102.092108 
L 182.050909 102.092108 
L 190.375385 102.092108 
L 198.69986 102.092108 
L 207.024336 102.092108 
L 215.348811 102.092108 
L 223.673287 102.092108 
L 231.997762 102.092108 
L 240.322238 102.092108 
L 248.646713 187.71373 
L 256.971189 136.340757 
L 265.295664 136.340757 
L 273.62014 136.340757 
L 281.944615 136.340757 
L 290.269091 136.340757 
L 298.593566 136.340757 
L 306.918042 136.340757 
L 315.242517 136.340757 
L 323.566993 136.340757 
L 331.891469 136.340757 
L 340.215944 136.340757 
L 348.54042 136.340757 
L 356.864895 136.340757 
L 365.189371 136.340757 
L 373.513846 136.340757 
L 381.838322 136.340757 
L 390.162797 136.340757 
L 398.487273 136.340757 
L 398.487273 136.340757 
L 398.487273 136.340757 
L 390.162797 136.340757 
L 381.838322 136.340757 
L 373.513846 136.340757 
L 365.189371 136.340757 
L 356.864895 136.340757 
L 348.54042 136.340757 
L 340.215944 136.340757 
L 331.891469 136.340757 
L 323.566993 136.340757 
L 315.242517 136.340757 
L 306.918042 136.340757 
L 298.593566 136.340757 
L 290.269091 136.340757 
L 281.944615 136.340757 
L 273.62014 136.340757 
L 265.295664 136.340757 
L 256.971189 136.340757 
L 248.646713 180.864 
L 240.322238 95.242378 
L 231.997762 95.242378 
L 223.673287 95.242378 
L 215.348811 95.242378 
L 207.024336 95.242378 
L 198.69986 95.242378 
L 190.375385 95.242378 
L 182.050909 95.242378 
L 173.726434 95.242378 
L 165.401958 95.242378 
L 157.077483 95.242378 
L 148.753007 95.242378 
L 140.428531 95.242378 
L 132.104056 95.242378 
L 123.77958 95.242378 
L 115.455105 95.242378 
L 107.130629 95.242378 
L 98.806154 95.242378 
L 90.481678 95.242378 
L 82.157203 102.092108 
L 73.832727 150.040216 
z
" clip-path="url(#p480b6e2405)" style="fill: #1f77b4"/>
   </g>
   <g id="PolyCollection_32">
    <path d="M 73.832727 146.615351 
L 73.832727 150.040216 
L 82.157203 102.092108 
L 90.481678 95.242378 
L 98.806154 95.242378 
L 107.130629 95.242378 
L 115.455105 95.242378 
L 123.77958 95.242378 
L 132.104056 95.242378 
L 140.428531 95.242378 
L 148.753007 95.242378 
L 157.077483 95.242378 
L 165.401958 95.242378 
L 173.726434 95.242378 
L 182.050909 95.242378 
L 190.375385 95.242378 
L 198.69986 95.242378 
L 207.024336 95.242378 
L 215.348811 95.242378 
L 223.673287 95.242378 
L 231.997762 95.242378 
L 240.322238 95.242378 
L 248.646713 180.864 
L 256.971189 136.340757 
L 265.295664 136.340757 
L 273.62014 136.340757 
L 281.944615 136.340757 
L 290.269091 136.340757 
L 298.593566 136.340757 
L 306.918042 136.340757 
L 315.242517 136.340757 
L 323.566993 136.340757 
L 331.891469 136.340757 
L 340.215944 136.340757 
L 348.54042 136.340757 
L 356.864895 136.340757 
L 365.189371 136.340757 
L 373.513846 136.340757 
L 381.838322 136.340757 
L 390.162797 136.340757 
L 398.487273 136.340757 
L 398.487273 136.340757 
L 398.487273 136.340757 
L 390.162797 136.340757 
L 381.838322 136.340757 
L 373.513846 136.340757 
L 365.189371 136.340757 
L 356.864895 136.340757 
L 348.54042 136.340757 
L 340.215944 136.340757 
L 331.891469 136.340757 
L 323.566993 136.340757 
L 315.242517 136.340757 
L 306.918042 136.340757 
L 298.593566 136.340757 
L 290.269091 136.340757 
L 281.944615 136.340757 
L 273.62014 136.340757 
L 265.295664 136.340757 
L 256.971189 136.340757 
L 248.646713 180.864 
L 240.322238 88.392649 
L 231.997762 88.392649 
L 223.673287 88.392649 
L 215.348811 88.392649 
L 207.024336 88.392649 
L 198.69986 88.392649 
L 190.375385 88.392649 
L 182.050909 88.392649 
L 173.726434 88.392649 
L 165.401958 88.392649 
L 157.077483 88.392649 
L 148.753007 88.392649 
L 140.428531 88.392649 
L 132.104056 88.392649 
L 123.77958 88.392649 
L 115.455105 88.392649 
L 107.130629 88.392649 
L 98.806154 88.392649 
L 90.481678 88.392649 
L 82.157203 95.242378 
L 73.832727 146.615351 
z
" clip-path="url(#p480b6e2405)" style="fill: #ff7f0e"/>
   </g>
   <g id="PolyCollection_33">
    <path d="M 73.832727 143.190486 
L 73.832727 146.615351 
L 82.157203 95.242378 
L 90.481678 88.392649 
L 98.806154 88.392649 
L 107.130629 88.392649 
L 115.455105 88.392649 
L 123.77958 88.392649 
L 132.104056 88.392649 
L 140.428531 88.392649 
L 148.753007 88.392649 
L 157.077483 88.392649 
L 165.401958 88.392649 
L 173.726434 88.392649 
L 182.050909 88.392649 
L 190.375385 88.392649 
L 198.69986 88.392649 
L 207.024336 88.392649 
L 215.348811 88.392649 
L 223.673287 88.392649 
L 231.997762 88.392649 
L 240.322238 88.392649 
L 248.646713 180.864 
L 256.971189 136.340757 
L 265.295664 136.340757 
L 273.62014 136.340757 
L 281.944615 136.340757 
L 290.269091 136.340757 
L 298.593566 136.340757 
L 306.918042 136.340757 
L 315.242517 136.340757 
L 323.566993 136.340757 
L 331.891469 136.340757 
L 340.215944 136.340757 
L 348.54042 136.340757 
L 356.864895 136.340757 
L 365.189371 136.340757 
L 373.513846 136.340757 
L 381.838322 136.340757 
L 390.162797 136.340757 
L 398.487273 136.340757 
L 398.487273 136.340757 
L 398.487273 136.340757 
L 390.162797 136.340757 
L 381.838322 136.340757 
L 373.513846 136.340757 
L 365.189371 136.340757 
L 356.864895 136.340757 
L 348.54042 136.340757 
L 340.215944 136.340757 
L 331.891469 136.340757 
L 323.566993 136.340757 
L 315.242517 136.340757 
L 306.918042 136.340757 
L 298.593566 136.340757 
L 290.269091 136.340757 
L 281.944615 136.340757 
L 273.62014 136.340757 
L 265.295664 136.340757 
L 256.971189 136.340757 
L 248.646713 180.864 
L 240.322238 81.542919 
L 231.997762 81.542919 
L 223.673287 81.542919 
L 215.348811 81.542919 
L 207.024336 81.542919 
L 198.69986 81.542919 
L 190.375385 81.542919 
L 182.050909 81.542919 
L 173.726434 81.542919 
L 165.401958 81.542919 
L 157.077483 81.542919 
L 148.753007 81.542919 
L 140.428531 81.542919 
L 132.104056 81.542919 
L 123.77958 81.542919 
L 115.455105 81.542919 
L 107.130629 81.542919 
L 98.806154 81.542919 
L 90.481678 81.542919 
L 82.157203 88.392649 
L 73.832727 143.190486 
z
" clip-path="url(#p480b6e2405)" style="fill: #2ca02c"/>
   </g>
   <g id="PolyCollection_34">
    <path d="M 73.832727 139.765622 
L 73.832727 143.190486 
L 82.157203 88.392649 
L 90.481678 81.542919 
L 98.806154 81.542919 
L 107.130629 81.542919 
L 115.455105 81.542919 
L 123.77958 81.542919 
L 132.104056 81.542919 
L 140.428531 81.542919 
L 148.753007 81.542919 
L 157.077483 81.542919 
L 165.401958 81.542919 
L 173.726434 81.542919 
L 182.050909 81.542919 
L 190.375385 81.542919 
L 198.69986 81.542919 
L 207.024336 81.542919 
L 215.348811 81.542919 
L 223.673287 81.542919 
L 231.997762 81.542919 
L 240.322238 81.542919 
L 248.646713 180.864 
L 256.971189 136.340757 
L 265.295664 136.340757 
L 273.62014 136.340757 
L 281.944615 136.340757 
L 290.269091 136.340757 
L 298.593566 136.340757 
L 306.918042 136.340757 
L 315.242517 136.340757 
L 323.566993 136.340757 
L 331.891469 136.340757 
L 340.215944 136.340757 
L 348.54042 136.340757 
L 356.864895 136.340757 
L 365.189371 136.340757 
L 373.513846 136.340757 
L 381.838322 136.340757 
L 390.162797 136.340757 
L 398.487273 136.340757 
L 398.487273 136.340757 
L 398.487273 136.340757 
L 390.162797 136.340757 
L 381.838322 136.340757 
L 373.513846 136.340757 
L 365.189371 136.340757 
L 356.864895 136.340757 
L 348.54042 136.340757 
L 340.215944 136.340757 
L 331.891469 136.340757 
L 323.566993 136.340757 
L 315.242517 136.340757 
L 306.918042 136.340757 
L 298.593566 136.340757 
L 290.269091 136.340757 
L 281.944615 136.340757 
L 273.62014 136.340757 
L 265.295664 136.340757 
L 256.971189 136.340757 
L 248.646713 180.864 
L 240.322238 74.693189 
L 231.997762 74.693189 
L 223.673287 74.693189 
L 215.348811 74.693189 
L 207.024336 74.693189 
L 198.69986 74.693189 
L 190.375385 74.693189 
L 182.050909 74.693189 
L 173.726434 74.693189 
L 165.401958 74.693189 
L 157.077483 74.693189 
L 148.753007 74.693189 
L 140.428531 74.693189 
L 132.104056 74.693189 
L 123.77958 74.693189 
L 115.455105 74.693189 
L 107.130629 74.693189 
L 98.806154 74.693189 
L 90.481678 74.693189 
L 82.157203 81.542919 
L 73.832727 139.765622 
z
" clip-path="url(#p480b6e2405)" style="fill: #d62728"/>
   </g>
   <g id="PolyCollection_35">
    <path d="M 73.832727 136.340757 
L 73.832727 139.765622 
L 82.157203 81.542919 
L 90.481678 74.693189 
L 98.806154 74.693189 
L 107.130629 74.693189 
L 115.455105 74.693189 
L 123.77958 74.693189 
L 132.104056 74.693189 
L 140.428531 74.693189 
L 148.753007 74.693189 
L 157.077483 74.693189 
L 165.401958 74.693189 
L 173.726434 74.693189 
L 182.050909 74.693189 
L 190.375385 74.693189 
L 198.69986 74.693189 
L 207.024336 74.693189 
L 215.348811 74.693189 
L 223.673287 74.693189 
L 231.997762 74.693189 
L 240.322238 74.693189 
L 248.646713 180.864 
L 256.971189 136.340757 
L 265.295664 136.340757 
L 273.62014 136.340757 
L 281.944615 136.340757 
L 290.269091 136.340757 
L 298.593566 136.340757 
L 306.918042 136.340757 
L 315.242517 136.340757 
L 323.566993 136.340757 
L 331.891469 136.340757 
L 340.215944 136.340757 
L 348.54042 136.340757 
L 356.864895 136.340757 
L 365.189371 136.340757 
L 373.513846 136.340757 
L 381.838322 136.340757 
L 390.162797 136.340757 
L 398.487273 136.340757 
L 398.487273 136.340757 
L 398.487273 136.340757 
L 390.162797 136.340757 
L 381.838322 136.340757 
L 373.513846 136.340757 
L 365.189371 136.340757 
L 356.864895 136.340757 
L 348.54042 136.340757 
L 340.215944 136.340757 
L 331.891469 136.340757 
L 323.566993 136.340757 
L 315.242517 136.340757 
L 306.918042 136.340757 
L 298.593566 136.340757 
L 290.269091 136.340757 
L 281.944615 136.340757 
L 273.62014 136.340757 
L 265.295664 136.340757 
L 256.971189 136.340757 
L 248.646713 170.589405 
L 240.322238 67.843459 
L 231.997762 67.843459 
L 223.673287 67.843459 
L 215.348811 67.843459 
L 207.024336 67.843459 
L 198.69986 67.843459 
L 190.375385 67.843459 
L 182.050909 67.843459 
L 173.726434 67.843459 
L 165.401958 67.843459 
L 157.077483 67.843459 
L 148.753007 67.843459 
L 140.428531 67.843459 
L 132.104056 67.843459 
L 123.77958 67.843459 
L 115.455105 67.843459 
L 107.130629 67.843459 
L 98.806154 67.843459 
L 90.481678 67.843459 
L 82.157203 74.693189 
L 73.832727 136.340757 
z
" clip-path="url(#p480b6e2405)" style="fill: #9467bd"/>
   </g>
   <g id="PolyCollection_36">
    <path d="M 73.832727 136.340757 
L 73.832727 136.340757 
L 82.157203 74.693189 
L 90.481678 67.843459 
L 98.806154 67.843459 
L 107.130629 67.843459 
L 115.455105 67.843459 
L 123.77958 67.843459 
L 132.104056 67.843459 
L 140.428531 67.843459 
L 148.753007 67.843459 
L 157.077483 67.843459 
L 165.401958 67.843459 
L 173.726434 67.843459 
L 182.050909 67.843459 
L 190.375385 67.843459 
L 198.69986 67.843459 
L 207.024336 67.843459 
L 215.348811 67.843459 
L 223.673287 67.843459 
L 231.997762 67.843459 
L 240.322238 67.843459 
L 248.646713 170.589405 
L 256.971189 136.340757 
L 265.295664 136.340757 
L 273.62014 136.340757 
L 281.944615 136.340757 
L 290.269091 136.340757 
L 298.593566 136.340757 
L 306.918042 136.340757 
L 315.242517 136.340757 
L 323.566993 136.340757 
L 331.891469 136.340757 
L 340.215944 136.340757 
L 348.54042 136.340757 
L 356.864895 136.340757 
L 365.189371 136.340757 
L 373.513846 136.340757 
L 381.838322 136.340757 
L 390.162797 136.340757 
L 398.487273 136.340757 
L 398.487273 136.340757 
L 398.487273 136.340757 
L 390.162797 136.340757 
L 381.838322 136.340757 
L 373.513846 136.340757 
L 365.189371 136.340757 
L 356.864895 136.340757 
L 348.54042 136.340757 
L 340.215944 136.340757 
L 331.891469 136.340757 
L 323.566993 136.340757 
L 315.242517 136.340757 
L 306.918042 136.340757 
L 298.593566 136.340757 
L 290.269091 136.340757 
L 281.944615 136.340757 
L 273.62014 136.340757 
L 265.295664 136.340757 
L 256.971189 136.340757 
L 248.646713 153.465081 
L 240.322238 60.99373 
L 231.997762 60.99373 
L 223.673287 60.99373 
L 215.348811 60.99373 
L 207.024336 60.99373 
L 198.69986 60.99373 
L 190.375385 60.99373 
L 182.050909 60.99373 
L 173.726434 60.99373 
L 165.401958 60.99373 
L 157.077483 60.99373 
L 148.753007 60.99373 
L 140.428531 60.99373 
L 132.104056 60.99373 
L 123.77958 60.99373 
L 115.455105 60.99373 
L 107.130629 60.99373 
L 98.806154 60.99373 
L 90.481678 60.99373 
L 82.157203 64.418595 
L 73.832727 136.340757 
z
" clip-path="url(#p480b6e2405)" style="fill: #8c564b"/>
   </g>
   <g id="PolyCollection_37">
    <path d="M 73.832727 136.340757 
L 73.832727 136.340757 
L 82.157203 64.418595 
L 90.481678 60.99373 
L 98.806154 60.99373 
L 107.130629 60.99373 
L 115.455105 60.99373 
L 123.77958 60.99373 
L 132.104056 60.99373 
L 140.428531 60.99373 
L 148.753007 60.99373 
L 157.077483 60.99373 
L 165.401958 60.99373 
L 173.726434 60.99373 
L 182.050909 60.99373 
L 190.375385 60.99373 
L 198.69986 60.99373 
L 207.024336 60.99373 
L 215.348811 60.99373 
L 223.673287 60.99373 
L 231.997762 60.99373 
L 240.322238 60.99373 
L 248.646713 153.465081 
L 256.971189 136.340757 
L 265.295664 136.340757 
L 273.62014 136.340757 
L 281.944615 136.340757 
L 290.269091 136.340757 
L 298.593566 136.340757 
L 306.918042 136.340757 
L 315.242517 136.340757 
L 323.566993 136.340757 
L 331.891469 136.340757 
L 340.215944 136.340757 
L 348.54042 136.340757 
L 356.864895 136.340757 
L 365.189371 136.340757 
L 373.513846 136.340757 
L 381.838322 136.340757 
L 390.162797 136.340757 
L 398.487273 136.340757 
L 398.487273 136.340757 
L 398.487273 136.340757 
L 390.162797 136.340757 
L 381.838322 136.340757 
L 373.513846 136.340757 
L 365.189371 136.340757 
L 356.864895 136.340757 
L 348.54042 136.340757 
L 340.215944 136.340757 
L 331.891469 136.340757 
L 323.566993 136.340757 
L 315.242517 136.340757 
L 306.918042 136.340757 
L 298.593566 136.340757 
L 290.269091 136.340757 
L 281.944615 136.340757 
L 273.62014 136.340757 
L 265.295664 136.340757 
L 256.971189 136.340757 
L 248.646713 143.190486 
L 240.322238 54.144 
L 231.997762 54.144 
L 223.673287 54.144 
L 215.348811 54.144 
L 207.024336 54.144 
L 198.69986 54.144 
L 190.375385 54.144 
L 182.050909 54.144 
L 173.726434 54.144 
L 165.401958 54.144 
L 157.077483 54.144 
L 148.753007 54.144 
L 140.428531 54.144 
L 132.104056 54.144 
L 123.77958 54.144 
L 115.455105 54.144 
L 107.130629 54.144 
L 98.806154 54.144 
L 90.481678 54.144 
L 82.157203 60.99373 
L 73.832727 136.340757 
z
" clip-path="url(#p480b6e2405)" style="fill: #e377c2"/>
   </g>
   <g id="matplotlib.axis_1">
    <g id="xtick_1">
     <g id="line2d_1">
      <defs>
       <path id="m9f64a67d10" d="M 0 0 
L 0 3.5 
" style="stroke: #000000; stroke-width: 0.8"/>
      </defs>
      <g>
       <use xlink:href="#m9f64a67d10" x="73.832727" y="307.584" style="stroke: #000000; stroke-width: 0.8"/>
      </g>
     </g>
     <g id="text_1">
      <!-- 0 -->
      <g transform="translate(70.651477 322.182437) scale(0.1 -0.1)">
       <defs>
        <path id="DejaVuSans-30" d="M 2034 4250 
Q 1547 4250 1301 3770 
Q 1056 3291 1056 2328 
Q 1056 1369 1301 889 
Q 1547 409 2034 409 
Q 2525 409 2770 889 
Q 3016 1369 3016 2328 
Q 3016 3291 2770 3770 
Q 2525 4250 2034 4250 
z
M 2034 4750 
Q 2819 4750 3233 4129 
Q 3647 3509 3647 2328 
Q 3647 1150 3233 529 
Q 2819 -91 2034 -91 
Q 1250 -91 836 529 
Q 422 1150 422 2328 
Q 422 3509 836 4129 
Q 1250 4750 2034 4750 
z
" transform="scale(0.015625)"/>
       </defs>
       <use xlink:href="#DejaVuSans-30"/>
      </g>
     </g>
    </g>
    <g id="xtick_2">
     <g id="line2d_2">
      <g>
       <use xlink:href="#m9f64a67d10" x="115.455105" y="307.584" style="stroke: #000000; stroke-width: 0.8"/>
      </g>
     </g>
     <g id="text_2">
      <!-- 5 -->
      <g transform="translate(112.273855 322.182437) scale(0.1 -0.1)">
       <defs>
        <path id="DejaVuSans-35" d="M 691 4666 
L 3169 4666 
L 3169 4134 
L 1269 4134 
L 1269 2991 
Q 1406 3038 1543 3061 
Q 1681 3084 1819 3084 
Q 2600 3084 3056 2656 
Q 3513 2228 3513 1497 
Q 3513 744 3044 326 
Q 2575 -91 1722 -91 
Q 1428 -91 1123 -41 
Q 819 9 494 109 
L 494 744 
Q 775 591 1075 516 
Q 1375 441 1709 441 
Q 2250 441 2565 725 
Q 2881 1009 2881 1497 
Q 2881 1984 2565 2268 
Q 2250 2553 1709 2553 
Q 1456 2553 1204 2497 
Q 953 2441 691 2322 
L 691 4666 
z
" transform="scale(0.015625)"/>
       </defs>
       <use xlink:href="#DejaVuSans-35"/>
      </g>
     </g>
    </g>
    <g id="xtick_3">
     <g id="line2d_3">
      <g>
       <use xlink:href="#m9f64a67d10" x="157.077483" y="307.584" style="stroke: #000000; stroke-width: 0.8"/>
      </g>
     </g>
     <g id="text_3">
      <!-- 10 -->
      <g transform="translate(150.714983 322.182437) scale(0.1 -0.1)">
       <defs>
        <path id="DejaVuSans-31" d="M 794 531 
L 1825 531 
L 1825 4091 
L 703 3866 
L 703 4441 
L 1819 4666 
L 2450 4666 
L 2450 531 
L 3481 531 
L 3481 0 
L 794 0 
L 794 531 
z
" transform="scale(0.015625)"/>
       </defs>
       <use xlink:href="#DejaVuSans-31"/>
       <use xlink:href="#DejaVuSans-30" x="63.623047"/>
      </g>
     </g>
    </g>
    <g id="xtick_4">
     <g id="line2d_4">
      <g>
       <use xlink:href="#m9f64a67d10" x="198.69986" y="307.584" style="stroke: #000000; stroke-width: 0.8"/>
      </g>
     </g>
     <g id="text_4">
      <!-- 15 -->
      <g transform="translate(192.33736 322.182437) scale(0.1 -0.1)">
       <use xlink:href="#DejaVuSans-31"/>
       <use xlink:href="#DejaVuSans-35" x="63.623047"/>
      </g>
     </g>
    </g>
    <g id="xtick_5">
     <g id="line2d_5">
      <g>
       <use xlink:href="#m9f64a67d10" x="240.322238" y="307.584" style="stroke: #000000; stroke-width: 0.8"/>
      </g>
     </g>
     <g id="text_5">
      <!-- 20 -->
      <g transform="translate(233.959738 322.182437) scale(0.1 -0.1)">
       <defs>
        <path id="DejaVuSans-32" d="M 1228 531 
L 3431 531 
L 3431 0 
L 469 0 
L 469 531 
Q 828 903 1448 1529 
Q 2069 2156 2228 2338 
Q 2531 2678 2651 2914 
Q 2772 3150 2772 3378 
Q 2772 3750 2511 3984 
Q 2250 4219 1831 4219 
Q 1534 4219 1204 4116 
Q 875 4013 500 3803 
L 500 4441 
Q 881 4594 1212 4672 
Q 1544 4750 1819 4750 
Q 2544 4750 2975 4387 
Q 3406 4025 3406 3419 
Q 3406 3131 3298 2873 
Q 3191 2616 2906 2266 
Q 2828 2175 2409 1742 
Q 1991 1309 1228 531 
z
" transform="scale(0.015625)"/>
       </defs>
       <use xlink:href="#DejaVuSans-32"/>
       <use xlink:href="#DejaVuSans-30" x="63.623047"/>
      </g>
     </g>
    </g>
    <g id="xtick_6">
     <g id="line2d_6">
      <g>
       <use xlink:href="#m9f64a67d10" x="281.944615" y="307.584" style="stroke: #000000; stroke-width: 0.8"/>
      </g>
     </g>
     <g id="text_6">
      <!-- 25 -->
      <g transform="translate(275.582115 322.182437) scale(0.1 -0.1)">
       <use xlink:href="#DejaVuSans-32"/>
       <use xlink:href="#DejaVuSans-35" x="63.623047"/>
      </g>
     </g>
    </g>
    <g id="xtick_7">
     <g id="line2d_7">
      <g>
       <use xlink:href="#m9f64a67d10" x="323.566993" y="307.584" style="stroke: #000000; stroke-width: 0.8"/>
      </g>
     </g>
     <g id="text_7">
      <!-- 30 -->
      <g transform="translate(317.204493 322.182437) scale(0.1 -0.1)">
       <defs>
        <path id="DejaVuSans-33" d="M 2597 2516 
Q 3050 2419 3304 2112 
Q 3559 1806 3559 1356 
Q 3559 666 3084 287 
Q 2609 -91 1734 -91 
Q 1441 -91 1130 -33 
Q 819 25 488 141 
L 488 750 
Q 750 597 1062 519 
Q 1375 441 1716 441 
Q 2309 441 2620 675 
Q 2931 909 2931 1356 
Q 2931 1769 2642 2001 
Q 2353 2234 1838 2234 
L 1294 2234 
L 1294 2753 
L 1863 2753 
Q 2328 2753 2575 2939 
Q 2822 3125 2822 3475 
Q 2822 3834 2567 4026 
Q 2313 4219 1838 4219 
Q 1578 4219 1281 4162 
Q 984 4106 628 3988 
L 628 4550 
Q 988 4650 1302 4700 
Q 1616 4750 1894 4750 
Q 2613 4750 3031 4423 
Q 3450 4097 3450 3541 
Q 3450 3153 3228 2886 
Q 3006 2619 2597 2516 
z
" transform="scale(0.015625)"/>
       </defs>
       <use xlink:href="#DejaVuSans-33"/>
       <use xlink:href="#DejaVuSans-30" x="63.623047"/>
      </g>
     </g>
    </g>
    <g id="xtick_8">
     <g id="line2d_8">
      <g>
       <use xlink:href="#m9f64a67d10" x="365.189371" y="307.584" style="stroke: #000000; stroke-width: 0.8"/>
      </g>
     </g>
     <g id="text_8">
      <!-- 35 -->
      <g transform="translate(358.826871 322.182437) scale(0.1 -0.1)">
       <use xlink:href="#DejaVuSans-33"/>
       <use xlink:href="#DejaVuSans-35" x="63.623047"/>
      </g>
     </g>
    </g>
    <g id="xtick_9">
     <g id="line2d_9">
      <g>
       <use xlink:href="#m9f64a67d10" x="406.811748" y="307.584" style="stroke: #000000; stroke-width: 0.8"/>
      </g>
     </g>
     <g id="text_9">
      <!-- 40 -->
      <g transform="translate(400.449248 322.182437) scale(0.1 -0.1)">
       <defs>
        <path id="DejaVuSans-34" d="M 2419 4116 
L 825 1625 
L 2419 1625 
L 2419 4116 
z
M 2253 4666 
L 3047 4666 
L 3047 1625 
L 3713 1625 
L 3713 1100 
L 3047 1100 
L 3047 0 
L 2419 0 
L 2419 1100 
L 313 1100 
L 313 1709 
L 2253 4666 
z
" transform="scale(0.015625)"/>
       </defs>
       <use xlink:href="#DejaVuSans-34"/>
       <use xlink:href="#DejaVuSans-30" x="63.623047"/>
      </g>
     </g>
    </g>
    <g id="text_10">
     <!-- Generations -->
     <g transform="translate(205.662344 335.860562) scale(0.1 -0.1)">
      <defs>
       <path id="DejaVuSans-47" d="M 3809 666 
L 3809 1919 
L 2778 1919 
L 2778 2438 
L 4434 2438 
L 4434 434 
Q 4069 175 3628 42 
Q 3188 -91 2688 -91 
Q 1594 -91 976 548 
Q 359 1188 359 2328 
Q 359 3472 976 4111 
Q 1594 4750 2688 4750 
Q 3144 4750 3555 4637 
Q 3966 4525 4313 4306 
L 4313 3634 
Q 3963 3931 3569 4081 
Q 3175 4231 2741 4231 
Q 1884 4231 1454 3753 
Q 1025 3275 1025 2328 
Q 1025 1384 1454 906 
Q 1884 428 2741 428 
Q 3075 428 3337 486 
Q 3600 544 3809 666 
z
" transform="scale(0.015625)"/>
       <path id="DejaVuSans-65" d="M 3597 1894 
L 3597 1613 
L 953 1613 
Q 991 1019 1311 708 
Q 1631 397 2203 397 
Q 2534 397 2845 478 
Q 3156 559 3463 722 
L 3463 178 
Q 3153 47 2828 -22 
Q 2503 -91 2169 -91 
Q 1331 -91 842 396 
Q 353 884 353 1716 
Q 353 2575 817 3079 
Q 1281 3584 2069 3584 
Q 2775 3584 3186 3129 
Q 3597 2675 3597 1894 
z
M 3022 2063 
Q 3016 2534 2758 2815 
Q 2500 3097 2075 3097 
Q 1594 3097 1305 2825 
Q 1016 2553 972 2059 
L 3022 2063 
z
" transform="scale(0.015625)"/>
       <path id="DejaVuSans-6e" d="M 3513 2113 
L 3513 0 
L 2938 0 
L 2938 2094 
Q 2938 2591 2744 2837 
Q 2550 3084 2163 3084 
Q 1697 3084 1428 2787 
Q 1159 2491 1159 1978 
L 1159 0 
L 581 0 
L 581 3500 
L 1159 3500 
L 1159 2956 
Q 1366 3272 1645 3428 
Q 1925 3584 2291 3584 
Q 2894 3584 3203 3211 
Q 3513 2838 3513 2113 
z
" transform="scale(0.015625)"/>
       <path id="DejaVuSans-72" d="M 2631 2963 
Q 2534 3019 2420 3045 
Q 2306 3072 2169 3072 
Q 1681 3072 1420 2755 
Q 1159 2438 1159 1844 
L 1159 0 
L 581 0 
L 581 3500 
L 1159 3500 
L 1159 2956 
Q 1341 3275 1631 3429 
Q 1922 3584 2338 3584 
Q 2397 3584 2469 3576 
Q 2541 3569 2628 3553 
L 2631 2963 
z
" transform="scale(0.015625)"/>
       <path id="DejaVuSans-61" d="M 2194 1759 
Q 1497 1759 1228 1600 
Q 959 1441 959 1056 
Q 959 750 1161 570 
Q 1363 391 1709 391 
Q 2188 391 2477 730 
Q 2766 1069 2766 1631 
L 2766 1759 
L 2194 1759 
z
M 3341 1997 
L 3341 0 
L 2766 0 
L 2766 531 
Q 2569 213 2275 61 
Q 1981 -91 1556 -91 
Q 1019 -91 701 211 
Q 384 513 384 1019 
Q 384 1609 779 1909 
Q 1175 2209 1959 2209 
L 2766 2209 
L 2766 2266 
Q 2766 2663 2505 2880 
Q 2244 3097 1772 3097 
Q 1472 3097 1187 3025 
Q 903 2953 641 2809 
L 641 3341 
Q 956 3463 1253 3523 
Q 1550 3584 1831 3584 
Q 2591 3584 2966 3190 
Q 3341 2797 3341 1997 
z
" transform="scale(0.015625)"/>
       <path id="DejaVuSans-74" d="M 1172 4494 
L 1172 3500 
L 2356 3500 
L 2356 3053 
L 1172 3053 
L 1172 1153 
Q 1172 725 1289 603 
Q 1406 481 1766 481 
L 2356 481 
L 2356 0 
L 1766 0 
Q 1100 0 847 248 
Q 594 497 594 1153 
L 594 3053 
L 172 3053 
L 172 3500 
L 594 3500 
L 594 4494 
L 1172 4494 
z
" transform="scale(0.015625)"/>
       <path id="DejaVuSans-69" d="M 603 3500 
L 1178 3500 
L 1178 0 
L 603 0 
L 603 3500 
z
M 603 4863 
L 1178 4863 
L 1178 4134 
L 603 4134 
L 603 4863 
z
" transform="scale(0.015625)"/>
       <path id="DejaVuSans-6f" d="M 1959 3097 
Q 1497 3097 1228 2736 
Q 959 2375 959 1747 
Q 959 1119 1226 758 
Q 1494 397 1959 397 
Q 2419 397 2687 759 
Q 2956 1122 2956 1747 
Q 2956 2369 2687 2733 
Q 2419 3097 1959 3097 
z
M 1959 3584 
Q 2709 3584 3137 3096 
Q 3566 2609 3566 1747 
Q 3566 888 3137 398 
Q 2709 -91 1959 -91 
Q 1206 -91 779 398 
Q 353 888 353 1747 
Q 353 2609 779 3096 
Q 1206 3584 1959 3584 
z
" transform="scale(0.015625)"/>
       <path id="DejaVuSans-73" d="M 2834 3397 
L 2834 2853 
Q 2591 2978 2328 3040 
Q 2066 3103 1784 3103 
Q 1356 3103 1142 2972 
Q 928 2841 928 2578 
Q 928 2378 1081 2264 
Q 1234 2150 1697 2047 
L 1894 2003 
Q 2506 1872 2764 1633 
Q 3022 1394 3022 966 
Q 3022 478 2636 193 
Q 2250 -91 1575 -91 
Q 1294 -91 989 -36 
Q 684 19 347 128 
L 347 722 
Q 666 556 975 473 
Q 1284 391 1588 391 
Q 1994 391 2212 530 
Q 2431 669 2431 922 
Q 2431 1156 2273 1281 
Q 2116 1406 1581 1522 
L 1381 1569 
Q 847 1681 609 1914 
Q 372 2147 372 2553 
Q 372 3047 722 3315 
Q 1072 3584 1716 3584 
Q 2034 3584 2315 3537 
Q 2597 3491 2834 3397 
z
" transform="scale(0.015625)"/>
      </defs>
      <use xlink:href="#DejaVuSans-47"/>
      <use xlink:href="#DejaVuSans-65" x="77.490234"/>
      <use xlink:href="#DejaVuSans-6e" x="139.013672"/>
      <use xlink:href="#DejaVuSans-65" x="202.392578"/>
      <use xlink:href="#DejaVuSans-72" x="263.916016"/>
      <use xlink:href="#DejaVuSans-61" x="305.029297"/>
      <use xlink:href="#DejaVuSans-74" x="366.308594"/>
      <use xlink:href="#DejaVuSans-69" x="405.517578"/>
      <use xlink:href="#DejaVuSans-6f" x="433.300781"/>
      <use xlink:href="#DejaVuSans-6e" x="494.482422"/>
      <use xlink:href="#DejaVuSans-73" x="557.861328"/>
     </g>
    </g>
   </g>
   <g id="matplotlib.axis_2">
    <g id="ytick_1">
     <g id="line2d_10">
      <defs>
       <path id="mf7d43c1967" d="M 0 0 
L -3.5 0 
" style="stroke: #000000; stroke-width: 0.8"/>
      </defs>
      <g>
       <use xlink:href="#mf7d43c1967" x="57.6" y="307.584" style="stroke: #000000; stroke-width: 0.8"/>
      </g>
     </g>
     <g id="text_11">
      <!-- 0 -->
      <g transform="translate(44.2375 311.383219) scale(0.1 -0.1)">
       <use xlink:href="#DejaVuSans-30"/>
      </g>
     </g>
    </g>
    <g id="ytick_2">
     <g id="line2d_11">
      <g>
       <use xlink:href="#mf7d43c1967" x="57.6" y="273.335351" style="stroke: #000000; stroke-width: 0.8"/>
      </g>
     </g>
     <g id="text_12">
      <!-- 10 -->
      <g transform="translate(37.875 277.13457) scale(0.1 -0.1)">
       <use xlink:href="#DejaVuSans-31"/>
       <use xlink:href="#DejaVuSans-30" x="63.623047"/>
      </g>
     </g>
    </g>
    <g id="ytick_3">
     <g id="line2d_12">
      <g>
       <use xlink:href="#mf7d43c1967" x="57.6" y="239.086703" style="stroke: #000000; stroke-width: 0.8"/>
      </g>
     </g>
     <g id="text_13">
      <!-- 20 -->
      <g transform="translate(37.875 242.885921) scale(0.1 -0.1)">
       <use xlink:href="#DejaVuSans-32"/>
       <use xlink:href="#DejaVuSans-30" x="63.623047"/>
      </g>
     </g>
    </g>
    <g id="ytick_4">
     <g id="line2d_13">
      <g>
       <use xlink:href="#mf7d43c1967" x="57.6" y="204.838054" style="stroke: #000000; stroke-width: 0.8"/>
      </g>
     </g>
     <g id="text_14">
      <!-- 30 -->
      <g transform="translate(37.875 208.637273) scale(0.1 -0.1)">
       <use xlink:href="#DejaVuSans-33"/>
       <use xlink:href="#DejaVuSans-30" x="63.623047"/>
      </g>
     </g>
    </g>
    <g id="ytick_5">
     <g id="line2d_14">
      <g>
       <use xlink:href="#mf7d43c1967" x="57.6" y="170.589405" style="stroke: #000000; stroke-width: 0.8"/>
      </g>
     </g>
     <g id="text_15">
      <!-- 40 -->
      <g transform="translate(37.875 174.388624) scale(0.1 -0.1)">
       <use xlink:href="#DejaVuSans-34"/>
       <use xlink:href="#DejaVuSans-30" x="63.623047"/>
      </g>
     </g>
    </g>
    <g id="ytick_6">
     <g id="line2d_15">
      <g>
       <use xlink:href="#mf7d43c1967" x="57.6" y="136.340757" style="stroke: #000000; stroke-width: 0.8"/>
      </g>
     </g>
     <g id="text_16">
      <!-- 50 -->
      <g transform="translate(37.875 140.139976) scale(0.1 -0.1)">
       <use xlink:href="#DejaVuSans-35"/>
       <use xlink:href="#DejaVuSans-30" x="63.623047"/>
      </g>
     </g>
    </g>
    <g id="ytick_7">
     <g id="line2d_16">
      <g>
       <use xlink:href="#mf7d43c1967" x="57.6" y="102.092108" style="stroke: #000000; stroke-width: 0.8"/>
      </g>
     </g>
     <g id="text_17">
      <!-- 60 -->
      <g transform="translate(37.875 105.891327) scale(0.1 -0.1)">
       <defs>
        <path id="DejaVuSans-36" d="M 2113 2584 
Q 1688 2584 1439 2293 
Q 1191 2003 1191 1497 
Q 1191 994 1439 701 
Q 1688 409 2113 409 
Q 2538 409 2786 701 
Q 3034 994 3034 1497 
Q 3034 2003 2786 2293 
Q 2538 2584 2113 2584 
z
M 3366 4563 
L 3366 3988 
Q 3128 4100 2886 4159 
Q 2644 4219 2406 4219 
Q 1781 4219 1451 3797 
Q 1122 3375 1075 2522 
Q 1259 2794 1537 2939 
Q 1816 3084 2150 3084 
Q 2853 3084 3261 2657 
Q 3669 2231 3669 1497 
Q 3669 778 3244 343 
Q 2819 -91 2113 -91 
Q 1303 -91 875 529 
Q 447 1150 447 2328 
Q 447 3434 972 4092 
Q 1497 4750 2381 4750 
Q 2619 4750 2861 4703 
Q 3103 4656 3366 4563 
z
" transform="scale(0.015625)"/>
       </defs>
       <use xlink:href="#DejaVuSans-36"/>
       <use xlink:href="#DejaVuSans-30" x="63.623047"/>
      </g>
     </g>
    </g>
    <g id="ytick_8">
     <g id="line2d_17">
      <g>
       <use xlink:href="#mf7d43c1967" x="57.6" y="67.843459" style="stroke: #000000; stroke-width: 0.8"/>
      </g>
     </g>
     <g id="text_18">
      <!-- 70 -->
      <g transform="translate(37.875 71.642678) scale(0.1 -0.1)">
       <defs>
        <path id="DejaVuSans-37" d="M 525 4666 
L 3525 4666 
L 3525 4397 
L 1831 0 
L 1172 0 
L 2766 4134 
L 525 4134 
L 525 4666 
z
" transform="scale(0.015625)"/>
       </defs>
       <use xlink:href="#DejaVuSans-37"/>
       <use xlink:href="#DejaVuSans-30" x="63.623047"/>
      </g>
     </g>
    </g>
    <g id="text_19">
     <!-- Size per Species -->
     <g transform="translate(31.795312 215.520969) rotate(-90) scale(0.1 -0.1)">
      <defs>
       <path id="DejaVuSans-53" d="M 3425 4513 
L 3425 3897 
Q 3066 4069 2747 4153 
Q 2428 4238 2131 4238 
Q 1616 4238 1336 4038 
Q 1056 3838 1056 3469 
Q 1056 3159 1242 3001 
Q 1428 2844 1947 2747 
L 2328 2669 
Q 3034 2534 3370 2195 
Q 3706 1856 3706 1288 
Q 3706 609 3251 259 
Q 2797 -91 1919 -91 
Q 1588 -91 1214 -16 
Q 841 59 441 206 
L 441 856 
Q 825 641 1194 531 
Q 1563 422 1919 422 
Q 2459 422 2753 634 
Q 3047 847 3047 1241 
Q 3047 1584 2836 1778 
Q 2625 1972 2144 2069 
L 1759 2144 
Q 1053 2284 737 2584 
Q 422 2884 422 3419 
Q 422 4038 858 4394 
Q 1294 4750 2059 4750 
Q 2388 4750 2728 4690 
Q 3069 4631 3425 4513 
z
" transform="scale(0.015625)"/>
       <path id="DejaVuSans-7a" d="M 353 3500 
L 3084 3500 
L 3084 2975 
L 922 459 
L 3084 459 
L 3084 0 
L 275 0 
L 275 525 
L 2438 3041 
L 353 3041 
L 353 3500 
z
" transform="scale(0.015625)"/>
       <path id="DejaVuSans-20" transform="scale(0.015625)"/>
       <path id="DejaVuSans-70" d="M 1159 525 
L 1159 -1331 
L 581 -1331 
L 581 3500 
L 1159 3500 
L 1159 2969 
Q 1341 3281 1617 3432 
Q 1894 3584 2278 3584 
Q 2916 3584 3314 3078 
Q 3713 2572 3713 1747 
Q 3713 922 3314 415 
Q 2916 -91 2278 -91 
Q 1894 -91 1617 61 
Q 1341 213 1159 525 
z
M 3116 1747 
Q 3116 2381 2855 2742 
Q 2594 3103 2138 3103 
Q 1681 3103 1420 2742 
Q 1159 2381 1159 1747 
Q 1159 1113 1420 752 
Q 1681 391 2138 391 
Q 2594 391 2855 752 
Q 3116 1113 3116 1747 
z
" transform="scale(0.015625)"/>
       <path id="DejaVuSans-63" d="M 3122 3366 
L 3122 2828 
Q 2878 2963 2633 3030 
Q 2388 3097 2138 3097 
Q 1578 3097 1268 2742 
Q 959 2388 959 1747 
Q 959 1106 1268 751 
Q 1578 397 2138 397 
Q 2388 397 2633 464 
Q 2878 531 3122 666 
L 3122 134 
Q 2881 22 2623 -34 
Q 2366 -91 2075 -91 
Q 1284 -91 818 406 
Q 353 903 353 1747 
Q 353 2603 823 3093 
Q 1294 3584 2113 3584 
Q 2378 3584 2631 3529 
Q 2884 3475 3122 3366 
z
" transform="scale(0.015625)"/>
      </defs>
      <use xlink:href="#DejaVuSans-53"/>
      <use xlink:href="#DejaVuSans-69" x="63.476562"/>
      <use xlink:href="#DejaVuSans-7a" x="91.259766"/>
      <use xlink:href="#DejaVuSans-65" x="143.75"/>
      <use xlink:href="#DejaVuSans-20" x="205.273438"/>
      <use xlink:href="#DejaVuSans-70" x="237.060547"/>
      <use xlink:href="#DejaVuSans-65" x="300.537109"/>
      <use xlink:href="#DejaVuSans-72" x="362.060547"/>
      <use xlink:href="#DejaVuSans-20" x="403.173828"/>
      <use xlink:href="#DejaVuSans-53" x="434.960938"/>
      <use xlink:href="#DejaVuSans-70" x="498.4375"/>
      <use xlink:href="#DejaVuSans-65" x="561.914062"/>
      <use xlink:href="#DejaVuSans-63" x="623.4375"/>
      <use xlink:href="#DejaVuSans-69" x="678.417969"/>
      <use xlink:href="#DejaVuSans-65" x="706.201172"/>
      <use xlink:href="#DejaVuSans-73" x="767.724609"/>
     </g>
    </g>
   </g>
   <g id="patch_3">
    <path d="M 57.6 307.584 
L 57.6 41.472 
" style="fill: none; stroke: #000000; stroke-width: 0.8; stroke-linejoin: miter; stroke-linecap: square"/>
   </g>
   <g id="patch_4">
    <path d="M 414.72 307.584 
L 414.72 41.472 
" style="fill: none; stroke: #000000; stroke-width: 0.8; stroke-linejoin: miter; stroke-linecap: square"/>
   </g>
   <g id="patch_5">
    <path d="M 57.6 307.584 
L 414.72 307.584 
" style="fill: none; stroke: #000000; stroke-width: 0.8; stroke-linejoin: miter; stroke-linecap: square"/>
   </g>
   <g id="patch_6">
    <path d="M 57.6 41.472 
L 414.72 41.472 
" style="fill: none; stroke: #000000; stroke-width: 0.8; stroke-linejoin: miter; stroke-linecap: square"/>
   </g>
   <g id="text_20">
    <!-- Speciation -->
    <g transform="translate(204.714375 35.472) scale(0.12 -0.12)">
     <use xlink:href="#DejaVuSans-53"/>
     <use xlink:href="#DejaVuSans-70" x="63.476562"/>
     <use xlink:href="#DejaVuSans-65" x="126.953125"/>
     <use xlink:href="#DejaVuSans-63" x="188.476562"/>
     <use xlink:href="#DejaVuSans-69" x="243.457031"/>
     <use xlink:href="#DejaVuSans-61" x="271.240234"/>
     <use xlink:href="#DejaVuSans-74" x="332.519531"/>
     <use xlink:href="#DejaVuSans-69" x="371.728516"/>
     <use xlink:href="#DejaVuSans-6f" x="399.511719"/>
     <use xlink:href="#DejaVuSans-6e" x="460.693359"/>
    </g>
   </g>
  </g>
 </g>
 <defs>
  <clipPath id="p480b6e2405">
   <rect x="57.6" y="41.472" width="357.12" height="266.112"/>
  </clipPath>
 </defs>
</svg>
