<?xml version="1.0" encoding="UTF-8" standalone="no"?>
<!DOCTYPE svg PUBLIC "-//W3C//DTD SVG 1.1//EN"
 "http://www.w3.org/Graphics/SVG/1.1/DTD/svg11.dtd">
<!-- Generated by graphviz version 2.44.0 (0)
 -->
<!-- Pages: 1 -->
<svg width="1987pt" height="180pt"
 viewBox="0.00 0.00 1986.62 180.02" xmlns="http://www.w3.org/2000/svg" xmlns:xlink="http://www.w3.org/1999/xlink">
<g id="graph0" class="graph" transform="scale(1 1) rotate(0) translate(4 176.02)">
<polygon fill="white" stroke="transparent" points="-4,4 -4,-176.02 1982.62,-176.02 1982.62,4 -4,4"/>
<!-- &#45;1 -->
<g id="node1" class="node">
<title>&#45;1</title>
<polygon fill="lightgray" stroke="black" points="1197.31,-172.02 1171.31,-172.02 1171.31,-154.02 1197.31,-154.02 1197.31,-172.02"/>
<text text-anchor="middle" x="1184.31" y="-160.82" font-family="Times-Roman" font-size="9.00">&#45;1</text>
</g>
<!-- 0 -->
<g id="node7" class="node">
<title>0</title>
<ellipse fill="lightblue" stroke="black" cx="1121.31" cy="-16.26" rx="16.03" ry="16.03"/>
<text text-anchor="middle" x="1121.31" y="-14.06" font-family="Times-Roman" font-size="9.00">0</text>
</g>
<!-- &#45;1&#45;&gt;0 -->
<g id="edge120" class="edge">
<title>&#45;1&#45;&gt;0</title>
<path fill="none" stroke="green" stroke-width="0.41" d="M1197.34,-161.98C1275.87,-161.6 1683.74,-157.72 1720.31,-118.02 1735.21,-101.85 1735.35,-84.58 1720.31,-68.53 1678.52,-23.91 1231.44,-43.52 1171.31,-32.53 1162.9,-30.99 1153.9,-28.52 1145.9,-26"/>
<polygon fill="green" stroke="green" stroke-width="0.41" points="1146.99,-22.68 1136.4,-22.87 1144.8,-29.33 1146.99,-22.68"/>
</g>
<!-- 1 -->
<g id="node8" class="node">
<title>1</title>
<ellipse fill="lightblue" stroke="black" cx="964.31" cy="-16.26" rx="16.03" ry="16.03"/>
<text text-anchor="middle" x="964.31" y="-14.06" font-family="Times-Roman" font-size="9.00">1</text>
</g>
<!-- &#45;1&#45;&gt;1 -->
<g id="edge121" class="edge">
<title>&#45;1&#45;&gt;1</title>
<path fill="none" stroke="red" stroke-width="0.34" d="M1197.35,-162.09C1280.69,-162.39 1736.48,-162 1777.31,-118.02 1792.28,-101.9 1792.48,-84.46 1777.31,-68.53 1749.08,-38.88 1081.94,-37.52 1041.31,-32.53 1024.11,-30.41 1005,-26.63 990.13,-23.37"/>
<polygon fill="red" stroke="red" stroke-width="0.34" points="990.65,-19.9 980.13,-21.11 989.11,-26.72 990.65,-19.9"/>
</g>
<!-- 2 -->
<g id="node9" class="node">
<title>2</title>
<ellipse fill="lightblue" stroke="black" cx="1196.31" cy="-16.26" rx="16.03" ry="16.03"/>
<text text-anchor="middle" x="1196.31" y="-14.06" font-family="Times-Roman" font-size="9.00">2</text>
</g>
<!-- &#45;1&#45;&gt;2 -->
<g id="edge122" class="edge">
<title>&#45;1&#45;&gt;2</title>
<path fill="none" stroke="green" stroke-width="0.53" d="M1197.39,-161.8C1297.56,-159.98 1939.72,-147.21 1967.31,-118.02 1982.42,-102.04 1982.34,-84.59 1967.31,-68.53 1915.43,-13.08 1352.29,-15.61 1222.77,-16.94"/>
<polygon fill="green" stroke="green" stroke-width="0.53" points="1222.53,-13.44 1212.57,-17.05 1222.61,-20.44 1222.53,-13.44"/>
</g>
<!-- 3 -->
<g id="node10" class="node">
<title>3</title>
<ellipse fill="lightblue" stroke="black" cx="788.31" cy="-16.26" rx="16.03" ry="16.03"/>
<text text-anchor="middle" x="788.31" y="-14.06" font-family="Times-Roman" font-size="9.00">3</text>
</g>
<!-- &#45;1&#45;&gt;3 -->
<g id="edge123" class="edge">
<title>&#45;1&#45;&gt;3</title>
<path fill="none" stroke="red" stroke-width="0.83" d="M1170.85,-158.78C1137.99,-150.78 1054.45,-129.89 1028.31,-118.02 991.6,-101.36 989.12,-84.96 952.31,-68.53 896,-43.39 875.88,-54.63 818.31,-32.53 815.92,-31.61 813.48,-30.56 811.06,-29.45"/>
<polygon fill="red" stroke="red" stroke-width="0.83" points="812.59,-26.31 802.08,-25.03 809.5,-32.59 812.59,-26.31"/>
</g>
<!-- 4 -->
<g id="node11" class="node">
<title>4</title>
<ellipse fill="lightblue" stroke="black" cx="843.31" cy="-16.26" rx="16.03" ry="16.03"/>
<text text-anchor="middle" x="843.31" y="-14.06" font-family="Times-Roman" font-size="9.00">4</text>
</g>
<!-- &#45;1&#45;&gt;4 -->
<g id="edge124" class="edge">
<title>&#45;1&#45;&gt;4</title>
<path fill="none" stroke="red" stroke-width="0.19" d="M1197.37,-160.87C1235.18,-157.24 1343.4,-144.66 1364.31,-118.02 1377.89,-100.72 1379.19,-84.73 1364.31,-68.53 1332.24,-33.63 986.35,-38.25 939.31,-32.53 915.53,-29.63 888.61,-25.26 869.34,-21.93"/>
<polygon fill="red" stroke="red" stroke-width="0.19" points="869.68,-18.44 859.23,-20.16 868.47,-25.33 869.68,-18.44"/>
</g>
<!-- 5 -->
<g id="node12" class="node">
<title>5</title>
<ellipse fill="lightblue" stroke="black" cx="1066.31" cy="-16.26" rx="16.03" ry="16.03"/>
<text text-anchor="middle" x="1066.31" y="-14.06" font-family="Times-Roman" font-size="9.00">5</text>
</g>
<!-- &#45;1&#45;&gt;5 -->
<g id="edge125" class="edge">
<title>&#45;1&#45;&gt;5</title>
<path fill="none" stroke="red" stroke-width="0.61" d="M1197.34,-162.15C1283.71,-162.87 1771.63,-164.85 1815.31,-118.02 1830.31,-101.94 1830.47,-84.47 1815.31,-68.53 1760.18,-10.57 1173.6,-53.12 1096.31,-32.53 1093.93,-31.89 1091.52,-31.05 1089.15,-30.09"/>
<polygon fill="red" stroke="red" stroke-width="0.61" points="1090.4,-26.81 1079.86,-25.68 1087.39,-33.13 1090.4,-26.81"/>
</g>
<!-- 326 -->
<g id="node13" class="node">
<title>326</title>
<ellipse fill="white" stroke="black" cx="1263.31" cy="-93.28" rx="25" ry="25"/>
<text text-anchor="middle" x="1263.31" y="-91.08" font-family="Times-Roman" font-size="9.00">326</text>
</g>
<!-- &#45;1&#45;&gt;326 -->
<g id="edge1" class="edge">
<title>&#45;1&#45;&gt;326</title>
<path fill="none" stroke="red" stroke-width="0.2" d="M1193.68,-153.99C1204.3,-144.88 1222.08,-129.63 1237.01,-116.83"/>
<polygon fill="red" stroke="red" stroke-width="0.2" points="1239.64,-119.18 1244.95,-110.02 1235.08,-113.87 1239.64,-119.18"/>
</g>
<!-- 327 -->
<g id="node14" class="node">
<title>327</title>
<ellipse fill="white" stroke="black" cx="1330.31" cy="-93.28" rx="25" ry="25"/>
<text text-anchor="middle" x="1330.31" y="-91.08" font-family="Times-Roman" font-size="9.00">327</text>
</g>
<!-- &#45;1&#45;&gt;327 -->
<g id="edge2" class="edge">
<title>&#45;1&#45;&gt;327</title>
<path fill="none" stroke="green" stroke-width="0.13" d="M1197.32,-158.15C1218.84,-151.47 1262.9,-136.71 1297.31,-118.02 1299.08,-117.06 1300.86,-116.02 1302.63,-114.93"/>
<polygon fill="green" stroke="green" stroke-width="0.13" points="1304.9,-117.63 1311.3,-109.19 1301.03,-111.8 1304.9,-117.63"/>
</g>
<!-- 328 -->
<g id="node15" class="node">
<title>328</title>
<ellipse fill="white" stroke="black" cx="678.31" cy="-93.28" rx="25" ry="25"/>
<text text-anchor="middle" x="678.31" y="-91.08" font-family="Times-Roman" font-size="9.00">328</text>
</g>
<!-- &#45;1&#45;&gt;328 -->
<g id="edge3" class="edge">
<title>&#45;1&#45;&gt;328</title>
<path fill="none" stroke="red" stroke-width="0.7" d="M1171.02,-158.91C1163.51,-157.25 1153.92,-155.3 1145.31,-154.02 970.92,-128.27 922.91,-153.87 750.31,-118.02 737.22,-115.31 723.18,-111.01 711.01,-106.81"/>
<polygon fill="red" stroke="red" stroke-width="0.7" points="711.88,-103.4 701.29,-103.34 709.53,-110 711.88,-103.4"/>
</g>
<!-- 329 -->
<g id="node16" class="node">
<title>329</title>
<ellipse fill="white" stroke="black" cx="534.31" cy="-93.28" rx="25" ry="25"/>
<text text-anchor="middle" x="534.31" y="-91.08" font-family="Times-Roman" font-size="9.00">329</text>
</g>
<!-- &#45;1&#45;&gt;329 -->
<g id="edge4" class="edge">
<title>&#45;1&#45;&gt;329</title>
<path fill="none" stroke="green" stroke-width="0.2" d="M1171.03,-158.85C1163.52,-157.17 1153.94,-155.21 1145.31,-154.02 924.16,-123.53 865.3,-149.66 644.31,-118.02 618.55,-114.34 589.81,-108.06 568.18,-102.88"/>
<polygon fill="green" stroke="green" stroke-width="0.2" points="568.71,-99.41 558.17,-100.44 567.06,-106.21 568.71,-99.41"/>
</g>
<!-- 330 -->
<g id="node17" class="node">
<title>330</title>
<ellipse fill="white" stroke="black" cx="784.31" cy="-93.28" rx="25" ry="25"/>
<text text-anchor="middle" x="784.31" y="-91.08" font-family="Times-Roman" font-size="9.00">330</text>
</g>
<!-- &#45;1&#45;&gt;330 -->
<g id="edge5" class="edge">
<title>&#45;1&#45;&gt;330</title>
<path fill="none" stroke="red" stroke-width="0.47" d="M1171.01,-158.98C1163.49,-157.34 1153.91,-155.38 1145.31,-154.02 1000.43,-131.27 954.22,-170.59 817.31,-118.02 815.43,-117.3 813.56,-116.45 811.72,-115.5"/>
<polygon fill="red" stroke="red" stroke-width="0.47" points="813.25,-112.33 802.88,-110.14 809.62,-118.31 813.25,-112.33"/>
</g>
<!-- 331 -->
<g id="node18" class="node">
<title>331</title>
<ellipse fill="white" stroke="black" cx="851.31" cy="-93.28" rx="25" ry="25"/>
<text text-anchor="middle" x="851.31" y="-91.08" font-family="Times-Roman" font-size="9.00">331</text>
</g>
<!-- &#45;1&#45;&gt;331 -->
<g id="edge6" class="edge">
<title>&#45;1&#45;&gt;331</title>
<path fill="none" stroke="red" stroke-width="0.13" d="M1170.99,-159.07C1163.47,-157.46 1153.89,-155.5 1145.31,-154.02 1029.89,-134.25 993.04,-161.51 884.31,-118.02 882.44,-117.28 880.58,-116.4 878.75,-115.44"/>
<polygon fill="red" stroke="red" stroke-width="0.13" points="880.28,-112.27 869.92,-110.03 876.62,-118.24 880.28,-112.27"/>
</g>
<!-- 332 -->
<g id="node19" class="node">
<title>332</title>
<ellipse fill="white" stroke="black" cx="918.31" cy="-93.28" rx="25" ry="25"/>
<text text-anchor="middle" x="918.31" y="-91.08" font-family="Times-Roman" font-size="9.00">332</text>
</g>
<!-- &#45;1&#45;&gt;332 -->
<g id="edge7" class="edge">
<title>&#45;1&#45;&gt;332</title>
<path fill="none" stroke="red" stroke-width="0.28" d="M1170.96,-159.24C1163.43,-157.68 1153.85,-155.72 1145.31,-154.02 1061.86,-137.48 1036.68,-148.64 957.31,-118.02 953.85,-116.69 950.36,-115.05 946.95,-113.26"/>
<polygon fill="red" stroke="red" stroke-width="0.28" points="948.66,-110.21 938.24,-108.29 945.19,-116.29 948.66,-110.21"/>
</g>
<!-- 333 -->
<g id="node20" class="node">
<title>333</title>
<ellipse fill="white" stroke="black" cx="1062.31" cy="-93.28" rx="25" ry="25"/>
<text text-anchor="middle" x="1062.31" y="-91.08" font-family="Times-Roman" font-size="9.00">333</text>
</g>
<!-- &#45;1&#45;&gt;333 -->
<g id="edge8" class="edge">
<title>&#45;1&#45;&gt;333</title>
<path fill="none" stroke="red" stroke-width="0.17" d="M1171.28,-156.4C1153.62,-148.59 1121.31,-133.66 1095.31,-118.02 1093.63,-117.01 1091.93,-115.95 1090.23,-114.84"/>
<polygon fill="red" stroke="red" stroke-width="0.17" points="1092.08,-111.87 1081.84,-109.14 1088.14,-117.66 1092.08,-111.87"/>
</g>
<!-- 334 -->
<g id="node21" class="node">
<title>334</title>
<ellipse fill="white" stroke="black" cx="1129.31" cy="-93.28" rx="25" ry="25"/>
<text text-anchor="middle" x="1129.31" y="-91.08" font-family="Times-Roman" font-size="9.00">334</text>
</g>
<!-- &#45;1&#45;&gt;334 -->
<g id="edge9" class="edge">
<title>&#45;1&#45;&gt;334</title>
<path fill="none" stroke="green" stroke-width="0.72" d="M1177.78,-153.99C1171.17,-145.84 1160.58,-132.79 1150.98,-120.96"/>
<polygon fill="green" stroke="green" stroke-width="0.72" points="1153.57,-118.61 1144.55,-113.05 1148.13,-123.02 1153.57,-118.61"/>
</g>
<!-- 335 -->
<g id="node22" class="node">
<title>335</title>
<ellipse fill="white" stroke="black" cx="1196.31" cy="-93.28" rx="25" ry="25"/>
<text text-anchor="middle" x="1196.31" y="-91.08" font-family="Times-Roman" font-size="9.00">335</text>
</g>
<!-- &#45;1&#45;&gt;335 -->
<g id="edge10" class="edge">
<title>&#45;1&#45;&gt;335</title>
<path fill="none" stroke="red" stroke-width="0.14" d="M1185.73,-153.99C1186.9,-147.38 1188.65,-137.54 1190.38,-127.75"/>
<polygon fill="red" stroke="red" stroke-width="0.14" points="1193.86,-128.16 1192.16,-117.7 1186.97,-126.94 1193.86,-128.16"/>
</g>
<!-- &#45;2 -->
<g id="node2" class="node">
<title>&#45;2</title>
<polygon fill="lightgray" stroke="black" points="981.31,-172.02 955.31,-172.02 955.31,-154.02 981.31,-154.02 981.31,-172.02"/>
<text text-anchor="middle" x="968.31" y="-160.82" font-family="Times-Roman" font-size="9.00">&#45;2</text>
</g>
<!-- &#45;2&#45;&gt;0 -->
<g id="edge126" class="edge">
<title>&#45;2&#45;&gt;0</title>
<path fill="none" stroke="green" stroke-width="0.2" d="M981.62,-160.64C1052.49,-153.29 1382.44,-118.99 1383.31,-118.02 1398.02,-101.67 1397.5,-85.33 1383.31,-68.53 1352.48,-32.02 1217.81,-43.53 1171.31,-32.53 1163.08,-30.58 1154.22,-28.03 1146.27,-25.57"/>
<polygon fill="green" stroke="green" stroke-width="0.2" points="1147.08,-22.15 1136.49,-22.45 1144.95,-28.82 1147.08,-22.15"/>
</g>
<!-- &#45;2&#45;&gt;1 -->
<g id="edge127" class="edge">
<title>&#45;2&#45;&gt;1</title>
<path fill="none" stroke="red" stroke-width="0.2" d="M954.93,-160.89C878.88,-154.42 504.26,-122.36 500.31,-118.02 405.58,-13.97 416.91,-90.44 868.31,-32.53 892.07,-29.48 918.99,-25.12 938.27,-21.84"/>
<polygon fill="red" stroke="red" stroke-width="0.2" points="939.12,-25.24 948.38,-20.1 937.94,-18.34 939.12,-25.24"/>
</g>
<!-- &#45;2&#45;&gt;2 -->
<g id="edge128" class="edge">
<title>&#45;2&#45;&gt;2</title>
<path fill="none" stroke="red" stroke-width="0.53" d="M981.56,-160.66C997.08,-159.06 1023.56,-156.34 1046.31,-154.02 1085.86,-150 1375.65,-147.52 1402.31,-118.02 1417.06,-101.71 1415.86,-85.86 1402.31,-68.53 1380.27,-40.33 1273.07,-25.41 1222.64,-19.85"/>
<polygon fill="red" stroke="red" stroke-width="0.53" points="1222.82,-16.35 1212.51,-18.78 1222.09,-23.31 1222.82,-16.35"/>
</g>
<!-- &#45;2&#45;&gt;3 -->
<g id="edge129" class="edge">
<title>&#45;2&#45;&gt;3</title>
<path fill="none" stroke="green" stroke-width="0.21" d="M955.24,-160.91C936,-159.28 898.89,-156.21 867.31,-154.02 800.13,-149.37 308.49,-167.04 262.31,-118.02 247.22,-102.01 247.53,-84.82 262.31,-68.53 296.22,-31.16 660.26,-20.16 762.02,-17.8"/>
<polygon fill="green" stroke="green" stroke-width="0.21" points="762.15,-21.3 772.07,-17.58 761.99,-14.3 762.15,-21.3"/>
</g>
<!-- &#45;2&#45;&gt;4 -->
<g id="edge130" class="edge">
<title>&#45;2&#45;&gt;4</title>
<path fill="none" stroke="red" stroke-width="0.53" d="M955.24,-160.91C936,-159.29 898.89,-156.24 867.31,-154.02 801.79,-149.43 322.31,-165.86 277.31,-118.02 262.23,-102 262.28,-84.6 277.31,-68.53 318.08,-24.93 755.76,-48.38 813.31,-32.53 815.69,-31.87 818.09,-31.02 820.46,-30.05"/>
<polygon fill="red" stroke="red" stroke-width="0.53" points="822.22,-33.09 829.74,-25.63 819.21,-26.77 822.22,-33.09"/>
</g>
<!-- &#45;2&#45;&gt;5 -->
<g id="edge131" class="edge">
<title>&#45;2&#45;&gt;5</title>
<path fill="none" stroke="green" stroke-width="0.24" d="M981.37,-160.69C1049.48,-153.73 1361.02,-121.7 1364.31,-118.02 1378.98,-101.63 1378.79,-85.09 1364.31,-68.53 1324.75,-23.3 1153.68,-50.4 1096.31,-32.53 1093.87,-31.77 1091.39,-30.82 1088.95,-29.77"/>
<polygon fill="green" stroke="green" stroke-width="0.24" points="1090.46,-26.62 1079.94,-25.42 1087.42,-32.92 1090.46,-26.62"/>
</g>
<!-- &#45;2&#45;&gt;326 -->
<g id="edge11" class="edge">
<title>&#45;2&#45;&gt;326</title>
<path fill="none" stroke="red" stroke-width="0.34" d="M981.48,-160.61C1027.98,-155.51 1184.12,-137.29 1230.31,-118.02 1232.17,-117.25 1234.02,-116.35 1235.84,-115.37"/>
<polygon fill="red" stroke="red" stroke-width="0.34" points="1237.99,-118.16 1244.65,-109.93 1234.31,-112.21 1237.99,-118.16"/>
</g>
<!-- &#45;2&#45;&gt;327 -->
<g id="edge12" class="edge">
<title>&#45;2&#45;&gt;327</title>
<path fill="none" stroke="red" stroke-width="0.58" d="M981.42,-160.65C1038.94,-154.58 1267.39,-129.92 1297.31,-118.02 1299.18,-117.28 1301.04,-116.41 1302.87,-115.45"/>
<polygon fill="red" stroke="red" stroke-width="0.58" points="1305,-118.25 1311.7,-110.05 1301.34,-112.28 1305,-118.25"/>
</g>
<!-- &#45;2&#45;&gt;328 -->
<g id="edge13" class="edge">
<title>&#45;2&#45;&gt;328</title>
<path fill="none" stroke="red" stroke-width="0.13" d="M954.91,-159.89C920.59,-154.31 826.82,-138.29 750.31,-118.02 737.39,-114.6 723.39,-110.16 711.19,-106.04"/>
<polygon fill="red" stroke="red" stroke-width="0.13" points="712.04,-102.63 701.44,-102.69 709.76,-109.25 712.04,-102.63"/>
</g>
<!-- &#45;2&#45;&gt;329 -->
<g id="edge14" class="edge">
<title>&#45;2&#45;&gt;329</title>
<path fill="none" stroke="red" stroke-width="0.18" d="M955.26,-160.91C891.04,-155.38 610.29,-130.65 573.31,-118.02 569.8,-116.83 566.27,-115.28 562.85,-113.54"/>
<polygon fill="red" stroke="red" stroke-width="0.18" points="564.55,-110.48 554.12,-108.62 561.12,-116.58 564.55,-110.48"/>
</g>
<!-- &#45;2&#45;&gt;330 -->
<g id="edge15" class="edge">
<title>&#45;2&#45;&gt;330</title>
<path fill="none" stroke="red" stroke-width="0.13" d="M955.24,-159.77C928.37,-154.81 865.41,-141.48 817.31,-118.02 815.5,-117.14 813.69,-116.16 811.89,-115.12"/>
<polygon fill="red" stroke="red" stroke-width="0.13" points="813.46,-111.97 803.16,-109.5 809.68,-117.86 813.46,-111.97"/>
</g>
<!-- &#45;2&#45;&gt;331 -->
<g id="edge16" class="edge">
<title>&#45;2&#45;&gt;331</title>
<path fill="none" stroke="red" stroke-width="0.29" d="M955.19,-155.87C938.38,-147.82 908.54,-132.99 884.31,-118.02 882.64,-117 880.95,-115.91 879.26,-114.79"/>
<polygon fill="red" stroke="red" stroke-width="0.29" points="881.12,-111.83 870.89,-109.06 877.16,-117.6 881.12,-111.83"/>
</g>
<!-- &#45;2&#45;&gt;332 -->
<g id="edge17" class="edge">
<title>&#45;2&#45;&gt;332</title>
<path fill="none" stroke="red" stroke-width="0.2" d="M962.38,-153.99C956.51,-146.03 947.18,-133.4 938.62,-121.8"/>
<polygon fill="red" stroke="red" stroke-width="0.2" points="941.34,-119.58 932.58,-113.61 935.7,-123.74 941.34,-119.58"/>
</g>
<!-- &#45;2&#45;&gt;333 -->
<g id="edge18" class="edge">
<title>&#45;2&#45;&gt;333</title>
<path fill="none" stroke="red" stroke-width="0.37" d="M979.46,-153.99C992.84,-144.35 1015.74,-127.84 1034.09,-114.62"/>
<polygon fill="red" stroke="red" stroke-width="0.37" points="1036.59,-117.12 1042.66,-108.44 1032.5,-111.44 1036.59,-117.12"/>
</g>
<!-- &#45;2&#45;&gt;334 -->
<g id="edge19" class="edge">
<title>&#45;2&#45;&gt;334</title>
<path fill="none" stroke="green" stroke-width="0.41" d="M981.54,-158.85C1005.35,-152.84 1056.65,-138.54 1096.31,-118.02 1098.1,-117.1 1099.89,-116.09 1101.68,-115.02"/>
<polygon fill="green" stroke="green" stroke-width="0.41" points="1103.92,-117.73 1110.37,-109.33 1100.09,-111.87 1103.92,-117.73"/>
</g>
<!-- &#45;2&#45;&gt;335 -->
<g id="edge20" class="edge">
<title>&#45;2&#45;&gt;335</title>
<path fill="none" stroke="green" stroke-width="0.4" d="M981.66,-160.87C1014.09,-157.66 1099.06,-146.94 1163.31,-118.02 1165.14,-117.2 1166.98,-116.26 1168.79,-115.25"/>
<polygon fill="green" stroke="green" stroke-width="0.4" points="1170.97,-118.02 1177.56,-109.72 1167.24,-112.09 1170.97,-118.02"/>
</g>
<!-- &#45;3 -->
<g id="node3" class="node">
<title>&#45;3</title>
<polygon fill="lightgray" stroke="black" points="858.31,-172.02 832.31,-172.02 832.31,-154.02 858.31,-154.02 858.31,-172.02"/>
<text text-anchor="middle" x="845.31" y="-160.82" font-family="Times-Roman" font-size="9.00">&#45;3</text>
</g>
<!-- &#45;3&#45;&gt;0 -->
<g id="edge132" class="edge">
<title>&#45;3&#45;&gt;0</title>
<path fill="none" stroke="green" stroke-width="0.1" d="M832.23,-157.91C808.44,-150.13 759.7,-132.73 750.31,-118.02 738.47,-99.49 735.59,-84.88 750.31,-68.53 801.28,-11.89 1018.25,-54.16 1091.31,-32.53 1093.76,-31.8 1096.25,-30.88 1098.69,-29.84"/>
<polygon fill="green" stroke="green" stroke-width="0.1" points="1100.21,-33 1107.71,-25.51 1097.18,-26.69 1100.21,-33"/>
</g>
<!-- &#45;3&#45;&gt;1 -->
<g id="edge133" class="edge">
<title>&#45;3&#45;&gt;1</title>
<path fill="none" stroke="red" stroke-width="0.29" d="M832.23,-158.41C826.2,-156.86 818.93,-155.15 812.31,-154.02 732.83,-140.49 505.41,-177.79 451.31,-118.02 436.55,-101.72 436.44,-84.74 451.31,-68.53 482.75,-34.26 822.15,-38.18 868.31,-32.53 892.08,-29.61 919.01,-25.24 938.28,-21.92"/>
<polygon fill="red" stroke="red" stroke-width="0.29" points="939.14,-25.32 948.39,-20.15 937.94,-18.43 939.14,-25.32"/>
</g>
<!-- &#45;3&#45;&gt;2 -->
<g id="edge134" class="edge">
<title>&#45;3&#45;&gt;2</title>
<path fill="none" stroke="green" stroke-width="0.14" d="M858.34,-160.98C938.56,-154.54 1362.09,-120.44 1364.31,-118.02 1379.19,-101.83 1377.4,-86.21 1364.31,-68.53 1331.61,-24.36 1261.7,-16.97 1223.17,-16.47"/>
<polygon fill="green" stroke="green" stroke-width="0.14" points="1222.73,-12.97 1212.74,-16.49 1222.75,-19.97 1222.73,-12.97"/>
</g>
<!-- &#45;3&#45;&gt;3 -->
<g id="edge135" class="edge">
<title>&#45;3&#45;&gt;3</title>
<path fill="none" stroke="green" stroke-width="0.68" d="M832.25,-158.25C826.23,-156.67 818.96,-154.98 812.31,-154.02 770.3,-148 78.6,-148.73 49.31,-118.02 34.12,-102.11 34.3,-84.61 49.31,-68.53 98.81,-15.47 635.39,-16.12 761.76,-17.02"/>
<polygon fill="green" stroke="green" stroke-width="0.68" points="762.03,-20.52 772.06,-17.1 762.09,-13.52 762.03,-20.52"/>
</g>
<!-- &#45;3&#45;&gt;4 -->
<g id="edge136" class="edge">
<title>&#45;3&#45;&gt;4</title>
<path fill="none" stroke="red" stroke-width="0.31" d="M832.25,-158.29C826.23,-156.71 818.96,-155.02 812.31,-154.02 745.05,-143.97 247.96,-167.51 201.31,-118.02 186.22,-102.02 186.22,-84.53 201.31,-68.53 248.04,-18.97 747.56,-50.35 813.31,-32.53 815.69,-31.88 818.1,-31.04 820.46,-30.07"/>
<polygon fill="red" stroke="red" stroke-width="0.31" points="822.22,-33.11 829.75,-25.66 819.21,-26.79 822.22,-33.11"/>
</g>
<!-- &#45;3&#45;&gt;5 -->
<g id="edge137" class="edge">
<title>&#45;3&#45;&gt;5</title>
<path fill="none" stroke="red" stroke-width="0.51" stroke-dasharray="1,5" d="M832.22,-158.46C826.19,-156.92 818.93,-155.2 812.31,-154.02 743.6,-141.78 546.75,-170.13 500.31,-118.02 485.67,-101.6 485.34,-84.64 500.31,-68.53 537.39,-28.61 935.32,-39.84 989.31,-32.53 1006.48,-30.2 1025.59,-26.42 1040.47,-23.2"/>
<polygon fill="red" stroke="red" stroke-width="0.51" points="1041.47,-26.57 1050.48,-20.99 1039.96,-19.73 1041.47,-26.57"/>
</g>
<!-- &#45;3&#45;&gt;326 -->
<g id="edge21" class="edge">
<title>&#45;3&#45;&gt;326</title>
<path fill="none" stroke="green" stroke-width="0.17" d="M858.47,-160.92C921.95,-155.53 1194.85,-131.73 1230.31,-118.02 1232.19,-117.3 1234.05,-116.44 1235.89,-115.49"/>
<polygon fill="green" stroke="green" stroke-width="0.17" points="1238,-118.3 1244.73,-110.12 1234.37,-112.32 1238,-118.3"/>
</g>
<!-- &#45;3&#45;&gt;327 -->
<g id="edge22" class="edge">
<title>&#45;3&#45;&gt;327</title>
<path fill="none" stroke="green" stroke-width="0.26" d="M858.63,-160.92C931.17,-154.91 1276.19,-125.98 1297.31,-118.02 1299.19,-117.31 1301.06,-116.47 1302.91,-115.53"/>
<polygon fill="green" stroke="green" stroke-width="0.26" points="1305,-118.35 1311.75,-110.18 1301.38,-112.36 1305,-118.35"/>
</g>
<!-- &#45;3&#45;&gt;328 -->
<g id="edge23" class="edge">
<title>&#45;3&#45;&gt;328</title>
<path fill="none" stroke="red" stroke-width="0.63" d="M832.23,-158.54C808.66,-152.05 757.72,-137 717.31,-118.02 713.95,-116.45 710.52,-114.66 707.16,-112.78"/>
<polygon fill="red" stroke="red" stroke-width="0.63" points="708.89,-109.74 698.49,-107.7 705.35,-115.78 708.89,-109.74"/>
</g>
<!-- &#45;3&#45;&gt;329 -->
<g id="edge24" class="edge">
<title>&#45;3&#45;&gt;329</title>
<path fill="none" stroke="red" stroke-width="0.71" d="M832.2,-158.56C826.17,-157.05 818.9,-155.32 812.31,-154.02 706.9,-133.35 674.28,-154.68 573.31,-118.02 569.83,-116.76 566.31,-115.16 562.9,-113.4"/>
<polygon fill="red" stroke="red" stroke-width="0.71" points="564.61,-110.35 554.18,-108.46 561.15,-116.44 564.61,-110.35"/>
</g>
<!-- &#45;3&#45;&gt;330 -->
<g id="edge25" class="edge">
<title>&#45;3&#45;&gt;330</title>
<path fill="none" stroke="red" stroke-width="0.27" d="M838.07,-153.99C830.51,-145.59 818.26,-131.98 807.36,-119.88"/>
<polygon fill="red" stroke="red" stroke-width="0.27" points="809.75,-117.3 800.45,-112.21 804.54,-121.98 809.75,-117.3"/>
</g>
<!-- &#45;3&#45;&gt;331 -->
<g id="edge26" class="edge">
<title>&#45;3&#45;&gt;331</title>
<path fill="none" stroke="red" stroke-width="0.43" d="M846.02,-153.99C846.6,-147.43 847.46,-137.7 848.32,-127.98"/>
<polygon fill="red" stroke="red" stroke-width="0.43" points="851.81,-128.27 849.21,-118 844.84,-127.65 851.81,-128.27"/>
</g>
<!-- &#45;3&#45;&gt;332 -->
<g id="edge27" class="edge">
<title>&#45;3&#45;&gt;332</title>
<path fill="none" stroke="red" stroke-width="0.42" d="M853.97,-153.99C863.5,-145.14 879.28,-130.5 892.82,-117.93"/>
<polygon fill="red" stroke="red" stroke-width="0.42" points="895.52,-120.2 900.47,-110.83 890.76,-115.07 895.52,-120.2"/>
</g>
<!-- &#45;3&#45;&gt;333 -->
<g id="edge28" class="edge">
<title>&#45;3&#45;&gt;333</title>
<path fill="none" stroke="green" stroke-width="0.24" d="M858.7,-160.14C888.95,-155.59 964.54,-142.5 1023.31,-118.02 1026.73,-116.6 1030.2,-114.9 1033.59,-113.08"/>
<polygon fill="green" stroke="green" stroke-width="0.24" points="1035.37,-116.1 1042.29,-108.07 1031.87,-110.03 1035.37,-116.1"/>
</g>
<!-- &#45;3&#45;&gt;334 -->
<g id="edge29" class="edge">
<title>&#45;3&#45;&gt;334</title>
<path fill="none" stroke="green" stroke-width="0.12" d="M858.55,-160.5C903.86,-155.14 1052.28,-136.57 1096.31,-118.02 1098.16,-117.24 1100.01,-116.34 1101.84,-115.36"/>
<polygon fill="green" stroke="green" stroke-width="0.12" points="1103.99,-118.14 1110.64,-109.9 1100.3,-112.19 1103.99,-118.14"/>
</g>
<!-- &#45;3&#45;&gt;335 -->
<g id="edge30" class="edge">
<title>&#45;3&#45;&gt;335</title>
<path fill="none" stroke="red" stroke-width="0.37" d="M858.31,-161.06C910.68,-157.07 1106.13,-140.9 1163.31,-118.02 1165.18,-117.28 1167.04,-116.4 1168.87,-115.44"/>
<polygon fill="red" stroke="red" stroke-width="0.37" points="1170.99,-118.24 1177.69,-110.03 1167.34,-112.27 1170.99,-118.24"/>
</g>
<!-- &#45;4 -->
<g id="node4" class="node">
<title>&#45;4</title>
<polygon fill="lightgray" stroke="black" points="1136.31,-172.02 1110.31,-172.02 1110.31,-154.02 1136.31,-154.02 1136.31,-172.02"/>
<text text-anchor="middle" x="1123.31" y="-160.82" font-family="Times-Roman" font-size="9.00">&#45;4</text>
</g>
<!-- &#45;4&#45;&gt;0 -->
<g id="edge138" class="edge">
<title>&#45;4&#45;&gt;0</title>
<path fill="none" stroke="green" stroke-width="0.4" d="M1136.59,-158.83C1144.1,-157.15 1153.68,-155.19 1162.31,-154.02 1221.79,-145.98 1660.31,-161.86 1701.31,-118.02 1716.34,-101.96 1716.33,-84.6 1701.31,-68.53 1661.01,-25.4 1229.36,-43.21 1171.31,-32.53 1162.9,-30.98 1153.91,-28.5 1145.9,-25.99"/>
<polygon fill="green" stroke="green" stroke-width="0.4" points="1147,-22.67 1136.4,-22.86 1144.8,-29.32 1147,-22.67"/>
</g>
<!-- &#45;4&#45;&gt;1 -->
<g id="edge139" class="edge">
<title>&#45;4&#45;&gt;1</title>
<path fill="none" stroke="red" stroke-width="0.26" d="M1136.64,-159.15C1144.16,-157.56 1153.74,-155.6 1162.31,-154.02 1211.25,-145.02 1351.08,-155.93 1383.31,-118.02 1397.56,-101.26 1398.03,-84.88 1383.31,-68.53 1332.18,-11.73 1116.87,-43.97 1041.31,-32.53 1024.18,-29.93 1005.07,-26.15 990.18,-23"/>
<polygon fill="red" stroke="red" stroke-width="0.26" points="990.67,-19.53 980.16,-20.84 989.2,-26.37 990.67,-19.53"/>
</g>
<!-- &#45;4&#45;&gt;2 -->
<g id="edge140" class="edge">
<title>&#45;4&#45;&gt;2</title>
<path fill="none" stroke="red" stroke-width="0.16" d="M1136.59,-158.83C1144.1,-157.14 1153.68,-155.18 1162.31,-154.02 1223.89,-145.76 1677.82,-163.35 1720.31,-118.02 1735.36,-101.98 1735.09,-84.82 1720.31,-68.53 1686.57,-31.33 1324.67,-20.22 1222.83,-17.82"/>
<polygon fill="red" stroke="red" stroke-width="0.16" points="1222.84,-14.32 1212.77,-17.59 1222.68,-21.32 1222.84,-14.32"/>
</g>
<!-- &#45;4&#45;&gt;3 -->
<g id="edge141" class="edge">
<title>&#45;4&#45;&gt;3</title>
<path fill="none" stroke="red" stroke-width="0.24" d="M1110.25,-158.29C1104.23,-156.72 1096.95,-155.02 1090.31,-154.02 1025.36,-144.25 545.31,-165.86 500.31,-118.02 422.59,-35.42 676.34,-20.51 761.46,-17.84"/>
<polygon fill="red" stroke="red" stroke-width="0.24" points="761.74,-21.33 771.64,-17.55 761.55,-14.34 761.74,-21.33"/>
</g>
<!-- &#45;4&#45;&gt;4 -->
<g id="edge142" class="edge">
<title>&#45;4&#45;&gt;4</title>
<path fill="none" stroke="red" stroke-width="0.24" d="M1110.24,-158.35C1104.21,-156.79 1096.94,-155.09 1090.31,-154.02 1041.22,-146.14 678.02,-154.57 644.31,-118.02 629.39,-101.86 630.47,-85.63 644.31,-68.53 692.63,-8.83 740.92,-58.16 813.31,-32.53 815.72,-31.67 818.18,-30.67 820.61,-29.58"/>
<polygon fill="red" stroke="red" stroke-width="0.24" points="822.15,-32.72 829.6,-25.19 819.08,-26.43 822.15,-32.72"/>
</g>
<!-- &#45;4&#45;&gt;5 -->
<g id="edge143" class="edge">
<title>&#45;4&#45;&gt;5</title>
<path fill="none" stroke="green" stroke-width="0.11" d="M1136.59,-158.85C1144.1,-157.17 1153.68,-155.21 1162.31,-154.02 1217.6,-146.4 1625.29,-158.88 1663.31,-118.02 1678.3,-101.92 1678.36,-84.57 1663.31,-68.53 1620.11,-22.5 1157.2,-49.18 1096.31,-32.53 1093.93,-31.88 1091.52,-31.03 1089.16,-30.06"/>
<polygon fill="green" stroke="green" stroke-width="0.11" points="1090.41,-26.78 1079.87,-25.64 1087.4,-33.1 1090.41,-26.78"/>
</g>
<!-- &#45;4&#45;&gt;326 -->
<g id="edge31" class="edge">
<title>&#45;4&#45;&gt;326</title>
<path fill="none" stroke="red" stroke-width="0.56" d="M1136.61,-157.68C1157.31,-150.69 1198.18,-135.87 1230.31,-118.02 1232.07,-117.05 1233.84,-115.99 1235.61,-114.89"/>
<polygon fill="red" stroke="red" stroke-width="0.56" points="1237.88,-117.58 1244.26,-109.12 1234,-111.76 1237.88,-117.58"/>
</g>
<!-- &#45;4&#45;&gt;327 -->
<g id="edge32" class="edge">
<title>&#45;4&#45;&gt;327</title>
<path fill="none" stroke="green" stroke-width="0.47" d="M1136.52,-159.35C1171.89,-152.1 1268,-131.67 1297.31,-118.02 1299.13,-117.18 1300.96,-116.22 1302.77,-115.2"/>
<polygon fill="green" stroke="green" stroke-width="0.47" points="1304.96,-117.95 1311.52,-109.63 1301.2,-112.04 1304.96,-117.95"/>
</g>
<!-- &#45;4&#45;&gt;328 -->
<g id="edge33" class="edge">
<title>&#45;4&#45;&gt;328</title>
<path fill="none" stroke="green" stroke-width="0.42" d="M1110.23,-158.43C1104.2,-156.88 1096.93,-155.17 1090.31,-154.02 940.59,-128.07 898.86,-150.01 750.31,-118.02 737.24,-115.21 723.21,-110.89 711.04,-106.7"/>
<polygon fill="green" stroke="green" stroke-width="0.42" points="711.9,-103.3 701.31,-103.25 709.56,-109.9 711.9,-103.3"/>
</g>
<!-- &#45;4&#45;&gt;329 -->
<g id="edge34" class="edge">
<title>&#45;4&#45;&gt;329</title>
<path fill="none" stroke="green" stroke-width="0.27" d="M1110.24,-158.32C1104.22,-156.75 1096.95,-155.05 1090.31,-154.02 862.69,-118.77 792.79,-187.9 573.31,-118.02 569.78,-116.9 566.24,-115.39 562.8,-113.68"/>
<polygon fill="green" stroke="green" stroke-width="0.27" points="564.5,-110.62 554.06,-108.8 561.09,-116.73 564.5,-110.62"/>
</g>
<!-- &#45;4&#45;&gt;330 -->
<g id="edge35" class="edge">
<title>&#45;4&#45;&gt;330</title>
<path fill="none" stroke="green" stroke-width="0.3" d="M1110.21,-158.51C1104.18,-156.98 1096.92,-155.26 1090.31,-154.02 970,-131.58 931.08,-163.13 817.31,-118.02 815.44,-117.28 813.58,-116.41 811.74,-115.45"/>
<polygon fill="green" stroke="green" stroke-width="0.3" points="813.27,-112.28 802.91,-110.06 809.62,-118.26 813.27,-112.28"/>
</g>
<!-- &#45;4&#45;&gt;331 -->
<g id="edge36" class="edge">
<title>&#45;4&#45;&gt;331</title>
<path fill="none" stroke="green" stroke-width="0.35" d="M1110.19,-158.64C1104.15,-157.13 1096.89,-155.4 1090.31,-154.02 999.32,-135.07 969.97,-154.08 884.31,-118.02 882.46,-117.24 880.6,-116.34 878.78,-115.36"/>
<polygon fill="green" stroke="green" stroke-width="0.35" points="880.32,-112.2 869.98,-109.9 876.63,-118.14 880.32,-112.2"/>
</g>
<!-- &#45;4&#45;&gt;332 -->
<g id="edge37" class="edge">
<title>&#45;4&#45;&gt;332</title>
<path fill="none" stroke="green" stroke-width="0.17" stroke-dasharray="1,5" d="M1110.29,-158.8C1073.7,-149.72 971.67,-124.15 957.31,-118.02 953.9,-116.57 950.44,-114.86 947.05,-113.02"/>
<polygon fill="green" stroke="green" stroke-width="0.17" points="948.77,-109.98 938.36,-108 945.27,-116.04 948.77,-109.98"/>
</g>
<!-- &#45;4&#45;&gt;333 -->
<g id="edge38" class="edge">
<title>&#45;4&#45;&gt;333</title>
<path fill="none" stroke="red" stroke-width="0.57" d="M1116.07,-153.99C1108.51,-145.59 1096.26,-131.98 1085.36,-119.88"/>
<polygon fill="red" stroke="red" stroke-width="0.57" points="1087.75,-117.3 1078.45,-112.21 1082.54,-121.98 1087.75,-117.3"/>
</g>
<!-- &#45;4&#45;&gt;334 -->
<g id="edge39" class="edge">
<title>&#45;4&#45;&gt;334</title>
<path fill="none" stroke="green" stroke-width="0.53" d="M1124.02,-153.99C1124.6,-147.43 1125.46,-137.7 1126.32,-127.98"/>
<polygon fill="green" stroke="green" stroke-width="0.53" points="1129.81,-128.27 1127.21,-118 1122.84,-127.65 1129.81,-128.27"/>
</g>
<!-- &#45;4&#45;&gt;335 -->
<g id="edge40" class="edge">
<title>&#45;4&#45;&gt;335</title>
<path fill="none" stroke="red" stroke-width="0.78" d="M1131.97,-153.99C1141.5,-145.14 1157.28,-130.5 1170.82,-117.93"/>
<polygon fill="red" stroke="red" stroke-width="0.78" points="1173.52,-120.2 1178.47,-110.83 1168.76,-115.07 1173.52,-120.2"/>
</g>
<!-- &#45;5 -->
<g id="node5" class="node">
<title>&#45;5</title>
<polygon fill="lightgray" stroke="black" points="1081.31,-172.02 1055.31,-172.02 1055.31,-154.02 1081.31,-154.02 1081.31,-172.02"/>
<text text-anchor="middle" x="1068.31" y="-160.82" font-family="Times-Roman" font-size="9.00">&#45;5</text>
</g>
<!-- &#45;5&#45;&gt;0 -->
<g id="edge144" class="edge">
<title>&#45;5&#45;&gt;0</title>
<path fill="none" stroke="red" stroke-width="0.2" d="M1081.39,-158.39C1087.41,-156.83 1094.68,-155.13 1101.31,-154.02 1144.35,-146.87 1462.91,-150.26 1492.31,-118.02 1507.13,-101.77 1506.97,-84.93 1492.31,-68.53 1444.46,-15.02 1241.6,-47.07 1171.31,-32.53 1163.03,-30.81 1154.15,-28.33 1146.21,-25.85"/>
<polygon fill="red" stroke="red" stroke-width="0.2" points="1147.03,-22.44 1136.44,-22.68 1144.87,-29.1 1147.03,-22.44"/>
</g>
<!-- &#45;5&#45;&gt;1 -->
<g id="edge145" class="edge">
<title>&#45;5&#45;&gt;1</title>
<path fill="none" stroke="red" stroke-width="0.24" d="M1081.41,-158.52C1087.44,-157 1094.71,-155.27 1101.31,-154.02 1159.27,-143.06 1325.53,-162.47 1364.31,-118.02 1378.77,-101.45 1378.98,-84.92 1364.31,-68.53 1316.15,-14.7 1112.68,-43.56 1041.31,-32.53 1024.19,-29.88 1005.08,-26.1 990.18,-22.96"/>
<polygon fill="red" stroke="red" stroke-width="0.24" points="990.68,-19.49 980.17,-20.82 989.21,-26.33 990.68,-19.49"/>
</g>
<!-- &#45;5&#45;&gt;2 -->
<g id="edge146" class="edge">
<title>&#45;5&#45;&gt;2</title>
<path fill="none" stroke="red" stroke-width="0.17" d="M1081.37,-158.32C1087.4,-156.75 1094.67,-155.05 1101.31,-154.02 1158.99,-145.12 1585.48,-160.68 1625.31,-118.02 1640.32,-101.94 1639.91,-84.98 1625.31,-68.53 1598.45,-38.27 1312.16,-22.6 1222.8,-18.42"/>
<polygon fill="red" stroke="red" stroke-width="0.17" points="1222.83,-14.92 1212.68,-17.96 1222.51,-21.91 1222.83,-14.92"/>
</g>
<!-- &#45;5&#45;&gt;3 -->
<g id="edge147" class="edge">
<title>&#45;5&#45;&gt;3</title>
<path fill="none" stroke="red" stroke-width="0.32" d="M1055.07,-160.54C1039.56,-158.83 1013.09,-156 990.31,-154.02 934.27,-149.15 523.65,-159.19 485.31,-118.02 403.97,-30.68 673.74,-18.98 761.59,-17.47"/>
<polygon fill="red" stroke="red" stroke-width="0.32" points="761.87,-20.97 771.82,-17.33 761.77,-13.97 761.87,-20.97"/>
</g>
<!-- &#45;5&#45;&gt;4 -->
<g id="edge148" class="edge">
<title>&#45;5&#45;&gt;4</title>
<path fill="none" stroke="red" stroke-width="0.39" d="M1055.07,-160.55C1039.56,-158.85 1013.09,-156.03 990.31,-154.02 935.93,-149.24 537.47,-158.02 500.31,-118.02 485.33,-101.91 485.67,-84.95 500.31,-68.53 546.9,-16.27 746.27,-52.72 813.31,-32.53 815.76,-31.79 818.24,-30.86 820.69,-29.82"/>
<polygon fill="red" stroke="red" stroke-width="0.39" points="822.21,-32.97 829.7,-25.48 819.17,-26.67 822.21,-32.97"/>
</g>
<!-- &#45;5&#45;&gt;5 -->
<g id="edge149" class="edge">
<title>&#45;5&#45;&gt;5</title>
<path fill="none" stroke="red" stroke-width="0.22" d="M1081.39,-158.4C1087.41,-156.85 1094.68,-155.14 1101.31,-154.02 1183.2,-140.21 1417.48,-179.52 1473.31,-118.02 1488.1,-101.74 1488.11,-84.81 1473.31,-68.53 1416.7,-6.25 1177.12,-56.02 1096.31,-32.53 1093.85,-31.81 1091.36,-30.9 1088.92,-29.87"/>
<polygon fill="red" stroke="red" stroke-width="0.22" points="1090.43,-26.71 1079.9,-25.54 1087.4,-33.02 1090.43,-26.71"/>
</g>
<!-- &#45;5&#45;&gt;326 -->
<g id="edge41" class="edge">
<title>&#45;5&#45;&gt;326</title>
<path fill="none" stroke="red" stroke-width="0.35" d="M1081.55,-158.72C1117.76,-149.64 1216.59,-124.56 1230.31,-118.02 1232.13,-117.16 1233.95,-116.19 1235.75,-115.16"/>
<polygon fill="red" stroke="red" stroke-width="0.35" points="1237.95,-117.9 1244.49,-109.57 1234.18,-112.01 1237.95,-117.9"/>
</g>
<!-- &#45;5&#45;&gt;327 -->
<g id="edge42" class="edge">
<title>&#45;5&#45;&gt;327</title>
<path fill="none" stroke="red" stroke-width="0.37" d="M1081.44,-158.66C1087.47,-157.16 1094.74,-155.42 1101.31,-154.02 1187.94,-135.58 1215.83,-152.74 1297.31,-118.02 1299.16,-117.24 1301.01,-116.33 1302.83,-115.34"/>
<polygon fill="red" stroke="red" stroke-width="0.37" points="1304.98,-118.12 1311.63,-109.87 1301.29,-112.18 1304.98,-118.12"/>
</g>
<!-- &#45;5&#45;&gt;328 -->
<g id="edge43" class="edge">
<title>&#45;5&#45;&gt;328</title>
<path fill="none" stroke="red" stroke-width="0.11" d="M1055.11,-160.52C1002.83,-154.52 810.17,-131.92 750.31,-118.02 737.29,-115 723.27,-110.64 711.09,-106.48"/>
<polygon fill="red" stroke="red" stroke-width="0.11" points="711.95,-103.07 701.35,-103.06 709.63,-109.67 711.95,-103.07"/>
</g>
<!-- &#45;5&#45;&gt;329 -->
<g id="edge44" class="edge">
<title>&#45;5&#45;&gt;329</title>
<path fill="none" stroke="green" stroke-width="0.13" d="M1055.07,-160.6C1039.55,-158.95 1013.08,-156.17 990.31,-154.02 805.11,-136.53 750.09,-175.93 573.31,-118.02 569.79,-116.87 566.25,-115.35 562.82,-113.63"/>
<polygon fill="green" stroke="green" stroke-width="0.13" points="564.52,-110.57 554.09,-108.73 561.1,-116.67 564.52,-110.57"/>
</g>
<!-- &#45;5&#45;&gt;330 -->
<g id="edge45" class="edge">
<title>&#45;5&#45;&gt;330</title>
<path fill="none" stroke="green" stroke-width="0.42" d="M1055.07,-160.5C1009.76,-155.14 861.34,-136.57 817.31,-118.02 815.46,-117.24 813.61,-116.34 811.78,-115.36"/>
<polygon fill="green" stroke="green" stroke-width="0.42" points="813.32,-112.19 802.98,-109.9 809.63,-118.14 813.32,-112.19"/>
</g>
<!-- &#45;5&#45;&gt;331 -->
<g id="edge46" class="edge">
<title>&#45;5&#45;&gt;331</title>
<path fill="none" stroke="red" stroke-width="0.2" d="M1055.25,-160.66C1024.32,-157.07 944.64,-145.64 884.31,-118.02 882.48,-117.19 880.65,-116.24 878.84,-115.22"/>
<polygon fill="red" stroke="red" stroke-width="0.2" points="880.4,-112.07 870.08,-109.68 876.65,-117.98 880.4,-112.07"/>
</g>
<!-- &#45;5&#45;&gt;332 -->
<g id="edge47" class="edge">
<title>&#45;5&#45;&gt;332</title>
<path fill="none" stroke="red" stroke-width="0.32" d="M1055.01,-157.58C1033.86,-150.32 991.45,-135.03 957.31,-118.02 953.99,-116.37 950.59,-114.53 947.23,-112.63"/>
<polygon fill="red" stroke="red" stroke-width="0.32" points="948.97,-109.59 938.58,-107.52 945.41,-115.62 948.97,-109.59"/>
</g>
<!-- &#45;5&#45;&gt;333 -->
<g id="edge48" class="edge">
<title>&#45;5&#45;&gt;333</title>
<path fill="none" stroke="red" stroke-width="0.31" d="M1067.6,-153.99C1067.02,-147.43 1066.15,-137.7 1065.29,-127.98"/>
<polygon fill="red" stroke="red" stroke-width="0.31" points="1068.78,-127.65 1064.41,-118 1061.81,-128.27 1068.78,-127.65"/>
</g>
<!-- &#45;5&#45;&gt;334 -->
<g id="edge49" class="edge">
<title>&#45;5&#45;&gt;334</title>
<path fill="none" stroke="red" stroke-width="0.49" d="M1075.55,-153.99C1083.11,-145.59 1095.36,-131.98 1106.26,-119.88"/>
<polygon fill="red" stroke="red" stroke-width="0.49" points="1109.07,-121.98 1113.16,-112.21 1103.87,-117.3 1109.07,-121.98"/>
</g>
<!-- &#45;5&#45;&gt;335 -->
<g id="edge50" class="edge">
<title>&#45;5&#45;&gt;335</title>
<path fill="none" stroke="green" stroke-width="0.73" stroke-dasharray="1,5" d="M1081.61,-156.8C1100.36,-149.24 1135.37,-134.35 1163.31,-118.02 1165,-117.04 1166.71,-115.98 1168.42,-114.89"/>
<polygon fill="green" stroke="green" stroke-width="0.73" points="1170.49,-117.72 1176.83,-109.22 1166.58,-111.91 1170.49,-117.72"/>
</g>
<!-- &#45;6 -->
<g id="node6" class="node">
<title>&#45;6</title>
<polygon fill="lightgray" stroke="black" points="803.31,-172.02 777.31,-172.02 777.31,-154.02 803.31,-154.02 803.31,-172.02"/>
<text text-anchor="middle" x="790.31" y="-160.82" font-family="Times-Roman" font-size="9.00">&#45;6</text>
</g>
<!-- &#45;6&#45;&gt;0 -->
<g id="edge150" class="edge">
<title>&#45;6&#45;&gt;0</title>
<path fill="none" stroke="red" stroke-width="0.69" d="M776.94,-162.73C747.24,-163.47 675.89,-160.52 644.31,-118.02 631.19,-100.37 629.39,-84.69 644.31,-68.53 678.1,-31.91 1043.36,-46.08 1091.31,-32.53 1093.68,-31.86 1096.09,-30.99 1098.45,-30.02"/>
<polygon fill="red" stroke="red" stroke-width="0.69" points="1100.21,-33.05 1107.73,-25.59 1097.2,-26.74 1100.21,-33.05"/>
</g>
<!-- &#45;6&#45;&gt;1 -->
<g id="edge151" class="edge">
<title>&#45;6&#45;&gt;1</title>
<path fill="none" stroke="green" stroke-width="0.33" d="M777.01,-161.39C715.35,-158.34 459.37,-144.13 436.31,-118.02 421.74,-101.54 421.41,-84.72 436.31,-68.53 468.92,-33.08 820.49,-38.31 868.31,-32.53 892.09,-29.65 919.01,-25.27 938.28,-21.94"/>
<polygon fill="green" stroke="green" stroke-width="0.33" points="939.15,-25.34 948.39,-20.17 937.94,-18.45 939.15,-25.34"/>
</g>
<!-- &#45;6&#45;&gt;2 -->
<g id="edge152" class="edge">
<title>&#45;6&#45;&gt;2</title>
<path fill="none" stroke="red" stroke-width="0.93" d="M803.54,-158.68C839.7,-149.52 938.45,-124.24 952.31,-118.02 989.1,-101.54 991.78,-85.58 1028.31,-68.53 1077.99,-45.34 1093.87,-48.53 1146.31,-32.53 1154.4,-30.06 1163.22,-27.37 1171.17,-24.94"/>
<polygon fill="red" stroke="red" stroke-width="0.93" points="1172.45,-28.21 1180.99,-21.94 1170.41,-21.51 1172.45,-28.21"/>
</g>
<!-- &#45;6&#45;&gt;3 -->
<g id="edge153" class="edge">
<title>&#45;6&#45;&gt;3</title>
<path fill="none" stroke="red" stroke-width="0.15" d="M777.29,-161.79C677.63,-159.96 38.76,-147.07 11.31,-118.02 -3.8,-102.04 -3.73,-84.59 11.31,-68.53 63.6,-12.67 631.12,-15.52 761.65,-16.92"/>
<polygon fill="red" stroke="red" stroke-width="0.15" points="761.88,-20.42 771.92,-17.04 761.96,-13.42 761.88,-20.42"/>
</g>
<!-- &#45;6&#45;&gt;4 -->
<g id="edge154" class="edge">
<title>&#45;6&#45;&gt;4</title>
<path fill="none" stroke="green" stroke-width="0.27" d="M777.16,-162.2C687.77,-163.29 171.51,-167.39 125.31,-118.02 110.28,-101.96 110.17,-84.48 125.31,-68.53 178,-13 739.36,-52.31 813.31,-32.53 815.69,-31.89 818.1,-31.05 820.47,-30.09"/>
<polygon fill="green" stroke="green" stroke-width="0.27" points="822.22,-33.13 829.75,-25.68 819.22,-26.8 822.22,-33.13"/>
</g>
<!-- &#45;6&#45;&gt;5 -->
<g id="edge155" class="edge">
<title>&#45;6&#45;&gt;5</title>
<path fill="none" stroke="green" stroke-width="0.4" d="M777.07,-162.23C708.42,-162.91 399.26,-160.94 485.31,-68.53 523.57,-27.44 933.67,-40 989.31,-32.53 1006.48,-30.22 1025.59,-26.44 1040.47,-23.22"/>
<polygon fill="green" stroke="green" stroke-width="0.4" points="1041.47,-26.58 1050.48,-21 1039.96,-19.75 1041.47,-26.58"/>
</g>
<!-- &#45;6&#45;&gt;326 -->
<g id="edge51" class="edge">
<title>&#45;6&#45;&gt;326</title>
<path fill="none" stroke="green" stroke-width="0.18" d="M803.38,-158.38C809.41,-156.82 816.68,-155.12 823.31,-154.02 1002.5,-124.55 1060.1,-181.32 1230.31,-118.02 1232.19,-117.32 1234.07,-116.48 1235.91,-115.55"/>
<polygon fill="green" stroke="green" stroke-width="0.18" points="1238,-118.37 1244.77,-110.21 1234.39,-112.38 1238,-118.37"/>
</g>
<!-- &#45;6&#45;&gt;327 -->
<g id="edge52" class="edge">
<title>&#45;6&#45;&gt;327</title>
<path fill="none" stroke="red" stroke-width="0.26" d="M803.38,-158.34C809.4,-156.78 816.67,-155.07 823.31,-154.02 1031.99,-121.03 1098.83,-190.43 1297.31,-118.02 1299.2,-117.33 1301.08,-116.5 1302.92,-115.57"/>
<polygon fill="red" stroke="red" stroke-width="0.26" points="1305.01,-118.41 1311.78,-110.26 1301.41,-112.4 1305.01,-118.41"/>
</g>
<!-- &#45;6&#45;&gt;328 -->
<g id="edge53" class="edge">
<title>&#45;6&#45;&gt;328</title>
<path fill="none" stroke="green" stroke-width="0.33" d="M777.11,-154.09C762.48,-145.3 738.19,-130.68 717.31,-118.02 714.3,-116.2 711.17,-114.3 708.04,-112.4"/>
<polygon fill="green" stroke="green" stroke-width="0.33" points="709.71,-109.32 699.35,-107.11 706.07,-115.3 709.71,-109.32"/>
</g>
<!-- &#45;6&#45;&gt;329 -->
<g id="edge54" class="edge">
<title>&#45;6&#45;&gt;329</title>
<path fill="none" stroke="red" stroke-width="0.3" d="M777.15,-160.95C742.62,-157.8 647.04,-146.92 573.31,-118.02 569.86,-116.67 566.37,-115.02 562.97,-113.23"/>
<polygon fill="red" stroke="red" stroke-width="0.3" points="564.68,-110.17 554.26,-108.25 561.2,-116.25 564.68,-110.17"/>
</g>
<!-- &#45;6&#45;&gt;330 -->
<g id="edge55" class="edge">
<title>&#45;6&#45;&gt;330</title>
<path fill="none" stroke="red" stroke-width="0.24" d="M789.6,-153.99C789.02,-147.43 788.15,-137.7 787.29,-127.98"/>
<polygon fill="red" stroke="red" stroke-width="0.24" points="790.78,-127.65 786.41,-118 783.81,-128.27 790.78,-127.65"/>
</g>
<!-- &#45;6&#45;&gt;331 -->
<g id="edge56" class="edge">
<title>&#45;6&#45;&gt;331</title>
<path fill="none" stroke="red" stroke-width="0.17" d="M797.55,-153.99C805.11,-145.59 817.36,-131.98 828.26,-119.88"/>
<polygon fill="red" stroke="red" stroke-width="0.17" points="831.07,-121.98 835.16,-112.21 825.87,-117.3 831.07,-121.98"/>
</g>
<!-- &#45;6&#45;&gt;332 -->
<g id="edge57" class="edge">
<title>&#45;6&#45;&gt;332</title>
<path fill="none" stroke="red" stroke-width="0.13" d="M803.61,-156.8C822.36,-149.24 857.37,-134.35 885.31,-118.02 887,-117.04 888.71,-115.98 890.42,-114.89"/>
<polygon fill="red" stroke="red" stroke-width="0.13" points="892.49,-117.72 898.83,-109.22 888.58,-111.91 892.49,-117.72"/>
</g>
<!-- &#45;6&#45;&gt;333 -->
<g id="edge58" class="edge">
<title>&#45;6&#45;&gt;333</title>
<path fill="none" stroke="red" stroke-width="0.46" d="M803.44,-158.65C809.47,-157.15 816.73,-155.41 823.31,-154.02 911.68,-135.38 938.86,-150.05 1023.31,-118.02 1026.77,-116.71 1030.27,-115.08 1033.68,-113.3"/>
<polygon fill="red" stroke="red" stroke-width="0.46" points="1035.44,-116.33 1042.39,-108.34 1031.97,-110.25 1035.44,-116.33"/>
</g>
<!-- &#45;6&#45;&gt;334 -->
<g id="edge59" class="edge">
<title>&#45;6&#45;&gt;334</title>
<path fill="none" stroke="green" stroke-width="0.15" d="M803.41,-158.51C809.44,-156.98 816.7,-155.26 823.31,-154.02 943.62,-131.58 982.54,-163.13 1096.31,-118.02 1098.18,-117.28 1100.04,-116.41 1101.88,-115.45"/>
<polygon fill="green" stroke="green" stroke-width="0.15" points="1104,-118.26 1110.7,-110.06 1100.35,-112.28 1104,-118.26"/>
</g>
<!-- &#45;6&#45;&gt;335 -->
<g id="edge60" class="edge">
<title>&#45;6&#45;&gt;335</title>
<path fill="none" stroke="red" stroke-width="0.44" d="M803.39,-158.43C809.42,-156.88 816.69,-155.17 823.31,-154.02 973.03,-128.07 1021.34,-172.21 1163.31,-118.02 1165.19,-117.31 1167.06,-116.45 1168.9,-115.51"/>
<polygon fill="red" stroke="red" stroke-width="0.44" points="1171,-118.33 1177.74,-110.15 1167.37,-112.34 1171,-118.33"/>
</g>
<!-- 326&#45;&gt;0 -->
<g id="edge61" class="edge">
<title>326&#45;&gt;0</title>
<path fill="none" stroke="red" stroke-width="0.35" d="M1243.81,-77.35C1239.47,-74.28 1234.81,-71.18 1230.31,-68.53 1202.33,-52.07 1168.21,-36.72 1145.68,-27.19"/>
<polygon fill="red" stroke="red" stroke-width="0.35" points="1146.78,-23.86 1136.2,-23.24 1144.08,-30.32 1146.78,-23.86"/>
</g>
<!-- 326&#45;&gt;1 -->
<g id="edge62" class="edge">
<title>326&#45;&gt;1</title>
<path fill="none" stroke="green" stroke-width="0.48" d="M1244.62,-76.71C1240.15,-73.6 1235.24,-70.65 1230.31,-68.53 1151.75,-34.75 1125.25,-48.84 1041.31,-32.53 1024.3,-29.22 1005.19,-25.43 990.27,-22.46"/>
<polygon fill="green" stroke="green" stroke-width="0.48" points="990.72,-18.98 980.23,-20.46 989.35,-25.85 990.72,-18.98"/>
</g>
<!-- 326&#45;&gt;2 -->
<g id="edge63" class="edge">
<title>326&#45;&gt;2</title>
<path fill="none" stroke="green" stroke-width="0.48" d="M1247.09,-74.12C1236.99,-62.81 1224.01,-48.28 1213.7,-36.74"/>
<polygon fill="green" stroke="green" stroke-width="0.48" points="1216.02,-34.07 1206.75,-28.95 1210.8,-38.74 1216.02,-34.07"/>
</g>
<!-- 326&#45;&gt;3 -->
<g id="edge64" class="edge">
<title>326&#45;&gt;3</title>
<path fill="none" stroke="green" stroke-width="0.11" d="M1244.77,-76.33C1240.29,-73.25 1235.34,-70.39 1230.31,-68.53 1057.99,-4.55 995.02,-83.13 818.31,-32.53 815.85,-31.82 813.36,-30.91 810.91,-29.89"/>
<polygon fill="green" stroke="green" stroke-width="0.11" points="812.42,-26.73 801.89,-25.57 809.4,-33.05 812.42,-26.73"/>
</g>
<!-- 326&#45;&gt;4 -->
<g id="edge65" class="edge">
<title>326&#45;&gt;4</title>
<path fill="none" stroke="green" stroke-width="0.29" d="M1244.72,-76.47C1240.24,-73.37 1235.3,-70.48 1230.31,-68.53 1108.97,-20.98 1068.35,-50.76 939.31,-32.53 915.59,-29.18 888.66,-24.85 869.38,-21.66"/>
<polygon fill="green" stroke="green" stroke-width="0.29" points="869.69,-18.16 859.25,-19.97 868.54,-25.07 869.69,-18.16"/>
</g>
<!-- 326&#45;&gt;5 -->
<g id="edge66" class="edge">
<title>326&#45;&gt;5</title>
<path fill="none" stroke="green" stroke-width="0.36" d="M1244.5,-76.97C1240.03,-73.85 1235.16,-70.83 1230.31,-68.53 1174.6,-42.09 1153.88,-54.63 1096.31,-32.53 1093.92,-31.61 1091.48,-30.56 1089.06,-29.45"/>
<polygon fill="green" stroke="green" stroke-width="0.36" points="1090.59,-26.31 1080.08,-25.03 1087.5,-32.59 1090.59,-26.31"/>
</g>
<!-- 327&#45;&gt;0 -->
<g id="edge67" class="edge">
<title>327&#45;&gt;0</title>
<path fill="none" stroke="red" stroke-width="0.47" d="M1311.47,-77.03C1307.01,-73.91 1302.14,-70.87 1297.31,-68.53 1244.89,-43.14 1227.16,-49.03 1171.31,-32.53 1163.2,-30.13 1154.37,-27.46 1146.42,-25.03"/>
<polygon fill="red" stroke="red" stroke-width="0.47" points="1147.19,-21.6 1136.61,-22.01 1145.14,-28.29 1147.19,-21.6"/>
</g>
<!-- 327&#45;&gt;1 -->
<g id="edge68" class="edge">
<title>327&#45;&gt;1</title>
<path fill="none" stroke="green" stroke-width="0.27" d="M1311.69,-76.53C1307.22,-73.43 1302.29,-70.53 1297.31,-68.53 1190.68,-25.72 1154.59,-51.7 1041.31,-32.53 1024.23,-29.63 1005.12,-25.85 990.21,-22.77"/>
<polygon fill="green" stroke="green" stroke-width="0.27" points="990.69,-19.3 980.19,-20.68 989.26,-26.15 990.69,-19.3"/>
</g>
<!-- 327&#45;&gt;2 -->
<g id="edge69" class="edge">
<title>327&#45;&gt;2</title>
<path fill="none" stroke="red" stroke-width="0.32" d="M1310.75,-77.45C1306.41,-74.37 1301.77,-71.24 1297.31,-68.53 1271.79,-52.99 1240.98,-37.84 1220.16,-28.09"/>
<polygon fill="red" stroke="red" stroke-width="0.32" points="1221.62,-24.91 1211.07,-23.88 1218.68,-31.26 1221.62,-24.91"/>
</g>
<!-- 327&#45;&gt;3 -->
<g id="edge70" class="edge">
<title>327&#45;&gt;3</title>
<path fill="none" stroke="red" stroke-width="0.29" d="M1311.78,-76.29C1307.31,-73.2 1302.35,-70.36 1297.31,-68.53 1096.72,4.56 1023.9,-90.05 818.31,-32.53 815.94,-31.86 813.53,-31 811.17,-30.03"/>
<polygon fill="red" stroke="red" stroke-width="0.29" points="812.42,-26.75 801.88,-25.61 809.4,-33.07 812.42,-26.75"/>
</g>
<!-- 327&#45;&gt;4 -->
<g id="edge71" class="edge">
<title>327&#45;&gt;4</title>
<path fill="none" stroke="green" stroke-width="0.12" d="M1311.75,-76.38C1307.27,-73.29 1302.33,-70.43 1297.31,-68.53 1147.76,-11.89 1097.9,-53.09 939.31,-32.53 915.56,-29.45 888.63,-25.09 869.35,-21.82"/>
<polygon fill="green" stroke="green" stroke-width="0.12" points="869.68,-18.32 859.24,-20.08 868.5,-25.22 869.68,-18.32"/>
</g>
<!-- 327&#45;&gt;5 -->
<g id="edge72" class="edge">
<title>327&#45;&gt;5</title>
<path fill="none" stroke="red" stroke-width="0.21" d="M1311.63,-76.67C1307.16,-73.56 1302.25,-70.62 1297.31,-68.53 1213.74,-33.14 1182.34,-61.41 1096.31,-32.53 1093.89,-31.71 1091.41,-30.73 1088.98,-29.66"/>
<polygon fill="red" stroke="red" stroke-width="0.21" points="1090.51,-26.51 1079.98,-25.29 1087.44,-32.81 1090.51,-26.51"/>
</g>
<!-- 328&#45;&gt;0 -->
<g id="edge73" class="edge">
<title>328&#45;&gt;0</title>
<path fill="none" stroke="red" stroke-width="0.37" d="M698.1,-77.86C704.01,-74.23 710.69,-70.73 717.31,-68.53 875.75,-15.77 930.98,-79.21 1091.31,-32.53 1093.76,-31.81 1096.26,-30.9 1098.7,-29.87"/>
<polygon fill="red" stroke="red" stroke-width="0.37" points="1100.22,-33.02 1107.72,-25.54 1097.19,-26.71 1100.22,-33.02"/>
</g>
<!-- 328&#45;&gt;1 -->
<g id="edge74" class="edge">
<title>328&#45;&gt;1</title>
<path fill="none" stroke="red" stroke-width="0.35" d="M698.27,-78.32C704.18,-74.69 710.82,-71.09 717.31,-68.53 757.7,-52.59 883.7,-30.59 938.46,-21.48"/>
<polygon fill="red" stroke="red" stroke-width="0.35" points="939.12,-24.91 948.42,-19.83 937.98,-18.01 939.12,-24.91"/>
</g>
<!-- 328&#45;&gt;2 -->
<g id="edge75" class="edge">
<title>328&#45;&gt;2</title>
<path fill="none" stroke="red" stroke-width="0.53" d="M701.29,-83.21C715.25,-78.07 733.56,-72 750.31,-68.53 923.35,-32.61 972.88,-66.51 1146.31,-32.53 1154.61,-30.9 1163.49,-28.44 1171.43,-25.96"/>
<polygon fill="red" stroke="red" stroke-width="0.53" points="1172.78,-29.2 1181.2,-22.77 1170.6,-22.55 1172.78,-29.2"/>
</g>
<!-- 328&#45;&gt;3 -->
<g id="edge76" class="edge">
<title>328&#45;&gt;3</title>
<path fill="none" stroke="green" stroke-width="0.32" d="M698.48,-78.52C717.85,-65.31 746.99,-45.44 766.79,-31.94"/>
<polygon fill="green" stroke="green" stroke-width="0.32" points="768.87,-34.75 775.16,-26.23 764.93,-28.97 768.87,-34.75"/>
</g>
<!-- 328&#45;&gt;4 -->
<g id="edge77" class="edge">
<title>328&#45;&gt;4</title>
<path fill="none" stroke="red" stroke-width="0.12" d="M698.55,-78.96C704.47,-75.34 711.04,-71.58 717.31,-68.53 758.28,-48.59 771.6,-50.89 813.31,-32.53 815.65,-31.5 818.07,-30.37 820.46,-29.22"/>
<polygon fill="red" stroke="red" stroke-width="0.12" points="822.05,-32.34 829.42,-24.74 818.91,-26.08 822.05,-32.34"/>
</g>
<!-- 328&#45;&gt;5 -->
<g id="edge78" class="edge">
<title>328&#45;&gt;5</title>
<path fill="none" stroke="red" stroke-width="0.66" d="M698.15,-78.02C704.07,-74.38 710.73,-70.85 717.31,-68.53 832.3,-27.94 869,-52.39 989.31,-32.53 1006.4,-29.7 1025.51,-25.92 1040.42,-22.83"/>
<polygon fill="red" stroke="red" stroke-width="0.66" points="1041.37,-26.2 1050.44,-20.72 1039.93,-19.35 1041.37,-26.2"/>
</g>
<!-- 329&#45;&gt;0 -->
<g id="edge79" class="edge">
<title>329&#45;&gt;0</title>
<path fill="none" stroke="green" stroke-width="0.72" d="M557.22,-83.73C572.35,-78.45 592.75,-72.04 611.31,-68.53 821.51,-28.75 885.29,-90.16 1091.31,-32.53 1093.68,-31.86 1096.09,-31 1098.45,-30.03"/>
<polygon fill="green" stroke="green" stroke-width="0.72" points="1100.21,-33.07 1107.74,-25.61 1097.2,-26.75 1100.21,-33.07"/>
</g>
<!-- 329&#45;&gt;1 -->
<g id="edge80" class="edge">
<title>329&#45;&gt;1</title>
<path fill="none" stroke="green" stroke-width="0.51" d="M557.64,-84.01C572.77,-78.92 593.01,-72.6 611.31,-68.53 723.89,-43.45 754.24,-49.58 868.31,-32.53 892,-28.98 918.93,-24.68 938.23,-21.54"/>
<polygon fill="green" stroke="green" stroke-width="0.51" points="939.05,-24.96 948.36,-19.89 937.92,-18.05 939.05,-24.96"/>
</g>
<!-- 329&#45;&gt;3 -->
<g id="edge81" class="edge">
<title>329&#45;&gt;3</title>
<path fill="none" stroke="red" stroke-width="0.13" d="M554.32,-78.45C560.23,-74.82 566.86,-71.18 573.31,-68.53 638.46,-41.71 720.74,-26.99 762.07,-20.81"/>
<polygon fill="red" stroke="red" stroke-width="0.13" points="762.74,-24.25 772.13,-19.36 761.74,-17.32 762.74,-24.25"/>
</g>
<!-- 329&#45;&gt;4 -->
<g id="edge82" class="edge">
<title>329&#45;&gt;4</title>
<path fill="none" stroke="green" stroke-width="0.32" d="M554.18,-78.09C560.09,-74.45 566.75,-70.91 573.31,-68.53 674.71,-31.75 710.58,-65.41 813.31,-32.53 815.74,-31.75 818.22,-30.79 820.66,-29.73"/>
<polygon fill="green" stroke="green" stroke-width="0.32" points="822.19,-32.88 829.67,-25.37 819.14,-26.58 822.19,-32.88"/>
</g>
<!-- 329&#45;&gt;5 -->
<g id="edge83" class="edge">
<title>329&#45;&gt;5</title>
<path fill="none" stroke="red" stroke-width="0.1" d="M557.24,-83.85C572.39,-78.63 592.79,-72.22 611.31,-68.53 776.8,-35.49 822.33,-56.97 989.31,-32.53 1006.45,-30.02 1025.56,-26.24 1040.45,-23.06"/>
<polygon fill="red" stroke="red" stroke-width="0.1" points="1041.43,-26.43 1050.46,-20.89 1039.95,-19.59 1041.43,-26.43"/>
</g>
<!-- 330&#45;&gt;0 -->
<g id="edge84" class="edge">
<title>330&#45;&gt;0</title>
<path fill="none" stroke="green" stroke-width="0.44" d="M802.91,-76.49C807.39,-73.4 812.32,-70.5 817.31,-68.53 931.5,-23.29 973.99,-68.9 1091.31,-32.53 1093.75,-31.77 1096.23,-30.83 1098.67,-29.78"/>
<polygon fill="green" stroke="green" stroke-width="0.44" points="1100.2,-32.93 1107.68,-25.43 1097.16,-26.63 1100.2,-32.93"/>
</g>
<!-- 330&#45;&gt;1 -->
<g id="edge85" class="edge">
<title>330&#45;&gt;1</title>
<path fill="none" stroke="red" stroke-width="0.8" d="M803.25,-77.24C807.71,-74.1 812.55,-71 817.31,-68.53 857.85,-47.44 908.96,-31.85 938.99,-23.69"/>
<polygon fill="red" stroke="red" stroke-width="0.8" points="939.92,-27.06 948.69,-21.12 938.12,-20.3 939.92,-27.06"/>
</g>
<!-- 330&#45;&gt;2 -->
<g id="edge86" class="edge">
<title>330&#45;&gt;2</title>
<path fill="none" stroke="green" stroke-width="0.58" d="M802.88,-76.41C807.36,-73.32 812.3,-70.45 817.31,-68.53 954.64,-15.83 1002.22,-62.13 1146.31,-32.53 1154.59,-30.83 1163.47,-28.34 1171.41,-25.87"/>
<polygon fill="green" stroke="green" stroke-width="0.58" points="1172.75,-29.11 1181.18,-22.69 1170.59,-22.45 1172.75,-29.11"/>
</g>
<!-- 330&#45;&gt;3 -->
<g id="edge87" class="edge">
<title>330&#45;&gt;3</title>
<path fill="none" stroke="red" stroke-width="0.28" d="M785.57,-68.54C786.01,-60.42 786.49,-51.31 786.93,-43.04"/>
<polygon fill="red" stroke="red" stroke-width="0.28" points="790.44,-42.98 787.48,-32.81 783.45,-42.61 790.44,-42.98"/>
</g>
<!-- 330&#45;&gt;4 -->
<g id="edge88" class="edge">
<title>330&#45;&gt;4</title>
<path fill="none" stroke="red" stroke-width="0.13" d="M799.2,-73.35C807.79,-62.42 818.6,-48.67 827.37,-37.53"/>
<polygon fill="red" stroke="red" stroke-width="0.13" points="830.18,-39.62 833.61,-29.6 824.67,-35.29 830.18,-39.62"/>
</g>
<!-- 330&#45;&gt;5 -->
<g id="edge89" class="edge">
<title>330&#45;&gt;5</title>
<path fill="none" stroke="red" stroke-width="0.48" d="M803.02,-76.76C807.49,-73.65 812.4,-70.68 817.31,-68.53 822.47,-66.26 977.81,-35 1040.47,-22.44"/>
<polygon fill="red" stroke="red" stroke-width="0.48" points="1041.25,-25.85 1050.37,-20.45 1039.88,-18.98 1041.25,-25.85"/>
</g>
<!-- 331&#45;&gt;0 -->
<g id="edge90" class="edge">
<title>331&#45;&gt;0</title>
<path fill="none" stroke="green" stroke-width="0.25" d="M869.98,-76.65C874.45,-73.54 879.36,-70.61 884.31,-68.53 970.39,-32.34 1002.71,-62.03 1091.31,-32.53 1093.73,-31.72 1096.21,-30.74 1098.64,-29.68"/>
<polygon fill="green" stroke="green" stroke-width="0.25" points="1100.18,-32.82 1107.64,-25.3 1097.12,-26.52 1100.18,-32.82"/>
</g>
<!-- 331&#45;&gt;1 -->
<g id="edge91" class="edge">
<title>331&#45;&gt;1</title>
<path fill="none" stroke="red" stroke-width="0.78" d="M871.08,-77.78C875.41,-74.69 879.99,-71.46 884.31,-68.53 903.58,-55.43 925.95,-41.18 942.12,-31.03"/>
<polygon fill="red" stroke="red" stroke-width="0.78" points="944.23,-33.84 950.86,-25.57 940.52,-27.9 944.23,-33.84"/>
</g>
<!-- 331&#45;&gt;2 -->
<g id="edge92" class="edge">
<title>331&#45;&gt;2</title>
<path fill="none" stroke="red" stroke-width="0.2" d="M869.92,-76.52C874.4,-73.42 879.33,-70.52 884.31,-68.53 993.46,-24.91 1031.51,-57.77 1146.31,-32.53 1154.57,-30.71 1163.44,-28.2 1171.38,-25.73"/>
<polygon fill="red" stroke="red" stroke-width="0.2" points="1172.71,-28.98 1181.16,-22.58 1170.57,-22.31 1172.71,-28.98"/>
</g>
<!-- 331&#45;&gt;3 -->
<g id="edge93" class="edge">
<title>331&#45;&gt;3</title>
<path fill="none" stroke="red" stroke-width="0.33" d="M835.74,-73.73C826.35,-62.56 814.41,-48.34 804.86,-36.97"/>
<polygon fill="red" stroke="red" stroke-width="0.33" points="807.51,-34.68 798.4,-29.27 802.15,-39.18 807.51,-34.68"/>
</g>
<!-- 331&#45;&gt;4 -->
<g id="edge94" class="edge">
<title>331&#45;&gt;4</title>
<path fill="none" stroke="red" stroke-width="0.26" d="M848.78,-68.54C847.9,-60.33 846.92,-51.1 846.03,-42.76"/>
<polygon fill="red" stroke="red" stroke-width="0.26" points="849.51,-42.38 844.97,-32.81 842.55,-43.12 849.51,-42.38"/>
</g>
<!-- 331&#45;&gt;5 -->
<g id="edge95" class="edge">
<title>331&#45;&gt;5</title>
<path fill="none" stroke="green" stroke-width="0.25" d="M870.14,-77.02C874.61,-73.9 879.48,-70.86 884.31,-68.53 936.7,-43.27 1003.75,-28.42 1040.07,-21.67"/>
<polygon fill="green" stroke="green" stroke-width="0.25" points="1041.08,-25.04 1050.31,-19.83 1039.84,-18.15 1041.08,-25.04"/>
</g>
<!-- 332&#45;&gt;0 -->
<g id="edge96" class="edge">
<title>332&#45;&gt;0</title>
<path fill="none" stroke="green" stroke-width="0.2" d="M941.92,-85.26C975.59,-75 1039.1,-54.7 1091.31,-32.53 1093.66,-31.53 1096.09,-30.42 1098.49,-29.28"/>
<polygon fill="green" stroke="green" stroke-width="0.2" points="1100.07,-32.41 1107.46,-24.81 1096.95,-26.14 1100.07,-32.41"/>
</g>
<!-- 332&#45;&gt;1 -->
<g id="edge97" class="edge">
<title>332&#45;&gt;1</title>
<path fill="none" stroke="green" stroke-width="0.27" d="M930.88,-71.78C937.07,-61.68 944.54,-49.5 950.85,-39.21"/>
<polygon fill="green" stroke="green" stroke-width="0.27" points="954,-40.77 956.24,-30.42 948.03,-37.11 954,-40.77"/>
</g>
<!-- 332&#45;&gt;2 -->
<g id="edge98" class="edge">
<title>332&#45;&gt;2</title>
<path fill="none" stroke="green" stroke-width="0.37" d="M941.78,-84.6C956.98,-79.74 977.23,-73.47 995.31,-68.53 1061.86,-50.35 1079.73,-50.61 1146.31,-32.53 1154.47,-30.31 1163.31,-27.69 1171.26,-25.24"/>
<polygon fill="green" stroke="green" stroke-width="0.37" points="1172.56,-28.51 1181.06,-22.19 1170.47,-21.82 1172.56,-28.51"/>
</g>
<!-- 332&#45;&gt;3 -->
<g id="edge99" class="edge">
<title>332&#45;&gt;3</title>
<path fill="none" stroke="red" stroke-width="0.46" d="M898.72,-77.51C894.38,-74.42 889.75,-71.28 885.31,-68.53 872.02,-60.29 835.87,-41.53 811.65,-29.13"/>
<polygon fill="red" stroke="red" stroke-width="0.46" points="813.22,-26 802.72,-24.57 810.04,-32.24 813.22,-26"/>
</g>
<!-- 332&#45;&gt;4 -->
<g id="edge100" class="edge">
<title>332&#45;&gt;4</title>
<path fill="none" stroke="red" stroke-width="0.24" d="M901.29,-75.25C889.52,-63.48 873.87,-47.83 861.79,-35.75"/>
<polygon fill="red" stroke="red" stroke-width="0.24" points="863.99,-33 854.45,-28.4 859.04,-37.95 863.99,-33"/>
</g>
<!-- 332&#45;&gt;5 -->
<g id="edge101" class="edge">
<title>332&#45;&gt;5</title>
<path fill="none" stroke="red" stroke-width="0.14" d="M940.15,-81.21C967.62,-67.28 1014.62,-43.46 1042.84,-29.16"/>
<polygon fill="red" stroke="red" stroke-width="0.14" points="1044.64,-32.17 1051.98,-24.53 1041.48,-25.93 1044.64,-32.17"/>
</g>
<!-- 333&#45;&gt;0 -->
<g id="edge102" class="edge">
<title>333&#45;&gt;0</title>
<path fill="none" stroke="red" stroke-width="0.38" d="M1077.2,-73.35C1085.79,-62.42 1096.6,-48.67 1105.37,-37.53"/>
<polygon fill="red" stroke="red" stroke-width="0.38" points="1108.18,-39.62 1111.61,-29.6 1102.67,-35.29 1108.18,-39.62"/>
</g>
<!-- 333&#45;&gt;1 -->
<g id="edge103" class="edge">
<title>333&#45;&gt;1</title>
<path fill="none" stroke="green" stroke-width="0.86" d="M1042.95,-77.46C1026.23,-64.66 1002.13,-46.21 985.03,-33.12"/>
<polygon fill="green" stroke="green" stroke-width="0.86" points="986.86,-30.12 976.8,-26.82 982.61,-35.68 986.86,-30.12"/>
</g>
<!-- 333&#45;&gt;2 -->
<g id="edge104" class="edge">
<title>333&#45;&gt;2</title>
<path fill="none" stroke="green" stroke-width="0.46" d="M1081.87,-77.45C1086.21,-74.37 1090.85,-71.24 1095.31,-68.53 1120.83,-52.99 1151.64,-37.84 1172.46,-28.09"/>
<polygon fill="green" stroke="green" stroke-width="0.46" points="1173.94,-31.26 1181.55,-23.88 1171,-24.91 1173.94,-31.26"/>
</g>
<!-- 333&#45;&gt;3 -->
<g id="edge105" class="edge">
<title>333&#45;&gt;3</title>
<path fill="none" stroke="red" stroke-width="0.1" d="M1038.87,-84.47C1023.69,-79.55 1003.45,-73.27 985.31,-68.53 911.85,-49.32 889.85,-57.95 818.31,-32.53 815.9,-31.67 813.44,-30.66 811.01,-29.58"/>
<polygon fill="red" stroke="red" stroke-width="0.1" points="812.54,-26.43 802.02,-25.18 809.47,-32.72 812.54,-26.43"/>
</g>
<!-- 333&#45;&gt;4 -->
<g id="edge106" class="edge">
<title>333&#45;&gt;4</title>
<path fill="none" stroke="green" stroke-width="0.5" d="M1038.87,-84.25C997.18,-69.97 910.52,-40.28 867.97,-25.71"/>
<polygon fill="green" stroke="green" stroke-width="0.5" points="868.98,-22.36 858.39,-22.43 866.72,-28.98 868.98,-22.36"/>
</g>
<!-- 333&#45;&gt;5 -->
<g id="edge107" class="edge">
<title>333&#45;&gt;5</title>
<path fill="none" stroke="green" stroke-width="0.57" d="M1063.57,-68.54C1064.01,-60.42 1064.49,-51.31 1064.93,-43.04"/>
<polygon fill="green" stroke="green" stroke-width="0.57" points="1068.44,-42.98 1065.48,-32.81 1061.45,-42.61 1068.44,-42.98"/>
</g>
<!-- 334&#45;&gt;0 -->
<g id="edge108" class="edge">
<title>334&#45;&gt;0</title>
<path fill="none" stroke="green" stroke-width="0.43" d="M1126.78,-68.54C1125.9,-60.33 1124.92,-51.1 1124.03,-42.76"/>
<polygon fill="green" stroke="green" stroke-width="0.43" points="1127.51,-42.38 1122.97,-32.81 1120.55,-43.12 1127.51,-42.38"/>
</g>
<!-- 334&#45;&gt;1 -->
<g id="edge109" class="edge">
<title>334&#45;&gt;1</title>
<path fill="none" stroke="red" stroke-width="0.13" d="M1110.3,-77.36C1105.85,-74.22 1101.02,-71.09 1096.31,-68.53 1061.02,-49.38 1017.03,-33.8 989.81,-25.03"/>
<polygon fill="red" stroke="red" stroke-width="0.13" points="990.5,-21.58 979.91,-21.9 988.39,-28.25 990.5,-21.58"/>
</g>
<!-- 334&#45;&gt;2 -->
<g id="edge110" class="edge">
<title>334&#45;&gt;2</title>
<path fill="none" stroke="red" stroke-width="0.21" d="M1145.53,-74.12C1155.63,-62.81 1168.61,-48.28 1178.92,-36.74"/>
<polygon fill="red" stroke="red" stroke-width="0.21" points="1181.82,-38.74 1185.87,-28.95 1176.6,-34.07 1181.82,-38.74"/>
</g>
<!-- 334&#45;&gt;3 -->
<g id="edge111" class="edge">
<title>334&#45;&gt;3</title>
<path fill="none" stroke="red" stroke-width="0.17" d="M1110.71,-76.49C1106.23,-73.39 1101.3,-70.5 1096.31,-68.53 980.44,-22.74 937.34,-69.31 818.31,-32.53 815.87,-31.77 813.38,-30.83 810.94,-29.79"/>
<polygon fill="red" stroke="red" stroke-width="0.17" points="812.46,-26.63 801.93,-25.44 809.42,-32.94 812.46,-26.63"/>
</g>
<!-- 334&#45;&gt;4 -->
<g id="edge112" class="edge">
<title>334&#45;&gt;4</title>
<path fill="none" stroke="green" stroke-width="0.41" d="M1110.6,-76.75C1106.13,-73.64 1101.23,-70.67 1096.31,-68.53 1075.53,-59.45 929.53,-32.69 869.25,-21.88"/>
<polygon fill="green" stroke="green" stroke-width="0.41" points="869.82,-18.43 859.36,-20.11 868.59,-25.32 869.82,-18.43"/>
</g>
<!-- 334&#45;&gt;5 -->
<g id="edge113" class="edge">
<title>334&#45;&gt;5</title>
<path fill="none" stroke="red" stroke-width="0.32" d="M1113.74,-73.73C1104.35,-62.56 1092.41,-48.34 1082.86,-36.97"/>
<polygon fill="red" stroke="red" stroke-width="0.32" points="1085.51,-34.68 1076.4,-29.27 1080.15,-39.18 1085.51,-34.68"/>
</g>
<!-- 335&#45;&gt;0 -->
<g id="edge114" class="edge">
<title>335&#45;&gt;0</title>
<path fill="none" stroke="green" stroke-width="0.24" d="M1179.29,-75.25C1167.52,-63.48 1151.87,-47.83 1139.79,-35.75"/>
<polygon fill="green" stroke="green" stroke-width="0.24" points="1141.99,-33 1132.45,-28.4 1137.04,-37.95 1141.99,-33"/>
</g>
<!-- 335&#45;&gt;1 -->
<g id="edge115" class="edge">
<title>335&#45;&gt;1</title>
<path fill="none" stroke="green" stroke-width="0.1" d="M1177.51,-76.94C1173.05,-73.82 1168.17,-70.8 1163.31,-68.53 1132.36,-54.03 1036.29,-32.52 989.89,-22.62"/>
<polygon fill="green" stroke="green" stroke-width="0.1" points="990.52,-19.17 980.01,-20.52 989.07,-26.02 990.52,-19.17"/>
</g>
<!-- 335&#45;&gt;2 -->
<g id="edge116" class="edge">
<title>335&#45;&gt;2</title>
<path fill="none" stroke="green" stroke-width="0.76" d="M1196.31,-68.13C1196.31,-60.03 1196.31,-50.97 1196.31,-42.77"/>
<polygon fill="green" stroke="green" stroke-width="0.76" points="1199.81,-42.64 1196.31,-32.64 1192.81,-42.64 1199.81,-42.64"/>
</g>
<!-- 335&#45;&gt;3 -->
<g id="edge117" class="edge">
<title>335&#45;&gt;3</title>
<path fill="none" stroke="green" stroke-width="0.15" d="M1177.74,-76.4C1173.27,-73.3 1168.32,-70.44 1163.31,-68.53 1019.24,-13.66 966.16,-76.21 818.31,-32.53 815.86,-31.8 813.37,-30.88 810.92,-29.85"/>
<polygon fill="green" stroke="green" stroke-width="0.15" points="812.44,-26.69 801.91,-25.51 809.41,-33 812.44,-26.69"/>
</g>
<!-- 335&#45;&gt;4 -->
<g id="edge118" class="edge">
<title>335&#45;&gt;4</title>
<path fill="none" stroke="green" stroke-width="0.49" d="M1177.66,-76.6C1173.19,-73.5 1168.27,-70.57 1163.31,-68.53 1162.45,-68.17 946.36,-33.7 869.81,-21.49"/>
<polygon fill="green" stroke="green" stroke-width="0.49" points="869.99,-17.97 859.57,-19.86 868.89,-24.89 869.99,-17.97"/>
</g>
<!-- 335&#45;&gt;5 -->
<g id="edge119" class="edge">
<title>335&#45;&gt;5</title>
<path fill="none" stroke="green" stroke-width="0.15" d="M1176.72,-77.51C1172.38,-74.42 1167.75,-71.28 1163.31,-68.53 1150.02,-60.29 1113.87,-41.53 1089.65,-29.13"/>
<polygon fill="green" stroke="green" stroke-width="0.15" points="1091.22,-26 1080.72,-24.57 1088.04,-32.24 1091.22,-26"/>
</g>
</g>
</svg>
