<?xml version="1.0" encoding="utf-8" standalone="no"?>
<!DOCTYPE svg PUBLIC "-//W3C//DTD SVG 1.1//EN"
  "http://www.w3.org/Graphics/SVG/1.1/DTD/svg11.dtd">
<svg xmlns:xlink="http://www.w3.org/1999/xlink" width="460.8pt" height="345.6pt" viewBox="0 0 460.8 345.6" xmlns="http://www.w3.org/2000/svg" version="1.1">
 <metadata>
  <rdf:RDF xmlns:dc="http://purl.org/dc/elements/1.1/" xmlns:cc="http://creativecommons.org/ns#" xmlns:rdf="http://www.w3.org/1999/02/22-rdf-syntax-ns#">
   <cc:Work>
    <dc:type rdf:resource="http://purl.org/dc/dcmitype/StillImage"/>
    <dc:date>2023-06-22T11:58:45.516163</dc:date>
    <dc:format>image/svg+xml</dc:format>
    <dc:creator>
     <cc:Agent>
      <dc:title>Matplotlib v3.6.3, https://matplotlib.org/</dc:title>
     </cc:Agent>
    </dc:creator>
   </cc:Work>
  </rdf:RDF>
 </metadata>
 <defs>
  <style type="text/css">*{stroke-linejoin: round; stroke-linecap: butt}</style>
 </defs>
 <g id="figure_1">
  <g id="patch_1">
   <path d="M 0 345.6 
L 460.8 345.6 
L 460.8 0 
L 0 0 
z
" style="fill: #ffffff"/>
  </g>
  <g id="axes_1">
   <g id="patch_2">
    <path d="M 57.6 307.584 
L 414.72 307.584 
L 414.72 41.472 
L 57.6 41.472 
z
" style="fill: #ffffff"/>
   </g>
   <g id="PolyCollection_1">
    <path d="M 73.832727 304.416 
L 73.832727 307.584 
L 82.157203 307.584 
L 90.481678 307.584 
L 98.806154 307.584 
L 107.130629 307.584 
L 115.455105 307.584 
L 123.77958 307.584 
L 132.104056 307.584 
L 140.428531 307.584 
L 148.753007 307.584 
L 157.077483 307.584 
L 165.401958 307.584 
L 173.726434 307.584 
L 182.050909 307.584 
L 190.375385 307.584 
L 198.69986 307.584 
L 207.024336 307.584 
L 215.348811 307.584 
L 223.673287 307.584 
L 231.997762 307.584 
L 240.322238 307.584 
L 248.646713 307.584 
L 256.971189 307.584 
L 265.295664 307.584 
L 273.62014 307.584 
L 281.944615 307.584 
L 290.269091 307.584 
L 298.593566 307.584 
L 306.918042 307.584 
L 315.242517 307.584 
L 323.566993 307.584 
L 331.891469 307.584 
L 340.215944 307.584 
L 348.54042 307.584 
L 356.864895 307.584 
L 365.189371 307.584 
L 373.513846 307.584 
L 381.838322 307.584 
L 390.162797 307.584 
L 398.487273 307.584 
L 398.487273 307.584 
L 398.487273 307.584 
L 390.162797 307.584 
L 381.838322 307.584 
L 373.513846 307.584 
L 365.189371 307.584 
L 356.864895 307.584 
L 348.54042 307.584 
L 340.215944 307.584 
L 331.891469 307.584 
L 323.566993 307.584 
L 315.242517 307.584 
L 306.918042 307.584 
L 298.593566 307.584 
L 290.269091 307.584 
L 281.944615 307.584 
L 273.62014 307.584 
L 265.295664 307.584 
L 256.971189 307.584 
L 248.646713 307.584 
L 240.322238 301.248 
L 231.997762 301.248 
L 223.673287 301.248 
L 215.348811 301.248 
L 207.024336 301.248 
L 198.69986 301.248 
L 190.375385 301.248 
L 182.050909 301.248 
L 173.726434 301.248 
L 165.401958 301.248 
L 157.077483 301.248 
L 148.753007 301.248 
L 140.428531 301.248 
L 132.104056 301.248 
L 123.77958 301.248 
L 115.455105 301.248 
L 107.130629 301.248 
L 98.806154 301.248 
L 90.481678 301.248 
L 82.157203 301.248 
L 73.832727 304.416 
z
" clip-path="url(#p5283456405)" style="fill: #1f77b4"/>
   </g>
   <g id="PolyCollection_2">
    <path d="M 73.832727 298.08 
L 73.832727 304.416 
L 82.157203 301.248 
L 90.481678 301.248 
L 98.806154 301.248 
L 107.130629 301.248 
L 115.455105 301.248 
L 123.77958 301.248 
L 132.104056 301.248 
L 140.428531 301.248 
L 148.753007 301.248 
L 157.077483 301.248 
L 165.401958 301.248 
L 173.726434 301.248 
L 182.050909 301.248 
L 190.375385 301.248 
L 198.69986 301.248 
L 207.024336 301.248 
L 215.348811 301.248 
L 223.673287 301.248 
L 231.997762 301.248 
L 240.322238 301.248 
L 248.646713 307.584 
L 256.971189 307.584 
L 265.295664 307.584 
L 273.62014 307.584 
L 281.944615 307.584 
L 290.269091 307.584 
L 298.593566 307.584 
L 306.918042 307.584 
L 315.242517 307.584 
L 323.566993 307.584 
L 331.891469 307.584 
L 340.215944 307.584 
L 348.54042 307.584 
L 356.864895 307.584 
L 365.189371 307.584 
L 373.513846 307.584 
L 381.838322 307.584 
L 390.162797 307.584 
L 398.487273 307.584 
L 398.487273 307.584 
L 398.487273 307.584 
L 390.162797 307.584 
L 381.838322 307.584 
L 373.513846 307.584 
L 365.189371 307.584 
L 356.864895 307.584 
L 348.54042 307.584 
L 340.215944 307.584 
L 331.891469 307.584 
L 323.566993 307.584 
L 315.242517 307.584 
L 306.918042 307.584 
L 298.593566 307.584 
L 290.269091 307.584 
L 281.944615 307.584 
L 273.62014 307.584 
L 265.295664 307.584 
L 256.971189 307.584 
L 248.646713 307.584 
L 240.322238 294.912 
L 231.997762 294.912 
L 223.673287 294.912 
L 215.348811 294.912 
L 207.024336 294.912 
L 198.69986 294.912 
L 190.375385 294.912 
L 182.050909 294.912 
L 173.726434 294.912 
L 165.401958 294.912 
L 157.077483 294.912 
L 148.753007 294.912 
L 140.428531 294.912 
L 132.104056 294.912 
L 123.77958 294.912 
L 115.455105 294.912 
L 107.130629 294.912 
L 98.806154 294.912 
L 90.481678 294.912 
L 82.157203 294.912 
L 73.832727 298.08 
z
" clip-path="url(#p5283456405)" style="fill: #ff7f0e"/>
   </g>
   <g id="PolyCollection_3">
    <path d="M 73.832727 294.912 
L 73.832727 298.08 
L 82.157203 294.912 
L 90.481678 294.912 
L 98.806154 294.912 
L 107.130629 294.912 
L 115.455105 294.912 
L 123.77958 294.912 
L 132.104056 294.912 
L 140.428531 294.912 
L 148.753007 294.912 
L 157.077483 294.912 
L 165.401958 294.912 
L 173.726434 294.912 
L 182.050909 294.912 
L 190.375385 294.912 
L 198.69986 294.912 
L 207.024336 294.912 
L 215.348811 294.912 
L 223.673287 294.912 
L 231.997762 294.912 
L 240.322238 294.912 
L 248.646713 307.584 
L 256.971189 307.584 
L 265.295664 307.584 
L 273.62014 307.584 
L 281.944615 307.584 
L 290.269091 307.584 
L 298.593566 307.584 
L 306.918042 307.584 
L 315.242517 307.584 
L 323.566993 307.584 
L 331.891469 307.584 
L 340.215944 307.584 
L 348.54042 307.584 
L 356.864895 307.584 
L 365.189371 307.584 
L 373.513846 307.584 
L 381.838322 307.584 
L 390.162797 307.584 
L 398.487273 307.584 
L 398.487273 307.584 
L 398.487273 307.584 
L 390.162797 307.584 
L 381.838322 307.584 
L 373.513846 307.584 
L 365.189371 307.584 
L 356.864895 307.584 
L 348.54042 307.584 
L 340.215944 307.584 
L 331.891469 307.584 
L 323.566993 307.584 
L 315.242517 307.584 
L 306.918042 307.584 
L 298.593566 307.584 
L 290.269091 307.584 
L 281.944615 307.584 
L 273.62014 307.584 
L 265.295664 307.584 
L 256.971189 307.584 
L 248.646713 298.08 
L 240.322238 288.576 
L 231.997762 288.576 
L 223.673287 288.576 
L 215.348811 288.576 
L 207.024336 288.576 
L 198.69986 288.576 
L 190.375385 288.576 
L 182.050909 288.576 
L 173.726434 288.576 
L 165.401958 288.576 
L 157.077483 288.576 
L 148.753007 288.576 
L 140.428531 288.576 
L 132.104056 288.576 
L 123.77958 288.576 
L 115.455105 288.576 
L 107.130629 288.576 
L 98.806154 288.576 
L 90.481678 288.576 
L 82.157203 288.576 
L 73.832727 294.912 
z
" clip-path="url(#p5283456405)" style="fill: #2ca02c"/>
   </g>
   <g id="PolyCollection_4">
    <path d="M 73.832727 291.744 
L 73.832727 294.912 
L 82.157203 288.576 
L 90.481678 288.576 
L 98.806154 288.576 
L 107.130629 288.576 
L 115.455105 288.576 
L 123.77958 288.576 
L 132.104056 288.576 
L 140.428531 288.576 
L 148.753007 288.576 
L 157.077483 288.576 
L 165.401958 288.576 
L 173.726434 288.576 
L 182.050909 288.576 
L 190.375385 288.576 
L 198.69986 288.576 
L 207.024336 288.576 
L 215.348811 288.576 
L 223.673287 288.576 
L 231.997762 288.576 
L 240.322238 288.576 
L 248.646713 298.08 
L 256.971189 307.584 
L 265.295664 307.584 
L 273.62014 307.584 
L 281.944615 307.584 
L 290.269091 307.584 
L 298.593566 307.584 
L 306.918042 307.584 
L 315.242517 307.584 
L 323.566993 307.584 
L 331.891469 307.584 
L 340.215944 307.584 
L 348.54042 307.584 
L 356.864895 307.584 
L 365.189371 307.584 
L 373.513846 307.584 
L 381.838322 307.584 
L 390.162797 307.584 
L 398.487273 307.584 
L 398.487273 307.584 
L 398.487273 307.584 
L 390.162797 307.584 
L 381.838322 307.584 
L 373.513846 307.584 
L 365.189371 307.584 
L 356.864895 307.584 
L 348.54042 307.584 
L 340.215944 307.584 
L 331.891469 307.584 
L 323.566993 307.584 
L 315.242517 307.584 
L 306.918042 307.584 
L 298.593566 307.584 
L 290.269091 307.584 
L 281.944615 307.584 
L 273.62014 307.584 
L 265.295664 307.584 
L 256.971189 307.584 
L 248.646713 298.08 
L 240.322238 282.24 
L 231.997762 282.24 
L 223.673287 282.24 
L 215.348811 282.24 
L 207.024336 282.24 
L 198.69986 282.24 
L 190.375385 282.24 
L 182.050909 282.24 
L 173.726434 282.24 
L 165.401958 282.24 
L 157.077483 282.24 
L 148.753007 282.24 
L 140.428531 282.24 
L 132.104056 282.24 
L 123.77958 282.24 
L 115.455105 282.24 
L 107.130629 282.24 
L 98.806154 282.24 
L 90.481678 282.24 
L 82.157203 282.24 
L 73.832727 291.744 
z
" clip-path="url(#p5283456405)" style="fill: #d62728"/>
   </g>
   <g id="PolyCollection_5">
    <path d="M 73.832727 288.576 
L 73.832727 291.744 
L 82.157203 282.24 
L 90.481678 282.24 
L 98.806154 282.24 
L 107.130629 282.24 
L 115.455105 282.24 
L 123.77958 282.24 
L 132.104056 282.24 
L 140.428531 282.24 
L 148.753007 282.24 
L 157.077483 282.24 
L 165.401958 282.24 
L 173.726434 282.24 
L 182.050909 282.24 
L 190.375385 282.24 
L 198.69986 282.24 
L 207.024336 282.24 
L 215.348811 282.24 
L 223.673287 282.24 
L 231.997762 282.24 
L 240.322238 282.24 
L 248.646713 298.08 
L 256.971189 307.584 
L 265.295664 307.584 
L 273.62014 307.584 
L 281.944615 307.584 
L 290.269091 307.584 
L 298.593566 307.584 
L 306.918042 307.584 
L 315.242517 307.584 
L 323.566993 307.584 
L 331.891469 307.584 
L 340.215944 307.584 
L 348.54042 307.584 
L 356.864895 307.584 
L 365.189371 307.584 
L 373.513846 307.584 
L 381.838322 307.584 
L 390.162797 307.584 
L 398.487273 307.584 
L 398.487273 307.584 
L 398.487273 307.584 
L 390.162797 307.584 
L 381.838322 307.584 
L 373.513846 307.584 
L 365.189371 307.584 
L 356.864895 307.584 
L 348.54042 307.584 
L 340.215944 307.584 
L 331.891469 307.584 
L 323.566993 307.584 
L 315.242517 307.584 
L 306.918042 307.584 
L 298.593566 307.584 
L 290.269091 307.584 
L 281.944615 307.584 
L 273.62014 307.584 
L 265.295664 307.584 
L 256.971189 307.584 
L 248.646713 291.744 
L 240.322238 275.904 
L 231.997762 275.904 
L 223.673287 275.904 
L 215.348811 275.904 
L 207.024336 275.904 
L 198.69986 275.904 
L 190.375385 275.904 
L 182.050909 275.904 
L 173.726434 275.904 
L 165.401958 275.904 
L 157.077483 275.904 
L 148.753007 275.904 
L 140.428531 275.904 
L 132.104056 275.904 
L 123.77958 275.904 
L 115.455105 275.904 
L 107.130629 275.904 
L 98.806154 275.904 
L 90.481678 275.904 
L 82.157203 275.904 
L 73.832727 288.576 
z
" clip-path="url(#p5283456405)" style="fill: #9467bd"/>
   </g>
   <g id="PolyCollection_6">
    <path d="M 73.832727 285.408 
L 73.832727 288.576 
L 82.157203 275.904 
L 90.481678 275.904 
L 98.806154 275.904 
L 107.130629 275.904 
L 115.455105 275.904 
L 123.77958 275.904 
L 132.104056 275.904 
L 140.428531 275.904 
L 148.753007 275.904 
L 157.077483 275.904 
L 165.401958 275.904 
L 173.726434 275.904 
L 182.050909 275.904 
L 190.375385 275.904 
L 198.69986 275.904 
L 207.024336 275.904 
L 215.348811 275.904 
L 223.673287 275.904 
L 231.997762 275.904 
L 240.322238 275.904 
L 248.646713 291.744 
L 256.971189 307.584 
L 265.295664 307.584 
L 273.62014 307.584 
L 281.944615 307.584 
L 290.269091 307.584 
L 298.593566 307.584 
L 306.918042 307.584 
L 315.242517 307.584 
L 323.566993 307.584 
L 331.891469 307.584 
L 340.215944 307.584 
L 348.54042 307.584 
L 356.864895 307.584 
L 365.189371 307.584 
L 373.513846 307.584 
L 381.838322 307.584 
L 390.162797 307.584 
L 398.487273 307.584 
L 398.487273 307.584 
L 398.487273 307.584 
L 390.162797 307.584 
L 381.838322 307.584 
L 373.513846 307.584 
L 365.189371 307.584 
L 356.864895 307.584 
L 348.54042 307.584 
L 340.215944 307.584 
L 331.891469 307.584 
L 323.566993 307.584 
L 315.242517 307.584 
L 306.918042 307.584 
L 298.593566 307.584 
L 290.269091 307.584 
L 281.944615 307.584 
L 273.62014 307.584 
L 265.295664 307.584 
L 256.971189 307.584 
L 248.646713 291.744 
L 240.322238 269.568 
L 231.997762 269.568 
L 223.673287 269.568 
L 215.348811 269.568 
L 207.024336 269.568 
L 198.69986 269.568 
L 190.375385 269.568 
L 182.050909 269.568 
L 173.726434 269.568 
L 165.401958 269.568 
L 157.077483 269.568 
L 148.753007 269.568 
L 140.428531 269.568 
L 132.104056 269.568 
L 123.77958 269.568 
L 115.455105 269.568 
L 107.130629 269.568 
L 98.806154 269.568 
L 90.481678 269.568 
L 82.157203 269.568 
L 73.832727 285.408 
z
" clip-path="url(#p5283456405)" style="fill: #8c564b"/>
   </g>
   <g id="PolyCollection_7">
    <path d="M 73.832727 282.24 
L 73.832727 285.408 
L 82.157203 269.568 
L 90.481678 269.568 
L 98.806154 269.568 
L 107.130629 269.568 
L 115.455105 269.568 
L 123.77958 269.568 
L 132.104056 269.568 
L 140.428531 269.568 
L 148.753007 269.568 
L 157.077483 269.568 
L 165.401958 269.568 
L 173.726434 269.568 
L 182.050909 269.568 
L 190.375385 269.568 
L 198.69986 269.568 
L 207.024336 269.568 
L 215.348811 269.568 
L 223.673287 269.568 
L 231.997762 269.568 
L 240.322238 269.568 
L 248.646713 291.744 
L 256.971189 307.584 
L 265.295664 307.584 
L 273.62014 307.584 
L 281.944615 307.584 
L 290.269091 307.584 
L 298.593566 307.584 
L 306.918042 307.584 
L 315.242517 307.584 
L 323.566993 307.584 
L 331.891469 307.584 
L 340.215944 307.584 
L 348.54042 307.584 
L 356.864895 307.584 
L 365.189371 307.584 
L 373.513846 307.584 
L 381.838322 307.584 
L 390.162797 307.584 
L 398.487273 307.584 
L 398.487273 307.584 
L 398.487273 307.584 
L 390.162797 307.584 
L 381.838322 307.584 
L 373.513846 307.584 
L 365.189371 307.584 
L 356.864895 307.584 
L 348.54042 307.584 
L 340.215944 307.584 
L 331.891469 307.584 
L 323.566993 307.584 
L 315.242517 307.584 
L 306.918042 307.584 
L 298.593566 307.584 
L 290.269091 307.584 
L 281.944615 307.584 
L 273.62014 307.584 
L 265.295664 307.584 
L 256.971189 307.584 
L 248.646713 291.744 
L 240.322238 263.232 
L 231.997762 263.232 
L 223.673287 263.232 
L 215.348811 263.232 
L 207.024336 263.232 
L 198.69986 263.232 
L 190.375385 263.232 
L 182.050909 263.232 
L 173.726434 263.232 
L 165.401958 263.232 
L 157.077483 263.232 
L 148.753007 263.232 
L 140.428531 263.232 
L 132.104056 263.232 
L 123.77958 263.232 
L 115.455105 263.232 
L 107.130629 263.232 
L 98.806154 263.232 
L 90.481678 263.232 
L 82.157203 263.232 
L 73.832727 282.24 
z
" clip-path="url(#p5283456405)" style="fill: #e377c2"/>
   </g>
   <g id="PolyCollection_8">
    <path d="M 73.832727 279.072 
L 73.832727 282.24 
L 82.157203 263.232 
L 90.481678 263.232 
L 98.806154 263.232 
L 107.130629 263.232 
L 115.455105 263.232 
L 123.77958 263.232 
L 132.104056 263.232 
L 140.428531 263.232 
L 148.753007 263.232 
L 157.077483 263.232 
L 165.401958 263.232 
L 173.726434 263.232 
L 182.050909 263.232 
L 190.375385 263.232 
L 198.69986 263.232 
L 207.024336 263.232 
L 215.348811 263.232 
L 223.673287 263.232 
L 231.997762 263.232 
L 240.322238 263.232 
L 248.646713 291.744 
L 256.971189 307.584 
L 265.295664 307.584 
L 273.62014 307.584 
L 281.944615 307.584 
L 290.269091 307.584 
L 298.593566 307.584 
L 306.918042 307.584 
L 315.242517 307.584 
L 323.566993 307.584 
L 331.891469 307.584 
L 340.215944 307.584 
L 348.54042 307.584 
L 356.864895 307.584 
L 365.189371 307.584 
L 373.513846 307.584 
L 381.838322 307.584 
L 390.162797 307.584 
L 398.487273 307.584 
L 398.487273 307.584 
L 398.487273 307.584 
L 390.162797 307.584 
L 381.838322 307.584 
L 373.513846 307.584 
L 365.189371 307.584 
L 356.864895 307.584 
L 348.54042 307.584 
L 340.215944 307.584 
L 331.891469 307.584 
L 323.566993 307.584 
L 315.242517 307.584 
L 306.918042 307.584 
L 298.593566 307.584 
L 290.269091 307.584 
L 281.944615 307.584 
L 273.62014 307.584 
L 265.295664 307.584 
L 256.971189 307.584 
L 248.646713 291.744 
L 240.322238 256.896 
L 231.997762 256.896 
L 223.673287 256.896 
L 215.348811 256.896 
L 207.024336 256.896 
L 198.69986 256.896 
L 190.375385 256.896 
L 182.050909 256.896 
L 173.726434 256.896 
L 165.401958 256.896 
L 157.077483 256.896 
L 148.753007 256.896 
L 140.428531 256.896 
L 132.104056 256.896 
L 123.77958 256.896 
L 115.455105 256.896 
L 107.130629 256.896 
L 98.806154 256.896 
L 90.481678 256.896 
L 82.157203 256.896 
L 73.832727 279.072 
z
" clip-path="url(#p5283456405)" style="fill: #7f7f7f"/>
   </g>
   <g id="PolyCollection_9">
    <path d="M 73.832727 275.904 
L 73.832727 279.072 
L 82.157203 256.896 
L 90.481678 256.896 
L 98.806154 256.896 
L 107.130629 256.896 
L 115.455105 256.896 
L 123.77958 256.896 
L 132.104056 256.896 
L 140.428531 256.896 
L 148.753007 256.896 
L 157.077483 256.896 
L 165.401958 256.896 
L 173.726434 256.896 
L 182.050909 256.896 
L 190.375385 256.896 
L 198.69986 256.896 
L 207.024336 256.896 
L 215.348811 256.896 
L 223.673287 256.896 
L 231.997762 256.896 
L 240.322238 256.896 
L 248.646713 291.744 
L 256.971189 307.584 
L 265.295664 307.584 
L 273.62014 307.584 
L 281.944615 307.584 
L 290.269091 307.584 
L 298.593566 307.584 
L 306.918042 307.584 
L 315.242517 307.584 
L 323.566993 307.584 
L 331.891469 307.584 
L 340.215944 307.584 
L 348.54042 307.584 
L 356.864895 307.584 
L 365.189371 307.584 
L 373.513846 307.584 
L 381.838322 307.584 
L 390.162797 307.584 
L 398.487273 307.584 
L 398.487273 307.584 
L 398.487273 307.584 
L 390.162797 307.584 
L 381.838322 307.584 
L 373.513846 307.584 
L 365.189371 307.584 
L 356.864895 307.584 
L 348.54042 307.584 
L 340.215944 307.584 
L 331.891469 307.584 
L 323.566993 307.584 
L 315.242517 307.584 
L 306.918042 307.584 
L 298.593566 307.584 
L 290.269091 307.584 
L 281.944615 307.584 
L 273.62014 307.584 
L 265.295664 307.584 
L 256.971189 307.584 
L 248.646713 282.24 
L 240.322238 250.56 
L 231.997762 250.56 
L 223.673287 250.56 
L 215.348811 250.56 
L 207.024336 250.56 
L 198.69986 250.56 
L 190.375385 250.56 
L 182.050909 250.56 
L 173.726434 250.56 
L 165.401958 250.56 
L 157.077483 250.56 
L 148.753007 250.56 
L 140.428531 250.56 
L 132.104056 250.56 
L 123.77958 250.56 
L 115.455105 250.56 
L 107.130629 250.56 
L 98.806154 250.56 
L 90.481678 250.56 
L 82.157203 250.56 
L 73.832727 275.904 
z
" clip-path="url(#p5283456405)" style="fill: #bcbd22"/>
   </g>
   <g id="PolyCollection_10">
    <path d="M 73.832727 272.736 
L 73.832727 275.904 
L 82.157203 250.56 
L 90.481678 250.56 
L 98.806154 250.56 
L 107.130629 250.56 
L 115.455105 250.56 
L 123.77958 250.56 
L 132.104056 250.56 
L 140.428531 250.56 
L 148.753007 250.56 
L 157.077483 250.56 
L 165.401958 250.56 
L 173.726434 250.56 
L 182.050909 250.56 
L 190.375385 250.56 
L 198.69986 250.56 
L 207.024336 250.56 
L 215.348811 250.56 
L 223.673287 250.56 
L 231.997762 250.56 
L 240.322238 250.56 
L 248.646713 282.24 
L 256.971189 307.584 
L 265.295664 307.584 
L 273.62014 307.584 
L 281.944615 307.584 
L 290.269091 307.584 
L 298.593566 307.584 
L 306.918042 307.584 
L 315.242517 307.584 
L 323.566993 307.584 
L 331.891469 307.584 
L 340.215944 307.584 
L 348.54042 307.584 
L 356.864895 307.584 
L 365.189371 307.584 
L 373.513846 307.584 
L 381.838322 307.584 
L 390.162797 307.584 
L 398.487273 307.584 
L 398.487273 307.584 
L 398.487273 307.584 
L 390.162797 307.584 
L 381.838322 307.584 
L 373.513846 307.584 
L 365.189371 307.584 
L 356.864895 307.584 
L 348.54042 307.584 
L 340.215944 307.584 
L 331.891469 307.584 
L 323.566993 307.584 
L 315.242517 307.584 
L 306.918042 307.584 
L 298.593566 307.584 
L 290.269091 307.584 
L 281.944615 307.584 
L 273.62014 307.584 
L 265.295664 307.584 
L 256.971189 307.584 
L 248.646713 282.24 
L 240.322238 244.224 
L 231.997762 244.224 
L 223.673287 244.224 
L 215.348811 244.224 
L 207.024336 244.224 
L 198.69986 244.224 
L 190.375385 244.224 
L 182.050909 244.224 
L 173.726434 244.224 
L 165.401958 244.224 
L 157.077483 244.224 
L 148.753007 244.224 
L 140.428531 244.224 
L 132.104056 244.224 
L 123.77958 244.224 
L 115.455105 244.224 
L 107.130629 244.224 
L 98.806154 244.224 
L 90.481678 244.224 
L 82.157203 244.224 
L 73.832727 272.736 
z
" clip-path="url(#p5283456405)" style="fill: #17becf"/>
   </g>
   <g id="PolyCollection_11">
    <path d="M 73.832727 269.568 
L 73.832727 272.736 
L 82.157203 244.224 
L 90.481678 244.224 
L 98.806154 244.224 
L 107.130629 244.224 
L 115.455105 244.224 
L 123.77958 244.224 
L 132.104056 244.224 
L 140.428531 244.224 
L 148.753007 244.224 
L 157.077483 244.224 
L 165.401958 244.224 
L 173.726434 244.224 
L 182.050909 244.224 
L 190.375385 244.224 
L 198.69986 244.224 
L 207.024336 244.224 
L 215.348811 244.224 
L 223.673287 244.224 
L 231.997762 244.224 
L 240.322238 244.224 
L 248.646713 282.24 
L 256.971189 307.584 
L 265.295664 307.584 
L 273.62014 307.584 
L 281.944615 307.584 
L 290.269091 307.584 
L 298.593566 307.584 
L 306.918042 307.584 
L 315.242517 307.584 
L 323.566993 307.584 
L 331.891469 307.584 
L 340.215944 307.584 
L 348.54042 307.584 
L 356.864895 307.584 
L 365.189371 307.584 
L 373.513846 307.584 
L 381.838322 307.584 
L 390.162797 307.584 
L 398.487273 307.584 
L 398.487273 307.584 
L 398.487273 307.584 
L 390.162797 307.584 
L 381.838322 307.584 
L 373.513846 307.584 
L 365.189371 307.584 
L 356.864895 307.584 
L 348.54042 307.584 
L 340.215944 307.584 
L 331.891469 307.584 
L 323.566993 307.584 
L 315.242517 307.584 
L 306.918042 307.584 
L 298.593566 307.584 
L 290.269091 307.584 
L 281.944615 307.584 
L 273.62014 307.584 
L 265.295664 307.584 
L 256.971189 307.584 
L 248.646713 282.24 
L 240.322238 237.888 
L 231.997762 237.888 
L 223.673287 237.888 
L 215.348811 237.888 
L 207.024336 237.888 
L 198.69986 237.888 
L 190.375385 237.888 
L 182.050909 237.888 
L 173.726434 237.888 
L 165.401958 237.888 
L 157.077483 237.888 
L 148.753007 237.888 
L 140.428531 237.888 
L 132.104056 237.888 
L 123.77958 237.888 
L 115.455105 237.888 
L 107.130629 237.888 
L 98.806154 237.888 
L 90.481678 237.888 
L 82.157203 237.888 
L 73.832727 269.568 
z
" clip-path="url(#p5283456405)" style="fill: #1f77b4"/>
   </g>
   <g id="PolyCollection_12">
    <path d="M 73.832727 266.4 
L 73.832727 269.568 
L 82.157203 237.888 
L 90.481678 237.888 
L 98.806154 237.888 
L 107.130629 237.888 
L 115.455105 237.888 
L 123.77958 237.888 
L 132.104056 237.888 
L 140.428531 237.888 
L 148.753007 237.888 
L 157.077483 237.888 
L 165.401958 237.888 
L 173.726434 237.888 
L 182.050909 237.888 
L 190.375385 237.888 
L 198.69986 237.888 
L 207.024336 237.888 
L 215.348811 237.888 
L 223.673287 237.888 
L 231.997762 237.888 
L 240.322238 237.888 
L 248.646713 282.24 
L 256.971189 307.584 
L 265.295664 307.584 
L 273.62014 307.584 
L 281.944615 307.584 
L 290.269091 307.584 
L 298.593566 307.584 
L 306.918042 307.584 
L 315.242517 307.584 
L 323.566993 307.584 
L 331.891469 307.584 
L 340.215944 307.584 
L 348.54042 307.584 
L 356.864895 307.584 
L 365.189371 307.584 
L 373.513846 307.584 
L 381.838322 307.584 
L 390.162797 307.584 
L 398.487273 307.584 
L 398.487273 256.896 
L 398.487273 256.896 
L 390.162797 253.728 
L 381.838322 253.728 
L 373.513846 256.896 
L 365.189371 260.064 
L 356.864895 253.728 
L 348.54042 247.392 
L 340.215944 253.728 
L 331.891469 256.896 
L 323.566993 260.064 
L 315.242517 253.728 
L 306.918042 250.56 
L 298.593566 250.56 
L 290.269091 247.392 
L 281.944615 253.728 
L 273.62014 260.064 
L 265.295664 263.232 
L 256.971189 256.896 
L 248.646713 269.568 
L 240.322238 231.552 
L 231.997762 231.552 
L 223.673287 231.552 
L 215.348811 231.552 
L 207.024336 231.552 
L 198.69986 231.552 
L 190.375385 231.552 
L 182.050909 231.552 
L 173.726434 231.552 
L 165.401958 231.552 
L 157.077483 231.552 
L 148.753007 231.552 
L 140.428531 231.552 
L 132.104056 231.552 
L 123.77958 231.552 
L 115.455105 231.552 
L 107.130629 231.552 
L 98.806154 231.552 
L 90.481678 231.552 
L 82.157203 231.552 
L 73.832727 266.4 
z
" clip-path="url(#p5283456405)" style="fill: #ff7f0e"/>
   </g>
   <g id="PolyCollection_13">
    <path d="M 73.832727 263.232 
L 73.832727 266.4 
L 82.157203 231.552 
L 90.481678 231.552 
L 98.806154 231.552 
L 107.130629 231.552 
L 115.455105 231.552 
L 123.77958 231.552 
L 132.104056 231.552 
L 140.428531 231.552 
L 148.753007 231.552 
L 157.077483 231.552 
L 165.401958 231.552 
L 173.726434 231.552 
L 182.050909 231.552 
L 190.375385 231.552 
L 198.69986 231.552 
L 207.024336 231.552 
L 215.348811 231.552 
L 223.673287 231.552 
L 231.997762 231.552 
L 240.322238 231.552 
L 248.646713 269.568 
L 256.971189 256.896 
L 265.295664 263.232 
L 273.62014 260.064 
L 281.944615 253.728 
L 290.269091 247.392 
L 298.593566 250.56 
L 306.918042 250.56 
L 315.242517 253.728 
L 323.566993 260.064 
L 331.891469 256.896 
L 340.215944 253.728 
L 348.54042 247.392 
L 356.864895 253.728 
L 365.189371 260.064 
L 373.513846 256.896 
L 381.838322 253.728 
L 390.162797 253.728 
L 398.487273 256.896 
L 398.487273 256.896 
L 398.487273 256.896 
L 390.162797 253.728 
L 381.838322 253.728 
L 373.513846 256.896 
L 365.189371 260.064 
L 356.864895 253.728 
L 348.54042 247.392 
L 340.215944 253.728 
L 331.891469 256.896 
L 323.566993 260.064 
L 315.242517 253.728 
L 306.918042 250.56 
L 298.593566 250.56 
L 290.269091 247.392 
L 281.944615 253.728 
L 273.62014 260.064 
L 265.295664 263.232 
L 256.971189 256.896 
L 248.646713 263.232 
L 240.322238 225.216 
L 231.997762 225.216 
L 223.673287 225.216 
L 215.348811 225.216 
L 207.024336 225.216 
L 198.69986 225.216 
L 190.375385 225.216 
L 182.050909 225.216 
L 173.726434 225.216 
L 165.401958 225.216 
L 157.077483 225.216 
L 148.753007 225.216 
L 140.428531 225.216 
L 132.104056 225.216 
L 123.77958 225.216 
L 115.455105 225.216 
L 107.130629 225.216 
L 98.806154 225.216 
L 90.481678 225.216 
L 82.157203 225.216 
L 73.832727 263.232 
z
" clip-path="url(#p5283456405)" style="fill: #2ca02c"/>
   </g>
   <g id="PolyCollection_14">
    <path d="M 73.832727 260.064 
L 73.832727 263.232 
L 82.157203 225.216 
L 90.481678 225.216 
L 98.806154 225.216 
L 107.130629 225.216 
L 115.455105 225.216 
L 123.77958 225.216 
L 132.104056 225.216 
L 140.428531 225.216 
L 148.753007 225.216 
L 157.077483 225.216 
L 165.401958 225.216 
L 173.726434 225.216 
L 182.050909 225.216 
L 190.375385 225.216 
L 198.69986 225.216 
L 207.024336 225.216 
L 215.348811 225.216 
L 223.673287 225.216 
L 231.997762 225.216 
L 240.322238 225.216 
L 248.646713 263.232 
L 256.971189 256.896 
L 265.295664 263.232 
L 273.62014 260.064 
L 281.944615 253.728 
L 290.269091 247.392 
L 298.593566 250.56 
L 306.918042 250.56 
L 315.242517 253.728 
L 323.566993 260.064 
L 331.891469 256.896 
L 340.215944 253.728 
L 348.54042 247.392 
L 356.864895 253.728 
L 365.189371 260.064 
L 373.513846 256.896 
L 381.838322 253.728 
L 390.162797 253.728 
L 398.487273 256.896 
L 398.487273 256.896 
L 398.487273 256.896 
L 390.162797 253.728 
L 381.838322 253.728 
L 373.513846 256.896 
L 365.189371 260.064 
L 356.864895 253.728 
L 348.54042 247.392 
L 340.215944 253.728 
L 331.891469 256.896 
L 323.566993 260.064 
L 315.242517 253.728 
L 306.918042 250.56 
L 298.593566 250.56 
L 290.269091 247.392 
L 281.944615 253.728 
L 273.62014 260.064 
L 265.295664 263.232 
L 256.971189 256.896 
L 248.646713 253.728 
L 240.322238 218.88 
L 231.997762 218.88 
L 223.673287 218.88 
L 215.348811 218.88 
L 207.024336 218.88 
L 198.69986 218.88 
L 190.375385 218.88 
L 182.050909 218.88 
L 173.726434 218.88 
L 165.401958 218.88 
L 157.077483 218.88 
L 148.753007 218.88 
L 140.428531 218.88 
L 132.104056 218.88 
L 123.77958 218.88 
L 115.455105 218.88 
L 107.130629 218.88 
L 98.806154 218.88 
L 90.481678 218.88 
L 82.157203 218.88 
L 73.832727 260.064 
z
" clip-path="url(#p5283456405)" style="fill: #d62728"/>
   </g>
   <g id="PolyCollection_15">
    <path d="M 73.832727 256.896 
L 73.832727 260.064 
L 82.157203 218.88 
L 90.481678 218.88 
L 98.806154 218.88 
L 107.130629 218.88 
L 115.455105 218.88 
L 123.77958 218.88 
L 132.104056 218.88 
L 140.428531 218.88 
L 148.753007 218.88 
L 157.077483 218.88 
L 165.401958 218.88 
L 173.726434 218.88 
L 182.050909 218.88 
L 190.375385 218.88 
L 198.69986 218.88 
L 207.024336 218.88 
L 215.348811 218.88 
L 223.673287 218.88 
L 231.997762 218.88 
L 240.322238 218.88 
L 248.646713 253.728 
L 256.971189 256.896 
L 265.295664 263.232 
L 273.62014 260.064 
L 281.944615 253.728 
L 290.269091 247.392 
L 298.593566 250.56 
L 306.918042 250.56 
L 315.242517 253.728 
L 323.566993 260.064 
L 331.891469 256.896 
L 340.215944 253.728 
L 348.54042 247.392 
L 356.864895 253.728 
L 365.189371 260.064 
L 373.513846 256.896 
L 381.838322 253.728 
L 390.162797 253.728 
L 398.487273 256.896 
L 398.487273 256.896 
L 398.487273 256.896 
L 390.162797 253.728 
L 381.838322 253.728 
L 373.513846 256.896 
L 365.189371 260.064 
L 356.864895 253.728 
L 348.54042 247.392 
L 340.215944 253.728 
L 331.891469 256.896 
L 323.566993 260.064 
L 315.242517 253.728 
L 306.918042 250.56 
L 298.593566 250.56 
L 290.269091 247.392 
L 281.944615 253.728 
L 273.62014 260.064 
L 265.295664 263.232 
L 256.971189 256.896 
L 248.646713 244.224 
L 240.322238 212.544 
L 231.997762 212.544 
L 223.673287 212.544 
L 215.348811 212.544 
L 207.024336 212.544 
L 198.69986 212.544 
L 190.375385 212.544 
L 182.050909 212.544 
L 173.726434 212.544 
L 165.401958 212.544 
L 157.077483 212.544 
L 148.753007 212.544 
L 140.428531 212.544 
L 132.104056 212.544 
L 123.77958 212.544 
L 115.455105 212.544 
L 107.130629 212.544 
L 98.806154 212.544 
L 90.481678 212.544 
L 82.157203 212.544 
L 73.832727 256.896 
z
" clip-path="url(#p5283456405)" style="fill: #9467bd"/>
   </g>
   <g id="PolyCollection_16">
    <path d="M 73.832727 253.728 
L 73.832727 256.896 
L 82.157203 212.544 
L 90.481678 212.544 
L 98.806154 212.544 
L 107.130629 212.544 
L 115.455105 212.544 
L 123.77958 212.544 
L 132.104056 212.544 
L 140.428531 212.544 
L 148.753007 212.544 
L 157.077483 212.544 
L 165.401958 212.544 
L 173.726434 212.544 
L 182.050909 212.544 
L 190.375385 212.544 
L 198.69986 212.544 
L 207.024336 212.544 
L 215.348811 212.544 
L 223.673287 212.544 
L 231.997762 212.544 
L 240.322238 212.544 
L 248.646713 244.224 
L 256.971189 256.896 
L 265.295664 263.232 
L 273.62014 260.064 
L 281.944615 253.728 
L 290.269091 247.392 
L 298.593566 250.56 
L 306.918042 250.56 
L 315.242517 253.728 
L 323.566993 260.064 
L 331.891469 256.896 
L 340.215944 253.728 
L 348.54042 247.392 
L 356.864895 253.728 
L 365.189371 260.064 
L 373.513846 256.896 
L 381.838322 253.728 
L 390.162797 253.728 
L 398.487273 256.896 
L 398.487273 225.216 
L 398.487273 225.216 
L 390.162797 218.88 
L 381.838322 222.048 
L 373.513846 222.048 
L 365.189371 222.048 
L 356.864895 218.88 
L 348.54042 215.712 
L 340.215944 225.216 
L 331.891469 231.552 
L 323.566993 231.552 
L 315.242517 231.552 
L 306.918042 225.216 
L 298.593566 222.048 
L 290.269091 215.712 
L 281.944615 218.88 
L 273.62014 215.712 
L 265.295664 215.712 
L 256.971189 215.712 
L 248.646713 234.72 
L 240.322238 206.208 
L 231.997762 206.208 
L 223.673287 206.208 
L 215.348811 206.208 
L 207.024336 206.208 
L 198.69986 206.208 
L 190.375385 206.208 
L 182.050909 206.208 
L 173.726434 206.208 
L 165.401958 206.208 
L 157.077483 206.208 
L 148.753007 206.208 
L 140.428531 206.208 
L 132.104056 206.208 
L 123.77958 206.208 
L 115.455105 206.208 
L 107.130629 206.208 
L 98.806154 206.208 
L 90.481678 206.208 
L 82.157203 206.208 
L 73.832727 253.728 
z
" clip-path="url(#p5283456405)" style="fill: #8c564b"/>
   </g>
   <g id="PolyCollection_17">
    <path d="M 73.832727 247.392 
L 73.832727 253.728 
L 82.157203 206.208 
L 90.481678 206.208 
L 98.806154 206.208 
L 107.130629 206.208 
L 115.455105 206.208 
L 123.77958 206.208 
L 132.104056 206.208 
L 140.428531 206.208 
L 148.753007 206.208 
L 157.077483 206.208 
L 165.401958 206.208 
L 173.726434 206.208 
L 182.050909 206.208 
L 190.375385 206.208 
L 198.69986 206.208 
L 207.024336 206.208 
L 215.348811 206.208 
L 223.673287 206.208 
L 231.997762 206.208 
L 240.322238 206.208 
L 248.646713 234.72 
L 256.971189 215.712 
L 265.295664 215.712 
L 273.62014 215.712 
L 281.944615 218.88 
L 290.269091 215.712 
L 298.593566 222.048 
L 306.918042 225.216 
L 315.242517 231.552 
L 323.566993 231.552 
L 331.891469 231.552 
L 340.215944 225.216 
L 348.54042 215.712 
L 356.864895 218.88 
L 365.189371 222.048 
L 373.513846 222.048 
L 381.838322 222.048 
L 390.162797 218.88 
L 398.487273 225.216 
L 398.487273 225.216 
L 398.487273 225.216 
L 390.162797 218.88 
L 381.838322 222.048 
L 373.513846 222.048 
L 365.189371 222.048 
L 356.864895 218.88 
L 348.54042 215.712 
L 340.215944 225.216 
L 331.891469 231.552 
L 323.566993 231.552 
L 315.242517 231.552 
L 306.918042 225.216 
L 298.593566 222.048 
L 290.269091 215.712 
L 281.944615 218.88 
L 273.62014 215.712 
L 265.295664 215.712 
L 256.971189 215.712 
L 248.646713 234.72 
L 240.322238 199.872 
L 231.997762 199.872 
L 223.673287 199.872 
L 215.348811 199.872 
L 207.024336 199.872 
L 198.69986 199.872 
L 190.375385 199.872 
L 182.050909 199.872 
L 173.726434 199.872 
L 165.401958 199.872 
L 157.077483 199.872 
L 148.753007 199.872 
L 140.428531 199.872 
L 132.104056 199.872 
L 123.77958 199.872 
L 115.455105 199.872 
L 107.130629 199.872 
L 98.806154 199.872 
L 90.481678 199.872 
L 82.157203 199.872 
L 73.832727 247.392 
z
" clip-path="url(#p5283456405)" style="fill: #e377c2"/>
   </g>
   <g id="PolyCollection_18">
    <path d="M 73.832727 241.056 
L 73.832727 247.392 
L 82.157203 199.872 
L 90.481678 199.872 
L 98.806154 199.872 
L 107.130629 199.872 
L 115.455105 199.872 
L 123.77958 199.872 
L 132.104056 199.872 
L 140.428531 199.872 
L 148.753007 199.872 
L 157.077483 199.872 
L 165.401958 199.872 
L 173.726434 199.872 
L 182.050909 199.872 
L 190.375385 199.872 
L 198.69986 199.872 
L 207.024336 199.872 
L 215.348811 199.872 
L 223.673287 199.872 
L 231.997762 199.872 
L 240.322238 199.872 
L 248.646713 234.72 
L 256.971189 215.712 
L 265.295664 215.712 
L 273.62014 215.712 
L 281.944615 218.88 
L 290.269091 215.712 
L 298.593566 222.048 
L 306.918042 225.216 
L 315.242517 231.552 
L 323.566993 231.552 
L 331.891469 231.552 
L 340.215944 225.216 
L 348.54042 215.712 
L 356.864895 218.88 
L 365.189371 222.048 
L 373.513846 222.048 
L 381.838322 222.048 
L 390.162797 218.88 
L 398.487273 225.216 
L 398.487273 225.216 
L 398.487273 225.216 
L 390.162797 218.88 
L 381.838322 222.048 
L 373.513846 222.048 
L 365.189371 222.048 
L 356.864895 218.88 
L 348.54042 215.712 
L 340.215944 225.216 
L 331.891469 231.552 
L 323.566993 231.552 
L 315.242517 231.552 
L 306.918042 225.216 
L 298.593566 222.048 
L 290.269091 215.712 
L 281.944615 218.88 
L 273.62014 215.712 
L 265.295664 215.712 
L 256.971189 215.712 
L 248.646713 234.72 
L 240.322238 193.536 
L 231.997762 193.536 
L 223.673287 193.536 
L 215.348811 193.536 
L 207.024336 193.536 
L 198.69986 193.536 
L 190.375385 193.536 
L 182.050909 193.536 
L 173.726434 193.536 
L 165.401958 193.536 
L 157.077483 193.536 
L 148.753007 193.536 
L 140.428531 193.536 
L 132.104056 193.536 
L 123.77958 193.536 
L 115.455105 193.536 
L 107.130629 193.536 
L 98.806154 193.536 
L 90.481678 193.536 
L 82.157203 193.536 
L 73.832727 241.056 
z
" clip-path="url(#p5283456405)" style="fill: #7f7f7f"/>
   </g>
   <g id="PolyCollection_19">
    <path d="M 73.832727 231.552 
L 73.832727 241.056 
L 82.157203 193.536 
L 90.481678 193.536 
L 98.806154 193.536 
L 107.130629 193.536 
L 115.455105 193.536 
L 123.77958 193.536 
L 132.104056 193.536 
L 140.428531 193.536 
L 148.753007 193.536 
L 157.077483 193.536 
L 165.401958 193.536 
L 173.726434 193.536 
L 182.050909 193.536 
L 190.375385 193.536 
L 198.69986 193.536 
L 207.024336 193.536 
L 215.348811 193.536 
L 223.673287 193.536 
L 231.997762 193.536 
L 240.322238 193.536 
L 248.646713 234.72 
L 256.971189 215.712 
L 265.295664 215.712 
L 273.62014 215.712 
L 281.944615 218.88 
L 290.269091 215.712 
L 298.593566 222.048 
L 306.918042 225.216 
L 315.242517 231.552 
L 323.566993 231.552 
L 331.891469 231.552 
L 340.215944 225.216 
L 348.54042 215.712 
L 356.864895 218.88 
L 365.189371 222.048 
L 373.513846 222.048 
L 381.838322 222.048 
L 390.162797 218.88 
L 398.487273 225.216 
L 398.487273 225.216 
L 398.487273 225.216 
L 390.162797 218.88 
L 381.838322 222.048 
L 373.513846 222.048 
L 365.189371 222.048 
L 356.864895 218.88 
L 348.54042 215.712 
L 340.215944 225.216 
L 331.891469 231.552 
L 323.566993 231.552 
L 315.242517 231.552 
L 306.918042 225.216 
L 298.593566 222.048 
L 290.269091 215.712 
L 281.944615 218.88 
L 273.62014 215.712 
L 265.295664 215.712 
L 256.971189 215.712 
L 248.646713 234.72 
L 240.322238 187.2 
L 231.997762 187.2 
L 223.673287 187.2 
L 215.348811 187.2 
L 207.024336 187.2 
L 198.69986 187.2 
L 190.375385 187.2 
L 182.050909 187.2 
L 173.726434 187.2 
L 165.401958 187.2 
L 157.077483 187.2 
L 148.753007 187.2 
L 140.428531 187.2 
L 132.104056 187.2 
L 123.77958 187.2 
L 115.455105 187.2 
L 107.130629 187.2 
L 98.806154 187.2 
L 90.481678 187.2 
L 82.157203 187.2 
L 73.832727 231.552 
z
" clip-path="url(#p5283456405)" style="fill: #bcbd22"/>
   </g>
   <g id="PolyCollection_20">
    <path d="M 73.832727 228.384 
L 73.832727 231.552 
L 82.157203 187.2 
L 90.481678 187.2 
L 98.806154 187.2 
L 107.130629 187.2 
L 115.455105 187.2 
L 123.77958 187.2 
L 132.104056 187.2 
L 140.428531 187.2 
L 148.753007 187.2 
L 157.077483 187.2 
L 165.401958 187.2 
L 173.726434 187.2 
L 182.050909 187.2 
L 190.375385 187.2 
L 198.69986 187.2 
L 207.024336 187.2 
L 215.348811 187.2 
L 223.673287 187.2 
L 231.997762 187.2 
L 240.322238 187.2 
L 248.646713 234.72 
L 256.971189 215.712 
L 265.295664 215.712 
L 273.62014 215.712 
L 281.944615 218.88 
L 290.269091 215.712 
L 298.593566 222.048 
L 306.918042 225.216 
L 315.242517 231.552 
L 323.566993 231.552 
L 331.891469 231.552 
L 340.215944 225.216 
L 348.54042 215.712 
L 356.864895 218.88 
L 365.189371 222.048 
L 373.513846 222.048 
L 381.838322 222.048 
L 390.162797 218.88 
L 398.487273 225.216 
L 398.487273 225.216 
L 398.487273 225.216 
L 390.162797 218.88 
L 381.838322 222.048 
L 373.513846 222.048 
L 365.189371 222.048 
L 356.864895 218.88 
L 348.54042 215.712 
L 340.215944 225.216 
L 331.891469 231.552 
L 323.566993 231.552 
L 315.242517 231.552 
L 306.918042 225.216 
L 298.593566 222.048 
L 290.269091 215.712 
L 281.944615 218.88 
L 273.62014 215.712 
L 265.295664 215.712 
L 256.971189 215.712 
L 248.646713 234.72 
L 240.322238 180.864 
L 231.997762 180.864 
L 223.673287 180.864 
L 215.348811 180.864 
L 207.024336 180.864 
L 198.69986 180.864 
L 190.375385 180.864 
L 182.050909 180.864 
L 173.726434 180.864 
L 165.401958 180.864 
L 157.077483 180.864 
L 148.753007 180.864 
L 140.428531 180.864 
L 132.104056 180.864 
L 123.77958 180.864 
L 115.455105 180.864 
L 107.130629 180.864 
L 98.806154 180.864 
L 90.481678 180.864 
L 82.157203 180.864 
L 73.832727 228.384 
z
" clip-path="url(#p5283456405)" style="fill: #17becf"/>
   </g>
   <g id="PolyCollection_21">
    <path d="M 73.832727 222.048 
L 73.832727 228.384 
L 82.157203 180.864 
L 90.481678 180.864 
L 98.806154 180.864 
L 107.130629 180.864 
L 115.455105 180.864 
L 123.77958 180.864 
L 132.104056 180.864 
L 140.428531 180.864 
L 148.753007 180.864 
L 157.077483 180.864 
L 165.401958 180.864 
L 173.726434 180.864 
L 182.050909 180.864 
L 190.375385 180.864 
L 198.69986 180.864 
L 207.024336 180.864 
L 215.348811 180.864 
L 223.673287 180.864 
L 231.997762 180.864 
L 240.322238 180.864 
L 248.646713 234.72 
L 256.971189 215.712 
L 265.295664 215.712 
L 273.62014 215.712 
L 281.944615 218.88 
L 290.269091 215.712 
L 298.593566 222.048 
L 306.918042 225.216 
L 315.242517 231.552 
L 323.566993 231.552 
L 331.891469 231.552 
L 340.215944 225.216 
L 348.54042 215.712 
L 356.864895 218.88 
L 365.189371 222.048 
L 373.513846 222.048 
L 381.838322 222.048 
L 390.162797 218.88 
L 398.487273 225.216 
L 398.487273 225.216 
L 398.487273 225.216 
L 390.162797 218.88 
L 381.838322 222.048 
L 373.513846 222.048 
L 365.189371 222.048 
L 356.864895 218.88 
L 348.54042 215.712 
L 340.215944 225.216 
L 331.891469 231.552 
L 323.566993 231.552 
L 315.242517 231.552 
L 306.918042 225.216 
L 298.593566 222.048 
L 290.269091 215.712 
L 281.944615 218.88 
L 273.62014 215.712 
L 265.295664 215.712 
L 256.971189 215.712 
L 248.646713 234.72 
L 240.322238 174.528 
L 231.997762 174.528 
L 223.673287 174.528 
L 215.348811 174.528 
L 207.024336 174.528 
L 198.69986 174.528 
L 190.375385 174.528 
L 182.050909 174.528 
L 173.726434 174.528 
L 165.401958 174.528 
L 157.077483 174.528 
L 148.753007 174.528 
L 140.428531 174.528 
L 132.104056 174.528 
L 123.77958 174.528 
L 115.455105 174.528 
L 107.130629 174.528 
L 98.806154 174.528 
L 90.481678 174.528 
L 82.157203 177.696 
L 73.832727 222.048 
z
" clip-path="url(#p5283456405)" style="fill: #1f77b4"/>
   </g>
   <g id="PolyCollection_22">
    <path d="M 73.832727 218.88 
L 73.832727 222.048 
L 82.157203 177.696 
L 90.481678 174.528 
L 98.806154 174.528 
L 107.130629 174.528 
L 115.455105 174.528 
L 123.77958 174.528 
L 132.104056 174.528 
L 140.428531 174.528 
L 148.753007 174.528 
L 157.077483 174.528 
L 165.401958 174.528 
L 173.726434 174.528 
L 182.050909 174.528 
L 190.375385 174.528 
L 198.69986 174.528 
L 207.024336 174.528 
L 215.348811 174.528 
L 223.673287 174.528 
L 231.997762 174.528 
L 240.322238 174.528 
L 248.646713 234.72 
L 256.971189 215.712 
L 265.295664 215.712 
L 273.62014 215.712 
L 281.944615 218.88 
L 290.269091 215.712 
L 298.593566 222.048 
L 306.918042 225.216 
L 315.242517 231.552 
L 323.566993 231.552 
L 331.891469 231.552 
L 340.215944 225.216 
L 348.54042 215.712 
L 356.864895 218.88 
L 365.189371 222.048 
L 373.513846 222.048 
L 381.838322 222.048 
L 390.162797 218.88 
L 398.487273 225.216 
L 398.487273 225.216 
L 398.487273 225.216 
L 390.162797 218.88 
L 381.838322 222.048 
L 373.513846 222.048 
L 365.189371 222.048 
L 356.864895 218.88 
L 348.54042 215.712 
L 340.215944 225.216 
L 331.891469 231.552 
L 323.566993 231.552 
L 315.242517 231.552 
L 306.918042 225.216 
L 298.593566 222.048 
L 290.269091 215.712 
L 281.944615 218.88 
L 273.62014 215.712 
L 265.295664 215.712 
L 256.971189 215.712 
L 248.646713 234.72 
L 240.322238 168.192 
L 231.997762 168.192 
L 223.673287 168.192 
L 215.348811 168.192 
L 207.024336 168.192 
L 198.69986 168.192 
L 190.375385 168.192 
L 182.050909 168.192 
L 173.726434 168.192 
L 165.401958 168.192 
L 157.077483 168.192 
L 148.753007 168.192 
L 140.428531 168.192 
L 132.104056 168.192 
L 123.77958 168.192 
L 115.455105 168.192 
L 107.130629 168.192 
L 98.806154 168.192 
L 90.481678 168.192 
L 82.157203 171.36 
L 73.832727 218.88 
z
" clip-path="url(#p5283456405)" style="fill: #ff7f0e"/>
   </g>
   <g id="PolyCollection_23">
    <path d="M 73.832727 209.376 
L 73.832727 218.88 
L 82.157203 171.36 
L 90.481678 168.192 
L 98.806154 168.192 
L 107.130629 168.192 
L 115.455105 168.192 
L 123.77958 168.192 
L 132.104056 168.192 
L 140.428531 168.192 
L 148.753007 168.192 
L 157.077483 168.192 
L 165.401958 168.192 
L 173.726434 168.192 
L 182.050909 168.192 
L 190.375385 168.192 
L 198.69986 168.192 
L 207.024336 168.192 
L 215.348811 168.192 
L 223.673287 168.192 
L 231.997762 168.192 
L 240.322238 168.192 
L 248.646713 234.72 
L 256.971189 215.712 
L 265.295664 215.712 
L 273.62014 215.712 
L 281.944615 218.88 
L 290.269091 215.712 
L 298.593566 222.048 
L 306.918042 225.216 
L 315.242517 231.552 
L 323.566993 231.552 
L 331.891469 231.552 
L 340.215944 225.216 
L 348.54042 215.712 
L 356.864895 218.88 
L 365.189371 222.048 
L 373.513846 222.048 
L 381.838322 222.048 
L 390.162797 218.88 
L 398.487273 225.216 
L 398.487273 225.216 
L 398.487273 225.216 
L 390.162797 218.88 
L 381.838322 222.048 
L 373.513846 222.048 
L 365.189371 222.048 
L 356.864895 218.88 
L 348.54042 215.712 
L 340.215944 225.216 
L 331.891469 231.552 
L 323.566993 231.552 
L 315.242517 231.552 
L 306.918042 225.216 
L 298.593566 222.048 
L 290.269091 215.712 
L 281.944615 218.88 
L 273.62014 215.712 
L 265.295664 215.712 
L 256.971189 215.712 
L 248.646713 234.72 
L 240.322238 161.856 
L 231.997762 161.856 
L 223.673287 161.856 
L 215.348811 161.856 
L 207.024336 161.856 
L 198.69986 161.856 
L 190.375385 161.856 
L 182.050909 161.856 
L 173.726434 161.856 
L 165.401958 161.856 
L 157.077483 161.856 
L 148.753007 161.856 
L 140.428531 161.856 
L 132.104056 161.856 
L 123.77958 161.856 
L 115.455105 161.856 
L 107.130629 161.856 
L 98.806154 161.856 
L 90.481678 161.856 
L 82.157203 165.024 
L 73.832727 209.376 
z
" clip-path="url(#p5283456405)" style="fill: #2ca02c"/>
   </g>
   <g id="PolyCollection_24">
    <path d="M 73.832727 206.208 
L 73.832727 209.376 
L 82.157203 165.024 
L 90.481678 161.856 
L 98.806154 161.856 
L 107.130629 161.856 
L 115.455105 161.856 
L 123.77958 161.856 
L 132.104056 161.856 
L 140.428531 161.856 
L 148.753007 161.856 
L 157.077483 161.856 
L 165.401958 161.856 
L 173.726434 161.856 
L 182.050909 161.856 
L 190.375385 161.856 
L 198.69986 161.856 
L 207.024336 161.856 
L 215.348811 161.856 
L 223.673287 161.856 
L 231.997762 161.856 
L 240.322238 161.856 
L 248.646713 234.72 
L 256.971189 215.712 
L 265.295664 215.712 
L 273.62014 215.712 
L 281.944615 218.88 
L 290.269091 215.712 
L 298.593566 222.048 
L 306.918042 225.216 
L 315.242517 231.552 
L 323.566993 231.552 
L 331.891469 231.552 
L 340.215944 225.216 
L 348.54042 215.712 
L 356.864895 218.88 
L 365.189371 222.048 
L 373.513846 222.048 
L 381.838322 222.048 
L 390.162797 218.88 
L 398.487273 225.216 
L 398.487273 225.216 
L 398.487273 225.216 
L 390.162797 218.88 
L 381.838322 222.048 
L 373.513846 222.048 
L 365.189371 222.048 
L 356.864895 218.88 
L 348.54042 215.712 
L 340.215944 225.216 
L 331.891469 231.552 
L 323.566993 231.552 
L 315.242517 231.552 
L 306.918042 225.216 
L 298.593566 222.048 
L 290.269091 215.712 
L 281.944615 218.88 
L 273.62014 215.712 
L 265.295664 215.712 
L 256.971189 215.712 
L 248.646713 228.384 
L 240.322238 155.52 
L 231.997762 155.52 
L 223.673287 155.52 
L 215.348811 155.52 
L 207.024336 155.52 
L 198.69986 155.52 
L 190.375385 155.52 
L 182.050909 155.52 
L 173.726434 155.52 
L 165.401958 155.52 
L 157.077483 155.52 
L 148.753007 155.52 
L 140.428531 155.52 
L 132.104056 155.52 
L 123.77958 155.52 
L 115.455105 155.52 
L 107.130629 155.52 
L 98.806154 155.52 
L 90.481678 155.52 
L 82.157203 158.688 
L 73.832727 206.208 
z
" clip-path="url(#p5283456405)" style="fill: #d62728"/>
   </g>
   <g id="PolyCollection_25">
    <path d="M 73.832727 203.04 
L 73.832727 206.208 
L 82.157203 158.688 
L 90.481678 155.52 
L 98.806154 155.52 
L 107.130629 155.52 
L 115.455105 155.52 
L 123.77958 155.52 
L 132.104056 155.52 
L 140.428531 155.52 
L 148.753007 155.52 
L 157.077483 155.52 
L 165.401958 155.52 
L 173.726434 155.52 
L 182.050909 155.52 
L 190.375385 155.52 
L 198.69986 155.52 
L 207.024336 155.52 
L 215.348811 155.52 
L 223.673287 155.52 
L 231.997762 155.52 
L 240.322238 155.52 
L 248.646713 228.384 
L 256.971189 215.712 
L 265.295664 215.712 
L 273.62014 215.712 
L 281.944615 218.88 
L 290.269091 215.712 
L 298.593566 222.048 
L 306.918042 225.216 
L 315.242517 231.552 
L 323.566993 231.552 
L 331.891469 231.552 
L 340.215944 225.216 
L 348.54042 215.712 
L 356.864895 218.88 
L 365.189371 222.048 
L 373.513846 222.048 
L 381.838322 222.048 
L 390.162797 218.88 
L 398.487273 225.216 
L 398.487273 225.216 
L 398.487273 225.216 
L 390.162797 218.88 
L 381.838322 222.048 
L 373.513846 222.048 
L 365.189371 222.048 
L 356.864895 218.88 
L 348.54042 215.712 
L 340.215944 225.216 
L 331.891469 231.552 
L 323.566993 231.552 
L 315.242517 231.552 
L 306.918042 225.216 
L 298.593566 222.048 
L 290.269091 215.712 
L 281.944615 218.88 
L 273.62014 215.712 
L 265.295664 215.712 
L 256.971189 215.712 
L 248.646713 228.384 
L 240.322238 149.184 
L 231.997762 149.184 
L 223.673287 149.184 
L 215.348811 149.184 
L 207.024336 149.184 
L 198.69986 149.184 
L 190.375385 149.184 
L 182.050909 149.184 
L 173.726434 149.184 
L 165.401958 149.184 
L 157.077483 149.184 
L 148.753007 149.184 
L 140.428531 149.184 
L 132.104056 149.184 
L 123.77958 149.184 
L 115.455105 149.184 
L 107.130629 149.184 
L 98.806154 149.184 
L 90.481678 149.184 
L 82.157203 152.352 
L 73.832727 203.04 
z
" clip-path="url(#p5283456405)" style="fill: #9467bd"/>
   </g>
   <g id="PolyCollection_26">
    <path d="M 73.832727 199.872 
L 73.832727 203.04 
L 82.157203 152.352 
L 90.481678 149.184 
L 98.806154 149.184 
L 107.130629 149.184 
L 115.455105 149.184 
L 123.77958 149.184 
L 132.104056 149.184 
L 140.428531 149.184 
L 148.753007 149.184 
L 157.077483 149.184 
L 165.401958 149.184 
L 173.726434 149.184 
L 182.050909 149.184 
L 190.375385 149.184 
L 198.69986 149.184 
L 207.024336 149.184 
L 215.348811 149.184 
L 223.673287 149.184 
L 231.997762 149.184 
L 240.322238 149.184 
L 248.646713 228.384 
L 256.971189 215.712 
L 265.295664 215.712 
L 273.62014 215.712 
L 281.944615 218.88 
L 290.269091 215.712 
L 298.593566 222.048 
L 306.918042 225.216 
L 315.242517 231.552 
L 323.566993 231.552 
L 331.891469 231.552 
L 340.215944 225.216 
L 348.54042 215.712 
L 356.864895 218.88 
L 365.189371 222.048 
L 373.513846 222.048 
L 381.838322 222.048 
L 390.162797 218.88 
L 398.487273 225.216 
L 398.487273 225.216 
L 398.487273 225.216 
L 390.162797 218.88 
L 381.838322 222.048 
L 373.513846 222.048 
L 365.189371 222.048 
L 356.864895 218.88 
L 348.54042 215.712 
L 340.215944 225.216 
L 331.891469 231.552 
L 323.566993 231.552 
L 315.242517 231.552 
L 306.918042 225.216 
L 298.593566 222.048 
L 290.269091 215.712 
L 281.944615 218.88 
L 273.62014 215.712 
L 265.295664 215.712 
L 256.971189 215.712 
L 248.646713 209.376 
L 240.322238 142.848 
L 231.997762 142.848 
L 223.673287 142.848 
L 215.348811 142.848 
L 207.024336 142.848 
L 198.69986 142.848 
L 190.375385 142.848 
L 182.050909 142.848 
L 173.726434 142.848 
L 165.401958 142.848 
L 157.077483 142.848 
L 148.753007 142.848 
L 140.428531 142.848 
L 132.104056 142.848 
L 123.77958 142.848 
L 115.455105 142.848 
L 107.130629 142.848 
L 98.806154 142.848 
L 90.481678 142.848 
L 82.157203 146.016 
L 73.832727 199.872 
z
" clip-path="url(#p5283456405)" style="fill: #8c564b"/>
   </g>
   <g id="PolyCollection_27">
    <path d="M 73.832727 196.704 
L 73.832727 199.872 
L 82.157203 146.016 
L 90.481678 142.848 
L 98.806154 142.848 
L 107.130629 142.848 
L 115.455105 142.848 
L 123.77958 142.848 
L 132.104056 142.848 
L 140.428531 142.848 
L 148.753007 142.848 
L 157.077483 142.848 
L 165.401958 142.848 
L 173.726434 142.848 
L 182.050909 142.848 
L 190.375385 142.848 
L 198.69986 142.848 
L 207.024336 142.848 
L 215.348811 142.848 
L 223.673287 142.848 
L 231.997762 142.848 
L 240.322238 142.848 
L 248.646713 209.376 
L 256.971189 215.712 
L 265.295664 215.712 
L 273.62014 215.712 
L 281.944615 218.88 
L 290.269091 215.712 
L 298.593566 222.048 
L 306.918042 225.216 
L 315.242517 231.552 
L 323.566993 231.552 
L 331.891469 231.552 
L 340.215944 225.216 
L 348.54042 215.712 
L 356.864895 218.88 
L 365.189371 222.048 
L 373.513846 222.048 
L 381.838322 222.048 
L 390.162797 218.88 
L 398.487273 225.216 
L 398.487273 225.216 
L 398.487273 225.216 
L 390.162797 218.88 
L 381.838322 222.048 
L 373.513846 222.048 
L 365.189371 222.048 
L 356.864895 218.88 
L 348.54042 215.712 
L 340.215944 225.216 
L 331.891469 231.552 
L 323.566993 231.552 
L 315.242517 231.552 
L 306.918042 225.216 
L 298.593566 222.048 
L 290.269091 215.712 
L 281.944615 218.88 
L 273.62014 215.712 
L 265.295664 215.712 
L 256.971189 215.712 
L 248.646713 209.376 
L 240.322238 136.512 
L 231.997762 136.512 
L 223.673287 136.512 
L 215.348811 136.512 
L 207.024336 136.512 
L 198.69986 136.512 
L 190.375385 136.512 
L 182.050909 136.512 
L 173.726434 136.512 
L 165.401958 136.512 
L 157.077483 136.512 
L 148.753007 136.512 
L 140.428531 136.512 
L 132.104056 136.512 
L 123.77958 136.512 
L 115.455105 136.512 
L 107.130629 136.512 
L 98.806154 136.512 
L 90.481678 136.512 
L 82.157203 139.68 
L 73.832727 196.704 
z
" clip-path="url(#p5283456405)" style="fill: #e377c2"/>
   </g>
   <g id="PolyCollection_28">
    <path d="M 73.832727 193.536 
L 73.832727 196.704 
L 82.157203 139.68 
L 90.481678 136.512 
L 98.806154 136.512 
L 107.130629 136.512 
L 115.455105 136.512 
L 123.77958 136.512 
L 132.104056 136.512 
L 140.428531 136.512 
L 148.753007 136.512 
L 157.077483 136.512 
L 165.401958 136.512 
L 173.726434 136.512 
L 182.050909 136.512 
L 190.375385 136.512 
L 198.69986 136.512 
L 207.024336 136.512 
L 215.348811 136.512 
L 223.673287 136.512 
L 231.997762 136.512 
L 240.322238 136.512 
L 248.646713 209.376 
L 256.971189 215.712 
L 265.295664 215.712 
L 273.62014 215.712 
L 281.944615 218.88 
L 290.269091 215.712 
L 298.593566 222.048 
L 306.918042 225.216 
L 315.242517 231.552 
L 323.566993 231.552 
L 331.891469 231.552 
L 340.215944 225.216 
L 348.54042 215.712 
L 356.864895 218.88 
L 365.189371 222.048 
L 373.513846 222.048 
L 381.838322 222.048 
L 390.162797 218.88 
L 398.487273 225.216 
L 398.487273 152.352 
L 398.487273 152.352 
L 390.162797 149.184 
L 381.838322 152.352 
L 373.513846 149.184 
L 365.189371 146.016 
L 356.864895 146.016 
L 348.54042 146.016 
L 340.215944 149.184 
L 331.891469 149.184 
L 323.566993 149.184 
L 315.242517 149.184 
L 306.918042 149.184 
L 298.593566 152.352 
L 290.269091 149.184 
L 281.944615 149.184 
L 273.62014 149.184 
L 265.295664 152.352 
L 256.971189 149.184 
L 248.646713 187.2 
L 240.322238 130.176 
L 231.997762 130.176 
L 223.673287 130.176 
L 215.348811 130.176 
L 207.024336 130.176 
L 198.69986 130.176 
L 190.375385 130.176 
L 182.050909 130.176 
L 173.726434 130.176 
L 165.401958 130.176 
L 157.077483 130.176 
L 148.753007 130.176 
L 140.428531 130.176 
L 132.104056 130.176 
L 123.77958 130.176 
L 115.455105 130.176 
L 107.130629 130.176 
L 98.806154 130.176 
L 90.481678 130.176 
L 82.157203 133.344 
L 73.832727 193.536 
z
" clip-path="url(#p5283456405)" style="fill: #7f7f7f"/>
   </g>
   <g id="PolyCollection_29">
    <path d="M 73.832727 190.368 
L 73.832727 193.536 
L 82.157203 133.344 
L 90.481678 130.176 
L 98.806154 130.176 
L 107.130629 130.176 
L 115.455105 130.176 
L 123.77958 130.176 
L 132.104056 130.176 
L 140.428531 130.176 
L 148.753007 130.176 
L 157.077483 130.176 
L 165.401958 130.176 
L 173.726434 130.176 
L 182.050909 130.176 
L 190.375385 130.176 
L 198.69986 130.176 
L 207.024336 130.176 
L 215.348811 130.176 
L 223.673287 130.176 
L 231.997762 130.176 
L 240.322238 130.176 
L 248.646713 187.2 
L 256.971189 149.184 
L 265.295664 152.352 
L 273.62014 149.184 
L 281.944615 149.184 
L 290.269091 149.184 
L 298.593566 152.352 
L 306.918042 149.184 
L 315.242517 149.184 
L 323.566993 149.184 
L 331.891469 149.184 
L 340.215944 149.184 
L 348.54042 146.016 
L 356.864895 146.016 
L 365.189371 146.016 
L 373.513846 149.184 
L 381.838322 152.352 
L 390.162797 149.184 
L 398.487273 152.352 
L 398.487273 152.352 
L 398.487273 152.352 
L 390.162797 149.184 
L 381.838322 152.352 
L 373.513846 149.184 
L 365.189371 146.016 
L 356.864895 146.016 
L 348.54042 146.016 
L 340.215944 149.184 
L 331.891469 149.184 
L 323.566993 149.184 
L 315.242517 149.184 
L 306.918042 149.184 
L 298.593566 152.352 
L 290.269091 149.184 
L 281.944615 149.184 
L 273.62014 149.184 
L 265.295664 152.352 
L 256.971189 149.184 
L 248.646713 180.864 
L 240.322238 123.84 
L 231.997762 123.84 
L 223.673287 123.84 
L 215.348811 123.84 
L 207.024336 123.84 
L 198.69986 123.84 
L 190.375385 123.84 
L 182.050909 123.84 
L 173.726434 123.84 
L 165.401958 123.84 
L 157.077483 123.84 
L 148.753007 123.84 
L 140.428531 123.84 
L 132.104056 123.84 
L 123.77958 123.84 
L 115.455105 123.84 
L 107.130629 123.84 
L 98.806154 123.84 
L 90.481678 123.84 
L 82.157203 127.008 
L 73.832727 190.368 
z
" clip-path="url(#p5283456405)" style="fill: #bcbd22"/>
   </g>
   <g id="PolyCollection_30">
    <path d="M 73.832727 187.2 
L 73.832727 190.368 
L 82.157203 127.008 
L 90.481678 123.84 
L 98.806154 123.84 
L 107.130629 123.84 
L 115.455105 123.84 
L 123.77958 123.84 
L 132.104056 123.84 
L 140.428531 123.84 
L 148.753007 123.84 
L 157.077483 123.84 
L 165.401958 123.84 
L 173.726434 123.84 
L 182.050909 123.84 
L 190.375385 123.84 
L 198.69986 123.84 
L 207.024336 123.84 
L 215.348811 123.84 
L 223.673287 123.84 
L 231.997762 123.84 
L 240.322238 123.84 
L 248.646713 180.864 
L 256.971189 149.184 
L 265.295664 152.352 
L 273.62014 149.184 
L 281.944615 149.184 
L 290.269091 149.184 
L 298.593566 152.352 
L 306.918042 149.184 
L 315.242517 149.184 
L 323.566993 149.184 
L 331.891469 149.184 
L 340.215944 149.184 
L 348.54042 146.016 
L 356.864895 146.016 
L 365.189371 146.016 
L 373.513846 149.184 
L 381.838322 152.352 
L 390.162797 149.184 
L 398.487273 152.352 
L 398.487273 152.352 
L 398.487273 152.352 
L 390.162797 149.184 
L 381.838322 152.352 
L 373.513846 149.184 
L 365.189371 146.016 
L 356.864895 146.016 
L 348.54042 146.016 
L 340.215944 149.184 
L 331.891469 149.184 
L 323.566993 149.184 
L 315.242517 149.184 
L 306.918042 149.184 
L 298.593566 152.352 
L 290.269091 149.184 
L 281.944615 149.184 
L 273.62014 149.184 
L 265.295664 152.352 
L 256.971189 149.184 
L 248.646713 174.528 
L 240.322238 117.504 
L 231.997762 117.504 
L 223.673287 117.504 
L 215.348811 117.504 
L 207.024336 117.504 
L 198.69986 117.504 
L 190.375385 117.504 
L 182.050909 117.504 
L 173.726434 117.504 
L 165.401958 117.504 
L 157.077483 117.504 
L 148.753007 117.504 
L 140.428531 117.504 
L 132.104056 117.504 
L 123.77958 117.504 
L 115.455105 117.504 
L 107.130629 117.504 
L 98.806154 117.504 
L 90.481678 117.504 
L 82.157203 120.672 
L 73.832727 187.2 
z
" clip-path="url(#p5283456405)" style="fill: #17becf"/>
   </g>
   <g id="PolyCollection_31">
    <path d="M 73.832727 180.864 
L 73.832727 187.2 
L 82.157203 120.672 
L 90.481678 117.504 
L 98.806154 117.504 
L 107.130629 117.504 
L 115.455105 117.504 
L 123.77958 117.504 
L 132.104056 117.504 
L 140.428531 117.504 
L 148.753007 117.504 
L 157.077483 117.504 
L 165.401958 117.504 
L 173.726434 117.504 
L 182.050909 117.504 
L 190.375385 117.504 
L 198.69986 117.504 
L 207.024336 117.504 
L 215.348811 117.504 
L 223.673287 117.504 
L 231.997762 117.504 
L 240.322238 117.504 
L 248.646713 174.528 
L 256.971189 149.184 
L 265.295664 152.352 
L 273.62014 149.184 
L 281.944615 149.184 
L 290.269091 149.184 
L 298.593566 152.352 
L 306.918042 149.184 
L 315.242517 149.184 
L 323.566993 149.184 
L 331.891469 149.184 
L 340.215944 149.184 
L 348.54042 146.016 
L 356.864895 146.016 
L 365.189371 146.016 
L 373.513846 149.184 
L 381.838322 152.352 
L 390.162797 149.184 
L 398.487273 152.352 
L 398.487273 152.352 
L 398.487273 152.352 
L 390.162797 149.184 
L 381.838322 152.352 
L 373.513846 149.184 
L 365.189371 146.016 
L 356.864895 146.016 
L 348.54042 146.016 
L 340.215944 149.184 
L 331.891469 149.184 
L 323.566993 149.184 
L 315.242517 149.184 
L 306.918042 149.184 
L 298.593566 152.352 
L 290.269091 149.184 
L 281.944615 149.184 
L 273.62014 149.184 
L 265.295664 152.352 
L 256.971189 149.184 
L 248.646713 174.528 
L 240.322238 111.168 
L 231.997762 111.168 
L 223.673287 111.168 
L 215.348811 111.168 
L 207.024336 111.168 
L 198.69986 111.168 
L 190.375385 111.168 
L 182.050909 111.168 
L 173.726434 111.168 
L 165.401958 111.168 
L 157.077483 111.168 
L 148.753007 111.168 
L 140.428531 111.168 
L 132.104056 111.168 
L 123.77958 111.168 
L 115.455105 111.168 
L 107.130629 111.168 
L 98.806154 111.168 
L 90.481678 111.168 
L 82.157203 114.336 
L 73.832727 180.864 
z
" clip-path="url(#p5283456405)" style="fill: #1f77b4"/>
   </g>
   <g id="PolyCollection_32">
    <path d="M 73.832727 177.696 
L 73.832727 180.864 
L 82.157203 114.336 
L 90.481678 111.168 
L 98.806154 111.168 
L 107.130629 111.168 
L 115.455105 111.168 
L 123.77958 111.168 
L 132.104056 111.168 
L 140.428531 111.168 
L 148.753007 111.168 
L 157.077483 111.168 
L 165.401958 111.168 
L 173.726434 111.168 
L 182.050909 111.168 
L 190.375385 111.168 
L 198.69986 111.168 
L 207.024336 111.168 
L 215.348811 111.168 
L 223.673287 111.168 
L 231.997762 111.168 
L 240.322238 111.168 
L 248.646713 174.528 
L 256.971189 149.184 
L 265.295664 152.352 
L 273.62014 149.184 
L 281.944615 149.184 
L 290.269091 149.184 
L 298.593566 152.352 
L 306.918042 149.184 
L 315.242517 149.184 
L 323.566993 149.184 
L 331.891469 149.184 
L 340.215944 149.184 
L 348.54042 146.016 
L 356.864895 146.016 
L 365.189371 146.016 
L 373.513846 149.184 
L 381.838322 152.352 
L 390.162797 149.184 
L 398.487273 152.352 
L 398.487273 152.352 
L 398.487273 152.352 
L 390.162797 149.184 
L 381.838322 152.352 
L 373.513846 149.184 
L 365.189371 146.016 
L 356.864895 146.016 
L 348.54042 146.016 
L 340.215944 149.184 
L 331.891469 149.184 
L 323.566993 149.184 
L 315.242517 149.184 
L 306.918042 149.184 
L 298.593566 152.352 
L 290.269091 149.184 
L 281.944615 149.184 
L 273.62014 149.184 
L 265.295664 152.352 
L 256.971189 149.184 
L 248.646713 168.192 
L 240.322238 104.832 
L 231.997762 104.832 
L 223.673287 104.832 
L 215.348811 104.832 
L 207.024336 104.832 
L 198.69986 104.832 
L 190.375385 104.832 
L 182.050909 104.832 
L 173.726434 104.832 
L 165.401958 104.832 
L 157.077483 104.832 
L 148.753007 104.832 
L 140.428531 104.832 
L 132.104056 104.832 
L 123.77958 104.832 
L 115.455105 104.832 
L 107.130629 104.832 
L 98.806154 104.832 
L 90.481678 104.832 
L 82.157203 108 
L 73.832727 177.696 
z
" clip-path="url(#p5283456405)" style="fill: #ff7f0e"/>
   </g>
   <g id="PolyCollection_33">
    <path d="M 73.832727 171.36 
L 73.832727 177.696 
L 82.157203 108 
L 90.481678 104.832 
L 98.806154 104.832 
L 107.130629 104.832 
L 115.455105 104.832 
L 123.77958 104.832 
L 132.104056 104.832 
L 140.428531 104.832 
L 148.753007 104.832 
L 157.077483 104.832 
L 165.401958 104.832 
L 173.726434 104.832 
L 182.050909 104.832 
L 190.375385 104.832 
L 198.69986 104.832 
L 207.024336 104.832 
L 215.348811 104.832 
L 223.673287 104.832 
L 231.997762 104.832 
L 240.322238 104.832 
L 248.646713 168.192 
L 256.971189 149.184 
L 265.295664 152.352 
L 273.62014 149.184 
L 281.944615 149.184 
L 290.269091 149.184 
L 298.593566 152.352 
L 306.918042 149.184 
L 315.242517 149.184 
L 323.566993 149.184 
L 331.891469 149.184 
L 340.215944 149.184 
L 348.54042 146.016 
L 356.864895 146.016 
L 365.189371 146.016 
L 373.513846 149.184 
L 381.838322 152.352 
L 390.162797 149.184 
L 398.487273 152.352 
L 398.487273 152.352 
L 398.487273 152.352 
L 390.162797 149.184 
L 381.838322 152.352 
L 373.513846 149.184 
L 365.189371 146.016 
L 356.864895 146.016 
L 348.54042 146.016 
L 340.215944 149.184 
L 331.891469 149.184 
L 323.566993 149.184 
L 315.242517 149.184 
L 306.918042 149.184 
L 298.593566 152.352 
L 290.269091 149.184 
L 281.944615 149.184 
L 273.62014 149.184 
L 265.295664 152.352 
L 256.971189 149.184 
L 248.646713 168.192 
L 240.322238 98.496 
L 231.997762 98.496 
L 223.673287 98.496 
L 215.348811 98.496 
L 207.024336 98.496 
L 198.69986 98.496 
L 190.375385 98.496 
L 182.050909 98.496 
L 173.726434 98.496 
L 165.401958 98.496 
L 157.077483 98.496 
L 148.753007 98.496 
L 140.428531 98.496 
L 132.104056 98.496 
L 123.77958 98.496 
L 115.455105 98.496 
L 107.130629 98.496 
L 98.806154 98.496 
L 90.481678 98.496 
L 82.157203 101.664 
L 73.832727 171.36 
z
" clip-path="url(#p5283456405)" style="fill: #2ca02c"/>
   </g>
   <g id="PolyCollection_34">
    <path d="M 73.832727 168.192 
L 73.832727 171.36 
L 82.157203 101.664 
L 90.481678 98.496 
L 98.806154 98.496 
L 107.130629 98.496 
L 115.455105 98.496 
L 123.77958 98.496 
L 132.104056 98.496 
L 140.428531 98.496 
L 148.753007 98.496 
L 157.077483 98.496 
L 165.401958 98.496 
L 173.726434 98.496 
L 182.050909 98.496 
L 190.375385 98.496 
L 198.69986 98.496 
L 207.024336 98.496 
L 215.348811 98.496 
L 223.673287 98.496 
L 231.997762 98.496 
L 240.322238 98.496 
L 248.646713 168.192 
L 256.971189 149.184 
L 265.295664 152.352 
L 273.62014 149.184 
L 281.944615 149.184 
L 290.269091 149.184 
L 298.593566 152.352 
L 306.918042 149.184 
L 315.242517 149.184 
L 323.566993 149.184 
L 331.891469 149.184 
L 340.215944 149.184 
L 348.54042 146.016 
L 356.864895 146.016 
L 365.189371 146.016 
L 373.513846 149.184 
L 381.838322 152.352 
L 390.162797 149.184 
L 398.487273 152.352 
L 398.487273 152.352 
L 398.487273 152.352 
L 390.162797 149.184 
L 381.838322 152.352 
L 373.513846 149.184 
L 365.189371 146.016 
L 356.864895 146.016 
L 348.54042 146.016 
L 340.215944 149.184 
L 331.891469 149.184 
L 323.566993 149.184 
L 315.242517 149.184 
L 306.918042 149.184 
L 298.593566 152.352 
L 290.269091 149.184 
L 281.944615 149.184 
L 273.62014 149.184 
L 265.295664 152.352 
L 256.971189 149.184 
L 248.646713 158.688 
L 240.322238 92.16 
L 231.997762 92.16 
L 223.673287 92.16 
L 215.348811 92.16 
L 207.024336 92.16 
L 198.69986 92.16 
L 190.375385 92.16 
L 182.050909 92.16 
L 173.726434 92.16 
L 165.401958 92.16 
L 157.077483 92.16 
L 148.753007 92.16 
L 140.428531 92.16 
L 132.104056 92.16 
L 123.77958 92.16 
L 115.455105 92.16 
L 107.130629 92.16 
L 98.806154 92.16 
L 90.481678 92.16 
L 82.157203 95.328 
L 73.832727 168.192 
z
" clip-path="url(#p5283456405)" style="fill: #d62728"/>
   </g>
   <g id="PolyCollection_35">
    <path d="M 73.832727 165.024 
L 73.832727 168.192 
L 82.157203 95.328 
L 90.481678 92.16 
L 98.806154 92.16 
L 107.130629 92.16 
L 115.455105 92.16 
L 123.77958 92.16 
L 132.104056 92.16 
L 140.428531 92.16 
L 148.753007 92.16 
L 157.077483 92.16 
L 165.401958 92.16 
L 173.726434 92.16 
L 182.050909 92.16 
L 190.375385 92.16 
L 198.69986 92.16 
L 207.024336 92.16 
L 215.348811 92.16 
L 223.673287 92.16 
L 231.997762 92.16 
L 240.322238 92.16 
L 248.646713 158.688 
L 256.971189 149.184 
L 265.295664 152.352 
L 273.62014 149.184 
L 281.944615 149.184 
L 290.269091 149.184 
L 298.593566 152.352 
L 306.918042 149.184 
L 315.242517 149.184 
L 323.566993 149.184 
L 331.891469 149.184 
L 340.215944 149.184 
L 348.54042 146.016 
L 356.864895 146.016 
L 365.189371 146.016 
L 373.513846 149.184 
L 381.838322 152.352 
L 390.162797 149.184 
L 398.487273 152.352 
L 398.487273 152.352 
L 398.487273 152.352 
L 390.162797 149.184 
L 381.838322 152.352 
L 373.513846 149.184 
L 365.189371 146.016 
L 356.864895 146.016 
L 348.54042 146.016 
L 340.215944 149.184 
L 331.891469 149.184 
L 323.566993 149.184 
L 315.242517 149.184 
L 306.918042 149.184 
L 298.593566 152.352 
L 290.269091 149.184 
L 281.944615 149.184 
L 273.62014 149.184 
L 265.295664 152.352 
L 256.971189 149.184 
L 248.646713 158.688 
L 240.322238 85.824 
L 231.997762 85.824 
L 223.673287 85.824 
L 215.348811 85.824 
L 207.024336 85.824 
L 198.69986 85.824 
L 190.375385 85.824 
L 182.050909 85.824 
L 173.726434 85.824 
L 165.401958 85.824 
L 157.077483 85.824 
L 148.753007 85.824 
L 140.428531 85.824 
L 132.104056 85.824 
L 123.77958 85.824 
L 115.455105 85.824 
L 107.130629 85.824 
L 98.806154 85.824 
L 90.481678 85.824 
L 82.157203 88.992 
L 73.832727 165.024 
z
" clip-path="url(#p5283456405)" style="fill: #9467bd"/>
   </g>
   <g id="PolyCollection_36">
    <path d="M 73.832727 161.856 
L 73.832727 165.024 
L 82.157203 88.992 
L 90.481678 85.824 
L 98.806154 85.824 
L 107.130629 85.824 
L 115.455105 85.824 
L 123.77958 85.824 
L 132.104056 85.824 
L 140.428531 85.824 
L 148.753007 85.824 
L 157.077483 85.824 
L 165.401958 85.824 
L 173.726434 85.824 
L 182.050909 85.824 
L 190.375385 85.824 
L 198.69986 85.824 
L 207.024336 85.824 
L 215.348811 85.824 
L 223.673287 85.824 
L 231.997762 85.824 
L 240.322238 85.824 
L 248.646713 158.688 
L 256.971189 149.184 
L 265.295664 152.352 
L 273.62014 149.184 
L 281.944615 149.184 
L 290.269091 149.184 
L 298.593566 152.352 
L 306.918042 149.184 
L 315.242517 149.184 
L 323.566993 149.184 
L 331.891469 149.184 
L 340.215944 149.184 
L 348.54042 146.016 
L 356.864895 146.016 
L 365.189371 146.016 
L 373.513846 149.184 
L 381.838322 152.352 
L 390.162797 149.184 
L 398.487273 152.352 
L 398.487273 152.352 
L 398.487273 152.352 
L 390.162797 149.184 
L 381.838322 152.352 
L 373.513846 149.184 
L 365.189371 146.016 
L 356.864895 146.016 
L 348.54042 146.016 
L 340.215944 149.184 
L 331.891469 149.184 
L 323.566993 149.184 
L 315.242517 149.184 
L 306.918042 149.184 
L 298.593566 152.352 
L 290.269091 149.184 
L 281.944615 149.184 
L 273.62014 149.184 
L 265.295664 152.352 
L 256.971189 149.184 
L 248.646713 158.688 
L 240.322238 79.488 
L 231.997762 79.488 
L 223.673287 79.488 
L 215.348811 79.488 
L 207.024336 79.488 
L 198.69986 79.488 
L 190.375385 79.488 
L 182.050909 79.488 
L 173.726434 79.488 
L 165.401958 79.488 
L 157.077483 79.488 
L 148.753007 79.488 
L 140.428531 79.488 
L 132.104056 79.488 
L 123.77958 79.488 
L 115.455105 79.488 
L 107.130629 79.488 
L 98.806154 79.488 
L 90.481678 79.488 
L 82.157203 82.656 
L 73.832727 161.856 
z
" clip-path="url(#p5283456405)" style="fill: #8c564b"/>
   </g>
   <g id="PolyCollection_37">
    <path d="M 73.832727 158.688 
L 73.832727 161.856 
L 82.157203 82.656 
L 90.481678 79.488 
L 98.806154 79.488 
L 107.130629 79.488 
L 115.455105 79.488 
L 123.77958 79.488 
L 132.104056 79.488 
L 140.428531 79.488 
L 148.753007 79.488 
L 157.077483 79.488 
L 165.401958 79.488 
L 173.726434 79.488 
L 182.050909 79.488 
L 190.375385 79.488 
L 198.69986 79.488 
L 207.024336 79.488 
L 215.348811 79.488 
L 223.673287 79.488 
L 231.997762 79.488 
L 240.322238 79.488 
L 248.646713 158.688 
L 256.971189 149.184 
L 265.295664 152.352 
L 273.62014 149.184 
L 281.944615 149.184 
L 290.269091 149.184 
L 298.593566 152.352 
L 306.918042 149.184 
L 315.242517 149.184 
L 323.566993 149.184 
L 331.891469 149.184 
L 340.215944 149.184 
L 348.54042 146.016 
L 356.864895 146.016 
L 365.189371 146.016 
L 373.513846 149.184 
L 381.838322 152.352 
L 390.162797 149.184 
L 398.487273 152.352 
L 398.487273 152.352 
L 398.487273 152.352 
L 390.162797 149.184 
L 381.838322 152.352 
L 373.513846 149.184 
L 365.189371 146.016 
L 356.864895 146.016 
L 348.54042 146.016 
L 340.215944 149.184 
L 331.891469 149.184 
L 323.566993 149.184 
L 315.242517 149.184 
L 306.918042 149.184 
L 298.593566 152.352 
L 290.269091 149.184 
L 281.944615 149.184 
L 273.62014 149.184 
L 265.295664 152.352 
L 256.971189 149.184 
L 248.646713 158.688 
L 240.322238 73.152 
L 231.997762 73.152 
L 223.673287 73.152 
L 215.348811 73.152 
L 207.024336 73.152 
L 198.69986 73.152 
L 190.375385 73.152 
L 182.050909 73.152 
L 173.726434 73.152 
L 165.401958 73.152 
L 157.077483 73.152 
L 148.753007 73.152 
L 140.428531 73.152 
L 132.104056 73.152 
L 123.77958 73.152 
L 115.455105 73.152 
L 107.130629 73.152 
L 98.806154 73.152 
L 90.481678 73.152 
L 82.157203 73.152 
L 73.832727 158.688 
z
" clip-path="url(#p5283456405)" style="fill: #e377c2"/>
   </g>
   <g id="PolyCollection_38">
    <path d="M 73.832727 155.52 
L 73.832727 158.688 
L 82.157203 73.152 
L 90.481678 73.152 
L 98.806154 73.152 
L 107.130629 73.152 
L 115.455105 73.152 
L 123.77958 73.152 
L 132.104056 73.152 
L 140.428531 73.152 
L 148.753007 73.152 
L 157.077483 73.152 
L 165.401958 73.152 
L 173.726434 73.152 
L 182.050909 73.152 
L 190.375385 73.152 
L 198.69986 73.152 
L 207.024336 73.152 
L 215.348811 73.152 
L 223.673287 73.152 
L 231.997762 73.152 
L 240.322238 73.152 
L 248.646713 158.688 
L 256.971189 149.184 
L 265.295664 152.352 
L 273.62014 149.184 
L 281.944615 149.184 
L 290.269091 149.184 
L 298.593566 152.352 
L 306.918042 149.184 
L 315.242517 149.184 
L 323.566993 149.184 
L 331.891469 149.184 
L 340.215944 149.184 
L 348.54042 146.016 
L 356.864895 146.016 
L 365.189371 146.016 
L 373.513846 149.184 
L 381.838322 152.352 
L 390.162797 149.184 
L 398.487273 152.352 
L 398.487273 152.352 
L 398.487273 152.352 
L 390.162797 149.184 
L 381.838322 152.352 
L 373.513846 149.184 
L 365.189371 146.016 
L 356.864895 146.016 
L 348.54042 146.016 
L 340.215944 149.184 
L 331.891469 149.184 
L 323.566993 149.184 
L 315.242517 149.184 
L 306.918042 149.184 
L 298.593566 152.352 
L 290.269091 149.184 
L 281.944615 149.184 
L 273.62014 149.184 
L 265.295664 152.352 
L 256.971189 149.184 
L 248.646713 158.688 
L 240.322238 66.816 
L 231.997762 66.816 
L 223.673287 66.816 
L 215.348811 66.816 
L 207.024336 66.816 
L 198.69986 66.816 
L 190.375385 66.816 
L 182.050909 66.816 
L 173.726434 66.816 
L 165.401958 66.816 
L 157.077483 66.816 
L 148.753007 66.816 
L 140.428531 66.816 
L 132.104056 66.816 
L 123.77958 66.816 
L 115.455105 66.816 
L 107.130629 66.816 
L 98.806154 66.816 
L 90.481678 66.816 
L 82.157203 66.816 
L 73.832727 155.52 
z
" clip-path="url(#p5283456405)" style="fill: #7f7f7f"/>
   </g>
   <g id="PolyCollection_39">
    <path d="M 73.832727 152.352 
L 73.832727 155.52 
L 82.157203 66.816 
L 90.481678 66.816 
L 98.806154 66.816 
L 107.130629 66.816 
L 115.455105 66.816 
L 123.77958 66.816 
L 132.104056 66.816 
L 140.428531 66.816 
L 148.753007 66.816 
L 157.077483 66.816 
L 165.401958 66.816 
L 173.726434 66.816 
L 182.050909 66.816 
L 190.375385 66.816 
L 198.69986 66.816 
L 207.024336 66.816 
L 215.348811 66.816 
L 223.673287 66.816 
L 231.997762 66.816 
L 240.322238 66.816 
L 248.646713 158.688 
L 256.971189 149.184 
L 265.295664 152.352 
L 273.62014 149.184 
L 281.944615 149.184 
L 290.269091 149.184 
L 298.593566 152.352 
L 306.918042 149.184 
L 315.242517 149.184 
L 323.566993 149.184 
L 331.891469 149.184 
L 340.215944 149.184 
L 348.54042 146.016 
L 356.864895 146.016 
L 365.189371 146.016 
L 373.513846 149.184 
L 381.838322 152.352 
L 390.162797 149.184 
L 398.487273 152.352 
L 398.487273 152.352 
L 398.487273 152.352 
L 390.162797 149.184 
L 381.838322 152.352 
L 373.513846 149.184 
L 365.189371 146.016 
L 356.864895 146.016 
L 348.54042 146.016 
L 340.215944 149.184 
L 331.891469 149.184 
L 323.566993 149.184 
L 315.242517 149.184 
L 306.918042 149.184 
L 298.593566 152.352 
L 290.269091 149.184 
L 281.944615 149.184 
L 273.62014 149.184 
L 265.295664 152.352 
L 256.971189 149.184 
L 248.646713 158.688 
L 240.322238 60.48 
L 231.997762 60.48 
L 223.673287 60.48 
L 215.348811 60.48 
L 207.024336 60.48 
L 198.69986 60.48 
L 190.375385 60.48 
L 182.050909 60.48 
L 173.726434 60.48 
L 165.401958 60.48 
L 157.077483 60.48 
L 148.753007 60.48 
L 140.428531 60.48 
L 132.104056 60.48 
L 123.77958 60.48 
L 115.455105 60.48 
L 107.130629 60.48 
L 98.806154 60.48 
L 90.481678 60.48 
L 82.157203 60.48 
L 73.832727 152.352 
z
" clip-path="url(#p5283456405)" style="fill: #bcbd22"/>
   </g>
   <g id="PolyCollection_40">
    <path d="M 73.832727 149.184 
L 73.832727 152.352 
L 82.157203 60.48 
L 90.481678 60.48 
L 98.806154 60.48 
L 107.130629 60.48 
L 115.455105 60.48 
L 123.77958 60.48 
L 132.104056 60.48 
L 140.428531 60.48 
L 148.753007 60.48 
L 157.077483 60.48 
L 165.401958 60.48 
L 173.726434 60.48 
L 182.050909 60.48 
L 190.375385 60.48 
L 198.69986 60.48 
L 207.024336 60.48 
L 215.348811 60.48 
L 223.673287 60.48 
L 231.997762 60.48 
L 240.322238 60.48 
L 248.646713 158.688 
L 256.971189 149.184 
L 265.295664 152.352 
L 273.62014 149.184 
L 281.944615 149.184 
L 290.269091 149.184 
L 298.593566 152.352 
L 306.918042 149.184 
L 315.242517 149.184 
L 323.566993 149.184 
L 331.891469 149.184 
L 340.215944 149.184 
L 348.54042 146.016 
L 356.864895 146.016 
L 365.189371 146.016 
L 373.513846 149.184 
L 381.838322 152.352 
L 390.162797 149.184 
L 398.487273 152.352 
L 398.487273 152.352 
L 398.487273 152.352 
L 390.162797 149.184 
L 381.838322 152.352 
L 373.513846 149.184 
L 365.189371 146.016 
L 356.864895 146.016 
L 348.54042 146.016 
L 340.215944 149.184 
L 331.891469 149.184 
L 323.566993 149.184 
L 315.242517 149.184 
L 306.918042 149.184 
L 298.593566 152.352 
L 290.269091 149.184 
L 281.944615 149.184 
L 273.62014 149.184 
L 265.295664 152.352 
L 256.971189 149.184 
L 248.646713 158.688 
L 240.322238 54.144 
L 231.997762 54.144 
L 223.673287 54.144 
L 215.348811 54.144 
L 207.024336 54.144 
L 198.69986 54.144 
L 190.375385 54.144 
L 182.050909 54.144 
L 173.726434 54.144 
L 165.401958 54.144 
L 157.077483 54.144 
L 148.753007 54.144 
L 140.428531 54.144 
L 132.104056 54.144 
L 123.77958 54.144 
L 115.455105 54.144 
L 107.130629 54.144 
L 98.806154 54.144 
L 90.481678 54.144 
L 82.157203 54.144 
L 73.832727 149.184 
z
" clip-path="url(#p5283456405)" style="fill: #17becf"/>
   </g>
   <g id="matplotlib.axis_1">
    <g id="xtick_1">
     <g id="line2d_1">
      <defs>
       <path id="m563c6834a6" d="M 0 0 
L 0 3.5 
" style="stroke: #000000; stroke-width: 0.8"/>
      </defs>
      <g>
       <use xlink:href="#m563c6834a6" x="73.832727" y="307.584" style="stroke: #000000; stroke-width: 0.8"/>
      </g>
     </g>
     <g id="text_1">
      <!-- 0 -->
      <g transform="translate(70.651477 322.182437) scale(0.1 -0.1)">
       <defs>
        <path id="DejaVuSans-30" d="M 2034 4250 
Q 1547 4250 1301 3770 
Q 1056 3291 1056 2328 
Q 1056 1369 1301 889 
Q 1547 409 2034 409 
Q 2525 409 2770 889 
Q 3016 1369 3016 2328 
Q 3016 3291 2770 3770 
Q 2525 4250 2034 4250 
z
M 2034 4750 
Q 2819 4750 3233 4129 
Q 3647 3509 3647 2328 
Q 3647 1150 3233 529 
Q 2819 -91 2034 -91 
Q 1250 -91 836 529 
Q 422 1150 422 2328 
Q 422 3509 836 4129 
Q 1250 4750 2034 4750 
z
" transform="scale(0.015625)"/>
       </defs>
       <use xlink:href="#DejaVuSans-30"/>
      </g>
     </g>
    </g>
    <g id="xtick_2">
     <g id="line2d_2">
      <g>
       <use xlink:href="#m563c6834a6" x="115.455105" y="307.584" style="stroke: #000000; stroke-width: 0.8"/>
      </g>
     </g>
     <g id="text_2">
      <!-- 5 -->
      <g transform="translate(112.273855 322.182437) scale(0.1 -0.1)">
       <defs>
        <path id="DejaVuSans-35" d="M 691 4666 
L 3169 4666 
L 3169 4134 
L 1269 4134 
L 1269 2991 
Q 1406 3038 1543 3061 
Q 1681 3084 1819 3084 
Q 2600 3084 3056 2656 
Q 3513 2228 3513 1497 
Q 3513 744 3044 326 
Q 2575 -91 1722 -91 
Q 1428 -91 1123 -41 
Q 819 9 494 109 
L 494 744 
Q 775 591 1075 516 
Q 1375 441 1709 441 
Q 2250 441 2565 725 
Q 2881 1009 2881 1497 
Q 2881 1984 2565 2268 
Q 2250 2553 1709 2553 
Q 1456 2553 1204 2497 
Q 953 2441 691 2322 
L 691 4666 
z
" transform="scale(0.015625)"/>
       </defs>
       <use xlink:href="#DejaVuSans-35"/>
      </g>
     </g>
    </g>
    <g id="xtick_3">
     <g id="line2d_3">
      <g>
       <use xlink:href="#m563c6834a6" x="157.077483" y="307.584" style="stroke: #000000; stroke-width: 0.8"/>
      </g>
     </g>
     <g id="text_3">
      <!-- 10 -->
      <g transform="translate(150.714983 322.182437) scale(0.1 -0.1)">
       <defs>
        <path id="DejaVuSans-31" d="M 794 531 
L 1825 531 
L 1825 4091 
L 703 3866 
L 703 4441 
L 1819 4666 
L 2450 4666 
L 2450 531 
L 3481 531 
L 3481 0 
L 794 0 
L 794 531 
z
" transform="scale(0.015625)"/>
       </defs>
       <use xlink:href="#DejaVuSans-31"/>
       <use xlink:href="#DejaVuSans-30" x="63.623047"/>
      </g>
     </g>
    </g>
    <g id="xtick_4">
     <g id="line2d_4">
      <g>
       <use xlink:href="#m563c6834a6" x="198.69986" y="307.584" style="stroke: #000000; stroke-width: 0.8"/>
      </g>
     </g>
     <g id="text_4">
      <!-- 15 -->
      <g transform="translate(192.33736 322.182437) scale(0.1 -0.1)">
       <use xlink:href="#DejaVuSans-31"/>
       <use xlink:href="#DejaVuSans-35" x="63.623047"/>
      </g>
     </g>
    </g>
    <g id="xtick_5">
     <g id="line2d_5">
      <g>
       <use xlink:href="#m563c6834a6" x="240.322238" y="307.584" style="stroke: #000000; stroke-width: 0.8"/>
      </g>
     </g>
     <g id="text_5">
      <!-- 20 -->
      <g transform="translate(233.959738 322.182437) scale(0.1 -0.1)">
       <defs>
        <path id="DejaVuSans-32" d="M 1228 531 
L 3431 531 
L 3431 0 
L 469 0 
L 469 531 
Q 828 903 1448 1529 
Q 2069 2156 2228 2338 
Q 2531 2678 2651 2914 
Q 2772 3150 2772 3378 
Q 2772 3750 2511 3984 
Q 2250 4219 1831 4219 
Q 1534 4219 1204 4116 
Q 875 4013 500 3803 
L 500 4441 
Q 881 4594 1212 4672 
Q 1544 4750 1819 4750 
Q 2544 4750 2975 4387 
Q 3406 4025 3406 3419 
Q 3406 3131 3298 2873 
Q 3191 2616 2906 2266 
Q 2828 2175 2409 1742 
Q 1991 1309 1228 531 
z
" transform="scale(0.015625)"/>
       </defs>
       <use xlink:href="#DejaVuSans-32"/>
       <use xlink:href="#DejaVuSans-30" x="63.623047"/>
      </g>
     </g>
    </g>
    <g id="xtick_6">
     <g id="line2d_6">
      <g>
       <use xlink:href="#m563c6834a6" x="281.944615" y="307.584" style="stroke: #000000; stroke-width: 0.8"/>
      </g>
     </g>
     <g id="text_6">
      <!-- 25 -->
      <g transform="translate(275.582115 322.182437) scale(0.1 -0.1)">
       <use xlink:href="#DejaVuSans-32"/>
       <use xlink:href="#DejaVuSans-35" x="63.623047"/>
      </g>
     </g>
    </g>
    <g id="xtick_7">
     <g id="line2d_7">
      <g>
       <use xlink:href="#m563c6834a6" x="323.566993" y="307.584" style="stroke: #000000; stroke-width: 0.8"/>
      </g>
     </g>
     <g id="text_7">
      <!-- 30 -->
      <g transform="translate(317.204493 322.182437) scale(0.1 -0.1)">
       <defs>
        <path id="DejaVuSans-33" d="M 2597 2516 
Q 3050 2419 3304 2112 
Q 3559 1806 3559 1356 
Q 3559 666 3084 287 
Q 2609 -91 1734 -91 
Q 1441 -91 1130 -33 
Q 819 25 488 141 
L 488 750 
Q 750 597 1062 519 
Q 1375 441 1716 441 
Q 2309 441 2620 675 
Q 2931 909 2931 1356 
Q 2931 1769 2642 2001 
Q 2353 2234 1838 2234 
L 1294 2234 
L 1294 2753 
L 1863 2753 
Q 2328 2753 2575 2939 
Q 2822 3125 2822 3475 
Q 2822 3834 2567 4026 
Q 2313 4219 1838 4219 
Q 1578 4219 1281 4162 
Q 984 4106 628 3988 
L 628 4550 
Q 988 4650 1302 4700 
Q 1616 4750 1894 4750 
Q 2613 4750 3031 4423 
Q 3450 4097 3450 3541 
Q 3450 3153 3228 2886 
Q 3006 2619 2597 2516 
z
" transform="scale(0.015625)"/>
       </defs>
       <use xlink:href="#DejaVuSans-33"/>
       <use xlink:href="#DejaVuSans-30" x="63.623047"/>
      </g>
     </g>
    </g>
    <g id="xtick_8">
     <g id="line2d_8">
      <g>
       <use xlink:href="#m563c6834a6" x="365.189371" y="307.584" style="stroke: #000000; stroke-width: 0.8"/>
      </g>
     </g>
     <g id="text_8">
      <!-- 35 -->
      <g transform="translate(358.826871 322.182437) scale(0.1 -0.1)">
       <use xlink:href="#DejaVuSans-33"/>
       <use xlink:href="#DejaVuSans-35" x="63.623047"/>
      </g>
     </g>
    </g>
    <g id="xtick_9">
     <g id="line2d_9">
      <g>
       <use xlink:href="#m563c6834a6" x="406.811748" y="307.584" style="stroke: #000000; stroke-width: 0.8"/>
      </g>
     </g>
     <g id="text_9">
      <!-- 40 -->
      <g transform="translate(400.449248 322.182437) scale(0.1 -0.1)">
       <defs>
        <path id="DejaVuSans-34" d="M 2419 4116 
L 825 1625 
L 2419 1625 
L 2419 4116 
z
M 2253 4666 
L 3047 4666 
L 3047 1625 
L 3713 1625 
L 3713 1100 
L 3047 1100 
L 3047 0 
L 2419 0 
L 2419 1100 
L 313 1100 
L 313 1709 
L 2253 4666 
z
" transform="scale(0.015625)"/>
       </defs>
       <use xlink:href="#DejaVuSans-34"/>
       <use xlink:href="#DejaVuSans-30" x="63.623047"/>
      </g>
     </g>
    </g>
    <g id="text_10">
     <!-- Generations -->
     <g transform="translate(205.662344 335.860562) scale(0.1 -0.1)">
      <defs>
       <path id="DejaVuSans-47" d="M 3809 666 
L 3809 1919 
L 2778 1919 
L 2778 2438 
L 4434 2438 
L 4434 434 
Q 4069 175 3628 42 
Q 3188 -91 2688 -91 
Q 1594 -91 976 548 
Q 359 1188 359 2328 
Q 359 3472 976 4111 
Q 1594 4750 2688 4750 
Q 3144 4750 3555 4637 
Q 3966 4525 4313 4306 
L 4313 3634 
Q 3963 3931 3569 4081 
Q 3175 4231 2741 4231 
Q 1884 4231 1454 3753 
Q 1025 3275 1025 2328 
Q 1025 1384 1454 906 
Q 1884 428 2741 428 
Q 3075 428 3337 486 
Q 3600 544 3809 666 
z
" transform="scale(0.015625)"/>
       <path id="DejaVuSans-65" d="M 3597 1894 
L 3597 1613 
L 953 1613 
Q 991 1019 1311 708 
Q 1631 397 2203 397 
Q 2534 397 2845 478 
Q 3156 559 3463 722 
L 3463 178 
Q 3153 47 2828 -22 
Q 2503 -91 2169 -91 
Q 1331 -91 842 396 
Q 353 884 353 1716 
Q 353 2575 817 3079 
Q 1281 3584 2069 3584 
Q 2775 3584 3186 3129 
Q 3597 2675 3597 1894 
z
M 3022 2063 
Q 3016 2534 2758 2815 
Q 2500 3097 2075 3097 
Q 1594 3097 1305 2825 
Q 1016 2553 972 2059 
L 3022 2063 
z
" transform="scale(0.015625)"/>
       <path id="DejaVuSans-6e" d="M 3513 2113 
L 3513 0 
L 2938 0 
L 2938 2094 
Q 2938 2591 2744 2837 
Q 2550 3084 2163 3084 
Q 1697 3084 1428 2787 
Q 1159 2491 1159 1978 
L 1159 0 
L 581 0 
L 581 3500 
L 1159 3500 
L 1159 2956 
Q 1366 3272 1645 3428 
Q 1925 3584 2291 3584 
Q 2894 3584 3203 3211 
Q 3513 2838 3513 2113 
z
" transform="scale(0.015625)"/>
       <path id="DejaVuSans-72" d="M 2631 2963 
Q 2534 3019 2420 3045 
Q 2306 3072 2169 3072 
Q 1681 3072 1420 2755 
Q 1159 2438 1159 1844 
L 1159 0 
L 581 0 
L 581 3500 
L 1159 3500 
L 1159 2956 
Q 1341 3275 1631 3429 
Q 1922 3584 2338 3584 
Q 2397 3584 2469 3576 
Q 2541 3569 2628 3553 
L 2631 2963 
z
" transform="scale(0.015625)"/>
       <path id="DejaVuSans-61" d="M 2194 1759 
Q 1497 1759 1228 1600 
Q 959 1441 959 1056 
Q 959 750 1161 570 
Q 1363 391 1709 391 
Q 2188 391 2477 730 
Q 2766 1069 2766 1631 
L 2766 1759 
L 2194 1759 
z
M 3341 1997 
L 3341 0 
L 2766 0 
L 2766 531 
Q 2569 213 2275 61 
Q 1981 -91 1556 -91 
Q 1019 -91 701 211 
Q 384 513 384 1019 
Q 384 1609 779 1909 
Q 1175 2209 1959 2209 
L 2766 2209 
L 2766 2266 
Q 2766 2663 2505 2880 
Q 2244 3097 1772 3097 
Q 1472 3097 1187 3025 
Q 903 2953 641 2809 
L 641 3341 
Q 956 3463 1253 3523 
Q 1550 3584 1831 3584 
Q 2591 3584 2966 3190 
Q 3341 2797 3341 1997 
z
" transform="scale(0.015625)"/>
       <path id="DejaVuSans-74" d="M 1172 4494 
L 1172 3500 
L 2356 3500 
L 2356 3053 
L 1172 3053 
L 1172 1153 
Q 1172 725 1289 603 
Q 1406 481 1766 481 
L 2356 481 
L 2356 0 
L 1766 0 
Q 1100 0 847 248 
Q 594 497 594 1153 
L 594 3053 
L 172 3053 
L 172 3500 
L 594 3500 
L 594 4494 
L 1172 4494 
z
" transform="scale(0.015625)"/>
       <path id="DejaVuSans-69" d="M 603 3500 
L 1178 3500 
L 1178 0 
L 603 0 
L 603 3500 
z
M 603 4863 
L 1178 4863 
L 1178 4134 
L 603 4134 
L 603 4863 
z
" transform="scale(0.015625)"/>
       <path id="DejaVuSans-6f" d="M 1959 3097 
Q 1497 3097 1228 2736 
Q 959 2375 959 1747 
Q 959 1119 1226 758 
Q 1494 397 1959 397 
Q 2419 397 2687 759 
Q 2956 1122 2956 1747 
Q 2956 2369 2687 2733 
Q 2419 3097 1959 3097 
z
M 1959 3584 
Q 2709 3584 3137 3096 
Q 3566 2609 3566 1747 
Q 3566 888 3137 398 
Q 2709 -91 1959 -91 
Q 1206 -91 779 398 
Q 353 888 353 1747 
Q 353 2609 779 3096 
Q 1206 3584 1959 3584 
z
" transform="scale(0.015625)"/>
       <path id="DejaVuSans-73" d="M 2834 3397 
L 2834 2853 
Q 2591 2978 2328 3040 
Q 2066 3103 1784 3103 
Q 1356 3103 1142 2972 
Q 928 2841 928 2578 
Q 928 2378 1081 2264 
Q 1234 2150 1697 2047 
L 1894 2003 
Q 2506 1872 2764 1633 
Q 3022 1394 3022 966 
Q 3022 478 2636 193 
Q 2250 -91 1575 -91 
Q 1294 -91 989 -36 
Q 684 19 347 128 
L 347 722 
Q 666 556 975 473 
Q 1284 391 1588 391 
Q 1994 391 2212 530 
Q 2431 669 2431 922 
Q 2431 1156 2273 1281 
Q 2116 1406 1581 1522 
L 1381 1569 
Q 847 1681 609 1914 
Q 372 2147 372 2553 
Q 372 3047 722 3315 
Q 1072 3584 1716 3584 
Q 2034 3584 2315 3537 
Q 2597 3491 2834 3397 
z
" transform="scale(0.015625)"/>
      </defs>
      <use xlink:href="#DejaVuSans-47"/>
      <use xlink:href="#DejaVuSans-65" x="77.490234"/>
      <use xlink:href="#DejaVuSans-6e" x="139.013672"/>
      <use xlink:href="#DejaVuSans-65" x="202.392578"/>
      <use xlink:href="#DejaVuSans-72" x="263.916016"/>
      <use xlink:href="#DejaVuSans-61" x="305.029297"/>
      <use xlink:href="#DejaVuSans-74" x="366.308594"/>
      <use xlink:href="#DejaVuSans-69" x="405.517578"/>
      <use xlink:href="#DejaVuSans-6f" x="433.300781"/>
      <use xlink:href="#DejaVuSans-6e" x="494.482422"/>
      <use xlink:href="#DejaVuSans-73" x="557.861328"/>
     </g>
    </g>
   </g>
   <g id="matplotlib.axis_2">
    <g id="ytick_1">
     <g id="line2d_10">
      <defs>
       <path id="mbfcf7a06f1" d="M 0 0 
L -3.5 0 
" style="stroke: #000000; stroke-width: 0.8"/>
      </defs>
      <g>
       <use xlink:href="#mbfcf7a06f1" x="57.6" y="307.584" style="stroke: #000000; stroke-width: 0.8"/>
      </g>
     </g>
     <g id="text_11">
      <!-- 0 -->
      <g transform="translate(44.2375 311.383219) scale(0.1 -0.1)">
       <use xlink:href="#DejaVuSans-30"/>
      </g>
     </g>
    </g>
    <g id="ytick_2">
     <g id="line2d_11">
      <g>
       <use xlink:href="#mbfcf7a06f1" x="57.6" y="275.904" style="stroke: #000000; stroke-width: 0.8"/>
      </g>
     </g>
     <g id="text_12">
      <!-- 10 -->
      <g transform="translate(37.875 279.703219) scale(0.1 -0.1)">
       <use xlink:href="#DejaVuSans-31"/>
       <use xlink:href="#DejaVuSans-30" x="63.623047"/>
      </g>
     </g>
    </g>
    <g id="ytick_3">
     <g id="line2d_12">
      <g>
       <use xlink:href="#mbfcf7a06f1" x="57.6" y="244.224" style="stroke: #000000; stroke-width: 0.8"/>
      </g>
     </g>
     <g id="text_13">
      <!-- 20 -->
      <g transform="translate(37.875 248.023219) scale(0.1 -0.1)">
       <use xlink:href="#DejaVuSans-32"/>
       <use xlink:href="#DejaVuSans-30" x="63.623047"/>
      </g>
     </g>
    </g>
    <g id="ytick_4">
     <g id="line2d_13">
      <g>
       <use xlink:href="#mbfcf7a06f1" x="57.6" y="212.544" style="stroke: #000000; stroke-width: 0.8"/>
      </g>
     </g>
     <g id="text_14">
      <!-- 30 -->
      <g transform="translate(37.875 216.343219) scale(0.1 -0.1)">
       <use xlink:href="#DejaVuSans-33"/>
       <use xlink:href="#DejaVuSans-30" x="63.623047"/>
      </g>
     </g>
    </g>
    <g id="ytick_5">
     <g id="line2d_14">
      <g>
       <use xlink:href="#mbfcf7a06f1" x="57.6" y="180.864" style="stroke: #000000; stroke-width: 0.8"/>
      </g>
     </g>
     <g id="text_15">
      <!-- 40 -->
      <g transform="translate(37.875 184.663219) scale(0.1 -0.1)">
       <use xlink:href="#DejaVuSans-34"/>
       <use xlink:href="#DejaVuSans-30" x="63.623047"/>
      </g>
     </g>
    </g>
    <g id="ytick_6">
     <g id="line2d_15">
      <g>
       <use xlink:href="#mbfcf7a06f1" x="57.6" y="149.184" style="stroke: #000000; stroke-width: 0.8"/>
      </g>
     </g>
     <g id="text_16">
      <!-- 50 -->
      <g transform="translate(37.875 152.983219) scale(0.1 -0.1)">
       <use xlink:href="#DejaVuSans-35"/>
       <use xlink:href="#DejaVuSans-30" x="63.623047"/>
      </g>
     </g>
    </g>
    <g id="ytick_7">
     <g id="line2d_16">
      <g>
       <use xlink:href="#mbfcf7a06f1" x="57.6" y="117.504" style="stroke: #000000; stroke-width: 0.8"/>
      </g>
     </g>
     <g id="text_17">
      <!-- 60 -->
      <g transform="translate(37.875 121.303219) scale(0.1 -0.1)">
       <defs>
        <path id="DejaVuSans-36" d="M 2113 2584 
Q 1688 2584 1439 2293 
Q 1191 2003 1191 1497 
Q 1191 994 1439 701 
Q 1688 409 2113 409 
Q 2538 409 2786 701 
Q 3034 994 3034 1497 
Q 3034 2003 2786 2293 
Q 2538 2584 2113 2584 
z
M 3366 4563 
L 3366 3988 
Q 3128 4100 2886 4159 
Q 2644 4219 2406 4219 
Q 1781 4219 1451 3797 
Q 1122 3375 1075 2522 
Q 1259 2794 1537 2939 
Q 1816 3084 2150 3084 
Q 2853 3084 3261 2657 
Q 3669 2231 3669 1497 
Q 3669 778 3244 343 
Q 2819 -91 2113 -91 
Q 1303 -91 875 529 
Q 447 1150 447 2328 
Q 447 3434 972 4092 
Q 1497 4750 2381 4750 
Q 2619 4750 2861 4703 
Q 3103 4656 3366 4563 
z
" transform="scale(0.015625)"/>
       </defs>
       <use xlink:href="#DejaVuSans-36"/>
       <use xlink:href="#DejaVuSans-30" x="63.623047"/>
      </g>
     </g>
    </g>
    <g id="ytick_8">
     <g id="line2d_17">
      <g>
       <use xlink:href="#mbfcf7a06f1" x="57.6" y="85.824" style="stroke: #000000; stroke-width: 0.8"/>
      </g>
     </g>
     <g id="text_18">
      <!-- 70 -->
      <g transform="translate(37.875 89.623219) scale(0.1 -0.1)">
       <defs>
        <path id="DejaVuSans-37" d="M 525 4666 
L 3525 4666 
L 3525 4397 
L 1831 0 
L 1172 0 
L 2766 4134 
L 525 4134 
L 525 4666 
z
" transform="scale(0.015625)"/>
       </defs>
       <use xlink:href="#DejaVuSans-37"/>
       <use xlink:href="#DejaVuSans-30" x="63.623047"/>
      </g>
     </g>
    </g>
    <g id="ytick_9">
     <g id="line2d_18">
      <g>
       <use xlink:href="#mbfcf7a06f1" x="57.6" y="54.144" style="stroke: #000000; stroke-width: 0.8"/>
      </g>
     </g>
     <g id="text_19">
      <!-- 80 -->
      <g transform="translate(37.875 57.943219) scale(0.1 -0.1)">
       <defs>
        <path id="DejaVuSans-38" d="M 2034 2216 
Q 1584 2216 1326 1975 
Q 1069 1734 1069 1313 
Q 1069 891 1326 650 
Q 1584 409 2034 409 
Q 2484 409 2743 651 
Q 3003 894 3003 1313 
Q 3003 1734 2745 1975 
Q 2488 2216 2034 2216 
z
M 1403 2484 
Q 997 2584 770 2862 
Q 544 3141 544 3541 
Q 544 4100 942 4425 
Q 1341 4750 2034 4750 
Q 2731 4750 3128 4425 
Q 3525 4100 3525 3541 
Q 3525 3141 3298 2862 
Q 3072 2584 2669 2484 
Q 3125 2378 3379 2068 
Q 3634 1759 3634 1313 
Q 3634 634 3220 271 
Q 2806 -91 2034 -91 
Q 1263 -91 848 271 
Q 434 634 434 1313 
Q 434 1759 690 2068 
Q 947 2378 1403 2484 
z
M 1172 3481 
Q 1172 3119 1398 2916 
Q 1625 2713 2034 2713 
Q 2441 2713 2670 2916 
Q 2900 3119 2900 3481 
Q 2900 3844 2670 4047 
Q 2441 4250 2034 4250 
Q 1625 4250 1398 4047 
Q 1172 3844 1172 3481 
z
" transform="scale(0.015625)"/>
       </defs>
       <use xlink:href="#DejaVuSans-38"/>
       <use xlink:href="#DejaVuSans-30" x="63.623047"/>
      </g>
     </g>
    </g>
    <g id="text_20">
     <!-- Size per Species -->
     <g transform="translate(31.795312 215.520969) rotate(-90) scale(0.1 -0.1)">
      <defs>
       <path id="DejaVuSans-53" d="M 3425 4513 
L 3425 3897 
Q 3066 4069 2747 4153 
Q 2428 4238 2131 4238 
Q 1616 4238 1336 4038 
Q 1056 3838 1056 3469 
Q 1056 3159 1242 3001 
Q 1428 2844 1947 2747 
L 2328 2669 
Q 3034 2534 3370 2195 
Q 3706 1856 3706 1288 
Q 3706 609 3251 259 
Q 2797 -91 1919 -91 
Q 1588 -91 1214 -16 
Q 841 59 441 206 
L 441 856 
Q 825 641 1194 531 
Q 1563 422 1919 422 
Q 2459 422 2753 634 
Q 3047 847 3047 1241 
Q 3047 1584 2836 1778 
Q 2625 1972 2144 2069 
L 1759 2144 
Q 1053 2284 737 2584 
Q 422 2884 422 3419 
Q 422 4038 858 4394 
Q 1294 4750 2059 4750 
Q 2388 4750 2728 4690 
Q 3069 4631 3425 4513 
z
" transform="scale(0.015625)"/>
       <path id="DejaVuSans-7a" d="M 353 3500 
L 3084 3500 
L 3084 2975 
L 922 459 
L 3084 459 
L 3084 0 
L 275 0 
L 275 525 
L 2438 3041 
L 353 3041 
L 353 3500 
z
" transform="scale(0.015625)"/>
       <path id="DejaVuSans-20" transform="scale(0.015625)"/>
       <path id="DejaVuSans-70" d="M 1159 525 
L 1159 -1331 
L 581 -1331 
L 581 3500 
L 1159 3500 
L 1159 2969 
Q 1341 3281 1617 3432 
Q 1894 3584 2278 3584 
Q 2916 3584 3314 3078 
Q 3713 2572 3713 1747 
Q 3713 922 3314 415 
Q 2916 -91 2278 -91 
Q 1894 -91 1617 61 
Q 1341 213 1159 525 
z
M 3116 1747 
Q 3116 2381 2855 2742 
Q 2594 3103 2138 3103 
Q 1681 3103 1420 2742 
Q 1159 2381 1159 1747 
Q 1159 1113 1420 752 
Q 1681 391 2138 391 
Q 2594 391 2855 752 
Q 3116 1113 3116 1747 
z
" transform="scale(0.015625)"/>
       <path id="DejaVuSans-63" d="M 3122 3366 
L 3122 2828 
Q 2878 2963 2633 3030 
Q 2388 3097 2138 3097 
Q 1578 3097 1268 2742 
Q 959 2388 959 1747 
Q 959 1106 1268 751 
Q 1578 397 2138 397 
Q 2388 397 2633 464 
Q 2878 531 3122 666 
L 3122 134 
Q 2881 22 2623 -34 
Q 2366 -91 2075 -91 
Q 1284 -91 818 406 
Q 353 903 353 1747 
Q 353 2603 823 3093 
Q 1294 3584 2113 3584 
Q 2378 3584 2631 3529 
Q 2884 3475 3122 3366 
z
" transform="scale(0.015625)"/>
      </defs>
      <use xlink:href="#DejaVuSans-53"/>
      <use xlink:href="#DejaVuSans-69" x="63.476562"/>
      <use xlink:href="#DejaVuSans-7a" x="91.259766"/>
      <use xlink:href="#DejaVuSans-65" x="143.75"/>
      <use xlink:href="#DejaVuSans-20" x="205.273438"/>
      <use xlink:href="#DejaVuSans-70" x="237.060547"/>
      <use xlink:href="#DejaVuSans-65" x="300.537109"/>
      <use xlink:href="#DejaVuSans-72" x="362.060547"/>
      <use xlink:href="#DejaVuSans-20" x="403.173828"/>
      <use xlink:href="#DejaVuSans-53" x="434.960938"/>
      <use xlink:href="#DejaVuSans-70" x="498.4375"/>
      <use xlink:href="#DejaVuSans-65" x="561.914062"/>
      <use xlink:href="#DejaVuSans-63" x="623.4375"/>
      <use xlink:href="#DejaVuSans-69" x="678.417969"/>
      <use xlink:href="#DejaVuSans-65" x="706.201172"/>
      <use xlink:href="#DejaVuSans-73" x="767.724609"/>
     </g>
    </g>
   </g>
   <g id="patch_3">
    <path d="M 57.6 307.584 
L 57.6 41.472 
" style="fill: none; stroke: #000000; stroke-width: 0.8; stroke-linejoin: miter; stroke-linecap: square"/>
   </g>
   <g id="patch_4">
    <path d="M 414.72 307.584 
L 414.72 41.472 
" style="fill: none; stroke: #000000; stroke-width: 0.8; stroke-linejoin: miter; stroke-linecap: square"/>
   </g>
   <g id="patch_5">
    <path d="M 57.6 307.584 
L 414.72 307.584 
" style="fill: none; stroke: #000000; stroke-width: 0.8; stroke-linejoin: miter; stroke-linecap: square"/>
   </g>
   <g id="patch_6">
    <path d="M 57.6 41.472 
L 414.72 41.472 
" style="fill: none; stroke: #000000; stroke-width: 0.8; stroke-linejoin: miter; stroke-linecap: square"/>
   </g>
   <g id="text_21">
    <!-- Speciation -->
    <g transform="translate(204.714375 35.472) scale(0.12 -0.12)">
     <use xlink:href="#DejaVuSans-53"/>
     <use xlink:href="#DejaVuSans-70" x="63.476562"/>
     <use xlink:href="#DejaVuSans-65" x="126.953125"/>
     <use xlink:href="#DejaVuSans-63" x="188.476562"/>
     <use xlink:href="#DejaVuSans-69" x="243.457031"/>
     <use xlink:href="#DejaVuSans-61" x="271.240234"/>
     <use xlink:href="#DejaVuSans-74" x="332.519531"/>
     <use xlink:href="#DejaVuSans-69" x="371.728516"/>
     <use xlink:href="#DejaVuSans-6f" x="399.511719"/>
     <use xlink:href="#DejaVuSans-6e" x="460.693359"/>
    </g>
   </g>
  </g>
 </g>
 <defs>
  <clipPath id="p5283456405">
   <rect x="57.6" y="41.472" width="357.12" height="266.112"/>
  </clipPath>
 </defs>
</svg>
