<?xml version="1.0" encoding="UTF-8" standalone="no"?>
<!DOCTYPE svg PUBLIC "-//W3C//DTD SVG 1.1//EN"
 "http://www.w3.org/Graphics/SVG/1.1/DTD/svg11.dtd">
<!-- Generated by graphviz version 2.44.0 (0)
 -->
<!-- Pages: 1 -->
<svg width="2981pt" height="180pt"
 viewBox="0.00 0.00 2980.87 180.02" xmlns="http://www.w3.org/2000/svg" xmlns:xlink="http://www.w3.org/1999/xlink">
<g id="graph0" class="graph" transform="scale(1 1) rotate(0) translate(4 176.02)">
<polygon fill="white" stroke="transparent" points="-4,4 -4,-176.02 2976.87,-176.02 2976.87,4 -4,4"/>
<!-- &#45;1 -->
<g id="node1" class="node">
<title>&#45;1</title>
<polygon fill="lightgray" stroke="black" points="1163.4,-172.02 1137.4,-172.02 1137.4,-154.02 1163.4,-154.02 1163.4,-172.02"/>
<text text-anchor="middle" x="1150.4" y="-160.82" font-family="Times-Roman" font-size="9.00">&#45;1</text>
</g>
<!-- 0 -->
<g id="node9" class="node">
<title>0</title>
<ellipse fill="lightblue" stroke="black" cx="964.4" cy="-16.26" rx="16.03" ry="16.03"/>
<text text-anchor="middle" x="964.4" y="-14.06" font-family="Times-Roman" font-size="9.00">0</text>
</g>
<!-- &#45;1&#45;&gt;0 -->
<g id="edge145" class="edge">
<title>&#45;1&#45;&gt;0</title>
<path fill="none" stroke="red" stroke-width="0.14" d="M1137.33,-162.03C1013.6,-162.04 52.48,-160.72 11.4,-118.02 -3.85,-102.17 -3.73,-84.49 11.4,-68.53 44.17,-33.95 787.27,-20.12 937.91,-17.67"/>
<polygon fill="red" stroke="red" stroke-width="0.14" points="938.14,-21.17 948.09,-17.51 938.03,-14.17 938.14,-21.17"/>
</g>
<!-- 1 -->
<g id="node10" class="node">
<title>1</title>
<ellipse fill="lightblue" stroke="black" cx="1015.4" cy="-16.26" rx="16.03" ry="16.03"/>
<text text-anchor="middle" x="1015.4" y="-14.06" font-family="Times-Roman" font-size="9.00">1</text>
</g>
<!-- &#45;1&#45;&gt;1 -->
<g id="edge146" class="edge">
<title>&#45;1&#45;&gt;1</title>
<path fill="none" stroke="red" stroke-width="0.45" d="M1137.33,-161.95C1023.17,-161.25 198.71,-154.94 163.4,-118.02 148.2,-102.13 148.19,-84.42 163.4,-68.53 226.93,-2.17 901.3,-58.55 989.4,-32.53 990.67,-32.15 991.95,-31.7 993.21,-31.19"/>
<polygon fill="red" stroke="red" stroke-width="0.45" points="995.13,-34.14 1002.48,-26.51 991.98,-27.9 995.13,-34.14"/>
</g>
<!-- 2 -->
<g id="node11" class="node">
<title>2</title>
<ellipse fill="lightblue" stroke="black" cx="1124.4" cy="-16.26" rx="16.03" ry="16.03"/>
<text text-anchor="middle" x="1124.4" y="-14.06" font-family="Times-Roman" font-size="9.00">2</text>
</g>
<!-- &#45;1&#45;&gt;2 -->
<g id="edge147" class="edge">
<title>&#45;1&#45;&gt;2</title>
<path fill="none" stroke="red" stroke-width="0.59" d="M1137.19,-162.23C1046.23,-163.5 514.95,-168.73 467.4,-118.02 452.35,-101.98 452.34,-84.56 467.4,-68.53 511.07,-22.03 977.08,-40.24 1040.4,-32.53 1060.07,-30.13 1082.11,-26.07 1098.68,-22.74"/>
<polygon fill="red" stroke="red" stroke-width="0.59" points="1099.6,-26.13 1108.69,-20.69 1098.19,-19.27 1099.6,-26.13"/>
</g>
<!-- 3 -->
<g id="node12" class="node">
<title>3</title>
<ellipse fill="lightblue" stroke="black" cx="1258.4" cy="-16.26" rx="16.03" ry="16.03"/>
<text text-anchor="middle" x="1258.4" y="-14.06" font-family="Times-Roman" font-size="9.00">3</text>
</g>
<!-- &#45;1&#45;&gt;3 -->
<g id="edge148" class="edge">
<title>&#45;1&#45;&gt;3</title>
<path fill="none" stroke="green" stroke-width="0.45" d="M1137.1,-161.28C1077.74,-157.85 838.93,-142.58 817.4,-118.02 802.9,-101.48 802.71,-84.9 817.4,-68.53 866.97,-13.3 1075.76,-41.67 1149.4,-32.53 1177.76,-29.01 1210.18,-24.39 1232.24,-21.16"/>
<polygon fill="green" stroke="green" stroke-width="0.45" points="1232.79,-24.62 1242.17,-19.7 1231.77,-17.69 1232.79,-24.62"/>
</g>
<!-- 4 -->
<g id="node13" class="node">
<title>4</title>
<ellipse fill="lightblue" stroke="black" cx="1467.4" cy="-16.26" rx="16.03" ry="16.03"/>
<text text-anchor="middle" x="1467.4" y="-14.06" font-family="Times-Roman" font-size="9.00">4</text>
</g>
<!-- &#45;1&#45;&gt;4 -->
<g id="edge149" class="edge">
<title>&#45;1&#45;&gt;4</title>
<path fill="none" stroke="red" stroke-width="0.32" d="M1163.73,-156.56C1166.56,-155.58 1169.55,-154.66 1172.4,-154.02 1256.89,-135.07 1502.07,-182.02 1560.4,-118.02 1575.22,-101.77 1571.69,-87.41 1560.4,-68.53 1543.05,-39.51 1522.87,-49.09 1493.4,-32.53 1492.27,-31.89 1491.12,-31.24 1489.95,-30.57"/>
<polygon fill="red" stroke="red" stroke-width="0.32" points="1491.52,-27.43 1481.11,-25.44 1488,-33.49 1491.52,-27.43"/>
</g>
<!-- 5 -->
<g id="node14" class="node">
<title>5</title>
<ellipse fill="lightblue" stroke="black" cx="1518.4" cy="-16.26" rx="16.03" ry="16.03"/>
<text text-anchor="middle" x="1518.4" y="-14.06" font-family="Times-Roman" font-size="9.00">5</text>
</g>
<!-- &#45;1&#45;&gt;5 -->
<g id="edge150" class="edge">
<title>&#45;1&#45;&gt;5</title>
<path fill="none" stroke="green" stroke-width="0.16" d="M1163.73,-156.55C1166.56,-155.57 1169.55,-154.66 1172.4,-154.02 1216.61,-144.2 1547.83,-151.43 1578.4,-118.02 1593.25,-101.8 1587.61,-88.51 1578.4,-68.53 1574.19,-59.39 1555.08,-43.88 1539.54,-32.3"/>
<polygon fill="green" stroke="green" stroke-width="0.16" points="1541.53,-29.42 1531.39,-26.34 1537.4,-35.07 1541.53,-29.42"/>
</g>
<!-- 6 -->
<g id="node15" class="node">
<title>6</title>
<ellipse fill="lightblue" stroke="black" cx="1569.4" cy="-16.26" rx="16.03" ry="16.03"/>
<text text-anchor="middle" x="1569.4" y="-14.06" font-family="Times-Roman" font-size="9.00">6</text>
</g>
<!-- &#45;1&#45;&gt;6 -->
<g id="edge151" class="edge">
<title>&#45;1&#45;&gt;6</title>
<path fill="none" stroke="red" stroke-width="0.68" d="M1163.73,-156.54C1166.55,-155.56 1169.54,-154.65 1172.4,-154.02 1218.58,-143.86 1564.41,-152.84 1596.4,-118.02 1616.65,-95.99 1599.51,-60.42 1584.81,-37.97"/>
<polygon fill="red" stroke="red" stroke-width="0.68" points="1587.54,-35.76 1578.98,-29.51 1581.77,-39.73 1587.54,-35.76"/>
</g>
<!-- 7 -->
<g id="node16" class="node">
<title>7</title>
<ellipse fill="lightblue" stroke="black" cx="1620.4" cy="-16.26" rx="16.03" ry="16.03"/>
<text text-anchor="middle" x="1620.4" y="-14.06" font-family="Times-Roman" font-size="9.00">7</text>
</g>
<!-- &#45;1&#45;&gt;7 -->
<g id="edge152" class="edge">
<title>&#45;1&#45;&gt;7</title>
<path fill="none" stroke="green" stroke-width="0.2" d="M1163.73,-156.53C1166.55,-155.55 1169.54,-154.65 1172.4,-154.02 1220.54,-143.51 1579.94,-153.24 1614.4,-118.02 1633.66,-98.34 1631.54,-64.87 1627.03,-41.94"/>
<polygon fill="green" stroke="green" stroke-width="0.2" points="1630.39,-40.93 1624.78,-31.94 1623.56,-42.46 1630.39,-40.93"/>
</g>
<!-- 278 -->
<g id="node17" class="node">
<title>278</title>
<ellipse fill="white" stroke="black" cx="990.4" cy="-93.28" rx="25" ry="25"/>
<text text-anchor="middle" x="990.4" y="-91.08" font-family="Times-Roman" font-size="9.00">278</text>
</g>
<!-- &#45;1&#45;&gt;278 -->
<g id="edge1" class="edge">
<title>&#45;1&#45;&gt;278</title>
<path fill="none" stroke="red" stroke-width="0.81" d="M1137.28,-158.83C1113.65,-152.79 1062.75,-138.44 1023.4,-118.02 1021.62,-117.1 1019.82,-116.08 1018.04,-115.01"/>
<polygon fill="red" stroke="red" stroke-width="0.81" points="1019.63,-111.87 1009.34,-109.32 1015.79,-117.73 1019.63,-111.87"/>
</g>
<!-- 279 -->
<g id="node18" class="node">
<title>279</title>
<ellipse fill="white" stroke="black" cx="1057.4" cy="-93.28" rx="25" ry="25"/>
<text text-anchor="middle" x="1057.4" y="-91.08" font-family="Times-Roman" font-size="9.00">279</text>
</g>
<!-- &#45;1&#45;&gt;279 -->
<g id="edge2" class="edge">
<title>&#45;1&#45;&gt;279</title>
<path fill="none" stroke="green" stroke-width="0.49" d="M1139.37,-153.99C1126.22,-144.41 1103.76,-128.04 1085.67,-114.87"/>
<polygon fill="green" stroke="green" stroke-width="0.49" points="1087.34,-111.76 1077.2,-108.7 1083.22,-117.41 1087.34,-111.76"/>
</g>
<!-- 280 -->
<g id="node19" class="node">
<title>280</title>
<ellipse fill="white" stroke="black" cx="1124.4" cy="-93.28" rx="25" ry="25"/>
<text text-anchor="middle" x="1124.4" y="-91.08" font-family="Times-Roman" font-size="9.00">280</text>
</g>
<!-- &#45;1&#45;&gt;280 -->
<g id="edge3" class="edge">
<title>&#45;1&#45;&gt;280</title>
<path fill="none" stroke="green" stroke-width="0.1" d="M1147.32,-153.99C1144.62,-146.96 1140.52,-136.27 1136.53,-125.87"/>
<polygon fill="green" stroke="green" stroke-width="0.1" points="1139.79,-124.6 1132.94,-116.51 1133.25,-127.1 1139.79,-124.6"/>
</g>
<!-- 281 -->
<g id="node20" class="node">
<title>281</title>
<ellipse fill="white" stroke="black" cx="1191.4" cy="-93.28" rx="25" ry="25"/>
<text text-anchor="middle" x="1191.4" y="-91.08" font-family="Times-Roman" font-size="9.00">281</text>
</g>
<!-- &#45;1&#45;&gt;281 -->
<g id="edge4" class="edge">
<title>&#45;1&#45;&gt;281</title>
<path fill="none" stroke="green" stroke-width="0.73" d="M1155.27,-153.99C1159.85,-146.41 1167.01,-134.58 1173.75,-123.45"/>
<polygon fill="green" stroke="green" stroke-width="0.73" points="1176.82,-125.13 1179,-114.76 1170.83,-121.51 1176.82,-125.13"/>
</g>
<!-- 282 -->
<g id="node21" class="node">
<title>282</title>
<ellipse fill="white" stroke="black" cx="1258.4" cy="-93.28" rx="25" ry="25"/>
<text text-anchor="middle" x="1258.4" y="-91.08" font-family="Times-Roman" font-size="9.00">282</text>
</g>
<!-- &#45;1&#45;&gt;282 -->
<g id="edge5" class="edge">
<title>&#45;1&#45;&gt;282</title>
<path fill="none" stroke="green" stroke-width="0.27" d="M1163.63,-154.76C1178.8,-146.31 1204.28,-131.78 1225.4,-118.02 1227.04,-116.96 1228.72,-115.84 1230.4,-114.7"/>
<polygon fill="green" stroke="green" stroke-width="0.27" points="1232.52,-117.49 1238.72,-108.9 1228.51,-111.75 1232.52,-117.49"/>
</g>
<!-- 283 -->
<g id="node22" class="node">
<title>283</title>
<ellipse fill="white" stroke="black" cx="1325.4" cy="-93.28" rx="25" ry="25"/>
<text text-anchor="middle" x="1325.4" y="-91.08" font-family="Times-Roman" font-size="9.00">283</text>
</g>
<!-- &#45;1&#45;&gt;283 -->
<g id="edge6" class="edge">
<title>&#45;1&#45;&gt;283</title>
<path fill="none" stroke="green" stroke-width="0.45" d="M1163.86,-156.99C1166.67,-155.98 1169.62,-154.95 1172.4,-154.02 1225.25,-136.5 1242.45,-142.63 1292.4,-118.02 1294.21,-117.14 1296.02,-116.15 1297.81,-115.1"/>
<polygon fill="green" stroke="green" stroke-width="0.45" points="1300.03,-117.83 1306.54,-109.47 1296.24,-111.95 1300.03,-117.83"/>
</g>
<!-- 285 -->
<g id="node23" class="node">
<title>285</title>
<ellipse fill="white" stroke="black" cx="1392.4" cy="-93.28" rx="25" ry="25"/>
<text text-anchor="middle" x="1392.4" y="-91.08" font-family="Times-Roman" font-size="9.00">285</text>
</g>
<!-- &#45;1&#45;&gt;285 -->
<g id="edge7" class="edge">
<title>&#45;1&#45;&gt;285</title>
<path fill="none" stroke="red" stroke-width="0.16" d="M1163.79,-156.77C1166.61,-155.78 1169.58,-154.8 1172.4,-154.02 1253.98,-131.49 1281.68,-151.53 1359.4,-118.02 1361.25,-117.23 1363.09,-116.31 1364.91,-115.32"/>
<polygon fill="red" stroke="red" stroke-width="0.16" points="1367.07,-118.1 1373.71,-109.84 1363.37,-112.16 1367.07,-118.1"/>
</g>
<!-- 286 -->
<g id="node24" class="node">
<title>286</title>
<ellipse fill="white" stroke="black" cx="1459.4" cy="-93.28" rx="25" ry="25"/>
<text text-anchor="middle" x="1459.4" y="-91.08" font-family="Times-Roman" font-size="9.00">286</text>
</g>
<!-- &#45;1&#45;&gt;286 -->
<g id="edge8" class="edge">
<title>&#45;1&#45;&gt;286</title>
<path fill="none" stroke="red" stroke-width="0.21" stroke-dasharray="1,5" d="M1163.76,-156.67C1166.58,-155.68 1169.56,-154.73 1172.4,-154.02 1283.02,-126.39 1320.62,-160.56 1426.4,-118.02 1428.27,-117.27 1430.13,-116.4 1431.96,-115.43"/>
<polygon fill="red" stroke="red" stroke-width="0.21" points="1434.09,-118.23 1440.78,-110.02 1430.43,-112.26 1434.09,-118.23"/>
</g>
<!-- 287 -->
<g id="node25" class="node">
<title>287</title>
<ellipse fill="white" stroke="black" cx="1526.4" cy="-93.28" rx="25" ry="25"/>
<text text-anchor="middle" x="1526.4" y="-91.08" font-family="Times-Roman" font-size="9.00">287</text>
</g>
<!-- &#45;1&#45;&gt;287 -->
<g id="edge9" class="edge">
<title>&#45;1&#45;&gt;287</title>
<path fill="none" stroke="red" stroke-width="0.32" stroke-dasharray="1,5" d="M1163.74,-156.6C1166.57,-155.62 1169.55,-154.69 1172.4,-154.02 1312.17,-121.26 1359.44,-169.64 1493.4,-118.02 1495.28,-117.3 1497.15,-116.44 1498.99,-115.49"/>
<polygon fill="red" stroke="red" stroke-width="0.32" points="1501.09,-118.31 1507.82,-110.13 1497.46,-112.32 1501.09,-118.31"/>
</g>
<!-- &#45;2 -->
<g id="node2" class="node">
<title>&#45;2</title>
<polygon fill="lightgray" stroke="black" points="1207.4,-172.02 1181.4,-172.02 1181.4,-154.02 1207.4,-154.02 1207.4,-172.02"/>
<text text-anchor="middle" x="1194.4" y="-160.82" font-family="Times-Roman" font-size="9.00">&#45;2</text>
</g>
<!-- &#45;2&#45;&gt;0 -->
<g id="edge153" class="edge">
<title>&#45;2&#45;&gt;0</title>
<path fill="none" stroke="green" stroke-width="0.22" d="M1181.1,-156.43C1178.27,-155.45 1175.27,-154.58 1172.4,-154.02 1111.11,-142.21 92.83,-162.86 49.4,-118.02 34.1,-102.22 34.29,-84.51 49.4,-68.53 80.73,-35.39 789.88,-20.49 937.6,-17.74"/>
<polygon fill="green" stroke="green" stroke-width="0.22" points="938.04,-21.23 947.98,-17.55 937.91,-14.23 938.04,-21.23"/>
</g>
<!-- &#45;2&#45;&gt;1 -->
<g id="edge154" class="edge">
<title>&#45;2&#45;&gt;1</title>
<path fill="none" stroke="red" stroke-width="0.47" d="M1181.09,-156.44C1178.27,-155.46 1175.27,-154.59 1172.4,-154.02 1119.42,-143.68 238.86,-156.9 201.4,-118.02 186.14,-102.18 186.21,-84.43 201.4,-68.53 261.95,-5.15 905.37,-57.44 989.4,-32.53 990.67,-32.15 991.95,-31.7 993.21,-31.19"/>
<polygon fill="red" stroke="red" stroke-width="0.47" points="995.13,-34.14 1002.48,-26.5 991.98,-27.89 995.13,-34.14"/>
</g>
<!-- &#45;2&#45;&gt;2 -->
<g id="edge155" class="edge">
<title>&#45;2&#45;&gt;2</title>
<path fill="none" stroke="red" stroke-width="0.3" d="M1181.09,-156.47C1178.26,-155.5 1175.27,-154.61 1172.4,-154.02 1099.68,-139.18 556.45,-171.9 505.4,-118.02 490.27,-102.06 490.38,-84.6 505.4,-68.53 546.09,-25.01 981.28,-39.86 1040.4,-32.53 1060.07,-30.09 1082.11,-26.03 1098.67,-22.71"/>
<polygon fill="red" stroke="red" stroke-width="0.3" points="1099.6,-26.1 1108.69,-20.66 1098.19,-19.24 1099.6,-26.1"/>
</g>
<!-- &#45;2&#45;&gt;3 -->
<g id="edge156" class="edge">
<title>&#45;2&#45;&gt;3</title>
<path fill="none" stroke="red" stroke-width="0.12" d="M1181.06,-156.59C1178.24,-155.6 1175.25,-154.68 1172.4,-154.02 1098.38,-136.92 883.22,-174.51 832.4,-118.02 817.69,-101.67 817.75,-84.94 832.4,-68.53 879.62,-15.64 1079.07,-41.44 1149.4,-32.53 1177.75,-28.93 1210.17,-24.33 1232.23,-21.12"/>
<polygon fill="red" stroke="red" stroke-width="0.12" points="1232.78,-24.58 1242.17,-19.67 1231.77,-17.65 1232.78,-24.58"/>
</g>
<!-- &#45;2&#45;&gt;4 -->
<g id="edge157" class="edge">
<title>&#45;2&#45;&gt;4</title>
<path fill="none" stroke="red" stroke-width="0.14" d="M1207.73,-156.53C1210.55,-155.55 1213.54,-154.65 1216.4,-154.02 1265.74,-143.3 1635.14,-155.11 1669.4,-118.02 1684.33,-101.86 1683.31,-85.57 1669.4,-68.53 1618.92,-6.67 1567.95,-61.12 1493.4,-32.53 1492.16,-32.05 1490.92,-31.52 1489.68,-30.95"/>
<polygon fill="red" stroke="red" stroke-width="0.14" points="1490.95,-27.66 1480.47,-26.07 1487.66,-33.85 1490.95,-27.66"/>
</g>
<!-- &#45;2&#45;&gt;5 -->
<g id="edge158" class="edge">
<title>&#45;2&#45;&gt;5</title>
<path fill="none" stroke="red" stroke-width="0.38" d="M1207.71,-156.46C1210.54,-155.49 1213.53,-154.6 1216.4,-154.02 1298.96,-137.45 1915.29,-178.96 1973.4,-118.02 1988.58,-102.1 1988.29,-84.72 1973.4,-68.53 1908.64,1.89 1635.59,-61.46 1544.4,-32.53 1543.14,-32.13 1541.87,-31.66 1540.61,-31.13"/>
<polygon fill="red" stroke="red" stroke-width="0.38" points="1541.85,-27.84 1531.36,-26.4 1538.66,-34.07 1541.85,-27.84"/>
</g>
<!-- &#45;2&#45;&gt;6 -->
<g id="edge159" class="edge">
<title>&#45;2&#45;&gt;6</title>
<path fill="none" stroke="green" stroke-width="0.2" d="M1207.71,-156.43C1210.53,-155.46 1213.53,-154.58 1216.4,-154.02 1274.3,-142.81 2236.41,-160.43 2277.4,-118.02 2292.69,-102.21 2292.54,-84.49 2277.4,-68.53 2225.18,-13.47 1668.08,-54.36 1595.4,-32.53 1594.13,-32.15 1592.86,-31.69 1591.6,-31.18"/>
<polygon fill="green" stroke="green" stroke-width="0.2" points="1592.83,-27.88 1582.33,-26.48 1589.67,-34.13 1592.83,-27.88"/>
</g>
<!-- &#45;2&#45;&gt;7 -->
<g id="edge160" class="edge">
<title>&#45;2&#45;&gt;7</title>
<path fill="none" stroke="green" stroke-width="0.48" d="M1207.7,-156.41C1210.53,-155.44 1213.53,-154.57 1216.4,-154.02 1290.93,-139.88 2528.47,-172.37 2581.4,-118.02 2596.75,-102.27 2596.54,-84.49 2581.4,-68.53 2548.35,-33.67 1799.02,-20.07 1647.11,-17.66"/>
<polygon fill="green" stroke="green" stroke-width="0.48" points="1646.91,-14.16 1636.85,-17.5 1646.8,-21.16 1646.91,-14.16"/>
</g>
<!-- &#45;2&#45;&gt;278 -->
<g id="edge10" class="edge">
<title>&#45;2&#45;&gt;278</title>
<path fill="none" stroke="green" stroke-width="0.59" d="M1180.99,-156.88C1178.17,-155.87 1175.2,-154.87 1172.4,-154.02 1107.18,-134.35 1085.32,-146.45 1023.4,-118.02 1021.57,-117.18 1019.74,-116.24 1017.93,-115.22"/>
<polygon fill="green" stroke="green" stroke-width="0.59" points="1019.49,-112.06 1009.17,-109.67 1015.75,-117.98 1019.49,-112.06"/>
</g>
<!-- &#45;2&#45;&gt;279 -->
<g id="edge11" class="edge">
<title>&#45;2&#45;&gt;279</title>
<path fill="none" stroke="green" stroke-width="0.63" d="M1181.23,-156.88C1157.11,-147.38 1106.81,-127.25 1090.4,-118.02 1088.65,-117.04 1086.88,-115.98 1085.11,-114.87"/>
<polygon fill="green" stroke="green" stroke-width="0.63" points="1086.73,-111.74 1076.47,-109.09 1082.83,-117.56 1086.73,-111.74"/>
</g>
<!-- &#45;2&#45;&gt;280 -->
<g id="edge12" class="edge">
<title>&#45;2&#45;&gt;280</title>
<path fill="none" stroke="red" stroke-width="0.61" d="M1186.1,-153.99C1177.01,-145.2 1162.03,-130.69 1149.1,-118.18"/>
<polygon fill="red" stroke="red" stroke-width="0.61" points="1151.41,-115.54 1141.79,-111.1 1146.54,-120.57 1151.41,-115.54"/>
</g>
<!-- &#45;2&#45;&gt;281 -->
<g id="edge13" class="edge">
<title>&#45;2&#45;&gt;281</title>
<path fill="none" stroke="green" stroke-width="0.23" d="M1194.05,-153.99C1193.76,-147.55 1193.34,-138.05 1192.92,-128.52"/>
<polygon fill="green" stroke="green" stroke-width="0.23" points="1196.4,-128.13 1192.47,-118.3 1189.41,-128.44 1196.4,-128.13"/>
</g>
<!-- &#45;2&#45;&gt;282 -->
<g id="edge14" class="edge">
<title>&#45;2&#45;&gt;282</title>
<path fill="none" stroke="green" stroke-width="0.33" d="M1201.99,-153.99C1210.06,-145.45 1223.21,-131.53 1234.78,-119.28"/>
<polygon fill="green" stroke="green" stroke-width="0.33" points="1237.4,-121.6 1241.73,-111.93 1232.31,-116.79 1237.4,-121.6"/>
</g>
<!-- &#45;2&#45;&gt;283 -->
<g id="edge15" class="edge">
<title>&#45;2&#45;&gt;283</title>
<path fill="none" stroke="red" stroke-width="0.18" d="M1207.49,-157.13C1226.68,-149.73 1263.32,-134.79 1292.4,-118.02 1294.14,-117.02 1295.91,-115.94 1297.67,-114.83"/>
<polygon fill="red" stroke="red" stroke-width="0.18" points="1299.96,-117.5 1306.29,-109.01 1296.04,-111.7 1299.96,-117.5"/>
</g>
<!-- &#45;2&#45;&gt;285 -->
<g id="edge16" class="edge">
<title>&#45;2&#45;&gt;285</title>
<path fill="none" stroke="red" stroke-width="1.11" d="M1207.82,-156.9C1210.64,-155.89 1213.6,-154.88 1216.4,-154.02 1279.06,-134.8 1299.97,-145.66 1359.4,-118.02 1361.23,-117.18 1363.05,-116.22 1364.86,-115.2"/>
<polygon fill="red" stroke="red" stroke-width="1.11" points="1367.05,-117.95 1373.61,-109.63 1363.3,-112.04 1367.05,-117.95"/>
</g>
<!-- &#45;2&#45;&gt;286 -->
<g id="edge17" class="edge">
<title>&#45;2&#45;&gt;286</title>
<path fill="none" stroke="green" stroke-width="0.39" d="M1207.78,-156.73C1210.6,-155.74 1213.57,-154.77 1216.4,-154.02 1307.93,-129.75 1339.06,-154.62 1426.4,-118.02 1428.26,-117.25 1430.11,-116.35 1431.93,-115.37"/>
<polygon fill="green" stroke="green" stroke-width="0.39" points="1434.08,-118.15 1440.74,-109.91 1430.39,-112.2 1434.08,-118.15"/>
</g>
<!-- &#45;2&#45;&gt;287 -->
<g id="edge18" class="edge">
<title>&#45;2&#45;&gt;287</title>
<path fill="none" stroke="green" stroke-width="0.27" d="M1207.75,-156.64C1210.57,-155.65 1213.56,-154.72 1216.4,-154.02 1337.02,-124.63 1377.95,-163.67 1493.4,-118.02 1495.27,-117.28 1497.14,-116.42 1498.97,-115.45"/>
<polygon fill="green" stroke="green" stroke-width="0.27" points="1501.09,-118.26 1507.8,-110.06 1497.44,-112.29 1501.09,-118.26"/>
</g>
<!-- &#45;3 -->
<g id="node3" class="node">
<title>&#45;3</title>
<polygon fill="lightgray" stroke="black" points="1251.4,-172.02 1225.4,-172.02 1225.4,-154.02 1251.4,-154.02 1251.4,-172.02"/>
<text text-anchor="middle" x="1238.4" y="-160.82" font-family="Times-Roman" font-size="9.00">&#45;3</text>
</g>
<!-- &#45;3&#45;&gt;0 -->
<g id="edge161" class="edge">
<title>&#45;3&#45;&gt;0</title>
<path fill="none" stroke="green" stroke-width="0.24" d="M1225.1,-156.42C1222.27,-155.45 1219.28,-154.58 1216.4,-154.02 1154.78,-142.15 131.06,-163.1 87.4,-118.02 72.1,-102.22 72.31,-84.53 87.4,-68.53 117.33,-36.8 794.24,-20.84 937.8,-17.8"/>
<polygon fill="green" stroke="green" stroke-width="0.24" points="937.99,-21.3 947.91,-17.59 937.84,-14.3 937.99,-21.3"/>
</g>
<!-- &#45;3&#45;&gt;1 -->
<g id="edge162" class="edge">
<title>&#45;3&#45;&gt;1</title>
<path fill="none" stroke="red" stroke-width="0.22" d="M1225.09,-156.44C1222.27,-155.46 1219.27,-154.59 1216.4,-154.02 1163.09,-143.62 277.09,-157.13 239.4,-118.02 224.14,-102.19 224.22,-84.45 239.4,-68.53 296.96,-8.14 909.44,-56.34 989.4,-32.53 990.67,-32.15 991.94,-31.7 993.21,-31.19"/>
<polygon fill="red" stroke="red" stroke-width="0.22" points="995.13,-34.14 1002.48,-26.5 991.97,-27.89 995.13,-34.14"/>
</g>
<!-- &#45;3&#45;&gt;2 -->
<g id="edge163" class="edge">
<title>&#45;3&#45;&gt;2</title>
<path fill="none" stroke="green" stroke-width="0.66" d="M1225.09,-156.47C1222.26,-155.5 1219.27,-154.61 1216.4,-154.02 1143.03,-139.07 594.92,-172.37 543.4,-118.02 528.27,-102.06 528.42,-84.63 543.4,-68.53 581.11,-27.99 985.47,-39.49 1040.4,-32.53 1060.06,-30.04 1082.1,-25.98 1098.67,-22.68"/>
<polygon fill="green" stroke="green" stroke-width="0.66" points="1099.59,-26.06 1108.69,-20.64 1098.19,-19.21 1099.59,-26.06"/>
</g>
<!-- &#45;3&#45;&gt;3 -->
<g id="edge164" class="edge">
<title>&#45;3&#45;&gt;3</title>
<path fill="none" stroke="green" stroke-width="0.34" d="M1225.07,-156.57C1222.24,-155.59 1219.26,-154.67 1216.4,-154.02 1136.05,-135.8 902.76,-179.05 847.4,-118.02 832.62,-101.73 832.8,-84.98 847.4,-68.53 892.27,-17.99 1082.38,-41.21 1149.4,-32.53 1177.74,-28.85 1210.16,-24.26 1232.23,-21.08"/>
<polygon fill="green" stroke="green" stroke-width="0.34" points="1232.77,-24.54 1242.16,-19.64 1231.77,-17.61 1232.77,-24.54"/>
</g>
<!-- &#45;3&#45;&gt;4 -->
<g id="edge165" class="edge">
<title>&#45;3&#45;&gt;4</title>
<path fill="none" stroke="red" stroke-width="0.55" d="M1251.73,-156.53C1254.55,-155.55 1257.54,-154.65 1260.4,-154.02 1309.09,-143.41 1673.61,-154.64 1707.4,-118.02 1722.32,-101.86 1721.61,-85.32 1707.4,-68.53 1645.12,5.11 1584.04,-65.49 1493.4,-32.53 1492.16,-32.07 1490.9,-31.56 1489.66,-31.01"/>
<polygon fill="red" stroke="red" stroke-width="0.55" points="1490.92,-27.71 1480.44,-26.16 1487.66,-33.91 1490.92,-27.71"/>
</g>
<!-- &#45;3&#45;&gt;5 -->
<g id="edge166" class="edge">
<title>&#45;3&#45;&gt;5</title>
<path fill="none" stroke="red" stroke-width="0.36" d="M1251.71,-156.46C1254.54,-155.49 1257.53,-154.6 1260.4,-154.02 1342.3,-137.56 1953.76,-178.49 2011.4,-118.02 2026.58,-102.1 2026.35,-84.67 2011.4,-68.53 1976.04,-30.34 1594.06,-48.1 1544.4,-32.53 1543.14,-32.13 1541.87,-31.66 1540.61,-31.14"/>
<polygon fill="red" stroke="red" stroke-width="0.36" points="1541.85,-27.85 1531.35,-26.42 1538.67,-34.08 1541.85,-27.85"/>
</g>
<!-- &#45;3&#45;&gt;6 -->
<g id="edge167" class="edge">
<title>&#45;3&#45;&gt;6</title>
<path fill="none" stroke="green" stroke-width="0.4" d="M1251.71,-156.43C1254.53,-155.46 1257.53,-154.58 1260.4,-154.02 1317.98,-142.87 2274.65,-160.19 2315.4,-118.02 2330.69,-102.21 2330.56,-84.47 2315.4,-68.53 2260.19,-10.49 1672.15,-55.46 1595.4,-32.53 1594.13,-32.15 1592.86,-31.69 1591.6,-31.18"/>
<polygon fill="green" stroke="green" stroke-width="0.4" points="1592.83,-27.89 1582.33,-26.49 1589.67,-34.13 1592.83,-27.89"/>
</g>
<!-- &#45;3&#45;&gt;7 -->
<g id="edge168" class="edge">
<title>&#45;3&#45;&gt;7</title>
<path fill="none" stroke="red" stroke-width="0.12" d="M1251.7,-156.41C1254.53,-155.44 1257.53,-154.57 1260.4,-154.02 1334.6,-139.94 2566.71,-172.13 2619.4,-118.02 2634.75,-102.26 2634.55,-84.48 2619.4,-68.53 2584.91,-32.22 1801.2,-19.72 1646.71,-17.6"/>
<polygon fill="red" stroke="red" stroke-width="0.12" points="1646.74,-14.1 1636.69,-17.47 1646.64,-21.1 1646.74,-14.1"/>
</g>
<!-- &#45;3&#45;&gt;278 -->
<g id="edge19" class="edge">
<title>&#45;3&#45;&gt;278</title>
<path fill="none" stroke="green" stroke-width="0.11" d="M1225.02,-156.76C1222.2,-155.77 1219.22,-154.8 1216.4,-154.02 1132.23,-131.04 1103.63,-152.33 1023.4,-118.02 1021.55,-117.23 1019.71,-116.32 1017.88,-115.33"/>
<polygon fill="green" stroke="green" stroke-width="0.11" points="1019.43,-112.17 1009.09,-109.86 1015.73,-118.11 1019.43,-112.17"/>
</g>
<!-- &#45;3&#45;&gt;279 -->
<g id="edge20" class="edge">
<title>&#45;3&#45;&gt;279</title>
<path fill="none" stroke="red" stroke-width="0.92" d="M1224.96,-156.97C1222.14,-155.95 1219.19,-154.93 1216.4,-154.02 1161,-136.06 1142.82,-143.41 1090.4,-118.02 1088.59,-117.15 1086.77,-116.17 1084.98,-115.13"/>
<polygon fill="red" stroke="red" stroke-width="0.92" points="1086.55,-111.98 1076.24,-109.52 1082.76,-117.87 1086.55,-111.98"/>
</g>
<!-- &#45;3&#45;&gt;280 -->
<g id="edge21" class="edge">
<title>&#45;3&#45;&gt;280</title>
<path fill="none" stroke="red" stroke-width="0.32" d="M1225.21,-155.51C1208.93,-147.32 1180.58,-132.58 1157.4,-118.02 1155.74,-116.98 1154.06,-115.89 1152.37,-114.76"/>
<polygon fill="red" stroke="red" stroke-width="0.32" points="1154.24,-111.8 1144.02,-109.01 1150.26,-117.56 1154.24,-111.8"/>
</g>
<!-- &#45;3&#45;&gt;281 -->
<g id="edge22" class="edge">
<title>&#45;3&#45;&gt;281</title>
<path fill="none" stroke="green" stroke-width="0.49" d="M1232.83,-153.99C1227.44,-146.22 1218.96,-134 1211.07,-122.63"/>
<polygon fill="green" stroke="green" stroke-width="0.49" points="1213.79,-120.41 1205.21,-114.19 1208.04,-124.4 1213.79,-120.41"/>
</g>
<!-- &#45;3&#45;&gt;282 -->
<g id="edge23" class="edge">
<title>&#45;3&#45;&gt;282</title>
<path fill="none" stroke="green" stroke-width="0.19" d="M1240.77,-153.99C1242.78,-147.2 1245.78,-137.02 1248.75,-126.97"/>
<polygon fill="green" stroke="green" stroke-width="0.19" points="1252.19,-127.69 1251.66,-117.1 1245.47,-125.7 1252.19,-127.69"/>
</g>
<!-- &#45;3&#45;&gt;283 -->
<g id="edge24" class="edge">
<title>&#45;3&#45;&gt;283</title>
<path fill="none" stroke="red" stroke-width="0.11" d="M1248.72,-153.99C1260.76,-144.61 1281.14,-128.75 1297.86,-115.72"/>
<polygon fill="red" stroke="red" stroke-width="0.11" points="1300.47,-118.13 1306.21,-109.22 1296.17,-112.6 1300.47,-118.13"/>
</g>
<!-- &#45;3&#45;&gt;285 -->
<g id="edge25" class="edge">
<title>&#45;3&#45;&gt;285</title>
<path fill="none" stroke="red" stroke-width="0.28" d="M1251.77,-157.17C1283.19,-145.76 1359.09,-118.19 1359.4,-118.02 1361.18,-117.08 1362.97,-116.06 1364.75,-114.98"/>
<polygon fill="red" stroke="red" stroke-width="0.28" points="1367,-117.69 1373.43,-109.27 1363.16,-111.84 1367,-117.69"/>
</g>
<!-- &#45;3&#45;&gt;286 -->
<g id="edge26" class="edge">
<title>&#45;3&#45;&gt;286</title>
<path fill="none" stroke="green" stroke-width="0.22" d="M1251.8,-156.83C1254.62,-155.82 1257.59,-154.84 1260.4,-154.02 1332.93,-133.08 1357.43,-148.72 1426.4,-118.02 1428.24,-117.21 1430.08,-116.28 1431.89,-115.27"/>
<polygon fill="green" stroke="green" stroke-width="0.22" points="1434.06,-118.04 1440.67,-109.75 1430.34,-112.11 1434.06,-118.04"/>
</g>
<!-- &#45;3&#45;&gt;287 -->
<g id="edge27" class="edge">
<title>&#45;3&#45;&gt;287</title>
<path fill="none" stroke="red" stroke-width="0.56" d="M1251.77,-156.69C1254.59,-155.7 1257.57,-154.75 1260.4,-154.02 1361.9,-128 1396.43,-157.72 1493.4,-118.02 1495.26,-117.26 1497.12,-116.38 1498.95,-115.4"/>
<polygon fill="red" stroke="red" stroke-width="0.56" points="1501.08,-118.2 1507.76,-109.97 1497.41,-112.24 1501.08,-118.2"/>
</g>
<!-- &#45;4 -->
<g id="node4" class="node">
<title>&#45;4</title>
<polygon fill="lightgray" stroke="black" points="1295.4,-172.02 1269.4,-172.02 1269.4,-154.02 1295.4,-154.02 1295.4,-172.02"/>
<text text-anchor="middle" x="1282.4" y="-160.82" font-family="Times-Roman" font-size="9.00">&#45;4</text>
</g>
<!-- &#45;4&#45;&gt;0 -->
<g id="edge169" class="edge">
<title>&#45;4&#45;&gt;0</title>
<path fill="none" stroke="red" stroke-width="0.25" d="M1269.06,-156.58C1266.24,-155.6 1263.25,-154.68 1260.4,-154.02 1185.29,-136.72 967,-175.29 915.4,-118.02 900.68,-101.68 907.21,-88.94 915.4,-68.53 921.04,-54.46 932.59,-42.07 943.06,-32.99"/>
<polygon fill="red" stroke="red" stroke-width="0.25" points="945.54,-35.49 951.09,-26.46 941.12,-30.06 945.54,-35.49"/>
</g>
<!-- &#45;4&#45;&gt;1 -->
<g id="edge170" class="edge">
<title>&#45;4&#45;&gt;1</title>
<path fill="none" stroke="red" stroke-width="0.27" d="M1269.06,-156.59C1266.24,-155.61 1263.25,-154.69 1260.4,-154.02 1188.12,-137.22 977.97,-173.26 928.4,-118.02 913.71,-101.65 917.49,-87.63 928.4,-68.53 928.52,-68.32 967.3,-45.52 993.04,-30.4"/>
<polygon fill="red" stroke="red" stroke-width="0.27" points="994.98,-33.31 1001.83,-25.23 991.44,-27.28 994.98,-33.31"/>
</g>
<!-- &#45;4&#45;&gt;2 -->
<g id="edge171" class="edge">
<title>&#45;4&#45;&gt;2</title>
<path fill="none" stroke="red" stroke-width="0.31" d="M1269.06,-156.6C1266.24,-155.62 1263.25,-154.69 1260.4,-154.02 1191.17,-137.76 989.78,-171.07 942.4,-118.02 927.75,-101.62 929.12,-86.06 942.4,-68.53 951.98,-55.88 1050.94,-33.09 1098.78,-22.69"/>
<polygon fill="red" stroke="red" stroke-width="0.31" points="1099.65,-26.09 1108.69,-20.56 1098.18,-19.24 1099.65,-26.09"/>
</g>
<!-- &#45;4&#45;&gt;3 -->
<g id="edge172" class="edge">
<title>&#45;4&#45;&gt;3</title>
<path fill="none" stroke="green" stroke-width="0.39" d="M1269.06,-156.62C1266.23,-155.63 1263.25,-154.7 1260.4,-154.02 1194.22,-138.3 1001.59,-168.88 956.4,-118.02 941.79,-101.58 942.21,-85.33 956.4,-68.53 960.89,-63.21 1159.83,-32.33 1232.32,-21.23"/>
<polygon fill="green" stroke="green" stroke-width="0.39" points="1233.09,-24.66 1242.44,-19.69 1232.03,-17.74 1233.09,-24.66"/>
</g>
<!-- &#45;4&#45;&gt;4 -->
<g id="edge173" class="edge">
<title>&#45;4&#45;&gt;4</title>
<path fill="none" stroke="green" stroke-width="0.47" d="M1295.73,-156.53C1298.55,-155.56 1301.54,-154.65 1304.4,-154.02 1352.43,-143.53 1712.08,-154.17 1745.4,-118.02 1760.31,-101.85 1759.82,-85.15 1745.4,-68.53 1708.34,-25.79 1546.8,-51.2 1493.4,-32.53 1492.15,-32.09 1490.89,-31.59 1489.64,-31.04"/>
<polygon fill="green" stroke="green" stroke-width="0.47" points="1490.9,-27.75 1480.41,-26.23 1487.66,-33.96 1490.9,-27.75"/>
</g>
<!-- &#45;4&#45;&gt;5 -->
<g id="edge174" class="edge">
<title>&#45;4&#45;&gt;5</title>
<path fill="none" stroke="red" stroke-width="0.29" d="M1295.71,-156.46C1298.54,-155.49 1301.53,-154.6 1304.4,-154.02 1385.65,-137.68 1992.23,-178.02 2049.4,-118.02 2064.58,-102.1 2064.39,-84.63 2049.4,-68.53 2011.06,-27.36 1598.13,-49.21 1544.4,-32.53 1543.14,-32.13 1541.87,-31.67 1540.61,-31.15"/>
<polygon fill="red" stroke="red" stroke-width="0.29" points="1541.84,-27.85 1531.35,-26.43 1538.67,-34.09 1541.84,-27.85"/>
</g>
<!-- &#45;4&#45;&gt;6 -->
<g id="edge175" class="edge">
<title>&#45;4&#45;&gt;6</title>
<path fill="none" stroke="red" stroke-width="0.41" d="M1295.71,-156.43C1298.53,-155.46 1301.53,-154.58 1304.4,-154.02 1361.65,-142.92 2312.88,-159.96 2353.4,-118.02 2368.69,-102.2 2368.58,-84.45 2353.4,-68.53 2295.21,-7.51 1676.22,-56.57 1595.4,-32.53 1594.13,-32.15 1592.86,-31.7 1591.6,-31.19"/>
<polygon fill="red" stroke="red" stroke-width="0.41" points="1592.83,-27.89 1582.33,-26.5 1589.67,-34.14 1592.83,-27.89"/>
</g>
<!-- &#45;4&#45;&gt;7 -->
<g id="edge176" class="edge">
<title>&#45;4&#45;&gt;7</title>
<path fill="none" stroke="green" stroke-width="0.14" stroke-dasharray="1,5" d="M1295.7,-156.41C1298.53,-155.44 1301.53,-154.57 1304.4,-154.02 1378.27,-139.99 2604.94,-171.9 2657.4,-118.02 2672.75,-102.26 2672.57,-84.46 2657.4,-68.53 2621.52,-30.83 1806.35,-19.43 1647.2,-17.56"/>
<polygon fill="green" stroke="green" stroke-width="0.14" points="1646.94,-14.05 1636.9,-17.44 1646.86,-21.05 1646.94,-14.05"/>
</g>
<!-- &#45;4&#45;&gt;278 -->
<g id="edge28" class="edge">
<title>&#45;4&#45;&gt;278</title>
<path fill="none" stroke="red" stroke-width="0.34" d="M1269.04,-156.69C1266.22,-155.7 1263.24,-154.75 1260.4,-154.02 1157.17,-127.69 1122.05,-158.26 1023.4,-118.02 1021.54,-117.26 1019.68,-116.38 1017.85,-115.41"/>
<polygon fill="red" stroke="red" stroke-width="0.34" points="1019.39,-112.24 1009.04,-109.98 1015.72,-118.2 1019.39,-112.24"/>
</g>
<!-- &#45;4&#45;&gt;279 -->
<g id="edge29" class="edge">
<title>&#45;4&#45;&gt;279</title>
<path fill="none" stroke="green" stroke-width="0.1" d="M1269,-156.81C1266.19,-155.81 1263.21,-154.83 1260.4,-154.02 1186.15,-132.78 1161.04,-149.25 1090.4,-118.02 1088.56,-117.21 1086.72,-116.28 1084.91,-115.28"/>
<polygon fill="green" stroke="green" stroke-width="0.1" points="1086.46,-112.12 1076.13,-109.77 1082.74,-118.05 1086.46,-112.12"/>
</g>
<!-- &#45;4&#45;&gt;280 -->
<g id="edge30" class="edge">
<title>&#45;4&#45;&gt;280</title>
<path fill="none" stroke="green" stroke-width="0.42" d="M1269.38,-157.26C1266.43,-156.19 1263.31,-155.06 1260.4,-154.02 1214.73,-137.74 1200.41,-140.42 1157.4,-118.02 1155.62,-117.1 1153.82,-116.08 1152.04,-115.01"/>
<polygon fill="green" stroke="green" stroke-width="0.42" points="1153.63,-111.86 1143.35,-109.31 1149.79,-117.72 1153.63,-111.86"/>
</g>
<!-- &#45;4&#45;&gt;281 -->
<g id="edge31" class="edge">
<title>&#45;4&#45;&gt;281</title>
<path fill="none" stroke="green" stroke-width="0.45" stroke-dasharray="1,5" d="M1271.61,-153.99C1258.74,-144.41 1236.76,-128.04 1219.06,-114.87"/>
<polygon fill="green" stroke="green" stroke-width="0.45" points="1220.88,-111.86 1210.77,-108.7 1216.7,-117.48 1220.88,-111.86"/>
</g>
<!-- &#45;4&#45;&gt;282 -->
<g id="edge32" class="edge">
<title>&#45;4&#45;&gt;282</title>
<path fill="none" stroke="green" stroke-width="0.61" d="M1279.55,-153.99C1277.11,-147.08 1273.41,-136.65 1269.79,-126.42"/>
<polygon fill="green" stroke="green" stroke-width="0.61" points="1273.02,-125.07 1266.38,-116.81 1266.42,-127.4 1273.02,-125.07"/>
</g>
<!-- &#45;4&#45;&gt;283 -->
<g id="edge33" class="edge">
<title>&#45;4&#45;&gt;283</title>
<path fill="none" stroke="green" stroke-width="0.12" d="M1287.5,-153.99C1292.35,-146.35 1299.93,-134.41 1307.04,-123.21"/>
<polygon fill="green" stroke="green" stroke-width="0.12" points="1310.18,-124.79 1312.58,-114.47 1304.27,-121.04 1310.18,-124.79"/>
</g>
<!-- &#45;4&#45;&gt;285 -->
<g id="edge34" class="edge">
<title>&#45;4&#45;&gt;285</title>
<path fill="none" stroke="red" stroke-width="0.75" d="M1295.45,-155.11C1310.97,-146.77 1337.52,-132.1 1359.4,-118.02 1361.05,-116.96 1362.73,-115.86 1364.41,-114.72"/>
<polygon fill="red" stroke="red" stroke-width="0.75" points="1366.52,-117.51 1372.74,-108.93 1362.53,-111.76 1366.52,-117.51"/>
</g>
<!-- &#45;4&#45;&gt;286 -->
<g id="edge35" class="edge">
<title>&#45;4&#45;&gt;286</title>
<path fill="none" stroke="green" stroke-width="0.63" d="M1295.85,-156.98C1298.67,-155.97 1301.62,-154.94 1304.4,-154.02 1358.1,-136.36 1375.63,-142.89 1426.4,-118.02 1428.21,-117.14 1430.02,-116.16 1431.82,-115.11"/>
<polygon fill="green" stroke="green" stroke-width="0.63" points="1434.03,-117.85 1440.55,-109.49 1430.24,-111.96 1434.03,-117.85"/>
</g>
<!-- &#45;4&#45;&gt;287 -->
<g id="edge36" class="edge">
<title>&#45;4&#45;&gt;287</title>
<path fill="none" stroke="red" stroke-width="0.54" d="M1295.79,-156.77C1298.61,-155.77 1301.58,-154.8 1304.4,-154.02 1386.85,-131.34 1414.84,-151.8 1493.4,-118.02 1495.25,-117.23 1497.1,-116.32 1498.92,-115.32"/>
<polygon fill="red" stroke="red" stroke-width="0.54" points="1501.07,-118.1 1507.71,-109.85 1497.37,-112.16 1501.07,-118.1"/>
</g>
<!-- &#45;5 -->
<g id="node5" class="node">
<title>&#45;5</title>
<polygon fill="lightgray" stroke="black" points="1339.4,-172.02 1313.4,-172.02 1313.4,-154.02 1339.4,-154.02 1339.4,-172.02"/>
<text text-anchor="middle" x="1326.4" y="-160.82" font-family="Times-Roman" font-size="9.00">&#45;5</text>
</g>
<!-- &#45;5&#45;&gt;0 -->
<g id="edge177" class="edge">
<title>&#45;5&#45;&gt;0</title>
<path fill="none" stroke="red" stroke-width="0.11" d="M1313.09,-156.43C1310.27,-155.46 1307.27,-154.58 1304.4,-154.02 1250.44,-143.5 353.57,-157.6 315.4,-118.02 300.13,-102.19 300.47,-84.68 315.4,-68.53 358.27,-22.14 821.12,-17.68 937.81,-17.29"/>
<polygon fill="red" stroke="red" stroke-width="0.11" points="938.01,-20.79 948,-17.26 937.99,-13.79 938.01,-20.79"/>
</g>
<!-- &#45;5&#45;&gt;1 -->
<g id="edge178" class="edge">
<title>&#45;5&#45;&gt;1</title>
<path fill="none" stroke="red" stroke-width="0.24" stroke-dasharray="1,5" d="M1313.09,-156.47C1310.26,-155.5 1307.27,-154.61 1304.4,-154.02 1229.71,-138.83 671.86,-173.31 619.4,-118.02 604.26,-102.07 604.62,-84.82 619.4,-68.53 674.92,-7.35 910.83,-58.04 989.4,-32.53 990.66,-32.12 991.93,-31.64 993.18,-31.11"/>
<polygon fill="red" stroke="red" stroke-width="0.24" points="995.14,-34.04 1002.43,-26.36 991.94,-27.82 995.14,-34.04"/>
</g>
<!-- &#45;5&#45;&gt;2 -->
<g id="edge179" class="edge">
<title>&#45;5&#45;&gt;2</title>
<path fill="none" stroke="green" stroke-width="0.77" d="M1313.07,-156.56C1310.25,-155.58 1307.26,-154.67 1304.4,-154.02 1221.44,-135.34 980.64,-180.92 923.4,-118.02 908.6,-101.75 909.9,-85.9 923.4,-68.53 934.23,-54.59 1046.36,-31.93 1098.28,-22.09"/>
<polygon fill="green" stroke="green" stroke-width="0.77" points="1099.21,-25.47 1108.39,-20.19 1097.91,-18.59 1099.21,-25.47"/>
</g>
<!-- &#45;5&#45;&gt;3 -->
<g id="edge180" class="edge">
<title>&#45;5&#45;&gt;3</title>
<path fill="none" stroke="green" stroke-width="1.01" d="M1339.78,-156.73C1342.59,-155.73 1345.57,-154.77 1348.4,-154.02 1394.6,-141.81 1529.57,-154.53 1560.4,-118.02 1574.6,-101.22 1574.6,-85.33 1560.4,-68.53 1542.61,-47.46 1355.42,-26.88 1284.99,-19.83"/>
<polygon fill="green" stroke="green" stroke-width="1.01" points="1285.03,-16.31 1274.74,-18.81 1284.34,-23.28 1285.03,-16.31"/>
</g>
<!-- &#45;5&#45;&gt;4 -->
<g id="edge181" class="edge">
<title>&#45;5&#45;&gt;4</title>
<path fill="none" stroke="red" stroke-width="0.1" d="M1339.77,-156.7C1342.59,-155.7 1345.57,-154.75 1348.4,-154.02 1398.72,-141.09 1545.61,-157.49 1579.4,-118.02 1593.71,-101.31 1591.59,-86.84 1579.4,-68.53 1556.45,-34.03 1530.46,-51.06 1493.4,-32.53 1492.24,-31.95 1491.07,-31.34 1489.88,-30.71"/>
<polygon fill="red" stroke="red" stroke-width="0.1" points="1491.41,-27.55 1480.97,-25.69 1487.97,-33.65 1491.41,-27.55"/>
</g>
<!-- &#45;5&#45;&gt;5 -->
<g id="edge182" class="edge">
<title>&#45;5&#45;&gt;5</title>
<path fill="none" stroke="red" stroke-width="0.25" d="M1339.76,-156.67C1342.58,-155.68 1345.56,-154.74 1348.4,-154.02 1402.62,-140.4 1560.81,-160.29 1597.4,-118.02 1611.8,-101.39 1607.9,-87.86 1597.4,-68.53 1595.8,-65.58 1563.69,-45.28 1540.91,-31.13"/>
<polygon fill="red" stroke="red" stroke-width="0.25" points="1542.47,-27.99 1532.13,-25.7 1538.79,-33.94 1542.47,-27.99"/>
</g>
<!-- &#45;5&#45;&gt;6 -->
<g id="edge183" class="edge">
<title>&#45;5&#45;&gt;6</title>
<path fill="none" stroke="green" stroke-width="0.4" d="M1339.76,-156.65C1342.58,-155.66 1345.56,-154.72 1348.4,-154.02 1406.54,-139.71 1576,-163.1 1615.4,-118.02 1629.88,-101.46 1623.27,-89.07 1615.4,-68.53 1610.14,-54.78 1599.3,-42.4 1589.47,-33.25"/>
<polygon fill="green" stroke="green" stroke-width="0.4" points="1591.75,-30.6 1581.92,-26.64 1587.14,-35.87 1591.75,-30.6"/>
</g>
<!-- &#45;5&#45;&gt;7 -->
<g id="edge184" class="edge">
<title>&#45;5&#45;&gt;7</title>
<path fill="none" stroke="green" stroke-width="0.22" d="M1339.75,-156.63C1342.57,-155.65 1345.56,-154.71 1348.4,-154.02 1410.45,-139.02 1591.19,-165.91 1633.4,-118.02 1652.1,-96.82 1642.29,-62.67 1632.34,-40.1"/>
<polygon fill="green" stroke="green" stroke-width="0.22" points="1635.44,-38.46 1628,-30.91 1629.11,-41.45 1635.44,-38.46"/>
</g>
<!-- &#45;5&#45;&gt;278 -->
<g id="edge37" class="edge">
<title>&#45;5&#45;&gt;278</title>
<path fill="none" stroke="red" stroke-width="0.18" d="M1313.05,-156.64C1310.23,-155.65 1307.25,-154.71 1304.4,-154.02 1182.04,-124.33 1140.53,-164.21 1023.4,-118.02 1021.53,-117.29 1019.67,-116.42 1017.83,-115.46"/>
<polygon fill="red" stroke="red" stroke-width="0.18" points="1019.36,-112.29 1009,-110.07 1015.71,-118.27 1019.36,-112.29"/>
</g>
<!-- &#45;5&#45;&gt;279 -->
<g id="edge38" class="edge">
<title>&#45;5&#45;&gt;279</title>
<path fill="none" stroke="red" stroke-width="0.4" d="M1313.03,-156.72C1310.21,-155.73 1307.23,-154.77 1304.4,-154.02 1211.14,-129.44 1179.41,-155.16 1090.4,-118.02 1088.55,-117.25 1086.69,-116.35 1084.87,-115.37"/>
<polygon fill="red" stroke="red" stroke-width="0.4" points="1086.41,-112.21 1076.06,-109.92 1082.72,-118.16 1086.41,-112.21"/>
</g>
<!-- &#45;5&#45;&gt;280 -->
<g id="edge39" class="edge">
<title>&#45;5&#45;&gt;280</title>
<path fill="none" stroke="red" stroke-width="0.23" d="M1312.98,-156.88C1310.17,-155.88 1307.2,-154.87 1304.4,-154.02 1240.03,-134.5 1218.49,-146.19 1157.4,-118.02 1155.57,-117.18 1153.75,-116.23 1151.94,-115.21"/>
<polygon fill="red" stroke="red" stroke-width="0.23" points="1153.5,-112.06 1143.18,-109.66 1149.75,-117.97 1153.5,-112.06"/>
</g>
<!-- &#45;5&#45;&gt;281 -->
<g id="edge40" class="edge">
<title>&#45;5&#45;&gt;281</title>
<path fill="none" stroke="red" stroke-width="0.4" d="M1313.11,-156.71C1289.32,-147.13 1240.43,-127.1 1224.4,-118.02 1222.65,-117.03 1220.88,-115.97 1219.12,-114.86"/>
<polygon fill="red" stroke="red" stroke-width="0.4" points="1220.74,-111.73 1210.48,-109.07 1216.84,-117.54 1220.74,-111.73"/>
</g>
<!-- &#45;5&#45;&gt;282 -->
<g id="edge41" class="edge">
<title>&#45;5&#45;&gt;282</title>
<path fill="none" stroke="red" stroke-width="0.32" d="M1318.33,-153.99C1309.65,-145.34 1295.42,-131.15 1283,-118.78"/>
<polygon fill="red" stroke="red" stroke-width="0.32" points="1285.12,-115.95 1275.57,-111.38 1280.18,-120.91 1285.12,-115.95"/>
</g>
<!-- &#45;5&#45;&gt;283 -->
<g id="edge42" class="edge">
<title>&#45;5&#45;&gt;283</title>
<path fill="none" stroke="red" stroke-width="0.18" d="M1326.28,-153.99C1326.19,-147.55 1326.05,-138.05 1325.91,-128.52"/>
<polygon fill="red" stroke="red" stroke-width="0.18" points="1329.4,-128.24 1325.76,-118.3 1322.4,-128.35 1329.4,-128.24"/>
</g>
<!-- &#45;5&#45;&gt;285 -->
<g id="edge43" class="edge">
<title>&#45;5&#45;&gt;285</title>
<path fill="none" stroke="red" stroke-width="0.27" d="M1334.23,-153.99C1342.6,-145.39 1356.29,-131.34 1368.29,-119.03"/>
<polygon fill="red" stroke="red" stroke-width="0.27" points="1371,-121.26 1375.47,-111.65 1365.99,-116.37 1371,-121.26"/>
</g>
<!-- &#45;5&#45;&gt;286 -->
<g id="edge44" class="edge">
<title>&#45;5&#45;&gt;286</title>
<path fill="none" stroke="green" stroke-width="0.18" d="M1339.45,-157.29C1358.95,-150 1396.59,-135.06 1426.4,-118.02 1428.15,-117.03 1429.92,-115.96 1431.68,-114.84"/>
<polygon fill="green" stroke="green" stroke-width="0.18" points="1433.96,-117.52 1440.31,-109.04 1430.06,-111.71 1433.96,-117.52"/>
</g>
<!-- &#45;5&#45;&gt;287 -->
<g id="edge45" class="edge">
<title>&#45;5&#45;&gt;287</title>
<path fill="none" stroke="green" stroke-width="0.66" d="M1339.82,-156.89C1342.64,-155.88 1345.6,-154.88 1348.4,-154.02 1411.91,-134.65 1433.14,-145.92 1493.4,-118.02 1495.23,-117.18 1497.06,-116.23 1498.86,-115.2"/>
<polygon fill="green" stroke="green" stroke-width="0.66" points="1501.05,-117.96 1507.62,-109.65 1497.3,-112.05 1501.05,-117.96"/>
</g>
<!-- &#45;6 -->
<g id="node6" class="node">
<title>&#45;6</title>
<polygon fill="lightgray" stroke="black" points="1383.4,-172.02 1357.4,-172.02 1357.4,-154.02 1383.4,-154.02 1383.4,-172.02"/>
<text text-anchor="middle" x="1370.4" y="-160.82" font-family="Times-Roman" font-size="9.00">&#45;6</text>
</g>
<!-- &#45;6&#45;&gt;0 -->
<g id="edge185" class="edge">
<title>&#45;6&#45;&gt;0</title>
<path fill="none" stroke="green" stroke-width="0.31" d="M1357.09,-156.43C1354.27,-155.46 1351.27,-154.58 1348.4,-154.02 1294.11,-143.44 391.8,-157.84 353.4,-118.02 338.13,-102.19 338.51,-84.72 353.4,-68.53 393.5,-24.93 825.79,-18.39 937.94,-17.43"/>
<polygon fill="green" stroke="green" stroke-width="0.31" points="938.08,-20.93 948.06,-17.35 938.03,-13.93 938.08,-20.93"/>
</g>
<!-- &#45;6&#45;&gt;1 -->
<g id="edge186" class="edge">
<title>&#45;6&#45;&gt;1</title>
<path fill="none" stroke="red" stroke-width="0.13" d="M1357.09,-156.47C1354.26,-155.49 1351.27,-154.61 1348.4,-154.02 1273.06,-138.72 710.33,-173.78 657.4,-118.02 642.26,-102.07 642.71,-84.9 657.4,-68.53 706.97,-13.3 918.95,-55.83 989.4,-32.53 990.66,-32.11 991.92,-31.63 993.18,-31.1"/>
<polygon fill="red" stroke="red" stroke-width="0.13" points="995.14,-34.02 1002.42,-26.33 991.93,-27.8 995.14,-34.02"/>
</g>
<!-- &#45;6&#45;&gt;2 -->
<g id="edge187" class="edge">
<title>&#45;6&#45;&gt;2</title>
<path fill="none" stroke="green" stroke-width="0.19" d="M1357.07,-156.56C1354.25,-155.58 1351.26,-154.66 1348.4,-154.02 1263.04,-134.92 1015.36,-182.65 956.4,-118.02 941.57,-101.77 943.31,-86.21 956.4,-68.53 973.42,-45.54 1055.72,-28.71 1098.48,-21.36"/>
<polygon fill="green" stroke="green" stroke-width="0.19" points="1099.15,-24.8 1108.43,-19.7 1097.99,-17.9 1099.15,-24.8"/>
</g>
<!-- &#45;6&#45;&gt;3 -->
<g id="edge188" class="edge">
<title>&#45;6&#45;&gt;3</title>
<path fill="none" stroke="green" stroke-width="0.17" d="M1383.79,-156.77C1386.61,-155.78 1389.58,-154.8 1392.4,-154.02 1473.98,-131.49 1525.51,-183.28 1579.4,-118.02 1593.41,-101.06 1593.68,-85.26 1579.4,-68.53 1560.29,-46.12 1358.84,-26.16 1285.18,-19.56"/>
<polygon fill="green" stroke="green" stroke-width="0.17" points="1285.16,-16.05 1274.89,-18.66 1284.54,-23.02 1285.16,-16.05"/>
</g>
<!-- &#45;6&#45;&gt;4 -->
<g id="edge189" class="edge">
<title>&#45;6&#45;&gt;4</title>
<path fill="none" stroke="red" stroke-width="0.78" d="M1383.71,-156.46C1386.54,-155.49 1389.53,-154.6 1392.4,-154.02 1472.34,-137.91 2069.17,-177.08 2125.4,-118.02 2140.57,-102.09 2140.51,-84.52 2125.4,-68.53 2077.1,-17.4 1560.72,-52.9 1493.4,-32.53 1492.13,-32.14 1490.86,-31.69 1489.6,-31.17"/>
<polygon fill="red" stroke="red" stroke-width="0.78" points="1490.83,-27.88 1480.33,-26.47 1487.67,-34.12 1490.83,-27.88"/>
</g>
<!-- &#45;6&#45;&gt;5 -->
<g id="edge190" class="edge">
<title>&#45;6&#45;&gt;5</title>
<path fill="none" stroke="green" stroke-width="0.19" d="M1383.71,-156.43C1386.53,-155.46 1389.53,-154.58 1392.4,-154.02 1448.99,-143.04 2389.35,-159.49 2429.4,-118.02 2444.68,-102.2 2444.64,-84.4 2429.4,-68.53 2361.24,2.46 1638.83,-60.27 1544.4,-32.53 1543.13,-32.15 1541.86,-31.7 1540.59,-31.2"/>
<polygon fill="green" stroke="green" stroke-width="0.19" points="1541.82,-27.9 1531.32,-26.52 1538.67,-34.15 1541.82,-27.9"/>
</g>
<!-- &#45;6&#45;&gt;6 -->
<g id="edge191" class="edge">
<title>&#45;6&#45;&gt;6</title>
<path fill="none" stroke="red" stroke-width="0.17" d="M1383.7,-156.41C1386.53,-155.44 1389.53,-154.57 1392.4,-154.02 1465.62,-140.11 2681.42,-171.43 2733.4,-118.02 2748.75,-102.26 2748.71,-84.33 2733.4,-68.53 2689.39,-23.1 1656.17,-50.08 1595.4,-32.53 1594.13,-32.16 1592.85,-31.71 1591.59,-31.21"/>
<polygon fill="red" stroke="red" stroke-width="0.17" points="1592.82,-27.91 1582.31,-26.54 1589.67,-34.17 1592.82,-27.91"/>
</g>
<!-- &#45;6&#45;&gt;7 -->
<g id="edge192" class="edge">
<title>&#45;6&#45;&gt;7</title>
<path fill="none" stroke="red" stroke-width="0.41" d="M1383.7,-156.41C1386.53,-155.44 1389.53,-154.57 1392.4,-154.02 1473.93,-138.65 2827.45,-177.39 2885.4,-118.02 2900.77,-102.28 2900.64,-84.39 2885.4,-68.53 2840.95,-22.23 1824.23,-17.74 1646.72,-17.31"/>
<polygon fill="red" stroke="red" stroke-width="0.41" points="1646.7,-13.81 1636.69,-17.29 1646.68,-20.81 1646.7,-13.81"/>
</g>
<!-- &#45;6&#45;&gt;278 -->
<g id="edge46" class="edge">
<title>&#45;6&#45;&gt;278</title>
<path fill="none" stroke="red" stroke-width="0.32" stroke-dasharray="1,5" d="M1357.06,-156.6C1354.24,-155.61 1351.25,-154.69 1348.4,-154.02 1206.89,-120.96 1159.05,-170.18 1023.4,-118.02 1021.52,-117.3 1019.66,-116.45 1017.82,-115.5"/>
<polygon fill="red" stroke="red" stroke-width="0.32" points="1019.34,-112.33 1008.98,-110.13 1015.71,-118.31 1019.34,-112.33"/>
</g>
<!-- &#45;6&#45;&gt;279 -->
<g id="edge47" class="edge">
<title>&#45;6&#45;&gt;279</title>
<path fill="none" stroke="red" stroke-width="0.43" d="M1357.04,-156.66C1354.22,-155.67 1351.24,-154.73 1348.4,-154.02 1236.05,-126.09 1197.87,-161.1 1090.4,-118.02 1088.53,-117.28 1086.67,-116.4 1084.84,-115.43"/>
<polygon fill="red" stroke="red" stroke-width="0.43" points="1086.37,-112.27 1076.02,-110.03 1082.72,-118.24 1086.37,-112.27"/>
</g>
<!-- &#45;6&#45;&gt;280 -->
<g id="edge48" class="edge">
<title>&#45;6&#45;&gt;280</title>
<path fill="none" stroke="red" stroke-width="0.15" d="M1357.02,-156.77C1354.2,-155.77 1351.22,-154.8 1348.4,-154.02 1265.09,-131.19 1236.8,-152.06 1157.4,-118.02 1155.55,-117.23 1153.71,-116.32 1151.89,-115.33"/>
<polygon fill="red" stroke="red" stroke-width="0.15" points="1153.43,-112.17 1143.09,-109.85 1149.73,-118.11 1153.43,-112.17"/>
</g>
<!-- &#45;6&#45;&gt;281 -->
<g id="edge49" class="edge">
<title>&#45;6&#45;&gt;281</title>
<path fill="none" stroke="green" stroke-width="0.29" d="M1356.95,-156.97C1354.14,-155.96 1351.18,-154.93 1348.4,-154.02 1293.85,-136.21 1276,-143.15 1224.4,-118.02 1222.59,-117.14 1220.78,-116.16 1218.98,-115.12"/>
<polygon fill="green" stroke="green" stroke-width="0.29" points="1220.55,-111.97 1210.25,-109.5 1216.77,-117.86 1220.55,-111.97"/>
</g>
<!-- &#45;6&#45;&gt;282 -->
<g id="edge50" class="edge">
<title>&#45;6&#45;&gt;282</title>
<path fill="none" stroke="green" stroke-width="0.34" d="M1357.27,-155.31C1341.37,-147.04 1313.93,-132.34 1291.4,-118.02 1289.75,-116.97 1288.07,-115.87 1286.38,-114.74"/>
<polygon fill="green" stroke="green" stroke-width="0.34" points="1288.25,-111.78 1278.04,-108.97 1284.27,-117.54 1288.25,-111.78"/>
</g>
<!-- &#45;6&#45;&gt;283 -->
<g id="edge51" class="edge">
<title>&#45;6&#45;&gt;283</title>
<path fill="none" stroke="red" stroke-width="0.14" d="M1365.06,-153.99C1359.94,-146.28 1351.9,-134.17 1344.4,-122.87"/>
<polygon fill="red" stroke="red" stroke-width="0.14" points="1347.27,-120.87 1338.82,-114.47 1341.43,-124.74 1347.27,-120.87"/>
</g>
<!-- &#45;6&#45;&gt;285 -->
<g id="edge52" class="edge">
<title>&#45;6&#45;&gt;285</title>
<path fill="none" stroke="red" stroke-width="0.15" d="M1373.01,-153.99C1375.24,-147.13 1378.59,-136.81 1381.89,-126.66"/>
<polygon fill="red" stroke="red" stroke-width="0.15" points="1385.23,-127.7 1384.99,-117.1 1378.57,-125.53 1385.23,-127.7"/>
</g>
<!-- &#45;6&#45;&gt;286 -->
<g id="edge53" class="edge">
<title>&#45;6&#45;&gt;286</title>
<path fill="none" stroke="green" stroke-width="0.3" d="M1380.96,-153.99C1393.46,-144.47 1414.77,-128.25 1432.03,-115.11"/>
<polygon fill="green" stroke="green" stroke-width="0.3" points="1434.28,-117.8 1440.11,-108.96 1430.04,-112.23 1434.28,-117.8"/>
</g>
<!-- &#45;6&#45;&gt;287 -->
<g id="edge54" class="edge">
<title>&#45;6&#45;&gt;287</title>
<path fill="none" stroke="green" stroke-width="0.69" d="M1383.43,-157.27C1386.38,-156.2 1389.5,-155.07 1392.4,-154.02 1437.24,-137.88 1451.2,-140.16 1493.4,-118.02 1495.18,-117.09 1496.98,-116.07 1498.76,-114.99"/>
<polygon fill="green" stroke="green" stroke-width="0.69" points="1501.01,-117.7 1507.45,-109.29 1497.17,-111.85 1501.01,-117.7"/>
</g>
<!-- &#45;7 -->
<g id="node7" class="node">
<title>&#45;7</title>
<polygon fill="lightgray" stroke="black" points="1471.4,-172.02 1445.4,-172.02 1445.4,-154.02 1471.4,-154.02 1471.4,-172.02"/>
<text text-anchor="middle" x="1458.4" y="-160.82" font-family="Times-Roman" font-size="9.00">&#45;7</text>
</g>
<!-- &#45;7&#45;&gt;0 -->
<g id="edge193" class="edge">
<title>&#45;7&#45;&gt;0</title>
<path fill="none" stroke="green" stroke-width="0.36" d="M1445.08,-156.52C1442.26,-155.54 1439.26,-154.64 1436.4,-154.02 1382.69,-142.53 980.8,-158.25 943.4,-118.02 923.6,-96.72 937.46,-61.78 950.19,-39.15"/>
<polygon fill="green" stroke="green" stroke-width="0.36" points="953.36,-40.67 955.47,-30.28 947.35,-37.08 953.36,-40.67"/>
</g>
<!-- &#45;7&#45;&gt;1 -->
<g id="edge194" class="edge">
<title>&#45;7&#45;&gt;1</title>
<path fill="none" stroke="red" stroke-width="0.56" d="M1445.08,-156.52C1442.25,-155.54 1439.26,-154.64 1436.4,-154.02 1384.11,-142.78 992.78,-157.23 956.4,-118.02 941.44,-101.9 947.28,-88.54 956.4,-68.53 960.5,-59.55 978.98,-44.22 994.19,-32.66"/>
<polygon fill="red" stroke="red" stroke-width="0.56" points="996.7,-35.15 1002.63,-26.37 992.52,-29.54 996.7,-35.15"/>
</g>
<!-- &#45;7&#45;&gt;2 -->
<g id="edge195" class="edge">
<title>&#45;7&#45;&gt;2</title>
<path fill="none" stroke="red" stroke-width="0.95" d="M1471.48,-161.8C1497.28,-160.57 1554.4,-153.73 1579.4,-118.02 1592.02,-100.01 1594.13,-84.87 1579.4,-68.53 1553.52,-39.82 1271.77,-37.21 1233.4,-32.53 1205.04,-29.07 1172.62,-24.44 1150.56,-21.19"/>
<polygon fill="red" stroke="red" stroke-width="0.95" points="1151.03,-17.72 1140.63,-19.72 1150.01,-24.65 1151.03,-17.72"/>
</g>
<!-- &#45;7&#45;&gt;3 -->
<g id="edge196" class="edge">
<title>&#45;7&#45;&gt;3</title>
<path fill="none" stroke="red" stroke-width="0.65" d="M1471.42,-160.43C1506.12,-155.89 1599.41,-141.67 1617.4,-118.02 1630.72,-100.52 1631.82,-85.15 1617.4,-68.53 1595.58,-43.37 1364.67,-24.78 1285.14,-19.09"/>
<polygon fill="red" stroke="red" stroke-width="0.65" points="1285.18,-15.58 1274.96,-18.37 1284.69,-22.57 1285.18,-15.58"/>
</g>
<!-- &#45;7&#45;&gt;4 -->
<g id="edge197" class="edge">
<title>&#45;7&#45;&gt;4</title>
<path fill="none" stroke="green" stroke-width="0.47" d="M1471.43,-161.76C1568.45,-159.69 2175.31,-145.71 2201.4,-118.02 2216.49,-102.02 2216.56,-84.47 2201.4,-68.53 2147.14,-11.43 1568.86,-55.11 1493.4,-32.53 1492.13,-32.15 1490.86,-31.69 1489.6,-31.18"/>
<polygon fill="green" stroke="green" stroke-width="0.47" points="1490.83,-27.88 1480.33,-26.49 1487.67,-34.13 1490.83,-27.88"/>
</g>
<!-- &#45;7&#45;&gt;5 -->
<g id="edge198" class="edge">
<title>&#45;7&#45;&gt;5</title>
<path fill="none" stroke="green" stroke-width="0.4" stroke-dasharray="1,5" d="M1471.51,-161.99C1589.68,-161.58 2467.82,-157.21 2505.4,-118.02 2520.63,-102.15 2520.66,-84.37 2505.4,-68.53 2468.34,-30.05 1595.69,-47.5 1544.4,-32.53 1543.13,-32.16 1541.86,-31.71 1540.59,-31.2"/>
<polygon fill="green" stroke="green" stroke-width="0.4" points="1541.82,-27.9 1531.32,-26.53 1538.67,-34.16 1541.82,-27.9"/>
</g>
<!-- &#45;7&#45;&gt;6 -->
<g id="edge199" class="edge">
<title>&#45;7&#45;&gt;6</title>
<path fill="none" stroke="red" stroke-width="0.29" d="M1471.69,-162.11C1608.71,-162.98 2760.28,-168.77 2809.4,-118.02 2824.7,-102.22 2824.72,-84.31 2809.4,-68.53 2762.4,-20.11 1660.24,-51.19 1595.4,-32.53 1594.13,-32.16 1592.85,-31.72 1591.59,-31.22"/>
<polygon fill="red" stroke="red" stroke-width="0.29" points="1592.82,-27.92 1582.31,-26.55 1589.67,-34.17 1592.82,-27.92"/>
</g>
<!-- &#45;7&#45;&gt;7 -->
<g id="edge200" class="edge">
<title>&#45;7&#45;&gt;7</title>
<path fill="none" stroke="red" stroke-width="0.2" d="M1471.6,-161.89C1618.01,-160.41 2933.92,-146.32 2961.4,-118.02 2976.73,-102.24 2976.66,-84.38 2961.4,-68.53 2914.1,-19.38 1830.87,-17.25 1646.85,-17.25"/>
<polygon fill="red" stroke="red" stroke-width="0.2" points="1646.72,-13.75 1636.72,-17.25 1646.72,-20.75 1646.72,-13.75"/>
</g>
<!-- &#45;7&#45;&gt;278 -->
<g id="edge55" class="edge">
<title>&#45;7&#45;&gt;278</title>
<path fill="none" stroke="green" stroke-width="0.51" d="M1445.07,-156.55C1442.25,-155.57 1439.26,-154.66 1436.4,-154.02 1256.51,-114.2 1196.14,-182.13 1023.4,-118.02 1021.52,-117.32 1019.64,-116.49 1017.8,-115.55"/>
<polygon fill="green" stroke="green" stroke-width="0.51" points="1019.32,-112.38 1008.94,-110.22 1015.71,-118.38 1019.32,-112.38"/>
</g>
<!-- &#45;7&#45;&gt;279 -->
<g id="edge56" class="edge">
<title>&#45;7&#45;&gt;279</title>
<path fill="none" stroke="green" stroke-width="0.26" d="M1445.06,-156.58C1442.24,-155.6 1439.25,-154.68 1436.4,-154.02 1285.73,-119.35 1234.89,-173.03 1090.4,-118.02 1088.52,-117.31 1086.65,-116.46 1084.81,-115.51"/>
<polygon fill="green" stroke="green" stroke-width="0.26" points="1086.33,-112.34 1075.97,-110.16 1082.71,-118.33 1086.33,-112.34"/>
</g>
<!-- &#45;7&#45;&gt;280 -->
<g id="edge57" class="edge">
<title>&#45;7&#45;&gt;280</title>
<path fill="none" stroke="red" stroke-width="0.19" stroke-dasharray="1,5" d="M1445.05,-156.64C1442.23,-155.65 1439.24,-154.72 1436.4,-154.02 1314.91,-124.48 1273.69,-163.94 1157.4,-118.02 1155.53,-117.29 1153.67,-116.42 1151.83,-115.46"/>
<polygon fill="red" stroke="red" stroke-width="0.19" points="1153.36,-112.29 1143,-110.07 1149.71,-118.26 1153.36,-112.29"/>
</g>
<!-- &#45;7&#45;&gt;281 -->
<g id="edge58" class="edge">
<title>&#45;7&#45;&gt;281</title>
<path fill="none" stroke="green" stroke-width="0.47" d="M1445.03,-156.73C1442.21,-155.73 1439.23,-154.77 1436.4,-154.02 1344.01,-129.59 1312.58,-154.89 1224.4,-118.02 1222.55,-117.25 1220.69,-116.35 1218.87,-115.37"/>
<polygon fill="green" stroke="green" stroke-width="0.47" points="1220.41,-112.21 1210.06,-109.92 1216.72,-118.16 1220.41,-112.21"/>
</g>
<!-- &#45;7&#45;&gt;282 -->
<g id="edge59" class="edge">
<title>&#45;7&#45;&gt;282</title>
<path fill="none" stroke="green" stroke-width="0.23" d="M1444.98,-156.89C1442.17,-155.88 1439.2,-154.88 1436.4,-154.02 1372.89,-134.65 1351.66,-145.92 1291.4,-118.02 1289.58,-117.18 1287.75,-116.23 1285.94,-115.2"/>
<polygon fill="green" stroke="green" stroke-width="0.23" points="1287.5,-112.05 1277.18,-109.65 1283.75,-117.96 1287.5,-112.05"/>
</g>
<!-- &#45;7&#45;&gt;283 -->
<g id="edge60" class="edge">
<title>&#45;7&#45;&gt;283</title>
<path fill="none" stroke="red" stroke-width="0.36" stroke-dasharray="1,5" d="M1445.36,-157.29C1425.86,-150 1388.21,-135.06 1358.4,-118.02 1356.66,-117.03 1354.89,-115.96 1353.13,-114.84"/>
<polygon fill="red" stroke="red" stroke-width="0.36" points="1354.75,-111.71 1344.5,-109.04 1350.84,-117.52 1354.75,-111.71"/>
</g>
<!-- &#45;7&#45;&gt;285 -->
<g id="edge61" class="edge">
<title>&#45;7&#45;&gt;285</title>
<path fill="none" stroke="red" stroke-width="0.46" stroke-dasharray="1,5" d="M1450.57,-153.99C1442.2,-145.39 1428.51,-131.34 1416.52,-119.03"/>
<polygon fill="red" stroke="red" stroke-width="0.46" points="1418.81,-116.37 1409.33,-111.65 1413.8,-121.26 1418.81,-116.37"/>
</g>
<!-- &#45;7&#45;&gt;286 -->
<g id="edge62" class="edge">
<title>&#45;7&#45;&gt;286</title>
<path fill="none" stroke="red" stroke-width="0.58" d="M1458.52,-153.99C1458.62,-147.55 1458.76,-138.05 1458.9,-128.52"/>
<polygon fill="red" stroke="red" stroke-width="0.58" points="1462.4,-128.35 1459.05,-118.3 1455.4,-128.24 1462.4,-128.35"/>
</g>
<!-- &#45;7&#45;&gt;287 -->
<g id="edge63" class="edge">
<title>&#45;7&#45;&gt;287</title>
<path fill="none" stroke="red" stroke-width="0.36" d="M1466.47,-153.99C1475.15,-145.34 1489.39,-131.15 1501.81,-118.78"/>
<polygon fill="red" stroke="red" stroke-width="0.36" points="1504.62,-120.91 1509.24,-111.38 1499.68,-115.95 1504.62,-120.91"/>
</g>
<!-- &#45;8 -->
<g id="node8" class="node">
<title>&#45;8</title>
<polygon fill="lightgray" stroke="black" points="1427.4,-172.02 1401.4,-172.02 1401.4,-154.02 1427.4,-154.02 1427.4,-172.02"/>
<text text-anchor="middle" x="1414.4" y="-160.82" font-family="Times-Roman" font-size="9.00">&#45;8</text>
</g>
<!-- &#45;8&#45;&gt;0 -->
<g id="edge201" class="edge">
<title>&#45;8&#45;&gt;0</title>
<path fill="none" stroke="green" stroke-width="0.21" d="M1401.09,-156.43C1398.27,-155.46 1395.27,-154.58 1392.4,-154.02 1337.78,-143.39 430.04,-158.07 391.4,-118.02 376.13,-102.19 376.56,-84.76 391.4,-68.53 428.71,-27.73 830.05,-19.16 937.87,-17.58"/>
<polygon fill="green" stroke="green" stroke-width="0.21" points="937.96,-21.08 947.91,-17.45 937.87,-14.08 937.96,-21.08"/>
</g>
<!-- &#45;8&#45;&gt;1 -->
<g id="edge202" class="edge">
<title>&#45;8&#45;&gt;1</title>
<path fill="none" stroke="green" stroke-width="0.2" d="M1401.09,-156.47C1398.26,-155.49 1395.27,-154.61 1392.4,-154.02 1316.4,-138.6 748.8,-174.26 695.4,-118.02 680.25,-102.07 680.82,-85 695.4,-68.53 739.02,-19.24 927.05,-53.63 989.4,-32.53 990.66,-32.1 991.92,-31.61 993.17,-31.07"/>
<polygon fill="green" stroke="green" stroke-width="0.2" points="995.14,-34 1002.41,-26.29 991.92,-27.78 995.14,-34"/>
</g>
<!-- &#45;8&#45;&gt;2 -->
<g id="edge203" class="edge">
<title>&#45;8&#45;&gt;2</title>
<path fill="none" stroke="green" stroke-width="0.39" d="M1427.85,-156.97C1430.66,-155.96 1433.62,-154.93 1436.4,-154.02 1490.95,-136.21 1525.94,-163.91 1560.4,-118.02 1573.61,-100.43 1575.08,-84.91 1560.4,-68.53 1511.62,-14.08 1305.94,-41.6 1233.4,-32.53 1205.05,-28.98 1172.63,-24.37 1150.57,-21.15"/>
<polygon fill="green" stroke="green" stroke-width="0.39" points="1151.04,-17.68 1140.63,-19.69 1150.02,-24.61 1151.04,-17.68"/>
</g>
<!-- &#45;8&#45;&gt;3 -->
<g id="edge204" class="edge">
<title>&#45;8&#45;&gt;3</title>
<path fill="none" stroke="red" stroke-width="0.4" d="M1427.81,-156.84C1430.62,-155.83 1433.59,-154.84 1436.4,-154.02 1507.21,-133.38 1552.25,-175.56 1598.4,-118.02 1612.17,-100.86 1612.75,-85.2 1598.4,-68.53 1577.9,-44.7 1360.95,-25.38 1284.71,-19.28"/>
<polygon fill="red" stroke="red" stroke-width="0.4" points="1284.77,-15.77 1274.52,-18.47 1284.22,-22.75 1284.77,-15.77"/>
</g>
<!-- &#45;8&#45;&gt;4 -->
<g id="edge205" class="edge">
<title>&#45;8&#45;&gt;4</title>
<path fill="none" stroke="green" stroke-width="0.22" d="M1427.71,-156.46C1430.54,-155.49 1433.53,-154.6 1436.4,-154.02 1515.68,-138.03 2107.65,-176.61 2163.4,-118.02 2178.57,-102.09 2178.53,-84.49 2163.4,-68.53 2112.12,-14.42 1564.79,-54.01 1493.4,-32.53 1492.13,-32.15 1490.86,-31.69 1489.6,-31.18"/>
<polygon fill="green" stroke="green" stroke-width="0.22" points="1490.83,-27.88 1480.33,-26.48 1487.67,-34.12 1490.83,-27.88"/>
</g>
<!-- &#45;8&#45;&gt;5 -->
<g id="edge206" class="edge">
<title>&#45;8&#45;&gt;5</title>
<path fill="none" stroke="green" stroke-width="0.63" d="M1427.71,-156.43C1430.53,-155.46 1433.53,-154.58 1436.4,-154.02 1492.66,-143.1 2427.59,-159.25 2467.4,-118.02 2482.68,-102.2 2482.65,-84.38 2467.4,-68.53 2431.83,-31.54 1593.65,-46.95 1544.4,-32.53 1543.13,-32.15 1541.86,-31.71 1540.59,-31.2"/>
<polygon fill="green" stroke="green" stroke-width="0.63" points="1541.82,-27.9 1531.32,-26.52 1538.67,-34.15 1541.82,-27.9"/>
</g>
<!-- &#45;8&#45;&gt;6 -->
<g id="edge207" class="edge">
<title>&#45;8&#45;&gt;6</title>
<path fill="none" stroke="green" stroke-width="0.41" d="M1427.7,-156.41C1430.53,-155.44 1433.53,-154.57 1436.4,-154.02 1509.29,-140.17 2719.65,-171.19 2771.4,-118.02 2786.75,-102.26 2786.72,-84.32 2771.4,-68.53 2725.89,-21.61 1658.21,-50.64 1595.4,-32.53 1594.13,-32.16 1592.85,-31.72 1591.59,-31.21"/>
<polygon fill="green" stroke="green" stroke-width="0.41" points="1592.82,-27.91 1582.31,-26.55 1589.67,-34.17 1592.82,-27.91"/>
</g>
<!-- &#45;8&#45;&gt;7 -->
<g id="edge208" class="edge">
<title>&#45;8&#45;&gt;7</title>
<path fill="none" stroke="green" stroke-width="0.46" d="M1427.7,-156.41C1430.53,-155.44 1433.53,-154.57 1436.4,-154.02 1517.6,-138.7 2865.68,-177.16 2923.4,-118.02 2938.77,-102.28 2938.65,-84.39 2923.4,-68.53 2877.54,-20.82 1828.16,-17.5 1646.94,-17.28"/>
<polygon fill="green" stroke="green" stroke-width="0.46" points="1646.72,-13.78 1636.72,-17.27 1646.71,-20.78 1646.72,-13.78"/>
</g>
<!-- &#45;8&#45;&gt;278 -->
<g id="edge64" class="edge">
<title>&#45;8&#45;&gt;278</title>
<path fill="none" stroke="red" stroke-width="0.26" d="M1401.07,-156.57C1398.24,-155.59 1395.26,-154.67 1392.4,-154.02 1231.7,-117.58 1177.59,-176.15 1023.4,-118.02 1021.52,-117.31 1019.65,-116.47 1017.81,-115.53"/>
<polygon fill="red" stroke="red" stroke-width="0.26" points="1019.33,-112.36 1008.96,-110.18 1015.71,-118.35 1019.33,-112.36"/>
</g>
<!-- &#45;8&#45;&gt;279 -->
<g id="edge65" class="edge">
<title>&#45;8&#45;&gt;279</title>
<path fill="none" stroke="green" stroke-width="0.79" d="M1401.06,-156.62C1398.23,-155.63 1395.25,-154.7 1392.4,-154.02 1260.9,-122.72 1216.37,-167.06 1090.4,-118.02 1088.53,-117.29 1086.66,-116.43 1084.82,-115.48"/>
<polygon fill="green" stroke="green" stroke-width="0.79" points="1086.35,-112.31 1075.99,-110.1 1082.71,-118.29 1086.35,-112.31"/>
</g>
<!-- &#45;8&#45;&gt;280 -->
<g id="edge66" class="edge">
<title>&#45;8&#45;&gt;280</title>
<path fill="none" stroke="green" stroke-width="0.11" d="M1401.04,-156.69C1398.22,-155.7 1395.24,-154.75 1392.4,-154.02 1290.03,-127.84 1255.21,-157.99 1157.4,-118.02 1155.54,-117.26 1153.68,-116.38 1151.85,-115.4"/>
<polygon fill="green" stroke="green" stroke-width="0.11" points="1153.39,-112.24 1143.04,-109.98 1149.72,-118.2 1153.39,-112.24"/>
</g>
<!-- &#45;8&#45;&gt;281 -->
<g id="edge67" class="edge">
<title>&#45;8&#45;&gt;281</title>
<path fill="none" stroke="green" stroke-width="0.27" d="M1401,-156.82C1398.18,-155.82 1395.21,-154.83 1392.4,-154.02 1319.01,-132.93 1294.21,-148.98 1224.4,-118.02 1222.56,-117.21 1220.72,-116.28 1218.91,-115.27"/>
<polygon fill="green" stroke="green" stroke-width="0.27" points="1220.46,-112.12 1210.13,-109.76 1216.74,-118.04 1220.46,-112.12"/>
</g>
<!-- &#45;8&#45;&gt;282 -->
<g id="edge68" class="edge">
<title>&#45;8&#45;&gt;282</title>
<path fill="none" stroke="red" stroke-width="0.59" d="M1401.38,-157.27C1398.43,-156.2 1395.31,-155.07 1392.4,-154.02 1347.56,-137.88 1333.6,-140.16 1291.4,-118.02 1289.62,-117.09 1287.83,-116.07 1286.05,-114.99"/>
<polygon fill="red" stroke="red" stroke-width="0.59" points="1287.64,-111.85 1277.36,-109.29 1283.8,-117.7 1287.64,-111.85"/>
</g>
<!-- &#45;8&#45;&gt;283 -->
<g id="edge69" class="edge">
<title>&#45;8&#45;&gt;283</title>
<path fill="none" stroke="red" stroke-width="0.18" stroke-dasharray="1,5" d="M1403.84,-153.99C1391.34,-144.47 1370.03,-128.25 1352.78,-115.11"/>
<polygon fill="red" stroke="red" stroke-width="0.18" points="1354.77,-112.23 1344.69,-108.96 1350.53,-117.8 1354.77,-112.23"/>
</g>
<!-- &#45;8&#45;&gt;285 -->
<g id="edge70" class="edge">
<title>&#45;8&#45;&gt;285</title>
<path fill="none" stroke="green" stroke-width="0.33" stroke-dasharray="1,5" d="M1411.79,-153.99C1409.57,-147.13 1406.21,-136.81 1402.92,-126.66"/>
<polygon fill="green" stroke="green" stroke-width="0.33" points="1406.23,-125.53 1399.81,-117.1 1399.57,-127.7 1406.23,-125.53"/>
</g>
<!-- &#45;8&#45;&gt;286 -->
<g id="edge71" class="edge">
<title>&#45;8&#45;&gt;286</title>
<path fill="none" stroke="red" stroke-width="0.54" d="M1419.74,-153.99C1424.86,-146.28 1432.9,-134.17 1440.41,-122.87"/>
<polygon fill="red" stroke="red" stroke-width="0.54" points="1443.37,-124.74 1445.99,-114.47 1437.54,-120.87 1443.37,-124.74"/>
</g>
<!-- &#45;8&#45;&gt;287 -->
<g id="edge72" class="edge">
<title>&#45;8&#45;&gt;287</title>
<path fill="none" stroke="red" stroke-width="0.46" d="M1427.53,-155.31C1443.43,-147.04 1470.87,-132.34 1493.4,-118.02 1495.05,-116.97 1496.74,-115.87 1498.42,-114.74"/>
<polygon fill="red" stroke="red" stroke-width="0.46" points="1500.53,-117.54 1506.76,-108.97 1496.55,-111.78 1500.53,-117.54"/>
</g>
<!-- 278&#45;&gt;0 -->
<g id="edge73" class="edge">
<title>278&#45;&gt;0</title>
<path fill="none" stroke="green" stroke-width="0.16" d="M982.6,-69.77C979.51,-60.86 975.96,-50.61 972.82,-41.54"/>
<polygon fill="green" stroke="green" stroke-width="0.16" points="976.07,-40.24 969.49,-31.94 969.46,-42.53 976.07,-40.24"/>
</g>
<!-- 278&#45;&gt;1 -->
<g id="edge74" class="edge">
<title>278&#45;&gt;1</title>
<path fill="none" stroke="red" stroke-width="0.66" d="M998.04,-69.36C1000.93,-60.69 1004.23,-50.79 1007.17,-41.96"/>
<polygon fill="red" stroke="red" stroke-width="0.66" points="1010.57,-42.82 1010.41,-32.23 1003.93,-40.61 1010.57,-42.82"/>
</g>
<!-- 278&#45;&gt;2 -->
<g id="edge75" class="edge">
<title>278&#45;&gt;2</title>
<path fill="none" stroke="red" stroke-width="0.18" d="M1009.96,-77.45C1014.3,-74.37 1018.94,-71.24 1023.4,-68.53 1048.92,-52.99 1079.73,-37.84 1100.55,-28.09"/>
<polygon fill="red" stroke="red" stroke-width="0.18" points="1102.03,-31.26 1109.64,-23.88 1099.09,-24.91 1102.03,-31.26"/>
</g>
<!-- 278&#45;&gt;3 -->
<g id="edge76" class="edge">
<title>278&#45;&gt;3</title>
<path fill="none" stroke="green" stroke-width="0.13" d="M1009.14,-76.8C1013.6,-73.69 1018.5,-70.71 1023.4,-68.53 1060.87,-51.83 1179.24,-30.57 1232.26,-21.58"/>
<polygon fill="green" stroke="green" stroke-width="0.13" points="1232.96,-25.01 1242.24,-19.91 1231.8,-18.11 1232.96,-25.01"/>
</g>
<!-- 278&#45;&gt;4 -->
<g id="edge77" class="edge">
<title>278&#45;&gt;4</title>
<path fill="none" stroke="red" stroke-width="0.27" d="M1008.98,-76.44C1013.46,-73.34 1018.4,-70.46 1023.4,-68.53 1062.48,-53.4 1351.68,-27.31 1441.12,-19.52"/>
<polygon fill="red" stroke="red" stroke-width="0.27" points="1441.58,-22.99 1451.24,-18.64 1440.97,-16.02 1441.58,-22.99"/>
</g>
<!-- 278&#45;&gt;5 -->
<g id="edge78" class="edge">
<title>278&#45;&gt;5</title>
<path fill="none" stroke="green" stroke-width="0.19" d="M1008.93,-76.29C1013.41,-73.21 1018.36,-70.37 1023.4,-68.53 1219.77,3.2 1292.91,-95.05 1492.4,-32.53 1493.67,-32.13 1494.93,-31.66 1496.19,-31.14"/>
<polygon fill="green" stroke="green" stroke-width="0.19" points="1498.14,-34.08 1505.45,-26.42 1494.96,-27.85 1498.14,-34.08"/>
</g>
<!-- 278&#45;&gt;6 -->
<g id="edge79" class="edge">
<title>278&#45;&gt;6</title>
<path fill="none" stroke="green" stroke-width="0.28" d="M1008.92,-76.27C1013.4,-73.18 1018.36,-70.35 1023.4,-68.53 1241.3,10.14 1322.08,-100.98 1543.4,-32.53 1544.67,-32.14 1545.94,-31.67 1547.2,-31.15"/>
<polygon fill="green" stroke="green" stroke-width="0.28" points="1549.14,-34.09 1556.46,-26.44 1545.96,-27.86 1549.14,-34.09"/>
</g>
<!-- 278&#45;&gt;7 -->
<g id="edge80" class="edge">
<title>278&#45;&gt;7</title>
<path fill="none" stroke="red" stroke-width="0.11" d="M1008.91,-76.24C1013.39,-73.16 1018.35,-70.33 1023.4,-68.53 1262.84,17.08 1351.25,-106.92 1594.4,-32.53 1595.67,-32.14 1596.94,-31.68 1598.2,-31.16"/>
<polygon fill="red" stroke="red" stroke-width="0.11" points="1600.14,-34.11 1607.46,-26.46 1596.96,-27.87 1600.14,-34.11"/>
</g>
<!-- 279&#45;&gt;0 -->
<g id="edge81" class="edge">
<title>279&#45;&gt;0</title>
<path fill="none" stroke="red" stroke-width="0.83" d="M1038.58,-77.1C1023,-64.53 1000.89,-46.7 984.87,-33.77"/>
<polygon fill="red" stroke="red" stroke-width="0.83" points="986.65,-30.72 976.67,-27.16 982.26,-36.16 986.65,-30.72"/>
</g>
<!-- 279&#45;&gt;1 -->
<g id="edge82" class="edge">
<title>279&#45;&gt;1</title>
<path fill="none" stroke="red" stroke-width="0.19" d="M1045.7,-71.38C1040.18,-61.53 1033.59,-49.75 1027.97,-39.71"/>
<polygon fill="red" stroke="red" stroke-width="0.19" points="1030.88,-37.74 1022.94,-30.73 1024.77,-41.16 1030.88,-37.74"/>
</g>
<!-- 279&#45;&gt;2 -->
<g id="edge83" class="edge">
<title>279&#45;&gt;2</title>
<path fill="none" stroke="green" stroke-width="0.89" d="M1073.62,-74.12C1083.72,-62.81 1096.7,-48.28 1107.01,-36.74"/>
<polygon fill="green" stroke="green" stroke-width="0.89" points="1109.91,-38.74 1113.97,-28.95 1104.69,-34.07 1109.91,-38.74"/>
</g>
<!-- 279&#45;&gt;3 -->
<g id="edge84" class="edge">
<title>279&#45;&gt;3</title>
<path fill="none" stroke="red" stroke-width="0.37" d="M1076.27,-77.1C1080.73,-73.97 1085.59,-70.91 1090.4,-68.53 1137.99,-44.95 1198.58,-29.73 1232.46,-22.4"/>
<polygon fill="red" stroke="red" stroke-width="0.37" points="1233.4,-25.78 1242.47,-20.3 1231.96,-18.93 1233.4,-25.78"/>
</g>
<!-- 279&#45;&gt;4 -->
<g id="edge85" class="edge">
<title>279&#45;&gt;4</title>
<path fill="none" stroke="red" stroke-width="0.18" d="M1076.01,-76.51C1080.49,-73.41 1085.42,-70.51 1090.4,-68.53 1154.6,-42.93 1365.74,-24.93 1440.71,-19.21"/>
<polygon fill="red" stroke="red" stroke-width="0.18" points="1441.43,-22.66 1451.14,-18.42 1440.9,-15.68 1441.43,-22.66"/>
</g>
<!-- 279&#45;&gt;5 -->
<g id="edge86" class="edge">
<title>279&#45;&gt;5</title>
<path fill="none" stroke="green" stroke-width="0.85" d="M1075.95,-76.34C1080.42,-73.25 1085.37,-70.4 1090.4,-68.53 1258.5,-5.91 1321.57,-87.26 1492.4,-32.53 1493.66,-32.12 1494.93,-31.65 1496.19,-31.12"/>
<polygon fill="green" stroke="green" stroke-width="0.85" points="1498.14,-34.06 1505.44,-26.38 1494.95,-27.83 1498.14,-34.06"/>
</g>
<!-- 279&#45;&gt;6 -->
<g id="edge87" class="edge">
<title>279&#45;&gt;6</title>
<path fill="none" stroke="red" stroke-width="0.19" d="M1075.93,-76.3C1080.41,-73.22 1085.37,-70.37 1090.4,-68.53 1280.02,1.02 1350.76,-93.19 1543.4,-32.53 1544.67,-32.13 1545.93,-31.66 1547.19,-31.14"/>
<polygon fill="red" stroke="red" stroke-width="0.19" points="1549.14,-34.08 1556.45,-26.41 1545.95,-27.84 1549.14,-34.08"/>
</g>
<!-- 279&#45;&gt;7 -->
<g id="edge88" class="edge">
<title>279&#45;&gt;7</title>
<path fill="none" stroke="red" stroke-width="0.55" d="M1075.92,-76.27C1080.4,-73.19 1085.36,-70.35 1090.4,-68.53 1301.55,7.96 1379.93,-99.12 1594.4,-32.53 1595.67,-32.13 1596.94,-31.67 1598.2,-31.15"/>
<polygon fill="red" stroke="red" stroke-width="0.55" points="1600.14,-34.09 1607.46,-26.43 1596.96,-27.85 1600.14,-34.09"/>
</g>
<!-- 280&#45;&gt;0 -->
<g id="edge89" class="edge">
<title>280&#45;&gt;0</title>
<path fill="none" stroke="green" stroke-width="0.33" d="M1105.45,-77.26C1100.99,-74.12 1096.15,-71.02 1091.4,-68.53 1049.2,-46.39 1033.59,-52.68 990.4,-32.53 989.23,-31.98 988.04,-31.39 986.85,-30.79"/>
<polygon fill="green" stroke="green" stroke-width="0.33" points="988.35,-27.62 977.9,-25.84 984.96,-33.74 988.35,-27.62"/>
</g>
<!-- 280&#45;&gt;1 -->
<g id="edge90" class="edge">
<title>280&#45;&gt;1</title>
<path fill="none" stroke="red" stroke-width="0.35" d="M1104.58,-77.86C1100.25,-74.76 1095.69,-71.51 1091.4,-68.53 1073.34,-55.94 1052.62,-41.99 1037.37,-31.83"/>
<polygon fill="red" stroke="red" stroke-width="0.35" points="1038.93,-28.66 1028.67,-26.03 1035.05,-34.49 1038.93,-28.66"/>
</g>
<!-- 280&#45;&gt;2 -->
<g id="edge91" class="edge">
<title>280&#45;&gt;2</title>
<path fill="none" stroke="green" stroke-width="0.36" d="M1124.4,-68.13C1124.4,-60.03 1124.4,-50.97 1124.4,-42.77"/>
<polygon fill="green" stroke="green" stroke-width="0.36" points="1127.9,-42.64 1124.4,-32.64 1120.9,-42.64 1127.9,-42.64"/>
</g>
<!-- 280&#45;&gt;3 -->
<g id="edge92" class="edge">
<title>280&#45;&gt;3</title>
<path fill="none" stroke="green" stroke-width="0.37" d="M1143.96,-77.45C1148.3,-74.37 1152.94,-71.24 1157.4,-68.53 1182.92,-52.99 1213.73,-37.84 1234.55,-28.09"/>
<polygon fill="green" stroke="green" stroke-width="0.37" points="1236.03,-31.26 1243.64,-23.88 1233.09,-24.91 1236.03,-31.26"/>
</g>
<!-- 280&#45;&gt;4 -->
<g id="edge93" class="edge">
<title>280&#45;&gt;4</title>
<path fill="none" stroke="red" stroke-width="0.32" d="M1143.06,-76.62C1147.53,-73.51 1152.45,-70.59 1157.4,-68.53 1256.13,-27.5 1385.4,-19.25 1440.57,-17.63"/>
<polygon fill="red" stroke="red" stroke-width="0.32" points="1440.97,-21.12 1450.88,-17.38 1440.8,-14.12 1440.97,-21.12"/>
</g>
<!-- 280&#45;&gt;5 -->
<g id="edge94" class="edge">
<title>280&#45;&gt;5</title>
<path fill="none" stroke="red" stroke-width="0.73" d="M1142.97,-76.41C1147.45,-73.32 1152.39,-70.44 1157.4,-68.53 1297.26,-15.02 1350.21,-79.48 1492.4,-32.53 1493.66,-32.11 1494.92,-31.63 1496.18,-31.1"/>
<polygon fill="red" stroke="red" stroke-width="0.73" points="1498.14,-34.02 1505.43,-26.33 1494.93,-27.8 1498.14,-34.02"/>
</g>
<!-- 280&#45;&gt;6 -->
<g id="edge95" class="edge">
<title>280&#45;&gt;6</title>
<path fill="none" stroke="red" stroke-width="0.14" d="M1142.95,-76.35C1147.43,-73.27 1152.38,-70.41 1157.4,-68.53 1318.75,-8.09 1379.42,-85.4 1543.4,-32.53 1544.66,-32.12 1545.93,-31.64 1547.19,-31.12"/>
<polygon fill="red" stroke="red" stroke-width="0.14" points="1549.14,-34.05 1556.44,-26.37 1545.94,-27.82 1549.14,-34.05"/>
</g>
<!-- 280&#45;&gt;7 -->
<g id="edge96" class="edge">
<title>280&#45;&gt;7</title>
<path fill="none" stroke="green" stroke-width="0.53" d="M1142.94,-76.31C1147.41,-73.23 1152.37,-70.38 1157.4,-68.53 1340.27,-1.15 1408.61,-91.33 1594.4,-32.53 1595.66,-32.13 1596.93,-31.66 1598.19,-31.13"/>
<polygon fill="green" stroke="green" stroke-width="0.53" points="1600.14,-34.07 1607.45,-26.4 1596.95,-27.84 1600.14,-34.07"/>
</g>
<!-- 281&#45;&gt;0 -->
<g id="edge97" class="edge">
<title>281&#45;&gt;0</title>
<path fill="none" stroke="red" stroke-width="0.56" d="M1172.67,-76.79C1168.21,-73.68 1163.31,-70.7 1158.4,-68.53 1088.6,-37.57 1061.57,-60.21 990.4,-32.53 989.17,-32.05 987.92,-31.51 986.68,-30.94"/>
<polygon fill="red" stroke="red" stroke-width="0.56" points="987.95,-27.65 977.48,-26.04 984.66,-33.83 987.95,-27.65"/>
</g>
<!-- 281&#45;&gt;1 -->
<g id="edge98" class="edge">
<title>281&#45;&gt;1</title>
<path fill="none" stroke="red" stroke-width="0.67" d="M1172.44,-77.27C1167.99,-74.13 1163.15,-71.02 1158.4,-68.53 1119.31,-47.98 1070.18,-32.38 1040.87,-24.05"/>
<polygon fill="red" stroke="red" stroke-width="0.67" points="1041.59,-20.61 1031.02,-21.31 1039.72,-27.36 1041.59,-20.61"/>
</g>
<!-- 281&#45;&gt;2 -->
<g id="edge99" class="edge">
<title>281&#45;&gt;2</title>
<path fill="none" stroke="green" stroke-width="0.65" stroke-dasharray="1,5" d="M1175.18,-74.12C1165.09,-62.81 1152.1,-48.28 1141.79,-36.74"/>
<polygon fill="green" stroke="green" stroke-width="0.65" points="1144.11,-34.07 1134.84,-28.95 1138.89,-38.74 1144.11,-34.07"/>
</g>
<!-- 281&#45;&gt;3 -->
<g id="edge100" class="edge">
<title>281&#45;&gt;3</title>
<path fill="none" stroke="red" stroke-width="0.75" d="M1207.62,-74.12C1217.72,-62.81 1230.7,-48.28 1241.01,-36.74"/>
<polygon fill="red" stroke="red" stroke-width="0.75" points="1243.91,-38.74 1247.97,-28.95 1238.69,-34.07 1243.91,-38.74"/>
</g>
<!-- 281&#45;&gt;4 -->
<g id="edge101" class="edge">
<title>281&#45;&gt;4</title>
<path fill="none" stroke="red" stroke-width="1.01" d="M1210.12,-76.78C1214.59,-73.67 1219.49,-70.69 1224.4,-68.53 1298.71,-35.71 1395.25,-23.43 1441.06,-19.24"/>
<polygon fill="red" stroke="red" stroke-width="1.01" points="1441.4,-22.72 1451.06,-18.37 1440.8,-15.74 1441.4,-22.72"/>
</g>
<!-- 281&#45;&gt;5 -->
<g id="edge102" class="edge">
<title>281&#45;&gt;5</title>
<path fill="none" stroke="red" stroke-width="0.6" d="M1210.01,-76.5C1214.48,-73.41 1219.42,-70.51 1224.4,-68.53 1336.07,-24.1 1378.79,-71.72 1492.4,-32.53 1493.65,-32.09 1494.91,-31.6 1496.17,-31.06"/>
<polygon fill="red" stroke="red" stroke-width="0.6" points="1498.14,-33.97 1505.4,-26.26 1494.91,-27.76 1498.14,-33.97"/>
</g>
<!-- 281&#45;&gt;6 -->
<g id="edge103" class="edge">
<title>281&#45;&gt;6</title>
<path fill="none" stroke="red" stroke-width="0.37" d="M1209.98,-76.43C1214.45,-73.33 1219.4,-70.46 1224.4,-68.53 1357.52,-17.19 1408.04,-77.63 1543.4,-32.53 1544.66,-32.11 1545.92,-31.62 1547.18,-31.09"/>
<polygon fill="red" stroke="red" stroke-width="0.37" points="1549.14,-34.01 1556.42,-26.32 1545.93,-27.79 1549.14,-34.01"/>
</g>
<!-- 281&#45;&gt;7 -->
<g id="edge104" class="edge">
<title>281&#45;&gt;7</title>
<path fill="none" stroke="red" stroke-width="0.63" d="M1209.96,-76.37C1214.43,-73.28 1219.38,-70.42 1224.4,-68.53 1379.01,-10.26 1437.25,-83.55 1594.4,-32.53 1595.66,-32.12 1596.93,-31.64 1598.18,-31.11"/>
<polygon fill="red" stroke="red" stroke-width="0.63" points="1600.14,-34.04 1607.43,-26.36 1596.94,-27.82 1600.14,-34.04"/>
</g>
<!-- 282&#45;&gt;0 -->
<g id="edge105" class="edge">
<title>282&#45;&gt;0</title>
<path fill="none" stroke="green" stroke-width="0.4" d="M1239.77,-76.57C1235.29,-73.47 1230.37,-70.56 1225.4,-68.53 1127.59,-28.56 1089.97,-67.91 990.4,-32.53 989.15,-32.08 987.9,-31.58 986.65,-31.03"/>
<polygon fill="green" stroke="green" stroke-width="0.4" points="987.9,-27.74 977.42,-26.2 984.66,-33.94 987.9,-27.74"/>
</g>
<!-- 282&#45;&gt;1 -->
<g id="edge106" class="edge">
<title>282&#45;&gt;1</title>
<path fill="none" stroke="red" stroke-width="0.57" d="M1239.63,-76.89C1235.16,-73.78 1230.27,-70.77 1225.4,-68.53 1192.52,-53.38 1089.95,-31.95 1041.39,-22.31"/>
<polygon fill="red" stroke="red" stroke-width="0.57" points="1041.84,-18.83 1031.35,-20.33 1040.48,-25.7 1041.84,-18.83"/>
</g>
<!-- 282&#45;&gt;2 -->
<g id="edge107" class="edge">
<title>282&#45;&gt;2</title>
<path fill="none" stroke="red" stroke-width="0.4" d="M1238.85,-77.45C1234.5,-74.37 1229.86,-71.24 1225.4,-68.53 1199.88,-52.99 1169.08,-37.84 1148.25,-28.09"/>
<polygon fill="red" stroke="red" stroke-width="0.4" points="1149.71,-24.91 1139.17,-23.88 1146.77,-31.26 1149.71,-24.91"/>
</g>
<!-- 282&#45;&gt;3 -->
<g id="edge108" class="edge">
<title>282&#45;&gt;3</title>
<path fill="none" stroke="green" stroke-width="0.22" d="M1258.4,-68.13C1258.4,-60.03 1258.4,-50.97 1258.4,-42.77"/>
<polygon fill="green" stroke="green" stroke-width="0.22" points="1261.9,-42.64 1258.4,-32.64 1254.9,-42.64 1261.9,-42.64"/>
</g>
<!-- 282&#45;&gt;4 -->
<g id="edge109" class="edge">
<title>282&#45;&gt;4</title>
<path fill="none" stroke="green" stroke-width="0.17" d="M1277.25,-77.05C1281.71,-73.93 1286.58,-70.88 1291.4,-68.53 1341.7,-44.01 1405.92,-28.99 1441.22,-21.98"/>
<polygon fill="green" stroke="green" stroke-width="0.17" points="1442.04,-25.39 1451.2,-20.07 1440.72,-18.52 1442.04,-25.39"/>
</g>
<!-- 282&#45;&gt;5 -->
<g id="edge110" class="edge">
<title>282&#45;&gt;5</title>
<path fill="none" stroke="red" stroke-width="0.13" d="M1277.08,-76.67C1281.55,-73.56 1286.46,-70.62 1291.4,-68.53 1374.97,-33.14 1407.28,-63.99 1492.4,-32.53 1493.64,-32.07 1494.9,-31.55 1496.14,-30.99"/>
<polygon fill="red" stroke="red" stroke-width="0.13" points="1498.14,-33.89 1505.36,-26.13 1494.88,-27.7 1498.14,-33.89"/>
</g>
<!-- 282&#45;&gt;6 -->
<g id="edge111" class="edge">
<title>282&#45;&gt;6</title>
<path fill="none" stroke="green" stroke-width="0.2" d="M1277.02,-76.54C1281.5,-73.44 1286.43,-70.53 1291.4,-68.53 1396.35,-26.26 1436.6,-69.87 1543.4,-32.53 1544.65,-32.09 1545.91,-31.59 1547.16,-31.04"/>
<polygon fill="green" stroke="green" stroke-width="0.2" points="1549.14,-33.96 1556.39,-26.23 1545.91,-27.75 1549.14,-33.96"/>
</g>
<!-- 282&#45;&gt;7 -->
<g id="edge112" class="edge">
<title>282&#45;&gt;7</title>
<path fill="none" stroke="green" stroke-width="0.52" d="M1276.99,-76.45C1281.46,-73.36 1286.4,-70.47 1291.4,-68.53 1417.79,-19.36 1465.87,-75.77 1594.4,-32.53 1595.66,-32.1 1596.92,-31.62 1598.17,-31.08"/>
<polygon fill="green" stroke="green" stroke-width="0.52" points="1600.14,-34 1607.41,-26.3 1596.92,-27.78 1600.14,-34"/>
</g>
<!-- 283&#45;&gt;0 -->
<g id="edge113" class="edge">
<title>283&#45;&gt;0</title>
<path fill="none" stroke="red" stroke-width="0.38" d="M1306.81,-76.45C1302.34,-73.36 1297.4,-70.47 1292.4,-68.53 1166.44,-19.49 1118.51,-75.66 990.4,-32.53 989.15,-32.1 987.88,-31.62 986.63,-31.08"/>
<polygon fill="red" stroke="red" stroke-width="0.38" points="987.88,-27.78 977.39,-26.3 984.66,-34 987.88,-27.78"/>
</g>
<!-- 283&#45;&gt;1 -->
<g id="edge114" class="edge">
<title>283&#45;&gt;1</title>
<path fill="none" stroke="red" stroke-width="0.24" d="M1306.72,-76.69C1302.25,-73.58 1297.34,-70.63 1292.4,-68.53 1289.49,-67.28 1109.48,-34.41 1041.24,-21.97"/>
<polygon fill="red" stroke="red" stroke-width="0.24" points="1041.76,-18.51 1031.29,-20.16 1040.5,-25.39 1041.76,-18.51"/>
</g>
<!-- 283&#45;&gt;2 -->
<g id="edge115" class="edge">
<title>283&#45;&gt;2</title>
<path fill="none" stroke="green" stroke-width="0.25" d="M1306.53,-77.1C1302.07,-73.97 1297.21,-70.91 1292.4,-68.53 1244.81,-44.95 1184.23,-29.73 1150.35,-22.4"/>
<polygon fill="green" stroke="green" stroke-width="0.25" points="1150.84,-18.93 1140.34,-20.3 1149.4,-25.78 1150.84,-18.93"/>
</g>
<!-- 283&#45;&gt;3 -->
<g id="edge116" class="edge">
<title>283&#45;&gt;3</title>
<path fill="none" stroke="red" stroke-width="0.56" d="M1309.18,-74.12C1299.09,-62.81 1286.1,-48.28 1275.79,-36.74"/>
<polygon fill="red" stroke="red" stroke-width="0.56" points="1278.11,-34.07 1268.84,-28.95 1272.89,-38.74 1278.11,-34.07"/>
</g>
<!-- 283&#45;&gt;4 -->
<g id="edge117" class="edge">
<title>283&#45;&gt;4</title>
<path fill="none" stroke="green" stroke-width="0.17" d="M1344.9,-77.35C1349.24,-74.28 1353.9,-71.18 1358.4,-68.53 1386.38,-52.07 1420.51,-36.72 1443.04,-27.19"/>
<polygon fill="green" stroke="green" stroke-width="0.17" points="1444.63,-30.32 1452.51,-23.24 1441.93,-23.86 1444.63,-30.32"/>
</g>
<!-- 283&#45;&gt;5 -->
<g id="edge118" class="edge">
<title>283&#45;&gt;5</title>
<path fill="none" stroke="green" stroke-width="0.3" d="M1344.22,-76.97C1348.68,-73.85 1353.56,-70.83 1358.4,-68.53 1414.11,-42.09 1435.52,-56.35 1492.4,-32.53 1493.62,-32.02 1494.86,-31.46 1496.09,-30.86"/>
<polygon fill="green" stroke="green" stroke-width="0.3" points="1498.13,-33.74 1505.26,-25.9 1494.8,-27.58 1498.13,-33.74"/>
</g>
<!-- 283&#45;&gt;6 -->
<g id="edge119" class="edge">
<title>283&#45;&gt;6</title>
<path fill="none" stroke="red" stroke-width="0.16" d="M1344.1,-76.72C1348.57,-73.61 1353.48,-70.66 1358.4,-68.53 1435.29,-35.29 1465.05,-62.15 1543.4,-32.53 1544.64,-32.06 1545.89,-31.53 1547.13,-30.97"/>
<polygon fill="red" stroke="red" stroke-width="0.16" points="1549.14,-33.86 1556.34,-26.09 1545.87,-27.68 1549.14,-33.86"/>
</g>
<!-- 283&#45;&gt;7 -->
<g id="edge120" class="edge">
<title>283&#45;&gt;7</title>
<path fill="none" stroke="red" stroke-width="0.28" stroke-dasharray="1,5" d="M1344.04,-76.57C1348.51,-73.47 1353.44,-70.55 1358.4,-68.53 1456.63,-28.43 1494.41,-68.02 1594.4,-32.53 1595.65,-32.08 1596.91,-31.58 1598.16,-31.03"/>
<polygon fill="red" stroke="red" stroke-width="0.28" points="1600.14,-33.94 1607.38,-26.21 1596.9,-27.74 1600.14,-33.94"/>
</g>
<!-- 285&#45;&gt;0 -->
<g id="edge121" class="edge">
<title>285&#45;&gt;0</title>
<path fill="none" stroke="red" stroke-width="0.35" d="M1373.84,-76.37C1369.37,-73.28 1364.42,-70.42 1359.4,-68.53 1205.22,-10.4 1147.12,-83.43 990.4,-32.53 989.14,-32.12 987.88,-31.64 986.62,-31.11"/>
<polygon fill="red" stroke="red" stroke-width="0.35" points="987.86,-27.82 977.37,-26.36 984.66,-34.04 987.86,-27.82"/>
</g>
<!-- 285&#45;&gt;1 -->
<g id="edge122" class="edge">
<title>285&#45;&gt;1</title>
<path fill="none" stroke="red" stroke-width="0.24" d="M1373.79,-76.52C1369.31,-73.42 1364.38,-70.52 1359.4,-68.53 1251.1,-25.18 1214.59,-50.96 1099.4,-32.53 1079.83,-29.4 1057.79,-25.37 1041.2,-22.24"/>
<polygon fill="red" stroke="red" stroke-width="0.24" points="1041.64,-18.76 1031.16,-20.33 1040.33,-25.64 1041.64,-18.76"/>
</g>
<!-- 285&#45;&gt;2 -->
<g id="edge123" class="edge">
<title>285&#45;&gt;2</title>
<path fill="none" stroke="green" stroke-width="0.67" d="M1373.67,-76.8C1369.2,-73.69 1364.3,-70.71 1359.4,-68.53 1321.93,-51.83 1203.57,-30.57 1150.54,-21.58"/>
<polygon fill="green" stroke="green" stroke-width="0.67" points="1151,-18.11 1140.56,-19.91 1149.84,-25.01 1151,-18.11"/>
</g>
<!-- 285&#45;&gt;3 -->
<g id="edge124" class="edge">
<title>285&#45;&gt;3</title>
<path fill="none" stroke="green" stroke-width="0.32" d="M1372.85,-77.45C1368.5,-74.37 1363.86,-71.24 1359.4,-68.53 1333.88,-52.99 1303.08,-37.84 1282.25,-28.09"/>
<polygon fill="green" stroke="green" stroke-width="0.32" points="1283.71,-24.91 1273.17,-23.88 1280.77,-31.26 1283.71,-24.91"/>
</g>
<!-- 285&#45;&gt;4 -->
<g id="edge125" class="edge">
<title>285&#45;&gt;4</title>
<path fill="none" stroke="green" stroke-width="0.26" d="M1409.42,-75.25C1421.19,-63.48 1436.84,-47.83 1448.92,-35.75"/>
<polygon fill="green" stroke="green" stroke-width="0.26" points="1451.67,-37.95 1456.26,-28.4 1446.72,-33 1451.67,-37.95"/>
</g>
<!-- 285&#45;&gt;5 -->
<g id="edge126" class="edge">
<title>285&#45;&gt;5</title>
<path fill="none" stroke="green" stroke-width="0.63" d="M1412.01,-77.53C1416.35,-74.45 1420.97,-71.29 1425.4,-68.53 1454.07,-50.62 1462.93,-49.09 1492.4,-32.53 1493.53,-31.89 1494.69,-31.24 1495.85,-30.57"/>
<polygon fill="green" stroke="green" stroke-width="0.63" points="1497.8,-33.49 1504.69,-25.44 1494.29,-27.43 1497.8,-33.49"/>
</g>
<!-- 285&#45;&gt;6 -->
<g id="edge127" class="edge">
<title>285&#45;&gt;6</title>
<path fill="none" stroke="green" stroke-width="0.11" d="M1411.27,-77.1C1415.73,-73.97 1420.59,-70.91 1425.4,-68.53 1474.53,-44.19 1493.19,-54.56 1543.4,-32.53 1544.61,-31.99 1545.84,-31.42 1547.07,-30.81"/>
<polygon fill="green" stroke="green" stroke-width="0.11" points="1549.13,-33.67 1556.22,-25.81 1545.77,-27.53 1549.13,-33.67"/>
</g>
<!-- 285&#45;&gt;7 -->
<g id="edge128" class="edge">
<title>285&#45;&gt;7</title>
<path fill="none" stroke="red" stroke-width="0.56" d="M1411.13,-76.78C1415.6,-73.67 1420.5,-70.7 1425.4,-68.53 1495.62,-37.43 1522.81,-60.32 1594.4,-32.53 1595.64,-32.05 1596.88,-31.51 1598.12,-30.94"/>
<polygon fill="red" stroke="red" stroke-width="0.56" points="1600.14,-33.83 1607.32,-26.04 1596.85,-27.65 1600.14,-33.83"/>
</g>
<!-- 286&#45;&gt;0 -->
<g id="edge129" class="edge">
<title>286&#45;&gt;0</title>
<path fill="none" stroke="red" stroke-width="0.13" d="M1440.87,-76.31C1436.39,-73.23 1431.44,-70.38 1426.4,-68.53 1243.96,-1.29 1175.77,-91.21 990.4,-32.53 989.14,-32.13 987.87,-31.66 986.61,-31.13"/>
<polygon fill="red" stroke="red" stroke-width="0.13" points="987.85,-27.84 977.36,-26.4 984.66,-34.07 987.85,-27.84"/>
</g>
<!-- 286&#45;&gt;1 -->
<g id="edge130" class="edge">
<title>286&#45;&gt;1</title>
<path fill="none" stroke="green" stroke-width="0.26" d="M1440.83,-76.42C1436.35,-73.32 1431.41,-70.45 1426.4,-68.53 1289.91,-16.1 1244.09,-53.61 1099.4,-32.53 1079.79,-29.67 1057.75,-25.63 1041.17,-22.43"/>
<polygon fill="green" stroke="green" stroke-width="0.26" points="1041.63,-18.95 1031.14,-20.46 1040.28,-25.82 1041.63,-18.95"/>
</g>
<!-- 286&#45;&gt;2 -->
<g id="edge131" class="edge">
<title>286&#45;&gt;2</title>
<path fill="none" stroke="green" stroke-width="0.32" d="M1440.74,-76.63C1436.27,-73.53 1431.35,-70.6 1426.4,-68.53 1401.02,-57.92 1219.35,-30.96 1150.64,-21.02"/>
<polygon fill="green" stroke="green" stroke-width="0.32" points="1151.02,-17.54 1140.62,-19.58 1150.02,-24.47 1151.02,-17.54"/>
</g>
<!-- 286&#45;&gt;3 -->
<g id="edge132" class="edge">
<title>286&#45;&gt;3</title>
<path fill="none" stroke="green" stroke-width="0.47" d="M1440.53,-77.1C1436.07,-73.97 1431.21,-70.91 1426.4,-68.53 1378.81,-44.95 1318.23,-29.73 1284.35,-22.4"/>
<polygon fill="green" stroke="green" stroke-width="0.47" points="1284.84,-18.93 1274.34,-20.3 1283.4,-25.78 1284.84,-18.93"/>
</g>
<!-- 286&#45;&gt;4 -->
<g id="edge133" class="edge">
<title>286&#45;&gt;4</title>
<path fill="none" stroke="green" stroke-width="0.11" d="M1461.93,-68.54C1462.81,-60.33 1463.79,-51.1 1464.68,-42.76"/>
<polygon fill="green" stroke="green" stroke-width="0.11" points="1468.16,-43.12 1465.74,-32.81 1461.2,-42.38 1468.16,-43.12"/>
</g>
<!-- 286&#45;&gt;5 -->
<g id="edge134" class="edge">
<title>286&#45;&gt;5</title>
<path fill="none" stroke="green" stroke-width="1.04" d="M1474.29,-73.35C1482.89,-62.42 1493.7,-48.67 1502.46,-37.53"/>
<polygon fill="green" stroke="green" stroke-width="1.04" points="1505.27,-39.62 1508.7,-29.6 1499.77,-35.29 1505.27,-39.62"/>
</g>
<!-- 286&#45;&gt;6 -->
<g id="edge135" class="edge">
<title>286&#45;&gt;6</title>
<path fill="none" stroke="green" stroke-width="0.16" d="M1479.21,-77.84C1483.54,-74.74 1488.11,-71.5 1492.4,-68.53 1510.94,-55.69 1532.32,-41.51 1547.83,-31.32"/>
<polygon fill="green" stroke="green" stroke-width="0.16" points="1549.78,-34.23 1556.22,-25.83 1545.94,-28.38 1549.78,-34.23"/>
</g>
<!-- 286&#45;&gt;7 -->
<g id="edge136" class="edge">
<title>286&#45;&gt;7</title>
<path fill="none" stroke="green" stroke-width="0.52" d="M1478.35,-77.25C1482.81,-74.11 1487.65,-71.01 1492.4,-68.53 1535.01,-46.26 1550.81,-52.79 1594.4,-32.53 1595.58,-31.98 1596.77,-31.4 1597.96,-30.79"/>
<polygon fill="green" stroke="green" stroke-width="0.52" points="1599.84,-33.75 1606.9,-25.85 1596.46,-27.62 1599.84,-33.75"/>
</g>
<!-- 287&#45;&gt;0 -->
<g id="edge137" class="edge">
<title>287&#45;&gt;0</title>
<path fill="none" stroke="red" stroke-width="0.11" d="M1507.88,-76.27C1503.4,-73.19 1498.45,-70.35 1493.4,-68.53 1282.68,7.83 1204.44,-99.01 990.4,-32.53 989.14,-32.13 987.87,-31.67 986.61,-31.15"/>
<polygon fill="red" stroke="red" stroke-width="0.11" points="987.84,-27.85 977.35,-26.43 984.67,-34.09 987.84,-27.85"/>
</g>
<!-- 287&#45;&gt;1 -->
<g id="edge138" class="edge">
<title>287&#45;&gt;1</title>
<path fill="none" stroke="red" stroke-width="0.29" d="M1507.85,-76.35C1503.38,-73.26 1498.43,-70.4 1493.4,-68.53 1328.68,-7 1273.63,-56.27 1099.4,-32.53 1079.76,-29.85 1057.72,-25.81 1041.15,-22.55"/>
<polygon fill="red" stroke="red" stroke-width="0.29" points="1041.62,-19.08 1031.13,-20.55 1040.25,-25.94 1041.62,-19.08"/>
</g>
<!-- 287&#45;&gt;2 -->
<g id="edge139" class="edge">
<title>287&#45;&gt;2</title>
<path fill="none" stroke="green" stroke-width="0.56" d="M1507.79,-76.52C1503.31,-73.42 1498.38,-70.52 1493.4,-68.53 1385.1,-25.18 1348.94,-48.62 1233.4,-32.53 1205.1,-28.59 1172.67,-24.04 1150.6,-20.94"/>
<polygon fill="green" stroke="green" stroke-width="0.56" points="1151.04,-17.47 1140.65,-19.55 1150.07,-24.4 1151.04,-17.47"/>
</g>
<!-- 287&#45;&gt;3 -->
<g id="edge140" class="edge">
<title>287&#45;&gt;3</title>
<path fill="none" stroke="green" stroke-width="0.35" d="M1507.67,-76.8C1503.2,-73.69 1498.3,-70.71 1493.4,-68.53 1422.05,-36.72 1329.49,-24.03 1284.82,-19.49"/>
<polygon fill="green" stroke="green" stroke-width="0.35" points="1285.07,-16 1274.78,-18.53 1284.4,-22.97 1285.07,-16"/>
</g>
<!-- 287&#45;&gt;4 -->
<g id="edge141" class="edge">
<title>287&#45;&gt;4</title>
<path fill="none" stroke="red" stroke-width="0.51" d="M1511.51,-73.35C1502.92,-62.42 1492.11,-48.67 1483.34,-37.53"/>
<polygon fill="red" stroke="red" stroke-width="0.51" points="1486.04,-35.29 1477.1,-29.6 1480.53,-39.62 1486.04,-35.29"/>
</g>
<!-- 287&#45;&gt;5 -->
<g id="edge142" class="edge">
<title>287&#45;&gt;5</title>
<path fill="none" stroke="green" stroke-width="0.27" d="M1523.87,-68.54C1522.99,-60.33 1522.01,-51.1 1521.12,-42.76"/>
<polygon fill="green" stroke="green" stroke-width="0.27" points="1524.6,-42.38 1520.06,-32.81 1517.64,-43.12 1524.6,-42.38"/>
</g>
<!-- 287&#45;&gt;6 -->
<g id="edge143" class="edge">
<title>287&#45;&gt;6</title>
<path fill="none" stroke="red" stroke-width="0.23" d="M1538.38,-71.38C1544.03,-61.53 1550.78,-49.75 1556.54,-39.71"/>
<polygon fill="red" stroke="red" stroke-width="0.23" points="1559.75,-41.14 1561.68,-30.73 1553.67,-37.66 1559.75,-41.14"/>
</g>
<!-- 287&#45;&gt;7 -->
<g id="edge144" class="edge">
<title>287&#45;&gt;7</title>
<path fill="none" stroke="green" stroke-width="0.24" d="M1545.42,-77.1C1561.32,-64.41 1583.93,-46.36 1600.16,-33.41"/>
<polygon fill="green" stroke="green" stroke-width="0.24" points="1602.36,-36.13 1608,-27.16 1598,-30.66 1602.36,-36.13"/>
</g>
</g>
</svg>
