<?xml version="1.0" encoding="utf-8" standalone="no"?>
<!DOCTYPE svg PUBLIC "-//W3C//DTD SVG 1.1//EN"
  "http://www.w3.org/Graphics/SVG/1.1/DTD/svg11.dtd">
<svg xmlns:xlink="http://www.w3.org/1999/xlink" width="460.8pt" height="345.6pt" viewBox="0 0 460.8 345.6" xmlns="http://www.w3.org/2000/svg" version="1.1">
 <metadata>
  <rdf:RDF xmlns:dc="http://purl.org/dc/elements/1.1/" xmlns:cc="http://creativecommons.org/ns#" xmlns:rdf="http://www.w3.org/1999/02/22-rdf-syntax-ns#">
   <cc:Work>
    <dc:type rdf:resource="http://purl.org/dc/dcmitype/StillImage"/>
    <dc:date>2023-06-20T11:01:51.882011</dc:date>
    <dc:format>image/svg+xml</dc:format>
    <dc:creator>
     <cc:Agent>
      <dc:title>Matplotlib v3.6.3, https://matplotlib.org/</dc:title>
     </cc:Agent>
    </dc:creator>
   </cc:Work>
  </rdf:RDF>
 </metadata>
 <defs>
  <style type="text/css">*{stroke-linejoin: round; stroke-linecap: butt}</style>
 </defs>
 <g id="figure_1">
  <g id="patch_1">
   <path d="M 0 345.6 
L 460.8 345.6 
L 460.8 0 
L 0 0 
z
" style="fill: #ffffff"/>
  </g>
  <g id="axes_1">
   <g id="patch_2">
    <path d="M 57.6 307.584 
L 414.72 307.584 
L 414.72 41.472 
L 57.6 41.472 
z
" style="fill: #ffffff"/>
   </g>
   <g id="PolyCollection_1">
    <path d="M 73.832727 240.637585 
L 73.832727 307.584 
L 82.157203 307.584 
L 90.481678 307.584 
L 98.806154 307.584 
L 107.130629 307.584 
L 115.455105 307.584 
L 123.77958 307.584 
L 132.104056 307.584 
L 140.428531 307.584 
L 148.753007 307.584 
L 157.077483 307.584 
L 165.401958 307.584 
L 173.726434 307.584 
L 182.050909 307.584 
L 190.375385 307.584 
L 198.69986 307.584 
L 207.024336 307.584 
L 215.348811 307.584 
L 223.673287 307.584 
L 231.997762 307.584 
L 240.322238 307.584 
L 248.646713 307.584 
L 256.971189 307.584 
L 265.295664 307.584 
L 273.62014 307.584 
L 281.944615 307.584 
L 290.269091 307.584 
L 298.593566 307.584 
L 306.918042 307.584 
L 315.242517 307.584 
L 323.566993 307.584 
L 331.891469 307.584 
L 340.215944 307.584 
L 348.54042 307.584 
L 356.864895 307.584 
L 365.189371 307.584 
L 373.513846 307.584 
L 381.838322 307.584 
L 390.162797 307.584 
L 398.487273 307.584 
L 398.487273 307.584 
L 398.487273 307.584 
L 390.162797 307.584 
L 381.838322 307.584 
L 373.513846 307.584 
L 365.189371 307.584 
L 356.864895 307.584 
L 348.54042 307.584 
L 340.215944 307.584 
L 331.891469 307.584 
L 323.566993 307.584 
L 315.242517 307.584 
L 306.918042 307.584 
L 298.593566 307.584 
L 290.269091 307.584 
L 281.944615 307.584 
L 273.62014 307.584 
L 265.295664 307.584 
L 256.971189 307.584 
L 248.646713 293.23834 
L 240.322238 288.456453 
L 231.997762 293.23834 
L 223.673287 288.456453 
L 215.348811 293.23834 
L 207.024336 288.456453 
L 198.69986 288.456453 
L 190.375385 293.23834 
L 182.050909 288.456453 
L 173.726434 293.23834 
L 165.401958 288.456453 
L 157.077483 293.23834 
L 148.753007 288.456453 
L 140.428531 293.23834 
L 132.104056 288.456453 
L 123.77958 293.23834 
L 115.455105 288.456453 
L 107.130629 293.23834 
L 98.806154 288.456453 
L 90.481678 293.23834 
L 82.157203 231.073811 
L 73.832727 240.637585 
z
" clip-path="url(#p1ac37c4975)" style="fill: #1f77b4"/>
   </g>
   <g id="PolyCollection_2">
    <path d="M 73.832727 221.510038 
L 73.832727 240.637585 
L 82.157203 231.073811 
L 90.481678 293.23834 
L 98.806154 288.456453 
L 107.130629 293.23834 
L 115.455105 288.456453 
L 123.77958 293.23834 
L 132.104056 288.456453 
L 140.428531 293.23834 
L 148.753007 288.456453 
L 157.077483 293.23834 
L 165.401958 288.456453 
L 173.726434 293.23834 
L 182.050909 288.456453 
L 190.375385 293.23834 
L 198.69986 288.456453 
L 207.024336 288.456453 
L 215.348811 293.23834 
L 223.673287 288.456453 
L 231.997762 293.23834 
L 240.322238 288.456453 
L 248.646713 293.23834 
L 256.971189 307.584 
L 265.295664 307.584 
L 273.62014 307.584 
L 281.944615 307.584 
L 290.269091 307.584 
L 298.593566 307.584 
L 306.918042 307.584 
L 315.242517 307.584 
L 323.566993 307.584 
L 331.891469 307.584 
L 340.215944 307.584 
L 348.54042 307.584 
L 356.864895 307.584 
L 365.189371 307.584 
L 373.513846 307.584 
L 381.838322 307.584 
L 390.162797 307.584 
L 398.487273 307.584 
L 398.487273 307.584 
L 398.487273 307.584 
L 390.162797 307.584 
L 381.838322 307.584 
L 373.513846 307.584 
L 365.189371 307.584 
L 356.864895 307.584 
L 348.54042 307.584 
L 340.215944 307.584 
L 331.891469 307.584 
L 323.566993 307.584 
L 315.242517 307.584 
L 306.918042 307.584 
L 298.593566 307.584 
L 290.269091 307.584 
L 281.944615 307.584 
L 273.62014 307.584 
L 265.295664 307.584 
L 256.971189 307.584 
L 248.646713 293.23834 
L 240.322238 278.892679 
L 231.997762 283.674566 
L 223.673287 278.892679 
L 215.348811 283.674566 
L 207.024336 278.892679 
L 198.69986 278.892679 
L 190.375385 283.674566 
L 182.050909 278.892679 
L 173.726434 283.674566 
L 165.401958 278.892679 
L 157.077483 283.674566 
L 148.753007 278.892679 
L 140.428531 283.674566 
L 132.104056 278.892679 
L 123.77958 283.674566 
L 115.455105 278.892679 
L 107.130629 283.674566 
L 98.806154 278.892679 
L 90.481678 278.892679 
L 82.157203 221.510038 
L 73.832727 221.510038 
z
" clip-path="url(#p1ac37c4975)" style="fill: #ff7f0e"/>
   </g>
   <g id="PolyCollection_3">
    <path d="M 73.832727 216.728151 
L 73.832727 221.510038 
L 82.157203 221.510038 
L 90.481678 278.892679 
L 98.806154 278.892679 
L 107.130629 283.674566 
L 115.455105 278.892679 
L 123.77958 283.674566 
L 132.104056 278.892679 
L 140.428531 283.674566 
L 148.753007 278.892679 
L 157.077483 283.674566 
L 165.401958 278.892679 
L 173.726434 283.674566 
L 182.050909 278.892679 
L 190.375385 283.674566 
L 198.69986 278.892679 
L 207.024336 278.892679 
L 215.348811 283.674566 
L 223.673287 278.892679 
L 231.997762 283.674566 
L 240.322238 278.892679 
L 248.646713 293.23834 
L 256.971189 307.584 
L 265.295664 307.584 
L 273.62014 307.584 
L 281.944615 307.584 
L 290.269091 307.584 
L 298.593566 307.584 
L 306.918042 307.584 
L 315.242517 307.584 
L 323.566993 307.584 
L 331.891469 307.584 
L 340.215944 307.584 
L 348.54042 307.584 
L 356.864895 307.584 
L 365.189371 307.584 
L 373.513846 307.584 
L 381.838322 307.584 
L 390.162797 307.584 
L 398.487273 307.584 
L 398.487273 307.584 
L 398.487273 307.584 
L 390.162797 307.584 
L 381.838322 307.584 
L 373.513846 307.584 
L 365.189371 307.584 
L 356.864895 307.584 
L 348.54042 307.584 
L 340.215944 307.584 
L 331.891469 307.584 
L 323.566993 307.584 
L 315.242517 307.584 
L 306.918042 307.584 
L 298.593566 307.584 
L 290.269091 307.584 
L 281.944615 307.584 
L 273.62014 307.584 
L 265.295664 307.584 
L 256.971189 307.584 
L 248.646713 293.23834 
L 240.322238 269.328906 
L 231.997762 274.110792 
L 223.673287 269.328906 
L 215.348811 274.110792 
L 207.024336 269.328906 
L 198.69986 269.328906 
L 190.375385 274.110792 
L 182.050909 269.328906 
L 173.726434 274.110792 
L 165.401958 269.328906 
L 157.077483 274.110792 
L 148.753007 269.328906 
L 140.428531 274.110792 
L 132.104056 269.328906 
L 123.77958 274.110792 
L 115.455105 269.328906 
L 107.130629 274.110792 
L 98.806154 269.328906 
L 90.481678 269.328906 
L 82.157203 211.946264 
L 73.832727 216.728151 
z
" clip-path="url(#p1ac37c4975)" style="fill: #2ca02c"/>
   </g>
   <g id="PolyCollection_4">
    <path d="M 73.832727 211.946264 
L 73.832727 216.728151 
L 82.157203 211.946264 
L 90.481678 269.328906 
L 98.806154 269.328906 
L 107.130629 274.110792 
L 115.455105 269.328906 
L 123.77958 274.110792 
L 132.104056 269.328906 
L 140.428531 274.110792 
L 148.753007 269.328906 
L 157.077483 274.110792 
L 165.401958 269.328906 
L 173.726434 274.110792 
L 182.050909 269.328906 
L 190.375385 274.110792 
L 198.69986 269.328906 
L 207.024336 269.328906 
L 215.348811 274.110792 
L 223.673287 269.328906 
L 231.997762 274.110792 
L 240.322238 269.328906 
L 248.646713 293.23834 
L 256.971189 307.584 
L 265.295664 307.584 
L 273.62014 307.584 
L 281.944615 307.584 
L 290.269091 307.584 
L 298.593566 307.584 
L 306.918042 307.584 
L 315.242517 307.584 
L 323.566993 307.584 
L 331.891469 307.584 
L 340.215944 307.584 
L 348.54042 307.584 
L 356.864895 307.584 
L 365.189371 307.584 
L 373.513846 307.584 
L 381.838322 307.584 
L 390.162797 307.584 
L 398.487273 307.584 
L 398.487273 259.765132 
L 398.487273 259.765132 
L 390.162797 269.328906 
L 381.838322 269.328906 
L 373.513846 274.110792 
L 365.189371 278.892679 
L 356.864895 283.674566 
L 348.54042 278.892679 
L 340.215944 274.110792 
L 331.891469 274.110792 
L 323.566993 278.892679 
L 315.242517 274.110792 
L 306.918042 278.892679 
L 298.593566 283.674566 
L 290.269091 278.892679 
L 281.944615 283.674566 
L 273.62014 278.892679 
L 265.295664 288.456453 
L 256.971189 283.674566 
L 248.646713 278.892679 
L 240.322238 250.201358 
L 231.997762 259.765132 
L 223.673287 250.201358 
L 215.348811 259.765132 
L 207.024336 259.765132 
L 198.69986 254.983245 
L 190.375385 254.983245 
L 182.050909 254.983245 
L 173.726434 254.983245 
L 165.401958 254.983245 
L 157.077483 254.983245 
L 148.753007 254.983245 
L 140.428531 264.547019 
L 132.104056 254.983245 
L 123.77958 264.547019 
L 115.455105 254.983245 
L 107.130629 264.547019 
L 98.806154 254.983245 
L 90.481678 245.419472 
L 82.157203 202.382491 
L 73.832727 211.946264 
z
" clip-path="url(#p1ac37c4975)" style="fill: #d62728"/>
   </g>
   <g id="PolyCollection_5">
    <path d="M 73.832727 202.382491 
L 73.832727 211.946264 
L 82.157203 202.382491 
L 90.481678 245.419472 
L 98.806154 254.983245 
L 107.130629 264.547019 
L 115.455105 254.983245 
L 123.77958 264.547019 
L 132.104056 254.983245 
L 140.428531 264.547019 
L 148.753007 254.983245 
L 157.077483 254.983245 
L 165.401958 254.983245 
L 173.726434 254.983245 
L 182.050909 254.983245 
L 190.375385 254.983245 
L 198.69986 254.983245 
L 207.024336 259.765132 
L 215.348811 259.765132 
L 223.673287 250.201358 
L 231.997762 259.765132 
L 240.322238 250.201358 
L 248.646713 278.892679 
L 256.971189 283.674566 
L 265.295664 288.456453 
L 273.62014 278.892679 
L 281.944615 283.674566 
L 290.269091 278.892679 
L 298.593566 283.674566 
L 306.918042 278.892679 
L 315.242517 274.110792 
L 323.566993 278.892679 
L 331.891469 274.110792 
L 340.215944 274.110792 
L 348.54042 278.892679 
L 356.864895 283.674566 
L 365.189371 278.892679 
L 373.513846 274.110792 
L 381.838322 269.328906 
L 390.162797 269.328906 
L 398.487273 259.765132 
L 398.487273 259.765132 
L 398.487273 259.765132 
L 390.162797 269.328906 
L 381.838322 269.328906 
L 373.513846 274.110792 
L 365.189371 278.892679 
L 356.864895 283.674566 
L 348.54042 278.892679 
L 340.215944 274.110792 
L 331.891469 274.110792 
L 323.566993 278.892679 
L 315.242517 274.110792 
L 306.918042 278.892679 
L 298.593566 283.674566 
L 290.269091 278.892679 
L 281.944615 283.674566 
L 273.62014 278.892679 
L 265.295664 288.456453 
L 256.971189 283.674566 
L 248.646713 278.892679 
L 240.322238 240.637585 
L 231.997762 250.201358 
L 223.673287 240.637585 
L 215.348811 250.201358 
L 207.024336 250.201358 
L 198.69986 245.419472 
L 190.375385 245.419472 
L 182.050909 245.419472 
L 173.726434 245.419472 
L 165.401958 245.419472 
L 157.077483 245.419472 
L 148.753007 245.419472 
L 140.428531 254.983245 
L 132.104056 245.419472 
L 123.77958 254.983245 
L 115.455105 245.419472 
L 107.130629 254.983245 
L 98.806154 245.419472 
L 90.481678 235.855698 
L 82.157203 188.03683 
L 73.832727 202.382491 
z
" clip-path="url(#p1ac37c4975)" style="fill: #9467bd"/>
   </g>
   <g id="PolyCollection_6">
    <path d="M 73.832727 183.254943 
L 73.832727 202.382491 
L 82.157203 188.03683 
L 90.481678 235.855698 
L 98.806154 245.419472 
L 107.130629 254.983245 
L 115.455105 245.419472 
L 123.77958 254.983245 
L 132.104056 245.419472 
L 140.428531 254.983245 
L 148.753007 245.419472 
L 157.077483 245.419472 
L 165.401958 245.419472 
L 173.726434 245.419472 
L 182.050909 245.419472 
L 190.375385 245.419472 
L 198.69986 245.419472 
L 207.024336 250.201358 
L 215.348811 250.201358 
L 223.673287 240.637585 
L 231.997762 250.201358 
L 240.322238 240.637585 
L 248.646713 278.892679 
L 256.971189 283.674566 
L 265.295664 288.456453 
L 273.62014 278.892679 
L 281.944615 283.674566 
L 290.269091 278.892679 
L 298.593566 283.674566 
L 306.918042 278.892679 
L 315.242517 274.110792 
L 323.566993 278.892679 
L 331.891469 274.110792 
L 340.215944 274.110792 
L 348.54042 278.892679 
L 356.864895 283.674566 
L 365.189371 278.892679 
L 373.513846 274.110792 
L 381.838322 269.328906 
L 390.162797 269.328906 
L 398.487273 259.765132 
L 398.487273 221.510038 
L 398.487273 221.510038 
L 390.162797 226.291925 
L 381.838322 235.855698 
L 373.513846 245.419472 
L 365.189371 245.419472 
L 356.864895 245.419472 
L 348.54042 240.637585 
L 340.215944 240.637585 
L 331.891469 240.637585 
L 323.566993 250.201358 
L 315.242517 250.201358 
L 306.918042 250.201358 
L 298.593566 259.765132 
L 290.269091 250.201358 
L 281.944615 259.765132 
L 273.62014 250.201358 
L 265.295664 254.983245 
L 256.971189 245.419472 
L 248.646713 245.419472 
L 240.322238 216.728151 
L 231.997762 221.510038 
L 223.673287 216.728151 
L 215.348811 221.510038 
L 207.024336 226.291925 
L 198.69986 221.510038 
L 190.375385 221.510038 
L 182.050909 221.510038 
L 173.726434 216.728151 
L 165.401958 216.728151 
L 157.077483 221.510038 
L 148.753007 216.728151 
L 140.428531 231.073811 
L 132.104056 216.728151 
L 123.77958 221.510038 
L 115.455105 216.728151 
L 107.130629 231.073811 
L 98.806154 226.291925 
L 90.481678 197.600604 
L 82.157203 173.69117 
L 73.832727 183.254943 
z
" clip-path="url(#p1ac37c4975)" style="fill: #8c564b"/>
   </g>
   <g id="PolyCollection_7">
    <path d="M 73.832727 159.345509 
L 73.832727 183.254943 
L 82.157203 173.69117 
L 90.481678 197.600604 
L 98.806154 226.291925 
L 107.130629 231.073811 
L 115.455105 216.728151 
L 123.77958 221.510038 
L 132.104056 216.728151 
L 140.428531 231.073811 
L 148.753007 216.728151 
L 157.077483 221.510038 
L 165.401958 216.728151 
L 173.726434 216.728151 
L 182.050909 221.510038 
L 190.375385 221.510038 
L 198.69986 221.510038 
L 207.024336 226.291925 
L 215.348811 221.510038 
L 223.673287 216.728151 
L 231.997762 221.510038 
L 240.322238 216.728151 
L 248.646713 245.419472 
L 256.971189 245.419472 
L 265.295664 254.983245 
L 273.62014 250.201358 
L 281.944615 259.765132 
L 290.269091 250.201358 
L 298.593566 259.765132 
L 306.918042 250.201358 
L 315.242517 250.201358 
L 323.566993 250.201358 
L 331.891469 240.637585 
L 340.215944 240.637585 
L 348.54042 240.637585 
L 356.864895 245.419472 
L 365.189371 245.419472 
L 373.513846 245.419472 
L 381.838322 235.855698 
L 390.162797 226.291925 
L 398.487273 221.510038 
L 398.487273 221.510038 
L 398.487273 221.510038 
L 390.162797 226.291925 
L 381.838322 235.855698 
L 373.513846 221.510038 
L 365.189371 216.728151 
L 356.864895 221.510038 
L 348.54042 211.946264 
L 340.215944 207.164377 
L 331.891469 216.728151 
L 323.566993 231.073811 
L 315.242517 226.291925 
L 306.918042 221.510038 
L 298.593566 235.855698 
L 290.269091 221.510038 
L 281.944615 235.855698 
L 273.62014 221.510038 
L 265.295664 231.073811 
L 256.971189 216.728151 
L 248.646713 211.946264 
L 240.322238 192.818717 
L 231.997762 192.818717 
L 223.673287 192.818717 
L 215.348811 192.818717 
L 207.024336 202.382491 
L 198.69986 197.600604 
L 190.375385 197.600604 
L 182.050909 188.03683 
L 173.726434 192.818717 
L 165.401958 192.818717 
L 157.077483 192.818717 
L 148.753007 183.254943 
L 140.428531 202.382491 
L 132.104056 192.818717 
L 123.77958 202.382491 
L 115.455105 192.818717 
L 107.130629 202.382491 
L 98.806154 202.382491 
L 90.481678 168.909283 
L 82.157203 154.563623 
L 73.832727 159.345509 
z
" clip-path="url(#p1ac37c4975)" style="fill: #e377c2"/>
   </g>
   <g id="PolyCollection_8">
    <path d="M 73.832727 149.781736 
L 73.832727 159.345509 
L 82.157203 154.563623 
L 90.481678 168.909283 
L 98.806154 202.382491 
L 107.130629 202.382491 
L 115.455105 192.818717 
L 123.77958 202.382491 
L 132.104056 192.818717 
L 140.428531 202.382491 
L 148.753007 183.254943 
L 157.077483 192.818717 
L 165.401958 192.818717 
L 173.726434 192.818717 
L 182.050909 188.03683 
L 190.375385 197.600604 
L 198.69986 197.600604 
L 207.024336 202.382491 
L 215.348811 192.818717 
L 223.673287 192.818717 
L 231.997762 192.818717 
L 240.322238 192.818717 
L 248.646713 211.946264 
L 256.971189 216.728151 
L 265.295664 231.073811 
L 273.62014 221.510038 
L 281.944615 235.855698 
L 290.269091 221.510038 
L 298.593566 235.855698 
L 306.918042 221.510038 
L 315.242517 226.291925 
L 323.566993 231.073811 
L 331.891469 216.728151 
L 340.215944 207.164377 
L 348.54042 211.946264 
L 356.864895 221.510038 
L 365.189371 216.728151 
L 373.513846 221.510038 
L 381.838322 235.855698 
L 390.162797 226.291925 
L 398.487273 221.510038 
L 398.487273 221.510038 
L 398.487273 221.510038 
L 390.162797 226.291925 
L 381.838322 235.855698 
L 373.513846 221.510038 
L 365.189371 216.728151 
L 356.864895 221.510038 
L 348.54042 211.946264 
L 340.215944 207.164377 
L 331.891469 216.728151 
L 323.566993 231.073811 
L 315.242517 226.291925 
L 306.918042 221.510038 
L 298.593566 235.855698 
L 290.269091 221.510038 
L 281.944615 235.855698 
L 273.62014 221.510038 
L 265.295664 231.073811 
L 256.971189 216.728151 
L 248.646713 211.946264 
L 240.322238 183.254943 
L 231.997762 183.254943 
L 223.673287 183.254943 
L 215.348811 183.254943 
L 207.024336 192.818717 
L 198.69986 188.03683 
L 190.375385 188.03683 
L 182.050909 178.473057 
L 173.726434 183.254943 
L 165.401958 183.254943 
L 157.077483 183.254943 
L 148.753007 173.69117 
L 140.428531 192.818717 
L 132.104056 183.254943 
L 123.77958 192.818717 
L 115.455105 183.254943 
L 107.130629 192.818717 
L 98.806154 192.818717 
L 90.481678 154.563623 
L 82.157203 144.999849 
L 73.832727 149.781736 
z
" clip-path="url(#p1ac37c4975)" style="fill: #7f7f7f"/>
   </g>
   <g id="PolyCollection_9">
    <path d="M 73.832727 106.744755 
L 73.832727 149.781736 
L 82.157203 144.999849 
L 90.481678 154.563623 
L 98.806154 192.818717 
L 107.130629 192.818717 
L 115.455105 183.254943 
L 123.77958 192.818717 
L 132.104056 183.254943 
L 140.428531 192.818717 
L 148.753007 173.69117 
L 157.077483 183.254943 
L 165.401958 183.254943 
L 173.726434 183.254943 
L 182.050909 178.473057 
L 190.375385 188.03683 
L 198.69986 188.03683 
L 207.024336 192.818717 
L 215.348811 183.254943 
L 223.673287 183.254943 
L 231.997762 183.254943 
L 240.322238 183.254943 
L 248.646713 211.946264 
L 256.971189 216.728151 
L 265.295664 231.073811 
L 273.62014 221.510038 
L 281.944615 235.855698 
L 290.269091 221.510038 
L 298.593566 235.855698 
L 306.918042 221.510038 
L 315.242517 226.291925 
L 323.566993 231.073811 
L 331.891469 216.728151 
L 340.215944 207.164377 
L 348.54042 211.946264 
L 356.864895 221.510038 
L 365.189371 216.728151 
L 373.513846 221.510038 
L 381.838322 235.855698 
L 390.162797 226.291925 
L 398.487273 221.510038 
L 398.487273 168.909283 
L 398.487273 168.909283 
L 390.162797 168.909283 
L 381.838322 202.382491 
L 373.513846 192.818717 
L 365.189371 183.254943 
L 356.864895 183.254943 
L 348.54042 183.254943 
L 340.215944 173.69117 
L 331.891469 192.818717 
L 323.566993 202.382491 
L 315.242517 202.382491 
L 306.918042 192.818717 
L 298.593566 202.382491 
L 290.269091 192.818717 
L 281.944615 202.382491 
L 273.62014 192.818717 
L 265.295664 197.600604 
L 256.971189 192.818717 
L 248.646713 183.254943 
L 240.322238 154.563623 
L 231.997762 154.563623 
L 223.673287 159.345509 
L 215.348811 159.345509 
L 207.024336 164.127396 
L 198.69986 159.345509 
L 190.375385 164.127396 
L 182.050909 154.563623 
L 173.726434 154.563623 
L 165.401958 144.999849 
L 157.077483 149.781736 
L 148.753007 144.999849 
L 140.428531 159.345509 
L 132.104056 154.563623 
L 123.77958 164.127396 
L 115.455105 149.781736 
L 107.130629 164.127396 
L 98.806154 168.909283 
L 90.481678 140.217962 
L 82.157203 121.090415 
L 73.832727 106.744755 
z
" clip-path="url(#p1ac37c4975)" style="fill: #bcbd22"/>
   </g>
   <g id="PolyCollection_10">
    <path d="M 73.832727 73.271547 
L 73.832727 106.744755 
L 82.157203 121.090415 
L 90.481678 140.217962 
L 98.806154 168.909283 
L 107.130629 164.127396 
L 115.455105 149.781736 
L 123.77958 164.127396 
L 132.104056 154.563623 
L 140.428531 159.345509 
L 148.753007 144.999849 
L 157.077483 149.781736 
L 165.401958 144.999849 
L 173.726434 154.563623 
L 182.050909 154.563623 
L 190.375385 164.127396 
L 198.69986 159.345509 
L 207.024336 164.127396 
L 215.348811 159.345509 
L 223.673287 159.345509 
L 231.997762 154.563623 
L 240.322238 154.563623 
L 248.646713 183.254943 
L 256.971189 192.818717 
L 265.295664 197.600604 
L 273.62014 192.818717 
L 281.944615 202.382491 
L 290.269091 192.818717 
L 298.593566 202.382491 
L 306.918042 192.818717 
L 315.242517 202.382491 
L 323.566993 202.382491 
L 331.891469 192.818717 
L 340.215944 173.69117 
L 348.54042 183.254943 
L 356.864895 183.254943 
L 365.189371 183.254943 
L 373.513846 192.818717 
L 381.838322 202.382491 
L 390.162797 168.909283 
L 398.487273 168.909283 
L 398.487273 125.872302 
L 398.487273 125.872302 
L 390.162797 121.090415 
L 381.838322 164.127396 
L 373.513846 149.781736 
L 365.189371 149.781736 
L 356.864895 144.999849 
L 348.54042 144.999849 
L 340.215944 140.217962 
L 331.891469 168.909283 
L 323.566993 173.69117 
L 315.242517 168.909283 
L 306.918042 164.127396 
L 298.593566 178.473057 
L 290.269091 164.127396 
L 281.944615 178.473057 
L 273.62014 164.127396 
L 265.295664 164.127396 
L 256.971189 168.909283 
L 248.646713 164.127396 
L 240.322238 130.654189 
L 231.997762 135.436075 
L 223.673287 135.436075 
L 215.348811 130.654189 
L 207.024336 140.217962 
L 198.69986 135.436075 
L 190.375385 144.999849 
L 182.050909 135.436075 
L 173.726434 130.654189 
L 165.401958 125.872302 
L 157.077483 125.872302 
L 148.753007 116.308528 
L 140.428531 135.436075 
L 132.104056 125.872302 
L 123.77958 140.217962 
L 115.455105 130.654189 
L 107.130629 140.217962 
L 98.806154 140.217962 
L 90.481678 130.654189 
L 82.157203 101.962868 
L 73.832727 73.271547 
z
" clip-path="url(#p1ac37c4975)" style="fill: #17becf"/>
   </g>
   <g id="PolyCollection_11">
    <path d="M 73.832727 68.48966 
L 73.832727 73.271547 
L 82.157203 101.962868 
L 90.481678 130.654189 
L 98.806154 140.217962 
L 107.130629 140.217962 
L 115.455105 130.654189 
L 123.77958 140.217962 
L 132.104056 125.872302 
L 140.428531 135.436075 
L 148.753007 116.308528 
L 157.077483 125.872302 
L 165.401958 125.872302 
L 173.726434 130.654189 
L 182.050909 135.436075 
L 190.375385 144.999849 
L 198.69986 135.436075 
L 207.024336 140.217962 
L 215.348811 130.654189 
L 223.673287 135.436075 
L 231.997762 135.436075 
L 240.322238 130.654189 
L 248.646713 164.127396 
L 256.971189 168.909283 
L 265.295664 164.127396 
L 273.62014 164.127396 
L 281.944615 178.473057 
L 290.269091 164.127396 
L 298.593566 178.473057 
L 306.918042 164.127396 
L 315.242517 168.909283 
L 323.566993 173.69117 
L 331.891469 168.909283 
L 340.215944 140.217962 
L 348.54042 144.999849 
L 356.864895 144.999849 
L 365.189371 149.781736 
L 373.513846 149.781736 
L 381.838322 164.127396 
L 390.162797 121.090415 
L 398.487273 125.872302 
L 398.487273 125.872302 
L 398.487273 125.872302 
L 390.162797 121.090415 
L 381.838322 125.872302 
L 373.513846 116.308528 
L 365.189371 111.526642 
L 356.864895 101.962868 
L 348.54042 111.526642 
L 340.215944 101.962868 
L 331.891469 144.999849 
L 323.566993 144.999849 
L 315.242517 135.436075 
L 306.918042 135.436075 
L 298.593566 144.999849 
L 290.269091 135.436075 
L 281.944615 144.999849 
L 273.62014 135.436075 
L 265.295664 140.217962 
L 256.971189 140.217962 
L 248.646713 130.654189 
L 240.322238 106.744755 
L 231.997762 106.744755 
L 223.673287 111.526642 
L 215.348811 116.308528 
L 207.024336 121.090415 
L 198.69986 111.526642 
L 190.375385 125.872302 
L 182.050909 116.308528 
L 173.726434 116.308528 
L 165.401958 116.308528 
L 157.077483 111.526642 
L 148.753007 106.744755 
L 140.428531 121.090415 
L 132.104056 116.308528 
L 123.77958 125.872302 
L 115.455105 111.526642 
L 107.130629 125.872302 
L 98.806154 130.654189 
L 90.481678 101.962868 
L 82.157203 68.48966 
L 73.832727 68.48966 
z
" clip-path="url(#p1ac37c4975)" style="fill: #1f77b4"/>
   </g>
   <g id="PolyCollection_12">
    <path d="M 73.832727 68.48966 
L 73.832727 68.48966 
L 82.157203 68.48966 
L 90.481678 101.962868 
L 98.806154 130.654189 
L 107.130629 125.872302 
L 115.455105 111.526642 
L 123.77958 125.872302 
L 132.104056 116.308528 
L 140.428531 121.090415 
L 148.753007 106.744755 
L 157.077483 111.526642 
L 165.401958 116.308528 
L 173.726434 116.308528 
L 182.050909 116.308528 
L 190.375385 125.872302 
L 198.69986 111.526642 
L 207.024336 121.090415 
L 215.348811 116.308528 
L 223.673287 111.526642 
L 231.997762 106.744755 
L 240.322238 106.744755 
L 248.646713 130.654189 
L 256.971189 140.217962 
L 265.295664 140.217962 
L 273.62014 135.436075 
L 281.944615 144.999849 
L 290.269091 135.436075 
L 298.593566 144.999849 
L 306.918042 135.436075 
L 315.242517 135.436075 
L 323.566993 144.999849 
L 331.891469 144.999849 
L 340.215944 101.962868 
L 348.54042 111.526642 
L 356.864895 101.962868 
L 365.189371 111.526642 
L 373.513846 116.308528 
L 381.838322 125.872302 
L 390.162797 121.090415 
L 398.487273 125.872302 
L 398.487273 125.872302 
L 398.487273 125.872302 
L 390.162797 121.090415 
L 381.838322 125.872302 
L 373.513846 116.308528 
L 365.189371 111.526642 
L 356.864895 101.962868 
L 348.54042 111.526642 
L 340.215944 101.962868 
L 331.891469 106.744755 
L 323.566993 111.526642 
L 315.242517 106.744755 
L 306.918042 101.962868 
L 298.593566 106.744755 
L 290.269091 101.962868 
L 281.944615 106.744755 
L 273.62014 101.962868 
L 265.295664 97.180981 
L 256.971189 106.744755 
L 248.646713 92.399094 
L 240.322238 82.835321 
L 231.997762 78.053434 
L 223.673287 87.617208 
L 215.348811 82.835321 
L 207.024336 92.399094 
L 198.69986 82.835321 
L 190.375385 97.180981 
L 182.050909 78.053434 
L 173.726434 82.835321 
L 165.401958 82.835321 
L 157.077483 87.617208 
L 148.753007 78.053434 
L 140.428531 87.617208 
L 132.104056 87.617208 
L 123.77958 87.617208 
L 115.455105 78.053434 
L 107.130629 87.617208 
L 98.806154 97.180981 
L 90.481678 73.271547 
L 82.157203 68.48966 
L 73.832727 68.48966 
z
" clip-path="url(#p1ac37c4975)" style="fill: #ff7f0e"/>
   </g>
   <g id="PolyCollection_13">
    <path d="M 73.832727 68.48966 
L 73.832727 68.48966 
L 82.157203 68.48966 
L 90.481678 73.271547 
L 98.806154 97.180981 
L 107.130629 87.617208 
L 115.455105 78.053434 
L 123.77958 87.617208 
L 132.104056 87.617208 
L 140.428531 87.617208 
L 148.753007 78.053434 
L 157.077483 87.617208 
L 165.401958 82.835321 
L 173.726434 82.835321 
L 182.050909 78.053434 
L 190.375385 97.180981 
L 198.69986 82.835321 
L 207.024336 92.399094 
L 215.348811 82.835321 
L 223.673287 87.617208 
L 231.997762 78.053434 
L 240.322238 82.835321 
L 248.646713 92.399094 
L 256.971189 106.744755 
L 265.295664 97.180981 
L 273.62014 101.962868 
L 281.944615 106.744755 
L 290.269091 101.962868 
L 298.593566 106.744755 
L 306.918042 101.962868 
L 315.242517 106.744755 
L 323.566993 111.526642 
L 331.891469 106.744755 
L 340.215944 101.962868 
L 348.54042 111.526642 
L 356.864895 101.962868 
L 365.189371 111.526642 
L 373.513846 116.308528 
L 381.838322 125.872302 
L 390.162797 121.090415 
L 398.487273 125.872302 
L 398.487273 73.271547 
L 398.487273 73.271547 
L 390.162797 63.707774 
L 381.838322 78.053434 
L 373.513846 73.271547 
L 365.189371 78.053434 
L 356.864895 63.707774 
L 348.54042 73.271547 
L 340.215944 58.925887 
L 331.891469 73.271547 
L 323.566993 73.271547 
L 315.242517 73.271547 
L 306.918042 63.707774 
L 298.593566 63.707774 
L 290.269091 63.707774 
L 281.944615 73.271547 
L 273.62014 73.271547 
L 265.295664 63.707774 
L 256.971189 73.271547 
L 248.646713 63.707774 
L 240.322238 54.144 
L 231.997762 58.925887 
L 223.673287 63.707774 
L 215.348811 58.925887 
L 207.024336 73.271547 
L 198.69986 63.707774 
L 190.375385 73.271547 
L 182.050909 54.144 
L 173.726434 63.707774 
L 165.401958 58.925887 
L 157.077483 58.925887 
L 148.753007 58.925887 
L 140.428531 63.707774 
L 132.104056 58.925887 
L 123.77958 63.707774 
L 115.455105 58.925887 
L 107.130629 63.707774 
L 98.806154 68.48966 
L 90.481678 58.925887 
L 82.157203 68.48966 
L 73.832727 68.48966 
z
" clip-path="url(#p1ac37c4975)" style="fill: #2ca02c"/>
   </g>
   <g id="matplotlib.axis_1">
    <g id="xtick_1">
     <g id="line2d_1">
      <defs>
       <path id="m32f5dba170" d="M 0 0 
L 0 3.5 
" style="stroke: #000000; stroke-width: 0.8"/>
      </defs>
      <g>
       <use xlink:href="#m32f5dba170" x="73.832727" y="307.584" style="stroke: #000000; stroke-width: 0.8"/>
      </g>
     </g>
     <g id="text_1">
      <!-- 0 -->
      <g transform="translate(70.651477 322.182437) scale(0.1 -0.1)">
       <defs>
        <path id="DejaVuSans-30" d="M 2034 4250 
Q 1547 4250 1301 3770 
Q 1056 3291 1056 2328 
Q 1056 1369 1301 889 
Q 1547 409 2034 409 
Q 2525 409 2770 889 
Q 3016 1369 3016 2328 
Q 3016 3291 2770 3770 
Q 2525 4250 2034 4250 
z
M 2034 4750 
Q 2819 4750 3233 4129 
Q 3647 3509 3647 2328 
Q 3647 1150 3233 529 
Q 2819 -91 2034 -91 
Q 1250 -91 836 529 
Q 422 1150 422 2328 
Q 422 3509 836 4129 
Q 1250 4750 2034 4750 
z
" transform="scale(0.015625)"/>
       </defs>
       <use xlink:href="#DejaVuSans-30"/>
      </g>
     </g>
    </g>
    <g id="xtick_2">
     <g id="line2d_2">
      <g>
       <use xlink:href="#m32f5dba170" x="115.455105" y="307.584" style="stroke: #000000; stroke-width: 0.8"/>
      </g>
     </g>
     <g id="text_2">
      <!-- 5 -->
      <g transform="translate(112.273855 322.182437) scale(0.1 -0.1)">
       <defs>
        <path id="DejaVuSans-35" d="M 691 4666 
L 3169 4666 
L 3169 4134 
L 1269 4134 
L 1269 2991 
Q 1406 3038 1543 3061 
Q 1681 3084 1819 3084 
Q 2600 3084 3056 2656 
Q 3513 2228 3513 1497 
Q 3513 744 3044 326 
Q 2575 -91 1722 -91 
Q 1428 -91 1123 -41 
Q 819 9 494 109 
L 494 744 
Q 775 591 1075 516 
Q 1375 441 1709 441 
Q 2250 441 2565 725 
Q 2881 1009 2881 1497 
Q 2881 1984 2565 2268 
Q 2250 2553 1709 2553 
Q 1456 2553 1204 2497 
Q 953 2441 691 2322 
L 691 4666 
z
" transform="scale(0.015625)"/>
       </defs>
       <use xlink:href="#DejaVuSans-35"/>
      </g>
     </g>
    </g>
    <g id="xtick_3">
     <g id="line2d_3">
      <g>
       <use xlink:href="#m32f5dba170" x="157.077483" y="307.584" style="stroke: #000000; stroke-width: 0.8"/>
      </g>
     </g>
     <g id="text_3">
      <!-- 10 -->
      <g transform="translate(150.714983 322.182437) scale(0.1 -0.1)">
       <defs>
        <path id="DejaVuSans-31" d="M 794 531 
L 1825 531 
L 1825 4091 
L 703 3866 
L 703 4441 
L 1819 4666 
L 2450 4666 
L 2450 531 
L 3481 531 
L 3481 0 
L 794 0 
L 794 531 
z
" transform="scale(0.015625)"/>
       </defs>
       <use xlink:href="#DejaVuSans-31"/>
       <use xlink:href="#DejaVuSans-30" x="63.623047"/>
      </g>
     </g>
    </g>
    <g id="xtick_4">
     <g id="line2d_4">
      <g>
       <use xlink:href="#m32f5dba170" x="198.69986" y="307.584" style="stroke: #000000; stroke-width: 0.8"/>
      </g>
     </g>
     <g id="text_4">
      <!-- 15 -->
      <g transform="translate(192.33736 322.182437) scale(0.1 -0.1)">
       <use xlink:href="#DejaVuSans-31"/>
       <use xlink:href="#DejaVuSans-35" x="63.623047"/>
      </g>
     </g>
    </g>
    <g id="xtick_5">
     <g id="line2d_5">
      <g>
       <use xlink:href="#m32f5dba170" x="240.322238" y="307.584" style="stroke: #000000; stroke-width: 0.8"/>
      </g>
     </g>
     <g id="text_5">
      <!-- 20 -->
      <g transform="translate(233.959738 322.182437) scale(0.1 -0.1)">
       <defs>
        <path id="DejaVuSans-32" d="M 1228 531 
L 3431 531 
L 3431 0 
L 469 0 
L 469 531 
Q 828 903 1448 1529 
Q 2069 2156 2228 2338 
Q 2531 2678 2651 2914 
Q 2772 3150 2772 3378 
Q 2772 3750 2511 3984 
Q 2250 4219 1831 4219 
Q 1534 4219 1204 4116 
Q 875 4013 500 3803 
L 500 4441 
Q 881 4594 1212 4672 
Q 1544 4750 1819 4750 
Q 2544 4750 2975 4387 
Q 3406 4025 3406 3419 
Q 3406 3131 3298 2873 
Q 3191 2616 2906 2266 
Q 2828 2175 2409 1742 
Q 1991 1309 1228 531 
z
" transform="scale(0.015625)"/>
       </defs>
       <use xlink:href="#DejaVuSans-32"/>
       <use xlink:href="#DejaVuSans-30" x="63.623047"/>
      </g>
     </g>
    </g>
    <g id="xtick_6">
     <g id="line2d_6">
      <g>
       <use xlink:href="#m32f5dba170" x="281.944615" y="307.584" style="stroke: #000000; stroke-width: 0.8"/>
      </g>
     </g>
     <g id="text_6">
      <!-- 25 -->
      <g transform="translate(275.582115 322.182437) scale(0.1 -0.1)">
       <use xlink:href="#DejaVuSans-32"/>
       <use xlink:href="#DejaVuSans-35" x="63.623047"/>
      </g>
     </g>
    </g>
    <g id="xtick_7">
     <g id="line2d_7">
      <g>
       <use xlink:href="#m32f5dba170" x="323.566993" y="307.584" style="stroke: #000000; stroke-width: 0.8"/>
      </g>
     </g>
     <g id="text_7">
      <!-- 30 -->
      <g transform="translate(317.204493 322.182437) scale(0.1 -0.1)">
       <defs>
        <path id="DejaVuSans-33" d="M 2597 2516 
Q 3050 2419 3304 2112 
Q 3559 1806 3559 1356 
Q 3559 666 3084 287 
Q 2609 -91 1734 -91 
Q 1441 -91 1130 -33 
Q 819 25 488 141 
L 488 750 
Q 750 597 1062 519 
Q 1375 441 1716 441 
Q 2309 441 2620 675 
Q 2931 909 2931 1356 
Q 2931 1769 2642 2001 
Q 2353 2234 1838 2234 
L 1294 2234 
L 1294 2753 
L 1863 2753 
Q 2328 2753 2575 2939 
Q 2822 3125 2822 3475 
Q 2822 3834 2567 4026 
Q 2313 4219 1838 4219 
Q 1578 4219 1281 4162 
Q 984 4106 628 3988 
L 628 4550 
Q 988 4650 1302 4700 
Q 1616 4750 1894 4750 
Q 2613 4750 3031 4423 
Q 3450 4097 3450 3541 
Q 3450 3153 3228 2886 
Q 3006 2619 2597 2516 
z
" transform="scale(0.015625)"/>
       </defs>
       <use xlink:href="#DejaVuSans-33"/>
       <use xlink:href="#DejaVuSans-30" x="63.623047"/>
      </g>
     </g>
    </g>
    <g id="xtick_8">
     <g id="line2d_8">
      <g>
       <use xlink:href="#m32f5dba170" x="365.189371" y="307.584" style="stroke: #000000; stroke-width: 0.8"/>
      </g>
     </g>
     <g id="text_8">
      <!-- 35 -->
      <g transform="translate(358.826871 322.182437) scale(0.1 -0.1)">
       <use xlink:href="#DejaVuSans-33"/>
       <use xlink:href="#DejaVuSans-35" x="63.623047"/>
      </g>
     </g>
    </g>
    <g id="xtick_9">
     <g id="line2d_9">
      <g>
       <use xlink:href="#m32f5dba170" x="406.811748" y="307.584" style="stroke: #000000; stroke-width: 0.8"/>
      </g>
     </g>
     <g id="text_9">
      <!-- 40 -->
      <g transform="translate(400.449248 322.182437) scale(0.1 -0.1)">
       <defs>
        <path id="DejaVuSans-34" d="M 2419 4116 
L 825 1625 
L 2419 1625 
L 2419 4116 
z
M 2253 4666 
L 3047 4666 
L 3047 1625 
L 3713 1625 
L 3713 1100 
L 3047 1100 
L 3047 0 
L 2419 0 
L 2419 1100 
L 313 1100 
L 313 1709 
L 2253 4666 
z
" transform="scale(0.015625)"/>
       </defs>
       <use xlink:href="#DejaVuSans-34"/>
       <use xlink:href="#DejaVuSans-30" x="63.623047"/>
      </g>
     </g>
    </g>
    <g id="text_10">
     <!-- Generations -->
     <g transform="translate(205.662344 335.860562) scale(0.1 -0.1)">
      <defs>
       <path id="DejaVuSans-47" d="M 3809 666 
L 3809 1919 
L 2778 1919 
L 2778 2438 
L 4434 2438 
L 4434 434 
Q 4069 175 3628 42 
Q 3188 -91 2688 -91 
Q 1594 -91 976 548 
Q 359 1188 359 2328 
Q 359 3472 976 4111 
Q 1594 4750 2688 4750 
Q 3144 4750 3555 4637 
Q 3966 4525 4313 4306 
L 4313 3634 
Q 3963 3931 3569 4081 
Q 3175 4231 2741 4231 
Q 1884 4231 1454 3753 
Q 1025 3275 1025 2328 
Q 1025 1384 1454 906 
Q 1884 428 2741 428 
Q 3075 428 3337 486 
Q 3600 544 3809 666 
z
" transform="scale(0.015625)"/>
       <path id="DejaVuSans-65" d="M 3597 1894 
L 3597 1613 
L 953 1613 
Q 991 1019 1311 708 
Q 1631 397 2203 397 
Q 2534 397 2845 478 
Q 3156 559 3463 722 
L 3463 178 
Q 3153 47 2828 -22 
Q 2503 -91 2169 -91 
Q 1331 -91 842 396 
Q 353 884 353 1716 
Q 353 2575 817 3079 
Q 1281 3584 2069 3584 
Q 2775 3584 3186 3129 
Q 3597 2675 3597 1894 
z
M 3022 2063 
Q 3016 2534 2758 2815 
Q 2500 3097 2075 3097 
Q 1594 3097 1305 2825 
Q 1016 2553 972 2059 
L 3022 2063 
z
" transform="scale(0.015625)"/>
       <path id="DejaVuSans-6e" d="M 3513 2113 
L 3513 0 
L 2938 0 
L 2938 2094 
Q 2938 2591 2744 2837 
Q 2550 3084 2163 3084 
Q 1697 3084 1428 2787 
Q 1159 2491 1159 1978 
L 1159 0 
L 581 0 
L 581 3500 
L 1159 3500 
L 1159 2956 
Q 1366 3272 1645 3428 
Q 1925 3584 2291 3584 
Q 2894 3584 3203 3211 
Q 3513 2838 3513 2113 
z
" transform="scale(0.015625)"/>
       <path id="DejaVuSans-72" d="M 2631 2963 
Q 2534 3019 2420 3045 
Q 2306 3072 2169 3072 
Q 1681 3072 1420 2755 
Q 1159 2438 1159 1844 
L 1159 0 
L 581 0 
L 581 3500 
L 1159 3500 
L 1159 2956 
Q 1341 3275 1631 3429 
Q 1922 3584 2338 3584 
Q 2397 3584 2469 3576 
Q 2541 3569 2628 3553 
L 2631 2963 
z
" transform="scale(0.015625)"/>
       <path id="DejaVuSans-61" d="M 2194 1759 
Q 1497 1759 1228 1600 
Q 959 1441 959 1056 
Q 959 750 1161 570 
Q 1363 391 1709 391 
Q 2188 391 2477 730 
Q 2766 1069 2766 1631 
L 2766 1759 
L 2194 1759 
z
M 3341 1997 
L 3341 0 
L 2766 0 
L 2766 531 
Q 2569 213 2275 61 
Q 1981 -91 1556 -91 
Q 1019 -91 701 211 
Q 384 513 384 1019 
Q 384 1609 779 1909 
Q 1175 2209 1959 2209 
L 2766 2209 
L 2766 2266 
Q 2766 2663 2505 2880 
Q 2244 3097 1772 3097 
Q 1472 3097 1187 3025 
Q 903 2953 641 2809 
L 641 3341 
Q 956 3463 1253 3523 
Q 1550 3584 1831 3584 
Q 2591 3584 2966 3190 
Q 3341 2797 3341 1997 
z
" transform="scale(0.015625)"/>
       <path id="DejaVuSans-74" d="M 1172 4494 
L 1172 3500 
L 2356 3500 
L 2356 3053 
L 1172 3053 
L 1172 1153 
Q 1172 725 1289 603 
Q 1406 481 1766 481 
L 2356 481 
L 2356 0 
L 1766 0 
Q 1100 0 847 248 
Q 594 497 594 1153 
L 594 3053 
L 172 3053 
L 172 3500 
L 594 3500 
L 594 4494 
L 1172 4494 
z
" transform="scale(0.015625)"/>
       <path id="DejaVuSans-69" d="M 603 3500 
L 1178 3500 
L 1178 0 
L 603 0 
L 603 3500 
z
M 603 4863 
L 1178 4863 
L 1178 4134 
L 603 4134 
L 603 4863 
z
" transform="scale(0.015625)"/>
       <path id="DejaVuSans-6f" d="M 1959 3097 
Q 1497 3097 1228 2736 
Q 959 2375 959 1747 
Q 959 1119 1226 758 
Q 1494 397 1959 397 
Q 2419 397 2687 759 
Q 2956 1122 2956 1747 
Q 2956 2369 2687 2733 
Q 2419 3097 1959 3097 
z
M 1959 3584 
Q 2709 3584 3137 3096 
Q 3566 2609 3566 1747 
Q 3566 888 3137 398 
Q 2709 -91 1959 -91 
Q 1206 -91 779 398 
Q 353 888 353 1747 
Q 353 2609 779 3096 
Q 1206 3584 1959 3584 
z
" transform="scale(0.015625)"/>
       <path id="DejaVuSans-73" d="M 2834 3397 
L 2834 2853 
Q 2591 2978 2328 3040 
Q 2066 3103 1784 3103 
Q 1356 3103 1142 2972 
Q 928 2841 928 2578 
Q 928 2378 1081 2264 
Q 1234 2150 1697 2047 
L 1894 2003 
Q 2506 1872 2764 1633 
Q 3022 1394 3022 966 
Q 3022 478 2636 193 
Q 2250 -91 1575 -91 
Q 1294 -91 989 -36 
Q 684 19 347 128 
L 347 722 
Q 666 556 975 473 
Q 1284 391 1588 391 
Q 1994 391 2212 530 
Q 2431 669 2431 922 
Q 2431 1156 2273 1281 
Q 2116 1406 1581 1522 
L 1381 1569 
Q 847 1681 609 1914 
Q 372 2147 372 2553 
Q 372 3047 722 3315 
Q 1072 3584 1716 3584 
Q 2034 3584 2315 3537 
Q 2597 3491 2834 3397 
z
" transform="scale(0.015625)"/>
      </defs>
      <use xlink:href="#DejaVuSans-47"/>
      <use xlink:href="#DejaVuSans-65" x="77.490234"/>
      <use xlink:href="#DejaVuSans-6e" x="139.013672"/>
      <use xlink:href="#DejaVuSans-65" x="202.392578"/>
      <use xlink:href="#DejaVuSans-72" x="263.916016"/>
      <use xlink:href="#DejaVuSans-61" x="305.029297"/>
      <use xlink:href="#DejaVuSans-74" x="366.308594"/>
      <use xlink:href="#DejaVuSans-69" x="405.517578"/>
      <use xlink:href="#DejaVuSans-6f" x="433.300781"/>
      <use xlink:href="#DejaVuSans-6e" x="494.482422"/>
      <use xlink:href="#DejaVuSans-73" x="557.861328"/>
     </g>
    </g>
   </g>
   <g id="matplotlib.axis_2">
    <g id="ytick_1">
     <g id="line2d_10">
      <defs>
       <path id="m3f869b4144" d="M 0 0 
L -3.5 0 
" style="stroke: #000000; stroke-width: 0.8"/>
      </defs>
      <g>
       <use xlink:href="#m3f869b4144" x="57.6" y="307.584" style="stroke: #000000; stroke-width: 0.8"/>
      </g>
     </g>
     <g id="text_11">
      <!-- 0 -->
      <g transform="translate(44.2375 311.383219) scale(0.1 -0.1)">
       <use xlink:href="#DejaVuSans-30"/>
      </g>
     </g>
    </g>
    <g id="ytick_2">
     <g id="line2d_11">
      <g>
       <use xlink:href="#m3f869b4144" x="57.6" y="259.765132" style="stroke: #000000; stroke-width: 0.8"/>
      </g>
     </g>
     <g id="text_12">
      <!-- 10 -->
      <g transform="translate(37.875 263.564351) scale(0.1 -0.1)">
       <use xlink:href="#DejaVuSans-31"/>
       <use xlink:href="#DejaVuSans-30" x="63.623047"/>
      </g>
     </g>
    </g>
    <g id="ytick_3">
     <g id="line2d_12">
      <g>
       <use xlink:href="#m3f869b4144" x="57.6" y="211.946264" style="stroke: #000000; stroke-width: 0.8"/>
      </g>
     </g>
     <g id="text_13">
      <!-- 20 -->
      <g transform="translate(37.875 215.745483) scale(0.1 -0.1)">
       <use xlink:href="#DejaVuSans-32"/>
       <use xlink:href="#DejaVuSans-30" x="63.623047"/>
      </g>
     </g>
    </g>
    <g id="ytick_4">
     <g id="line2d_13">
      <g>
       <use xlink:href="#m3f869b4144" x="57.6" y="164.127396" style="stroke: #000000; stroke-width: 0.8"/>
      </g>
     </g>
     <g id="text_14">
      <!-- 30 -->
      <g transform="translate(37.875 167.926615) scale(0.1 -0.1)">
       <use xlink:href="#DejaVuSans-33"/>
       <use xlink:href="#DejaVuSans-30" x="63.623047"/>
      </g>
     </g>
    </g>
    <g id="ytick_5">
     <g id="line2d_14">
      <g>
       <use xlink:href="#m3f869b4144" x="57.6" y="116.308528" style="stroke: #000000; stroke-width: 0.8"/>
      </g>
     </g>
     <g id="text_15">
      <!-- 40 -->
      <g transform="translate(37.875 120.107747) scale(0.1 -0.1)">
       <use xlink:href="#DejaVuSans-34"/>
       <use xlink:href="#DejaVuSans-30" x="63.623047"/>
      </g>
     </g>
    </g>
    <g id="ytick_6">
     <g id="line2d_15">
      <g>
       <use xlink:href="#m3f869b4144" x="57.6" y="68.48966" style="stroke: #000000; stroke-width: 0.8"/>
      </g>
     </g>
     <g id="text_16">
      <!-- 50 -->
      <g transform="translate(37.875 72.288879) scale(0.1 -0.1)">
       <use xlink:href="#DejaVuSans-35"/>
       <use xlink:href="#DejaVuSans-30" x="63.623047"/>
      </g>
     </g>
    </g>
    <g id="text_17">
     <!-- Size per Species -->
     <g transform="translate(31.795312 215.520969) rotate(-90) scale(0.1 -0.1)">
      <defs>
       <path id="DejaVuSans-53" d="M 3425 4513 
L 3425 3897 
Q 3066 4069 2747 4153 
Q 2428 4238 2131 4238 
Q 1616 4238 1336 4038 
Q 1056 3838 1056 3469 
Q 1056 3159 1242 3001 
Q 1428 2844 1947 2747 
L 2328 2669 
Q 3034 2534 3370 2195 
Q 3706 1856 3706 1288 
Q 3706 609 3251 259 
Q 2797 -91 1919 -91 
Q 1588 -91 1214 -16 
Q 841 59 441 206 
L 441 856 
Q 825 641 1194 531 
Q 1563 422 1919 422 
Q 2459 422 2753 634 
Q 3047 847 3047 1241 
Q 3047 1584 2836 1778 
Q 2625 1972 2144 2069 
L 1759 2144 
Q 1053 2284 737 2584 
Q 422 2884 422 3419 
Q 422 4038 858 4394 
Q 1294 4750 2059 4750 
Q 2388 4750 2728 4690 
Q 3069 4631 3425 4513 
z
" transform="scale(0.015625)"/>
       <path id="DejaVuSans-7a" d="M 353 3500 
L 3084 3500 
L 3084 2975 
L 922 459 
L 3084 459 
L 3084 0 
L 275 0 
L 275 525 
L 2438 3041 
L 353 3041 
L 353 3500 
z
" transform="scale(0.015625)"/>
       <path id="DejaVuSans-20" transform="scale(0.015625)"/>
       <path id="DejaVuSans-70" d="M 1159 525 
L 1159 -1331 
L 581 -1331 
L 581 3500 
L 1159 3500 
L 1159 2969 
Q 1341 3281 1617 3432 
Q 1894 3584 2278 3584 
Q 2916 3584 3314 3078 
Q 3713 2572 3713 1747 
Q 3713 922 3314 415 
Q 2916 -91 2278 -91 
Q 1894 -91 1617 61 
Q 1341 213 1159 525 
z
M 3116 1747 
Q 3116 2381 2855 2742 
Q 2594 3103 2138 3103 
Q 1681 3103 1420 2742 
Q 1159 2381 1159 1747 
Q 1159 1113 1420 752 
Q 1681 391 2138 391 
Q 2594 391 2855 752 
Q 3116 1113 3116 1747 
z
" transform="scale(0.015625)"/>
       <path id="DejaVuSans-63" d="M 3122 3366 
L 3122 2828 
Q 2878 2963 2633 3030 
Q 2388 3097 2138 3097 
Q 1578 3097 1268 2742 
Q 959 2388 959 1747 
Q 959 1106 1268 751 
Q 1578 397 2138 397 
Q 2388 397 2633 464 
Q 2878 531 3122 666 
L 3122 134 
Q 2881 22 2623 -34 
Q 2366 -91 2075 -91 
Q 1284 -91 818 406 
Q 353 903 353 1747 
Q 353 2603 823 3093 
Q 1294 3584 2113 3584 
Q 2378 3584 2631 3529 
Q 2884 3475 3122 3366 
z
" transform="scale(0.015625)"/>
      </defs>
      <use xlink:href="#DejaVuSans-53"/>
      <use xlink:href="#DejaVuSans-69" x="63.476562"/>
      <use xlink:href="#DejaVuSans-7a" x="91.259766"/>
      <use xlink:href="#DejaVuSans-65" x="143.75"/>
      <use xlink:href="#DejaVuSans-20" x="205.273438"/>
      <use xlink:href="#DejaVuSans-70" x="237.060547"/>
      <use xlink:href="#DejaVuSans-65" x="300.537109"/>
      <use xlink:href="#DejaVuSans-72" x="362.060547"/>
      <use xlink:href="#DejaVuSans-20" x="403.173828"/>
      <use xlink:href="#DejaVuSans-53" x="434.960938"/>
      <use xlink:href="#DejaVuSans-70" x="498.4375"/>
      <use xlink:href="#DejaVuSans-65" x="561.914062"/>
      <use xlink:href="#DejaVuSans-63" x="623.4375"/>
      <use xlink:href="#DejaVuSans-69" x="678.417969"/>
      <use xlink:href="#DejaVuSans-65" x="706.201172"/>
      <use xlink:href="#DejaVuSans-73" x="767.724609"/>
     </g>
    </g>
   </g>
   <g id="patch_3">
    <path d="M 57.6 307.584 
L 57.6 41.472 
" style="fill: none; stroke: #000000; stroke-width: 0.8; stroke-linejoin: miter; stroke-linecap: square"/>
   </g>
   <g id="patch_4">
    <path d="M 414.72 307.584 
L 414.72 41.472 
" style="fill: none; stroke: #000000; stroke-width: 0.8; stroke-linejoin: miter; stroke-linecap: square"/>
   </g>
   <g id="patch_5">
    <path d="M 57.6 307.584 
L 414.72 307.584 
" style="fill: none; stroke: #000000; stroke-width: 0.8; stroke-linejoin: miter; stroke-linecap: square"/>
   </g>
   <g id="patch_6">
    <path d="M 57.6 41.472 
L 414.72 41.472 
" style="fill: none; stroke: #000000; stroke-width: 0.8; stroke-linejoin: miter; stroke-linecap: square"/>
   </g>
   <g id="text_18">
    <!-- Speciation -->
    <g transform="translate(204.714375 35.472) scale(0.12 -0.12)">
     <use xlink:href="#DejaVuSans-53"/>
     <use xlink:href="#DejaVuSans-70" x="63.476562"/>
     <use xlink:href="#DejaVuSans-65" x="126.953125"/>
     <use xlink:href="#DejaVuSans-63" x="188.476562"/>
     <use xlink:href="#DejaVuSans-69" x="243.457031"/>
     <use xlink:href="#DejaVuSans-61" x="271.240234"/>
     <use xlink:href="#DejaVuSans-74" x="332.519531"/>
     <use xlink:href="#DejaVuSans-69" x="371.728516"/>
     <use xlink:href="#DejaVuSans-6f" x="399.511719"/>
     <use xlink:href="#DejaVuSans-6e" x="460.693359"/>
    </g>
   </g>
  </g>
 </g>
 <defs>
  <clipPath id="p1ac37c4975">
   <rect x="57.6" y="41.472" width="357.12" height="266.112"/>
  </clipPath>
 </defs>
</svg>
